<?xml version="1.0" encoding="UTF-8" standalone="no"?>
<!DOCTYPE svg PUBLIC "-//W3C//DTD SVG 1.1//EN"
 "http://www.w3.org/Graphics/SVG/1.1/DTD/svg11.dtd">
<!-- Generated by graphviz version 2.43.0 (0)
 -->
<!-- Title: binder Pages: 1 -->
<svg width="301pt" height="208pt"
 viewBox="0.00 0.00 301.00 208.00" xmlns="http://www.w3.org/2000/svg" xmlns:xlink="http://www.w3.org/1999/xlink">
<g id="graph0" class="graph" transform="scale(1 1) rotate(0) translate(4 204)">
<title>binder</title>
<polygon fill="white" stroke="transparent" points="-4,4 -4,-204 297,-204 297,4 -4,4"/>
<!-- m::com.android.server.wm.ActivityClientController.enterPictureInPictureMode:(Landroid/os/IBinder;Landroid/app/PictureInPictureParams;)Z -->
<g id="node1" class="node">
<title>m::com.android.server.wm.ActivityClientController.enterPictureInPictureMode:(Landroid/os/IBinder;Landroid/app/PictureInPictureParams;)Z</title>
<path fill="#eef2ff" stroke="#a5b4fc" d="M281,-118C281,-118 12,-118 12,-118 6,-118 0,-112 0,-106 0,-106 0,-94 0,-94 0,-88 6,-82 12,-82 12,-82 281,-82 281,-82 287,-82 293,-88 293,-94 293,-94 293,-106 293,-106 293,-112 287,-118 281,-118"/>
<text text-anchor="middle" x="146.5" y="-97.2" font-family="Helvetica,sans-Serif" font-size="11.00">ActivityClientController.enterPictureInPictureMode</text>
</g>
<!-- __ipc__ -->
<g id="node2" class="node">
<title>__ipc__</title>
<path fill="#fde68a" stroke="#d97706" stroke-width="2" d="M190.5,-36C190.5,-36 102.5,-36 102.5,-36 96.5,-36 90.5,-30 90.5,-24 90.5,-24 90.5,-12 90.5,-12 90.5,-6 96.5,0 102.5,0 102.5,0 190.5,0 190.5,0 196.5,0 202.5,-6 202.5,-12 202.5,-12 202.5,-24 202.5,-24 202.5,-30 196.5,-36 190.5,-36"/>
<text text-anchor="middle" x="146.5" y="-21.2" font-family="Helvetica,sans-Serif" font-size="11.00">Binder IPC</text>
<text text-anchor="middle" x="146.5" y="-9.2" font-family="Helvetica,sans-Serif" font-size="11.00">(remote process)</text>
</g>
<!-- m::com.android.server.wm.ActivityClientController.enterPictureInPictureMode:(Landroid/os/IBinder;Landroid/app/PictureInPictureParams;)Z&#45;&gt;__ipc__ -->
<g id="edge2" class="edge">
<title>m::com.android.server.wm.ActivityClientController.enterPictureInPictureMode:(Landroid/os/IBinder;Landroid/app/PictureInPictureParams;)Z&#45;&gt;__ipc__</title>
<path fill="none" stroke="#d97706" stroke-width="1.6" d="M146.5,-81.64C146.5,-70.66 146.5,-56.29 146.5,-44.09"/>
<polygon fill="#d97706" stroke="#d97706" stroke-width="1.6" points="149.3,-44.05 146.5,-36.05 143.7,-44.05 149.3,-44.05"/>
<text text-anchor="middle" x="169.5" y="-56.8" font-family="Helvetica,sans-Serif" font-size="9.00" fill="#b45309"> transacts</text>
</g>
<!-- com.android.server.wm.ActivityTaskManagerService.mGlobalLock -->
<g id="node3" class="node">
<title>com.android.server.wm.ActivityTaskManagerService.mGlobalLock</title>
<path fill="#fee2e2" stroke="#dc2626" stroke-width="2" d="M257,-200C257,-200 36,-200 36,-200 30,-200 24,-194 24,-188 24,-188 24,-176 24,-176 24,-170 30,-164 36,-164 36,-164 257,-164 257,-164 263,-164 269,-170 269,-176 269,-176 269,-188 269,-188 269,-194 263,-200 257,-200"/>
<text text-anchor="middle" x="146.5" y="-179.2" font-family="Helvetica,sans-Serif" font-size="11.00">ActivityTaskManagerService.mGlobalLock</text>
</g>
<!-- com.android.server.wm.ActivityTaskManagerService.mGlobalLock&#45;&gt;m::com.android.server.wm.ActivityClientController.enterPictureInPictureMode:(Landroid/os/IBinder;Landroid/app/PictureInPictureParams;)Z -->
<g id="edge1" class="edge">
<title>com.android.server.wm.ActivityTaskManagerService.mGlobalLock&#45;&gt;m::com.android.server.wm.ActivityClientController.enterPictureInPictureMode:(Landroid/os/IBinder;Landroid/app/PictureInPictureParams;)Z</title>
<path fill="none" stroke="#dc2626" stroke-width="1.6" d="M146.5,-163.64C146.5,-152.66 146.5,-138.29 146.5,-126.09"/>
<polygon fill="#dc2626" stroke="#dc2626" stroke-width="1.6" points="149.3,-126.05 146.5,-118.05 143.7,-126.05 149.3,-126.05"/>
<text text-anchor="middle" x="163.5" y="-138.8" font-family="Helvetica,sans-Serif" font-size="9.00" fill="#dc2626"> held in</text>
</g>
</g>
</svg>
