<?xml version="1.0" encoding="UTF-8" standalone="no"?>
<!DOCTYPE svg PUBLIC "-//W3C//DTD SVG 1.1//EN"
 "http://www.w3.org/Graphics/SVG/1.1/DTD/svg11.dtd">
<!-- Generated by graphviz version 2.43.0 (0)
 -->
<!-- Title: race Pages: 1 -->
<svg width="679pt" height="160pt"
 viewBox="0.00 0.00 679.00 160.00" xmlns="http://www.w3.org/2000/svg" xmlns:xlink="http://www.w3.org/1999/xlink">
<g id="graph0" class="graph" transform="scale(1 1) rotate(0) translate(4 156)">
<title>race</title>
<polygon fill="white" stroke="transparent" points="-4,4 -4,-156 675,-156 675,4 -4,4"/>
<!-- __field__ -->
<g id="node1" class="node">
<title>__field__</title>
<path fill="#fef9c3" stroke="#ca8a04" stroke-width="2" d="M659,-94C659,-94 406,-94 406,-94 400,-94 394,-88 394,-82 394,-82 394,-70 394,-70 394,-64 400,-58 406,-58 406,-58 659,-58 659,-58 665,-58 671,-64 671,-70 671,-70 671,-82 671,-82 671,-88 665,-94 659,-94"/>
<text text-anchor="middle" x="532.5" y="-73.2" font-family="Helvetica,sans-Serif" font-size="11.00">DefaultNetworkMetrics.mLastValidationTimeMs</text>
</g>
<!-- __guard__ -->
<g id="node2" class="node">
<title>__guard__</title>
<path fill="#dcfce7" stroke="#16a34a" stroke-width="2" d="M227,-152C227,-152 39,-152 39,-152 33,-152 27,-146 27,-140 27,-140 27,-128 27,-128 27,-122 33,-116 39,-116 39,-116 227,-116 227,-116 233,-116 239,-122 239,-128 239,-128 239,-140 239,-140 239,-146 233,-152 227,-152"/>
<text text-anchor="middle" x="133" y="-131.2" font-family="Helvetica,sans-Serif" font-size="11.00">connectivity.DefaultNetworkMetrics</text>
</g>
<!-- __guard__&#45;&gt;__field__ -->
<g id="edge1" class="edge">
<title>__guard__&#45;&gt;__field__</title>
<path fill="none" stroke="#16a34a" stroke-width="1.6" d="M239.22,-118.65C288.55,-111.45 347.85,-102.8 400.1,-95.17"/>
<polygon fill="#16a34a" stroke="#16a34a" stroke-width="1.6" points="400.58,-97.93 408.09,-94.01 399.77,-92.39 400.58,-97.93"/>
<text text-anchor="middle" x="330" y="-112.8" font-family="Helvetica,sans-Serif" font-size="9.00" fill="#15803d"> guards 2/3</text>
</g>
<!-- m::com.android.server.connectivity.DefaultNetworkMetrics.newDefaultNetwork:(JLandroid/net/Network;IZLandroid/net/LinkProperties;Landroid/net/NetworkCapabilities;)V -->
<g id="node3" class="node">
<title>m::com.android.server.connectivity.DefaultNetworkMetrics.newDefaultNetwork:(JLandroid/net/Network;IZLandroid/net/LinkProperties;Landroid/net/NetworkCapabilities;)V</title>
<path fill="#fee2e2" stroke="#dc2626" d="M248,-94C248,-94 18,-94 18,-94 12,-94 6,-88 6,-82 6,-82 6,-70 6,-70 6,-64 12,-58 18,-58 18,-58 248,-58 248,-58 254,-58 260,-64 260,-70 260,-70 260,-82 260,-82 260,-88 254,-94 248,-94"/>
<text text-anchor="middle" x="133" y="-73.2" font-family="Helvetica,sans-Serif" font-size="11.00">DefaultNetworkMetrics.newDefaultNetwork</text>
</g>
<!-- m::com.android.server.connectivity.DefaultNetworkMetrics.newDefaultNetwork:(JLandroid/net/Network;IZLandroid/net/LinkProperties;Landroid/net/NetworkCapabilities;)V&#45;&gt;__field__ -->
<g id="edge2" class="edge">
<title>m::com.android.server.connectivity.DefaultNetworkMetrics.newDefaultNetwork:(JLandroid/net/Network;IZLandroid/net/LinkProperties;Landroid/net/NetworkCapabilities;)V&#45;&gt;__field__</title>
<path fill="none" stroke="#dc2626" d="M260.04,-76C300.02,-76 344.54,-76 385.77,-76"/>
<polygon fill="#dc2626" stroke="#dc2626" points="385.97,-78.8 393.97,-76 385.97,-73.2 385.97,-78.8"/>
<text text-anchor="middle" x="330" y="-78.8" font-family="Helvetica,sans-Serif" font-size="9.00" fill="#dc2626"> writes unguarded</text>
</g>
<!-- m::com.android.server.connectivity.DefaultNetworkMetrics.updateValidationTime:(J)V -->
<g id="node4" class="node">
<title>m::com.android.server.connectivity.DefaultNetworkMetrics.updateValidationTime:(J)V</title>
<path fill="#fee2e2" stroke="#dc2626" d="M254,-36C254,-36 12,-36 12,-36 6,-36 0,-30 0,-24 0,-24 0,-12 0,-12 0,-6 6,0 12,0 12,0 254,0 254,0 260,0 266,-6 266,-12 266,-12 266,-24 266,-24 266,-30 260,-36 254,-36"/>
<text text-anchor="middle" x="133" y="-15.2" font-family="Helvetica,sans-Serif" font-size="11.00">DefaultNetworkMetrics.updateValidationTime</text>
</g>
<!-- m::com.android.server.connectivity.DefaultNetworkMetrics.updateValidationTime:(J)V&#45;&gt;__field__ -->
<g id="edge3" class="edge">
<title>m::com.android.server.connectivity.DefaultNetworkMetrics.updateValidationTime:(J)V&#45;&gt;__field__</title>
<path fill="none" stroke="#dc2626" d="M257.59,-36.03C302.74,-42.62 353.96,-50.09 399.79,-56.78"/>
<polygon fill="#dc2626" stroke="#dc2626" points="399.66,-59.59 407.98,-57.98 400.47,-54.05 399.66,-59.59"/>
<text text-anchor="middle" x="330" y="-54.8" font-family="Helvetica,sans-Serif" font-size="9.00" fill="#dc2626"> reads unguarded</text>
</g>
</g>
</svg>
