<?xml version="1.0" encoding="UTF-8" standalone="no"?>
<!DOCTYPE svg PUBLIC "-//W3C//DTD SVG 1.1//EN"
 "http://www.w3.org/Graphics/SVG/1.1/DTD/svg11.dtd">
<!-- Generated by graphviz version 2.43.0 (0)
 -->
<!-- Title: race Pages: 1 -->
<svg width="747pt" height="334pt"
 viewBox="0.00 0.00 747.00 334.00" xmlns="http://www.w3.org/2000/svg" xmlns:xlink="http://www.w3.org/1999/xlink">
<g id="graph0" class="graph" transform="scale(1 1) rotate(0) translate(4 330)">
<title>race</title>
<polygon fill="white" stroke="transparent" points="-4,4 -4,-330 743,-330 743,4 -4,4"/>
<!-- __field__ -->
<g id="node1" class="node">
<title>__field__</title>
<path fill="#fef9c3" stroke="#ca8a04" stroke-width="2" d="M727,-170C727,-170 467,-170 467,-170 461,-170 455,-164 455,-158 455,-158 455,-146 455,-146 455,-140 461,-134 467,-134 467,-134 727,-134 727,-134 733,-134 739,-140 739,-146 739,-146 739,-158 739,-158 739,-164 733,-170 727,-170"/>
<text text-anchor="middle" x="597" y="-149.2" font-family="Helvetica,sans-Serif" font-size="11.00">PreferencesHelper$PackagePreferences.visibility</text>
</g>
<!-- __guard__ -->
<g id="node2" class="node">
<title>__guard__</title>
<path fill="#dcfce7" stroke="#16a34a" stroke-width="2" d="M229.5,-326C229.5,-326 97.5,-326 97.5,-326 91.5,-326 85.5,-320 85.5,-314 85.5,-314 85.5,-302 85.5,-302 85.5,-296 91.5,-290 97.5,-290 97.5,-290 229.5,-290 229.5,-290 235.5,-290 241.5,-296 241.5,-302 241.5,-302 241.5,-314 241.5,-314 241.5,-320 235.5,-326 229.5,-326"/>
<text text-anchor="middle" x="163.5" y="-305.2" font-family="Helvetica,sans-Serif" font-size="11.00">PreferencesHelper.mLock</text>
</g>
<!-- __guard__&#45;&gt;__field__ -->
<g id="edge1" class="edge">
<title>__guard__&#45;&gt;__field__</title>
<path fill="none" stroke="#16a34a" stroke-width="1.6" d="M241.76,-297.73C269,-293.18 299.64,-287.02 327,-279 413.92,-253.53 507.99,-203.36 558.63,-174.28"/>
<polygon fill="#16a34a" stroke="#16a34a" stroke-width="1.6" points="560.25,-176.57 565.77,-170.15 557.45,-171.72 560.25,-176.57"/>
<text text-anchor="middle" x="391" y="-273.8" font-family="Helvetica,sans-Serif" font-size="9.00" fill="#15803d"> guards 2/3</text>
</g>
<!-- m::com.android.server.notification.PreferencesHelper.restorePackageLocked:(Lcom/android/modules/utils/TypedXmlPullParser;ZILjava/lang/String;ZZ)V -->
<g id="node3" class="node">
<title>m::com.android.server.notification.PreferencesHelper.restorePackageLocked:(Lcom/android/modules/utils/TypedXmlPullParser;ZILjava/lang/String;ZZ)V</title>
<path fill="#fee2e2" stroke="#dc2626" d="M273.5,-268C273.5,-268 53.5,-268 53.5,-268 47.5,-268 41.5,-262 41.5,-256 41.5,-256 41.5,-244 41.5,-244 41.5,-238 47.5,-232 53.5,-232 53.5,-232 273.5,-232 273.5,-232 279.5,-232 285.5,-238 285.5,-244 285.5,-244 285.5,-256 285.5,-256 285.5,-262 279.5,-268 273.5,-268"/>
<text text-anchor="middle" x="163.5" y="-247.2" font-family="Helvetica,sans-Serif" font-size="11.00">PreferencesHelper.restorePackageLocked</text>
</g>
<!-- m::com.android.server.notification.PreferencesHelper.restorePackageLocked:(Lcom/android/modules/utils/TypedXmlPullParser;ZILjava/lang/String;ZZ)V&#45;&gt;__field__ -->
<g id="edge2" class="edge">
<title>m::com.android.server.notification.PreferencesHelper.restorePackageLocked:(Lcom/android/modules/utils/TypedXmlPullParser;ZILjava/lang/String;ZZ)V&#45;&gt;__field__</title>
<path fill="none" stroke="#dc2626" d="M285.82,-232.2C332.15,-224.5 385.29,-214.59 433,-203 467.8,-194.55 506.04,-182.72 536.73,-172.58"/>
<polygon fill="#dc2626" stroke="#dc2626" points="537.65,-175.23 544.36,-170.05 535.89,-169.91 537.65,-175.23"/>
<text text-anchor="middle" x="391" y="-222.8" font-family="Helvetica,sans-Serif" font-size="9.00" fill="#dc2626"> writes unguarded</text>
</g>
<!-- m::com.android.server.notification.PreferencesHelper.createDefaultChannelIfNeededLocked:(Lcom/android/server/notification/PreferencesHelper$PackagePreferences;)Z -->
<g id="node4" class="node">
<title>m::com.android.server.notification.PreferencesHelper.createDefaultChannelIfNeededLocked:(Lcom/android/server/notification/PreferencesHelper$PackagePreferences;)Z</title>
<path fill="#fee2e2" stroke="#dc2626" d="M315,-210C315,-210 12,-210 12,-210 6,-210 0,-204 0,-198 0,-198 0,-186 0,-186 0,-180 6,-174 12,-174 12,-174 315,-174 315,-174 321,-174 327,-180 327,-186 327,-186 327,-198 327,-198 327,-204 321,-210 315,-210"/>
<text text-anchor="middle" x="163.5" y="-189.2" font-family="Helvetica,sans-Serif" font-size="11.00">PreferencesHelper.createDefaultChannelIfNeededLocked</text>
</g>
<!-- m::com.android.server.notification.PreferencesHelper.createDefaultChannelIfNeededLocked:(Lcom/android/server/notification/PreferencesHelper$PackagePreferences;)Z&#45;&gt;__field__ -->
<g id="edge3" class="edge">
<title>m::com.android.server.notification.PreferencesHelper.createDefaultChannelIfNeededLocked:(Lcom/android/server/notification/PreferencesHelper$PackagePreferences;)Z&#45;&gt;__field__</title>
<path fill="none" stroke="#dc2626" d="M327.35,-189.72C362.28,-188.17 398.92,-185.75 433,-182 455.77,-179.49 480.14,-175.65 502.92,-171.53"/>
<polygon fill="#dc2626" stroke="#dc2626" points="503.54,-174.26 510.9,-170.07 502.53,-168.76 503.54,-174.26"/>
<text text-anchor="middle" x="391" y="-190.8" font-family="Helvetica,sans-Serif" font-size="9.00" fill="#dc2626"> reads unguarded</text>
</g>
<!-- m::com.android.server.notification.PreferencesHelper.createDefaultChannelIfNeededLocked:(Lcom/android/server/notification/PreferencesHelper$PackagePreferences;)Z&#45;&gt;__field__ -->
<g id="edge4" class="edge">
<title>m::com.android.server.notification.PreferencesHelper.createDefaultChannelIfNeededLocked:(Lcom/android/server/notification/PreferencesHelper$PackagePreferences;)Z&#45;&gt;__field__</title>
<path fill="none" stroke="#dc2626" d="M318.98,-174C329.14,-172.94 339.21,-171.93 349,-171 380.58,-167.99 414.46,-165.14 446.7,-162.6"/>
<polygon fill="#dc2626" stroke="#dc2626" points="447.1,-165.38 454.86,-161.96 446.66,-159.79 447.1,-165.38"/>
<text text-anchor="middle" x="391" y="-173.8" font-family="Helvetica,sans-Serif" font-size="9.00" fill="#dc2626"> reads unguarded</text>
</g>
<!-- m::com.android.server.notification.PreferencesHelper.dumpPackagePreferencesLocked:(Landroid/util/proto/ProtoOutputStream;JLcom/android/server/notification/NotificationManagerService$DumpFilter;Landroid/util/ArrayMap;Landroid/util/ArrayMap;)V -->
<g id="node5" class="node">
<title>m::com.android.server.notification.PreferencesHelper.dumpPackagePreferencesLocked:(Landroid/util/proto/ProtoOutputStream;JLcom/android/server/notification/NotificationManagerService$DumpFilter;Landroid/util/ArrayMap;Landroid/util/ArrayMap;)V</title>
<path fill="#fee2e2" stroke="#dc2626" d="M301.5,-152C301.5,-152 25.5,-152 25.5,-152 19.5,-152 13.5,-146 13.5,-140 13.5,-140 13.5,-128 13.5,-128 13.5,-122 19.5,-116 25.5,-116 25.5,-116 301.5,-116 301.5,-116 307.5,-116 313.5,-122 313.5,-128 313.5,-128 313.5,-140 313.5,-140 313.5,-146 307.5,-152 301.5,-152"/>
<text text-anchor="middle" x="163.5" y="-131.2" font-family="Helvetica,sans-Serif" font-size="11.00">PreferencesHelper.dumpPackagePreferencesLocked</text>
</g>
<!-- m::com.android.server.notification.PreferencesHelper.dumpPackagePreferencesLocked:(Landroid/util/proto/ProtoOutputStream;JLcom/android/server/notification/NotificationManagerService$DumpFilter;Landroid/util/ArrayMap;Landroid/util/ArrayMap;)V&#45;&gt;__field__ -->
<g id="edge5" class="edge">
<title>m::com.android.server.notification.PreferencesHelper.dumpPackagePreferencesLocked:(Landroid/util/proto/ProtoOutputStream;JLcom/android/server/notification/NotificationManagerService$DumpFilter;Landroid/util/ArrayMap;Landroid/util/ArrayMap;)V&#45;&gt;__field__</title>
<path fill="none" stroke="#dc2626" d="M313.7,-131.09C352.56,-131.13 394.37,-131.87 433,-134 437.44,-134.24 441.95,-134.53 446.5,-134.84"/>
<polygon fill="#dc2626" stroke="#dc2626" points="446.54,-137.65 454.72,-135.44 446.94,-132.06 446.54,-137.65"/>
<text text-anchor="middle" x="391" y="-136.8" font-family="Helvetica,sans-Serif" font-size="9.00" fill="#dc2626"> reads unguarded</text>
</g>
<!-- m::com.android.server.notification.PreferencesHelper.dumpPackagePreferencesLocked:(Ljava/io/PrintWriter;Ljava/lang/String;Lcom/android/server/notification/NotificationManagerService$DumpFilter;Landroid/util/ArrayMap;Landroid/util/ArrayMap;)V -->
<g id="node6" class="node">
<title>m::com.android.server.notification.PreferencesHelper.dumpPackagePreferencesLocked:(Ljava/io/PrintWriter;Ljava/lang/String;Lcom/android/server/notification/NotificationManagerService$DumpFilter;Landroid/util/ArrayMap;Landroid/util/ArrayMap;)V</title>
<path fill="#fee2e2" stroke="#dc2626" d="M301.5,-94C301.5,-94 25.5,-94 25.5,-94 19.5,-94 13.5,-88 13.5,-82 13.5,-82 13.5,-70 13.5,-70 13.5,-64 19.5,-58 25.5,-58 25.5,-58 301.5,-58 301.5,-58 307.5,-58 313.5,-64 313.5,-70 313.5,-70 313.5,-82 313.5,-82 313.5,-88 307.5,-94 301.5,-94"/>
<text text-anchor="middle" x="163.5" y="-73.2" font-family="Helvetica,sans-Serif" font-size="11.00">PreferencesHelper.dumpPackagePreferencesLocked</text>
</g>
<!-- m::com.android.server.notification.PreferencesHelper.dumpPackagePreferencesLocked:(Ljava/io/PrintWriter;Ljava/lang/String;Lcom/android/server/notification/NotificationManagerService$DumpFilter;Landroid/util/ArrayMap;Landroid/util/ArrayMap;)V&#45;&gt;__field__ -->
<g id="edge6" class="edge">
<title>m::com.android.server.notification.PreferencesHelper.dumpPackagePreferencesLocked:(Ljava/io/PrintWriter;Ljava/lang/String;Lcom/android/server/notification/NotificationManagerService$DumpFilter;Landroid/util/ArrayMap;Landroid/util/ArrayMap;)V&#45;&gt;__field__</title>
<path fill="none" stroke="#dc2626" d="M297.96,-94.01C341.15,-100.34 389.2,-107.91 433,-116 458.59,-120.73 486.28,-126.56 511.44,-132.15"/>
<polygon fill="#dc2626" stroke="#dc2626" points="511.1,-134.95 519.52,-133.96 512.32,-129.48 511.1,-134.95"/>
<text text-anchor="middle" x="391" y="-118.8" font-family="Helvetica,sans-Serif" font-size="9.00" fill="#dc2626"> reads unguarded</text>
</g>
<!-- m::com.android.server.notification.PreferencesHelper.dumpPackagePreferencesLocked:(Ljava/io/PrintWriter;Ljava/lang/String;Lcom/android/server/notification/NotificationManagerService$DumpFilter;Landroid/util/ArrayMap;Landroid/util/ArrayMap;)V&#45;&gt;__field__ -->
<g id="edge7" class="edge">
<title>m::com.android.server.notification.PreferencesHelper.dumpPackagePreferencesLocked:(Ljava/io/PrintWriter;Ljava/lang/String;Lcom/android/server/notification/NotificationManagerService$DumpFilter;Landroid/util/ArrayMap;Landroid/util/ArrayMap;)V&#45;&gt;__field__</title>
<path fill="none" stroke="#dc2626" d="M313.69,-73.17C352.84,-74.85 394.79,-78.85 433,-87 475.48,-96.06 521.2,-115.19 553.37,-130.36"/>
<polygon fill="#dc2626" stroke="#dc2626" points="552.42,-133.01 560.84,-133.93 554.83,-127.96 552.42,-133.01"/>
<text text-anchor="middle" x="391" y="-89.8" font-family="Helvetica,sans-Serif" font-size="9.00" fill="#dc2626"> reads unguarded</text>
</g>
<!-- m::com.android.server.notification.PreferencesHelper.writePackageXml:(Lcom/android/server/notification/PreferencesHelper$PackagePreferences;Lcom/android/modules/utils/TypedXmlSerializer;Landroid/util/ArrayMap;Z)V -->
<g id="node7" class="node">
<title>m::com.android.server.notification.PreferencesHelper.writePackageXml:(Lcom/android/server/notification/PreferencesHelper$PackagePreferences;Lcom/android/modules/utils/TypedXmlSerializer;Landroid/util/ArrayMap;Z)V</title>
<path fill="#fee2e2" stroke="#dc2626" d="M259,-36C259,-36 68,-36 68,-36 62,-36 56,-30 56,-24 56,-24 56,-12 56,-12 56,-6 62,0 68,0 68,0 259,0 259,0 265,0 271,-6 271,-12 271,-12 271,-24 271,-24 271,-30 265,-36 259,-36"/>
<text text-anchor="middle" x="163.5" y="-15.2" font-family="Helvetica,sans-Serif" font-size="11.00">PreferencesHelper.writePackageXml</text>
</g>
<!-- m::com.android.server.notification.PreferencesHelper.writePackageXml:(Lcom/android/server/notification/PreferencesHelper$PackagePreferences;Lcom/android/modules/utils/TypedXmlSerializer;Landroid/util/ArrayMap;Z)V&#45;&gt;__field__ -->
<g id="edge8" class="edge">
<title>m::com.android.server.notification.PreferencesHelper.writePackageXml:(Lcom/android/server/notification/PreferencesHelper$PackagePreferences;Lcom/android/modules/utils/TypedXmlSerializer;Landroid/util/ArrayMap;Z)V&#45;&gt;__field__</title>
<path fill="none" stroke="#dc2626" d="M271.19,-25.82C321.33,-31.72 381.3,-42.03 433,-60 481.51,-76.86 532.25,-107.97 563.98,-129.31"/>
<polygon fill="#dc2626" stroke="#dc2626" points="562.65,-131.79 570.84,-133.97 565.8,-127.16 562.65,-131.79"/>
<text text-anchor="middle" x="391" y="-62.8" font-family="Helvetica,sans-Serif" font-size="9.00" fill="#dc2626"> reads unguarded</text>
</g>
</g>
</svg>
