<?xml version="1.0" encoding="UTF-8" standalone="no"?>
<!DOCTYPE svg PUBLIC "-//W3C//DTD SVG 1.1//EN"
 "http://www.w3.org/Graphics/SVG/1.1/DTD/svg11.dtd">
<!-- Generated by graphviz version 2.43.0 (0)
 -->
<!-- Title: race Pages: 1 -->
<svg width="645pt" height="334pt"
 viewBox="0.00 0.00 645.00 334.00" xmlns="http://www.w3.org/2000/svg" xmlns:xlink="http://www.w3.org/1999/xlink">
<g id="graph0" class="graph" transform="scale(1 1) rotate(0) translate(4 330)">
<title>race</title>
<polygon fill="white" stroke="transparent" points="-4,4 -4,-330 641,-330 641,4 -4,4"/>
<!-- __field__ -->
<g id="node1" class="node">
<title>__field__</title>
<path fill="#fef9c3" stroke="#ca8a04" stroke-width="2" d="M625,-181C625,-181 409,-181 409,-181 403,-181 397,-175 397,-169 397,-169 397,-157 397,-157 397,-151 403,-145 409,-145 409,-145 625,-145 625,-145 631,-145 637,-151 637,-157 637,-157 637,-169 637,-169 637,-175 631,-181 625,-181"/>
<text text-anchor="middle" x="517" y="-160.2" font-family="Helvetica,sans-Serif" font-size="11.00">AppProfiler.mMemWatchDumpProcName</text>
</g>
<!-- __guard__ -->
<g id="node2" class="node">
<title>__guard__</title>
<path fill="#dcfce7" stroke="#16a34a" stroke-width="2" d="M199.5,-326C199.5,-326 69.5,-326 69.5,-326 63.5,-326 57.5,-320 57.5,-314 57.5,-314 57.5,-302 57.5,-302 57.5,-296 63.5,-290 69.5,-290 69.5,-290 199.5,-290 199.5,-290 205.5,-290 211.5,-296 211.5,-302 211.5,-302 211.5,-314 211.5,-314 211.5,-320 205.5,-326 199.5,-326"/>
<text text-anchor="middle" x="134.5" y="-305.2" font-family="Helvetica,sans-Serif" font-size="11.00">AppProfiler.mProfilerLock</text>
</g>
<!-- __guard__&#45;&gt;__field__ -->
<g id="edge1" class="edge">
<title>__guard__&#45;&gt;__field__</title>
<path fill="none" stroke="#16a34a" stroke-width="1.6" d="M211.5,-294.59C230.51,-290.39 250.69,-285.2 269,-279 344.97,-253.28 428.49,-210.84 476.35,-185.05"/>
<polygon fill="#16a34a" stroke="#16a34a" stroke-width="1.6" points="477.73,-187.48 483.43,-181.21 475.06,-182.56 477.73,-187.48"/>
<text text-anchor="middle" x="333" y="-270.8" font-family="Helvetica,sans-Serif" font-size="9.00" fill="#15803d"> guards 2/3</text>
</g>
<!-- m::com.android.server.am.AppProfiler.startHeapDumpLPf:(Lcom/android/server/am/ProcessProfileRecord;Z)V -->
<g id="node3" class="node">
<title>m::com.android.server.am.AppProfiler.startHeapDumpLPf:(Lcom/android/server/am/ProcessProfileRecord;Z)V</title>
<path fill="#fee2e2" stroke="#dc2626" d="M214,-268C214,-268 55,-268 55,-268 49,-268 43,-262 43,-256 43,-256 43,-244 43,-244 43,-238 49,-232 55,-232 55,-232 214,-232 214,-232 220,-232 226,-238 226,-244 226,-244 226,-256 226,-256 226,-262 220,-268 214,-268"/>
<text text-anchor="middle" x="134.5" y="-247.2" font-family="Helvetica,sans-Serif" font-size="11.00">AppProfiler.startHeapDumpLPf</text>
</g>
<!-- m::com.android.server.am.AppProfiler.startHeapDumpLPf:(Lcom/android/server/am/ProcessProfileRecord;Z)V&#45;&gt;__field__ -->
<g id="edge2" class="edge">
<title>m::com.android.server.am.AppProfiler.startHeapDumpLPf:(Lcom/android/server/am/ProcessProfileRecord;Z)V&#45;&gt;__field__</title>
<path fill="none" stroke="#dc2626" d="M219.58,-231.96C235.98,-228.38 253.04,-224.61 269,-221 323.64,-208.65 384.94,-194.26 432.81,-182.9"/>
<polygon fill="#dc2626" stroke="#dc2626" points="433.54,-185.6 440.68,-181.03 432.25,-180.16 433.54,-185.6"/>
<text text-anchor="middle" x="333" y="-216.8" font-family="Helvetica,sans-Serif" font-size="9.00" fill="#dc2626"> writes unguarded</text>
</g>
<!-- m::com.android.server.am.AppProfiler.dumpMemWatchProcessesLPf:(Ljava/io/PrintWriter;Z)Z -->
<g id="node4" class="node">
<title>m::com.android.server.am.AppProfiler.dumpMemWatchProcessesLPf:(Ljava/io/PrintWriter;Z)Z</title>
<path fill="#fee2e2" stroke="#dc2626" d="M244.5,-210C244.5,-210 24.5,-210 24.5,-210 18.5,-210 12.5,-204 12.5,-198 12.5,-198 12.5,-186 12.5,-186 12.5,-180 18.5,-174 24.5,-174 24.5,-174 244.5,-174 244.5,-174 250.5,-174 256.5,-180 256.5,-186 256.5,-186 256.5,-198 256.5,-198 256.5,-204 250.5,-210 244.5,-210"/>
<text text-anchor="middle" x="134.5" y="-189.2" font-family="Helvetica,sans-Serif" font-size="11.00">AppProfiler.dumpMemWatchProcessesLPf</text>
</g>
<!-- m::com.android.server.am.AppProfiler.dumpMemWatchProcessesLPf:(Ljava/io/PrintWriter;Z)Z&#45;&gt;__field__ -->
<g id="edge3" class="edge">
<title>m::com.android.server.am.AppProfiler.dumpMemWatchProcessesLPf:(Ljava/io/PrintWriter;Z)Z&#45;&gt;__field__</title>
<path fill="none" stroke="#dc2626" d="M256.68,-182.76C298.78,-179.56 346.1,-175.95 388.69,-172.7"/>
<polygon fill="#dc2626" stroke="#dc2626" points="389.09,-175.48 396.86,-172.08 388.67,-169.9 389.09,-175.48"/>
<text text-anchor="middle" x="333" y="-182.8" font-family="Helvetica,sans-Serif" font-size="9.00" fill="#dc2626"> reads unguarded</text>
</g>
<!-- m::com.android.server.am.AppProfiler.recordPssSampleLPf:(Lcom/android/server/am/ProcessProfileRecord;IJJJJIJJ)V -->
<g id="node5" class="node">
<title>m::com.android.server.am.AppProfiler.recordPssSampleLPf:(Lcom/android/server/am/ProcessProfileRecord;IJJJJIJJ)V</title>
<path fill="#fee2e2" stroke="#dc2626" d="M218,-152C218,-152 51,-152 51,-152 45,-152 39,-146 39,-140 39,-140 39,-128 39,-128 39,-122 45,-116 51,-116 51,-116 218,-116 218,-116 224,-116 230,-122 230,-128 230,-128 230,-140 230,-140 230,-146 224,-152 218,-152"/>
<text text-anchor="middle" x="134.5" y="-131.2" font-family="Helvetica,sans-Serif" font-size="11.00">AppProfiler.recordPssSampleLPf</text>
</g>
<!-- m::com.android.server.am.AppProfiler.recordPssSampleLPf:(Lcom/android/server/am/ProcessProfileRecord;IJJJJIJJ)V&#45;&gt;__field__ -->
<g id="edge4" class="edge">
<title>m::com.android.server.am.AppProfiler.recordPssSampleLPf:(Lcom/android/server/am/ProcessProfileRecord;IJJJJIJJ)V&#45;&gt;__field__</title>
<path fill="none" stroke="#dc2626" d="M230.05,-141.21C277.89,-144.85 336.65,-149.33 388.43,-153.28"/>
<polygon fill="#dc2626" stroke="#dc2626" points="388.49,-156.09 396.68,-153.91 388.92,-150.51 388.49,-156.09"/>
<text text-anchor="middle" x="333" y="-153.8" font-family="Helvetica,sans-Serif" font-size="9.00" fill="#dc2626"> reads unguarded</text>
</g>
<!-- m::com.android.server.am.AppProfiler.recordRssSampleLPf:(Lcom/android/server/am/ProcessProfileRecord;IJIJJ)V -->
<g id="node6" class="node">
<title>m::com.android.server.am.AppProfiler.recordRssSampleLPf:(Lcom/android/server/am/ProcessProfileRecord;IJIJJ)V</title>
<path fill="#fee2e2" stroke="#dc2626" d="M218,-94C218,-94 51,-94 51,-94 45,-94 39,-88 39,-82 39,-82 39,-70 39,-70 39,-64 45,-58 51,-58 51,-58 218,-58 218,-58 224,-58 230,-64 230,-70 230,-70 230,-82 230,-82 230,-88 224,-94 218,-94"/>
<text text-anchor="middle" x="134.5" y="-73.2" font-family="Helvetica,sans-Serif" font-size="11.00">AppProfiler.recordRssSampleLPf</text>
</g>
<!-- m::com.android.server.am.AppProfiler.recordRssSampleLPf:(Lcom/android/server/am/ProcessProfileRecord;IJIJJ)V&#45;&gt;__field__ -->
<g id="edge5" class="edge">
<title>m::com.android.server.am.AppProfiler.recordRssSampleLPf:(Lcom/android/server/am/ProcessProfileRecord;IJIJJ)V&#45;&gt;__field__</title>
<path fill="none" stroke="#dc2626" d="M219.58,-94.04C235.98,-97.62 253.04,-101.39 269,-105 323.64,-117.35 384.94,-131.74 432.81,-143.1"/>
<polygon fill="#dc2626" stroke="#dc2626" points="432.25,-145.84 440.68,-144.97 433.54,-140.4 432.25,-145.84"/>
<text text-anchor="middle" x="333" y="-130.8" font-family="Helvetica,sans-Serif" font-size="9.00" fill="#dc2626"> reads unguarded</text>
</g>
<!-- m::com.android.server.am.AppProfiler.writeMemWatchProcessToProtoLPf:(Landroid/util/proto/ProtoOutputStream;)V -->
<g id="node7" class="node">
<title>m::com.android.server.am.AppProfiler.writeMemWatchProcessToProtoLPf:(Landroid/util/proto/ProtoOutputStream;)V</title>
<path fill="#fee2e2" stroke="#dc2626" d="M257,-36C257,-36 12,-36 12,-36 6,-36 0,-30 0,-24 0,-24 0,-12 0,-12 0,-6 6,0 12,0 12,0 257,0 257,0 263,0 269,-6 269,-12 269,-12 269,-24 269,-24 269,-30 263,-36 257,-36"/>
<text text-anchor="middle" x="134.5" y="-15.2" font-family="Helvetica,sans-Serif" font-size="11.00">AppProfiler.writeMemWatchProcessToProtoLPf</text>
</g>
<!-- m::com.android.server.am.AppProfiler.writeMemWatchProcessToProtoLPf:(Landroid/util/proto/ProtoOutputStream;)V&#45;&gt;__field__ -->
<g id="edge6" class="edge">
<title>m::com.android.server.am.AppProfiler.writeMemWatchProcessToProtoLPf:(Landroid/util/proto/ProtoOutputStream;)V&#45;&gt;__field__</title>
<path fill="none" stroke="#dc2626" d="M231,-36.07C243.9,-39.29 256.86,-42.93 269,-47 345.26,-72.57 429.01,-115.24 476.77,-141.09"/>
<polygon fill="#dc2626" stroke="#dc2626" points="475.47,-143.57 483.84,-144.93 478.15,-138.65 475.47,-143.57"/>
<text text-anchor="middle" x="333" y="-91.8" font-family="Helvetica,sans-Serif" font-size="9.00" fill="#dc2626"> reads unguarded</text>
</g>
</g>
</svg>
