<?xml version="1.0" encoding="UTF-8" standalone="no"?>
<!DOCTYPE svg PUBLIC "-//W3C//DTD SVG 1.1//EN"
 "http://www.w3.org/Graphics/SVG/1.1/DTD/svg11.dtd">
<!-- Generated by graphviz version 2.43.0 (0)
 -->
<!-- Title: race Pages: 1 -->
<svg width="724pt" height="102pt"
 viewBox="0.00 0.00 724.00 102.00" xmlns="http://www.w3.org/2000/svg" xmlns:xlink="http://www.w3.org/1999/xlink">
<g id="graph0" class="graph" transform="scale(1 1) rotate(0) translate(4 98)">
<title>race</title>
<polygon fill="white" stroke="transparent" points="-4,4 -4,-98 720,-98 720,4 -4,4"/>
<!-- __field__ -->
<g id="node1" class="node">
<title>__field__</title>
<path fill="#fef9c3" stroke="#ca8a04" stroke-width="2" d="M704,-65C704,-65 535,-65 535,-65 529,-65 523,-59 523,-53 523,-53 523,-41 523,-41 523,-35 529,-29 535,-29 535,-29 704,-29 704,-29 710,-29 716,-35 716,-41 716,-41 716,-53 716,-53 716,-59 710,-65 704,-65"/>
<text text-anchor="middle" x="619.5" y="-44.2" font-family="Helvetica,sans-Serif" font-size="11.00">AccessibilityServiceInfo.crashed</text>
</g>
<!-- __guard__ -->
<g id="node2" class="node">
<title>__guard__</title>
<path fill="#dcfce7" stroke="#16a34a" stroke-width="2" d="M321.5,-94C321.5,-94 73.5,-94 73.5,-94 67.5,-94 61.5,-88 61.5,-82 61.5,-82 61.5,-70 61.5,-70 61.5,-64 67.5,-58 73.5,-58 73.5,-58 321.5,-58 321.5,-58 327.5,-58 333.5,-64 333.5,-70 333.5,-70 333.5,-82 333.5,-82 333.5,-88 327.5,-94 321.5,-94"/>
<text text-anchor="middle" x="197.5" y="-73.2" font-family="Helvetica,sans-Serif" font-size="11.00">AbstractAccessibilityServiceConnection.mLock</text>
</g>
<!-- __guard__&#45;&gt;__field__ -->
<g id="edge1" class="edge">
<title>__guard__&#45;&gt;__field__</title>
<path fill="none" stroke="#16a34a" stroke-width="1.6" d="M333.7,-66.66C392.32,-62.62 459.89,-57.95 514.49,-54.18"/>
<polygon fill="#16a34a" stroke="#16a34a" stroke-width="1.6" points="515.01,-56.95 522.8,-53.61 514.62,-51.37 515.01,-56.95"/>
<text text-anchor="middle" x="459" y="-62.8" font-family="Helvetica,sans-Serif" font-size="9.00" fill="#15803d"> guards 2/3</text>
</g>
<!-- m::com.android.server.accessibility.AccessibilityManagerService.readInstalledAccessibilityServiceLocked:(Lcom/android/server/accessibility/AccessibilityUserState;Ljava/util/List;)Z -->
<g id="node3" class="node">
<title>m::com.android.server.accessibility.AccessibilityManagerService.readInstalledAccessibilityServiceLocked:(Lcom/android/server/accessibility/AccessibilityUserState;Ljava/util/List;)Z</title>
<path fill="#fee2e2" stroke="#dc2626" d="M383,-36C383,-36 12,-36 12,-36 6,-36 0,-30 0,-24 0,-24 0,-12 0,-12 0,-6 6,0 12,0 12,0 383,0 383,0 389,0 395,-6 395,-12 395,-12 395,-24 395,-24 395,-30 389,-36 383,-36"/>
<text text-anchor="middle" x="197.5" y="-15.2" font-family="Helvetica,sans-Serif" font-size="11.00">AccessibilityManagerService.readInstalledAccessibilityServiceLocked</text>
</g>
<!-- m::com.android.server.accessibility.AccessibilityManagerService.readInstalledAccessibilityServiceLocked:(Lcom/android/server/accessibility/AccessibilityUserState;Ljava/util/List;)Z&#45;&gt;__field__ -->
<g id="edge2" class="edge">
<title>m::com.android.server.accessibility.AccessibilityManagerService.readInstalledAccessibilityServiceLocked:(Lcom/android/server/accessibility/AccessibilityUserState;Ljava/util/List;)Z&#45;&gt;__field__</title>
<path fill="none" stroke="#dc2626" d="M395.28,-31.59C436.53,-34.44 478.46,-37.33 514.68,-39.83"/>
<polygon fill="#dc2626" stroke="#dc2626" points="514.62,-42.63 522.79,-40.39 515.01,-37.05 514.62,-42.63"/>
<text text-anchor="middle" x="459" y="-40.8" font-family="Helvetica,sans-Serif" font-size="9.00" fill="#dc2626"> writes unguarded</text>
</g>
</g>
</svg>
