<?xml version="1.0" encoding="UTF-8" standalone="no"?>
<!DOCTYPE svg PUBLIC "-//W3C//DTD SVG 1.1//EN"
 "http://www.w3.org/Graphics/SVG/1.1/DTD/svg11.dtd">
<!-- Generated by graphviz version 2.43.0 (0)
 -->
<!-- Title: race Pages: 1 -->
<svg width="638pt" height="682pt"
 viewBox="0.00 0.00 638.00 682.50" xmlns="http://www.w3.org/2000/svg" xmlns:xlink="http://www.w3.org/1999/xlink">
<g id="graph0" class="graph" transform="scale(1 1) rotate(0) translate(4 678.5)">
<title>race</title>
<polygon fill="white" stroke="transparent" points="-4,4 -4,-678.5 634,-678.5 634,4 -4,4"/>
<!-- __field__ -->
<g id="node1" class="node">
<title>__field__</title>
<path fill="#fef9c3" stroke="#ca8a04" stroke-width="2" d="M618,-305.5C618,-305.5 469,-305.5 469,-305.5 463,-305.5 457,-299.5 457,-293.5 457,-293.5 457,-281.5 457,-281.5 457,-275.5 463,-269.5 469,-269.5 469,-269.5 618,-269.5 618,-269.5 624,-269.5 630,-275.5 630,-281.5 630,-281.5 630,-293.5 630,-293.5 630,-299.5 624,-305.5 618,-305.5"/>
<text text-anchor="middle" x="543.5" y="-284.7" font-family="Helvetica,sans-Serif" font-size="11.00">OwnersData.mDeviceOwner</text>
</g>
<!-- __guard__ -->
<g id="node2" class="node">
<title>__guard__</title>
<path fill="#dcfce7" stroke="#16a34a" stroke-width="2" d="M202,-674.5C202,-674.5 127,-674.5 127,-674.5 121,-674.5 115,-668.5 115,-662.5 115,-662.5 115,-650.5 115,-650.5 115,-644.5 121,-638.5 127,-638.5 127,-638.5 202,-638.5 202,-638.5 208,-638.5 214,-644.5 214,-650.5 214,-650.5 214,-662.5 214,-662.5 214,-668.5 208,-674.5 202,-674.5"/>
<text text-anchor="middle" x="164.5" y="-653.7" font-family="Helvetica,sans-Serif" font-size="11.00">Owners.mData</text>
</g>
<!-- __guard__&#45;&gt;__field__ -->
<g id="edge1" class="edge">
<title>__guard__&#45;&gt;__field__</title>
<path fill="none" stroke="#16a34a" stroke-width="1.6" d="M214.22,-658.06C274.63,-657.2 376.75,-646.16 435,-586.5 511.61,-508.03 534.06,-371.13 540.27,-313.86"/>
<polygon fill="#16a34a" stroke="#16a34a" stroke-width="1.6" points="543.08,-313.93 541.1,-305.69 537.51,-313.37 543.08,-313.93"/>
<text text-anchor="middle" x="393" y="-638.3" font-family="Helvetica,sans-Serif" font-size="9.00" fill="#15803d"> guards 3/4</text>
</g>
<!-- m::com.android.server.devicepolicy.OwnersData$DeviceOwnerReadWriter.readInner:(Lcom/android/modules/utils/TypedXmlPullParser;ILjava/lang/String;)Z -->
<g id="node3" class="node">
<title>m::com.android.server.devicepolicy.OwnersData$DeviceOwnerReadWriter.readInner:(Lcom/android/modules/utils/TypedXmlPullParser;ILjava/lang/String;)Z</title>
<path fill="#fee2e2" stroke="#dc2626" d="M293.5,-616.5C293.5,-616.5 35.5,-616.5 35.5,-616.5 29.5,-616.5 23.5,-610.5 23.5,-604.5 23.5,-604.5 23.5,-592.5 23.5,-592.5 23.5,-586.5 29.5,-580.5 35.5,-580.5 35.5,-580.5 293.5,-580.5 293.5,-580.5 299.5,-580.5 305.5,-586.5 305.5,-592.5 305.5,-592.5 305.5,-604.5 305.5,-604.5 305.5,-610.5 299.5,-616.5 293.5,-616.5"/>
<text text-anchor="middle" x="164.5" y="-595.7" font-family="Helvetica,sans-Serif" font-size="11.00">OwnersData$DeviceOwnerReadWriter.readInner</text>
</g>
<!-- m::com.android.server.devicepolicy.OwnersData$DeviceOwnerReadWriter.readInner:(Lcom/android/modules/utils/TypedXmlPullParser;ILjava/lang/String;)Z&#45;&gt;__field__ -->
<g id="edge2" class="edge">
<title>m::com.android.server.devicepolicy.OwnersData$DeviceOwnerReadWriter.readInner:(Lcom/android/modules/utils/TypedXmlPullParser;ILjava/lang/String;)Z&#45;&gt;__field__</title>
<path fill="none" stroke="#dc2626" d="M305.67,-585.71C352.07,-574.97 400.58,-555.73 435,-521.5 495.55,-461.27 525.6,-360.63 536.94,-313.43"/>
<polygon fill="#dc2626" stroke="#dc2626" points="539.7,-313.95 538.79,-305.52 534.24,-312.68 539.7,-313.95"/>
<text text-anchor="middle" x="393" y="-574.3" font-family="Helvetica,sans-Serif" font-size="9.00" fill="#dc2626"> writes unguarded</text>
</g>
<!-- m::com.android.server.devicepolicy.Owners.getDeviceOwnerUidLocked:()I -->
<g id="node4" class="node">
<title>m::com.android.server.devicepolicy.Owners.getDeviceOwnerUidLocked:()I</title>
<path fill="#fee2e2" stroke="#dc2626" d="M257.5,-558.5C257.5,-558.5 71.5,-558.5 71.5,-558.5 65.5,-558.5 59.5,-552.5 59.5,-546.5 59.5,-546.5 59.5,-534.5 59.5,-534.5 59.5,-528.5 65.5,-522.5 71.5,-522.5 71.5,-522.5 257.5,-522.5 257.5,-522.5 263.5,-522.5 269.5,-528.5 269.5,-534.5 269.5,-534.5 269.5,-546.5 269.5,-546.5 269.5,-552.5 263.5,-558.5 257.5,-558.5"/>
<text text-anchor="middle" x="164.5" y="-537.7" font-family="Helvetica,sans-Serif" font-size="11.00">Owners.getDeviceOwnerUidLocked</text>
</g>
<!-- m::com.android.server.devicepolicy.Owners.getDeviceOwnerUidLocked:()I&#45;&gt;__field__ -->
<g id="edge3" class="edge">
<title>m::com.android.server.devicepolicy.Owners.getDeviceOwnerUidLocked:()I&#45;&gt;__field__</title>
<path fill="none" stroke="#dc2626" d="M269.66,-531.05C324.55,-521.2 389.7,-501.17 435,-460.5 482.29,-418.04 516.16,-349.94 532.15,-313.12"/>
<polygon fill="#dc2626" stroke="#dc2626" points="534.73,-314.21 535.29,-305.76 529.57,-312.02 534.73,-314.21"/>
<text text-anchor="middle" x="393" y="-509.3" font-family="Helvetica,sans-Serif" font-size="9.00" fill="#dc2626"> reads unguarded</text>
</g>
<!-- m::com.android.server.devicepolicy.Owners.pushToAppOpsLocked:()V -->
<g id="node5" class="node">
<title>m::com.android.server.devicepolicy.Owners.pushToAppOpsLocked:()V</title>
<path fill="#fee2e2" stroke="#dc2626" d="M243,-500.5C243,-500.5 86,-500.5 86,-500.5 80,-500.5 74,-494.5 74,-488.5 74,-488.5 74,-476.5 74,-476.5 74,-470.5 80,-464.5 86,-464.5 86,-464.5 243,-464.5 243,-464.5 249,-464.5 255,-470.5 255,-476.5 255,-476.5 255,-488.5 255,-488.5 255,-494.5 249,-500.5 243,-500.5"/>
<text text-anchor="middle" x="164.5" y="-479.7" font-family="Helvetica,sans-Serif" font-size="11.00">Owners.pushToAppOpsLocked</text>
</g>
<!-- m::com.android.server.devicepolicy.Owners.pushToAppOpsLocked:()V&#45;&gt;__field__ -->
<g id="edge4" class="edge">
<title>m::com.android.server.devicepolicy.Owners.pushToAppOpsLocked:()V&#45;&gt;__field__</title>
<path fill="none" stroke="#dc2626" d="M255.25,-471.11C279.51,-466.81 305.54,-461.06 329,-453.5 378.76,-437.45 392.87,-433.46 435,-402.5 470.58,-376.35 504.07,-337.4 523.93,-312.23"/>
<polygon fill="#dc2626" stroke="#dc2626" points="526.21,-313.86 528.92,-305.83 521.8,-310.41 526.21,-313.86"/>
<text text-anchor="middle" x="393" y="-448.3" font-family="Helvetica,sans-Serif" font-size="9.00" fill="#dc2626"> reads unguarded</text>
</g>
<!-- m::com.android.server.devicepolicy.Owners.pushToPackageManagerLocked:()V -->
<g id="node6" class="node">
<title>m::com.android.server.devicepolicy.Owners.pushToPackageManagerLocked:()V</title>
<path fill="#fee2e2" stroke="#dc2626" d="M268,-442.5C268,-442.5 61,-442.5 61,-442.5 55,-442.5 49,-436.5 49,-430.5 49,-430.5 49,-418.5 49,-418.5 49,-412.5 55,-406.5 61,-406.5 61,-406.5 268,-406.5 268,-406.5 274,-406.5 280,-412.5 280,-418.5 280,-418.5 280,-430.5 280,-430.5 280,-436.5 274,-442.5 268,-442.5"/>
<text text-anchor="middle" x="164.5" y="-421.7" font-family="Helvetica,sans-Serif" font-size="11.00">Owners.pushToPackageManagerLocked</text>
</g>
<!-- m::com.android.server.devicepolicy.Owners.pushToPackageManagerLocked:()V&#45;&gt;__field__ -->
<g id="edge5" class="edge">
<title>m::com.android.server.devicepolicy.Owners.pushToPackageManagerLocked:()V&#45;&gt;__field__</title>
<path fill="none" stroke="#dc2626" d="M280.21,-407.67C296.73,-404.23 313.4,-400.19 329,-395.5 378.17,-380.69 389.13,-372.59 435,-349.5 459.27,-337.28 485.72,-322.05 506.31,-309.75"/>
<polygon fill="#dc2626" stroke="#dc2626" points="507.92,-312.04 513.34,-305.52 505.04,-307.24 507.92,-312.04"/>
<text text-anchor="middle" x="393" y="-390.3" font-family="Helvetica,sans-Serif" font-size="9.00" fill="#dc2626"> reads unguarded</text>
</g>
<!-- m::com.android.server.devicepolicy.OwnersData$DeviceOwnerReadWriter.writeInner:(Lcom/android/modules/utils/TypedXmlSerializer;)V -->
<g id="node7" class="node">
<title>m::com.android.server.devicepolicy.OwnersData$DeviceOwnerReadWriter.writeInner:(Lcom/android/modules/utils/TypedXmlSerializer;)V</title>
<path fill="#fee2e2" stroke="#dc2626" d="M295,-384.5C295,-384.5 34,-384.5 34,-384.5 28,-384.5 22,-378.5 22,-372.5 22,-372.5 22,-360.5 22,-360.5 22,-354.5 28,-348.5 34,-348.5 34,-348.5 295,-348.5 295,-348.5 301,-348.5 307,-354.5 307,-360.5 307,-360.5 307,-372.5 307,-372.5 307,-378.5 301,-384.5 295,-384.5"/>
<text text-anchor="middle" x="164.5" y="-363.7" font-family="Helvetica,sans-Serif" font-size="11.00">OwnersData$DeviceOwnerReadWriter.writeInner</text>
</g>
<!-- m::com.android.server.devicepolicy.OwnersData$DeviceOwnerReadWriter.writeInner:(Lcom/android/modules/utils/TypedXmlSerializer;)V&#45;&gt;__field__ -->
<g id="edge6" class="edge">
<title>m::com.android.server.devicepolicy.OwnersData$DeviceOwnerReadWriter.writeInner:(Lcom/android/modules/utils/TypedXmlSerializer;)V&#45;&gt;__field__</title>
<path fill="none" stroke="#dc2626" d="M278.78,-348.47C327.14,-340.11 384.06,-329.39 435,-317.5 447.5,-314.58 460.73,-311.16 473.48,-307.7"/>
<polygon fill="#dc2626" stroke="#dc2626" points="474.36,-310.36 481.34,-305.54 472.88,-304.96 474.36,-310.36"/>
<text text-anchor="middle" x="393" y="-337.3" font-family="Helvetica,sans-Serif" font-size="9.00" fill="#dc2626"> reads unguarded</text>
</g>
<!-- m::com.android.server.devicepolicy.OwnersData.dump:(Landroid/util/IndentingPrintWriter;)V -->
<g id="node8" class="node">
<title>m::com.android.server.devicepolicy.OwnersData.dump:(Landroid/util/IndentingPrintWriter;)V</title>
<path fill="#fee2e2" stroke="#dc2626" d="M212,-326.5C212,-326.5 117,-326.5 117,-326.5 111,-326.5 105,-320.5 105,-314.5 105,-314.5 105,-302.5 105,-302.5 105,-296.5 111,-290.5 117,-290.5 117,-290.5 212,-290.5 212,-290.5 218,-290.5 224,-296.5 224,-302.5 224,-302.5 224,-314.5 224,-314.5 224,-320.5 218,-326.5 212,-326.5"/>
<text text-anchor="middle" x="164.5" y="-305.7" font-family="Helvetica,sans-Serif" font-size="11.00">OwnersData.dump</text>
</g>
<!-- m::com.android.server.devicepolicy.OwnersData.dump:(Landroid/util/IndentingPrintWriter;)V&#45;&gt;__field__ -->
<g id="edge7" class="edge">
<title>m::com.android.server.devicepolicy.OwnersData.dump:(Landroid/util/IndentingPrintWriter;)V&#45;&gt;__field__</title>
<path fill="none" stroke="#dc2626" d="M224.18,-307.42C278.81,-306.15 362.49,-303.55 435,-298.5 439.44,-298.19 443.99,-297.84 448.58,-297.47"/>
<polygon fill="#dc2626" stroke="#dc2626" points="449.14,-300.23 456.87,-296.77 448.67,-294.65 449.14,-300.23"/>
<text text-anchor="middle" x="393" y="-305.3" font-family="Helvetica,sans-Serif" font-size="9.00" fill="#dc2626"> reads unguarded</text>
</g>
<!-- m::com.android.server.devicepolicy.OwnersData.dump:(Landroid/util/IndentingPrintWriter;)V&#45;&gt;__field__ -->
<g id="edge8" class="edge">
<title>m::com.android.server.devicepolicy.OwnersData.dump:(Landroid/util/IndentingPrintWriter;)V&#45;&gt;__field__</title>
<path fill="none" stroke="#dc2626" d="M224.25,-300.13C260.67,-295.37 308.45,-289.9 351,-287.5 382.69,-285.71 417.38,-285.26 448.42,-285.39"/>
<polygon fill="#dc2626" stroke="#dc2626" points="448.63,-288.19 456.65,-285.44 448.66,-282.59 448.63,-288.19"/>
<text text-anchor="middle" x="393" y="-290.3" font-family="Helvetica,sans-Serif" font-size="9.00" fill="#dc2626"> reads unguarded</text>
</g>
<!-- m::com.android.server.devicepolicy.OwnersData.load:([I)V -->
<g id="node9" class="node">
<title>m::com.android.server.devicepolicy.OwnersData.load:([I)V</title>
<path fill="#fee2e2" stroke="#dc2626" d="M208.5,-268.5C208.5,-268.5 120.5,-268.5 120.5,-268.5 114.5,-268.5 108.5,-262.5 108.5,-256.5 108.5,-256.5 108.5,-244.5 108.5,-244.5 108.5,-238.5 114.5,-232.5 120.5,-232.5 120.5,-232.5 208.5,-232.5 208.5,-232.5 214.5,-232.5 220.5,-238.5 220.5,-244.5 220.5,-244.5 220.5,-256.5 220.5,-256.5 220.5,-262.5 214.5,-268.5 208.5,-268.5"/>
<text text-anchor="middle" x="164.5" y="-247.7" font-family="Helvetica,sans-Serif" font-size="11.00">OwnersData.load</text>
</g>
<!-- m::com.android.server.devicepolicy.OwnersData.load:([I)V&#45;&gt;__field__ -->
<g id="edge9" class="edge">
<title>m::com.android.server.devicepolicy.OwnersData.load:([I)V&#45;&gt;__field__</title>
<path fill="none" stroke="#dc2626" d="M220.62,-252.84C275.19,-255.52 361.06,-260.72 435,-269.5 439.57,-270.04 444.25,-270.64 448.97,-271.29"/>
<polygon fill="#dc2626" stroke="#dc2626" points="448.62,-274.07 456.94,-272.41 449.41,-268.52 448.62,-274.07"/>
<text text-anchor="middle" x="393" y="-272.3" font-family="Helvetica,sans-Serif" font-size="9.00" fill="#dc2626"> reads unguarded</text>
</g>
<!-- m::com.android.server.devicepolicy.PolicyVersionUpgrader.getOwnerForUser:(Lcom/android/server/devicepolicy/OwnersData;I)Landroid/content/ComponentName; -->
<g id="node10" class="node">
<title>m::com.android.server.devicepolicy.PolicyVersionUpgrader.getOwnerForUser:(Lcom/android/server/devicepolicy/OwnersData;I)Landroid/content/ComponentName;</title>
<path fill="#fee2e2" stroke="#dc2626" d="M272,-210.5C272,-210.5 57,-210.5 57,-210.5 51,-210.5 45,-204.5 45,-198.5 45,-198.5 45,-186.5 45,-186.5 45,-180.5 51,-174.5 57,-174.5 57,-174.5 272,-174.5 272,-174.5 278,-174.5 284,-180.5 284,-186.5 284,-186.5 284,-198.5 284,-198.5 284,-204.5 278,-210.5 272,-210.5"/>
<text text-anchor="middle" x="164.5" y="-189.7" font-family="Helvetica,sans-Serif" font-size="11.00">PolicyVersionUpgrader.getOwnerForUser</text>
</g>
<!-- m::com.android.server.devicepolicy.PolicyVersionUpgrader.getOwnerForUser:(Lcom/android/server/devicepolicy/OwnersData;I)Landroid/content/ComponentName;&#45;&gt;__field__ -->
<g id="edge10" class="edge">
<title>m::com.android.server.devicepolicy.PolicyVersionUpgrader.getOwnerForUser:(Lcom/android/server/devicepolicy/OwnersData;I)Landroid/content/ComponentName;&#45;&gt;__field__</title>
<path fill="none" stroke="#dc2626" d="M284.21,-210.38C331.65,-218.94 386.45,-230.61 435,-245.5 454.28,-251.41 475.01,-259.16 493.07,-266.4"/>
<polygon fill="#dc2626" stroke="#dc2626" points="492.17,-269.05 500.64,-269.46 494.27,-263.86 492.17,-269.05"/>
<text text-anchor="middle" x="393" y="-248.3" font-family="Helvetica,sans-Serif" font-size="9.00" fill="#dc2626"> reads unguarded</text>
</g>
<!-- m::com.android.server.devicepolicy.PolicyVersionUpgrader.upgradePackageSuspension:([ILcom/android/server/devicepolicy/OwnersData;Landroid/util/SparseArray;)V -->
<g id="node11" class="node">
<title>m::com.android.server.devicepolicy.PolicyVersionUpgrader.upgradePackageSuspension:([ILcom/android/server/devicepolicy/OwnersData;Landroid/util/SparseArray;)V</title>
<path fill="#fee2e2" stroke="#dc2626" d="M300,-152.5C300,-152.5 29,-152.5 29,-152.5 23,-152.5 17,-146.5 17,-140.5 17,-140.5 17,-128.5 17,-128.5 17,-122.5 23,-116.5 29,-116.5 29,-116.5 300,-116.5 300,-116.5 306,-116.5 312,-122.5 312,-128.5 312,-128.5 312,-140.5 312,-140.5 312,-146.5 306,-152.5 300,-152.5"/>
<text text-anchor="middle" x="164.5" y="-131.7" font-family="Helvetica,sans-Serif" font-size="11.00">PolicyVersionUpgrader.upgradePackageSuspension</text>
</g>
<!-- m::com.android.server.devicepolicy.PolicyVersionUpgrader.upgradePackageSuspension:([ILcom/android/server/devicepolicy/OwnersData;Landroid/util/SparseArray;)V&#45;&gt;__field__ -->
<g id="edge11" class="edge">
<title>m::com.android.server.devicepolicy.PolicyVersionUpgrader.upgradePackageSuspension:([ILcom/android/server/devicepolicy/OwnersData;Landroid/util/SparseArray;)V&#45;&gt;__field__</title>
<path fill="none" stroke="#dc2626" d="M285.91,-152.54C300.55,-155.7 315.2,-159.34 329,-163.5 378.17,-178.31 390.4,-184.04 435,-209.5 463.19,-225.59 492.88,-247.56 513.9,-264.09"/>
<polygon fill="#dc2626" stroke="#dc2626" points="512.4,-266.47 520.41,-269.25 515.88,-262.09 512.4,-266.47"/>
<text text-anchor="middle" x="393" y="-212.3" font-family="Helvetica,sans-Serif" font-size="9.00" fill="#dc2626"> reads unguarded</text>
</g>
<!-- m::com.android.server.devicepolicy.PolicyVersionUpgrader.upgradeProtectedPackages:(Lcom/android/server/devicepolicy/OwnersData;Landroid/util/SparseArray;)V -->
<g id="node12" class="node">
<title>m::com.android.server.devicepolicy.PolicyVersionUpgrader.upgradeProtectedPackages:(Lcom/android/server/devicepolicy/OwnersData;Landroid/util/SparseArray;)V</title>
<path fill="#fee2e2" stroke="#dc2626" d="M298.5,-94.5C298.5,-94.5 30.5,-94.5 30.5,-94.5 24.5,-94.5 18.5,-88.5 18.5,-82.5 18.5,-82.5 18.5,-70.5 18.5,-70.5 18.5,-64.5 24.5,-58.5 30.5,-58.5 30.5,-58.5 298.5,-58.5 298.5,-58.5 304.5,-58.5 310.5,-64.5 310.5,-70.5 310.5,-70.5 310.5,-82.5 310.5,-82.5 310.5,-88.5 304.5,-94.5 298.5,-94.5"/>
<text text-anchor="middle" x="164.5" y="-73.7" font-family="Helvetica,sans-Serif" font-size="11.00">PolicyVersionUpgrader.upgradeProtectedPackages</text>
</g>
<!-- m::com.android.server.devicepolicy.PolicyVersionUpgrader.upgradeProtectedPackages:(Lcom/android/server/devicepolicy/OwnersData;Landroid/util/SparseArray;)V&#45;&gt;__field__ -->
<g id="edge12" class="edge">
<title>m::com.android.server.devicepolicy.PolicyVersionUpgrader.upgradeProtectedPackages:(Lcom/android/server/devicepolicy/OwnersData;Landroid/util/SparseArray;)V&#45;&gt;__field__</title>
<path fill="none" stroke="#dc2626" d="M297.88,-94.51C344.85,-105.99 395.74,-124.77 435,-155.5 474.05,-186.06 508.09,-233.26 526.91,-262.16"/>
<polygon fill="#dc2626" stroke="#dc2626" points="524.69,-263.88 531.36,-269.1 529.4,-260.85 524.69,-263.88"/>
<text text-anchor="middle" x="393" y="-158.3" font-family="Helvetica,sans-Serif" font-size="9.00" fill="#dc2626"> reads unguarded</text>
</g>
<!-- m::com.android.server.devicepolicy.PolicyVersionUpgrader.upgradeProtectedPackages:(Lcom/android/server/devicepolicy/OwnersData;Landroid/util/SparseArray;)V&#45;&gt;__field__ -->
<g id="edge13" class="edge">
<title>m::com.android.server.devicepolicy.PolicyVersionUpgrader.upgradeProtectedPackages:(Lcom/android/server/devicepolicy/OwnersData;Landroid/util/SparseArray;)V&#45;&gt;__field__</title>
<path fill="none" stroke="#dc2626" d="M310.5,-75.81C362.55,-78.05 413.67,-83.92 435,-97.5 494.65,-135.47 524.45,-219 536.23,-261.53"/>
<polygon fill="#dc2626" stroke="#dc2626" points="533.58,-262.45 538.35,-269.46 538.99,-261.01 533.58,-262.45"/>
<text text-anchor="middle" x="393" y="-100.3" font-family="Helvetica,sans-Serif" font-size="9.00" fill="#dc2626"> reads unguarded</text>
</g>
<!-- m::com.android.server.devicepolicy.PolicyVersionUpgrader.upgradeProtectedPackages:(Lcom/android/server/devicepolicy/OwnersData;Landroid/util/SparseArray;)V&#45;&gt;__field__ -->
<g id="edge14" class="edge">
<title>m::com.android.server.devicepolicy.PolicyVersionUpgrader.upgradeProtectedPackages:(Lcom/android/server/devicepolicy/OwnersData;Landroid/util/SparseArray;)V&#45;&gt;__field__</title>
<path fill="none" stroke="#dc2626" d="M277.3,-58.49C339.34,-50.93 409.08,-47.19 435,-63.5 505.4,-107.8 530.74,-212.47 538.95,-261.41"/>
<polygon fill="#dc2626" stroke="#dc2626" points="536.19,-261.87 540.21,-269.33 541.72,-260.99 536.19,-261.87"/>
<text text-anchor="middle" x="393" y="-66.3" font-family="Helvetica,sans-Serif" font-size="9.00" fill="#dc2626"> reads unguarded</text>
</g>
<!-- m::com.android.server.devicepolicy.PolicyVersionUpgrader.upgradeSensorPermissionsAccess:([ILcom/android/server/devicepolicy/OwnersData;Landroid/util/SparseArray;)V -->
<g id="node13" class="node">
<title>m::com.android.server.devicepolicy.PolicyVersionUpgrader.upgradeSensorPermissionsAccess:([ILcom/android/server/devicepolicy/OwnersData;Landroid/util/SparseArray;)V</title>
<path fill="#fee2e2" stroke="#dc2626" d="M317,-36.5C317,-36.5 12,-36.5 12,-36.5 6,-36.5 0,-30.5 0,-24.5 0,-24.5 0,-12.5 0,-12.5 0,-6.5 6,-0.5 12,-0.5 12,-0.5 317,-0.5 317,-0.5 323,-0.5 329,-6.5 329,-12.5 329,-12.5 329,-24.5 329,-24.5 329,-30.5 323,-36.5 317,-36.5"/>
<text text-anchor="middle" x="164.5" y="-15.7" font-family="Helvetica,sans-Serif" font-size="11.00">PolicyVersionUpgrader.upgradeSensorPermissionsAccess</text>
</g>
<!-- m::com.android.server.devicepolicy.PolicyVersionUpgrader.upgradeSensorPermissionsAccess:([ILcom/android/server/devicepolicy/OwnersData;Landroid/util/SparseArray;)V&#45;&gt;__field__ -->
<g id="edge15" class="edge">
<title>m::com.android.server.devicepolicy.PolicyVersionUpgrader.upgradeSensorPermissionsAccess:([ILcom/android/server/devicepolicy/OwnersData;Landroid/util/SparseArray;)V&#45;&gt;__field__</title>
<path fill="none" stroke="#dc2626" d="M280.66,-0.49C332.15,1.48 391,-5.32 435,-36.5 510.66,-90.11 533.46,-208.34 540.01,-261.13"/>
<polygon fill="#dc2626" stroke="#dc2626" points="537.25,-261.7 540.96,-269.32 542.82,-261.05 537.25,-261.7"/>
<text text-anchor="middle" x="393" y="-39.3" font-family="Helvetica,sans-Serif" font-size="9.00" fill="#dc2626"> reads unguarded</text>
</g>
</g>
</svg>
