<?xml version="1.0" encoding="UTF-8" standalone="no"?>
<!DOCTYPE svg PUBLIC "-//W3C//DTD SVG 1.1//EN"
 "http://www.w3.org/Graphics/SVG/1.1/DTD/svg11.dtd">
<!-- Generated by graphviz version 2.43.0 (0)
 -->
<!-- Title: race Pages: 1 -->
<svg width="582pt" height="361pt"
 viewBox="0.00 0.00 582.00 361.00" xmlns="http://www.w3.org/2000/svg" xmlns:xlink="http://www.w3.org/1999/xlink">
<g id="graph0" class="graph" transform="scale(1 1) rotate(0) translate(4 357)">
<title>race</title>
<polygon fill="white" stroke="transparent" points="-4,4 -4,-357 578,-357 578,4 -4,4"/>
<!-- __field__ -->
<g id="node1" class="node">
<title>__field__</title>
<path fill="#fef9c3" stroke="#ca8a04" stroke-width="2" d="M562,-205C562,-205 362,-205 362,-205 356,-205 350,-199 350,-193 350,-193 350,-181 350,-181 350,-175 356,-169 362,-169 362,-169 562,-169 562,-169 568,-169 574,-175 574,-181 574,-181 574,-193 574,-193 574,-199 568,-205 562,-205"/>
<text text-anchor="middle" x="462" y="-184.2" font-family="Helvetica,sans-Serif" font-size="11.00">FocusRequester.mFocusLossReceived</text>
</g>
<!-- __guard__ -->
<g id="node2" class="node">
<title>__guard__</title>
<path fill="#dcfce7" stroke="#16a34a" stroke-width="2" d="M210,-353C210,-353 12,-353 12,-353 6,-353 0,-347 0,-341 0,-341 0,-329 0,-329 0,-323 6,-317 12,-317 12,-317 210,-317 210,-317 216,-317 222,-323 222,-329 222,-329 222,-341 222,-341 222,-347 216,-353 210,-353"/>
<text text-anchor="middle" x="111" y="-332.2" font-family="Helvetica,sans-Serif" font-size="11.00">MediaFocusControl.mAudioFocusLock</text>
</g>
<!-- __guard__&#45;&gt;__field__ -->
<g id="edge1" class="edge">
<title>__guard__&#45;&gt;__field__</title>
<path fill="none" stroke="#16a34a" stroke-width="1.6" d="M222.05,-324.74C257.05,-318.71 295.16,-309.16 328,-294 371.65,-273.84 413.4,-236.26 438.12,-211.43"/>
<polygon fill="#16a34a" stroke="#16a34a" stroke-width="1.6" points="440.42,-213.08 444.03,-205.41 436.42,-209.16 440.42,-213.08"/>
<text text-anchor="middle" x="286" y="-321.8" font-family="Helvetica,sans-Serif" font-size="9.00" fill="#15803d"> guards 2/3</text>
</g>
<!-- m::com.android.server.audio.FocusRequester.handleFocusLoss:(ILcom/android/server/audio/FocusRequester;Z)V -->
<g id="node3" class="node">
<title>m::com.android.server.audio.FocusRequester.handleFocusLoss:(ILcom/android/server/audio/FocusRequester;Z)V</title>
<path fill="#fee2e2" stroke="#dc2626" d="M199,-224C199,-224 23,-224 23,-224 17,-224 11,-218 11,-212 11,-212 11,-200 11,-200 11,-194 17,-188 23,-188 23,-188 199,-188 199,-188 205,-188 211,-194 211,-200 211,-200 211,-212 211,-212 211,-218 205,-224 199,-224"/>
<text text-anchor="middle" x="111" y="-203.2" font-family="Helvetica,sans-Serif" font-size="11.00">FocusRequester.handleFocusLoss</text>
</g>
<!-- m::com.android.server.audio.FocusRequester.handleFocusLoss:(ILcom/android/server/audio/FocusRequester;Z)V&#45;&gt;__field__ -->
<g id="edge2" class="edge">
<title>m::com.android.server.audio.FocusRequester.handleFocusLoss:(ILcom/android/server/audio/FocusRequester;Z)V&#45;&gt;__field__</title>
<path fill="none" stroke="#dc2626" d="M138.88,-224.14C164.59,-240.32 205.1,-262.82 244,-272 280.33,-280.58 292.17,-282.47 328,-272 368.81,-260.07 409,-231.39 434.33,-210.63"/>
<polygon fill="#dc2626" stroke="#dc2626" points="436.41,-212.55 440.76,-205.28 432.82,-208.25 436.41,-212.55"/>
<text text-anchor="middle" x="286" y="-281.8" font-family="Helvetica,sans-Serif" font-size="9.00" fill="#dc2626"> writes unguarded</text>
</g>
<!-- m::com.android.server.audio.FocusRequester.handleFocusLoss:(ILcom/android/server/audio/FocusRequester;Z)V&#45;&gt;__field__ -->
<g id="edge4" class="edge">
<title>m::com.android.server.audio.FocusRequester.handleFocusLoss:(ILcom/android/server/audio/FocusRequester;Z)V&#45;&gt;__field__</title>
<path fill="none" stroke="#dc2626" d="M172.72,-224.09C216.11,-234.6 275.82,-244.13 328,-235 357.69,-229.81 389.5,-218.55 414.56,-208.24"/>
<polygon fill="#dc2626" stroke="#dc2626" points="415.82,-210.75 422.12,-205.08 413.66,-205.59 415.82,-210.75"/>
<text text-anchor="middle" x="286" y="-240.8" font-family="Helvetica,sans-Serif" font-size="9.00" fill="#dc2626"> reads unguarded</text>
</g>
<!-- m::com.android.server.audio.FocusRequester.handleFocusLoss:(ILcom/android/server/audio/FocusRequester;Z)V&#45;&gt;__field__ -->
<g id="edge5" class="edge">
<title>m::com.android.server.audio.FocusRequester.handleFocusLoss:(ILcom/android/server/audio/FocusRequester;Z)V&#45;&gt;__field__</title>
<path fill="none" stroke="#dc2626" d="M211.24,-203.27C247.95,-202.01 289.89,-200.28 328,-198 332.59,-197.73 337.27,-197.43 342,-197.11"/>
<polygon fill="#dc2626" stroke="#dc2626" points="342.2,-199.9 349.99,-196.56 341.82,-194.32 342.2,-199.9"/>
<text text-anchor="middle" x="286" y="-204.8" font-family="Helvetica,sans-Serif" font-size="9.00" fill="#dc2626"> reads unguarded</text>
</g>
<!-- m::com.android.server.audio.FocusRequester.handleFocusLoss:(ILcom/android/server/audio/FocusRequester;Z)V&#45;&gt;__field__ -->
<g id="edge6" class="edge">
<title>m::com.android.server.audio.FocusRequester.handleFocusLoss:(ILcom/android/server/audio/FocusRequester;Z)V&#45;&gt;__field__</title>
<path fill="none" stroke="#dc2626" d="M211.3,-190.16C222.31,-188.86 233.38,-187.76 244,-187 275.7,-184.73 310.07,-183.96 341.9,-183.94"/>
<polygon fill="#dc2626" stroke="#dc2626" points="341.94,-186.74 349.94,-183.95 341.94,-181.14 341.94,-186.74"/>
<text text-anchor="middle" x="286" y="-189.8" font-family="Helvetica,sans-Serif" font-size="9.00" fill="#dc2626"> reads unguarded</text>
</g>
<!-- m::com.android.server.audio.FocusRequester.handleFocusLoss:(ILcom/android/server/audio/FocusRequester;Z)V&#45;&gt;__field__ -->
<g id="edge7" class="edge">
<title>m::com.android.server.audio.FocusRequester.handleFocusLoss:(ILcom/android/server/audio/FocusRequester;Z)V&#45;&gt;__field__</title>
<path fill="none" stroke="#dc2626" d="M163.66,-187.99C187.75,-180.51 217,-172.71 244,-169 277.54,-164.39 314.18,-165.21 347.64,-168.22"/>
<polygon fill="#dc2626" stroke="#dc2626" points="347.39,-171.01 355.62,-168.99 347.92,-165.43 347.39,-171.01"/>
<text text-anchor="middle" x="286" y="-171.8" font-family="Helvetica,sans-Serif" font-size="9.00" fill="#dc2626"> reads unguarded</text>
</g>
<!-- m::com.android.server.audio.FocusRequester.handleFocusLoss:(ILcom/android/server/audio/FocusRequester;Z)V&#45;&gt;__field__ -->
<g id="edge8" class="edge">
<title>m::com.android.server.audio.FocusRequester.handleFocusLoss:(ILcom/android/server/audio/FocusRequester;Z)V&#45;&gt;__field__</title>
<path fill="none" stroke="#dc2626" d="M144.44,-187.88C170.46,-174.44 208.38,-157.24 244,-150 298.94,-138.83 362.17,-152.61 406.15,-166.41"/>
<polygon fill="#dc2626" stroke="#dc2626" points="405.38,-169.11 413.85,-168.89 407.1,-163.78 405.38,-169.11"/>
<text text-anchor="middle" x="286" y="-152.8" font-family="Helvetica,sans-Serif" font-size="9.00" fill="#dc2626"> reads unguarded</text>
</g>
<!-- m::com.android.server.audio.FocusRequester.focusLossToString:()Ljava/lang/String; -->
<g id="node4" class="node">
<title>m::com.android.server.audio.FocusRequester.focusLossToString:()Ljava/lang/String;</title>
<path fill="#fee2e2" stroke="#dc2626" d="M201.5,-94C201.5,-94 20.5,-94 20.5,-94 14.5,-94 8.5,-88 8.5,-82 8.5,-82 8.5,-70 8.5,-70 8.5,-64 14.5,-58 20.5,-58 20.5,-58 201.5,-58 201.5,-58 207.5,-58 213.5,-64 213.5,-70 213.5,-70 213.5,-82 213.5,-82 213.5,-88 207.5,-94 201.5,-94"/>
<text text-anchor="middle" x="111" y="-73.2" font-family="Helvetica,sans-Serif" font-size="11.00">FocusRequester.focusLossToString</text>
</g>
<!-- m::com.android.server.audio.FocusRequester.focusLossToString:()Ljava/lang/String;&#45;&gt;__field__ -->
<g id="edge3" class="edge">
<title>m::com.android.server.audio.FocusRequester.focusLossToString:()Ljava/lang/String;&#45;&gt;__field__</title>
<path fill="none" stroke="#dc2626" d="M197.28,-94C237.38,-103.31 285.6,-115.72 328,-130 357.9,-140.07 390.48,-153.98 415.91,-165.54"/>
<polygon fill="#dc2626" stroke="#dc2626" points="414.78,-168.1 423.22,-168.89 417.11,-163.01 414.78,-168.1"/>
<text text-anchor="middle" x="286" y="-132.8" font-family="Helvetica,sans-Serif" font-size="9.00" fill="#dc2626"> reads unguarded</text>
</g>
<!-- m::com.android.server.audio.FocusRequester.toAudioFocusInfo:()Landroid/media/AudioFocusInfo; -->
<g id="node5" class="node">
<title>m::com.android.server.audio.FocusRequester.toAudioFocusInfo:()Landroid/media/AudioFocusInfo;</title>
<path fill="#fee2e2" stroke="#dc2626" d="M199.5,-36C199.5,-36 22.5,-36 22.5,-36 16.5,-36 10.5,-30 10.5,-24 10.5,-24 10.5,-12 10.5,-12 10.5,-6 16.5,0 22.5,0 22.5,0 199.5,0 199.5,0 205.5,0 211.5,-6 211.5,-12 211.5,-12 211.5,-24 211.5,-24 211.5,-30 205.5,-36 199.5,-36"/>
<text text-anchor="middle" x="111" y="-15.2" font-family="Helvetica,sans-Serif" font-size="11.00">FocusRequester.toAudioFocusInfo</text>
</g>
<!-- m::com.android.server.audio.FocusRequester.toAudioFocusInfo:()Landroid/media/AudioFocusInfo;&#45;&gt;__field__ -->
<g id="edge9" class="edge">
<title>m::com.android.server.audio.FocusRequester.toAudioFocusInfo:()Landroid/media/AudioFocusInfo;&#45;&gt;__field__</title>
<path fill="none" stroke="#dc2626" d="M185.75,-36.05C197.94,-39.43 210.38,-43.13 222,-47 270.23,-63.07 283.57,-65.28 328,-90 366.68,-111.52 407.23,-142.5 433.24,-163.62"/>
<polygon fill="#dc2626" stroke="#dc2626" points="431.57,-165.87 439.53,-168.77 435.11,-161.54 431.57,-165.87"/>
<text text-anchor="middle" x="286" y="-92.8" font-family="Helvetica,sans-Serif" font-size="9.00" fill="#dc2626"> reads unguarded</text>
</g>
</g>
</svg>
