<?xml version="1.0" encoding="UTF-8" standalone="no"?>
<!DOCTYPE svg PUBLIC "-//W3C//DTD SVG 1.1//EN"
 "http://www.w3.org/Graphics/SVG/1.1/DTD/svg11.dtd">
<!-- Generated by graphviz version 2.43.0 (0)
 -->
<!-- Title: race Pages: 1 -->
<svg width="501pt" height="125pt"
 viewBox="0.00 0.00 501.00 125.26" xmlns="http://www.w3.org/2000/svg" xmlns:xlink="http://www.w3.org/1999/xlink">
<g id="graph0" class="graph" transform="scale(1 1) rotate(0) translate(4 121.26)">
<title>race</title>
<polygon fill="white" stroke="transparent" points="-4,4 -4,-121.26 497,-121.26 497,4 -4,4"/>
<!-- __field__ -->
<g id="node1" class="node">
<title>__field__</title>
<path fill="#fef9c3" stroke="#ca8a04" stroke-width="2" d="M481,-61.26C481,-61.26 362,-61.26 362,-61.26 356,-61.26 350,-55.26 350,-49.26 350,-49.26 350,-37.26 350,-37.26 350,-31.26 356,-25.26 362,-25.26 362,-25.26 481,-25.26 481,-25.26 487,-25.26 493,-31.26 493,-37.26 493,-37.26 493,-49.26 493,-49.26 493,-55.26 487,-61.26 481,-61.26"/>
<text text-anchor="middle" x="421.5" y="-40.46" font-family="Helvetica,sans-Serif" font-size="11.00">Session.mClientVulture</text>
</g>
<!-- __guard__ -->
<g id="node2" class="node">
<title>__guard__</title>
<path fill="#dcfce7" stroke="#16a34a" stroke-width="2" d="M210,-117.26C210,-117.26 12,-117.26 12,-117.26 6,-117.26 0,-111.26 0,-105.26 0,-105.26 0,-93.26 0,-93.26 0,-87.26 6,-81.26 12,-81.26 12,-81.26 210,-81.26 210,-81.26 216,-81.26 222,-87.26 222,-93.26 222,-93.26 222,-105.26 222,-105.26 222,-111.26 216,-117.26 210,-117.26"/>
<text text-anchor="middle" x="111" y="-96.46" font-family="Helvetica,sans-Serif" font-size="11.00">AbstractMasterSystemService.mLock</text>
</g>
<!-- __guard__&#45;&gt;__field__ -->
<g id="edge1" class="edge">
<title>__guard__&#45;&gt;__field__</title>
<path fill="none" stroke="#16a34a" stroke-width="1.6" d="M211.31,-81.23C253.41,-73.59 301.79,-64.81 341.41,-57.62"/>
<polygon fill="#16a34a" stroke="#16a34a" stroke-width="1.6" points="342.35,-60.29 349.72,-56.11 341.35,-54.78 342.35,-60.29"/>
<text text-anchor="middle" x="286" y="-77.06" font-family="Helvetica,sans-Serif" font-size="9.00" fill="#15803d"> guards 2/3</text>
</g>
<!-- m::com.android.server.autofill.Session.unlinkClientVultureLocked:()V -->
<g id="node3" class="node">
<title>m::com.android.server.autofill.Session.unlinkClientVultureLocked:()V</title>
<path fill="#fee2e2" stroke="#dc2626" d="M200.5,-43.26C200.5,-43.26 21.5,-43.26 21.5,-43.26 15.5,-43.26 9.5,-37.26 9.5,-31.26 9.5,-31.26 9.5,-19.26 9.5,-19.26 9.5,-13.26 15.5,-7.26 21.5,-7.26 21.5,-7.26 200.5,-7.26 200.5,-7.26 206.5,-7.26 212.5,-13.26 212.5,-19.26 212.5,-19.26 212.5,-31.26 212.5,-31.26 212.5,-37.26 206.5,-43.26 200.5,-43.26"/>
<text text-anchor="middle" x="111" y="-22.46" font-family="Helvetica,sans-Serif" font-size="11.00">Session.unlinkClientVultureLocked</text>
</g>
<!-- m::com.android.server.autofill.Session.unlinkClientVultureLocked:()V&#45;&gt;__field__ -->
<g id="edge2" class="edge">
<title>m::com.android.server.autofill.Session.unlinkClientVultureLocked:()V&#45;&gt;__field__</title>
<path fill="none" stroke="#dc2626" d="M212.51,-34.09C223.13,-34.89 233.79,-35.63 244,-36.26 275.89,-38.22 311.06,-39.74 341.55,-40.86"/>
<polygon fill="#dc2626" stroke="#dc2626" points="341.52,-43.66 349.61,-41.15 341.72,-38.07 341.52,-43.66"/>
<text text-anchor="middle" x="286" y="-43.06" font-family="Helvetica,sans-Serif" font-size="9.00" fill="#dc2626"> writes unguarded</text>
</g>
<!-- m::com.android.server.autofill.Session.unlinkClientVultureLocked:()V&#45;&gt;__field__ -->
<g id="edge3" class="edge">
<title>m::com.android.server.autofill.Session.unlinkClientVultureLocked:()V&#45;&gt;__field__</title>
<path fill="none" stroke="#dc2626" d="M212.75,-21.26C249.14,-20.87 290.49,-21.64 328,-25.26 332.43,-25.69 336.96,-26.23 341.52,-26.85"/>
<polygon fill="#dc2626" stroke="#dc2626" points="341.43,-29.67 349.75,-28.05 342.24,-24.12 341.43,-29.67"/>
<text text-anchor="middle" x="286" y="-28.06" font-family="Helvetica,sans-Serif" font-size="9.00" fill="#dc2626"> reads unguarded</text>
</g>
<!-- m::com.android.server.autofill.Session.unlinkClientVultureLocked:()V&#45;&gt;__field__ -->
<g id="edge4" class="edge">
<title>m::com.android.server.autofill.Session.unlinkClientVultureLocked:()V&#45;&gt;__field__</title>
<path fill="none" stroke="#dc2626" d="M190.54,-7.24C231.76,-0.49 282.92,3.64 328,-5.26 344.98,-8.61 362.76,-15.12 378.15,-21.81"/>
<polygon fill="#dc2626" stroke="#dc2626" points="377.05,-24.38 385.49,-25.1 379.33,-19.27 377.05,-24.38"/>
<text text-anchor="middle" x="286" y="-8.06" font-family="Helvetica,sans-Serif" font-size="9.00" fill="#dc2626"> reads unguarded</text>
</g>
</g>
</svg>
