<?xml version="1.0" encoding="UTF-8" standalone="no"?>
<!DOCTYPE svg PUBLIC "-//W3C//DTD SVG 1.1//EN"
 "http://www.w3.org/Graphics/SVG/1.1/DTD/svg11.dtd">
<!-- Generated by graphviz version 2.43.0 (0)
 -->
<!-- Title: race Pages: 1 -->
<svg width="733pt" height="192pt"
 viewBox="0.00 0.00 733.00 192.00" xmlns="http://www.w3.org/2000/svg" xmlns:xlink="http://www.w3.org/1999/xlink">
<g id="graph0" class="graph" transform="scale(1 1) rotate(0) translate(4 188)">
<title>race</title>
<polygon fill="white" stroke="transparent" points="-4,4 -4,-188 729,-188 729,4 -4,4"/>
<!-- __field__ -->
<g id="node1" class="node">
<title>__field__</title>
<path fill="#fef9c3" stroke="#ca8a04" stroke-width="2" d="M713,-110C713,-110 436,-110 436,-110 430,-110 424,-104 424,-98 424,-98 424,-86 424,-86 424,-80 430,-74 436,-74 436,-74 713,-74 713,-74 719,-74 725,-80 725,-86 725,-86 725,-98 725,-98 725,-104 719,-110 713,-110"/>
<text text-anchor="middle" x="574.5" y="-89.2" font-family="Helvetica,sans-Serif" font-size="11.00">AudioDeviceBroker.mBluetoothLeSuspendedApplied</text>
</g>
<!-- __guard__ -->
<g id="node2" class="node">
<title>__guard__</title>
<path fill="#dcfce7" stroke="#16a34a" stroke-width="2" d="M272,-184C272,-184 24,-184 24,-184 18,-184 12,-178 12,-172 12,-172 12,-160 12,-160 12,-154 18,-148 24,-148 24,-148 272,-148 272,-148 278,-148 284,-154 284,-160 284,-160 284,-172 284,-172 284,-178 278,-184 272,-184"/>
<text text-anchor="middle" x="148" y="-163.2" font-family="Helvetica,sans-Serif" font-size="11.00">AudioDeviceBroker.mBluetoothAudioStateLock</text>
</g>
<!-- __guard__&#45;&gt;__field__ -->
<g id="edge1" class="edge">
<title>__guard__&#45;&gt;__field__</title>
<path fill="none" stroke="#16a34a" stroke-width="1.6" d="M252.3,-147.99C315.73,-136.94 396.96,-122.77 461.87,-111.46"/>
<polygon fill="#16a34a" stroke="#16a34a" stroke-width="1.6" points="462.7,-114.16 470.1,-110.02 461.74,-108.64 462.7,-114.16"/>
<text text-anchor="middle" x="360" y="-137.8" font-family="Helvetica,sans-Serif" font-size="9.00" fill="#15803d"> guards 3/4</text>
</g>
<!-- m::com.android.server.audio.AudioDeviceBroker.reapplyAudioHalBluetoothState:()V -->
<g id="node3" class="node">
<title>m::com.android.server.audio.AudioDeviceBroker.reapplyAudioHalBluetoothState:()V</title>
<path fill="#fee2e2" stroke="#dc2626" d="M284,-110C284,-110 12,-110 12,-110 6,-110 0,-104 0,-98 0,-98 0,-86 0,-86 0,-80 6,-74 12,-74 12,-74 284,-74 284,-74 290,-74 296,-80 296,-86 296,-86 296,-98 296,-98 296,-104 290,-110 284,-110"/>
<text text-anchor="middle" x="148" y="-89.2" font-family="Helvetica,sans-Serif" font-size="11.00">AudioDeviceBroker.reapplyAudioHalBluetoothState</text>
</g>
<!-- m::com.android.server.audio.AudioDeviceBroker.reapplyAudioHalBluetoothState:()V&#45;&gt;__field__ -->
<g id="edge2" class="edge">
<title>m::com.android.server.audio.AudioDeviceBroker.reapplyAudioHalBluetoothState:()V&#45;&gt;__field__</title>
<path fill="none" stroke="#dc2626" d="M296.45,-102.16C303.73,-102.49 310.95,-102.77 318,-103 355.31,-104.21 364.69,-104.2 402,-103 406.47,-102.86 411.01,-102.69 415.59,-102.51"/>
<polygon fill="#dc2626" stroke="#dc2626" points="416,-105.3 423.87,-102.16 415.76,-99.7 416,-105.3"/>
<text text-anchor="middle" x="360" y="-105.8" font-family="Helvetica,sans-Serif" font-size="9.00" fill="#dc2626"> writes unguarded</text>
</g>
<!-- m::com.android.server.audio.AudioDeviceBroker.reapplyAudioHalBluetoothState:()V&#45;&gt;__field__ -->
<g id="edge4" class="edge">
<title>m::com.android.server.audio.AudioDeviceBroker.reapplyAudioHalBluetoothState:()V&#45;&gt;__field__</title>
<path fill="none" stroke="#dc2626" d="M296.28,-92C334.84,-92 376.57,-92 415.66,-92"/>
<polygon fill="#dc2626" stroke="#dc2626" points="415.96,-94.8 423.96,-92 415.96,-89.2 415.96,-94.8"/>
<text text-anchor="middle" x="360" y="-94.8" font-family="Helvetica,sans-Serif" font-size="9.00" fill="#dc2626"> reads unguarded</text>
</g>
<!-- m::com.android.server.audio.AudioDeviceBroker.reapplyAudioHalBluetoothState:()V&#45;&gt;__field__ -->
<g id="edge5" class="edge">
<title>m::com.android.server.audio.AudioDeviceBroker.reapplyAudioHalBluetoothState:()V&#45;&gt;__field__</title>
<path fill="none" stroke="#dc2626" d="M296.42,-78.14C303.71,-77.7 310.94,-77.31 318,-77 355.3,-75.35 364.7,-75.37 402,-77 406.48,-77.2 411.02,-77.42 415.61,-77.67"/>
<polygon fill="#dc2626" stroke="#dc2626" points="415.75,-80.48 423.9,-78.14 416.07,-74.89 415.75,-80.48"/>
<text text-anchor="middle" x="360" y="-79.8" font-family="Helvetica,sans-Serif" font-size="9.00" fill="#dc2626"> reads unguarded</text>
</g>
<!-- m::com.android.server.audio.AudioDeviceBroker.dump:(Ljava/io/PrintWriter;Ljava/lang/String;)V -->
<g id="node4" class="node">
<title>m::com.android.server.audio.AudioDeviceBroker.dump:(Ljava/io/PrintWriter;Ljava/lang/String;)V</title>
<path fill="#fee2e2" stroke="#dc2626" d="M213.5,-36C213.5,-36 82.5,-36 82.5,-36 76.5,-36 70.5,-30 70.5,-24 70.5,-24 70.5,-12 70.5,-12 70.5,-6 76.5,0 82.5,0 82.5,0 213.5,0 213.5,0 219.5,0 225.5,-6 225.5,-12 225.5,-12 225.5,-24 225.5,-24 225.5,-30 219.5,-36 213.5,-36"/>
<text text-anchor="middle" x="148" y="-15.2" font-family="Helvetica,sans-Serif" font-size="11.00">AudioDeviceBroker.dump</text>
</g>
<!-- m::com.android.server.audio.AudioDeviceBroker.dump:(Ljava/io/PrintWriter;Ljava/lang/String;)V&#45;&gt;__field__ -->
<g id="edge3" class="edge">
<title>m::com.android.server.audio.AudioDeviceBroker.dump:(Ljava/io/PrintWriter;Ljava/lang/String;)V&#45;&gt;__field__</title>
<path fill="none" stroke="#dc2626" d="M225.74,-30.33C275.93,-38.5 342.91,-49.58 402,-60 424.28,-63.93 448.16,-68.29 470.81,-72.49"/>
<polygon fill="#dc2626" stroke="#dc2626" points="470.38,-75.26 478.76,-73.97 471.41,-69.76 470.38,-75.26"/>
<text text-anchor="middle" x="360" y="-62.8" font-family="Helvetica,sans-Serif" font-size="9.00" fill="#dc2626"> reads unguarded</text>
</g>
</g>
</svg>
