<?xml version="1.0" encoding="UTF-8" standalone="no"?>
<!DOCTYPE svg PUBLIC "-//W3C//DTD SVG 1.1//EN"
 "http://www.w3.org/Graphics/SVG/1.1/DTD/svg11.dtd">
<!-- Generated by graphviz version 2.43.0 (0)
 -->
<!-- Title: race Pages: 1 -->
<svg width="816pt" height="160pt"
 viewBox="0.00 0.00 816.00 160.00" xmlns="http://www.w3.org/2000/svg" xmlns:xlink="http://www.w3.org/1999/xlink">
<g id="graph0" class="graph" transform="scale(1 1) rotate(0) translate(4 156)">
<title>race</title>
<polygon fill="white" stroke="transparent" points="-4,4 -4,-156 812,-156 812,4 -4,4"/>
<!-- __field__ -->
<g id="node1" class="node">
<title>__field__</title>
<path fill="#fef9c3" stroke="#ca8a04" stroke-width="2" d="M796,-94C796,-94 479,-94 479,-94 473,-94 467,-88 467,-82 467,-82 467,-70 467,-70 467,-64 473,-58 479,-58 479,-58 796,-58 796,-58 802,-58 808,-64 808,-70 808,-70 808,-82 808,-82 808,-88 802,-94 796,-94"/>
<text text-anchor="middle" x="637.5" y="-73.2" font-family="Helvetica,sans-Serif" font-size="11.00">JobSchedulerService$BatteryStateTracker.mBatteryNotLow</text>
</g>
<!-- __guard__ -->
<g id="node2" class="node">
<title>__guard__</title>
<path fill="#dcfce7" stroke="#16a34a" stroke-width="2" d="M241,-152C241,-152 98,-152 98,-152 92,-152 86,-146 86,-140 86,-140 86,-128 86,-128 86,-122 92,-116 98,-116 98,-116 241,-116 241,-116 247,-116 253,-122 253,-128 253,-128 253,-140 253,-140 253,-146 247,-152 241,-152"/>
<text text-anchor="middle" x="169.5" y="-131.2" font-family="Helvetica,sans-Serif" font-size="11.00">JobSchedulerService.mLock</text>
</g>
<!-- __guard__&#45;&gt;__field__ -->
<g id="edge1" class="edge">
<title>__guard__&#45;&gt;__field__</title>
<path fill="none" stroke="#16a34a" stroke-width="1.6" d="M253.01,-123.73C316.69,-115.8 406.6,-104.61 483.35,-95.06"/>
<polygon fill="#16a34a" stroke="#16a34a" stroke-width="1.6" points="484.1,-97.79 491.69,-94.02 483.41,-92.23 484.1,-97.79"/>
<text text-anchor="middle" x="403" y="-112.8" font-family="Helvetica,sans-Serif" font-size="9.00" fill="#15803d"> guards 2/3</text>
</g>
<!-- m::com.android.server.job.JobSchedulerService$BatteryStateTracker.startTracking:()V -->
<g id="node3" class="node">
<title>m::com.android.server.job.JobSchedulerService$BatteryStateTracker.startTracking:()V</title>
<path fill="#fee2e2" stroke="#dc2626" d="M317,-94C317,-94 22,-94 22,-94 16,-94 10,-88 10,-82 10,-82 10,-70 10,-70 10,-64 16,-58 22,-58 22,-58 317,-58 317,-58 323,-58 329,-64 329,-70 329,-70 329,-82 329,-82 329,-88 323,-94 317,-94"/>
<text text-anchor="middle" x="169.5" y="-73.2" font-family="Helvetica,sans-Serif" font-size="11.00">JobSchedulerService$BatteryStateTracker.startTracking</text>
</g>
<!-- m::com.android.server.job.JobSchedulerService$BatteryStateTracker.startTracking:()V&#45;&gt;__field__ -->
<g id="edge2" class="edge">
<title>m::com.android.server.job.JobSchedulerService$BatteryStateTracker.startTracking:()V&#45;&gt;__field__</title>
<path fill="none" stroke="#dc2626" d="M329.24,-76C370.87,-76 416.03,-76 458.59,-76"/>
<polygon fill="#dc2626" stroke="#dc2626" points="458.79,-78.8 466.79,-76 458.79,-73.2 458.79,-78.8"/>
<text text-anchor="middle" x="403" y="-78.8" font-family="Helvetica,sans-Serif" font-size="9.00" fill="#dc2626"> writes unguarded</text>
</g>
<!-- m::com.android.server.job.JobSchedulerService$BatteryStateTracker.isBatteryNotLow:()Z -->
<g id="node4" class="node">
<title>m::com.android.server.job.JobSchedulerService$BatteryStateTracker.isBatteryNotLow:()Z</title>
<path fill="#fee2e2" stroke="#dc2626" d="M327,-36C327,-36 12,-36 12,-36 6,-36 0,-30 0,-24 0,-24 0,-12 0,-12 0,-6 6,0 12,0 12,0 327,0 327,0 333,0 339,-6 339,-12 339,-12 339,-24 339,-24 339,-30 333,-36 327,-36"/>
<text text-anchor="middle" x="169.5" y="-15.2" font-family="Helvetica,sans-Serif" font-size="11.00">JobSchedulerService$BatteryStateTracker.isBatteryNotLow</text>
</g>
<!-- m::com.android.server.job.JobSchedulerService$BatteryStateTracker.isBatteryNotLow:()Z&#45;&gt;__field__ -->
<g id="edge3" class="edge">
<title>m::com.android.server.job.JobSchedulerService$BatteryStateTracker.isBatteryNotLow:()Z&#45;&gt;__field__</title>
<path fill="none" stroke="#dc2626" d="M315.39,-36.03C368.87,-42.69 429.61,-50.25 483.76,-56.99"/>
<polygon fill="#dc2626" stroke="#dc2626" points="483.41,-59.77 491.7,-57.98 484.11,-54.21 483.41,-59.77"/>
<text text-anchor="middle" x="403" y="-52.8" font-family="Helvetica,sans-Serif" font-size="9.00" fill="#dc2626"> reads unguarded</text>
</g>
</g>
</svg>
