<?xml version="1.0" encoding="UTF-8" standalone="no"?>
<!DOCTYPE svg PUBLIC "-//W3C//DTD SVG 1.1//EN"
 "http://www.w3.org/Graphics/SVG/1.1/DTD/svg11.dtd">
<!-- Generated by graphviz version 2.43.0 (0)
 -->
<!-- Title: race Pages: 1 -->
<svg width="607pt" height="218pt"
 viewBox="0.00 0.00 607.00 218.00" xmlns="http://www.w3.org/2000/svg" xmlns:xlink="http://www.w3.org/1999/xlink">
<g id="graph0" class="graph" transform="scale(1 1) rotate(0) translate(4 214)">
<title>race</title>
<polygon fill="white" stroke="transparent" points="-4,4 -4,-214 603,-214 603,4 -4,4"/>
<!-- __field__ -->
<g id="node1" class="node">
<title>__field__</title>
<path fill="#fef9c3" stroke="#ca8a04" stroke-width="2" d="M587,-123C587,-123 409,-123 409,-123 403,-123 397,-117 397,-111 397,-111 397,-99 397,-99 397,-93 403,-87 409,-87 409,-87 587,-87 587,-87 593,-87 599,-93 599,-99 599,-99 599,-111 599,-111 599,-117 593,-123 587,-123"/>
<text text-anchor="middle" x="498" y="-102.2" font-family="Helvetica,sans-Serif" font-size="11.00">AppProfiler.mMemWatchDumpUid</text>
</g>
<!-- __guard__ -->
<g id="node2" class="node">
<title>__guard__</title>
<path fill="#dcfce7" stroke="#16a34a" stroke-width="2" d="M199.5,-210C199.5,-210 69.5,-210 69.5,-210 63.5,-210 57.5,-204 57.5,-198 57.5,-198 57.5,-186 57.5,-186 57.5,-180 63.5,-174 69.5,-174 69.5,-174 199.5,-174 199.5,-174 205.5,-174 211.5,-180 211.5,-186 211.5,-186 211.5,-198 211.5,-198 211.5,-204 205.5,-210 199.5,-210"/>
<text text-anchor="middle" x="134.5" y="-189.2" font-family="Helvetica,sans-Serif" font-size="11.00">AppProfiler.mProfilerLock</text>
</g>
<!-- __guard__&#45;&gt;__field__ -->
<g id="edge1" class="edge">
<title>__guard__&#45;&gt;__field__</title>
<path fill="none" stroke="#16a34a" stroke-width="1.6" d="M211.85,-175.9C230.57,-171.82 250.53,-167.35 269,-163 319.82,-151.02 376.73,-136.54 420.98,-125.05"/>
<polygon fill="#16a34a" stroke="#16a34a" stroke-width="1.6" points="421.78,-127.74 428.81,-123.01 420.37,-122.32 421.78,-127.74"/>
<text text-anchor="middle" x="333" y="-159.8" font-family="Helvetica,sans-Serif" font-size="9.00" fill="#15803d"> guards 2/3</text>
</g>
<!-- m::com.android.server.am.AppProfiler.startHeapDumpLPf:(Lcom/android/server/am/ProcessProfileRecord;Z)V -->
<g id="node3" class="node">
<title>m::com.android.server.am.AppProfiler.startHeapDumpLPf:(Lcom/android/server/am/ProcessProfileRecord;Z)V</title>
<path fill="#fee2e2" stroke="#dc2626" d="M214,-152C214,-152 55,-152 55,-152 49,-152 43,-146 43,-140 43,-140 43,-128 43,-128 43,-122 49,-116 55,-116 55,-116 214,-116 214,-116 220,-116 226,-122 226,-128 226,-128 226,-140 226,-140 226,-146 220,-152 214,-152"/>
<text text-anchor="middle" x="134.5" y="-131.2" font-family="Helvetica,sans-Serif" font-size="11.00">AppProfiler.startHeapDumpLPf</text>
</g>
<!-- m::com.android.server.am.AppProfiler.startHeapDumpLPf:(Lcom/android/server/am/ProcessProfileRecord;Z)V&#45;&gt;__field__ -->
<g id="edge2" class="edge">
<title>m::com.android.server.am.AppProfiler.startHeapDumpLPf:(Lcom/android/server/am/ProcessProfileRecord;Z)V&#45;&gt;__field__</title>
<path fill="none" stroke="#dc2626" d="M226.26,-126.72C275.59,-122.76 336.93,-117.84 388.75,-113.68"/>
<polygon fill="#dc2626" stroke="#dc2626" points="389.23,-116.45 396.98,-113.02 388.78,-110.87 389.23,-116.45"/>
<text text-anchor="middle" x="333" y="-123.8" font-family="Helvetica,sans-Serif" font-size="9.00" fill="#dc2626"> writes unguarded</text>
</g>
<!-- m::com.android.server.am.AppProfiler.dumpMemWatchProcessesLPf:(Ljava/io/PrintWriter;Z)Z -->
<g id="node4" class="node">
<title>m::com.android.server.am.AppProfiler.dumpMemWatchProcessesLPf:(Ljava/io/PrintWriter;Z)Z</title>
<path fill="#fee2e2" stroke="#dc2626" d="M244.5,-94C244.5,-94 24.5,-94 24.5,-94 18.5,-94 12.5,-88 12.5,-82 12.5,-82 12.5,-70 12.5,-70 12.5,-64 18.5,-58 24.5,-58 24.5,-58 244.5,-58 244.5,-58 250.5,-58 256.5,-64 256.5,-70 256.5,-70 256.5,-82 256.5,-82 256.5,-88 250.5,-94 244.5,-94"/>
<text text-anchor="middle" x="134.5" y="-73.2" font-family="Helvetica,sans-Serif" font-size="11.00">AppProfiler.dumpMemWatchProcessesLPf</text>
</g>
<!-- m::com.android.server.am.AppProfiler.dumpMemWatchProcessesLPf:(Ljava/io/PrintWriter;Z)Z&#45;&gt;__field__ -->
<g id="edge3" class="edge">
<title>m::com.android.server.am.AppProfiler.dumpMemWatchProcessesLPf:(Ljava/io/PrintWriter;Z)Z&#45;&gt;__field__</title>
<path fill="none" stroke="#dc2626" d="M256.63,-85.72C299.33,-89.14 347.04,-92.97 388.62,-96.31"/>
<polygon fill="#dc2626" stroke="#dc2626" points="388.65,-99.12 396.85,-96.97 389.1,-93.54 388.65,-99.12"/>
<text text-anchor="middle" x="333" y="-96.8" font-family="Helvetica,sans-Serif" font-size="9.00" fill="#dc2626"> reads unguarded</text>
</g>
<!-- m::com.android.server.am.AppProfiler.writeMemWatchProcessToProtoLPf:(Landroid/util/proto/ProtoOutputStream;)V -->
<g id="node5" class="node">
<title>m::com.android.server.am.AppProfiler.writeMemWatchProcessToProtoLPf:(Landroid/util/proto/ProtoOutputStream;)V</title>
<path fill="#fee2e2" stroke="#dc2626" d="M257,-36C257,-36 12,-36 12,-36 6,-36 0,-30 0,-24 0,-24 0,-12 0,-12 0,-6 6,0 12,0 12,0 257,0 257,0 263,0 269,-6 269,-12 269,-12 269,-24 269,-24 269,-30 263,-36 257,-36"/>
<text text-anchor="middle" x="134.5" y="-15.2" font-family="Helvetica,sans-Serif" font-size="11.00">AppProfiler.writeMemWatchProcessToProtoLPf</text>
</g>
<!-- m::com.android.server.am.AppProfiler.writeMemWatchProcessToProtoLPf:(Landroid/util/proto/ProtoOutputStream;)V&#45;&gt;__field__ -->
<g id="edge4" class="edge">
<title>m::com.android.server.am.AppProfiler.writeMemWatchProcessToProtoLPf:(Landroid/util/proto/ProtoOutputStream;)V&#45;&gt;__field__</title>
<path fill="none" stroke="#dc2626" d="M220.32,-36.07C236.5,-39.62 253.29,-43.37 269,-47 316.26,-57.93 327.98,-61.07 375,-73 389.91,-76.78 405.83,-80.9 421.07,-84.88"/>
<polygon fill="#dc2626" stroke="#dc2626" points="420.52,-87.63 428.97,-86.95 421.94,-82.22 420.52,-87.63"/>
<text text-anchor="middle" x="333" y="-75.8" font-family="Helvetica,sans-Serif" font-size="9.00" fill="#dc2626"> reads unguarded</text>
</g>
</g>
</svg>
