<?xml version="1.0" encoding="UTF-8" standalone="no"?>
<!DOCTYPE svg PUBLIC "-//W3C//DTD SVG 1.1//EN"
 "http://www.w3.org/Graphics/SVG/1.1/DTD/svg11.dtd">
<!-- Generated by graphviz version 2.43.0 (0)
 -->
<!-- Title: race Pages: 1 -->
<svg width="720pt" height="160pt"
 viewBox="0.00 0.00 720.00 160.00" xmlns="http://www.w3.org/2000/svg" xmlns:xlink="http://www.w3.org/1999/xlink">
<g id="graph0" class="graph" transform="scale(1 1) rotate(0) translate(4 156)">
<title>race</title>
<polygon fill="white" stroke="transparent" points="-4,4 -4,-156 716,-156 716,4 -4,4"/>
<!-- __field__ -->
<g id="node1" class="node">
<title>__field__</title>
<path fill="#fef9c3" stroke="#ca8a04" stroke-width="2" d="M700,-94C700,-94 456,-94 456,-94 450,-94 444,-88 444,-82 444,-82 444,-70 444,-70 444,-64 450,-58 456,-58 456,-58 700,-58 700,-58 706,-58 712,-64 712,-70 712,-70 712,-82 712,-82 712,-88 706,-94 700,-94"/>
<text text-anchor="middle" x="578" y="-73.2" font-family="Helvetica,sans-Serif" font-size="11.00">DeviceIdleController.mNextLightIdleDelayFlex</text>
</g>
<!-- __guard__ -->
<g id="node2" class="node">
<title>__guard__</title>
<path fill="#dcfce7" stroke="#16a34a" stroke-width="2" d="M229,-152C229,-152 87,-152 87,-152 81,-152 75,-146 75,-140 75,-140 75,-128 75,-128 75,-122 81,-116 87,-116 87,-116 229,-116 229,-116 235,-116 241,-122 241,-128 241,-128 241,-140 241,-140 241,-146 235,-152 229,-152"/>
<text text-anchor="middle" x="158" y="-131.2" font-family="Helvetica,sans-Serif" font-size="11.00">server.DeviceIdleController</text>
</g>
<!-- __guard__&#45;&gt;__field__ -->
<g id="edge1" class="edge">
<title>__guard__&#45;&gt;__field__</title>
<path fill="none" stroke="#16a34a" stroke-width="1.6" d="M241.08,-122.61C297.4,-114.8 373.51,-104.24 439.04,-95.14"/>
<polygon fill="#16a34a" stroke="#16a34a" stroke-width="1.6" points="439.44,-97.91 446.98,-94.04 438.67,-92.37 439.44,-97.91"/>
<text text-anchor="middle" x="380" y="-110.8" font-family="Helvetica,sans-Serif" font-size="9.00" fill="#15803d"> guards 3/4</text>
</g>
<!-- m::com.android.server.DeviceIdleController.resetLightIdleManagementLocked:()V -->
<g id="node3" class="node">
<title>m::com.android.server.DeviceIdleController.resetLightIdleManagementLocked:()V</title>
<path fill="#fee2e2" stroke="#dc2626" d="M304,-94C304,-94 12,-94 12,-94 6,-94 0,-88 0,-82 0,-82 0,-70 0,-70 0,-64 6,-58 12,-58 12,-58 304,-58 304,-58 310,-58 316,-64 316,-70 316,-70 316,-82 316,-82 316,-88 310,-94 304,-94"/>
<text text-anchor="middle" x="158" y="-73.2" font-family="Helvetica,sans-Serif" font-size="11.00">DeviceIdleController.resetLightIdleManagementLocked</text>
</g>
<!-- m::com.android.server.DeviceIdleController.resetLightIdleManagementLocked:()V&#45;&gt;__field__ -->
<g id="edge2" class="edge">
<title>m::com.android.server.DeviceIdleController.resetLightIdleManagementLocked:()V&#45;&gt;__field__</title>
<path fill="none" stroke="#dc2626" d="M316.13,-76C355.37,-76 397.21,-76 435.63,-76"/>
<polygon fill="#dc2626" stroke="#dc2626" points="435.77,-78.8 443.77,-76 435.77,-73.2 435.77,-78.8"/>
<text text-anchor="middle" x="380" y="-78.8" font-family="Helvetica,sans-Serif" font-size="9.00" fill="#dc2626"> writes unguarded</text>
</g>
<!-- m::com.android.server.DeviceIdleController.dump:(Ljava/io/FileDescriptor;Ljava/io/PrintWriter;[Ljava/lang/String;)V -->
<g id="node4" class="node">
<title>m::com.android.server.DeviceIdleController.dump:(Ljava/io/FileDescriptor;Ljava/io/PrintWriter;[Ljava/lang/String;)V</title>
<path fill="#fee2e2" stroke="#dc2626" d="M226.5,-36C226.5,-36 89.5,-36 89.5,-36 83.5,-36 77.5,-30 77.5,-24 77.5,-24 77.5,-12 77.5,-12 77.5,-6 83.5,0 89.5,0 89.5,0 226.5,0 226.5,0 232.5,0 238.5,-6 238.5,-12 238.5,-12 238.5,-24 238.5,-24 238.5,-30 232.5,-36 226.5,-36"/>
<text text-anchor="middle" x="158" y="-15.2" font-family="Helvetica,sans-Serif" font-size="11.00">DeviceIdleController.dump</text>
</g>
<!-- m::com.android.server.DeviceIdleController.dump:(Ljava/io/FileDescriptor;Ljava/io/PrintWriter;[Ljava/lang/String;)V&#45;&gt;__field__ -->
<g id="edge3" class="edge">
<title>m::com.android.server.DeviceIdleController.dump:(Ljava/io/FileDescriptor;Ljava/io/PrintWriter;[Ljava/lang/String;)V&#45;&gt;__field__</title>
<path fill="none" stroke="#dc2626" d="M238.61,-29.05C295.17,-36.89 372.58,-47.64 439.09,-56.86"/>
<polygon fill="#dc2626" stroke="#dc2626" points="438.83,-59.66 447.14,-57.98 439.6,-54.11 438.83,-59.66"/>
<text text-anchor="middle" x="380" y="-55.8" font-family="Helvetica,sans-Serif" font-size="9.00" fill="#dc2626"> reads unguarded</text>
</g>
</g>
</svg>
