<?xml version="1.0" encoding="UTF-8" standalone="no"?>
<!DOCTYPE svg PUBLIC "-//W3C//DTD SVG 1.1//EN"
 "http://www.w3.org/Graphics/SVG/1.1/DTD/svg11.dtd">
<!-- Generated by graphviz version 2.43.0 (0)
 -->
<!-- Title: race Pages: 1 -->
<svg width="621pt" height="168pt"
 viewBox="0.00 0.00 621.00 168.00" xmlns="http://www.w3.org/2000/svg" xmlns:xlink="http://www.w3.org/1999/xlink">
<g id="graph0" class="graph" transform="scale(1 1) rotate(0) translate(4 164)">
<title>race</title>
<polygon fill="white" stroke="transparent" points="-4,4 -4,-164 617,-164 617,4 -4,4"/>
<!-- __field__ -->
<g id="node1" class="node">
<title>__field__</title>
<path fill="#fef9c3" stroke="#ca8a04" stroke-width="2" d="M601,-83C601,-83 382,-83 382,-83 376,-83 370,-77 370,-71 370,-71 370,-59 370,-59 370,-53 376,-47 382,-47 382,-47 601,-47 601,-47 607,-47 613,-53 613,-59 613,-59 613,-71 613,-71 613,-77 607,-83 601,-83"/>
<text text-anchor="middle" x="491.5" y="-62.2" font-family="Helvetica,sans-Serif" font-size="11.00">DeviceIdleController.mActiveIdleOpCount</text>
</g>
<!-- __guard__ -->
<g id="node2" class="node">
<title>__guard__</title>
<path fill="#dcfce7" stroke="#16a34a" stroke-width="2" d="M192,-160C192,-160 50,-160 50,-160 44,-160 38,-154 38,-148 38,-148 38,-136 38,-136 38,-130 44,-124 50,-124 50,-124 192,-124 192,-124 198,-124 204,-130 204,-136 204,-136 204,-148 204,-148 204,-154 198,-160 192,-160"/>
<text text-anchor="middle" x="121" y="-139.2" font-family="Helvetica,sans-Serif" font-size="11.00">server.DeviceIdleController</text>
</g>
<!-- __guard__&#45;&gt;__field__ -->
<g id="edge1" class="edge">
<title>__guard__&#45;&gt;__field__</title>
<path fill="none" stroke="#16a34a" stroke-width="1.6" d="M204.24,-124.82C261.18,-112.92 337.11,-97.05 396.46,-84.65"/>
<polygon fill="#16a34a" stroke="#16a34a" stroke-width="1.6" points="397.09,-87.38 404.35,-83 395.94,-81.9 397.09,-87.38"/>
<text text-anchor="middle" x="306" y="-112.8" font-family="Helvetica,sans-Serif" font-size="9.00" fill="#15803d"> guards 4/5</text>
</g>
<!-- m::com.android.server.DeviceIdleController.stepIdleStateLocked:(Ljava/lang/String;)V -->
<g id="node3" class="node">
<title>m::com.android.server.DeviceIdleController.stepIdleStateLocked:(Ljava/lang/String;)V</title>
<path fill="#fee2e2" stroke="#dc2626" d="M230,-102C230,-102 12,-102 12,-102 6,-102 0,-96 0,-90 0,-90 0,-78 0,-78 0,-72 6,-66 12,-66 12,-66 230,-66 230,-66 236,-66 242,-72 242,-78 242,-78 242,-90 242,-90 242,-96 236,-102 230,-102"/>
<text text-anchor="middle" x="121" y="-81.2" font-family="Helvetica,sans-Serif" font-size="11.00">DeviceIdleController.stepIdleStateLocked</text>
</g>
<!-- m::com.android.server.DeviceIdleController.stepIdleStateLocked:(Ljava/lang/String;)V&#45;&gt;__field__ -->
<g id="edge2" class="edge">
<title>m::com.android.server.DeviceIdleController.stepIdleStateLocked:(Ljava/lang/String;)V&#45;&gt;__field__</title>
<path fill="none" stroke="#dc2626" d="M242.15,-77.8C280.39,-75.83 322.83,-73.65 361.66,-71.64"/>
<polygon fill="#dc2626" stroke="#dc2626" points="362.04,-74.43 369.88,-71.22 361.75,-68.83 362.04,-74.43"/>
<text text-anchor="middle" x="306" y="-78.8" font-family="Helvetica,sans-Serif" font-size="9.00" fill="#dc2626"> writes unguarded</text>
</g>
<!-- m::com.android.server.DeviceIdleController.dump:(Ljava/io/FileDescriptor;Ljava/io/PrintWriter;[Ljava/lang/String;)V -->
<g id="node4" class="node">
<title>m::com.android.server.DeviceIdleController.dump:(Ljava/io/FileDescriptor;Ljava/io/PrintWriter;[Ljava/lang/String;)V</title>
<path fill="#fee2e2" stroke="#dc2626" d="M189.5,-36C189.5,-36 52.5,-36 52.5,-36 46.5,-36 40.5,-30 40.5,-24 40.5,-24 40.5,-12 40.5,-12 40.5,-6 46.5,0 52.5,0 52.5,0 189.5,0 189.5,0 195.5,0 201.5,-6 201.5,-12 201.5,-12 201.5,-24 201.5,-24 201.5,-30 195.5,-36 189.5,-36"/>
<text text-anchor="middle" x="121" y="-15.2" font-family="Helvetica,sans-Serif" font-size="11.00">DeviceIdleController.dump</text>
</g>
<!-- m::com.android.server.DeviceIdleController.dump:(Ljava/io/FileDescriptor;Ljava/io/PrintWriter;[Ljava/lang/String;)V&#45;&gt;__field__ -->
<g id="edge3" class="edge">
<title>m::com.android.server.DeviceIdleController.dump:(Ljava/io/FileDescriptor;Ljava/io/PrintWriter;[Ljava/lang/String;)V&#45;&gt;__field__</title>
<path fill="none" stroke="#dc2626" d="M201.51,-28.14C248.2,-34.1 308.32,-41.76 361.63,-48.56"/>
<polygon fill="#dc2626" stroke="#dc2626" points="361.49,-51.37 369.78,-49.6 362.2,-45.81 361.49,-51.37"/>
<text text-anchor="middle" x="306" y="-47.8" font-family="Helvetica,sans-Serif" font-size="9.00" fill="#dc2626"> reads unguarded</text>
</g>
<!-- m::com.android.server.DeviceIdleController.dump:(Ljava/io/FileDescriptor;Ljava/io/PrintWriter;[Ljava/lang/String;)V&#45;&gt;__field__ -->
<g id="edge4" class="edge">
<title>m::com.android.server.DeviceIdleController.dump:(Ljava/io/FileDescriptor;Ljava/io/PrintWriter;[Ljava/lang/String;)V&#45;&gt;__field__</title>
<path fill="none" stroke="#dc2626" d="M201.69,-14.09C245.18,-13.29 299.83,-14.45 348,-22 377.15,-26.57 408.65,-35.61 434.6,-44.24"/>
<polygon fill="#dc2626" stroke="#dc2626" points="433.99,-46.99 442.47,-46.89 435.78,-41.68 433.99,-46.99"/>
<text text-anchor="middle" x="306" y="-24.8" font-family="Helvetica,sans-Serif" font-size="9.00" fill="#dc2626"> reads unguarded</text>
</g>
</g>
</svg>
