<?xml version="1.0" encoding="UTF-8" standalone="no"?>
<!DOCTYPE svg PUBLIC "-//W3C//DTD SVG 1.1//EN"
 "http://www.w3.org/Graphics/SVG/1.1/DTD/svg11.dtd">
<!-- Generated by graphviz version 2.43.0 (0)
 -->
<!-- Title: race Pages: 1 -->
<svg width="525pt" height="168pt"
 viewBox="0.00 0.00 525.00 168.00" xmlns="http://www.w3.org/2000/svg" xmlns:xlink="http://www.w3.org/1999/xlink">
<g id="graph0" class="graph" transform="scale(1 1) rotate(0) translate(4 164)">
<title>race</title>
<polygon fill="white" stroke="transparent" points="-4,4 -4,-164 521,-164 521,4 -4,4"/>
<!-- __field__ -->
<g id="node1" class="node">
<title>__field__</title>
<path fill="#fef9c3" stroke="#ca8a04" stroke-width="2" d="M505,-83C505,-83 385,-83 385,-83 379,-83 373,-77 373,-71 373,-71 373,-59 373,-59 373,-53 379,-47 385,-47 385,-47 505,-47 505,-47 511,-47 517,-53 517,-59 517,-59 517,-71 517,-71 517,-77 511,-83 505,-83"/>
<text text-anchor="middle" x="445" y="-62.2" font-family="Helvetica,sans-Serif" font-size="11.00">ActivityStarter.mInTask</text>
</g>
<!-- __guard__ -->
<g id="node2" class="node">
<title>__guard__</title>
<path fill="#dcfce7" stroke="#16a34a" stroke-width="2" d="M233,-160C233,-160 12,-160 12,-160 6,-160 0,-154 0,-148 0,-148 0,-136 0,-136 0,-130 6,-124 12,-124 12,-124 233,-124 233,-124 239,-124 245,-130 245,-136 245,-136 245,-148 245,-148 245,-154 239,-160 233,-160"/>
<text text-anchor="middle" x="122.5" y="-139.2" font-family="Helvetica,sans-Serif" font-size="11.00">ActivityTaskManagerService.mGlobalLock</text>
</g>
<!-- __guard__&#45;&gt;__field__ -->
<g id="edge1" class="edge">
<title>__guard__&#45;&gt;__field__</title>
<path fill="none" stroke="#16a34a" stroke-width="1.6" d="M205.81,-123.98C249.12,-114.29 303.03,-101.92 351,-90 357.16,-88.47 363.54,-86.84 369.94,-85.18"/>
<polygon fill="#16a34a" stroke="#16a34a" stroke-width="1.6" points="371,-87.8 378.03,-83.06 369.59,-82.38 371,-87.8"/>
<text text-anchor="middle" x="309" y="-111.8" font-family="Helvetica,sans-Serif" font-size="9.00" fill="#15803d"> guards 4/6</text>
</g>
<!-- m::com.android.server.wm.ActivityStarter.reset:(Z)V -->
<g id="node3" class="node">
<title>m::com.android.server.wm.ActivityStarter.reset:(Z)V</title>
<path fill="#fee2e2" stroke="#dc2626" d="M174.5,-102C174.5,-102 70.5,-102 70.5,-102 64.5,-102 58.5,-96 58.5,-90 58.5,-90 58.5,-78 58.5,-78 58.5,-72 64.5,-66 70.5,-66 70.5,-66 174.5,-66 174.5,-66 180.5,-66 186.5,-72 186.5,-78 186.5,-78 186.5,-90 186.5,-90 186.5,-96 180.5,-102 174.5,-102"/>
<text text-anchor="middle" x="122.5" y="-81.2" font-family="Helvetica,sans-Serif" font-size="11.00">ActivityStarter.reset</text>
</g>
<!-- m::com.android.server.wm.ActivityStarter.reset:(Z)V&#45;&gt;__field__ -->
<g id="edge2" class="edge">
<title>m::com.android.server.wm.ActivityStarter.reset:(Z)V&#45;&gt;__field__</title>
<path fill="none" stroke="#dc2626" d="M186.82,-80.25C237.75,-77.23 309.6,-72.97 364.41,-69.72"/>
<polygon fill="#dc2626" stroke="#dc2626" points="364.9,-72.49 372.72,-69.23 364.57,-66.9 364.9,-72.49"/>
<text text-anchor="middle" x="309" y="-77.8" font-family="Helvetica,sans-Serif" font-size="9.00" fill="#dc2626"> writes unguarded</text>
</g>
<!-- m::com.android.server.wm.ActivityStarter.set:(Lcom/android/server/wm/ActivityStarter;)V -->
<g id="node4" class="node">
<title>m::com.android.server.wm.ActivityStarter.set:(Lcom/android/server/wm/ActivityStarter;)V</title>
<path fill="#fee2e2" stroke="#dc2626" d="M169,-36C169,-36 76,-36 76,-36 70,-36 64,-30 64,-24 64,-24 64,-12 64,-12 64,-6 70,0 76,0 76,0 169,0 169,0 175,0 181,-6 181,-12 181,-12 181,-24 181,-24 181,-30 175,-36 169,-36"/>
<text text-anchor="middle" x="122.5" y="-15.2" font-family="Helvetica,sans-Serif" font-size="11.00">ActivityStarter.set</text>
</g>
<!-- m::com.android.server.wm.ActivityStarter.set:(Lcom/android/server/wm/ActivityStarter;)V&#45;&gt;__field__ -->
<g id="edge3" class="edge">
<title>m::com.android.server.wm.ActivityStarter.set:(Lcom/android/server/wm/ActivityStarter;)V&#45;&gt;__field__</title>
<path fill="none" stroke="#dc2626" d="M181.17,-26.46C232.36,-33.96 307.64,-45 364.53,-53.35"/>
<polygon fill="#dc2626" stroke="#dc2626" points="364.46,-56.17 372.78,-54.56 365.27,-50.62 364.46,-56.17"/>
<text text-anchor="middle" x="309" y="-53.8" font-family="Helvetica,sans-Serif" font-size="9.00" fill="#dc2626"> writes unguarded</text>
</g>
<!-- m::com.android.server.wm.ActivityStarter.set:(Lcom/android/server/wm/ActivityStarter;)V&#45;&gt;__field__ -->
<g id="edge4" class="edge">
<title>m::com.android.server.wm.ActivityStarter.set:(Lcom/android/server/wm/ActivityStarter;)V&#45;&gt;__field__</title>
<path fill="none" stroke="#dc2626" d="M181.27,-13.88C227.7,-11.97 294.29,-12.41 351,-25 368.69,-28.93 387.22,-36.18 403.05,-43.45"/>
<polygon fill="#dc2626" stroke="#dc2626" points="402.15,-46.12 410.58,-47 404.54,-41.05 402.15,-46.12"/>
<text text-anchor="middle" x="309" y="-27.8" font-family="Helvetica,sans-Serif" font-size="9.00" fill="#dc2626"> reads unguarded</text>
</g>
</g>
</svg>
