<?xml version="1.0" encoding="UTF-8" standalone="no"?>
<!DOCTYPE svg PUBLIC "-//W3C//DTD SVG 1.1//EN"
 "http://www.w3.org/Graphics/SVG/1.1/DTD/svg11.dtd">
<!-- Generated by graphviz version 2.43.0 (0)
 -->
<!-- Title: race Pages: 1 -->
<svg width="563pt" height="414pt"
 viewBox="0.00 0.00 563.00 414.00" xmlns="http://www.w3.org/2000/svg" xmlns:xlink="http://www.w3.org/1999/xlink">
<g id="graph0" class="graph" transform="scale(1 1) rotate(0) translate(4 410)">
<title>race</title>
<polygon fill="white" stroke="transparent" points="-4,4 -4,-410 559,-410 559,4 -4,4"/>
<!-- __field__ -->
<g id="node1" class="node">
<title>__field__</title>
<path fill="#fef9c3" stroke="#ca8a04" stroke-width="2" d="M543,-221C543,-221 411,-221 411,-221 405,-221 399,-215 399,-209 399,-209 399,-197 399,-197 399,-191 405,-185 411,-185 411,-185 543,-185 543,-185 549,-185 555,-191 555,-197 555,-197 555,-209 555,-209 555,-215 549,-221 543,-221"/>
<text text-anchor="middle" x="477" y="-200.2" font-family="Helvetica,sans-Serif" font-size="11.00">JobServiceContext.mVerb</text>
</g>
<!-- __guard__ -->
<g id="node2" class="node">
<title>__guard__</title>
<path fill="#dcfce7" stroke="#16a34a" stroke-width="2" d="M207,-406C207,-406 64,-406 64,-406 58,-406 52,-400 52,-394 52,-394 52,-382 52,-382 52,-376 58,-370 64,-370 64,-370 207,-370 207,-370 213,-370 219,-376 219,-382 219,-382 219,-394 219,-394 219,-400 213,-406 207,-406"/>
<text text-anchor="middle" x="135.5" y="-385.2" font-family="Helvetica,sans-Serif" font-size="11.00">JobSchedulerService.mLock</text>
</g>
<!-- __guard__&#45;&gt;__field__ -->
<g id="edge1" class="edge">
<title>__guard__&#45;&gt;__field__</title>
<path fill="none" stroke="#16a34a" stroke-width="1.6" d="M219.19,-395.03C268.52,-395.29 330.4,-388.39 377,-359 425.43,-328.46 454.45,-264.66 467.59,-228.84"/>
<polygon fill="#16a34a" stroke="#16a34a" stroke-width="1.6" points="470.26,-229.69 470.3,-221.22 464.98,-227.82 470.26,-229.69"/>
<text text-anchor="middle" x="335" y="-390.8" font-family="Helvetica,sans-Serif" font-size="9.00" fill="#15803d"> guards 4/6</text>
</g>
<!-- m::com.android.server.job.JobServiceContext.closeAndCleanupJobLocked:(ZLjava/lang/String;)V -->
<g id="node3" class="node">
<title>m::com.android.server.job.JobServiceContext.closeAndCleanupJobLocked:(ZLjava/lang/String;)V</title>
<path fill="#fee2e2" stroke="#dc2626" d="M258,-340C258,-340 13,-340 13,-340 7,-340 1,-334 1,-328 1,-328 1,-316 1,-316 1,-310 7,-304 13,-304 13,-304 258,-304 258,-304 264,-304 270,-310 270,-316 270,-316 270,-328 270,-328 270,-334 264,-340 258,-340"/>
<text text-anchor="middle" x="135.5" y="-319.2" font-family="Helvetica,sans-Serif" font-size="11.00">JobServiceContext.closeAndCleanupJobLocked</text>
</g>
<!-- m::com.android.server.job.JobServiceContext.closeAndCleanupJobLocked:(ZLjava/lang/String;)V&#45;&gt;__field__ -->
<g id="edge2" class="edge">
<title>m::com.android.server.job.JobServiceContext.closeAndCleanupJobLocked:(ZLjava/lang/String;)V&#45;&gt;__field__</title>
<path fill="none" stroke="#dc2626" d="M215.54,-340.03C264.38,-347.15 327.05,-348.79 377,-325 418.59,-305.19 448.4,-258.41 463.86,-228.87"/>
<polygon fill="#dc2626" stroke="#dc2626" points="466.53,-229.8 467.66,-221.4 461.54,-227.26 466.53,-229.8"/>
<text text-anchor="middle" x="335" y="-346.8" font-family="Helvetica,sans-Serif" font-size="9.00" fill="#dc2626"> writes unguarded</text>
</g>
<!-- m::com.android.server.job.JobServiceContext.closeAndCleanupJobLocked:(ZLjava/lang/String;)V&#45;&gt;__field__ -->
<g id="edge4" class="edge">
<title>m::com.android.server.job.JobServiceContext.closeAndCleanupJobLocked:(ZLjava/lang/String;)V&#45;&gt;__field__</title>
<path fill="none" stroke="#dc2626" d="M270.18,-308.12C305.87,-301.46 343.74,-291.59 377,-277 404.89,-264.76 432.29,-243.34 451.17,-226.69"/>
<polygon fill="#dc2626" stroke="#dc2626" points="453.15,-228.67 457.23,-221.24 449.41,-224.5 453.15,-228.67"/>
<text text-anchor="middle" x="335" y="-305.8" font-family="Helvetica,sans-Serif" font-size="9.00" fill="#dc2626"> reads unguarded</text>
</g>
<!-- m::com.android.server.job.JobServiceContext.sendStopMessageLocked:(Ljava/lang/String;)V -->
<g id="node4" class="node">
<title>m::com.android.server.job.JobServiceContext.sendStopMessageLocked:(Ljava/lang/String;)V</title>
<path fill="#fee2e2" stroke="#dc2626" d="M253,-277C253,-277 18,-277 18,-277 12,-277 6,-271 6,-265 6,-265 6,-253 6,-253 6,-247 12,-241 18,-241 18,-241 253,-241 253,-241 259,-241 265,-247 265,-253 265,-253 265,-265 265,-265 265,-271 259,-277 253,-277"/>
<text text-anchor="middle" x="135.5" y="-256.2" font-family="Helvetica,sans-Serif" font-size="11.00">JobServiceContext.sendStopMessageLocked</text>
</g>
<!-- m::com.android.server.job.JobServiceContext.sendStopMessageLocked:(Ljava/lang/String;)V&#45;&gt;__field__ -->
<g id="edge3" class="edge">
<title>m::com.android.server.job.JobServiceContext.sendStopMessageLocked:(Ljava/lang/String;)V&#45;&gt;__field__</title>
<path fill="none" stroke="#dc2626" d="M265.17,-264.58C301.74,-263.53 341.31,-259.82 377,-251 398.74,-245.63 421.33,-235.1 439.44,-225.28"/>
<polygon fill="#dc2626" stroke="#dc2626" points="441.28,-227.46 446.91,-221.13 438.55,-222.57 441.28,-227.46"/>
<text text-anchor="middle" x="335" y="-264.8" font-family="Helvetica,sans-Serif" font-size="9.00" fill="#dc2626"> writes unguarded</text>
</g>
<!-- m::com.android.server.job.JobServiceContext.sendStopMessageLocked:(Ljava/lang/String;)V&#45;&gt;__field__ -->
<g id="edge11" class="edge">
<title>m::com.android.server.job.JobServiceContext.sendStopMessageLocked:(Ljava/lang/String;)V&#45;&gt;__field__</title>
<path fill="none" stroke="#dc2626" d="M245.79,-240.97C292.78,-233.22 346.88,-224.3 390.82,-217.05"/>
<polygon fill="#dc2626" stroke="#dc2626" points="391.47,-219.78 398.9,-215.72 390.56,-214.26 391.47,-219.78"/>
<text text-anchor="middle" x="335" y="-234.8" font-family="Helvetica,sans-Serif" font-size="9.00" fill="#dc2626"> reads unguarded</text>
</g>
<!-- m::com.android.server.job.JobServiceContext.doCancelLocked:(IILjava/lang/String;)V -->
<g id="node5" class="node">
<title>m::com.android.server.job.JobServiceContext.doCancelLocked:(IILjava/lang/String;)V</title>
<path fill="#fee2e2" stroke="#dc2626" d="M228,-203C228,-203 43,-203 43,-203 37,-203 31,-197 31,-191 31,-191 31,-179 31,-179 31,-173 37,-167 43,-167 43,-167 228,-167 228,-167 234,-167 240,-173 240,-179 240,-179 240,-191 240,-191 240,-197 234,-203 228,-203"/>
<text text-anchor="middle" x="135.5" y="-182.2" font-family="Helvetica,sans-Serif" font-size="11.00">JobServiceContext.doCancelLocked</text>
</g>
<!-- m::com.android.server.job.JobServiceContext.doCancelLocked:(IILjava/lang/String;)V&#45;&gt;__field__ -->
<g id="edge5" class="edge">
<title>m::com.android.server.job.JobServiceContext.doCancelLocked:(IILjava/lang/String;)V&#45;&gt;__field__</title>
<path fill="none" stroke="#dc2626" d="M240.21,-190.5C288.4,-193.05 345.01,-196.06 390.69,-198.48"/>
<polygon fill="#dc2626" stroke="#dc2626" points="390.65,-201.28 398.79,-198.91 390.95,-195.69 390.65,-201.28"/>
<text text-anchor="middle" x="335" y="-199.8" font-family="Helvetica,sans-Serif" font-size="9.00" fill="#dc2626"> reads unguarded</text>
</g>
<!-- m::com.android.server.job.JobServiceContext.doCancelLocked:(IILjava/lang/String;)V&#45;&gt;__field__ -->
<g id="edge6" class="edge">
<title>m::com.android.server.job.JobServiceContext.doCancelLocked:(IILjava/lang/String;)V&#45;&gt;__field__</title>
<path fill="none" stroke="#dc2626" d="M240.11,-175.09C282.66,-172.81 332.34,-172.45 377,-178 386.65,-179.2 396.7,-181.03 406.55,-183.17"/>
<polygon fill="#dc2626" stroke="#dc2626" points="405.97,-185.91 414.39,-184.95 407.21,-180.45 405.97,-185.91"/>
<text text-anchor="middle" x="335" y="-180.8" font-family="Helvetica,sans-Serif" font-size="9.00" fill="#dc2626"> reads unguarded</text>
</g>
<!-- m::com.android.server.job.JobServiceContext.handleCancelLocked:(Ljava/lang/String;)V -->
<g id="node6" class="node">
<title>m::com.android.server.job.JobServiceContext.handleCancelLocked:(Ljava/lang/String;)V</title>
<path fill="#fee2e2" stroke="#dc2626" d="M240,-110C240,-110 31,-110 31,-110 25,-110 19,-104 19,-98 19,-98 19,-86 19,-86 19,-80 25,-74 31,-74 31,-74 240,-74 240,-74 246,-74 252,-80 252,-86 252,-86 252,-98 252,-98 252,-104 246,-110 240,-110"/>
<text text-anchor="middle" x="135.5" y="-89.2" font-family="Helvetica,sans-Serif" font-size="11.00">JobServiceContext.handleCancelLocked</text>
</g>
<!-- m::com.android.server.job.JobServiceContext.handleCancelLocked:(Ljava/lang/String;)V&#45;&gt;__field__ -->
<g id="edge7" class="edge">
<title>m::com.android.server.job.JobServiceContext.handleCancelLocked:(Ljava/lang/String;)V&#45;&gt;__field__</title>
<path fill="none" stroke="#dc2626" d="M214.38,-110.03C261.94,-121.87 323.67,-138.7 377,-158 395.47,-164.69 415.29,-173.37 432.3,-181.33"/>
<polygon fill="#dc2626" stroke="#dc2626" points="431.47,-184.03 439.9,-184.92 433.87,-178.97 431.47,-184.03"/>
<text text-anchor="middle" x="335" y="-160.8" font-family="Helvetica,sans-Serif" font-size="9.00" fill="#dc2626"> reads unguarded</text>
</g>
<!-- m::com.android.server.job.JobServiceContext.handleCancelLocked:(Ljava/lang/String;)V&#45;&gt;__field__ -->
<g id="edge8" class="edge">
<title>m::com.android.server.job.JobServiceContext.handleCancelLocked:(Ljava/lang/String;)V&#45;&gt;__field__</title>
<path fill="none" stroke="#dc2626" d="M252.07,-89.88C292.92,-92.75 338.3,-100.21 377,-117 408.8,-130.8 437.79,-158.6 456.07,-178.87"/>
<polygon fill="#dc2626" stroke="#dc2626" points="453.99,-180.75 461.39,-184.9 458.19,-177.05 453.99,-180.75"/>
<text text-anchor="middle" x="335" y="-119.8" font-family="Helvetica,sans-Serif" font-size="9.00" fill="#dc2626"> reads unguarded</text>
</g>
<!-- m::com.android.server.job.JobServiceContext.handleCancelLocked:(Ljava/lang/String;)V&#45;&gt;__field__ -->
<g id="edge9" class="edge">
<title>m::com.android.server.job.JobServiceContext.handleCancelLocked:(Ljava/lang/String;)V&#45;&gt;__field__</title>
<path fill="none" stroke="#dc2626" d="M193.97,-73.91C244.71,-61.32 319.35,-51.26 377,-79 419.33,-99.37 449.2,-147.63 464.42,-177.58"/>
<polygon fill="#dc2626" stroke="#dc2626" points="461.92,-178.84 467.98,-184.78 466.94,-176.36 461.92,-178.84"/>
<text text-anchor="middle" x="335" y="-81.8" font-family="Helvetica,sans-Serif" font-size="9.00" fill="#dc2626"> reads unguarded</text>
</g>
<!-- m::com.android.server.job.JobServiceContext.scheduleOpTimeOutLocked:()V -->
<g id="node7" class="node">
<title>m::com.android.server.job.JobServiceContext.scheduleOpTimeOutLocked:()V</title>
<path fill="#fee2e2" stroke="#dc2626" d="M259,-36C259,-36 12,-36 12,-36 6,-36 0,-30 0,-24 0,-24 0,-12 0,-12 0,-6 6,0 12,0 12,0 259,0 259,0 265,0 271,-6 271,-12 271,-12 271,-24 271,-24 271,-30 265,-36 259,-36"/>
<text text-anchor="middle" x="135.5" y="-15.2" font-family="Helvetica,sans-Serif" font-size="11.00">JobServiceContext.scheduleOpTimeOutLocked</text>
</g>
<!-- m::com.android.server.job.JobServiceContext.scheduleOpTimeOutLocked:()V&#45;&gt;__field__ -->
<g id="edge10" class="edge">
<title>m::com.android.server.job.JobServiceContext.scheduleOpTimeOutLocked:()V&#45;&gt;__field__</title>
<path fill="none" stroke="#dc2626" d="M271.15,-12.91C307.72,-16.87 345.79,-26.34 377,-46 425.8,-76.73 454.75,-141.22 467.76,-177.25"/>
<polygon fill="#dc2626" stroke="#dc2626" points="465.15,-178.29 470.44,-184.91 470.44,-176.44 465.15,-178.29"/>
<text text-anchor="middle" x="335" y="-48.8" font-family="Helvetica,sans-Serif" font-size="9.00" fill="#dc2626"> reads unguarded</text>
</g>
</g>
</svg>
