<?xml version="1.0" encoding="UTF-8" standalone="no"?>
<!DOCTYPE svg PUBLIC "-//W3C//DTD SVG 1.1//EN"
 "http://www.w3.org/Graphics/SVG/1.1/DTD/svg11.dtd">
<!-- Generated by graphviz version 2.43.0 (0)
 -->
<!-- Title: race Pages: 1 -->
<svg width="704pt" height="651pt"
 viewBox="0.00 0.00 704.00 651.00" xmlns="http://www.w3.org/2000/svg" xmlns:xlink="http://www.w3.org/1999/xlink">
<g id="graph0" class="graph" transform="scale(1 1) rotate(0) translate(4 647)">
<title>race</title>
<polygon fill="white" stroke="transparent" points="-4,4 -4,-647 700,-647 700,4 -4,4"/>
<!-- __field__ -->
<g id="node1" class="node">
<title>__field__</title>
<path fill="#fef9c3" stroke="#ca8a04" stroke-width="2" d="M684,-363C684,-363 550,-363 550,-363 544,-363 538,-357 538,-351 538,-351 538,-339 538,-339 538,-333 544,-327 550,-327 550,-327 684,-327 684,-327 690,-327 696,-333 696,-339 696,-339 696,-351 696,-351 696,-357 690,-363 684,-363"/>
<text text-anchor="middle" x="617" y="-342.2" font-family="Helvetica,sans-Serif" font-size="11.00">ActivityInfo.processName</text>
</g>
<!-- __guard__ -->
<g id="node2" class="node">
<title>__guard__</title>
<path fill="#dcfce7" stroke="#16a34a" stroke-width="2" d="M308,-643C308,-643 102,-643 102,-643 96,-643 90,-637 90,-631 90,-631 90,-619 90,-619 90,-613 96,-607 102,-607 102,-607 308,-607 308,-607 314,-607 320,-613 320,-619 320,-619 320,-631 320,-631 320,-637 314,-643 308,-643"/>
<text text-anchor="middle" x="205" y="-622.2" font-family="Helvetica,sans-Serif" font-size="11.00">PackageManagerServiceInjector.mLock</text>
</g>
<!-- __guard__&#45;&gt;__field__ -->
<g id="edge1" class="edge">
<title>__guard__&#45;&gt;__field__</title>
<path fill="none" stroke="#16a34a" stroke-width="1.6" d="M320.31,-637.99C383.86,-639.14 460.97,-629.8 516,-588 586.57,-534.4 607.62,-422.22 613.67,-371.23"/>
<polygon fill="#16a34a" stroke="#16a34a" stroke-width="1.6" points="616.48,-371.28 614.58,-363.02 610.92,-370.66 616.48,-371.28"/>
<text text-anchor="middle" x="474" y="-628.8" font-family="Helvetica,sans-Serif" font-size="9.00" fill="#15803d"> guards 2/3</text>
</g>
<!-- m::com.android.server.wm.Task.trimIneffectiveInfo:(Lcom/android/server/wm/Task;Landroid/app/TaskInfo;)V -->
<g id="node3" class="node">
<title>m::com.android.server.wm.Task.trimIneffectiveInfo:(Lcom/android/server/wm/Task;Landroid/app/TaskInfo;)V</title>
<path fill="#fee2e2" stroke="#dc2626" d="M265.5,-585C265.5,-585 144.5,-585 144.5,-585 138.5,-585 132.5,-579 132.5,-573 132.5,-573 132.5,-561 132.5,-561 132.5,-555 138.5,-549 144.5,-549 144.5,-549 265.5,-549 265.5,-549 271.5,-549 277.5,-555 277.5,-561 277.5,-561 277.5,-573 277.5,-573 277.5,-579 271.5,-585 265.5,-585"/>
<text text-anchor="middle" x="205" y="-564.2" font-family="Helvetica,sans-Serif" font-size="11.00">Task.trimIneffectiveInfo</text>
</g>
<!-- m::com.android.server.wm.Task.trimIneffectiveInfo:(Lcom/android/server/wm/Task;Landroid/app/TaskInfo;)V&#45;&gt;__field__ -->
<g id="edge2" class="edge">
<title>m::com.android.server.wm.Task.trimIneffectiveInfo:(Lcom/android/server/wm/Task;Landroid/app/TaskInfo;)V&#45;&gt;__field__</title>
<path fill="none" stroke="#dc2626" d="M277.64,-579.55C344.96,-587.34 445.61,-588.27 516,-541 575.44,-501.09 601.44,-414.56 611.11,-371.07"/>
<polygon fill="#dc2626" stroke="#dc2626" points="613.86,-371.63 612.78,-363.22 608.38,-370.46 613.86,-371.63"/>
<text text-anchor="middle" x="474" y="-575.8" font-family="Helvetica,sans-Serif" font-size="9.00" fill="#dc2626"> writes unguarded</text>
</g>
<!-- m::com.android.server.am.ActivityManagerService$LocalService.setDebugFlagsForStartingActivity:(Landroid/content/pm/ActivityInfo;ILandroid/app/ProfilerInfo;Ljava/lang/Object;)V -->
<g id="node4" class="node">
<title>m::com.android.server.am.ActivityManagerService$LocalService.setDebugFlagsForStartingActivity:(Landroid/content/pm/ActivityInfo;ILandroid/app/ProfilerInfo;Ljava/lang/Object;)V</title>
<path fill="#fee2e2" stroke="#dc2626" d="M398,-506C398,-506 12,-506 12,-506 6,-506 0,-500 0,-494 0,-494 0,-482 0,-482 0,-476 6,-470 12,-470 12,-470 398,-470 398,-470 404,-470 410,-476 410,-482 410,-482 410,-494 410,-494 410,-500 404,-506 398,-506"/>
<text text-anchor="middle" x="205" y="-485.2" font-family="Helvetica,sans-Serif" font-size="11.00">ActivityManagerService$LocalService.setDebugFlagsForStartingActivity</text>
</g>
<!-- m::com.android.server.am.ActivityManagerService$LocalService.setDebugFlagsForStartingActivity:(Landroid/content/pm/ActivityInfo;ILandroid/app/ProfilerInfo;Ljava/lang/Object;)V&#45;&gt;__field__ -->
<g id="edge3" class="edge">
<title>m::com.android.server.am.ActivityManagerService$LocalService.setDebugFlagsForStartingActivity:(Landroid/content/pm/ActivityInfo;ILandroid/app/ProfilerInfo;Ljava/lang/Object;)V&#45;&gt;__field__</title>
<path fill="none" stroke="#dc2626" d="M256.33,-506C320.86,-525.79 434.16,-549.21 516,-504 567.48,-475.56 596.06,-408.27 608.45,-370.99"/>
<polygon fill="#dc2626" stroke="#dc2626" points="611.21,-371.55 610.99,-363.08 605.88,-369.84 611.21,-371.55"/>
<text text-anchor="middle" x="474" y="-529.8" font-family="Helvetica,sans-Serif" font-size="9.00" fill="#dc2626"> reads unguarded</text>
</g>
<!-- m::com.android.server.am.ActivityManagerService$LocalService.setDebugFlagsForStartingActivity:(Landroid/content/pm/ActivityInfo;ILandroid/app/ProfilerInfo;Ljava/lang/Object;)V&#45;&gt;__field__ -->
<g id="edge4" class="edge">
<title>m::com.android.server.am.ActivityManagerService$LocalService.setDebugFlagsForStartingActivity:(Landroid/content/pm/ActivityInfo;ILandroid/app/ProfilerInfo;Ljava/lang/Object;)V&#45;&gt;__field__</title>
<path fill="none" stroke="#dc2626" d="M410.1,-486.38C455.32,-483.24 495.8,-477.41 516,-467 557.12,-445.81 587.51,-399.47 603.43,-370.4"/>
<polygon fill="#dc2626" stroke="#dc2626" points="606.06,-371.42 607.35,-363.04 601.11,-368.79 606.06,-371.42"/>
<text text-anchor="middle" x="474" y="-486.8" font-family="Helvetica,sans-Serif" font-size="9.00" fill="#dc2626"> reads unguarded</text>
</g>
<!-- m::com.android.server.am.ActivityManagerService$LocalService.setDebugFlagsForStartingActivity:(Landroid/content/pm/ActivityInfo;ILandroid/app/ProfilerInfo;Ljava/lang/Object;)V&#45;&gt;__field__ -->
<g id="edge5" class="edge">
<title>m::com.android.server.am.ActivityManagerService$LocalService.setDebugFlagsForStartingActivity:(Landroid/content/pm/ActivityInfo;ILandroid/app/ProfilerInfo;Ljava/lang/Object;)V&#45;&gt;__field__</title>
<path fill="none" stroke="#dc2626" d="M341.94,-469.96C410.39,-459.4 485.26,-445.19 516,-430 546.41,-414.97 575.27,-388.67 594.1,-369.29"/>
<polygon fill="#dc2626" stroke="#dc2626" points="596.35,-370.99 599.85,-363.27 592.3,-367.12 596.35,-370.99"/>
<text text-anchor="middle" x="474" y="-454.8" font-family="Helvetica,sans-Serif" font-size="9.00" fill="#dc2626"> reads unguarded</text>
</g>
<!-- m::com.android.server.am.ActivityManagerService$LocalService.setDebugFlagsForStartingActivity:(Landroid/content/pm/ActivityInfo;ILandroid/app/ProfilerInfo;Ljava/lang/Object;)V&#45;&gt;__field__ -->
<g id="edge6" class="edge">
<title>m::com.android.server.am.ActivityManagerService$LocalService.setDebugFlagsForStartingActivity:(Landroid/content/pm/ActivityInfo;ILandroid/app/ProfilerInfo;Ljava/lang/Object;)V&#45;&gt;__field__</title>
<path fill="none" stroke="#dc2626" d="M376.9,-469.97C388.55,-465.37 399.73,-459.78 410,-453 425.02,-443.09 417.65,-429.87 432,-419 463.15,-395.4 479.62,-407.27 516,-393 535.45,-385.37 556.38,-375.58 574.03,-366.84"/>
<polygon fill="#dc2626" stroke="#dc2626" points="575.48,-369.25 581.39,-363.17 572.98,-364.24 575.48,-369.25"/>
<text text-anchor="middle" x="474" y="-421.8" font-family="Helvetica,sans-Serif" font-size="9.00" fill="#dc2626"> reads unguarded</text>
</g>
<!-- m::com.android.server.am.BroadcastRecord.applySingletonPolicy:(Lcom/android/server/am/ActivityManagerService;)V -->
<g id="node5" class="node">
<title>m::com.android.server.am.BroadcastRecord.applySingletonPolicy:(Lcom/android/server/am/ActivityManagerService;)V</title>
<path fill="#fee2e2" stroke="#dc2626" d="M306.5,-442C306.5,-442 103.5,-442 103.5,-442 97.5,-442 91.5,-436 91.5,-430 91.5,-430 91.5,-418 91.5,-418 91.5,-412 97.5,-406 103.5,-406 103.5,-406 306.5,-406 306.5,-406 312.5,-406 318.5,-412 318.5,-418 318.5,-418 318.5,-430 318.5,-430 318.5,-436 312.5,-442 306.5,-442"/>
<text text-anchor="middle" x="205" y="-421.2" font-family="Helvetica,sans-Serif" font-size="11.00">BroadcastRecord.applySingletonPolicy</text>
</g>
<!-- m::com.android.server.am.BroadcastRecord.applySingletonPolicy:(Lcom/android/server/am/ActivityManagerService;)V&#45;&gt;__field__ -->
<g id="edge7" class="edge">
<title>m::com.android.server.am.BroadcastRecord.applySingletonPolicy:(Lcom/android/server/am/ActivityManagerService;)V&#45;&gt;__field__</title>
<path fill="none" stroke="#dc2626" d="M318.53,-416.02C348.8,-411.72 381.14,-405.13 410,-395 420.72,-391.24 421.4,-386.07 432,-382 462.99,-370.12 498.46,-361.83 529.92,-356.17"/>
<polygon fill="#dc2626" stroke="#dc2626" points="530.43,-358.92 537.83,-354.78 529.47,-353.4 530.43,-358.92"/>
<text text-anchor="middle" x="474" y="-384.8" font-family="Helvetica,sans-Serif" font-size="9.00" fill="#dc2626"> reads unguarded</text>
</g>
<!-- m::com.android.server.am.BroadcastRecord.getReceiverProcessName:(Ljava/lang/Object;)Ljava/lang/String; -->
<g id="node6" class="node">
<title>m::com.android.server.am.BroadcastRecord.getReceiverProcessName:(Ljava/lang/Object;)Ljava/lang/String;</title>
<path fill="#fee2e2" stroke="#dc2626" d="M320.5,-384C320.5,-384 89.5,-384 89.5,-384 83.5,-384 77.5,-378 77.5,-372 77.5,-372 77.5,-360 77.5,-360 77.5,-354 83.5,-348 89.5,-348 89.5,-348 320.5,-348 320.5,-348 326.5,-348 332.5,-354 332.5,-360 332.5,-360 332.5,-372 332.5,-372 332.5,-378 326.5,-384 320.5,-384"/>
<text text-anchor="middle" x="205" y="-363.2" font-family="Helvetica,sans-Serif" font-size="11.00">BroadcastRecord.getReceiverProcessName</text>
</g>
<!-- m::com.android.server.am.BroadcastRecord.getReceiverProcessName:(Ljava/lang/Object;)Ljava/lang/String;&#45;&gt;__field__ -->
<g id="edge8" class="edge">
<title>m::com.android.server.am.BroadcastRecord.getReceiverProcessName:(Ljava/lang/Object;)Ljava/lang/String;&#45;&gt;__field__</title>
<path fill="none" stroke="#dc2626" d="M332.56,-352.16C364.94,-349.19 399.72,-346.5 432,-345 463.78,-343.53 498.69,-343.2 529.47,-343.35"/>
<polygon fill="#dc2626" stroke="#dc2626" points="529.6,-346.15 537.62,-343.4 529.64,-340.55 529.6,-346.15"/>
<text text-anchor="middle" x="474" y="-347.8" font-family="Helvetica,sans-Serif" font-size="9.00" fill="#dc2626"> reads unguarded</text>
</g>
<!-- m::com.android.server.wm.ActivityMetricsLogger.notifyBindApplication:(Landroid/content/pm/ApplicationInfo;)V -->
<g id="node7" class="node">
<title>m::com.android.server.wm.ActivityMetricsLogger.notifyBindApplication:(Landroid/content/pm/ApplicationInfo;)V</title>
<path fill="#fee2e2" stroke="#dc2626" d="M321,-326C321,-326 89,-326 89,-326 83,-326 77,-320 77,-314 77,-314 77,-302 77,-302 77,-296 83,-290 89,-290 89,-290 321,-290 321,-290 327,-290 333,-296 333,-302 333,-302 333,-314 333,-314 333,-320 327,-326 321,-326"/>
<text text-anchor="middle" x="205" y="-305.2" font-family="Helvetica,sans-Serif" font-size="11.00">ActivityMetricsLogger.notifyBindApplication</text>
</g>
<!-- m::com.android.server.wm.ActivityMetricsLogger.notifyBindApplication:(Landroid/content/pm/ApplicationInfo;)V&#45;&gt;__field__ -->
<g id="edge9" class="edge">
<title>m::com.android.server.wm.ActivityMetricsLogger.notifyBindApplication:(Landroid/content/pm/ApplicationInfo;)V&#45;&gt;__field__</title>
<path fill="none" stroke="#dc2626" d="M333.34,-313.23C389.47,-316.3 456.14,-321 516,-328 520.43,-328.52 524.96,-329.1 529.53,-329.73"/>
<polygon fill="#dc2626" stroke="#dc2626" points="529.46,-332.55 537.78,-330.9 530.25,-327 529.46,-332.55"/>
<text text-anchor="middle" x="474" y="-330.8" font-family="Helvetica,sans-Serif" font-size="9.00" fill="#dc2626"> reads unguarded</text>
</g>
<!-- m::com.android.server.wm.ActivityStarter.resolveToHeavyWeightSwitcherIfNeeded:()I -->
<g id="node8" class="node">
<title>m::com.android.server.wm.ActivityStarter.resolveToHeavyWeightSwitcherIfNeeded:()I</title>
<path fill="#fee2e2" stroke="#dc2626" d="M353.5,-268C353.5,-268 56.5,-268 56.5,-268 50.5,-268 44.5,-262 44.5,-256 44.5,-256 44.5,-244 44.5,-244 44.5,-238 50.5,-232 56.5,-232 56.5,-232 353.5,-232 353.5,-232 359.5,-232 365.5,-238 365.5,-244 365.5,-244 365.5,-256 365.5,-256 365.5,-262 359.5,-268 353.5,-268"/>
<text text-anchor="middle" x="205" y="-247.2" font-family="Helvetica,sans-Serif" font-size="11.00">ActivityStarter.resolveToHeavyWeightSwitcherIfNeeded</text>
</g>
<!-- m::com.android.server.wm.ActivityStarter.resolveToHeavyWeightSwitcherIfNeeded:()I&#45;&gt;__field__ -->
<g id="edge10" class="edge">
<title>m::com.android.server.wm.ActivityStarter.resolveToHeavyWeightSwitcherIfNeeded:()I&#45;&gt;__field__</title>
<path fill="none" stroke="#dc2626" d="M354.64,-268.03C406.44,-276.49 464.47,-288.47 516,-305 532.83,-310.4 550.87,-317.27 566.92,-323.78"/>
<polygon fill="#dc2626" stroke="#dc2626" points="566.17,-326.5 574.63,-326.94 568.29,-321.32 566.17,-326.5"/>
<text text-anchor="middle" x="474" y="-307.8" font-family="Helvetica,sans-Serif" font-size="9.00" fill="#dc2626"> reads unguarded</text>
</g>
<!-- m::com.android.server.wm.ActivityStarter.resolveToHeavyWeightSwitcherIfNeeded:()I&#45;&gt;__field__ -->
<g id="edge11" class="edge">
<title>m::com.android.server.wm.ActivityStarter.resolveToHeavyWeightSwitcherIfNeeded:()I&#45;&gt;__field__</title>
<path fill="none" stroke="#dc2626" d="M365.5,-240.49C415.03,-242.31 468.94,-249.36 516,-267 546.38,-278.39 574.91,-302.5 593.67,-320.93"/>
<polygon fill="#dc2626" stroke="#dc2626" points="592.01,-323.23 599.64,-326.93 595.98,-319.28 592.01,-323.23"/>
<text text-anchor="middle" x="474" y="-269.8" font-family="Helvetica,sans-Serif" font-size="9.00" fill="#dc2626"> reads unguarded</text>
</g>
<!-- m::com.android.server.wm.ActivityTaskSupervisor.resolveActivity:(Landroid/content/Intent;Landroid/content/pm/ResolveInfo;ILandroid/app/ProfilerInfo;)Landroid/content/pm/ActivityInfo; -->
<g id="node9" class="node">
<title>m::com.android.server.wm.ActivityTaskSupervisor.resolveActivity:(Landroid/content/Intent;Landroid/content/pm/ResolveInfo;ILandroid/app/ProfilerInfo;)Landroid/content/pm/ActivityInfo;</title>
<path fill="#fee2e2" stroke="#dc2626" d="M306.5,-210C306.5,-210 103.5,-210 103.5,-210 97.5,-210 91.5,-204 91.5,-198 91.5,-198 91.5,-186 91.5,-186 91.5,-180 97.5,-174 103.5,-174 103.5,-174 306.5,-174 306.5,-174 312.5,-174 318.5,-180 318.5,-186 318.5,-186 318.5,-198 318.5,-198 318.5,-204 312.5,-210 306.5,-210"/>
<text text-anchor="middle" x="205" y="-189.2" font-family="Helvetica,sans-Serif" font-size="11.00">ActivityTaskSupervisor.resolveActivity</text>
</g>
<!-- m::com.android.server.wm.ActivityTaskSupervisor.resolveActivity:(Landroid/content/Intent;Landroid/content/pm/ResolveInfo;ILandroid/app/ProfilerInfo;)Landroid/content/pm/ActivityInfo;&#45;&gt;__field__ -->
<g id="edge12" class="edge">
<title>m::com.android.server.wm.ActivityTaskSupervisor.resolveActivity:(Landroid/content/Intent;Landroid/content/pm/ResolveInfo;ILandroid/app/ProfilerInfo;)Landroid/content/pm/ActivityInfo;&#45;&gt;__field__</title>
<path fill="none" stroke="#dc2626" d="M318.66,-187.19C380.19,-189.09 455.87,-199.09 516,-231 554.42,-251.39 584.91,-292.95 601.69,-319.86"/>
<polygon fill="#dc2626" stroke="#dc2626" points="599.31,-321.32 605.86,-326.7 604.09,-318.41 599.31,-321.32"/>
<text text-anchor="middle" x="474" y="-233.8" font-family="Helvetica,sans-Serif" font-size="9.00" fill="#dc2626"> reads unguarded</text>
</g>
<!-- m::com.android.server.wm.RootWindowContainer.canStartHomeOnDisplayArea:(Landroid/content/pm/ActivityInfo;Lcom/android/server/wm/TaskDisplayArea;Z)Z -->
<g id="node10" class="node">
<title>m::com.android.server.wm.RootWindowContainer.canStartHomeOnDisplayArea:(Landroid/content/pm/ActivityInfo;Lcom/android/server/wm/TaskDisplayArea;Z)Z</title>
<path fill="#fee2e2" stroke="#dc2626" d="M344,-152C344,-152 66,-152 66,-152 60,-152 54,-146 54,-140 54,-140 54,-128 54,-128 54,-122 60,-116 66,-116 66,-116 344,-116 344,-116 350,-116 356,-122 356,-128 356,-128 356,-140 356,-140 356,-146 350,-152 344,-152"/>
<text text-anchor="middle" x="205" y="-131.2" font-family="Helvetica,sans-Serif" font-size="11.00">RootWindowContainer.canStartHomeOnDisplayArea</text>
</g>
<!-- m::com.android.server.wm.RootWindowContainer.canStartHomeOnDisplayArea:(Landroid/content/pm/ActivityInfo;Lcom/android/server/wm/TaskDisplayArea;Z)Z&#45;&gt;__field__ -->
<g id="edge13" class="edge">
<title>m::com.android.server.wm.RootWindowContainer.canStartHomeOnDisplayArea:(Landroid/content/pm/ActivityInfo;Lcom/android/server/wm/TaskDisplayArea;Z)Z&#45;&gt;__field__</title>
<path fill="none" stroke="#dc2626" d="M356.12,-132.9C410.52,-138.94 469.87,-153.65 516,-186 563.66,-219.42 593.47,-283.54 607.16,-319.29"/>
<polygon fill="#dc2626" stroke="#dc2626" points="604.57,-320.38 609.99,-326.9 609.82,-318.42 604.57,-320.38"/>
<text text-anchor="middle" x="474" y="-188.8" font-family="Helvetica,sans-Serif" font-size="9.00" fill="#dc2626"> reads unguarded</text>
</g>
<!-- m::com.android.server.wm.TaskFragment.getTaskFragmentInfo:()Landroid/window/TaskFragmentInfo; -->
<g id="node11" class="node">
<title>m::com.android.server.wm.TaskFragment.getTaskFragmentInfo:()Landroid/window/TaskFragmentInfo;</title>
<path fill="#fee2e2" stroke="#dc2626" d="M298,-94C298,-94 112,-94 112,-94 106,-94 100,-88 100,-82 100,-82 100,-70 100,-70 100,-64 106,-58 112,-58 112,-58 298,-58 298,-58 304,-58 310,-64 310,-70 310,-70 310,-82 310,-82 310,-88 304,-94 298,-94"/>
<text text-anchor="middle" x="205" y="-73.2" font-family="Helvetica,sans-Serif" font-size="11.00">TaskFragment.getTaskFragmentInfo</text>
</g>
<!-- m::com.android.server.wm.TaskFragment.getTaskFragmentInfo:()Landroid/window/TaskFragmentInfo;&#45;&gt;__field__ -->
<g id="edge14" class="edge">
<title>m::com.android.server.wm.TaskFragment.getTaskFragmentInfo:()Landroid/window/TaskFragmentInfo;&#45;&gt;__field__</title>
<path fill="none" stroke="#dc2626" d="M310.33,-70.8C376.24,-72.98 459.35,-86.52 516,-134 574.52,-183.05 601.06,-274.15 611,-318.87"/>
<polygon fill="#dc2626" stroke="#dc2626" points="608.31,-319.67 612.72,-326.91 613.79,-318.5 608.31,-319.67"/>
<text text-anchor="middle" x="474" y="-136.8" font-family="Helvetica,sans-Serif" font-size="9.00" fill="#dc2626"> reads unguarded</text>
</g>
<!-- m::com.android.server.wm.WindowOrganizerController.createTaskFragment:(Landroid/window/TaskFragmentCreationParams;Landroid/os/IBinder;Lcom/android/server/wm/WindowOrganizerController$CallerInfo;Lcom/android/server/wm/Transition;)V -->
<g id="node12" class="node">
<title>m::com.android.server.wm.WindowOrganizerController.createTaskFragment:(Landroid/window/TaskFragmentCreationParams;Landroid/os/IBinder;Lcom/android/server/wm/WindowOrganizerController$CallerInfo;Lcom/android/server/wm/Transition;)V</title>
<path fill="#fee2e2" stroke="#dc2626" d="M333.5,-36C333.5,-36 76.5,-36 76.5,-36 70.5,-36 64.5,-30 64.5,-24 64.5,-24 64.5,-12 64.5,-12 64.5,-6 70.5,0 76.5,0 76.5,0 333.5,0 333.5,0 339.5,0 345.5,-6 345.5,-12 345.5,-12 345.5,-24 345.5,-24 345.5,-30 339.5,-36 333.5,-36"/>
<text text-anchor="middle" x="205" y="-15.2" font-family="Helvetica,sans-Serif" font-size="11.00">WindowOrganizerController.createTaskFragment</text>
</g>
<!-- m::com.android.server.wm.WindowOrganizerController.createTaskFragment:(Landroid/window/TaskFragmentCreationParams;Landroid/os/IBinder;Lcom/android/server/wm/WindowOrganizerController$CallerInfo;Lcom/android/server/wm/Transition;)V&#45;&gt;__field__ -->
<g id="edge15" class="edge">
<title>m::com.android.server.wm.WindowOrganizerController.createTaskFragment:(Landroid/window/TaskFragmentCreationParams;Landroid/os/IBinder;Lcom/android/server/wm/WindowOrganizerController$CallerInfo;Lcom/android/server/wm/Transition;)V&#45;&gt;__field__</title>
<path fill="none" stroke="#dc2626" d="M345.66,-12.61C404.74,-17.53 470.32,-33.53 516,-75 588.72,-141.02 608.72,-264.75 614.09,-318.71"/>
<polygon fill="#dc2626" stroke="#dc2626" points="611.31,-319.05 614.83,-326.76 616.88,-318.53 611.31,-319.05"/>
<text text-anchor="middle" x="474" y="-77.8" font-family="Helvetica,sans-Serif" font-size="9.00" fill="#dc2626"> reads unguarded</text>
</g>
</g>
</svg>
