<?xml version="1.0" encoding="UTF-8" standalone="no"?>
<!DOCTYPE svg PUBLIC "-//W3C//DTD SVG 1.1//EN"
 "http://www.w3.org/Graphics/SVG/1.1/DTD/svg11.dtd">
<!-- Generated by graphviz version 2.43.0 (0)
 -->
<!-- Title: race Pages: 1 -->
<svg width="965pt" height="346pt"
 viewBox="0.00 0.00 965.00 346.12" xmlns="http://www.w3.org/2000/svg" xmlns:xlink="http://www.w3.org/1999/xlink">
<g id="graph0" class="graph" transform="scale(1 1) rotate(0) translate(4 342.12)">
<title>race</title>
<polygon fill="white" stroke="transparent" points="-4,4 -4,-342.12 961,-342.12 961,4 -4,4"/>
<!-- __field__ -->
<g id="node1" class="node">
<title>__field__</title>
<path fill="#fef9c3" stroke="#ca8a04" stroke-width="2" d="M945,-166.12C945,-166.12 598,-166.12 598,-166.12 592,-166.12 586,-160.12 586,-154.12 586,-154.12 586,-142.12 586,-142.12 586,-136.12 592,-130.12 598,-130.12 598,-130.12 945,-130.12 945,-130.12 951,-130.12 957,-136.12 957,-142.12 957,-142.12 957,-154.12 957,-154.12 957,-160.12 951,-166.12 945,-166.12"/>
<text text-anchor="middle" x="771.5" y="-145.32" font-family="Helvetica,sans-Serif" font-size="11.00">NetworkPolicyManagerService$UidBlockedState.blockedReasons</text>
</g>
<!-- __guard__ -->
<g id="node2" class="node">
<title>__guard__</title>
<path fill="#dcfce7" stroke="#16a34a" stroke-width="2" d="M360.5,-338.12C360.5,-338.12 97.5,-338.12 97.5,-338.12 91.5,-338.12 85.5,-332.12 85.5,-326.12 85.5,-326.12 85.5,-314.12 85.5,-314.12 85.5,-308.12 91.5,-302.12 97.5,-302.12 97.5,-302.12 360.5,-302.12 360.5,-302.12 366.5,-302.12 372.5,-308.12 372.5,-314.12 372.5,-314.12 372.5,-326.12 372.5,-326.12 372.5,-332.12 366.5,-338.12 360.5,-338.12"/>
<text text-anchor="middle" x="229" y="-317.32" font-family="Helvetica,sans-Serif" font-size="11.00">NetworkPolicyManagerService.mUidBlockedState</text>
</g>
<!-- __guard__&#45;&gt;__field__ -->
<g id="edge1" class="edge">
<title>__guard__&#45;&gt;__field__</title>
<path fill="none" stroke="#16a34a" stroke-width="1.6" d="M372.6,-317.71C433.06,-313.08 503.41,-302.84 564,-281.12 634.77,-255.75 706,-202.24 743.5,-171.39"/>
<polygon fill="#16a34a" stroke="#16a34a" stroke-width="1.6" points="745.29,-173.54 749.66,-166.27 741.71,-169.23 745.29,-173.54"/>
<text text-anchor="middle" x="522" y="-304.92" font-family="Helvetica,sans-Serif" font-size="9.00" fill="#15803d"> guards 5/6</text>
</g>
<!-- m::com.android.server.net.NetworkPolicyManagerService$UidBlockedState.copyFrom:(Lcom/android/server/net/NetworkPolicyManagerService$UidBlockedState;)V -->
<g id="node3" class="node">
<title>m::com.android.server.net.NetworkPolicyManagerService$UidBlockedState.copyFrom:(Lcom/android/server/net/NetworkPolicyManagerService$UidBlockedState;)V</title>
<path fill="#fee2e2" stroke="#dc2626" d="M385,-280.12C385,-280.12 73,-280.12 73,-280.12 67,-280.12 61,-274.12 61,-268.12 61,-268.12 61,-256.12 61,-256.12 61,-250.12 67,-244.12 73,-244.12 73,-244.12 385,-244.12 385,-244.12 391,-244.12 397,-250.12 397,-256.12 397,-256.12 397,-268.12 397,-268.12 397,-274.12 391,-280.12 385,-280.12"/>
<text text-anchor="middle" x="229" y="-259.32" font-family="Helvetica,sans-Serif" font-size="11.00">NetworkPolicyManagerService$UidBlockedState.copyFrom</text>
</g>
<!-- m::com.android.server.net.NetworkPolicyManagerService$UidBlockedState.copyFrom:(Lcom/android/server/net/NetworkPolicyManagerService$UidBlockedState;)V&#45;&gt;__field__ -->
<g id="edge2" class="edge">
<title>m::com.android.server.net.NetworkPolicyManagerService$UidBlockedState.copyFrom:(Lcom/android/server/net/NetworkPolicyManagerService$UidBlockedState;)V&#45;&gt;__field__</title>
<path fill="none" stroke="#dc2626" d="M397.19,-271.29C451.12,-270.5 510.72,-265.62 564,-252.12 629.2,-235.59 697.52,-196.14 736.94,-170.86"/>
<polygon fill="#dc2626" stroke="#dc2626" points="738.77,-173.01 743.96,-166.31 735.72,-168.31 738.77,-173.01"/>
<text text-anchor="middle" x="522" y="-268.92" font-family="Helvetica,sans-Serif" font-size="9.00" fill="#dc2626"> writes unguarded</text>
</g>
<!-- m::com.android.server.net.NetworkPolicyManagerService$UidBlockedState.copyFrom:(Lcom/android/server/net/NetworkPolicyManagerService$UidBlockedState;)V&#45;&gt;__field__ -->
<g id="edge4" class="edge">
<title>m::com.android.server.net.NetworkPolicyManagerService$UidBlockedState.copyFrom:(Lcom/android/server/net/NetworkPolicyManagerService$UidBlockedState;)V&#45;&gt;__field__</title>
<path fill="none" stroke="#dc2626" d="M393.6,-244.1C415.33,-240.9 437.26,-237.24 458,-233.12 544.73,-215.89 642.84,-187.75 705.62,-168.61"/>
<polygon fill="#dc2626" stroke="#dc2626" points="706.64,-171.22 713.47,-166.2 705,-165.87 706.64,-171.22"/>
<text text-anchor="middle" x="522" y="-229.92" font-family="Helvetica,sans-Serif" font-size="9.00" fill="#dc2626"> reads unguarded</text>
</g>
<!-- m::com.android.server.net.NetworkPolicyLogger.networkBlocked:(ILcom/android/server/net/NetworkPolicyManagerService$UidBlockedState;)V -->
<g id="node4" class="node">
<title>m::com.android.server.net.NetworkPolicyLogger.networkBlocked:(ILcom/android/server/net/NetworkPolicyManagerService$UidBlockedState;)V</title>
<path fill="#fee2e2" stroke="#dc2626" d="M327.5,-222.12C327.5,-222.12 130.5,-222.12 130.5,-222.12 124.5,-222.12 118.5,-216.12 118.5,-210.12 118.5,-210.12 118.5,-198.12 118.5,-198.12 118.5,-192.12 124.5,-186.12 130.5,-186.12 130.5,-186.12 327.5,-186.12 327.5,-186.12 333.5,-186.12 339.5,-192.12 339.5,-198.12 339.5,-198.12 339.5,-210.12 339.5,-210.12 339.5,-216.12 333.5,-222.12 327.5,-222.12"/>
<text text-anchor="middle" x="229" y="-201.32" font-family="Helvetica,sans-Serif" font-size="11.00">NetworkPolicyLogger.networkBlocked</text>
</g>
<!-- m::com.android.server.net.NetworkPolicyLogger.networkBlocked:(ILcom/android/server/net/NetworkPolicyManagerService$UidBlockedState;)V&#45;&gt;__field__ -->
<g id="edge3" class="edge">
<title>m::com.android.server.net.NetworkPolicyLogger.networkBlocked:(ILcom/android/server/net/NetworkPolicyManagerService$UidBlockedState;)V&#45;&gt;__field__</title>
<path fill="none" stroke="#dc2626" d="M339.7,-192.75C411,-185.37 505.69,-175.56 588.13,-167.01"/>
<polygon fill="#dc2626" stroke="#dc2626" points="588.91,-169.75 596.58,-166.14 588.33,-164.18 588.91,-169.75"/>
<text text-anchor="middle" x="522" y="-179.92" font-family="Helvetica,sans-Serif" font-size="9.00" fill="#dc2626"> reads unguarded</text>
</g>
<!-- m::com.android.server.net.NetworkPolicyManagerService$UidBlockedState.deriveUidRules:()I -->
<g id="node5" class="node">
<title>m::com.android.server.net.NetworkPolicyManagerService$UidBlockedState.deriveUidRules:()I</title>
<path fill="#fee2e2" stroke="#dc2626" d="M399.5,-164.12C399.5,-164.12 58.5,-164.12 58.5,-164.12 52.5,-164.12 46.5,-158.12 46.5,-152.12 46.5,-152.12 46.5,-140.12 46.5,-140.12 46.5,-134.12 52.5,-128.12 58.5,-128.12 58.5,-128.12 399.5,-128.12 399.5,-128.12 405.5,-128.12 411.5,-134.12 411.5,-140.12 411.5,-140.12 411.5,-152.12 411.5,-152.12 411.5,-158.12 405.5,-164.12 399.5,-164.12"/>
<text text-anchor="middle" x="229" y="-143.32" font-family="Helvetica,sans-Serif" font-size="11.00">NetworkPolicyManagerService$UidBlockedState.deriveUidRules</text>
</g>
<!-- m::com.android.server.net.NetworkPolicyManagerService$UidBlockedState.deriveUidRules:()I&#45;&gt;__field__ -->
<g id="edge5" class="edge">
<title>m::com.android.server.net.NetworkPolicyManagerService$UidBlockedState.deriveUidRules:()I&#45;&gt;__field__</title>
<path fill="none" stroke="#dc2626" d="M411.86,-146.79C465.08,-146.99 523.43,-147.21 577.33,-147.4"/>
<polygon fill="#dc2626" stroke="#dc2626" points="577.58,-150.21 585.59,-147.44 577.6,-144.61 577.58,-150.21"/>
<text text-anchor="middle" x="522" y="-149.92" font-family="Helvetica,sans-Serif" font-size="9.00" fill="#dc2626"> reads unguarded</text>
</g>
<!-- m::com.android.server.net.NetworkPolicyManagerService$UidBlockedState.deriveUidRules:()I&#45;&gt;__field__ -->
<g id="edge6" class="edge">
<title>m::com.android.server.net.NetworkPolicyManagerService$UidBlockedState.deriveUidRules:()I&#45;&gt;__field__</title>
<path fill="none" stroke="#dc2626" d="M411.57,-132.29C461.01,-130.07 514.56,-129.09 564,-131.12 568.49,-131.3 573.04,-131.51 577.62,-131.74"/>
<polygon fill="#dc2626" stroke="#dc2626" points="577.78,-134.55 585.91,-132.17 578.07,-128.96 577.78,-134.55"/>
<text text-anchor="middle" x="522" y="-133.92" font-family="Helvetica,sans-Serif" font-size="9.00" fill="#dc2626"> reads unguarded</text>
</g>
<!-- m::com.android.server.net.NetworkPolicyManagerService$UidBlockedState.toString:()Ljava/lang/String; -->
<g id="node6" class="node">
<title>m::com.android.server.net.NetworkPolicyManagerService$UidBlockedState.toString:()Ljava/lang/String;</title>
<path fill="#fee2e2" stroke="#dc2626" d="M380,-106.12C380,-106.12 78,-106.12 78,-106.12 72,-106.12 66,-100.12 66,-94.12 66,-94.12 66,-82.12 66,-82.12 66,-76.12 72,-70.12 78,-70.12 78,-70.12 380,-70.12 380,-70.12 386,-70.12 392,-76.12 392,-82.12 392,-82.12 392,-94.12 392,-94.12 392,-100.12 386,-106.12 380,-106.12"/>
<text text-anchor="middle" x="229" y="-85.32" font-family="Helvetica,sans-Serif" font-size="11.00">NetworkPolicyManagerService$UidBlockedState.toString</text>
</g>
<!-- m::com.android.server.net.NetworkPolicyManagerService$UidBlockedState.toString:()Ljava/lang/String;&#45;&gt;__field__ -->
<g id="edge7" class="edge">
<title>m::com.android.server.net.NetworkPolicyManagerService$UidBlockedState.toString:()Ljava/lang/String;&#45;&gt;__field__</title>
<path fill="none" stroke="#dc2626" d="M392.09,-97.94C446.79,-101.99 508.14,-107.36 564,-114.12 596.5,-118.05 631.71,-123.43 663.69,-128.75"/>
<polygon fill="#dc2626" stroke="#dc2626" points="663.4,-131.54 671.75,-130.1 664.32,-126.01 663.4,-131.54"/>
<text text-anchor="middle" x="522" y="-116.92" font-family="Helvetica,sans-Serif" font-size="9.00" fill="#dc2626"> reads unguarded</text>
</g>
<!-- m::com.android.server.net.NetworkPolicyManagerService$UidBlockedState.updateEffectiveBlockedReasons:()V -->
<g id="node7" class="node">
<title>m::com.android.server.net.NetworkPolicyManagerService$UidBlockedState.updateEffectiveBlockedReasons:()V</title>
<path fill="#fee2e2" stroke="#dc2626" d="M446,-37.12C446,-37.12 12,-37.12 12,-37.12 6,-37.12 0,-31.12 0,-25.12 0,-25.12 0,-13.12 0,-13.12 0,-7.12 6,-1.12 12,-1.12 12,-1.12 446,-1.12 446,-1.12 452,-1.12 458,-7.12 458,-13.12 458,-13.12 458,-25.12 458,-25.12 458,-31.12 452,-37.12 446,-37.12"/>
<text text-anchor="middle" x="229" y="-16.32" font-family="Helvetica,sans-Serif" font-size="11.00">NetworkPolicyManagerService$UidBlockedState.updateEffectiveBlockedReasons</text>
</g>
<!-- m::com.android.server.net.NetworkPolicyManagerService$UidBlockedState.updateEffectiveBlockedReasons:()V&#45;&gt;__field__ -->
<g id="edge8" class="edge">
<title>m::com.android.server.net.NetworkPolicyManagerService$UidBlockedState.updateEffectiveBlockedReasons:()V&#45;&gt;__field__</title>
<path fill="none" stroke="#dc2626" d="M346.46,-37.15C382.38,-43.36 421.96,-50.85 458,-59.12 544.74,-79.02 643.24,-108.19 706.07,-127.65"/>
<polygon fill="#dc2626" stroke="#dc2626" points="705.46,-130.39 713.94,-130.09 707.13,-125.04 705.46,-130.39"/>
<text text-anchor="middle" x="522" y="-87.92" font-family="Helvetica,sans-Serif" font-size="9.00" fill="#dc2626"> reads unguarded</text>
</g>
<!-- m::com.android.server.net.NetworkPolicyManagerService$UidBlockedState.updateEffectiveBlockedReasons:()V&#45;&gt;__field__ -->
<g id="edge9" class="edge">
<title>m::com.android.server.net.NetworkPolicyManagerService$UidBlockedState.updateEffectiveBlockedReasons:()V&#45;&gt;__field__</title>
<path fill="none" stroke="#dc2626" d="M458.3,-29.55C494.06,-34.26 530.3,-40.87 564,-50.12 626.69,-67.32 693.7,-102.63 733.83,-125.84"/>
<polygon fill="#dc2626" stroke="#dc2626" points="732.69,-128.41 741.01,-130.02 735.51,-123.57 732.69,-128.41"/>
<text text-anchor="middle" x="522" y="-52.92" font-family="Helvetica,sans-Serif" font-size="9.00" fill="#dc2626"> reads unguarded</text>
</g>
<!-- m::com.android.server.net.NetworkPolicyManagerService$UidBlockedState.updateEffectiveBlockedReasons:()V&#45;&gt;__field__ -->
<g id="edge10" class="edge">
<title>m::com.android.server.net.NetworkPolicyManagerService$UidBlockedState.updateEffectiveBlockedReasons:()V&#45;&gt;__field__</title>
<path fill="none" stroke="#dc2626" d="M375.08,-1.11C434.66,1.79 503.69,-0.72 564,-18.12 636.14,-38.94 707.38,-93.25 744.38,-124.69"/>
<polygon fill="#dc2626" stroke="#dc2626" points="742.56,-126.82 750.45,-129.91 746.21,-122.57 742.56,-126.82"/>
<text text-anchor="middle" x="522" y="-20.92" font-family="Helvetica,sans-Serif" font-size="9.00" fill="#dc2626"> reads unguarded</text>
</g>
</g>
</svg>
