<?xml version="1.0" encoding="UTF-8" standalone="no"?>
<!DOCTYPE svg PUBLIC "-//W3C//DTD SVG 1.1//EN"
 "http://www.w3.org/Graphics/SVG/1.1/DTD/svg11.dtd">
<!-- Generated by graphviz version 2.43.0 (0)
 -->
<!-- Title: race Pages: 1 -->
<svg width="763pt" height="147pt"
 viewBox="0.00 0.00 763.00 147.42" xmlns="http://www.w3.org/2000/svg" xmlns:xlink="http://www.w3.org/1999/xlink">
<g id="graph0" class="graph" transform="scale(1 1) rotate(0) translate(4 143.42)">
<title>race</title>
<polygon fill="white" stroke="transparent" points="-4,4 -4,-143.42 759,-143.42 759,4 -4,4"/>
<!-- __field__ -->
<g id="node1" class="node">
<title>__field__</title>
<path fill="#fef9c3" stroke="#ca8a04" stroke-width="2" d="M743,-65.42C743,-65.42 463,-65.42 463,-65.42 457,-65.42 451,-59.42 451,-53.42 451,-53.42 451,-41.42 451,-41.42 451,-35.42 457,-29.42 463,-29.42 463,-29.42 743,-29.42 743,-29.42 749,-29.42 755,-35.42 755,-41.42 755,-41.42 755,-53.42 755,-53.42 755,-59.42 749,-65.42 743,-65.42"/>
<text text-anchor="middle" x="603" y="-44.62" font-family="Helvetica,sans-Serif" font-size="11.00">AttentionManagerService.mCurrentProximityUpdate</text>
</g>
<!-- __guard__ -->
<g id="node2" class="node">
<title>__guard__</title>
<path fill="#dcfce7" stroke="#16a34a" stroke-width="2" d="M247,-139.42C247,-139.42 76,-139.42 76,-139.42 70,-139.42 64,-133.42 64,-127.42 64,-127.42 64,-115.42 64,-115.42 64,-109.42 70,-103.42 76,-103.42 76,-103.42 247,-103.42 247,-103.42 253,-103.42 259,-109.42 259,-115.42 259,-115.42 259,-127.42 259,-127.42 259,-133.42 253,-139.42 247,-139.42"/>
<text text-anchor="middle" x="161.5" y="-118.62" font-family="Helvetica,sans-Serif" font-size="11.00">AttentionManagerService.mLock</text>
</g>
<!-- __guard__&#45;&gt;__field__ -->
<g id="edge1" class="edge">
<title>__guard__&#45;&gt;__field__</title>
<path fill="none" stroke="#16a34a" stroke-width="1.6" d="M259.22,-105.14C326.27,-93.85 415.86,-78.76 486.63,-66.85"/>
<polygon fill="#16a34a" stroke="#16a34a" stroke-width="1.6" points="487.3,-69.57 494.72,-65.48 486.37,-64.05 487.3,-69.57"/>
<text text-anchor="middle" x="387" y="-91.22" font-family="Helvetica,sans-Serif" font-size="9.00" fill="#15803d"> guards 3/4</text>
</g>
<!-- m::com.android.server.attention.AttentionManagerService.handlePendingCallbackLocked:()V -->
<g id="node3" class="node">
<title>m::com.android.server.attention.AttentionManagerService.handlePendingCallbackLocked:()V</title>
<path fill="#fee2e2" stroke="#dc2626" d="M311,-47.42C311,-47.42 12,-47.42 12,-47.42 6,-47.42 0,-41.42 0,-35.42 0,-35.42 0,-23.42 0,-23.42 0,-17.42 6,-11.42 12,-11.42 12,-11.42 311,-11.42 311,-11.42 317,-11.42 323,-17.42 323,-23.42 323,-23.42 323,-35.42 323,-35.42 323,-41.42 317,-47.42 311,-47.42"/>
<text text-anchor="middle" x="161.5" y="-26.62" font-family="Helvetica,sans-Serif" font-size="11.00">AttentionManagerService.handlePendingCallbackLocked</text>
</g>
<!-- m::com.android.server.attention.AttentionManagerService.handlePendingCallbackLocked:()V&#45;&gt;__field__ -->
<g id="edge2" class="edge">
<title>m::com.android.server.attention.AttentionManagerService.handlePendingCallbackLocked:()V&#45;&gt;__field__</title>
<path fill="none" stroke="#dc2626" d="M257.82,-47.47C285.81,-51.98 316.54,-56.17 345,-58.42 382.22,-61.36 391.69,-59.61 429,-58.42 433.42,-58.28 437.9,-58.12 442.42,-57.94"/>
<polygon fill="#dc2626" stroke="#dc2626" points="442.72,-60.73 450.6,-57.6 442.49,-55.14 442.72,-60.73"/>
<text text-anchor="middle" x="387" y="-62.22" font-family="Helvetica,sans-Serif" font-size="9.00" fill="#dc2626"> writes unguarded</text>
</g>
<!-- m::com.android.server.attention.AttentionManagerService.handlePendingCallbackLocked:()V&#45;&gt;__field__ -->
<g id="edge3" class="edge">
<title>m::com.android.server.attention.AttentionManagerService.handlePendingCallbackLocked:()V&#45;&gt;__field__</title>
<path fill="none" stroke="#dc2626" d="M323.04,-36C361.95,-37.59 403.55,-39.29 442.42,-40.89"/>
<polygon fill="#dc2626" stroke="#dc2626" points="442.57,-43.69 450.67,-41.22 442.8,-38.1 442.57,-43.69"/>
<text text-anchor="middle" x="387" y="-42.22" font-family="Helvetica,sans-Serif" font-size="9.00" fill="#dc2626"> reads unguarded</text>
</g>
<!-- m::com.android.server.attention.AttentionManagerService.handlePendingCallbackLocked:()V&#45;&gt;__field__ -->
<g id="edge4" class="edge">
<title>m::com.android.server.attention.AttentionManagerService.handlePendingCallbackLocked:()V&#45;&gt;__field__</title>
<path fill="none" stroke="#dc2626" d="M323.28,-19.17C358.16,-18.46 394.84,-18.87 429,-21.42 449.19,-22.93 470.59,-25.42 491.21,-28.27"/>
<polygon fill="#dc2626" stroke="#dc2626" points="491.06,-31.07 499.37,-29.42 491.84,-25.53 491.06,-31.07"/>
<text text-anchor="middle" x="387" y="-24.22" font-family="Helvetica,sans-Serif" font-size="9.00" fill="#dc2626"> reads unguarded</text>
</g>
<!-- m::com.android.server.attention.AttentionManagerService.handlePendingCallbackLocked:()V&#45;&gt;__field__ -->
<g id="edge5" class="edge">
<title>m::com.android.server.attention.AttentionManagerService.handlePendingCallbackLocked:()V&#45;&gt;__field__</title>
<path fill="none" stroke="#dc2626" d="M248.15,-11.42C300.47,-2.82 368.69,4.13 429,-3.42 465.57,-8 505.5,-17.82 537.77,-27.02"/>
<polygon fill="#dc2626" stroke="#dc2626" points="537.34,-29.81 545.8,-29.35 538.89,-24.43 537.34,-29.81"/>
<text text-anchor="middle" x="387" y="-6.22" font-family="Helvetica,sans-Serif" font-size="9.00" fill="#dc2626"> reads unguarded</text>
</g>
</g>
</svg>
