<?xml version="1.0" encoding="UTF-8" standalone="no"?>
<!DOCTYPE svg PUBLIC "-//W3C//DTD SVG 1.1//EN"
 "http://www.w3.org/Graphics/SVG/1.1/DTD/svg11.dtd">
<!-- Generated by graphviz version 2.43.0 (0)
 -->
<!-- Title: race Pages: 1 -->
<svg width="695pt" height="160pt"
 viewBox="0.00 0.00 695.00 160.00" xmlns="http://www.w3.org/2000/svg" xmlns:xlink="http://www.w3.org/1999/xlink">
<g id="graph0" class="graph" transform="scale(1 1) rotate(0) translate(4 156)">
<title>race</title>
<polygon fill="white" stroke="transparent" points="-4,4 -4,-156 691,-156 691,4 -4,4"/>
<!-- __field__ -->
<g id="node1" class="node">
<title>__field__</title>
<path fill="#fef9c3" stroke="#ca8a04" stroke-width="2" d="M675,-94C675,-94 431,-94 431,-94 425,-94 419,-88 419,-82 419,-82 419,-70 419,-70 419,-64 425,-58 431,-58 431,-58 675,-58 675,-58 681,-58 687,-64 687,-70 687,-70 687,-82 687,-82 687,-88 681,-94 675,-94"/>
<text text-anchor="middle" x="553" y="-73.2" font-family="Helvetica,sans-Serif" font-size="11.00">MediaFocusControl.mFocusFreezeExemptUids</text>
</g>
<!-- __guard__ -->
<g id="node2" class="node">
<title>__guard__</title>
<path fill="#dcfce7" stroke="#16a34a" stroke-width="2" d="M244.5,-152C244.5,-152 46.5,-152 46.5,-152 40.5,-152 34.5,-146 34.5,-140 34.5,-140 34.5,-128 34.5,-128 34.5,-122 40.5,-116 46.5,-116 46.5,-116 244.5,-116 244.5,-116 250.5,-116 256.5,-122 256.5,-128 256.5,-128 256.5,-140 256.5,-140 256.5,-146 250.5,-152 244.5,-152"/>
<text text-anchor="middle" x="145.5" y="-131.2" font-family="Helvetica,sans-Serif" font-size="11.00">MediaFocusControl.mAudioFocusLock</text>
</g>
<!-- __guard__&#45;&gt;__field__ -->
<g id="edge1" class="edge">
<title>__guard__&#45;&gt;__field__</title>
<path fill="none" stroke="#16a34a" stroke-width="1.6" d="M256.5,-118.27C306.25,-111.15 365.49,-102.68 417.83,-95.19"/>
<polygon fill="#16a34a" stroke="#16a34a" stroke-width="1.6" points="418.31,-97.95 425.83,-94.05 417.52,-92.41 418.31,-97.95"/>
<text text-anchor="middle" x="355" y="-110.8" font-family="Helvetica,sans-Serif" font-size="9.00" fill="#15803d"> guards 2/3</text>
</g>
<!-- m::com.android.server.audio.MediaFocusControl.enterAudioFocusFreezeForTest:(Landroid/os/IBinder;[I)Z -->
<g id="node3" class="node">
<title>m::com.android.server.audio.MediaFocusControl.enterAudioFocusFreezeForTest:(Landroid/os/IBinder;[I)Z</title>
<path fill="#fee2e2" stroke="#dc2626" d="M279,-94C279,-94 12,-94 12,-94 6,-94 0,-88 0,-82 0,-82 0,-70 0,-70 0,-64 6,-58 12,-58 12,-58 279,-58 279,-58 285,-58 291,-64 291,-70 291,-70 291,-82 291,-82 291,-88 285,-94 279,-94"/>
<text text-anchor="middle" x="145.5" y="-73.2" font-family="Helvetica,sans-Serif" font-size="11.00">MediaFocusControl.enterAudioFocusFreezeForTest</text>
</g>
<!-- m::com.android.server.audio.MediaFocusControl.enterAudioFocusFreezeForTest:(Landroid/os/IBinder;[I)Z&#45;&gt;__field__ -->
<g id="edge2" class="edge">
<title>m::com.android.server.audio.MediaFocusControl.enterAudioFocusFreezeForTest:(Landroid/os/IBinder;[I)Z&#45;&gt;__field__</title>
<path fill="none" stroke="#dc2626" d="M291.18,-76C330.04,-76 372,-76 410.68,-76"/>
<polygon fill="#dc2626" stroke="#dc2626" points="410.88,-78.8 418.88,-76 410.88,-73.2 410.88,-78.8"/>
<text text-anchor="middle" x="355" y="-78.8" font-family="Helvetica,sans-Serif" font-size="9.00" fill="#dc2626"> writes unguarded</text>
</g>
<!-- m::com.android.server.audio.MediaFocusControl.isFocusFrozenForTestForUid:(I)Z -->
<g id="node4" class="node">
<title>m::com.android.server.audio.MediaFocusControl.isFocusFrozenForTestForUid:(I)Z</title>
<path fill="#fee2e2" stroke="#dc2626" d="M271,-36C271,-36 20,-36 20,-36 14,-36 8,-30 8,-24 8,-24 8,-12 8,-12 8,-6 14,0 20,0 20,0 271,0 271,0 277,0 283,-6 283,-12 283,-12 283,-24 283,-24 283,-30 277,-36 271,-36"/>
<text text-anchor="middle" x="145.5" y="-15.2" font-family="Helvetica,sans-Serif" font-size="11.00">MediaFocusControl.isFocusFrozenForTestForUid</text>
</g>
<!-- m::com.android.server.audio.MediaFocusControl.isFocusFrozenForTestForUid:(I)Z&#45;&gt;__field__ -->
<g id="edge3" class="edge">
<title>m::com.android.server.audio.MediaFocusControl.isFocusFrozenForTestForUid:(I)Z&#45;&gt;__field__</title>
<path fill="none" stroke="#dc2626" d="M272.58,-36.03C318.73,-42.64 371.1,-50.13 417.93,-56.82"/>
<polygon fill="#dc2626" stroke="#dc2626" points="417.68,-59.62 426,-57.98 418.48,-54.07 417.68,-59.62"/>
<text text-anchor="middle" x="355" y="-54.8" font-family="Helvetica,sans-Serif" font-size="9.00" fill="#dc2626"> reads unguarded</text>
</g>
</g>
</svg>
