<?xml version="1.0" encoding="UTF-8" standalone="no"?>
<!DOCTYPE svg PUBLIC "-//W3C//DTD SVG 1.1//EN"
 "http://www.w3.org/Graphics/SVG/1.1/DTD/svg11.dtd">
<!-- Generated by graphviz version 2.43.0 (0)
 -->
<!-- Title: race Pages: 1 -->
<svg width="658pt" height="345pt"
 viewBox="0.00 0.00 658.00 345.00" xmlns="http://www.w3.org/2000/svg" xmlns:xlink="http://www.w3.org/1999/xlink">
<g id="graph0" class="graph" transform="scale(1 1) rotate(0) translate(4 341)">
<title>race</title>
<polygon fill="white" stroke="transparent" points="-4,4 -4,-341 654,-341 654,4 -4,4"/>
<!-- __field__ -->
<g id="node1" class="node">
<title>__field__</title>
<path fill="#fef9c3" stroke="#ca8a04" stroke-width="2" d="M638,-189C638,-189 485,-189 485,-189 479,-189 473,-183 473,-177 473,-177 473,-165 473,-165 473,-159 479,-153 485,-153 485,-153 638,-153 638,-153 644,-153 650,-159 650,-165 650,-165 650,-177 650,-177 650,-183 644,-189 638,-189"/>
<text text-anchor="middle" x="561.5" y="-168.2" font-family="Helvetica,sans-Serif" font-size="11.00">ZenModeConfig$ZenRule.pkg</text>
</g>
<!-- __guard__ -->
<g id="node2" class="node">
<title>__guard__</title>
<path fill="#dcfce7" stroke="#16a34a" stroke-width="2" d="M248.5,-337C248.5,-337 96.5,-337 96.5,-337 90.5,-337 84.5,-331 84.5,-325 84.5,-325 84.5,-313 84.5,-313 84.5,-307 90.5,-301 96.5,-301 96.5,-301 248.5,-301 248.5,-301 254.5,-301 260.5,-307 260.5,-313 260.5,-313 260.5,-325 260.5,-325 260.5,-331 254.5,-337 248.5,-337"/>
<text text-anchor="middle" x="172.5" y="-316.2" font-family="Helvetica,sans-Serif" font-size="11.00">ZenModeHelper.mConfigLock</text>
</g>
<!-- __guard__&#45;&gt;__field__ -->
<g id="edge1" class="edge">
<title>__guard__&#45;&gt;__field__</title>
<path fill="none" stroke="#16a34a" stroke-width="1.6" d="M260.68,-323.51C317.64,-322.98 392.11,-315.48 451,-286 491.96,-265.5 525.88,-223.16 544.64,-195.98"/>
<polygon fill="#16a34a" stroke="#16a34a" stroke-width="1.6" points="547.14,-197.27 549.3,-189.08 542.5,-194.14 547.14,-197.27"/>
<text text-anchor="middle" x="409" y="-314.8" font-family="Helvetica,sans-Serif" font-size="9.00" fill="#15803d"> guards 2/3</text>
</g>
<!-- m::com.android.server.notification.ZenModeHelper.populateZenRule:(Ljava/lang/String;Landroid/app/AutomaticZenRule;Landroid/service/notification/ZenModeConfig;Landroid/service/notification/ZenModeConfig$ZenRule;IZ)Z -->
<g id="node3" class="node">
<title>m::com.android.server.notification.ZenModeHelper.populateZenRule:(Ljava/lang/String;Landroid/app/AutomaticZenRule;Landroid/service/notification/ZenModeConfig;Landroid/service/notification/ZenModeConfig$ZenRule;IZ)Z</title>
<path fill="#fee2e2" stroke="#dc2626" d="M260.5,-268C260.5,-268 84.5,-268 84.5,-268 78.5,-268 72.5,-262 72.5,-256 72.5,-256 72.5,-244 72.5,-244 72.5,-238 78.5,-232 84.5,-232 84.5,-232 260.5,-232 260.5,-232 266.5,-232 272.5,-238 272.5,-244 272.5,-244 272.5,-256 272.5,-256 272.5,-262 266.5,-268 260.5,-268"/>
<text text-anchor="middle" x="172.5" y="-247.2" font-family="Helvetica,sans-Serif" font-size="11.00">ZenModeHelper.populateZenRule</text>
</g>
<!-- m::com.android.server.notification.ZenModeHelper.populateZenRule:(Ljava/lang/String;Landroid/app/AutomaticZenRule;Landroid/service/notification/ZenModeConfig;Landroid/service/notification/ZenModeConfig$ZenRule;IZ)Z&#45;&gt;__field__ -->
<g id="edge2" class="edge">
<title>m::com.android.server.notification.ZenModeHelper.populateZenRule:(Ljava/lang/String;Landroid/app/AutomaticZenRule;Landroid/service/notification/ZenModeConfig;Landroid/service/notification/ZenModeConfig$ZenRule;IZ)Z&#45;&gt;__field__</title>
<path fill="none" stroke="#dc2626" d="M268.81,-268.03C323.54,-274.5 392.76,-275.95 451,-256 486.02,-244 518.49,-215.74 538.83,-195.08"/>
<polygon fill="#dc2626" stroke="#dc2626" points="540.95,-196.91 544.49,-189.21 536.92,-193.03 540.95,-196.91"/>
<text text-anchor="middle" x="409" y="-273.8" font-family="Helvetica,sans-Serif" font-size="9.00" fill="#dc2626"> writes unguarded</text>
</g>
<!-- m::com.android.server.notification.ZenModeHelper.populateZenRule:(Ljava/lang/String;Landroid/app/AutomaticZenRule;Landroid/service/notification/ZenModeConfig;Landroid/service/notification/ZenModeConfig$ZenRule;IZ)Z&#45;&gt;__field__ -->
<g id="edge5" class="edge">
<title>m::com.android.server.notification.ZenModeHelper.populateZenRule:(Ljava/lang/String;Landroid/app/AutomaticZenRule;Landroid/service/notification/ZenModeConfig;Landroid/service/notification/ZenModeConfig$ZenRule;IZ)Z&#45;&gt;__field__</title>
<path fill="none" stroke="#dc2626" d="M272.77,-246.18C326.29,-242.31 393.06,-234.55 451,-219 474.29,-212.75 498.99,-202.29 519.02,-192.73"/>
<polygon fill="#dc2626" stroke="#dc2626" points="520.48,-195.13 526.46,-189.12 518.04,-190.09 520.48,-195.13"/>
<text text-anchor="middle" x="409" y="-237.8" font-family="Helvetica,sans-Serif" font-size="9.00" fill="#dc2626"> reads unguarded</text>
</g>
<!-- m::com.android.server.notification.ZenModeHelper.populateZenRule:(Ljava/lang/String;Landroid/app/AutomaticZenRule;Landroid/service/notification/ZenModeConfig;Landroid/service/notification/ZenModeConfig$ZenRule;IZ)Z&#45;&gt;__field__ -->
<g id="edge6" class="edge">
<title>m::com.android.server.notification.ZenModeHelper.populateZenRule:(Ljava/lang/String;Landroid/app/AutomaticZenRule;Landroid/service/notification/ZenModeConfig;Landroid/service/notification/ZenModeConfig$ZenRule;IZ)Z&#45;&gt;__field__</title>
<path fill="none" stroke="#dc2626" d="M272.6,-239.57C296.74,-235.32 322.17,-229.35 345,-221 355.67,-217.1 356.38,-212.01 367,-208 397.82,-196.35 432.85,-188.23 464.55,-182.63"/>
<polygon fill="#dc2626" stroke="#dc2626" points="465.12,-185.37 472.53,-181.26 464.17,-179.86 465.12,-185.37"/>
<text text-anchor="middle" x="409" y="-210.8" font-family="Helvetica,sans-Serif" font-size="9.00" fill="#dc2626"> reads unguarded</text>
</g>
<!-- m::com.android.server.notification.ZenModeHelper.maybePreserveRemovedRule:(Landroid/service/notification/ZenModeConfig;Landroid/service/notification/ZenModeConfig$ZenRule;I)V -->
<g id="node4" class="node">
<title>m::com.android.server.notification.ZenModeHelper.maybePreserveRemovedRule:(Landroid/service/notification/ZenModeConfig;Landroid/service/notification/ZenModeConfig$ZenRule;I)V</title>
<path fill="#fee2e2" stroke="#dc2626" d="M295,-210C295,-210 50,-210 50,-210 44,-210 38,-204 38,-198 38,-198 38,-186 38,-186 38,-180 44,-174 50,-174 50,-174 295,-174 295,-174 301,-174 307,-180 307,-186 307,-186 307,-198 307,-198 307,-204 301,-210 295,-210"/>
<text text-anchor="middle" x="172.5" y="-189.2" font-family="Helvetica,sans-Serif" font-size="11.00">ZenModeHelper.maybePreserveRemovedRule</text>
</g>
<!-- m::com.android.server.notification.ZenModeHelper.maybePreserveRemovedRule:(Landroid/service/notification/ZenModeConfig;Landroid/service/notification/ZenModeConfig$ZenRule;I)V&#45;&gt;__field__ -->
<g id="edge3" class="edge">
<title>m::com.android.server.notification.ZenModeHelper.maybePreserveRemovedRule:(Landroid/service/notification/ZenModeConfig;Landroid/service/notification/ZenModeConfig$ZenRule;I)V&#45;&gt;__field__</title>
<path fill="none" stroke="#dc2626" d="M307.11,-175.6C327.15,-173.69 347.6,-172.05 367,-171 398.72,-169.28 433.4,-168.84 464.53,-168.95"/>
<polygon fill="#dc2626" stroke="#dc2626" points="464.77,-171.75 472.79,-169 464.81,-166.15 464.77,-171.75"/>
<text text-anchor="middle" x="409" y="-173.8" font-family="Helvetica,sans-Serif" font-size="9.00" fill="#dc2626"> reads unguarded</text>
</g>
<!-- m::com.android.server.notification.ZenModeHelper.maybeRestoreRemovedRule:(Landroid/service/notification/ZenModeConfig;Ljava/lang/String;Landroid/service/notification/ZenModeConfig$ZenRule;Landroid/app/AutomaticZenRule;I)Landroid/service/notification/ZenModeConfig$ZenRule; -->
<g id="node5" class="node">
<title>m::com.android.server.notification.ZenModeHelper.maybeRestoreRemovedRule:(Landroid/service/notification/ZenModeConfig;Ljava/lang/String;Landroid/service/notification/ZenModeConfig$ZenRule;Landroid/app/AutomaticZenRule;I)Landroid/service/notification/ZenModeConfig$ZenRule;</title>
<path fill="#fee2e2" stroke="#dc2626" d="M292,-152C292,-152 53,-152 53,-152 47,-152 41,-146 41,-140 41,-140 41,-128 41,-128 41,-122 47,-116 53,-116 53,-116 292,-116 292,-116 298,-116 304,-122 304,-128 304,-128 304,-140 304,-140 304,-146 298,-152 292,-152"/>
<text text-anchor="middle" x="172.5" y="-131.2" font-family="Helvetica,sans-Serif" font-size="11.00">ZenModeHelper.maybeRestoreRemovedRule</text>
</g>
<!-- m::com.android.server.notification.ZenModeHelper.maybeRestoreRemovedRule:(Landroid/service/notification/ZenModeConfig;Ljava/lang/String;Landroid/service/notification/ZenModeConfig$ZenRule;Landroid/app/AutomaticZenRule;I)Landroid/service/notification/ZenModeConfig$ZenRule;&#45;&gt;__field__ -->
<g id="edge4" class="edge">
<title>m::com.android.server.notification.ZenModeHelper.maybeRestoreRemovedRule:(Landroid/service/notification/ZenModeConfig;Ljava/lang/String;Landroid/service/notification/ZenModeConfig$ZenRule;Landroid/app/AutomaticZenRule;I)Landroid/service/notification/ZenModeConfig$ZenRule;&#45;&gt;__field__</title>
<path fill="none" stroke="#dc2626" d="M304.31,-140.4C350.72,-143.35 403.27,-147.46 451,-153 455.43,-153.51 459.94,-154.08 464.51,-154.69"/>
<polygon fill="#dc2626" stroke="#dc2626" points="464.44,-157.51 472.75,-155.83 465.2,-151.96 464.44,-157.51"/>
<text text-anchor="middle" x="409" y="-155.8" font-family="Helvetica,sans-Serif" font-size="9.00" fill="#dc2626"> reads unguarded</text>
</g>
<!-- m::com.android.server.notification.ZenModeHelper.updateImplicitZenRuleNameAndDescription:(Landroid/service/notification/ZenModeConfig$ZenRule;)V -->
<g id="node6" class="node">
<title>m::com.android.server.notification.ZenModeHelper.updateImplicitZenRuleNameAndDescription:(Landroid/service/notification/ZenModeConfig$ZenRule;)V</title>
<path fill="#fee2e2" stroke="#dc2626" d="M333,-94C333,-94 12,-94 12,-94 6,-94 0,-88 0,-82 0,-82 0,-70 0,-70 0,-64 6,-58 12,-58 12,-58 333,-58 333,-58 339,-58 345,-64 345,-70 345,-70 345,-82 345,-82 345,-88 339,-94 333,-94"/>
<text text-anchor="middle" x="172.5" y="-73.2" font-family="Helvetica,sans-Serif" font-size="11.00">ZenModeHelper.updateImplicitZenRuleNameAndDescription</text>
</g>
<!-- m::com.android.server.notification.ZenModeHelper.updateImplicitZenRuleNameAndDescription:(Landroid/service/notification/ZenModeConfig$ZenRule;)V&#45;&gt;__field__ -->
<g id="edge7" class="edge">
<title>m::com.android.server.notification.ZenModeHelper.updateImplicitZenRuleNameAndDescription:(Landroid/service/notification/ZenModeConfig$ZenRule;)V&#45;&gt;__field__</title>
<path fill="none" stroke="#dc2626" d="M298.15,-94.03C346.44,-102.51 401.83,-114.09 451,-129 470.61,-134.95 491.72,-142.71 510.12,-149.94"/>
<polygon fill="#dc2626" stroke="#dc2626" points="509.36,-152.65 517.83,-153 511.43,-147.44 509.36,-152.65"/>
<text text-anchor="middle" x="409" y="-131.8" font-family="Helvetica,sans-Serif" font-size="9.00" fill="#dc2626"> reads unguarded</text>
</g>
<!-- m::com.android.server.notification.ZenModeHelper.zenRuleToAutomaticZenRule:(Landroid/service/notification/ZenModeConfig$ZenRule;)Landroid/app/AutomaticZenRule; -->
<g id="node7" class="node">
<title>m::com.android.server.notification.ZenModeHelper.zenRuleToAutomaticZenRule:(Landroid/service/notification/ZenModeConfig$ZenRule;)Landroid/app/AutomaticZenRule;</title>
<path fill="#fee2e2" stroke="#dc2626" d="M292,-36C292,-36 53,-36 53,-36 47,-36 41,-30 41,-24 41,-24 41,-12 41,-12 41,-6 47,0 53,0 53,0 292,0 292,0 298,0 304,-6 304,-12 304,-12 304,-24 304,-24 304,-30 298,-36 292,-36"/>
<text text-anchor="middle" x="172.5" y="-15.2" font-family="Helvetica,sans-Serif" font-size="11.00">ZenModeHelper.zenRuleToAutomaticZenRule</text>
</g>
<!-- m::com.android.server.notification.ZenModeHelper.zenRuleToAutomaticZenRule:(Landroid/service/notification/ZenModeConfig$ZenRule;)Landroid/app/AutomaticZenRule;&#45;&gt;__field__ -->
<g id="edge8" class="edge">
<title>m::com.android.server.notification.ZenModeHelper.zenRuleToAutomaticZenRule:(Landroid/service/notification/ZenModeConfig$ZenRule;)Landroid/app/AutomaticZenRule;&#45;&gt;__field__</title>
<path fill="none" stroke="#dc2626" d="M300.7,-36.07C315.75,-39.22 330.8,-42.85 345,-47 394.12,-61.36 406.41,-66.87 451,-92 480.06,-108.38 510.64,-130.95 532.08,-147.78"/>
<polygon fill="#dc2626" stroke="#dc2626" points="530.41,-150.03 538.42,-152.8 533.89,-145.64 530.41,-150.03"/>
<text text-anchor="middle" x="409" y="-94.8" font-family="Helvetica,sans-Serif" font-size="9.00" fill="#dc2626"> reads unguarded</text>
</g>
<!-- m::com.android.server.notification.ZenModeHelper.zenRuleToAutomaticZenRule:(Landroid/service/notification/ZenModeConfig$ZenRule;)Landroid/app/AutomaticZenRule;&#45;&gt;__field__ -->
<g id="edge9" class="edge">
<title>m::com.android.server.notification.ZenModeHelper.zenRuleToAutomaticZenRule:(Landroid/service/notification/ZenModeConfig$ZenRule;)Landroid/app/AutomaticZenRule;&#45;&gt;__field__</title>
<path fill="none" stroke="#dc2626" d="M304.3,-7.04C352.71,-8.22 406.57,-16.05 451,-39 496.8,-62.66 530.73,-114.69 547.9,-145.89"/>
<polygon fill="#dc2626" stroke="#dc2626" points="545.45,-147.25 551.7,-152.97 550.38,-144.6 545.45,-147.25"/>
<text text-anchor="middle" x="409" y="-41.8" font-family="Helvetica,sans-Serif" font-size="9.00" fill="#dc2626"> reads unguarded</text>
</g>
</g>
</svg>
