<?xml version="1.0" encoding="UTF-8" standalone="no"?>
<!DOCTYPE svg PUBLIC "-//W3C//DTD SVG 1.1//EN"
 "http://www.w3.org/Graphics/SVG/1.1/DTD/svg11.dtd">
<!-- Generated by graphviz version 2.43.0 (0)
 -->
<!-- Title: race Pages: 1 -->
<svg width="716pt" height="198pt"
 viewBox="0.00 0.00 716.00 197.69" xmlns="http://www.w3.org/2000/svg" xmlns:xlink="http://www.w3.org/1999/xlink">
<g id="graph0" class="graph" transform="scale(1 1) rotate(0) translate(4 193.69)">
<title>race</title>
<polygon fill="white" stroke="transparent" points="-4,4 -4,-193.69 712,-193.69 712,4 -4,4"/>
<!-- __field__ -->
<g id="node1" class="node">
<title>__field__</title>
<path fill="#fef9c3" stroke="#ca8a04" stroke-width="2" d="M696,-96.69C696,-96.69 466,-96.69 466,-96.69 460,-96.69 454,-90.69 454,-84.69 454,-84.69 454,-72.69 454,-72.69 454,-66.69 460,-60.69 466,-60.69 466,-60.69 696,-60.69 696,-60.69 702,-60.69 708,-66.69 708,-72.69 708,-72.69 708,-84.69 708,-84.69 708,-90.69 702,-96.69 696,-96.69"/>
<text text-anchor="middle" x="581" y="-75.89" font-family="Helvetica,sans-Serif" font-size="11.00">AnyMotionDetector.mCurrentGravityVector</text>
</g>
<!-- __guard__ -->
<g id="node2" class="node">
<title>__guard__</title>
<path fill="#dcfce7" stroke="#16a34a" stroke-width="2" d="M231.5,-189.69C231.5,-189.69 94.5,-189.69 94.5,-189.69 88.5,-189.69 82.5,-183.69 82.5,-177.69 82.5,-177.69 82.5,-165.69 82.5,-165.69 82.5,-159.69 88.5,-153.69 94.5,-153.69 94.5,-153.69 231.5,-153.69 231.5,-153.69 237.5,-153.69 243.5,-159.69 243.5,-165.69 243.5,-165.69 243.5,-177.69 243.5,-177.69 243.5,-183.69 237.5,-189.69 231.5,-189.69"/>
<text text-anchor="middle" x="163" y="-168.89" font-family="Helvetica,sans-Serif" font-size="11.00">AnyMotionDetector.mLock</text>
</g>
<!-- __guard__&#45;&gt;__field__ -->
<g id="edge1" class="edge">
<title>__guard__&#45;&gt;__field__</title>
<path fill="none" stroke="#16a34a" stroke-width="1.6" d="M243.52,-161.97C297.2,-154.6 369.39,-143.1 432,-127.69 462.99,-120.07 496.83,-109.07 524.32,-99.43"/>
<polygon fill="#16a34a" stroke="#16a34a" stroke-width="1.6" points="525.29,-102.06 531.9,-96.75 523.42,-96.78 525.29,-102.06"/>
<text text-anchor="middle" x="390" y="-147.49" font-family="Helvetica,sans-Serif" font-size="9.00" fill="#15803d"> guards 2/3</text>
</g>
<!-- m::com.android.server.AnyMotionDetector.stopOrientationMeasurementLocked:()I -->
<g id="node3" class="node">
<title>m::com.android.server.AnyMotionDetector.stopOrientationMeasurementLocked:()I</title>
<path fill="#fee2e2" stroke="#dc2626" d="M314,-123.69C314,-123.69 12,-123.69 12,-123.69 6,-123.69 0,-117.69 0,-111.69 0,-111.69 0,-99.69 0,-99.69 0,-93.69 6,-87.69 12,-87.69 12,-87.69 314,-87.69 314,-87.69 320,-87.69 326,-93.69 326,-99.69 326,-99.69 326,-111.69 326,-111.69 326,-117.69 320,-123.69 314,-123.69"/>
<text text-anchor="middle" x="163" y="-102.89" font-family="Helvetica,sans-Serif" font-size="11.00">AnyMotionDetector.stopOrientationMeasurementLocked</text>
</g>
<!-- m::com.android.server.AnyMotionDetector.stopOrientationMeasurementLocked:()I&#45;&gt;__field__ -->
<g id="edge2" class="edge">
<title>m::com.android.server.AnyMotionDetector.stopOrientationMeasurementLocked:()I&#45;&gt;__field__</title>
<path fill="none" stroke="#dc2626" d="M326.17,-113.3C361.14,-113.32 397.86,-112.12 432,-108.69 453.51,-106.54 476.52,-102.66 497.83,-98.39"/>
<polygon fill="#dc2626" stroke="#dc2626" points="498.63,-101.08 505.91,-96.73 497.51,-95.59 498.63,-101.08"/>
<text text-anchor="middle" x="390" y="-115.49" font-family="Helvetica,sans-Serif" font-size="9.00" fill="#dc2626"> writes unguarded</text>
</g>
<!-- m::com.android.server.AnyMotionDetector.stopOrientationMeasurementLocked:()I&#45;&gt;__field__ -->
<g id="edge6" class="edge">
<title>m::com.android.server.AnyMotionDetector.stopOrientationMeasurementLocked:()I&#45;&gt;__field__</title>
<path fill="none" stroke="#dc2626" d="M326.03,-95.18C365.64,-92.61 407.6,-89.88 445.75,-87.41"/>
<polygon fill="#dc2626" stroke="#dc2626" points="446.03,-90.2 453.84,-86.88 445.67,-84.61 446.03,-90.2"/>
<text text-anchor="middle" x="390" y="-95.49" font-family="Helvetica,sans-Serif" font-size="9.00" fill="#dc2626"> reads unguarded</text>
</g>
<!-- m::com.android.server.AnyMotionDetector.getStationaryStatusLocked:()I -->
<g id="node4" class="node">
<title>m::com.android.server.AnyMotionDetector.getStationaryStatusLocked:()I</title>
<path fill="#fee2e2" stroke="#dc2626" d="M288.5,-41.69C288.5,-41.69 37.5,-41.69 37.5,-41.69 31.5,-41.69 25.5,-35.69 25.5,-29.69 25.5,-29.69 25.5,-17.69 25.5,-17.69 25.5,-11.69 31.5,-5.69 37.5,-5.69 37.5,-5.69 288.5,-5.69 288.5,-5.69 294.5,-5.69 300.5,-11.69 300.5,-17.69 300.5,-17.69 300.5,-29.69 300.5,-29.69 300.5,-35.69 294.5,-41.69 288.5,-41.69"/>
<text text-anchor="middle" x="163" y="-20.89" font-family="Helvetica,sans-Serif" font-size="11.00">AnyMotionDetector.getStationaryStatusLocked</text>
</g>
<!-- m::com.android.server.AnyMotionDetector.getStationaryStatusLocked:()I&#45;&gt;__field__ -->
<g id="edge3" class="edge">
<title>m::com.android.server.AnyMotionDetector.getStationaryStatusLocked:()I&#45;&gt;__field__</title>
<path fill="none" stroke="#dc2626" d="M300.21,-41.7C346.92,-47.88 399.13,-54.78 445.68,-60.94"/>
<polygon fill="#dc2626" stroke="#dc2626" points="445.4,-63.72 453.7,-62 446.14,-58.17 445.4,-63.72"/>
<text text-anchor="middle" x="390" y="-60.49" font-family="Helvetica,sans-Serif" font-size="9.00" fill="#dc2626"> reads unguarded</text>
</g>
<!-- m::com.android.server.AnyMotionDetector.getStationaryStatusLocked:()I&#45;&gt;__field__ -->
<g id="edge4" class="edge">
<title>m::com.android.server.AnyMotionDetector.getStationaryStatusLocked:()I&#45;&gt;__field__</title>
<path fill="none" stroke="#dc2626" d="M300.68,-22.01C343.01,-23.3 389.64,-26.59 432,-33.69 463.1,-38.91 496.8,-48.81 524.18,-58"/>
<polygon fill="#dc2626" stroke="#dc2626" points="523.62,-60.76 532.09,-60.69 525.42,-55.46 523.62,-60.76"/>
<text text-anchor="middle" x="390" y="-36.49" font-family="Helvetica,sans-Serif" font-size="9.00" fill="#dc2626"> reads unguarded</text>
</g>
<!-- m::com.android.server.AnyMotionDetector.getStationaryStatusLocked:()I&#45;&gt;__field__ -->
<g id="edge5" class="edge">
<title>m::com.android.server.AnyMotionDetector.getStationaryStatusLocked:()I&#45;&gt;__field__</title>
<path fill="none" stroke="#dc2626" d="M259.94,-5.66C311.5,0.87 375.85,3.92 432,-8.69 472.78,-17.85 515.54,-39.58 544.55,-56.42"/>
<polygon fill="#dc2626" stroke="#dc2626" points="543.31,-58.94 551.62,-60.59 546.15,-54.11 543.31,-58.94"/>
<text text-anchor="middle" x="390" y="-11.49" font-family="Helvetica,sans-Serif" font-size="9.00" fill="#dc2626"> reads unguarded</text>
</g>
</g>
</svg>
