<?xml version="1.0" encoding="UTF-8" standalone="no"?>
<!DOCTYPE svg PUBLIC "-//W3C//DTD SVG 1.1//EN"
 "http://www.w3.org/Graphics/SVG/1.1/DTD/svg11.dtd">
<!-- Generated by graphviz version 2.43.0 (0)
 -->
<!-- Title: race Pages: 1 -->
<svg width="655pt" height="110pt"
 viewBox="0.00 0.00 655.00 110.00" xmlns="http://www.w3.org/2000/svg" xmlns:xlink="http://www.w3.org/1999/xlink">
<g id="graph0" class="graph" transform="scale(1 1) rotate(0) translate(4 106)">
<title>race</title>
<polygon fill="white" stroke="transparent" points="-4,4 -4,-106 651,-106 651,4 -4,4"/>
<!-- __field__ -->
<g id="node1" class="node">
<title>__field__</title>
<path fill="#fef9c3" stroke="#ca8a04" stroke-width="2" d="M635,-65C635,-65 411,-65 411,-65 405,-65 399,-59 399,-53 399,-53 399,-41 399,-41 399,-35 405,-29 411,-29 411,-29 635,-29 635,-29 641,-29 647,-35 647,-41 647,-41 647,-53 647,-53 647,-59 641,-65 635,-65"/>
<text text-anchor="middle" x="523" y="-44.2" font-family="Helvetica,sans-Serif" font-size="11.00">ContextHubEndpointBroker.mIsRegistered</text>
</g>
<!-- __guard__ -->
<g id="node2" class="node">
<title>__guard__</title>
<path fill="#dcfce7" stroke="#16a34a" stroke-width="2" d="M259,-102C259,-102 12,-102 12,-102 6,-102 0,-96 0,-90 0,-90 0,-78 0,-78 0,-72 6,-66 12,-66 12,-66 259,-66 259,-66 265,-66 271,-72 271,-78 271,-78 271,-90 271,-90 271,-96 265,-102 259,-102"/>
<text text-anchor="middle" x="135.5" y="-81.2" font-family="Helvetica,sans-Serif" font-size="11.00">ContextHubEndpointBroker.mRegistrationLock</text>
</g>
<!-- __guard__&#45;&gt;__field__ -->
<g id="edge1" class="edge">
<title>__guard__&#45;&gt;__field__</title>
<path fill="none" stroke="#16a34a" stroke-width="1.6" d="M271.06,-71.09C309.79,-67.37 351.98,-63.32 390.52,-59.62"/>
<polygon fill="#16a34a" stroke="#16a34a" stroke-width="1.6" points="391,-62.39 398.69,-58.84 390.46,-56.81 391,-62.39"/>
<text text-anchor="middle" x="335" y="-70.8" font-family="Helvetica,sans-Serif" font-size="9.00" fill="#15803d"> guards 2/3</text>
</g>
<!-- m::com.android.server.location.contexthub.ContextHubEndpointBroker.registerLocked:()V -->
<g id="node3" class="node">
<title>m::com.android.server.location.contexthub.ContextHubEndpointBroker.registerLocked:()V</title>
<path fill="#fee2e2" stroke="#dc2626" d="M248.5,-36C248.5,-36 22.5,-36 22.5,-36 16.5,-36 10.5,-30 10.5,-24 10.5,-24 10.5,-12 10.5,-12 10.5,-6 16.5,0 22.5,0 22.5,0 248.5,0 248.5,0 254.5,0 260.5,-6 260.5,-12 260.5,-12 260.5,-24 260.5,-24 260.5,-30 254.5,-36 248.5,-36"/>
<text text-anchor="middle" x="135.5" y="-15.2" font-family="Helvetica,sans-Serif" font-size="11.00">ContextHubEndpointBroker.registerLocked</text>
</g>
<!-- m::com.android.server.location.contexthub.ContextHubEndpointBroker.registerLocked:()V&#45;&gt;__field__ -->
<g id="edge2" class="edge">
<title>m::com.android.server.location.contexthub.ContextHubEndpointBroker.registerLocked:()V&#45;&gt;__field__</title>
<path fill="none" stroke="#dc2626" d="M260.6,-27.34C302.16,-30.46 348.62,-33.96 390.71,-37.12"/>
<polygon fill="#dc2626" stroke="#dc2626" points="390.61,-39.92 398.8,-37.73 391.03,-34.34 390.61,-39.92"/>
<text text-anchor="middle" x="335" y="-37.8" font-family="Helvetica,sans-Serif" font-size="9.00" fill="#dc2626"> writes unguarded</text>
</g>
<!-- m::com.android.server.location.contexthub.ContextHubEndpointBroker.registerLocked:()V&#45;&gt;__field__ -->
<g id="edge3" class="edge">
<title>m::com.android.server.location.contexthub.ContextHubEndpointBroker.registerLocked:()V&#45;&gt;__field__</title>
<path fill="none" stroke="#dc2626" d="M260.68,-9.86C298.16,-9.04 339.34,-9.77 377,-14 400.75,-16.67 426.29,-21.72 449.22,-27.09"/>
<polygon fill="#dc2626" stroke="#dc2626" points="448.78,-29.86 457.21,-29 450.08,-24.42 448.78,-29.86"/>
<text text-anchor="middle" x="335" y="-16.8" font-family="Helvetica,sans-Serif" font-size="9.00" fill="#dc2626"> reads unguarded</text>
</g>
</g>
</svg>
