<?xml version="1.0" encoding="UTF-8" standalone="no"?>
<!DOCTYPE svg PUBLIC "-//W3C//DTD SVG 1.1//EN"
 "http://www.w3.org/Graphics/SVG/1.1/DTD/svg11.dtd">
<!-- Generated by graphviz version 2.43.0 (0)
 -->
<!-- Title: race Pages: 1 -->
<svg width="739pt" height="102pt"
 viewBox="0.00 0.00 739.00 102.00" xmlns="http://www.w3.org/2000/svg" xmlns:xlink="http://www.w3.org/1999/xlink">
<g id="graph0" class="graph" transform="scale(1 1) rotate(0) translate(4 98)">
<title>race</title>
<polygon fill="white" stroke="transparent" points="-4,4 -4,-98 735,-98 735,4 -4,4"/>
<!-- __field__ -->
<g id="node1" class="node">
<title>__field__</title>
<path fill="#fef9c3" stroke="#ca8a04" stroke-width="2" d="M719,-65C719,-65 466,-65 466,-65 460,-65 454,-59 454,-53 454,-53 454,-41 454,-41 454,-35 460,-29 466,-29 466,-29 719,-29 719,-29 725,-29 731,-35 731,-41 731,-41 731,-53 731,-53 731,-59 725,-65 719,-65"/>
<text text-anchor="middle" x="592.5" y="-44.2" font-family="Helvetica,sans-Serif" font-size="11.00">AnyMotionDetector.mWakelockTimeoutIsActive</text>
</g>
<!-- __guard__ -->
<g id="node2" class="node">
<title>__guard__</title>
<path fill="#dcfce7" stroke="#16a34a" stroke-width="2" d="M231.5,-94C231.5,-94 94.5,-94 94.5,-94 88.5,-94 82.5,-88 82.5,-82 82.5,-82 82.5,-70 82.5,-70 82.5,-64 88.5,-58 94.5,-58 94.5,-58 231.5,-58 231.5,-58 237.5,-58 243.5,-64 243.5,-70 243.5,-70 243.5,-82 243.5,-82 243.5,-88 237.5,-94 231.5,-94"/>
<text text-anchor="middle" x="163" y="-73.2" font-family="Helvetica,sans-Serif" font-size="11.00">AnyMotionDetector.mLock</text>
</g>
<!-- __guard__&#45;&gt;__field__ -->
<g id="edge1" class="edge">
<title>__guard__&#45;&gt;__field__</title>
<path fill="none" stroke="#16a34a" stroke-width="1.6" d="M243.66,-70.6C300.3,-66.75 378.01,-61.48 445.61,-56.9"/>
<polygon fill="#16a34a" stroke="#16a34a" stroke-width="1.6" points="446.02,-59.68 453.81,-56.34 445.64,-54.09 446.02,-59.68"/>
<text text-anchor="middle" x="390" y="-65.8" font-family="Helvetica,sans-Serif" font-size="9.00" fill="#15803d"> guards 2/3</text>
</g>
<!-- m::com.android.server.AnyMotionDetector.stopOrientationMeasurementLocked:()I -->
<g id="node3" class="node">
<title>m::com.android.server.AnyMotionDetector.stopOrientationMeasurementLocked:()I</title>
<path fill="#fee2e2" stroke="#dc2626" d="M314,-36C314,-36 12,-36 12,-36 6,-36 0,-30 0,-24 0,-24 0,-12 0,-12 0,-6 6,0 12,0 12,0 314,0 314,0 320,0 326,-6 326,-12 326,-12 326,-24 326,-24 326,-30 320,-36 314,-36"/>
<text text-anchor="middle" x="163" y="-15.2" font-family="Helvetica,sans-Serif" font-size="11.00">AnyMotionDetector.stopOrientationMeasurementLocked</text>
</g>
<!-- m::com.android.server.AnyMotionDetector.stopOrientationMeasurementLocked:()I&#45;&gt;__field__ -->
<g id="edge2" class="edge">
<title>m::com.android.server.AnyMotionDetector.stopOrientationMeasurementLocked:()I&#45;&gt;__field__</title>
<path fill="none" stroke="#dc2626" d="M326.23,-29.01C365.48,-31.67 407.2,-34.5 445.65,-37.11"/>
<polygon fill="#dc2626" stroke="#dc2626" points="445.63,-39.91 453.8,-37.66 446.01,-34.32 445.63,-39.91"/>
<text text-anchor="middle" x="390" y="-37.8" font-family="Helvetica,sans-Serif" font-size="9.00" fill="#dc2626"> writes unguarded</text>
</g>
</g>
</svg>
