<?xml version="1.0" encoding="UTF-8" standalone="no"?>
<!DOCTYPE svg PUBLIC "-//W3C//DTD SVG 1.1//EN"
 "http://www.w3.org/Graphics/SVG/1.1/DTD/svg11.dtd">
<!-- Generated by graphviz version 2.43.0 (0)
 -->
<!-- Title: race Pages: 1 -->
<svg width="962pt" height="266pt"
 viewBox="0.00 0.00 962.00 266.00" xmlns="http://www.w3.org/2000/svg" xmlns:xlink="http://www.w3.org/1999/xlink">
<g id="graph0" class="graph" transform="scale(1 1) rotate(0) translate(4 262)">
<title>race</title>
<polygon fill="white" stroke="transparent" points="-4,4 -4,-262 958,-262 958,4 -4,4"/>
<!-- __field__ -->
<g id="node1" class="node">
<title>__field__</title>
<path fill="#fef9c3" stroke="#ca8a04" stroke-width="2" d="M942,-147C942,-147 601,-147 601,-147 595,-147 589,-141 589,-135 589,-135 589,-123 589,-123 589,-117 595,-111 601,-111 601,-111 942,-111 942,-111 948,-111 954,-117 954,-123 954,-123 954,-135 954,-135 954,-141 948,-147 942,-147"/>
<text text-anchor="middle" x="771.5" y="-126.2" font-family="Helvetica,sans-Serif" font-size="11.00">AutofillManagerServiceImpl.mRemoteAugmentedAutofillService</text>
</g>
<!-- __guard__ -->
<g id="node2" class="node">
<title>__guard__</title>
<path fill="#dcfce7" stroke="#16a34a" stroke-width="2" d="M332,-258C332,-258 129,-258 129,-258 123,-258 117,-252 117,-246 117,-246 117,-234 117,-234 117,-228 123,-222 129,-222 129,-222 332,-222 332,-222 338,-222 344,-228 344,-234 344,-234 344,-246 344,-246 344,-252 338,-258 332,-258"/>
<text text-anchor="middle" x="230.5" y="-237.2" font-family="Helvetica,sans-Serif" font-size="11.00">AbstractPerUserSystemService.mLock</text>
</g>
<!-- __guard__&#45;&gt;__field__ -->
<g id="edge1" class="edge">
<title>__guard__&#45;&gt;__field__</title>
<path fill="none" stroke="#16a34a" stroke-width="1.6" d="M344.3,-231.08C409.85,-224.52 493.73,-213.77 567,-197 619.02,-185.09 676.55,-165.22 717.13,-150.02"/>
<polygon fill="#16a34a" stroke="#16a34a" stroke-width="1.6" points="718.26,-152.59 724.76,-147.14 716.29,-147.35 718.26,-152.59"/>
<text text-anchor="middle" x="525" y="-214.8" font-family="Helvetica,sans-Serif" font-size="9.00" fill="#15803d"> guards 2/3</text>
</g>
<!-- m::com.android.server.autofill.AutofillManagerServiceImpl.getRemoteAugmentedAutofillServiceLocked:()Lcom/android/server/autofill/RemoteAugmentedAutofillService; -->
<g id="node3" class="node">
<title>m::com.android.server.autofill.AutofillManagerServiceImpl.getRemoteAugmentedAutofillServiceLocked:()Lcom/android/server/autofill/RemoteAugmentedAutofillService;</title>
<path fill="#fee2e2" stroke="#dc2626" d="M424,-184C424,-184 37,-184 37,-184 31,-184 25,-178 25,-172 25,-172 25,-160 25,-160 25,-154 31,-148 37,-148 37,-148 424,-148 424,-148 430,-148 436,-154 436,-160 436,-160 436,-172 436,-172 436,-178 430,-184 424,-184"/>
<text text-anchor="middle" x="230.5" y="-163.2" font-family="Helvetica,sans-Serif" font-size="11.00">AutofillManagerServiceImpl.getRemoteAugmentedAutofillServiceLocked</text>
</g>
<!-- m::com.android.server.autofill.AutofillManagerServiceImpl.getRemoteAugmentedAutofillServiceLocked:()Lcom/android/server/autofill/RemoteAugmentedAutofillService;&#45;&gt;__field__ -->
<g id="edge2" class="edge">
<title>m::com.android.server.autofill.AutofillManagerServiceImpl.getRemoteAugmentedAutofillServiceLocked:()Lcom/android/server/autofill/RemoteAugmentedAutofillService;&#45;&gt;__field__</title>
<path fill="none" stroke="#dc2626" d="M436.38,-182.37C479.61,-183.13 524.89,-181.9 567,-177 612.61,-171.69 662.84,-159.91 701.98,-149.35"/>
<polygon fill="#dc2626" stroke="#dc2626" points="703.18,-151.92 710.16,-147.12 701.7,-146.52 703.18,-151.92"/>
<text text-anchor="middle" x="525" y="-184.8" font-family="Helvetica,sans-Serif" font-size="9.00" fill="#dc2626"> writes unguarded</text>
</g>
<!-- m::com.android.server.autofill.AutofillManagerServiceImpl.getRemoteAugmentedAutofillServiceLocked:()Lcom/android/server/autofill/RemoteAugmentedAutofillService;&#45;&gt;__field__ -->
<g id="edge6" class="edge">
<title>m::com.android.server.autofill.AutofillManagerServiceImpl.getRemoteAugmentedAutofillServiceLocked:()Lcom/android/server/autofill/RemoteAugmentedAutofillService;&#45;&gt;__field__</title>
<path fill="none" stroke="#dc2626" d="M436.04,-151.96C483.48,-148.7 533.77,-145.25 580.55,-142.04"/>
<polygon fill="#dc2626" stroke="#dc2626" points="580.84,-144.83 588.63,-141.48 580.46,-139.24 580.84,-144.83"/>
<text text-anchor="middle" x="525" y="-150.8" font-family="Helvetica,sans-Serif" font-size="9.00" fill="#dc2626"> reads unguarded</text>
</g>
<!-- m::com.android.server.autofill.AutofillManagerServiceImpl.getRemoteAugmentedAutofillServiceLocked:()Lcom/android/server/autofill/RemoteAugmentedAutofillService;&#45;&gt;__field__ -->
<g id="edge7" class="edge">
<title>m::com.android.server.autofill.AutofillManagerServiceImpl.getRemoteAugmentedAutofillServiceLocked:()Lcom/android/server/autofill/RemoteAugmentedAutofillService;&#45;&gt;__field__</title>
<path fill="none" stroke="#dc2626" d="M330.88,-147.96C376.98,-140.48 432.6,-132.69 483,-129 514.55,-126.69 548.1,-125.53 580.73,-125.08"/>
<polygon fill="#dc2626" stroke="#dc2626" points="581.03,-127.88 589,-124.98 580.97,-122.28 581.03,-127.88"/>
<text text-anchor="middle" x="525" y="-131.8" font-family="Helvetica,sans-Serif" font-size="9.00" fill="#dc2626"> reads unguarded</text>
</g>
<!-- m::com.android.server.autofill.AutofillManagerServiceImpl.dumpLocked:(Ljava/lang/String;Ljava/io/PrintWriter;)V -->
<g id="node4" class="node">
<title>m::com.android.server.autofill.AutofillManagerServiceImpl.dumpLocked:(Ljava/lang/String;Ljava/io/PrintWriter;)V</title>
<path fill="#fee2e2" stroke="#dc2626" d="M338,-102C338,-102 123,-102 123,-102 117,-102 111,-96 111,-90 111,-90 111,-78 111,-78 111,-72 117,-66 123,-66 123,-66 338,-66 338,-66 344,-66 350,-72 350,-78 350,-78 350,-90 350,-90 350,-96 344,-102 338,-102"/>
<text text-anchor="middle" x="230.5" y="-81.2" font-family="Helvetica,sans-Serif" font-size="11.00">AutofillManagerServiceImpl.dumpLocked</text>
</g>
<!-- m::com.android.server.autofill.AutofillManagerServiceImpl.dumpLocked:(Ljava/lang/String;Ljava/io/PrintWriter;)V&#45;&gt;__field__ -->
<g id="edge3" class="edge">
<title>m::com.android.server.autofill.AutofillManagerServiceImpl.dumpLocked:(Ljava/lang/String;Ljava/io/PrintWriter;)V&#45;&gt;__field__</title>
<path fill="none" stroke="#dc2626" d="M350.32,-92.75C414.5,-97.59 495.11,-103.86 567,-110 571.47,-110.38 576,-110.77 580.57,-111.17"/>
<polygon fill="#dc2626" stroke="#dc2626" points="580.62,-113.99 588.83,-111.89 581.11,-108.41 580.62,-113.99"/>
<text text-anchor="middle" x="525" y="-112.8" font-family="Helvetica,sans-Serif" font-size="9.00" fill="#dc2626"> reads unguarded</text>
</g>
<!-- m::com.android.server.autofill.AutofillManagerServiceImpl.dumpLocked:(Ljava/lang/String;Ljava/io/PrintWriter;)V&#45;&gt;__field__ -->
<g id="edge4" class="edge">
<title>m::com.android.server.autofill.AutofillManagerServiceImpl.dumpLocked:(Ljava/lang/String;Ljava/io/PrintWriter;)V&#45;&gt;__field__</title>
<path fill="none" stroke="#dc2626" d="M350.21,-80.03C414.54,-79.23 495.31,-80.42 567,-88 607.99,-92.33 652.97,-100.98 690.19,-109.22"/>
<polygon fill="#dc2626" stroke="#dc2626" points="689.6,-111.95 698.01,-110.97 690.82,-106.49 689.6,-111.95"/>
<text text-anchor="middle" x="525" y="-90.8" font-family="Helvetica,sans-Serif" font-size="9.00" fill="#dc2626"> reads unguarded</text>
</g>
<!-- m::com.android.server.autofill.AutofillManagerServiceImpl.getRemoteAugmentedAutofillServiceIfCreatedLocked:()Lcom/android/server/autofill/RemoteAugmentedAutofillService; -->
<g id="node5" class="node">
<title>m::com.android.server.autofill.AutofillManagerServiceImpl.getRemoteAugmentedAutofillServiceIfCreatedLocked:()Lcom/android/server/autofill/RemoteAugmentedAutofillService;</title>
<path fill="#fee2e2" stroke="#dc2626" d="M449,-36C449,-36 12,-36 12,-36 6,-36 0,-30 0,-24 0,-24 0,-12 0,-12 0,-6 6,0 12,0 12,0 449,0 449,0 455,0 461,-6 461,-12 461,-12 461,-24 461,-24 461,-30 455,-36 449,-36"/>
<text text-anchor="middle" x="230.5" y="-15.2" font-family="Helvetica,sans-Serif" font-size="11.00">AutofillManagerServiceImpl.getRemoteAugmentedAutofillServiceIfCreatedLocked</text>
</g>
<!-- m::com.android.server.autofill.AutofillManagerServiceImpl.getRemoteAugmentedAutofillServiceIfCreatedLocked:()Lcom/android/server/autofill/RemoteAugmentedAutofillService;&#45;&gt;__field__ -->
<g id="edge5" class="edge">
<title>m::com.android.server.autofill.AutofillManagerServiceImpl.getRemoteAugmentedAutofillServiceIfCreatedLocked:()Lcom/android/server/autofill/RemoteAugmentedAutofillService;&#45;&gt;__field__</title>
<path fill="none" stroke="#dc2626" d="M394.13,-36C449.34,-43.51 511.17,-53.45 567,-66 616.83,-77.2 672.12,-94.65 712.48,-108.35"/>
<polygon fill="#dc2626" stroke="#dc2626" points="711.61,-111.01 720.09,-110.95 713.42,-105.71 711.61,-111.01"/>
<text text-anchor="middle" x="525" y="-68.8" font-family="Helvetica,sans-Serif" font-size="9.00" fill="#dc2626"> reads unguarded</text>
</g>
</g>
</svg>
