<?xml version="1.0" encoding="UTF-8" standalone="no"?>
<!DOCTYPE svg PUBLIC "-//W3C//DTD SVG 1.1//EN"
 "http://www.w3.org/Graphics/SVG/1.1/DTD/svg11.dtd">
<!-- Generated by graphviz version 2.43.0 (0)
 -->
<!-- Title: race Pages: 1 -->
<svg width="816pt" height="160pt"
 viewBox="0.00 0.00 816.00 160.00" xmlns="http://www.w3.org/2000/svg" xmlns:xlink="http://www.w3.org/1999/xlink">
<g id="graph0" class="graph" transform="scale(1 1) rotate(0) translate(4 156)">
<title>race</title>
<polygon fill="white" stroke="transparent" points="-4,4 -4,-156 812,-156 812,4 -4,4"/>
<!-- __field__ -->
<g id="node1" class="node">
<title>__field__</title>
<path fill="#fef9c3" stroke="#ca8a04" stroke-width="2" d="M796,-94C796,-94 453,-94 453,-94 447,-94 441,-88 441,-82 441,-82 441,-70 441,-70 441,-64 447,-58 453,-58 453,-58 796,-58 796,-58 802,-58 808,-64 808,-70 808,-70 808,-82 808,-82 808,-88 802,-94 796,-94"/>
<text text-anchor="middle" x="624.5" y="-73.2" font-family="Helvetica,sans-Serif" font-size="11.00">Session$ClassificationState.mPendingFieldClassificationRequest</text>
</g>
<!-- __guard__ -->
<g id="node2" class="node">
<title>__guard__</title>
<path fill="#dcfce7" stroke="#16a34a" stroke-width="2" d="M258,-152C258,-152 55,-152 55,-152 49,-152 43,-146 43,-140 43,-140 43,-128 43,-128 43,-122 49,-116 55,-116 55,-116 258,-116 258,-116 264,-116 270,-122 270,-128 270,-128 270,-140 270,-140 270,-146 264,-152 258,-152"/>
<text text-anchor="middle" x="156.5" y="-131.2" font-family="Helvetica,sans-Serif" font-size="11.00">AbstractPerUserSystemService.mLock</text>
</g>
<!-- __guard__&#45;&gt;__field__ -->
<g id="edge1" class="edge">
<title>__guard__&#45;&gt;__field__</title>
<path fill="none" stroke="#16a34a" stroke-width="1.6" d="M270.01,-120C330.06,-112.52 404.85,-103.21 470.15,-95.09"/>
<polygon fill="#16a34a" stroke="#16a34a" stroke-width="1.6" points="470.88,-97.82 478.47,-94.05 470.19,-92.26 470.88,-97.82"/>
<text text-anchor="middle" x="377" y="-113.8" font-family="Helvetica,sans-Serif" font-size="9.00" fill="#15803d"> guards 2/3</text>
</g>
<!-- m::com.android.server.autofill.Session$ClassificationState.updateResponseReceived:(Landroid/service/assist/classification/FieldClassificationResponse;)V -->
<g id="node3" class="node">
<title>m::com.android.server.autofill.Session$ClassificationState.updateResponseReceived:(Landroid/service/assist/classification/FieldClassificationResponse;)V</title>
<path fill="#fee2e2" stroke="#dc2626" d="M301,-94C301,-94 12,-94 12,-94 6,-94 0,-88 0,-82 0,-82 0,-70 0,-70 0,-64 6,-58 12,-58 12,-58 301,-58 301,-58 307,-58 313,-64 313,-70 313,-70 313,-82 313,-82 313,-88 307,-94 301,-94"/>
<text text-anchor="middle" x="156.5" y="-73.2" font-family="Helvetica,sans-Serif" font-size="11.00">Session$ClassificationState.updateResponseReceived</text>
</g>
<!-- m::com.android.server.autofill.Session$ClassificationState.updateResponseReceived:(Landroid/service/assist/classification/FieldClassificationResponse;)V&#45;&gt;__field__ -->
<g id="edge2" class="edge">
<title>m::com.android.server.autofill.Session$ClassificationState.updateResponseReceived:(Landroid/service/assist/classification/FieldClassificationResponse;)V&#45;&gt;__field__</title>
<path fill="none" stroke="#dc2626" d="M313.32,-76C351.48,-76 392.76,-76 432.37,-76"/>
<polygon fill="#dc2626" stroke="#dc2626" points="432.8,-78.8 440.8,-76 432.8,-73.2 432.8,-78.8"/>
<text text-anchor="middle" x="377" y="-78.8" font-family="Helvetica,sans-Serif" font-size="9.00" fill="#dc2626"> writes unguarded</text>
</g>
<!-- m::com.android.server.autofill.Session$ClassificationState.toString:()Ljava/lang/String; -->
<g id="node4" class="node">
<title>m::com.android.server.autofill.Session$ClassificationState.toString:()Ljava/lang/String;</title>
<path fill="#fee2e2" stroke="#dc2626" d="M252,-36C252,-36 61,-36 61,-36 55,-36 49,-30 49,-24 49,-24 49,-12 49,-12 49,-6 55,0 61,0 61,0 252,0 252,0 258,0 264,-6 264,-12 264,-12 264,-24 264,-24 264,-30 258,-36 252,-36"/>
<text text-anchor="middle" x="156.5" y="-15.2" font-family="Helvetica,sans-Serif" font-size="11.00">Session$ClassificationState.toString</text>
</g>
<!-- m::com.android.server.autofill.Session$ClassificationState.toString:()Ljava/lang/String;&#45;&gt;__field__ -->
<g id="edge3" class="edge">
<title>m::com.android.server.autofill.Session$ClassificationState.toString:()Ljava/lang/String;&#45;&gt;__field__</title>
<path fill="none" stroke="#dc2626" d="M264.12,-31.27C325.18,-38.87 402.84,-48.54 470.33,-56.94"/>
<polygon fill="#dc2626" stroke="#dc2626" points="470.22,-59.74 478.51,-57.95 470.92,-54.19 470.22,-59.74"/>
<text text-anchor="middle" x="377" y="-52.8" font-family="Helvetica,sans-Serif" font-size="9.00" fill="#dc2626"> reads unguarded</text>
</g>
</g>
</svg>
