<?xml version="1.0" encoding="UTF-8" standalone="no"?>
<!DOCTYPE svg PUBLIC "-//W3C//DTD SVG 1.1//EN"
 "http://www.w3.org/Graphics/SVG/1.1/DTD/svg11.dtd">
<!-- Generated by graphviz version 2.43.0 (0)
 -->
<!-- Title: race Pages: 1 -->
<svg width="741pt" height="334pt"
 viewBox="0.00 0.00 741.00 334.00" xmlns="http://www.w3.org/2000/svg" xmlns:xlink="http://www.w3.org/1999/xlink">
<g id="graph0" class="graph" transform="scale(1 1) rotate(0) translate(4 330)">
<title>race</title>
<polygon fill="white" stroke="transparent" points="-4,4 -4,-330 737,-330 737,4 -4,4"/>
<!-- __field__ -->
<g id="node1" class="node">
<title>__field__</title>
<path fill="#fef9c3" stroke="#ca8a04" stroke-width="2" d="M721,-170C721,-170 467,-170 467,-170 461,-170 455,-164 455,-158 455,-158 455,-146 455,-146 455,-140 461,-134 467,-134 467,-134 721,-134 721,-134 727,-134 733,-140 733,-146 733,-146 733,-158 733,-158 733,-164 727,-170 721,-170"/>
<text text-anchor="middle" x="594" y="-149.2" font-family="Helvetica,sans-Serif" font-size="11.00">PreferencesHelper$PackagePreferences.priority</text>
</g>
<!-- __guard__ -->
<g id="node2" class="node">
<title>__guard__</title>
<path fill="#dcfce7" stroke="#16a34a" stroke-width="2" d="M229.5,-326C229.5,-326 97.5,-326 97.5,-326 91.5,-326 85.5,-320 85.5,-314 85.5,-314 85.5,-302 85.5,-302 85.5,-296 91.5,-290 97.5,-290 97.5,-290 229.5,-290 229.5,-290 235.5,-290 241.5,-296 241.5,-302 241.5,-302 241.5,-314 241.5,-314 241.5,-320 235.5,-326 229.5,-326"/>
<text text-anchor="middle" x="163.5" y="-305.2" font-family="Helvetica,sans-Serif" font-size="11.00">PreferencesHelper.mLock</text>
</g>
<!-- __guard__&#45;&gt;__field__ -->
<g id="edge1" class="edge">
<title>__guard__&#45;&gt;__field__</title>
<path fill="none" stroke="#16a34a" stroke-width="1.6" d="M241.76,-297.73C269,-293.18 299.64,-287.02 327,-279 413.13,-253.76 506.08,-203.5 556.09,-174.35"/>
<polygon fill="#16a34a" stroke="#16a34a" stroke-width="1.6" points="557.67,-176.67 563.16,-170.2 554.84,-171.84 557.67,-176.67"/>
<text text-anchor="middle" x="391" y="-273.8" font-family="Helvetica,sans-Serif" font-size="9.00" fill="#15803d"> guards 2/3</text>
</g>
<!-- m::com.android.server.notification.PreferencesHelper.restorePackageLocked:(Lcom/android/modules/utils/TypedXmlPullParser;ZILjava/lang/String;ZZ)V -->
<g id="node3" class="node">
<title>m::com.android.server.notification.PreferencesHelper.restorePackageLocked:(Lcom/android/modules/utils/TypedXmlPullParser;ZILjava/lang/String;ZZ)V</title>
<path fill="#fee2e2" stroke="#dc2626" d="M273.5,-268C273.5,-268 53.5,-268 53.5,-268 47.5,-268 41.5,-262 41.5,-256 41.5,-256 41.5,-244 41.5,-244 41.5,-238 47.5,-232 53.5,-232 53.5,-232 273.5,-232 273.5,-232 279.5,-232 285.5,-238 285.5,-244 285.5,-244 285.5,-256 285.5,-256 285.5,-262 279.5,-268 273.5,-268"/>
<text text-anchor="middle" x="163.5" y="-247.2" font-family="Helvetica,sans-Serif" font-size="11.00">PreferencesHelper.restorePackageLocked</text>
</g>
<!-- m::com.android.server.notification.PreferencesHelper.restorePackageLocked:(Lcom/android/modules/utils/TypedXmlPullParser;ZILjava/lang/String;ZZ)V&#45;&gt;__field__ -->
<g id="edge2" class="edge">
<title>m::com.android.server.notification.PreferencesHelper.restorePackageLocked:(Lcom/android/modules/utils/TypedXmlPullParser;ZILjava/lang/String;ZZ)V&#45;&gt;__field__</title>
<path fill="none" stroke="#dc2626" d="M285.52,-232.39C331.93,-224.7 385.21,-214.74 433,-203 467.05,-194.63 504.41,-182.87 534.47,-172.76"/>
<polygon fill="#dc2626" stroke="#dc2626" points="535.66,-175.31 542.34,-170.09 533.87,-170 535.66,-175.31"/>
<text text-anchor="middle" x="391" y="-222.8" font-family="Helvetica,sans-Serif" font-size="9.00" fill="#dc2626"> writes unguarded</text>
</g>
<!-- m::com.android.server.notification.PreferencesHelper.createDefaultChannelIfNeededLocked:(Lcom/android/server/notification/PreferencesHelper$PackagePreferences;)Z -->
<g id="node4" class="node">
<title>m::com.android.server.notification.PreferencesHelper.createDefaultChannelIfNeededLocked:(Lcom/android/server/notification/PreferencesHelper$PackagePreferences;)Z</title>
<path fill="#fee2e2" stroke="#dc2626" d="M315,-210C315,-210 12,-210 12,-210 6,-210 0,-204 0,-198 0,-198 0,-186 0,-186 0,-180 6,-174 12,-174 12,-174 315,-174 315,-174 321,-174 327,-180 327,-186 327,-186 327,-198 327,-198 327,-204 321,-210 315,-210"/>
<text text-anchor="middle" x="163.5" y="-189.2" font-family="Helvetica,sans-Serif" font-size="11.00">PreferencesHelper.createDefaultChannelIfNeededLocked</text>
</g>
<!-- m::com.android.server.notification.PreferencesHelper.createDefaultChannelIfNeededLocked:(Lcom/android/server/notification/PreferencesHelper$PackagePreferences;)Z&#45;&gt;__field__ -->
<g id="edge3" class="edge">
<title>m::com.android.server.notification.PreferencesHelper.createDefaultChannelIfNeededLocked:(Lcom/android/server/notification/PreferencesHelper$PackagePreferences;)Z&#45;&gt;__field__</title>
<path fill="none" stroke="#dc2626" d="M327,-189.82C362.04,-188.27 398.81,-185.82 433,-182 455.26,-179.51 479.08,-175.69 501.35,-171.6"/>
<polygon fill="#dc2626" stroke="#dc2626" points="502.13,-174.3 509.48,-170.08 501.1,-168.79 502.13,-174.3"/>
<text text-anchor="middle" x="391" y="-190.8" font-family="Helvetica,sans-Serif" font-size="9.00" fill="#dc2626"> reads unguarded</text>
</g>
<!-- m::com.android.server.notification.PreferencesHelper.createDefaultChannelIfNeededLocked:(Lcom/android/server/notification/PreferencesHelper$PackagePreferences;)Z&#45;&gt;__field__ -->
<g id="edge4" class="edge">
<title>m::com.android.server.notification.PreferencesHelper.createDefaultChannelIfNeededLocked:(Lcom/android/server/notification/PreferencesHelper$PackagePreferences;)Z&#45;&gt;__field__</title>
<path fill="none" stroke="#dc2626" d="M319.48,-173.95C329.47,-172.92 339.37,-171.92 349,-171 380.58,-167.97 414.5,-165.1 446.7,-162.54"/>
<polygon fill="#dc2626" stroke="#dc2626" points="447.1,-165.32 454.85,-161.9 446.66,-159.73 447.1,-165.32"/>
<text text-anchor="middle" x="391" y="-173.8" font-family="Helvetica,sans-Serif" font-size="9.00" fill="#dc2626"> reads unguarded</text>
</g>
<!-- m::com.android.server.notification.PreferencesHelper.dumpPackagePreferencesLocked:(Landroid/util/proto/ProtoOutputStream;JLcom/android/server/notification/NotificationManagerService$DumpFilter;Landroid/util/ArrayMap;Landroid/util/ArrayMap;)V -->
<g id="node5" class="node">
<title>m::com.android.server.notification.PreferencesHelper.dumpPackagePreferencesLocked:(Landroid/util/proto/ProtoOutputStream;JLcom/android/server/notification/NotificationManagerService$DumpFilter;Landroid/util/ArrayMap;Landroid/util/ArrayMap;)V</title>
<path fill="#fee2e2" stroke="#dc2626" d="M301.5,-152C301.5,-152 25.5,-152 25.5,-152 19.5,-152 13.5,-146 13.5,-140 13.5,-140 13.5,-128 13.5,-128 13.5,-122 19.5,-116 25.5,-116 25.5,-116 301.5,-116 301.5,-116 307.5,-116 313.5,-122 313.5,-128 313.5,-128 313.5,-140 313.5,-140 313.5,-146 307.5,-152 301.5,-152"/>
<text text-anchor="middle" x="163.5" y="-131.2" font-family="Helvetica,sans-Serif" font-size="11.00">PreferencesHelper.dumpPackagePreferencesLocked</text>
</g>
<!-- m::com.android.server.notification.PreferencesHelper.dumpPackagePreferencesLocked:(Landroid/util/proto/ProtoOutputStream;JLcom/android/server/notification/NotificationManagerService$DumpFilter;Landroid/util/ArrayMap;Landroid/util/ArrayMap;)V&#45;&gt;__field__ -->
<g id="edge5" class="edge">
<title>m::com.android.server.notification.PreferencesHelper.dumpPackagePreferencesLocked:(Landroid/util/proto/ProtoOutputStream;JLcom/android/server/notification/NotificationManagerService$DumpFilter;Landroid/util/ArrayMap;Landroid/util/ArrayMap;)V&#45;&gt;__field__</title>
<path fill="none" stroke="#dc2626" d="M313.71,-131.03C352.57,-131.07 394.37,-131.83 433,-134 437.45,-134.25 441.96,-134.54 446.52,-134.86"/>
<polygon fill="#dc2626" stroke="#dc2626" points="446.57,-137.67 454.76,-135.47 446.98,-132.09 446.57,-137.67"/>
<text text-anchor="middle" x="391" y="-136.8" font-family="Helvetica,sans-Serif" font-size="9.00" fill="#dc2626"> reads unguarded</text>
</g>
<!-- m::com.android.server.notification.PreferencesHelper.dumpPackagePreferencesLocked:(Ljava/io/PrintWriter;Ljava/lang/String;Lcom/android/server/notification/NotificationManagerService$DumpFilter;Landroid/util/ArrayMap;Landroid/util/ArrayMap;)V -->
<g id="node6" class="node">
<title>m::com.android.server.notification.PreferencesHelper.dumpPackagePreferencesLocked:(Ljava/io/PrintWriter;Ljava/lang/String;Lcom/android/server/notification/NotificationManagerService$DumpFilter;Landroid/util/ArrayMap;Landroid/util/ArrayMap;)V</title>
<path fill="#fee2e2" stroke="#dc2626" d="M301.5,-94C301.5,-94 25.5,-94 25.5,-94 19.5,-94 13.5,-88 13.5,-82 13.5,-82 13.5,-70 13.5,-70 13.5,-64 19.5,-58 25.5,-58 25.5,-58 301.5,-58 301.5,-58 307.5,-58 313.5,-64 313.5,-70 313.5,-70 313.5,-82 313.5,-82 313.5,-88 307.5,-94 301.5,-94"/>
<text text-anchor="middle" x="163.5" y="-73.2" font-family="Helvetica,sans-Serif" font-size="11.00">PreferencesHelper.dumpPackagePreferencesLocked</text>
</g>
<!-- m::com.android.server.notification.PreferencesHelper.dumpPackagePreferencesLocked:(Ljava/io/PrintWriter;Ljava/lang/String;Lcom/android/server/notification/NotificationManagerService$DumpFilter;Landroid/util/ArrayMap;Landroid/util/ArrayMap;)V&#45;&gt;__field__ -->
<g id="edge6" class="edge">
<title>m::com.android.server.notification.PreferencesHelper.dumpPackagePreferencesLocked:(Ljava/io/PrintWriter;Ljava/lang/String;Lcom/android/server/notification/NotificationManagerService$DumpFilter;Landroid/util/ArrayMap;Landroid/util/ArrayMap;)V&#45;&gt;__field__</title>
<path fill="none" stroke="#dc2626" d="M298.66,-94.01C341.68,-100.32 389.45,-107.87 433,-116 458.13,-120.69 485.31,-126.52 510.02,-132.11"/>
<polygon fill="#dc2626" stroke="#dc2626" points="509.52,-134.87 517.95,-133.92 510.77,-129.41 509.52,-134.87"/>
<text text-anchor="middle" x="391" y="-118.8" font-family="Helvetica,sans-Serif" font-size="9.00" fill="#dc2626"> reads unguarded</text>
</g>
<!-- m::com.android.server.notification.PreferencesHelper.dumpPackagePreferencesLocked:(Ljava/io/PrintWriter;Ljava/lang/String;Lcom/android/server/notification/NotificationManagerService$DumpFilter;Landroid/util/ArrayMap;Landroid/util/ArrayMap;)V&#45;&gt;__field__ -->
<g id="edge7" class="edge">
<title>m::com.android.server.notification.PreferencesHelper.dumpPackagePreferencesLocked:(Ljava/io/PrintWriter;Ljava/lang/String;Lcom/android/server/notification/NotificationManagerService$DumpFilter;Landroid/util/ArrayMap;Landroid/util/ArrayMap;)V&#45;&gt;__field__</title>
<path fill="none" stroke="#dc2626" d="M313.73,-73C352.88,-74.69 394.81,-78.72 433,-87 474.78,-96.05 519.65,-115.18 551.21,-130.36"/>
<polygon fill="#dc2626" stroke="#dc2626" points="550.11,-132.94 558.53,-133.92 552.56,-127.9 550.11,-132.94"/>
<text text-anchor="middle" x="391" y="-89.8" font-family="Helvetica,sans-Serif" font-size="9.00" fill="#dc2626"> reads unguarded</text>
</g>
<!-- m::com.android.server.notification.PreferencesHelper.writePackageXml:(Lcom/android/server/notification/PreferencesHelper$PackagePreferences;Lcom/android/modules/utils/TypedXmlSerializer;Landroid/util/ArrayMap;Z)V -->
<g id="node7" class="node">
<title>m::com.android.server.notification.PreferencesHelper.writePackageXml:(Lcom/android/server/notification/PreferencesHelper$PackagePreferences;Lcom/android/modules/utils/TypedXmlSerializer;Landroid/util/ArrayMap;Z)V</title>
<path fill="#fee2e2" stroke="#dc2626" d="M259,-36C259,-36 68,-36 68,-36 62,-36 56,-30 56,-24 56,-24 56,-12 56,-12 56,-6 62,0 68,0 68,0 259,0 259,0 265,0 271,-6 271,-12 271,-12 271,-24 271,-24 271,-30 265,-36 259,-36"/>
<text text-anchor="middle" x="163.5" y="-15.2" font-family="Helvetica,sans-Serif" font-size="11.00">PreferencesHelper.writePackageXml</text>
</g>
<!-- m::com.android.server.notification.PreferencesHelper.writePackageXml:(Lcom/android/server/notification/PreferencesHelper$PackagePreferences;Lcom/android/modules/utils/TypedXmlSerializer;Landroid/util/ArrayMap;Z)V&#45;&gt;__field__ -->
<g id="edge8" class="edge">
<title>m::com.android.server.notification.PreferencesHelper.writePackageXml:(Lcom/android/server/notification/PreferencesHelper$PackagePreferences;Lcom/android/modules/utils/TypedXmlSerializer;Landroid/util/ArrayMap;Z)V&#45;&gt;__field__</title>
<path fill="none" stroke="#dc2626" d="M271.26,-25.64C321.41,-31.5 381.38,-41.83 433,-60 480.77,-76.82 530.54,-107.93 561.63,-129.29"/>
<polygon fill="#dc2626" stroke="#dc2626" points="560.19,-131.69 568.36,-133.95 563.38,-127.09 560.19,-131.69"/>
<text text-anchor="middle" x="391" y="-62.8" font-family="Helvetica,sans-Serif" font-size="9.00" fill="#dc2626"> reads unguarded</text>
</g>
</g>
</svg>
