<?xml version="1.0" encoding="UTF-8" standalone="no"?>
<!DOCTYPE svg PUBLIC "-//W3C//DTD SVG 1.1//EN"
 "http://www.w3.org/Graphics/SVG/1.1/DTD/svg11.dtd">
<!-- Generated by graphviz version 2.43.0 (0)
 -->
<!-- Title: race Pages: 1 -->
<svg width="635pt" height="430pt"
 viewBox="0.00 0.00 635.00 429.51" xmlns="http://www.w3.org/2000/svg" xmlns:xlink="http://www.w3.org/1999/xlink">
<g id="graph0" class="graph" transform="scale(1 1) rotate(0) translate(4 425.51)">
<title>race</title>
<polygon fill="white" stroke="transparent" points="-4,4 -4,-425.51 631,-425.51 631,4 -4,4"/>
<!-- __field__ -->
<g id="node1" class="node">
<title>__field__</title>
<path fill="#fef9c3" stroke="#ca8a04" stroke-width="2" d="M615,-191.51C615,-191.51 487,-191.51 487,-191.51 481,-191.51 475,-185.51 475,-179.51 475,-179.51 475,-167.51 475,-167.51 475,-161.51 481,-155.51 487,-155.51 487,-155.51 615,-155.51 615,-155.51 621,-155.51 627,-161.51 627,-167.51 627,-167.51 627,-179.51 627,-179.51 627,-185.51 621,-191.51 615,-191.51"/>
<text text-anchor="middle" x="551" y="-170.71" font-family="Helvetica,sans-Serif" font-size="11.00">NetworkPolicy.limitBytes</text>
</g>
<!-- __guard__ -->
<g id="node2" class="node">
<title>__guard__</title>
<path fill="#dcfce7" stroke="#16a34a" stroke-width="2" d="M335,-421.51C335,-421.51 12,-421.51 12,-421.51 6,-421.51 0,-415.51 0,-409.51 0,-409.51 0,-397.51 0,-397.51 0,-391.51 6,-385.51 12,-385.51 12,-385.51 335,-385.51 335,-385.51 341,-385.51 347,-391.51 347,-397.51 347,-397.51 347,-409.51 347,-409.51 347,-415.51 341,-421.51 335,-421.51"/>
<text text-anchor="middle" x="173.5" y="-400.71" font-family="Helvetica,sans-Serif" font-size="11.00">NetworkPolicyManagerService.mNetworkPoliciesSecondLock</text>
</g>
<!-- __guard__&#45;&gt;__field__ -->
<g id="edge1" class="edge">
<title>__guard__&#45;&gt;__field__</title>
<path fill="none" stroke="#16a34a" stroke-width="1.6" d="M325.68,-385.43C370.81,-373.78 417.62,-354.7 453,-323.51 493.27,-288.01 523.44,-231.92 538.75,-199.33"/>
<polygon fill="#16a34a" stroke="#16a34a" stroke-width="1.6" points="541.33,-200.41 542.14,-191.97 536.25,-198.06 541.33,-200.41"/>
<text text-anchor="middle" x="411" y="-373.31" font-family="Helvetica,sans-Serif" font-size="9.00" fill="#15803d"> guards 5/6</text>
</g>
<!-- m::com.android.server.net.NetworkPolicyManagerService.factoryReset:(Ljava/lang/String;)V -->
<g id="node3" class="node">
<title>m::com.android.server.net.NetworkPolicyManagerService.factoryReset:(Ljava/lang/String;)V</title>
<path fill="#fee2e2" stroke="#dc2626" d="M290,-363.51C290,-363.51 57,-363.51 57,-363.51 51,-363.51 45,-357.51 45,-351.51 45,-351.51 45,-339.51 45,-339.51 45,-333.51 51,-327.51 57,-327.51 57,-327.51 290,-327.51 290,-327.51 296,-327.51 302,-333.51 302,-339.51 302,-339.51 302,-351.51 302,-351.51 302,-357.51 296,-363.51 290,-363.51"/>
<text text-anchor="middle" x="173.5" y="-342.71" font-family="Helvetica,sans-Serif" font-size="11.00">NetworkPolicyManagerService.factoryReset</text>
</g>
<!-- m::com.android.server.net.NetworkPolicyManagerService.factoryReset:(Ljava/lang/String;)V&#45;&gt;__field__ -->
<g id="edge2" class="edge">
<title>m::com.android.server.net.NetworkPolicyManagerService.factoryReset:(Ljava/lang/String;)V&#45;&gt;__field__</title>
<path fill="none" stroke="#dc2626" d="M302.18,-328.23C317.44,-324.94 332.67,-321.06 347,-316.51 396.83,-300.69 409.96,-295.19 453,-265.51 481.74,-245.69 510.2,-217.4 528.78,-197.43"/>
<polygon fill="#dc2626" stroke="#dc2626" points="530.87,-199.3 534.22,-191.52 526.75,-195.51 530.87,-199.3"/>
<text text-anchor="middle" x="411" y="-311.31" font-family="Helvetica,sans-Serif" font-size="9.00" fill="#dc2626"> writes unguarded</text>
</g>
<!-- m::com.android.server.connectivity.MultipathPolicyTracker.getActiveLimit:(Landroid/net/NetworkPolicy;J)J -->
<g id="node4" class="node">
<title>m::com.android.server.connectivity.MultipathPolicyTracker.getActiveLimit:(Landroid/net/NetworkPolicy;J)J</title>
<path fill="#fee2e2" stroke="#dc2626" d="M272.5,-305.51C272.5,-305.51 74.5,-305.51 74.5,-305.51 68.5,-305.51 62.5,-299.51 62.5,-293.51 62.5,-293.51 62.5,-281.51 62.5,-281.51 62.5,-275.51 68.5,-269.51 74.5,-269.51 74.5,-269.51 272.5,-269.51 272.5,-269.51 278.5,-269.51 284.5,-275.51 284.5,-281.51 284.5,-281.51 284.5,-293.51 284.5,-293.51 284.5,-299.51 278.5,-305.51 272.5,-305.51"/>
<text text-anchor="middle" x="173.5" y="-284.71" font-family="Helvetica,sans-Serif" font-size="11.00">MultipathPolicyTracker.getActiveLimit</text>
</g>
<!-- m::com.android.server.connectivity.MultipathPolicyTracker.getActiveLimit:(Landroid/net/NetworkPolicy;J)J&#45;&gt;__field__ -->
<g id="edge3" class="edge">
<title>m::com.android.server.connectivity.MultipathPolicyTracker.getActiveLimit:(Landroid/net/NetworkPolicy;J)J&#45;&gt;__field__</title>
<path fill="none" stroke="#dc2626" d="M284.84,-272.8C305.68,-268.94 327.15,-264.22 347,-258.51 396.02,-244.42 405.95,-234.22 453,-214.51 468.22,-208.14 484.77,-201.16 499.81,-194.8"/>
<polygon fill="#dc2626" stroke="#dc2626" points="501.25,-197.23 507.53,-191.53 499.07,-192.07 501.25,-197.23"/>
<text text-anchor="middle" x="411" y="-253.31" font-family="Helvetica,sans-Serif" font-size="9.00" fill="#dc2626"> reads unguarded</text>
</g>
<!-- m::com.android.server.net.NetworkPolicyManagerService.enqueueNotification:(Landroid/net/NetworkPolicy;IJLandroid/content/pm/ApplicationInfo;)V -->
<g id="node5" class="node">
<title>m::com.android.server.net.NetworkPolicyManagerService.enqueueNotification:(Landroid/net/NetworkPolicy;IJLandroid/content/pm/ApplicationInfo;)V</title>
<path fill="#fee2e2" stroke="#dc2626" d="M309.5,-247.51C309.5,-247.51 37.5,-247.51 37.5,-247.51 31.5,-247.51 25.5,-241.51 25.5,-235.51 25.5,-235.51 25.5,-223.51 25.5,-223.51 25.5,-217.51 31.5,-211.51 37.5,-211.51 37.5,-211.51 309.5,-211.51 309.5,-211.51 315.5,-211.51 321.5,-217.51 321.5,-223.51 321.5,-223.51 321.5,-235.51 321.5,-235.51 321.5,-241.51 315.5,-247.51 309.5,-247.51"/>
<text text-anchor="middle" x="173.5" y="-226.71" font-family="Helvetica,sans-Serif" font-size="11.00">NetworkPolicyManagerService.enqueueNotification</text>
</g>
<!-- m::com.android.server.net.NetworkPolicyManagerService.enqueueNotification:(Landroid/net/NetworkPolicy;IJLandroid/content/pm/ApplicationInfo;)V&#45;&gt;__field__ -->
<g id="edge4" class="edge">
<title>m::com.android.server.net.NetworkPolicyManagerService.enqueueNotification:(Landroid/net/NetworkPolicy;IJLandroid/content/pm/ApplicationInfo;)V&#45;&gt;__field__</title>
<path fill="none" stroke="#dc2626" d="M295.38,-211.49C351.34,-203.14 416.43,-193.43 466.78,-185.92"/>
<polygon fill="#dc2626" stroke="#dc2626" points="467.24,-188.69 474.73,-184.74 466.41,-183.15 467.24,-188.69"/>
<text text-anchor="middle" x="411" y="-202.31" font-family="Helvetica,sans-Serif" font-size="9.00" fill="#dc2626"> reads unguarded</text>
</g>
<!-- m::com.android.server.net.NetworkPolicyManagerService.updateNetworkEnabledNL:()V -->
<g id="node6" class="node">
<title>m::com.android.server.net.NetworkPolicyManagerService.updateNetworkEnabledNL:()V</title>
<path fill="#fee2e2" stroke="#dc2626" d="M325.5,-189.51C325.5,-189.51 21.5,-189.51 21.5,-189.51 15.5,-189.51 9.5,-183.51 9.5,-177.51 9.5,-177.51 9.5,-165.51 9.5,-165.51 9.5,-159.51 15.5,-153.51 21.5,-153.51 21.5,-153.51 325.5,-153.51 325.5,-153.51 331.5,-153.51 337.5,-159.51 337.5,-165.51 337.5,-165.51 337.5,-177.51 337.5,-177.51 337.5,-183.51 331.5,-189.51 325.5,-189.51"/>
<text text-anchor="middle" x="173.5" y="-168.71" font-family="Helvetica,sans-Serif" font-size="11.00">NetworkPolicyManagerService.updateNetworkEnabledNL</text>
</g>
<!-- m::com.android.server.net.NetworkPolicyManagerService.updateNetworkEnabledNL:()V&#45;&gt;__field__ -->
<g id="edge5" class="edge">
<title>m::com.android.server.net.NetworkPolicyManagerService.updateNetworkEnabledNL:()V&#45;&gt;__field__</title>
<path fill="none" stroke="#dc2626" d="M337.56,-172.38C381.91,-172.62 428.12,-172.86 466.08,-173.07"/>
<polygon fill="#dc2626" stroke="#dc2626" points="466.53,-175.87 474.55,-173.11 466.56,-170.27 466.53,-175.87"/>
<text text-anchor="middle" x="411" y="-175.31" font-family="Helvetica,sans-Serif" font-size="9.00" fill="#dc2626"> reads unguarded</text>
</g>
<!-- m::com.android.server.net.NetworkPolicyManagerService.updateNetworkRulesNL:()V -->
<g id="node7" class="node">
<title>m::com.android.server.net.NetworkPolicyManagerService.updateNetworkRulesNL:()V</title>
<path fill="#fee2e2" stroke="#dc2626" d="M318.5,-131.51C318.5,-131.51 28.5,-131.51 28.5,-131.51 22.5,-131.51 16.5,-125.51 16.5,-119.51 16.5,-119.51 16.5,-107.51 16.5,-107.51 16.5,-101.51 22.5,-95.51 28.5,-95.51 28.5,-95.51 318.5,-95.51 318.5,-95.51 324.5,-95.51 330.5,-101.51 330.5,-107.51 330.5,-107.51 330.5,-119.51 330.5,-119.51 330.5,-125.51 324.5,-131.51 318.5,-131.51"/>
<text text-anchor="middle" x="173.5" y="-110.71" font-family="Helvetica,sans-Serif" font-size="11.00">NetworkPolicyManagerService.updateNetworkRulesNL</text>
</g>
<!-- m::com.android.server.net.NetworkPolicyManagerService.updateNetworkRulesNL:()V&#45;&gt;__field__ -->
<g id="edge6" class="edge">
<title>m::com.android.server.net.NetworkPolicyManagerService.updateNetworkRulesNL:()V&#45;&gt;__field__</title>
<path fill="none" stroke="#dc2626" d="M289.7,-131.53C339.88,-139.43 399.36,-148.85 453,-157.51 457.53,-158.24 462.19,-159 466.88,-159.76"/>
<polygon fill="#dc2626" stroke="#dc2626" points="466.47,-162.53 474.81,-161.06 467.37,-157.01 466.47,-162.53"/>
<text text-anchor="middle" x="411" y="-160.31" font-family="Helvetica,sans-Serif" font-size="9.00" fill="#dc2626"> reads unguarded</text>
</g>
<!-- m::com.android.server.net.NetworkPolicyManagerService.updateNetworkRulesNL:()V&#45;&gt;__field__ -->
<g id="edge7" class="edge">
<title>m::com.android.server.net.NetworkPolicyManagerService.updateNetworkRulesNL:()V&#45;&gt;__field__</title>
<path fill="none" stroke="#dc2626" d="M330.69,-112.38C370.97,-114.83 413.97,-119.89 453,-129.51 472.62,-134.35 493.16,-143.07 510.26,-151.48"/>
<polygon fill="#dc2626" stroke="#dc2626" points="509.46,-154.21 517.86,-155.31 511.98,-149.21 509.46,-154.21"/>
<text text-anchor="middle" x="411" y="-132.31" font-family="Helvetica,sans-Serif" font-size="9.00" fill="#dc2626"> reads unguarded</text>
</g>
<!-- m::com.android.server.net.NetworkPolicyManagerService.updateNetworkRulesNL:()V&#45;&gt;__field__ -->
<g id="edge8" class="edge">
<title>m::com.android.server.net.NetworkPolicyManagerService.updateNetworkRulesNL:()V&#45;&gt;__field__</title>
<path fill="none" stroke="#dc2626" d="M250.12,-95.48C307.32,-85.27 387.01,-78.46 453,-100.51 481.91,-110.18 509.12,-132.23 527.32,-149.58"/>
<polygon fill="#dc2626" stroke="#dc2626" points="525.46,-151.67 533.14,-155.26 529.37,-147.67 525.46,-151.67"/>
<text text-anchor="middle" x="411" y="-103.31" font-family="Helvetica,sans-Serif" font-size="9.00" fill="#dc2626"> reads unguarded</text>
</g>
<!-- m::com.android.server.net.NetworkPolicyManagerService.updateNotificationsNL:()V -->
<g id="node8" class="node">
<title>m::com.android.server.net.NetworkPolicyManagerService.updateNotificationsNL:()V</title>
<path fill="#fee2e2" stroke="#dc2626" d="M315.5,-44.51C315.5,-44.51 31.5,-44.51 31.5,-44.51 25.5,-44.51 19.5,-38.51 19.5,-32.51 19.5,-32.51 19.5,-20.51 19.5,-20.51 19.5,-14.51 25.5,-8.51 31.5,-8.51 31.5,-8.51 315.5,-8.51 315.5,-8.51 321.5,-8.51 327.5,-14.51 327.5,-20.51 327.5,-20.51 327.5,-32.51 327.5,-32.51 327.5,-38.51 321.5,-44.51 315.5,-44.51"/>
<text text-anchor="middle" x="173.5" y="-23.71" font-family="Helvetica,sans-Serif" font-size="11.00">NetworkPolicyManagerService.updateNotificationsNL</text>
</g>
<!-- m::com.android.server.net.NetworkPolicyManagerService.updateNotificationsNL:()V&#45;&gt;__field__ -->
<g id="edge9" class="edge">
<title>m::com.android.server.net.NetworkPolicyManagerService.updateNotificationsNL:()V&#45;&gt;__field__</title>
<path fill="none" stroke="#dc2626" d="M327.69,-32.49C370.1,-38.9 414.91,-50.39 453,-70.51 487.59,-88.79 516.69,-124.19 533.74,-148.34"/>
<polygon fill="#dc2626" stroke="#dc2626" points="531.58,-150.14 538.43,-155.13 536.19,-146.96 531.58,-150.14"/>
<text text-anchor="middle" x="411" y="-73.31" font-family="Helvetica,sans-Serif" font-size="9.00" fill="#dc2626"> reads unguarded</text>
</g>
<!-- m::com.android.server.net.NetworkPolicyManagerService.updateNotificationsNL:()V&#45;&gt;__field__ -->
<g id="edge10" class="edge">
<title>m::com.android.server.net.NetworkPolicyManagerService.updateNotificationsNL:()V&#45;&gt;__field__</title>
<path fill="none" stroke="#dc2626" d="M247.14,-8.51C306.19,2.07 389.78,7.52 453,-26.51 500.73,-52.2 528.87,-112.81 541.67,-147.65"/>
<polygon fill="#dc2626" stroke="#dc2626" points="539.14,-148.9 544.45,-155.51 544.42,-147.03 539.14,-148.9"/>
<text text-anchor="middle" x="411" y="-29.31" font-family="Helvetica,sans-Serif" font-size="9.00" fill="#dc2626"> reads unguarded</text>
</g>
</g>
</svg>
