<?xml version="1.0" encoding="UTF-8" standalone="no"?>
<!DOCTYPE svg PUBLIC "-//W3C//DTD SVG 1.1//EN"
 "http://www.w3.org/Graphics/SVG/1.1/DTD/svg11.dtd">
<!-- Generated by graphviz version 2.43.0 (0)
 -->
<!-- Title: race Pages: 1 -->
<svg width="495pt" height="102pt"
 viewBox="0.00 0.00 495.00 102.00" xmlns="http://www.w3.org/2000/svg" xmlns:xlink="http://www.w3.org/1999/xlink">
<g id="graph0" class="graph" transform="scale(1 1) rotate(0) translate(4 98)">
<title>race</title>
<polygon fill="white" stroke="transparent" points="-4,4 -4,-98 491,-98 491,4 -4,4"/>
<!-- __field__ -->
<g id="node1" class="node">
<title>__field__</title>
<path fill="#fef9c3" stroke="#ca8a04" stroke-width="2" d="M475,-65C475,-65 277,-65 277,-65 271,-65 265,-59 265,-53 265,-53 265,-41 265,-41 265,-35 271,-29 277,-29 277,-29 475,-29 475,-29 481,-29 487,-35 487,-41 487,-41 487,-53 487,-53 487,-59 481,-65 475,-65"/>
<text text-anchor="middle" x="376" y="-44.2" font-family="Helvetica,sans-Serif" font-size="11.00">AppOpsService.mFastWriteScheduled</text>
</g>
<!-- __guard__ -->
<g id="node2" class="node">
<title>__guard__</title>
<path fill="#dcfce7" stroke="#16a34a" stroke-width="2" d="M125,-94C125,-94 12,-94 12,-94 6,-94 0,-88 0,-82 0,-82 0,-70 0,-70 0,-64 6,-58 12,-58 12,-58 125,-58 125,-58 131,-58 137,-64 137,-70 137,-70 137,-82 137,-82 137,-88 131,-94 125,-94"/>
<text text-anchor="middle" x="68.5" y="-73.2" font-family="Helvetica,sans-Serif" font-size="11.00">appop.AppOpsService</text>
</g>
<!-- __guard__&#45;&gt;__field__ -->
<g id="edge1" class="edge">
<title>__guard__&#45;&gt;__field__</title>
<path fill="none" stroke="#16a34a" stroke-width="1.6" d="M137.3,-69.56C172.4,-66.23 216.28,-62.07 256.75,-58.23"/>
<polygon fill="#16a34a" stroke="#16a34a" stroke-width="1.6" points="257.1,-61 264.8,-57.46 256.57,-55.43 257.1,-61"/>
<text text-anchor="middle" x="201" y="-69.8" font-family="Helvetica,sans-Serif" font-size="9.00" fill="#15803d"> guards 2/3</text>
</g>
<!-- m::com.android.server.appop.AppOpsService$1.run:()V -->
<g id="node3" class="node">
<title>m::com.android.server.appop.AppOpsService$1.run:()V</title>
<path fill="#fee2e2" stroke="#dc2626" d="M124,-36C124,-36 13,-36 13,-36 7,-36 1,-30 1,-24 1,-24 1,-12 1,-12 1,-6 7,0 13,0 13,0 124,0 124,0 130,0 136,-6 136,-12 136,-12 136,-24 136,-24 136,-30 130,-36 124,-36"/>
<text text-anchor="middle" x="68.5" y="-15.2" font-family="Helvetica,sans-Serif" font-size="11.00">AppOpsService$1.run</text>
</g>
<!-- m::com.android.server.appop.AppOpsService$1.run:()V&#45;&gt;__field__ -->
<g id="edge2" class="edge">
<title>m::com.android.server.appop.AppOpsService$1.run:()V&#45;&gt;__field__</title>
<path fill="none" stroke="#dc2626" d="M136.17,-24.33C171.47,-27.68 215.89,-31.9 256.81,-35.78"/>
<polygon fill="#dc2626" stroke="#dc2626" points="256.71,-38.58 264.94,-36.55 257.24,-33.01 256.71,-38.58"/>
<text text-anchor="middle" x="201" y="-36.8" font-family="Helvetica,sans-Serif" font-size="9.00" fill="#dc2626"> writes unguarded</text>
</g>
</g>
</svg>
