<?xml version="1.0" encoding="UTF-8" standalone="no"?>
<!DOCTYPE svg PUBLIC "-//W3C//DTD SVG 1.1//EN"
 "http://www.w3.org/Graphics/SVG/1.1/DTD/svg11.dtd">
<!-- Generated by graphviz version 2.43.0 (0)
 -->
<!-- Title: race Pages: 1 -->
<svg width="672pt" height="218pt"
 viewBox="0.00 0.00 672.00 218.00" xmlns="http://www.w3.org/2000/svg" xmlns:xlink="http://www.w3.org/1999/xlink">
<g id="graph0" class="graph" transform="scale(1 1) rotate(0) translate(4 214)">
<title>race</title>
<polygon fill="white" stroke="transparent" points="-4,4 -4,-214 668,-214 668,4 -4,4"/>
<!-- __field__ -->
<g id="node1" class="node">
<title>__field__</title>
<path fill="#fef9c3" stroke="#ca8a04" stroke-width="2" d="M652,-123C652,-123 482,-123 482,-123 476,-123 470,-117 470,-111 470,-111 470,-99 470,-99 470,-93 476,-87 482,-87 482,-87 652,-87 652,-87 658,-87 664,-93 664,-99 664,-99 664,-111 664,-111 664,-117 658,-123 652,-123"/>
<text text-anchor="middle" x="567" y="-102.2" font-family="Helvetica,sans-Serif" font-size="11.00">SyncStatusInfo$Stats.numSyncs</text>
</g>
<!-- __guard__ -->
<g id="node2" class="node">
<title>__guard__</title>
<path fill="#dcfce7" stroke="#16a34a" stroke-width="2" d="M257.5,-210C257.5,-210 84.5,-210 84.5,-210 78.5,-210 72.5,-204 72.5,-198 72.5,-198 72.5,-186 72.5,-186 72.5,-180 78.5,-174 84.5,-174 84.5,-174 257.5,-174 257.5,-174 263.5,-174 269.5,-180 269.5,-186 269.5,-186 269.5,-198 269.5,-198 269.5,-204 263.5,-210 257.5,-210"/>
<text text-anchor="middle" x="171" y="-189.2" font-family="Helvetica,sans-Serif" font-size="11.00">SyncStorageEngine.mAuthorities</text>
</g>
<!-- __guard__&#45;&gt;__field__ -->
<g id="edge1" class="edge">
<title>__guard__&#45;&gt;__field__</title>
<path fill="none" stroke="#16a34a" stroke-width="1.6" d="M269.81,-176.77C293.51,-172.68 318.73,-167.99 342,-163 393.32,-152 450.6,-137.12 494.39,-125.19"/>
<polygon fill="#16a34a" stroke="#16a34a" stroke-width="1.6" points="495.15,-127.88 502.13,-123.07 493.68,-122.48 495.15,-127.88"/>
<text text-anchor="middle" x="406" y="-159.8" font-family="Helvetica,sans-Serif" font-size="9.00" fill="#15803d"> guards 2/3</text>
</g>
<!-- m::com.android.server.content.SyncStorageEngine.readSyncStatusStatsLocked:(Landroid/util/proto/ProtoInputStream;Landroid/content/SyncStatusInfo$Stats;)V -->
<g id="node3" class="node">
<title>m::com.android.server.content.SyncStorageEngine.readSyncStatusStatsLocked:(Landroid/util/proto/ProtoInputStream;Landroid/content/SyncStatusInfo$Stats;)V</title>
<path fill="#fee2e2" stroke="#dc2626" d="M298.5,-152C298.5,-152 43.5,-152 43.5,-152 37.5,-152 31.5,-146 31.5,-140 31.5,-140 31.5,-128 31.5,-128 31.5,-122 37.5,-116 43.5,-116 43.5,-116 298.5,-116 298.5,-116 304.5,-116 310.5,-122 310.5,-128 310.5,-128 310.5,-140 310.5,-140 310.5,-146 304.5,-152 298.5,-152"/>
<text text-anchor="middle" x="171" y="-131.2" font-family="Helvetica,sans-Serif" font-size="11.00">SyncStorageEngine.readSyncStatusStatsLocked</text>
</g>
<!-- m::com.android.server.content.SyncStorageEngine.readSyncStatusStatsLocked:(Landroid/util/proto/ProtoInputStream;Landroid/content/SyncStatusInfo$Stats;)V&#45;&gt;__field__ -->
<g id="edge2" class="edge">
<title>m::com.android.server.content.SyncStorageEngine.readSyncStatusStatsLocked:(Landroid/util/proto/ProtoInputStream;Landroid/content/SyncStatusInfo$Stats;)V&#45;&gt;__field__</title>
<path fill="none" stroke="#dc2626" d="M310.63,-123.8C360.29,-120.14 415.39,-116.09 461.66,-112.68"/>
<polygon fill="#dc2626" stroke="#dc2626" points="462.12,-115.45 469.89,-112.07 461.71,-109.87 462.12,-115.45"/>
<text text-anchor="middle" x="406" y="-121.8" font-family="Helvetica,sans-Serif" font-size="9.00" fill="#dc2626"> writes unguarded</text>
</g>
<!-- m::com.android.server.content.SyncManager.$r8$lambda$O&#45;rCqIKduPt_pMNS4QFjC5FeAVA:(Ljava/lang/StringBuilder;Lcom/android/server/content/SyncManager$PrintTable;Ljava/lang/String;Landroid/content/SyncStatusInfo$Stats;Ljava/util/function/Function;Ljava/lang/Integer;)V -->
<g id="node4" class="node">
<title>m::com.android.server.content.SyncManager.$r8$lambda$O&#45;rCqIKduPt_pMNS4QFjC5FeAVA:(Ljava/lang/StringBuilder;Lcom/android/server/content/SyncManager$PrintTable;Ljava/lang/String;Landroid/content/SyncStatusInfo$Stats;Ljava/util/function/Function;Ljava/lang/Integer;)V</title>
<path fill="#fee2e2" stroke="#dc2626" d="M330,-94C330,-94 12,-94 12,-94 6,-94 0,-88 0,-82 0,-82 0,-70 0,-70 0,-64 6,-58 12,-58 12,-58 330,-58 330,-58 336,-58 342,-64 342,-70 342,-70 342,-82 342,-82 342,-88 336,-94 330,-94"/>
<text text-anchor="middle" x="171" y="-73.2" font-family="Helvetica,sans-Serif" font-size="11.00">SyncManager.$r8$lambda$O&#45;rCqIKduPt_pMNS4QFjC5FeAVA</text>
</g>
<!-- m::com.android.server.content.SyncManager.$r8$lambda$O&#45;rCqIKduPt_pMNS4QFjC5FeAVA:(Ljava/lang/StringBuilder;Lcom/android/server/content/SyncManager$PrintTable;Ljava/lang/String;Landroid/content/SyncStatusInfo$Stats;Ljava/util/function/Function;Ljava/lang/Integer;)V&#45;&gt;__field__ -->
<g id="edge3" class="edge">
<title>m::com.android.server.content.SyncManager.$r8$lambda$O&#45;rCqIKduPt_pMNS4QFjC5FeAVA:(Ljava/lang/StringBuilder;Lcom/android/server/content/SyncManager$PrintTable;Ljava/lang/String;Landroid/content/SyncStatusInfo$Stats;Ljava/util/function/Function;Ljava/lang/Integer;)V&#45;&gt;__field__</title>
<path fill="none" stroke="#dc2626" d="M342.24,-88.53C382.87,-91.52 425.05,-94.63 461.69,-97.32"/>
<polygon fill="#dc2626" stroke="#dc2626" points="461.72,-100.13 469.91,-97.93 462.13,-94.55 461.72,-100.13"/>
<text text-anchor="middle" x="406" y="-97.8" font-family="Helvetica,sans-Serif" font-size="9.00" fill="#dc2626"> reads unguarded</text>
</g>
<!-- m::com.android.server.content.SyncStorageEngine.writeStatusStatsLocked:(Landroid/util/proto/ProtoOutputStream;Landroid/content/SyncStatusInfo$Stats;)V -->
<g id="node5" class="node">
<title>m::com.android.server.content.SyncStorageEngine.writeStatusStatsLocked:(Landroid/util/proto/ProtoOutputStream;Landroid/content/SyncStatusInfo$Stats;)V</title>
<path fill="#fee2e2" stroke="#dc2626" d="M287,-36C287,-36 55,-36 55,-36 49,-36 43,-30 43,-24 43,-24 43,-12 43,-12 43,-6 49,0 55,0 55,0 287,0 287,0 293,0 299,-6 299,-12 299,-12 299,-24 299,-24 299,-30 293,-36 287,-36"/>
<text text-anchor="middle" x="171" y="-15.2" font-family="Helvetica,sans-Serif" font-size="11.00">SyncStorageEngine.writeStatusStatsLocked</text>
</g>
<!-- m::com.android.server.content.SyncStorageEngine.writeStatusStatsLocked:(Landroid/util/proto/ProtoOutputStream;Landroid/content/SyncStatusInfo$Stats;)V&#45;&gt;__field__ -->
<g id="edge4" class="edge">
<title>m::com.android.server.content.SyncStorageEngine.writeStatusStatsLocked:(Landroid/util/proto/ProtoOutputStream;Landroid/content/SyncStatusInfo$Stats;)V&#45;&gt;__field__</title>
<path fill="none" stroke="#dc2626" d="M285.65,-36.02C304.52,-39.4 323.85,-43.11 342,-47 393.32,-58 450.6,-72.88 494.39,-84.81"/>
<polygon fill="#dc2626" stroke="#dc2626" points="493.68,-87.52 502.13,-86.93 495.15,-82.12 493.68,-87.52"/>
<text text-anchor="middle" x="406" y="-74.8" font-family="Helvetica,sans-Serif" font-size="9.00" fill="#dc2626"> reads unguarded</text>
</g>
</g>
</svg>
