<?xml version="1.0" encoding="UTF-8" standalone="no"?>
<!DOCTYPE svg PUBLIC "-//W3C//DTD SVG 1.1//EN"
 "http://www.w3.org/Graphics/SVG/1.1/DTD/svg11.dtd">
<!-- Generated by graphviz version 2.43.0 (0)
 -->
<!-- Title: race Pages: 1 -->
<svg width="580pt" height="192pt"
 viewBox="0.00 0.00 580.00 192.00" xmlns="http://www.w3.org/2000/svg" xmlns:xlink="http://www.w3.org/1999/xlink">
<g id="graph0" class="graph" transform="scale(1 1) rotate(0) translate(4 188)">
<title>race</title>
<polygon fill="white" stroke="transparent" points="-4,4 -4,-188 576,-188 576,4 -4,4"/>
<!-- __field__ -->
<g id="node1" class="node">
<title>__field__</title>
<path fill="#fef9c3" stroke="#ca8a04" stroke-width="2" d="M560,-110C560,-110 406,-110 406,-110 400,-110 394,-104 394,-98 394,-98 394,-86 394,-86 394,-80 400,-74 406,-74 406,-74 560,-74 560,-74 566,-74 572,-80 572,-86 572,-86 572,-98 572,-98 572,-104 566,-110 560,-110"/>
<text text-anchor="middle" x="483" y="-89.2" font-family="Helvetica,sans-Serif" font-size="11.00">AttributedOp.mAccessEvents</text>
</g>
<!-- __guard__ -->
<g id="node2" class="node">
<title>__guard__</title>
<path fill="#dcfce7" stroke="#16a34a" stroke-width="2" d="M189.5,-184C189.5,-184 76.5,-184 76.5,-184 70.5,-184 64.5,-178 64.5,-172 64.5,-172 64.5,-160 64.5,-160 64.5,-154 70.5,-148 76.5,-148 76.5,-148 189.5,-148 189.5,-148 195.5,-148 201.5,-154 201.5,-160 201.5,-160 201.5,-172 201.5,-172 201.5,-178 195.5,-184 189.5,-184"/>
<text text-anchor="middle" x="133" y="-163.2" font-family="Helvetica,sans-Serif" font-size="11.00">appop.AppOpsService</text>
</g>
<!-- __guard__&#45;&gt;__field__ -->
<g id="edge1" class="edge">
<title>__guard__&#45;&gt;__field__</title>
<path fill="none" stroke="#16a34a" stroke-width="1.6" d="M201.62,-153.5C249.35,-144.47 314.74,-131.67 372,-119 381.94,-116.8 392.37,-114.38 402.67,-111.93"/>
<polygon fill="#16a34a" stroke="#16a34a" stroke-width="1.6" points="403.39,-114.64 410.51,-110.05 402.08,-109.19 403.39,-114.64"/>
<text text-anchor="middle" x="330" y="-137.8" font-family="Helvetica,sans-Serif" font-size="9.00" fill="#15803d"> guards 2/3</text>
</g>
<!-- m::com.android.server.appop.AttributedOp.finishOrPause:(Landroid/os/IBinder;ZZ)V -->
<g id="node3" class="node">
<title>m::com.android.server.appop.AttributedOp.finishOrPause:(Landroid/os/IBinder;ZZ)V</title>
<path fill="#fee2e2" stroke="#dc2626" d="M204.5,-110C204.5,-110 61.5,-110 61.5,-110 55.5,-110 49.5,-104 49.5,-98 49.5,-98 49.5,-86 49.5,-86 49.5,-80 55.5,-74 61.5,-74 61.5,-74 204.5,-74 204.5,-74 210.5,-74 216.5,-80 216.5,-86 216.5,-86 216.5,-98 216.5,-98 216.5,-104 210.5,-110 204.5,-110"/>
<text text-anchor="middle" x="133" y="-89.2" font-family="Helvetica,sans-Serif" font-size="11.00">AttributedOp.finishOrPause</text>
</g>
<!-- m::com.android.server.appop.AttributedOp.finishOrPause:(Landroid/os/IBinder;ZZ)V&#45;&gt;__field__ -->
<g id="edge2" class="edge">
<title>m::com.android.server.appop.AttributedOp.finishOrPause:(Landroid/os/IBinder;ZZ)V&#45;&gt;__field__</title>
<path fill="none" stroke="#dc2626" d="M216.62,-99.72C262.41,-103.01 320.36,-105.58 372,-103 376.43,-102.78 380.96,-102.51 385.53,-102.2"/>
<polygon fill="#dc2626" stroke="#dc2626" points="386.02,-104.97 393.8,-101.6 385.62,-99.38 386.02,-104.97"/>
<text text-anchor="middle" x="330" y="-106.8" font-family="Helvetica,sans-Serif" font-size="9.00" fill="#dc2626"> writes unguarded</text>
</g>
<!-- m::com.android.server.appop.AttributedOp.finishOrPause:(Landroid/os/IBinder;ZZ)V&#45;&gt;__field__ -->
<g id="edge4" class="edge">
<title>m::com.android.server.appop.AttributedOp.finishOrPause:(Landroid/os/IBinder;ZZ)V&#45;&gt;__field__</title>
<path fill="none" stroke="#dc2626" d="M216.91,-92C267.68,-92 332.86,-92 385.88,-92"/>
<polygon fill="#dc2626" stroke="#dc2626" points="385.95,-94.8 393.95,-92 385.95,-89.2 385.95,-94.8"/>
<text text-anchor="middle" x="330" y="-94.8" font-family="Helvetica,sans-Serif" font-size="9.00" fill="#dc2626"> reads unguarded</text>
</g>
<!-- m::com.android.server.appop.AttributedOp.finishOrPause:(Landroid/os/IBinder;ZZ)V&#45;&gt;__field__ -->
<g id="edge5" class="edge">
<title>m::com.android.server.appop.AttributedOp.finishOrPause:(Landroid/os/IBinder;ZZ)V&#45;&gt;__field__</title>
<path fill="none" stroke="#dc2626" d="M216.62,-81.48C262.41,-76.99 320.37,-73.5 372,-77 376.45,-77.3 380.99,-77.67 385.57,-78.09"/>
<polygon fill="#dc2626" stroke="#dc2626" points="385.61,-80.91 393.85,-78.91 386.16,-75.34 385.61,-80.91"/>
<text text-anchor="middle" x="330" y="-79.8" font-family="Helvetica,sans-Serif" font-size="9.00" fill="#dc2626"> reads unguarded</text>
</g>
<!-- m::com.android.server.appop.AttributedOp.createAttributedOpEntryLocked:()Landroid/app/AppOpsManager$AttributedOpEntry; -->
<g id="node4" class="node">
<title>m::com.android.server.appop.AttributedOp.createAttributedOpEntryLocked:()Landroid/app/AppOpsManager$AttributedOpEntry;</title>
<path fill="#fee2e2" stroke="#dc2626" d="M254,-36C254,-36 12,-36 12,-36 6,-36 0,-30 0,-24 0,-24 0,-12 0,-12 0,-6 6,0 12,0 12,0 254,0 254,0 260,0 266,-6 266,-12 266,-12 266,-24 266,-24 266,-30 260,-36 254,-36"/>
<text text-anchor="middle" x="133" y="-15.2" font-family="Helvetica,sans-Serif" font-size="11.00">AttributedOp.createAttributedOpEntryLocked</text>
</g>
<!-- m::com.android.server.appop.AttributedOp.createAttributedOpEntryLocked:()Landroid/app/AppOpsManager$AttributedOpEntry;&#45;&gt;__field__ -->
<g id="edge3" class="edge">
<title>m::com.android.server.appop.AttributedOp.createAttributedOpEntryLocked:()Landroid/app/AppOpsManager$AttributedOpEntry;&#45;&gt;__field__</title>
<path fill="none" stroke="#dc2626" d="M250.72,-36C289.49,-42.67 332.77,-50.86 372,-60 386.46,-63.37 401.85,-67.5 416.39,-71.65"/>
<polygon fill="#dc2626" stroke="#dc2626" points="415.9,-74.43 424.37,-73.96 417.46,-69.05 415.9,-74.43"/>
<text text-anchor="middle" x="330" y="-62.8" font-family="Helvetica,sans-Serif" font-size="9.00" fill="#dc2626"> reads unguarded</text>
</g>
</g>
</svg>
