<?xml version="1.0" encoding="UTF-8" standalone="no"?>
<!DOCTYPE svg PUBLIC "-//W3C//DTD SVG 1.1//EN"
 "http://www.w3.org/Graphics/SVG/1.1/DTD/svg11.dtd">
<!-- Generated by graphviz version 2.43.0 (0)
 -->
<!-- Title: race Pages: 1 -->
<svg width="738pt" height="276pt"
 viewBox="0.00 0.00 738.00 276.00" xmlns="http://www.w3.org/2000/svg" xmlns:xlink="http://www.w3.org/1999/xlink">
<g id="graph0" class="graph" transform="scale(1 1) rotate(0) translate(4 272)">
<title>race</title>
<polygon fill="white" stroke="transparent" points="-4,4 -4,-272 734,-272 734,4 -4,4"/>
<!-- __field__ -->
<g id="node1" class="node">
<title>__field__</title>
<path fill="#fef9c3" stroke="#ca8a04" stroke-width="2" d="M718,-133C718,-133 440,-133 440,-133 434,-133 428,-127 428,-121 428,-121 428,-109 428,-109 428,-103 434,-97 440,-97 440,-97 718,-97 718,-97 724,-97 730,-103 730,-109 730,-109 730,-121 730,-121 730,-127 724,-133 718,-133"/>
<text text-anchor="middle" x="579" y="-112.2" font-family="Helvetica,sans-Serif" font-size="11.00">PreferencesHelper$PackagePreferences.showBadge</text>
</g>
<!-- __guard__ -->
<g id="node2" class="node">
<title>__guard__</title>
<path fill="#dcfce7" stroke="#16a34a" stroke-width="2" d="M216,-268C216,-268 84,-268 84,-268 78,-268 72,-262 72,-256 72,-256 72,-244 72,-244 72,-238 78,-232 84,-232 84,-232 216,-232 216,-232 222,-232 228,-238 228,-244 228,-244 228,-256 228,-256 228,-262 222,-268 216,-268"/>
<text text-anchor="middle" x="150" y="-247.2" font-family="Helvetica,sans-Serif" font-size="11.00">PreferencesHelper.mLock</text>
</g>
<!-- __guard__&#45;&gt;__field__ -->
<g id="edge1" class="edge">
<title>__guard__&#45;&gt;__field__</title>
<path fill="none" stroke="#16a34a" stroke-width="1.6" d="M228.17,-237.6C251.45,-233.16 276.94,-227.59 300,-221 382.54,-197.42 475.07,-159.79 529.83,-136.28"/>
<polygon fill="#16a34a" stroke="#16a34a" stroke-width="1.6" points="531.07,-138.8 537.3,-133.06 528.85,-133.66 531.07,-138.8"/>
<text text-anchor="middle" x="364" y="-216.8" font-family="Helvetica,sans-Serif" font-size="9.00" fill="#15803d"> guards 3/4</text>
</g>
<!-- m::com.android.server.notification.PreferencesHelper.restorePackageLocked:(Lcom/android/modules/utils/TypedXmlPullParser;ZILjava/lang/String;ZZ)V -->
<g id="node3" class="node">
<title>m::com.android.server.notification.PreferencesHelper.restorePackageLocked:(Lcom/android/modules/utils/TypedXmlPullParser;ZILjava/lang/String;ZZ)V</title>
<path fill="#fee2e2" stroke="#dc2626" d="M260,-210C260,-210 40,-210 40,-210 34,-210 28,-204 28,-198 28,-198 28,-186 28,-186 28,-180 34,-174 40,-174 40,-174 260,-174 260,-174 266,-174 272,-180 272,-186 272,-186 272,-198 272,-198 272,-204 266,-210 260,-210"/>
<text text-anchor="middle" x="150" y="-189.2" font-family="Helvetica,sans-Serif" font-size="11.00">PreferencesHelper.restorePackageLocked</text>
</g>
<!-- m::com.android.server.notification.PreferencesHelper.restorePackageLocked:(Lcom/android/modules/utils/TypedXmlPullParser;ZILjava/lang/String;ZZ)V&#45;&gt;__field__ -->
<g id="edge2" class="edge">
<title>m::com.android.server.notification.PreferencesHelper.restorePackageLocked:(Lcom/android/modules/utils/TypedXmlPullParser;ZILjava/lang/String;ZZ)V&#45;&gt;__field__</title>
<path fill="none" stroke="#dc2626" d="M250.84,-174C316.57,-162.14 402.57,-146.63 469.91,-134.49"/>
<polygon fill="#dc2626" stroke="#dc2626" points="470.65,-137.2 478.02,-133.03 469.65,-131.69 470.65,-137.2"/>
<text text-anchor="middle" x="364" y="-162.8" font-family="Helvetica,sans-Serif" font-size="9.00" fill="#dc2626"> writes unguarded</text>
</g>
<!-- m::com.android.server.notification.PreferencesHelper.dumpPackagePreferencesLocked:(Landroid/util/proto/ProtoOutputStream;JLcom/android/server/notification/NotificationManagerService$DumpFilter;Landroid/util/ArrayMap;Landroid/util/ArrayMap;)V -->
<g id="node4" class="node">
<title>m::com.android.server.notification.PreferencesHelper.dumpPackagePreferencesLocked:(Landroid/util/proto/ProtoOutputStream;JLcom/android/server/notification/NotificationManagerService$DumpFilter;Landroid/util/ArrayMap;Landroid/util/ArrayMap;)V</title>
<path fill="#fee2e2" stroke="#dc2626" d="M288,-152C288,-152 12,-152 12,-152 6,-152 0,-146 0,-140 0,-140 0,-128 0,-128 0,-122 6,-116 12,-116 12,-116 288,-116 288,-116 294,-116 300,-122 300,-128 300,-128 300,-140 300,-140 300,-146 294,-152 288,-152"/>
<text text-anchor="middle" x="150" y="-131.2" font-family="Helvetica,sans-Serif" font-size="11.00">PreferencesHelper.dumpPackagePreferencesLocked</text>
</g>
<!-- m::com.android.server.notification.PreferencesHelper.dumpPackagePreferencesLocked:(Landroid/util/proto/ProtoOutputStream;JLcom/android/server/notification/NotificationManagerService$DumpFilter;Landroid/util/ArrayMap;Landroid/util/ArrayMap;)V&#45;&gt;__field__ -->
<g id="edge3" class="edge">
<title>m::com.android.server.notification.PreferencesHelper.dumpPackagePreferencesLocked:(Landroid/util/proto/ProtoOutputStream;JLcom/android/server/notification/NotificationManagerService$DumpFilter;Landroid/util/ArrayMap;Landroid/util/ArrayMap;)V&#45;&gt;__field__</title>
<path fill="none" stroke="#dc2626" d="M300.04,-127.37C338.68,-125.65 380.42,-123.79 419.52,-122.05"/>
<polygon fill="#dc2626" stroke="#dc2626" points="419.95,-124.84 427.82,-121.68 419.7,-119.24 419.95,-124.84"/>
<text text-anchor="middle" x="364" y="-128.8" font-family="Helvetica,sans-Serif" font-size="9.00" fill="#dc2626"> reads unguarded</text>
</g>
<!-- m::com.android.server.notification.PreferencesHelper.dumpPackagePreferencesLocked:(Ljava/io/PrintWriter;Ljava/lang/String;Lcom/android/server/notification/NotificationManagerService$DumpFilter;Landroid/util/ArrayMap;Landroid/util/ArrayMap;)V -->
<g id="node5" class="node">
<title>m::com.android.server.notification.PreferencesHelper.dumpPackagePreferencesLocked:(Ljava/io/PrintWriter;Ljava/lang/String;Lcom/android/server/notification/NotificationManagerService$DumpFilter;Landroid/util/ArrayMap;Landroid/util/ArrayMap;)V</title>
<path fill="#fee2e2" stroke="#dc2626" d="M288,-94C288,-94 12,-94 12,-94 6,-94 0,-88 0,-82 0,-82 0,-70 0,-70 0,-64 6,-58 12,-58 12,-58 288,-58 288,-58 294,-58 300,-64 300,-70 300,-70 300,-82 300,-82 300,-88 294,-94 288,-94"/>
<text text-anchor="middle" x="150" y="-73.2" font-family="Helvetica,sans-Serif" font-size="11.00">PreferencesHelper.dumpPackagePreferencesLocked</text>
</g>
<!-- m::com.android.server.notification.PreferencesHelper.dumpPackagePreferencesLocked:(Ljava/io/PrintWriter;Ljava/lang/String;Lcom/android/server/notification/NotificationManagerService$DumpFilter;Landroid/util/ArrayMap;Landroid/util/ArrayMap;)V&#45;&gt;__field__ -->
<g id="edge4" class="edge">
<title>m::com.android.server.notification.PreferencesHelper.dumpPackagePreferencesLocked:(Ljava/io/PrintWriter;Ljava/lang/String;Lcom/android/server/notification/NotificationManagerService$DumpFilter;Landroid/util/ArrayMap;Landroid/util/ArrayMap;)V&#45;&gt;__field__</title>
<path fill="none" stroke="#dc2626" d="M300.04,-89.61C338.68,-93.14 380.42,-96.95 419.52,-100.53"/>
<polygon fill="#dc2626" stroke="#dc2626" points="419.6,-103.34 427.82,-101.28 420.11,-97.77 419.6,-103.34"/>
<text text-anchor="middle" x="364" y="-100.8" font-family="Helvetica,sans-Serif" font-size="9.00" fill="#dc2626"> reads unguarded</text>
</g>
<!-- m::com.android.server.notification.PreferencesHelper.dumpPackagePreferencesLocked:(Ljava/io/PrintWriter;Ljava/lang/String;Lcom/android/server/notification/NotificationManagerService$DumpFilter;Landroid/util/ArrayMap;Landroid/util/ArrayMap;)V&#45;&gt;__field__ -->
<g id="edge5" class="edge">
<title>m::com.android.server.notification.PreferencesHelper.dumpPackagePreferencesLocked:(Ljava/io/PrintWriter;Ljava/lang/String;Lcom/android/server/notification/NotificationManagerService$DumpFilter;Landroid/util/ArrayMap;Landroid/util/ArrayMap;)V&#45;&gt;__field__</title>
<path fill="none" stroke="#dc2626" d="M300.3,-71.25C335.08,-71.62 371.9,-73.21 406,-77 438.5,-80.61 473.87,-87.84 504.03,-95.03"/>
<polygon fill="#dc2626" stroke="#dc2626" points="503.55,-97.79 511.98,-96.95 504.87,-92.35 503.55,-97.79"/>
<text text-anchor="middle" x="364" y="-79.8" font-family="Helvetica,sans-Serif" font-size="9.00" fill="#dc2626"> reads unguarded</text>
</g>
<!-- m::com.android.server.notification.PreferencesHelper.writePackageXml:(Lcom/android/server/notification/PreferencesHelper$PackagePreferences;Lcom/android/modules/utils/TypedXmlSerializer;Landroid/util/ArrayMap;Z)V -->
<g id="node6" class="node">
<title>m::com.android.server.notification.PreferencesHelper.writePackageXml:(Lcom/android/server/notification/PreferencesHelper$PackagePreferences;Lcom/android/modules/utils/TypedXmlSerializer;Landroid/util/ArrayMap;Z)V</title>
<path fill="#fee2e2" stroke="#dc2626" d="M245.5,-36C245.5,-36 54.5,-36 54.5,-36 48.5,-36 42.5,-30 42.5,-24 42.5,-24 42.5,-12 42.5,-12 42.5,-6 48.5,0 54.5,0 54.5,0 245.5,0 245.5,0 251.5,0 257.5,-6 257.5,-12 257.5,-12 257.5,-24 257.5,-24 257.5,-30 251.5,-36 245.5,-36"/>
<text text-anchor="middle" x="150" y="-15.2" font-family="Helvetica,sans-Serif" font-size="11.00">PreferencesHelper.writePackageXml</text>
</g>
<!-- m::com.android.server.notification.PreferencesHelper.writePackageXml:(Lcom/android/server/notification/PreferencesHelper$PackagePreferences;Lcom/android/modules/utils/TypedXmlSerializer;Landroid/util/ArrayMap;Z)V&#45;&gt;__field__ -->
<g id="edge6" class="edge">
<title>m::com.android.server.notification.PreferencesHelper.writePackageXml:(Lcom/android/server/notification/PreferencesHelper$PackagePreferences;Lcom/android/modules/utils/TypedXmlSerializer;Landroid/util/ArrayMap;Z)V&#45;&gt;__field__</title>
<path fill="none" stroke="#dc2626" d="M257.61,-29.48C303.62,-35.56 357.84,-44.26 406,-56 446.6,-65.9 491.21,-81.34 524.82,-93.94"/>
<polygon fill="#dc2626" stroke="#dc2626" points="524.21,-96.7 532.68,-96.91 526.19,-91.47 524.21,-96.7"/>
<text text-anchor="middle" x="364" y="-58.8" font-family="Helvetica,sans-Serif" font-size="9.00" fill="#dc2626"> reads unguarded</text>
</g>
</g>
</svg>
