<?xml version="1.0" encoding="UTF-8" standalone="no"?>
<!DOCTYPE svg PUBLIC "-//W3C//DTD SVG 1.1//EN"
 "http://www.w3.org/Graphics/SVG/1.1/DTD/svg11.dtd">
<!-- Generated by graphviz version 2.43.0 (0)
 -->
<!-- Title: race Pages: 1 -->
<svg width="696pt" height="856pt"
 viewBox="0.00 0.00 696.00 856.00" xmlns="http://www.w3.org/2000/svg" xmlns:xlink="http://www.w3.org/1999/xlink">
<g id="graph0" class="graph" transform="scale(1 1) rotate(0) translate(4 852)">
<title>race</title>
<polygon fill="white" stroke="transparent" points="-4,4 -4,-852 692,-852 692,4 -4,4"/>
<!-- __field__ -->
<g id="node1" class="node">
<title>__field__</title>
<path fill="#fef9c3" stroke="#ca8a04" stroke-width="2" d="M676,-442C676,-442 478,-442 478,-442 472,-442 466,-436 466,-430 466,-430 466,-418 466,-418 466,-412 472,-406 478,-406 478,-406 676,-406 676,-406 682,-406 688,-412 688,-418 688,-418 688,-430 688,-430 688,-436 682,-442 676,-442"/>
<text text-anchor="middle" x="577" y="-421.2" font-family="Helvetica,sans-Serif" font-size="11.00">WindowManager$LayoutParams.flags</text>
</g>
<!-- __guard__ -->
<g id="node2" class="node">
<title>__guard__</title>
<path fill="#dcfce7" stroke="#16a34a" stroke-width="2" d="M279.5,-848C279.5,-848 58.5,-848 58.5,-848 52.5,-848 46.5,-842 46.5,-836 46.5,-836 46.5,-824 46.5,-824 46.5,-818 52.5,-812 58.5,-812 58.5,-812 279.5,-812 279.5,-812 285.5,-812 291.5,-818 291.5,-824 291.5,-824 291.5,-836 291.5,-836 291.5,-842 285.5,-848 279.5,-848"/>
<text text-anchor="middle" x="169" y="-827.2" font-family="Helvetica,sans-Serif" font-size="11.00">ActivityTaskManagerService.mGlobalLock</text>
</g>
<!-- __guard__&#45;&gt;__field__ -->
<g id="edge1" class="edge">
<title>__guard__&#45;&gt;__field__</title>
<path fill="none" stroke="#16a34a" stroke-width="1.6" d="M291.81,-841.25C343.72,-839.75 401.89,-828.92 444,-795 553.78,-706.59 572.35,-519.93 575.42,-450.64"/>
<polygon fill="#16a34a" stroke="#16a34a" stroke-width="1.6" points="578.23,-450.51 575.74,-442.41 572.63,-450.29 578.23,-450.51"/>
<text text-anchor="middle" x="402" y="-834.8" font-family="Helvetica,sans-Serif" font-size="9.00" fill="#15803d"> guards 6/7</text>
</g>
<!-- m::com.android.server.policy.SideFpsToast.onStart:()V -->
<g id="node3" class="node">
<title>m::com.android.server.policy.SideFpsToast.onStart:()V</title>
<path fill="#fee2e2" stroke="#dc2626" d="M222.5,-790C222.5,-790 115.5,-790 115.5,-790 109.5,-790 103.5,-784 103.5,-778 103.5,-778 103.5,-766 103.5,-766 103.5,-760 109.5,-754 115.5,-754 115.5,-754 222.5,-754 222.5,-754 228.5,-754 234.5,-760 234.5,-766 234.5,-766 234.5,-778 234.5,-778 234.5,-784 228.5,-790 222.5,-790"/>
<text text-anchor="middle" x="169" y="-769.2" font-family="Helvetica,sans-Serif" font-size="11.00">SideFpsToast.onStart</text>
</g>
<!-- m::com.android.server.policy.SideFpsToast.onStart:()V&#45;&gt;__field__ -->
<g id="edge2" class="edge">
<title>m::com.android.server.policy.SideFpsToast.onStart:()V&#45;&gt;__field__</title>
<path fill="none" stroke="#dc2626" d="M234.78,-783.46C294.91,-790.35 383.94,-790.55 444,-746 542.49,-672.95 567.78,-513.35 574.03,-450.34"/>
<polygon fill="#dc2626" stroke="#dc2626" points="576.84,-450.33 574.79,-442.11 571.27,-449.81 576.84,-450.33"/>
<text text-anchor="middle" x="402" y="-782.8" font-family="Helvetica,sans-Serif" font-size="9.00" fill="#dc2626"> writes unguarded</text>
</g>
<!-- m::com.android.server.policy.SideFpsToast.onStart:()V&#45;&gt;__field__ -->
<g id="edge3" class="edge">
<title>m::com.android.server.policy.SideFpsToast.onStart:()V&#45;&gt;__field__</title>
<path fill="none" stroke="#dc2626" d="M234.72,-764.75C266.31,-760.22 304.61,-753.26 338,-743 350.36,-739.2 434.73,-704.01 444,-695 517.55,-623.49 555.85,-502.61 569.77,-449.89"/>
<polygon fill="#dc2626" stroke="#dc2626" points="572.51,-450.47 571.79,-442.03 567.09,-449.08 572.51,-450.47"/>
<text text-anchor="middle" x="402" y="-735.8" font-family="Helvetica,sans-Serif" font-size="9.00" fill="#dc2626"> reads unguarded</text>
</g>
<!-- m::com.android.server.wm.AbsAppSnapshotController.drawAppThemeSnapshot:(Lcom/android/server/wm/WindowContainer;)Ljava/util/function/Supplier; -->
<g id="node4" class="node">
<title>m::com.android.server.wm.AbsAppSnapshotController.drawAppThemeSnapshot:(Lcom/android/server/wm/WindowContainer;)Ljava/util/function/Supplier;</title>
<path fill="#fee2e2" stroke="#dc2626" d="M308,-732C308,-732 30,-732 30,-732 24,-732 18,-726 18,-720 18,-720 18,-708 18,-708 18,-702 24,-696 30,-696 30,-696 308,-696 308,-696 314,-696 320,-702 320,-708 320,-708 320,-720 320,-720 320,-726 314,-732 308,-732"/>
<text text-anchor="middle" x="169" y="-711.2" font-family="Helvetica,sans-Serif" font-size="11.00">AbsAppSnapshotController.drawAppThemeSnapshot</text>
</g>
<!-- m::com.android.server.wm.AbsAppSnapshotController.drawAppThemeSnapshot:(Lcom/android/server/wm/WindowContainer;)Ljava/util/function/Supplier;&#45;&gt;__field__ -->
<g id="edge4" class="edge">
<title>m::com.android.server.wm.AbsAppSnapshotController.drawAppThemeSnapshot:(Lcom/android/server/wm/WindowContainer;)Ljava/util/function/Supplier;&#45;&gt;__field__</title>
<path fill="none" stroke="#dc2626" d="M315.79,-695.92C361.18,-684.17 408.57,-664.82 444,-633 503.67,-579.41 546.56,-492.7 565.37,-449.77"/>
<polygon fill="#dc2626" stroke="#dc2626" points="568.01,-450.73 568.61,-442.28 562.86,-448.52 568.01,-450.73"/>
<text text-anchor="middle" x="402" y="-682.8" font-family="Helvetica,sans-Serif" font-size="9.00" fill="#dc2626"> reads unguarded</text>
</g>
<!-- m::com.android.server.wm.ActivityRecord.containsDismissKeyguardWindow:()Z -->
<g id="node5" class="node">
<title>m::com.android.server.wm.ActivityRecord.containsDismissKeyguardWindow:()Z</title>
<path fill="#fee2e2" stroke="#dc2626" d="M299,-674C299,-674 39,-674 39,-674 33,-674 27,-668 27,-662 27,-662 27,-650 27,-650 27,-644 33,-638 39,-638 39,-638 299,-638 299,-638 305,-638 311,-644 311,-650 311,-650 311,-662 311,-662 311,-668 305,-674 299,-674"/>
<text text-anchor="middle" x="169" y="-653.2" font-family="Helvetica,sans-Serif" font-size="11.00">ActivityRecord.containsDismissKeyguardWindow</text>
</g>
<!-- m::com.android.server.wm.ActivityRecord.containsDismissKeyguardWindow:()Z&#45;&gt;__field__ -->
<g id="edge5" class="edge">
<title>m::com.android.server.wm.ActivityRecord.containsDismissKeyguardWindow:()Z&#45;&gt;__field__</title>
<path fill="none" stroke="#dc2626" d="M298.49,-637.94C311.98,-634.82 325.36,-631.2 338,-627 388.17,-610.32 402.18,-605.35 444,-573 491.52,-536.23 535.37,-480.69 558.63,-448.82"/>
<polygon fill="#dc2626" stroke="#dc2626" points="561.13,-450.14 563.54,-442.02 556.59,-446.87 561.13,-450.14"/>
<text text-anchor="middle" x="402" y="-620.8" font-family="Helvetica,sans-Serif" font-size="9.00" fill="#dc2626"> reads unguarded</text>
</g>
<!-- m::com.android.server.wm.ActivityRecord.containsShowWhenLockedWindow:()Z -->
<g id="node6" class="node">
<title>m::com.android.server.wm.ActivityRecord.containsShowWhenLockedWindow:()Z</title>
<path fill="#fee2e2" stroke="#dc2626" d="M301.5,-616C301.5,-616 36.5,-616 36.5,-616 30.5,-616 24.5,-610 24.5,-604 24.5,-604 24.5,-592 24.5,-592 24.5,-586 30.5,-580 36.5,-580 36.5,-580 301.5,-580 301.5,-580 307.5,-580 313.5,-586 313.5,-592 313.5,-592 313.5,-604 313.5,-604 313.5,-610 307.5,-616 301.5,-616"/>
<text text-anchor="middle" x="169" y="-595.2" font-family="Helvetica,sans-Serif" font-size="11.00">ActivityRecord.containsShowWhenLockedWindow</text>
</g>
<!-- m::com.android.server.wm.ActivityRecord.containsShowWhenLockedWindow:()Z&#45;&gt;__field__ -->
<g id="edge6" class="edge">
<title>m::com.android.server.wm.ActivityRecord.containsShowWhenLockedWindow:()Z&#45;&gt;__field__</title>
<path fill="none" stroke="#dc2626" d="M297.05,-579.95C311,-576.82 324.89,-573.19 338,-569 421.33,-542.34 505.68,-481 548.04,-447.27"/>
<polygon fill="#dc2626" stroke="#dc2626" points="549.99,-449.3 554.47,-442.1 546.48,-444.93 549.99,-449.3"/>
<text text-anchor="middle" x="402" y="-560.8" font-family="Helvetica,sans-Serif" font-size="9.00" fill="#dc2626"> reads unguarded</text>
</g>
<!-- m::com.android.server.wm.ActivityRecord.containsTurnScreenOnWindow:()Z -->
<g id="node7" class="node">
<title>m::com.android.server.wm.ActivityRecord.containsTurnScreenOnWindow:()Z</title>
<path fill="#fee2e2" stroke="#dc2626" d="M290,-558C290,-558 48,-558 48,-558 42,-558 36,-552 36,-546 36,-546 36,-534 36,-534 36,-528 42,-522 48,-522 48,-522 290,-522 290,-522 296,-522 302,-528 302,-534 302,-534 302,-546 302,-546 302,-552 296,-558 290,-558"/>
<text text-anchor="middle" x="169" y="-537.2" font-family="Helvetica,sans-Serif" font-size="11.00">ActivityRecord.containsTurnScreenOnWindow</text>
</g>
<!-- m::com.android.server.wm.ActivityRecord.containsTurnScreenOnWindow:()Z&#45;&gt;__field__ -->
<g id="edge7" class="edge">
<title>m::com.android.server.wm.ActivityRecord.containsTurnScreenOnWindow:()Z&#45;&gt;__field__</title>
<path fill="none" stroke="#dc2626" d="M290.34,-521.93C306.46,-518.72 322.7,-515.08 338,-511 404.58,-493.24 478.77,-464.65 526.35,-445.12"/>
<polygon fill="#dc2626" stroke="#dc2626" points="527.42,-447.71 533.75,-442.07 525.28,-442.53 527.42,-447.71"/>
<text text-anchor="middle" x="402" y="-505.8" font-family="Helvetica,sans-Serif" font-size="9.00" fill="#dc2626"> reads unguarded</text>
</g>
<!-- m::com.android.server.wm.AppCompatLetterboxPolicy.shouldShowLetterboxUi:(Lcom/android/server/wm/WindowState;)Z -->
<g id="node8" class="node">
<title>m::com.android.server.wm.AppCompatLetterboxPolicy.shouldShowLetterboxUi:(Lcom/android/server/wm/WindowState;)Z</title>
<path fill="#fee2e2" stroke="#dc2626" d="M305.5,-500C305.5,-500 32.5,-500 32.5,-500 26.5,-500 20.5,-494 20.5,-488 20.5,-488 20.5,-476 20.5,-476 20.5,-470 26.5,-464 32.5,-464 32.5,-464 305.5,-464 305.5,-464 311.5,-464 317.5,-470 317.5,-476 317.5,-476 317.5,-488 317.5,-488 317.5,-494 311.5,-500 305.5,-500"/>
<text text-anchor="middle" x="169" y="-479.2" font-family="Helvetica,sans-Serif" font-size="11.00">AppCompatLetterboxPolicy.shouldShowLetterboxUi</text>
</g>
<!-- m::com.android.server.wm.AppCompatLetterboxPolicy.shouldShowLetterboxUi:(Lcom/android/server/wm/WindowState;)Z&#45;&gt;__field__ -->
<g id="edge8" class="edge">
<title>m::com.android.server.wm.AppCompatLetterboxPolicy.shouldShowLetterboxUi:(Lcom/android/server/wm/WindowState;)Z&#45;&gt;__field__</title>
<path fill="none" stroke="#dc2626" d="M296.24,-463.97C347.83,-456.6 407.18,-448.12 457.91,-440.87"/>
<polygon fill="#dc2626" stroke="#dc2626" points="458.45,-443.62 465.97,-439.72 457.65,-438.08 458.45,-443.62"/>
<text text-anchor="middle" x="402" y="-456.8" font-family="Helvetica,sans-Serif" font-size="9.00" fill="#dc2626"> reads unguarded</text>
</g>
<!-- m::com.android.server.wm.DisplayContent.canComputeImeParent:(Lcom/android/server/wm/WindowState;Lcom/android/server/wm/InputTarget;)Z -->
<g id="node9" class="node">
<title>m::com.android.server.wm.DisplayContent.canComputeImeParent:(Lcom/android/server/wm/WindowState;Lcom/android/server/wm/InputTarget;)Z</title>
<path fill="#fee2e2" stroke="#dc2626" d="M271.5,-442C271.5,-442 66.5,-442 66.5,-442 60.5,-442 54.5,-436 54.5,-430 54.5,-430 54.5,-418 54.5,-418 54.5,-412 60.5,-406 66.5,-406 66.5,-406 271.5,-406 271.5,-406 277.5,-406 283.5,-412 283.5,-418 283.5,-418 283.5,-430 283.5,-430 283.5,-436 277.5,-442 271.5,-442"/>
<text text-anchor="middle" x="169" y="-421.2" font-family="Helvetica,sans-Serif" font-size="11.00">DisplayContent.canComputeImeParent</text>
</g>
<!-- m::com.android.server.wm.DisplayContent.canComputeImeParent:(Lcom/android/server/wm/WindowState;Lcom/android/server/wm/InputTarget;)Z&#45;&gt;__field__ -->
<g id="edge9" class="edge">
<title>m::com.android.server.wm.DisplayContent.canComputeImeParent:(Lcom/android/server/wm/WindowState;Lcom/android/server/wm/InputTarget;)Z&#45;&gt;__field__</title>
<path fill="none" stroke="#dc2626" d="M283.63,-424C337.97,-424 402.97,-424 457.87,-424"/>
<polygon fill="#dc2626" stroke="#dc2626" points="457.9,-426.8 465.9,-424 457.9,-421.2 457.9,-426.8"/>
<text text-anchor="middle" x="402" y="-426.8" font-family="Helvetica,sans-Serif" font-size="9.00" fill="#dc2626"> reads unguarded</text>
</g>
<!-- m::com.android.server.wm.DisplayContent.logsGestureExclusionRestrictions:(Lcom/android/server/wm/WindowState;)Z -->
<g id="node10" class="node">
<title>m::com.android.server.wm.DisplayContent.logsGestureExclusionRestrictions:(Lcom/android/server/wm/WindowState;)Z</title>
<path fill="#fee2e2" stroke="#dc2626" d="M300.5,-384C300.5,-384 37.5,-384 37.5,-384 31.5,-384 25.5,-378 25.5,-372 25.5,-372 25.5,-360 25.5,-360 25.5,-354 31.5,-348 37.5,-348 37.5,-348 300.5,-348 300.5,-348 306.5,-348 312.5,-354 312.5,-360 312.5,-360 312.5,-372 312.5,-372 312.5,-378 306.5,-384 300.5,-384"/>
<text text-anchor="middle" x="169" y="-363.2" font-family="Helvetica,sans-Serif" font-size="11.00">DisplayContent.logsGestureExclusionRestrictions</text>
</g>
<!-- m::com.android.server.wm.DisplayContent.logsGestureExclusionRestrictions:(Lcom/android/server/wm/WindowState;)Z&#45;&gt;__field__ -->
<g id="edge10" class="edge">
<title>m::com.android.server.wm.DisplayContent.logsGestureExclusionRestrictions:(Lcom/android/server/wm/WindowState;)Z&#45;&gt;__field__</title>
<path fill="none" stroke="#dc2626" d="M296.24,-384.03C347.83,-391.4 407.18,-399.88 457.91,-407.13"/>
<polygon fill="#dc2626" stroke="#dc2626" points="457.65,-409.92 465.97,-408.28 458.45,-404.38 457.65,-409.92"/>
<text text-anchor="middle" x="402" y="-405.8" font-family="Helvetica,sans-Serif" font-size="9.00" fill="#dc2626"> reads unguarded</text>
</g>
<!-- m::com.android.server.wm.DisplayPolicy.applyPostLayoutPolicyLw:(Lcom/android/server/wm/WindowState;Landroid/view/WindowManager$LayoutParams;Lcom/android/server/wm/WindowState;Lcom/android/server/wm/WindowState;)V -->
<g id="node11" class="node">
<title>m::com.android.server.wm.DisplayPolicy.applyPostLayoutPolicyLw:(Lcom/android/server/wm/WindowState;Landroid/view/WindowManager$LayoutParams;Lcom/android/server/wm/WindowState;Lcom/android/server/wm/WindowState;)V</title>
<path fill="#fee2e2" stroke="#dc2626" d="M271,-326C271,-326 67,-326 67,-326 61,-326 55,-320 55,-314 55,-314 55,-302 55,-302 55,-296 61,-290 67,-290 67,-290 271,-290 271,-290 277,-290 283,-296 283,-302 283,-302 283,-314 283,-314 283,-320 277,-326 271,-326"/>
<text text-anchor="middle" x="169" y="-305.2" font-family="Helvetica,sans-Serif" font-size="11.00">DisplayPolicy.applyPostLayoutPolicyLw</text>
</g>
<!-- m::com.android.server.wm.DisplayPolicy.applyPostLayoutPolicyLw:(Lcom/android/server/wm/WindowState;Landroid/view/WindowManager$LayoutParams;Lcom/android/server/wm/WindowState;Lcom/android/server/wm/WindowState;)V&#45;&gt;__field__ -->
<g id="edge11" class="edge">
<title>m::com.android.server.wm.DisplayPolicy.applyPostLayoutPolicyLw:(Lcom/android/server/wm/WindowState;Landroid/view/WindowManager$LayoutParams;Lcom/android/server/wm/WindowState;Lcom/android/server/wm/WindowState;)V&#45;&gt;__field__</title>
<path fill="none" stroke="#dc2626" d="M283.11,-324.66C301.58,-328.2 320.41,-332.31 338,-337 404.58,-354.76 478.77,-383.35 526.35,-402.88"/>
<polygon fill="#dc2626" stroke="#dc2626" points="525.28,-405.47 533.75,-405.93 527.42,-400.29 525.28,-405.47"/>
<text text-anchor="middle" x="402" y="-372.8" font-family="Helvetica,sans-Serif" font-size="9.00" fill="#dc2626"> reads unguarded</text>
</g>
<!-- m::com.android.server.wm.DisplayPolicy.chooseNavigationColorWindowLw:(Lcom/android/server/wm/WindowState;Lcom/android/server/wm/WindowState;Z)Lcom/android/server/wm/WindowState; -->
<g id="node12" class="node">
<title>m::com.android.server.wm.DisplayPolicy.chooseNavigationColorWindowLw:(Lcom/android/server/wm/WindowState;Lcom/android/server/wm/WindowState;Z)Lcom/android/server/wm/WindowState;</title>
<path fill="#fee2e2" stroke="#dc2626" d="M294.5,-268C294.5,-268 43.5,-268 43.5,-268 37.5,-268 31.5,-262 31.5,-256 31.5,-256 31.5,-244 31.5,-244 31.5,-238 37.5,-232 43.5,-232 43.5,-232 294.5,-232 294.5,-232 300.5,-232 306.5,-238 306.5,-244 306.5,-244 306.5,-256 306.5,-256 306.5,-262 300.5,-268 294.5,-268"/>
<text text-anchor="middle" x="169" y="-247.2" font-family="Helvetica,sans-Serif" font-size="11.00">DisplayPolicy.chooseNavigationColorWindowLw</text>
</g>
<!-- m::com.android.server.wm.DisplayPolicy.chooseNavigationColorWindowLw:(Lcom/android/server/wm/WindowState;Lcom/android/server/wm/WindowState;Z)Lcom/android/server/wm/WindowState;&#45;&gt;__field__ -->
<g id="edge12" class="edge">
<title>m::com.android.server.wm.DisplayPolicy.chooseNavigationColorWindowLw:(Lcom/android/server/wm/WindowState;Lcom/android/server/wm/WindowState;Z)Lcom/android/server/wm/WindowState;&#45;&gt;__field__</title>
<path fill="none" stroke="#dc2626" d="M296.57,-268.05C310.68,-271.18 324.73,-274.81 338,-279 421.43,-305.34 505.74,-366.82 548.07,-400.65"/>
<polygon fill="#dc2626" stroke="#dc2626" points="546.51,-402.99 554.49,-405.83 550.02,-398.63 546.51,-402.99"/>
<text text-anchor="middle" x="402" y="-328.8" font-family="Helvetica,sans-Serif" font-size="9.00" fill="#dc2626"> reads unguarded</text>
</g>
<!-- m::com.android.server.wm.DisplayPolicy.chooseNavigationColorWindowLw:(Lcom/android/server/wm/WindowState;Lcom/android/server/wm/WindowState;Z)Lcom/android/server/wm/WindowState;&#45;&gt;__field__ -->
<g id="edge13" class="edge">
<title>m::com.android.server.wm.DisplayPolicy.chooseNavigationColorWindowLw:(Lcom/android/server/wm/WindowState;Lcom/android/server/wm/WindowState;Z)Lcom/android/server/wm/WindowState;&#45;&gt;__field__</title>
<path fill="none" stroke="#dc2626" d="M306.56,-242.01C352.3,-244.41 402.24,-252.88 444,-274 499.34,-301.99 541.77,-364.04 562.32,-398.93"/>
<polygon fill="#dc2626" stroke="#dc2626" points="559.95,-400.42 566.37,-405.94 564.79,-397.61 559.95,-400.42"/>
<text text-anchor="middle" x="402" y="-276.8" font-family="Helvetica,sans-Serif" font-size="9.00" fill="#dc2626"> reads unguarded</text>
</g>
<!-- m::com.android.server.wm.DisplayPolicy.drawsBarBackground:(Lcom/android/server/wm/WindowState;I)Z -->
<g id="node13" class="node">
<title>m::com.android.server.wm.DisplayPolicy.drawsBarBackground:(Lcom/android/server/wm/WindowState;I)Z</title>
<path fill="#fee2e2" stroke="#dc2626" d="M260.5,-210C260.5,-210 77.5,-210 77.5,-210 71.5,-210 65.5,-204 65.5,-198 65.5,-198 65.5,-186 65.5,-186 65.5,-180 71.5,-174 77.5,-174 77.5,-174 260.5,-174 260.5,-174 266.5,-174 272.5,-180 272.5,-186 272.5,-186 272.5,-198 272.5,-198 272.5,-204 266.5,-210 260.5,-210"/>
<text text-anchor="middle" x="169" y="-189.2" font-family="Helvetica,sans-Serif" font-size="11.00">DisplayPolicy.drawsBarBackground</text>
</g>
<!-- m::com.android.server.wm.DisplayPolicy.drawsBarBackground:(Lcom/android/server/wm/WindowState;I)Z&#45;&gt;__field__ -->
<g id="edge14" class="edge">
<title>m::com.android.server.wm.DisplayPolicy.drawsBarBackground:(Lcom/android/server/wm/WindowState;I)Z&#45;&gt;__field__</title>
<path fill="none" stroke="#dc2626" d="M272.72,-188.28C327.25,-190.81 393.28,-201.39 444,-233 507.79,-272.76 548.69,-355.94 566.2,-398.19"/>
<polygon fill="#dc2626" stroke="#dc2626" points="563.69,-399.46 569.29,-405.83 568.88,-397.36 563.69,-399.46"/>
<text text-anchor="middle" x="402" y="-235.8" font-family="Helvetica,sans-Serif" font-size="9.00" fill="#dc2626"> reads unguarded</text>
</g>
<!-- m::com.android.server.wm.InputMonitor.populateInputWindowHandle:(Lcom/android/server/wm/InputWindowHandleWrapper;Lcom/android/server/wm/WindowState;)V -->
<g id="node14" class="node">
<title>m::com.android.server.wm.InputMonitor.populateInputWindowHandle:(Lcom/android/server/wm/InputWindowHandleWrapper;Lcom/android/server/wm/WindowState;)V</title>
<path fill="#fee2e2" stroke="#dc2626" d="M280,-152C280,-152 58,-152 58,-152 52,-152 46,-146 46,-140 46,-140 46,-128 46,-128 46,-122 52,-116 58,-116 58,-116 280,-116 280,-116 286,-116 292,-122 292,-128 292,-128 292,-140 292,-140 292,-146 286,-152 280,-152"/>
<text text-anchor="middle" x="169" y="-131.2" font-family="Helvetica,sans-Serif" font-size="11.00">InputMonitor.populateInputWindowHandle</text>
</g>
<!-- m::com.android.server.wm.InputMonitor.populateInputWindowHandle:(Lcom/android/server/wm/InputWindowHandleWrapper;Lcom/android/server/wm/WindowState;)V&#45;&gt;__field__ -->
<g id="edge15" class="edge">
<title>m::com.android.server.wm.InputMonitor.populateInputWindowHandle:(Lcom/android/server/wm/InputWindowHandleWrapper;Lcom/android/server/wm/WindowState;)V&#45;&gt;__field__</title>
<path fill="none" stroke="#dc2626" d="M292.1,-133.41C343.16,-138.63 400.59,-152.23 444,-184 518.34,-238.4 555.76,-347.9 569.56,-397.95"/>
<polygon fill="#dc2626" stroke="#dc2626" points="566.87,-398.74 571.65,-405.74 572.28,-397.29 566.87,-398.74"/>
<text text-anchor="middle" x="402" y="-186.8" font-family="Helvetica,sans-Serif" font-size="9.00" fill="#dc2626"> reads unguarded</text>
</g>
<!-- m::com.android.server.wm.TaskFragment.$r8$lambda$eL7StY30NtrZuHKi3Zi5XR_pBxI:(Lcom/android/server/wm/WindowState;)Z -->
<g id="node15" class="node">
<title>m::com.android.server.wm.TaskFragment.$r8$lambda$eL7StY30NtrZuHKi3Zi5XR_pBxI:(Lcom/android/server/wm/WindowState;)Z</title>
<path fill="#fee2e2" stroke="#dc2626" d="M326,-94C326,-94 12,-94 12,-94 6,-94 0,-88 0,-82 0,-82 0,-70 0,-70 0,-64 6,-58 12,-58 12,-58 326,-58 326,-58 332,-58 338,-64 338,-70 338,-70 338,-82 338,-82 338,-88 332,-94 326,-94"/>
<text text-anchor="middle" x="169" y="-73.2" font-family="Helvetica,sans-Serif" font-size="11.00">TaskFragment.$r8$lambda$eL7StY30NtrZuHKi3Zi5XR_pBxI</text>
</g>
<!-- m::com.android.server.wm.TaskFragment.$r8$lambda$eL7StY30NtrZuHKi3Zi5XR_pBxI:(Lcom/android/server/wm/WindowState;)Z&#45;&gt;__field__ -->
<g id="edge16" class="edge">
<title>m::com.android.server.wm.TaskFragment.$r8$lambda$eL7StY30NtrZuHKi3Zi5XR_pBxI:(Lcom/android/server/wm/WindowState;)Z&#45;&gt;__field__</title>
<path fill="none" stroke="#dc2626" d="M338.14,-83.04C376.22,-91.49 414.16,-106.17 444,-131 529.46,-202.11 561.86,-340.05 572.02,-397.69"/>
<polygon fill="#dc2626" stroke="#dc2626" points="569.31,-398.49 573.41,-405.91 574.83,-397.56 569.31,-398.49"/>
<text text-anchor="middle" x="402" y="-133.8" font-family="Helvetica,sans-Serif" font-size="9.00" fill="#dc2626"> reads unguarded</text>
</g>
<!-- m::com.android.server.wm.WallpaperController.updateWallpaperOffset:(Lcom/android/server/wm/WindowState;)Z -->
<g id="node16" class="node">
<title>m::com.android.server.wm.WallpaperController.updateWallpaperOffset:(Lcom/android/server/wm/WindowState;)Z</title>
<path fill="#fee2e2" stroke="#dc2626" d="M284.5,-36C284.5,-36 53.5,-36 53.5,-36 47.5,-36 41.5,-30 41.5,-24 41.5,-24 41.5,-12 41.5,-12 41.5,-6 47.5,0 53.5,0 53.5,0 284.5,0 284.5,0 290.5,0 296.5,-6 296.5,-12 296.5,-12 296.5,-24 296.5,-24 296.5,-30 290.5,-36 284.5,-36"/>
<text text-anchor="middle" x="169" y="-15.2" font-family="Helvetica,sans-Serif" font-size="11.00">WallpaperController.updateWallpaperOffset</text>
</g>
<!-- m::com.android.server.wm.WallpaperController.updateWallpaperOffset:(Lcom/android/server/wm/WindowState;)Z&#45;&gt;__field__ -->
<g id="edge17" class="edge">
<title>m::com.android.server.wm.WallpaperController.updateWallpaperOffset:(Lcom/android/server/wm/WindowState;)Z&#45;&gt;__field__</title>
<path fill="none" stroke="#dc2626" d="M296.52,-17.08C347.75,-22.98 404.1,-38.31 444,-74 542.9,-162.47 568.02,-332.68 574.13,-397.79"/>
<polygon fill="#dc2626" stroke="#dc2626" points="571.35,-398.18 574.84,-405.91 576.93,-397.69 571.35,-398.18"/>
<text text-anchor="middle" x="402" y="-76.8" font-family="Helvetica,sans-Serif" font-size="9.00" fill="#dc2626"> reads unguarded</text>
</g>
</g>
</svg>
