<?xml version="1.0" encoding="UTF-8" standalone="no"?>
<!DOCTYPE svg PUBLIC "-//W3C//DTD SVG 1.1//EN"
 "http://www.w3.org/Graphics/SVG/1.1/DTD/svg11.dtd">
<!-- Generated by graphviz version 2.43.0 (0)
 -->
<!-- Title: race Pages: 1 -->
<svg width="722pt" height="168pt"
 viewBox="0.00 0.00 722.00 168.00" xmlns="http://www.w3.org/2000/svg" xmlns:xlink="http://www.w3.org/1999/xlink">
<g id="graph0" class="graph" transform="scale(1 1) rotate(0) translate(4 164)">
<title>race</title>
<polygon fill="white" stroke="transparent" points="-4,4 -4,-164 718,-164 718,4 -4,4"/>
<!-- __field__ -->
<g id="node1" class="node">
<title>__field__</title>
<path fill="#fef9c3" stroke="#ca8a04" stroke-width="2" d="M702,-83C702,-83 466,-83 466,-83 460,-83 454,-77 454,-71 454,-71 454,-59 454,-59 454,-53 460,-47 466,-47 466,-47 702,-47 702,-47 708,-47 714,-53 714,-59 714,-59 714,-71 714,-71 714,-77 708,-83 702,-83"/>
<text text-anchor="middle" x="584" y="-62.2" font-family="Helvetica,sans-Serif" font-size="11.00">AnyMotionDetector.mPreviousGravityVector</text>
</g>
<!-- __guard__ -->
<g id="node2" class="node">
<title>__guard__</title>
<path fill="#dcfce7" stroke="#16a34a" stroke-width="2" d="M231.5,-160C231.5,-160 94.5,-160 94.5,-160 88.5,-160 82.5,-154 82.5,-148 82.5,-148 82.5,-136 82.5,-136 82.5,-130 88.5,-124 94.5,-124 94.5,-124 231.5,-124 231.5,-124 237.5,-124 243.5,-130 243.5,-136 243.5,-136 243.5,-148 243.5,-148 243.5,-154 237.5,-160 231.5,-160"/>
<text text-anchor="middle" x="163" y="-139.2" font-family="Helvetica,sans-Serif" font-size="11.00">AnyMotionDetector.mLock</text>
</g>
<!-- __guard__&#45;&gt;__field__ -->
<g id="edge1" class="edge">
<title>__guard__&#45;&gt;__field__</title>
<path fill="none" stroke="#16a34a" stroke-width="1.6" d="M243.54,-127.88C269.8,-123.19 299.16,-117.91 326,-113 376.54,-103.76 432.64,-93.3 479.49,-84.52"/>
<polygon fill="#16a34a" stroke="#16a34a" stroke-width="1.6" points="480.18,-87.23 487.53,-83.01 479.15,-81.73 480.18,-87.23"/>
<text text-anchor="middle" x="390" y="-109.8" font-family="Helvetica,sans-Serif" font-size="9.00" fill="#15803d"> guards 2/3</text>
</g>
<!-- m::com.android.server.AnyMotionDetector.stopOrientationMeasurementLocked:()I -->
<g id="node3" class="node">
<title>m::com.android.server.AnyMotionDetector.stopOrientationMeasurementLocked:()I</title>
<path fill="#fee2e2" stroke="#dc2626" d="M314,-102C314,-102 12,-102 12,-102 6,-102 0,-96 0,-90 0,-90 0,-78 0,-78 0,-72 6,-66 12,-66 12,-66 314,-66 314,-66 320,-66 326,-72 326,-78 326,-78 326,-90 326,-90 326,-96 320,-102 314,-102"/>
<text text-anchor="middle" x="163" y="-81.2" font-family="Helvetica,sans-Serif" font-size="11.00">AnyMotionDetector.stopOrientationMeasurementLocked</text>
</g>
<!-- m::com.android.server.AnyMotionDetector.stopOrientationMeasurementLocked:()I&#45;&gt;__field__ -->
<g id="edge2" class="edge">
<title>m::com.android.server.AnyMotionDetector.stopOrientationMeasurementLocked:()I&#45;&gt;__field__</title>
<path fill="none" stroke="#dc2626" d="M326.3,-76.64C365.73,-74.85 407.51,-72.96 445.66,-71.23"/>
<polygon fill="#dc2626" stroke="#dc2626" points="445.87,-74.02 453.74,-70.86 445.62,-68.43 445.87,-74.02"/>
<text text-anchor="middle" x="390" y="-77.8" font-family="Helvetica,sans-Serif" font-size="9.00" fill="#dc2626"> writes unguarded</text>
</g>
<!-- m::com.android.server.AnyMotionDetector.getStationaryStatusLocked:()I -->
<g id="node4" class="node">
<title>m::com.android.server.AnyMotionDetector.getStationaryStatusLocked:()I</title>
<path fill="#fee2e2" stroke="#dc2626" d="M288.5,-36C288.5,-36 37.5,-36 37.5,-36 31.5,-36 25.5,-30 25.5,-24 25.5,-24 25.5,-12 25.5,-12 25.5,-6 31.5,0 37.5,0 37.5,0 288.5,0 288.5,0 294.5,0 300.5,-6 300.5,-12 300.5,-12 300.5,-24 300.5,-24 300.5,-30 294.5,-36 288.5,-36"/>
<text text-anchor="middle" x="163" y="-15.2" font-family="Helvetica,sans-Serif" font-size="11.00">AnyMotionDetector.getStationaryStatusLocked</text>
</g>
<!-- m::com.android.server.AnyMotionDetector.getStationaryStatusLocked:()I&#45;&gt;__field__ -->
<g id="edge3" class="edge">
<title>m::com.android.server.AnyMotionDetector.getStationaryStatusLocked:()I&#45;&gt;__field__</title>
<path fill="none" stroke="#dc2626" d="M300.62,-33.32C347.12,-38.54 399.1,-44.37 445.66,-49.59"/>
<polygon fill="#dc2626" stroke="#dc2626" points="445.42,-52.39 453.69,-50.49 446.05,-46.82 445.42,-52.39"/>
<text text-anchor="middle" x="390" y="-49.8" font-family="Helvetica,sans-Serif" font-size="9.00" fill="#dc2626"> reads unguarded</text>
</g>
<!-- m::com.android.server.AnyMotionDetector.getStationaryStatusLocked:()I&#45;&gt;__field__ -->
<g id="edge4" class="edge">
<title>m::com.android.server.AnyMotionDetector.getStationaryStatusLocked:()I&#45;&gt;__field__</title>
<path fill="none" stroke="#dc2626" d="M300.54,-13.91C342.86,-14.42 389.52,-16.8 432,-23 462.39,-27.44 495.33,-36.12 522.67,-44.45"/>
<polygon fill="#dc2626" stroke="#dc2626" points="522.12,-47.21 530.59,-46.9 523.78,-41.86 522.12,-47.21"/>
<text text-anchor="middle" x="390" y="-25.8" font-family="Helvetica,sans-Serif" font-size="9.00" fill="#dc2626"> reads unguarded</text>
</g>
</g>
</svg>
