<?xml version="1.0" encoding="UTF-8" standalone="no"?>
<!DOCTYPE svg PUBLIC "-//W3C//DTD SVG 1.1//EN"
 "http://www.w3.org/Graphics/SVG/1.1/DTD/svg11.dtd">
<!-- Generated by graphviz version 2.43.0 (0)
 -->
<!-- Title: race Pages: 1 -->
<svg width="625pt" height="160pt"
 viewBox="0.00 0.00 625.00 160.00" xmlns="http://www.w3.org/2000/svg" xmlns:xlink="http://www.w3.org/1999/xlink">
<g id="graph0" class="graph" transform="scale(1 1) rotate(0) translate(4 156)">
<title>race</title>
<polygon fill="white" stroke="transparent" points="-4,4 -4,-156 621,-156 621,4 -4,4"/>
<!-- __field__ -->
<g id="node1" class="node">
<title>__field__</title>
<path fill="#fef9c3" stroke="#ca8a04" stroke-width="2" d="M605,-94C605,-94 441,-94 441,-94 435,-94 429,-88 429,-82 429,-82 429,-70 429,-70 429,-64 435,-58 441,-58 441,-58 605,-58 605,-58 611,-58 617,-64 617,-70 617,-70 617,-82 617,-82 617,-88 611,-94 605,-94"/>
<text text-anchor="middle" x="523" y="-73.2" font-family="Helvetica,sans-Serif" font-size="11.00">ZenModeConfig$ZenRule.name</text>
</g>
<!-- __guard__ -->
<g id="node2" class="node">
<title>__guard__</title>
<path fill="#dcfce7" stroke="#16a34a" stroke-width="2" d="M226.5,-152C226.5,-152 74.5,-152 74.5,-152 68.5,-152 62.5,-146 62.5,-140 62.5,-140 62.5,-128 62.5,-128 62.5,-122 68.5,-116 74.5,-116 74.5,-116 226.5,-116 226.5,-116 232.5,-116 238.5,-122 238.5,-128 238.5,-128 238.5,-140 238.5,-140 238.5,-146 232.5,-152 226.5,-152"/>
<text text-anchor="middle" x="150.5" y="-131.2" font-family="Helvetica,sans-Serif" font-size="11.00">ZenModeHelper.mConfigLock</text>
</g>
<!-- __guard__&#45;&gt;__field__ -->
<g id="edge1" class="edge">
<title>__guard__&#45;&gt;__field__</title>
<path fill="none" stroke="#16a34a" stroke-width="1.6" d="M238.83,-120.33C293.39,-111.79 363.84,-100.76 420.83,-91.84"/>
<polygon fill="#16a34a" stroke="#16a34a" stroke-width="1.6" points="421.3,-94.6 428.78,-90.59 420.44,-89.06 421.3,-94.6"/>
<text text-anchor="middle" x="365" y="-108.8" font-family="Helvetica,sans-Serif" font-size="9.00" fill="#15803d"> guards 4/6</text>
</g>
<!-- m::com.android.server.notification.ZenModeHelper.updateRuleStringsForCurrentLocale:(Landroid/content/Context;Landroid/service/notification/ZenModeConfig;)V -->
<g id="node3" class="node">
<title>m::com.android.server.notification.ZenModeHelper.updateRuleStringsForCurrentLocale:(Landroid/content/Context;Landroid/service/notification/ZenModeConfig;)V</title>
<path fill="#fee2e2" stroke="#dc2626" d="M289,-94C289,-94 12,-94 12,-94 6,-94 0,-88 0,-82 0,-82 0,-70 0,-70 0,-64 6,-58 12,-58 12,-58 289,-58 289,-58 295,-58 301,-64 301,-70 301,-70 301,-82 301,-82 301,-88 295,-94 289,-94"/>
<text text-anchor="middle" x="150.5" y="-73.2" font-family="Helvetica,sans-Serif" font-size="11.00">ZenModeHelper.updateRuleStringsForCurrentLocale</text>
</g>
<!-- m::com.android.server.notification.ZenModeHelper.updateRuleStringsForCurrentLocale:(Landroid/content/Context;Landroid/service/notification/ZenModeConfig;)V&#45;&gt;__field__ -->
<g id="edge2" class="edge">
<title>m::com.android.server.notification.ZenModeHelper.updateRuleStringsForCurrentLocale:(Landroid/content/Context;Landroid/service/notification/ZenModeConfig;)V&#45;&gt;__field__</title>
<path fill="none" stroke="#dc2626" d="M301.13,-76C341.27,-76 383.73,-76 420.59,-76"/>
<polygon fill="#dc2626" stroke="#dc2626" points="420.85,-78.8 428.85,-76 420.85,-73.2 420.85,-78.8"/>
<text text-anchor="middle" x="365" y="-78.8" font-family="Helvetica,sans-Serif" font-size="9.00" fill="#dc2626"> writes unguarded</text>
</g>
<!-- m::com.android.server.notification.ZenModeHelper.updateRuleStringsForCurrentLocale:(Landroid/content/Context;Landroid/service/notification/ZenModeConfig;)V&#45;&gt;__field__ -->
<g id="edge3" class="edge">
<title>m::com.android.server.notification.ZenModeHelper.updateRuleStringsForCurrentLocale:(Landroid/content/Context;Landroid/service/notification/ZenModeConfig;)V&#45;&gt;__field__</title>
<path fill="none" stroke="#dc2626" d="M301.15,-61.02C335.9,-59.26 372.75,-58.78 407,-61 411.46,-61.29 416.01,-61.64 420.6,-62.04"/>
<polygon fill="#dc2626" stroke="#dc2626" points="420.67,-64.86 428.9,-62.82 421.19,-59.29 420.67,-64.86"/>
<text text-anchor="middle" x="365" y="-63.8" font-family="Helvetica,sans-Serif" font-size="9.00" fill="#dc2626"> writes unguarded</text>
</g>
<!-- m::com.android.server.notification.ZenModeHelper.zenRuleToAutomaticZenRule:(Landroid/service/notification/ZenModeConfig$ZenRule;)Landroid/app/AutomaticZenRule; -->
<g id="node4" class="node">
<title>m::com.android.server.notification.ZenModeHelper.zenRuleToAutomaticZenRule:(Landroid/service/notification/ZenModeConfig$ZenRule;)Landroid/app/AutomaticZenRule;</title>
<path fill="#fee2e2" stroke="#dc2626" d="M270,-36C270,-36 31,-36 31,-36 25,-36 19,-30 19,-24 19,-24 19,-12 19,-12 19,-6 25,0 31,0 31,0 270,0 270,0 276,0 282,-6 282,-12 282,-12 282,-24 282,-24 282,-30 276,-36 270,-36"/>
<text text-anchor="middle" x="150.5" y="-15.2" font-family="Helvetica,sans-Serif" font-size="11.00">ZenModeHelper.zenRuleToAutomaticZenRule</text>
</g>
<!-- m::com.android.server.notification.ZenModeHelper.zenRuleToAutomaticZenRule:(Landroid/service/notification/ZenModeConfig$ZenRule;)Landroid/app/AutomaticZenRule;&#45;&gt;__field__ -->
<g id="edge4" class="edge">
<title>m::com.android.server.notification.ZenModeHelper.zenRuleToAutomaticZenRule:(Landroid/service/notification/ZenModeConfig$ZenRule;)Landroid/app/AutomaticZenRule;&#45;&gt;__field__</title>
<path fill="none" stroke="#dc2626" d="M282.09,-26.98C322.36,-30.9 366.69,-36.4 407,-44 423.28,-47.07 440.6,-51.34 456.73,-55.77"/>
<polygon fill="#dc2626" stroke="#dc2626" points="456.08,-58.49 464.54,-57.95 457.59,-53.1 456.08,-58.49"/>
<text text-anchor="middle" x="365" y="-46.8" font-family="Helvetica,sans-Serif" font-size="9.00" fill="#dc2626"> reads unguarded</text>
</g>
</g>
</svg>
