<?xml version="1.0" encoding="UTF-8" standalone="no"?>
<!DOCTYPE svg PUBLIC "-//W3C//DTD SVG 1.1//EN"
 "http://www.w3.org/Graphics/SVG/1.1/DTD/svg11.dtd">
<!-- Generated by graphviz version 2.43.0 (0)
 -->
<!-- Title: race Pages: 1 -->
<svg width="624pt" height="276pt"
 viewBox="0.00 0.00 624.00 276.00" xmlns="http://www.w3.org/2000/svg" xmlns:xlink="http://www.w3.org/1999/xlink">
<g id="graph0" class="graph" transform="scale(1 1) rotate(0) translate(4 272)">
<title>race</title>
<polygon fill="white" stroke="transparent" points="-4,4 -4,-272 620,-272 620,4 -4,4"/>
<!-- __field__ -->
<g id="node1" class="node">
<title>__field__</title>
<path fill="#fef9c3" stroke="#ca8a04" stroke-width="2" d="M604,-152C604,-152 419,-152 419,-152 413,-152 407,-146 407,-140 407,-140 407,-128 407,-128 407,-122 413,-116 419,-116 419,-116 604,-116 604,-116 610,-116 616,-122 616,-128 616,-128 616,-140 616,-140 616,-146 610,-152 604,-152"/>
<text text-anchor="middle" x="511.5" y="-131.2" font-family="Helvetica,sans-Serif" font-size="11.00">SoundDoseHelper.mMusicActiveMs</text>
</g>
<!-- __guard__ -->
<g id="node2" class="node">
<title>__guard__</title>
<path fill="#dcfce7" stroke="#16a34a" stroke-width="2" d="M267,-268C267,-268 12,-268 12,-268 6,-268 0,-262 0,-256 0,-256 0,-244 0,-244 0,-238 6,-232 12,-232 12,-232 267,-232 267,-232 273,-232 279,-238 279,-244 279,-244 279,-256 279,-256 279,-262 273,-268 267,-268"/>
<text text-anchor="middle" x="139.5" y="-247.2" font-family="Helvetica,sans-Serif" font-size="11.00">SoundDoseHelper.mSafeMediaVolumeStateLock</text>
</g>
<!-- __guard__&#45;&gt;__field__ -->
<g id="edge1" class="edge">
<title>__guard__&#45;&gt;__field__</title>
<path fill="none" stroke="#16a34a" stroke-width="1.6" d="M236.34,-231.93C250.73,-228.64 265.32,-224.98 279,-221 343.05,-202.38 414.61,-174.32 460.99,-155.13"/>
<polygon fill="#16a34a" stroke="#16a34a" stroke-width="1.6" points="462.18,-157.67 468.49,-152.02 460.03,-152.5 462.18,-157.67"/>
<text text-anchor="middle" x="343" y="-215.8" font-family="Helvetica,sans-Serif" font-size="9.00" fill="#15803d"> guards 3/4</text>
</g>
<!-- m::com.android.server.audio.SoundDoseHelper.setSafeMediaVolumeEnabled:(ZLjava/lang/String;)V -->
<g id="node3" class="node">
<title>m::com.android.server.audio.SoundDoseHelper.setSafeMediaVolumeEnabled:(ZLjava/lang/String;)V</title>
<path fill="#fee2e2" stroke="#dc2626" d="M265,-210C265,-210 14,-210 14,-210 8,-210 2,-204 2,-198 2,-198 2,-186 2,-186 2,-180 8,-174 14,-174 14,-174 265,-174 265,-174 271,-174 277,-180 277,-186 277,-186 277,-198 277,-198 277,-204 271,-210 265,-210"/>
<text text-anchor="middle" x="139.5" y="-189.2" font-family="Helvetica,sans-Serif" font-size="11.00">SoundDoseHelper.setSafeMediaVolumeEnabled</text>
</g>
<!-- m::com.android.server.audio.SoundDoseHelper.setSafeMediaVolumeEnabled:(ZLjava/lang/String;)V&#45;&gt;__field__ -->
<g id="edge2" class="edge">
<title>m::com.android.server.audio.SoundDoseHelper.setSafeMediaVolumeEnabled:(ZLjava/lang/String;)V&#45;&gt;__field__</title>
<path fill="none" stroke="#dc2626" d="M255.54,-173.97C301.17,-166.81 353.46,-158.62 398.75,-151.52"/>
<polygon fill="#dc2626" stroke="#dc2626" points="399.36,-154.26 406.83,-150.25 398.5,-148.72 399.36,-154.26"/>
<text text-anchor="middle" x="343" y="-168.8" font-family="Helvetica,sans-Serif" font-size="9.00" fill="#dc2626"> writes unguarded</text>
</g>
<!-- m::com.android.server.audio.SoundDoseHelper.dump:(Ljava/io/PrintWriter;)V -->
<g id="node4" class="node">
<title>m::com.android.server.audio.SoundDoseHelper.dump:(Ljava/io/PrintWriter;)V</title>
<path fill="#fee2e2" stroke="#dc2626" d="M201.5,-152C201.5,-152 77.5,-152 77.5,-152 71.5,-152 65.5,-146 65.5,-140 65.5,-140 65.5,-128 65.5,-128 65.5,-122 71.5,-116 77.5,-116 77.5,-116 201.5,-116 201.5,-116 207.5,-116 213.5,-122 213.5,-128 213.5,-128 213.5,-140 213.5,-140 213.5,-146 207.5,-152 201.5,-152"/>
<text text-anchor="middle" x="139.5" y="-131.2" font-family="Helvetica,sans-Serif" font-size="11.00">SoundDoseHelper.dump</text>
</g>
<!-- m::com.android.server.audio.SoundDoseHelper.dump:(Ljava/io/PrintWriter;)V&#45;&gt;__field__ -->
<g id="edge3" class="edge">
<title>m::com.android.server.audio.SoundDoseHelper.dump:(Ljava/io/PrintWriter;)V&#45;&gt;__field__</title>
<path fill="none" stroke="#dc2626" d="M213.6,-134C266.41,-134 338.7,-134 398.73,-134"/>
<polygon fill="#dc2626" stroke="#dc2626" points="398.73,-136.8 406.73,-134 398.73,-131.2 398.73,-136.8"/>
<text text-anchor="middle" x="343" y="-136.8" font-family="Helvetica,sans-Serif" font-size="9.00" fill="#dc2626"> reads unguarded</text>
</g>
<!-- m::com.android.server.audio.SoundDoseHelper.saveMusicActiveMs:()V -->
<g id="node5" class="node">
<title>m::com.android.server.audio.SoundDoseHelper.saveMusicActiveMs:()V</title>
<path fill="#fee2e2" stroke="#dc2626" d="M240,-94C240,-94 39,-94 39,-94 33,-94 27,-88 27,-82 27,-82 27,-70 27,-70 27,-64 33,-58 39,-58 39,-58 240,-58 240,-58 246,-58 252,-64 252,-70 252,-70 252,-82 252,-82 252,-88 246,-94 240,-94"/>
<text text-anchor="middle" x="139.5" y="-73.2" font-family="Helvetica,sans-Serif" font-size="11.00">SoundDoseHelper.saveMusicActiveMs</text>
</g>
<!-- m::com.android.server.audio.SoundDoseHelper.saveMusicActiveMs:()V&#45;&gt;__field__ -->
<g id="edge4" class="edge">
<title>m::com.android.server.audio.SoundDoseHelper.saveMusicActiveMs:()V&#45;&gt;__field__</title>
<path fill="none" stroke="#dc2626" d="M252.01,-93.48C298.48,-100.76 352.33,-109.21 398.81,-116.49"/>
<polygon fill="#dc2626" stroke="#dc2626" points="398.46,-119.27 406.8,-117.74 399.33,-113.74 398.46,-119.27"/>
<text text-anchor="middle" x="343" y="-115.8" font-family="Helvetica,sans-Serif" font-size="9.00" fill="#dc2626"> reads unguarded</text>
</g>
<!-- m::com.android.server.audio.SoundDoseHelper.updateSafeMediaVolume_l:(Ljava/lang/String;)V -->
<g id="node6" class="node">
<title>m::com.android.server.audio.SoundDoseHelper.updateSafeMediaVolume_l:(Ljava/lang/String;)V</title>
<path fill="#fee2e2" stroke="#dc2626" d="M258,-36C258,-36 21,-36 21,-36 15,-36 9,-30 9,-24 9,-24 9,-12 9,-12 9,-6 15,0 21,0 21,0 258,0 258,0 264,0 270,-6 270,-12 270,-12 270,-24 270,-24 270,-30 264,-36 258,-36"/>
<text text-anchor="middle" x="139.5" y="-15.2" font-family="Helvetica,sans-Serif" font-size="11.00">SoundDoseHelper.updateSafeMediaVolume_l</text>
</g>
<!-- m::com.android.server.audio.SoundDoseHelper.updateSafeMediaVolume_l:(Ljava/lang/String;)V&#45;&gt;__field__ -->
<g id="edge5" class="edge">
<title>m::com.android.server.audio.SoundDoseHelper.updateSafeMediaVolume_l:(Ljava/lang/String;)V&#45;&gt;__field__</title>
<path fill="none" stroke="#dc2626" d="M235.94,-36.07C250.45,-39.37 265.19,-43.04 279,-47 327.25,-60.85 338,-68.37 385,-86 408.35,-94.76 434.08,-104.57 456.13,-113.03"/>
<polygon fill="#dc2626" stroke="#dc2626" points="455.3,-115.71 463.77,-115.96 457.3,-110.48 455.3,-115.71"/>
<text text-anchor="middle" x="343" y="-88.8" font-family="Helvetica,sans-Serif" font-size="9.00" fill="#dc2626"> reads unguarded</text>
</g>
</g>
</svg>
