<?xml version="1.0" encoding="UTF-8" standalone="no"?>
<!DOCTYPE svg PUBLIC "-//W3C//DTD SVG 1.1//EN"
 "http://www.w3.org/Graphics/SVG/1.1/DTD/svg11.dtd">
<!-- Generated by graphviz version 2.43.0 (0)
 -->
<!-- Title: race Pages: 1 -->
<svg width="629pt" height="160pt"
 viewBox="0.00 0.00 629.00 160.00" xmlns="http://www.w3.org/2000/svg" xmlns:xlink="http://www.w3.org/1999/xlink">
<g id="graph0" class="graph" transform="scale(1 1) rotate(0) translate(4 156)">
<title>race</title>
<polygon fill="white" stroke="transparent" points="-4,4 -4,-156 625,-156 625,4 -4,4"/>
<!-- __field__ -->
<g id="node1" class="node">
<title>__field__</title>
<path fill="#fef9c3" stroke="#ca8a04" stroke-width="2" d="M609,-94C609,-94 400,-94 400,-94 394,-94 388,-88 388,-82 388,-82 388,-70 388,-70 388,-64 394,-58 400,-58 400,-58 609,-58 609,-58 615,-58 621,-64 621,-70 621,-70 621,-82 621,-82 621,-88 615,-94 609,-94"/>
<text text-anchor="middle" x="504.5" y="-73.2" font-family="Helvetica,sans-Serif" font-size="11.00">FocusRequester.mFocusLossFadeLimbo</text>
</g>
<!-- __guard__ -->
<g id="node2" class="node">
<title>__guard__</title>
<path fill="#dcfce7" stroke="#16a34a" stroke-width="2" d="M229,-152C229,-152 31,-152 31,-152 25,-152 19,-146 19,-140 19,-140 19,-128 19,-128 19,-122 25,-116 31,-116 31,-116 229,-116 229,-116 235,-116 241,-122 241,-128 241,-128 241,-140 241,-140 241,-146 235,-152 229,-152"/>
<text text-anchor="middle" x="130" y="-131.2" font-family="Helvetica,sans-Serif" font-size="11.00">MediaFocusControl.mAudioFocusLock</text>
</g>
<!-- __guard__&#45;&gt;__field__ -->
<g id="edge1" class="edge">
<title>__guard__&#45;&gt;__field__</title>
<path fill="none" stroke="#16a34a" stroke-width="1.6" d="M241.25,-116.83C284.76,-110.06 334.95,-102.24 379.71,-95.28"/>
<polygon fill="#16a34a" stroke="#16a34a" stroke-width="1.6" points="380.23,-98.03 387.71,-94.03 379.37,-92.49 380.23,-98.03"/>
<text text-anchor="middle" x="324" y="-112.8" font-family="Helvetica,sans-Serif" font-size="9.00" fill="#15803d"> guards 3/4</text>
</g>
<!-- m::com.android.server.audio.FocusRequester.frameworkHandleFocusLoss:(ILcom/android/server/audio/FocusRequester;Z)Z -->
<g id="node3" class="node">
<title>m::com.android.server.audio.FocusRequester.frameworkHandleFocusLoss:(ILcom/android/server/audio/FocusRequester;Z)Z</title>
<path fill="#fee2e2" stroke="#dc2626" d="M248,-94C248,-94 12,-94 12,-94 6,-94 0,-88 0,-82 0,-82 0,-70 0,-70 0,-64 6,-58 12,-58 12,-58 248,-58 248,-58 254,-58 260,-64 260,-70 260,-70 260,-82 260,-82 260,-88 254,-94 248,-94"/>
<text text-anchor="middle" x="130" y="-73.2" font-family="Helvetica,sans-Serif" font-size="11.00">FocusRequester.frameworkHandleFocusLoss</text>
</g>
<!-- m::com.android.server.audio.FocusRequester.frameworkHandleFocusLoss:(ILcom/android/server/audio/FocusRequester;Z)Z&#45;&gt;__field__ -->
<g id="edge2" class="edge">
<title>m::com.android.server.audio.FocusRequester.frameworkHandleFocusLoss:(ILcom/android/server/audio/FocusRequester;Z)Z&#45;&gt;__field__</title>
<path fill="none" stroke="#dc2626" d="M260.24,-76C298.98,-76 341.37,-76 379.75,-76"/>
<polygon fill="#dc2626" stroke="#dc2626" points="379.88,-78.8 387.88,-76 379.88,-73.2 379.88,-78.8"/>
<text text-anchor="middle" x="324" y="-78.8" font-family="Helvetica,sans-Serif" font-size="9.00" fill="#dc2626"> writes unguarded</text>
</g>
<!-- m::com.android.server.audio.FocusRequester.dump:(Ljava/io/PrintWriter;)V -->
<g id="node4" class="node">
<title>m::com.android.server.audio.FocusRequester.dump:(Ljava/io/PrintWriter;)V</title>
<path fill="#fee2e2" stroke="#dc2626" d="M187,-36C187,-36 73,-36 73,-36 67,-36 61,-30 61,-24 61,-24 61,-12 61,-12 61,-6 67,0 73,0 73,0 187,0 187,0 193,0 199,-6 199,-12 199,-12 199,-24 199,-24 199,-30 193,-36 187,-36"/>
<text text-anchor="middle" x="130" y="-15.2" font-family="Helvetica,sans-Serif" font-size="11.00">FocusRequester.dump</text>
</g>
<!-- m::com.android.server.audio.FocusRequester.dump:(Ljava/io/PrintWriter;)V&#45;&gt;__field__ -->
<g id="edge3" class="edge">
<title>m::com.android.server.audio.FocusRequester.dump:(Ljava/io/PrintWriter;)V&#45;&gt;__field__</title>
<path fill="none" stroke="#dc2626" d="M199.32,-28.64C249.68,-36.48 319.56,-47.36 379.65,-56.72"/>
<polygon fill="#dc2626" stroke="#dc2626" points="379.35,-59.5 387.68,-57.97 380.21,-53.97 379.35,-59.5"/>
<text text-anchor="middle" x="324" y="-55.8" font-family="Helvetica,sans-Serif" font-size="9.00" fill="#dc2626"> reads unguarded</text>
</g>
</g>
</svg>
