<?xml version="1.0" encoding="UTF-8" standalone="no"?>
<!DOCTYPE svg PUBLIC "-//W3C//DTD SVG 1.1//EN"
 "http://www.w3.org/Graphics/SVG/1.1/DTD/svg11.dtd">
<!-- Generated by graphviz version 2.43.0 (0)
 -->
<!-- Title: race Pages: 1 -->
<svg width="711pt" height="102pt"
 viewBox="0.00 0.00 711.00 102.00" xmlns="http://www.w3.org/2000/svg" xmlns:xlink="http://www.w3.org/1999/xlink">
<g id="graph0" class="graph" transform="scale(1 1) rotate(0) translate(4 98)">
<title>race</title>
<polygon fill="white" stroke="transparent" points="-4,4 -4,-98 707,-98 707,4 -4,4"/>
<!-- __field__ -->
<g id="node1" class="node">
<title>__field__</title>
<path fill="#fef9c3" stroke="#ca8a04" stroke-width="2" d="M691,-65C691,-65 405,-65 405,-65 399,-65 393,-59 393,-53 393,-53 393,-41 393,-41 393,-35 399,-29 405,-29 405,-29 691,-29 691,-29 697,-29 703,-35 703,-41 703,-41 703,-53 703,-53 703,-59 697,-65 691,-65"/>
<text text-anchor="middle" x="548" y="-44.2" font-family="Helvetica,sans-Serif" font-size="11.00">SecurityLogMonitor.mNextAllowedRetrievalTimeMillis</text>
</g>
<!-- __guard__ -->
<g id="node2" class="node">
<title>__guard__</title>
<path fill="#dcfce7" stroke="#16a34a" stroke-width="2" d="M201,-94C201,-94 64,-94 64,-94 58,-94 52,-88 52,-82 52,-82 52,-70 52,-70 52,-64 58,-58 64,-58 64,-58 201,-58 201,-58 207,-58 213,-64 213,-70 213,-70 213,-82 213,-82 213,-88 207,-94 201,-94"/>
<text text-anchor="middle" x="132.5" y="-73.2" font-family="Helvetica,sans-Serif" font-size="11.00">SecurityLogMonitor.mLock</text>
</g>
<!-- __guard__&#45;&gt;__field__ -->
<g id="edge1" class="edge">
<title>__guard__&#45;&gt;__field__</title>
<path fill="none" stroke="#16a34a" stroke-width="1.6" d="M213.23,-70.41C261.87,-67 325.82,-62.51 384.72,-58.38"/>
<polygon fill="#16a34a" stroke="#16a34a" stroke-width="1.6" points="385.21,-61.15 392.99,-57.8 384.81,-55.57 385.21,-61.15"/>
<text text-anchor="middle" x="329" y="-66.8" font-family="Helvetica,sans-Serif" font-size="9.00" fill="#15803d"> guards 2/3</text>
</g>
<!-- m::com.android.server.devicepolicy.SecurityLogMonitor.resetLegacyBufferLocked:()V -->
<g id="node3" class="node">
<title>m::com.android.server.devicepolicy.SecurityLogMonitor.resetLegacyBufferLocked:()V</title>
<path fill="#fee2e2" stroke="#dc2626" d="M253,-36C253,-36 12,-36 12,-36 6,-36 0,-30 0,-24 0,-24 0,-12 0,-12 0,-6 6,0 12,0 12,0 253,0 253,0 259,0 265,-6 265,-12 265,-12 265,-24 265,-24 265,-30 259,-36 253,-36"/>
<text text-anchor="middle" x="132.5" y="-15.2" font-family="Helvetica,sans-Serif" font-size="11.00">SecurityLogMonitor.resetLegacyBufferLocked</text>
</g>
<!-- m::com.android.server.devicepolicy.SecurityLogMonitor.resetLegacyBufferLocked:()V&#45;&gt;__field__ -->
<g id="edge2" class="edge">
<title>m::com.android.server.devicepolicy.SecurityLogMonitor.resetLegacyBufferLocked:()V&#45;&gt;__field__</title>
<path fill="none" stroke="#dc2626" d="M265.19,-27.24C303.04,-29.89 344.78,-32.82 384.27,-35.59"/>
<polygon fill="#dc2626" stroke="#dc2626" points="384.48,-38.41 392.66,-36.18 384.87,-32.82 384.48,-38.41"/>
<text text-anchor="middle" x="329" y="-36.8" font-family="Helvetica,sans-Serif" font-size="9.00" fill="#dc2626"> writes unguarded</text>
</g>
</g>
</svg>
