<?xml version="1.0" encoding="UTF-8" standalone="no"?>
<!DOCTYPE svg PUBLIC "-//W3C//DTD SVG 1.1//EN"
 "http://www.w3.org/Graphics/SVG/1.1/DTD/svg11.dtd">
<!-- Generated by graphviz version 2.43.0 (0)
 -->
<!-- Title: race Pages: 1 -->
<svg width="529pt" height="123pt"
 viewBox="0.00 0.00 529.00 123.20" xmlns="http://www.w3.org/2000/svg" xmlns:xlink="http://www.w3.org/1999/xlink">
<g id="graph0" class="graph" transform="scale(1 1) rotate(0) translate(4 119.2)">
<title>race</title>
<polygon fill="white" stroke="transparent" points="-4,4 -4,-119.2 525,-119.2 525,4 -4,4"/>
<!-- __field__ -->
<g id="node1" class="node">
<title>__field__</title>
<path fill="#fef9c3" stroke="#ca8a04" stroke-width="2" d="M509,-59.2C509,-59.2 353,-59.2 353,-59.2 347,-59.2 341,-53.2 341,-47.2 341,-47.2 341,-35.2 341,-35.2 341,-29.2 347,-23.2 353,-23.2 353,-23.2 509,-23.2 509,-23.2 515,-23.2 521,-29.2 521,-35.2 521,-35.2 521,-47.2 521,-47.2 521,-53.2 515,-59.2 509,-59.2"/>
<text text-anchor="middle" x="431" y="-38.4" font-family="Helvetica,sans-Serif" font-size="11.00">LocalEventLog.mLastLogTime</text>
</g>
<!-- __guard__ -->
<g id="node2" class="node">
<title>__guard__</title>
<path fill="#dcfce7" stroke="#16a34a" stroke-width="2" d="M168.5,-115.2C168.5,-115.2 44.5,-115.2 44.5,-115.2 38.5,-115.2 32.5,-109.2 32.5,-103.2 32.5,-103.2 32.5,-91.2 32.5,-91.2 32.5,-85.2 38.5,-79.2 44.5,-79.2 44.5,-79.2 168.5,-79.2 168.5,-79.2 174.5,-79.2 180.5,-85.2 180.5,-91.2 180.5,-91.2 180.5,-103.2 180.5,-103.2 180.5,-109.2 174.5,-115.2 168.5,-115.2"/>
<text text-anchor="middle" x="106.5" y="-94.4" font-family="Helvetica,sans-Serif" font-size="11.00">eventlog.LocalEventLog</text>
</g>
<!-- __guard__&#45;&gt;__field__ -->
<g id="edge1" class="edge">
<title>__guard__&#45;&gt;__field__</title>
<path fill="none" stroke="#16a34a" stroke-width="1.6" d="M180.68,-84.49C225.66,-76.68 283.83,-66.58 332.66,-58.1"/>
<polygon fill="#16a34a" stroke="#16a34a" stroke-width="1.6" points="333.32,-60.83 340.73,-56.7 332.36,-55.31 333.32,-60.83"/>
<text text-anchor="middle" x="277" y="-77" font-family="Helvetica,sans-Serif" font-size="9.00" fill="#15803d"> guards 2/3</text>
</g>
<!-- m::com.android.server.location.eventlog.LocalEventLog.addLogEventInternal:(ZILjava/lang/Object;)V -->
<g id="node3" class="node">
<title>m::com.android.server.location.eventlog.LocalEventLog.addLogEventInternal:(ZILjava/lang/Object;)V</title>
<path fill="#fee2e2" stroke="#dc2626" d="M201,-41.2C201,-41.2 12,-41.2 12,-41.2 6,-41.2 0,-35.2 0,-29.2 0,-29.2 0,-17.2 0,-17.2 0,-11.2 6,-5.2 12,-5.2 12,-5.2 201,-5.2 201,-5.2 207,-5.2 213,-11.2 213,-17.2 213,-17.2 213,-29.2 213,-29.2 213,-35.2 207,-41.2 201,-41.2"/>
<text text-anchor="middle" x="106.5" y="-20.4" font-family="Helvetica,sans-Serif" font-size="11.00">LocalEventLog.addLogEventInternal</text>
</g>
<!-- m::com.android.server.location.eventlog.LocalEventLog.addLogEventInternal:(ZILjava/lang/Object;)V&#45;&gt;__field__ -->
<g id="edge2" class="edge">
<title>m::com.android.server.location.eventlog.LocalEventLog.addLogEventInternal:(ZILjava/lang/Object;)V&#45;&gt;__field__</title>
<path fill="none" stroke="#dc2626" d="M213.22,-32.73C220.59,-33.27 227.9,-33.77 235,-34.2 266.66,-36.13 301.25,-37.59 332.38,-38.66"/>
<polygon fill="#dc2626" stroke="#dc2626" points="332.55,-41.46 340.64,-38.93 332.74,-35.87 332.55,-41.46"/>
<text text-anchor="middle" x="277" y="-40" font-family="Helvetica,sans-Serif" font-size="9.00" fill="#dc2626"> writes unguarded</text>
</g>
<!-- m::com.android.server.location.eventlog.LocalEventLog.addLogEventInternal:(ZILjava/lang/Object;)V&#45;&gt;__field__ -->
<g id="edge3" class="edge">
<title>m::com.android.server.location.eventlog.LocalEventLog.addLogEventInternal:(ZILjava/lang/Object;)V&#45;&gt;__field__</title>
<path fill="none" stroke="#dc2626" d="M213.06,-19.87C246.94,-19.69 284.6,-20.43 319,-23.2 323.44,-23.56 327.97,-24 332.54,-24.49"/>
<polygon fill="#dc2626" stroke="#dc2626" points="332.52,-27.31 340.79,-25.46 333.17,-21.75 332.52,-27.31"/>
<text text-anchor="middle" x="277" y="-26" font-family="Helvetica,sans-Serif" font-size="9.00" fill="#dc2626"> reads unguarded</text>
</g>
<!-- m::com.android.server.location.eventlog.LocalEventLog.addLogEventInternal:(ZILjava/lang/Object;)V&#45;&gt;__field__ -->
<g id="edge4" class="edge">
<title>m::com.android.server.location.eventlog.LocalEventLog.addLogEventInternal:(ZILjava/lang/Object;)V&#45;&gt;__field__</title>
<path fill="none" stroke="#dc2626" d="M197.65,-5.2C235.31,-0.24 279.43,2.22 319,-4.2 339.09,-7.46 360.45,-13.84 379.02,-20.39"/>
<polygon fill="#dc2626" stroke="#dc2626" points="378.32,-23.11 386.79,-23.2 380.22,-17.85 378.32,-23.11"/>
<text text-anchor="middle" x="277" y="-7" font-family="Helvetica,sans-Serif" font-size="9.00" fill="#dc2626"> reads unguarded</text>
</g>
</g>
</svg>
