<?xml version="1.0" encoding="UTF-8" standalone="no"?>
<!DOCTYPE svg PUBLIC "-//W3C//DTD SVG 1.1//EN"
 "http://www.w3.org/Graphics/SVG/1.1/DTD/svg11.dtd">
<!-- Generated by graphviz version 2.43.0 (0)
 -->
<!-- Title: race Pages: 1 -->
<svg width="609pt" height="168pt"
 viewBox="0.00 0.00 609.00 168.00" xmlns="http://www.w3.org/2000/svg" xmlns:xlink="http://www.w3.org/1999/xlink">
<g id="graph0" class="graph" transform="scale(1 1) rotate(0) translate(4 164)">
<title>race</title>
<polygon fill="white" stroke="transparent" points="-4,4 -4,-164 605,-164 605,4 -4,4"/>
<!-- __field__ -->
<g id="node1" class="node">
<title>__field__</title>
<path fill="#fef9c3" stroke="#ca8a04" stroke-width="2" d="M589,-83C589,-83 385,-83 385,-83 379,-83 373,-77 373,-71 373,-71 373,-59 373,-59 373,-53 379,-47 385,-47 385,-47 589,-47 589,-47 595,-47 601,-53 601,-59 601,-59 601,-71 601,-71 601,-77 595,-83 589,-83"/>
<text text-anchor="middle" x="487" y="-62.2" font-family="Helvetica,sans-Serif" font-size="11.00">ActivityStarter.mCanMoveToFrontCode</text>
</g>
<!-- __guard__ -->
<g id="node2" class="node">
<title>__guard__</title>
<path fill="#dcfce7" stroke="#16a34a" stroke-width="2" d="M233,-160C233,-160 12,-160 12,-160 6,-160 0,-154 0,-148 0,-148 0,-136 0,-136 0,-130 6,-124 12,-124 12,-124 233,-124 233,-124 239,-124 245,-130 245,-136 245,-136 245,-148 245,-148 245,-154 239,-160 233,-160"/>
<text text-anchor="middle" x="122.5" y="-139.2" font-family="Helvetica,sans-Serif" font-size="11.00">ActivityTaskManagerService.mGlobalLock</text>
</g>
<!-- __guard__&#45;&gt;__field__ -->
<g id="edge1" class="edge">
<title>__guard__&#45;&gt;__field__</title>
<path fill="none" stroke="#16a34a" stroke-width="1.6" d="M208.49,-123.95C263.95,-112.17 336.36,-96.79 393.3,-84.69"/>
<polygon fill="#16a34a" stroke="#16a34a" stroke-width="1.6" points="393.99,-87.41 401.23,-83.01 392.82,-81.93 393.99,-87.41"/>
<text text-anchor="middle" x="309" y="-112.8" font-family="Helvetica,sans-Serif" font-size="9.00" fill="#15803d"> guards 7/9</text>
</g>
<!-- m::com.android.server.wm.ActivityStarter.reset:(Z)V -->
<g id="node3" class="node">
<title>m::com.android.server.wm.ActivityStarter.reset:(Z)V</title>
<path fill="#fee2e2" stroke="#dc2626" d="M174.5,-102C174.5,-102 70.5,-102 70.5,-102 64.5,-102 58.5,-96 58.5,-90 58.5,-90 58.5,-78 58.5,-78 58.5,-72 64.5,-66 70.5,-66 70.5,-66 174.5,-66 174.5,-66 180.5,-66 186.5,-72 186.5,-78 186.5,-78 186.5,-90 186.5,-90 186.5,-96 180.5,-102 174.5,-102"/>
<text text-anchor="middle" x="122.5" y="-81.2" font-family="Helvetica,sans-Serif" font-size="11.00">ActivityStarter.reset</text>
</g>
<!-- m::com.android.server.wm.ActivityStarter.reset:(Z)V&#45;&gt;__field__ -->
<g id="edge2" class="edge">
<title>m::com.android.server.wm.ActivityStarter.reset:(Z)V&#45;&gt;__field__</title>
<path fill="none" stroke="#dc2626" d="M186.64,-80.69C235.56,-78.13 304.81,-74.5 364.39,-71.37"/>
<polygon fill="#dc2626" stroke="#dc2626" points="364.88,-74.15 372.72,-70.94 364.59,-68.56 364.88,-74.15"/>
<text text-anchor="middle" x="309" y="-78.8" font-family="Helvetica,sans-Serif" font-size="9.00" fill="#dc2626"> writes unguarded</text>
</g>
<!-- m::com.android.server.wm.ActivityStarter.set:(Lcom/android/server/wm/ActivityStarter;)V -->
<g id="node4" class="node">
<title>m::com.android.server.wm.ActivityStarter.set:(Lcom/android/server/wm/ActivityStarter;)V</title>
<path fill="#fee2e2" stroke="#dc2626" d="M169,-36C169,-36 76,-36 76,-36 70,-36 64,-30 64,-24 64,-24 64,-12 64,-12 64,-6 70,0 76,0 76,0 169,0 169,0 175,0 181,-6 181,-12 181,-12 181,-24 181,-24 181,-30 175,-36 169,-36"/>
<text text-anchor="middle" x="122.5" y="-15.2" font-family="Helvetica,sans-Serif" font-size="11.00">ActivityStarter.set</text>
</g>
<!-- m::com.android.server.wm.ActivityStarter.set:(Lcom/android/server/wm/ActivityStarter;)V&#45;&gt;__field__ -->
<g id="edge3" class="edge">
<title>m::com.android.server.wm.ActivityStarter.set:(Lcom/android/server/wm/ActivityStarter;)V&#45;&gt;__field__</title>
<path fill="none" stroke="#dc2626" d="M181.34,-25.5C230.5,-31.87 302.74,-41.24 364.53,-49.25"/>
<polygon fill="#dc2626" stroke="#dc2626" points="364.5,-52.07 372.79,-50.32 365.22,-46.52 364.5,-52.07"/>
<text text-anchor="middle" x="309" y="-49.8" font-family="Helvetica,sans-Serif" font-size="9.00" fill="#dc2626"> writes unguarded</text>
</g>
<!-- m::com.android.server.wm.ActivityStarter.set:(Lcom/android/server/wm/ActivityStarter;)V&#45;&gt;__field__ -->
<g id="edge4" class="edge">
<title>m::com.android.server.wm.ActivityStarter.set:(Lcom/android/server/wm/ActivityStarter;)V&#45;&gt;__field__</title>
<path fill="none" stroke="#dc2626" d="M181.42,-14.42C227.65,-12.66 293.9,-12.61 351,-22 378.71,-26.56 408.54,-35.6 433.1,-44.22"/>
<polygon fill="#dc2626" stroke="#dc2626" points="432.41,-46.94 440.88,-47 434.29,-41.67 432.41,-46.94"/>
<text text-anchor="middle" x="309" y="-24.8" font-family="Helvetica,sans-Serif" font-size="9.00" fill="#dc2626"> reads unguarded</text>
</g>
</g>
</svg>
