<?xml version="1.0" encoding="UTF-8" standalone="no"?>
<!DOCTYPE svg PUBLIC "-//W3C//DTD SVG 1.1//EN"
 "http://www.w3.org/Graphics/SVG/1.1/DTD/svg11.dtd">
<!-- Generated by graphviz version 2.43.0 (0)
 -->
<!-- Title: race Pages: 1 -->
<svg width="629pt" height="218pt"
 viewBox="0.00 0.00 629.00 218.00" xmlns="http://www.w3.org/2000/svg" xmlns:xlink="http://www.w3.org/1999/xlink">
<g id="graph0" class="graph" transform="scale(1 1) rotate(0) translate(4 214)">
<title>race</title>
<polygon fill="white" stroke="transparent" points="-4,4 -4,-214 625,-214 625,4 -4,4"/>
<!-- __field__ -->
<g id="node1" class="node">
<title>__field__</title>
<path fill="#fef9c3" stroke="#ca8a04" stroke-width="2" d="M609,-123C609,-123 447,-123 447,-123 441,-123 435,-117 435,-111 435,-111 435,-99 435,-99 435,-93 441,-87 447,-87 447,-87 609,-87 609,-87 615,-87 621,-93 621,-99 621,-99 621,-111 621,-111 621,-117 615,-123 609,-123"/>
<text text-anchor="middle" x="528" y="-102.2" font-family="Helvetica,sans-Serif" font-size="11.00">ActiveAdmin.organizationColor</text>
</g>
<!-- __guard__ -->
<g id="node2" class="node">
<title>__guard__</title>
<path fill="#dcfce7" stroke="#16a34a" stroke-width="2" d="M295,-210C295,-210 12,-210 12,-210 6,-210 0,-204 0,-198 0,-198 0,-186 0,-186 0,-180 6,-174 12,-174 12,-174 295,-174 295,-174 301,-174 307,-180 307,-186 307,-186 307,-198 307,-198 307,-204 301,-210 295,-210"/>
<text text-anchor="middle" x="153.5" y="-189.2" font-family="Helvetica,sans-Serif" font-size="11.00">DevicePolicyManagerService.mLockDoNoUseDirectly</text>
</g>
<!-- __guard__&#45;&gt;__field__ -->
<g id="edge1" class="edge">
<title>__guard__&#45;&gt;__field__</title>
<path fill="none" stroke="#16a34a" stroke-width="1.6" d="M254.79,-173.96C272.24,-170.53 290.18,-166.81 307,-163 356.87,-151.7 412.55,-137 455.42,-125.22"/>
<polygon fill="#16a34a" stroke="#16a34a" stroke-width="1.6" points="456.3,-127.89 463.27,-123.06 454.82,-122.49 456.3,-127.89"/>
<text text-anchor="middle" x="371" y="-159.8" font-family="Helvetica,sans-Serif" font-size="9.00" fill="#15803d"> guards 2/3</text>
</g>
<!-- m::com.android.server.devicepolicy.ActiveAdmin.readFromXml:(Lcom/android/modules/utils/TypedXmlPullParser;Z)V -->
<g id="node3" class="node">
<title>m::com.android.server.devicepolicy.ActiveAdmin.readFromXml:(Lcom/android/modules/utils/TypedXmlPullParser;Z)V</title>
<path fill="#fee2e2" stroke="#dc2626" d="M222.5,-152C222.5,-152 84.5,-152 84.5,-152 78.5,-152 72.5,-146 72.5,-140 72.5,-140 72.5,-128 72.5,-128 72.5,-122 78.5,-116 84.5,-116 84.5,-116 222.5,-116 222.5,-116 228.5,-116 234.5,-122 234.5,-128 234.5,-128 234.5,-140 234.5,-140 234.5,-146 228.5,-152 222.5,-152"/>
<text text-anchor="middle" x="153.5" y="-131.2" font-family="Helvetica,sans-Serif" font-size="11.00">ActiveAdmin.readFromXml</text>
</g>
<!-- m::com.android.server.devicepolicy.ActiveAdmin.readFromXml:(Lcom/android/modules/utils/TypedXmlPullParser;Z)V&#45;&gt;__field__ -->
<g id="edge2" class="edge">
<title>m::com.android.server.devicepolicy.ActiveAdmin.readFromXml:(Lcom/android/modules/utils/TypedXmlPullParser;Z)V&#45;&gt;__field__</title>
<path fill="none" stroke="#dc2626" d="M234.87,-127.74C291.16,-123.36 366.77,-117.47 426.96,-112.79"/>
<polygon fill="#dc2626" stroke="#dc2626" points="427.21,-115.58 434.97,-112.16 426.78,-109.99 427.21,-115.58"/>
<text text-anchor="middle" x="371" y="-122.8" font-family="Helvetica,sans-Serif" font-size="9.00" fill="#dc2626"> writes unguarded</text>
</g>
<!-- m::com.android.server.devicepolicy.ActiveAdmin.dump:(Landroid/util/IndentingPrintWriter;)V -->
<g id="node4" class="node">
<title>m::com.android.server.devicepolicy.ActiveAdmin.dump:(Landroid/util/IndentingPrintWriter;)V</title>
<path fill="#fee2e2" stroke="#dc2626" d="M201.5,-94C201.5,-94 105.5,-94 105.5,-94 99.5,-94 93.5,-88 93.5,-82 93.5,-82 93.5,-70 93.5,-70 93.5,-64 99.5,-58 105.5,-58 105.5,-58 201.5,-58 201.5,-58 207.5,-58 213.5,-64 213.5,-70 213.5,-70 213.5,-82 213.5,-82 213.5,-88 207.5,-94 201.5,-94"/>
<text text-anchor="middle" x="153.5" y="-73.2" font-family="Helvetica,sans-Serif" font-size="11.00">ActiveAdmin.dump</text>
</g>
<!-- m::com.android.server.devicepolicy.ActiveAdmin.dump:(Landroid/util/IndentingPrintWriter;)V&#45;&gt;__field__ -->
<g id="edge3" class="edge">
<title>m::com.android.server.devicepolicy.ActiveAdmin.dump:(Landroid/util/IndentingPrintWriter;)V&#45;&gt;__field__</title>
<path fill="none" stroke="#dc2626" d="M213.52,-80.6C270.69,-85.05 358.49,-91.88 426.65,-97.19"/>
<polygon fill="#dc2626" stroke="#dc2626" points="426.66,-100 434.86,-97.83 427.1,-94.41 426.66,-100"/>
<text text-anchor="middle" x="371" y="-97.8" font-family="Helvetica,sans-Serif" font-size="9.00" fill="#dc2626"> reads unguarded</text>
</g>
<!-- m::com.android.server.devicepolicy.ActiveAdmin.writeToXml:(Lcom/android/modules/utils/TypedXmlSerializer;)V -->
<g id="node5" class="node">
<title>m::com.android.server.devicepolicy.ActiveAdmin.writeToXml:(Lcom/android/modules/utils/TypedXmlSerializer;)V</title>
<path fill="#fee2e2" stroke="#dc2626" d="M216,-36C216,-36 91,-36 91,-36 85,-36 79,-30 79,-24 79,-24 79,-12 79,-12 79,-6 85,0 91,0 91,0 216,0 216,0 222,0 228,-6 228,-12 228,-12 228,-24 228,-24 228,-30 222,-36 216,-36"/>
<text text-anchor="middle" x="153.5" y="-15.2" font-family="Helvetica,sans-Serif" font-size="11.00">ActiveAdmin.writeToXml</text>
</g>
<!-- m::com.android.server.devicepolicy.ActiveAdmin.writeToXml:(Lcom/android/modules/utils/TypedXmlSerializer;)V&#45;&gt;__field__ -->
<g id="edge4" class="edge">
<title>m::com.android.server.devicepolicy.ActiveAdmin.writeToXml:(Lcom/android/modules/utils/TypedXmlSerializer;)V&#45;&gt;__field__</title>
<path fill="none" stroke="#dc2626" d="M228.38,-31.1C253.41,-35.79 281.48,-41.33 307,-47 354.46,-57.55 365.99,-61.62 413,-74 426.1,-77.45 440.03,-81.18 453.48,-84.82"/>
<polygon fill="#dc2626" stroke="#dc2626" points="452.89,-87.56 461.34,-86.95 454.35,-82.16 452.89,-87.56"/>
<text text-anchor="middle" x="371" y="-76.8" font-family="Helvetica,sans-Serif" font-size="9.00" fill="#dc2626"> reads unguarded</text>
</g>
</g>
</svg>
