<?xml version="1.0" encoding="UTF-8" standalone="no"?>
<!DOCTYPE svg PUBLIC "-//W3C//DTD SVG 1.1//EN"
 "http://www.w3.org/Graphics/SVG/1.1/DTD/svg11.dtd">
<!-- Generated by graphviz version 2.43.0 (0)
 -->
<!-- Title: race Pages: 1 -->
<svg width="636pt" height="670pt"
 viewBox="0.00 0.00 636.00 669.89" xmlns="http://www.w3.org/2000/svg" xmlns:xlink="http://www.w3.org/1999/xlink">
<g id="graph0" class="graph" transform="scale(1 1) rotate(0) translate(4 665.89)">
<title>race</title>
<polygon fill="white" stroke="transparent" points="-4,4 -4,-665.89 632,-665.89 632,4 -4,4"/>
<!-- __field__ -->
<g id="node1" class="node">
<title>__field__</title>
<path fill="#fef9c3" stroke="#ca8a04" stroke-width="2" d="M616,-334.89C616,-334.89 494,-334.89 494,-334.89 488,-334.89 482,-328.89 482,-322.89 482,-322.89 482,-310.89 482,-310.89 482,-304.89 488,-298.89 494,-298.89 494,-298.89 616,-298.89 616,-298.89 622,-298.89 628,-304.89 628,-310.89 628,-310.89 628,-322.89 628,-322.89 628,-328.89 622,-334.89 616,-334.89"/>
<text text-anchor="middle" x="555" y="-314.09" font-family="Helvetica,sans-Serif" font-size="11.00">ResolveInfo.activityInfo</text>
</g>
<!-- __guard__ -->
<g id="node2" class="node">
<title>__guard__</title>
<path fill="#dcfce7" stroke="#16a34a" stroke-width="2" d="M280,-661.89C280,-661.89 74,-661.89 74,-661.89 68,-661.89 62,-655.89 62,-649.89 62,-649.89 62,-637.89 62,-637.89 62,-631.89 68,-625.89 74,-625.89 74,-625.89 280,-625.89 280,-625.89 286,-625.89 292,-631.89 292,-637.89 292,-637.89 292,-649.89 292,-649.89 292,-655.89 286,-661.89 280,-661.89"/>
<text text-anchor="middle" x="177" y="-641.09" font-family="Helvetica,sans-Serif" font-size="11.00">PackageManagerServiceInjector.mLock</text>
</g>
<!-- __guard__&#45;&gt;__field__ -->
<g id="edge1" class="edge">
<title>__guard__&#45;&gt;__field__</title>
<path fill="none" stroke="#16a34a" stroke-width="1.6" d="M292.17,-657.19C348.47,-657.55 413.99,-647.87 460,-609.89 542.29,-541.95 553.39,-401.65 554.3,-343.27"/>
<polygon fill="#16a34a" stroke="#16a34a" stroke-width="1.6" points="557.1,-342.97 554.37,-334.95 551.5,-342.92 557.1,-342.97"/>
<text text-anchor="middle" x="418" y="-650.69" font-family="Helvetica,sans-Serif" font-size="9.00" fill="#15803d"> guards 3/4</text>
</g>
<!-- m::com.android.server.am.BroadcastRecord.applySingletonPolicy:(Lcom/android/server/am/ActivityManagerService;)V -->
<g id="node3" class="node">
<title>m::com.android.server.am.BroadcastRecord.applySingletonPolicy:(Lcom/android/server/am/ActivityManagerService;)V</title>
<path fill="#fee2e2" stroke="#dc2626" d="M278.5,-603.89C278.5,-603.89 75.5,-603.89 75.5,-603.89 69.5,-603.89 63.5,-597.89 63.5,-591.89 63.5,-591.89 63.5,-579.89 63.5,-579.89 63.5,-573.89 69.5,-567.89 75.5,-567.89 75.5,-567.89 278.5,-567.89 278.5,-567.89 284.5,-567.89 290.5,-573.89 290.5,-579.89 290.5,-579.89 290.5,-591.89 290.5,-591.89 290.5,-597.89 284.5,-603.89 278.5,-603.89"/>
<text text-anchor="middle" x="177" y="-583.09" font-family="Helvetica,sans-Serif" font-size="11.00">BroadcastRecord.applySingletonPolicy</text>
</g>
<!-- m::com.android.server.am.BroadcastRecord.applySingletonPolicy:(Lcom/android/server/am/ActivityManagerService;)V&#45;&gt;__field__ -->
<g id="edge2" class="edge">
<title>m::com.android.server.am.BroadcastRecord.applySingletonPolicy:(Lcom/android/server/am/ActivityManagerService;)V&#45;&gt;__field__</title>
<path fill="none" stroke="#dc2626" d="M290.6,-601.72C346.66,-603.54 412.43,-595.81 460,-559.89 530.12,-506.93 547.95,-394.42 552.47,-343.23"/>
<polygon fill="#dc2626" stroke="#dc2626" points="555.28,-343.18 553.13,-334.98 549.7,-342.73 555.28,-343.18"/>
<text text-anchor="middle" x="418" y="-597.69" font-family="Helvetica,sans-Serif" font-size="9.00" fill="#dc2626"> writes unguarded</text>
</g>
<!-- m::com.android.server.BatteryService.startShutdownActivity:(Landroid/content/Intent;)V -->
<g id="node4" class="node">
<title>m::com.android.server.BatteryService.startShutdownActivity:(Landroid/content/Intent;)V</title>
<path fill="#fee2e2" stroke="#dc2626" d="M277,-545.89C277,-545.89 77,-545.89 77,-545.89 71,-545.89 65,-539.89 65,-533.89 65,-533.89 65,-521.89 65,-521.89 65,-515.89 71,-509.89 77,-509.89 77,-509.89 277,-509.89 277,-509.89 283,-509.89 289,-515.89 289,-521.89 289,-521.89 289,-533.89 289,-533.89 289,-539.89 283,-545.89 277,-545.89"/>
<text text-anchor="middle" x="177" y="-525.09" font-family="Helvetica,sans-Serif" font-size="11.00">BatteryService.startShutdownActivity</text>
</g>
<!-- m::com.android.server.BatteryService.startShutdownActivity:(Landroid/content/Intent;)V&#45;&gt;__field__ -->
<g id="edge3" class="edge">
<title>m::com.android.server.BatteryService.startShutdownActivity:(Landroid/content/Intent;)V&#45;&gt;__field__</title>
<path fill="none" stroke="#dc2626" d="M257.35,-545.93C317.87,-555.07 400.65,-557.14 460,-517.89 520.52,-477.85 542.87,-387.91 550.46,-343.18"/>
<polygon fill="#dc2626" stroke="#dc2626" points="553.25,-343.46 551.74,-335.12 547.72,-342.58 553.25,-343.46"/>
<text text-anchor="middle" x="418" y="-549.69" font-family="Helvetica,sans-Serif" font-size="9.00" fill="#dc2626"> reads unguarded</text>
</g>
<!-- m::com.android.server.BatteryService.startShutdownActivity:(Landroid/content/Intent;)V&#45;&gt;__field__ -->
<g id="edge4" class="edge">
<title>m::com.android.server.BatteryService.startShutdownActivity:(Landroid/content/Intent;)V&#45;&gt;__field__</title>
<path fill="none" stroke="#dc2626" d="M289.29,-513.96C361.86,-504.09 445.68,-490.88 460,-480.89 508.41,-447.1 535.2,-379.81 546.85,-342.79"/>
<polygon fill="#dc2626" stroke="#dc2626" points="549.59,-343.41 549.24,-334.94 544.23,-341.78 549.59,-343.41"/>
<text text-anchor="middle" x="418" y="-502.69" font-family="Helvetica,sans-Serif" font-size="9.00" fill="#dc2626"> reads unguarded</text>
</g>
<!-- m::com.android.server.BatteryService.startShutdownActivity:(Landroid/content/Intent;)V&#45;&gt;__field__ -->
<g id="edge5" class="edge">
<title>m::com.android.server.BatteryService.startShutdownActivity:(Landroid/content/Intent;)V&#45;&gt;__field__</title>
<path fill="none" stroke="#dc2626" d="M289.09,-522.6C311.7,-518.03 334.51,-510.64 354,-498.89 367.85,-490.53 362.75,-479.17 376,-469.89 408.01,-447.47 428.12,-466.49 460,-443.89 497.59,-417.23 526.32,-370.87 541.64,-342.14"/>
<polygon fill="#dc2626" stroke="#dc2626" points="544.2,-343.28 545.42,-334.89 539.24,-340.69 544.2,-343.28"/>
<text text-anchor="middle" x="418" y="-472.69" font-family="Helvetica,sans-Serif" font-size="9.00" fill="#dc2626"> reads unguarded</text>
</g>
<!-- m::com.android.server.NetworkScorerAppManager.findUseOpenWifiNetworksActivity:(Landroid/content/pm/ServiceInfo;)Landroid/content/ComponentName; -->
<g id="node5" class="node">
<title>m::com.android.server.NetworkScorerAppManager.findUseOpenWifiNetworksActivity:(Landroid/content/pm/ServiceInfo;)Landroid/content/ComponentName;</title>
<path fill="#fee2e2" stroke="#dc2626" d="M342,-487.89C342,-487.89 12,-487.89 12,-487.89 6,-487.89 0,-481.89 0,-475.89 0,-475.89 0,-463.89 0,-463.89 0,-457.89 6,-451.89 12,-451.89 12,-451.89 342,-451.89 342,-451.89 348,-451.89 354,-457.89 354,-463.89 354,-463.89 354,-475.89 354,-475.89 354,-481.89 348,-487.89 342,-487.89"/>
<text text-anchor="middle" x="177" y="-467.09" font-family="Helvetica,sans-Serif" font-size="11.00">NetworkScorerAppManager.findUseOpenWifiNetworksActivity</text>
</g>
<!-- m::com.android.server.NetworkScorerAppManager.findUseOpenWifiNetworksActivity:(Landroid/content/pm/ServiceInfo;)Landroid/content/ComponentName;&#45;&gt;__field__ -->
<g id="edge6" class="edge">
<title>m::com.android.server.NetworkScorerAppManager.findUseOpenWifiNetworksActivity:(Landroid/content/pm/ServiceInfo;)Landroid/content/ComponentName;&#45;&gt;__field__</title>
<path fill="none" stroke="#dc2626" d="M311.51,-451.81C325.98,-448.69 340.38,-445.07 354,-440.89 378.81,-433.26 437.92,-405.52 460,-391.89 484.36,-376.84 509.6,-356.39 527.79,-340.64"/>
<polygon fill="#dc2626" stroke="#dc2626" points="529.97,-342.45 534.15,-335.07 526.29,-338.23 529.97,-342.45"/>
<text text-anchor="middle" x="418" y="-434.69" font-family="Helvetica,sans-Serif" font-size="9.00" fill="#dc2626"> reads unguarded</text>
</g>
<!-- m::com.android.server.accounts.AccountManagerService$Session.checkKeyIntent:(ILandroid/os/Bundle;)Z -->
<g id="node6" class="node">
<title>m::com.android.server.accounts.AccountManagerService$Session.checkKeyIntent:(ILandroid/os/Bundle;)Z</title>
<path fill="#fee2e2" stroke="#dc2626" d="M308,-429.89C308,-429.89 46,-429.89 46,-429.89 40,-429.89 34,-423.89 34,-417.89 34,-417.89 34,-405.89 34,-405.89 34,-399.89 40,-393.89 46,-393.89 46,-393.89 308,-393.89 308,-393.89 314,-393.89 320,-399.89 320,-405.89 320,-405.89 320,-417.89 320,-417.89 320,-423.89 314,-429.89 308,-429.89"/>
<text text-anchor="middle" x="177" y="-409.09" font-family="Helvetica,sans-Serif" font-size="11.00">AccountManagerService$Session.checkKeyIntent</text>
</g>
<!-- m::com.android.server.accounts.AccountManagerService$Session.checkKeyIntent:(ILandroid/os/Bundle;)Z&#45;&gt;__field__ -->
<g id="edge7" class="edge">
<title>m::com.android.server.accounts.AccountManagerService$Session.checkKeyIntent:(ILandroid/os/Bundle;)Z&#45;&gt;__field__</title>
<path fill="none" stroke="#dc2626" d="M302.03,-393.8C319.56,-390.57 337.29,-386.92 354,-382.89 402.09,-371.28 413.02,-364.41 460,-348.89 470.91,-345.28 482.5,-341.38 493.69,-337.59"/>
<polygon fill="#dc2626" stroke="#dc2626" points="494.68,-340.21 501.36,-334.99 492.88,-334.91 494.68,-340.21"/>
<text text-anchor="middle" x="418" y="-379.69" font-family="Helvetica,sans-Serif" font-size="9.00" fill="#dc2626"> reads unguarded</text>
</g>
<!-- m::com.android.server.accounts.AccountManagerService.getAccountRemovedReceivers:(Landroid/accounts/Account;Lcom/android/server/accounts/AccountManagerService$UserAccounts;)Ljava/util/List; -->
<g id="node7" class="node">
<title>m::com.android.server.accounts.AccountManagerService.getAccountRemovedReceivers:(Landroid/accounts/Account;Lcom/android/server/accounts/AccountManagerService$UserAccounts;)Ljava/util/List;</title>
<path fill="#fee2e2" stroke="#dc2626" d="M325.5,-371.89C325.5,-371.89 28.5,-371.89 28.5,-371.89 22.5,-371.89 16.5,-365.89 16.5,-359.89 16.5,-359.89 16.5,-347.89 16.5,-347.89 16.5,-341.89 22.5,-335.89 28.5,-335.89 28.5,-335.89 325.5,-335.89 325.5,-335.89 331.5,-335.89 337.5,-341.89 337.5,-347.89 337.5,-347.89 337.5,-359.89 337.5,-359.89 337.5,-365.89 331.5,-371.89 325.5,-371.89"/>
<text text-anchor="middle" x="177" y="-351.09" font-family="Helvetica,sans-Serif" font-size="11.00">AccountManagerService.getAccountRemovedReceivers</text>
</g>
<!-- m::com.android.server.accounts.AccountManagerService.getAccountRemovedReceivers:(Landroid/accounts/Account;Lcom/android/server/accounts/AccountManagerService$UserAccounts;)Ljava/util/List;&#45;&gt;__field__ -->
<g id="edge8" class="edge">
<title>m::com.android.server.accounts.AccountManagerService.getAccountRemovedReceivers:(Landroid/accounts/Account;Lcom/android/server/accounts/AccountManagerService$UserAccounts;)Ljava/util/List;&#45;&gt;__field__</title>
<path fill="none" stroke="#dc2626" d="M337.73,-338.17C384.6,-333.55 433.87,-328.71 473.52,-324.8"/>
<polygon fill="#dc2626" stroke="#dc2626" points="474.15,-327.56 481.84,-323.99 473.6,-321.98 474.15,-327.56"/>
<text text-anchor="middle" x="418" y="-336.69" font-family="Helvetica,sans-Serif" font-size="9.00" fill="#dc2626"> reads unguarded</text>
</g>
<!-- m::com.android.server.am.ActivityManagerShellCommand.runStartActivity:(Ljava/io/PrintWriter;)I -->
<g id="node8" class="node">
<title>m::com.android.server.am.ActivityManagerShellCommand.runStartActivity:(Ljava/io/PrintWriter;)I</title>
<path fill="#fee2e2" stroke="#dc2626" d="M304.5,-313.89C304.5,-313.89 49.5,-313.89 49.5,-313.89 43.5,-313.89 37.5,-307.89 37.5,-301.89 37.5,-301.89 37.5,-289.89 37.5,-289.89 37.5,-283.89 43.5,-277.89 49.5,-277.89 49.5,-277.89 304.5,-277.89 304.5,-277.89 310.5,-277.89 316.5,-283.89 316.5,-289.89 316.5,-289.89 316.5,-301.89 316.5,-301.89 316.5,-307.89 310.5,-313.89 304.5,-313.89"/>
<text text-anchor="middle" x="177" y="-293.09" font-family="Helvetica,sans-Serif" font-size="11.00">ActivityManagerShellCommand.runStartActivity</text>
</g>
<!-- m::com.android.server.am.ActivityManagerShellCommand.runStartActivity:(Ljava/io/PrintWriter;)I&#45;&gt;__field__ -->
<g id="edge9" class="edge">
<title>m::com.android.server.am.ActivityManagerShellCommand.runStartActivity:(Ljava/io/PrintWriter;)I&#45;&gt;__field__</title>
<path fill="none" stroke="#dc2626" d="M316.67,-303.63C369.59,-306.59 428.11,-309.85 473.8,-312.41"/>
<polygon fill="#dc2626" stroke="#dc2626" points="473.75,-315.21 481.89,-312.86 474.06,-309.62 473.75,-315.21"/>
<text text-anchor="middle" x="418" y="-313.69" font-family="Helvetica,sans-Serif" font-size="9.00" fill="#dc2626"> reads unguarded</text>
</g>
<!-- m::com.android.server.am.BroadcastController.broadcastIntentLockedTraced:(Lcom/android/server/am/ProcessRecord;Ljava/lang/String;Ljava/lang/String;Landroid/content/Intent;Ljava/lang/String;Lcom/android/server/am/ProcessRecord;Landroid/content/IIntentReceiver;ILjava/lang/String;Landroid/os/Bundle;[Ljava/lang/String;[Ljava/lang/String;[Ljava/lang/String;ILandroid/app/BroadcastOptions;ZZIIIIILandroid/app/BackgroundStartPrivileges;[ILjava/util/function/BiFunction;Lcom/android/server/am/BroadcastSentEventRecord;)I -->
<g id="node9" class="node">
<title>m::com.android.server.am.BroadcastController.broadcastIntentLockedTraced:(Lcom/android/server/am/ProcessRecord;Ljava/lang/String;Ljava/lang/String;Landroid/content/Intent;Ljava/lang/String;Lcom/android/server/am/ProcessRecord;Landroid/content/IIntentReceiver;ILjava/lang/String;Landroid/os/Bundle;[Ljava/lang/String;[Ljava/lang/String;[Ljava/lang/String;ILandroid/app/BroadcastOptions;ZZIIIIILandroid/app/BackgroundStartPrivileges;[ILjava/util/function/BiFunction;Lcom/android/server/am/BroadcastSentEventRecord;)I</title>
<path fill="#fee2e2" stroke="#dc2626" d="M310,-255.89C310,-255.89 44,-255.89 44,-255.89 38,-255.89 32,-249.89 32,-243.89 32,-243.89 32,-231.89 32,-231.89 32,-225.89 38,-219.89 44,-219.89 44,-219.89 310,-219.89 310,-219.89 316,-219.89 322,-225.89 322,-231.89 322,-231.89 322,-243.89 322,-243.89 322,-249.89 316,-255.89 310,-255.89"/>
<text text-anchor="middle" x="177" y="-235.09" font-family="Helvetica,sans-Serif" font-size="11.00">BroadcastController.broadcastIntentLockedTraced</text>
</g>
<!-- m::com.android.server.am.BroadcastController.broadcastIntentLockedTraced:(Lcom/android/server/am/ProcessRecord;Ljava/lang/String;Ljava/lang/String;Landroid/content/Intent;Ljava/lang/String;Lcom/android/server/am/ProcessRecord;Landroid/content/IIntentReceiver;ILjava/lang/String;Landroid/os/Bundle;[Ljava/lang/String;[Ljava/lang/String;[Ljava/lang/String;ILandroid/app/BroadcastOptions;ZZIIIIILandroid/app/BackgroundStartPrivileges;[ILjava/util/function/BiFunction;Lcom/android/server/am/BroadcastSentEventRecord;)I&#45;&gt;__field__ -->
<g id="edge10" class="edge">
<title>m::com.android.server.am.BroadcastController.broadcastIntentLockedTraced:(Lcom/android/server/am/ProcessRecord;Ljava/lang/String;Ljava/lang/String;Landroid/content/Intent;Ljava/lang/String;Lcom/android/server/am/ProcessRecord;Landroid/content/IIntentReceiver;ILjava/lang/String;Landroid/os/Bundle;[Ljava/lang/String;[Ljava/lang/String;[Ljava/lang/String;ILandroid/app/BroadcastOptions;ZZIIIIILandroid/app/BackgroundStartPrivileges;[ILjava/util/function/BiFunction;Lcom/android/server/am/BroadcastSentEventRecord;)I&#45;&gt;__field__</title>
<path fill="none" stroke="#dc2626" d="M294.65,-255.95C314.5,-259.36 334.87,-263.06 354,-266.89 401.46,-276.38 413.05,-280.11 460,-291.89 466.16,-293.43 472.54,-295.06 478.94,-296.72"/>
<polygon fill="#dc2626" stroke="#dc2626" points="478.6,-299.52 487.05,-298.83 480.01,-294.11 478.6,-299.52"/>
<text text-anchor="middle" x="418" y="-294.69" font-family="Helvetica,sans-Serif" font-size="9.00" fill="#dc2626"> reads unguarded</text>
</g>
<!-- m::com.android.server.am.BroadcastController.checkBroadcastFromSystem:(Landroid/content/Intent;Lcom/android/server/am/ProcessRecord;Ljava/lang/String;IZLjava/util/List;)V -->
<g id="node10" class="node">
<title>m::com.android.server.am.BroadcastController.checkBroadcastFromSystem:(Landroid/content/Intent;Lcom/android/server/am/ProcessRecord;Ljava/lang/String;IZLjava/util/List;)V</title>
<path fill="#fee2e2" stroke="#dc2626" d="M307,-197.89C307,-197.89 47,-197.89 47,-197.89 41,-197.89 35,-191.89 35,-185.89 35,-185.89 35,-173.89 35,-173.89 35,-167.89 41,-161.89 47,-161.89 47,-161.89 307,-161.89 307,-161.89 313,-161.89 319,-167.89 319,-173.89 319,-173.89 319,-185.89 319,-185.89 319,-191.89 313,-197.89 307,-197.89"/>
<text text-anchor="middle" x="177" y="-177.09" font-family="Helvetica,sans-Serif" font-size="11.00">BroadcastController.checkBroadcastFromSystem</text>
</g>
<!-- m::com.android.server.am.BroadcastController.checkBroadcastFromSystem:(Landroid/content/Intent;Lcom/android/server/am/ProcessRecord;Ljava/lang/String;IZLjava/util/List;)V&#45;&gt;__field__ -->
<g id="edge11" class="edge">
<title>m::com.android.server.am.BroadcastController.checkBroadcastFromSystem:(Landroid/content/Intent;Lcom/android/server/am/ProcessRecord;Ljava/lang/String;IZLjava/util/List;)V&#45;&gt;__field__</title>
<path fill="none" stroke="#dc2626" d="M310.5,-197.98C325.3,-201.1 340.05,-204.72 354,-208.89 378.69,-216.26 437.34,-243.61 460,-255.89 481.14,-267.34 503.78,-281.95 521.54,-294"/>
<polygon fill="#dc2626" stroke="#dc2626" points="520.16,-296.45 528.34,-298.65 523.32,-291.83 520.16,-296.45"/>
<text text-anchor="middle" x="418" y="-258.69" font-family="Helvetica,sans-Serif" font-size="9.00" fill="#dc2626"> reads unguarded</text>
</g>
<!-- m::com.android.server.am.BroadcastController.collectReceiverComponents:(Landroid/content/Intent;Ljava/lang/String;II[I[I[Ljava/lang/String;)Ljava/util/List; -->
<g id="node11" class="node">
<title>m::com.android.server.am.BroadcastController.collectReceiverComponents:(Landroid/content/Intent;Ljava/lang/String;II[I[I[Ljava/lang/String;)Ljava/util/List;</title>
<path fill="#fee2e2" stroke="#dc2626" d="M306,-126.89C306,-126.89 48,-126.89 48,-126.89 42,-126.89 36,-120.89 36,-114.89 36,-114.89 36,-102.89 36,-102.89 36,-96.89 42,-90.89 48,-90.89 48,-90.89 306,-90.89 306,-90.89 312,-90.89 318,-96.89 318,-102.89 318,-102.89 318,-114.89 318,-114.89 318,-120.89 312,-126.89 306,-126.89"/>
<text text-anchor="middle" x="177" y="-106.09" font-family="Helvetica,sans-Serif" font-size="11.00">BroadcastController.collectReceiverComponents</text>
</g>
<!-- m::com.android.server.am.BroadcastController.collectReceiverComponents:(Landroid/content/Intent;Ljava/lang/String;II[I[I[Ljava/lang/String;)Ljava/util/List;&#45;&gt;__field__ -->
<g id="edge12" class="edge">
<title>m::com.android.server.am.BroadcastController.collectReceiverComponents:(Landroid/content/Intent;Ljava/lang/String;II[I[I[Ljava/lang/String;)Ljava/util/List;&#45;&gt;__field__</title>
<path fill="none" stroke="#dc2626" d="M301.77,-126.94C320.16,-132.81 338.21,-140.59 354,-150.89 367.55,-159.72 362.75,-170.6 376,-179.89 408.01,-202.3 427.4,-184.33 460,-205.89 493.94,-228.32 522.38,-266.48 538.81,-291.68"/>
<polygon fill="#dc2626" stroke="#dc2626" points="536.66,-293.5 543.32,-298.74 541.38,-290.49 536.66,-293.5"/>
<text text-anchor="middle" x="418" y="-208.69" font-family="Helvetica,sans-Serif" font-size="9.00" fill="#dc2626"> reads unguarded</text>
</g>
<!-- m::com.android.server.am.BroadcastController.collectReceiverComponents:(Landroid/content/Intent;Ljava/lang/String;II[I[I[Ljava/lang/String;)Ljava/util/List;&#45;&gt;__field__ -->
<g id="edge13" class="edge">
<title>m::com.android.server.am.BroadcastController.collectReceiverComponents:(Landroid/content/Intent;Ljava/lang/String;II[I[I[Ljava/lang/String;)Ljava/util/List;&#45;&gt;__field__</title>
<path fill="none" stroke="#dc2626" d="M281.53,-126.89C355.69,-140.47 445.02,-158.48 460,-168.89 503.85,-199.36 531.75,-257.57 544.96,-291.19"/>
<polygon fill="#dc2626" stroke="#dc2626" points="542.39,-292.3 547.86,-298.78 547.62,-290.3 542.39,-292.3"/>
<text text-anchor="middle" x="418" y="-171.69" font-family="Helvetica,sans-Serif" font-size="9.00" fill="#dc2626"> reads unguarded</text>
</g>
<!-- m::com.android.server.am.BroadcastController.collectReceiverComponents:(Landroid/content/Intent;Ljava/lang/String;II[I[I[Ljava/lang/String;)Ljava/util/List;&#45;&gt;__field__ -->
<g id="edge14" class="edge">
<title>m::com.android.server.am.BroadcastController.collectReceiverComponents:(Landroid/content/Intent;Ljava/lang/String;II[I[I[Ljava/lang/String;)Ljava/util/List;&#45;&gt;__field__</title>
<path fill="none" stroke="#dc2626" d="M318.3,-107.78C376.74,-109.85 436.44,-116.08 460,-131.89 515.41,-169.07 539.85,-249.3 549.13,-290.82"/>
<polygon fill="#dc2626" stroke="#dc2626" points="546.43,-291.58 550.83,-298.82 551.9,-290.41 546.43,-291.58"/>
<text text-anchor="middle" x="418" y="-134.69" font-family="Helvetica,sans-Serif" font-size="9.00" fill="#dc2626"> reads unguarded</text>
</g>
<!-- m::com.android.server.am.BroadcastController.collectReceiverComponents:(Landroid/content/Intent;Ljava/lang/String;II[I[I[Ljava/lang/String;)Ljava/util/List;&#45;&gt;__field__ -->
<g id="edge15" class="edge">
<title>m::com.android.server.am.BroadcastController.collectReceiverComponents:(Landroid/content/Intent;Ljava/lang/String;II[I[I[Ljava/lang/String;)Ljava/util/List;&#45;&gt;__field__</title>
<path fill="none" stroke="#dc2626" d="M225.67,-90.84C285.66,-71.43 389.38,-49.18 460,-95.89 526.76,-140.04 546.26,-242.25 551.83,-290.61"/>
<polygon fill="#dc2626" stroke="#dc2626" points="549.06,-291.06 552.69,-298.72 554.63,-290.47 549.06,-291.06"/>
<text text-anchor="middle" x="418" y="-98.69" font-family="Helvetica,sans-Serif" font-size="9.00" fill="#dc2626"> reads unguarded</text>
</g>
<!-- m::com.android.server.am.BroadcastController.collectReceiverComponents:(Landroid/content/Intent;Ljava/lang/String;II[I[I[Ljava/lang/String;)Ljava/util/List;&#45;&gt;__field__ -->
<g id="edge16" class="edge">
<title>m::com.android.server.am.BroadcastController.collectReceiverComponents:(Landroid/content/Intent;Ljava/lang/String;II[I[I[Ljava/lang/String;)Ljava/util/List;&#45;&gt;__field__</title>
<path fill="none" stroke="#dc2626" d="M206.97,-90.88C261.64,-59.45 381.57,-2.92 460,-57.89 537.15,-111.96 551.23,-236.14 553.62,-290.54"/>
<polygon fill="#dc2626" stroke="#dc2626" points="550.82,-290.76 553.91,-298.65 556.42,-290.56 550.82,-290.76"/>
<text text-anchor="middle" x="418" y="-60.69" font-family="Helvetica,sans-Serif" font-size="9.00" fill="#dc2626"> reads unguarded</text>
</g>
<!-- m::com.android.server.am.BroadcastController.collectReceiverComponents:(Landroid/content/Intent;Ljava/lang/String;II[I[I[Ljava/lang/String;)Ljava/util/List;&#45;&gt;__field__ -->
<g id="edge17" class="edge">
<title>m::com.android.server.am.BroadcastController.collectReceiverComponents:(Landroid/content/Intent;Ljava/lang/String;II[I[I[Ljava/lang/String;)Ljava/util/List;&#45;&gt;__field__</title>
<path fill="none" stroke="#dc2626" d="M199.19,-90.62C249.15,-49.87 376.39,40.29 460,-20.89 547.3,-84.76 555.5,-230.32 554.96,-290.3"/>
<polygon fill="#dc2626" stroke="#dc2626" points="552.16,-290.46 554.83,-298.51 557.76,-290.56 552.16,-290.46"/>
<text text-anchor="middle" x="418" y="-23.69" font-family="Helvetica,sans-Serif" font-size="9.00" fill="#dc2626"> reads unguarded</text>
</g>
</g>
</svg>
