<?xml version="1.0" encoding="UTF-8" standalone="no"?>
<!DOCTYPE svg PUBLIC "-//W3C//DTD SVG 1.1//EN"
 "http://www.w3.org/Graphics/SVG/1.1/DTD/svg11.dtd">
<!-- Generated by graphviz version 2.43.0 (0)
 -->
<!-- Title: race Pages: 1 -->
<svg width="701pt" height="917pt"
 viewBox="0.00 0.00 701.00 916.91" xmlns="http://www.w3.org/2000/svg" xmlns:xlink="http://www.w3.org/1999/xlink">
<g id="graph0" class="graph" transform="scale(1 1) rotate(0) translate(4 912.91)">
<title>race</title>
<polygon fill="white" stroke="transparent" points="-4,4 -4,-912.91 697,-912.91 697,4 -4,4"/>
<!-- __field__ -->
<g id="node1" class="node">
<title>__field__</title>
<path fill="#fef9c3" stroke="#ca8a04" stroke-width="2" d="M681,-500C681,-500 589,-500 589,-500 583,-500 577,-494 577,-488 577,-488 577,-476 577,-476 577,-470 583,-464 589,-464 589,-464 681,-464 681,-464 687,-464 693,-470 693,-476 693,-476 693,-488 693,-488 693,-494 687,-500 681,-500"/>
<text text-anchor="middle" x="635" y="-479.2" font-family="Helvetica,sans-Serif" font-size="11.00">UserInfo.userType</text>
</g>
<!-- __guard__ -->
<g id="node2" class="node">
<title>__guard__</title>
<path fill="#dcfce7" stroke="#16a34a" stroke-width="2" d="M313,-906C313,-906 136,-906 136,-906 130,-906 124,-900 124,-894 124,-894 124,-882 124,-882 124,-876 130,-870 136,-870 136,-870 313,-870 313,-870 319,-870 325,-876 325,-882 325,-882 325,-894 325,-894 325,-900 319,-906 313,-906"/>
<text text-anchor="middle" x="224.5" y="-885.2" font-family="Helvetica,sans-Serif" font-size="11.00">UserManagerService.mUsersLock</text>
</g>
<!-- __guard__&#45;&gt;__field__ -->
<g id="edge1" class="edge">
<title>__guard__&#45;&gt;__field__</title>
<path fill="none" stroke="#16a34a" stroke-width="1.6" d="M324.91,-906.03C397.52,-913.17 493.62,-909.17 555,-854 606.77,-807.46 626.86,-585.18 632.33,-508.26"/>
<polygon fill="#16a34a" stroke="#16a34a" stroke-width="1.6" points="635.14,-508.21 632.9,-500.04 629.55,-507.83 635.14,-508.21"/>
<text text-anchor="middle" x="513" y="-897.8" font-family="Helvetica,sans-Serif" font-size="9.00" fill="#15803d"> guards 4/5</text>
</g>
<!-- m::com.android.server.pm.UserManagerService.upgradeProfileToTypeLU:(Landroid/content/pm/UserInfo;Lcom/android/server/pm/UserTypeDetails;)V -->
<g id="node3" class="node">
<title>m::com.android.server.pm.UserManagerService.upgradeProfileToTypeLU:(Landroid/content/pm/UserInfo;Lcom/android/server/pm/UserTypeDetails;)V</title>
<path fill="#fee2e2" stroke="#dc2626" d="M344.5,-848C344.5,-848 104.5,-848 104.5,-848 98.5,-848 92.5,-842 92.5,-836 92.5,-836 92.5,-824 92.5,-824 92.5,-818 98.5,-812 104.5,-812 104.5,-812 344.5,-812 344.5,-812 350.5,-812 356.5,-818 356.5,-824 356.5,-824 356.5,-836 356.5,-836 356.5,-842 350.5,-848 344.5,-848"/>
<text text-anchor="middle" x="224.5" y="-827.2" font-family="Helvetica,sans-Serif" font-size="11.00">UserManagerService.upgradeProfileToTypeLU</text>
</g>
<!-- m::com.android.server.pm.UserManagerService.upgradeProfileToTypeLU:(Landroid/content/pm/UserInfo;Lcom/android/server/pm/UserTypeDetails;)V&#45;&gt;__field__ -->
<g id="edge2" class="edge">
<title>m::com.android.server.pm.UserManagerService.upgradeProfileToTypeLU:(Landroid/content/pm/UserInfo;Lcom/android/server/pm/UserTypeDetails;)V&#45;&gt;__field__</title>
<path fill="none" stroke="#dc2626" d="M320.12,-848C392.83,-856.09 491.28,-853.79 555,-799 599.44,-760.79 623.61,-577.69 631.28,-508.53"/>
<polygon fill="#dc2626" stroke="#dc2626" points="634.09,-508.56 632.17,-500.3 628.53,-507.95 634.09,-508.56"/>
<text text-anchor="middle" x="513" y="-841.8" font-family="Helvetica,sans-Serif" font-size="9.00" fill="#dc2626"> writes unguarded</text>
</g>
<!-- m::com.android.server.am.BroadcastQueueImpl.logBootCompletedBroadcastCompletionLatencyIfPossible:(Lcom/android/server/am/BroadcastRecord;)V -->
<g id="node4" class="node">
<title>m::com.android.server.am.BroadcastQueueImpl.logBootCompletedBroadcastCompletionLatencyIfPossible:(Lcom/android/server/am/BroadcastRecord;)V</title>
<path fill="#fee2e2" stroke="#dc2626" d="M437,-790C437,-790 12,-790 12,-790 6,-790 0,-784 0,-778 0,-778 0,-766 0,-766 0,-760 6,-754 12,-754 12,-754 437,-754 437,-754 443,-754 449,-760 449,-766 449,-766 449,-778 449,-778 449,-784 443,-790 437,-790"/>
<text text-anchor="middle" x="224.5" y="-769.2" font-family="Helvetica,sans-Serif" font-size="11.00">BroadcastQueueImpl.logBootCompletedBroadcastCompletionLatencyIfPossible</text>
</g>
<!-- m::com.android.server.am.BroadcastQueueImpl.logBootCompletedBroadcastCompletionLatencyIfPossible:(Lcom/android/server/am/BroadcastRecord;)V&#45;&gt;__field__ -->
<g id="edge3" class="edge">
<title>m::com.android.server.am.BroadcastQueueImpl.logBootCompletedBroadcastCompletionLatencyIfPossible:(Lcom/android/server/am/BroadcastRecord;)V&#45;&gt;__field__</title>
<path fill="none" stroke="#dc2626" d="M313.03,-790.04C385.74,-799.71 487.81,-800.26 555,-746 592.59,-715.64 620.05,-568.82 629.96,-508.23"/>
<polygon fill="#dc2626" stroke="#dc2626" points="632.73,-508.62 631.24,-500.28 627.2,-507.73 632.73,-508.62"/>
<text text-anchor="middle" x="513" y="-786.8" font-family="Helvetica,sans-Serif" font-size="9.00" fill="#dc2626"> reads unguarded</text>
</g>
<!-- m::com.android.server.am.BroadcastQueueImpl.logBootCompletedBroadcastCompletionLatencyIfPossible:(Lcom/android/server/am/BroadcastRecord;)V&#45;&gt;__field__ -->
<g id="edge4" class="edge">
<title>m::com.android.server.am.BroadcastQueueImpl.logBootCompletedBroadcastCompletionLatencyIfPossible:(Lcom/android/server/am/BroadcastRecord;)V&#45;&gt;__field__</title>
<path fill="none" stroke="#dc2626" d="M400.58,-753.95C417.07,-750.85 433.42,-747.23 449,-743 455.17,-741.32 550.59,-702.64 555,-698 606.68,-643.62 625.06,-552.71 631.17,-508.18"/>
<polygon fill="#dc2626" stroke="#dc2626" points="633.96,-508.47 632.21,-500.18 628.41,-507.75 633.96,-508.47"/>
<text text-anchor="middle" x="513" y="-736.8" font-family="Helvetica,sans-Serif" font-size="9.00" fill="#dc2626"> reads unguarded</text>
</g>
<!-- m::com.android.server.inputmethod.InputMethodManagerService.handleShellCommandResetInputMethod:(Landroid/os/ShellCommand;)I -->
<g id="node5" class="node">
<title>m::com.android.server.inputmethod.InputMethodManagerService.handleShellCommandResetInputMethod:(Landroid/os/ShellCommand;)I</title>
<path fill="#fee2e2" stroke="#dc2626" d="M411,-732C411,-732 38,-732 38,-732 32,-732 26,-726 26,-720 26,-720 26,-708 26,-708 26,-702 32,-696 38,-696 38,-696 411,-696 411,-696 417,-696 423,-702 423,-708 423,-708 423,-720 423,-720 423,-726 417,-732 411,-732"/>
<text text-anchor="middle" x="224.5" y="-711.2" font-family="Helvetica,sans-Serif" font-size="11.00">InputMethodManagerService.handleShellCommandResetInputMethod</text>
</g>
<!-- m::com.android.server.inputmethod.InputMethodManagerService.handleShellCommandResetInputMethod:(Landroid/os/ShellCommand;)I&#45;&gt;__field__ -->
<g id="edge5" class="edge">
<title>m::com.android.server.inputmethod.InputMethodManagerService.handleShellCommandResetInputMethod:(Landroid/os/ShellCommand;)I&#45;&gt;__field__</title>
<path fill="none" stroke="#dc2626" d="M423.26,-701.5C471.45,-689.73 519.33,-669.41 555,-635 592.29,-599.03 615.3,-541.64 626.27,-508.32"/>
<polygon fill="#dc2626" stroke="#dc2626" points="629.03,-508.86 628.8,-500.39 623.7,-507.16 629.03,-508.86"/>
<text text-anchor="middle" x="513" y="-685.8" font-family="Helvetica,sans-Serif" font-size="9.00" fill="#dc2626"> reads unguarded</text>
</g>
<!-- m::com.android.server.pm.LauncherAppsService$LauncherAppsImpl.getPreInstalledSystemPackages:(Landroid/os/UserHandle;)Ljava/util/List; -->
<g id="node6" class="node">
<title>m::com.android.server.pm.LauncherAppsService$LauncherAppsImpl.getPreInstalledSystemPackages:(Landroid/os/UserHandle;)Ljava/util/List;</title>
<path fill="#fee2e2" stroke="#dc2626" d="M422.5,-674C422.5,-674 26.5,-674 26.5,-674 20.5,-674 14.5,-668 14.5,-662 14.5,-662 14.5,-650 14.5,-650 14.5,-644 20.5,-638 26.5,-638 26.5,-638 422.5,-638 422.5,-638 428.5,-638 434.5,-644 434.5,-650 434.5,-650 434.5,-662 434.5,-662 434.5,-668 428.5,-674 422.5,-674"/>
<text text-anchor="middle" x="224.5" y="-653.2" font-family="Helvetica,sans-Serif" font-size="11.00">LauncherAppsService$LauncherAppsImpl.getPreInstalledSystemPackages</text>
</g>
<!-- m::com.android.server.pm.LauncherAppsService$LauncherAppsImpl.getPreInstalledSystemPackages:(Landroid/os/UserHandle;)Ljava/util/List;&#45;&gt;__field__ -->
<g id="edge6" class="edge">
<title>m::com.android.server.pm.LauncherAppsService$LauncherAppsImpl.getPreInstalledSystemPackages:(Landroid/os/UserHandle;)Ljava/util/List;&#45;&gt;__field__</title>
<path fill="none" stroke="#dc2626" d="M418.94,-637.91C467.02,-626.16 515.93,-607.25 555,-577 580.6,-557.18 603.47,-527.7 617.94,-506.85"/>
<polygon fill="#dc2626" stroke="#dc2626" points="620.32,-508.33 622.51,-500.14 615.7,-505.17 620.32,-508.33"/>
<text text-anchor="middle" x="513" y="-622.8" font-family="Helvetica,sans-Serif" font-size="9.00" fill="#dc2626"> reads unguarded</text>
</g>
<!-- m::com.android.server.pm.UserJourneyLogger.logDelayedUserJourneyFinishWithError:(ILandroid/content/pm/UserInfo;II)Lcom/android/server/pm/UserJourneyLogger$UserJourneySession; -->
<g id="node7" class="node">
<title>m::com.android.server.pm.UserJourneyLogger.logDelayedUserJourneyFinishWithError:(ILandroid/content/pm/UserInfo;II)Lcom/android/server/pm/UserJourneyLogger$UserJourneySession;</title>
<path fill="#fee2e2" stroke="#dc2626" d="M380,-616C380,-616 69,-616 69,-616 63,-616 57,-610 57,-604 57,-604 57,-592 57,-592 57,-586 63,-580 69,-580 69,-580 380,-580 380,-580 386,-580 392,-586 392,-592 392,-592 392,-604 392,-604 392,-610 386,-616 380,-616"/>
<text text-anchor="middle" x="224.5" y="-595.2" font-family="Helvetica,sans-Serif" font-size="11.00">UserJourneyLogger.logDelayedUserJourneyFinishWithError</text>
</g>
<!-- m::com.android.server.pm.UserJourneyLogger.logDelayedUserJourneyFinishWithError:(ILandroid/content/pm/UserInfo;II)Lcom/android/server/pm/UserJourneyLogger$UserJourneySession;&#45;&gt;__field__ -->
<g id="edge7" class="edge">
<title>m::com.android.server.pm.UserJourneyLogger.logDelayedUserJourneyFinishWithError:(ILandroid/content/pm/UserInfo;II)Lcom/android/server/pm/UserJourneyLogger$UserJourneySession;&#45;&gt;__field__</title>
<path fill="none" stroke="#dc2626" d="M392.18,-581.48C411.49,-578.06 430.78,-573.95 449,-569 498.39,-555.58 508.81,-546.03 555,-524 568.01,-517.8 581.97,-510.57 594.48,-503.88"/>
<polygon fill="#dc2626" stroke="#dc2626" points="595.94,-506.27 601.65,-500.02 593.28,-501.34 595.94,-506.27"/>
<text text-anchor="middle" x="513" y="-564.8" font-family="Helvetica,sans-Serif" font-size="9.00" fill="#dc2626"> reads unguarded</text>
</g>
<!-- m::com.android.server.pm.UserJourneyLogger.logUserCreateJourneyFinish:(ILandroid/content/pm/UserInfo;)Lcom/android/server/pm/UserJourneyLogger$UserJourneySession; -->
<g id="node8" class="node">
<title>m::com.android.server.pm.UserJourneyLogger.logUserCreateJourneyFinish:(ILandroid/content/pm/UserInfo;)Lcom/android/server/pm/UserJourneyLogger$UserJourneySession;</title>
<path fill="#fee2e2" stroke="#dc2626" d="M350,-558C350,-558 99,-558 99,-558 93,-558 87,-552 87,-546 87,-546 87,-534 87,-534 87,-528 93,-522 99,-522 99,-522 350,-522 350,-522 356,-522 362,-528 362,-534 362,-534 362,-546 362,-546 362,-552 356,-558 350,-558"/>
<text text-anchor="middle" x="224.5" y="-537.2" font-family="Helvetica,sans-Serif" font-size="11.00">UserJourneyLogger.logUserCreateJourneyFinish</text>
</g>
<!-- m::com.android.server.pm.UserJourneyLogger.logUserCreateJourneyFinish:(ILandroid/content/pm/UserInfo;)Lcom/android/server/pm/UserJourneyLogger$UserJourneySession;&#45;&gt;__field__ -->
<g id="edge8" class="edge">
<title>m::com.android.server.pm.UserJourneyLogger.logUserCreateJourneyFinish:(ILandroid/content/pm/UserInfo;)Lcom/android/server/pm/UserJourneyLogger$UserJourneySession;&#45;&gt;__field__</title>
<path fill="none" stroke="#dc2626" d="M362.03,-524.03C421.43,-516.6 491.78,-507.17 555,-497 559.39,-496.29 563.92,-495.53 568.47,-494.74"/>
<polygon fill="#dc2626" stroke="#dc2626" points="569.29,-497.43 576.68,-493.28 568.31,-491.92 569.29,-497.43"/>
<text text-anchor="middle" x="513" y="-511.8" font-family="Helvetica,sans-Serif" font-size="9.00" fill="#dc2626"> reads unguarded</text>
</g>
<!-- m::com.android.server.pm.UserJourneyLogger.logUserJourneyFinishWithError:(ILandroid/content/pm/UserInfo;II)Lcom/android/server/pm/UserJourneyLogger$UserJourneySession; -->
<g id="node9" class="node">
<title>m::com.android.server.pm.UserJourneyLogger.logUserJourneyFinishWithError:(ILandroid/content/pm/UserInfo;II)Lcom/android/server/pm/UserJourneyLogger$UserJourneySession;</title>
<path fill="#fee2e2" stroke="#dc2626" d="M357.5,-500C357.5,-500 91.5,-500 91.5,-500 85.5,-500 79.5,-494 79.5,-488 79.5,-488 79.5,-476 79.5,-476 79.5,-470 85.5,-464 91.5,-464 91.5,-464 357.5,-464 357.5,-464 363.5,-464 369.5,-470 369.5,-476 369.5,-476 369.5,-488 369.5,-488 369.5,-494 363.5,-500 357.5,-500"/>
<text text-anchor="middle" x="224.5" y="-479.2" font-family="Helvetica,sans-Serif" font-size="11.00">UserJourneyLogger.logUserJourneyFinishWithError</text>
</g>
<!-- m::com.android.server.pm.UserJourneyLogger.logUserJourneyFinishWithError:(ILandroid/content/pm/UserInfo;II)Lcom/android/server/pm/UserJourneyLogger$UserJourneySession;&#45;&gt;__field__ -->
<g id="edge9" class="edge">
<title>m::com.android.server.pm.UserJourneyLogger.logUserJourneyFinishWithError:(ILandroid/content/pm/UserInfo;II)Lcom/android/server/pm/UserJourneyLogger$UserJourneySession;&#45;&gt;__field__</title>
<path fill="none" stroke="#dc2626" d="M369.52,-482C437.47,-482 515.19,-482 568.71,-482"/>
<polygon fill="#dc2626" stroke="#dc2626" points="568.75,-484.8 576.75,-482 568.75,-479.2 568.75,-484.8"/>
<text text-anchor="middle" x="513" y="-484.8" font-family="Helvetica,sans-Serif" font-size="9.00" fill="#dc2626"> reads unguarded</text>
</g>
<!-- m::com.android.server.pm.UserManagerService$LocalService.getUserTypesForStatsd:([I)[I -->
<g id="node10" class="node">
<title>m::com.android.server.pm.UserManagerService$LocalService.getUserTypesForStatsd:([I)[I</title>
<path fill="#fee2e2" stroke="#dc2626" d="M381.5,-442C381.5,-442 67.5,-442 67.5,-442 61.5,-442 55.5,-436 55.5,-430 55.5,-430 55.5,-418 55.5,-418 55.5,-412 61.5,-406 67.5,-406 67.5,-406 381.5,-406 381.5,-406 387.5,-406 393.5,-412 393.5,-418 393.5,-418 393.5,-430 393.5,-430 393.5,-436 387.5,-442 381.5,-442"/>
<text text-anchor="middle" x="224.5" y="-421.2" font-family="Helvetica,sans-Serif" font-size="11.00">UserManagerService$LocalService.getUserTypesForStatsd</text>
</g>
<!-- m::com.android.server.pm.UserManagerService$LocalService.getUserTypesForStatsd:([I)[I&#45;&gt;__field__ -->
<g id="edge10" class="edge">
<title>m::com.android.server.pm.UserManagerService$LocalService.getUserTypesForStatsd:([I)[I&#45;&gt;__field__</title>
<path fill="none" stroke="#dc2626" d="M378.34,-442.03C434.05,-449.1 497.47,-457.75 555,-467 559.39,-467.71 563.92,-468.47 568.47,-469.26"/>
<polygon fill="#dc2626" stroke="#dc2626" points="568.31,-472.08 576.68,-470.72 569.29,-466.57 568.31,-472.08"/>
<text text-anchor="middle" x="513" y="-469.8" font-family="Helvetica,sans-Serif" font-size="9.00" fill="#dc2626"> reads unguarded</text>
</g>
<!-- m::com.android.server.pm.UserManagerService.dumpUserLocked:(Ljava/io/PrintWriter;Lcom/android/server/pm/UserManagerService$UserData;Ljava/lang/StringBuilder;JJ)V -->
<g id="node11" class="node">
<title>m::com.android.server.pm.UserManagerService.dumpUserLocked:(Ljava/io/PrintWriter;Lcom/android/server/pm/UserManagerService$UserData;Ljava/lang/StringBuilder;JJ)V</title>
<path fill="#fee2e2" stroke="#dc2626" d="M327,-384C327,-384 122,-384 122,-384 116,-384 110,-378 110,-372 110,-372 110,-360 110,-360 110,-354 116,-348 122,-348 122,-348 327,-348 327,-348 333,-348 339,-354 339,-360 339,-360 339,-372 339,-372 339,-378 333,-384 327,-384"/>
<text text-anchor="middle" x="224.5" y="-363.2" font-family="Helvetica,sans-Serif" font-size="11.00">UserManagerService.dumpUserLocked</text>
</g>
<!-- m::com.android.server.pm.UserManagerService.dumpUserLocked:(Ljava/io/PrintWriter;Lcom/android/server/pm/UserManagerService$UserData;Ljava/lang/StringBuilder;JJ)V&#45;&gt;__field__ -->
<g id="edge11" class="edge">
<title>m::com.android.server.pm.UserManagerService.dumpUserLocked:(Ljava/io/PrintWriter;Lcom/android/server/pm/UserManagerService$UserData;Ljava/lang/StringBuilder;JJ)V&#45;&gt;__field__</title>
<path fill="none" stroke="#dc2626" d="M339.19,-374.87C374.74,-379.2 413.85,-385.6 449,-395 498.28,-408.17 508.98,-417 555,-439 568.31,-445.36 582.55,-452.88 595.23,-459.84"/>
<polygon fill="#dc2626" stroke="#dc2626" points="594.13,-462.44 602.49,-463.86 596.85,-457.54 594.13,-462.44"/>
<text text-anchor="middle" x="513" y="-441.8" font-family="Helvetica,sans-Serif" font-size="9.00" fill="#dc2626"> reads unguarded</text>
</g>
<!-- m::com.android.server.pm.UserManagerService.getFreeProfileBadgeLU:(ILjava/lang/String;)I -->
<g id="node12" class="node">
<title>m::com.android.server.pm.UserManagerService.getFreeProfileBadgeLU:(ILjava/lang/String;)I</title>
<path fill="#fee2e2" stroke="#dc2626" d="M341.5,-326C341.5,-326 107.5,-326 107.5,-326 101.5,-326 95.5,-320 95.5,-314 95.5,-314 95.5,-302 95.5,-302 95.5,-296 101.5,-290 107.5,-290 107.5,-290 341.5,-290 341.5,-290 347.5,-290 353.5,-296 353.5,-302 353.5,-302 353.5,-314 353.5,-314 353.5,-320 347.5,-326 341.5,-326"/>
<text text-anchor="middle" x="224.5" y="-305.2" font-family="Helvetica,sans-Serif" font-size="11.00">UserManagerService.getFreeProfileBadgeLU</text>
</g>
<!-- m::com.android.server.pm.UserManagerService.getFreeProfileBadgeLU:(ILjava/lang/String;)I&#45;&gt;__field__ -->
<g id="edge12" class="edge">
<title>m::com.android.server.pm.UserManagerService.getFreeProfileBadgeLU:(ILjava/lang/String;)I&#45;&gt;__field__</title>
<path fill="none" stroke="#dc2626" d="M353.56,-313.5C419.47,-322.07 497.77,-341.8 555,-386 580.94,-406.03 603.9,-436.07 618.29,-457.2"/>
<polygon fill="#dc2626" stroke="#dc2626" points="616.06,-458.9 622.83,-464 620.71,-455.79 616.06,-458.9"/>
<text text-anchor="middle" x="513" y="-388.8" font-family="Helvetica,sans-Serif" font-size="9.00" fill="#dc2626"> reads unguarded</text>
</g>
<!-- m::com.android.server.pm.UserManagerService.getPreCreatedUserLU:(Ljava/lang/String;)Lcom/android/server/pm/UserManagerService$UserData; -->
<g id="node13" class="node">
<title>m::com.android.server.pm.UserManagerService.getPreCreatedUserLU:(Ljava/lang/String;)Lcom/android/server/pm/UserManagerService$UserData;</title>
<path fill="#fee2e2" stroke="#dc2626" d="M339,-268C339,-268 110,-268 110,-268 104,-268 98,-262 98,-256 98,-256 98,-244 98,-244 98,-238 104,-232 110,-232 110,-232 339,-232 339,-232 345,-232 351,-238 351,-244 351,-244 351,-256 351,-256 351,-262 345,-268 339,-268"/>
<text text-anchor="middle" x="224.5" y="-247.2" font-family="Helvetica,sans-Serif" font-size="11.00">UserManagerService.getPreCreatedUserLU</text>
</g>
<!-- m::com.android.server.pm.UserManagerService.getPreCreatedUserLU:(Ljava/lang/String;)Lcom/android/server/pm/UserManagerService$UserData;&#45;&gt;__field__ -->
<g id="edge13" class="edge">
<title>m::com.android.server.pm.UserManagerService.getPreCreatedUserLU:(Ljava/lang/String;)Lcom/android/server/pm/UserManagerService$UserData;&#45;&gt;__field__</title>
<path fill="none" stroke="#dc2626" d="M351.08,-249.7C419.53,-256.12 501.04,-275.48 555,-327 593.06,-363.34 615.91,-422.01 626.62,-455.79"/>
<polygon fill="#dc2626" stroke="#dc2626" points="624.06,-456.98 629.08,-463.81 629.41,-455.34 624.06,-456.98"/>
<text text-anchor="middle" x="513" y="-329.8" font-family="Helvetica,sans-Serif" font-size="9.00" fill="#dc2626"> reads unguarded</text>
</g>
<!-- m::com.android.server.pm.UserManagerService.getProfileIdsLU:(ILjava/lang/String;ZZZ)Landroid/util/IntArray; -->
<g id="node14" class="node">
<title>m::com.android.server.pm.UserManagerService.getProfileIdsLU:(ILjava/lang/String;ZZZ)Landroid/util/IntArray;</title>
<path fill="#fee2e2" stroke="#dc2626" d="M320.5,-210C320.5,-210 128.5,-210 128.5,-210 122.5,-210 116.5,-204 116.5,-198 116.5,-198 116.5,-186 116.5,-186 116.5,-180 122.5,-174 128.5,-174 128.5,-174 320.5,-174 320.5,-174 326.5,-174 332.5,-180 332.5,-186 332.5,-186 332.5,-198 332.5,-198 332.5,-204 326.5,-210 320.5,-210"/>
<text text-anchor="middle" x="224.5" y="-189.2" font-family="Helvetica,sans-Serif" font-size="11.00">UserManagerService.getProfileIdsLU</text>
</g>
<!-- m::com.android.server.pm.UserManagerService.getProfileIdsLU:(ILjava/lang/String;ZZZ)Landroid/util/IntArray;&#45;&gt;__field__ -->
<g id="edge14" class="edge">
<title>m::com.android.server.pm.UserManagerService.getProfileIdsLU:(ILjava/lang/String;ZZZ)Landroid/util/IntArray;&#45;&gt;__field__</title>
<path fill="none" stroke="#dc2626" d="M332.51,-186.59C405.26,-189.01 498.24,-205.06 555,-264 607.6,-318.62 625.56,-410.88 631.38,-455.82"/>
<polygon fill="#dc2626" stroke="#dc2626" points="628.62,-456.3 632.36,-463.9 634.18,-455.62 628.62,-456.3"/>
<text text-anchor="middle" x="513" y="-266.8" font-family="Helvetica,sans-Serif" font-size="9.00" fill="#dc2626"> reads unguarded</text>
</g>
<!-- m::com.android.server.pm.UserManagerService.getUserTypeDetails:(Landroid/content/pm/UserInfo;)Lcom/android/server/pm/UserTypeDetails; -->
<g id="node15" class="node">
<title>m::com.android.server.pm.UserManagerService.getUserTypeDetails:(Landroid/content/pm/UserInfo;)Lcom/android/server/pm/UserTypeDetails;</title>
<path fill="#fee2e2" stroke="#dc2626" d="M333.5,-152C333.5,-152 115.5,-152 115.5,-152 109.5,-152 103.5,-146 103.5,-140 103.5,-140 103.5,-128 103.5,-128 103.5,-122 109.5,-116 115.5,-116 115.5,-116 333.5,-116 333.5,-116 339.5,-116 345.5,-122 345.5,-128 345.5,-128 345.5,-140 345.5,-140 345.5,-146 339.5,-152 333.5,-152"/>
<text text-anchor="middle" x="224.5" y="-131.2" font-family="Helvetica,sans-Serif" font-size="11.00">UserManagerService.getUserTypeDetails</text>
</g>
<!-- m::com.android.server.pm.UserManagerService.getUserTypeDetails:(Landroid/content/pm/UserInfo;)Lcom/android/server/pm/UserTypeDetails;&#45;&gt;__field__ -->
<g id="edge15" class="edge">
<title>m::com.android.server.pm.UserManagerService.getUserTypeDetails:(Landroid/content/pm/UserInfo;)Lcom/android/server/pm/UserTypeDetails;&#45;&gt;__field__</title>
<path fill="none" stroke="#dc2626" d="M345.72,-124.71C416.27,-126.15 501.76,-141.01 555,-196 625.74,-269.07 634.36,-399.55 634.6,-455.42"/>
<polygon fill="#dc2626" stroke="#dc2626" points="631.79,-455.72 634.57,-463.73 637.39,-455.73 631.79,-455.72"/>
<text text-anchor="middle" x="513" y="-198.8" font-family="Helvetica,sans-Serif" font-size="9.00" fill="#dc2626"> reads unguarded</text>
</g>
<!-- m::com.android.server.pm.UserManagerService.logQuietModeEnabled:(IZLjava/lang/String;)V -->
<g id="node16" class="node">
<title>m::com.android.server.pm.UserManagerService.logQuietModeEnabled:(IZLjava/lang/String;)V</title>
<path fill="#fee2e2" stroke="#dc2626" d="M339.5,-94C339.5,-94 109.5,-94 109.5,-94 103.5,-94 97.5,-88 97.5,-82 97.5,-82 97.5,-70 97.5,-70 97.5,-64 103.5,-58 109.5,-58 109.5,-58 339.5,-58 339.5,-58 345.5,-58 351.5,-64 351.5,-70 351.5,-70 351.5,-82 351.5,-82 351.5,-88 345.5,-94 339.5,-94"/>
<text text-anchor="middle" x="224.5" y="-73.2" font-family="Helvetica,sans-Serif" font-size="11.00">UserManagerService.logQuietModeEnabled</text>
</g>
<!-- m::com.android.server.pm.UserManagerService.logQuietModeEnabled:(IZLjava/lang/String;)V&#45;&gt;__field__ -->
<g id="edge16" class="edge">
<title>m::com.android.server.pm.UserManagerService.logQuietModeEnabled:(IZLjava/lang/String;)V&#45;&gt;__field__</title>
<path fill="none" stroke="#dc2626" d="M351.52,-63.44C420.77,-63.8 502.92,-77.35 555,-130 601.03,-176.53 624.56,-381.71 631.64,-455.47"/>
<polygon fill="#dc2626" stroke="#dc2626" points="628.89,-456.09 632.43,-463.8 634.47,-455.57 628.89,-456.09"/>
<text text-anchor="middle" x="513" y="-132.8" font-family="Helvetica,sans-Serif" font-size="9.00" fill="#dc2626"> reads unguarded</text>
</g>
<!-- m::com.android.server.pm.UserManagerService.onPullAtom:(ILjava/util/List;)I -->
<g id="node17" class="node">
<title>m::com.android.server.pm.UserManagerService.onPullAtom:(ILjava/util/List;)I</title>
<path fill="#fee2e2" stroke="#dc2626" d="M311,-36C311,-36 138,-36 138,-36 132,-36 126,-30 126,-24 126,-24 126,-12 126,-12 126,-6 132,0 138,0 138,0 311,0 311,0 317,0 323,-6 323,-12 323,-12 323,-24 323,-24 323,-30 317,-36 311,-36"/>
<text text-anchor="middle" x="224.5" y="-15.2" font-family="Helvetica,sans-Serif" font-size="11.00">UserManagerService.onPullAtom</text>
</g>
<!-- m::com.android.server.pm.UserManagerService.onPullAtom:(ILjava/util/List;)I&#45;&gt;__field__ -->
<g id="edge17" class="edge">
<title>m::com.android.server.pm.UserManagerService.onPullAtom:(ILjava/util/List;)I&#45;&gt;__field__</title>
<path fill="none" stroke="#dc2626" d="M323.13,-3.8C396.75,1.01 494.99,-6.12 555,-65 611.13,-120.07 628.58,-373.2 632.83,-455.83"/>
<polygon fill="#dc2626" stroke="#dc2626" points="630.04,-456.09 633.23,-463.95 635.63,-455.82 630.04,-456.09"/>
<text text-anchor="middle" x="513" y="-67.8" font-family="Helvetica,sans-Serif" font-size="9.00" fill="#dc2626"> reads unguarded</text>
</g>
</g>
</svg>
