<?xml version="1.0" encoding="UTF-8" standalone="no"?>
<!DOCTYPE svg PUBLIC "-//W3C//DTD SVG 1.1//EN"
 "http://www.w3.org/Graphics/SVG/1.1/DTD/svg11.dtd">
<!-- Generated by graphviz version 2.43.0 (0)
 -->
<!-- Title: race Pages: 1 -->
<svg width="473pt" height="102pt"
 viewBox="0.00 0.00 473.00 102.00" xmlns="http://www.w3.org/2000/svg" xmlns:xlink="http://www.w3.org/1999/xlink">
<g id="graph0" class="graph" transform="scale(1 1) rotate(0) translate(4 98)">
<title>race</title>
<polygon fill="white" stroke="transparent" points="-4,4 -4,-98 469,-98 469,4 -4,4"/>
<!-- __field__ -->
<g id="node1" class="node">
<title>__field__</title>
<path fill="#fef9c3" stroke="#ca8a04" stroke-width="2" d="M453,-65C453,-65 277,-65 277,-65 271,-65 265,-59 265,-53 265,-53 265,-41 265,-41 265,-35 271,-29 277,-29 277,-29 453,-29 453,-29 459,-29 465,-35 465,-41 465,-41 465,-53 465,-53 465,-59 459,-65 453,-65"/>
<text text-anchor="middle" x="365" y="-44.2" font-family="Helvetica,sans-Serif" font-size="11.00">AppOpsService.mWriteScheduled</text>
</g>
<!-- __guard__ -->
<g id="node2" class="node">
<title>__guard__</title>
<path fill="#dcfce7" stroke="#16a34a" stroke-width="2" d="M125,-94C125,-94 12,-94 12,-94 6,-94 0,-88 0,-82 0,-82 0,-70 0,-70 0,-64 6,-58 12,-58 12,-58 125,-58 125,-58 131,-58 137,-64 137,-70 137,-70 137,-82 137,-82 137,-88 131,-94 125,-94"/>
<text text-anchor="middle" x="68.5" y="-73.2" font-family="Helvetica,sans-Serif" font-size="11.00">appop.AppOpsService</text>
</g>
<!-- __guard__&#45;&gt;__field__ -->
<g id="edge1" class="edge">
<title>__guard__&#45;&gt;__field__</title>
<path fill="none" stroke="#16a34a" stroke-width="1.6" d="M137.06,-69.35C172.49,-65.86 216.73,-61.5 256.71,-57.56"/>
<polygon fill="#16a34a" stroke="#16a34a" stroke-width="1.6" points="257.22,-60.33 264.91,-56.76 256.67,-54.76 257.22,-60.33"/>
<text text-anchor="middle" x="201" y="-68.8" font-family="Helvetica,sans-Serif" font-size="9.00" fill="#15803d"> guards 3/4</text>
</g>
<!-- m::com.android.server.appop.AppOpsService$1.run:()V -->
<g id="node3" class="node">
<title>m::com.android.server.appop.AppOpsService$1.run:()V</title>
<path fill="#fee2e2" stroke="#dc2626" d="M124,-36C124,-36 13,-36 13,-36 7,-36 1,-30 1,-24 1,-24 1,-12 1,-12 1,-6 7,0 13,0 13,0 124,0 124,0 130,0 136,-6 136,-12 136,-12 136,-24 136,-24 136,-30 130,-36 124,-36"/>
<text text-anchor="middle" x="68.5" y="-15.2" font-family="Helvetica,sans-Serif" font-size="11.00">AppOpsService$1.run</text>
</g>
<!-- m::com.android.server.appop.AppOpsService$1.run:()V&#45;&gt;__field__ -->
<g id="edge2" class="edge">
<title>m::com.android.server.appop.AppOpsService$1.run:()V&#45;&gt;__field__</title>
<path fill="none" stroke="#dc2626" d="M136.33,-24.58C171.89,-28.08 216.47,-32.47 256.74,-36.44"/>
<polygon fill="#dc2626" stroke="#dc2626" points="256.49,-39.23 264.73,-37.22 257.04,-33.65 256.49,-39.23"/>
<text text-anchor="middle" x="201" y="-36.8" font-family="Helvetica,sans-Serif" font-size="9.00" fill="#dc2626"> writes unguarded</text>
</g>
</g>
</svg>
