<?xml version="1.0" encoding="UTF-8" standalone="no"?>
<!DOCTYPE svg PUBLIC "-//W3C//DTD SVG 1.1//EN"
 "http://www.w3.org/Graphics/SVG/1.1/DTD/svg11.dtd">
<!-- Generated by graphviz version 2.43.0 (0)
 -->
<!-- Title: race Pages: 1 -->
<svg width="687pt" height="218pt"
 viewBox="0.00 0.00 687.00 218.00" xmlns="http://www.w3.org/2000/svg" xmlns:xlink="http://www.w3.org/1999/xlink">
<g id="graph0" class="graph" transform="scale(1 1) rotate(0) translate(4 214)">
<title>race</title>
<polygon fill="white" stroke="transparent" points="-4,4 -4,-214 683,-214 683,4 -4,4"/>
<!-- __field__ -->
<g id="node1" class="node">
<title>__field__</title>
<path fill="#fef9c3" stroke="#ca8a04" stroke-width="2" d="M667,-123C667,-123 419,-123 419,-123 413,-123 407,-117 407,-111 407,-111 407,-99 407,-99 407,-93 413,-87 419,-87 419,-87 667,-87 667,-87 673,-87 679,-93 679,-99 679,-99 679,-111 679,-111 679,-117 673,-123 667,-123"/>
<text text-anchor="middle" x="543" y="-102.2" font-family="Helvetica,sans-Serif" font-size="11.00">StorageManagerService.mPrimaryStorageUuid</text>
</g>
<!-- __guard__ -->
<g id="node2" class="node">
<title>__guard__</title>
<path fill="#dcfce7" stroke="#16a34a" stroke-width="2" d="M221,-210C221,-210 58,-210 58,-210 52,-210 46,-204 46,-198 46,-198 46,-186 46,-186 46,-180 52,-174 58,-174 58,-174 221,-174 221,-174 227,-174 233,-180 233,-186 233,-186 233,-198 233,-198 233,-204 227,-210 221,-210"/>
<text text-anchor="middle" x="139.5" y="-189.2" font-family="Helvetica,sans-Serif" font-size="11.00">StorageManagerService.mLock</text>
</g>
<!-- __guard__&#45;&gt;__field__ -->
<g id="edge1" class="edge">
<title>__guard__&#45;&gt;__field__</title>
<path fill="none" stroke="#16a34a" stroke-width="1.6" d="M227.34,-173.96C244.47,-170.37 262.31,-166.59 279,-163 337.04,-150.53 402.19,-136.16 453.13,-124.84"/>
<polygon fill="#16a34a" stroke="#16a34a" stroke-width="1.6" points="453.98,-127.52 461.18,-123.06 452.77,-122.06 453.98,-127.52"/>
<text text-anchor="middle" x="343" y="-158.8" font-family="Helvetica,sans-Serif" font-size="9.00" fill="#15803d"> guards 4/5</text>
</g>
<!-- m::com.android.server.StorageManagerService.onMoveStatusLocked:(I)V -->
<g id="node3" class="node">
<title>m::com.android.server.StorageManagerService.onMoveStatusLocked:(I)V</title>
<path fill="#fee2e2" stroke="#dc2626" d="M262,-152C262,-152 17,-152 17,-152 11,-152 5,-146 5,-140 5,-140 5,-128 5,-128 5,-122 11,-116 17,-116 17,-116 262,-116 262,-116 268,-116 274,-122 274,-128 274,-128 274,-140 274,-140 274,-146 268,-152 262,-152"/>
<text text-anchor="middle" x="139.5" y="-131.2" font-family="Helvetica,sans-Serif" font-size="11.00">StorageManagerService.onMoveStatusLocked</text>
</g>
<!-- m::com.android.server.StorageManagerService.onMoveStatusLocked:(I)V&#45;&gt;__field__ -->
<g id="edge2" class="edge">
<title>m::com.android.server.StorageManagerService.onMoveStatusLocked:(I)V&#45;&gt;__field__</title>
<path fill="none" stroke="#dc2626" d="M274.19,-124.34C314.19,-121.45 358.19,-118.28 398.77,-115.35"/>
<polygon fill="#dc2626" stroke="#dc2626" points="399.06,-118.13 406.84,-114.76 398.65,-112.55 399.06,-118.13"/>
<text text-anchor="middle" x="343" y="-124.8" font-family="Helvetica,sans-Serif" font-size="9.00" fill="#dc2626"> writes unguarded</text>
</g>
<!-- m::com.android.server.StorageManagerService.setPrimaryStorageUuid:(Ljava/lang/String;Landroid/content/pm/IPackageMoveObserver;)V -->
<g id="node4" class="node">
<title>m::com.android.server.StorageManagerService.setPrimaryStorageUuid:(Ljava/lang/String;Landroid/content/pm/IPackageMoveObserver;)V</title>
<path fill="#fee2e2" stroke="#dc2626" d="M267,-94C267,-94 12,-94 12,-94 6,-94 0,-88 0,-82 0,-82 0,-70 0,-70 0,-64 6,-58 12,-58 12,-58 267,-58 267,-58 273,-58 279,-64 279,-70 279,-70 279,-82 279,-82 279,-88 273,-94 267,-94"/>
<text text-anchor="middle" x="139.5" y="-73.2" font-family="Helvetica,sans-Serif" font-size="11.00">StorageManagerService.setPrimaryStorageUuid</text>
</g>
<!-- m::com.android.server.StorageManagerService.setPrimaryStorageUuid:(Ljava/lang/String;Landroid/content/pm/IPackageMoveObserver;)V&#45;&gt;__field__ -->
<g id="edge3" class="edge">
<title>m::com.android.server.StorageManagerService.setPrimaryStorageUuid:(Ljava/lang/String;Landroid/content/pm/IPackageMoveObserver;)V&#45;&gt;__field__</title>
<path fill="none" stroke="#dc2626" d="M279.24,-86.02C317.85,-88.81 359.87,-91.84 398.74,-94.65"/>
<polygon fill="#dc2626" stroke="#dc2626" points="398.81,-97.46 406.99,-95.25 399.21,-91.88 398.81,-97.46"/>
<text text-anchor="middle" x="343" y="-95.8" font-family="Helvetica,sans-Serif" font-size="9.00" fill="#dc2626"> reads unguarded</text>
</g>
<!-- m::com.android.server.StorageManagerService.writeSettingsLocked:()V -->
<g id="node5" class="node">
<title>m::com.android.server.StorageManagerService.writeSettingsLocked:()V</title>
<path fill="#fee2e2" stroke="#dc2626" d="M259,-36C259,-36 20,-36 20,-36 14,-36 8,-30 8,-24 8,-24 8,-12 8,-12 8,-6 14,0 20,0 20,0 259,0 259,0 265,0 271,-6 271,-12 271,-12 271,-24 271,-24 271,-30 265,-36 259,-36"/>
<text text-anchor="middle" x="139.5" y="-15.2" font-family="Helvetica,sans-Serif" font-size="11.00">StorageManagerService.writeSettingsLocked</text>
</g>
<!-- m::com.android.server.StorageManagerService.writeSettingsLocked:()V&#45;&gt;__field__ -->
<g id="edge4" class="edge">
<title>m::com.android.server.StorageManagerService.writeSettingsLocked:()V&#45;&gt;__field__</title>
<path fill="none" stroke="#dc2626" d="M227.34,-36.04C244.47,-39.63 262.31,-43.41 279,-47 337.04,-59.47 402.19,-73.84 453.13,-85.16"/>
<polygon fill="#dc2626" stroke="#dc2626" points="452.77,-87.94 461.18,-86.94 453.98,-82.48 452.77,-87.94"/>
<text text-anchor="middle" x="343" y="-71.8" font-family="Helvetica,sans-Serif" font-size="9.00" fill="#dc2626"> reads unguarded</text>
</g>
</g>
</svg>
