<?xml version="1.0" encoding="UTF-8" standalone="no"?>
<!DOCTYPE svg PUBLIC "-//W3C//DTD SVG 1.1//EN"
 "http://www.w3.org/Graphics/SVG/1.1/DTD/svg11.dtd">
<!-- Generated by graphviz version 2.43.0 (0)
 -->
<!-- Title: race Pages: 1 -->
<svg width="695pt" height="102pt"
 viewBox="0.00 0.00 695.00 102.00" xmlns="http://www.w3.org/2000/svg" xmlns:xlink="http://www.w3.org/1999/xlink">
<g id="graph0" class="graph" transform="scale(1 1) rotate(0) translate(4 98)">
<title>race</title>
<polygon fill="white" stroke="transparent" points="-4,4 -4,-98 691,-98 691,4 -4,4"/>
<!-- __field__ -->
<g id="node1" class="node">
<title>__field__</title>
<path fill="#fef9c3" stroke="#ca8a04" stroke-width="2" d="M675,-65C675,-65 431,-65 431,-65 425,-65 419,-59 419,-53 419,-53 419,-41 419,-41 419,-35 425,-29 431,-29 431,-29 675,-29 675,-29 681,-29 687,-35 687,-41 687,-41 687,-53 687,-53 687,-59 681,-65 675,-65"/>
<text text-anchor="middle" x="553" y="-44.2" font-family="Helvetica,sans-Serif" font-size="11.00">MediaFocusControl.mFocusFreezeExemptUids</text>
</g>
<!-- __guard__ -->
<g id="node2" class="node">
<title>__guard__</title>
<path fill="#dcfce7" stroke="#16a34a" stroke-width="2" d="M244.5,-94C244.5,-94 46.5,-94 46.5,-94 40.5,-94 34.5,-88 34.5,-82 34.5,-82 34.5,-70 34.5,-70 34.5,-64 40.5,-58 46.5,-58 46.5,-58 244.5,-58 244.5,-58 250.5,-58 256.5,-64 256.5,-70 256.5,-70 256.5,-82 256.5,-82 256.5,-88 250.5,-94 244.5,-94"/>
<text text-anchor="middle" x="145.5" y="-73.2" font-family="Helvetica,sans-Serif" font-size="11.00">MediaFocusControl.mAudioFocusLock</text>
</g>
<!-- __guard__&#45;&gt;__field__ -->
<g id="edge1" class="edge">
<title>__guard__&#45;&gt;__field__</title>
<path fill="none" stroke="#16a34a" stroke-width="1.6" d="M256.5,-68.13C304.03,-64.73 360.23,-60.71 410.79,-57.1"/>
<polygon fill="#16a34a" stroke="#16a34a" stroke-width="1.6" points="411.08,-59.89 418.86,-56.52 410.68,-54.3 411.08,-59.89"/>
<text text-anchor="middle" x="355" y="-65.8" font-family="Helvetica,sans-Serif" font-size="9.00" fill="#15803d"> guards 2/3</text>
</g>
<!-- m::com.android.server.audio.MediaFocusControl.enterAudioFocusFreezeForTest:(Landroid/os/IBinder;[I)Z -->
<g id="node3" class="node">
<title>m::com.android.server.audio.MediaFocusControl.enterAudioFocusFreezeForTest:(Landroid/os/IBinder;[I)Z</title>
<path fill="#fee2e2" stroke="#dc2626" d="M279,-36C279,-36 12,-36 12,-36 6,-36 0,-30 0,-24 0,-24 0,-12 0,-12 0,-6 6,0 12,0 12,0 279,0 279,0 285,0 291,-6 291,-12 291,-12 291,-24 291,-24 291,-30 285,-36 279,-36"/>
<text text-anchor="middle" x="145.5" y="-15.2" font-family="Helvetica,sans-Serif" font-size="11.00">MediaFocusControl.enterAudioFocusFreezeForTest</text>
</g>
<!-- m::com.android.server.audio.MediaFocusControl.enterAudioFocusFreezeForTest:(Landroid/os/IBinder;[I)Z&#45;&gt;__field__ -->
<g id="edge2" class="edge">
<title>m::com.android.server.audio.MediaFocusControl.enterAudioFocusFreezeForTest:(Landroid/os/IBinder;[I)Z&#45;&gt;__field__</title>
<path fill="none" stroke="#dc2626" d="M291.18,-28.35C330.04,-31.13 372,-34.13 410.68,-36.89"/>
<polygon fill="#dc2626" stroke="#dc2626" points="410.7,-39.7 418.88,-37.48 411.1,-34.12 410.7,-39.7"/>
<text text-anchor="middle" x="355" y="-37.8" font-family="Helvetica,sans-Serif" font-size="9.00" fill="#dc2626"> writes unguarded</text>
</g>
</g>
</svg>
