<?xml version="1.0" encoding="UTF-8" standalone="no"?>
<!DOCTYPE svg PUBLIC "-//W3C//DTD SVG 1.1//EN"
 "http://www.w3.org/Graphics/SVG/1.1/DTD/svg11.dtd">
<!-- Generated by graphviz version 2.43.0 (0)
 -->
<!-- Title: race Pages: 1 -->
<svg width="1245pt" height="102pt"
 viewBox="0.00 0.00 1245.00 102.00" xmlns="http://www.w3.org/2000/svg" xmlns:xlink="http://www.w3.org/1999/xlink">
<g id="graph0" class="graph" transform="scale(1 1) rotate(0) translate(4 98)">
<title>race</title>
<polygon fill="white" stroke="transparent" points="-4,4 -4,-98 1241,-98 1241,4 -4,4"/>
<!-- __field__ -->
<g id="node1" class="node">
<title>__field__</title>
<path fill="#fef9c3" stroke="#ca8a04" stroke-width="2" d="M1225,-65C1225,-65 666,-65 666,-65 660,-65 654,-59 654,-53 654,-53 654,-41 654,-41 654,-35 660,-29 666,-29 666,-29 1225,-29 1225,-29 1231,-29 1237,-35 1237,-41 1237,-41 1237,-53 1237,-53 1237,-59 1231,-65 1225,-65"/>
<text text-anchor="middle" x="945.5" y="-44.2" font-family="Helvetica,sans-Serif" font-size="11.00">InstallDependencyHelper$DependencyInstallerCallbackCallOnce.mDependencyInstallerCallbackInvoked</text>
</g>
<!-- __guard__ -->
<g id="node2" class="node">
<title>__guard__</title>
<path fill="#dcfce7" stroke="#16a34a" stroke-width="2" d="M445.5,-94C445.5,-94 80.5,-94 80.5,-94 74.5,-94 68.5,-88 68.5,-82 68.5,-82 68.5,-70 68.5,-70 68.5,-64 74.5,-58 80.5,-58 80.5,-58 445.5,-58 445.5,-58 451.5,-58 457.5,-64 457.5,-70 457.5,-70 457.5,-82 457.5,-82 457.5,-88 451.5,-94 445.5,-94"/>
<text text-anchor="middle" x="263" y="-73.2" font-family="Helvetica,sans-Serif" font-size="11.00">pm.InstallDependencyHelper$DependencyInstallerCallbackCallOnce</text>
</g>
<!-- __guard__&#45;&gt;__field__ -->
<g id="edge1" class="edge">
<title>__guard__&#45;&gt;__field__</title>
<path fill="none" stroke="#16a34a" stroke-width="1.6" d="M457.64,-67.75C516.23,-65.25 581.99,-62.45 645.77,-59.73"/>
<polygon fill="#16a34a" stroke="#16a34a" stroke-width="1.6" points="646.07,-62.52 653.94,-59.38 645.83,-56.93 646.07,-62.52"/>
<text text-anchor="middle" x="590" y="-65.8" font-family="Helvetica,sans-Serif" font-size="9.00" fill="#15803d"> guards 2/3</text>
</g>
<!-- m::com.android.server.pm.InstallDependencyHelper$DependencyInstallerCallbackCallOnce.onAllDependenciesResolved:([I)V -->
<g id="node3" class="node">
<title>m::com.android.server.pm.InstallDependencyHelper$DependencyInstallerCallbackCallOnce.onAllDependenciesResolved:([I)V</title>
<path fill="#fee2e2" stroke="#dc2626" d="M514,-36C514,-36 12,-36 12,-36 6,-36 0,-30 0,-24 0,-24 0,-12 0,-12 0,-6 6,0 12,0 12,0 514,0 514,0 520,0 526,-6 526,-12 526,-12 526,-24 526,-24 526,-30 520,-36 514,-36"/>
<text text-anchor="middle" x="263" y="-15.2" font-family="Helvetica,sans-Serif" font-size="11.00">InstallDependencyHelper$DependencyInstallerCallbackCallOnce.onAllDependenciesResolved</text>
</g>
<!-- m::com.android.server.pm.InstallDependencyHelper$DependencyInstallerCallbackCallOnce.onAllDependenciesResolved:([I)V&#45;&gt;__field__ -->
<g id="edge2" class="edge">
<title>m::com.android.server.pm.InstallDependencyHelper$DependencyInstallerCallbackCallOnce.onAllDependenciesResolved:([I)V&#45;&gt;__field__</title>
<path fill="none" stroke="#dc2626" d="M526.13,-29.17C565.19,-30.84 605.7,-32.56 645.46,-34.26"/>
<polygon fill="#dc2626" stroke="#dc2626" points="645.81,-37.07 653.93,-34.62 646.05,-31.48 645.81,-37.07"/>
<text text-anchor="middle" x="590" y="-35.8" font-family="Helvetica,sans-Serif" font-size="9.00" fill="#dc2626"> writes unguarded</text>
</g>
</g>
</svg>
