<?xml version="1.0" encoding="UTF-8" standalone="no"?>
<!DOCTYPE svg PUBLIC "-//W3C//DTD SVG 1.1//EN"
 "http://www.w3.org/Graphics/SVG/1.1/DTD/svg11.dtd">
<!-- Generated by graphviz version 2.43.0 (0)
 -->
<!-- Title: race Pages: 1 -->
<svg width="842pt" height="218pt"
 viewBox="0.00 0.00 842.00 218.00" xmlns="http://www.w3.org/2000/svg" xmlns:xlink="http://www.w3.org/1999/xlink">
<g id="graph0" class="graph" transform="scale(1 1) rotate(0) translate(4 214)">
<title>race</title>
<polygon fill="white" stroke="transparent" points="-4,4 -4,-214 838,-214 838,4 -4,4"/>
<!-- __field__ -->
<g id="node1" class="node">
<title>__field__</title>
<path fill="#fef9c3" stroke="#ca8a04" stroke-width="2" d="M822,-131C822,-131 562,-131 562,-131 556,-131 550,-125 550,-119 550,-119 550,-107 550,-107 550,-101 556,-95 562,-95 562,-95 822,-95 822,-95 828,-95 834,-101 834,-107 834,-107 834,-119 834,-119 834,-125 828,-131 822,-131"/>
<text text-anchor="middle" x="692" y="-110.2" font-family="Helvetica,sans-Serif" font-size="11.00">DisplayManagerService.mUserDisabledHdrTypes</text>
</g>
<!-- __guard__ -->
<g id="node2" class="node">
<title>__guard__</title>
<path fill="#dcfce7" stroke="#16a34a" stroke-width="2" d="M305,-210C305,-210 117,-210 117,-210 111,-210 105,-204 105,-198 105,-198 105,-186 105,-186 105,-180 111,-174 117,-174 117,-174 305,-174 305,-174 311,-174 317,-180 317,-186 317,-186 317,-198 317,-198 317,-204 311,-210 305,-210"/>
<text text-anchor="middle" x="211" y="-189.2" font-family="Helvetica,sans-Serif" font-size="11.00">DisplayManagerService.mSyncRoot</text>
</g>
<!-- __guard__&#45;&gt;__field__ -->
<g id="edge1" class="edge">
<title>__guard__&#45;&gt;__field__</title>
<path fill="none" stroke="#16a34a" stroke-width="1.6" d="M317.09,-178.46C350.66,-173.88 387.94,-168.51 422,-163 478.42,-153.87 541.22,-142.27 591.95,-132.55"/>
<polygon fill="#16a34a" stroke="#16a34a" stroke-width="1.6" points="592.65,-135.27 599.98,-131.01 591.6,-129.77 592.65,-135.27"/>
<text text-anchor="middle" x="486" y="-160.8" font-family="Helvetica,sans-Serif" font-size="9.00" fill="#15803d"> guards 2/3</text>
</g>
<!-- m::com.android.server.display.DisplayManagerService.updateUserDisabledHdrTypesFromSettingsLocked:()V -->
<g id="node3" class="node">
<title>m::com.android.server.display.DisplayManagerService.updateUserDisabledHdrTypesFromSettingsLocked:()V</title>
<path fill="#fee2e2" stroke="#dc2626" d="M410,-152C410,-152 12,-152 12,-152 6,-152 0,-146 0,-140 0,-140 0,-128 0,-128 0,-122 6,-116 12,-116 12,-116 410,-116 410,-116 416,-116 422,-122 422,-128 422,-128 422,-140 422,-140 422,-146 416,-152 410,-152"/>
<text text-anchor="middle" x="211" y="-131.2" font-family="Helvetica,sans-Serif" font-size="11.00">DisplayManagerService.updateUserDisabledHdrTypesFromSettingsLocked</text>
</g>
<!-- m::com.android.server.display.DisplayManagerService.updateUserDisabledHdrTypesFromSettingsLocked:()V&#45;&gt;__field__ -->
<g id="edge2" class="edge">
<title>m::com.android.server.display.DisplayManagerService.updateUserDisabledHdrTypesFromSettingsLocked:()V&#45;&gt;__field__</title>
<path fill="none" stroke="#dc2626" d="M422.39,-128.39C457.66,-127.15 493.87,-125.69 528,-124 532.43,-123.78 536.92,-123.55 541.45,-123.3"/>
<polygon fill="#dc2626" stroke="#dc2626" points="541.83,-126.09 549.66,-122.85 541.52,-120.49 541.83,-126.09"/>
<text text-anchor="middle" x="486" y="-129.8" font-family="Helvetica,sans-Serif" font-size="9.00" fill="#dc2626"> writes unguarded</text>
</g>
<!-- m::com.android.server.display.DisplayManagerService.updateUserDisabledHdrTypesFromSettingsLocked:()V&#45;&gt;__field__ -->
<g id="edge5" class="edge">
<title>m::com.android.server.display.DisplayManagerService.updateUserDisabledHdrTypesFromSettingsLocked:()V&#45;&gt;__field__</title>
<path fill="none" stroke="#dc2626" d="M393.63,-115.98C410.65,-114.77 427.64,-113.74 444,-113 475.59,-111.57 509.48,-110.97 541.72,-110.83"/>
<polygon fill="#dc2626" stroke="#dc2626" points="541.89,-113.63 549.88,-110.81 541.87,-108.03 541.89,-113.63"/>
<text text-anchor="middle" x="486" y="-115.8" font-family="Helvetica,sans-Serif" font-size="9.00" fill="#dc2626"> reads unguarded</text>
</g>
<!-- m::com.android.server.display.DisplayManagerService.getEnabledHdrOutputTypesLocked:()[I -->
<g id="node4" class="node">
<title>m::com.android.server.display.DisplayManagerService.getEnabledHdrOutputTypesLocked:()[I</title>
<path fill="#fee2e2" stroke="#dc2626" d="M368,-94C368,-94 54,-94 54,-94 48,-94 42,-88 42,-82 42,-82 42,-70 42,-70 42,-64 48,-58 54,-58 54,-58 368,-58 368,-58 374,-58 380,-64 380,-70 380,-70 380,-82 380,-82 380,-88 374,-94 368,-94"/>
<text text-anchor="middle" x="211" y="-73.2" font-family="Helvetica,sans-Serif" font-size="11.00">DisplayManagerService.getEnabledHdrOutputTypesLocked</text>
</g>
<!-- m::com.android.server.display.DisplayManagerService.getEnabledHdrOutputTypesLocked:()[I&#45;&gt;__field__ -->
<g id="edge3" class="edge">
<title>m::com.android.server.display.DisplayManagerService.getEnabledHdrOutputTypesLocked:()[I&#45;&gt;__field__</title>
<path fill="none" stroke="#dc2626" d="M380.21,-84.55C428.01,-87.4 480.08,-90.92 528,-95 532.43,-95.38 536.93,-95.78 541.47,-96.19"/>
<polygon fill="#dc2626" stroke="#dc2626" points="541.46,-99 549.68,-96.96 541.98,-93.43 541.46,-99"/>
<text text-anchor="middle" x="486" y="-97.8" font-family="Helvetica,sans-Serif" font-size="9.00" fill="#dc2626"> reads unguarded</text>
</g>
<!-- m::com.android.server.display.DisplayManagerService.setupLogicalDisplay:(Lcom/android/server/display/LogicalDisplay;)V -->
<g id="node5" class="node">
<title>m::com.android.server.display.DisplayManagerService.setupLogicalDisplay:(Lcom/android/server/display/LogicalDisplay;)V</title>
<path fill="#fee2e2" stroke="#dc2626" d="M328.5,-36C328.5,-36 93.5,-36 93.5,-36 87.5,-36 81.5,-30 81.5,-24 81.5,-24 81.5,-12 81.5,-12 81.5,-6 87.5,0 93.5,0 93.5,0 328.5,0 328.5,0 334.5,0 340.5,-6 340.5,-12 340.5,-12 340.5,-24 340.5,-24 340.5,-30 334.5,-36 328.5,-36"/>
<text text-anchor="middle" x="211" y="-15.2" font-family="Helvetica,sans-Serif" font-size="11.00">DisplayManagerService.setupLogicalDisplay</text>
</g>
<!-- m::com.android.server.display.DisplayManagerService.setupLogicalDisplay:(Lcom/android/server/display/LogicalDisplay;)V&#45;&gt;__field__ -->
<g id="edge4" class="edge">
<title>m::com.android.server.display.DisplayManagerService.setupLogicalDisplay:(Lcom/android/server/display/LogicalDisplay;)V&#45;&gt;__field__</title>
<path fill="none" stroke="#dc2626" d="M340.61,-33.62C367.58,-37.49 395.79,-41.99 422,-47 488.85,-59.78 564.01,-78.6 617.85,-92.88"/>
<polygon fill="#dc2626" stroke="#dc2626" points="617.19,-95.6 625.64,-94.95 618.63,-90.19 617.19,-95.6"/>
<text text-anchor="middle" x="486" y="-71.8" font-family="Helvetica,sans-Serif" font-size="9.00" fill="#dc2626"> reads unguarded</text>
</g>
</g>
</svg>
