<?xml version="1.0" encoding="UTF-8" standalone="no"?>
<!DOCTYPE svg PUBLIC "-//W3C//DTD SVG 1.1//EN"
 "http://www.w3.org/Graphics/SVG/1.1/DTD/svg11.dtd">
<!-- Generated by graphviz version 2.43.0 (0)
 -->
<!-- Title: race Pages: 1 -->
<svg width="788pt" height="102pt"
 viewBox="0.00 0.00 788.00 102.00" xmlns="http://www.w3.org/2000/svg" xmlns:xlink="http://www.w3.org/1999/xlink">
<g id="graph0" class="graph" transform="scale(1 1) rotate(0) translate(4 98)">
<title>race</title>
<polygon fill="white" stroke="transparent" points="-4,4 -4,-98 784,-98 784,4 -4,4"/>
<!-- __field__ -->
<g id="node1" class="node">
<title>__field__</title>
<path fill="#fef9c3" stroke="#ca8a04" stroke-width="2" d="M768,-65C768,-65 478,-65 478,-65 472,-65 466,-59 466,-53 466,-53 466,-41 466,-41 466,-35 472,-29 478,-29 478,-29 768,-29 768,-29 774,-29 780,-35 780,-41 780,-41 780,-53 780,-53 780,-59 774,-65 768,-65"/>
<text text-anchor="middle" x="623" y="-44.2" font-family="Helvetica,sans-Serif" font-size="11.00">BackupAgentConnectionManager.mCurrentConnection</text>
</g>
<!-- __guard__ -->
<g id="node2" class="node">
<title>__guard__</title>
<path fill="#dcfce7" stroke="#16a34a" stroke-width="2" d="M314,-94C314,-94 24,-94 24,-94 18,-94 12,-88 12,-82 12,-82 12,-70 12,-70 12,-64 18,-58 24,-58 24,-58 314,-58 314,-58 320,-58 326,-64 326,-70 326,-70 326,-82 326,-82 326,-88 320,-94 314,-94"/>
<text text-anchor="middle" x="169" y="-73.2" font-family="Helvetica,sans-Serif" font-size="11.00">BackupAgentConnectionManager.mAgentConnectLock</text>
</g>
<!-- __guard__&#45;&gt;__field__ -->
<g id="edge1" class="edge">
<title>__guard__&#45;&gt;__field__</title>
<path fill="none" stroke="#16a34a" stroke-width="1.6" d="M326.19,-65.98C368.62,-63.26 414.69,-60.3 457.56,-57.55"/>
<polygon fill="#16a34a" stroke="#16a34a" stroke-width="1.6" points="458,-60.33 465.81,-57.02 457.65,-54.74 458,-60.33"/>
<text text-anchor="middle" x="402" y="-65.8" font-family="Helvetica,sans-Serif" font-size="9.00" fill="#15803d"> guards 5/6</text>
</g>
<!-- m::com.android.server.backup.BackupAgentConnectionManager.bindToAgentSynchronous:(Landroid/content/pm/ApplicationInfo;II)Landroid/app/IBackupAgent; -->
<g id="node3" class="node">
<title>m::com.android.server.backup.BackupAgentConnectionManager.bindToAgentSynchronous:(Landroid/content/pm/ApplicationInfo;II)Landroid/app/IBackupAgent;</title>
<path fill="#fee2e2" stroke="#dc2626" d="M326,-36C326,-36 12,-36 12,-36 6,-36 0,-30 0,-24 0,-24 0,-12 0,-12 0,-6 6,0 12,0 12,0 326,0 326,0 332,0 338,-6 338,-12 338,-12 338,-24 338,-24 338,-30 332,-36 326,-36"/>
<text text-anchor="middle" x="169" y="-15.2" font-family="Helvetica,sans-Serif" font-size="11.00">BackupAgentConnectionManager.bindToAgentSynchronous</text>
</g>
<!-- m::com.android.server.backup.BackupAgentConnectionManager.bindToAgentSynchronous:(Landroid/content/pm/ApplicationInfo;II)Landroid/app/IBackupAgent;&#45;&gt;__field__ -->
<g id="edge2" class="edge">
<title>m::com.android.server.backup.BackupAgentConnectionManager.bindToAgentSynchronous:(Landroid/content/pm/ApplicationInfo;II)Landroid/app/IBackupAgent;&#45;&gt;__field__</title>
<path fill="none" stroke="#dc2626" d="M338.31,-28.8C377.32,-31.3 418.8,-33.96 457.64,-36.45"/>
<polygon fill="#dc2626" stroke="#dc2626" points="457.73,-39.27 465.89,-36.98 458.08,-33.68 457.73,-39.27"/>
<text text-anchor="middle" x="402" y="-37.8" font-family="Helvetica,sans-Serif" font-size="9.00" fill="#dc2626"> writes unguarded</text>
</g>
</g>
</svg>
