<?xml version="1.0" encoding="UTF-8" standalone="no"?>
<!DOCTYPE svg PUBLIC "-//W3C//DTD SVG 1.1//EN"
 "http://www.w3.org/Graphics/SVG/1.1/DTD/svg11.dtd">
<!-- Generated by graphviz version 2.43.0 (0)
 -->
<!-- Title: race Pages: 1 -->
<svg width="633pt" height="242pt"
 viewBox="0.00 0.00 633.00 242.00" xmlns="http://www.w3.org/2000/svg" xmlns:xlink="http://www.w3.org/1999/xlink">
<g id="graph0" class="graph" transform="scale(1 1) rotate(0) translate(4 238)">
<title>race</title>
<polygon fill="white" stroke="transparent" points="-4,4 -4,-238 629,-238 629,4 -4,4"/>
<!-- __field__ -->
<g id="node1" class="node">
<title>__field__</title>
<path fill="#fef9c3" stroke="#ca8a04" stroke-width="2" d="M613,-120C613,-120 425,-120 425,-120 419,-120 413,-114 413,-108 413,-108 413,-96 413,-96 413,-90 419,-84 425,-84 425,-84 613,-84 613,-84 619,-84 625,-90 625,-96 625,-96 625,-108 625,-108 625,-114 619,-120 613,-120"/>
<text text-anchor="middle" x="519" y="-99.2" font-family="Helvetica,sans-Serif" font-size="11.00">OwnersData.mSystemUpdatePolicy</text>
</g>
<!-- __guard__ -->
<g id="node2" class="node">
<title>__guard__</title>
<path fill="#dcfce7" stroke="#16a34a" stroke-width="2" d="M180,-234C180,-234 105,-234 105,-234 99,-234 93,-228 93,-222 93,-222 93,-210 93,-210 93,-204 99,-198 105,-198 105,-198 180,-198 180,-198 186,-198 192,-204 192,-210 192,-210 192,-222 192,-222 192,-228 186,-234 180,-234"/>
<text text-anchor="middle" x="142.5" y="-213.2" font-family="Helvetica,sans-Serif" font-size="11.00">Owners.mData</text>
</g>
<!-- __guard__&#45;&gt;__field__ -->
<g id="edge1" class="edge">
<title>__guard__&#45;&gt;__field__</title>
<path fill="none" stroke="#16a34a" stroke-width="1.6" d="M192.06,-207.88C219.57,-202.83 254.48,-195.64 285,-187 348.77,-168.94 420.1,-141.87 466.83,-123.15"/>
<polygon fill="#16a34a" stroke="#16a34a" stroke-width="1.6" points="468.02,-125.69 474.4,-120.1 465.93,-120.49 468.02,-125.69"/>
<text text-anchor="middle" x="349" y="-181.8" font-family="Helvetica,sans-Serif" font-size="9.00" fill="#15803d"> guards 2/3</text>
</g>
<!-- m::com.android.server.devicepolicy.OwnersData$DeviceOwnerReadWriter.readInner:(Lcom/android/modules/utils/TypedXmlPullParser;ILjava/lang/String;)Z -->
<g id="node3" class="node">
<title>m::com.android.server.devicepolicy.OwnersData$DeviceOwnerReadWriter.readInner:(Lcom/android/modules/utils/TypedXmlPullParser;ILjava/lang/String;)Z</title>
<path fill="#fee2e2" stroke="#dc2626" d="M271.5,-176C271.5,-176 13.5,-176 13.5,-176 7.5,-176 1.5,-170 1.5,-164 1.5,-164 1.5,-152 1.5,-152 1.5,-146 7.5,-140 13.5,-140 13.5,-140 271.5,-140 271.5,-140 277.5,-140 283.5,-146 283.5,-152 283.5,-152 283.5,-164 283.5,-164 283.5,-170 277.5,-176 271.5,-176"/>
<text text-anchor="middle" x="142.5" y="-155.2" font-family="Helvetica,sans-Serif" font-size="11.00">OwnersData$DeviceOwnerReadWriter.readInner</text>
</g>
<!-- m::com.android.server.devicepolicy.OwnersData$DeviceOwnerReadWriter.readInner:(Lcom/android/modules/utils/TypedXmlPullParser;ILjava/lang/String;)Z&#45;&gt;__field__ -->
<g id="edge2" class="edge">
<title>m::com.android.server.devicepolicy.OwnersData$DeviceOwnerReadWriter.readInner:(Lcom/android/modules/utils/TypedXmlPullParser;ILjava/lang/String;)Z&#45;&gt;__field__</title>
<path fill="none" stroke="#dc2626" d="M264.06,-139.97C309.24,-133.22 360.38,-125.57 404.87,-118.92"/>
<polygon fill="#dc2626" stroke="#dc2626" points="405.31,-121.68 412.81,-117.73 404.48,-116.14 405.31,-121.68"/>
<text text-anchor="middle" x="349" y="-135.8" font-family="Helvetica,sans-Serif" font-size="9.00" fill="#dc2626"> writes unguarded</text>
</g>
<!-- m::com.android.server.devicepolicy.OwnersData$DeviceOwnerReadWriter.writeInner:(Lcom/android/modules/utils/TypedXmlSerializer;)V -->
<g id="node4" class="node">
<title>m::com.android.server.devicepolicy.OwnersData$DeviceOwnerReadWriter.writeInner:(Lcom/android/modules/utils/TypedXmlSerializer;)V</title>
<path fill="#fee2e2" stroke="#dc2626" d="M273,-110C273,-110 12,-110 12,-110 6,-110 0,-104 0,-98 0,-98 0,-86 0,-86 0,-80 6,-74 12,-74 12,-74 273,-74 273,-74 279,-74 285,-80 285,-86 285,-86 285,-98 285,-98 285,-104 279,-110 273,-110"/>
<text text-anchor="middle" x="142.5" y="-89.2" font-family="Helvetica,sans-Serif" font-size="11.00">OwnersData$DeviceOwnerReadWriter.writeInner</text>
</g>
<!-- m::com.android.server.devicepolicy.OwnersData$DeviceOwnerReadWriter.writeInner:(Lcom/android/modules/utils/TypedXmlSerializer;)V&#45;&gt;__field__ -->
<g id="edge3" class="edge">
<title>m::com.android.server.devicepolicy.OwnersData$DeviceOwnerReadWriter.writeInner:(Lcom/android/modules/utils/TypedXmlSerializer;)V&#45;&gt;__field__</title>
<path fill="none" stroke="#dc2626" d="M285.08,-95.78C324.56,-96.83 366.92,-97.97 404.55,-98.97"/>
<polygon fill="#dc2626" stroke="#dc2626" points="404.93,-101.78 413,-99.2 405.08,-96.18 404.93,-101.78"/>
<text text-anchor="middle" x="349" y="-100.8" font-family="Helvetica,sans-Serif" font-size="9.00" fill="#dc2626"> reads unguarded</text>
</g>
<!-- m::com.android.server.devicepolicy.OwnersData$DeviceOwnerReadWriter.writeInner:(Lcom/android/modules/utils/TypedXmlSerializer;)V&#45;&gt;__field__ -->
<g id="edge4" class="edge">
<title>m::com.android.server.devicepolicy.OwnersData$DeviceOwnerReadWriter.writeInner:(Lcom/android/modules/utils/TypedXmlSerializer;)V&#45;&gt;__field__</title>
<path fill="none" stroke="#dc2626" d="M285.27,-82.42C319.89,-81.46 356.8,-81.59 391,-84 395.44,-84.31 399.97,-84.69 404.53,-85.11"/>
<polygon fill="#dc2626" stroke="#dc2626" points="404.55,-87.93 412.78,-85.92 405.1,-82.35 404.55,-87.93"/>
<text text-anchor="middle" x="349" y="-86.8" font-family="Helvetica,sans-Serif" font-size="9.00" fill="#dc2626"> reads unguarded</text>
</g>
<!-- m::com.android.server.devicepolicy.OwnersData.dump:(Landroid/util/IndentingPrintWriter;)V -->
<g id="node5" class="node">
<title>m::com.android.server.devicepolicy.OwnersData.dump:(Landroid/util/IndentingPrintWriter;)V</title>
<path fill="#fee2e2" stroke="#dc2626" d="M190,-36C190,-36 95,-36 95,-36 89,-36 83,-30 83,-24 83,-24 83,-12 83,-12 83,-6 89,0 95,0 95,0 190,0 190,0 196,0 202,-6 202,-12 202,-12 202,-24 202,-24 202,-30 196,-36 190,-36"/>
<text text-anchor="middle" x="142.5" y="-15.2" font-family="Helvetica,sans-Serif" font-size="11.00">OwnersData.dump</text>
</g>
<!-- m::com.android.server.devicepolicy.OwnersData.dump:(Landroid/util/IndentingPrintWriter;)V&#45;&gt;__field__ -->
<g id="edge5" class="edge">
<title>m::com.android.server.devicepolicy.OwnersData.dump:(Landroid/util/IndentingPrintWriter;)V&#45;&gt;__field__</title>
<path fill="none" stroke="#dc2626" d="M202.06,-27.91C252.4,-36.78 326.81,-50.71 391,-66 410.4,-70.62 431.28,-76.26 450.4,-81.69"/>
<polygon fill="#dc2626" stroke="#dc2626" points="449.73,-84.41 458.19,-83.92 451.27,-79.03 449.73,-84.41"/>
<text text-anchor="middle" x="349" y="-68.8" font-family="Helvetica,sans-Serif" font-size="9.00" fill="#dc2626"> reads unguarded</text>
</g>
<!-- m::com.android.server.devicepolicy.OwnersData.dump:(Landroid/util/IndentingPrintWriter;)V&#45;&gt;__field__ -->
<g id="edge6" class="edge">
<title>m::com.android.server.devicepolicy.OwnersData.dump:(Landroid/util/IndentingPrintWriter;)V&#45;&gt;__field__</title>
<path fill="none" stroke="#dc2626" d="M202.21,-14.48C253.14,-13.08 328.31,-15.03 391,-33 425.47,-42.88 461.03,-63.23 485.72,-79.28"/>
<polygon fill="#dc2626" stroke="#dc2626" points="484.48,-81.82 492.7,-83.89 487.57,-77.15 484.48,-81.82"/>
<text text-anchor="middle" x="349" y="-35.8" font-family="Helvetica,sans-Serif" font-size="9.00" fill="#dc2626"> reads unguarded</text>
</g>
</g>
</svg>
