<?xml version="1.0" encoding="UTF-8" standalone="no"?>
<!DOCTYPE svg PUBLIC "-//W3C//DTD SVG 1.1//EN"
 "http://www.w3.org/Graphics/SVG/1.1/DTD/svg11.dtd">
<!-- Generated by graphviz version 2.43.0 (0)
 -->
<!-- Title: race Pages: 1 -->
<svg width="601pt" height="218pt"
 viewBox="0.00 0.00 601.00 218.00" xmlns="http://www.w3.org/2000/svg" xmlns:xlink="http://www.w3.org/1999/xlink">
<g id="graph0" class="graph" transform="scale(1 1) rotate(0) translate(4 214)">
<title>race</title>
<polygon fill="white" stroke="transparent" points="-4,4 -4,-214 597,-214 597,4 -4,4"/>
<!-- __field__ -->
<g id="node1" class="node">
<title>__field__</title>
<path fill="#fef9c3" stroke="#ca8a04" stroke-width="2" d="M581,-123C581,-123 373,-123 373,-123 367,-123 361,-117 361,-111 361,-111 361,-99 361,-99 361,-93 367,-87 373,-87 373,-87 581,-87 581,-87 587,-87 593,-93 593,-99 593,-99 593,-111 593,-111 593,-117 587,-123 581,-123"/>
<text text-anchor="middle" x="477" y="-102.2" font-family="Helvetica,sans-Serif" font-size="11.00">ProcessStats.mTimePeriodEndRealtime</text>
</g>
<!-- __guard__ -->
<g id="node2" class="node">
<title>__guard__</title>
<path fill="#dcfce7" stroke="#16a34a" stroke-width="2" d="M188,-210C188,-210 45,-210 45,-210 39,-210 33,-204 33,-198 33,-198 33,-186 33,-186 33,-180 39,-174 45,-174 45,-174 188,-174 188,-174 194,-174 200,-180 200,-186 200,-186 200,-198 200,-198 200,-204 194,-210 188,-210"/>
<text text-anchor="middle" x="116.5" y="-189.2" font-family="Helvetica,sans-Serif" font-size="11.00">ProcessStatsService.mLock</text>
</g>
<!-- __guard__&#45;&gt;__field__ -->
<g id="edge1" class="edge">
<title>__guard__&#45;&gt;__field__</title>
<path fill="none" stroke="#16a34a" stroke-width="1.6" d="M191.78,-173.97C250.67,-159.68 332.88,-139.73 393.75,-124.96"/>
<polygon fill="#16a34a" stroke="#16a34a" stroke-width="1.6" points="394.7,-127.61 401.81,-123 393.38,-122.17 394.7,-127.61"/>
<text text-anchor="middle" x="297" y="-158.8" font-family="Helvetica,sans-Serif" font-size="9.00" fill="#15803d"> guards 3/4</text>
</g>
<!-- m::com.android.server.am.ProcessStatsService.writeStateLocked:(ZZ)V -->
<g id="node3" class="node">
<title>m::com.android.server.am.ProcessStatsService.writeStateLocked:(ZZ)V</title>
<path fill="#fee2e2" stroke="#dc2626" d="M218,-152C218,-152 15,-152 15,-152 9,-152 3,-146 3,-140 3,-140 3,-128 3,-128 3,-122 9,-116 15,-116 15,-116 218,-116 218,-116 224,-116 230,-122 230,-128 230,-128 230,-140 230,-140 230,-146 224,-152 218,-152"/>
<text text-anchor="middle" x="116.5" y="-131.2" font-family="Helvetica,sans-Serif" font-size="11.00">ProcessStatsService.writeStateLocked</text>
</g>
<!-- m::com.android.server.am.ProcessStatsService.writeStateLocked:(ZZ)V&#45;&gt;__field__ -->
<g id="edge2" class="edge">
<title>m::com.android.server.am.ProcessStatsService.writeStateLocked:(ZZ)V&#45;&gt;__field__</title>
<path fill="none" stroke="#dc2626" d="M230.44,-124.86C269.24,-121.73 312.87,-118.2 352.47,-114.99"/>
<polygon fill="#dc2626" stroke="#dc2626" points="353.1,-117.75 360.85,-114.31 352.65,-112.17 353.1,-117.75"/>
<text text-anchor="middle" x="297" y="-124.8" font-family="Helvetica,sans-Serif" font-size="9.00" fill="#dc2626"> writes unguarded</text>
</g>
<!-- m::com.android.server.am.ProcessStatsService$3.run:()V -->
<g id="node4" class="node">
<title>m::com.android.server.am.ProcessStatsService$3.run:()V</title>
<path fill="#fee2e2" stroke="#dc2626" d="M186.5,-94C186.5,-94 46.5,-94 46.5,-94 40.5,-94 34.5,-88 34.5,-82 34.5,-82 34.5,-70 34.5,-70 34.5,-64 40.5,-58 46.5,-58 46.5,-58 186.5,-58 186.5,-58 192.5,-58 198.5,-64 198.5,-70 198.5,-70 198.5,-82 198.5,-82 198.5,-88 192.5,-94 186.5,-94"/>
<text text-anchor="middle" x="116.5" y="-73.2" font-family="Helvetica,sans-Serif" font-size="11.00">ProcessStatsService$3.run</text>
</g>
<!-- m::com.android.server.am.ProcessStatsService$3.run:()V&#45;&gt;__field__ -->
<g id="edge3" class="edge">
<title>m::com.android.server.am.ProcessStatsService$3.run:()V&#45;&gt;__field__</title>
<path fill="none" stroke="#dc2626" d="M198.85,-82.58C244.34,-86.26 301.97,-90.92 352.89,-95.04"/>
<polygon fill="#dc2626" stroke="#dc2626" points="352.8,-97.84 361,-95.7 353.25,-92.26 352.8,-97.84"/>
<text text-anchor="middle" x="297" y="-95.8" font-family="Helvetica,sans-Serif" font-size="9.00" fill="#dc2626"> reads unguarded</text>
</g>
<!-- m::com.android.server.am.ProcessStatsService.getStatsOverTime:(J)Landroid/os/ParcelFileDescriptor; -->
<g id="node5" class="node">
<title>m::com.android.server.am.ProcessStatsService.getStatsOverTime:(J)Landroid/os/ParcelFileDescriptor;</title>
<path fill="#fee2e2" stroke="#dc2626" d="M221,-36C221,-36 12,-36 12,-36 6,-36 0,-30 0,-24 0,-24 0,-12 0,-12 0,-6 6,0 12,0 12,0 221,0 221,0 227,0 233,-6 233,-12 233,-12 233,-24 233,-24 233,-30 227,-36 221,-36"/>
<text text-anchor="middle" x="116.5" y="-15.2" font-family="Helvetica,sans-Serif" font-size="11.00">ProcessStatsService.getStatsOverTime</text>
</g>
<!-- m::com.android.server.am.ProcessStatsService.getStatsOverTime:(J)Landroid/os/ParcelFileDescriptor;&#45;&gt;__field__ -->
<g id="edge4" class="edge">
<title>m::com.android.server.am.ProcessStatsService.getStatsOverTime:(J)Landroid/os/ParcelFileDescriptor;&#45;&gt;__field__</title>
<path fill="none" stroke="#dc2626" d="M191.78,-36.03C250.67,-50.32 332.88,-70.27 393.75,-85.04"/>
<polygon fill="#dc2626" stroke="#dc2626" points="393.38,-87.83 401.81,-87 394.7,-82.39 393.38,-87.83"/>
<text text-anchor="middle" x="297" y="-71.8" font-family="Helvetica,sans-Serif" font-size="9.00" fill="#dc2626"> reads unguarded</text>
</g>
</g>
</svg>
