<?xml version="1.0" encoding="UTF-8" standalone="no"?>
<!DOCTYPE svg PUBLIC "-//W3C//DTD SVG 1.1//EN"
 "http://www.w3.org/Graphics/SVG/1.1/DTD/svg11.dtd">
<!-- Generated by graphviz version 2.43.0 (0)
 -->
<!-- Title: race Pages: 1 -->
<svg width="667pt" height="276pt"
 viewBox="0.00 0.00 667.00 276.00" xmlns="http://www.w3.org/2000/svg" xmlns:xlink="http://www.w3.org/1999/xlink">
<g id="graph0" class="graph" transform="scale(1 1) rotate(0) translate(4 272)">
<title>race</title>
<polygon fill="white" stroke="transparent" points="-4,4 -4,-272 663,-272 663,4 -4,4"/>
<!-- __field__ -->
<g id="node1" class="node">
<title>__field__</title>
<path fill="#fef9c3" stroke="#ca8a04" stroke-width="2" d="M647,-152C647,-152 460,-152 460,-152 454,-152 448,-146 448,-140 448,-140 448,-128 448,-128 448,-122 454,-116 460,-116 460,-116 647,-116 647,-116 653,-116 659,-122 659,-128 659,-128 659,-140 659,-140 659,-146 653,-152 647,-152"/>
<text text-anchor="middle" x="553.5" y="-131.2" font-family="Helvetica,sans-Serif" font-size="11.00">ContentProviderConnection.waiting</text>
</g>
<!-- __guard__ -->
<g id="node2" class="node">
<title>__guard__</title>
<path fill="#dcfce7" stroke="#16a34a" stroke-width="2" d="M246,-268C246,-268 74,-268 74,-268 68,-268 62,-262 62,-256 62,-256 62,-244 62,-244 62,-238 68,-232 74,-232 74,-232 246,-232 246,-232 252,-232 258,-238 258,-244 258,-244 258,-256 258,-256 258,-262 252,-268 246,-268"/>
<text text-anchor="middle" x="160" y="-247.2" font-family="Helvetica,sans-Serif" font-size="11.00">ContentProviderHelper.mService</text>
</g>
<!-- __guard__&#45;&gt;__field__ -->
<g id="edge1" class="edge">
<title>__guard__&#45;&gt;__field__</title>
<path fill="none" stroke="#16a34a" stroke-width="1.6" d="M258.32,-235.08C278.84,-231.15 300.25,-226.45 320,-221 384.74,-203.14 456.81,-174.79 503.3,-155.33"/>
<polygon fill="#16a34a" stroke="#16a34a" stroke-width="1.6" points="504.53,-157.85 510.82,-152.17 502.36,-152.69 504.53,-157.85"/>
<text text-anchor="middle" x="384" y="-215.8" font-family="Helvetica,sans-Serif" font-size="9.00" fill="#15803d"> guards 5/7</text>
</g>
<!-- m::com.android.server.am.ContentProviderHelper.getContentProviderImpl:(Landroid/app/IApplicationThread;Ljava/lang/String;Landroid/os/IBinder;ILjava/lang/String;Ljava/lang/String;ZI)Landroid/app/ContentProviderHolder; -->
<g id="node3" class="node">
<title>m::com.android.server.am.ContentProviderHelper.getContentProviderImpl:(Landroid/app/IApplicationThread;Ljava/lang/String;Landroid/os/IBinder;ILjava/lang/String;Ljava/lang/String;ZI)Landroid/app/ContentProviderHolder;</title>
<path fill="#fee2e2" stroke="#dc2626" d="M285.5,-210C285.5,-210 34.5,-210 34.5,-210 28.5,-210 22.5,-204 22.5,-198 22.5,-198 22.5,-186 22.5,-186 22.5,-180 28.5,-174 34.5,-174 34.5,-174 285.5,-174 285.5,-174 291.5,-174 297.5,-180 297.5,-186 297.5,-186 297.5,-198 297.5,-198 297.5,-204 291.5,-210 285.5,-210"/>
<text text-anchor="middle" x="160" y="-189.2" font-family="Helvetica,sans-Serif" font-size="11.00">ContentProviderHelper.getContentProviderImpl</text>
</g>
<!-- m::com.android.server.am.ContentProviderHelper.getContentProviderImpl:(Landroid/app/IApplicationThread;Ljava/lang/String;Landroid/os/IBinder;ILjava/lang/String;Ljava/lang/String;ZI)Landroid/app/ContentProviderHolder;&#45;&gt;__field__ -->
<g id="edge2" class="edge">
<title>m::com.android.server.am.ContentProviderHelper.getContentProviderImpl:(Landroid/app/IApplicationThread;Ljava/lang/String;Landroid/os/IBinder;ILjava/lang/String;Ljava/lang/String;ZI)Landroid/app/ContentProviderHolder;&#45;&gt;__field__</title>
<path fill="none" stroke="#dc2626" d="M282.73,-173.97C332.8,-166.55 390.45,-158.01 439.57,-150.73"/>
<polygon fill="#dc2626" stroke="#dc2626" points="440.19,-153.47 447.7,-149.53 439.37,-147.93 440.19,-153.47"/>
<text text-anchor="middle" x="384" y="-166.8" font-family="Helvetica,sans-Serif" font-size="9.00" fill="#dc2626"> writes unguarded</text>
</g>
<!-- m::com.android.server.am.ContentProviderRecord.onProviderPublishStatusLocked:(Z)V -->
<g id="node4" class="node">
<title>m::com.android.server.am.ContentProviderRecord.onProviderPublishStatusLocked:(Z)V</title>
<path fill="#fee2e2" stroke="#dc2626" d="M308,-152C308,-152 12,-152 12,-152 6,-152 0,-146 0,-140 0,-140 0,-128 0,-128 0,-122 6,-116 12,-116 12,-116 308,-116 308,-116 314,-116 320,-122 320,-128 320,-128 320,-140 320,-140 320,-146 314,-152 308,-152"/>
<text text-anchor="middle" x="160" y="-131.2" font-family="Helvetica,sans-Serif" font-size="11.00">ContentProviderRecord.onProviderPublishStatusLocked</text>
</g>
<!-- m::com.android.server.am.ContentProviderRecord.onProviderPublishStatusLocked:(Z)V&#45;&gt;__field__ -->
<g id="edge3" class="edge">
<title>m::com.android.server.am.ContentProviderRecord.onProviderPublishStatusLocked:(Z)V&#45;&gt;__field__</title>
<path fill="none" stroke="#dc2626" d="M320.24,-134C360.19,-134 402.25,-134 439.43,-134"/>
<polygon fill="#dc2626" stroke="#dc2626" points="439.78,-136.8 447.78,-134 439.78,-131.2 439.78,-136.8"/>
<text text-anchor="middle" x="384" y="-136.8" font-family="Helvetica,sans-Serif" font-size="9.00" fill="#dc2626"> writes unguarded</text>
</g>
<!-- m::com.android.server.am.ContentProviderRecord.onProviderPublishStatusLocked:(Z)V&#45;&gt;__field__ -->
<g id="edge6" class="edge">
<title>m::com.android.server.am.ContentProviderRecord.onProviderPublishStatusLocked:(Z)V&#45;&gt;__field__</title>
<path fill="none" stroke="#dc2626" d="M320.06,-119.02C354.96,-117.4 391.73,-116.98 426,-119 430.42,-119.26 434.91,-119.57 439.45,-119.93"/>
<polygon fill="#dc2626" stroke="#dc2626" points="439.46,-122.74 447.66,-120.6 439.92,-117.15 439.46,-122.74"/>
<text text-anchor="middle" x="384" y="-121.8" font-family="Helvetica,sans-Serif" font-size="9.00" fill="#dc2626"> reads unguarded</text>
</g>
<!-- m::com.android.server.am.ContentProviderConnection.toClientString:(Ljava/lang/StringBuilder;)V -->
<g id="node5" class="node">
<title>m::com.android.server.am.ContentProviderConnection.toClientString:(Ljava/lang/StringBuilder;)V</title>
<path fill="#fee2e2" stroke="#dc2626" d="M271,-94C271,-94 49,-94 49,-94 43,-94 37,-88 37,-82 37,-82 37,-70 37,-70 37,-64 43,-58 49,-58 49,-58 271,-58 271,-58 277,-58 283,-64 283,-70 283,-70 283,-82 283,-82 283,-88 277,-94 271,-94"/>
<text text-anchor="middle" x="160" y="-73.2" font-family="Helvetica,sans-Serif" font-size="11.00">ContentProviderConnection.toClientString</text>
</g>
<!-- m::com.android.server.am.ContentProviderConnection.toClientString:(Ljava/lang/StringBuilder;)V&#45;&gt;__field__ -->
<g id="edge4" class="edge">
<title>m::com.android.server.am.ContentProviderConnection.toClientString:(Ljava/lang/StringBuilder;)V&#45;&gt;__field__</title>
<path fill="none" stroke="#dc2626" d="M283.22,-84.14C328.3,-88.15 379.66,-93.91 426,-102 443.9,-105.12 463,-109.43 480.8,-113.88"/>
<polygon fill="#dc2626" stroke="#dc2626" points="480.43,-116.67 488.87,-115.92 481.81,-111.24 480.43,-116.67"/>
<text text-anchor="middle" x="384" y="-104.8" font-family="Helvetica,sans-Serif" font-size="9.00" fill="#dc2626"> reads unguarded</text>
</g>
<!-- m::com.android.server.am.ContentProviderHelper.removeDyingProviderLocked:(Lcom/android/server/am/ProcessRecord;Lcom/android/server/am/ContentProviderRecord;Z)Z -->
<g id="node6" class="node">
<title>m::com.android.server.am.ContentProviderHelper.removeDyingProviderLocked:(Lcom/android/server/am/ProcessRecord;Lcom/android/server/am/ContentProviderRecord;Z)Z</title>
<path fill="#fee2e2" stroke="#dc2626" d="M299,-36C299,-36 21,-36 21,-36 15,-36 9,-30 9,-24 9,-24 9,-12 9,-12 9,-6 15,0 21,0 21,0 299,0 299,0 305,0 311,-6 311,-12 311,-12 311,-24 311,-24 311,-30 305,-36 299,-36"/>
<text text-anchor="middle" x="160" y="-15.2" font-family="Helvetica,sans-Serif" font-size="11.00">ContentProviderHelper.removeDyingProviderLocked</text>
</g>
<!-- m::com.android.server.am.ContentProviderHelper.removeDyingProviderLocked:(Lcom/android/server/am/ProcessRecord;Lcom/android/server/am/ContentProviderRecord;Z)Z&#45;&gt;__field__ -->
<g id="edge5" class="edge">
<title>m::com.android.server.am.ContentProviderHelper.removeDyingProviderLocked:(Lcom/android/server/am/ProcessRecord;Lcom/android/server/am/ContentProviderRecord;Z)Z&#45;&gt;__field__</title>
<path fill="none" stroke="#dc2626" d="M277.7,-36.03C324.59,-45.09 378.65,-57.86 426,-75 455.01,-85.5 486.46,-100.15 510.74,-112.23"/>
<polygon fill="#dc2626" stroke="#dc2626" points="509.63,-114.8 518.04,-115.88 512.14,-109.8 509.63,-114.8"/>
<text text-anchor="middle" x="384" y="-77.8" font-family="Helvetica,sans-Serif" font-size="9.00" fill="#dc2626"> reads unguarded</text>
</g>
</g>
</svg>
