<?xml version="1.0" encoding="UTF-8" standalone="no"?>
<!DOCTYPE svg PUBLIC "-//W3C//DTD SVG 1.1//EN"
 "http://www.w3.org/Graphics/SVG/1.1/DTD/svg11.dtd">
<!-- Generated by graphviz version 2.43.0 (0)
 -->
<!-- Title: race Pages: 1 -->
<svg width="631pt" height="276pt"
 viewBox="0.00 0.00 631.00 276.00" xmlns="http://www.w3.org/2000/svg" xmlns:xlink="http://www.w3.org/1999/xlink">
<g id="graph0" class="graph" transform="scale(1 1) rotate(0) translate(4 272)">
<title>race</title>
<polygon fill="white" stroke="transparent" points="-4,4 -4,-272 627,-272 627,4 -4,4"/>
<!-- __field__ -->
<g id="node1" class="node">
<title>__field__</title>
<path fill="#fef9c3" stroke="#ca8a04" stroke-width="2" d="M611,-170C611,-170 412,-170 412,-170 406,-170 400,-164 400,-158 400,-158 400,-146 400,-146 400,-140 406,-134 412,-134 412,-134 611,-134 611,-134 617,-134 623,-140 623,-146 623,-146 623,-158 623,-158 623,-164 617,-170 611,-170"/>
<text text-anchor="middle" x="511.5" y="-149.2" font-family="Helvetica,sans-Serif" font-size="11.00">ActivityTaskSupervisor.mUserLeaving</text>
</g>
<!-- __guard__ -->
<g id="node2" class="node">
<title>__guard__</title>
<path fill="#dcfce7" stroke="#16a34a" stroke-width="2" d="M246.5,-268C246.5,-268 25.5,-268 25.5,-268 19.5,-268 13.5,-262 13.5,-256 13.5,-256 13.5,-244 13.5,-244 13.5,-238 19.5,-232 25.5,-232 25.5,-232 246.5,-232 246.5,-232 252.5,-232 258.5,-238 258.5,-244 258.5,-244 258.5,-256 258.5,-256 258.5,-262 252.5,-268 246.5,-268"/>
<text text-anchor="middle" x="136" y="-247.2" font-family="Helvetica,sans-Serif" font-size="11.00">ActivityTaskManagerService.mGlobalLock</text>
</g>
<!-- __guard__&#45;&gt;__field__ -->
<g id="edge1" class="edge">
<title>__guard__&#45;&gt;__field__</title>
<path fill="none" stroke="#16a34a" stroke-width="1.6" d="M255.1,-231.97C294.55,-224.75 338.51,-215.41 378,-204 406.72,-195.7 437.89,-183.63 462.78,-173.21"/>
<polygon fill="#16a34a" stroke="#16a34a" stroke-width="1.6" points="464.01,-175.73 470.29,-170.03 461.83,-170.57 464.01,-175.73"/>
<text text-anchor="middle" x="336" y="-225.8" font-family="Helvetica,sans-Serif" font-size="9.00" fill="#15803d"> guards 7/10</text>
</g>
<!-- m::com.android.server.wm.ActivityTaskSupervisor.findTaskToMoveToFront:(Lcom/android/server/wm/Task;ILandroid/app/ActivityOptions;Ljava/lang/String;Z)V -->
<g id="node3" class="node">
<title>m::com.android.server.wm.ActivityTaskSupervisor.findTaskToMoveToFront:(Lcom/android/server/wm/Task;ILandroid/app/ActivityOptions;Ljava/lang/String;Z)V</title>
<path fill="#fee2e2" stroke="#dc2626" d="M258.5,-210C258.5,-210 13.5,-210 13.5,-210 7.5,-210 1.5,-204 1.5,-198 1.5,-198 1.5,-186 1.5,-186 1.5,-180 7.5,-174 13.5,-174 13.5,-174 258.5,-174 258.5,-174 264.5,-174 270.5,-180 270.5,-186 270.5,-186 270.5,-198 270.5,-198 270.5,-204 264.5,-210 258.5,-210"/>
<text text-anchor="middle" x="136" y="-189.2" font-family="Helvetica,sans-Serif" font-size="11.00">ActivityTaskSupervisor.findTaskToMoveToFront</text>
</g>
<!-- m::com.android.server.wm.ActivityTaskSupervisor.findTaskToMoveToFront:(Lcom/android/server/wm/Task;ILandroid/app/ActivityOptions;Ljava/lang/String;Z)V&#45;&gt;__field__ -->
<g id="edge2" class="edge">
<title>m::com.android.server.wm.ActivityTaskSupervisor.findTaskToMoveToFront:(Lcom/android/server/wm/Task;ILandroid/app/ActivityOptions;Ljava/lang/String;Z)V&#45;&gt;__field__</title>
<path fill="none" stroke="#dc2626" d="M270.59,-190.77C305.65,-189.27 343.34,-186.6 378,-182 396.15,-179.59 415.47,-175.88 433.59,-171.89"/>
<polygon fill="#dc2626" stroke="#dc2626" points="434.63,-174.52 441.82,-170.04 433.4,-169.06 434.63,-174.52"/>
<text text-anchor="middle" x="336" y="-191.8" font-family="Helvetica,sans-Serif" font-size="9.00" fill="#dc2626"> writes unguarded</text>
</g>
<!-- m::com.android.server.wm.ActivityTaskSupervisor.findTaskToMoveToFront:(Lcom/android/server/wm/Task;ILandroid/app/ActivityOptions;Ljava/lang/String;Z)V&#45;&gt;__field__ -->
<g id="edge3" class="edge">
<title>m::com.android.server.wm.ActivityTaskSupervisor.findTaskToMoveToFront:(Lcom/android/server/wm/Task;ILandroid/app/ActivityOptions;Ljava/lang/String;Z)V&#45;&gt;__field__</title>
<path fill="none" stroke="#dc2626" d="M268.44,-173.97C277.08,-172.92 285.66,-171.92 294,-171 325.72,-167.49 360.11,-164.22 391.95,-161.43"/>
<polygon fill="#dc2626" stroke="#dc2626" points="392.26,-164.21 399.99,-160.72 391.77,-158.63 392.26,-164.21"/>
<text text-anchor="middle" x="336" y="-173.8" font-family="Helvetica,sans-Serif" font-size="9.00" fill="#dc2626"> writes unguarded</text>
</g>
<!-- m::com.android.server.wm.ActivityTaskSupervisor.realStartActivityLocked:(Lcom/android/server/wm/ActivityRecord;Lcom/android/server/wm/WindowProcessController;ZZ)Z -->
<g id="node4" class="node">
<title>m::com.android.server.wm.ActivityTaskSupervisor.realStartActivityLocked:(Lcom/android/server/wm/ActivityRecord;Lcom/android/server/wm/WindowProcessController;ZZ)Z</title>
<path fill="#fee2e2" stroke="#dc2626" d="M260,-152C260,-152 12,-152 12,-152 6,-152 0,-146 0,-140 0,-140 0,-128 0,-128 0,-122 6,-116 12,-116 12,-116 260,-116 260,-116 266,-116 272,-122 272,-128 272,-128 272,-140 272,-140 272,-146 266,-152 260,-152"/>
<text text-anchor="middle" x="136" y="-131.2" font-family="Helvetica,sans-Serif" font-size="11.00">ActivityTaskSupervisor.realStartActivityLocked</text>
</g>
<!-- m::com.android.server.wm.ActivityTaskSupervisor.realStartActivityLocked:(Lcom/android/server/wm/ActivityRecord;Lcom/android/server/wm/WindowProcessController;ZZ)Z&#45;&gt;__field__ -->
<g id="edge4" class="edge">
<title>m::com.android.server.wm.ActivityTaskSupervisor.realStartActivityLocked:(Lcom/android/server/wm/ActivityRecord;Lcom/android/server/wm/WindowProcessController;ZZ)Z&#45;&gt;__field__</title>
<path fill="none" stroke="#dc2626" d="M272.22,-130.79C306.74,-130.85 343.77,-131.69 378,-134 382.6,-134.31 387.28,-134.68 392.01,-135.1"/>
<polygon fill="#dc2626" stroke="#dc2626" points="391.77,-137.89 400,-135.85 392.3,-132.32 391.77,-137.89"/>
<text text-anchor="middle" x="336" y="-136.8" font-family="Helvetica,sans-Serif" font-size="9.00" fill="#dc2626"> reads unguarded</text>
</g>
<!-- m::com.android.server.wm.TaskFragment.resumeTopActivity:(Lcom/android/server/wm/ActivityRecord;Landroid/app/ActivityOptions;Z)Z -->
<g id="node5" class="node">
<title>m::com.android.server.wm.TaskFragment.resumeTopActivity:(Lcom/android/server/wm/ActivityRecord;Landroid/app/ActivityOptions;Z)Z</title>
<path fill="#fee2e2" stroke="#dc2626" d="M222.5,-94C222.5,-94 49.5,-94 49.5,-94 43.5,-94 37.5,-88 37.5,-82 37.5,-82 37.5,-70 37.5,-70 37.5,-64 43.5,-58 49.5,-58 49.5,-58 222.5,-58 222.5,-58 228.5,-58 234.5,-64 234.5,-70 234.5,-70 234.5,-82 234.5,-82 234.5,-88 228.5,-94 222.5,-94"/>
<text text-anchor="middle" x="136" y="-73.2" font-family="Helvetica,sans-Serif" font-size="11.00">TaskFragment.resumeTopActivity</text>
</g>
<!-- m::com.android.server.wm.TaskFragment.resumeTopActivity:(Lcom/android/server/wm/ActivityRecord;Landroid/app/ActivityOptions;Z)Z&#45;&gt;__field__ -->
<g id="edge5" class="edge">
<title>m::com.android.server.wm.TaskFragment.resumeTopActivity:(Lcom/android/server/wm/ActivityRecord;Landroid/app/ActivityOptions;Z)Z&#45;&gt;__field__</title>
<path fill="none" stroke="#dc2626" d="M234.51,-89.24C278.55,-95.87 331.12,-104.69 378,-115 399.51,-119.73 422.72,-125.85 443.61,-131.75"/>
<polygon fill="#dc2626" stroke="#dc2626" points="443.03,-134.5 451.49,-134 444.57,-129.11 443.03,-134.5"/>
<text text-anchor="middle" x="336" y="-117.8" font-family="Helvetica,sans-Serif" font-size="9.00" fill="#dc2626"> reads unguarded</text>
</g>
<!-- m::com.android.server.wm.TaskFragment.startPausing:(ZLcom/android/server/wm/ActivityRecord;Ljava/lang/String;)Z -->
<g id="node6" class="node">
<title>m::com.android.server.wm.TaskFragment.startPausing:(ZLcom/android/server/wm/ActivityRecord;Ljava/lang/String;)Z</title>
<path fill="#fee2e2" stroke="#dc2626" d="M206,-36C206,-36 66,-36 66,-36 60,-36 54,-30 54,-24 54,-24 54,-12 54,-12 54,-6 60,0 66,0 66,0 206,0 206,0 212,0 218,-6 218,-12 218,-12 218,-24 218,-24 218,-30 212,-36 206,-36"/>
<text text-anchor="middle" x="136" y="-15.2" font-family="Helvetica,sans-Serif" font-size="11.00">TaskFragment.startPausing</text>
</g>
<!-- m::com.android.server.wm.TaskFragment.startPausing:(ZLcom/android/server/wm/ActivityRecord;Ljava/lang/String;)Z&#45;&gt;__field__ -->
<g id="edge6" class="edge">
<title>m::com.android.server.wm.TaskFragment.startPausing:(ZLcom/android/server/wm/ActivityRecord;Ljava/lang/String;)Z&#45;&gt;__field__</title>
<path fill="none" stroke="#dc2626" d="M218.07,-33.7C235.94,-37.64 254.69,-42.14 272,-47 320.04,-60.49 332.14,-64.34 378,-84 410.15,-97.78 445.32,-115.99 471.34,-130.09"/>
<polygon fill="#dc2626" stroke="#dc2626" points="470.07,-132.58 478.43,-133.95 472.75,-127.67 470.07,-132.58"/>
<text text-anchor="middle" x="336" y="-86.8" font-family="Helvetica,sans-Serif" font-size="9.00" fill="#dc2626"> reads unguarded</text>
</g>
</g>
</svg>
