<?xml version="1.0" encoding="UTF-8" standalone="no"?>
<!DOCTYPE svg PUBLIC "-//W3C//DTD SVG 1.1//EN"
 "http://www.w3.org/Graphics/SVG/1.1/DTD/svg11.dtd">
<!-- Generated by graphviz version 2.43.0 (0)
 -->
<!-- Title: race Pages: 1 -->
<svg width="748pt" height="192pt"
 viewBox="0.00 0.00 748.00 192.00" xmlns="http://www.w3.org/2000/svg" xmlns:xlink="http://www.w3.org/1999/xlink">
<g id="graph0" class="graph" transform="scale(1 1) rotate(0) translate(4 188)">
<title>race</title>
<polygon fill="white" stroke="transparent" points="-4,4 -4,-188 744,-188 744,4 -4,4"/>
<!-- __field__ -->
<g id="node1" class="node">
<title>__field__</title>
<path fill="#fef9c3" stroke="#ca8a04" stroke-width="2" d="M728,-110C728,-110 436,-110 436,-110 430,-110 424,-104 424,-98 424,-98 424,-86 424,-86 424,-80 430,-74 436,-74 436,-74 728,-74 728,-74 734,-74 740,-80 740,-86 740,-86 740,-98 740,-98 740,-104 734,-110 728,-110"/>
<text text-anchor="middle" x="582" y="-89.2" font-family="Helvetica,sans-Serif" font-size="11.00">AudioDeviceBroker.mBluetoothA2dpSuspendedApplied</text>
</g>
<!-- __guard__ -->
<g id="node2" class="node">
<title>__guard__</title>
<path fill="#dcfce7" stroke="#16a34a" stroke-width="2" d="M272,-184C272,-184 24,-184 24,-184 18,-184 12,-178 12,-172 12,-172 12,-160 12,-160 12,-154 18,-148 24,-148 24,-148 272,-148 272,-148 278,-148 284,-154 284,-160 284,-160 284,-172 284,-172 284,-178 278,-184 272,-184"/>
<text text-anchor="middle" x="148" y="-163.2" font-family="Helvetica,sans-Serif" font-size="11.00">AudioDeviceBroker.mBluetoothAudioStateLock</text>
</g>
<!-- __guard__&#45;&gt;__field__ -->
<g id="edge1" class="edge">
<title>__guard__&#45;&gt;__field__</title>
<path fill="none" stroke="#16a34a" stroke-width="1.6" d="M254.13,-147.99C318.81,-136.91 401.68,-122.72 467.8,-111.39"/>
<polygon fill="#16a34a" stroke="#16a34a" stroke-width="1.6" points="468.36,-114.13 475.78,-110.02 467.42,-108.62 468.36,-114.13"/>
<text text-anchor="middle" x="360" y="-137.8" font-family="Helvetica,sans-Serif" font-size="9.00" fill="#15803d"> guards 3/4</text>
</g>
<!-- m::com.android.server.audio.AudioDeviceBroker.reapplyAudioHalBluetoothState:()V -->
<g id="node3" class="node">
<title>m::com.android.server.audio.AudioDeviceBroker.reapplyAudioHalBluetoothState:()V</title>
<path fill="#fee2e2" stroke="#dc2626" d="M284,-110C284,-110 12,-110 12,-110 6,-110 0,-104 0,-98 0,-98 0,-86 0,-86 0,-80 6,-74 12,-74 12,-74 284,-74 284,-74 290,-74 296,-80 296,-86 296,-86 296,-98 296,-98 296,-104 290,-110 284,-110"/>
<text text-anchor="middle" x="148" y="-89.2" font-family="Helvetica,sans-Serif" font-size="11.00">AudioDeviceBroker.reapplyAudioHalBluetoothState</text>
</g>
<!-- m::com.android.server.audio.AudioDeviceBroker.reapplyAudioHalBluetoothState:()V&#45;&gt;__field__ -->
<g id="edge2" class="edge">
<title>m::com.android.server.audio.AudioDeviceBroker.reapplyAudioHalBluetoothState:()V&#45;&gt;__field__</title>
<path fill="none" stroke="#dc2626" d="M296.45,-102.16C303.73,-102.49 310.95,-102.77 318,-103 349.58,-104.03 383.29,-103.7 415.67,-102.67"/>
<polygon fill="#dc2626" stroke="#dc2626" points="415.97,-105.46 423.87,-102.39 415.78,-99.86 415.97,-105.46"/>
<text text-anchor="middle" x="360" y="-105.8" font-family="Helvetica,sans-Serif" font-size="9.00" fill="#dc2626"> writes unguarded</text>
</g>
<!-- m::com.android.server.audio.AudioDeviceBroker.reapplyAudioHalBluetoothState:()V&#45;&gt;__field__ -->
<g id="edge4" class="edge">
<title>m::com.android.server.audio.AudioDeviceBroker.reapplyAudioHalBluetoothState:()V&#45;&gt;__field__</title>
<path fill="none" stroke="#dc2626" d="M296.16,-92C334.51,-92 376.09,-92 415.33,-92"/>
<polygon fill="#dc2626" stroke="#dc2626" points="415.67,-94.8 423.67,-92 415.67,-89.2 415.67,-94.8"/>
<text text-anchor="middle" x="360" y="-94.8" font-family="Helvetica,sans-Serif" font-size="9.00" fill="#dc2626"> reads unguarded</text>
</g>
<!-- m::com.android.server.audio.AudioDeviceBroker.reapplyAudioHalBluetoothState:()V&#45;&gt;__field__ -->
<g id="edge5" class="edge">
<title>m::com.android.server.audio.AudioDeviceBroker.reapplyAudioHalBluetoothState:()V&#45;&gt;__field__</title>
<path fill="none" stroke="#dc2626" d="M296.42,-78.14C303.71,-77.7 310.94,-77.31 318,-77 349.59,-75.6 383.3,-76.05 415.68,-77.46"/>
<polygon fill="#dc2626" stroke="#dc2626" points="415.76,-80.26 423.88,-77.83 416.02,-74.67 415.76,-80.26"/>
<text text-anchor="middle" x="360" y="-79.8" font-family="Helvetica,sans-Serif" font-size="9.00" fill="#dc2626"> reads unguarded</text>
</g>
<!-- m::com.android.server.audio.AudioDeviceBroker.dump:(Ljava/io/PrintWriter;Ljava/lang/String;)V -->
<g id="node4" class="node">
<title>m::com.android.server.audio.AudioDeviceBroker.dump:(Ljava/io/PrintWriter;Ljava/lang/String;)V</title>
<path fill="#fee2e2" stroke="#dc2626" d="M213.5,-36C213.5,-36 82.5,-36 82.5,-36 76.5,-36 70.5,-30 70.5,-24 70.5,-24 70.5,-12 70.5,-12 70.5,-6 76.5,0 82.5,0 82.5,0 213.5,0 213.5,0 219.5,0 225.5,-6 225.5,-12 225.5,-12 225.5,-24 225.5,-24 225.5,-30 219.5,-36 213.5,-36"/>
<text text-anchor="middle" x="148" y="-15.2" font-family="Helvetica,sans-Serif" font-size="11.00">AudioDeviceBroker.dump</text>
</g>
<!-- m::com.android.server.audio.AudioDeviceBroker.dump:(Ljava/io/PrintWriter;Ljava/lang/String;)V&#45;&gt;__field__ -->
<g id="edge3" class="edge">
<title>m::com.android.server.audio.AudioDeviceBroker.dump:(Ljava/io/PrintWriter;Ljava/lang/String;)V&#45;&gt;__field__</title>
<path fill="none" stroke="#dc2626" d="M225.68,-30.97C275.85,-39.47 342.83,-50.85 402,-61 423.73,-64.73 446.95,-68.73 469.21,-72.58"/>
<polygon fill="#dc2626" stroke="#dc2626" points="469,-75.39 477.36,-74 469.96,-69.87 469,-75.39"/>
<text text-anchor="middle" x="360" y="-63.8" font-family="Helvetica,sans-Serif" font-size="9.00" fill="#dc2626"> reads unguarded</text>
</g>
</g>
</svg>
