<?xml version="1.0" encoding="UTF-8" standalone="no"?>
<!DOCTYPE svg PUBLIC "-//W3C//DTD SVG 1.1//EN"
 "http://www.w3.org/Graphics/SVG/1.1/DTD/svg11.dtd">
<!-- Generated by graphviz version 2.43.0 (0)
 -->
<!-- Title: race Pages: 1 -->
<svg width="606pt" height="276pt"
 viewBox="0.00 0.00 606.00 276.00" xmlns="http://www.w3.org/2000/svg" xmlns:xlink="http://www.w3.org/1999/xlink">
<g id="graph0" class="graph" transform="scale(1 1) rotate(0) translate(4 272)">
<title>race</title>
<polygon fill="white" stroke="transparent" points="-4,4 -4,-272 602,-272 602,4 -4,4"/>
<!-- __field__ -->
<g id="node1" class="node">
<title>__field__</title>
<path fill="#fef9c3" stroke="#ca8a04" stroke-width="2" d="M586,-170C586,-170 403,-170 403,-170 397,-170 391,-164 391,-158 391,-158 391,-146 391,-146 391,-140 397,-134 403,-134 403,-134 586,-134 586,-134 592,-134 598,-140 598,-146 598,-146 598,-158 598,-158 598,-164 592,-170 586,-170"/>
<text text-anchor="middle" x="494.5" y="-149.2" font-family="Helvetica,sans-Serif" font-size="11.00">ZenModeConfig$ZenRule.zenMode</text>
</g>
<!-- __guard__ -->
<g id="node2" class="node">
<title>__guard__</title>
<path fill="#dcfce7" stroke="#16a34a" stroke-width="2" d="M207.5,-268C207.5,-268 55.5,-268 55.5,-268 49.5,-268 43.5,-262 43.5,-256 43.5,-256 43.5,-244 43.5,-244 43.5,-238 49.5,-232 55.5,-232 55.5,-232 207.5,-232 207.5,-232 213.5,-232 219.5,-238 219.5,-244 219.5,-244 219.5,-256 219.5,-256 219.5,-262 213.5,-268 207.5,-268"/>
<text text-anchor="middle" x="131.5" y="-247.2" font-family="Helvetica,sans-Serif" font-size="11.00">ZenModeHelper.mConfigLock</text>
</g>
<!-- __guard__&#45;&gt;__field__ -->
<g id="edge1" class="edge">
<title>__guard__&#45;&gt;__field__</title>
<path fill="none" stroke="#16a34a" stroke-width="1.6" d="M219.75,-237.39C264.84,-229.78 320.46,-218.69 369,-204 396.01,-195.83 425.17,-183.83 448.47,-173.42"/>
<polygon fill="#16a34a" stroke="#16a34a" stroke-width="1.6" points="449.68,-175.95 455.82,-170.1 447.38,-170.84 449.68,-175.95"/>
<text text-anchor="middle" x="327" y="-226.8" font-family="Helvetica,sans-Serif" font-size="9.00" fill="#15803d"> guards 3/4</text>
</g>
<!-- m::com.android.server.notification.ZenModeHelper.populateZenRule:(Ljava/lang/String;Landroid/app/AutomaticZenRule;Landroid/service/notification/ZenModeConfig;Landroid/service/notification/ZenModeConfig$ZenRule;IZ)Z -->
<g id="node3" class="node">
<title>m::com.android.server.notification.ZenModeHelper.populateZenRule:(Ljava/lang/String;Landroid/app/AutomaticZenRule;Landroid/service/notification/ZenModeConfig;Landroid/service/notification/ZenModeConfig$ZenRule;IZ)Z</title>
<path fill="#fee2e2" stroke="#dc2626" d="M219.5,-210C219.5,-210 43.5,-210 43.5,-210 37.5,-210 31.5,-204 31.5,-198 31.5,-198 31.5,-186 31.5,-186 31.5,-180 37.5,-174 43.5,-174 43.5,-174 219.5,-174 219.5,-174 225.5,-174 231.5,-180 231.5,-186 231.5,-186 231.5,-198 231.5,-198 231.5,-204 225.5,-210 219.5,-210"/>
<text text-anchor="middle" x="131.5" y="-189.2" font-family="Helvetica,sans-Serif" font-size="11.00">ZenModeHelper.populateZenRule</text>
</g>
<!-- m::com.android.server.notification.ZenModeHelper.populateZenRule:(Ljava/lang/String;Landroid/app/AutomaticZenRule;Landroid/service/notification/ZenModeConfig;Landroid/service/notification/ZenModeConfig$ZenRule;IZ)Z&#45;&gt;__field__ -->
<g id="edge2" class="edge">
<title>m::com.android.server.notification.ZenModeHelper.populateZenRule:(Ljava/lang/String;Landroid/app/AutomaticZenRule;Landroid/service/notification/ZenModeConfig;Landroid/service/notification/ZenModeConfig$ZenRule;IZ)Z&#45;&gt;__field__</title>
<path fill="none" stroke="#dc2626" d="M231.56,-192.09C274.05,-191.02 324.13,-188.29 369,-182 385.93,-179.62 403.93,-175.97 420.82,-172.02"/>
<polygon fill="#dc2626" stroke="#dc2626" points="421.89,-174.64 429.02,-170.06 420.59,-169.19 421.89,-174.64"/>
<text text-anchor="middle" x="327" y="-191.8" font-family="Helvetica,sans-Serif" font-size="9.00" fill="#dc2626"> writes unguarded</text>
</g>
<!-- m::com.android.server.notification.ZenModeHelper.populateZenRule:(Ljava/lang/String;Landroid/app/AutomaticZenRule;Landroid/service/notification/ZenModeConfig;Landroid/service/notification/ZenModeConfig$ZenRule;IZ)Z&#45;&gt;__field__ -->
<g id="edge4" class="edge">
<title>m::com.android.server.notification.ZenModeHelper.populateZenRule:(Ljava/lang/String;Landroid/app/AutomaticZenRule;Landroid/service/notification/ZenModeConfig;Landroid/service/notification/ZenModeConfig$ZenRule;IZ)Z&#45;&gt;__field__</title>
<path fill="none" stroke="#dc2626" d="M231.68,-177.67C249.41,-175.3 267.74,-172.97 285,-171 316.71,-167.37 351.2,-164 382.83,-161.13"/>
<polygon fill="#dc2626" stroke="#dc2626" points="383.08,-163.92 390.8,-160.41 382.58,-158.34 383.08,-163.92"/>
<text text-anchor="middle" x="327" y="-173.8" font-family="Helvetica,sans-Serif" font-size="9.00" fill="#dc2626"> reads unguarded</text>
</g>
<!-- m::com.android.server.notification.ZenModeHelper.applyCustomPolicy:(Landroid/service/notification/ZenModeConfig;Landroid/service/notification/ZenPolicy;Landroid/service/notification/ZenModeConfig$ZenRule;Z)V -->
<g id="node4" class="node">
<title>m::com.android.server.notification.ZenModeHelper.applyCustomPolicy:(Landroid/service/notification/ZenModeConfig;Landroid/service/notification/ZenPolicy;Landroid/service/notification/ZenModeConfig$ZenRule;Z)V</title>
<path fill="#fee2e2" stroke="#dc2626" d="M224.5,-152C224.5,-152 38.5,-152 38.5,-152 32.5,-152 26.5,-146 26.5,-140 26.5,-140 26.5,-128 26.5,-128 26.5,-122 32.5,-116 38.5,-116 38.5,-116 224.5,-116 224.5,-116 230.5,-116 236.5,-122 236.5,-128 236.5,-128 236.5,-140 236.5,-140 236.5,-146 230.5,-152 224.5,-152"/>
<text text-anchor="middle" x="131.5" y="-131.2" font-family="Helvetica,sans-Serif" font-size="11.00">ZenModeHelper.applyCustomPolicy</text>
</g>
<!-- m::com.android.server.notification.ZenModeHelper.applyCustomPolicy:(Landroid/service/notification/ZenModeConfig;Landroid/service/notification/ZenPolicy;Landroid/service/notification/ZenModeConfig$ZenRule;Z)V&#45;&gt;__field__ -->
<g id="edge3" class="edge">
<title>m::com.android.server.notification.ZenModeHelper.applyCustomPolicy:(Landroid/service/notification/ZenModeConfig;Landroid/service/notification/ZenPolicy;Landroid/service/notification/ZenModeConfig$ZenRule;Z)V&#45;&gt;__field__</title>
<path fill="none" stroke="#dc2626" d="M236.52,-130.78C277.81,-130.34 325.69,-130.89 369,-134 373.42,-134.32 377.93,-134.7 382.48,-135.13"/>
<polygon fill="#dc2626" stroke="#dc2626" points="382.46,-137.94 390.7,-135.96 383.02,-132.37 382.46,-137.94"/>
<text text-anchor="middle" x="327" y="-136.8" font-family="Helvetica,sans-Serif" font-size="9.00" fill="#dc2626"> reads unguarded</text>
</g>
<!-- m::com.android.server.notification.ZenModeHelper.ruleToProtoLocked:(ILandroid/service/notification/ZenModeConfig$ZenRule;ZLjava/util/List;)V -->
<g id="node5" class="node">
<title>m::com.android.server.notification.ZenModeHelper.ruleToProtoLocked:(ILandroid/service/notification/ZenModeConfig$ZenRule;ZLjava/util/List;)V</title>
<path fill="#fee2e2" stroke="#dc2626" d="M222.5,-94C222.5,-94 40.5,-94 40.5,-94 34.5,-94 28.5,-88 28.5,-82 28.5,-82 28.5,-70 28.5,-70 28.5,-64 34.5,-58 40.5,-58 40.5,-58 222.5,-58 222.5,-58 228.5,-58 234.5,-64 234.5,-70 234.5,-70 234.5,-82 234.5,-82 234.5,-88 228.5,-94 222.5,-94"/>
<text text-anchor="middle" x="131.5" y="-73.2" font-family="Helvetica,sans-Serif" font-size="11.00">ZenModeHelper.ruleToProtoLocked</text>
</g>
<!-- m::com.android.server.notification.ZenModeHelper.ruleToProtoLocked:(ILandroid/service/notification/ZenModeConfig$ZenRule;ZLjava/util/List;)V&#45;&gt;__field__ -->
<g id="edge5" class="edge">
<title>m::com.android.server.notification.ZenModeHelper.ruleToProtoLocked:(ILandroid/service/notification/ZenModeConfig$ZenRule;ZLjava/util/List;)V&#45;&gt;__field__</title>
<path fill="none" stroke="#dc2626" d="M234.61,-89.97C276.49,-96.45 325.3,-104.95 369,-115 389.18,-119.64 410.89,-125.71 430.45,-131.59"/>
<polygon fill="#dc2626" stroke="#dc2626" points="429.65,-134.27 438.12,-133.92 431.28,-128.92 429.65,-134.27"/>
<text text-anchor="middle" x="327" y="-117.8" font-family="Helvetica,sans-Serif" font-size="9.00" fill="#dc2626"> reads unguarded</text>
</g>
<!-- m::com.android.server.notification.ZenModeHelper.zenRuleToAutomaticZenRule:(Landroid/service/notification/ZenModeConfig$ZenRule;)Landroid/app/AutomaticZenRule; -->
<g id="node6" class="node">
<title>m::com.android.server.notification.ZenModeHelper.zenRuleToAutomaticZenRule:(Landroid/service/notification/ZenModeConfig$ZenRule;)Landroid/app/AutomaticZenRule;</title>
<path fill="#fee2e2" stroke="#dc2626" d="M251,-36C251,-36 12,-36 12,-36 6,-36 0,-30 0,-24 0,-24 0,-12 0,-12 0,-6 6,0 12,0 12,0 251,0 251,0 257,0 263,-6 263,-12 263,-12 263,-24 263,-24 263,-30 257,-36 251,-36"/>
<text text-anchor="middle" x="131.5" y="-15.2" font-family="Helvetica,sans-Serif" font-size="11.00">ZenModeHelper.zenRuleToAutomaticZenRule</text>
</g>
<!-- m::com.android.server.notification.ZenModeHelper.zenRuleToAutomaticZenRule:(Landroid/service/notification/ZenModeConfig$ZenRule;)Landroid/app/AutomaticZenRule;&#45;&gt;__field__ -->
<g id="edge6" class="edge">
<title>m::com.android.server.notification.ZenModeHelper.zenRuleToAutomaticZenRule:(Landroid/service/notification/ZenModeConfig$ZenRule;)Landroid/app/AutomaticZenRule;&#45;&gt;__field__</title>
<path fill="none" stroke="#dc2626" d="M219.87,-36.04C234.34,-39.42 249.14,-43.12 263,-47 310.91,-60.42 323.5,-62.86 369,-83 399.64,-96.57 432.76,-115.12 457.13,-129.57"/>
<polygon fill="#dc2626" stroke="#dc2626" points="455.77,-132.03 464.08,-133.73 458.65,-127.22 455.77,-132.03"/>
<text text-anchor="middle" x="327" y="-85.8" font-family="Helvetica,sans-Serif" font-size="9.00" fill="#dc2626"> reads unguarded</text>
</g>
</g>
</svg>
