<?xml version="1.0" encoding="UTF-8" standalone="no"?>
<!DOCTYPE svg PUBLIC "-//W3C//DTD SVG 1.1//EN"
 "http://www.w3.org/Graphics/SVG/1.1/DTD/svg11.dtd">
<!-- Generated by graphviz version 2.43.0 (0)
 -->
<!-- Title: race Pages: 1 -->
<svg width="575pt" height="168pt"
 viewBox="0.00 0.00 575.00 168.00" xmlns="http://www.w3.org/2000/svg" xmlns:xlink="http://www.w3.org/1999/xlink">
<g id="graph0" class="graph" transform="scale(1 1) rotate(0) translate(4 164)">
<title>race</title>
<polygon fill="white" stroke="transparent" points="-4,4 -4,-164 571,-164 571,4 -4,4"/>
<!-- __field__ -->
<g id="node1" class="node">
<title>__field__</title>
<path fill="#fef9c3" stroke="#ca8a04" stroke-width="2" d="M555,-83C555,-83 385,-83 385,-83 379,-83 373,-77 373,-71 373,-71 373,-59 373,-59 373,-53 379,-47 385,-47 385,-47 555,-47 555,-47 561,-47 567,-53 567,-59 567,-59 567,-71 567,-71 567,-77 561,-83 555,-83"/>
<text text-anchor="middle" x="470" y="-62.2" font-family="Helvetica,sans-Serif" font-size="11.00">ActivityStarter.mTargetRootTask</text>
</g>
<!-- __guard__ -->
<g id="node2" class="node">
<title>__guard__</title>
<path fill="#dcfce7" stroke="#16a34a" stroke-width="2" d="M233,-160C233,-160 12,-160 12,-160 6,-160 0,-154 0,-148 0,-148 0,-136 0,-136 0,-130 6,-124 12,-124 12,-124 233,-124 233,-124 239,-124 245,-130 245,-136 245,-136 245,-148 245,-148 245,-154 239,-160 233,-160"/>
<text text-anchor="middle" x="122.5" y="-139.2" font-family="Helvetica,sans-Serif" font-size="11.00">ActivityTaskManagerService.mGlobalLock</text>
</g>
<!-- __guard__&#45;&gt;__field__ -->
<g id="edge1" class="edge">
<title>__guard__&#45;&gt;__field__</title>
<path fill="none" stroke="#16a34a" stroke-width="1.6" d="M204.5,-123.95C257.26,-112.19 326.09,-96.85 380.31,-84.77"/>
<polygon fill="#16a34a" stroke="#16a34a" stroke-width="1.6" points="381.01,-87.48 388.2,-83.01 379.79,-82.01 381.01,-87.48"/>
<text text-anchor="middle" x="309" y="-110.8" font-family="Helvetica,sans-Serif" font-size="9.00" fill="#15803d"> guards 8/10</text>
</g>
<!-- m::com.android.server.wm.ActivityStarter.reset:(Z)V -->
<g id="node3" class="node">
<title>m::com.android.server.wm.ActivityStarter.reset:(Z)V</title>
<path fill="#fee2e2" stroke="#dc2626" d="M174.5,-102C174.5,-102 70.5,-102 70.5,-102 64.5,-102 58.5,-96 58.5,-90 58.5,-90 58.5,-78 58.5,-78 58.5,-72 64.5,-66 70.5,-66 70.5,-66 174.5,-66 174.5,-66 180.5,-66 186.5,-72 186.5,-78 186.5,-78 186.5,-90 186.5,-90 186.5,-96 180.5,-102 174.5,-102"/>
<text text-anchor="middle" x="122.5" y="-81.2" font-family="Helvetica,sans-Serif" font-size="11.00">ActivityStarter.reset</text>
</g>
<!-- m::com.android.server.wm.ActivityStarter.reset:(Z)V&#45;&gt;__field__ -->
<g id="edge2" class="edge">
<title>m::com.android.server.wm.ActivityStarter.reset:(Z)V&#45;&gt;__field__</title>
<path fill="none" stroke="#dc2626" d="M186.87,-80.52C236.55,-77.78 306.73,-73.92 364.66,-70.74"/>
<polygon fill="#dc2626" stroke="#dc2626" points="364.92,-73.53 372.75,-70.29 364.61,-67.94 364.92,-73.53"/>
<text text-anchor="middle" x="309" y="-77.8" font-family="Helvetica,sans-Serif" font-size="9.00" fill="#dc2626"> writes unguarded</text>
</g>
<!-- m::com.android.server.wm.ActivityStarter.set:(Lcom/android/server/wm/ActivityStarter;)V -->
<g id="node4" class="node">
<title>m::com.android.server.wm.ActivityStarter.set:(Lcom/android/server/wm/ActivityStarter;)V</title>
<path fill="#fee2e2" stroke="#dc2626" d="M169,-36C169,-36 76,-36 76,-36 70,-36 64,-30 64,-24 64,-24 64,-12 64,-12 64,-6 70,0 76,0 76,0 169,0 169,0 175,0 181,-6 181,-12 181,-12 181,-24 181,-24 181,-30 175,-36 169,-36"/>
<text text-anchor="middle" x="122.5" y="-15.2" font-family="Helvetica,sans-Serif" font-size="11.00">ActivityStarter.set</text>
</g>
<!-- m::com.android.server.wm.ActivityStarter.set:(Lcom/android/server/wm/ActivityStarter;)V&#45;&gt;__field__ -->
<g id="edge3" class="edge">
<title>m::com.android.server.wm.ActivityStarter.set:(Lcom/android/server/wm/ActivityStarter;)V&#45;&gt;__field__</title>
<path fill="none" stroke="#dc2626" d="M181.33,-25.87C231.24,-32.66 304.58,-42.63 364.72,-50.81"/>
<polygon fill="#dc2626" stroke="#dc2626" points="364.43,-53.6 372.73,-51.9 365.19,-48.05 364.43,-53.6"/>
<text text-anchor="middle" x="309" y="-50.8" font-family="Helvetica,sans-Serif" font-size="9.00" fill="#dc2626"> writes unguarded</text>
</g>
<!-- m::com.android.server.wm.ActivityStarter.set:(Lcom/android/server/wm/ActivityStarter;)V&#45;&gt;__field__ -->
<g id="edge4" class="edge">
<title>m::com.android.server.wm.ActivityStarter.set:(Lcom/android/server/wm/ActivityStarter;)V&#45;&gt;__field__</title>
<path fill="none" stroke="#dc2626" d="M181.05,-14.23C227.35,-12.4 293.88,-12.49 351,-23 374.62,-27.35 399.82,-35.76 420.84,-43.92"/>
<polygon fill="#dc2626" stroke="#dc2626" points="419.92,-46.57 428.39,-46.91 421.98,-41.36 419.92,-46.57"/>
<text text-anchor="middle" x="309" y="-25.8" font-family="Helvetica,sans-Serif" font-size="9.00" fill="#dc2626"> reads unguarded</text>
</g>
</g>
</svg>
