<?xml version="1.0" encoding="UTF-8" standalone="no"?>
<!DOCTYPE svg PUBLIC "-//W3C//DTD SVG 1.1//EN"
 "http://www.w3.org/Graphics/SVG/1.1/DTD/svg11.dtd">
<!-- Generated by graphviz version 2.43.0 (0)
 -->
<!-- Title: race Pages: 1 -->
<svg width="976pt" height="334pt"
 viewBox="0.00 0.00 976.00 334.00" xmlns="http://www.w3.org/2000/svg" xmlns:xlink="http://www.w3.org/1999/xlink">
<g id="graph0" class="graph" transform="scale(1 1) rotate(0) translate(4 330)">
<title>race</title>
<polygon fill="white" stroke="transparent" points="-4,4 -4,-330 972,-330 972,4 -4,4"/>
<!-- __field__ -->
<g id="node1" class="node">
<title>__field__</title>
<path fill="#fef9c3" stroke="#ca8a04" stroke-width="2" d="M956,-181C956,-181 564,-181 564,-181 558,-181 552,-175 552,-169 552,-169 552,-157 552,-157 552,-151 558,-145 564,-145 564,-145 956,-145 956,-145 962,-145 968,-151 968,-157 968,-157 968,-169 968,-169 968,-175 962,-181 956,-181"/>
<text text-anchor="middle" x="760" y="-160.2" font-family="Helvetica,sans-Serif" font-size="11.00">AppBatteryExemptionTracker$UidStateEventWithBattery.mBatteryUsage</text>
</g>
<!-- __guard__ -->
<g id="node2" class="node">
<title>__guard__</title>
<path fill="#dcfce7" stroke="#16a34a" stroke-width="2" d="M294.5,-326C294.5,-326 129.5,-326 129.5,-326 123.5,-326 117.5,-320 117.5,-314 117.5,-314 117.5,-302 117.5,-302 117.5,-296 123.5,-290 129.5,-290 129.5,-290 294.5,-290 294.5,-290 300.5,-290 306.5,-296 306.5,-302 306.5,-302 306.5,-314 306.5,-314 306.5,-320 300.5,-326 294.5,-326"/>
<text text-anchor="middle" x="212" y="-305.2" font-family="Helvetica,sans-Serif" font-size="11.00">AppRestrictionController.mLock</text>
</g>
<!-- __guard__&#45;&gt;__field__ -->
<g id="edge1" class="edge">
<title>__guard__&#45;&gt;__field__</title>
<path fill="none" stroke="#16a34a" stroke-width="1.6" d="M306.69,-299.13C343.56,-294.6 386.06,-288.08 424,-279 527.1,-254.32 643.12,-210.34 708,-184.2"/>
<polygon fill="#16a34a" stroke="#16a34a" stroke-width="1.6" points="709.29,-186.7 715.65,-181.1 707.19,-181.51 709.29,-186.7"/>
<text text-anchor="middle" x="488" y="-273.8" font-family="Helvetica,sans-Serif" font-size="9.00" fill="#15803d"> guards 2/3</text>
</g>
<!-- m::com.android.server.am.AppBatteryExemptionTracker$UidStateEventWithBattery.update:(Lcom/android/server/am/AppBatteryExemptionTracker$UidStateEventWithBattery;Lcom/android/server/am/AppBatteryTracker$ImmutableBatteryUsage;)V -->
<g id="node3" class="node">
<title>m::com.android.server.am.AppBatteryExemptionTracker$UidStateEventWithBattery.update:(Lcom/android/server/am/AppBatteryExemptionTracker$UidStateEventWithBattery;Lcom/android/server/am/AppBatteryTracker$ImmutableBatteryUsage;)V</title>
<path fill="#fee2e2" stroke="#dc2626" d="M384,-268C384,-268 40,-268 40,-268 34,-268 28,-262 28,-256 28,-256 28,-244 28,-244 28,-238 34,-232 40,-232 40,-232 384,-232 384,-232 390,-232 396,-238 396,-244 396,-244 396,-256 396,-256 396,-262 390,-268 384,-268"/>
<text text-anchor="middle" x="212" y="-247.2" font-family="Helvetica,sans-Serif" font-size="11.00">AppBatteryExemptionTracker$UidStateEventWithBattery.update</text>
</g>
<!-- m::com.android.server.am.AppBatteryExemptionTracker$UidStateEventWithBattery.update:(Lcom/android/server/am/AppBatteryExemptionTracker$UidStateEventWithBattery;Lcom/android/server/am/AppBatteryTracker$ImmutableBatteryUsage;)V&#45;&gt;__field__ -->
<g id="edge2" class="edge">
<title>m::com.android.server.am.AppBatteryExemptionTracker$UidStateEventWithBattery.update:(Lcom/android/server/am/AppBatteryExemptionTracker$UidStateEventWithBattery;Lcom/android/server/am/AppBatteryTracker$ImmutableBatteryUsage;)V&#45;&gt;__field__</title>
<path fill="none" stroke="#dc2626" d="M349.31,-231.98C374.18,-228.48 399.88,-224.74 424,-221 500.51,-209.12 586.56,-194.19 652.29,-182.45"/>
<polygon fill="#dc2626" stroke="#dc2626" points="652.82,-185.2 660.2,-181.04 651.84,-179.69 652.82,-185.2"/>
<text text-anchor="middle" x="488" y="-218.8" font-family="Helvetica,sans-Serif" font-size="9.00" fill="#dc2626"> writes unguarded</text>
</g>
<!-- m::com.android.server.am.AppBatteryExemptionTracker$UidStateEventWithBattery.equals:(Ljava/lang/Object;)Z -->
<g id="node4" class="node">
<title>m::com.android.server.am.AppBatteryExemptionTracker$UidStateEventWithBattery.equals:(Ljava/lang/Object;)Z</title>
<path fill="#fee2e2" stroke="#dc2626" d="M383,-210C383,-210 41,-210 41,-210 35,-210 29,-204 29,-198 29,-198 29,-186 29,-186 29,-180 35,-174 41,-174 41,-174 383,-174 383,-174 389,-174 395,-180 395,-186 395,-186 395,-198 395,-198 395,-204 389,-210 383,-210"/>
<text text-anchor="middle" x="212" y="-189.2" font-family="Helvetica,sans-Serif" font-size="11.00">AppBatteryExemptionTracker$UidStateEventWithBattery.equals</text>
</g>
<!-- m::com.android.server.am.AppBatteryExemptionTracker$UidStateEventWithBattery.equals:(Ljava/lang/Object;)Z&#45;&gt;__field__ -->
<g id="edge3" class="edge">
<title>m::com.android.server.am.AppBatteryExemptionTracker$UidStateEventWithBattery.equals:(Ljava/lang/Object;)Z&#45;&gt;__field__</title>
<path fill="none" stroke="#dc2626" d="M395.19,-182.32C442.78,-179.8 494.52,-177.05 543.66,-174.44"/>
<polygon fill="#dc2626" stroke="#dc2626" points="544,-177.22 551.84,-174 543.7,-171.63 544,-177.22"/>
<text text-anchor="middle" x="488" y="-181.8" font-family="Helvetica,sans-Serif" font-size="9.00" fill="#dc2626"> reads unguarded</text>
</g>
<!-- m::com.android.server.am.AppBatteryExemptionTracker$UidStateEventWithBattery.getBatteryUsage:()Lcom/android/server/am/AppBatteryTracker$ImmutableBatteryUsage; -->
<g id="node5" class="node">
<title>m::com.android.server.am.AppBatteryExemptionTracker$UidStateEventWithBattery.getBatteryUsage:()Lcom/android/server/am/AppBatteryTracker$ImmutableBatteryUsage;</title>
<path fill="#fee2e2" stroke="#dc2626" d="M412,-152C412,-152 12,-152 12,-152 6,-152 0,-146 0,-140 0,-140 0,-128 0,-128 0,-122 6,-116 12,-116 12,-116 412,-116 412,-116 418,-116 424,-122 424,-128 424,-128 424,-140 424,-140 424,-146 418,-152 412,-152"/>
<text text-anchor="middle" x="212" y="-131.2" font-family="Helvetica,sans-Serif" font-size="11.00">AppBatteryExemptionTracker$UidStateEventWithBattery.getBatteryUsage</text>
</g>
<!-- m::com.android.server.am.AppBatteryExemptionTracker$UidStateEventWithBattery.getBatteryUsage:()Lcom/android/server/am/AppBatteryTracker$ImmutableBatteryUsage;&#45;&gt;__field__ -->
<g id="edge4" class="edge">
<title>m::com.android.server.am.AppBatteryExemptionTracker$UidStateEventWithBattery.getBatteryUsage:()Lcom/android/server/am/AppBatteryTracker$ImmutableBatteryUsage;&#45;&gt;__field__</title>
<path fill="none" stroke="#dc2626" d="M424.1,-145.21C463.18,-147.29 504.05,-149.46 543.27,-151.54"/>
<polygon fill="#dc2626" stroke="#dc2626" points="543.47,-154.36 551.61,-151.98 543.77,-148.76 543.47,-154.36"/>
<text text-anchor="middle" x="488" y="-152.8" font-family="Helvetica,sans-Serif" font-size="9.00" fill="#dc2626"> reads unguarded</text>
</g>
<!-- m::com.android.server.am.AppBatteryExemptionTracker$UidStateEventWithBattery.hashCode:()I -->
<g id="node6" class="node">
<title>m::com.android.server.am.AppBatteryExemptionTracker$UidStateEventWithBattery.hashCode:()I</title>
<path fill="#fee2e2" stroke="#dc2626" d="M392,-94C392,-94 32,-94 32,-94 26,-94 20,-88 20,-82 20,-82 20,-70 20,-70 20,-64 26,-58 32,-58 32,-58 392,-58 392,-58 398,-58 404,-64 404,-70 404,-70 404,-82 404,-82 404,-88 398,-94 392,-94"/>
<text text-anchor="middle" x="212" y="-73.2" font-family="Helvetica,sans-Serif" font-size="11.00">AppBatteryExemptionTracker$UidStateEventWithBattery.hashCode</text>
</g>
<!-- m::com.android.server.am.AppBatteryExemptionTracker$UidStateEventWithBattery.hashCode:()I&#45;&gt;__field__ -->
<g id="edge5" class="edge">
<title>m::com.android.server.am.AppBatteryExemptionTracker$UidStateEventWithBattery.hashCode:()I&#45;&gt;__field__</title>
<path fill="none" stroke="#dc2626" d="M349.31,-94.02C374.18,-97.52 399.88,-101.26 424,-105 500.51,-116.88 586.56,-131.81 652.29,-143.55"/>
<polygon fill="#dc2626" stroke="#dc2626" points="651.84,-146.31 660.2,-144.96 652.82,-140.8 651.84,-146.31"/>
<text text-anchor="middle" x="488" y="-123.8" font-family="Helvetica,sans-Serif" font-size="9.00" fill="#dc2626"> reads unguarded</text>
</g>
<!-- m::com.android.server.am.AppBatteryExemptionTracker$UidStateEventWithBattery.toString:()Ljava/lang/String; -->
<g id="node7" class="node">
<title>m::com.android.server.am.AppBatteryExemptionTracker$UidStateEventWithBattery.toString:()Ljava/lang/String;</title>
<path fill="#fee2e2" stroke="#dc2626" d="M387,-36C387,-36 37,-36 37,-36 31,-36 25,-30 25,-24 25,-24 25,-12 25,-12 25,-6 31,0 37,0 37,0 387,0 387,0 393,0 399,-6 399,-12 399,-12 399,-24 399,-24 399,-30 393,-36 387,-36"/>
<text text-anchor="middle" x="212" y="-15.2" font-family="Helvetica,sans-Serif" font-size="11.00">AppBatteryExemptionTracker$UidStateEventWithBattery.toString</text>
</g>
<!-- m::com.android.server.am.AppBatteryExemptionTracker$UidStateEventWithBattery.toString:()Ljava/lang/String;&#45;&gt;__field__ -->
<g id="edge6" class="edge">
<title>m::com.android.server.am.AppBatteryExemptionTracker$UidStateEventWithBattery.toString:()Ljava/lang/String;&#45;&gt;__field__</title>
<path fill="none" stroke="#dc2626" d="M369.77,-36.04C388.15,-39.19 406.56,-42.82 424,-47 527.1,-71.68 643.12,-115.66 708,-141.8"/>
<polygon fill="#dc2626" stroke="#dc2626" points="707.19,-144.49 715.65,-144.9 709.29,-139.3 707.19,-144.49"/>
<text text-anchor="middle" x="488" y="-78.8" font-family="Helvetica,sans-Serif" font-size="9.00" fill="#dc2626"> reads unguarded</text>
</g>
</g>
</svg>
