<?xml version="1.0" encoding="UTF-8" standalone="no"?>
<!DOCTYPE svg PUBLIC "-//W3C//DTD SVG 1.1//EN"
 "http://www.w3.org/Graphics/SVG/1.1/DTD/svg11.dtd">
<!-- Generated by graphviz version 2.43.0 (0)
 -->
<!-- Title: race Pages: 1 -->
<svg width="553pt" height="102pt"
 viewBox="0.00 0.00 553.00 102.00" xmlns="http://www.w3.org/2000/svg" xmlns:xlink="http://www.w3.org/1999/xlink">
<g id="graph0" class="graph" transform="scale(1 1) rotate(0) translate(4 98)">
<title>race</title>
<polygon fill="white" stroke="transparent" points="-4,4 -4,-98 549,-98 549,4 -4,4"/>
<!-- __field__ -->
<g id="node1" class="node">
<title>__field__</title>
<path fill="#fef9c3" stroke="#ca8a04" stroke-width="2" d="M533,-65C533,-65 328,-65 328,-65 322,-65 316,-59 316,-53 316,-53 316,-41 316,-41 316,-35 322,-29 328,-29 328,-29 533,-29 533,-29 539,-29 545,-35 545,-41 545,-41 545,-53 545,-53 545,-59 539,-65 533,-65"/>
<text text-anchor="middle" x="430.5" y="-44.2" font-family="Helvetica,sans-Serif" font-size="11.00">SpatializerHelper.mDynSensorCallback</text>
</g>
<!-- __guard__ -->
<g id="node2" class="node">
<title>__guard__</title>
<path fill="#dcfce7" stroke="#16a34a" stroke-width="2" d="M154,-94C154,-94 34,-94 34,-94 28,-94 22,-88 22,-82 22,-82 22,-70 22,-70 22,-64 28,-58 34,-58 34,-58 154,-58 154,-58 160,-58 166,-64 166,-70 166,-70 166,-82 166,-82 166,-88 160,-94 154,-94"/>
<text text-anchor="middle" x="94" y="-73.2" font-family="Helvetica,sans-Serif" font-size="11.00">audio.SpatializerHelper</text>
</g>
<!-- __guard__&#45;&gt;__field__ -->
<g id="edge1" class="edge">
<title>__guard__&#45;&gt;__field__</title>
<path fill="none" stroke="#16a34a" stroke-width="1.6" d="M166.35,-69.81C207.43,-66.25 260.17,-61.68 307.64,-57.56"/>
<polygon fill="#16a34a" stroke="#16a34a" stroke-width="1.6" points="308.09,-60.34 315.82,-56.86 307.61,-54.76 308.09,-60.34"/>
<text text-anchor="middle" x="252" y="-67.8" font-family="Helvetica,sans-Serif" font-size="9.00" fill="#15803d"> guards 2/3</text>
</g>
<!-- m::com.android.server.audio.SpatializerHelper.onInitSensors:()V -->
<g id="node3" class="node">
<title>m::com.android.server.audio.SpatializerHelper.onInitSensors:()V</title>
<path fill="#fee2e2" stroke="#dc2626" d="M176,-36C176,-36 12,-36 12,-36 6,-36 0,-30 0,-24 0,-24 0,-12 0,-12 0,-6 6,0 12,0 12,0 176,0 176,0 182,0 188,-6 188,-12 188,-12 188,-24 188,-24 188,-30 182,-36 176,-36"/>
<text text-anchor="middle" x="94" y="-15.2" font-family="Helvetica,sans-Serif" font-size="11.00">SpatializerHelper.onInitSensors</text>
</g>
<!-- m::com.android.server.audio.SpatializerHelper.onInitSensors:()V&#45;&gt;__field__ -->
<g id="edge2" class="edge">
<title>m::com.android.server.audio.SpatializerHelper.onInitSensors:()V&#45;&gt;__field__</title>
<path fill="none" stroke="#dc2626" d="M188.18,-26.08C225.08,-29.28 268.02,-33 307.36,-36.41"/>
<polygon fill="#dc2626" stroke="#dc2626" points="307.49,-39.23 315.7,-37.13 307.97,-33.65 307.49,-39.23"/>
<text text-anchor="middle" x="252" y="-37.8" font-family="Helvetica,sans-Serif" font-size="9.00" fill="#dc2626"> writes unguarded</text>
</g>
</g>
</svg>
