<?xml version="1.0" encoding="UTF-8" standalone="no"?>
<!DOCTYPE svg PUBLIC "-//W3C//DTD SVG 1.1//EN"
 "http://www.w3.org/Graphics/SVG/1.1/DTD/svg11.dtd">
<!-- Generated by graphviz version 2.43.0 (0)
 -->
<!-- Title: race Pages: 1 -->
<svg width="534pt" height="160pt"
 viewBox="0.00 0.00 534.00 160.00" xmlns="http://www.w3.org/2000/svg" xmlns:xlink="http://www.w3.org/1999/xlink">
<g id="graph0" class="graph" transform="scale(1 1) rotate(0) translate(4 156)">
<title>race</title>
<polygon fill="white" stroke="transparent" points="-4,4 -4,-156 530,-156 530,4 -4,4"/>
<!-- __field__ -->
<g id="node1" class="node">
<title>__field__</title>
<path fill="#fef9c3" stroke="#ca8a04" stroke-width="2" d="M514,-94C514,-94 343,-94 343,-94 337,-94 331,-88 331,-82 331,-82 331,-70 331,-70 331,-64 337,-58 343,-58 343,-58 514,-58 514,-58 520,-58 526,-64 526,-70 526,-70 526,-82 526,-82 526,-88 520,-94 514,-94"/>
<text text-anchor="middle" x="428.5" y="-73.2" font-family="Helvetica,sans-Serif" font-size="11.00">ProcessRecord.mOnewayThread</text>
</g>
<!-- __guard__ -->
<g id="node2" class="node">
<title>__guard__</title>
<path fill="#dcfce7" stroke="#16a34a" stroke-width="2" d="M173.5,-152C173.5,-152 29.5,-152 29.5,-152 23.5,-152 17.5,-146 17.5,-140 17.5,-140 17.5,-128 17.5,-128 17.5,-122 23.5,-116 29.5,-116 29.5,-116 173.5,-116 173.5,-116 179.5,-116 185.5,-122 185.5,-128 185.5,-128 185.5,-140 185.5,-140 185.5,-146 179.5,-152 173.5,-152"/>
<text text-anchor="middle" x="101.5" y="-131.2" font-family="Helvetica,sans-Serif" font-size="11.00">am.ActivityManagerService</text>
</g>
<!-- __guard__&#45;&gt;__field__ -->
<g id="edge1" class="edge">
<title>__guard__&#45;&gt;__field__</title>
<path fill="none" stroke="#16a34a" stroke-width="1.6" d="M185.77,-119.14C227.56,-111.68 278.59,-102.57 322.98,-94.65"/>
<polygon fill="#16a34a" stroke="#16a34a" stroke-width="1.6" points="323.52,-97.4 330.9,-93.24 322.53,-91.89 323.52,-97.4"/>
<text text-anchor="middle" x="267" y="-113.8" font-family="Helvetica,sans-Serif" font-size="9.00" fill="#15803d"> guards 2/3</text>
</g>
<!-- m::com.android.server.am.ProcessRecord.makeInactive:(Lcom/android/server/am/ProcessStatsService;)V -->
<g id="node3" class="node">
<title>m::com.android.server.am.ProcessRecord.makeInactive:(Lcom/android/server/am/ProcessStatsService;)V</title>
<path fill="#fee2e2" stroke="#dc2626" d="M177,-94C177,-94 26,-94 26,-94 20,-94 14,-88 14,-82 14,-82 14,-70 14,-70 14,-64 20,-58 26,-58 26,-58 177,-58 177,-58 183,-58 189,-64 189,-70 189,-70 189,-82 189,-82 189,-88 183,-94 177,-94"/>
<text text-anchor="middle" x="101.5" y="-73.2" font-family="Helvetica,sans-Serif" font-size="11.00">ProcessRecord.makeInactive</text>
</g>
<!-- m::com.android.server.am.ProcessRecord.makeInactive:(Lcom/android/server/am/ProcessStatsService;)V&#45;&gt;__field__ -->
<g id="edge2" class="edge">
<title>m::com.android.server.am.ProcessRecord.makeInactive:(Lcom/android/server/am/ProcessStatsService;)V&#45;&gt;__field__</title>
<path fill="none" stroke="#dc2626" d="M189.17,-76C230.15,-76 279.43,-76 322.52,-76"/>
<polygon fill="#dc2626" stroke="#dc2626" points="322.77,-78.8 330.77,-76 322.77,-73.2 322.77,-78.8"/>
<text text-anchor="middle" x="267" y="-78.8" font-family="Helvetica,sans-Serif" font-size="9.00" fill="#dc2626"> writes unguarded</text>
</g>
<!-- m::com.android.server.am.ProcessRecord.getOnewayThread:()Landroid/app/IApplicationThread; -->
<g id="node4" class="node">
<title>m::com.android.server.am.ProcessRecord.getOnewayThread:()Landroid/app/IApplicationThread;</title>
<path fill="#fee2e2" stroke="#dc2626" d="M191,-36C191,-36 12,-36 12,-36 6,-36 0,-30 0,-24 0,-24 0,-12 0,-12 0,-6 6,0 12,0 12,0 191,0 191,0 197,0 203,-6 203,-12 203,-12 203,-24 203,-24 203,-30 197,-36 191,-36"/>
<text text-anchor="middle" x="101.5" y="-15.2" font-family="Helvetica,sans-Serif" font-size="11.00">ProcessRecord.getOnewayThread</text>
</g>
<!-- m::com.android.server.am.ProcessRecord.getOnewayThread:()Landroid/app/IApplicationThread;&#45;&gt;__field__ -->
<g id="edge3" class="edge">
<title>m::com.android.server.am.ProcessRecord.getOnewayThread:()Landroid/app/IApplicationThread;&#45;&gt;__field__</title>
<path fill="none" stroke="#dc2626" d="M203.11,-35.95C241.14,-42.74 284.48,-50.48 322.87,-57.33"/>
<polygon fill="#dc2626" stroke="#dc2626" points="322.62,-60.13 330.98,-58.78 323.6,-54.61 322.62,-60.13"/>
<text text-anchor="middle" x="267" y="-55.8" font-family="Helvetica,sans-Serif" font-size="9.00" fill="#dc2626"> reads unguarded</text>
</g>
</g>
</svg>
