<?xml version="1.0" encoding="UTF-8" standalone="no"?>
<!DOCTYPE svg PUBLIC "-//W3C//DTD SVG 1.1//EN"
 "http://www.w3.org/Graphics/SVG/1.1/DTD/svg11.dtd">
<!-- Generated by graphviz version 2.43.0 (0)
 -->
<!-- Title: race Pages: 1 -->
<svg width="696pt" height="218pt"
 viewBox="0.00 0.00 696.00 218.00" xmlns="http://www.w3.org/2000/svg" xmlns:xlink="http://www.w3.org/1999/xlink">
<g id="graph0" class="graph" transform="scale(1 1) rotate(0) translate(4 214)">
<title>race</title>
<polygon fill="white" stroke="transparent" points="-4,4 -4,-214 692,-214 692,4 -4,4"/>
<!-- __field__ -->
<g id="node1" class="node">
<title>__field__</title>
<path fill="#fef9c3" stroke="#ca8a04" stroke-width="2" d="M676,-123C676,-123 482,-123 482,-123 476,-123 470,-117 470,-111 470,-111 470,-99 470,-99 470,-93 476,-87 482,-87 482,-87 676,-87 676,-87 682,-87 688,-93 688,-99 688,-99 688,-111 688,-111 688,-117 682,-123 676,-123"/>
<text text-anchor="middle" x="579" y="-102.2" font-family="Helvetica,sans-Serif" font-size="11.00">SyncStatusInfo$Stats.numSourcePoll</text>
</g>
<!-- __guard__ -->
<g id="node2" class="node">
<title>__guard__</title>
<path fill="#dcfce7" stroke="#16a34a" stroke-width="2" d="M257.5,-210C257.5,-210 84.5,-210 84.5,-210 78.5,-210 72.5,-204 72.5,-198 72.5,-198 72.5,-186 72.5,-186 72.5,-180 78.5,-174 84.5,-174 84.5,-174 257.5,-174 257.5,-174 263.5,-174 269.5,-180 269.5,-186 269.5,-186 269.5,-198 269.5,-198 269.5,-204 263.5,-210 257.5,-210"/>
<text text-anchor="middle" x="171" y="-189.2" font-family="Helvetica,sans-Serif" font-size="11.00">SyncStorageEngine.mAuthorities</text>
</g>
<!-- __guard__&#45;&gt;__field__ -->
<g id="edge1" class="edge">
<title>__guard__&#45;&gt;__field__</title>
<path fill="none" stroke="#16a34a" stroke-width="1.6" d="M269.77,-176.56C293.47,-172.48 318.7,-167.84 342,-163 395.89,-151.8 456.14,-136.95 502.27,-125.08"/>
<polygon fill="#16a34a" stroke="#16a34a" stroke-width="1.6" points="503.09,-127.76 510.13,-123.05 501.69,-122.34 503.09,-127.76"/>
<text text-anchor="middle" x="406" y="-159.8" font-family="Helvetica,sans-Serif" font-size="9.00" fill="#15803d"> guards 2/3</text>
</g>
<!-- m::com.android.server.content.SyncStorageEngine.readSyncStatusStatsLocked:(Landroid/util/proto/ProtoInputStream;Landroid/content/SyncStatusInfo$Stats;)V -->
<g id="node3" class="node">
<title>m::com.android.server.content.SyncStorageEngine.readSyncStatusStatsLocked:(Landroid/util/proto/ProtoInputStream;Landroid/content/SyncStatusInfo$Stats;)V</title>
<path fill="#fee2e2" stroke="#dc2626" d="M298.5,-152C298.5,-152 43.5,-152 43.5,-152 37.5,-152 31.5,-146 31.5,-140 31.5,-140 31.5,-128 31.5,-128 31.5,-122 37.5,-116 43.5,-116 43.5,-116 298.5,-116 298.5,-116 304.5,-116 310.5,-122 310.5,-128 310.5,-128 310.5,-140 310.5,-140 310.5,-146 304.5,-152 298.5,-152"/>
<text text-anchor="middle" x="171" y="-131.2" font-family="Helvetica,sans-Serif" font-size="11.00">SyncStorageEngine.readSyncStatusStatsLocked</text>
</g>
<!-- m::com.android.server.content.SyncStorageEngine.readSyncStatusStatsLocked:(Landroid/util/proto/ProtoInputStream;Landroid/content/SyncStatusInfo$Stats;)V&#45;&gt;__field__ -->
<g id="edge2" class="edge">
<title>m::com.android.server.content.SyncStorageEngine.readSyncStatusStatsLocked:(Landroid/util/proto/ProtoInputStream;Landroid/content/SyncStatusInfo$Stats;)V&#45;&gt;__field__</title>
<path fill="none" stroke="#dc2626" d="M310.59,-124.1C359.77,-120.59 414.59,-116.67 461.72,-113.31"/>
<polygon fill="#dc2626" stroke="#dc2626" points="462.04,-116.09 469.82,-112.73 461.64,-110.5 462.04,-116.09"/>
<text text-anchor="middle" x="406" y="-121.8" font-family="Helvetica,sans-Serif" font-size="9.00" fill="#dc2626"> writes unguarded</text>
</g>
<!-- m::com.android.server.content.SyncManager.$r8$lambda$O&#45;rCqIKduPt_pMNS4QFjC5FeAVA:(Ljava/lang/StringBuilder;Lcom/android/server/content/SyncManager$PrintTable;Ljava/lang/String;Landroid/content/SyncStatusInfo$Stats;Ljava/util/function/Function;Ljava/lang/Integer;)V -->
<g id="node4" class="node">
<title>m::com.android.server.content.SyncManager.$r8$lambda$O&#45;rCqIKduPt_pMNS4QFjC5FeAVA:(Ljava/lang/StringBuilder;Lcom/android/server/content/SyncManager$PrintTable;Ljava/lang/String;Landroid/content/SyncStatusInfo$Stats;Ljava/util/function/Function;Ljava/lang/Integer;)V</title>
<path fill="#fee2e2" stroke="#dc2626" d="M330,-94C330,-94 12,-94 12,-94 6,-94 0,-88 0,-82 0,-82 0,-70 0,-70 0,-64 6,-58 12,-58 12,-58 330,-58 330,-58 336,-58 342,-64 342,-70 342,-70 342,-82 342,-82 342,-88 336,-94 330,-94"/>
<text text-anchor="middle" x="171" y="-73.2" font-family="Helvetica,sans-Serif" font-size="11.00">SyncManager.$r8$lambda$O&#45;rCqIKduPt_pMNS4QFjC5FeAVA</text>
</g>
<!-- m::com.android.server.content.SyncManager.$r8$lambda$O&#45;rCqIKduPt_pMNS4QFjC5FeAVA:(Ljava/lang/StringBuilder;Lcom/android/server/content/SyncManager$PrintTable;Ljava/lang/String;Landroid/content/SyncStatusInfo$Stats;Ljava/util/function/Function;Ljava/lang/Integer;)V&#45;&gt;__field__ -->
<g id="edge3" class="edge">
<title>m::com.android.server.content.SyncManager.$r8$lambda$O&#45;rCqIKduPt_pMNS4QFjC5FeAVA:(Ljava/lang/StringBuilder;Lcom/android/server/content/SyncManager$PrintTable;Ljava/lang/String;Landroid/content/SyncStatusInfo$Stats;Ljava/util/function/Function;Ljava/lang/Integer;)V&#45;&gt;__field__</title>
<path fill="none" stroke="#dc2626" d="M342.12,-88.15C382.3,-91.02 424.24,-94.02 461.42,-96.67"/>
<polygon fill="#dc2626" stroke="#dc2626" points="461.59,-99.49 469.77,-97.27 461.99,-93.91 461.59,-99.49"/>
<text text-anchor="middle" x="406" y="-97.8" font-family="Helvetica,sans-Serif" font-size="9.00" fill="#dc2626"> reads unguarded</text>
</g>
<!-- m::com.android.server.content.SyncStorageEngine.writeStatusStatsLocked:(Landroid/util/proto/ProtoOutputStream;Landroid/content/SyncStatusInfo$Stats;)V -->
<g id="node5" class="node">
<title>m::com.android.server.content.SyncStorageEngine.writeStatusStatsLocked:(Landroid/util/proto/ProtoOutputStream;Landroid/content/SyncStatusInfo$Stats;)V</title>
<path fill="#fee2e2" stroke="#dc2626" d="M287,-36C287,-36 55,-36 55,-36 49,-36 43,-30 43,-24 43,-24 43,-12 43,-12 43,-6 49,0 55,0 55,0 287,0 287,0 293,0 299,-6 299,-12 299,-12 299,-24 299,-24 299,-30 293,-36 287,-36"/>
<text text-anchor="middle" x="171" y="-15.2" font-family="Helvetica,sans-Serif" font-size="11.00">SyncStorageEngine.writeStatusStatsLocked</text>
</g>
<!-- m::com.android.server.content.SyncStorageEngine.writeStatusStatsLocked:(Landroid/util/proto/ProtoOutputStream;Landroid/content/SyncStatusInfo$Stats;)V&#45;&gt;__field__ -->
<g id="edge4" class="edge">
<title>m::com.android.server.content.SyncStorageEngine.writeStatusStatsLocked:(Landroid/util/proto/ProtoOutputStream;Landroid/content/SyncStatusInfo$Stats;)V&#45;&gt;__field__</title>
<path fill="none" stroke="#dc2626" d="M284.69,-36.05C303.86,-39.45 323.53,-43.16 342,-47 395.89,-58.2 456.14,-73.05 502.27,-84.92"/>
<polygon fill="#dc2626" stroke="#dc2626" points="501.69,-87.66 510.13,-86.95 503.09,-82.24 501.69,-87.66"/>
<text text-anchor="middle" x="406" y="-72.8" font-family="Helvetica,sans-Serif" font-size="9.00" fill="#dc2626"> reads unguarded</text>
</g>
</g>
</svg>
