<?xml version="1.0" encoding="UTF-8" standalone="no"?>
<!DOCTYPE svg PUBLIC "-//W3C//DTD SVG 1.1//EN"
 "http://www.w3.org/Graphics/SVG/1.1/DTD/svg11.dtd">
<!-- Generated by graphviz version 2.43.0 (0)
 -->
<!-- Title: race Pages: 1 -->
<svg width="627pt" height="276pt"
 viewBox="0.00 0.00 627.00 276.00" xmlns="http://www.w3.org/2000/svg" xmlns:xlink="http://www.w3.org/1999/xlink">
<g id="graph0" class="graph" transform="scale(1 1) rotate(0) translate(4 272)">
<title>race</title>
<polygon fill="white" stroke="transparent" points="-4,4 -4,-272 623,-272 623,4 -4,4"/>
<!-- __field__ -->
<g id="node1" class="node">
<title>__field__</title>
<path fill="#fef9c3" stroke="#ca8a04" stroke-width="2" d="M607,-152C607,-152 451,-152 451,-152 445,-152 439,-146 439,-140 439,-140 439,-128 439,-128 439,-122 445,-116 451,-116 451,-116 607,-116 607,-116 613,-116 619,-122 619,-128 619,-128 619,-140 619,-140 619,-146 613,-152 607,-152"/>
<text text-anchor="middle" x="529" y="-131.2" font-family="Helvetica,sans-Serif" font-size="11.00">ActiveAdmin.globalProxySpec</text>
</g>
<!-- __guard__ -->
<g id="node2" class="node">
<title>__guard__</title>
<path fill="#dcfce7" stroke="#16a34a" stroke-width="2" d="M297,-268C297,-268 14,-268 14,-268 8,-268 2,-262 2,-256 2,-256 2,-244 2,-244 2,-238 8,-232 14,-232 14,-232 297,-232 297,-232 303,-232 309,-238 309,-244 309,-244 309,-256 309,-256 309,-262 303,-268 297,-268"/>
<text text-anchor="middle" x="155.5" y="-247.2" font-family="Helvetica,sans-Serif" font-size="11.00">DevicePolicyManagerService.mLockDoNoUseDirectly</text>
</g>
<!-- __guard__&#45;&gt;__field__ -->
<g id="edge1" class="edge">
<title>__guard__&#45;&gt;__field__</title>
<path fill="none" stroke="#16a34a" stroke-width="1.6" d="M267.26,-231.93C282.07,-228.73 296.98,-225.08 311,-221 371.66,-203.33 438.78,-174.99 482.07,-155.48"/>
<polygon fill="#16a34a" stroke="#16a34a" stroke-width="1.6" points="483.48,-157.92 489.61,-152.06 481.17,-152.82 483.48,-157.92"/>
<text text-anchor="middle" x="375" y="-215.8" font-family="Helvetica,sans-Serif" font-size="9.00" fill="#15803d"> guards 2/3</text>
</g>
<!-- m::com.android.server.devicepolicy.ActiveAdmin.readFromXml:(Lcom/android/modules/utils/TypedXmlPullParser;Z)V -->
<g id="node3" class="node">
<title>m::com.android.server.devicepolicy.ActiveAdmin.readFromXml:(Lcom/android/modules/utils/TypedXmlPullParser;Z)V</title>
<path fill="#fee2e2" stroke="#dc2626" d="M224.5,-210C224.5,-210 86.5,-210 86.5,-210 80.5,-210 74.5,-204 74.5,-198 74.5,-198 74.5,-186 74.5,-186 74.5,-180 80.5,-174 86.5,-174 86.5,-174 224.5,-174 224.5,-174 230.5,-174 236.5,-180 236.5,-186 236.5,-186 236.5,-198 236.5,-198 236.5,-204 230.5,-210 224.5,-210"/>
<text text-anchor="middle" x="155.5" y="-189.2" font-family="Helvetica,sans-Serif" font-size="11.00">ActiveAdmin.readFromXml</text>
</g>
<!-- m::com.android.server.devicepolicy.ActiveAdmin.readFromXml:(Lcom/android/modules/utils/TypedXmlPullParser;Z)V&#45;&gt;__field__ -->
<g id="edge2" class="edge">
<title>m::com.android.server.devicepolicy.ActiveAdmin.readFromXml:(Lcom/android/modules/utils/TypedXmlPullParser;Z)V&#45;&gt;__field__</title>
<path fill="none" stroke="#dc2626" d="M236.65,-179.49C293.61,-170.59 370.39,-158.61 430.84,-149.17"/>
<polygon fill="#dc2626" stroke="#dc2626" points="431.41,-151.91 438.88,-147.91 430.54,-146.38 431.41,-151.91"/>
<text text-anchor="middle" x="375" y="-165.8" font-family="Helvetica,sans-Serif" font-size="9.00" fill="#dc2626"> writes unguarded</text>
</g>
<!-- m::com.android.server.devicepolicy.ActiveAdmin.dump:(Landroid/util/IndentingPrintWriter;)V -->
<g id="node4" class="node">
<title>m::com.android.server.devicepolicy.ActiveAdmin.dump:(Landroid/util/IndentingPrintWriter;)V</title>
<path fill="#fee2e2" stroke="#dc2626" d="M203.5,-152C203.5,-152 107.5,-152 107.5,-152 101.5,-152 95.5,-146 95.5,-140 95.5,-140 95.5,-128 95.5,-128 95.5,-122 101.5,-116 107.5,-116 107.5,-116 203.5,-116 203.5,-116 209.5,-116 215.5,-122 215.5,-128 215.5,-128 215.5,-140 215.5,-140 215.5,-146 209.5,-152 203.5,-152"/>
<text text-anchor="middle" x="155.5" y="-131.2" font-family="Helvetica,sans-Serif" font-size="11.00">ActiveAdmin.dump</text>
</g>
<!-- m::com.android.server.devicepolicy.ActiveAdmin.dump:(Landroid/util/IndentingPrintWriter;)V&#45;&gt;__field__ -->
<g id="edge3" class="edge">
<title>m::com.android.server.devicepolicy.ActiveAdmin.dump:(Landroid/util/IndentingPrintWriter;)V&#45;&gt;__field__</title>
<path fill="none" stroke="#dc2626" d="M215.78,-134C273.55,-134 362.42,-134 430.59,-134"/>
<polygon fill="#dc2626" stroke="#dc2626" points="430.79,-136.8 438.79,-134 430.79,-131.2 430.79,-136.8"/>
<text text-anchor="middle" x="375" y="-136.8" font-family="Helvetica,sans-Serif" font-size="9.00" fill="#dc2626"> reads unguarded</text>
</g>
<!-- m::com.android.server.devicepolicy.ActiveAdmin.dump:(Landroid/util/IndentingPrintWriter;)V&#45;&gt;__field__ -->
<g id="edge4" class="edge">
<title>m::com.android.server.devicepolicy.ActiveAdmin.dump:(Landroid/util/IndentingPrintWriter;)V&#45;&gt;__field__</title>
<path fill="none" stroke="#dc2626" d="M215.75,-126.38C268.56,-120.59 347.96,-114.36 417,-119 421.43,-119.3 425.94,-119.66 430.5,-120.08"/>
<polygon fill="#dc2626" stroke="#dc2626" points="430.51,-122.89 438.74,-120.88 431.05,-117.32 430.51,-122.89"/>
<text text-anchor="middle" x="375" y="-121.8" font-family="Helvetica,sans-Serif" font-size="9.00" fill="#dc2626"> reads unguarded</text>
</g>
<!-- m::com.android.server.devicepolicy.ActiveAdmin.writeToXml:(Lcom/android/modules/utils/TypedXmlSerializer;)V -->
<g id="node5" class="node">
<title>m::com.android.server.devicepolicy.ActiveAdmin.writeToXml:(Lcom/android/modules/utils/TypedXmlSerializer;)V</title>
<path fill="#fee2e2" stroke="#dc2626" d="M218,-94C218,-94 93,-94 93,-94 87,-94 81,-88 81,-82 81,-82 81,-70 81,-70 81,-64 87,-58 93,-58 93,-58 218,-58 218,-58 224,-58 230,-64 230,-70 230,-70 230,-82 230,-82 230,-88 224,-94 218,-94"/>
<text text-anchor="middle" x="155.5" y="-73.2" font-family="Helvetica,sans-Serif" font-size="11.00">ActiveAdmin.writeToXml</text>
</g>
<!-- m::com.android.server.devicepolicy.ActiveAdmin.writeToXml:(Lcom/android/modules/utils/TypedXmlSerializer;)V&#45;&gt;__field__ -->
<g id="edge5" class="edge">
<title>m::com.android.server.devicepolicy.ActiveAdmin.writeToXml:(Lcom/android/modules/utils/TypedXmlSerializer;)V&#45;&gt;__field__</title>
<path fill="none" stroke="#dc2626" d="M230.28,-79.79C282.72,-83.35 354.63,-90 417,-102 432.68,-105.02 449.35,-109.25 464.86,-113.66"/>
<polygon fill="#dc2626" stroke="#dc2626" points="464.4,-116.44 472.86,-115.97 465.96,-111.06 464.4,-116.44"/>
<text text-anchor="middle" x="375" y="-104.8" font-family="Helvetica,sans-Serif" font-size="9.00" fill="#dc2626"> reads unguarded</text>
</g>
<!-- m::com.android.server.devicepolicy.DevicePolicyManagerService.resetGlobalProxyLocked:(Lcom/android/server/devicepolicy/DevicePolicyData;)V -->
<g id="node6" class="node">
<title>m::com.android.server.devicepolicy.DevicePolicyManagerService.resetGlobalProxyLocked:(Lcom/android/server/devicepolicy/DevicePolicyData;)V</title>
<path fill="#fee2e2" stroke="#dc2626" d="M299,-36C299,-36 12,-36 12,-36 6,-36 0,-30 0,-24 0,-24 0,-12 0,-12 0,-6 6,0 12,0 12,0 299,0 299,0 305,0 311,-6 311,-12 311,-12 311,-24 311,-24 311,-30 305,-36 299,-36"/>
<text text-anchor="middle" x="155.5" y="-15.2" font-family="Helvetica,sans-Serif" font-size="11.00">DevicePolicyManagerService.resetGlobalProxyLocked</text>
</g>
<!-- m::com.android.server.devicepolicy.DevicePolicyManagerService.resetGlobalProxyLocked:(Lcom/android/server/devicepolicy/DevicePolicyData;)V&#45;&gt;__field__ -->
<g id="edge6" class="edge">
<title>m::com.android.server.devicepolicy.DevicePolicyManagerService.resetGlobalProxyLocked:(Lcom/android/server/devicepolicy/DevicePolicyData;)V&#45;&gt;__field__</title>
<path fill="none" stroke="#dc2626" d="M279.49,-36.03C323.75,-44.69 373.48,-57 417,-74 443.21,-84.24 471.07,-99.32 492.32,-111.79"/>
<polygon fill="#dc2626" stroke="#dc2626" points="490.96,-114.24 499.27,-115.91 493.82,-109.42 490.96,-114.24"/>
<text text-anchor="middle" x="375" y="-76.8" font-family="Helvetica,sans-Serif" font-size="9.00" fill="#dc2626"> reads unguarded</text>
</g>
</g>
</svg>
