<?xml version="1.0" encoding="UTF-8" standalone="no"?>
<!DOCTYPE svg PUBLIC "-//W3C//DTD SVG 1.1//EN"
 "http://www.w3.org/Graphics/SVG/1.1/DTD/svg11.dtd">
<!-- Generated by graphviz version 2.43.0 (0)
 -->
<!-- Title: race Pages: 1 -->
<svg width="748pt" height="102pt"
 viewBox="0.00 0.00 748.00 102.00" xmlns="http://www.w3.org/2000/svg" xmlns:xlink="http://www.w3.org/1999/xlink">
<g id="graph0" class="graph" transform="scale(1 1) rotate(0) translate(4 98)">
<title>race</title>
<polygon fill="white" stroke="transparent" points="-4,4 -4,-98 744,-98 744,4 -4,4"/>
<!-- __field__ -->
<g id="node1" class="node">
<title>__field__</title>
<path fill="#fef9c3" stroke="#ca8a04" stroke-width="2" d="M728,-65C728,-65 425,-65 425,-65 419,-65 413,-59 413,-53 413,-53 413,-41 413,-41 413,-35 419,-29 425,-29 425,-29 728,-29 728,-29 734,-29 740,-35 740,-41 740,-41 740,-53 740,-53 740,-59 734,-65 728,-65"/>
<text text-anchor="middle" x="576.5" y="-44.2" font-family="Helvetica,sans-Serif" font-size="11.00">ComprehensiveCountryDetector.mLocationRefreshTimer</text>
</g>
<!-- __guard__ -->
<g id="node2" class="node">
<title>__guard__</title>
<path fill="#dcfce7" stroke="#16a34a" stroke-width="2" d="M273,-94C273,-94 12,-94 12,-94 6,-94 0,-88 0,-82 0,-82 0,-70 0,-70 0,-64 6,-58 12,-58 12,-58 273,-58 273,-58 279,-58 285,-64 285,-70 285,-70 285,-82 285,-82 285,-88 279,-94 273,-94"/>
<text text-anchor="middle" x="142.5" y="-73.2" font-family="Helvetica,sans-Serif" font-size="11.00">countrydetector.ComprehensiveCountryDetector</text>
</g>
<!-- __guard__&#45;&gt;__field__ -->
<g id="edge1" class="edge">
<title>__guard__&#45;&gt;__field__</title>
<path fill="none" stroke="#16a34a" stroke-width="1.6" d="M285.25,-66.48C323.38,-63.92 365.01,-61.13 404.54,-58.48"/>
<polygon fill="#16a34a" stroke="#16a34a" stroke-width="1.6" points="405.15,-61.24 412.95,-57.91 404.78,-55.65 405.15,-61.24"/>
<text text-anchor="middle" x="349" y="-66.8" font-family="Helvetica,sans-Serif" font-size="9.00" fill="#15803d"> guards 2/3</text>
</g>
<!-- m::com.android.server.location.countrydetector.ComprehensiveCountryDetector$3.run:()V -->
<g id="node3" class="node">
<title>m::com.android.server.location.countrydetector.ComprehensiveCountryDetector$3.run:()V</title>
<path fill="#fee2e2" stroke="#dc2626" d="M245,-36C245,-36 40,-36 40,-36 34,-36 28,-30 28,-24 28,-24 28,-12 28,-12 28,-6 34,0 40,0 40,0 245,0 245,0 251,0 257,-6 257,-12 257,-12 257,-24 257,-24 257,-30 251,-36 245,-36"/>
<text text-anchor="middle" x="142.5" y="-15.2" font-family="Helvetica,sans-Serif" font-size="11.00">ComprehensiveCountryDetector$3.run</text>
</g>
<!-- m::com.android.server.location.countrydetector.ComprehensiveCountryDetector$3.run:()V&#45;&gt;__field__ -->
<g id="edge2" class="edge">
<title>m::com.android.server.location.countrydetector.ComprehensiveCountryDetector$3.run:()V&#45;&gt;__field__</title>
<path fill="none" stroke="#dc2626" d="M257,-25.62C302.11,-28.65 354.99,-32.2 404.55,-35.52"/>
<polygon fill="#dc2626" stroke="#dc2626" points="404.63,-38.34 412.8,-36.08 405.01,-32.75 404.63,-38.34"/>
<text text-anchor="middle" x="349" y="-36.8" font-family="Helvetica,sans-Serif" font-size="9.00" fill="#dc2626"> writes unguarded</text>
</g>
</g>
</svg>
