<?xml version="1.0" encoding="UTF-8" standalone="no"?>
<!DOCTYPE svg PUBLIC "-//W3C//DTD SVG 1.1//EN"
 "http://www.w3.org/Graphics/SVG/1.1/DTD/svg11.dtd">
<!-- Generated by graphviz version 2.43.0 (0)
 -->
<!-- Title: race Pages: 1 -->
<svg width="494pt" height="110pt"
 viewBox="0.00 0.00 494.00 110.00" xmlns="http://www.w3.org/2000/svg" xmlns:xlink="http://www.w3.org/1999/xlink">
<g id="graph0" class="graph" transform="scale(1 1) rotate(0) translate(4 106)">
<title>race</title>
<polygon fill="white" stroke="transparent" points="-4,4 -4,-106 490,-106 490,4 -4,4"/>
<!-- __field__ -->
<g id="node1" class="node">
<title>__field__</title>
<path fill="#fef9c3" stroke="#ca8a04" stroke-width="2" d="M474,-65C474,-65 367,-65 367,-65 361,-65 355,-59 355,-53 355,-53 355,-41 355,-41 355,-35 361,-29 367,-29 367,-29 474,-29 474,-29 480,-29 486,-35 486,-41 486,-41 486,-53 486,-53 486,-59 480,-65 474,-65"/>
<text text-anchor="middle" x="420.5" y="-44.2" font-family="Helvetica,sans-Serif" font-size="11.00">ProcessStats.mFlags</text>
</g>
<!-- __guard__ -->
<g id="node2" class="node">
<title>__guard__</title>
<path fill="#dcfce7" stroke="#16a34a" stroke-width="2" d="M185,-102C185,-102 42,-102 42,-102 36,-102 30,-96 30,-90 30,-90 30,-78 30,-78 30,-72 36,-66 42,-66 42,-66 185,-66 185,-66 191,-66 197,-72 197,-78 197,-78 197,-90 197,-90 197,-96 191,-102 185,-102"/>
<text text-anchor="middle" x="113.5" y="-81.2" font-family="Helvetica,sans-Serif" font-size="11.00">ProcessStatsService.mLock</text>
</g>
<!-- __guard__&#45;&gt;__field__ -->
<g id="edge1" class="edge">
<title>__guard__&#45;&gt;__field__</title>
<path fill="none" stroke="#16a34a" stroke-width="1.6" d="M197.04,-73.99C243.8,-68.31 301.78,-61.28 346.82,-55.82"/>
<polygon fill="#16a34a" stroke="#16a34a" stroke-width="1.6" points="347.18,-58.59 354.78,-54.85 346.5,-53.03 347.18,-58.59"/>
<text text-anchor="middle" x="291" y="-68.8" font-family="Helvetica,sans-Serif" font-size="9.00" fill="#15803d"> guards 3/4</text>
</g>
<!-- m::com.android.server.am.ProcessStatsService.writeStateLocked:(ZZ)V -->
<g id="node3" class="node">
<title>m::com.android.server.am.ProcessStatsService.writeStateLocked:(ZZ)V</title>
<path fill="#fee2e2" stroke="#dc2626" d="M215,-36C215,-36 12,-36 12,-36 6,-36 0,-30 0,-24 0,-24 0,-12 0,-12 0,-6 6,0 12,0 12,0 215,0 215,0 221,0 227,-6 227,-12 227,-12 227,-24 227,-24 227,-30 221,-36 215,-36"/>
<text text-anchor="middle" x="113.5" y="-15.2" font-family="Helvetica,sans-Serif" font-size="11.00">ProcessStatsService.writeStateLocked</text>
</g>
<!-- m::com.android.server.am.ProcessStatsService.writeStateLocked:(ZZ)V&#45;&gt;__field__ -->
<g id="edge2" class="edge">
<title>m::com.android.server.am.ProcessStatsService.writeStateLocked:(ZZ)V&#45;&gt;__field__</title>
<path fill="none" stroke="#dc2626" d="M227.2,-28.72C266.95,-32.5 310.57,-36.64 346.21,-40.03"/>
<polygon fill="#dc2626" stroke="#dc2626" points="346.39,-42.86 354.62,-40.83 346.92,-37.29 346.39,-42.86"/>
<text text-anchor="middle" x="291" y="-40.8" font-family="Helvetica,sans-Serif" font-size="9.00" fill="#dc2626"> writes unguarded</text>
</g>
<!-- m::com.android.server.am.ProcessStatsService.writeStateLocked:(ZZ)V&#45;&gt;__field__ -->
<g id="edge3" class="edge">
<title>m::com.android.server.am.ProcessStatsService.writeStateLocked:(ZZ)V&#45;&gt;__field__</title>
<path fill="none" stroke="#dc2626" d="M227.13,-9.22C261.34,-8.63 298.89,-10.07 333,-16 345.38,-18.15 358.32,-21.91 370.32,-26.09"/>
<polygon fill="#dc2626" stroke="#dc2626" points="369.58,-28.8 378.05,-28.88 371.48,-23.53 369.58,-28.8"/>
<text text-anchor="middle" x="291" y="-18.8" font-family="Helvetica,sans-Serif" font-size="9.00" fill="#dc2626"> reads unguarded</text>
</g>
</g>
</svg>
