<?xml version="1.0" encoding="UTF-8" standalone="no"?>
<!DOCTYPE svg PUBLIC "-//W3C//DTD SVG 1.1//EN"
 "http://www.w3.org/Graphics/SVG/1.1/DTD/svg11.dtd">
<!-- Generated by graphviz version 2.43.0 (0)
 -->
<!-- Title: race Pages: 1 -->
<svg width="634pt" height="229pt"
 viewBox="0.00 0.00 634.00 229.00" xmlns="http://www.w3.org/2000/svg" xmlns:xlink="http://www.w3.org/1999/xlink">
<g id="graph0" class="graph" transform="scale(1 1) rotate(0) translate(4 225)">
<title>race</title>
<polygon fill="white" stroke="transparent" points="-4,4 -4,-225 630,-225 630,4 -4,4"/>
<!-- __field__ -->
<g id="node1" class="node">
<title>__field__</title>
<path fill="#fef9c3" stroke="#ca8a04" stroke-width="2" d="M614,-128C614,-128 420,-128 420,-128 414,-128 408,-122 408,-116 408,-116 408,-104 408,-104 408,-98 414,-92 420,-92 420,-92 614,-92 614,-92 620,-92 626,-98 626,-104 626,-104 626,-116 626,-116 626,-122 620,-128 614,-128"/>
<text text-anchor="middle" x="517" y="-107.2" font-family="Helvetica,sans-Serif" font-size="11.00">VoteSummary.maxRenderFrameRate</text>
</g>
<!-- __guard__ -->
<g id="node2" class="node">
<title>__guard__</title>
<path fill="#dcfce7" stroke="#16a34a" stroke-width="2" d="M213,-221C213,-221 67,-221 67,-221 61,-221 55,-215 55,-209 55,-209 55,-197 55,-197 55,-191 61,-185 67,-185 67,-185 213,-185 213,-185 219,-185 225,-191 225,-197 225,-197 225,-209 225,-209 225,-215 219,-221 213,-221"/>
<text text-anchor="middle" x="140" y="-200.2" font-family="Helvetica,sans-Serif" font-size="11.00">DisplayModeDirector.mLock</text>
</g>
<!-- __guard__&#45;&gt;__field__ -->
<g id="edge1" class="edge">
<title>__guard__&#45;&gt;__field__</title>
<path fill="none" stroke="#16a34a" stroke-width="1.6" d="M225.24,-192.33C272.92,-185.27 333.36,-174.6 386,-160 413.54,-152.36 443.37,-141.12 467.5,-131.23"/>
<polygon fill="#16a34a" stroke="#16a34a" stroke-width="1.6" points="468.8,-133.72 475.12,-128.07 466.66,-128.54 468.8,-133.72"/>
<text text-anchor="middle" x="344" y="-180.8" font-family="Helvetica,sans-Serif" font-size="9.00" fill="#15803d"> guards 5/7</text>
</g>
<!-- m::com.android.server.display.mode.RefreshRateVote$PhysicalVote.updateSummary:(Lcom/android/server/display/mode/VoteSummary;)V -->
<g id="node3" class="node">
<title>m::com.android.server.display.mode.RefreshRateVote$PhysicalVote.updateSummary:(Lcom/android/server/display/mode/VoteSummary;)V</title>
<path fill="#fee2e2" stroke="#dc2626" d="M268,-160C268,-160 12,-160 12,-160 6,-160 0,-154 0,-148 0,-148 0,-136 0,-136 0,-130 6,-124 12,-124 12,-124 268,-124 268,-124 274,-124 280,-130 280,-136 280,-136 280,-148 280,-148 280,-154 274,-160 268,-160"/>
<text text-anchor="middle" x="140" y="-139.2" font-family="Helvetica,sans-Serif" font-size="11.00">RefreshRateVote$PhysicalVote.updateSummary</text>
</g>
<!-- m::com.android.server.display.mode.RefreshRateVote$PhysicalVote.updateSummary:(Lcom/android/server/display/mode/VoteSummary;)V&#45;&gt;__field__ -->
<g id="edge2" class="edge">
<title>m::com.android.server.display.mode.RefreshRateVote$PhysicalVote.updateSummary:(Lcom/android/server/display/mode/VoteSummary;)V&#45;&gt;__field__</title>
<path fill="none" stroke="#dc2626" d="M280.29,-146.13C314.92,-145.71 351.89,-144.03 386,-140 404.62,-137.8 424.46,-134 442.89,-129.82"/>
<polygon fill="#dc2626" stroke="#dc2626" points="443.53,-132.54 450.69,-128.01 442.26,-127.09 443.53,-132.54"/>
<text text-anchor="middle" x="344" y="-147.8" font-family="Helvetica,sans-Serif" font-size="9.00" fill="#dc2626"> writes unguarded</text>
</g>
<!-- m::com.android.server.display.mode.RefreshRateVote$PhysicalVote.updateSummary:(Lcom/android/server/display/mode/VoteSummary;)V&#45;&gt;__field__ -->
<g id="edge4" class="edge">
<title>m::com.android.server.display.mode.RefreshRateVote$PhysicalVote.updateSummary:(Lcom/android/server/display/mode/VoteSummary;)V&#45;&gt;__field__</title>
<path fill="none" stroke="#dc2626" d="M280.1,-130.13C319.51,-126.77 361.98,-123.14 399.87,-119.91"/>
<polygon fill="#dc2626" stroke="#dc2626" points="400.15,-122.7 407.89,-119.23 399.68,-117.12 400.15,-122.7"/>
<text text-anchor="middle" x="344" y="-129.8" font-family="Helvetica,sans-Serif" font-size="9.00" fill="#dc2626"> reads unguarded</text>
</g>
<!-- m::com.android.server.display.mode.RefreshRateVote$RenderVote.updateSummary:(Lcom/android/server/display/mode/VoteSummary;)V -->
<g id="node4" class="node">
<title>m::com.android.server.display.mode.RefreshRateVote$RenderVote.updateSummary:(Lcom/android/server/display/mode/VoteSummary;)V</title>
<path fill="#fee2e2" stroke="#dc2626" d="M265,-97C265,-97 15,-97 15,-97 9,-97 3,-91 3,-85 3,-85 3,-73 3,-73 3,-67 9,-61 15,-61 15,-61 265,-61 265,-61 271,-61 277,-67 277,-73 277,-73 277,-85 277,-85 277,-91 271,-97 265,-97"/>
<text text-anchor="middle" x="140" y="-76.2" font-family="Helvetica,sans-Serif" font-size="11.00">RefreshRateVote$RenderVote.updateSummary</text>
</g>
<!-- m::com.android.server.display.mode.RefreshRateVote$RenderVote.updateSummary:(Lcom/android/server/display/mode/VoteSummary;)V&#45;&gt;__field__ -->
<g id="edge3" class="edge">
<title>m::com.android.server.display.mode.RefreshRateVote$RenderVote.updateSummary:(Lcom/android/server/display/mode/VoteSummary;)V&#45;&gt;__field__</title>
<path fill="none" stroke="#dc2626" d="M277.22,-84.18C312.68,-86.09 350.81,-88.64 386,-92 390.58,-92.44 395.24,-92.92 399.95,-93.43"/>
<polygon fill="#dc2626" stroke="#dc2626" points="399.64,-96.21 407.9,-94.33 400.27,-90.65 399.64,-96.21"/>
<text text-anchor="middle" x="344" y="-94.8" font-family="Helvetica,sans-Serif" font-size="9.00" fill="#dc2626"> writes unguarded</text>
</g>
<!-- m::com.android.server.display.mode.RefreshRateVote$RenderVote.updateSummary:(Lcom/android/server/display/mode/VoteSummary;)V&#45;&gt;__field__ -->
<g id="edge5" class="edge">
<title>m::com.android.server.display.mode.RefreshRateVote$RenderVote.updateSummary:(Lcom/android/server/display/mode/VoteSummary;)V&#45;&gt;__field__</title>
<path fill="none" stroke="#dc2626" d="M277.26,-65.04C312.8,-63.84 350.96,-64.73 386,-70 411.39,-73.82 438.65,-81.61 461.63,-89.3"/>
<polygon fill="#dc2626" stroke="#dc2626" points="460.77,-91.97 469.25,-91.91 462.58,-86.67 460.77,-91.97"/>
<text text-anchor="middle" x="344" y="-72.8" font-family="Helvetica,sans-Serif" font-size="9.00" fill="#dc2626"> reads unguarded</text>
</g>
<!-- m::com.android.server.display.mode.VoteSummary.toString:()Ljava/lang/String; -->
<g id="node5" class="node">
<title>m::com.android.server.display.mode.VoteSummary.toString:()Ljava/lang/String;</title>
<path fill="#fee2e2" stroke="#dc2626" d="M198,-36C198,-36 82,-36 82,-36 76,-36 70,-30 70,-24 70,-24 70,-12 70,-12 70,-6 76,0 82,0 82,0 198,0 198,0 204,0 210,-6 210,-12 210,-12 210,-24 210,-24 210,-30 204,-36 198,-36"/>
<text text-anchor="middle" x="140" y="-15.2" font-family="Helvetica,sans-Serif" font-size="11.00">VoteSummary.toString</text>
</g>
<!-- m::com.android.server.display.mode.VoteSummary.toString:()Ljava/lang/String;&#45;&gt;__field__ -->
<g id="edge6" class="edge">
<title>m::com.android.server.display.mode.VoteSummary.toString:()Ljava/lang/String;&#45;&gt;__field__</title>
<path fill="none" stroke="#dc2626" d="M210.02,-20.97C259.76,-24.49 328.04,-32.19 386,-49 418.14,-58.32 452.33,-74.64 477.57,-88.06"/>
<polygon fill="#dc2626" stroke="#dc2626" points="476.4,-90.61 484.77,-91.94 479.05,-85.68 476.4,-90.61"/>
<text text-anchor="middle" x="344" y="-51.8" font-family="Helvetica,sans-Serif" font-size="9.00" fill="#dc2626"> reads unguarded</text>
</g>
</g>
</svg>
