<?xml version="1.0" encoding="UTF-8" standalone="no"?>
<!DOCTYPE svg PUBLIC "-//W3C//DTD SVG 1.1//EN"
 "http://www.w3.org/Graphics/SVG/1.1/DTD/svg11.dtd">
<!-- Generated by graphviz version 2.43.0 (0)
 -->
<!-- Title: race Pages: 1 -->
<svg width="723pt" height="168pt"
 viewBox="0.00 0.00 723.00 168.00" xmlns="http://www.w3.org/2000/svg" xmlns:xlink="http://www.w3.org/1999/xlink">
<g id="graph0" class="graph" transform="scale(1 1) rotate(0) translate(4 164)">
<title>race</title>
<polygon fill="white" stroke="transparent" points="-4,4 -4,-164 719,-164 719,4 -4,4"/>
<!-- __field__ -->
<g id="node1" class="node">
<title>__field__</title>
<path fill="#fef9c3" stroke="#ca8a04" stroke-width="2" d="M703,-83C703,-83 465,-83 465,-83 459,-83 453,-77 453,-71 453,-71 453,-59 453,-59 453,-53 459,-47 465,-47 465,-47 703,-47 703,-47 709,-47 715,-53 715,-59 715,-59 715,-71 715,-71 715,-77 709,-83 703,-83"/>
<text text-anchor="middle" x="584" y="-62.2" font-family="Helvetica,sans-Serif" font-size="11.00">Watchdog$HandlerChecker.mCurrentMonitor</text>
</g>
<!-- __guard__ -->
<g id="node2" class="node">
<title>__guard__</title>
<path fill="#dcfce7" stroke="#16a34a" stroke-width="2" d="M252,-160C252,-160 73,-160 73,-160 67,-160 61,-154 61,-148 61,-148 61,-136 61,-136 61,-130 67,-124 73,-124 73,-124 252,-124 252,-124 258,-124 264,-130 264,-136 264,-136 264,-148 264,-148 264,-154 258,-160 252,-160"/>
<text text-anchor="middle" x="162.5" y="-139.2" font-family="Helvetica,sans-Serif" font-size="11.00">Watchdog$HandlerChecker.mLock</text>
</g>
<!-- __guard__&#45;&gt;__field__ -->
<g id="edge1" class="edge">
<title>__guard__&#45;&gt;__field__</title>
<path fill="none" stroke="#16a34a" stroke-width="1.6" d="M264.31,-124C284.42,-120.38 305.38,-116.59 325,-113 375.63,-103.74 431.81,-93.31 478.79,-84.54"/>
<polygon fill="#16a34a" stroke="#16a34a" stroke-width="1.6" points="479.5,-87.26 486.85,-83.04 478.47,-81.75 479.5,-87.26"/>
<text text-anchor="middle" x="389" y="-109.8" font-family="Helvetica,sans-Serif" font-size="9.00" fill="#15803d"> guards 2/3</text>
</g>
<!-- m::com.android.server.Watchdog$HandlerChecker.scheduleCheckLocked:(J)V -->
<g id="node3" class="node">
<title>m::com.android.server.Watchdog$HandlerChecker.scheduleCheckLocked:(J)V</title>
<path fill="#fee2e2" stroke="#dc2626" d="M294.5,-102C294.5,-102 30.5,-102 30.5,-102 24.5,-102 18.5,-96 18.5,-90 18.5,-90 18.5,-78 18.5,-78 18.5,-72 24.5,-66 30.5,-66 30.5,-66 294.5,-66 294.5,-66 300.5,-66 306.5,-72 306.5,-78 306.5,-78 306.5,-90 306.5,-90 306.5,-96 300.5,-102 294.5,-102"/>
<text text-anchor="middle" x="162.5" y="-81.2" font-family="Helvetica,sans-Serif" font-size="11.00">Watchdog$HandlerChecker.scheduleCheckLocked</text>
</g>
<!-- m::com.android.server.Watchdog$HandlerChecker.scheduleCheckLocked:(J)V&#45;&gt;__field__ -->
<g id="edge2" class="edge">
<title>m::com.android.server.Watchdog$HandlerChecker.scheduleCheckLocked:(J)V&#45;&gt;__field__</title>
<path fill="none" stroke="#dc2626" d="M306.69,-77.51C351.27,-75.5 400.32,-73.27 444.57,-71.27"/>
<polygon fill="#dc2626" stroke="#dc2626" points="444.91,-74.06 452.77,-70.9 444.66,-68.46 444.91,-74.06"/>
<text text-anchor="middle" x="389" y="-77.8" font-family="Helvetica,sans-Serif" font-size="9.00" fill="#dc2626"> writes unguarded</text>
</g>
<!-- m::com.android.server.Watchdog$HandlerChecker.describeBlockedStateLocked:()Ljava/lang/String; -->
<g id="node4" class="node">
<title>m::com.android.server.Watchdog$HandlerChecker.describeBlockedStateLocked:()Ljava/lang/String;</title>
<path fill="#fee2e2" stroke="#dc2626" d="M313,-36C313,-36 12,-36 12,-36 6,-36 0,-30 0,-24 0,-24 0,-12 0,-12 0,-6 6,0 12,0 12,0 313,0 313,0 319,0 325,-6 325,-12 325,-12 325,-24 325,-24 325,-30 319,-36 313,-36"/>
<text text-anchor="middle" x="162.5" y="-15.2" font-family="Helvetica,sans-Serif" font-size="11.00">Watchdog$HandlerChecker.describeBlockedStateLocked</text>
</g>
<!-- m::com.android.server.Watchdog$HandlerChecker.describeBlockedStateLocked:()Ljava/lang/String;&#45;&gt;__field__ -->
<g id="edge3" class="edge">
<title>m::com.android.server.Watchdog$HandlerChecker.describeBlockedStateLocked:()Ljava/lang/String;&#45;&gt;__field__</title>
<path fill="none" stroke="#dc2626" d="M324.19,-36C363.9,-40.45 406.1,-45.18 444.65,-49.5"/>
<polygon fill="#dc2626" stroke="#dc2626" points="444.55,-52.31 452.81,-50.41 445.18,-46.74 444.55,-52.31"/>
<text text-anchor="middle" x="389" y="-49.8" font-family="Helvetica,sans-Serif" font-size="9.00" fill="#dc2626"> reads unguarded</text>
</g>
<!-- m::com.android.server.Watchdog$HandlerChecker.describeBlockedStateLocked:()Ljava/lang/String;&#45;&gt;__field__ -->
<g id="edge4" class="edge">
<title>m::com.android.server.Watchdog$HandlerChecker.describeBlockedStateLocked:()Ljava/lang/String;&#45;&gt;__field__</title>
<path fill="none" stroke="#dc2626" d="M325.29,-14.5C360.28,-15.56 396.98,-18.06 431,-23 461.58,-27.44 494.74,-36.13 522.26,-44.45"/>
<polygon fill="#dc2626" stroke="#dc2626" points="521.77,-47.23 530.24,-46.91 523.41,-41.88 521.77,-47.23"/>
<text text-anchor="middle" x="389" y="-25.8" font-family="Helvetica,sans-Serif" font-size="9.00" fill="#dc2626"> reads unguarded</text>
</g>
</g>
</svg>
