<?xml version="1.0" encoding="UTF-8" standalone="no"?>
<!DOCTYPE svg PUBLIC "-//W3C//DTD SVG 1.1//EN"
 "http://www.w3.org/Graphics/SVG/1.1/DTD/svg11.dtd">
<!-- Generated by graphviz version 2.43.0 (0)
 -->
<!-- Title: race Pages: 1 -->
<svg width="1101pt" height="119pt"
 viewBox="0.00 0.00 1101.00 119.42" xmlns="http://www.w3.org/2000/svg" xmlns:xlink="http://www.w3.org/1999/xlink">
<g id="graph0" class="graph" transform="scale(1 1) rotate(0) translate(4 115.42)">
<title>race</title>
<polygon fill="white" stroke="transparent" points="-4,4 -4,-115.42 1097,-115.42 1097,4 -4,4"/>
<!-- __field__ -->
<g id="node1" class="node">
<title>__field__</title>
<path fill="#fef9c3" stroke="#ca8a04" stroke-width="2" d="M1081,-55.42C1081,-55.42 626,-55.42 626,-55.42 620,-55.42 614,-49.42 614,-43.42 614,-43.42 614,-31.42 614,-31.42 614,-25.42 620,-19.42 626,-19.42 626,-19.42 1081,-19.42 1081,-19.42 1087,-19.42 1093,-25.42 1093,-31.42 1093,-31.42 1093,-43.42 1093,-43.42 1093,-49.42 1087,-55.42 1081,-55.42"/>
<text text-anchor="middle" x="853.5" y="-34.62" font-family="Helvetica,sans-Serif" font-size="11.00">MagnificationConnectionManager$WindowMagnifier.mTrackingTypingFocusStartTime</text>
</g>
<!-- __guard__ -->
<g id="node2" class="node">
<title>__guard__</title>
<path fill="#dcfce7" stroke="#16a34a" stroke-width="2" d="M322,-111.42C322,-111.42 164,-111.42 164,-111.42 158,-111.42 152,-105.42 152,-99.42 152,-99.42 152,-87.42 152,-87.42 152,-81.42 158,-75.42 164,-75.42 164,-75.42 322,-75.42 322,-75.42 328,-75.42 334,-81.42 334,-87.42 334,-87.42 334,-99.42 334,-99.42 334,-105.42 328,-111.42 322,-111.42"/>
<text text-anchor="middle" x="243" y="-90.62" font-family="Helvetica,sans-Serif" font-size="11.00">MagnificationController.mLock</text>
</g>
<!-- __guard__&#45;&gt;__field__ -->
<g id="edge1" class="edge">
<title>__guard__&#45;&gt;__field__</title>
<path fill="none" stroke="#16a34a" stroke-width="1.6" d="M334.11,-85.13C416.74,-77.52 542.1,-65.99 648.85,-56.16"/>
<polygon fill="#16a34a" stroke="#16a34a" stroke-width="1.6" points="649.12,-58.95 656.83,-55.43 648.6,-53.37 649.12,-58.95"/>
<text text-anchor="middle" x="550" y="-71.22" font-family="Helvetica,sans-Serif" font-size="9.00" fill="#15803d"> guards 2/3</text>
</g>
<!-- m::com.android.server.accessibility.magnification.MagnificationConnectionManager$WindowMagnifier.pauseTrackingTypingFocusRecord:()V -->
<g id="node3" class="node">
<title>m::com.android.server.accessibility.magnification.MagnificationConnectionManager$WindowMagnifier.pauseTrackingTypingFocusRecord:()V</title>
<path fill="#fee2e2" stroke="#dc2626" d="M474,-37.42C474,-37.42 12,-37.42 12,-37.42 6,-37.42 0,-31.42 0,-25.42 0,-25.42 0,-13.42 0,-13.42 0,-7.42 6,-1.42 12,-1.42 12,-1.42 474,-1.42 474,-1.42 480,-1.42 486,-7.42 486,-13.42 486,-13.42 486,-25.42 486,-25.42 486,-31.42 480,-37.42 474,-37.42"/>
<text text-anchor="middle" x="243" y="-16.62" font-family="Helvetica,sans-Serif" font-size="11.00">MagnificationConnectionManager$WindowMagnifier.pauseTrackingTypingFocusRecord</text>
</g>
<!-- m::com.android.server.accessibility.magnification.MagnificationConnectionManager$WindowMagnifier.pauseTrackingTypingFocusRecord:()V&#45;&gt;__field__ -->
<g id="edge2" class="edge">
<title>m::com.android.server.accessibility.magnification.MagnificationConnectionManager$WindowMagnifier.pauseTrackingTypingFocusRecord:()V&#45;&gt;__field__</title>
<path fill="none" stroke="#dc2626" d="M486.04,-29.71C493.45,-29.96 500.78,-30.2 508,-30.42 539.56,-31.4 572.74,-32.27 605.55,-33.04"/>
<polygon fill="#dc2626" stroke="#dc2626" points="605.82,-35.85 613.88,-33.23 605.95,-30.25 605.82,-35.85"/>
<text text-anchor="middle" x="550" y="-35.22" font-family="Helvetica,sans-Serif" font-size="9.00" fill="#dc2626"> writes unguarded</text>
</g>
<!-- m::com.android.server.accessibility.magnification.MagnificationConnectionManager$WindowMagnifier.pauseTrackingTypingFocusRecord:()V&#45;&gt;__field__ -->
<g id="edge3" class="edge">
<title>m::com.android.server.accessibility.magnification.MagnificationConnectionManager$WindowMagnifier.pauseTrackingTypingFocusRecord:()V&#45;&gt;__field__</title>
<path fill="none" stroke="#dc2626" d="M486,-17.27C521.56,-17.58 557.73,-18.24 592,-19.42 596.46,-19.58 600.96,-19.74 605.5,-19.93"/>
<polygon fill="#dc2626" stroke="#dc2626" points="605.58,-22.73 613.69,-20.27 605.81,-17.14 605.58,-22.73"/>
<text text-anchor="middle" x="550" y="-22.22" font-family="Helvetica,sans-Serif" font-size="9.00" fill="#dc2626"> reads unguarded</text>
</g>
<!-- m::com.android.server.accessibility.magnification.MagnificationConnectionManager$WindowMagnifier.pauseTrackingTypingFocusRecord:()V&#45;&gt;__field__ -->
<g id="edge4" class="edge">
<title>m::com.android.server.accessibility.magnification.MagnificationConnectionManager$WindowMagnifier.pauseTrackingTypingFocusRecord:()V&#45;&gt;__field__</title>
<path fill="none" stroke="#dc2626" d="M452.01,-1.4C498.12,0.4 546.73,0.61 592,-2.42 638.92,-5.56 690.29,-11.84 734.91,-18.23"/>
<polygon fill="#dc2626" stroke="#dc2626" points="734.55,-21.01 742.87,-19.38 735.35,-15.47 734.55,-21.01"/>
<text text-anchor="middle" x="550" y="-5.22" font-family="Helvetica,sans-Serif" font-size="9.00" fill="#dc2626"> reads unguarded</text>
</g>
</g>
</svg>
