<?xml version="1.0" encoding="UTF-8" standalone="no"?>
<!DOCTYPE svg PUBLIC "-//W3C//DTD SVG 1.1//EN"
 "http://www.w3.org/Graphics/SVG/1.1/DTD/svg11.dtd">
<!-- Generated by graphviz version 2.43.0 (0)
 -->
<!-- Title: race Pages: 1 -->
<svg width="671pt" height="276pt"
 viewBox="0.00 0.00 671.00 276.00" xmlns="http://www.w3.org/2000/svg" xmlns:xlink="http://www.w3.org/1999/xlink">
<g id="graph0" class="graph" transform="scale(1 1) rotate(0) translate(4 272)">
<title>race</title>
<polygon fill="white" stroke="transparent" points="-4,4 -4,-272 667,-272 667,4 -4,4"/>
<!-- __field__ -->
<g id="node1" class="node">
<title>__field__</title>
<path fill="#fef9c3" stroke="#ca8a04" stroke-width="2" d="M651,-152C651,-152 451,-152 451,-152 445,-152 439,-146 439,-140 439,-140 439,-128 439,-128 439,-122 445,-116 451,-116 451,-116 651,-116 651,-116 657,-116 663,-122 663,-128 663,-128 663,-140 663,-140 663,-146 657,-152 651,-152"/>
<text text-anchor="middle" x="551" y="-131.2" font-family="Helvetica,sans-Serif" font-size="11.00">ActiveAdmin.globalProxyExclusionList</text>
</g>
<!-- __guard__ -->
<g id="node2" class="node">
<title>__guard__</title>
<path fill="#dcfce7" stroke="#16a34a" stroke-width="2" d="M297,-268C297,-268 14,-268 14,-268 8,-268 2,-262 2,-256 2,-256 2,-244 2,-244 2,-238 8,-232 14,-232 14,-232 297,-232 297,-232 303,-232 309,-238 309,-244 309,-244 309,-256 309,-256 309,-262 303,-268 297,-268"/>
<text text-anchor="middle" x="155.5" y="-247.2" font-family="Helvetica,sans-Serif" font-size="11.00">DevicePolicyManagerService.mLockDoNoUseDirectly</text>
</g>
<!-- __guard__&#45;&gt;__field__ -->
<g id="edge1" class="edge">
<title>__guard__&#45;&gt;__field__</title>
<path fill="none" stroke="#16a34a" stroke-width="1.6" d="M265.06,-231.95C280.58,-228.7 296.26,-225.04 311,-221 377.5,-202.79 451.79,-174.42 499.63,-155.07"/>
<polygon fill="#16a34a" stroke="#16a34a" stroke-width="1.6" points="500.72,-157.65 507.08,-152.04 498.61,-152.46 500.72,-157.65"/>
<text text-anchor="middle" x="375" y="-215.8" font-family="Helvetica,sans-Serif" font-size="9.00" fill="#15803d"> guards 2/3</text>
</g>
<!-- m::com.android.server.devicepolicy.ActiveAdmin.readFromXml:(Lcom/android/modules/utils/TypedXmlPullParser;Z)V -->
<g id="node3" class="node">
<title>m::com.android.server.devicepolicy.ActiveAdmin.readFromXml:(Lcom/android/modules/utils/TypedXmlPullParser;Z)V</title>
<path fill="#fee2e2" stroke="#dc2626" d="M224.5,-210C224.5,-210 86.5,-210 86.5,-210 80.5,-210 74.5,-204 74.5,-198 74.5,-198 74.5,-186 74.5,-186 74.5,-180 80.5,-174 86.5,-174 86.5,-174 224.5,-174 224.5,-174 230.5,-174 236.5,-180 236.5,-186 236.5,-186 236.5,-198 236.5,-198 236.5,-204 230.5,-210 224.5,-210"/>
<text text-anchor="middle" x="155.5" y="-189.2" font-family="Helvetica,sans-Serif" font-size="11.00">ActiveAdmin.readFromXml</text>
</g>
<!-- m::com.android.server.devicepolicy.ActiveAdmin.readFromXml:(Lcom/android/modules/utils/TypedXmlPullParser;Z)V&#45;&gt;__field__ -->
<g id="edge2" class="edge">
<title>m::com.android.server.devicepolicy.ActiveAdmin.readFromXml:(Lcom/android/modules/utils/TypedXmlPullParser;Z)V&#45;&gt;__field__</title>
<path fill="none" stroke="#dc2626" d="M236.6,-180.19C292.42,-171.97 367.83,-160.85 430.7,-151.58"/>
<polygon fill="#dc2626" stroke="#dc2626" points="431.18,-154.34 438.69,-150.41 430.37,-148.8 431.18,-154.34"/>
<text text-anchor="middle" x="375" y="-166.8" font-family="Helvetica,sans-Serif" font-size="9.00" fill="#dc2626"> writes unguarded</text>
</g>
<!-- m::com.android.server.devicepolicy.ActiveAdmin.dump:(Landroid/util/IndentingPrintWriter;)V -->
<g id="node4" class="node">
<title>m::com.android.server.devicepolicy.ActiveAdmin.dump:(Landroid/util/IndentingPrintWriter;)V</title>
<path fill="#fee2e2" stroke="#dc2626" d="M203.5,-152C203.5,-152 107.5,-152 107.5,-152 101.5,-152 95.5,-146 95.5,-140 95.5,-140 95.5,-128 95.5,-128 95.5,-122 101.5,-116 107.5,-116 107.5,-116 203.5,-116 203.5,-116 209.5,-116 215.5,-122 215.5,-128 215.5,-128 215.5,-140 215.5,-140 215.5,-146 209.5,-152 203.5,-152"/>
<text text-anchor="middle" x="155.5" y="-131.2" font-family="Helvetica,sans-Serif" font-size="11.00">ActiveAdmin.dump</text>
</g>
<!-- m::com.android.server.devicepolicy.ActiveAdmin.dump:(Landroid/util/IndentingPrintWriter;)V&#45;&gt;__field__ -->
<g id="edge3" class="edge">
<title>m::com.android.server.devicepolicy.ActiveAdmin.dump:(Landroid/util/IndentingPrintWriter;)V&#45;&gt;__field__</title>
<path fill="none" stroke="#dc2626" d="M215.84,-134C272.48,-134 359.48,-134 430.51,-134"/>
<polygon fill="#dc2626" stroke="#dc2626" points="430.65,-136.8 438.65,-134 430.65,-131.2 430.65,-136.8"/>
<text text-anchor="middle" x="375" y="-136.8" font-family="Helvetica,sans-Serif" font-size="9.00" fill="#dc2626"> reads unguarded</text>
</g>
<!-- m::com.android.server.devicepolicy.ActiveAdmin.dump:(Landroid/util/IndentingPrintWriter;)V&#45;&gt;__field__ -->
<g id="edge4" class="edge">
<title>m::com.android.server.devicepolicy.ActiveAdmin.dump:(Landroid/util/IndentingPrintWriter;)V&#45;&gt;__field__</title>
<path fill="none" stroke="#dc2626" d="M215.73,-126.75C268.53,-121.21 347.91,-115.12 417,-119 421.42,-119.25 425.92,-119.54 430.47,-119.88"/>
<polygon fill="#dc2626" stroke="#dc2626" points="430.49,-122.69 438.68,-120.51 430.93,-117.1 430.49,-122.69"/>
<text text-anchor="middle" x="375" y="-121.8" font-family="Helvetica,sans-Serif" font-size="9.00" fill="#dc2626"> reads unguarded</text>
</g>
<!-- m::com.android.server.devicepolicy.ActiveAdmin.writeToXml:(Lcom/android/modules/utils/TypedXmlSerializer;)V -->
<g id="node5" class="node">
<title>m::com.android.server.devicepolicy.ActiveAdmin.writeToXml:(Lcom/android/modules/utils/TypedXmlSerializer;)V</title>
<path fill="#fee2e2" stroke="#dc2626" d="M218,-94C218,-94 93,-94 93,-94 87,-94 81,-88 81,-82 81,-82 81,-70 81,-70 81,-64 87,-58 93,-58 93,-58 218,-58 218,-58 224,-58 230,-64 230,-70 230,-70 230,-82 230,-82 230,-88 224,-94 218,-94"/>
<text text-anchor="middle" x="155.5" y="-73.2" font-family="Helvetica,sans-Serif" font-size="11.00">ActiveAdmin.writeToXml</text>
</g>
<!-- m::com.android.server.devicepolicy.ActiveAdmin.writeToXml:(Lcom/android/modules/utils/TypedXmlSerializer;)V&#45;&gt;__field__ -->
<g id="edge5" class="edge">
<title>m::com.android.server.devicepolicy.ActiveAdmin.writeToXml:(Lcom/android/modules/utils/TypedXmlSerializer;)V&#45;&gt;__field__</title>
<path fill="none" stroke="#dc2626" d="M230.12,-80.65C282.49,-84.62 354.38,-91.39 417,-102 435.85,-105.19 456,-109.54 474.76,-114"/>
<polygon fill="#dc2626" stroke="#dc2626" points="474.27,-116.77 482.71,-115.92 475.59,-111.32 474.27,-116.77"/>
<text text-anchor="middle" x="375" y="-104.8" font-family="Helvetica,sans-Serif" font-size="9.00" fill="#dc2626"> reads unguarded</text>
</g>
<!-- m::com.android.server.devicepolicy.DevicePolicyManagerService.resetGlobalProxyLocked:(Lcom/android/server/devicepolicy/DevicePolicyData;)V -->
<g id="node6" class="node">
<title>m::com.android.server.devicepolicy.DevicePolicyManagerService.resetGlobalProxyLocked:(Lcom/android/server/devicepolicy/DevicePolicyData;)V</title>
<path fill="#fee2e2" stroke="#dc2626" d="M299,-36C299,-36 12,-36 12,-36 6,-36 0,-30 0,-24 0,-24 0,-12 0,-12 0,-6 6,0 12,0 12,0 299,0 299,0 305,0 311,-6 311,-12 311,-12 311,-24 311,-24 311,-30 305,-36 299,-36"/>
<text text-anchor="middle" x="155.5" y="-15.2" font-family="Helvetica,sans-Serif" font-size="11.00">DevicePolicyManagerService.resetGlobalProxyLocked</text>
</g>
<!-- m::com.android.server.devicepolicy.DevicePolicyManagerService.resetGlobalProxyLocked:(Lcom/android/server/devicepolicy/DevicePolicyData;)V&#45;&gt;__field__ -->
<g id="edge6" class="edge">
<title>m::com.android.server.devicepolicy.DevicePolicyManagerService.resetGlobalProxyLocked:(Lcom/android/server/devicepolicy/DevicePolicyData;)V&#45;&gt;__field__</title>
<path fill="none" stroke="#dc2626" d="M267.48,-36.06C314.35,-45.28 369.06,-58.16 417,-75 447.48,-85.71 480.69,-100.44 506.3,-112.5"/>
<polygon fill="#dc2626" stroke="#dc2626" points="505.23,-115.09 513.66,-115.99 507.63,-110.03 505.23,-115.09"/>
<text text-anchor="middle" x="375" y="-77.8" font-family="Helvetica,sans-Serif" font-size="9.00" fill="#dc2626"> reads unguarded</text>
</g>
</g>
</svg>
