<?xml version="1.0" encoding="UTF-8" standalone="no"?>
<!DOCTYPE svg PUBLIC "-//W3C//DTD SVG 1.1//EN"
 "http://www.w3.org/Graphics/SVG/1.1/DTD/svg11.dtd">
<!-- Generated by graphviz version 2.43.0 (0)
 -->
<!-- Title: race Pages: 1 -->
<svg width="589pt" height="764pt"
 viewBox="0.00 0.00 589.00 764.00" xmlns="http://www.w3.org/2000/svg" xmlns:xlink="http://www.w3.org/1999/xlink">
<g id="graph0" class="graph" transform="scale(1 1) rotate(0) translate(4 760)">
<title>race</title>
<polygon fill="white" stroke="transparent" points="-4,4 -4,-760 585,-760 585,4 -4,4"/>
<!-- __field__ -->
<g id="node1" class="node">
<title>__field__</title>
<path fill="#fef9c3" stroke="#ca8a04" stroke-width="2" d="M569,-460C569,-460 484,-460 484,-460 478,-460 472,-454 472,-448 472,-448 472,-436 472,-436 472,-430 478,-424 484,-424 484,-424 569,-424 569,-424 575,-424 581,-430 581,-436 581,-436 581,-448 581,-448 581,-454 575,-460 569,-460"/>
<text text-anchor="middle" x="526.5" y="-439.2" font-family="Helvetica,sans-Serif" font-size="11.00">ActivityInfo.flags</text>
</g>
<!-- __guard__ -->
<g id="node2" class="node">
<title>__guard__</title>
<path fill="#dcfce7" stroke="#16a34a" stroke-width="2" d="M275,-756C275,-756 69,-756 69,-756 63,-756 57,-750 57,-744 57,-744 57,-732 57,-732 57,-726 63,-720 69,-720 69,-720 275,-720 275,-720 281,-720 287,-726 287,-732 287,-732 287,-744 287,-744 287,-750 281,-756 275,-756"/>
<text text-anchor="middle" x="172" y="-735.2" font-family="Helvetica,sans-Serif" font-size="11.00">PackageManagerServiceInjector.mLock</text>
</g>
<!-- __guard__&#45;&gt;__field__ -->
<g id="edge1" class="edge">
<title>__guard__&#45;&gt;__field__</title>
<path fill="none" stroke="#16a34a" stroke-width="1.6" d="M287.33,-751.84C342.37,-752.22 405.83,-742.58 450,-705 486.47,-673.98 512.32,-528.73 521.66,-468.39"/>
<polygon fill="#16a34a" stroke="#16a34a" stroke-width="1.6" points="524.48,-468.46 522.92,-460.13 518.95,-467.61 524.48,-468.46"/>
<text text-anchor="middle" x="408" y="-745.8" font-family="Helvetica,sans-Serif" font-size="9.00" fill="#15803d"> guards 2/3</text>
</g>
<!-- m::com.android.server.pm.PackageManagerService.setUpInstantAppInstallerActivityLP:(Landroid/content/pm/ActivityInfo;)V -->
<g id="node3" class="node">
<title>m::com.android.server.pm.PackageManagerService.setUpInstantAppInstallerActivityLP:(Landroid/content/pm/ActivityInfo;)V</title>
<path fill="#fee2e2" stroke="#dc2626" d="M332,-690C332,-690 12,-690 12,-690 6,-690 0,-684 0,-678 0,-678 0,-666 0,-666 0,-660 6,-654 12,-654 12,-654 332,-654 332,-654 338,-654 344,-660 344,-666 344,-666 344,-678 344,-678 344,-684 338,-690 332,-690"/>
<text text-anchor="middle" x="172" y="-669.2" font-family="Helvetica,sans-Serif" font-size="11.00">PackageManagerService.setUpInstantAppInstallerActivityLP</text>
</g>
<!-- m::com.android.server.pm.PackageManagerService.setUpInstantAppInstallerActivityLP:(Landroid/content/pm/ActivityInfo;)V&#45;&gt;__field__ -->
<g id="edge2" class="edge">
<title>m::com.android.server.pm.PackageManagerService.setUpInstantAppInstallerActivityLP:(Landroid/content/pm/ActivityInfo;)V&#45;&gt;__field__</title>
<path fill="none" stroke="#dc2626" d="M341.95,-690.01C388.61,-691.49 431.52,-688.43 450,-675 516.48,-626.66 525.61,-518.46 526.1,-468.37"/>
<polygon fill="#dc2626" stroke="#dc2626" points="528.89,-468.29 526.1,-460.29 523.29,-468.28 528.89,-468.29"/>
<text text-anchor="middle" x="408" y="-692.8" font-family="Helvetica,sans-Serif" font-size="9.00" fill="#dc2626"> writes unguarded</text>
</g>
<!-- m::com.android.server.pm.PackageManagerService.setUpInstantAppInstallerActivityLP:(Landroid/content/pm/ActivityInfo;)V&#45;&gt;__field__ -->
<g id="edge14" class="edge">
<title>m::com.android.server.pm.PackageManagerService.setUpInstantAppInstallerActivityLP:(Landroid/content/pm/ActivityInfo;)V&#45;&gt;__field__</title>
<path fill="none" stroke="#dc2626" d="M344.22,-659.16C390.2,-652.74 432.13,-643.18 450,-629 500.58,-588.88 517.47,-509.55 522.95,-468.3"/>
<polygon fill="#dc2626" stroke="#dc2626" points="525.77,-468.38 523.96,-460.1 520.21,-467.7 525.77,-468.38"/>
<text text-anchor="middle" x="408" y="-657.8" font-family="Helvetica,sans-Serif" font-size="9.00" fill="#dc2626"> reads unguarded</text>
</g>
<!-- m::com.android.server.am.BroadcastController.collectReceiverComponents:(Landroid/content/Intent;Ljava/lang/String;II[I[I[Ljava/lang/String;)Ljava/util/List; -->
<g id="node4" class="node">
<title>m::com.android.server.am.BroadcastController.collectReceiverComponents:(Landroid/content/Intent;Ljava/lang/String;II[I[I[Ljava/lang/String;)Ljava/util/List;</title>
<path fill="#fee2e2" stroke="#dc2626" d="M301,-616C301,-616 43,-616 43,-616 37,-616 31,-610 31,-604 31,-604 31,-592 31,-592 31,-586 37,-580 43,-580 43,-580 301,-580 301,-580 307,-580 313,-586 313,-592 313,-592 313,-604 313,-604 313,-610 307,-616 301,-616"/>
<text text-anchor="middle" x="172" y="-595.2" font-family="Helvetica,sans-Serif" font-size="11.00">BroadcastController.collectReceiverComponents</text>
</g>
<!-- m::com.android.server.am.BroadcastController.collectReceiverComponents:(Landroid/content/Intent;Ljava/lang/String;II[I[I[Ljava/lang/String;)Ljava/util/List;&#45;&gt;__field__ -->
<g id="edge3" class="edge">
<title>m::com.android.server.am.BroadcastController.collectReceiverComponents:(Landroid/content/Intent;Ljava/lang/String;II[I[I[Ljava/lang/String;)Ljava/util/List;&#45;&gt;__field__</title>
<path fill="none" stroke="#dc2626" d="M313.12,-613.29C369.62,-616.65 426.88,-615.62 450,-601 496.27,-571.75 514.75,-505.58 521.68,-468.48"/>
<polygon fill="#dc2626" stroke="#dc2626" points="524.52,-468.52 523.13,-460.15 519,-467.55 524.52,-468.52"/>
<text text-anchor="middle" x="408" y="-616.8" font-family="Helvetica,sans-Serif" font-size="9.00" fill="#dc2626"> reads unguarded</text>
</g>
<!-- m::com.android.server.am.BroadcastController.collectReceiverComponents:(Landroid/content/Intent;Ljava/lang/String;II[I[I[Ljava/lang/String;)Ljava/util/List;&#45;&gt;__field__ -->
<g id="edge4" class="edge">
<title>m::com.android.server.am.BroadcastController.collectReceiverComponents:(Landroid/content/Intent;Ljava/lang/String;II[I[I[Ljava/lang/String;)Ljava/util/List;&#45;&gt;__field__</title>
<path fill="none" stroke="#dc2626" d="M313.03,-591.93C369.52,-587.22 426.79,-578.86 450,-564 485.09,-541.54 506.56,-496.34 517.22,-467.71"/>
<polygon fill="#dc2626" stroke="#dc2626" points="519.89,-468.58 519.95,-460.11 514.61,-466.7 519.89,-468.58"/>
<text text-anchor="middle" x="408" y="-588.8" font-family="Helvetica,sans-Serif" font-size="9.00" fill="#dc2626"> reads unguarded</text>
</g>
<!-- m::com.android.server.am.BroadcastController.collectReceiverComponents:(Landroid/content/Intent;Ljava/lang/String;II[I[I[Ljava/lang/String;)Ljava/util/List;&#45;&gt;__field__ -->
<g id="edge5" class="edge">
<title>m::com.android.server.am.BroadcastController.collectReceiverComponents:(Landroid/content/Intent;Ljava/lang/String;II[I[I[Ljava/lang/String;)Ljava/util/List;&#45;&gt;__field__</title>
<path fill="none" stroke="#dc2626" d="M312.67,-579.88C323.45,-576.8 334.01,-573.21 344,-569 355.14,-564.31 355.4,-558.81 366,-553 401.17,-533.71 416.63,-542.25 450,-520 471.87,-505.42 492.32,-483.57 506.41,-466.7"/>
<polygon fill="#dc2626" stroke="#dc2626" points="508.77,-468.24 511.67,-460.28 504.44,-464.69 508.77,-468.24"/>
<text text-anchor="middle" x="408" y="-555.8" font-family="Helvetica,sans-Serif" font-size="9.00" fill="#dc2626"> reads unguarded</text>
</g>
<!-- m::com.android.server.am.BroadcastRecord.applySingletonPolicy:(Lcom/android/server/am/ActivityManagerService;)V -->
<g id="node5" class="node">
<title>m::com.android.server.am.BroadcastRecord.applySingletonPolicy:(Lcom/android/server/am/ActivityManagerService;)V</title>
<path fill="#fee2e2" stroke="#dc2626" d="M273.5,-558C273.5,-558 70.5,-558 70.5,-558 64.5,-558 58.5,-552 58.5,-546 58.5,-546 58.5,-534 58.5,-534 58.5,-528 64.5,-522 70.5,-522 70.5,-522 273.5,-522 273.5,-522 279.5,-522 285.5,-528 285.5,-534 285.5,-534 285.5,-546 285.5,-546 285.5,-552 279.5,-558 273.5,-558"/>
<text text-anchor="middle" x="172" y="-537.2" font-family="Helvetica,sans-Serif" font-size="11.00">BroadcastRecord.applySingletonPolicy</text>
</g>
<!-- m::com.android.server.am.BroadcastRecord.applySingletonPolicy:(Lcom/android/server/am/ActivityManagerService;)V&#45;&gt;__field__ -->
<g id="edge6" class="edge">
<title>m::com.android.server.am.BroadcastRecord.applySingletonPolicy:(Lcom/android/server/am/ActivityManagerService;)V&#45;&gt;__field__</title>
<path fill="none" stroke="#dc2626" d="M285.69,-523.24C305.23,-519.66 325.28,-515.57 344,-511 392.07,-499.28 403.91,-494.99 450,-477 460.4,-472.94 471.39,-468.14 481.68,-463.43"/>
<polygon fill="#dc2626" stroke="#dc2626" points="482.95,-465.92 489.03,-460.01 480.59,-460.84 482.95,-465.92"/>
<text text-anchor="middle" x="408" y="-507.8" font-family="Helvetica,sans-Serif" font-size="9.00" fill="#dc2626"> reads unguarded</text>
</g>
<!-- m::com.android.server.am.BroadcastSkipPolicy.shouldSkipMessage:(Lcom/android/server/am/BroadcastRecord;Landroid/content/pm/ResolveInfo;Z)Ljava/lang/String; -->
<g id="node6" class="node">
<title>m::com.android.server.am.BroadcastSkipPolicy.shouldSkipMessage:(Lcom/android/server/am/BroadcastRecord;Landroid/content/pm/ResolveInfo;Z)Ljava/lang/String;</title>
<path fill="#fee2e2" stroke="#dc2626" d="M278,-500C278,-500 66,-500 66,-500 60,-500 54,-494 54,-488 54,-488 54,-476 54,-476 54,-470 60,-464 66,-464 66,-464 278,-464 278,-464 284,-464 290,-470 290,-476 290,-476 290,-488 290,-488 290,-494 284,-500 278,-500"/>
<text text-anchor="middle" x="172" y="-479.2" font-family="Helvetica,sans-Serif" font-size="11.00">BroadcastSkipPolicy.shouldSkipMessage</text>
</g>
<!-- m::com.android.server.am.BroadcastSkipPolicy.shouldSkipMessage:(Lcom/android/server/am/BroadcastRecord;Landroid/content/pm/ResolveInfo;Z)Ljava/lang/String;&#45;&gt;__field__ -->
<g id="edge7" class="edge">
<title>m::com.android.server.am.BroadcastSkipPolicy.shouldSkipMessage:(Lcom/android/server/am/BroadcastRecord;Landroid/content/pm/ResolveInfo;Z)Ljava/lang/String;&#45;&gt;__field__</title>
<path fill="none" stroke="#dc2626" d="M290.04,-470.8C339.46,-465.8 397.58,-459.56 450,-453 454.55,-452.43 459.24,-451.81 463.97,-451.17"/>
<polygon fill="#dc2626" stroke="#dc2626" points="464.38,-453.95 471.92,-450.08 463.61,-448.4 464.38,-453.95"/>
<text text-anchor="middle" x="408" y="-464.8" font-family="Helvetica,sans-Serif" font-size="9.00" fill="#dc2626"> reads unguarded</text>
</g>
<!-- m::com.android.server.am.BroadcastSkipPolicy.shouldSkipMessage:(Lcom/android/server/am/BroadcastRecord;Landroid/content/pm/ResolveInfo;Z)Ljava/lang/String;&#45;&gt;__field__ -->
<g id="edge8" class="edge">
<title>m::com.android.server.am.BroadcastSkipPolicy.shouldSkipMessage:(Lcom/android/server/am/BroadcastRecord;Landroid/content/pm/ResolveInfo;Z)Ljava/lang/String;&#45;&gt;__field__</title>
<path fill="none" stroke="#dc2626" d="M290.02,-466.9C308.31,-463.19 326.83,-458.61 344,-453 354.39,-449.6 355.36,-444.51 366,-442 397.65,-434.53 433.84,-433.91 463.73,-435.43"/>
<polygon fill="#dc2626" stroke="#dc2626" points="463.84,-438.25 471.99,-435.92 464.16,-432.65 463.84,-438.25"/>
<text text-anchor="middle" x="408" y="-444.8" font-family="Helvetica,sans-Serif" font-size="9.00" fill="#dc2626"> reads unguarded</text>
</g>
<!-- m::com.android.server.companion.virtual.GenericWindowPolicyController.canContainActivity:(Landroid/content/pm/ActivityInfo;IIZ)Z -->
<g id="node7" class="node">
<title>m::com.android.server.companion.virtual.GenericWindowPolicyController.canContainActivity:(Landroid/content/pm/ActivityInfo;IIZ)Z</title>
<path fill="#fee2e2" stroke="#dc2626" d="M306.5,-442C306.5,-442 37.5,-442 37.5,-442 31.5,-442 25.5,-436 25.5,-430 25.5,-430 25.5,-418 25.5,-418 25.5,-412 31.5,-406 37.5,-406 37.5,-406 306.5,-406 306.5,-406 312.5,-406 318.5,-412 318.5,-418 318.5,-418 318.5,-430 318.5,-430 318.5,-436 312.5,-442 306.5,-442"/>
<text text-anchor="middle" x="172" y="-421.2" font-family="Helvetica,sans-Serif" font-size="11.00">GenericWindowPolicyController.canContainActivity</text>
</g>
<!-- m::com.android.server.companion.virtual.GenericWindowPolicyController.canContainActivity:(Landroid/content/pm/ActivityInfo;IIZ)Z&#45;&gt;__field__ -->
<g id="edge9" class="edge">
<title>m::com.android.server.companion.virtual.GenericWindowPolicyController.canContainActivity:(Landroid/content/pm/ActivityInfo;IIZ)Z&#45;&gt;__field__</title>
<path fill="none" stroke="#dc2626" d="M254.3,-405.98C310.04,-396.65 385.32,-390 450,-405 463.42,-408.11 477.22,-413.96 489.28,-420.1"/>
<polygon fill="#dc2626" stroke="#dc2626" points="488.16,-422.68 496.54,-423.95 490.78,-417.73 488.16,-422.68"/>
<text text-anchor="middle" x="408" y="-407.8" font-family="Helvetica,sans-Serif" font-size="9.00" fill="#dc2626"> reads unguarded</text>
</g>
<!-- m::com.android.server.pm.ComputerEngine.applyPostResolutionFilter:(Ljava/util/List;Ljava/lang/String;ZIZILandroid/content/Intent;)Ljava/util/List; -->
<g id="node8" class="node">
<title>m::com.android.server.pm.ComputerEngine.applyPostResolutionFilter:(Ljava/util/List;Ljava/lang/String;ZIZILandroid/content/Intent;)Ljava/util/List;</title>
<path fill="#fee2e2" stroke="#dc2626" d="M284.5,-384C284.5,-384 59.5,-384 59.5,-384 53.5,-384 47.5,-378 47.5,-372 47.5,-372 47.5,-360 47.5,-360 47.5,-354 53.5,-348 59.5,-348 59.5,-348 284.5,-348 284.5,-348 290.5,-348 296.5,-354 296.5,-360 296.5,-360 296.5,-372 296.5,-372 296.5,-378 290.5,-384 284.5,-384"/>
<text text-anchor="middle" x="172" y="-363.2" font-family="Helvetica,sans-Serif" font-size="11.00">ComputerEngine.applyPostResolutionFilter</text>
</g>
<!-- m::com.android.server.pm.ComputerEngine.applyPostResolutionFilter:(Ljava/util/List;Ljava/lang/String;ZIZILandroid/content/Intent;)Ljava/util/List;&#45;&gt;__field__ -->
<g id="edge10" class="edge">
<title>m::com.android.server.pm.ComputerEngine.applyPostResolutionFilter:(Ljava/util/List;Ljava/lang/String;ZIZILandroid/content/Intent;)Ljava/util/List;&#45;&gt;__field__</title>
<path fill="none" stroke="#dc2626" d="M296.74,-356.55C345.88,-356.89 402.01,-362.56 450,-381 470.46,-388.86 489.62,-404.48 503.52,-417.95"/>
<polygon fill="#dc2626" stroke="#dc2626" points="501.89,-420.27 509.52,-423.95 505.84,-416.31 501.89,-420.27"/>
<text text-anchor="middle" x="408" y="-383.8" font-family="Helvetica,sans-Serif" font-size="9.00" fill="#dc2626"> reads unguarded</text>
</g>
<!-- m::com.android.server.pm.ComputerEngine.filterIfNotSystemUser:(Ljava/util/List;I)Ljava/util/List; -->
<g id="node9" class="node">
<title>m::com.android.server.pm.ComputerEngine.filterIfNotSystemUser:(Ljava/util/List;I)Ljava/util/List;</title>
<path fill="#fee2e2" stroke="#dc2626" d="M275,-326C275,-326 69,-326 69,-326 63,-326 57,-320 57,-314 57,-314 57,-302 57,-302 57,-296 63,-290 69,-290 69,-290 275,-290 275,-290 281,-290 287,-296 287,-302 287,-302 287,-314 287,-314 287,-320 281,-326 275,-326"/>
<text text-anchor="middle" x="172" y="-305.2" font-family="Helvetica,sans-Serif" font-size="11.00">ComputerEngine.filterIfNotSystemUser</text>
</g>
<!-- m::com.android.server.pm.ComputerEngine.filterIfNotSystemUser:(Ljava/util/List;I)Ljava/util/List;&#45;&gt;__field__ -->
<g id="edge11" class="edge">
<title>m::com.android.server.pm.ComputerEngine.filterIfNotSystemUser:(Ljava/util/List;I)Ljava/util/List;&#45;&gt;__field__</title>
<path fill="none" stroke="#dc2626" d="M287.09,-304.55C339.69,-307.58 401.15,-318 450,-346 478.43,-362.29 500.05,-393.89 512.72,-416.39"/>
<polygon fill="#dc2626" stroke="#dc2626" points="510.38,-417.95 516.67,-423.63 515.3,-415.27 510.38,-417.95"/>
<text text-anchor="middle" x="408" y="-348.8" font-family="Helvetica,sans-Serif" font-size="9.00" fill="#dc2626"> reads unguarded</text>
</g>
<!-- m::com.android.server.pm.ComputerEngine.queryIntentActivitiesInternal:(Landroid/content/Intent;Ljava/lang/String;JJIIIZZ)Ljava/util/List; -->
<g id="node10" class="node">
<title>m::com.android.server.pm.ComputerEngine.queryIntentActivitiesInternal:(Landroid/content/Intent;Ljava/lang/String;JJIIIZZ)Ljava/util/List;</title>
<path fill="#fee2e2" stroke="#dc2626" d="M294,-268C294,-268 50,-268 50,-268 44,-268 38,-262 38,-256 38,-256 38,-244 38,-244 38,-238 44,-232 50,-232 50,-232 294,-232 294,-232 300,-232 306,-238 306,-244 306,-244 306,-256 306,-256 306,-262 300,-268 294,-268"/>
<text text-anchor="middle" x="172" y="-247.2" font-family="Helvetica,sans-Serif" font-size="11.00">ComputerEngine.queryIntentActivitiesInternal</text>
</g>
<!-- m::com.android.server.pm.ComputerEngine.queryIntentActivitiesInternal:(Landroid/content/Intent;Ljava/lang/String;JJIIIZZ)Ljava/util/List;&#45;&gt;__field__ -->
<g id="edge12" class="edge">
<title>m::com.android.server.pm.ComputerEngine.queryIntentActivitiesInternal:(Landroid/content/Intent;Ljava/lang/String;JJIIIZZ)Ljava/util/List;&#45;&gt;__field__</title>
<path fill="none" stroke="#dc2626" d="M306.21,-250.3C355.4,-256.29 409.07,-270.41 450,-301 488.18,-329.54 509.1,-383.2 518.75,-415.46"/>
<polygon fill="#dc2626" stroke="#dc2626" points="516.17,-416.65 521.07,-423.57 521.56,-415.11 516.17,-416.65"/>
<text text-anchor="middle" x="408" y="-303.8" font-family="Helvetica,sans-Serif" font-size="9.00" fill="#dc2626"> reads unguarded</text>
</g>
<!-- m::com.android.server.pm.CrossProfileResolver.filterIfNotSystemUser:(Ljava/util/List;I)Ljava/util/List; -->
<g id="node11" class="node">
<title>m::com.android.server.pm.CrossProfileResolver.filterIfNotSystemUser:(Ljava/util/List;I)Ljava/util/List;</title>
<path fill="#fee2e2" stroke="#dc2626" d="M285.5,-210C285.5,-210 58.5,-210 58.5,-210 52.5,-210 46.5,-204 46.5,-198 46.5,-198 46.5,-186 46.5,-186 46.5,-180 52.5,-174 58.5,-174 58.5,-174 285.5,-174 285.5,-174 291.5,-174 297.5,-180 297.5,-186 297.5,-186 297.5,-198 297.5,-198 297.5,-204 291.5,-210 285.5,-210"/>
<text text-anchor="middle" x="172" y="-189.2" font-family="Helvetica,sans-Serif" font-size="11.00">CrossProfileResolver.filterIfNotSystemUser</text>
</g>
<!-- m::com.android.server.pm.CrossProfileResolver.filterIfNotSystemUser:(Ljava/util/List;I)Ljava/util/List;&#45;&gt;__field__ -->
<g id="edge13" class="edge">
<title>m::com.android.server.pm.CrossProfileResolver.filterIfNotSystemUser:(Ljava/util/List;I)Ljava/util/List;&#45;&gt;__field__</title>
<path fill="none" stroke="#dc2626" d="M297.83,-190.19C350.32,-195.63 408.66,-210.67 450,-247 500.51,-291.39 517.46,-373.64 522.96,-415.71"/>
<polygon fill="#dc2626" stroke="#dc2626" points="520.2,-416.21 523.94,-423.81 525.76,-415.53 520.2,-416.21"/>
<text text-anchor="middle" x="408" y="-249.8" font-family="Helvetica,sans-Serif" font-size="9.00" fill="#dc2626"> reads unguarded</text>
</g>
<!-- m::com.android.server.pm.ResolveIntentHelper.queryIntentReceiversInternal:(Lcom/android/server/pm/Computer;Landroid/content/Intent;Ljava/lang/String;JIIIZ)Ljava/util/List; -->
<g id="node12" class="node">
<title>m::com.android.server.pm.ResolveIntentHelper.queryIntentReceiversInternal:(Lcom/android/server/pm/Computer;Landroid/content/Intent;Ljava/lang/String;JIIIZ)Ljava/util/List;</title>
<path fill="#fee2e2" stroke="#dc2626" d="M305.5,-152C305.5,-152 38.5,-152 38.5,-152 32.5,-152 26.5,-146 26.5,-140 26.5,-140 26.5,-128 26.5,-128 26.5,-122 32.5,-116 38.5,-116 38.5,-116 305.5,-116 305.5,-116 311.5,-116 317.5,-122 317.5,-128 317.5,-128 317.5,-140 317.5,-140 317.5,-146 311.5,-152 305.5,-152"/>
<text text-anchor="middle" x="172" y="-131.2" font-family="Helvetica,sans-Serif" font-size="11.00">ResolveIntentHelper.queryIntentReceiversInternal</text>
</g>
<!-- m::com.android.server.pm.ResolveIntentHelper.queryIntentReceiversInternal:(Lcom/android/server/pm/Computer;Landroid/content/Intent;Ljava/lang/String;JIIIZ)Ljava/util/List;&#45;&gt;__field__ -->
<g id="edge15" class="edge">
<title>m::com.android.server.pm.ResolveIntentHelper.queryIntentReceiversInternal:(Lcom/android/server/pm/Computer;Landroid/content/Intent;Ljava/lang/String;JIIIZ)Ljava/util/List;&#45;&gt;__field__</title>
<path fill="none" stroke="#dc2626" d="M317.73,-132.88C365.2,-139.65 414.75,-155.45 450,-189 514.5,-250.39 524.59,-364.29 525.7,-415.66"/>
<polygon fill="#dc2626" stroke="#dc2626" points="522.9,-415.97 525.81,-423.93 528.5,-415.89 522.9,-415.97"/>
<text text-anchor="middle" x="408" y="-191.8" font-family="Helvetica,sans-Serif" font-size="9.00" fill="#dc2626"> reads unguarded</text>
</g>
<!-- m::com.android.server.wm.ActivityRecord.isAlwaysFocusable:()Z -->
<g id="node13" class="node">
<title>m::com.android.server.wm.ActivityRecord.isAlwaysFocusable:()Z</title>
<path fill="#fee2e2" stroke="#dc2626" d="M261.5,-94C261.5,-94 82.5,-94 82.5,-94 76.5,-94 70.5,-88 70.5,-82 70.5,-82 70.5,-70 70.5,-70 70.5,-64 76.5,-58 82.5,-58 82.5,-58 261.5,-58 261.5,-58 267.5,-58 273.5,-64 273.5,-70 273.5,-70 273.5,-82 273.5,-82 273.5,-88 267.5,-94 261.5,-94"/>
<text text-anchor="middle" x="172" y="-73.2" font-family="Helvetica,sans-Serif" font-size="11.00">ActivityRecord.isAlwaysFocusable</text>
</g>
<!-- m::com.android.server.wm.ActivityRecord.isAlwaysFocusable:()Z&#45;&gt;__field__ -->
<g id="edge16" class="edge">
<title>m::com.android.server.wm.ActivityRecord.isAlwaysFocusable:()Z&#45;&gt;__field__</title>
<path fill="none" stroke="#dc2626" d="M273.74,-69.67C332.74,-71.62 404.4,-84.66 450,-130 490.74,-170.51 514.83,-348.15 522.66,-415.75"/>
<polygon fill="#dc2626" stroke="#dc2626" points="519.89,-416.17 523.58,-423.81 525.46,-415.54 519.89,-416.17"/>
<text text-anchor="middle" x="408" y="-132.8" font-family="Helvetica,sans-Serif" font-size="9.00" fill="#dc2626"> reads unguarded</text>
</g>
<!-- m::com.android.server.wm.ActivityRecord.isNoHistory:()Z -->
<g id="node14" class="node">
<title>m::com.android.server.wm.ActivityRecord.isNoHistory:()Z</title>
<path fill="#fee2e2" stroke="#dc2626" d="M242,-36C242,-36 102,-36 102,-36 96,-36 90,-30 90,-24 90,-24 90,-12 90,-12 90,-6 96,0 102,0 102,0 242,0 242,0 248,0 254,-6 254,-12 254,-12 254,-24 254,-24 254,-30 248,-36 242,-36"/>
<text text-anchor="middle" x="172" y="-15.2" font-family="Helvetica,sans-Serif" font-size="11.00">ActivityRecord.isNoHistory</text>
</g>
<!-- m::com.android.server.wm.ActivityRecord.isNoHistory:()Z&#45;&gt;__field__ -->
<g id="edge17" class="edge">
<title>m::com.android.server.wm.ActivityRecord.isNoHistory:()Z&#45;&gt;__field__</title>
<path fill="none" stroke="#dc2626" d="M254.05,-10.4C316.22,-9.32 399.65,-18.97 450,-70 498.69,-119.35 518.34,-338.84 523.8,-415.48"/>
<polygon fill="#dc2626" stroke="#dc2626" points="521.02,-415.9 524.37,-423.69 526.61,-415.52 521.02,-415.9"/>
<text text-anchor="middle" x="408" y="-72.8" font-family="Helvetica,sans-Serif" font-size="9.00" fill="#dc2626"> reads unguarded</text>
</g>
</g>
</svg>
