<?xml version="1.0" encoding="UTF-8" standalone="no"?>
<!DOCTYPE svg PUBLIC "-//W3C//DTD SVG 1.1//EN"
 "http://www.w3.org/Graphics/SVG/1.1/DTD/svg11.dtd">
<!-- Generated by graphviz version 2.43.0 (0)
 -->
<!-- Title: race Pages: 1 -->
<svg width="619pt" height="160pt"
 viewBox="0.00 0.00 619.00 160.00" xmlns="http://www.w3.org/2000/svg" xmlns:xlink="http://www.w3.org/1999/xlink">
<g id="graph0" class="graph" transform="scale(1 1) rotate(0) translate(4 156)">
<title>race</title>
<polygon fill="white" stroke="transparent" points="-4,4 -4,-156 615,-156 615,4 -4,4"/>
<!-- __field__ -->
<g id="node1" class="node">
<title>__field__</title>
<path fill="#fef9c3" stroke="#ca8a04" stroke-width="2" d="M599,-94C599,-94 450,-94 450,-94 444,-94 438,-88 438,-82 438,-82 438,-70 438,-70 438,-64 444,-58 450,-58 450,-58 599,-58 599,-58 605,-58 611,-64 611,-70 611,-70 611,-82 611,-82 611,-88 605,-94 599,-94"/>
<text text-anchor="middle" x="524.5" y="-73.2" font-family="Helvetica,sans-Serif" font-size="11.00">BoundServiceSession.mTotal</text>
</g>
<!-- __guard__ -->
<g id="node2" class="node">
<title>__guard__</title>
<path fill="#dcfce7" stroke="#16a34a" stroke-width="2" d="M220.5,-152C220.5,-152 89.5,-152 89.5,-152 83.5,-152 77.5,-146 77.5,-140 77.5,-140 77.5,-128 77.5,-128 77.5,-122 83.5,-116 89.5,-116 89.5,-116 220.5,-116 220.5,-116 226.5,-116 232.5,-122 232.5,-128 232.5,-128 232.5,-140 232.5,-140 232.5,-146 226.5,-152 220.5,-152"/>
<text text-anchor="middle" x="155" y="-131.2" font-family="Helvetica,sans-Serif" font-size="11.00">am.BoundServiceSession</text>
</g>
<!-- __guard__&#45;&gt;__field__ -->
<g id="edge1" class="edge">
<title>__guard__&#45;&gt;__field__</title>
<path fill="none" stroke="#16a34a" stroke-width="1.6" d="M232.59,-121.91C289.87,-112.87 368.49,-100.46 429.57,-90.82"/>
<polygon fill="#16a34a" stroke="#16a34a" stroke-width="1.6" points="430.22,-93.56 437.68,-89.54 429.34,-88.03 430.22,-93.56"/>
<text text-anchor="middle" x="374" y="-107.8" font-family="Helvetica,sans-Serif" font-size="9.00" fill="#15803d"> guards 2/3</text>
</g>
<!-- m::com.android.server.am.BoundServiceSession.handleInvalidToken:(Ljava/lang/String;)V -->
<g id="node3" class="node">
<title>m::com.android.server.am.BoundServiceSession.handleInvalidToken:(Ljava/lang/String;)V</title>
<path fill="#fee2e2" stroke="#dc2626" d="M263.5,-94C263.5,-94 46.5,-94 46.5,-94 40.5,-94 34.5,-88 34.5,-82 34.5,-82 34.5,-70 34.5,-70 34.5,-64 40.5,-58 46.5,-58 46.5,-58 263.5,-58 263.5,-58 269.5,-58 275.5,-64 275.5,-70 275.5,-70 275.5,-82 275.5,-82 275.5,-88 269.5,-94 263.5,-94"/>
<text text-anchor="middle" x="155" y="-73.2" font-family="Helvetica,sans-Serif" font-size="11.00">BoundServiceSession.handleInvalidToken</text>
</g>
<!-- m::com.android.server.am.BoundServiceSession.handleInvalidToken:(Ljava/lang/String;)V&#45;&gt;__field__ -->
<g id="edge2" class="edge">
<title>m::com.android.server.am.BoundServiceSession.handleInvalidToken:(Ljava/lang/String;)V&#45;&gt;__field__</title>
<path fill="none" stroke="#dc2626" d="M275.57,-76C325.58,-76 382.85,-76 429.73,-76"/>
<polygon fill="#dc2626" stroke="#dc2626" points="429.76,-78.8 437.76,-76 429.76,-73.2 429.76,-78.8"/>
<text text-anchor="middle" x="374" y="-78.8" font-family="Helvetica,sans-Serif" font-size="9.00" fill="#dc2626"> writes unguarded</text>
</g>
<!-- m::com.android.server.am.BoundServiceSession.handleInvalidToken:(Ljava/lang/String;)V&#45;&gt;__field__ -->
<g id="edge3" class="edge">
<title>m::com.android.server.am.BoundServiceSession.handleInvalidToken:(Ljava/lang/String;)V&#45;&gt;__field__</title>
<path fill="none" stroke="#dc2626" d="M275.77,-62.73C319.87,-59.52 370.22,-57.82 416,-61 420.58,-61.32 425.25,-61.71 429.97,-62.16"/>
<polygon fill="#dc2626" stroke="#dc2626" points="429.7,-64.95 437.94,-62.97 430.27,-59.38 429.7,-64.95"/>
<text text-anchor="middle" x="374" y="-63.8" font-family="Helvetica,sans-Serif" font-size="9.00" fill="#dc2626"> reads unguarded</text>
</g>
<!-- m::com.android.server.am.BoundServiceSession.maybePostProcessStateUpdate:()V -->
<g id="node4" class="node">
<title>m::com.android.server.am.BoundServiceSession.maybePostProcessStateUpdate:()V</title>
<path fill="#fee2e2" stroke="#dc2626" d="M298,-36C298,-36 12,-36 12,-36 6,-36 0,-30 0,-24 0,-24 0,-12 0,-12 0,-6 6,0 12,0 12,0 298,0 298,0 304,0 310,-6 310,-12 310,-12 310,-24 310,-24 310,-30 304,-36 298,-36"/>
<text text-anchor="middle" x="155" y="-15.2" font-family="Helvetica,sans-Serif" font-size="11.00">BoundServiceSession.maybePostProcessStateUpdate</text>
</g>
<!-- m::com.android.server.am.BoundServiceSession.maybePostProcessStateUpdate:()V&#45;&gt;__field__ -->
<g id="edge4" class="edge">
<title>m::com.android.server.am.BoundServiceSession.maybePostProcessStateUpdate:()V&#45;&gt;__field__</title>
<path fill="none" stroke="#dc2626" d="M310,-28.53C345.03,-32.27 381.95,-37.29 416,-44 431.21,-47 447.36,-51.22 462.39,-55.63"/>
<polygon fill="#dc2626" stroke="#dc2626" points="461.67,-58.34 470.14,-57.94 463.27,-52.97 461.67,-58.34"/>
<text text-anchor="middle" x="374" y="-46.8" font-family="Helvetica,sans-Serif" font-size="9.00" fill="#dc2626"> reads unguarded</text>
</g>
</g>
</svg>
