<?xml version="1.0" encoding="UTF-8" standalone="no"?>
<!DOCTYPE svg PUBLIC "-//W3C//DTD SVG 1.1//EN"
 "http://www.w3.org/Graphics/SVG/1.1/DTD/svg11.dtd">
<!-- Generated by graphviz version 2.43.0 (0)
 -->
<!-- Title: race Pages: 1 -->
<svg width="698pt" height="334pt"
 viewBox="0.00 0.00 698.00 334.00" xmlns="http://www.w3.org/2000/svg" xmlns:xlink="http://www.w3.org/1999/xlink">
<g id="graph0" class="graph" transform="scale(1 1) rotate(0) translate(4 330)">
<title>race</title>
<polygon fill="white" stroke="transparent" points="-4,4 -4,-330 694,-330 694,4 -4,4"/>
<!-- __field__ -->
<g id="node1" class="node">
<title>__field__</title>
<path fill="#fef9c3" stroke="#ca8a04" stroke-width="2" d="M678,-181C678,-181 449,-181 449,-181 443,-181 437,-175 437,-169 437,-169 437,-157 437,-157 437,-151 443,-145 449,-145 449,-145 678,-145 678,-145 684,-145 690,-151 690,-157 690,-157 690,-169 690,-169 690,-175 684,-181 678,-181"/>
<text text-anchor="middle" x="563.5" y="-160.2" font-family="Helvetica,sans-Serif" font-size="11.00">SyncStorageEngine$AuthorityInfo.syncable</text>
</g>
<!-- __guard__ -->
<g id="node2" class="node">
<title>__guard__</title>
<path fill="#dcfce7" stroke="#16a34a" stroke-width="2" d="M241,-326C241,-326 68,-326 68,-326 62,-326 56,-320 56,-314 56,-314 56,-302 56,-302 56,-296 62,-290 68,-290 68,-290 241,-290 241,-290 247,-290 253,-296 253,-302 253,-302 253,-314 253,-314 253,-320 247,-326 241,-326"/>
<text text-anchor="middle" x="154.5" y="-305.2" font-family="Helvetica,sans-Serif" font-size="11.00">SyncStorageEngine.mAuthorities</text>
</g>
<!-- __guard__&#45;&gt;__field__ -->
<g id="edge1" class="edge">
<title>__guard__&#45;&gt;__field__</title>
<path fill="none" stroke="#16a34a" stroke-width="1.6" d="M253.01,-293.26C271.8,-289.39 291.17,-284.67 309,-279 387.53,-254.02 473.73,-210.96 522.67,-184.92"/>
<polygon fill="#16a34a" stroke="#16a34a" stroke-width="1.6" points="524.17,-187.29 529.9,-181.04 521.53,-182.35 524.17,-187.29"/>
<text text-anchor="middle" x="373" y="-271.8" font-family="Helvetica,sans-Serif" font-size="9.00" fill="#15803d"> guards 2/3</text>
</g>
<!-- m::com.android.server.content.SyncStorageEngine$AuthorityInfo.defaultInitialisation:()V -->
<g id="node3" class="node">
<title>m::com.android.server.content.SyncStorageEngine$AuthorityInfo.defaultInitialisation:()V</title>
<path fill="#fee2e2" stroke="#dc2626" d="M297,-268C297,-268 12,-268 12,-268 6,-268 0,-262 0,-256 0,-256 0,-244 0,-244 0,-238 6,-232 12,-232 12,-232 297,-232 297,-232 303,-232 309,-238 309,-244 309,-244 309,-256 309,-256 309,-262 303,-268 297,-268"/>
<text text-anchor="middle" x="154.5" y="-247.2" font-family="Helvetica,sans-Serif" font-size="11.00">SyncStorageEngine$AuthorityInfo.defaultInitialisation</text>
</g>
<!-- m::com.android.server.content.SyncStorageEngine$AuthorityInfo.defaultInitialisation:()V&#45;&gt;__field__ -->
<g id="edge2" class="edge">
<title>m::com.android.server.content.SyncStorageEngine$AuthorityInfo.defaultInitialisation:()V&#45;&gt;__field__</title>
<path fill="none" stroke="#dc2626" d="M253.88,-231.99C272.22,-228.47 291.21,-224.71 309,-221 366.05,-209.09 430.03,-194.44 479.44,-182.85"/>
<polygon fill="#dc2626" stroke="#dc2626" points="480.09,-185.57 487.24,-181.01 478.81,-180.12 480.09,-185.57"/>
<text text-anchor="middle" x="373" y="-217.8" font-family="Helvetica,sans-Serif" font-size="9.00" fill="#dc2626"> writes unguarded</text>
</g>
<!-- m::com.android.server.content.SyncManager.dumpSyncState:(Ljava/io/PrintWriter;Lcom/android/server/content/SyncAdapterStateFetcher;)V -->
<g id="node4" class="node">
<title>m::com.android.server.content.SyncManager.dumpSyncState:(Ljava/io/PrintWriter;Lcom/android/server/content/SyncAdapterStateFetcher;)V</title>
<path fill="#fee2e2" stroke="#dc2626" d="M232.5,-210C232.5,-210 76.5,-210 76.5,-210 70.5,-210 64.5,-204 64.5,-198 64.5,-198 64.5,-186 64.5,-186 64.5,-180 70.5,-174 76.5,-174 76.5,-174 232.5,-174 232.5,-174 238.5,-174 244.5,-180 244.5,-186 244.5,-186 244.5,-198 244.5,-198 244.5,-204 238.5,-210 232.5,-210"/>
<text text-anchor="middle" x="154.5" y="-189.2" font-family="Helvetica,sans-Serif" font-size="11.00">SyncManager.dumpSyncState</text>
</g>
<!-- m::com.android.server.content.SyncManager.dumpSyncState:(Ljava/io/PrintWriter;Lcom/android/server/content/SyncAdapterStateFetcher;)V&#45;&gt;__field__ -->
<g id="edge3" class="edge">
<title>m::com.android.server.content.SyncManager.dumpSyncState:(Ljava/io/PrintWriter;Lcom/android/server/content/SyncAdapterStateFetcher;)V&#45;&gt;__field__</title>
<path fill="none" stroke="#dc2626" d="M244.57,-185.65C298.53,-181.81 368.39,-176.83 428.88,-172.52"/>
<polygon fill="#dc2626" stroke="#dc2626" points="429.18,-175.31 436.96,-171.94 428.79,-169.72 429.18,-175.31"/>
<text text-anchor="middle" x="373" y="-181.8" font-family="Helvetica,sans-Serif" font-size="9.00" fill="#dc2626"> reads unguarded</text>
</g>
<!-- m::com.android.server.content.SyncStorageEngine$AuthorityInfo.toSafeString:()Ljava/lang/String; -->
<g id="node5" class="node">
<title>m::com.android.server.content.SyncStorageEngine$AuthorityInfo.toSafeString:()Ljava/lang/String;</title>
<path fill="#fee2e2" stroke="#dc2626" d="M278.5,-152C278.5,-152 30.5,-152 30.5,-152 24.5,-152 18.5,-146 18.5,-140 18.5,-140 18.5,-128 18.5,-128 18.5,-122 24.5,-116 30.5,-116 30.5,-116 278.5,-116 278.5,-116 284.5,-116 290.5,-122 290.5,-128 290.5,-128 290.5,-140 290.5,-140 290.5,-146 284.5,-152 278.5,-152"/>
<text text-anchor="middle" x="154.5" y="-131.2" font-family="Helvetica,sans-Serif" font-size="11.00">SyncStorageEngine$AuthorityInfo.toSafeString</text>
</g>
<!-- m::com.android.server.content.SyncStorageEngine$AuthorityInfo.toSafeString:()Ljava/lang/String;&#45;&gt;__field__ -->
<g id="edge4" class="edge">
<title>m::com.android.server.content.SyncStorageEngine$AuthorityInfo.toSafeString:()Ljava/lang/String;&#45;&gt;__field__</title>
<path fill="none" stroke="#dc2626" d="M290.74,-143.64C335.06,-146.79 384.26,-150.3 428.48,-153.45"/>
<polygon fill="#dc2626" stroke="#dc2626" points="428.5,-156.26 436.68,-154.03 428.9,-150.67 428.5,-156.26"/>
<text text-anchor="middle" x="373" y="-153.8" font-family="Helvetica,sans-Serif" font-size="9.00" fill="#dc2626"> reads unguarded</text>
</g>
<!-- m::com.android.server.content.SyncStorageEngine$AuthorityInfo.toString:()Ljava/lang/String; -->
<g id="node6" class="node">
<title>m::com.android.server.content.SyncStorageEngine$AuthorityInfo.toString:()Ljava/lang/String;</title>
<path fill="#fee2e2" stroke="#dc2626" d="M266.5,-94C266.5,-94 42.5,-94 42.5,-94 36.5,-94 30.5,-88 30.5,-82 30.5,-82 30.5,-70 30.5,-70 30.5,-64 36.5,-58 42.5,-58 42.5,-58 266.5,-58 266.5,-58 272.5,-58 278.5,-64 278.5,-70 278.5,-70 278.5,-82 278.5,-82 278.5,-88 272.5,-94 266.5,-94"/>
<text text-anchor="middle" x="154.5" y="-73.2" font-family="Helvetica,sans-Serif" font-size="11.00">SyncStorageEngine$AuthorityInfo.toString</text>
</g>
<!-- m::com.android.server.content.SyncStorageEngine$AuthorityInfo.toString:()Ljava/lang/String;&#45;&gt;__field__ -->
<g id="edge5" class="edge">
<title>m::com.android.server.content.SyncStorageEngine$AuthorityInfo.toString:()Ljava/lang/String;&#45;&gt;__field__</title>
<path fill="none" stroke="#dc2626" d="M253.88,-94.01C272.22,-97.53 291.21,-101.29 309,-105 366.05,-116.91 430.03,-131.56 479.44,-143.15"/>
<polygon fill="#dc2626" stroke="#dc2626" points="478.81,-145.88 487.24,-144.99 480.09,-140.43 478.81,-145.88"/>
<text text-anchor="middle" x="373" y="-129.8" font-family="Helvetica,sans-Serif" font-size="9.00" fill="#dc2626"> reads unguarded</text>
</g>
<!-- m::com.android.server.content.SyncStorageEngine.writeAccountInfoLocked:()V -->
<g id="node7" class="node">
<title>m::com.android.server.content.SyncStorageEngine.writeAccountInfoLocked:()V</title>
<path fill="#fee2e2" stroke="#dc2626" d="M271,-36C271,-36 38,-36 38,-36 32,-36 26,-30 26,-24 26,-24 26,-12 26,-12 26,-6 32,0 38,0 38,0 271,0 271,0 277,0 283,-6 283,-12 283,-12 283,-24 283,-24 283,-30 277,-36 271,-36"/>
<text text-anchor="middle" x="154.5" y="-15.2" font-family="Helvetica,sans-Serif" font-size="11.00">SyncStorageEngine.writeAccountInfoLocked</text>
</g>
<!-- m::com.android.server.content.SyncStorageEngine.writeAccountInfoLocked:()V&#45;&gt;__field__ -->
<g id="edge6" class="edge">
<title>m::com.android.server.content.SyncStorageEngine.writeAccountInfoLocked:()V&#45;&gt;__field__</title>
<path fill="none" stroke="#dc2626" d="M268.19,-36.08C282.06,-39.25 295.94,-42.87 309,-47 387.58,-71.82 473.76,-114.94 522.68,-141.03"/>
<polygon fill="#dc2626" stroke="#dc2626" points="521.54,-143.6 529.92,-144.91 524.19,-138.66 521.54,-143.6"/>
<text text-anchor="middle" x="373" y="-87.8" font-family="Helvetica,sans-Serif" font-size="9.00" fill="#dc2626"> reads unguarded</text>
</g>
</g>
</svg>
