<?xml version="1.0" encoding="UTF-8" standalone="no"?>
<!DOCTYPE svg PUBLIC "-//W3C//DTD SVG 1.1//EN"
 "http://www.w3.org/Graphics/SVG/1.1/DTD/svg11.dtd">
<!-- Generated by graphviz version 2.43.0 (0)
 -->
<!-- Title: race Pages: 1 -->
<svg width="697pt" height="168pt"
 viewBox="0.00 0.00 697.00 168.00" xmlns="http://www.w3.org/2000/svg" xmlns:xlink="http://www.w3.org/1999/xlink">
<g id="graph0" class="graph" transform="scale(1 1) rotate(0) translate(4 164)">
<title>race</title>
<polygon fill="white" stroke="transparent" points="-4,4 -4,-164 693,-164 693,4 -4,4"/>
<!-- __field__ -->
<g id="node1" class="node">
<title>__field__</title>
<path fill="#fef9c3" stroke="#ca8a04" stroke-width="2" d="M677,-83C677,-83 456,-83 456,-83 450,-83 444,-77 444,-71 444,-71 444,-59 444,-59 444,-53 450,-47 456,-47 456,-47 677,-47 677,-47 683,-47 689,-53 689,-59 689,-59 689,-71 689,-71 689,-77 683,-83 677,-83"/>
<text text-anchor="middle" x="566.5" y="-62.2" font-family="Helvetica,sans-Serif" font-size="11.00">DeviceIdleController.mCurLightIdleBudget</text>
</g>
<!-- __guard__ -->
<g id="node2" class="node">
<title>__guard__</title>
<path fill="#dcfce7" stroke="#16a34a" stroke-width="2" d="M229,-160C229,-160 87,-160 87,-160 81,-160 75,-154 75,-148 75,-148 75,-136 75,-136 75,-130 81,-124 87,-124 87,-124 229,-124 229,-124 235,-124 241,-130 241,-136 241,-136 241,-148 241,-148 241,-154 235,-160 229,-160"/>
<text text-anchor="middle" x="158" y="-139.2" font-family="Helvetica,sans-Serif" font-size="11.00">server.DeviceIdleController</text>
</g>
<!-- __guard__&#45;&gt;__field__ -->
<g id="edge1" class="edge">
<title>__guard__&#45;&gt;__field__</title>
<path fill="none" stroke="#16a34a" stroke-width="1.6" d="M241.32,-126.91C265.4,-122.47 291.76,-117.57 316,-113 364.97,-103.77 419.3,-93.34 464.73,-84.56"/>
<polygon fill="#16a34a" stroke="#16a34a" stroke-width="1.6" points="465.49,-87.27 472.82,-83 464.43,-81.77 465.49,-87.27"/>
<text text-anchor="middle" x="380" y="-109.8" font-family="Helvetica,sans-Serif" font-size="9.00" fill="#15803d"> guards 5/6</text>
</g>
<!-- m::com.android.server.DeviceIdleController.resetLightIdleManagementLocked:()V -->
<g id="node3" class="node">
<title>m::com.android.server.DeviceIdleController.resetLightIdleManagementLocked:()V</title>
<path fill="#fee2e2" stroke="#dc2626" d="M304,-102C304,-102 12,-102 12,-102 6,-102 0,-96 0,-90 0,-90 0,-78 0,-78 0,-72 6,-66 12,-66 12,-66 304,-66 304,-66 310,-66 316,-72 316,-78 316,-78 316,-90 316,-90 316,-96 310,-102 304,-102"/>
<text text-anchor="middle" x="158" y="-81.2" font-family="Helvetica,sans-Serif" font-size="11.00">DeviceIdleController.resetLightIdleManagementLocked</text>
</g>
<!-- m::com.android.server.DeviceIdleController.resetLightIdleManagementLocked:()V&#45;&gt;__field__ -->
<g id="edge2" class="edge">
<title>m::com.android.server.DeviceIdleController.resetLightIdleManagementLocked:()V&#45;&gt;__field__</title>
<path fill="none" stroke="#dc2626" d="M316.16,-76.65C355.69,-74.81 397.67,-72.84 435.69,-71.07"/>
<polygon fill="#dc2626" stroke="#dc2626" points="435.88,-73.86 443.74,-70.69 435.62,-68.27 435.88,-73.86"/>
<text text-anchor="middle" x="380" y="-77.8" font-family="Helvetica,sans-Serif" font-size="9.00" fill="#dc2626"> writes unguarded</text>
</g>
<!-- m::com.android.server.DeviceIdleController.dump:(Ljava/io/FileDescriptor;Ljava/io/PrintWriter;[Ljava/lang/String;)V -->
<g id="node4" class="node">
<title>m::com.android.server.DeviceIdleController.dump:(Ljava/io/FileDescriptor;Ljava/io/PrintWriter;[Ljava/lang/String;)V</title>
<path fill="#fee2e2" stroke="#dc2626" d="M226.5,-36C226.5,-36 89.5,-36 89.5,-36 83.5,-36 77.5,-30 77.5,-24 77.5,-24 77.5,-12 77.5,-12 77.5,-6 83.5,0 89.5,0 89.5,0 226.5,0 226.5,0 232.5,0 238.5,-6 238.5,-12 238.5,-12 238.5,-24 238.5,-24 238.5,-30 232.5,-36 226.5,-36"/>
<text text-anchor="middle" x="158" y="-15.2" font-family="Helvetica,sans-Serif" font-size="11.00">DeviceIdleController.dump</text>
</g>
<!-- m::com.android.server.DeviceIdleController.dump:(Ljava/io/FileDescriptor;Ljava/io/PrintWriter;[Ljava/lang/String;)V&#45;&gt;__field__ -->
<g id="edge3" class="edge">
<title>m::com.android.server.DeviceIdleController.dump:(Ljava/io/FileDescriptor;Ljava/io/PrintWriter;[Ljava/lang/String;)V&#45;&gt;__field__</title>
<path fill="none" stroke="#dc2626" d="M238.83,-27.23C294.81,-33.7 370.91,-42.5 435.57,-49.98"/>
<polygon fill="#dc2626" stroke="#dc2626" points="435.54,-52.79 443.81,-50.93 436.18,-47.23 435.54,-52.79"/>
<text text-anchor="middle" x="380" y="-49.8" font-family="Helvetica,sans-Serif" font-size="9.00" fill="#dc2626"> reads unguarded</text>
</g>
<!-- m::com.android.server.DeviceIdleController.dump:(Ljava/io/FileDescriptor;Ljava/io/PrintWriter;[Ljava/lang/String;)V&#45;&gt;__field__ -->
<g id="edge4" class="edge">
<title>m::com.android.server.DeviceIdleController.dump:(Ljava/io/FileDescriptor;Ljava/io/PrintWriter;[Ljava/lang/String;)V&#45;&gt;__field__</title>
<path fill="none" stroke="#dc2626" d="M238.57,-15.07C290.96,-14.38 360.91,-15.82 422,-25 449.7,-29.16 479.64,-36.96 504.97,-44.58"/>
<polygon fill="#dc2626" stroke="#dc2626" points="504.21,-47.27 512.68,-46.93 505.85,-41.92 504.21,-47.27"/>
<text text-anchor="middle" x="380" y="-27.8" font-family="Helvetica,sans-Serif" font-size="9.00" fill="#dc2626"> reads unguarded</text>
</g>
</g>
</svg>
