<?xml version="1.0" encoding="UTF-8" standalone="no"?>
<!DOCTYPE svg PUBLIC "-//W3C//DTD SVG 1.1//EN"
 "http://www.w3.org/Graphics/SVG/1.1/DTD/svg11.dtd">
<!-- Generated by graphviz version 2.43.0 (0)
 -->
<!-- Title: race Pages: 1 -->
<svg width="513pt" height="123pt"
 viewBox="0.00 0.00 513.00 123.39" xmlns="http://www.w3.org/2000/svg" xmlns:xlink="http://www.w3.org/1999/xlink">
<g id="graph0" class="graph" transform="scale(1 1) rotate(0) translate(4 119.39)">
<title>race</title>
<polygon fill="white" stroke="transparent" points="-4,4 -4,-119.39 509,-119.39 509,4 -4,4"/>
<!-- __field__ -->
<g id="node1" class="node">
<title>__field__</title>
<path fill="#fef9c3" stroke="#ca8a04" stroke-width="2" d="M493,-59.39C493,-59.39 353,-59.39 353,-59.39 347,-59.39 341,-53.39 341,-47.39 341,-47.39 341,-35.39 341,-35.39 341,-29.39 347,-23.39 353,-23.39 353,-23.39 493,-23.39 493,-23.39 499,-23.39 505,-29.39 505,-35.39 505,-35.39 505,-47.39 505,-47.39 505,-53.39 499,-59.39 493,-59.39"/>
<text text-anchor="middle" x="423" y="-38.59" font-family="Helvetica,sans-Serif" font-size="11.00">LocalEventLog.mStartTime</text>
</g>
<!-- __guard__ -->
<g id="node2" class="node">
<title>__guard__</title>
<path fill="#dcfce7" stroke="#16a34a" stroke-width="2" d="M168.5,-115.39C168.5,-115.39 44.5,-115.39 44.5,-115.39 38.5,-115.39 32.5,-109.39 32.5,-103.39 32.5,-103.39 32.5,-91.39 32.5,-91.39 32.5,-85.39 38.5,-79.39 44.5,-79.39 44.5,-79.39 168.5,-79.39 168.5,-79.39 174.5,-79.39 180.5,-85.39 180.5,-91.39 180.5,-91.39 180.5,-103.39 180.5,-103.39 180.5,-109.39 174.5,-115.39 168.5,-115.39"/>
<text text-anchor="middle" x="106.5" y="-94.59" font-family="Helvetica,sans-Serif" font-size="11.00">eventlog.LocalEventLog</text>
</g>
<!-- __guard__&#45;&gt;__field__ -->
<g id="edge1" class="edge">
<title>__guard__&#45;&gt;__field__</title>
<path fill="none" stroke="#16a34a" stroke-width="1.6" d="M180.84,-84.33C226.23,-76.25 284.81,-65.82 332.87,-57.26"/>
<polygon fill="#16a34a" stroke="#16a34a" stroke-width="1.6" points="333.41,-60.01 340.8,-55.85 332.43,-54.5 333.41,-60.01"/>
<text text-anchor="middle" x="277" y="-77.19" font-family="Helvetica,sans-Serif" font-size="9.00" fill="#15803d"> guards 2/3</text>
</g>
<!-- m::com.android.server.location.eventlog.LocalEventLog.addLogEventInternal:(ZILjava/lang/Object;)V -->
<g id="node3" class="node">
<title>m::com.android.server.location.eventlog.LocalEventLog.addLogEventInternal:(ZILjava/lang/Object;)V</title>
<path fill="#fee2e2" stroke="#dc2626" d="M201,-41.39C201,-41.39 12,-41.39 12,-41.39 6,-41.39 0,-35.39 0,-29.39 0,-29.39 0,-17.39 0,-17.39 0,-11.39 6,-5.39 12,-5.39 12,-5.39 201,-5.39 201,-5.39 207,-5.39 213,-11.39 213,-17.39 213,-17.39 213,-29.39 213,-29.39 213,-35.39 207,-41.39 201,-41.39"/>
<text text-anchor="middle" x="106.5" y="-20.59" font-family="Helvetica,sans-Serif" font-size="11.00">LocalEventLog.addLogEventInternal</text>
</g>
<!-- m::com.android.server.location.eventlog.LocalEventLog.addLogEventInternal:(ZILjava/lang/Object;)V&#45;&gt;__field__ -->
<g id="edge2" class="edge">
<title>m::com.android.server.location.eventlog.LocalEventLog.addLogEventInternal:(ZILjava/lang/Object;)V&#45;&gt;__field__</title>
<path fill="none" stroke="#dc2626" d="M213.22,-32.91C220.59,-33.45 227.9,-33.95 235,-34.39 266.85,-36.36 301.79,-37.85 332.76,-38.93"/>
<polygon fill="#dc2626" stroke="#dc2626" points="332.87,-41.74 340.96,-39.22 333.06,-36.14 332.87,-41.74"/>
<text text-anchor="middle" x="277" y="-40.19" font-family="Helvetica,sans-Serif" font-size="9.00" fill="#dc2626"> writes unguarded</text>
</g>
<!-- m::com.android.server.location.eventlog.LocalEventLog.addLogEventInternal:(ZILjava/lang/Object;)V&#45;&gt;__field__ -->
<g id="edge3" class="edge">
<title>m::com.android.server.location.eventlog.LocalEventLog.addLogEventInternal:(ZILjava/lang/Object;)V&#45;&gt;__field__</title>
<path fill="none" stroke="#dc2626" d="M213.08,-19.81C246.96,-19.62 284.61,-20.41 319,-23.39 323.58,-23.79 328.25,-24.28 332.97,-24.85"/>
<polygon fill="#dc2626" stroke="#dc2626" points="332.64,-27.63 340.93,-25.87 333.35,-22.08 332.64,-27.63"/>
<text text-anchor="middle" x="277" y="-26.19" font-family="Helvetica,sans-Serif" font-size="9.00" fill="#dc2626"> reads unguarded</text>
</g>
<!-- m::com.android.server.location.eventlog.LocalEventLog.addLogEventInternal:(ZILjava/lang/Object;)V&#45;&gt;__field__ -->
<g id="edge4" class="edge">
<title>m::com.android.server.location.eventlog.LocalEventLog.addLogEventInternal:(ZILjava/lang/Object;)V&#45;&gt;__field__</title>
<path fill="none" stroke="#dc2626" d="M194.62,-5.36C232.96,-0.04 278.41,2.68 319,-4.39 337.51,-7.61 357.08,-13.86 374.13,-20.32"/>
<polygon fill="#dc2626" stroke="#dc2626" points="373.31,-23.01 381.78,-23.3 375.34,-17.79 373.31,-23.01"/>
<text text-anchor="middle" x="277" y="-7.19" font-family="Helvetica,sans-Serif" font-size="9.00" fill="#dc2626"> reads unguarded</text>
</g>
</g>
</svg>
