<?xml version="1.0" encoding="UTF-8" standalone="no"?>
<!DOCTYPE svg PUBLIC "-//W3C//DTD SVG 1.1//EN"
 "http://www.w3.org/Graphics/SVG/1.1/DTD/svg11.dtd">
<!-- Generated by graphviz version 2.43.0 (0)
 -->
<!-- Title: race Pages: 1 -->
<svg width="680pt" height="288pt"
 viewBox="0.00 0.00 680.00 288.00" xmlns="http://www.w3.org/2000/svg" xmlns:xlink="http://www.w3.org/1999/xlink">
<g id="graph0" class="graph" transform="scale(1 1) rotate(0) translate(4 284)">
<title>race</title>
<polygon fill="white" stroke="transparent" points="-4,4 -4,-284 676,-284 676,4 -4,4"/>
<!-- __field__ -->
<g id="node1" class="node">
<title>__field__</title>
<path fill="#fef9c3" stroke="#ca8a04" stroke-width="2" d="M660,-131C660,-131 451,-131 451,-131 445,-131 439,-125 439,-119 439,-119 439,-107 439,-107 439,-101 445,-95 451,-95 451,-95 660,-95 660,-95 666,-95 672,-101 672,-107 672,-107 672,-119 672,-119 672,-125 666,-131 660,-131"/>
<text text-anchor="middle" x="555.5" y="-110.2" font-family="Helvetica,sans-Serif" font-size="11.00">DevicePolicyData.mNewUserDisclaimer</text>
</g>
<!-- __guard__ -->
<g id="node2" class="node">
<title>__guard__</title>
<path fill="#dcfce7" stroke="#16a34a" stroke-width="2" d="M297,-280C297,-280 14,-280 14,-280 8,-280 2,-274 2,-268 2,-268 2,-256 2,-256 2,-250 8,-244 14,-244 14,-244 297,-244 297,-244 303,-244 309,-250 309,-256 309,-256 309,-268 309,-268 309,-274 303,-280 297,-280"/>
<text text-anchor="middle" x="155.5" y="-259.2" font-family="Helvetica,sans-Serif" font-size="11.00">DevicePolicyManagerService.mLockDoNoUseDirectly</text>
</g>
<!-- __guard__&#45;&gt;__field__ -->
<g id="edge1" class="edge">
<title>__guard__&#45;&gt;__field__</title>
<path fill="none" stroke="#16a34a" stroke-width="1.6" d="M270.82,-243.96C284.49,-240.8 298.15,-237.16 311,-233 388.03,-208.06 471.34,-162.54 517.81,-135.31"/>
<polygon fill="#16a34a" stroke="#16a34a" stroke-width="1.6" points="519.48,-137.57 524.94,-131.1 516.63,-132.75 519.48,-137.57"/>
<text text-anchor="middle" x="375" y="-225.8" font-family="Helvetica,sans-Serif" font-size="9.00" fill="#15803d"> guards 2/3</text>
</g>
<!-- m::com.android.server.devicepolicy.DevicePolicyData.load:(Lcom/android/server/devicepolicy/DevicePolicyData;Lcom/android/internal/util/JournaledFile;Ljava/util/function/Function;Landroid/content/ComponentName;)V -->
<g id="node3" class="node">
<title>m::com.android.server.devicepolicy.DevicePolicyData.load:(Lcom/android/server/devicepolicy/DevicePolicyData;Lcom/android/internal/util/JournaledFile;Ljava/util/function/Function;Landroid/content/ComponentName;)V</title>
<path fill="#fee2e2" stroke="#dc2626" d="M213,-222C213,-222 98,-222 98,-222 92,-222 86,-216 86,-210 86,-210 86,-198 86,-198 86,-192 92,-186 98,-186 98,-186 213,-186 213,-186 219,-186 225,-192 225,-198 225,-198 225,-210 225,-210 225,-216 219,-222 213,-222"/>
<text text-anchor="middle" x="155.5" y="-201.2" font-family="Helvetica,sans-Serif" font-size="11.00">DevicePolicyData.load</text>
</g>
<!-- m::com.android.server.devicepolicy.DevicePolicyData.load:(Lcom/android/server/devicepolicy/DevicePolicyData;Lcom/android/internal/util/JournaledFile;Ljava/util/function/Function;Landroid/content/ComponentName;)V&#45;&gt;__field__ -->
<g id="edge2" class="edge">
<title>m::com.android.server.devicepolicy.DevicePolicyData.load:(Lcom/android/server/devicepolicy/DevicePolicyData;Lcom/android/internal/util/JournaledFile;Ljava/util/function/Function;Landroid/content/ComponentName;)V&#45;&gt;__field__</title>
<path fill="none" stroke="#dc2626" d="M225.14,-192.09C252,-187.17 283.02,-181.18 311,-175 368.2,-162.36 432.38,-145.93 480.49,-133.15"/>
<polygon fill="#dc2626" stroke="#dc2626" points="481.36,-135.82 488.37,-131.05 479.92,-130.41 481.36,-135.82"/>
<text text-anchor="middle" x="375" y="-170.8" font-family="Helvetica,sans-Serif" font-size="9.00" fill="#dc2626"> writes unguarded</text>
</g>
<!-- m::com.android.server.devicepolicy.DevicePolicyData.dump:(Landroid/util/IndentingPrintWriter;)V -->
<g id="node4" class="node">
<title>m::com.android.server.devicepolicy.DevicePolicyData.dump:(Landroid/util/IndentingPrintWriter;)V</title>
<path fill="#fee2e2" stroke="#dc2626" d="M216.5,-164C216.5,-164 94.5,-164 94.5,-164 88.5,-164 82.5,-158 82.5,-152 82.5,-152 82.5,-140 82.5,-140 82.5,-134 88.5,-128 94.5,-128 94.5,-128 216.5,-128 216.5,-128 222.5,-128 228.5,-134 228.5,-140 228.5,-140 228.5,-152 228.5,-152 228.5,-158 222.5,-164 216.5,-164"/>
<text text-anchor="middle" x="155.5" y="-143.2" font-family="Helvetica,sans-Serif" font-size="11.00">DevicePolicyData.dump</text>
</g>
<!-- m::com.android.server.devicepolicy.DevicePolicyData.dump:(Landroid/util/IndentingPrintWriter;)V&#45;&gt;__field__ -->
<g id="edge3" class="edge">
<title>m::com.android.server.devicepolicy.DevicePolicyData.dump:(Landroid/util/IndentingPrintWriter;)V&#45;&gt;__field__</title>
<path fill="none" stroke="#dc2626" d="M228.57,-140.02C284.86,-135.36 364.41,-128.76 430.82,-123.25"/>
<polygon fill="#dc2626" stroke="#dc2626" points="431.11,-126.04 438.85,-122.59 430.65,-120.46 431.11,-126.04"/>
<text text-anchor="middle" x="375" y="-132.8" font-family="Helvetica,sans-Serif" font-size="9.00" fill="#dc2626"> reads unguarded</text>
</g>
<!-- m::com.android.server.devicepolicy.DevicePolicyData.isNewUserDisclaimerAcknowledged:()Z -->
<g id="node5" class="node">
<title>m::com.android.server.devicepolicy.DevicePolicyData.isNewUserDisclaimerAcknowledged:()Z</title>
<path fill="#fee2e2" stroke="#dc2626" d="M299,-102C299,-102 12,-102 12,-102 6,-102 0,-96 0,-90 0,-90 0,-78 0,-78 0,-72 6,-66 12,-66 12,-66 299,-66 299,-66 305,-66 311,-72 311,-78 311,-78 311,-90 311,-90 311,-96 305,-102 299,-102"/>
<text text-anchor="middle" x="155.5" y="-81.2" font-family="Helvetica,sans-Serif" font-size="11.00">DevicePolicyData.isNewUserDisclaimerAcknowledged</text>
</g>
<!-- m::com.android.server.devicepolicy.DevicePolicyData.isNewUserDisclaimerAcknowledged:()Z&#45;&gt;__field__ -->
<g id="edge4" class="edge">
<title>m::com.android.server.devicepolicy.DevicePolicyData.isNewUserDisclaimerAcknowledged:()Z&#45;&gt;__field__</title>
<path fill="none" stroke="#dc2626" d="M311.23,-95.27C350.89,-98.16 393.01,-101.23 430.87,-103.99"/>
<polygon fill="#dc2626" stroke="#dc2626" points="430.7,-106.79 438.88,-104.58 431.1,-101.2 430.7,-106.79"/>
<text text-anchor="middle" x="375" y="-104.8" font-family="Helvetica,sans-Serif" font-size="9.00" fill="#dc2626"> reads unguarded</text>
</g>
<!-- m::com.android.server.devicepolicy.DevicePolicyData.isNewUserDisclaimerAcknowledged:()Z&#45;&gt;__field__ -->
<g id="edge5" class="edge">
<title>m::com.android.server.devicepolicy.DevicePolicyData.isNewUserDisclaimerAcknowledged:()Z&#45;&gt;__field__</title>
<path fill="none" stroke="#dc2626" d="M311.09,-76.78C346,-76.83 382.84,-78.2 417,-82 437.72,-84.31 459.88,-88.51 480.22,-93.09"/>
<polygon fill="#dc2626" stroke="#dc2626" points="479.79,-95.87 488.22,-94.94 481.05,-90.41 479.79,-95.87"/>
<text text-anchor="middle" x="375" y="-84.8" font-family="Helvetica,sans-Serif" font-size="9.00" fill="#dc2626"> reads unguarded</text>
</g>
<!-- m::com.android.server.devicepolicy.DevicePolicyData.store:(Lcom/android/server/devicepolicy/DevicePolicyData;Lcom/android/internal/util/JournaledFile;)Z -->
<g id="node6" class="node">
<title>m::com.android.server.devicepolicy.DevicePolicyData.store:(Lcom/android/server/devicepolicy/DevicePolicyData;Lcom/android/internal/util/JournaledFile;)Z</title>
<path fill="#fee2e2" stroke="#dc2626" d="M215.5,-36C215.5,-36 95.5,-36 95.5,-36 89.5,-36 83.5,-30 83.5,-24 83.5,-24 83.5,-12 83.5,-12 83.5,-6 89.5,0 95.5,0 95.5,0 215.5,0 215.5,0 221.5,0 227.5,-6 227.5,-12 227.5,-12 227.5,-24 227.5,-24 227.5,-30 221.5,-36 215.5,-36"/>
<text text-anchor="middle" x="155.5" y="-15.2" font-family="Helvetica,sans-Serif" font-size="11.00">DevicePolicyData.store</text>
</g>
<!-- m::com.android.server.devicepolicy.DevicePolicyData.store:(Lcom/android/server/devicepolicy/DevicePolicyData;Lcom/android/internal/util/JournaledFile;)Z&#45;&gt;__field__ -->
<g id="edge6" class="edge">
<title>m::com.android.server.devicepolicy.DevicePolicyData.store:(Lcom/android/server/devicepolicy/DevicePolicyData;Lcom/android/internal/util/JournaledFile;)Z&#45;&gt;__field__</title>
<path fill="none" stroke="#dc2626" d="M227.76,-26.36C280.55,-33.44 353.97,-45.15 417,-62 446.66,-69.93 478.89,-81.71 504.69,-91.95"/>
<polygon fill="#dc2626" stroke="#dc2626" points="503.66,-94.55 512.13,-94.93 505.74,-89.35 503.66,-94.55"/>
<text text-anchor="middle" x="375" y="-64.8" font-family="Helvetica,sans-Serif" font-size="9.00" fill="#dc2626"> reads unguarded</text>
</g>
<!-- m::com.android.server.devicepolicy.DevicePolicyData.store:(Lcom/android/server/devicepolicy/DevicePolicyData;Lcom/android/internal/util/JournaledFile;)Z&#45;&gt;__field__ -->
<g id="edge7" class="edge">
<title>m::com.android.server.devicepolicy.DevicePolicyData.store:(Lcom/android/server/devicepolicy/DevicePolicyData;Lcom/android/internal/util/JournaledFile;)Z&#45;&gt;__field__</title>
<path fill="none" stroke="#dc2626" d="M227.76,-11.53C281.05,-8.94 355.07,-10.16 417,-29 458.45,-41.61 500.07,-69.71 526.49,-89.94"/>
<polygon fill="#dc2626" stroke="#dc2626" points="524.83,-92.2 532.87,-94.9 528.27,-87.77 524.83,-92.2"/>
<text text-anchor="middle" x="375" y="-31.8" font-family="Helvetica,sans-Serif" font-size="9.00" fill="#dc2626"> reads unguarded</text>
</g>
</g>
</svg>
