<?xml version="1.0" encoding="UTF-8" standalone="no"?>
<!DOCTYPE svg PUBLIC "-//W3C//DTD SVG 1.1//EN"
 "http://www.w3.org/Graphics/SVG/1.1/DTD/svg11.dtd">
<!-- Generated by graphviz version 2.43.0 (0)
 -->
<!-- Title: race Pages: 1 -->
<svg width="703pt" height="168pt"
 viewBox="0.00 0.00 703.00 168.00" xmlns="http://www.w3.org/2000/svg" xmlns:xlink="http://www.w3.org/1999/xlink">
<g id="graph0" class="graph" transform="scale(1 1) rotate(0) translate(4 164)">
<title>race</title>
<polygon fill="white" stroke="transparent" points="-4,4 -4,-164 699,-164 699,4 -4,4"/>
<!-- __field__ -->
<g id="node1" class="node">
<title>__field__</title>
<path fill="#fef9c3" stroke="#ca8a04" stroke-width="2" d="M683,-83C683,-83 447,-83 447,-83 441,-83 435,-77 435,-71 435,-71 435,-59 435,-59 435,-53 441,-47 447,-47 447,-47 683,-47 683,-47 689,-47 695,-53 695,-59 695,-59 695,-71 695,-71 695,-77 689,-83 683,-83"/>
<text text-anchor="middle" x="565" y="-62.2" font-family="Helvetica,sans-Serif" font-size="11.00">DevicePolicyData.mFailedPasswordAttempts</text>
</g>
<!-- __guard__ -->
<g id="node2" class="node">
<title>__guard__</title>
<path fill="#dcfce7" stroke="#16a34a" stroke-width="2" d="M295,-160C295,-160 12,-160 12,-160 6,-160 0,-154 0,-148 0,-148 0,-136 0,-136 0,-130 6,-124 12,-124 12,-124 295,-124 295,-124 301,-124 307,-130 307,-136 307,-136 307,-148 307,-148 307,-154 301,-160 295,-160"/>
<text text-anchor="middle" x="153.5" y="-139.2" font-family="Helvetica,sans-Serif" font-size="11.00">DevicePolicyManagerService.mLockDoNoUseDirectly</text>
</g>
<!-- __guard__&#45;&gt;__field__ -->
<g id="edge1" class="edge">
<title>__guard__&#45;&gt;__field__</title>
<path fill="none" stroke="#16a34a" stroke-width="1.6" d="M250.25,-124C313.15,-112.17 395.43,-96.7 459.94,-84.57"/>
<polygon fill="#16a34a" stroke="#16a34a" stroke-width="1.6" points="460.77,-87.26 468.12,-83.03 459.74,-81.76 460.77,-87.26"/>
<text text-anchor="middle" x="371" y="-110.8" font-family="Helvetica,sans-Serif" font-size="9.00" fill="#15803d"> guards 2/3</text>
</g>
<!-- m::com.android.server.devicepolicy.DevicePolicyData.load:(Lcom/android/server/devicepolicy/DevicePolicyData;Lcom/android/internal/util/JournaledFile;Ljava/util/function/Function;Landroid/content/ComponentName;)V -->
<g id="node3" class="node">
<title>m::com.android.server.devicepolicy.DevicePolicyData.load:(Lcom/android/server/devicepolicy/DevicePolicyData;Lcom/android/internal/util/JournaledFile;Ljava/util/function/Function;Landroid/content/ComponentName;)V</title>
<path fill="#fee2e2" stroke="#dc2626" d="M211,-102C211,-102 96,-102 96,-102 90,-102 84,-96 84,-90 84,-90 84,-78 84,-78 84,-72 90,-66 96,-66 96,-66 211,-66 211,-66 217,-66 223,-72 223,-78 223,-78 223,-90 223,-90 223,-96 217,-102 211,-102"/>
<text text-anchor="middle" x="153.5" y="-81.2" font-family="Helvetica,sans-Serif" font-size="11.00">DevicePolicyData.load</text>
</g>
<!-- m::com.android.server.devicepolicy.DevicePolicyData.load:(Lcom/android/server/devicepolicy/DevicePolicyData;Lcom/android/internal/util/JournaledFile;Ljava/util/function/Function;Landroid/content/ComponentName;)V&#45;&gt;__field__ -->
<g id="edge2" class="edge">
<title>m::com.android.server.devicepolicy.DevicePolicyData.load:(Lcom/android/server/devicepolicy/DevicePolicyData;Lcom/android/internal/util/JournaledFile;Ljava/util/function/Function;Landroid/content/ComponentName;)V&#45;&gt;__field__</title>
<path fill="none" stroke="#dc2626" d="M223.04,-80.82C278.4,-78.25 358.06,-74.56 426.46,-71.38"/>
<polygon fill="#dc2626" stroke="#dc2626" points="426.88,-74.17 434.75,-71 426.62,-68.57 426.88,-74.17"/>
<text text-anchor="middle" x="371" y="-77.8" font-family="Helvetica,sans-Serif" font-size="9.00" fill="#dc2626"> writes unguarded</text>
</g>
<!-- m::com.android.server.devicepolicy.DevicePolicyData.store:(Lcom/android/server/devicepolicy/DevicePolicyData;Lcom/android/internal/util/JournaledFile;)Z -->
<g id="node4" class="node">
<title>m::com.android.server.devicepolicy.DevicePolicyData.store:(Lcom/android/server/devicepolicy/DevicePolicyData;Lcom/android/internal/util/JournaledFile;)Z</title>
<path fill="#fee2e2" stroke="#dc2626" d="M213.5,-36C213.5,-36 93.5,-36 93.5,-36 87.5,-36 81.5,-30 81.5,-24 81.5,-24 81.5,-12 81.5,-12 81.5,-6 87.5,0 93.5,0 93.5,0 213.5,0 213.5,0 219.5,0 225.5,-6 225.5,-12 225.5,-12 225.5,-24 225.5,-24 225.5,-30 219.5,-36 213.5,-36"/>
<text text-anchor="middle" x="153.5" y="-15.2" font-family="Helvetica,sans-Serif" font-size="11.00">DevicePolicyData.store</text>
</g>
<!-- m::com.android.server.devicepolicy.DevicePolicyData.store:(Lcom/android/server/devicepolicy/DevicePolicyData;Lcom/android/internal/util/JournaledFile;)Z&#45;&gt;__field__ -->
<g id="edge3" class="edge">
<title>m::com.android.server.devicepolicy.DevicePolicyData.store:(Lcom/android/server/devicepolicy/DevicePolicyData;Lcom/android/internal/util/JournaledFile;)Z&#45;&gt;__field__</title>
<path fill="none" stroke="#dc2626" d="M225.83,-26.19C281.1,-32.53 359.34,-41.51 426.65,-49.24"/>
<polygon fill="#dc2626" stroke="#dc2626" points="426.53,-52.04 434.8,-50.17 427.17,-46.48 426.53,-52.04"/>
<text text-anchor="middle" x="371" y="-49.8" font-family="Helvetica,sans-Serif" font-size="9.00" fill="#dc2626"> reads unguarded</text>
</g>
<!-- m::com.android.server.devicepolicy.DevicePolicyData.store:(Lcom/android/server/devicepolicy/DevicePolicyData;Lcom/android/internal/util/JournaledFile;)Z&#45;&gt;__field__ -->
<g id="edge4" class="edge">
<title>m::com.android.server.devicepolicy.DevicePolicyData.store:(Lcom/android/server/devicepolicy/DevicePolicyData;Lcom/android/internal/util/JournaledFile;)Z&#45;&gt;__field__</title>
<path fill="none" stroke="#dc2626" d="M225.66,-14.59C277.81,-13.25 350.15,-13.8 413,-23 443.39,-27.45 476.33,-36.14 503.67,-44.46"/>
<polygon fill="#dc2626" stroke="#dc2626" points="503.12,-47.22 511.59,-46.91 504.77,-41.87 503.12,-47.22"/>
<text text-anchor="middle" x="371" y="-25.8" font-family="Helvetica,sans-Serif" font-size="9.00" fill="#dc2626"> reads unguarded</text>
</g>
</g>
</svg>
