<?xml version="1.0" encoding="UTF-8" standalone="no"?>
<!DOCTYPE svg PUBLIC "-//W3C//DTD SVG 1.1//EN"
 "http://www.w3.org/Graphics/SVG/1.1/DTD/svg11.dtd">
<!-- Generated by graphviz version 2.43.0 (0)
 -->
<!-- Title: race Pages: 1 -->
<svg width="673pt" height="102pt"
 viewBox="0.00 0.00 673.00 102.00" xmlns="http://www.w3.org/2000/svg" xmlns:xlink="http://www.w3.org/1999/xlink">
<g id="graph0" class="graph" transform="scale(1 1) rotate(0) translate(4 98)">
<title>race</title>
<polygon fill="white" stroke="transparent" points="-4,4 -4,-98 669,-98 669,4 -4,4"/>
<!-- __field__ -->
<g id="node1" class="node">
<title>__field__</title>
<path fill="#fef9c3" stroke="#ca8a04" stroke-width="2" d="M653,-65C653,-65 431,-65 431,-65 425,-65 419,-59 419,-53 419,-53 419,-41 419,-41 419,-35 425,-29 431,-29 431,-29 653,-29 653,-29 659,-29 665,-35 665,-41 665,-41 665,-53 665,-53 665,-59 659,-65 653,-65"/>
<text text-anchor="middle" x="542" y="-44.2" font-family="Helvetica,sans-Serif" font-size="11.00">MediaFocusControl.mFocusFreezerForTest</text>
</g>
<!-- __guard__ -->
<g id="node2" class="node">
<title>__guard__</title>
<path fill="#dcfce7" stroke="#16a34a" stroke-width="2" d="M244.5,-94C244.5,-94 46.5,-94 46.5,-94 40.5,-94 34.5,-88 34.5,-82 34.5,-82 34.5,-70 34.5,-70 34.5,-64 40.5,-58 46.5,-58 46.5,-58 244.5,-58 244.5,-58 250.5,-58 256.5,-64 256.5,-70 256.5,-70 256.5,-82 256.5,-82 256.5,-88 250.5,-94 244.5,-94"/>
<text text-anchor="middle" x="145.5" y="-73.2" font-family="Helvetica,sans-Serif" font-size="11.00">MediaFocusControl.mAudioFocusLock</text>
</g>
<!-- __guard__&#45;&gt;__field__ -->
<g id="edge1" class="edge">
<title>__guard__&#45;&gt;__field__</title>
<path fill="none" stroke="#16a34a" stroke-width="1.6" d="M256.65,-67.9C304.38,-64.39 360.61,-60.26 410.42,-56.6"/>
<polygon fill="#16a34a" stroke="#16a34a" stroke-width="1.6" points="410.9,-59.37 418.67,-55.99 410.49,-53.79 410.9,-59.37"/>
<text text-anchor="middle" x="355" y="-65.8" font-family="Helvetica,sans-Serif" font-size="9.00" fill="#15803d"> guards 2/3</text>
</g>
<!-- m::com.android.server.audio.MediaFocusControl.enterAudioFocusFreezeForTest:(Landroid/os/IBinder;[I)Z -->
<g id="node3" class="node">
<title>m::com.android.server.audio.MediaFocusControl.enterAudioFocusFreezeForTest:(Landroid/os/IBinder;[I)Z</title>
<path fill="#fee2e2" stroke="#dc2626" d="M279,-36C279,-36 12,-36 12,-36 6,-36 0,-30 0,-24 0,-24 0,-12 0,-12 0,-6 6,0 12,0 12,0 279,0 279,0 285,0 291,-6 291,-12 291,-12 291,-24 291,-24 291,-30 285,-36 279,-36"/>
<text text-anchor="middle" x="145.5" y="-15.2" font-family="Helvetica,sans-Serif" font-size="11.00">MediaFocusControl.enterAudioFocusFreezeForTest</text>
</g>
<!-- m::com.android.server.audio.MediaFocusControl.enterAudioFocusFreezeForTest:(Landroid/os/IBinder;[I)Z&#45;&gt;__field__ -->
<g id="edge2" class="edge">
<title>m::com.android.server.audio.MediaFocusControl.enterAudioFocusFreezeForTest:(Landroid/os/IBinder;[I)Z&#45;&gt;__field__</title>
<path fill="none" stroke="#dc2626" d="M291.16,-28.63C330.27,-31.51 372.35,-34.6 410.63,-37.42"/>
<polygon fill="#dc2626" stroke="#dc2626" points="410.55,-40.22 418.73,-38.01 410.96,-34.63 410.55,-40.22"/>
<text text-anchor="middle" x="355" y="-37.8" font-family="Helvetica,sans-Serif" font-size="9.00" fill="#dc2626"> writes unguarded</text>
</g>
</g>
</svg>
