<?xml version="1.0" encoding="UTF-8" standalone="no"?>
<!DOCTYPE svg PUBLIC "-//W3C//DTD SVG 1.1//EN"
 "http://www.w3.org/Graphics/SVG/1.1/DTD/svg11.dtd">
<!-- Generated by graphviz version 2.43.0 (0)
 -->
<!-- Title: race Pages: 1 -->
<svg width="586pt" height="102pt"
 viewBox="0.00 0.00 586.00 102.00" xmlns="http://www.w3.org/2000/svg" xmlns:xlink="http://www.w3.org/1999/xlink">
<g id="graph0" class="graph" transform="scale(1 1) rotate(0) translate(4 98)">
<title>race</title>
<polygon fill="white" stroke="transparent" points="-4,4 -4,-98 582,-98 582,4 -4,4"/>
<!-- __field__ -->
<g id="node1" class="node">
<title>__field__</title>
<path fill="#fef9c3" stroke="#ca8a04" stroke-width="2" d="M566,-65C566,-65 367,-65 367,-65 361,-65 355,-59 355,-53 355,-53 355,-41 355,-41 355,-35 361,-29 367,-29 367,-29 566,-29 566,-29 572,-29 578,-35 578,-41 578,-41 578,-53 578,-53 578,-59 572,-65 566,-65"/>
<text text-anchor="middle" x="466.5" y="-44.2" font-family="Helvetica,sans-Serif" font-size="11.00">ProcessStats.mTimePeriodEndUptime</text>
</g>
<!-- __guard__ -->
<g id="node2" class="node">
<title>__guard__</title>
<path fill="#dcfce7" stroke="#16a34a" stroke-width="2" d="M185,-94C185,-94 42,-94 42,-94 36,-94 30,-88 30,-82 30,-82 30,-70 30,-70 30,-64 36,-58 42,-58 42,-58 185,-58 185,-58 191,-58 197,-64 197,-70 197,-70 197,-82 197,-82 197,-88 191,-94 185,-94"/>
<text text-anchor="middle" x="113.5" y="-73.2" font-family="Helvetica,sans-Serif" font-size="11.00">ProcessStatsService.mLock</text>
</g>
<!-- __guard__&#45;&gt;__field__ -->
<g id="edge1" class="edge">
<title>__guard__&#45;&gt;__field__</title>
<path fill="none" stroke="#16a34a" stroke-width="1.6" d="M197.24,-69.16C241.78,-65.48 297.51,-60.88 346.61,-56.82"/>
<polygon fill="#16a34a" stroke="#16a34a" stroke-width="1.6" points="347.01,-59.6 354.75,-56.15 346.55,-54.02 347.01,-59.6"/>
<text text-anchor="middle" x="291" y="-66.8" font-family="Helvetica,sans-Serif" font-size="9.00" fill="#15803d"> guards 3/4</text>
</g>
<!-- m::com.android.server.am.ProcessStatsService.writeStateLocked:(ZZ)V -->
<g id="node3" class="node">
<title>m::com.android.server.am.ProcessStatsService.writeStateLocked:(ZZ)V</title>
<path fill="#fee2e2" stroke="#dc2626" d="M215,-36C215,-36 12,-36 12,-36 6,-36 0,-30 0,-24 0,-24 0,-12 0,-12 0,-6 6,0 12,0 12,0 215,0 215,0 221,0 227,-6 227,-12 227,-12 227,-24 227,-24 227,-30 221,-36 215,-36"/>
<text text-anchor="middle" x="113.5" y="-15.2" font-family="Helvetica,sans-Serif" font-size="11.00">ProcessStatsService.writeStateLocked</text>
</g>
<!-- m::com.android.server.am.ProcessStatsService.writeStateLocked:(ZZ)V&#45;&gt;__field__ -->
<g id="edge2" class="edge">
<title>m::com.android.server.am.ProcessStatsService.writeStateLocked:(ZZ)V&#45;&gt;__field__</title>
<path fill="none" stroke="#dc2626" d="M227.01,-27.3C265.2,-30.45 307.97,-33.99 346.64,-37.18"/>
<polygon fill="#dc2626" stroke="#dc2626" points="346.63,-39.99 354.83,-37.86 347.09,-34.41 346.63,-39.99"/>
<text text-anchor="middle" x="291" y="-37.8" font-family="Helvetica,sans-Serif" font-size="9.00" fill="#dc2626"> writes unguarded</text>
</g>
</g>
</svg>
