<?xml version="1.0" encoding="UTF-8" standalone="no"?>
<!DOCTYPE svg PUBLIC "-//W3C//DTD SVG 1.1//EN"
 "http://www.w3.org/Graphics/SVG/1.1/DTD/svg11.dtd">
<!-- Generated by graphviz version 2.43.0 (0)
 -->
<!-- Title: race Pages: 1 -->
<svg width="519pt" height="102pt"
 viewBox="0.00 0.00 519.00 102.00" xmlns="http://www.w3.org/2000/svg" xmlns:xlink="http://www.w3.org/1999/xlink">
<g id="graph0" class="graph" transform="scale(1 1) rotate(0) translate(4 98)">
<title>race</title>
<polygon fill="white" stroke="transparent" points="-4,4 -4,-98 515,-98 515,4 -4,4"/>
<!-- __field__ -->
<g id="node1" class="node">
<title>__field__</title>
<path fill="#fef9c3" stroke="#ca8a04" stroke-width="2" d="M499,-65C499,-65 382,-65 382,-65 376,-65 370,-59 370,-53 370,-53 370,-41 370,-41 370,-35 376,-29 382,-29 382,-29 499,-29 499,-29 505,-29 511,-35 511,-41 511,-41 511,-53 511,-53 511,-59 505,-65 499,-65"/>
<text text-anchor="middle" x="440.5" y="-44.2" font-family="Helvetica,sans-Serif" font-size="11.00">RecognitionEvent.data</text>
</g>
<!-- __guard__ -->
<g id="node2" class="node">
<title>__guard__</title>
<path fill="#dcfce7" stroke="#16a34a" stroke-width="2" d="M194,-94C194,-94 48,-94 48,-94 42,-94 36,-88 36,-82 36,-82 36,-70 36,-70 36,-64 42,-58 48,-58 48,-58 194,-58 194,-58 200,-58 206,-64 206,-70 206,-70 206,-82 206,-82 206,-88 200,-94 194,-94"/>
<text text-anchor="middle" x="121" y="-73.2" font-family="Helvetica,sans-Serif" font-size="11.00">FakeSoundTriggerHal.mLock</text>
</g>
<!-- __guard__&#45;&gt;__field__ -->
<g id="edge1" class="edge">
<title>__guard__&#45;&gt;__field__</title>
<path fill="none" stroke="#16a34a" stroke-width="1.6" d="M206.25,-68.3C254.53,-63.89 314.7,-58.4 361.83,-54.09"/>
<polygon fill="#16a34a" stroke="#16a34a" stroke-width="1.6" points="362.16,-56.88 369.88,-53.36 361.65,-51.3 362.16,-56.88"/>
<text text-anchor="middle" x="306" y="-64.8" font-family="Helvetica,sans-Serif" font-size="9.00" fill="#15803d"> guards 2/3</text>
</g>
<!-- m::com.android.server.soundtrigger_middleware.ConversionUtil.hidl2aidlRecognitionEvent:(Landroid/hardware/soundtrigger/V2_1/ISoundTriggerHwCallback$RecognitionEvent;)Landroid/media/soundtrigger/RecognitionEvent; -->
<g id="node3" class="node">
<title>m::com.android.server.soundtrigger_middleware.ConversionUtil.hidl2aidlRecognitionEvent:(Landroid/hardware/soundtrigger/V2_1/ISoundTriggerHwCallback$RecognitionEvent;)Landroid/media/soundtrigger/RecognitionEvent;</title>
<path fill="#fee2e2" stroke="#dc2626" d="M230,-36C230,-36 12,-36 12,-36 6,-36 0,-30 0,-24 0,-24 0,-12 0,-12 0,-6 6,0 12,0 12,0 230,0 230,0 236,0 242,-6 242,-12 242,-12 242,-24 242,-24 242,-30 236,-36 230,-36"/>
<text text-anchor="middle" x="121" y="-15.2" font-family="Helvetica,sans-Serif" font-size="11.00">ConversionUtil.hidl2aidlRecognitionEvent</text>
</g>
<!-- m::com.android.server.soundtrigger_middleware.ConversionUtil.hidl2aidlRecognitionEvent:(Landroid/hardware/soundtrigger/V2_1/ISoundTriggerHwCallback$RecognitionEvent;)Landroid/media/soundtrigger/RecognitionEvent;&#45;&gt;__field__ -->
<g id="edge2" class="edge">
<title>m::com.android.server.soundtrigger_middleware.ConversionUtil.hidl2aidlRecognitionEvent:(Landroid/hardware/soundtrigger/V2_1/ISoundTriggerHwCallback$RecognitionEvent;)Landroid/media/soundtrigger/RecognitionEvent;&#45;&gt;__field__</title>
<path fill="none" stroke="#dc2626" d="M242.03,-28.96C282.19,-32.63 325.88,-36.62 361.92,-39.91"/>
<polygon fill="#dc2626" stroke="#dc2626" points="361.74,-42.71 369.96,-40.65 362.25,-37.13 361.74,-42.71"/>
<text text-anchor="middle" x="306" y="-40.8" font-family="Helvetica,sans-Serif" font-size="9.00" fill="#dc2626"> writes unguarded</text>
</g>
</g>
</svg>
