<?xml version="1.0" encoding="UTF-8" standalone="no"?>
<!DOCTYPE svg PUBLIC "-//W3C//DTD SVG 1.1//EN"
 "http://www.w3.org/Graphics/SVG/1.1/DTD/svg11.dtd">
<!-- Generated by graphviz version 2.43.0 (0)
 -->
<!-- Title: race Pages: 1 -->
<svg width="684pt" height="110pt"
 viewBox="0.00 0.00 684.00 110.00" xmlns="http://www.w3.org/2000/svg" xmlns:xlink="http://www.w3.org/1999/xlink">
<g id="graph0" class="graph" transform="scale(1 1) rotate(0) translate(4 106)">
<title>race</title>
<polygon fill="white" stroke="transparent" points="-4,4 -4,-106 680,-106 680,4 -4,4"/>
<!-- __field__ -->
<g id="node1" class="node">
<title>__field__</title>
<path fill="#fef9c3" stroke="#ca8a04" stroke-width="2" d="M664,-65C664,-65 407,-65 407,-65 401,-65 395,-59 395,-53 395,-53 395,-41 395,-41 395,-35 401,-29 407,-29 407,-29 664,-29 664,-29 670,-29 676,-35 676,-41 676,-41 676,-53 676,-53 676,-59 670,-65 664,-65"/>
<text text-anchor="middle" x="535.5" y="-44.2" font-family="Helvetica,sans-Serif" font-size="11.00">UidObserverController$ChangeRecord.isPending</text>
</g>
<!-- __guard__ -->
<g id="node2" class="node">
<title>__guard__</title>
<path fill="#dcfce7" stroke="#16a34a" stroke-width="2" d="M210.5,-102C210.5,-102 56.5,-102 56.5,-102 50.5,-102 44.5,-96 44.5,-90 44.5,-90 44.5,-78 44.5,-78 44.5,-72 50.5,-66 56.5,-66 56.5,-66 210.5,-66 210.5,-66 216.5,-66 222.5,-72 222.5,-78 222.5,-78 222.5,-90 222.5,-90 222.5,-96 216.5,-102 210.5,-102"/>
<text text-anchor="middle" x="133.5" y="-81.2" font-family="Helvetica,sans-Serif" font-size="11.00">UidObserverController.mLock</text>
</g>
<!-- __guard__&#45;&gt;__field__ -->
<g id="edge1" class="edge">
<title>__guard__&#45;&gt;__field__</title>
<path fill="none" stroke="#16a34a" stroke-width="1.6" d="M222.78,-75.83C270.91,-71.38 331.75,-65.75 386.89,-60.65"/>
<polygon fill="#16a34a" stroke="#16a34a" stroke-width="1.6" points="387.27,-63.43 394.98,-59.91 386.75,-57.85 387.27,-63.43"/>
<text text-anchor="middle" x="331" y="-70.8" font-family="Helvetica,sans-Serif" font-size="9.00" fill="#15803d"> guards 3/4</text>
</g>
<!-- m::com.android.server.am.UidObserverController$ChangeRecord.copyTo:(Lcom/android/server/am/UidObserverController$ChangeRecord;)V -->
<g id="node3" class="node">
<title>m::com.android.server.am.UidObserverController$ChangeRecord.copyTo:(Lcom/android/server/am/UidObserverController$ChangeRecord;)V</title>
<path fill="#fee2e2" stroke="#dc2626" d="M255,-36C255,-36 12,-36 12,-36 6,-36 0,-30 0,-24 0,-24 0,-12 0,-12 0,-6 6,0 12,0 12,0 255,0 255,0 261,0 267,-6 267,-12 267,-12 267,-24 267,-24 267,-30 261,-36 255,-36"/>
<text text-anchor="middle" x="133.5" y="-15.2" font-family="Helvetica,sans-Serif" font-size="11.00">UidObserverController$ChangeRecord.copyTo</text>
</g>
<!-- m::com.android.server.am.UidObserverController$ChangeRecord.copyTo:(Lcom/android/server/am/UidObserverController$ChangeRecord;)V&#45;&gt;__field__ -->
<g id="edge2" class="edge">
<title>m::com.android.server.am.UidObserverController$ChangeRecord.copyTo:(Lcom/android/server/am/UidObserverController$ChangeRecord;)V&#45;&gt;__field__</title>
<path fill="none" stroke="#dc2626" d="M267.14,-27.62C305.35,-30.39 347.29,-33.43 386.38,-36.26"/>
<polygon fill="#dc2626" stroke="#dc2626" points="386.49,-39.08 394.67,-36.86 386.9,-33.49 386.49,-39.08"/>
<text text-anchor="middle" x="331" y="-37.8" font-family="Helvetica,sans-Serif" font-size="9.00" fill="#dc2626"> writes unguarded</text>
</g>
<!-- m::com.android.server.am.UidObserverController$ChangeRecord.copyTo:(Lcom/android/server/am/UidObserverController$ChangeRecord;)V&#45;&gt;__field__ -->
<g id="edge3" class="edge">
<title>m::com.android.server.am.UidObserverController$ChangeRecord.copyTo:(Lcom/android/server/am/UidObserverController$ChangeRecord;)V&#45;&gt;__field__</title>
<path fill="none" stroke="#dc2626" d="M267.19,-10.25C301.71,-9.75 338.8,-10.54 373,-14 399.71,-16.7 428.52,-21.85 454.32,-27.3"/>
<polygon fill="#dc2626" stroke="#dc2626" points="453.81,-30.05 462.22,-28.99 454.99,-24.58 453.81,-30.05"/>
<text text-anchor="middle" x="331" y="-16.8" font-family="Helvetica,sans-Serif" font-size="9.00" fill="#dc2626"> reads unguarded</text>
</g>
</g>
</svg>
