<?xml version="1.0" encoding="UTF-8" standalone="no"?>
<!DOCTYPE svg PUBLIC "-//W3C//DTD SVG 1.1//EN"
 "http://www.w3.org/Graphics/SVG/1.1/DTD/svg11.dtd">
<!-- Generated by graphviz version 2.43.0 (0)
 -->
<!-- Title: race Pages: 1 -->
<svg width="1163pt" height="120pt"
 viewBox="0.00 0.00 1163.00 119.75" xmlns="http://www.w3.org/2000/svg" xmlns:xlink="http://www.w3.org/1999/xlink">
<g id="graph0" class="graph" transform="scale(1 1) rotate(0) translate(4 115.75)">
<title>race</title>
<polygon fill="white" stroke="transparent" points="-4,4 -4,-115.75 1159,-115.75 1159,4 -4,4"/>
<!-- __field__ -->
<g id="node1" class="node">
<title>__field__</title>
<path fill="#fef9c3" stroke="#ca8a04" stroke-width="2" d="M1143,-55.75C1143,-55.75 690,-55.75 690,-55.75 684,-55.75 678,-49.75 678,-43.75 678,-43.75 678,-31.75 678,-31.75 678,-25.75 684,-19.75 690,-19.75 690,-19.75 1143,-19.75 1143,-19.75 1149,-19.75 1155,-25.75 1155,-31.75 1155,-31.75 1155,-43.75 1155,-43.75 1155,-49.75 1149,-55.75 1143,-55.75"/>
<text text-anchor="middle" x="916.5" y="-34.95" font-family="Helvetica,sans-Serif" font-size="11.00">MediaSessionService$SessionManagerImpl$KeyEventWakeLockReceiver.mRefCount</text>
</g>
<!-- __guard__ -->
<g id="node2" class="node">
<title>__guard__</title>
<path fill="#dcfce7" stroke="#16a34a" stroke-width="2" d="M348.5,-111.75C348.5,-111.75 201.5,-111.75 201.5,-111.75 195.5,-111.75 189.5,-105.75 189.5,-99.75 189.5,-99.75 189.5,-87.75 189.5,-87.75 189.5,-81.75 195.5,-75.75 201.5,-75.75 201.5,-75.75 348.5,-75.75 348.5,-75.75 354.5,-75.75 360.5,-81.75 360.5,-87.75 360.5,-87.75 360.5,-99.75 360.5,-99.75 360.5,-105.75 354.5,-111.75 348.5,-111.75"/>
<text text-anchor="middle" x="275" y="-90.95" font-family="Helvetica,sans-Serif" font-size="11.00">MediaSessionService.mLock</text>
</g>
<!-- __guard__&#45;&gt;__field__ -->
<g id="edge1" class="edge">
<title>__guard__&#45;&gt;__field__</title>
<path fill="none" stroke="#16a34a" stroke-width="1.6" d="M360.59,-86.34C447.12,-78.76 585.02,-66.69 701.7,-56.47"/>
<polygon fill="#16a34a" stroke="#16a34a" stroke-width="1.6" points="701.99,-59.25 709.71,-55.77 701.5,-53.68 701.99,-59.25"/>
<text text-anchor="middle" x="614" y="-69.55" font-family="Helvetica,sans-Serif" font-size="9.00" fill="#15803d"> guards 2/3</text>
</g>
<!-- m::com.android.server.media.MediaSessionService$SessionManagerImpl$KeyEventWakeLockReceiver.acquireWakeLockLocked:()V -->
<g id="node3" class="node">
<title>m::com.android.server.media.MediaSessionService$SessionManagerImpl$KeyEventWakeLockReceiver.acquireWakeLockLocked:()V</title>
<path fill="#fee2e2" stroke="#dc2626" d="M538,-37.75C538,-37.75 12,-37.75 12,-37.75 6,-37.75 0,-31.75 0,-25.75 0,-25.75 0,-13.75 0,-13.75 0,-7.75 6,-1.75 12,-1.75 12,-1.75 538,-1.75 538,-1.75 544,-1.75 550,-7.75 550,-13.75 550,-13.75 550,-25.75 550,-25.75 550,-31.75 544,-37.75 538,-37.75"/>
<text text-anchor="middle" x="275" y="-16.95" font-family="Helvetica,sans-Serif" font-size="11.00">MediaSessionService$SessionManagerImpl$KeyEventWakeLockReceiver.acquireWakeLockLocked</text>
</g>
<!-- m::com.android.server.media.MediaSessionService$SessionManagerImpl$KeyEventWakeLockReceiver.acquireWakeLockLocked:()V&#45;&gt;__field__ -->
<g id="edge2" class="edge">
<title>m::com.android.server.media.MediaSessionService$SessionManagerImpl$KeyEventWakeLockReceiver.acquireWakeLockLocked:()V&#45;&gt;__field__</title>
<path fill="none" stroke="#dc2626" d="M550.15,-30.1C557.51,-30.32 564.8,-30.54 572,-30.75 603.47,-31.65 636.56,-32.48 669.27,-33.23"/>
<polygon fill="#dc2626" stroke="#dc2626" points="669.51,-36.03 677.58,-33.42 669.64,-30.44 669.51,-36.03"/>
<text text-anchor="middle" x="614" y="-34.55" font-family="Helvetica,sans-Serif" font-size="9.00" fill="#dc2626"> writes unguarded</text>
</g>
<!-- m::com.android.server.media.MediaSessionService$SessionManagerImpl$KeyEventWakeLockReceiver.acquireWakeLockLocked:()V&#45;&gt;__field__ -->
<g id="edge3" class="edge">
<title>m::com.android.server.media.MediaSessionService$SessionManagerImpl$KeyEventWakeLockReceiver.acquireWakeLockLocked:()V&#45;&gt;__field__</title>
<path fill="none" stroke="#dc2626" d="M550.02,-17.48C585.68,-17.85 621.72,-18.56 656,-19.75 660.51,-19.9 665.07,-20.07 669.66,-20.26"/>
<polygon fill="#dc2626" stroke="#dc2626" points="669.84,-23.07 677.95,-20.61 670.08,-17.47 669.84,-23.07"/>
<text text-anchor="middle" x="614" y="-22.55" font-family="Helvetica,sans-Serif" font-size="9.00" fill="#dc2626"> reads unguarded</text>
</g>
<!-- m::com.android.server.media.MediaSessionService$SessionManagerImpl$KeyEventWakeLockReceiver.acquireWakeLockLocked:()V&#45;&gt;__field__ -->
<g id="edge4" class="edge">
<title>m::com.android.server.media.MediaSessionService$SessionManagerImpl$KeyEventWakeLockReceiver.acquireWakeLockLocked:()V&#45;&gt;__field__</title>
<path fill="none" stroke="#dc2626" d="M491.62,-1.73C545.34,0.45 602.79,0.83 656,-2.75 702.75,-5.88 753.91,-12.17 798.36,-18.56"/>
<polygon fill="#dc2626" stroke="#dc2626" points="797.98,-21.33 806.3,-19.71 798.78,-15.79 797.98,-21.33"/>
<text text-anchor="middle" x="614" y="-5.55" font-family="Helvetica,sans-Serif" font-size="9.00" fill="#dc2626"> reads unguarded</text>
</g>
</g>
</svg>
