<?xml version="1.0" encoding="UTF-8" standalone="no"?>
<!DOCTYPE svg PUBLIC "-//W3C//DTD SVG 1.1//EN"
 "http://www.w3.org/Graphics/SVG/1.1/DTD/svg11.dtd">
<!-- Generated by graphviz version 2.43.0 (0)
 -->
<!-- Title: race Pages: 1 -->
<svg width="564pt" height="168pt"
 viewBox="0.00 0.00 564.00 168.00" xmlns="http://www.w3.org/2000/svg" xmlns:xlink="http://www.w3.org/1999/xlink">
<g id="graph0" class="graph" transform="scale(1 1) rotate(0) translate(4 164)">
<title>race</title>
<polygon fill="white" stroke="transparent" points="-4,4 -4,-164 560,-164 560,4 -4,4"/>
<!-- __field__ -->
<g id="node1" class="node">
<title>__field__</title>
<path fill="#fef9c3" stroke="#ca8a04" stroke-width="2" d="M544,-83C544,-83 385,-83 385,-83 379,-83 373,-77 373,-71 373,-71 373,-59 373,-59 373,-53 379,-47 385,-47 385,-47 544,-47 544,-47 550,-47 556,-53 556,-59 556,-59 556,-71 556,-71 556,-77 550,-83 544,-83"/>
<text text-anchor="middle" x="464.5" y="-62.2" font-family="Helvetica,sans-Serif" font-size="11.00">ActivityStarter.mAddingToTask</text>
</g>
<!-- __guard__ -->
<g id="node2" class="node">
<title>__guard__</title>
<path fill="#dcfce7" stroke="#16a34a" stroke-width="2" d="M233,-160C233,-160 12,-160 12,-160 6,-160 0,-154 0,-148 0,-148 0,-136 0,-136 0,-130 6,-124 12,-124 12,-124 233,-124 233,-124 239,-124 245,-130 245,-136 245,-136 245,-148 245,-148 245,-154 239,-160 233,-160"/>
<text text-anchor="middle" x="122.5" y="-139.2" font-family="Helvetica,sans-Serif" font-size="11.00">ActivityTaskManagerService.mGlobalLock</text>
</g>
<!-- __guard__&#45;&gt;__field__ -->
<g id="edge1" class="edge">
<title>__guard__&#45;&gt;__field__</title>
<path fill="none" stroke="#16a34a" stroke-width="1.6" d="M203.21,-123.95C255.02,-112.21 322.59,-96.91 375.9,-84.84"/>
<polygon fill="#16a34a" stroke="#16a34a" stroke-width="1.6" points="376.81,-87.5 383.99,-83.01 375.57,-82.04 376.81,-87.5"/>
<text text-anchor="middle" x="309" y="-110.8" font-family="Helvetica,sans-Serif" font-size="9.00" fill="#15803d"> guards 12/14</text>
</g>
<!-- m::com.android.server.wm.ActivityStarter.reset:(Z)V -->
<g id="node3" class="node">
<title>m::com.android.server.wm.ActivityStarter.reset:(Z)V</title>
<path fill="#fee2e2" stroke="#dc2626" d="M174.5,-102C174.5,-102 70.5,-102 70.5,-102 64.5,-102 58.5,-96 58.5,-90 58.5,-90 58.5,-78 58.5,-78 58.5,-72 64.5,-66 70.5,-66 70.5,-66 174.5,-66 174.5,-66 180.5,-66 186.5,-72 186.5,-78 186.5,-78 186.5,-90 186.5,-90 186.5,-96 180.5,-102 174.5,-102"/>
<text text-anchor="middle" x="122.5" y="-81.2" font-family="Helvetica,sans-Serif" font-size="11.00">ActivityStarter.reset</text>
</g>
<!-- m::com.android.server.wm.ActivityStarter.reset:(Z)V&#45;&gt;__field__ -->
<g id="edge2" class="edge">
<title>m::com.android.server.wm.ActivityStarter.reset:(Z)V&#45;&gt;__field__</title>
<path fill="none" stroke="#dc2626" d="M186.65,-80.47C236.64,-77.68 307.34,-73.73 364.78,-70.52"/>
<polygon fill="#dc2626" stroke="#dc2626" points="364.96,-73.31 372.79,-70.07 364.65,-67.72 364.96,-73.31"/>
<text text-anchor="middle" x="309" y="-77.8" font-family="Helvetica,sans-Serif" font-size="9.00" fill="#dc2626"> writes unguarded</text>
</g>
<!-- m::com.android.server.wm.ActivityStarter.set:(Lcom/android/server/wm/ActivityStarter;)V -->
<g id="node4" class="node">
<title>m::com.android.server.wm.ActivityStarter.set:(Lcom/android/server/wm/ActivityStarter;)V</title>
<path fill="#fee2e2" stroke="#dc2626" d="M169,-36C169,-36 76,-36 76,-36 70,-36 64,-30 64,-24 64,-24 64,-12 64,-12 64,-6 70,0 76,0 76,0 169,0 169,0 175,0 181,-6 181,-12 181,-12 181,-24 181,-24 181,-30 175,-36 169,-36"/>
<text text-anchor="middle" x="122.5" y="-15.2" font-family="Helvetica,sans-Serif" font-size="11.00">ActivityStarter.set</text>
</g>
<!-- m::com.android.server.wm.ActivityStarter.set:(Lcom/android/server/wm/ActivityStarter;)V&#45;&gt;__field__ -->
<g id="edge3" class="edge">
<title>m::com.android.server.wm.ActivityStarter.set:(Lcom/android/server/wm/ActivityStarter;)V&#45;&gt;__field__</title>
<path fill="none" stroke="#dc2626" d="M181.18,-25.97C231.4,-32.92 305.3,-43.13 364.9,-51.37"/>
<polygon fill="#dc2626" stroke="#dc2626" points="364.53,-54.15 372.84,-52.47 365.3,-48.6 364.53,-54.15"/>
<text text-anchor="middle" x="309" y="-50.8" font-family="Helvetica,sans-Serif" font-size="9.00" fill="#dc2626"> writes unguarded</text>
</g>
<!-- m::com.android.server.wm.ActivityStarter.set:(Lcom/android/server/wm/ActivityStarter;)V&#45;&gt;__field__ -->
<g id="edge4" class="edge">
<title>m::com.android.server.wm.ActivityStarter.set:(Lcom/android/server/wm/ActivityStarter;)V&#45;&gt;__field__</title>
<path fill="none" stroke="#dc2626" d="M181.09,-13.99C227.42,-12.03 293.97,-12.05 351,-23 373.51,-27.32 397.44,-35.68 417.41,-43.81"/>
<polygon fill="#dc2626" stroke="#dc2626" points="416.4,-46.42 424.86,-46.9 418.55,-41.25 416.4,-46.42"/>
<text text-anchor="middle" x="309" y="-25.8" font-family="Helvetica,sans-Serif" font-size="9.00" fill="#dc2626"> reads unguarded</text>
</g>
</g>
</svg>
