<?xml version="1.0" encoding="UTF-8" standalone="no"?>
<!DOCTYPE svg PUBLIC "-//W3C//DTD SVG 1.1//EN"
 "http://www.w3.org/Graphics/SVG/1.1/DTD/svg11.dtd">
<!-- Generated by graphviz version 2.43.0 (0)
 -->
<!-- Title: race Pages: 1 -->
<svg width="437pt" height="229pt"
 viewBox="0.00 0.00 437.00 229.00" xmlns="http://www.w3.org/2000/svg" xmlns:xlink="http://www.w3.org/1999/xlink">
<g id="graph0" class="graph" transform="scale(1 1) rotate(0) translate(4 225)">
<title>race</title>
<polygon fill="white" stroke="transparent" points="-4,4 -4,-225 433,-225 433,4 -4,4"/>
<!-- __field__ -->
<g id="node1" class="node">
<title>__field__</title>
<path fill="#fef9c3" stroke="#ca8a04" stroke-width="2" d="M417,-128C417,-128 310,-128 310,-128 304,-128 298,-122 298,-116 298,-116 298,-104 298,-104 298,-98 304,-92 310,-92 310,-92 417,-92 417,-92 423,-92 429,-98 429,-104 429,-104 429,-116 429,-116 429,-122 423,-128 417,-128"/>
<text text-anchor="middle" x="363.5" y="-107.2" font-family="Helvetica,sans-Serif" font-size="11.00">VoteSummary.height</text>
</g>
<!-- __guard__ -->
<g id="node2" class="node">
<title>__guard__</title>
<path fill="#dcfce7" stroke="#16a34a" stroke-width="2" d="M158,-221C158,-221 12,-221 12,-221 6,-221 0,-215 0,-209 0,-209 0,-197 0,-197 0,-191 6,-185 12,-185 12,-185 158,-185 158,-185 164,-185 170,-191 170,-197 170,-197 170,-209 170,-209 170,-215 164,-221 158,-221"/>
<text text-anchor="middle" x="85" y="-200.2" font-family="Helvetica,sans-Serif" font-size="11.00">DisplayModeDirector.mLock</text>
</g>
<!-- __guard__&#45;&gt;__field__ -->
<g id="edge1" class="edge">
<title>__guard__&#45;&gt;__field__</title>
<path fill="none" stroke="#16a34a" stroke-width="1.6" d="M170.33,-188.9C203.87,-181.9 242.4,-172.09 276,-159 294.13,-151.94 313.07,-141.59 328.58,-132.23"/>
<polygon fill="#16a34a" stroke="#16a34a" stroke-width="1.6" points="330.1,-134.58 335.46,-128.01 327.17,-129.81 330.1,-134.58"/>
<text text-anchor="middle" x="234" y="-185.8" font-family="Helvetica,sans-Serif" font-size="9.00" fill="#15803d"> guards 4/6</text>
</g>
<!-- m::com.android.server.display.mode.SizeVote.updateSummary:(Lcom/android/server/display/mode/VoteSummary;)V -->
<g id="node3" class="node">
<title>m::com.android.server.display.mode.SizeVote.updateSummary:(Lcom/android/server/display/mode/VoteSummary;)V</title>
<path fill="#fee2e2" stroke="#dc2626" d="M152,-129C152,-129 18,-129 18,-129 12,-129 6,-123 6,-117 6,-117 6,-105 6,-105 6,-99 12,-93 18,-93 18,-93 152,-93 152,-93 158,-93 164,-99 164,-105 164,-105 164,-117 164,-117 164,-123 158,-129 152,-129"/>
<text text-anchor="middle" x="85" y="-108.2" font-family="Helvetica,sans-Serif" font-size="11.00">SizeVote.updateSummary</text>
</g>
<!-- m::com.android.server.display.mode.SizeVote.updateSummary:(Lcom/android/server/display/mode/VoteSummary;)V&#45;&gt;__field__ -->
<g id="edge2" class="edge">
<title>m::com.android.server.display.mode.SizeVote.updateSummary:(Lcom/android/server/display/mode/VoteSummary;)V&#45;&gt;__field__</title>
<path fill="none" stroke="#dc2626" d="M140.99,-129.04C157.23,-133.55 175.17,-137.74 192,-140 229,-144.97 239.19,-146.2 276,-140 287.84,-138 300.23,-134.57 311.81,-130.73"/>
<polygon fill="#dc2626" stroke="#dc2626" points="313.03,-133.27 319.68,-128.01 311.21,-127.97 313.03,-133.27"/>
<text text-anchor="middle" x="234" y="-146.8" font-family="Helvetica,sans-Serif" font-size="9.00" fill="#dc2626"> writes unguarded</text>
</g>
<!-- m::com.android.server.display.mode.SizeVote.updateSummary:(Lcom/android/server/display/mode/VoteSummary;)V&#45;&gt;__field__ -->
<g id="edge3" class="edge">
<title>m::com.android.server.display.mode.SizeVote.updateSummary:(Lcom/android/server/display/mode/VoteSummary;)V&#45;&gt;__field__</title>
<path fill="none" stroke="#dc2626" d="M164.13,-110.72C203.49,-110.58 250.92,-110.4 289.53,-110.26"/>
<polygon fill="#dc2626" stroke="#dc2626" points="289.65,-113.06 297.63,-110.23 289.62,-107.46 289.65,-113.06"/>
<text text-anchor="middle" x="234" y="-112.8" font-family="Helvetica,sans-Serif" font-size="9.00" fill="#dc2626"> writes unguarded</text>
</g>
<!-- m::com.android.server.display.mode.SizeVote.updateSummary:(Lcom/android/server/display/mode/VoteSummary;)V&#45;&gt;__field__ -->
<g id="edge4" class="edge">
<title>m::com.android.server.display.mode.SizeVote.updateSummary:(Lcom/android/server/display/mode/VoteSummary;)V&#45;&gt;__field__</title>
<path fill="none" stroke="#dc2626" d="M164.29,-97.84C173.6,-96.67 183,-95.68 192,-95 229.23,-92.21 238.8,-91.8 276,-95 280.57,-95.39 285.27,-95.9 289.99,-96.49"/>
<polygon fill="#dc2626" stroke="#dc2626" points="289.65,-99.27 297.95,-97.56 290.39,-93.72 289.65,-99.27"/>
<text text-anchor="middle" x="234" y="-97.8" font-family="Helvetica,sans-Serif" font-size="9.00" fill="#dc2626"> reads unguarded</text>
</g>
<!-- m::com.android.server.display.mode.SizeVote.updateSummary:(Lcom/android/server/display/mode/VoteSummary;)V&#45;&gt;__field__ -->
<g id="edge5" class="edge">
<title>m::com.android.server.display.mode.SizeVote.updateSummary:(Lcom/android/server/display/mode/VoteSummary;)V&#45;&gt;__field__</title>
<path fill="none" stroke="#dc2626" d="M131.68,-92.92C150.11,-86.54 171.76,-80.17 192,-77 228.88,-71.23 239.28,-70.23 276,-77 289.48,-79.48 303.58,-83.98 316.39,-88.86"/>
<polygon fill="#dc2626" stroke="#dc2626" points="315.72,-91.61 324.19,-91.94 317.78,-86.4 315.72,-91.61"/>
<text text-anchor="middle" x="234" y="-79.8" font-family="Helvetica,sans-Serif" font-size="9.00" fill="#dc2626"> reads unguarded</text>
</g>
<!-- m::com.android.server.display.mode.VoteSummary.toString:()Ljava/lang/String; -->
<g id="node4" class="node">
<title>m::com.android.server.display.mode.VoteSummary.toString:()Ljava/lang/String;</title>
<path fill="#fee2e2" stroke="#dc2626" d="M143,-36C143,-36 27,-36 27,-36 21,-36 15,-30 15,-24 15,-24 15,-12 15,-12 15,-6 21,0 27,0 27,0 143,0 143,0 149,0 155,-6 155,-12 155,-12 155,-24 155,-24 155,-30 149,-36 143,-36"/>
<text text-anchor="middle" x="85" y="-15.2" font-family="Helvetica,sans-Serif" font-size="11.00">VoteSummary.toString</text>
</g>
<!-- m::com.android.server.display.mode.VoteSummary.toString:()Ljava/lang/String;&#45;&gt;__field__ -->
<g id="edge6" class="edge">
<title>m::com.android.server.display.mode.VoteSummary.toString:()Ljava/lang/String;&#45;&gt;__field__</title>
<path fill="none" stroke="#dc2626" d="M155.37,-26.32C192.11,-32.19 237.48,-41.79 276,-57 295.32,-64.63 315.2,-76.48 331.02,-87.04"/>
<polygon fill="#dc2626" stroke="#dc2626" points="329.8,-89.59 337.98,-91.78 332.95,-84.96 329.8,-89.59"/>
<text text-anchor="middle" x="234" y="-59.8" font-family="Helvetica,sans-Serif" font-size="9.00" fill="#dc2626"> reads unguarded</text>
</g>
</g>
</svg>
