<?xml version="1.0" encoding="UTF-8" standalone="no"?>
<!DOCTYPE svg PUBLIC "-//W3C//DTD SVG 1.1//EN"
 "http://www.w3.org/Graphics/SVG/1.1/DTD/svg11.dtd">
<!-- Generated by graphviz version 2.43.0 (0)
 -->
<!-- Title: race Pages: 1 -->
<svg width="583pt" height="110pt"
 viewBox="0.00 0.00 583.00 110.00" xmlns="http://www.w3.org/2000/svg" xmlns:xlink="http://www.w3.org/1999/xlink">
<g id="graph0" class="graph" transform="scale(1 1) rotate(0) translate(4 106)">
<title>race</title>
<polygon fill="white" stroke="transparent" points="-4,4 -4,-106 579,-106 579,4 -4,4"/>
<!-- __field__ -->
<g id="node1" class="node">
<title>__field__</title>
<path fill="#fef9c3" stroke="#ca8a04" stroke-width="2" d="M563,-65C563,-65 385,-65 385,-65 379,-65 373,-59 373,-53 373,-53 373,-41 373,-41 373,-35 379,-29 385,-29 385,-29 563,-29 563,-29 569,-29 575,-35 575,-41 575,-41 575,-53 575,-53 575,-59 569,-65 563,-65"/>
<text text-anchor="middle" x="474" y="-44.2" font-family="Helvetica,sans-Serif" font-size="11.00">WindowRelayoutResult.syncSeqId</text>
</g>
<!-- __guard__ -->
<g id="node2" class="node">
<title>__guard__</title>
<path fill="#dcfce7" stroke="#16a34a" stroke-width="2" d="M233,-102C233,-102 12,-102 12,-102 6,-102 0,-96 0,-90 0,-90 0,-78 0,-78 0,-72 6,-66 12,-66 12,-66 233,-66 233,-66 239,-66 245,-72 245,-78 245,-78 245,-90 245,-90 245,-96 239,-102 233,-102"/>
<text text-anchor="middle" x="122.5" y="-81.2" font-family="Helvetica,sans-Serif" font-size="11.00">ActivityTaskManagerService.mGlobalLock</text>
</g>
<!-- __guard__&#45;&gt;__field__ -->
<g id="edge1" class="edge">
<title>__guard__&#45;&gt;__field__</title>
<path fill="none" stroke="#16a34a" stroke-width="1.6" d="M245.25,-71.11C284.15,-66.99 326.92,-62.47 364.79,-58.46"/>
<polygon fill="#16a34a" stroke="#16a34a" stroke-width="1.6" points="365.13,-61.24 372.79,-57.61 364.54,-55.67 365.13,-61.24"/>
<text text-anchor="middle" x="309" y="-69.8" font-family="Helvetica,sans-Serif" font-size="9.00" fill="#15803d"> guards 3/4</text>
</g>
<!-- m::com.android.server.wm.WindowManagerService.addWindowInner:(Lcom/android/server/wm/WindowState;Lcom/android/server/wm/DisplayPolicy;Lcom/android/server/wm/ActivityRecord;Lcom/android/server/wm/DisplayContent;Landroid/view/IWindow;Landroid/view/WindowManager$LayoutParams;ILandroid/view/WindowRelayoutResult;)I -->
<g id="node3" class="node">
<title>m::com.android.server.wm.WindowManagerService.addWindowInner:(Lcom/android/server/wm/WindowState;Lcom/android/server/wm/DisplayPolicy;Lcom/android/server/wm/ActivityRecord;Lcom/android/server/wm/DisplayContent;Landroid/view/IWindow;Landroid/view/WindowManager$LayoutParams;ILandroid/view/WindowRelayoutResult;)I</title>
<path fill="#fee2e2" stroke="#dc2626" d="M231.5,-36C231.5,-36 13.5,-36 13.5,-36 7.5,-36 1.5,-30 1.5,-24 1.5,-24 1.5,-12 1.5,-12 1.5,-6 7.5,0 13.5,0 13.5,0 231.5,0 231.5,0 237.5,0 243.5,-6 243.5,-12 243.5,-12 243.5,-24 243.5,-24 243.5,-30 237.5,-36 231.5,-36"/>
<text text-anchor="middle" x="122.5" y="-15.2" font-family="Helvetica,sans-Serif" font-size="11.00">WindowManagerService.addWindowInner</text>
</g>
<!-- m::com.android.server.wm.WindowManagerService.addWindowInner:(Lcom/android/server/wm/WindowState;Lcom/android/server/wm/DisplayPolicy;Lcom/android/server/wm/ActivityRecord;Lcom/android/server/wm/DisplayContent;Landroid/view/IWindow;Landroid/view/WindowManager$LayoutParams;ILandroid/view/WindowRelayoutResult;)I&#45;&gt;__field__ -->
<g id="edge2" class="edge">
<title>m::com.android.server.wm.WindowManagerService.addWindowInner:(Lcom/android/server/wm/WindowState;Lcom/android/server/wm/DisplayPolicy;Lcom/android/server/wm/ActivityRecord;Lcom/android/server/wm/DisplayContent;Landroid/view/IWindow;Landroid/view/WindowManager$LayoutParams;ILandroid/view/WindowRelayoutResult;)I&#45;&gt;__field__</title>
<path fill="none" stroke="#dc2626" d="M243.78,-27.98C283.04,-31.24 326.39,-34.83 364.71,-38.01"/>
<polygon fill="#dc2626" stroke="#dc2626" points="364.61,-40.82 372.81,-38.69 365.07,-35.24 364.61,-40.82"/>
<text text-anchor="middle" x="309" y="-38.8" font-family="Helvetica,sans-Serif" font-size="9.00" fill="#dc2626"> writes unguarded</text>
</g>
<!-- m::com.android.server.wm.WindowManagerService.addWindowInner:(Lcom/android/server/wm/WindowState;Lcom/android/server/wm/DisplayPolicy;Lcom/android/server/wm/ActivityRecord;Lcom/android/server/wm/DisplayContent;Landroid/view/IWindow;Landroid/view/WindowManager$LayoutParams;ILandroid/view/WindowRelayoutResult;)I&#45;&gt;__field__ -->
<g id="edge3" class="edge">
<title>m::com.android.server.wm.WindowManagerService.addWindowInner:(Lcom/android/server/wm/WindowState;Lcom/android/server/wm/DisplayPolicy;Lcom/android/server/wm/ActivityRecord;Lcom/android/server/wm/DisplayContent;Landroid/view/IWindow;Landroid/view/WindowManager$LayoutParams;ILandroid/view/WindowRelayoutResult;)I&#45;&gt;__field__</title>
<path fill="none" stroke="#dc2626" d="M243.7,-10.09C278.44,-9.51 316.33,-10.53 351,-15 370,-17.45 390.27,-21.96 408.71,-26.84"/>
<polygon fill="#dc2626" stroke="#dc2626" points="408.04,-29.56 416.5,-28.95 409.51,-24.16 408.04,-29.56"/>
<text text-anchor="middle" x="309" y="-17.8" font-family="Helvetica,sans-Serif" font-size="9.00" fill="#dc2626"> reads unguarded</text>
</g>
</g>
</svg>
