<?xml version="1.0" encoding="UTF-8" standalone="no"?>
<!DOCTYPE svg PUBLIC "-//W3C//DTD SVG 1.1//EN"
 "http://www.w3.org/Graphics/SVG/1.1/DTD/svg11.dtd">
<!-- Generated by graphviz version 2.43.0 (0)
 -->
<!-- Title: race Pages: 1 -->
<svg width="705pt" height="624pt"
 viewBox="0.00 0.00 705.00 624.00" xmlns="http://www.w3.org/2000/svg" xmlns:xlink="http://www.w3.org/1999/xlink">
<g id="graph0" class="graph" transform="scale(1 1) rotate(0) translate(4 620)">
<title>race</title>
<polygon fill="white" stroke="transparent" points="-4,4 -4,-620 701,-620 701,4 -4,4"/>
<!-- __field__ -->
<g id="node1" class="node">
<title>__field__</title>
<path fill="#fef9c3" stroke="#ca8a04" stroke-width="2" d="M685,-326C685,-326 524,-326 524,-326 518,-326 512,-320 512,-314 512,-314 512,-302 512,-302 512,-296 518,-290 524,-290 524,-290 685,-290 685,-290 691,-290 697,-296 697,-302 697,-302 697,-314 697,-314 697,-320 691,-326 685,-326"/>
<text text-anchor="middle" x="604.5" y="-305.2" font-family="Helvetica,sans-Serif" font-size="11.00">PermissionInfo.protectionLevel</text>
</g>
<!-- __guard__ -->
<g id="node2" class="node">
<title>__guard__</title>
<path fill="#dcfce7" stroke="#16a34a" stroke-width="2" d="M295,-616C295,-616 89,-616 89,-616 83,-616 77,-610 77,-604 77,-604 77,-592 77,-592 77,-586 83,-580 89,-580 89,-580 295,-580 295,-580 301,-580 307,-586 307,-592 307,-592 307,-604 307,-604 307,-610 301,-616 295,-616"/>
<text text-anchor="middle" x="192" y="-595.2" font-family="Helvetica,sans-Serif" font-size="11.00">PackageManagerServiceInjector.mLock</text>
</g>
<!-- __guard__&#45;&gt;__field__ -->
<g id="edge1" class="edge">
<title>__guard__&#45;&gt;__field__</title>
<path fill="none" stroke="#16a34a" stroke-width="1.6" d="M307.13,-609.18C366.88,-609.18 438.19,-599.3 490,-561 565.73,-505.03 592,-386.88 600.17,-334.25"/>
<polygon fill="#16a34a" stroke="#16a34a" stroke-width="1.6" points="602.98,-334.41 601.38,-326.09 597.44,-333.6 602.98,-334.41"/>
<text text-anchor="middle" x="448" y="-599.8" font-family="Helvetica,sans-Serif" font-size="9.00" fill="#15803d"> guards 2/3</text>
</g>
<!-- m::com.android.server.permission.access.permission.PermissionService.addPermission:(Landroid/content/pm/PermissionInfo;Z)Z -->
<g id="node3" class="node">
<title>m::com.android.server.permission.access.permission.PermissionService.addPermission:(Landroid/content/pm/PermissionInfo;Z)Z</title>
<path fill="#fee2e2" stroke="#dc2626" d="M280,-558C280,-558 104,-558 104,-558 98,-558 92,-552 92,-546 92,-546 92,-534 92,-534 92,-528 98,-522 104,-522 104,-522 280,-522 280,-522 286,-522 292,-528 292,-534 292,-534 292,-546 292,-546 292,-552 286,-558 280,-558"/>
<text text-anchor="middle" x="192" y="-537.2" font-family="Helvetica,sans-Serif" font-size="11.00">PermissionService.addPermission</text>
</g>
<!-- m::com.android.server.permission.access.permission.PermissionService.addPermission:(Landroid/content/pm/PermissionInfo;Z)Z&#45;&gt;__field__ -->
<g id="edge2" class="edge">
<title>m::com.android.server.permission.access.permission.PermissionService.addPermission:(Landroid/content/pm/PermissionInfo;Z)Z&#45;&gt;__field__</title>
<path fill="none" stroke="#dc2626" d="M292.16,-553.74C353.82,-557.16 432.1,-551.71 490,-514 554.75,-471.83 585.79,-379.46 597.58,-334.13"/>
<polygon fill="#dc2626" stroke="#dc2626" points="600.33,-334.68 599.56,-326.24 594.89,-333.32 600.33,-334.68"/>
<text text-anchor="middle" x="448" y="-548.8" font-family="Helvetica,sans-Serif" font-size="9.00" fill="#dc2626"> writes unguarded</text>
</g>
<!-- m::com.android.server.permission.access.permission.PermissionService.addPermission:(Landroid/content/pm/PermissionInfo;Z)Z&#45;&gt;__field__ -->
<g id="edge8" class="edge">
<title>m::com.android.server.permission.access.permission.PermissionService.addPermission:(Landroid/content/pm/PermissionInfo;Z)Z&#45;&gt;__field__</title>
<path fill="none" stroke="#dc2626" d="M292.41,-530.61C322.27,-526.27 354.84,-520.01 384,-511 396.49,-507.14 479.91,-468.31 490,-460 534.43,-423.41 571.1,-365.93 589.89,-333.14"/>
<polygon fill="#dc2626" stroke="#dc2626" points="592.35,-334.49 593.85,-326.14 587.47,-331.73 592.35,-334.49"/>
<text text-anchor="middle" x="448" y="-502.8" font-family="Helvetica,sans-Serif" font-size="9.00" fill="#dc2626"> reads unguarded</text>
</g>
<!-- m::com.android.server.am.ActivityManagerService$PermissionController.isRuntimePermission:(Ljava/lang/String;)Z -->
<g id="node4" class="node">
<title>m::com.android.server.am.ActivityManagerService$PermissionController.isRuntimePermission:(Ljava/lang/String;)Z</title>
<path fill="#fee2e2" stroke="#dc2626" d="M372,-500C372,-500 12,-500 12,-500 6,-500 0,-494 0,-488 0,-488 0,-476 0,-476 0,-470 6,-464 12,-464 12,-464 372,-464 372,-464 378,-464 384,-470 384,-476 384,-476 384,-488 384,-488 384,-494 378,-500 372,-500"/>
<text text-anchor="middle" x="192" y="-479.2" font-family="Helvetica,sans-Serif" font-size="11.00">ActivityManagerService$PermissionController.isRuntimePermission</text>
</g>
<!-- m::com.android.server.am.ActivityManagerService$PermissionController.isRuntimePermission:(Ljava/lang/String;)Z&#45;&gt;__field__ -->
<g id="edge3" class="edge">
<title>m::com.android.server.am.ActivityManagerService$PermissionController.isRuntimePermission:(Ljava/lang/String;)Z&#45;&gt;__field__</title>
<path fill="none" stroke="#dc2626" d="M341.28,-463.96C355.85,-460.86 370.3,-457.23 384,-453 433.95,-437.57 445.99,-430.22 490,-402 522.68,-381.05 556.5,-351.91 578.62,-331.65"/>
<polygon fill="#dc2626" stroke="#dc2626" points="580.56,-333.67 584.54,-326.19 576.76,-329.56 580.56,-333.67"/>
<text text-anchor="middle" x="448" y="-447.8" font-family="Helvetica,sans-Serif" font-size="9.00" fill="#dc2626"> reads unguarded</text>
</g>
<!-- m::com.android.server.am.BroadcastSkipPolicy.isSignaturePerm:([Ljava/lang/String;)Z -->
<g id="node5" class="node">
<title>m::com.android.server.am.BroadcastSkipPolicy.isSignaturePerm:([Ljava/lang/String;)Z</title>
<path fill="#fee2e2" stroke="#dc2626" d="M289,-442C289,-442 95,-442 95,-442 89,-442 83,-436 83,-430 83,-430 83,-418 83,-418 83,-412 89,-406 95,-406 95,-406 289,-406 289,-406 295,-406 301,-412 301,-418 301,-418 301,-430 301,-430 301,-436 295,-442 289,-442"/>
<text text-anchor="middle" x="192" y="-421.2" font-family="Helvetica,sans-Serif" font-size="11.00">BroadcastSkipPolicy.isSignaturePerm</text>
</g>
<!-- m::com.android.server.am.BroadcastSkipPolicy.isSignaturePerm:([Ljava/lang/String;)Z&#45;&gt;__field__ -->
<g id="edge4" class="edge">
<title>m::com.android.server.am.BroadcastSkipPolicy.isSignaturePerm:([Ljava/lang/String;)Z&#45;&gt;__field__</title>
<path fill="none" stroke="#dc2626" d="M301.22,-411.93C328.49,-407.7 357.53,-402.16 384,-395 446.1,-378.21 514.54,-349.32 558.22,-329.46"/>
<polygon fill="#dc2626" stroke="#dc2626" points="559.43,-331.99 565.54,-326.11 557.1,-326.89 559.43,-331.99"/>
<text text-anchor="middle" x="448" y="-389.8" font-family="Helvetica,sans-Serif" font-size="9.00" fill="#dc2626"> reads unguarded</text>
</g>
<!-- m::com.android.server.devicepolicy.DevicePolicyManagerService.isRuntimePermission:(Ljava/lang/String;)Z -->
<g id="node6" class="node">
<title>m::com.android.server.devicepolicy.DevicePolicyManagerService.isRuntimePermission:(Ljava/lang/String;)Z</title>
<path fill="#fee2e2" stroke="#dc2626" d="M326,-384C326,-384 58,-384 58,-384 52,-384 46,-378 46,-372 46,-372 46,-360 46,-360 46,-354 52,-348 58,-348 58,-348 326,-348 326,-348 332,-348 338,-354 338,-360 338,-360 338,-372 338,-372 338,-378 332,-384 326,-384"/>
<text text-anchor="middle" x="192" y="-363.2" font-family="Helvetica,sans-Serif" font-size="11.00">DevicePolicyManagerService.isRuntimePermission</text>
</g>
<!-- m::com.android.server.devicepolicy.DevicePolicyManagerService.isRuntimePermission:(Ljava/lang/String;)Z&#45;&gt;__field__ -->
<g id="edge5" class="edge">
<title>m::com.android.server.devicepolicy.DevicePolicyManagerService.isRuntimePermission:(Ljava/lang/String;)Z&#45;&gt;__field__</title>
<path fill="none" stroke="#dc2626" d="M320.63,-347.97C379.63,-339.63 448.66,-329.88 503.76,-322.09"/>
<polygon fill="#dc2626" stroke="#dc2626" points="504.26,-324.85 511.79,-320.96 503.47,-319.31 504.26,-324.85"/>
<text text-anchor="middle" x="448" y="-337.8" font-family="Helvetica,sans-Serif" font-size="9.00" fill="#dc2626"> reads unguarded</text>
</g>
<!-- m::com.android.server.permission.access.permission.AppIdPermissionPersistence.serializePermission:(Lcom/android/modules/utils/BinaryXmlSerializer;Lcom/android/server/permission/access/permission/Permission;)V -->
<g id="node7" class="node">
<title>m::com.android.server.permission.access.permission.AppIdPermissionPersistence.serializePermission:(Lcom/android/modules/utils/BinaryXmlSerializer;Lcom/android/server/permission/access/permission/Permission;)V</title>
<path fill="#fee2e2" stroke="#dc2626" d="M319,-326C319,-326 65,-326 65,-326 59,-326 53,-320 53,-314 53,-314 53,-302 53,-302 53,-296 59,-290 65,-290 65,-290 319,-290 319,-290 325,-290 331,-296 331,-302 331,-302 331,-314 331,-314 331,-320 325,-326 319,-326"/>
<text text-anchor="middle" x="192" y="-305.2" font-family="Helvetica,sans-Serif" font-size="11.00">AppIdPermissionPersistence.serializePermission</text>
</g>
<!-- m::com.android.server.permission.access.permission.AppIdPermissionPersistence.serializePermission:(Lcom/android/modules/utils/BinaryXmlSerializer;Lcom/android/server/permission/access/permission/Permission;)V&#45;&gt;__field__ -->
<g id="edge6" class="edge">
<title>m::com.android.server.permission.access.permission.AppIdPermissionPersistence.serializePermission:(Lcom/android/modules/utils/BinaryXmlSerializer;Lcom/android/server/permission/access/permission/Permission;)V&#45;&gt;__field__</title>
<path fill="none" stroke="#dc2626" d="M331.12,-308C387.59,-308 451.68,-308 503.49,-308"/>
<polygon fill="#dc2626" stroke="#dc2626" points="503.7,-310.8 511.7,-308 503.7,-305.2 503.7,-310.8"/>
<text text-anchor="middle" x="448" y="-310.8" font-family="Helvetica,sans-Serif" font-size="9.00" fill="#dc2626"> reads unguarded</text>
</g>
<!-- m::com.android.server.permission.access.permission.AppIdPermissionPolicy.evaluatePermissionState:(Lcom/android/server/permission/access/MutateStateScope;IILjava/lang/String;Lcom/android/server/pm/pkg/PackageState;)V -->
<g id="node8" class="node">
<title>m::com.android.server.permission.access.permission.AppIdPermissionPolicy.evaluatePermissionState:(Lcom/android/server/permission/access/MutateStateScope;IILjava/lang/String;Lcom/android/server/pm/pkg/PackageState;)V</title>
<path fill="#fee2e2" stroke="#dc2626" d="M318.5,-268C318.5,-268 65.5,-268 65.5,-268 59.5,-268 53.5,-262 53.5,-256 53.5,-256 53.5,-244 53.5,-244 53.5,-238 59.5,-232 65.5,-232 65.5,-232 318.5,-232 318.5,-232 324.5,-232 330.5,-238 330.5,-244 330.5,-244 330.5,-256 330.5,-256 330.5,-262 324.5,-268 318.5,-268"/>
<text text-anchor="middle" x="192" y="-247.2" font-family="Helvetica,sans-Serif" font-size="11.00">AppIdPermissionPolicy.evaluatePermissionState</text>
</g>
<!-- m::com.android.server.permission.access.permission.AppIdPermissionPolicy.evaluatePermissionState:(Lcom/android/server/permission/access/MutateStateScope;IILjava/lang/String;Lcom/android/server/pm/pkg/PackageState;)V&#45;&gt;__field__ -->
<g id="edge7" class="edge">
<title>m::com.android.server.permission.access.permission.AppIdPermissionPolicy.evaluatePermissionState:(Lcom/android/server/permission/access/MutateStateScope;IILjava/lang/String;Lcom/android/server/pm/pkg/PackageState;)V&#45;&gt;__field__</title>
<path fill="none" stroke="#dc2626" d="M320.63,-268.03C379.63,-276.37 448.66,-286.12 503.76,-293.91"/>
<polygon fill="#dc2626" stroke="#dc2626" points="503.47,-296.69 511.79,-295.04 504.26,-291.15 503.47,-296.69"/>
<text text-anchor="middle" x="448" y="-292.8" font-family="Helvetica,sans-Serif" font-size="9.00" fill="#dc2626"> reads unguarded</text>
</g>
<!-- m::com.android.server.permission.access.permission.PermissionService.dumpSystemState:(Landroid/util/IndentingPrintWriter;Lcom/android/server/permission/access/AccessState;)V -->
<g id="node9" class="node">
<title>m::com.android.server.permission.access.permission.PermissionService.dumpSystemState:(Landroid/util/IndentingPrintWriter;Lcom/android/server/permission/access/AccessState;)V</title>
<path fill="#fee2e2" stroke="#dc2626" d="M290.5,-210C290.5,-210 93.5,-210 93.5,-210 87.5,-210 81.5,-204 81.5,-198 81.5,-198 81.5,-186 81.5,-186 81.5,-180 87.5,-174 93.5,-174 93.5,-174 290.5,-174 290.5,-174 296.5,-174 302.5,-180 302.5,-186 302.5,-186 302.5,-198 302.5,-198 302.5,-204 296.5,-210 290.5,-210"/>
<text text-anchor="middle" x="192" y="-189.2" font-family="Helvetica,sans-Serif" font-size="11.00">PermissionService.dumpSystemState</text>
</g>
<!-- m::com.android.server.permission.access.permission.PermissionService.dumpSystemState:(Landroid/util/IndentingPrintWriter;Lcom/android/server/permission/access/AccessState;)V&#45;&gt;__field__ -->
<g id="edge9" class="edge">
<title>m::com.android.server.permission.access.permission.PermissionService.dumpSystemState:(Landroid/util/IndentingPrintWriter;Lcom/android/server/permission/access/AccessState;)V&#45;&gt;__field__</title>
<path fill="none" stroke="#dc2626" d="M302.72,-204.31C329.56,-208.51 358.02,-213.98 384,-221 446.1,-237.79 514.54,-266.68 558.22,-286.54"/>
<polygon fill="#dc2626" stroke="#dc2626" points="557.1,-289.11 565.54,-289.89 559.43,-284.01 557.1,-289.11"/>
<text text-anchor="middle" x="448" y="-258.8" font-family="Helvetica,sans-Serif" font-size="9.00" fill="#dc2626"> reads unguarded</text>
</g>
<!-- m::com.android.server.pm.PackageManagerShellCommand.doListPermissions:(Ljava/util/ArrayList;ZZZII)V -->
<g id="node10" class="node">
<title>m::com.android.server.pm.PackageManagerShellCommand.doListPermissions:(Ljava/util/ArrayList;ZZZII)V</title>
<path fill="#fee2e2" stroke="#dc2626" d="M326.5,-152C326.5,-152 57.5,-152 57.5,-152 51.5,-152 45.5,-146 45.5,-140 45.5,-140 45.5,-128 45.5,-128 45.5,-122 51.5,-116 57.5,-116 57.5,-116 326.5,-116 326.5,-116 332.5,-116 338.5,-122 338.5,-128 338.5,-128 338.5,-140 338.5,-140 338.5,-146 332.5,-152 326.5,-152"/>
<text text-anchor="middle" x="192" y="-131.2" font-family="Helvetica,sans-Serif" font-size="11.00">PackageManagerShellCommand.doListPermissions</text>
</g>
<!-- m::com.android.server.pm.PackageManagerShellCommand.doListPermissions:(Ljava/util/ArrayList;ZZZII)V&#45;&gt;__field__ -->
<g id="edge10" class="edge">
<title>m::com.android.server.pm.PackageManagerShellCommand.doListPermissions:(Ljava/util/ArrayList;ZZZII)V&#45;&gt;__field__</title>
<path fill="none" stroke="#dc2626" d="M338.69,-151.61C354.13,-154.81 369.48,-158.58 384,-163 433.83,-178.18 446.11,-184.94 490,-213 523.05,-234.13 557.04,-263.84 579.1,-284.38"/>
<polygon fill="#dc2626" stroke="#dc2626" points="577.25,-286.48 584.99,-289.92 581.08,-282.4 577.25,-286.48"/>
<text text-anchor="middle" x="448" y="-215.8" font-family="Helvetica,sans-Serif" font-size="9.00" fill="#dc2626"> reads unguarded</text>
</g>
<!-- m::com.android.server.pm.PackageManagerShellCommand.doListPermissions:(Ljava/util/ArrayList;ZZZII)V&#45;&gt;__field__ -->
<g id="edge11" class="edge">
<title>m::com.android.server.pm.PackageManagerShellCommand.doListPermissions:(Ljava/util/ArrayList;ZZZII)V&#45;&gt;__field__</title>
<path fill="none" stroke="#dc2626" d="M338.58,-120.19C389.17,-121.46 444.56,-130.08 490,-155 541.76,-183.38 576.52,-246.57 592.82,-282.23"/>
<polygon fill="#dc2626" stroke="#dc2626" points="590.39,-283.65 596.21,-289.82 595.51,-281.37 590.39,-283.65"/>
<text text-anchor="middle" x="448" y="-157.8" font-family="Helvetica,sans-Serif" font-size="9.00" fill="#dc2626"> reads unguarded</text>
</g>
<!-- m::com.android.server.pm.permission.LegacyPermission.dump:(Ljava/io/PrintWriter;Ljava/lang/String;Ljava/util/Set;ZZLcom/android/server/pm/DumpState;)Z -->
<g id="node11" class="node">
<title>m::com.android.server.pm.permission.LegacyPermission.dump:(Ljava/io/PrintWriter;Ljava/lang/String;Ljava/util/Set;ZZLcom/android/server/pm/DumpState;)Z</title>
<path fill="#fee2e2" stroke="#dc2626" d="M254.5,-94C254.5,-94 129.5,-94 129.5,-94 123.5,-94 117.5,-88 117.5,-82 117.5,-82 117.5,-70 117.5,-70 117.5,-64 123.5,-58 129.5,-58 129.5,-58 254.5,-58 254.5,-58 260.5,-58 266.5,-64 266.5,-70 266.5,-70 266.5,-82 266.5,-82 266.5,-88 260.5,-94 254.5,-94"/>
<text text-anchor="middle" x="192" y="-73.2" font-family="Helvetica,sans-Serif" font-size="11.00">LegacyPermission.dump</text>
</g>
<!-- m::com.android.server.pm.permission.LegacyPermission.dump:(Ljava/io/PrintWriter;Ljava/lang/String;Ljava/util/Set;ZZLcom/android/server/pm/DumpState;)Z&#45;&gt;__field__ -->
<g id="edge12" class="edge">
<title>m::com.android.server.pm.permission.LegacyPermission.dump:(Ljava/io/PrintWriter;Ljava/lang/String;Ljava/util/Set;ZZLcom/android/server/pm/DumpState;)Z&#45;&gt;__field__</title>
<path fill="none" stroke="#dc2626" d="M266.65,-67.19C330.84,-63.34 423.78,-67.36 490,-111 551.77,-151.71 583.93,-238.4 596.73,-281.93"/>
<polygon fill="#dc2626" stroke="#dc2626" points="594.08,-282.85 598.96,-289.78 599.47,-281.32 594.08,-282.85"/>
<text text-anchor="middle" x="448" y="-113.8" font-family="Helvetica,sans-Serif" font-size="9.00" fill="#dc2626"> reads unguarded</text>
</g>
<!-- m::com.android.server.pm.permission.LegacyPermission.write:(Lcom/android/modules/utils/TypedXmlSerializer;)V -->
<g id="node12" class="node">
<title>m::com.android.server.pm.permission.LegacyPermission.write:(Lcom/android/modules/utils/TypedXmlSerializer;)V</title>
<path fill="#fee2e2" stroke="#dc2626" d="M253,-36C253,-36 131,-36 131,-36 125,-36 119,-30 119,-24 119,-24 119,-12 119,-12 119,-6 125,0 131,0 131,0 253,0 253,0 259,0 265,-6 265,-12 265,-12 265,-24 265,-24 265,-30 259,-36 253,-36"/>
<text text-anchor="middle" x="192" y="-15.2" font-family="Helvetica,sans-Serif" font-size="11.00">LegacyPermission.write</text>
</g>
<!-- m::com.android.server.pm.permission.LegacyPermission.write:(Lcom/android/modules/utils/TypedXmlSerializer;)V&#45;&gt;__field__ -->
<g id="edge13" class="edge">
<title>m::com.android.server.pm.permission.LegacyPermission.write:(Lcom/android/modules/utils/TypedXmlSerializer;)V&#45;&gt;__field__</title>
<path fill="none" stroke="#dc2626" d="M265.01,-10.53C330.09,-7.65 425.33,-13.57 490,-62 563.29,-116.88 590.75,-230.54 599.7,-281.85"/>
<polygon fill="#dc2626" stroke="#dc2626" points="596.95,-282.39 601.02,-289.82 602.47,-281.47 596.95,-282.39"/>
<text text-anchor="middle" x="448" y="-64.8" font-family="Helvetica,sans-Serif" font-size="9.00" fill="#dc2626"> reads unguarded</text>
</g>
</g>
</svg>
