<?xml version="1.0" encoding="UTF-8" standalone="no"?>
<!DOCTYPE svg PUBLIC "-//W3C//DTD SVG 1.1//EN"
 "http://www.w3.org/Graphics/SVG/1.1/DTD/svg11.dtd">
<!-- Generated by graphviz version 2.43.0 (0)
 -->
<!-- Title: race Pages: 1 -->
<svg width="674pt" height="857pt"
 viewBox="0.00 0.00 674.00 856.63" xmlns="http://www.w3.org/2000/svg" xmlns:xlink="http://www.w3.org/1999/xlink">
<g id="graph0" class="graph" transform="scale(1 1) rotate(0) translate(4 852.63)">
<title>race</title>
<polygon fill="white" stroke="transparent" points="-4,4 -4,-852.63 670,-852.63 670,4 -4,4"/>
<!-- __field__ -->
<g id="node1" class="node">
<title>__field__</title>
<path fill="#fef9c3" stroke="#ca8a04" stroke-width="2" d="M654,-434.63C654,-434.63 517,-434.63 517,-434.63 511,-434.63 505,-428.63 505,-422.63 505,-422.63 505,-410.63 505,-410.63 505,-404.63 511,-398.63 517,-398.63 517,-398.63 654,-398.63 654,-398.63 660,-398.63 666,-404.63 666,-410.63 666,-410.63 666,-422.63 666,-422.63 666,-428.63 660,-434.63 654,-434.63"/>
<text text-anchor="middle" x="585.5" y="-413.83" font-family="Helvetica,sans-Serif" font-size="11.00">ActivityInfo.packageName</text>
</g>
<!-- __guard__ -->
<g id="node2" class="node">
<title>__guard__</title>
<path fill="#dcfce7" stroke="#16a34a" stroke-width="2" d="M291.5,-848.63C291.5,-848.63 85.5,-848.63 85.5,-848.63 79.5,-848.63 73.5,-842.63 73.5,-836.63 73.5,-836.63 73.5,-824.63 73.5,-824.63 73.5,-818.63 79.5,-812.63 85.5,-812.63 85.5,-812.63 291.5,-812.63 291.5,-812.63 297.5,-812.63 303.5,-818.63 303.5,-824.63 303.5,-824.63 303.5,-836.63 303.5,-836.63 303.5,-842.63 297.5,-848.63 291.5,-848.63"/>
<text text-anchor="middle" x="188.5" y="-827.83" font-family="Helvetica,sans-Serif" font-size="11.00">PackageManagerServiceInjector.mLock</text>
</g>
<!-- __guard__&#45;&gt;__field__ -->
<g id="edge1" class="edge">
<title>__guard__&#45;&gt;__field__</title>
<path fill="none" stroke="#16a34a" stroke-width="1.6" d="M303.69,-835.55C364.83,-831.88 436.85,-816.4 483,-769.63 574.31,-677.11 584.56,-508.11 584.95,-443.1"/>
<polygon fill="#16a34a" stroke="#16a34a" stroke-width="1.6" points="587.75,-442.98 584.95,-434.98 582.15,-442.98 587.75,-442.98"/>
<text text-anchor="middle" x="441" y="-820.43" font-family="Helvetica,sans-Serif" font-size="9.00" fill="#15803d"> guards 2/3</text>
</g>
<!-- m::com.android.server.wm.Task.trimIneffectiveInfo:(Lcom/android/server/wm/Task;Landroid/app/TaskInfo;)V -->
<g id="node3" class="node">
<title>m::com.android.server.wm.Task.trimIneffectiveInfo:(Lcom/android/server/wm/Task;Landroid/app/TaskInfo;)V</title>
<path fill="#fee2e2" stroke="#dc2626" d="M249,-790.63C249,-790.63 128,-790.63 128,-790.63 122,-790.63 116,-784.63 116,-778.63 116,-778.63 116,-766.63 116,-766.63 116,-760.63 122,-754.63 128,-754.63 128,-754.63 249,-754.63 249,-754.63 255,-754.63 261,-760.63 261,-766.63 261,-766.63 261,-778.63 261,-778.63 261,-784.63 255,-790.63 249,-790.63"/>
<text text-anchor="middle" x="188.5" y="-769.83" font-family="Helvetica,sans-Serif" font-size="11.00">Task.trimIneffectiveInfo</text>
</g>
<!-- m::com.android.server.wm.Task.trimIneffectiveInfo:(Lcom/android/server/wm/Task;Landroid/app/TaskInfo;)V&#45;&gt;__field__ -->
<g id="edge2" class="edge">
<title>m::com.android.server.wm.Task.trimIneffectiveInfo:(Lcom/android/server/wm/Task;Landroid/app/TaskInfo;)V&#45;&gt;__field__</title>
<path fill="none" stroke="#dc2626" d="M261.21,-776.66C327.75,-776.28 425,-764.59 483,-706.63 557.83,-631.86 577.64,-498.9 582.76,-442.78"/>
<polygon fill="#dc2626" stroke="#dc2626" points="585.55,-442.97 583.44,-434.76 579.97,-442.5 585.55,-442.97"/>
<text text-anchor="middle" x="441" y="-757.43" font-family="Helvetica,sans-Serif" font-size="9.00" fill="#dc2626"> writes unguarded</text>
</g>
<!-- m::com.android.server.accounts.AccountManagerService$Session.checkKeyIntent:(ILandroid/os/Bundle;)Z -->
<g id="node4" class="node">
<title>m::com.android.server.accounts.AccountManagerService$Session.checkKeyIntent:(ILandroid/os/Bundle;)Z</title>
<path fill="#fee2e2" stroke="#dc2626" d="M319.5,-732.63C319.5,-732.63 57.5,-732.63 57.5,-732.63 51.5,-732.63 45.5,-726.63 45.5,-720.63 45.5,-720.63 45.5,-708.63 45.5,-708.63 45.5,-702.63 51.5,-696.63 57.5,-696.63 57.5,-696.63 319.5,-696.63 319.5,-696.63 325.5,-696.63 331.5,-702.63 331.5,-708.63 331.5,-708.63 331.5,-720.63 331.5,-720.63 331.5,-726.63 325.5,-732.63 319.5,-732.63"/>
<text text-anchor="middle" x="188.5" y="-711.83" font-family="Helvetica,sans-Serif" font-size="11.00">AccountManagerService$Session.checkKeyIntent</text>
</g>
<!-- m::com.android.server.accounts.AccountManagerService$Session.checkKeyIntent:(ILandroid/os/Bundle;)Z&#45;&gt;__field__ -->
<g id="edge3" class="edge">
<title>m::com.android.server.accounts.AccountManagerService$Session.checkKeyIntent:(ILandroid/os/Bundle;)Z&#45;&gt;__field__</title>
<path fill="none" stroke="#dc2626" d="M331.62,-709.78C385.11,-701.03 442.68,-682.25 483,-643.63 542.14,-586.99 569.37,-489.66 579.5,-443.03"/>
<polygon fill="#dc2626" stroke="#dc2626" points="582.3,-443.34 581.2,-434.94 576.82,-442.19 582.3,-443.34"/>
<text text-anchor="middle" x="441" y="-694.43" font-family="Helvetica,sans-Serif" font-size="9.00" fill="#dc2626"> reads unguarded</text>
</g>
<!-- m::com.android.server.accounts.AccountManagerService$Session.isExportedSystemActivity:(Landroid/content/pm/ActivityInfo;)Z -->
<g id="node5" class="node">
<title>m::com.android.server.accounts.AccountManagerService$Session.isExportedSystemActivity:(Landroid/content/pm/ActivityInfo;)Z</title>
<path fill="#fee2e2" stroke="#dc2626" d="M348.5,-674.63C348.5,-674.63 28.5,-674.63 28.5,-674.63 22.5,-674.63 16.5,-668.63 16.5,-662.63 16.5,-662.63 16.5,-650.63 16.5,-650.63 16.5,-644.63 22.5,-638.63 28.5,-638.63 28.5,-638.63 348.5,-638.63 348.5,-638.63 354.5,-638.63 360.5,-644.63 360.5,-650.63 360.5,-650.63 360.5,-662.63 360.5,-662.63 360.5,-668.63 354.5,-674.63 348.5,-674.63"/>
<text text-anchor="middle" x="188.5" y="-653.83" font-family="Helvetica,sans-Serif" font-size="11.00">AccountManagerService$Session.isExportedSystemActivity</text>
</g>
<!-- m::com.android.server.accounts.AccountManagerService$Session.isExportedSystemActivity:(Landroid/content/pm/ActivityInfo;)Z&#45;&gt;__field__ -->
<g id="edge4" class="edge">
<title>m::com.android.server.accounts.AccountManagerService$Session.isExportedSystemActivity:(Landroid/content/pm/ActivityInfo;)Z&#45;&gt;__field__</title>
<path fill="none" stroke="#dc2626" d="M360.79,-642.78C404.48,-632.28 448.72,-614.72 483,-585.63 529.71,-546.01 560.71,-479.19 575.15,-442.57"/>
<polygon fill="#dc2626" stroke="#dc2626" points="577.87,-443.27 578.14,-434.8 572.65,-441.26 577.87,-443.27"/>
<text text-anchor="middle" x="441" y="-631.43" font-family="Helvetica,sans-Serif" font-size="9.00" fill="#dc2626"> reads unguarded</text>
</g>
<!-- m::com.android.server.am.ActivityManagerShellCommand.runStartActivity:(Ljava/io/PrintWriter;)I -->
<g id="node6" class="node">
<title>m::com.android.server.am.ActivityManagerShellCommand.runStartActivity:(Ljava/io/PrintWriter;)I</title>
<path fill="#fee2e2" stroke="#dc2626" d="M316,-616.63C316,-616.63 61,-616.63 61,-616.63 55,-616.63 49,-610.63 49,-604.63 49,-604.63 49,-592.63 49,-592.63 49,-586.63 55,-580.63 61,-580.63 61,-580.63 316,-580.63 316,-580.63 322,-580.63 328,-586.63 328,-592.63 328,-592.63 328,-604.63 328,-604.63 328,-610.63 322,-616.63 316,-616.63"/>
<text text-anchor="middle" x="188.5" y="-595.83" font-family="Helvetica,sans-Serif" font-size="11.00">ActivityManagerShellCommand.runStartActivity</text>
</g>
<!-- m::com.android.server.am.ActivityManagerShellCommand.runStartActivity:(Ljava/io/PrintWriter;)I&#45;&gt;__field__ -->
<g id="edge5" class="edge">
<title>m::com.android.server.am.ActivityManagerShellCommand.runStartActivity:(Ljava/io/PrintWriter;)I&#45;&gt;__field__</title>
<path fill="none" stroke="#dc2626" d="M328.28,-589.31C380.25,-580.55 437.63,-564.13 483,-533.63 519.67,-508.98 551.08,-467.78 568.88,-441.42"/>
<polygon fill="#dc2626" stroke="#dc2626" points="571.23,-442.95 573.32,-434.73 566.56,-439.85 571.23,-442.95"/>
<text text-anchor="middle" x="441" y="-573.43" font-family="Helvetica,sans-Serif" font-size="9.00" fill="#dc2626"> reads unguarded</text>
</g>
<!-- m::com.android.server.am.BroadcastController.broadcastIntentLockedTraced:(Lcom/android/server/am/ProcessRecord;Ljava/lang/String;Ljava/lang/String;Landroid/content/Intent;Ljava/lang/String;Lcom/android/server/am/ProcessRecord;Landroid/content/IIntentReceiver;ILjava/lang/String;Landroid/os/Bundle;[Ljava/lang/String;[Ljava/lang/String;[Ljava/lang/String;ILandroid/app/BroadcastOptions;ZZIIIIILandroid/app/BackgroundStartPrivileges;[ILjava/util/function/BiFunction;Lcom/android/server/am/BroadcastSentEventRecord;)I -->
<g id="node7" class="node">
<title>m::com.android.server.am.BroadcastController.broadcastIntentLockedTraced:(Lcom/android/server/am/ProcessRecord;Ljava/lang/String;Ljava/lang/String;Landroid/content/Intent;Ljava/lang/String;Lcom/android/server/am/ProcessRecord;Landroid/content/IIntentReceiver;ILjava/lang/String;Landroid/os/Bundle;[Ljava/lang/String;[Ljava/lang/String;[Ljava/lang/String;ILandroid/app/BroadcastOptions;ZZIIIIILandroid/app/BackgroundStartPrivileges;[ILjava/util/function/BiFunction;Lcom/android/server/am/BroadcastSentEventRecord;)I</title>
<path fill="#fee2e2" stroke="#dc2626" d="M321.5,-558.63C321.5,-558.63 55.5,-558.63 55.5,-558.63 49.5,-558.63 43.5,-552.63 43.5,-546.63 43.5,-546.63 43.5,-534.63 43.5,-534.63 43.5,-528.63 49.5,-522.63 55.5,-522.63 55.5,-522.63 321.5,-522.63 321.5,-522.63 327.5,-522.63 333.5,-528.63 333.5,-534.63 333.5,-534.63 333.5,-546.63 333.5,-546.63 333.5,-552.63 327.5,-558.63 321.5,-558.63"/>
<text text-anchor="middle" x="188.5" y="-537.83" font-family="Helvetica,sans-Serif" font-size="11.00">BroadcastController.broadcastIntentLockedTraced</text>
</g>
<!-- m::com.android.server.am.BroadcastController.broadcastIntentLockedTraced:(Lcom/android/server/am/ProcessRecord;Ljava/lang/String;Ljava/lang/String;Landroid/content/Intent;Ljava/lang/String;Lcom/android/server/am/ProcessRecord;Landroid/content/IIntentReceiver;ILjava/lang/String;Landroid/os/Bundle;[Ljava/lang/String;[Ljava/lang/String;[Ljava/lang/String;ILandroid/app/BroadcastOptions;ZZIIIIILandroid/app/BackgroundStartPrivileges;[ILjava/util/function/BiFunction;Lcom/android/server/am/BroadcastSentEventRecord;)I&#45;&gt;__field__ -->
<g id="edge6" class="edge">
<title>m::com.android.server.am.BroadcastController.broadcastIntentLockedTraced:(Lcom/android/server/am/ProcessRecord;Ljava/lang/String;Ljava/lang/String;Landroid/content/Intent;Ljava/lang/String;Lcom/android/server/am/ProcessRecord;Landroid/content/IIntentReceiver;ILjava/lang/String;Landroid/os/Bundle;[Ljava/lang/String;[Ljava/lang/String;[Ljava/lang/String;ILandroid/app/BroadcastOptions;ZZIIIIILandroid/app/BackgroundStartPrivileges;[ILjava/util/function/BiFunction;Lcom/android/server/am/BroadcastSentEventRecord;)I&#45;&gt;__field__</title>
<path fill="none" stroke="#dc2626" d="M333.86,-531.99C382.7,-525.32 436.59,-513.73 483,-493.63 512.49,-480.87 541.2,-457.79 560.51,-440.22"/>
<polygon fill="#dc2626" stroke="#dc2626" points="562.47,-442.22 566.44,-434.73 558.67,-438.11 562.47,-442.22"/>
<text text-anchor="middle" x="441" y="-521.43" font-family="Helvetica,sans-Serif" font-size="9.00" fill="#dc2626"> reads unguarded</text>
</g>
<!-- m::com.android.server.am.BroadcastController.collectReceiverComponents:(Landroid/content/Intent;Ljava/lang/String;II[I[I[Ljava/lang/String;)Ljava/util/List; -->
<g id="node8" class="node">
<title>m::com.android.server.am.BroadcastController.collectReceiverComponents:(Landroid/content/Intent;Ljava/lang/String;II[I[I[Ljava/lang/String;)Ljava/util/List;</title>
<path fill="#fee2e2" stroke="#dc2626" d="M317.5,-500.63C317.5,-500.63 59.5,-500.63 59.5,-500.63 53.5,-500.63 47.5,-494.63 47.5,-488.63 47.5,-488.63 47.5,-476.63 47.5,-476.63 47.5,-470.63 53.5,-464.63 59.5,-464.63 59.5,-464.63 317.5,-464.63 317.5,-464.63 323.5,-464.63 329.5,-470.63 329.5,-476.63 329.5,-476.63 329.5,-488.63 329.5,-488.63 329.5,-494.63 323.5,-500.63 317.5,-500.63"/>
<text text-anchor="middle" x="188.5" y="-479.83" font-family="Helvetica,sans-Serif" font-size="11.00">BroadcastController.collectReceiverComponents</text>
</g>
<!-- m::com.android.server.am.BroadcastController.collectReceiverComponents:(Landroid/content/Intent;Ljava/lang/String;II[I[I[Ljava/lang/String;)Ljava/util/List;&#45;&gt;__field__ -->
<g id="edge7" class="edge">
<title>m::com.android.server.am.BroadcastController.collectReceiverComponents:(Landroid/content/Intent;Ljava/lang/String;II[I[I[Ljava/lang/String;)Ljava/util/List;&#45;&gt;__field__</title>
<path fill="none" stroke="#dc2626" d="M329.66,-484.83C378.79,-482.78 433.93,-477.24 483,-464.63 505.17,-458.94 528.35,-448.37 546.96,-438.6"/>
<polygon fill="#dc2626" stroke="#dc2626" points="548.38,-441.01 554.11,-434.76 545.74,-436.07 548.38,-441.01"/>
<text text-anchor="middle" x="441" y="-481.43" font-family="Helvetica,sans-Serif" font-size="9.00" fill="#dc2626"> reads unguarded</text>
</g>
<!-- m::com.android.server.am.BroadcastController.collectReceiverComponents:(Landroid/content/Intent;Ljava/lang/String;II[I[I[Ljava/lang/String;)Ljava/util/List;&#45;&gt;__field__ -->
<g id="edge8" class="edge">
<title>m::com.android.server.am.BroadcastController.collectReceiverComponents:(Landroid/content/Intent;Ljava/lang/String;II[I[I[Ljava/lang/String;)Ljava/util/List;&#45;&gt;__field__</title>
<path fill="none" stroke="#dc2626" d="M308.84,-464.6C331.49,-461.05 354.99,-457.3 377,-453.63 416.26,-447.1 459.62,-439.44 496.51,-432.79"/>
<polygon fill="#dc2626" stroke="#dc2626" points="497.39,-435.47 504.76,-431.3 496.39,-429.96 497.39,-435.47"/>
<text text-anchor="middle" x="441" y="-452.43" font-family="Helvetica,sans-Serif" font-size="9.00" fill="#dc2626"> reads unguarded</text>
</g>
<!-- m::com.android.server.am.BroadcastQueueImpl.$r8$lambda$tClXJ7lHT7SDttp6mit80Rp9sTM:(Ljava/lang/String;Ljava/util/Set;Lcom/android/server/am/BroadcastRecord;I)Z -->
<g id="node9" class="node">
<title>m::com.android.server.am.BroadcastQueueImpl.$r8$lambda$tClXJ7lHT7SDttp6mit80Rp9sTM:(Ljava/lang/String;Ljava/util/Set;Lcom/android/server/am/BroadcastRecord;I)Z</title>
<path fill="#fee2e2" stroke="#dc2626" d="M365,-442.63C365,-442.63 12,-442.63 12,-442.63 6,-442.63 0,-436.63 0,-430.63 0,-430.63 0,-418.63 0,-418.63 0,-412.63 6,-406.63 12,-406.63 12,-406.63 365,-406.63 365,-406.63 371,-406.63 377,-412.63 377,-418.63 377,-418.63 377,-430.63 377,-430.63 377,-436.63 371,-442.63 365,-442.63"/>
<text text-anchor="middle" x="188.5" y="-421.83" font-family="Helvetica,sans-Serif" font-size="11.00">BroadcastQueueImpl.$r8$lambda$tClXJ7lHT7SDttp6mit80Rp9sTM</text>
</g>
<!-- m::com.android.server.am.BroadcastQueueImpl.$r8$lambda$tClXJ7lHT7SDttp6mit80Rp9sTM:(Ljava/lang/String;Ljava/util/Set;Lcom/android/server/am/BroadcastRecord;I)Z&#45;&gt;__field__ -->
<g id="edge9" class="edge">
<title>m::com.android.server.am.BroadcastQueueImpl.$r8$lambda$tClXJ7lHT7SDttp6mit80Rp9sTM:(Ljava/lang/String;Ljava/util/Set;Lcom/android/server/am/BroadcastRecord;I)Z&#45;&gt;__field__</title>
<path fill="none" stroke="#dc2626" d="M377.09,-417.12C384.49,-416.93 391.81,-416.77 399,-416.63 430.77,-416.03 465.62,-415.89 496.44,-415.95"/>
<polygon fill="#dc2626" stroke="#dc2626" points="496.59,-418.75 504.6,-415.97 496.61,-413.15 496.59,-418.75"/>
<text text-anchor="middle" x="441" y="-419.43" font-family="Helvetica,sans-Serif" font-size="9.00" fill="#dc2626"> reads unguarded</text>
</g>
<!-- m::com.android.server.am.BroadcastQueueImpl.notifyScheduleReceiver:(Lcom/android/server/am/ProcessRecord;Lcom/android/server/am/BroadcastRecord;Landroid/content/pm/ResolveInfo;)V -->
<g id="node10" class="node">
<title>m::com.android.server.am.BroadcastQueueImpl.notifyScheduleReceiver:(Lcom/android/server/am/ProcessRecord;Lcom/android/server/am/BroadcastRecord;Landroid/content/pm/ResolveInfo;)V</title>
<path fill="#fee2e2" stroke="#dc2626" d="M308.5,-384.63C308.5,-384.63 68.5,-384.63 68.5,-384.63 62.5,-384.63 56.5,-378.63 56.5,-372.63 56.5,-372.63 56.5,-360.63 56.5,-360.63 56.5,-354.63 62.5,-348.63 68.5,-348.63 68.5,-348.63 308.5,-348.63 308.5,-348.63 314.5,-348.63 320.5,-354.63 320.5,-360.63 320.5,-360.63 320.5,-372.63 320.5,-372.63 320.5,-378.63 314.5,-384.63 308.5,-384.63"/>
<text text-anchor="middle" x="188.5" y="-363.83" font-family="Helvetica,sans-Serif" font-size="11.00">BroadcastQueueImpl.notifyScheduleReceiver</text>
</g>
<!-- m::com.android.server.am.BroadcastQueueImpl.notifyScheduleReceiver:(Lcom/android/server/am/ProcessRecord;Lcom/android/server/am/BroadcastRecord;Landroid/content/pm/ResolveInfo;)V&#45;&gt;__field__ -->
<g id="edge10" class="edge">
<title>m::com.android.server.am.BroadcastQueueImpl.notifyScheduleReceiver:(Lcom/android/server/am/ProcessRecord;Lcom/android/server/am/BroadcastRecord;Landroid/content/pm/ResolveInfo;)V&#45;&gt;__field__</title>
<path fill="none" stroke="#dc2626" d="M320.77,-380.68C371.51,-386.41 430.02,-393.39 483,-400.63 487.42,-401.24 491.94,-401.88 496.51,-402.54"/>
<polygon fill="#dc2626" stroke="#dc2626" points="496.44,-405.36 504.76,-403.75 497.25,-399.82 496.44,-405.36"/>
<text text-anchor="middle" x="441" y="-403.43" font-family="Helvetica,sans-Serif" font-size="9.00" fill="#dc2626"> reads unguarded</text>
</g>
<!-- m::com.android.server.am.BroadcastRecord.getReceiverPackageName:(Ljava/lang/Object;)Ljava/lang/String; -->
<g id="node11" class="node">
<title>m::com.android.server.am.BroadcastRecord.getReceiverPackageName:(Ljava/lang/Object;)Ljava/lang/String;</title>
<path fill="#fee2e2" stroke="#dc2626" d="M305,-326.63C305,-326.63 72,-326.63 72,-326.63 66,-326.63 60,-320.63 60,-314.63 60,-314.63 60,-302.63 60,-302.63 60,-296.63 66,-290.63 72,-290.63 72,-290.63 305,-290.63 305,-290.63 311,-290.63 317,-296.63 317,-302.63 317,-302.63 317,-314.63 317,-314.63 317,-320.63 311,-326.63 305,-326.63"/>
<text text-anchor="middle" x="188.5" y="-305.83" font-family="Helvetica,sans-Serif" font-size="11.00">BroadcastRecord.getReceiverPackageName</text>
</g>
<!-- m::com.android.server.am.BroadcastRecord.getReceiverPackageName:(Ljava/lang/Object;)Ljava/lang/String;&#45;&gt;__field__ -->
<g id="edge11" class="edge">
<title>m::com.android.server.am.BroadcastRecord.getReceiverPackageName:(Ljava/lang/Object;)Ljava/lang/String;&#45;&gt;__field__</title>
<path fill="none" stroke="#dc2626" d="M317.21,-325.18C337.34,-328.71 357.82,-332.85 377,-337.63 425.41,-349.72 436.37,-356.87 483,-374.63 500,-381.11 518.42,-388.59 534.85,-395.43"/>
<polygon fill="#dc2626" stroke="#dc2626" points="533.78,-398.02 542.24,-398.52 535.94,-392.85 533.78,-398.02"/>
<text text-anchor="middle" x="441" y="-377.43" font-family="Helvetica,sans-Serif" font-size="9.00" fill="#dc2626"> reads unguarded</text>
</g>
<!-- m::com.android.server.am.BroadcastRecord.isReceiverEquals:(Ljava/lang/Object;Ljava/lang/Object;)Z -->
<g id="node12" class="node">
<title>m::com.android.server.am.BroadcastRecord.isReceiverEquals:(Ljava/lang/Object;Ljava/lang/Object;)Z</title>
<path fill="#fee2e2" stroke="#dc2626" d="M280,-268.63C280,-268.63 97,-268.63 97,-268.63 91,-268.63 85,-262.63 85,-256.63 85,-256.63 85,-244.63 85,-244.63 85,-238.63 91,-232.63 97,-232.63 97,-232.63 280,-232.63 280,-232.63 286,-232.63 292,-238.63 292,-244.63 292,-244.63 292,-256.63 292,-256.63 292,-262.63 286,-268.63 280,-268.63"/>
<text text-anchor="middle" x="188.5" y="-247.83" font-family="Helvetica,sans-Serif" font-size="11.00">BroadcastRecord.isReceiverEquals</text>
</g>
<!-- m::com.android.server.am.BroadcastRecord.isReceiverEquals:(Ljava/lang/Object;Ljava/lang/Object;)Z&#45;&gt;__field__ -->
<g id="edge12" class="edge">
<title>m::com.android.server.am.BroadcastRecord.isReceiverEquals:(Ljava/lang/Object;Ljava/lang/Object;)Z&#45;&gt;__field__</title>
<path fill="none" stroke="#dc2626" d="M292.35,-261.26C320.17,-265.56 350.04,-271.49 377,-279.63 426.69,-294.64 439.41,-300.47 483,-328.63 511.94,-347.33 541.27,-373.75 560.92,-392.76"/>
<polygon fill="#dc2626" stroke="#dc2626" points="559.01,-394.81 566.69,-398.4 562.92,-390.8 559.01,-394.81"/>
<text text-anchor="middle" x="441" y="-331.43" font-family="Helvetica,sans-Serif" font-size="9.00" fill="#dc2626"> reads unguarded</text>
</g>
<!-- m::com.android.server.am.BroadcastSkipPolicy.checkOpForManifestReceiverInner:(ILjava/lang/String;Lcom/android/server/am/BroadcastRecord;Landroid/content/pm/ResolveInfo;Landroid/content/ComponentName;Ljava/lang/String;)Z -->
<g id="node13" class="node">
<title>m::com.android.server.am.BroadcastSkipPolicy.checkOpForManifestReceiverInner:(ILjava/lang/String;Lcom/android/server/am/BroadcastRecord;Landroid/content/pm/ResolveInfo;Landroid/content/ComponentName;Ljava/lang/String;)Z</title>
<path fill="#fee2e2" stroke="#dc2626" d="M334.5,-210.63C334.5,-210.63 42.5,-210.63 42.5,-210.63 36.5,-210.63 30.5,-204.63 30.5,-198.63 30.5,-198.63 30.5,-186.63 30.5,-186.63 30.5,-180.63 36.5,-174.63 42.5,-174.63 42.5,-174.63 334.5,-174.63 334.5,-174.63 340.5,-174.63 346.5,-180.63 346.5,-186.63 346.5,-186.63 346.5,-198.63 346.5,-198.63 346.5,-204.63 340.5,-210.63 334.5,-210.63"/>
<text text-anchor="middle" x="188.5" y="-189.83" font-family="Helvetica,sans-Serif" font-size="11.00">BroadcastSkipPolicy.checkOpForManifestReceiverInner</text>
</g>
<!-- m::com.android.server.am.BroadcastSkipPolicy.checkOpForManifestReceiverInner:(ILjava/lang/String;Lcom/android/server/am/BroadcastRecord;Landroid/content/pm/ResolveInfo;Landroid/content/ComponentName;Ljava/lang/String;)Z&#45;&gt;__field__ -->
<g id="edge13" class="edge">
<title>m::com.android.server.am.BroadcastSkipPolicy.checkOpForManifestReceiverInner:(ILjava/lang/String;Lcom/android/server/am/BroadcastRecord;Landroid/content/pm/ResolveInfo;Landroid/content/ComponentName;Ljava/lang/String;)Z&#45;&gt;__field__</title>
<path fill="none" stroke="#dc2626" d="M346.64,-208.82C394.64,-220.22 444.77,-239.41 483,-271.63 523.46,-305.74 555.41,-359.57 572,-391.15"/>
<polygon fill="#dc2626" stroke="#dc2626" points="569.53,-392.48 575.69,-398.3 574.5,-389.91 569.53,-392.48"/>
<text text-anchor="middle" x="441" y="-274.43" font-family="Helvetica,sans-Serif" font-size="9.00" fill="#dc2626"> reads unguarded</text>
</g>
<!-- m::com.android.server.am.BroadcastSkipPolicy.createAttributionSourcesForResolveInfo:(Landroid/content/pm/ResolveInfo;)[Landroid/content/AttributionSource; -->
<g id="node14" class="node">
<title>m::com.android.server.am.BroadcastSkipPolicy.createAttributionSourcesForResolveInfo:(Landroid/content/pm/ResolveInfo;)[Landroid/content/AttributionSource;</title>
<path fill="#fee2e2" stroke="#dc2626" d="M350,-152.63C350,-152.63 27,-152.63 27,-152.63 21,-152.63 15,-146.63 15,-140.63 15,-140.63 15,-128.63 15,-128.63 15,-122.63 21,-116.63 27,-116.63 27,-116.63 350,-116.63 350,-116.63 356,-116.63 362,-122.63 362,-128.63 362,-128.63 362,-140.63 362,-140.63 362,-146.63 356,-152.63 350,-152.63"/>
<text text-anchor="middle" x="188.5" y="-131.83" font-family="Helvetica,sans-Serif" font-size="11.00">BroadcastSkipPolicy.createAttributionSourcesForResolveInfo</text>
</g>
<!-- m::com.android.server.am.BroadcastSkipPolicy.createAttributionSourcesForResolveInfo:(Landroid/content/pm/ResolveInfo;)[Landroid/content/AttributionSource;&#45;&gt;__field__ -->
<g id="edge14" class="edge">
<title>m::com.android.server.am.BroadcastSkipPolicy.createAttributionSourcesForResolveInfo:(Landroid/content/pm/ResolveInfo;)[Landroid/content/AttributionSource;&#45;&gt;__field__</title>
<path fill="none" stroke="#dc2626" d="M362.02,-149.56C406.09,-160.92 450.23,-179.97 483,-211.63 536.15,-262.98 565.66,-348 577.82,-390.61"/>
<polygon fill="#dc2626" stroke="#dc2626" points="575.18,-391.58 580.02,-398.54 580.58,-390.09 575.18,-391.58"/>
<text text-anchor="middle" x="441" y="-214.43" font-family="Helvetica,sans-Serif" font-size="9.00" fill="#dc2626"> reads unguarded</text>
</g>
<!-- m::com.android.server.am.BroadcastSkipPolicy.createAttributionSourcesForResolveInfo:(Landroid/content/pm/ResolveInfo;)[Landroid/content/AttributionSource;&#45;&gt;__field__ -->
<g id="edge15" class="edge">
<title>m::com.android.server.am.BroadcastSkipPolicy.createAttributionSourcesForResolveInfo:(Landroid/content/pm/ResolveInfo;)[Landroid/content/AttributionSource;&#45;&gt;__field__</title>
<path fill="none" stroke="#dc2626" d="M261.82,-116.6C326.04,-105.04 419.32,-99.69 483,-145.63 563.8,-203.93 580.33,-334.54 583.67,-390.44"/>
<polygon fill="#dc2626" stroke="#dc2626" points="580.87,-390.59 584.09,-398.44 586.47,-390.3 580.87,-390.59"/>
<text text-anchor="middle" x="441" y="-148.43" font-family="Helvetica,sans-Serif" font-size="9.00" fill="#dc2626"> reads unguarded</text>
</g>
<!-- m::com.android.server.am.BroadcastSkipPolicy.noteOpForManifestReceiverInner:(ILjava/lang/String;Lcom/android/server/am/BroadcastRecord;Landroid/content/pm/ResolveInfo;Landroid/content/ComponentName;Ljava/lang/String;)Z -->
<g id="node15" class="node">
<title>m::com.android.server.am.BroadcastSkipPolicy.noteOpForManifestReceiverInner:(ILjava/lang/String;Lcom/android/server/am/BroadcastRecord;Landroid/content/pm/ResolveInfo;Landroid/content/ComponentName;Ljava/lang/String;)Z</title>
<path fill="#fee2e2" stroke="#dc2626" d="M331,-94.63C331,-94.63 46,-94.63 46,-94.63 40,-94.63 34,-88.63 34,-82.63 34,-82.63 34,-70.63 34,-70.63 34,-64.63 40,-58.63 46,-58.63 46,-58.63 331,-58.63 331,-58.63 337,-58.63 343,-64.63 343,-70.63 343,-70.63 343,-82.63 343,-82.63 343,-88.63 337,-94.63 331,-94.63"/>
<text text-anchor="middle" x="188.5" y="-73.83" font-family="Helvetica,sans-Serif" font-size="11.00">BroadcastSkipPolicy.noteOpForManifestReceiverInner</text>
</g>
<!-- m::com.android.server.am.BroadcastSkipPolicy.noteOpForManifestReceiverInner:(ILjava/lang/String;Lcom/android/server/am/BroadcastRecord;Landroid/content/pm/ResolveInfo;Landroid/content/ComponentName;Ljava/lang/String;)Z&#45;&gt;__field__ -->
<g id="edge16" class="edge">
<title>m::com.android.server.am.BroadcastSkipPolicy.noteOpForManifestReceiverInner:(ILjava/lang/String;Lcom/android/server/am/BroadcastRecord;Landroid/content/pm/ResolveInfo;Landroid/content/ComponentName;Ljava/lang/String;)Z&#45;&gt;__field__</title>
<path fill="none" stroke="#dc2626" d="M279.37,-58.6C342.83,-51.22 426.31,-52.99 483,-97.63 575.45,-170.44 585.15,-327.63 585.17,-390.18"/>
<polygon fill="#dc2626" stroke="#dc2626" points="582.37,-390.34 585.11,-398.36 587.97,-390.38 582.37,-390.34"/>
<text text-anchor="middle" x="441" y="-100.43" font-family="Helvetica,sans-Serif" font-size="9.00" fill="#dc2626"> reads unguarded</text>
</g>
<!-- m::com.android.server.am.BroadcastSkipPolicy.shouldSkipMessage:(Lcom/android/server/am/BroadcastRecord;Landroid/content/pm/ResolveInfo;Z)Ljava/lang/String; -->
<g id="node16" class="node">
<title>m::com.android.server.am.BroadcastSkipPolicy.shouldSkipMessage:(Lcom/android/server/am/BroadcastRecord;Landroid/content/pm/ResolveInfo;Z)Ljava/lang/String;</title>
<path fill="#fee2e2" stroke="#dc2626" d="M294.5,-36.63C294.5,-36.63 82.5,-36.63 82.5,-36.63 76.5,-36.63 70.5,-30.63 70.5,-24.63 70.5,-24.63 70.5,-12.63 70.5,-12.63 70.5,-6.63 76.5,-0.63 82.5,-0.63 82.5,-0.63 294.5,-0.63 294.5,-0.63 300.5,-0.63 306.5,-6.63 306.5,-12.63 306.5,-12.63 306.5,-24.63 306.5,-24.63 306.5,-30.63 300.5,-36.63 294.5,-36.63"/>
<text text-anchor="middle" x="188.5" y="-15.83" font-family="Helvetica,sans-Serif" font-size="11.00">BroadcastSkipPolicy.shouldSkipMessage</text>
</g>
<!-- m::com.android.server.am.BroadcastSkipPolicy.shouldSkipMessage:(Lcom/android/server/am/BroadcastRecord;Landroid/content/pm/ResolveInfo;Z)Ljava/lang/String;&#45;&gt;__field__ -->
<g id="edge17" class="edge">
<title>m::com.android.server.am.BroadcastSkipPolicy.shouldSkipMessage:(Lcom/android/server/am/BroadcastRecord;Landroid/content/pm/ResolveInfo;Z)Ljava/lang/String;&#45;&gt;__field__</title>
<path fill="none" stroke="#dc2626" d="M306.18,-0.63C365.46,1.89 434.91,-6.2 483,-46.63 536.76,-91.83 570.82,-313.62 581.16,-390.41"/>
<polygon fill="#dc2626" stroke="#dc2626" points="578.42,-391.06 582.25,-398.62 583.97,-390.32 578.42,-391.06"/>
<text text-anchor="middle" x="441" y="-49.43" font-family="Helvetica,sans-Serif" font-size="9.00" fill="#dc2626"> reads unguarded</text>
</g>
</g>
</svg>
