<?xml version="1.0" encoding="UTF-8" standalone="no"?>
<!DOCTYPE svg PUBLIC "-//W3C//DTD SVG 1.1//EN"
 "http://www.w3.org/Graphics/SVG/1.1/DTD/svg11.dtd">
<!-- Generated by graphviz version 2.43.0 (0)
 -->
<!-- Title: race Pages: 1 -->
<svg width="746pt" height="348pt"
 viewBox="0.00 0.00 746.00 347.91" xmlns="http://www.w3.org/2000/svg" xmlns:xlink="http://www.w3.org/1999/xlink">
<g id="graph0" class="graph" transform="scale(1 1) rotate(0) translate(4 343.91)">
<title>race</title>
<polygon fill="white" stroke="transparent" points="-4,4 -4,-343.91 742,-343.91 742,4 -4,4"/>
<!-- __field__ -->
<g id="node1" class="node">
<title>__field__</title>
<path fill="#fef9c3" stroke="#ca8a04" stroke-width="2" d="M726,-153.91C726,-153.91 463,-153.91 463,-153.91 457,-153.91 451,-147.91 451,-141.91 451,-141.91 451,-129.91 451,-129.91 451,-123.91 457,-117.91 463,-117.91 463,-117.91 726,-117.91 726,-117.91 732,-117.91 738,-123.91 738,-129.91 738,-129.91 738,-141.91 738,-141.91 738,-147.91 732,-153.91 726,-153.91"/>
<text text-anchor="middle" x="594.5" y="-133.11" font-family="Helvetica,sans-Serif" font-size="11.00">PreferencesHelper$PackagePreferences.delegate</text>
</g>
<!-- __guard__ -->
<g id="node2" class="node">
<title>__guard__</title>
<path fill="#dcfce7" stroke="#16a34a" stroke-width="2" d="M227.5,-339.91C227.5,-339.91 95.5,-339.91 95.5,-339.91 89.5,-339.91 83.5,-333.91 83.5,-327.91 83.5,-327.91 83.5,-315.91 83.5,-315.91 83.5,-309.91 89.5,-303.91 95.5,-303.91 95.5,-303.91 227.5,-303.91 227.5,-303.91 233.5,-303.91 239.5,-309.91 239.5,-315.91 239.5,-315.91 239.5,-327.91 239.5,-327.91 239.5,-333.91 233.5,-339.91 227.5,-339.91"/>
<text text-anchor="middle" x="161.5" y="-319.11" font-family="Helvetica,sans-Serif" font-size="11.00">PreferencesHelper.mLock</text>
</g>
<!-- __guard__&#45;&gt;__field__ -->
<g id="edge1" class="edge">
<title>__guard__&#45;&gt;__field__</title>
<path fill="none" stroke="#16a34a" stroke-width="1.6" d="M239.84,-312.14C266.55,-307.67 296.44,-301.41 323,-292.91 418.13,-262.46 516.22,-194.71 563.89,-158.98"/>
<polygon fill="#16a34a" stroke="#16a34a" stroke-width="1.6" points="565.85,-161.01 570.55,-153.95 562.48,-156.54 565.85,-161.01"/>
<text text-anchor="middle" x="387" y="-286.71" font-family="Helvetica,sans-Serif" font-size="9.00" fill="#15803d"> guards 2/3</text>
</g>
<!-- m::com.android.server.notification.PreferencesHelper.restorePackageLocked:(Lcom/android/modules/utils/TypedXmlPullParser;ZILjava/lang/String;ZZ)V -->
<g id="node3" class="node">
<title>m::com.android.server.notification.PreferencesHelper.restorePackageLocked:(Lcom/android/modules/utils/TypedXmlPullParser;ZILjava/lang/String;ZZ)V</title>
<path fill="#fee2e2" stroke="#dc2626" d="M271.5,-281.91C271.5,-281.91 51.5,-281.91 51.5,-281.91 45.5,-281.91 39.5,-275.91 39.5,-269.91 39.5,-269.91 39.5,-257.91 39.5,-257.91 39.5,-251.91 45.5,-245.91 51.5,-245.91 51.5,-245.91 271.5,-245.91 271.5,-245.91 277.5,-245.91 283.5,-251.91 283.5,-257.91 283.5,-257.91 283.5,-269.91 283.5,-269.91 283.5,-275.91 277.5,-281.91 271.5,-281.91"/>
<text text-anchor="middle" x="161.5" y="-261.11" font-family="Helvetica,sans-Serif" font-size="11.00">PreferencesHelper.restorePackageLocked</text>
</g>
<!-- m::com.android.server.notification.PreferencesHelper.restorePackageLocked:(Lcom/android/modules/utils/TypedXmlPullParser;ZILjava/lang/String;ZZ)V&#45;&gt;__field__ -->
<g id="edge2" class="edge">
<title>m::com.android.server.notification.PreferencesHelper.restorePackageLocked:(Lcom/android/modules/utils/TypedXmlPullParser;ZILjava/lang/String;ZZ)V&#45;&gt;__field__</title>
<path fill="none" stroke="#dc2626" d="M276.16,-245.89C291.99,-242.65 307.97,-238.99 323,-234.91 401.66,-213.58 489.81,-179.28 543.47,-157.18"/>
<polygon fill="#dc2626" stroke="#dc2626" points="544.81,-159.65 551.14,-154 542.67,-154.48 544.81,-159.65"/>
<text text-anchor="middle" x="387" y="-230.71" font-family="Helvetica,sans-Serif" font-size="9.00" fill="#dc2626"> writes unguarded</text>
</g>
<!-- m::com.android.server.notification.PreferencesHelper$PackagePreferences.isValidDelegate:(Ljava/lang/String;I)Z -->
<g id="node4" class="node">
<title>m::com.android.server.notification.PreferencesHelper$PackagePreferences.isValidDelegate:(Ljava/lang/String;I)Z</title>
<path fill="#fee2e2" stroke="#dc2626" d="M311,-223.91C311,-223.91 12,-223.91 12,-223.91 6,-223.91 0,-217.91 0,-211.91 0,-211.91 0,-199.91 0,-199.91 0,-193.91 6,-187.91 12,-187.91 12,-187.91 311,-187.91 311,-187.91 317,-187.91 323,-193.91 323,-199.91 323,-199.91 323,-211.91 323,-211.91 323,-217.91 317,-223.91 311,-223.91"/>
<text text-anchor="middle" x="161.5" y="-203.11" font-family="Helvetica,sans-Serif" font-size="11.00">PreferencesHelper$PackagePreferences.isValidDelegate</text>
</g>
<!-- m::com.android.server.notification.PreferencesHelper$PackagePreferences.isValidDelegate:(Ljava/lang/String;I)Z&#45;&gt;__field__ -->
<g id="edge3" class="edge">
<title>m::com.android.server.notification.PreferencesHelper$PackagePreferences.isValidDelegate:(Ljava/lang/String;I)Z&#45;&gt;__field__</title>
<path fill="none" stroke="#dc2626" d="M274.67,-187.88C322.27,-180.21 378.35,-171.15 429,-162.91 444.08,-160.46 459.94,-157.87 475.61,-155.3"/>
<polygon fill="#dc2626" stroke="#dc2626" points="476.34,-158.02 483.78,-153.96 475.44,-152.49 476.34,-158.02"/>
<text text-anchor="middle" x="387" y="-178.71" font-family="Helvetica,sans-Serif" font-size="9.00" fill="#dc2626"> reads unguarded</text>
</g>
<!-- m::com.android.server.notification.PreferencesHelper.dumpPackagePreferencesLocked:(Ljava/io/PrintWriter;Ljava/lang/String;Lcom/android/server/notification/NotificationManagerService$DumpFilter;Landroid/util/ArrayMap;Landroid/util/ArrayMap;)V -->
<g id="node5" class="node">
<title>m::com.android.server.notification.PreferencesHelper.dumpPackagePreferencesLocked:(Ljava/io/PrintWriter;Ljava/lang/String;Lcom/android/server/notification/NotificationManagerService$DumpFilter;Landroid/util/ArrayMap;Landroid/util/ArrayMap;)V</title>
<path fill="#fee2e2" stroke="#dc2626" d="M299.5,-161.91C299.5,-161.91 23.5,-161.91 23.5,-161.91 17.5,-161.91 11.5,-155.91 11.5,-149.91 11.5,-149.91 11.5,-137.91 11.5,-137.91 11.5,-131.91 17.5,-125.91 23.5,-125.91 23.5,-125.91 299.5,-125.91 299.5,-125.91 305.5,-125.91 311.5,-131.91 311.5,-137.91 311.5,-137.91 311.5,-149.91 311.5,-149.91 311.5,-155.91 305.5,-161.91 299.5,-161.91"/>
<text text-anchor="middle" x="161.5" y="-141.11" font-family="Helvetica,sans-Serif" font-size="11.00">PreferencesHelper.dumpPackagePreferencesLocked</text>
</g>
<!-- m::com.android.server.notification.PreferencesHelper.dumpPackagePreferencesLocked:(Ljava/io/PrintWriter;Ljava/lang/String;Lcom/android/server/notification/NotificationManagerService$DumpFilter;Landroid/util/ArrayMap;Landroid/util/ArrayMap;)V&#45;&gt;__field__ -->
<g id="edge4" class="edge">
<title>m::com.android.server.notification.PreferencesHelper.dumpPackagePreferencesLocked:(Ljava/io/PrintWriter;Ljava/lang/String;Lcom/android/server/notification/NotificationManagerService$DumpFilter;Landroid/util/ArrayMap;Landroid/util/ArrayMap;)V&#45;&gt;__field__</title>
<path fill="none" stroke="#dc2626" d="M311.58,-147.94C349.86,-148.33 390.96,-148.18 429,-146.91 433.47,-146.76 438.01,-146.59 442.59,-146.4"/>
<polygon fill="#dc2626" stroke="#dc2626" points="443,-149.18 450.87,-146.03 442.75,-143.59 443,-149.18"/>
<text text-anchor="middle" x="387" y="-150.71" font-family="Helvetica,sans-Serif" font-size="9.00" fill="#dc2626"> reads unguarded</text>
</g>
<!-- m::com.android.server.notification.PreferencesHelper.dumpPackagePreferencesLocked:(Ljava/io/PrintWriter;Ljava/lang/String;Lcom/android/server/notification/NotificationManagerService$DumpFilter;Landroid/util/ArrayMap;Landroid/util/ArrayMap;)V&#45;&gt;__field__ -->
<g id="edge5" class="edge">
<title>m::com.android.server.notification.PreferencesHelper.dumpPackagePreferencesLocked:(Ljava/io/PrintWriter;Ljava/lang/String;Lcom/android/server/notification/NotificationManagerService$DumpFilter;Landroid/util/ArrayMap;Landroid/util/ArrayMap;)V&#45;&gt;__field__</title>
<path fill="none" stroke="#dc2626" d="M311.88,-136.83C323.08,-136.46 334.22,-136.15 345,-135.91 376.61,-135.22 410.49,-134.92 442.75,-134.85"/>
<polygon fill="#dc2626" stroke="#dc2626" points="442.91,-137.65 450.91,-134.84 442.91,-132.05 442.91,-137.65"/>
<text text-anchor="middle" x="387" y="-138.71" font-family="Helvetica,sans-Serif" font-size="9.00" fill="#dc2626"> reads unguarded</text>
</g>
<!-- m::com.android.server.notification.PreferencesHelper.writePackageXml:(Lcom/android/server/notification/PreferencesHelper$PackagePreferences;Lcom/android/modules/utils/TypedXmlSerializer;Landroid/util/ArrayMap;Z)V -->
<g id="node6" class="node">
<title>m::com.android.server.notification.PreferencesHelper.writePackageXml:(Lcom/android/server/notification/PreferencesHelper$PackagePreferences;Lcom/android/modules/utils/TypedXmlSerializer;Landroid/util/ArrayMap;Z)V</title>
<path fill="#fee2e2" stroke="#dc2626" d="M257,-61.91C257,-61.91 66,-61.91 66,-61.91 60,-61.91 54,-55.91 54,-49.91 54,-49.91 54,-37.91 54,-37.91 54,-31.91 60,-25.91 66,-25.91 66,-25.91 257,-25.91 257,-25.91 263,-25.91 269,-31.91 269,-37.91 269,-37.91 269,-49.91 269,-49.91 269,-55.91 263,-61.91 257,-61.91"/>
<text text-anchor="middle" x="161.5" y="-41.11" font-family="Helvetica,sans-Serif" font-size="11.00">PreferencesHelper.writePackageXml</text>
</g>
<!-- m::com.android.server.notification.PreferencesHelper.writePackageXml:(Lcom/android/server/notification/PreferencesHelper$PackagePreferences;Lcom/android/modules/utils/TypedXmlSerializer;Landroid/util/ArrayMap;Z)V&#45;&gt;__field__ -->
<g id="edge6" class="edge">
<title>m::com.android.server.notification.PreferencesHelper.writePackageXml:(Lcom/android/server/notification/PreferencesHelper$PackagePreferences;Lcom/android/modules/utils/TypedXmlSerializer;Landroid/util/ArrayMap;Z)V&#45;&gt;__field__</title>
<path fill="none" stroke="#dc2626" d="M246.88,-61.92C319.94,-77.52 425.45,-100.04 500.84,-116.13"/>
<polygon fill="#dc2626" stroke="#dc2626" points="500.55,-118.93 508.95,-117.86 501.72,-113.46 500.55,-118.93"/>
<text text-anchor="middle" x="387" y="-100.71" font-family="Helvetica,sans-Serif" font-size="9.00" fill="#dc2626"> reads unguarded</text>
</g>
<!-- m::com.android.server.notification.PreferencesHelper.writePackageXml:(Lcom/android/server/notification/PreferencesHelper$PackagePreferences;Lcom/android/modules/utils/TypedXmlSerializer;Landroid/util/ArrayMap;Z)V&#45;&gt;__field__ -->
<g id="edge7" class="edge">
<title>m::com.android.server.notification.PreferencesHelper.writePackageXml:(Lcom/android/server/notification/PreferencesHelper$PackagePreferences;Lcom/android/modules/utils/TypedXmlSerializer;Landroid/util/ArrayMap;Z)V&#45;&gt;__field__</title>
<path fill="none" stroke="#dc2626" d="M269.06,-46.76C318.3,-49.89 377.21,-56.23 429,-68.91 471.7,-79.37 517.86,-98.96 550.38,-114.27"/>
<polygon fill="#dc2626" stroke="#dc2626" points="549.51,-116.95 557.93,-117.86 551.91,-111.89 549.51,-116.95"/>
<text text-anchor="middle" x="387" y="-71.71" font-family="Helvetica,sans-Serif" font-size="9.00" fill="#dc2626"> reads unguarded</text>
</g>
<!-- m::com.android.server.notification.PreferencesHelper.writePackageXml:(Lcom/android/server/notification/PreferencesHelper$PackagePreferences;Lcom/android/modules/utils/TypedXmlSerializer;Landroid/util/ArrayMap;Z)V&#45;&gt;__field__ -->
<g id="edge8" class="edge">
<title>m::com.android.server.notification.PreferencesHelper.writePackageXml:(Lcom/android/server/notification/PreferencesHelper$PackagePreferences;Lcom/android/modules/utils/TypedXmlSerializer;Landroid/util/ArrayMap;Z)V&#45;&gt;__field__</title>
<path fill="none" stroke="#dc2626" d="M269.26,-28.28C318.67,-24.49 377.66,-24.9 429,-38.91 481.19,-53.15 533.67,-88.64 564.88,-112.51"/>
<polygon fill="#dc2626" stroke="#dc2626" points="563.55,-115.02 571.58,-117.71 566.98,-110.6 563.55,-115.02"/>
<text text-anchor="middle" x="387" y="-41.71" font-family="Helvetica,sans-Serif" font-size="9.00" fill="#dc2626"> reads unguarded</text>
</g>
<!-- m::com.android.server.notification.PreferencesHelper.writePackageXml:(Lcom/android/server/notification/PreferencesHelper$PackagePreferences;Lcom/android/modules/utils/TypedXmlSerializer;Landroid/util/ArrayMap;Z)V&#45;&gt;__field__ -->
<g id="edge9" class="edge">
<title>m::com.android.server.notification.PreferencesHelper.writePackageXml:(Lcom/android/server/notification/PreferencesHelper$PackagePreferences;Lcom/android/modules/utils/TypedXmlSerializer;Landroid/util/ArrayMap;Z)V&#45;&gt;__field__</title>
<path fill="none" stroke="#dc2626" d="M210.47,-25.88C264.82,-8.23 355.42,12.71 429,-11.91 487.89,-31.62 542.58,-81.65 571.67,-111.79"/>
<polygon fill="#dc2626" stroke="#dc2626" points="569.94,-114.03 577.48,-117.9 574,-110.18 569.94,-114.03"/>
<text text-anchor="middle" x="387" y="-14.71" font-family="Helvetica,sans-Serif" font-size="9.00" fill="#dc2626"> reads unguarded</text>
</g>
</g>
</svg>
