<?xml version="1.0" encoding="UTF-8" standalone="no"?>
<!DOCTYPE svg PUBLIC "-//W3C//DTD SVG 1.1//EN"
 "http://www.w3.org/Graphics/SVG/1.1/DTD/svg11.dtd">
<!-- Generated by graphviz version 2.43.0 (0)
 -->
<!-- Title: race Pages: 1 -->
<svg width="505pt" height="160pt"
 viewBox="0.00 0.00 505.00 160.00" xmlns="http://www.w3.org/2000/svg" xmlns:xlink="http://www.w3.org/1999/xlink">
<g id="graph0" class="graph" transform="scale(1 1) rotate(0) translate(4 156)">
<title>race</title>
<polygon fill="white" stroke="transparent" points="-4,4 -4,-156 501,-156 501,4 -4,4"/>
<!-- __field__ -->
<g id="node1" class="node">
<title>__field__</title>
<path fill="#fef9c3" stroke="#ca8a04" stroke-width="2" d="M485,-94C485,-94 328,-94 328,-94 322,-94 316,-88 316,-82 316,-82 316,-70 316,-70 316,-64 322,-58 328,-58 328,-58 485,-58 485,-58 491,-58 497,-64 497,-70 497,-70 497,-82 497,-82 497,-88 491,-94 485,-94"/>
<text text-anchor="middle" x="406.5" y="-73.2" font-family="Helvetica,sans-Serif" font-size="11.00">AudioService.mVibrateSetting</text>
</g>
<!-- __guard__ -->
<g id="node2" class="node">
<title>__guard__</title>
<path fill="#dcfce7" stroke="#16a34a" stroke-width="2" d="M168,-152C168,-152 20,-152 20,-152 14,-152 8,-146 8,-140 8,-140 8,-128 8,-128 8,-122 14,-116 20,-116 20,-116 168,-116 168,-116 174,-116 180,-122 180,-128 180,-128 180,-140 180,-140 180,-146 174,-152 168,-152"/>
<text text-anchor="middle" x="94" y="-131.2" font-family="Helvetica,sans-Serif" font-size="11.00">AudioService.mSettingsLock</text>
</g>
<!-- __guard__&#45;&gt;__field__ -->
<g id="edge1" class="edge">
<title>__guard__&#45;&gt;__field__</title>
<path fill="none" stroke="#16a34a" stroke-width="1.6" d="M180.26,-118.07C219.73,-110.7 266.83,-101.9 307.73,-94.26"/>
<polygon fill="#16a34a" stroke="#16a34a" stroke-width="1.6" points="308.48,-96.97 315.83,-92.75 307.45,-91.47 308.48,-96.97"/>
<text text-anchor="middle" x="252" y="-113.8" font-family="Helvetica,sans-Serif" font-size="9.00" fill="#15803d"> guards 2/3</text>
</g>
<!-- m::com.android.server.audio.AudioService.setVibrateSetting:(II)V -->
<g id="node3" class="node">
<title>m::com.android.server.audio.AudioService.setVibrateSetting:(II)V</title>
<path fill="#fee2e2" stroke="#dc2626" d="M176,-94C176,-94 12,-94 12,-94 6,-94 0,-88 0,-82 0,-82 0,-70 0,-70 0,-64 6,-58 12,-58 12,-58 176,-58 176,-58 182,-58 188,-64 188,-70 188,-70 188,-82 188,-82 188,-88 182,-94 176,-94"/>
<text text-anchor="middle" x="94" y="-73.2" font-family="Helvetica,sans-Serif" font-size="11.00">AudioService.setVibrateSetting</text>
</g>
<!-- m::com.android.server.audio.AudioService.setVibrateSetting:(II)V&#45;&gt;__field__ -->
<g id="edge2" class="edge">
<title>m::com.android.server.audio.AudioService.setVibrateSetting:(II)V&#45;&gt;__field__</title>
<path fill="none" stroke="#dc2626" d="M188.16,-76C225.93,-76 269.58,-76 307.8,-76"/>
<polygon fill="#dc2626" stroke="#dc2626" points="307.87,-78.8 315.87,-76 307.87,-73.2 307.87,-78.8"/>
<text text-anchor="middle" x="252" y="-78.8" font-family="Helvetica,sans-Serif" font-size="9.00" fill="#dc2626"> writes unguarded</text>
</g>
<!-- m::com.android.server.audio.AudioService.setVibrateSetting:(II)V&#45;&gt;__field__ -->
<g id="edge4" class="edge">
<title>m::com.android.server.audio.AudioService.setVibrateSetting:(II)V&#45;&gt;__field__</title>
<path fill="none" stroke="#dc2626" d="M188.1,-62.82C195.5,-62.09 202.87,-61.46 210,-61 247.25,-58.58 256.75,-58.51 294,-61 298.45,-61.3 302.98,-61.66 307.56,-62.08"/>
<polygon fill="#dc2626" stroke="#dc2626" points="307.61,-64.89 315.84,-62.88 308.15,-59.32 307.61,-64.89"/>
<text text-anchor="middle" x="252" y="-63.8" font-family="Helvetica,sans-Serif" font-size="9.00" fill="#dc2626"> reads unguarded</text>
</g>
<!-- m::com.android.server.audio.AudioService.getVibrateSetting:(I)I -->
<g id="node4" class="node">
<title>m::com.android.server.audio.AudioService.getVibrateSetting:(I)I</title>
<path fill="#fee2e2" stroke="#dc2626" d="M176,-36C176,-36 12,-36 12,-36 6,-36 0,-30 0,-24 0,-24 0,-12 0,-12 0,-6 6,0 12,0 12,0 176,0 176,0 182,0 188,-6 188,-12 188,-12 188,-24 188,-24 188,-30 182,-36 176,-36"/>
<text text-anchor="middle" x="94" y="-15.2" font-family="Helvetica,sans-Serif" font-size="11.00">AudioService.getVibrateSetting</text>
</g>
<!-- m::com.android.server.audio.AudioService.getVibrateSetting:(I)I&#45;&gt;__field__ -->
<g id="edge3" class="edge">
<title>m::com.android.server.audio.AudioService.getVibrateSetting:(I)I&#45;&gt;__field__</title>
<path fill="none" stroke="#dc2626" d="M188.12,-27.25C221.68,-31.35 259.71,-36.88 294,-44 309.36,-47.19 325.71,-51.4 341,-55.72"/>
<polygon fill="#dc2626" stroke="#dc2626" points="340.44,-58.47 348.9,-57.98 341.98,-53.09 340.44,-58.47"/>
<text text-anchor="middle" x="252" y="-46.8" font-family="Helvetica,sans-Serif" font-size="9.00" fill="#dc2626"> reads unguarded</text>
</g>
</g>
</svg>
