<?xml version="1.0" encoding="UTF-8" standalone="no"?>
<!DOCTYPE svg PUBLIC "-//W3C//DTD SVG 1.1//EN"
 "http://www.w3.org/Graphics/SVG/1.1/DTD/svg11.dtd">
<!-- Generated by graphviz version 2.43.0 (0)
 -->
<!-- Title: race Pages: 1 -->
<svg width="671pt" height="637pt"
 viewBox="0.00 0.00 671.00 637.13" xmlns="http://www.w3.org/2000/svg" xmlns:xlink="http://www.w3.org/1999/xlink">
<g id="graph0" class="graph" transform="scale(1 1) rotate(0) translate(4 633.13)">
<title>race</title>
<polygon fill="white" stroke="transparent" points="-4,4 -4,-633.13 667,-633.13 667,4 -4,4"/>
<!-- __field__ -->
<g id="node1" class="node">
<title>__field__</title>
<path fill="#fef9c3" stroke="#ca8a04" stroke-width="2" d="M651,-333.13C651,-333.13 496,-333.13 496,-333.13 490,-333.13 484,-327.13 484,-321.13 484,-321.13 484,-309.13 484,-309.13 484,-303.13 490,-297.13 496,-297.13 496,-297.13 651,-297.13 651,-297.13 657,-297.13 663,-303.13 663,-309.13 663,-309.13 663,-321.13 663,-321.13 663,-327.13 657,-333.13 651,-333.13"/>
<text text-anchor="middle" x="573.5" y="-312.33" font-family="Helvetica,sans-Serif" font-size="11.00">PowerManagerService.mDirty</text>
</g>
<!-- __guard__ -->
<g id="node2" class="node">
<title>__guard__</title>
<path fill="#dcfce7" stroke="#16a34a" stroke-width="2" d="M254.5,-629.13C254.5,-629.13 101.5,-629.13 101.5,-629.13 95.5,-629.13 89.5,-623.13 89.5,-617.13 89.5,-617.13 89.5,-605.13 89.5,-605.13 89.5,-599.13 95.5,-593.13 101.5,-593.13 101.5,-593.13 254.5,-593.13 254.5,-593.13 260.5,-593.13 266.5,-599.13 266.5,-605.13 266.5,-605.13 266.5,-617.13 266.5,-617.13 266.5,-623.13 260.5,-629.13 254.5,-629.13"/>
<text text-anchor="middle" x="178" y="-608.33" font-family="Helvetica,sans-Serif" font-size="11.00">PowerManagerService.mLock</text>
</g>
<!-- __guard__&#45;&gt;__field__ -->
<g id="edge1" class="edge">
<title>__guard__&#45;&gt;__field__</title>
<path fill="none" stroke="#16a34a" stroke-width="1.6" d="M266.58,-622.19C327.22,-625.08 406.66,-618.82 462,-577.13 539.66,-518.63 563.23,-395.06 569.97,-341.17"/>
<polygon fill="#16a34a" stroke="#16a34a" stroke-width="1.6" points="572.76,-341.42 570.91,-333.14 567.2,-340.76 572.76,-341.42"/>
<text text-anchor="middle" x="420" y="-615.93" font-family="Helvetica,sans-Serif" font-size="9.00" fill="#15803d"> guards 21/30</text>
</g>
<!-- m::com.android.server.power.PowerManagerService.updateIsPoweredLocked:(I)V -->
<g id="node3" class="node">
<title>m::com.android.server.power.PowerManagerService.updateIsPoweredLocked:(I)V</title>
<path fill="#fee2e2" stroke="#dc2626" d="M303,-563.13C303,-563.13 53,-563.13 53,-563.13 47,-563.13 41,-557.13 41,-551.13 41,-551.13 41,-539.13 41,-539.13 41,-533.13 47,-527.13 53,-527.13 53,-527.13 303,-527.13 303,-527.13 309,-527.13 315,-533.13 315,-539.13 315,-539.13 315,-551.13 315,-551.13 315,-557.13 309,-563.13 303,-563.13"/>
<text text-anchor="middle" x="178" y="-542.33" font-family="Helvetica,sans-Serif" font-size="11.00">PowerManagerService.updateIsPoweredLocked</text>
</g>
<!-- m::com.android.server.power.PowerManagerService.updateIsPoweredLocked:(I)V&#45;&gt;__field__ -->
<g id="edge2" class="edge">
<title>m::com.android.server.power.PowerManagerService.updateIsPoweredLocked:(I)V&#45;&gt;__field__</title>
<path fill="none" stroke="#dc2626" d="M315.31,-560.29C375.2,-564.2 437.45,-563.66 462,-548.13 535.32,-501.76 560.96,-392.08 569.09,-341.51"/>
<polygon fill="#dc2626" stroke="#dc2626" points="571.89,-341.68 570.33,-333.35 566.35,-340.84 571.89,-341.68"/>
<text text-anchor="middle" x="420" y="-564.93" font-family="Helvetica,sans-Serif" font-size="9.00" fill="#dc2626"> writes unguarded</text>
</g>
<!-- m::com.android.server.power.PowerManagerService.updateIsPoweredLocked:(I)V&#45;&gt;__field__ -->
<g id="edge11" class="edge">
<title>m::com.android.server.power.PowerManagerService.updateIsPoweredLocked:(I)V&#45;&gt;__field__</title>
<path fill="none" stroke="#dc2626" d="M315.12,-540.33C375.16,-535.9 437.61,-527.41 462,-511.13 522.9,-470.49 553.85,-384.3 566.07,-341.04"/>
<polygon fill="#dc2626" stroke="#dc2626" points="568.79,-341.69 568.2,-333.24 563.39,-340.22 568.79,-341.69"/>
<text text-anchor="middle" x="420" y="-534.93" font-family="Helvetica,sans-Serif" font-size="9.00" fill="#dc2626"> reads unguarded</text>
</g>
<!-- m::com.android.server.power.PowerManagerService.updatePowerGroupsLocked:(I)Z -->
<g id="node4" class="node">
<title>m::com.android.server.power.PowerManagerService.updatePowerGroupsLocked:(I)Z</title>
<path fill="#fee2e2" stroke="#dc2626" d="M311,-489.13C311,-489.13 45,-489.13 45,-489.13 39,-489.13 33,-483.13 33,-477.13 33,-477.13 33,-465.13 33,-465.13 33,-459.13 39,-453.13 45,-453.13 45,-453.13 311,-453.13 311,-453.13 317,-453.13 323,-459.13 323,-465.13 323,-465.13 323,-477.13 323,-477.13 323,-483.13 317,-489.13 311,-489.13"/>
<text text-anchor="middle" x="178" y="-468.33" font-family="Helvetica,sans-Serif" font-size="11.00">PowerManagerService.updatePowerGroupsLocked</text>
</g>
<!-- m::com.android.server.power.PowerManagerService.updatePowerGroupsLocked:(I)Z&#45;&gt;__field__ -->
<g id="edge3" class="edge">
<title>m::com.android.server.power.PowerManagerService.updatePowerGroupsLocked:(I)Z&#45;&gt;__field__</title>
<path fill="none" stroke="#dc2626" d="M247.51,-489.17C307.59,-501.11 395.49,-508.91 462,-474.13 515.73,-446.04 548.6,-378.61 563.33,-341.22"/>
<polygon fill="#dc2626" stroke="#dc2626" points="566.13,-341.75 566.36,-333.28 560.89,-339.75 566.13,-341.75"/>
<text text-anchor="middle" x="420" y="-499.93" font-family="Helvetica,sans-Serif" font-size="9.00" fill="#dc2626"> writes unguarded</text>
</g>
<!-- m::com.android.server.power.PowerManagerService.updatePowerGroupsLocked:(I)Z&#45;&gt;__field__ -->
<g id="edge12" class="edge">
<title>m::com.android.server.power.PowerManagerService.updatePowerGroupsLocked:(I)Z&#45;&gt;__field__</title>
<path fill="none" stroke="#dc2626" d="M323.27,-464.35C369.49,-457.77 419.63,-445.74 462,-424.13 501.22,-404.13 535.39,-365.26 554.98,-339.75"/>
<polygon fill="#dc2626" stroke="#dc2626" points="557.3,-341.33 559.88,-333.25 552.83,-337.96 557.3,-341.33"/>
<text text-anchor="middle" x="420" y="-455.93" font-family="Helvetica,sans-Serif" font-size="9.00" fill="#dc2626"> reads unguarded</text>
</g>
<!-- m::com.android.server.power.PowerManagerService.updatePowerStateLocked:()V -->
<g id="node5" class="node">
<title>m::com.android.server.power.PowerManagerService.updatePowerStateLocked:()V</title>
<path fill="#fee2e2" stroke="#dc2626" d="M306.5,-352.13C306.5,-352.13 49.5,-352.13 49.5,-352.13 43.5,-352.13 37.5,-346.13 37.5,-340.13 37.5,-340.13 37.5,-328.13 37.5,-328.13 37.5,-322.13 43.5,-316.13 49.5,-316.13 49.5,-316.13 306.5,-316.13 306.5,-316.13 312.5,-316.13 318.5,-322.13 318.5,-328.13 318.5,-328.13 318.5,-340.13 318.5,-340.13 318.5,-346.13 312.5,-352.13 306.5,-352.13"/>
<text text-anchor="middle" x="178" y="-331.33" font-family="Helvetica,sans-Serif" font-size="11.00">PowerManagerService.updatePowerStateLocked</text>
</g>
<!-- m::com.android.server.power.PowerManagerService.updatePowerStateLocked:()V&#45;&gt;__field__ -->
<g id="edge4" class="edge">
<title>m::com.android.server.power.PowerManagerService.updatePowerStateLocked:()V&#45;&gt;__field__</title>
<path fill="none" stroke="#dc2626" d="M209.71,-352.32C262.26,-381.03 372.44,-430.59 462,-400.13 497.25,-388.14 530.03,-359.88 550.58,-339.22"/>
<polygon fill="#dc2626" stroke="#dc2626" points="552.73,-341.03 556.31,-333.35 548.72,-337.12 552.73,-341.03"/>
<text text-anchor="middle" x="420" y="-411.93" font-family="Helvetica,sans-Serif" font-size="9.00" fill="#dc2626"> writes unguarded</text>
</g>
<!-- m::com.android.server.power.PowerManagerService.updatePowerStateLocked:()V&#45;&gt;__field__ -->
<g id="edge13" class="edge">
<title>m::com.android.server.power.PowerManagerService.updatePowerStateLocked:()V&#45;&gt;__field__</title>
<path fill="none" stroke="#dc2626" d="M244.78,-352.17C302.51,-365.32 388.5,-378.41 462,-363.13 486.62,-358.02 512.49,-347.12 533,-337"/>
<polygon fill="#dc2626" stroke="#dc2626" points="534.42,-339.42 540.31,-333.32 531.9,-334.42 534.42,-339.42"/>
<text text-anchor="middle" x="420" y="-371.93" font-family="Helvetica,sans-Serif" font-size="9.00" fill="#dc2626"> reads unguarded</text>
</g>
<!-- m::com.android.server.power.PowerManagerService.updatePowerStateLocked:()V&#45;&gt;__field__ -->
<g id="edge14" class="edge">
<title>m::com.android.server.power.PowerManagerService.updatePowerStateLocked:()V&#45;&gt;__field__</title>
<path fill="none" stroke="#dc2626" d="M318.72,-332.15C364.41,-330.98 415.4,-329.11 462,-326.13 466.45,-325.85 471,-325.53 475.59,-325.17"/>
<polygon fill="#dc2626" stroke="#dc2626" points="476.13,-327.94 483.89,-324.51 475.69,-322.36 476.13,-327.94"/>
<text text-anchor="middle" x="420" y="-331.93" font-family="Helvetica,sans-Serif" font-size="9.00" fill="#dc2626"> reads unguarded</text>
</g>
<!-- m::com.android.server.power.PowerManagerService.updatePowerStateLocked:()V&#45;&gt;__field__ -->
<g id="edge15" class="edge">
<title>m::com.android.server.power.PowerManagerService.updatePowerStateLocked:()V&#45;&gt;__field__</title>
<path fill="none" stroke="#dc2626" d="M318.59,-319.11C338.51,-317.46 358.76,-316.05 378,-315.13 409.74,-313.62 444.42,-313.22 475.59,-313.32"/>
<polygon fill="#dc2626" stroke="#dc2626" points="475.85,-316.12 483.86,-313.36 475.88,-310.52 475.85,-316.12"/>
<text text-anchor="middle" x="420" y="-317.93" font-family="Helvetica,sans-Serif" font-size="9.00" fill="#dc2626"> reads unguarded</text>
</g>
<!-- m::com.android.server.power.PowerManagerService.updatePowerStateLocked:()V&#45;&gt;__field__ -->
<g id="edge16" class="edge">
<title>m::com.android.server.power.PowerManagerService.updatePowerStateLocked:()V&#45;&gt;__field__</title>
<path fill="none" stroke="#dc2626" d="M259.88,-316.11C295.85,-308.98 338.83,-301.65 378,-298.13 415.18,-294.8 424.78,-295.29 462,-298.13 466.59,-298.48 471.27,-298.92 476,-299.41"/>
<polygon fill="#dc2626" stroke="#dc2626" points="475.72,-302.2 483.98,-300.3 476.34,-296.63 475.72,-302.2"/>
<text text-anchor="middle" x="420" y="-300.93" font-family="Helvetica,sans-Serif" font-size="9.00" fill="#dc2626"> reads unguarded</text>
</g>
<!-- m::com.android.server.power.PowerManagerService.updatePowerStateLocked:()V&#45;&gt;__field__ -->
<g id="edge17" class="edge">
<title>m::com.android.server.power.PowerManagerService.updatePowerStateLocked:()V&#45;&gt;__field__</title>
<path fill="none" stroke="#dc2626" d="M223.44,-316.08C279.03,-295.72 377.23,-267.03 462,-280.13 480.8,-283.04 500.78,-288.57 518.51,-294.39"/>
<polygon fill="#dc2626" stroke="#dc2626" points="518.01,-297.18 526.48,-297.08 519.79,-291.87 518.01,-297.18"/>
<text text-anchor="middle" x="420" y="-282.93" font-family="Helvetica,sans-Serif" font-size="9.00" fill="#dc2626"> reads unguarded</text>
</g>
<!-- m::com.android.server.power.PowerManagerService.updateStayOnLocked:(I)V -->
<g id="node6" class="node">
<title>m::com.android.server.power.PowerManagerService.updateStayOnLocked:(I)V</title>
<path fill="#fee2e2" stroke="#dc2626" d="M295.5,-233.13C295.5,-233.13 60.5,-233.13 60.5,-233.13 54.5,-233.13 48.5,-227.13 48.5,-221.13 48.5,-221.13 48.5,-209.13 48.5,-209.13 48.5,-203.13 54.5,-197.13 60.5,-197.13 60.5,-197.13 295.5,-197.13 295.5,-197.13 301.5,-197.13 307.5,-203.13 307.5,-209.13 307.5,-209.13 307.5,-221.13 307.5,-221.13 307.5,-227.13 301.5,-233.13 295.5,-233.13"/>
<text text-anchor="middle" x="178" y="-212.33" font-family="Helvetica,sans-Serif" font-size="11.00">PowerManagerService.updateStayOnLocked</text>
</g>
<!-- m::com.android.server.power.PowerManagerService.updateStayOnLocked:(I)V&#45;&gt;__field__ -->
<g id="edge5" class="edge">
<title>m::com.android.server.power.PowerManagerService.updateStayOnLocked:(I)V&#45;&gt;__field__</title>
<path fill="none" stroke="#dc2626" d="M307.65,-227.94C356.71,-234.91 412.67,-245.45 462,-261.13 487.12,-269.12 513.71,-281.96 534.51,-293.12"/>
<polygon fill="#dc2626" stroke="#dc2626" points="533.24,-295.62 541.61,-296.98 535.92,-290.7 533.24,-295.62"/>
<text text-anchor="middle" x="420" y="-263.93" font-family="Helvetica,sans-Serif" font-size="9.00" fill="#dc2626"> writes unguarded</text>
</g>
<!-- m::com.android.server.power.PowerManagerService.updateWakeLockDisabledStatesLocked:(Ljava/util/List;)V -->
<g id="node7" class="node">
<title>m::com.android.server.power.PowerManagerService.updateWakeLockDisabledStatesLocked:(Ljava/util/List;)V</title>
<path fill="#fee2e2" stroke="#dc2626" d="M344,-175.13C344,-175.13 12,-175.13 12,-175.13 6,-175.13 0,-169.13 0,-163.13 0,-163.13 0,-151.13 0,-151.13 0,-145.13 6,-139.13 12,-139.13 12,-139.13 344,-139.13 344,-139.13 350,-139.13 356,-145.13 356,-151.13 356,-151.13 356,-163.13 356,-163.13 356,-169.13 350,-175.13 344,-175.13"/>
<text text-anchor="middle" x="178" y="-154.33" font-family="Helvetica,sans-Serif" font-size="11.00">PowerManagerService.updateWakeLockDisabledStatesLocked</text>
</g>
<!-- m::com.android.server.power.PowerManagerService.updateWakeLockDisabledStatesLocked:(Ljava/util/List;)V&#45;&gt;__field__ -->
<g id="edge6" class="edge">
<title>m::com.android.server.power.PowerManagerService.updateWakeLockDisabledStatesLocked:(Ljava/util/List;)V&#45;&gt;__field__</title>
<path fill="none" stroke="#dc2626" d="M324.52,-175.19C370.57,-185.11 420.29,-200.44 462,-224.13 494.65,-242.68 527.25,-271.03 548.49,-291.15"/>
<polygon fill="#dc2626" stroke="#dc2626" points="546.72,-293.34 554.43,-296.85 550.59,-289.3 546.72,-293.34"/>
<text text-anchor="middle" x="420" y="-226.93" font-family="Helvetica,sans-Serif" font-size="9.00" fill="#dc2626"> writes unguarded</text>
</g>
<!-- m::com.android.server.power.PowerManagerService.userActivityNoUpdateLocked:(Lcom/android/server/power/PowerGroup;JIII)Z -->
<g id="node8" class="node">
<title>m::com.android.server.power.PowerManagerService.userActivityNoUpdateLocked:(Lcom/android/server/power/PowerGroup;JIII)Z</title>
<path fill="#fee2e2" stroke="#dc2626" d="M316.5,-93.13C316.5,-93.13 39.5,-93.13 39.5,-93.13 33.5,-93.13 27.5,-87.13 27.5,-81.13 27.5,-81.13 27.5,-69.13 27.5,-69.13 27.5,-63.13 33.5,-57.13 39.5,-57.13 39.5,-57.13 316.5,-57.13 316.5,-57.13 322.5,-57.13 328.5,-63.13 328.5,-69.13 328.5,-69.13 328.5,-81.13 328.5,-81.13 328.5,-87.13 322.5,-93.13 316.5,-93.13"/>
<text text-anchor="middle" x="178" y="-72.33" font-family="Helvetica,sans-Serif" font-size="11.00">PowerManagerService.userActivityNoUpdateLocked</text>
</g>
<!-- m::com.android.server.power.PowerManagerService.userActivityNoUpdateLocked:(Lcom/android/server/power/PowerGroup;JIII)Z&#45;&gt;__field__ -->
<g id="edge7" class="edge">
<title>m::com.android.server.power.PowerManagerService.userActivityNoUpdateLocked:(Lcom/android/server/power/PowerGroup;JIII)Z&#45;&gt;__field__</title>
<path fill="none" stroke="#dc2626" d="M275.95,-93.19C334.4,-107.79 407.76,-133.04 462,-175.13 503.9,-207.65 539.19,-259.32 557.97,-289.96"/>
<polygon fill="#dc2626" stroke="#dc2626" points="555.63,-291.5 562.16,-296.9 560.42,-288.61 555.63,-291.5"/>
<text text-anchor="middle" x="420" y="-177.93" font-family="Helvetica,sans-Serif" font-size="9.00" fill="#dc2626"> writes unguarded</text>
</g>
<!-- m::com.android.server.power.PowerManagerService.userActivityNoUpdateLocked:(Lcom/android/server/power/PowerGroup;JIII)Z&#45;&gt;__field__ -->
<g id="edge8" class="edge">
<title>m::com.android.server.power.PowerManagerService.userActivityNoUpdateLocked:(Lcom/android/server/power/PowerGroup;JIII)Z&#45;&gt;__field__</title>
<path fill="none" stroke="#dc2626" d="M328.68,-70.4C374.72,-75.3 423.39,-87.57 462,-114.13 523.64,-156.54 554.33,-244.97 566.29,-289.03"/>
<polygon fill="#dc2626" stroke="#dc2626" points="563.63,-289.94 568.37,-296.97 569.05,-288.52 563.63,-289.94"/>
<text text-anchor="middle" x="420" y="-116.93" font-family="Helvetica,sans-Serif" font-size="9.00" fill="#dc2626"> writes unguarded</text>
</g>
<!-- m::com.android.server.power.PowerManagerService.userActivityNoUpdateLocked:(Lcom/android/server/power/PowerGroup;JIII)Z&#45;&gt;__field__ -->
<g id="edge9" class="edge">
<title>m::com.android.server.power.PowerManagerService.userActivityNoUpdateLocked:(Lcom/android/server/power/PowerGroup;JIII)Z&#45;&gt;__field__</title>
<path fill="none" stroke="#dc2626" d="M229.64,-57.06C290.15,-38.9 391.97,-19.52 462,-65.13 539.97,-115.92 563.33,-235.58 569.99,-288.81"/>
<polygon fill="#dc2626" stroke="#dc2626" points="567.24,-289.43 570.95,-297.05 572.8,-288.78 567.24,-289.43"/>
<text text-anchor="middle" x="420" y="-67.93" font-family="Helvetica,sans-Serif" font-size="9.00" fill="#dc2626"> writes unguarded</text>
</g>
<!-- m::com.android.server.power.PowerManagerService.userActivityNoUpdateLocked:(Lcom/android/server/power/PowerGroup;JIII)Z&#45;&gt;__field__ -->
<g id="edge10" class="edge">
<title>m::com.android.server.power.PowerManagerService.userActivityNoUpdateLocked:(Lcom/android/server/power/PowerGroup;JIII)Z&#45;&gt;__field__</title>
<path fill="none" stroke="#dc2626" d="M207.99,-57.03C262.73,-25.42 382.88,31.52 462,-23.13 551.48,-84.94 568.57,-229.22 571.79,-288.74"/>
<polygon fill="#dc2626" stroke="#dc2626" points="569,-289.02 572.17,-296.88 574.59,-288.76 569,-289.02"/>
<text text-anchor="middle" x="420" y="-25.93" font-family="Helvetica,sans-Serif" font-size="9.00" fill="#dc2626"> writes unguarded</text>
</g>
</g>
</svg>
