<?xml version="1.0" encoding="UTF-8" standalone="no"?>
<!DOCTYPE svg PUBLIC "-//W3C//DTD SVG 1.1//EN"
 "http://www.w3.org/Graphics/SVG/1.1/DTD/svg11.dtd">
<!-- Generated by graphviz version 2.43.0 (0)
 -->
<!-- Title: race Pages: 1 -->
<svg width="520pt" height="110pt"
 viewBox="0.00 0.00 520.00 110.00" xmlns="http://www.w3.org/2000/svg" xmlns:xlink="http://www.w3.org/1999/xlink">
<g id="graph0" class="graph" transform="scale(1 1) rotate(0) translate(4 106)">
<title>race</title>
<polygon fill="white" stroke="transparent" points="-4,4 -4,-106 516,-106 516,4 -4,4"/>
<!-- __field__ -->
<g id="node1" class="node">
<title>__field__</title>
<path fill="#fef9c3" stroke="#ca8a04" stroke-width="2" d="M500,-65C500,-65 316,-65 316,-65 310,-65 304,-59 304,-53 304,-53 304,-41 304,-41 304,-35 310,-29 316,-29 316,-29 500,-29 500,-29 506,-29 512,-35 512,-41 512,-41 512,-53 512,-53 512,-59 506,-65 500,-65"/>
<text text-anchor="middle" x="408" y="-44.2" font-family="Helvetica,sans-Serif" font-size="11.00">ZenModeConfig$ZenRule.condition</text>
</g>
<!-- __guard__ -->
<g id="node2" class="node">
<title>__guard__</title>
<path fill="#dcfce7" stroke="#16a34a" stroke-width="2" d="M164,-102C164,-102 12,-102 12,-102 6,-102 0,-96 0,-90 0,-90 0,-78 0,-78 0,-72 6,-66 12,-66 12,-66 164,-66 164,-66 170,-66 176,-72 176,-78 176,-78 176,-90 176,-90 176,-96 170,-102 164,-102"/>
<text text-anchor="middle" x="88" y="-81.2" font-family="Helvetica,sans-Serif" font-size="11.00">ZenModeHelper.mConfigLock</text>
</g>
<!-- __guard__&#45;&gt;__field__ -->
<g id="edge1" class="edge">
<title>__guard__&#45;&gt;__field__</title>
<path fill="none" stroke="#16a34a" stroke-width="1.6" d="M176.32,-73.84C213.14,-69.56 256.44,-64.52 295.53,-59.97"/>
<polygon fill="#16a34a" stroke="#16a34a" stroke-width="1.6" points="296.18,-62.71 303.8,-59.01 295.53,-57.15 296.18,-62.71"/>
<text text-anchor="middle" x="240" y="-72.8" font-family="Helvetica,sans-Serif" font-size="9.00" fill="#15803d"> guards 9/11</text>
</g>
<!-- m::com.android.server.notification.ZenModeHelper.readXml:(Lcom/android/modules/utils/TypedXmlPullParser;ZILandroid/app/backup/BackupRestoreEventLogger;)Z -->
<g id="node3" class="node">
<title>m::com.android.server.notification.ZenModeHelper.readXml:(Lcom/android/modules/utils/TypedXmlPullParser;ZILandroid/app/backup/BackupRestoreEventLogger;)Z</title>
<path fill="#fee2e2" stroke="#dc2626" d="M152,-36C152,-36 24,-36 24,-36 18,-36 12,-30 12,-24 12,-24 12,-12 12,-12 12,-6 18,0 24,0 24,0 152,0 152,0 158,0 164,-6 164,-12 164,-12 164,-24 164,-24 164,-30 158,-36 152,-36"/>
<text text-anchor="middle" x="88" y="-15.2" font-family="Helvetica,sans-Serif" font-size="11.00">ZenModeHelper.readXml</text>
</g>
<!-- m::com.android.server.notification.ZenModeHelper.readXml:(Lcom/android/modules/utils/TypedXmlPullParser;ZILandroid/app/backup/BackupRestoreEventLogger;)Z&#45;&gt;__field__ -->
<g id="edge2" class="edge">
<title>m::com.android.server.notification.ZenModeHelper.readXml:(Lcom/android/modules/utils/TypedXmlPullParser;ZILandroid/app/backup/BackupRestoreEventLogger;)Z&#45;&gt;__field__</title>
<path fill="none" stroke="#dc2626" d="M164.36,-24.87C203.61,-28.45 252.37,-32.9 295.85,-36.86"/>
<polygon fill="#dc2626" stroke="#dc2626" points="295.69,-39.66 303.91,-37.6 296.2,-34.08 295.69,-39.66"/>
<text text-anchor="middle" x="240" y="-37.8" font-family="Helvetica,sans-Serif" font-size="9.00" fill="#dc2626"> writes unguarded</text>
</g>
<!-- m::com.android.server.notification.ZenModeHelper.readXml:(Lcom/android/modules/utils/TypedXmlPullParser;ZILandroid/app/backup/BackupRestoreEventLogger;)Z&#45;&gt;__field__ -->
<g id="edge3" class="edge">
<title>m::com.android.server.notification.ZenModeHelper.readXml:(Lcom/android/modules/utils/TypedXmlPullParser;ZILandroid/app/backup/BackupRestoreEventLogger;)Z&#45;&gt;__field__</title>
<path fill="none" stroke="#dc2626" d="M164.04,-14.11C175.41,-13.65 187.02,-13.25 198,-13 235.32,-12.14 245,-8.06 282,-13 302.86,-15.79 325.17,-21.08 345.09,-26.67"/>
<polygon fill="#dc2626" stroke="#dc2626" points="344.42,-29.39 352.88,-28.91 345.97,-24.01 344.42,-29.39"/>
<text text-anchor="middle" x="240" y="-15.8" font-family="Helvetica,sans-Serif" font-size="9.00" fill="#dc2626"> writes unguarded</text>
</g>
</g>
</svg>
