<?xml version="1.0" encoding="UTF-8" standalone="no"?>
<!DOCTYPE svg PUBLIC "-//W3C//DTD SVG 1.1//EN"
 "http://www.w3.org/Graphics/SVG/1.1/DTD/svg11.dtd">
<!-- Generated by graphviz version 2.43.0 (0)
 -->
<!-- Title: race Pages: 1 -->
<svg width="733pt" height="102pt"
 viewBox="0.00 0.00 733.00 102.00" xmlns="http://www.w3.org/2000/svg" xmlns:xlink="http://www.w3.org/1999/xlink">
<g id="graph0" class="graph" transform="scale(1 1) rotate(0) translate(4 98)">
<title>race</title>
<polygon fill="white" stroke="transparent" points="-4,4 -4,-98 729,-98 729,4 -4,4"/>
<!-- __field__ -->
<g id="node1" class="node">
<title>__field__</title>
<path fill="#fef9c3" stroke="#ca8a04" stroke-width="2" d="M713,-65C713,-65 455,-65 455,-65 449,-65 443,-59 443,-53 443,-53 443,-41 443,-41 443,-35 449,-29 455,-29 455,-29 713,-29 713,-29 719,-29 725,-35 725,-41 725,-41 725,-53 725,-53 725,-59 719,-65 713,-65"/>
<text text-anchor="middle" x="584" y="-44.2" font-family="Helvetica,sans-Serif" font-size="11.00">VirtualCameraController.mVirtualCameraService</text>
</g>
<!-- __guard__ -->
<g id="node2" class="node">
<title>__guard__</title>
<path fill="#dcfce7" stroke="#16a34a" stroke-width="2" d="M259.5,-94C259.5,-94 55.5,-94 55.5,-94 49.5,-94 43.5,-88 43.5,-82 43.5,-82 43.5,-70 43.5,-70 43.5,-64 49.5,-58 55.5,-58 55.5,-58 259.5,-58 259.5,-58 265.5,-58 271.5,-64 271.5,-70 271.5,-70 271.5,-82 271.5,-82 271.5,-88 265.5,-94 259.5,-94"/>
<text text-anchor="middle" x="157.5" y="-73.2" font-family="Helvetica,sans-Serif" font-size="11.00">VirtualCameraController.mServiceLock</text>
</g>
<!-- __guard__&#45;&gt;__field__ -->
<g id="edge1" class="edge">
<title>__guard__&#45;&gt;__field__</title>
<path fill="none" stroke="#16a34a" stroke-width="1.6" d="M271.7,-68.27C321.69,-64.85 381.14,-60.79 434.62,-57.14"/>
<polygon fill="#16a34a" stroke="#16a34a" stroke-width="1.6" points="435.02,-59.92 442.81,-56.58 434.63,-54.33 435.02,-59.92"/>
<text text-anchor="middle" x="379" y="-65.8" font-family="Helvetica,sans-Serif" font-size="9.00" fill="#15803d"> guards 2/3</text>
</g>
<!-- m::com.android.server.companion.virtual.camera.VirtualCameraController.connectVirtualCameraService:()V -->
<g id="node3" class="node">
<title>m::com.android.server.companion.virtual.camera.VirtualCameraController.connectVirtualCameraService:()V</title>
<path fill="#fee2e2" stroke="#dc2626" d="M303,-36C303,-36 12,-36 12,-36 6,-36 0,-30 0,-24 0,-24 0,-12 0,-12 0,-6 6,0 12,0 12,0 303,0 303,0 309,0 315,-6 315,-12 315,-12 315,-24 315,-24 315,-30 309,-36 303,-36"/>
<text text-anchor="middle" x="157.5" y="-15.2" font-family="Helvetica,sans-Serif" font-size="11.00">VirtualCameraController.connectVirtualCameraService</text>
</g>
<!-- m::com.android.server.companion.virtual.camera.VirtualCameraController.connectVirtualCameraService:()V&#45;&gt;__field__ -->
<g id="edge2" class="edge">
<title>m::com.android.server.companion.virtual.camera.VirtualCameraController.connectVirtualCameraService:()V&#45;&gt;__field__</title>
<path fill="none" stroke="#dc2626" d="M315.06,-28.7C354.11,-31.36 395.86,-34.22 434.5,-36.86"/>
<polygon fill="#dc2626" stroke="#dc2626" points="434.53,-39.66 442.7,-37.42 434.91,-34.08 434.53,-39.66"/>
<text text-anchor="middle" x="379" y="-37.8" font-family="Helvetica,sans-Serif" font-size="9.00" fill="#dc2626"> writes unguarded</text>
</g>
</g>
</svg>
