<?xml version="1.0" encoding="UTF-8" standalone="no"?>
<!DOCTYPE svg PUBLIC "-//W3C//DTD SVG 1.1//EN"
 "http://www.w3.org/Graphics/SVG/1.1/DTD/svg11.dtd">
<!-- Generated by graphviz version 2.43.0 (0)
 -->
<!-- Title: race Pages: 1 -->
<svg width="530pt" height="624pt"
 viewBox="0.00 0.00 530.00 624.00" xmlns="http://www.w3.org/2000/svg" xmlns:xlink="http://www.w3.org/1999/xlink">
<g id="graph0" class="graph" transform="scale(1 1) rotate(0) translate(4 620)">
<title>race</title>
<polygon fill="white" stroke="transparent" points="-4,4 -4,-620 526,-620 526,4 -4,4"/>
<!-- __field__ -->
<g id="node1" class="node">
<title>__field__</title>
<path fill="#fef9c3" stroke="#ca8a04" stroke-width="2" d="M510,-326C510,-326 433,-326 433,-326 427,-326 421,-320 421,-314 421,-314 421,-302 421,-302 421,-296 427,-290 433,-290 433,-290 510,-290 510,-290 516,-290 522,-296 522,-302 522,-302 522,-314 522,-314 522,-320 516,-326 510,-326"/>
<text text-anchor="middle" x="471.5" y="-305.2" font-family="Helvetica,sans-Serif" font-size="11.00">UserInfo.partial</text>
</g>
<!-- __guard__ -->
<g id="node2" class="node">
<title>__guard__</title>
<path fill="#dcfce7" stroke="#16a34a" stroke-width="2" d="M235,-616C235,-616 58,-616 58,-616 52,-616 46,-610 46,-604 46,-604 46,-592 46,-592 46,-586 52,-580 58,-580 58,-580 235,-580 235,-580 241,-580 247,-586 247,-592 247,-592 247,-604 247,-604 247,-610 241,-616 235,-616"/>
<text text-anchor="middle" x="146.5" y="-595.2" font-family="Helvetica,sans-Serif" font-size="11.00">UserManagerService.mUsersLock</text>
</g>
<!-- __guard__&#45;&gt;__field__ -->
<g id="edge1" class="edge">
<title>__guard__&#45;&gt;__field__</title>
<path fill="none" stroke="#16a34a" stroke-width="1.6" d="M247.31,-592.95C299.48,-585.05 360.35,-566.67 399,-525 449.68,-470.36 464.48,-379.03 468.77,-334.3"/>
<polygon fill="#16a34a" stroke="#16a34a" stroke-width="1.6" points="471.57,-334.47 469.48,-326.26 465.99,-333.98 471.57,-334.47"/>
<text text-anchor="middle" x="357" y="-578.8" font-family="Helvetica,sans-Serif" font-size="9.00" fill="#15803d"> guards 3/4</text>
</g>
<!-- m::com.android.server.pm.UserManagerService.removeUserUnchecked:(I)Z -->
<g id="node3" class="node">
<title>m::com.android.server.pm.UserManagerService.removeUserUnchecked:(I)Z</title>
<path fill="#fee2e2" stroke="#dc2626" d="M265.5,-558C265.5,-558 27.5,-558 27.5,-558 21.5,-558 15.5,-552 15.5,-546 15.5,-546 15.5,-534 15.5,-534 15.5,-528 21.5,-522 27.5,-522 27.5,-522 265.5,-522 265.5,-522 271.5,-522 277.5,-528 277.5,-534 277.5,-534 277.5,-546 277.5,-546 277.5,-552 271.5,-558 265.5,-558"/>
<text text-anchor="middle" x="146.5" y="-537.2" font-family="Helvetica,sans-Serif" font-size="11.00">UserManagerService.removeUserUnchecked</text>
</g>
<!-- m::com.android.server.pm.UserManagerService.removeUserUnchecked:(I)Z&#45;&gt;__field__ -->
<g id="edge2" class="edge">
<title>m::com.android.server.pm.UserManagerService.removeUserUnchecked:(I)Z&#45;&gt;__field__</title>
<path fill="none" stroke="#dc2626" d="M277.81,-524.39C321.19,-513.27 366.65,-494.3 399,-462 435.35,-425.71 455.34,-367.48 464.4,-333.99"/>
<polygon fill="#dc2626" stroke="#dc2626" points="467.17,-334.48 466.47,-326.04 461.75,-333.07 467.17,-334.48"/>
<text text-anchor="middle" x="357" y="-512.8" font-family="Helvetica,sans-Serif" font-size="9.00" fill="#dc2626"> writes unguarded</text>
</g>
<!-- m::com.android.server.content.SyncManager.removeStaleAccounts:()V -->
<g id="node4" class="node">
<title>m::com.android.server.content.SyncManager.removeStaleAccounts:()V</title>
<path fill="#fee2e2" stroke="#dc2626" d="M241.5,-500C241.5,-500 51.5,-500 51.5,-500 45.5,-500 39.5,-494 39.5,-488 39.5,-488 39.5,-476 39.5,-476 39.5,-470 45.5,-464 51.5,-464 51.5,-464 241.5,-464 241.5,-464 247.5,-464 253.5,-470 253.5,-476 253.5,-476 253.5,-488 253.5,-488 253.5,-494 247.5,-500 241.5,-500"/>
<text text-anchor="middle" x="146.5" y="-479.2" font-family="Helvetica,sans-Serif" font-size="11.00">SyncManager.removeStaleAccounts</text>
</g>
<!-- m::com.android.server.content.SyncManager.removeStaleAccounts:()V&#45;&gt;__field__ -->
<g id="edge3" class="edge">
<title>m::com.android.server.content.SyncManager.removeStaleAccounts:()V&#45;&gt;__field__</title>
<path fill="none" stroke="#dc2626" d="M253.63,-467.1C302.09,-455.96 357.74,-436.59 399,-403 423.06,-383.42 443.51,-354.09 456.3,-333.2"/>
<polygon fill="#dc2626" stroke="#dc2626" points="458.79,-334.5 460.5,-326.2 453.98,-331.62 458.79,-334.5"/>
<text text-anchor="middle" x="357" y="-449.8" font-family="Helvetica,sans-Serif" font-size="9.00" fill="#dc2626"> reads unguarded</text>
</g>
<!-- m::com.android.server.pm.UserManagerService$LocalService.setUserIcon:(ILandroid/graphics/Bitmap;)V -->
<g id="node5" class="node">
<title>m::com.android.server.pm.UserManagerService$LocalService.setUserIcon:(ILandroid/graphics/Bitmap;)V</title>
<path fill="#fee2e2" stroke="#dc2626" d="M272,-442C272,-442 21,-442 21,-442 15,-442 9,-436 9,-430 9,-430 9,-418 9,-418 9,-412 15,-406 21,-406 21,-406 272,-406 272,-406 278,-406 284,-412 284,-418 284,-418 284,-430 284,-430 284,-436 278,-442 272,-442"/>
<text text-anchor="middle" x="146.5" y="-421.2" font-family="Helvetica,sans-Serif" font-size="11.00">UserManagerService$LocalService.setUserIcon</text>
</g>
<!-- m::com.android.server.pm.UserManagerService$LocalService.setUserIcon:(ILandroid/graphics/Bitmap;)V&#45;&gt;__field__ -->
<g id="edge4" class="edge">
<title>m::com.android.server.pm.UserManagerService$LocalService.setUserIcon:(ILandroid/graphics/Bitmap;)V&#45;&gt;__field__</title>
<path fill="none" stroke="#dc2626" d="M250.22,-405.94C264.68,-402.7 279.29,-399.05 293,-395 341.6,-380.66 353.81,-375.93 399,-353 412.01,-346.4 425.71,-338.13 437.59,-330.49"/>
<polygon fill="#dc2626" stroke="#dc2626" points="439.18,-332.8 444.36,-326.08 436.13,-328.1 439.18,-332.8"/>
<text text-anchor="middle" x="357" y="-390.8" font-family="Helvetica,sans-Serif" font-size="9.00" fill="#dc2626"> reads unguarded</text>
</g>
<!-- m::com.android.server.pm.UserManagerService.getUserIcon:(I)Landroid/os/ParcelFileDescriptor; -->
<g id="node6" class="node">
<title>m::com.android.server.pm.UserManagerService.getUserIcon:(I)Landroid/os/ParcelFileDescriptor;</title>
<path fill="#fee2e2" stroke="#dc2626" d="M234.5,-384C234.5,-384 58.5,-384 58.5,-384 52.5,-384 46.5,-378 46.5,-372 46.5,-372 46.5,-360 46.5,-360 46.5,-354 52.5,-348 58.5,-348 58.5,-348 234.5,-348 234.5,-348 240.5,-348 246.5,-354 246.5,-360 246.5,-360 246.5,-372 246.5,-372 246.5,-378 240.5,-384 234.5,-384"/>
<text text-anchor="middle" x="146.5" y="-363.2" font-family="Helvetica,sans-Serif" font-size="11.00">UserManagerService.getUserIcon</text>
</g>
<!-- m::com.android.server.pm.UserManagerService.getUserIcon:(I)Landroid/os/ParcelFileDescriptor;&#45;&gt;__field__ -->
<g id="edge5" class="edge">
<title>m::com.android.server.pm.UserManagerService.getUserIcon:(I)Landroid/os/ParcelFileDescriptor;&#45;&gt;__field__</title>
<path fill="none" stroke="#dc2626" d="M246.8,-349.9C293.12,-342.17 348.96,-332.52 399,-323 403.55,-322.13 408.26,-321.21 412.98,-320.26"/>
<polygon fill="#dc2626" stroke="#dc2626" points="413.65,-322.98 420.93,-318.65 412.53,-317.5 413.65,-322.98"/>
<text text-anchor="middle" x="357" y="-340.8" font-family="Helvetica,sans-Serif" font-size="9.00" fill="#dc2626"> reads unguarded</text>
</g>
<!-- m::com.android.server.pm.UserManagerService.onUserLoggedIn:(I)V -->
<g id="node7" class="node">
<title>m::com.android.server.pm.UserManagerService.onUserLoggedIn:(I)V</title>
<path fill="#fee2e2" stroke="#dc2626" d="M246,-326C246,-326 47,-326 47,-326 41,-326 35,-320 35,-314 35,-314 35,-302 35,-302 35,-296 41,-290 47,-290 47,-290 246,-290 246,-290 252,-290 258,-296 258,-302 258,-302 258,-314 258,-314 258,-320 252,-326 246,-326"/>
<text text-anchor="middle" x="146.5" y="-305.2" font-family="Helvetica,sans-Serif" font-size="11.00">UserManagerService.onUserLoggedIn</text>
</g>
<!-- m::com.android.server.pm.UserManagerService.onUserLoggedIn:(I)V&#45;&gt;__field__ -->
<g id="edge6" class="edge">
<title>m::com.android.server.pm.UserManagerService.onUserLoggedIn:(I)V&#45;&gt;__field__</title>
<path fill="none" stroke="#dc2626" d="M258.21,-308C310.19,-308 369.99,-308 412.85,-308"/>
<polygon fill="#dc2626" stroke="#dc2626" points="412.92,-310.8 420.92,-308 412.92,-305.2 412.92,-310.8"/>
<text text-anchor="middle" x="357" y="-310.8" font-family="Helvetica,sans-Serif" font-size="9.00" fill="#dc2626"> reads unguarded</text>
</g>
<!-- m::com.android.server.pm.UserManagerService.setUserName:(ILjava/lang/String;)V -->
<g id="node8" class="node">
<title>m::com.android.server.pm.UserManagerService.setUserName:(ILjava/lang/String;)V</title>
<path fill="#fee2e2" stroke="#dc2626" d="M239,-268C239,-268 54,-268 54,-268 48,-268 42,-262 42,-256 42,-256 42,-244 42,-244 42,-238 48,-232 54,-232 54,-232 239,-232 239,-232 245,-232 251,-238 251,-244 251,-244 251,-256 251,-256 251,-262 245,-268 239,-268"/>
<text text-anchor="middle" x="146.5" y="-247.2" font-family="Helvetica,sans-Serif" font-size="11.00">UserManagerService.setUserName</text>
</g>
<!-- m::com.android.server.pm.UserManagerService.setUserName:(ILjava/lang/String;)V&#45;&gt;__field__ -->
<g id="edge7" class="edge">
<title>m::com.android.server.pm.UserManagerService.setUserName:(ILjava/lang/String;)V&#45;&gt;__field__</title>
<path fill="none" stroke="#dc2626" d="M251.05,-266.81C296.52,-274.42 350.48,-283.77 399,-293 403.55,-293.87 408.26,-294.79 412.98,-295.74"/>
<polygon fill="#dc2626" stroke="#dc2626" points="412.53,-298.5 420.93,-297.35 413.65,-293.02 412.53,-298.5"/>
<text text-anchor="middle" x="357" y="-295.8" font-family="Helvetica,sans-Serif" font-size="9.00" fill="#dc2626"> reads unguarded</text>
</g>
<!-- m::com.android.server.pm.UserManagerService.writeUserLP:(Lcom/android/server/pm/UserManagerService$UserData;Ljava/io/OutputStream;)V -->
<g id="node9" class="node">
<title>m::com.android.server.pm.UserManagerService.writeUserLP:(Lcom/android/server/pm/UserManagerService$UserData;Ljava/io/OutputStream;)V</title>
<path fill="#fee2e2" stroke="#dc2626" d="M234.5,-210C234.5,-210 58.5,-210 58.5,-210 52.5,-210 46.5,-204 46.5,-198 46.5,-198 46.5,-186 46.5,-186 46.5,-180 52.5,-174 58.5,-174 58.5,-174 234.5,-174 234.5,-174 240.5,-174 246.5,-180 246.5,-186 246.5,-186 246.5,-198 246.5,-198 246.5,-204 240.5,-210 234.5,-210"/>
<text text-anchor="middle" x="146.5" y="-189.2" font-family="Helvetica,sans-Serif" font-size="11.00">UserManagerService.writeUserLP</text>
</g>
<!-- m::com.android.server.pm.UserManagerService.writeUserLP:(Lcom/android/server/pm/UserManagerService$UserData;Ljava/io/OutputStream;)V&#45;&gt;__field__ -->
<g id="edge8" class="edge">
<title>m::com.android.server.pm.UserManagerService.writeUserLP:(Lcom/android/server/pm/UserManagerService$UserData;Ljava/io/OutputStream;)V&#45;&gt;__field__</title>
<path fill="none" stroke="#dc2626" d="M246.67,-209.38C262.28,-212.8 278.16,-216.69 293,-221 341.5,-235.1 353.97,-239.11 399,-262 412.31,-268.77 426.26,-277.37 438.27,-285.3"/>
<polygon fill="#dc2626" stroke="#dc2626" points="436.9,-287.74 445.1,-289.87 440.01,-283.09 436.9,-287.74"/>
<text text-anchor="middle" x="357" y="-264.8" font-family="Helvetica,sans-Serif" font-size="9.00" fill="#dc2626"> reads unguarded</text>
</g>
<!-- m::com.android.server.pm.UserManagerServiceShellCommand.runList:()I -->
<g id="node10" class="node">
<title>m::com.android.server.pm.UserManagerServiceShellCommand.runList:()I</title>
<path fill="#fee2e2" stroke="#dc2626" d="M261.5,-152C261.5,-152 31.5,-152 31.5,-152 25.5,-152 19.5,-146 19.5,-140 19.5,-140 19.5,-128 19.5,-128 19.5,-122 25.5,-116 31.5,-116 31.5,-116 261.5,-116 261.5,-116 267.5,-116 273.5,-122 273.5,-128 273.5,-128 273.5,-140 273.5,-140 273.5,-146 267.5,-152 261.5,-152"/>
<text text-anchor="middle" x="146.5" y="-131.2" font-family="Helvetica,sans-Serif" font-size="11.00">UserManagerServiceShellCommand.runList</text>
</g>
<!-- m::com.android.server.pm.UserManagerServiceShellCommand.runList:()I&#45;&gt;__field__ -->
<g id="edge9" class="edge">
<title>m::com.android.server.pm.UserManagerServiceShellCommand.runList:()I&#45;&gt;__field__</title>
<path fill="none" stroke="#dc2626" d="M268.84,-152.07C313.42,-163.46 362,-181.97 399,-212 423.39,-231.8 443.91,-261.69 456.62,-282.85"/>
<polygon fill="#dc2626" stroke="#dc2626" points="454.32,-284.46 460.79,-289.94 459.15,-281.63 454.32,-284.46"/>
<text text-anchor="middle" x="357" y="-214.8" font-family="Helvetica,sans-Serif" font-size="9.00" fill="#dc2626"> reads unguarded</text>
</g>
<!-- m::com.android.server.trust.TrustManagerService.refreshAgentList:(I)V -->
<g id="node11" class="node">
<title>m::com.android.server.trust.TrustManagerService.refreshAgentList:(I)V</title>
<path fill="#fee2e2" stroke="#dc2626" d="M248,-94C248,-94 45,-94 45,-94 39,-94 33,-88 33,-82 33,-82 33,-70 33,-70 33,-64 39,-58 45,-58 45,-58 248,-58 248,-58 254,-58 260,-64 260,-70 260,-70 260,-82 260,-82 260,-88 254,-94 248,-94"/>
<text text-anchor="middle" x="146.5" y="-73.2" font-family="Helvetica,sans-Serif" font-size="11.00">TrustManagerService.refreshAgentList</text>
</g>
<!-- m::com.android.server.trust.TrustManagerService.refreshAgentList:(I)V&#45;&gt;__field__ -->
<g id="edge10" class="edge">
<title>m::com.android.server.trust.TrustManagerService.refreshAgentList:(I)V&#45;&gt;__field__</title>
<path fill="none" stroke="#dc2626" d="M260.29,-86.61C308.56,-96.56 362.17,-115.62 399,-152 436.03,-188.57 455.82,-247.88 464.65,-281.86"/>
<polygon fill="#dc2626" stroke="#dc2626" points="462.01,-282.84 466.66,-289.92 467.44,-281.48 462.01,-282.84"/>
<text text-anchor="middle" x="357" y="-154.8" font-family="Helvetica,sans-Serif" font-size="9.00" fill="#dc2626"> reads unguarded</text>
</g>
<!-- m::com.android.server.trust.TrustManagerService.refreshDeviceLockedForUser:(II)V -->
<g id="node12" class="node">
<title>m::com.android.server.trust.TrustManagerService.refreshDeviceLockedForUser:(II)V</title>
<path fill="#fee2e2" stroke="#dc2626" d="M281,-36C281,-36 12,-36 12,-36 6,-36 0,-30 0,-24 0,-24 0,-12 0,-12 0,-6 6,0 12,0 12,0 281,0 281,0 287,0 293,-6 293,-12 293,-12 293,-24 293,-24 293,-30 287,-36 281,-36"/>
<text text-anchor="middle" x="146.5" y="-15.2" font-family="Helvetica,sans-Serif" font-size="11.00">TrustManagerService.refreshDeviceLockedForUser</text>
</g>
<!-- m::com.android.server.trust.TrustManagerService.refreshDeviceLockedForUser:(II)V&#45;&gt;__field__ -->
<g id="edge11" class="edge">
<title>m::com.android.server.trust.TrustManagerService.refreshDeviceLockedForUser:(II)V&#45;&gt;__field__</title>
<path fill="none" stroke="#dc2626" d="M293.31,-31.58C332.3,-41.94 371.26,-59.5 399,-89 450.6,-143.89 464.98,-236.57 468.97,-281.71"/>
<polygon fill="#dc2626" stroke="#dc2626" points="466.19,-282.07 469.62,-289.82 471.77,-281.62 466.19,-282.07"/>
<text text-anchor="middle" x="357" y="-91.8" font-family="Helvetica,sans-Serif" font-size="9.00" fill="#dc2626"> reads unguarded</text>
</g>
</g>
</svg>
