<?xml version="1.0" encoding="UTF-8" standalone="no"?>
<!DOCTYPE svg PUBLIC "-//W3C//DTD SVG 1.1//EN"
 "http://www.w3.org/Graphics/SVG/1.1/DTD/svg11.dtd">
<!-- Generated by graphviz version 2.43.0 (0)
 -->
<!-- Title: race Pages: 1 -->
<svg width="583pt" height="160pt"
 viewBox="0.00 0.00 583.00 160.00" xmlns="http://www.w3.org/2000/svg" xmlns:xlink="http://www.w3.org/1999/xlink">
<g id="graph0" class="graph" transform="scale(1 1) rotate(0) translate(4 156)">
<title>race</title>
<polygon fill="white" stroke="transparent" points="-4,4 -4,-156 579,-156 579,4 -4,4"/>
<!-- __field__ -->
<g id="node1" class="node">
<title>__field__</title>
<path fill="#fef9c3" stroke="#ca8a04" stroke-width="2" d="M563,-94C563,-94 411,-94 411,-94 405,-94 399,-88 399,-82 399,-82 399,-70 399,-70 399,-64 405,-58 411,-58 411,-58 563,-58 563,-58 569,-58 575,-64 575,-70 575,-70 575,-82 575,-82 575,-88 569,-94 563,-94"/>
<text text-anchor="middle" x="487" y="-73.2" font-family="Helvetica,sans-Serif" font-size="11.00">SecurityLogMonitor.mPaused</text>
</g>
<!-- __guard__ -->
<g id="node2" class="node">
<title>__guard__</title>
<path fill="#dcfce7" stroke="#16a34a" stroke-width="2" d="M204,-152C204,-152 67,-152 67,-152 61,-152 55,-146 55,-140 55,-140 55,-128 55,-128 55,-122 61,-116 67,-116 67,-116 204,-116 204,-116 210,-116 216,-122 216,-128 216,-128 216,-140 216,-140 216,-146 210,-152 204,-152"/>
<text text-anchor="middle" x="135.5" y="-131.2" font-family="Helvetica,sans-Serif" font-size="11.00">SecurityLogMonitor.mLock</text>
</g>
<!-- __guard__&#45;&gt;__field__ -->
<g id="edge1" class="edge">
<title>__guard__&#45;&gt;__field__</title>
<path fill="none" stroke="#16a34a" stroke-width="1.6" d="M216.24,-120.77C268.19,-112.15 336.22,-100.86 390.97,-91.77"/>
<polygon fill="#16a34a" stroke="#16a34a" stroke-width="1.6" points="391.51,-94.52 398.94,-90.45 390.59,-88.99 391.51,-94.52"/>
<text text-anchor="middle" x="335" y="-108.8" font-family="Helvetica,sans-Serif" font-size="9.00" fill="#15803d"> guards 2/3</text>
</g>
<!-- m::com.android.server.devicepolicy.SecurityLogMonitor.startMonitorThreadLocked:()V -->
<g id="node3" class="node">
<title>m::com.android.server.devicepolicy.SecurityLogMonitor.startMonitorThreadLocked:()V</title>
<path fill="#fee2e2" stroke="#dc2626" d="M259,-94C259,-94 12,-94 12,-94 6,-94 0,-88 0,-82 0,-82 0,-70 0,-70 0,-64 6,-58 12,-58 12,-58 259,-58 259,-58 265,-58 271,-64 271,-70 271,-70 271,-82 271,-82 271,-88 265,-94 259,-94"/>
<text text-anchor="middle" x="135.5" y="-73.2" font-family="Helvetica,sans-Serif" font-size="11.00">SecurityLogMonitor.startMonitorThreadLocked</text>
</g>
<!-- m::com.android.server.devicepolicy.SecurityLogMonitor.startMonitorThreadLocked:()V&#45;&gt;__field__ -->
<g id="edge2" class="edge">
<title>m::com.android.server.devicepolicy.SecurityLogMonitor.startMonitorThreadLocked:()V&#45;&gt;__field__</title>
<path fill="none" stroke="#dc2626" d="M271.13,-76C310.99,-76 353.8,-76 390.64,-76"/>
<polygon fill="#dc2626" stroke="#dc2626" points="390.89,-78.8 398.89,-76 390.89,-73.2 390.89,-78.8"/>
<text text-anchor="middle" x="335" y="-78.8" font-family="Helvetica,sans-Serif" font-size="9.00" fill="#dc2626"> writes unguarded</text>
</g>
<!-- m::com.android.server.devicepolicy.SecurityLogMonitor.addAuditLogEventsLocked:(Ljava/util/List;)V -->
<g id="node4" class="node">
<title>m::com.android.server.devicepolicy.SecurityLogMonitor.addAuditLogEventsLocked:(Ljava/util/List;)V</title>
<path fill="#fee2e2" stroke="#dc2626" d="M258.5,-36C258.5,-36 12.5,-36 12.5,-36 6.5,-36 0.5,-30 0.5,-24 0.5,-24 0.5,-12 0.5,-12 0.5,-6 6.5,0 12.5,0 12.5,0 258.5,0 258.5,0 264.5,0 270.5,-6 270.5,-12 270.5,-12 270.5,-24 270.5,-24 270.5,-30 264.5,-36 258.5,-36"/>
<text text-anchor="middle" x="135.5" y="-15.2" font-family="Helvetica,sans-Serif" font-size="11.00">SecurityLogMonitor.addAuditLogEventsLocked</text>
</g>
<!-- m::com.android.server.devicepolicy.SecurityLogMonitor.addAuditLogEventsLocked:(Ljava/util/List;)V&#45;&gt;__field__ -->
<g id="edge3" class="edge">
<title>m::com.android.server.devicepolicy.SecurityLogMonitor.addAuditLogEventsLocked:(Ljava/util/List;)V&#45;&gt;__field__</title>
<path fill="none" stroke="#dc2626" d="M245.17,-36.03C291.77,-43.77 345.71,-52.72 390.72,-60.19"/>
<polygon fill="#dc2626" stroke="#dc2626" points="390.38,-62.97 398.73,-61.52 391.3,-57.45 390.38,-62.97"/>
<text text-anchor="middle" x="335" y="-59.8" font-family="Helvetica,sans-Serif" font-size="9.00" fill="#dc2626"> reads unguarded</text>
</g>
</g>
</svg>
