<?xml version="1.0" encoding="UTF-8" standalone="no"?>
<!DOCTYPE svg PUBLIC "-//W3C//DTD SVG 1.1//EN"
 "http://www.w3.org/Graphics/SVG/1.1/DTD/svg11.dtd">
<!-- Generated by graphviz version 2.43.0 (0)
 -->
<!-- Title: race Pages: 1 -->
<svg width="730pt" height="566pt"
 viewBox="0.00 0.00 730.00 566.00" xmlns="http://www.w3.org/2000/svg" xmlns:xlink="http://www.w3.org/1999/xlink">
<g id="graph0" class="graph" transform="scale(1 1) rotate(0) translate(4 562)">
<title>race</title>
<polygon fill="white" stroke="transparent" points="-4,4 -4,-562 726,-562 726,4 -4,4"/>
<!-- __field__ -->
<g id="node1" class="node">
<title>__field__</title>
<path fill="#fef9c3" stroke="#ca8a04" stroke-width="2" d="M710,-318C710,-318 602,-318 602,-318 596,-318 590,-312 590,-306 590,-306 590,-294 590,-294 590,-288 596,-282 602,-282 602,-282 710,-282 710,-282 716,-282 722,-288 722,-294 722,-294 722,-306 722,-306 722,-312 716,-318 710,-318"/>
<text text-anchor="middle" x="656" y="-297.2" font-family="Helvetica,sans-Serif" font-size="11.00">ActivityInfo.exported</text>
</g>
<!-- __guard__ -->
<g id="node2" class="node">
<title>__guard__</title>
<path fill="#dcfce7" stroke="#16a34a" stroke-width="2" d="M334,-558C334,-558 128,-558 128,-558 122,-558 116,-552 116,-546 116,-546 116,-534 116,-534 116,-528 122,-522 128,-522 128,-522 334,-522 334,-522 340,-522 346,-528 346,-534 346,-534 346,-546 346,-546 346,-552 340,-558 334,-558"/>
<text text-anchor="middle" x="231" y="-537.2" font-family="Helvetica,sans-Serif" font-size="11.00">PackageManagerServiceInjector.mLock</text>
</g>
<!-- __guard__&#45;&gt;__field__ -->
<g id="edge1" class="edge">
<title>__guard__&#45;&gt;__field__</title>
<path fill="none" stroke="#16a34a" stroke-width="1.6" d="M346.07,-545.85C417.69,-543.44 507.6,-528.48 568,-476 614.53,-435.58 638.73,-364.45 648.94,-326.16"/>
<polygon fill="#16a34a" stroke="#16a34a" stroke-width="1.6" points="651.74,-326.51 651.01,-318.06 646.31,-325.12 651.74,-326.51"/>
<text text-anchor="middle" x="526" y="-522.8" font-family="Helvetica,sans-Serif" font-size="9.00" fill="#15803d"> guards 2/3</text>
</g>
<!-- m::com.android.server.pm.PackageManagerService.setUpInstantAppInstallerActivityLP:(Landroid/content/pm/ActivityInfo;)V -->
<g id="node3" class="node">
<title>m::com.android.server.pm.PackageManagerService.setUpInstantAppInstallerActivityLP:(Landroid/content/pm/ActivityInfo;)V</title>
<path fill="#fee2e2" stroke="#dc2626" d="M391,-500C391,-500 71,-500 71,-500 65,-500 59,-494 59,-488 59,-488 59,-476 59,-476 59,-470 65,-464 71,-464 71,-464 391,-464 391,-464 397,-464 403,-470 403,-476 403,-476 403,-488 403,-488 403,-494 397,-500 391,-500"/>
<text text-anchor="middle" x="231" y="-479.2" font-family="Helvetica,sans-Serif" font-size="11.00">PackageManagerService.setUpInstantAppInstallerActivityLP</text>
</g>
<!-- m::com.android.server.pm.PackageManagerService.setUpInstantAppInstallerActivityLP:(Landroid/content/pm/ActivityInfo;)V&#45;&gt;__field__ -->
<g id="edge2" class="edge">
<title>m::com.android.server.pm.PackageManagerService.setUpInstantAppInstallerActivityLP:(Landroid/content/pm/ActivityInfo;)V&#45;&gt;__field__</title>
<path fill="none" stroke="#dc2626" d="M403.09,-479.69C459.79,-471.8 520.48,-454.95 568,-421 602.83,-396.12 628.98,-352.86 643.12,-325.37"/>
<polygon fill="#dc2626" stroke="#dc2626" points="645.7,-326.47 646.79,-318.06 640.69,-323.96 645.7,-326.47"/>
<text text-anchor="middle" x="526" y="-463.8" font-family="Helvetica,sans-Serif" font-size="9.00" fill="#dc2626"> writes unguarded</text>
</g>
<!-- m::com.android.server.am.BroadcastController.checkBroadcastFromSystem:(Landroid/content/Intent;Lcom/android/server/am/ProcessRecord;Ljava/lang/String;IZLjava/util/List;)V -->
<g id="node4" class="node">
<title>m::com.android.server.am.BroadcastController.checkBroadcastFromSystem:(Landroid/content/Intent;Lcom/android/server/am/ProcessRecord;Ljava/lang/String;IZLjava/util/List;)V</title>
<path fill="#fee2e2" stroke="#dc2626" d="M361,-442C361,-442 101,-442 101,-442 95,-442 89,-436 89,-430 89,-430 89,-418 89,-418 89,-412 95,-406 101,-406 101,-406 361,-406 361,-406 367,-406 373,-412 373,-418 373,-418 373,-430 373,-430 373,-436 367,-442 361,-442"/>
<text text-anchor="middle" x="231" y="-421.2" font-family="Helvetica,sans-Serif" font-size="11.00">BroadcastController.checkBroadcastFromSystem</text>
</g>
<!-- m::com.android.server.am.BroadcastController.checkBroadcastFromSystem:(Landroid/content/Intent;Lcom/android/server/am/ProcessRecord;Ljava/lang/String;IZLjava/util/List;)V&#45;&gt;__field__ -->
<g id="edge3" class="edge">
<title>m::com.android.server.am.BroadcastController.checkBroadcastFromSystem:(Landroid/content/Intent;Lcom/android/server/am/ProcessRecord;Ljava/lang/String;IZLjava/util/List;)V&#45;&gt;__field__</title>
<path fill="none" stroke="#dc2626" d="M373.17,-424.28C435.42,-419.65 507.93,-407.54 568,-379 594.75,-366.29 619.14,-342.59 635.24,-324.45"/>
<polygon fill="#dc2626" stroke="#dc2626" points="637.67,-325.93 640.79,-318.05 633.43,-322.26 637.67,-325.93"/>
<text text-anchor="middle" x="526" y="-408.8" font-family="Helvetica,sans-Serif" font-size="9.00" fill="#dc2626"> reads unguarded</text>
</g>
<!-- m::com.android.server.am.BroadcastSkipPolicy.shouldSkipMessage:(Lcom/android/server/am/BroadcastRecord;Landroid/content/pm/ResolveInfo;Z)Ljava/lang/String; -->
<g id="node5" class="node">
<title>m::com.android.server.am.BroadcastSkipPolicy.shouldSkipMessage:(Lcom/android/server/am/BroadcastRecord;Landroid/content/pm/ResolveInfo;Z)Ljava/lang/String;</title>
<path fill="#fee2e2" stroke="#dc2626" d="M337,-384C337,-384 125,-384 125,-384 119,-384 113,-378 113,-372 113,-372 113,-360 113,-360 113,-354 119,-348 125,-348 125,-348 337,-348 337,-348 343,-348 349,-354 349,-360 349,-360 349,-372 349,-372 349,-378 343,-384 337,-384"/>
<text text-anchor="middle" x="231" y="-363.2" font-family="Helvetica,sans-Serif" font-size="11.00">BroadcastSkipPolicy.shouldSkipMessage</text>
</g>
<!-- m::com.android.server.am.BroadcastSkipPolicy.shouldSkipMessage:(Lcom/android/server/am/BroadcastRecord;Landroid/content/pm/ResolveInfo;Z)Ljava/lang/String;&#45;&gt;__field__ -->
<g id="edge4" class="edge">
<title>m::com.android.server.am.BroadcastSkipPolicy.shouldSkipMessage:(Lcom/android/server/am/BroadcastRecord;Landroid/content/pm/ResolveInfo;Z)Ljava/lang/String;&#45;&gt;__field__</title>
<path fill="none" stroke="#dc2626" d="M349.19,-372.46C414.74,-372.94 497.24,-368.26 568,-348 587.13,-342.52 606.68,-332.24 622.39,-322.59"/>
<polygon fill="#dc2626" stroke="#dc2626" points="624.05,-324.86 629.32,-318.22 621.06,-320.12 624.05,-324.86"/>
<text text-anchor="middle" x="526" y="-366.8" font-family="Helvetica,sans-Serif" font-size="9.00" fill="#dc2626"> reads unguarded</text>
</g>
<!-- m::com.android.server.am.BroadcastSkipPolicy.shouldSkipMessage:(Lcom/android/server/am/BroadcastRecord;Landroid/content/pm/ResolveInfo;Z)Ljava/lang/String;&#45;&gt;__field__ -->
<g id="edge5" class="edge">
<title>m::com.android.server.am.BroadcastSkipPolicy.shouldSkipMessage:(Lcom/android/server/am/BroadcastRecord;Landroid/content/pm/ResolveInfo;Z)Ljava/lang/String;&#45;&gt;__field__</title>
<path fill="none" stroke="#dc2626" d="M349.21,-352.69C385.44,-348.18 425.43,-342.8 462,-337 501.78,-330.68 545.92,-322.32 581.94,-315.15"/>
<polygon fill="#dc2626" stroke="#dc2626" points="582.67,-317.86 589.97,-313.54 581.57,-312.37 582.67,-317.86"/>
<text text-anchor="middle" x="526" y="-334.8" font-family="Helvetica,sans-Serif" font-size="9.00" fill="#dc2626"> reads unguarded</text>
</g>
<!-- m::com.android.server.pm.ComputerEngine.queryIntentActivitiesInternal:(Landroid/content/Intent;Ljava/lang/String;JJIIIZZ)Ljava/util/List; -->
<g id="node6" class="node">
<title>m::com.android.server.pm.ComputerEngine.queryIntentActivitiesInternal:(Landroid/content/Intent;Ljava/lang/String;JJIIIZZ)Ljava/util/List;</title>
<path fill="#fee2e2" stroke="#dc2626" d="M353,-326C353,-326 109,-326 109,-326 103,-326 97,-320 97,-314 97,-314 97,-302 97,-302 97,-296 103,-290 109,-290 109,-290 353,-290 353,-290 359,-290 365,-296 365,-302 365,-302 365,-314 365,-314 365,-320 359,-326 353,-326"/>
<text text-anchor="middle" x="231" y="-305.2" font-family="Helvetica,sans-Serif" font-size="11.00">ComputerEngine.queryIntentActivitiesInternal</text>
</g>
<!-- m::com.android.server.pm.ComputerEngine.queryIntentActivitiesInternal:(Landroid/content/Intent;Ljava/lang/String;JJIIIZZ)Ljava/util/List;&#45;&gt;__field__ -->
<g id="edge6" class="edge">
<title>m::com.android.server.pm.ComputerEngine.queryIntentActivitiesInternal:(Landroid/content/Intent;Ljava/lang/String;JJIIIZZ)Ljava/util/List;&#45;&gt;__field__</title>
<path fill="none" stroke="#dc2626" d="M365.05,-302.99C403.43,-301.75 445.38,-300.61 484,-300 515.88,-299.49 551.11,-299.41 581.27,-299.49"/>
<polygon fill="#dc2626" stroke="#dc2626" points="581.62,-302.29 589.63,-299.51 581.64,-296.69 581.62,-302.29"/>
<text text-anchor="middle" x="526" y="-302.8" font-family="Helvetica,sans-Serif" font-size="9.00" fill="#dc2626"> reads unguarded</text>
</g>
<!-- m::com.android.server.pm.LauncherAppsService$LauncherAppsImpl.getMainActivityLaunchIntent:(Landroid/content/ComponentName;Landroid/os/UserHandle;Z)Landroid/content/Intent; -->
<g id="node7" class="node">
<title>m::com.android.server.pm.LauncherAppsService$LauncherAppsImpl.getMainActivityLaunchIntent:(Landroid/content/ComponentName;Landroid/os/UserHandle;Z)Landroid/content/Intent;</title>
<path fill="#fee2e2" stroke="#dc2626" d="M420.5,-268C420.5,-268 41.5,-268 41.5,-268 35.5,-268 29.5,-262 29.5,-256 29.5,-256 29.5,-244 29.5,-244 29.5,-238 35.5,-232 41.5,-232 41.5,-232 420.5,-232 420.5,-232 426.5,-232 432.5,-238 432.5,-244 432.5,-244 432.5,-256 432.5,-256 432.5,-262 426.5,-268 420.5,-268"/>
<text text-anchor="middle" x="231" y="-247.2" font-family="Helvetica,sans-Serif" font-size="11.00">LauncherAppsService$LauncherAppsImpl.getMainActivityLaunchIntent</text>
</g>
<!-- m::com.android.server.pm.LauncherAppsService$LauncherAppsImpl.getMainActivityLaunchIntent:(Landroid/content/ComponentName;Landroid/os/UserHandle;Z)Landroid/content/Intent;&#45;&gt;__field__ -->
<g id="edge7" class="edge">
<title>m::com.android.server.pm.LauncherAppsService$LauncherAppsImpl.getMainActivityLaunchIntent:(Landroid/content/ComponentName;Landroid/os/UserHandle;Z)Landroid/content/Intent;&#45;&gt;__field__</title>
<path fill="none" stroke="#dc2626" d="M432.65,-267.62C477.29,-272.28 524.32,-277.78 568,-284 572.37,-284.62 576.86,-285.31 581.38,-286.03"/>
<polygon fill="#dc2626" stroke="#dc2626" points="581.19,-288.84 589.54,-287.37 582.1,-283.31 581.19,-288.84"/>
<text text-anchor="middle" x="526" y="-286.8" font-family="Helvetica,sans-Serif" font-size="9.00" fill="#dc2626"> reads unguarded</text>
</g>
<!-- m::com.android.server.pm.ShortcutService$1.test:(Landroid/content/pm/ResolveInfo;)Z -->
<g id="node8" class="node">
<title>m::com.android.server.pm.ShortcutService$1.test:(Landroid/content/pm/ResolveInfo;)Z</title>
<path fill="#fee2e2" stroke="#dc2626" d="M290.5,-210C290.5,-210 171.5,-210 171.5,-210 165.5,-210 159.5,-204 159.5,-198 159.5,-198 159.5,-186 159.5,-186 159.5,-180 165.5,-174 171.5,-174 171.5,-174 290.5,-174 290.5,-174 296.5,-174 302.5,-180 302.5,-186 302.5,-186 302.5,-198 302.5,-198 302.5,-204 296.5,-210 290.5,-210"/>
<text text-anchor="middle" x="231" y="-189.2" font-family="Helvetica,sans-Serif" font-size="11.00">ShortcutService$1.test</text>
</g>
<!-- m::com.android.server.pm.ShortcutService$1.test:(Landroid/content/pm/ResolveInfo;)Z&#45;&gt;__field__ -->
<g id="edge8" class="edge">
<title>m::com.android.server.pm.ShortcutService$1.test:(Landroid/content/pm/ResolveInfo;)Z&#45;&gt;__field__</title>
<path fill="none" stroke="#dc2626" d="M302.64,-197.03C348.49,-201.25 409.3,-208.63 462,-221 510.58,-232.41 521.9,-238.9 568,-258 582.64,-264.07 598.33,-271.38 612.3,-278.19"/>
<polygon fill="#dc2626" stroke="#dc2626" points="611.44,-280.89 619.86,-281.91 613.92,-275.86 611.44,-280.89"/>
<text text-anchor="middle" x="526" y="-260.8" font-family="Helvetica,sans-Serif" font-size="9.00" fill="#dc2626"> reads unguarded</text>
</g>
<!-- m::com.android.server.restrictions.RestrictionsManagerService$RestrictionsManagerImpl.createLocalApprovalIntent:()Landroid/content/Intent; -->
<g id="node9" class="node">
<title>m::com.android.server.restrictions.RestrictionsManagerService$RestrictionsManagerImpl.createLocalApprovalIntent:()Landroid/content/Intent;</title>
<path fill="#fee2e2" stroke="#dc2626" d="M450,-152C450,-152 12,-152 12,-152 6,-152 0,-146 0,-140 0,-140 0,-128 0,-128 0,-122 6,-116 12,-116 12,-116 450,-116 450,-116 456,-116 462,-122 462,-128 462,-128 462,-140 462,-140 462,-146 456,-152 450,-152"/>
<text text-anchor="middle" x="231" y="-131.2" font-family="Helvetica,sans-Serif" font-size="11.00">RestrictionsManagerService$RestrictionsManagerImpl.createLocalApprovalIntent</text>
</g>
<!-- m::com.android.server.restrictions.RestrictionsManagerService$RestrictionsManagerImpl.createLocalApprovalIntent:()Landroid/content/Intent;&#45;&gt;__field__ -->
<g id="edge9" class="edge">
<title>m::com.android.server.restrictions.RestrictionsManagerService$RestrictionsManagerImpl.createLocalApprovalIntent:()Landroid/content/Intent;&#45;&gt;__field__</title>
<path fill="none" stroke="#dc2626" d="M425.26,-152.01C474.99,-163.42 526.21,-181.73 568,-211 594.08,-229.26 618.96,-255.99 635.38,-275.38"/>
<polygon fill="#dc2626" stroke="#dc2626" points="633.34,-277.31 640.61,-281.65 637.64,-273.72 633.34,-277.31"/>
<text text-anchor="middle" x="526" y="-213.8" font-family="Helvetica,sans-Serif" font-size="9.00" fill="#dc2626"> reads unguarded</text>
</g>
<!-- m::com.android.server.wm.ActivityTaskSupervisor.checkStartAnyActivityPermission:(Landroid/content/Intent;Landroid/content/pm/ActivityInfo;Ljava/lang/String;IIILjava/lang/String;Ljava/lang/String;ZZLcom/android/server/wm/WindowProcessController;Lcom/android/server/wm/ActivityRecord;Lcom/android/server/wm/Task;)Z -->
<g id="node10" class="node">
<title>m::com.android.server.wm.ActivityTaskSupervisor.checkStartAnyActivityPermission:(Landroid/content/Intent;Landroid/content/pm/ActivityInfo;Ljava/lang/String;IIILjava/lang/String;Ljava/lang/String;ZZLcom/android/server/wm/WindowProcessController;Lcom/android/server/wm/ActivityRecord;Lcom/android/server/wm/Task;)Z</title>
<path fill="#fee2e2" stroke="#dc2626" d="M381.5,-94C381.5,-94 80.5,-94 80.5,-94 74.5,-94 68.5,-88 68.5,-82 68.5,-82 68.5,-70 68.5,-70 68.5,-64 74.5,-58 80.5,-58 80.5,-58 381.5,-58 381.5,-58 387.5,-58 393.5,-64 393.5,-70 393.5,-70 393.5,-82 393.5,-82 393.5,-88 387.5,-94 381.5,-94"/>
<text text-anchor="middle" x="231" y="-73.2" font-family="Helvetica,sans-Serif" font-size="11.00">ActivityTaskSupervisor.checkStartAnyActivityPermission</text>
</g>
<!-- m::com.android.server.wm.ActivityTaskSupervisor.checkStartAnyActivityPermission:(Landroid/content/Intent;Landroid/content/pm/ActivityInfo;Ljava/lang/String;IIILjava/lang/String;Ljava/lang/String;ZZLcom/android/server/wm/WindowProcessController;Lcom/android/server/wm/ActivityRecord;Lcom/android/server/wm/Task;)Z&#45;&gt;__field__ -->
<g id="edge10" class="edge">
<title>m::com.android.server.wm.ActivityTaskSupervisor.checkStartAnyActivityPermission:(Landroid/content/Intent;Landroid/content/pm/ActivityInfo;Ljava/lang/String;IIILjava/lang/String;Ljava/lang/String;ZZLcom/android/server/wm/WindowProcessController;Lcom/android/server/wm/ActivityRecord;Lcom/android/server/wm/Task;)Z&#45;&gt;__field__</title>
<path fill="none" stroke="#dc2626" d="M393.88,-81.13C454.81,-90.75 520.72,-111.42 568,-154 605.8,-188.04 632.14,-242.44 645.32,-274.35"/>
<polygon fill="#dc2626" stroke="#dc2626" points="642.79,-275.57 648.38,-281.95 647.99,-273.48 642.79,-275.57"/>
<text text-anchor="middle" x="526" y="-156.8" font-family="Helvetica,sans-Serif" font-size="9.00" fill="#dc2626"> reads unguarded</text>
</g>
<!-- m::com.android.server.wm.ActivityTaskSupervisor.getComponentRestrictionForCallingPackage:(Landroid/content/pm/ActivityInfo;Ljava/lang/String;Ljava/lang/String;IIZ)I -->
<g id="node11" class="node">
<title>m::com.android.server.wm.ActivityTaskSupervisor.getComponentRestrictionForCallingPackage:(Landroid/content/pm/ActivityInfo;Ljava/lang/String;Ljava/lang/String;IIZ)I</title>
<path fill="#fee2e2" stroke="#dc2626" d="M410.5,-36C410.5,-36 51.5,-36 51.5,-36 45.5,-36 39.5,-30 39.5,-24 39.5,-24 39.5,-12 39.5,-12 39.5,-6 45.5,0 51.5,0 51.5,0 410.5,0 410.5,0 416.5,0 422.5,-6 422.5,-12 422.5,-12 422.5,-24 422.5,-24 422.5,-30 416.5,-36 410.5,-36"/>
<text text-anchor="middle" x="231" y="-15.2" font-family="Helvetica,sans-Serif" font-size="11.00">ActivityTaskSupervisor.getComponentRestrictionForCallingPackage</text>
</g>
<!-- m::com.android.server.wm.ActivityTaskSupervisor.getComponentRestrictionForCallingPackage:(Landroid/content/pm/ActivityInfo;Ljava/lang/String;Ljava/lang/String;IIZ)I&#45;&gt;__field__ -->
<g id="edge11" class="edge">
<title>m::com.android.server.wm.ActivityTaskSupervisor.getComponentRestrictionForCallingPackage:(Landroid/content/pm/ActivityInfo;Ljava/lang/String;Ljava/lang/String;IIZ)I&#45;&gt;__field__</title>
<path fill="none" stroke="#dc2626" d="M422.92,-22.04C476,-32.29 529.57,-52.61 568,-91 619.87,-142.82 642.35,-230.11 650.72,-273.65"/>
<polygon fill="#dc2626" stroke="#dc2626" points="648.01,-274.39 652.21,-281.75 653.52,-273.38 648.01,-274.39"/>
<text text-anchor="middle" x="526" y="-93.8" font-family="Helvetica,sans-Serif" font-size="9.00" fill="#dc2626"> reads unguarded</text>
</g>
</g>
</svg>
