<?xml version="1.0" encoding="UTF-8" standalone="no"?>
<!DOCTYPE svg PUBLIC "-//W3C//DTD SVG 1.1//EN"
 "http://www.w3.org/Graphics/SVG/1.1/DTD/svg11.dtd">
<!-- Generated by graphviz version 2.43.0 (0)
 -->
<!-- Title: race Pages: 1 -->
<svg width="674pt" height="102pt"
 viewBox="0.00 0.00 674.00 102.00" xmlns="http://www.w3.org/2000/svg" xmlns:xlink="http://www.w3.org/1999/xlink">
<g id="graph0" class="graph" transform="scale(1 1) rotate(0) translate(4 98)">
<title>race</title>
<polygon fill="white" stroke="transparent" points="-4,4 -4,-98 670,-98 670,4 -4,4"/>
<!-- __field__ -->
<g id="node1" class="node">
<title>__field__</title>
<path fill="#fef9c3" stroke="#ca8a04" stroke-width="2" d="M654,-65C654,-65 361,-65 361,-65 355,-65 349,-59 349,-53 349,-53 349,-41 349,-41 349,-35 355,-29 361,-29 361,-29 654,-29 654,-29 660,-29 666,-35 666,-41 666,-41 666,-53 666,-53 666,-59 660,-65 654,-65"/>
<text text-anchor="middle" x="507.5" y="-44.2" font-family="Helvetica,sans-Serif" font-size="11.00">InputContentUriTokenHandler.mPermissionOwnerToken</text>
</g>
<!-- __guard__ -->
<g id="node2" class="node">
<title>__guard__</title>
<path fill="#dcfce7" stroke="#16a34a" stroke-width="2" d="M206,-94C206,-94 15,-94 15,-94 9,-94 3,-88 3,-82 3,-82 3,-70 3,-70 3,-64 9,-58 15,-58 15,-58 206,-58 206,-58 212,-58 218,-64 218,-70 218,-70 218,-82 218,-82 218,-88 212,-94 206,-94"/>
<text text-anchor="middle" x="110.5" y="-73.2" font-family="Helvetica,sans-Serif" font-size="11.00">InputContentUriTokenHandler.mLock</text>
</g>
<!-- __guard__&#45;&gt;__field__ -->
<g id="edge1" class="edge">
<title>__guard__&#45;&gt;__field__</title>
<path fill="none" stroke="#16a34a" stroke-width="1.6" d="M218.13,-68.17C255.91,-65.4 299.36,-62.21 340.88,-59.16"/>
<polygon fill="#16a34a" stroke="#16a34a" stroke-width="1.6" points="341.11,-61.95 348.89,-58.57 340.7,-56.36 341.11,-61.95"/>
<text text-anchor="middle" x="285" y="-67.8" font-family="Helvetica,sans-Serif" font-size="9.00" fill="#15803d"> guards 2/3</text>
</g>
<!-- m::com.android.server.inputmethod.InputContentUriTokenHandler.release:()V -->
<g id="node3" class="node">
<title>m::com.android.server.inputmethod.InputContentUriTokenHandler.release:()V</title>
<path fill="#fee2e2" stroke="#dc2626" d="M209,-36C209,-36 12,-36 12,-36 6,-36 0,-30 0,-24 0,-24 0,-12 0,-12 0,-6 6,0 12,0 12,0 209,0 209,0 215,0 221,-6 221,-12 221,-12 221,-24 221,-24 221,-30 215,-36 209,-36"/>
<text text-anchor="middle" x="110.5" y="-15.2" font-family="Helvetica,sans-Serif" font-size="11.00">InputContentUriTokenHandler.release</text>
</g>
<!-- m::com.android.server.inputmethod.InputContentUriTokenHandler.release:()V&#45;&gt;__field__ -->
<g id="edge2" class="edge">
<title>m::com.android.server.inputmethod.InputContentUriTokenHandler.release:()V&#45;&gt;__field__</title>
<path fill="none" stroke="#dc2626" d="M221,-26.04C258.04,-28.76 300.25,-31.86 340.66,-34.82"/>
<polygon fill="#dc2626" stroke="#dc2626" points="340.53,-37.62 348.71,-35.42 340.94,-32.04 340.53,-37.62"/>
<text text-anchor="middle" x="285" y="-35.8" font-family="Helvetica,sans-Serif" font-size="9.00" fill="#dc2626"> writes unguarded</text>
</g>
</g>
</svg>
