<?xml version="1.0" encoding="UTF-8" standalone="no"?>
<!DOCTYPE svg PUBLIC "-//W3C//DTD SVG 1.1//EN"
 "http://www.w3.org/Graphics/SVG/1.1/DTD/svg11.dtd">
<!-- Generated by graphviz version 2.43.0 (0)
 -->
<!-- Title: race Pages: 1 -->
<svg width="810pt" height="160pt"
 viewBox="0.00 0.00 810.00 160.00" xmlns="http://www.w3.org/2000/svg" xmlns:xlink="http://www.w3.org/1999/xlink">
<g id="graph0" class="graph" transform="scale(1 1) rotate(0) translate(4 156)">
<title>race</title>
<polygon fill="white" stroke="transparent" points="-4,4 -4,-156 806,-156 806,4 -4,4"/>
<!-- __field__ -->
<g id="node1" class="node">
<title>__field__</title>
<path fill="#fef9c3" stroke="#ca8a04" stroke-width="2" d="M790,-94C790,-94 507,-94 507,-94 501,-94 495,-88 495,-82 495,-82 495,-70 495,-70 495,-64 501,-58 507,-58 507,-58 790,-58 790,-58 796,-58 802,-64 802,-70 802,-70 802,-82 802,-82 802,-88 796,-94 790,-94"/>
<text text-anchor="middle" x="648.5" y="-73.2" font-family="Helvetica,sans-Serif" font-size="11.00">JobSchedulerService$BatteryStateTracker.mCharging</text>
</g>
<!-- __guard__ -->
<g id="node2" class="node">
<title>__guard__</title>
<path fill="#dcfce7" stroke="#16a34a" stroke-width="2" d="M255,-152C255,-152 112,-152 112,-152 106,-152 100,-146 100,-140 100,-140 100,-128 100,-128 100,-122 106,-116 112,-116 112,-116 255,-116 255,-116 261,-116 267,-122 267,-128 267,-128 267,-140 267,-140 267,-146 261,-152 255,-152"/>
<text text-anchor="middle" x="183.5" y="-131.2" font-family="Helvetica,sans-Serif" font-size="11.00">JobSchedulerService.mLock</text>
</g>
<!-- __guard__&#45;&gt;__field__ -->
<g id="edge1" class="edge">
<title>__guard__&#45;&gt;__field__</title>
<path fill="none" stroke="#16a34a" stroke-width="1.6" d="M267.01,-123.66C330.22,-115.75 419.2,-104.6 495.22,-95.08"/>
<polygon fill="#16a34a" stroke="#16a34a" stroke-width="1.6" points="495.89,-97.81 503.48,-94.04 495.19,-92.26 495.89,-97.81"/>
<text text-anchor="middle" x="431" y="-108.8" font-family="Helvetica,sans-Serif" font-size="9.00" fill="#15803d"> guards 2/3</text>
</g>
<!-- m::com.android.server.job.JobSchedulerService$BatteryStateTracker.startTracking:()V -->
<g id="node3" class="node">
<title>m::com.android.server.job.JobSchedulerService$BatteryStateTracker.startTracking:()V</title>
<path fill="#fee2e2" stroke="#dc2626" d="M331,-94C331,-94 36,-94 36,-94 30,-94 24,-88 24,-82 24,-82 24,-70 24,-70 24,-64 30,-58 36,-58 36,-58 331,-58 331,-58 337,-58 343,-64 343,-70 343,-70 343,-82 343,-82 343,-88 337,-94 331,-94"/>
<text text-anchor="middle" x="183.5" y="-73.2" font-family="Helvetica,sans-Serif" font-size="11.00">JobSchedulerService$BatteryStateTracker.startTracking</text>
</g>
<!-- m::com.android.server.job.JobSchedulerService$BatteryStateTracker.startTracking:()V&#45;&gt;__field__ -->
<g id="edge2" class="edge">
<title>m::com.android.server.job.JobSchedulerService$BatteryStateTracker.startTracking:()V&#45;&gt;__field__</title>
<path fill="none" stroke="#dc2626" d="M343.19,-76C389.59,-76 440.33,-76 486.85,-76"/>
<polygon fill="#dc2626" stroke="#dc2626" points="486.88,-78.8 494.88,-76 486.88,-73.2 486.88,-78.8"/>
<text text-anchor="middle" x="431" y="-78.8" font-family="Helvetica,sans-Serif" font-size="9.00" fill="#dc2626"> writes unguarded</text>
</g>
<!-- m::com.android.server.job.JobSchedulerService$BatteryStateTracker.isConsideredCharging:()Z -->
<g id="node4" class="node">
<title>m::com.android.server.job.JobSchedulerService$BatteryStateTracker.isConsideredCharging:()Z</title>
<path fill="#fee2e2" stroke="#dc2626" d="M355,-36C355,-36 12,-36 12,-36 6,-36 0,-30 0,-24 0,-24 0,-12 0,-12 0,-6 6,0 12,0 12,0 355,0 355,0 361,0 367,-6 367,-12 367,-12 367,-24 367,-24 367,-30 361,-36 355,-36"/>
<text text-anchor="middle" x="183.5" y="-15.2" font-family="Helvetica,sans-Serif" font-size="11.00">JobSchedulerService$BatteryStateTracker.isConsideredCharging</text>
</g>
<!-- m::com.android.server.job.JobSchedulerService$BatteryStateTracker.isConsideredCharging:()Z&#45;&gt;__field__ -->
<g id="edge3" class="edge">
<title>m::com.android.server.job.JobSchedulerService$BatteryStateTracker.isConsideredCharging:()Z&#45;&gt;__field__</title>
<path fill="none" stroke="#dc2626" d="M328.46,-36.03C381.48,-42.68 441.69,-50.22 495.41,-56.95"/>
<polygon fill="#dc2626" stroke="#dc2626" points="495.34,-59.76 503.63,-57.98 496.04,-54.2 495.34,-59.76"/>
<text text-anchor="middle" x="431" y="-55.8" font-family="Helvetica,sans-Serif" font-size="9.00" fill="#dc2626"> reads unguarded</text>
</g>
</g>
</svg>
