<?xml version="1.0" encoding="UTF-8" standalone="no"?>
<!DOCTYPE svg PUBLIC "-//W3C//DTD SVG 1.1//EN"
 "http://www.w3.org/Graphics/SVG/1.1/DTD/svg11.dtd">
<!-- Generated by graphviz version 2.43.0 (0)
 -->
<!-- Title: race Pages: 1 -->
<svg width="601pt" height="184pt"
 viewBox="0.00 0.00 601.00 184.00" xmlns="http://www.w3.org/2000/svg" xmlns:xlink="http://www.w3.org/1999/xlink">
<g id="graph0" class="graph" transform="scale(1 1) rotate(0) translate(4 180)">
<title>race</title>
<polygon fill="white" stroke="transparent" points="-4,4 -4,-180 597,-180 597,4 -4,4"/>
<!-- __field__ -->
<g id="node1" class="node">
<title>__field__</title>
<path fill="#fef9c3" stroke="#ca8a04" stroke-width="2" d="M581,-102C581,-102 411,-102 411,-102 405,-102 399,-96 399,-90 399,-90 399,-78 399,-78 399,-72 405,-66 411,-66 411,-66 581,-66 581,-66 587,-66 593,-72 593,-78 593,-78 593,-90 593,-90 593,-96 587,-102 581,-102"/>
<text text-anchor="middle" x="496" y="-81.2" font-family="Helvetica,sans-Serif" font-size="11.00">UsbPortManager.mTransactionId</text>
</g>
<!-- __guard__ -->
<g id="node2" class="node">
<title>__guard__</title>
<path fill="#dcfce7" stroke="#16a34a" stroke-width="2" d="M196.5,-176C196.5,-176 74.5,-176 74.5,-176 68.5,-176 62.5,-170 62.5,-164 62.5,-164 62.5,-152 62.5,-152 62.5,-146 68.5,-140 74.5,-140 74.5,-140 196.5,-140 196.5,-140 202.5,-140 208.5,-146 208.5,-152 208.5,-152 208.5,-164 208.5,-164 208.5,-170 202.5,-176 196.5,-176"/>
<text text-anchor="middle" x="135.5" y="-155.2" font-family="Helvetica,sans-Serif" font-size="11.00">UsbPortManager.mLock</text>
</g>
<!-- __guard__&#45;&gt;__field__ -->
<g id="edge1" class="edge">
<title>__guard__&#45;&gt;__field__</title>
<path fill="none" stroke="#16a34a" stroke-width="1.6" d="M208.71,-144.51C256.53,-135.43 320.61,-122.96 377,-111 387.67,-108.74 398.86,-106.28 409.93,-103.81"/>
<polygon fill="#16a34a" stroke="#16a34a" stroke-width="1.6" points="410.77,-106.49 417.96,-102 409.54,-101.02 410.77,-106.49"/>
<text text-anchor="middle" x="335" y="-129.8" font-family="Helvetica,sans-Serif" font-size="9.00" fill="#15803d"> guards 4/6</text>
</g>
<!-- m::com.android.server.usb.UsbPortManager.enableContaminantDetection:(Ljava/lang/String;ZLcom/android/internal/util/IndentingPrintWriter;)V -->
<g id="node3" class="node">
<title>m::com.android.server.usb.UsbPortManager.enableContaminantDetection:(Ljava/lang/String;ZLcom/android/internal/util/IndentingPrintWriter;)V</title>
<path fill="#fee2e2" stroke="#dc2626" d="M259,-110C259,-110 12,-110 12,-110 6,-110 0,-104 0,-98 0,-98 0,-86 0,-86 0,-80 6,-74 12,-74 12,-74 259,-74 259,-74 265,-74 271,-80 271,-86 271,-86 271,-98 271,-98 271,-104 265,-110 259,-110"/>
<text text-anchor="middle" x="135.5" y="-89.2" font-family="Helvetica,sans-Serif" font-size="11.00">UsbPortManager.enableContaminantDetection</text>
</g>
<!-- m::com.android.server.usb.UsbPortManager.enableContaminantDetection:(Ljava/lang/String;ZLcom/android/internal/util/IndentingPrintWriter;)V&#45;&gt;__field__ -->
<g id="edge2" class="edge">
<title>m::com.android.server.usb.UsbPortManager.enableContaminantDetection:(Ljava/lang/String;ZLcom/android/internal/util/IndentingPrintWriter;)V&#45;&gt;__field__</title>
<path fill="none" stroke="#dc2626" d="M271.06,-96.48C305.6,-96.86 342.69,-96.6 377,-95 381.43,-94.79 385.95,-94.54 390.52,-94.26"/>
<polygon fill="#dc2626" stroke="#dc2626" points="390.98,-97.04 398.78,-93.71 390.61,-91.45 390.98,-97.04"/>
<text text-anchor="middle" x="335" y="-98.8" font-family="Helvetica,sans-Serif" font-size="9.00" fill="#dc2626"> writes unguarded</text>
</g>
<!-- m::com.android.server.usb.UsbPortManager.enableContaminantDetection:(Ljava/lang/String;ZLcom/android/internal/util/IndentingPrintWriter;)V&#45;&gt;__field__ -->
<g id="edge4" class="edge">
<title>m::com.android.server.usb.UsbPortManager.enableContaminantDetection:(Ljava/lang/String;ZLcom/android/internal/util/IndentingPrintWriter;)V&#45;&gt;__field__</title>
<path fill="none" stroke="#dc2626" d="M271.36,-84.67C278.68,-84.41 285.93,-84.18 293,-84 324.7,-83.19 359.21,-82.95 390.58,-82.98"/>
<polygon fill="#dc2626" stroke="#dc2626" points="390.91,-85.78 398.91,-83 390.92,-80.18 390.91,-85.78"/>
<text text-anchor="middle" x="335" y="-86.8" font-family="Helvetica,sans-Serif" font-size="9.00" fill="#dc2626"> reads unguarded</text>
</g>
<!-- m::com.android.server.usb.UsbPortManager.systemReady:()V -->
<g id="node4" class="node">
<title>m::com.android.server.usb.UsbPortManager.systemReady:()V</title>
<path fill="#fee2e2" stroke="#dc2626" d="M216,-36C216,-36 55,-36 55,-36 49,-36 43,-30 43,-24 43,-24 43,-12 43,-12 43,-6 49,0 55,0 55,0 216,0 216,0 222,0 228,-6 228,-12 228,-12 228,-24 228,-24 228,-30 222,-36 216,-36"/>
<text text-anchor="middle" x="135.5" y="-15.2" font-family="Helvetica,sans-Serif" font-size="11.00">UsbPortManager.systemReady</text>
</g>
<!-- m::com.android.server.usb.UsbPortManager.systemReady:()V&#45;&gt;__field__ -->
<g id="edge3" class="edge">
<title>m::com.android.server.usb.UsbPortManager.systemReady:()V&#45;&gt;__field__</title>
<path fill="none" stroke="#dc2626" d="M228.36,-34.91C277.98,-44.05 339.44,-55.36 390.84,-64.82"/>
<polygon fill="#dc2626" stroke="#dc2626" points="390.62,-67.63 399,-66.33 391.64,-62.12 390.62,-67.63"/>
<text text-anchor="middle" x="335" y="-62.8" font-family="Helvetica,sans-Serif" font-size="9.00" fill="#dc2626"> writes unguarded</text>
</g>
<!-- m::com.android.server.usb.UsbPortManager.systemReady:()V&#45;&gt;__field__ -->
<g id="edge5" class="edge">
<title>m::com.android.server.usb.UsbPortManager.systemReady:()V&#45;&gt;__field__</title>
<path fill="none" stroke="#dc2626" d="M228.13,-15.72C273.48,-16.5 328.72,-20.36 377,-32 404.18,-38.55 432.92,-51.09 455.23,-62.21"/>
<polygon fill="#dc2626" stroke="#dc2626" points="454.14,-64.79 462.54,-65.91 456.67,-59.8 454.14,-64.79"/>
<text text-anchor="middle" x="335" y="-34.8" font-family="Helvetica,sans-Serif" font-size="9.00" fill="#dc2626"> reads unguarded</text>
</g>
</g>
</svg>
