<?xml version="1.0" encoding="UTF-8" standalone="no"?>
<!DOCTYPE svg PUBLIC "-//W3C//DTD SVG 1.1//EN"
 "http://www.w3.org/Graphics/SVG/1.1/DTD/svg11.dtd">
<!-- Generated by graphviz version 2.43.0 (0)
 -->
<!-- Title: race Pages: 1 -->
<svg width="707pt" height="218pt"
 viewBox="0.00 0.00 707.00 218.00" xmlns="http://www.w3.org/2000/svg" xmlns:xlink="http://www.w3.org/1999/xlink">
<g id="graph0" class="graph" transform="scale(1 1) rotate(0) translate(4 214)">
<title>race</title>
<polygon fill="white" stroke="transparent" points="-4,4 -4,-214 703,-214 703,4 -4,4"/>
<!-- __field__ -->
<g id="node1" class="node">
<title>__field__</title>
<path fill="#fef9c3" stroke="#ca8a04" stroke-width="2" d="M687,-123C687,-123 447,-123 447,-123 441,-123 435,-117 435,-111 435,-111 435,-99 435,-99 435,-93 441,-87 447,-87 447,-87 687,-87 687,-87 693,-87 699,-93 699,-99 699,-99 699,-111 699,-111 699,-117 693,-123 687,-123"/>
<text text-anchor="middle" x="567" y="-102.2" font-family="Helvetica,sans-Serif" font-size="11.00">ActiveAdmin.mManagedProfileCallerIdAccess</text>
</g>
<!-- __guard__ -->
<g id="node2" class="node">
<title>__guard__</title>
<path fill="#dcfce7" stroke="#16a34a" stroke-width="2" d="M295,-210C295,-210 12,-210 12,-210 6,-210 0,-204 0,-198 0,-198 0,-186 0,-186 0,-180 6,-174 12,-174 12,-174 295,-174 295,-174 301,-174 307,-180 307,-186 307,-186 307,-198 307,-198 307,-204 301,-210 295,-210"/>
<text text-anchor="middle" x="153.5" y="-189.2" font-family="Helvetica,sans-Serif" font-size="11.00">DevicePolicyManagerService.mLockDoNoUseDirectly</text>
</g>
<!-- __guard__&#45;&gt;__field__ -->
<g id="edge1" class="edge">
<title>__guard__&#45;&gt;__field__</title>
<path fill="none" stroke="#16a34a" stroke-width="1.6" d="M251.81,-173.98C270.16,-170.45 289.19,-166.69 307,-163 365.04,-150.99 430.13,-136.4 480.55,-124.87"/>
<polygon fill="#16a34a" stroke="#16a34a" stroke-width="1.6" points="481.34,-127.56 488.51,-123.04 480.08,-122.1 481.34,-127.56"/>
<text text-anchor="middle" x="371" y="-159.8" font-family="Helvetica,sans-Serif" font-size="9.00" fill="#15803d"> guards 3/4</text>
</g>
<!-- m::com.android.server.devicepolicy.ActiveAdmin.readFromXml:(Lcom/android/modules/utils/TypedXmlPullParser;Z)V -->
<g id="node3" class="node">
<title>m::com.android.server.devicepolicy.ActiveAdmin.readFromXml:(Lcom/android/modules/utils/TypedXmlPullParser;Z)V</title>
<path fill="#fee2e2" stroke="#dc2626" d="M222.5,-152C222.5,-152 84.5,-152 84.5,-152 78.5,-152 72.5,-146 72.5,-140 72.5,-140 72.5,-128 72.5,-128 72.5,-122 78.5,-116 84.5,-116 84.5,-116 222.5,-116 222.5,-116 228.5,-116 234.5,-122 234.5,-128 234.5,-128 234.5,-140 234.5,-140 234.5,-146 228.5,-152 222.5,-152"/>
<text text-anchor="middle" x="153.5" y="-131.2" font-family="Helvetica,sans-Serif" font-size="11.00">ActiveAdmin.readFromXml</text>
</g>
<!-- m::com.android.server.devicepolicy.ActiveAdmin.readFromXml:(Lcom/android/modules/utils/TypedXmlPullParser;Z)V&#45;&gt;__field__ -->
<g id="edge2" class="edge">
<title>m::com.android.server.devicepolicy.ActiveAdmin.readFromXml:(Lcom/android/modules/utils/TypedXmlPullParser;Z)V&#45;&gt;__field__</title>
<path fill="none" stroke="#dc2626" d="M234.82,-128.34C289.32,-124.5 362.82,-119.32 426.73,-114.82"/>
<polygon fill="#dc2626" stroke="#dc2626" points="427.09,-117.6 434.87,-114.24 426.7,-112.01 427.09,-117.6"/>
<text text-anchor="middle" x="371" y="-123.8" font-family="Helvetica,sans-Serif" font-size="9.00" fill="#dc2626"> writes unguarded</text>
</g>
<!-- m::com.android.server.devicepolicy.ActiveAdmin.dump:(Landroid/util/IndentingPrintWriter;)V -->
<g id="node4" class="node">
<title>m::com.android.server.devicepolicy.ActiveAdmin.dump:(Landroid/util/IndentingPrintWriter;)V</title>
<path fill="#fee2e2" stroke="#dc2626" d="M201.5,-94C201.5,-94 105.5,-94 105.5,-94 99.5,-94 93.5,-88 93.5,-82 93.5,-82 93.5,-70 93.5,-70 93.5,-64 99.5,-58 105.5,-58 105.5,-58 201.5,-58 201.5,-58 207.5,-58 213.5,-64 213.5,-70 213.5,-70 213.5,-82 213.5,-82 213.5,-88 207.5,-94 201.5,-94"/>
<text text-anchor="middle" x="153.5" y="-73.2" font-family="Helvetica,sans-Serif" font-size="11.00">ActiveAdmin.dump</text>
</g>
<!-- m::com.android.server.devicepolicy.ActiveAdmin.dump:(Landroid/util/IndentingPrintWriter;)V&#45;&gt;__field__ -->
<g id="edge3" class="edge">
<title>m::com.android.server.devicepolicy.ActiveAdmin.dump:(Landroid/util/IndentingPrintWriter;)V&#45;&gt;__field__</title>
<path fill="none" stroke="#dc2626" d="M213.9,-80.19C269.3,-84.09 354.05,-90.06 426.52,-95.17"/>
<polygon fill="#dc2626" stroke="#dc2626" points="426.66,-97.99 434.84,-95.76 427.06,-92.4 426.66,-97.99"/>
<text text-anchor="middle" x="371" y="-95.8" font-family="Helvetica,sans-Serif" font-size="9.00" fill="#dc2626"> reads unguarded</text>
</g>
<!-- m::com.android.server.devicepolicy.ActiveAdmin.writeToXml:(Lcom/android/modules/utils/TypedXmlSerializer;)V -->
<g id="node5" class="node">
<title>m::com.android.server.devicepolicy.ActiveAdmin.writeToXml:(Lcom/android/modules/utils/TypedXmlSerializer;)V</title>
<path fill="#fee2e2" stroke="#dc2626" d="M216,-36C216,-36 91,-36 91,-36 85,-36 79,-30 79,-24 79,-24 79,-12 79,-12 79,-6 85,0 91,0 91,0 216,0 216,0 222,0 228,-6 228,-12 228,-12 228,-24 228,-24 228,-30 222,-36 216,-36"/>
<text text-anchor="middle" x="153.5" y="-15.2" font-family="Helvetica,sans-Serif" font-size="11.00">ActiveAdmin.writeToXml</text>
</g>
<!-- m::com.android.server.devicepolicy.ActiveAdmin.writeToXml:(Lcom/android/modules/utils/TypedXmlSerializer;)V&#45;&gt;__field__ -->
<g id="edge4" class="edge">
<title>m::com.android.server.devicepolicy.ActiveAdmin.writeToXml:(Lcom/android/modules/utils/TypedXmlSerializer;)V&#45;&gt;__field__</title>
<path fill="none" stroke="#dc2626" d="M228.28,-31.53C253.31,-36.25 281.4,-41.7 307,-47 365.04,-59.01 430.13,-73.6 480.55,-85.13"/>
<polygon fill="#dc2626" stroke="#dc2626" points="480.08,-87.9 488.51,-86.96 481.34,-82.44 480.08,-87.9"/>
<text text-anchor="middle" x="371" y="-70.8" font-family="Helvetica,sans-Serif" font-size="9.00" fill="#dc2626"> reads unguarded</text>
</g>
</g>
</svg>
