<?xml version="1.0" encoding="UTF-8" standalone="no"?>
<!DOCTYPE svg PUBLIC "-//W3C//DTD SVG 1.1//EN"
 "http://www.w3.org/Graphics/SVG/1.1/DTD/svg11.dtd">
<!-- Generated by graphviz version 2.43.0 (0)
 -->
<!-- Title: race Pages: 1 -->
<svg width="882pt" height="392pt"
 viewBox="0.00 0.00 882.00 392.00" xmlns="http://www.w3.org/2000/svg" xmlns:xlink="http://www.w3.org/1999/xlink">
<g id="graph0" class="graph" transform="scale(1 1) rotate(0) translate(4 388)">
<title>race</title>
<polygon fill="white" stroke="transparent" points="-4,4 -4,-388 878,-388 878,4 -4,4"/>
<!-- __field__ -->
<g id="node1" class="node">
<title>__field__</title>
<path fill="#fef9c3" stroke="#ca8a04" stroke-width="2" d="M862,-210C862,-210 565,-210 565,-210 559,-210 553,-204 553,-198 553,-198 553,-186 553,-186 553,-180 559,-174 565,-174 565,-174 862,-174 862,-174 868,-174 874,-180 874,-186 874,-186 874,-198 874,-198 874,-204 868,-210 862,-210"/>
<text text-anchor="middle" x="713.5" y="-189.2" font-family="Helvetica,sans-Serif" font-size="11.00">MagnificationConnectionManager.mConnectionWrapper</text>
</g>
<!-- __guard__ -->
<g id="node2" class="node">
<title>__guard__</title>
<path fill="#dcfce7" stroke="#16a34a" stroke-width="2" d="M291.5,-384C291.5,-384 133.5,-384 133.5,-384 127.5,-384 121.5,-378 121.5,-372 121.5,-372 121.5,-360 121.5,-360 121.5,-354 127.5,-348 133.5,-348 133.5,-348 291.5,-348 291.5,-348 297.5,-348 303.5,-354 303.5,-360 303.5,-360 303.5,-372 303.5,-372 303.5,-378 297.5,-384 291.5,-384"/>
<text text-anchor="middle" x="212.5" y="-363.2" font-family="Helvetica,sans-Serif" font-size="11.00">MagnificationController.mLock</text>
</g>
<!-- __guard__&#45;&gt;__field__ -->
<g id="edge1" class="edge">
<title>__guard__&#45;&gt;__field__</title>
<path fill="none" stroke="#16a34a" stroke-width="1.6" d="M303.75,-359.57C341.72,-355.35 386.05,-348.4 425,-337 522.1,-308.59 625.61,-247.88 677.92,-214.73"/>
<polygon fill="#16a34a" stroke="#16a34a" stroke-width="1.6" points="679.72,-216.91 684.96,-210.25 676.71,-212.19 679.72,-216.91"/>
<text text-anchor="middle" x="489" y="-331.8" font-family="Helvetica,sans-Serif" font-size="9.00" fill="#15803d"> guards 3/4</text>
</g>
<!-- m::com.android.server.accessibility.magnification.MagnificationConnectionManager.setConnection:(Landroid/view/accessibility/IMagnificationConnection;)V -->
<g id="node3" class="node">
<title>m::com.android.server.accessibility.magnification.MagnificationConnectionManager.setConnection:(Landroid/view/accessibility/IMagnificationConnection;)V</title>
<path fill="#fee2e2" stroke="#dc2626" d="M341,-326C341,-326 84,-326 84,-326 78,-326 72,-320 72,-314 72,-314 72,-302 72,-302 72,-296 78,-290 84,-290 84,-290 341,-290 341,-290 347,-290 353,-296 353,-302 353,-302 353,-314 353,-314 353,-320 347,-326 341,-326"/>
<text text-anchor="middle" x="212.5" y="-305.2" font-family="Helvetica,sans-Serif" font-size="11.00">MagnificationConnectionManager.setConnection</text>
</g>
<!-- m::com.android.server.accessibility.magnification.MagnificationConnectionManager.setConnection:(Landroid/view/accessibility/IMagnificationConnection;)V&#45;&gt;__field__ -->
<g id="edge2" class="edge">
<title>m::com.android.server.accessibility.magnification.MagnificationConnectionManager.setConnection:(Landroid/view/accessibility/IMagnificationConnection;)V&#45;&gt;__field__</title>
<path fill="none" stroke="#dc2626" d="M353.13,-292.03C377.21,-288.37 401.92,-284.04 425,-279 505.53,-261.41 596.22,-232.37 653.82,-212.73"/>
<polygon fill="#dc2626" stroke="#dc2626" points="655.07,-215.27 661.73,-210.03 653.25,-209.97 655.07,-215.27"/>
<text text-anchor="middle" x="489" y="-275.8" font-family="Helvetica,sans-Serif" font-size="9.00" fill="#dc2626"> writes unguarded</text>
</g>
<!-- m::com.android.server.accessibility.magnification.MagnificationConnectionManager.disableWindowMagnificationInternal:(ILandroid/view/accessibility/MagnificationAnimationCallback;)Z -->
<g id="node4" class="node">
<title>m::com.android.server.accessibility.magnification.MagnificationConnectionManager.disableWindowMagnificationInternal:(ILandroid/view/accessibility/MagnificationAnimationCallback;)Z</title>
<path fill="#fee2e2" stroke="#dc2626" d="M400.5,-268C400.5,-268 24.5,-268 24.5,-268 18.5,-268 12.5,-262 12.5,-256 12.5,-256 12.5,-244 12.5,-244 12.5,-238 18.5,-232 24.5,-232 24.5,-232 400.5,-232 400.5,-232 406.5,-232 412.5,-238 412.5,-244 412.5,-244 412.5,-256 412.5,-256 412.5,-262 406.5,-268 400.5,-268"/>
<text text-anchor="middle" x="212.5" y="-247.2" font-family="Helvetica,sans-Serif" font-size="11.00">MagnificationConnectionManager.disableWindowMagnificationInternal</text>
</g>
<!-- m::com.android.server.accessibility.magnification.MagnificationConnectionManager.disableWindowMagnificationInternal:(ILandroid/view/accessibility/MagnificationAnimationCallback;)Z&#45;&gt;__field__ -->
<g id="edge3" class="edge">
<title>m::com.android.server.accessibility.magnification.MagnificationConnectionManager.disableWindowMagnificationInternal:(ILandroid/view/accessibility/MagnificationAnimationCallback;)Z&#45;&gt;__field__</title>
<path fill="none" stroke="#dc2626" d="M368.65,-231.97C426.03,-225.3 491.22,-217.72 549.3,-210.97"/>
<polygon fill="#dc2626" stroke="#dc2626" points="549.82,-213.73 557.44,-210.02 549.17,-208.16 549.82,-213.73"/>
<text text-anchor="middle" x="489" y="-224.8" font-family="Helvetica,sans-Serif" font-size="9.00" fill="#dc2626"> reads unguarded</text>
</g>
<!-- m::com.android.server.accessibility.magnification.MagnificationConnectionManager.enableWindowMagnificationInternal:(IFFFFFLandroid/view/accessibility/MagnificationAnimationCallback;)Z -->
<g id="node5" class="node">
<title>m::com.android.server.accessibility.magnification.MagnificationConnectionManager.enableWindowMagnificationInternal:(IFFFFFLandroid/view/accessibility/MagnificationAnimationCallback;)Z</title>
<path fill="#fee2e2" stroke="#dc2626" d="M399.5,-210C399.5,-210 25.5,-210 25.5,-210 19.5,-210 13.5,-204 13.5,-198 13.5,-198 13.5,-186 13.5,-186 13.5,-180 19.5,-174 25.5,-174 25.5,-174 399.5,-174 399.5,-174 405.5,-174 411.5,-180 411.5,-186 411.5,-186 411.5,-198 411.5,-198 411.5,-204 405.5,-210 399.5,-210"/>
<text text-anchor="middle" x="212.5" y="-189.2" font-family="Helvetica,sans-Serif" font-size="11.00">MagnificationConnectionManager.enableWindowMagnificationInternal</text>
</g>
<!-- m::com.android.server.accessibility.magnification.MagnificationConnectionManager.enableWindowMagnificationInternal:(IFFFFFLandroid/view/accessibility/MagnificationAnimationCallback;)Z&#45;&gt;__field__ -->
<g id="edge4" class="edge">
<title>m::com.android.server.accessibility.magnification.MagnificationConnectionManager.enableWindowMagnificationInternal:(IFFFFFLandroid/view/accessibility/MagnificationAnimationCallback;)Z&#45;&gt;__field__</title>
<path fill="none" stroke="#dc2626" d="M411.79,-192C455.74,-192 501.89,-192 544.49,-192"/>
<polygon fill="#dc2626" stroke="#dc2626" points="544.68,-194.8 552.68,-192 544.68,-189.2 544.68,-194.8"/>
<text text-anchor="middle" x="489" y="-194.8" font-family="Helvetica,sans-Serif" font-size="9.00" fill="#dc2626"> reads unguarded</text>
</g>
<!-- m::com.android.server.accessibility.magnification.MagnificationConnectionManager.moveWindowMagnifierInternal:(IFF)Z -->
<g id="node6" class="node">
<title>m::com.android.server.accessibility.magnification.MagnificationConnectionManager.moveWindowMagnifierInternal:(IFF)Z</title>
<path fill="#fee2e2" stroke="#dc2626" d="M385,-152C385,-152 40,-152 40,-152 34,-152 28,-146 28,-140 28,-140 28,-128 28,-128 28,-122 34,-116 40,-116 40,-116 385,-116 385,-116 391,-116 397,-122 397,-128 397,-128 397,-140 397,-140 397,-146 391,-152 385,-152"/>
<text text-anchor="middle" x="212.5" y="-131.2" font-family="Helvetica,sans-Serif" font-size="11.00">MagnificationConnectionManager.moveWindowMagnifierInternal</text>
</g>
<!-- m::com.android.server.accessibility.magnification.MagnificationConnectionManager.moveWindowMagnifierInternal:(IFF)Z&#45;&gt;__field__ -->
<g id="edge5" class="edge">
<title>m::com.android.server.accessibility.magnification.MagnificationConnectionManager.moveWindowMagnifierInternal:(IFF)Z&#45;&gt;__field__</title>
<path fill="none" stroke="#dc2626" d="M368.65,-152.03C426.03,-158.7 491.22,-166.28 549.3,-173.03"/>
<polygon fill="#dc2626" stroke="#dc2626" points="549.17,-175.84 557.44,-173.98 549.82,-170.27 549.17,-175.84"/>
<text text-anchor="middle" x="489" y="-171.8" font-family="Helvetica,sans-Serif" font-size="9.00" fill="#dc2626"> reads unguarded</text>
</g>
<!-- m::com.android.server.accessibility.magnification.MagnificationConnectionManager.moveWindowMagnifierToPositionInternal:(IFFLandroid/view/accessibility/MagnificationAnimationCallback;)Z -->
<g id="node7" class="node">
<title>m::com.android.server.accessibility.magnification.MagnificationConnectionManager.moveWindowMagnifierToPositionInternal:(IFFLandroid/view/accessibility/MagnificationAnimationCallback;)Z</title>
<path fill="#fee2e2" stroke="#dc2626" d="M412,-94C412,-94 13,-94 13,-94 7,-94 1,-88 1,-82 1,-82 1,-70 1,-70 1,-64 7,-58 13,-58 13,-58 412,-58 412,-58 418,-58 424,-64 424,-70 424,-70 424,-82 424,-82 424,-88 418,-94 412,-94"/>
<text text-anchor="middle" x="212.5" y="-73.2" font-family="Helvetica,sans-Serif" font-size="11.00">MagnificationConnectionManager.moveWindowMagnifierToPositionInternal</text>
</g>
<!-- m::com.android.server.accessibility.magnification.MagnificationConnectionManager.moveWindowMagnifierToPositionInternal:(IFFLandroid/view/accessibility/MagnificationAnimationCallback;)Z&#45;&gt;__field__ -->
<g id="edge6" class="edge">
<title>m::com.android.server.accessibility.magnification.MagnificationConnectionManager.moveWindowMagnifierToPositionInternal:(IFFLandroid/view/accessibility/MagnificationAnimationCallback;)Z&#45;&gt;__field__</title>
<path fill="none" stroke="#dc2626" d="M366.21,-94.02C386.07,-97.21 406.08,-100.87 425,-105 505.53,-122.59 596.22,-151.63 653.82,-171.27"/>
<polygon fill="#dc2626" stroke="#dc2626" points="653.25,-174.03 661.73,-173.97 655.07,-168.73 653.25,-174.03"/>
<text text-anchor="middle" x="489" y="-133.8" font-family="Helvetica,sans-Serif" font-size="9.00" fill="#dc2626"> reads unguarded</text>
</g>
<!-- m::com.android.server.accessibility.magnification.MagnificationConnectionManager.setScaleForWindowMagnificationInternal:(IF)Z -->
<g id="node8" class="node">
<title>m::com.android.server.accessibility.magnification.MagnificationConnectionManager.setScaleForWindowMagnificationInternal:(IF)Z</title>
<path fill="#fee2e2" stroke="#dc2626" d="M413,-36C413,-36 12,-36 12,-36 6,-36 0,-30 0,-24 0,-24 0,-12 0,-12 0,-6 6,0 12,0 12,0 413,0 413,0 419,0 425,-6 425,-12 425,-12 425,-24 425,-24 425,-30 419,-36 413,-36"/>
<text text-anchor="middle" x="212.5" y="-15.2" font-family="Helvetica,sans-Serif" font-size="11.00">MagnificationConnectionManager.setScaleForWindowMagnificationInternal</text>
</g>
<!-- m::com.android.server.accessibility.magnification.MagnificationConnectionManager.setScaleForWindowMagnificationInternal:(IF)Z&#45;&gt;__field__ -->
<g id="edge7" class="edge">
<title>m::com.android.server.accessibility.magnification.MagnificationConnectionManager.setScaleForWindowMagnificationInternal:(IF)Z&#45;&gt;__field__</title>
<path fill="none" stroke="#dc2626" d="M379.28,-36.04C394.86,-39.14 410.31,-42.76 425,-47 522.47,-75.11 626.22,-136.22 678.37,-169.43"/>
<polygon fill="#dc2626" stroke="#dc2626" points="677.13,-171.96 685.38,-173.92 680.15,-167.25 677.13,-171.96"/>
<text text-anchor="middle" x="489" y="-86.8" font-family="Helvetica,sans-Serif" font-size="9.00" fill="#dc2626"> reads unguarded</text>
</g>
</g>
</svg>
