<?xml version="1.0" encoding="UTF-8" standalone="no"?>
<!DOCTYPE svg PUBLIC "-//W3C//DTD SVG 1.1//EN"
 "http://www.w3.org/Graphics/SVG/1.1/DTD/svg11.dtd">
<!-- Generated by graphviz version 2.43.0 (0)
 -->
<!-- Title: race Pages: 1 -->
<svg width="650pt" height="160pt"
 viewBox="0.00 0.00 650.00 160.00" xmlns="http://www.w3.org/2000/svg" xmlns:xlink="http://www.w3.org/1999/xlink">
<g id="graph0" class="graph" transform="scale(1 1) rotate(0) translate(4 156)">
<title>race</title>
<polygon fill="white" stroke="transparent" points="-4,4 -4,-156 646,-156 646,4 -4,4"/>
<!-- __field__ -->
<g id="node1" class="node">
<title>__field__</title>
<path fill="#fef9c3" stroke="#ca8a04" stroke-width="2" d="M630,-94C630,-94 409,-94 409,-94 403,-94 397,-88 397,-82 397,-82 397,-70 397,-70 397,-64 403,-58 409,-58 409,-58 630,-58 630,-58 636,-58 642,-64 642,-70 642,-70 642,-82 642,-82 642,-88 636,-94 630,-94"/>
<text text-anchor="middle" x="519.5" y="-73.2" font-family="Helvetica,sans-Serif" font-size="11.00">JobServiceContext.mRunningJobWorkType</text>
</g>
<!-- __guard__ -->
<g id="node2" class="node">
<title>__guard__</title>
<path fill="#dcfce7" stroke="#16a34a" stroke-width="2" d="M206,-152C206,-152 63,-152 63,-152 57,-152 51,-146 51,-140 51,-140 51,-128 51,-128 51,-122 57,-116 63,-116 63,-116 206,-116 206,-116 212,-116 218,-122 218,-128 218,-128 218,-140 218,-140 218,-146 212,-152 206,-152"/>
<text text-anchor="middle" x="134.5" y="-131.2" font-family="Helvetica,sans-Serif" font-size="11.00">JobSchedulerService.mLock</text>
</g>
<!-- __guard__&#45;&gt;__field__ -->
<g id="edge1" class="edge">
<title>__guard__&#45;&gt;__field__</title>
<path fill="none" stroke="#16a34a" stroke-width="1.6" d="M218.13,-121.49C268.65,-113.84 334.29,-103.9 391.32,-95.26"/>
<polygon fill="#16a34a" stroke="#16a34a" stroke-width="1.6" points="391.82,-98.02 399.31,-94.05 390.98,-92.48 391.82,-98.02"/>
<text text-anchor="middle" x="333" y="-112.8" font-family="Helvetica,sans-Serif" font-size="9.00" fill="#15803d"> guards 2/3</text>
</g>
<!-- m::com.android.server.job.JobServiceContext.closeAndCleanupJobLocked:(ZLjava/lang/String;)V -->
<g id="node3" class="node">
<title>m::com.android.server.job.JobServiceContext.closeAndCleanupJobLocked:(ZLjava/lang/String;)V</title>
<path fill="#fee2e2" stroke="#dc2626" d="M257,-94C257,-94 12,-94 12,-94 6,-94 0,-88 0,-82 0,-82 0,-70 0,-70 0,-64 6,-58 12,-58 12,-58 257,-58 257,-58 263,-58 269,-64 269,-70 269,-70 269,-82 269,-82 269,-88 263,-94 257,-94"/>
<text text-anchor="middle" x="134.5" y="-73.2" font-family="Helvetica,sans-Serif" font-size="11.00">JobServiceContext.closeAndCleanupJobLocked</text>
</g>
<!-- m::com.android.server.job.JobServiceContext.closeAndCleanupJobLocked:(ZLjava/lang/String;)V&#45;&gt;__field__ -->
<g id="edge2" class="edge">
<title>m::com.android.server.job.JobServiceContext.closeAndCleanupJobLocked:(ZLjava/lang/String;)V&#45;&gt;__field__</title>
<path fill="none" stroke="#dc2626" d="M269.19,-76C307.97,-76 350.24,-76 388.78,-76"/>
<polygon fill="#dc2626" stroke="#dc2626" points="388.94,-78.8 396.94,-76 388.94,-73.2 388.94,-78.8"/>
<text text-anchor="middle" x="333" y="-78.8" font-family="Helvetica,sans-Serif" font-size="9.00" fill="#dc2626"> writes unguarded</text>
</g>
<!-- m::com.android.server.job.JobServiceContext.closeAndCleanupJobLocked:(ZLjava/lang/String;)V&#45;&gt;__field__ -->
<g id="edge3" class="edge">
<title>m::com.android.server.job.JobServiceContext.closeAndCleanupJobLocked:(ZLjava/lang/String;)V&#45;&gt;__field__</title>
<path fill="none" stroke="#dc2626" d="M269.04,-62.28C276.46,-61.78 283.82,-61.35 291,-61 328.29,-59.21 337.72,-59.06 375,-61 379.46,-61.23 383.99,-61.5 388.56,-61.81"/>
<polygon fill="#dc2626" stroke="#dc2626" points="388.65,-64.62 396.83,-62.4 389.05,-59.04 388.65,-64.62"/>
<text text-anchor="middle" x="333" y="-63.8" font-family="Helvetica,sans-Serif" font-size="9.00" fill="#dc2626"> reads unguarded</text>
</g>
<!-- m::com.android.server.job.JobServiceContext.getRunningJobWorkType:()I -->
<g id="node4" class="node">
<title>m::com.android.server.job.JobServiceContext.getRunningJobWorkType:()I</title>
<path fill="#fee2e2" stroke="#dc2626" d="M249,-36C249,-36 20,-36 20,-36 14,-36 8,-30 8,-24 8,-24 8,-12 8,-12 8,-6 14,0 20,0 20,0 249,0 249,0 255,0 261,-6 261,-12 261,-12 261,-24 261,-24 261,-30 255,-36 249,-36"/>
<text text-anchor="middle" x="134.5" y="-15.2" font-family="Helvetica,sans-Serif" font-size="11.00">JobServiceContext.getRunningJobWorkType</text>
</g>
<!-- m::com.android.server.job.JobServiceContext.getRunningJobWorkType:()I&#45;&gt;__field__ -->
<g id="edge4" class="edge">
<title>m::com.android.server.job.JobServiceContext.getRunningJobWorkType:()I&#45;&gt;__field__</title>
<path fill="none" stroke="#dc2626" d="M261.09,-28.98C297.91,-32.91 338.17,-37.91 375,-44 395.23,-47.34 416.9,-51.74 437.1,-56.2"/>
<polygon fill="#dc2626" stroke="#dc2626" points="436.65,-58.97 445.07,-57.98 437.87,-53.5 436.65,-58.97"/>
<text text-anchor="middle" x="333" y="-46.8" font-family="Helvetica,sans-Serif" font-size="9.00" fill="#dc2626"> reads unguarded</text>
</g>
</g>
</svg>
