<?xml version="1.0" encoding="UTF-8" standalone="no"?>
<!DOCTYPE svg PUBLIC "-//W3C//DTD SVG 1.1//EN"
 "http://www.w3.org/Graphics/SVG/1.1/DTD/svg11.dtd">
<!-- Generated by graphviz version 2.43.0 (0)
 -->
<!-- Title: race Pages: 1 -->
<svg width="616pt" height="160pt"
 viewBox="0.00 0.00 616.00 160.00" xmlns="http://www.w3.org/2000/svg" xmlns:xlink="http://www.w3.org/1999/xlink">
<g id="graph0" class="graph" transform="scale(1 1) rotate(0) translate(4 156)">
<title>race</title>
<polygon fill="white" stroke="transparent" points="-4,4 -4,-156 612,-156 612,4 -4,4"/>
<!-- __field__ -->
<g id="node1" class="node">
<title>__field__</title>
<path fill="#fef9c3" stroke="#ca8a04" stroke-width="2" d="M596,-94C596,-94 411,-94 411,-94 405,-94 399,-88 399,-82 399,-82 399,-70 399,-70 399,-64 405,-58 411,-58 411,-58 596,-58 596,-58 602,-58 608,-64 608,-70 608,-70 608,-82 608,-82 608,-88 602,-94 596,-94"/>
<text text-anchor="middle" x="503.5" y="-73.2" font-family="Helvetica,sans-Serif" font-size="11.00">LocalEventLog.mModificationCount</text>
</g>
<!-- __guard__ -->
<g id="node2" class="node">
<title>__guard__</title>
<path fill="#dcfce7" stroke="#16a34a" stroke-width="2" d="M197.5,-152C197.5,-152 73.5,-152 73.5,-152 67.5,-152 61.5,-146 61.5,-140 61.5,-140 61.5,-128 61.5,-128 61.5,-122 67.5,-116 73.5,-116 73.5,-116 197.5,-116 197.5,-116 203.5,-116 209.5,-122 209.5,-128 209.5,-128 209.5,-140 209.5,-140 209.5,-146 203.5,-152 197.5,-152"/>
<text text-anchor="middle" x="135.5" y="-131.2" font-family="Helvetica,sans-Serif" font-size="11.00">eventlog.LocalEventLog</text>
</g>
<!-- __guard__&#45;&gt;__field__ -->
<g id="edge1" class="edge">
<title>__guard__&#45;&gt;__field__</title>
<path fill="none" stroke="#16a34a" stroke-width="1.6" d="M209.69,-122.4C261.49,-114.19 331.92,-103.03 390.72,-93.71"/>
<polygon fill="#16a34a" stroke="#16a34a" stroke-width="1.6" points="391.48,-96.43 398.94,-92.41 390.6,-90.9 391.48,-96.43"/>
<text text-anchor="middle" x="335" y="-110.8" font-family="Helvetica,sans-Serif" font-size="9.00" fill="#15803d"> guards 2/3</text>
</g>
<!-- m::com.android.server.location.eventlog.LocalEventLog.addLogEventInternal:(ZILjava/lang/Object;)V -->
<g id="node3" class="node">
<title>m::com.android.server.location.eventlog.LocalEventLog.addLogEventInternal:(ZILjava/lang/Object;)V</title>
<path fill="#fee2e2" stroke="#dc2626" d="M230,-94C230,-94 41,-94 41,-94 35,-94 29,-88 29,-82 29,-82 29,-70 29,-70 29,-64 35,-58 41,-58 41,-58 230,-58 230,-58 236,-58 242,-64 242,-70 242,-70 242,-82 242,-82 242,-88 236,-94 230,-94"/>
<text text-anchor="middle" x="135.5" y="-73.2" font-family="Helvetica,sans-Serif" font-size="11.00">LocalEventLog.addLogEventInternal</text>
</g>
<!-- m::com.android.server.location.eventlog.LocalEventLog.addLogEventInternal:(ZILjava/lang/Object;)V&#45;&gt;__field__ -->
<g id="edge2" class="edge">
<title>m::com.android.server.location.eventlog.LocalEventLog.addLogEventInternal:(ZILjava/lang/Object;)V&#45;&gt;__field__</title>
<path fill="none" stroke="#dc2626" d="M242.36,-76C288.86,-76 343.5,-76 390.66,-76"/>
<polygon fill="#dc2626" stroke="#dc2626" points="390.77,-78.8 398.77,-76 390.77,-73.2 390.77,-78.8"/>
<text text-anchor="middle" x="335" y="-78.8" font-family="Helvetica,sans-Serif" font-size="9.00" fill="#dc2626"> writes unguarded</text>
</g>
<!-- m::com.android.server.location.eventlog.LocalEventLog.addLogEventInternal:(ZILjava/lang/Object;)V&#45;&gt;__field__ -->
<g id="edge4" class="edge">
<title>m::com.android.server.location.eventlog.LocalEventLog.addLogEventInternal:(ZILjava/lang/Object;)V&#45;&gt;__field__</title>
<path fill="none" stroke="#dc2626" d="M242.15,-63.85C284.12,-60.47 332.84,-58.37 377,-61 381.45,-61.26 385.98,-61.58 390.56,-61.94"/>
<polygon fill="#dc2626" stroke="#dc2626" points="390.63,-64.76 398.83,-62.63 391.09,-59.18 390.63,-64.76"/>
<text text-anchor="middle" x="335" y="-63.8" font-family="Helvetica,sans-Serif" font-size="9.00" fill="#dc2626"> reads unguarded</text>
</g>
<!-- m::com.android.server.location.eventlog.LocalEventLog$LogIterator.checkModifications:()V -->
<g id="node4" class="node">
<title>m::com.android.server.location.eventlog.LocalEventLog$LogIterator.checkModifications:()V</title>
<path fill="#fee2e2" stroke="#dc2626" d="M259,-36C259,-36 12,-36 12,-36 6,-36 0,-30 0,-24 0,-24 0,-12 0,-12 0,-6 6,0 12,0 12,0 259,0 259,0 265,0 271,-6 271,-12 271,-12 271,-24 271,-24 271,-30 265,-36 259,-36"/>
<text text-anchor="middle" x="135.5" y="-15.2" font-family="Helvetica,sans-Serif" font-size="11.00">LocalEventLog$LogIterator.checkModifications</text>
</g>
<!-- m::com.android.server.location.eventlog.LocalEventLog$LogIterator.checkModifications:()V&#45;&gt;__field__ -->
<g id="edge3" class="edge">
<title>m::com.android.server.location.eventlog.LocalEventLog$LogIterator.checkModifications:()V&#45;&gt;__field__</title>
<path fill="none" stroke="#dc2626" d="M271.18,-29.15C305.81,-32.95 342.9,-37.84 377,-44 394.65,-47.19 413.49,-51.5 431.06,-55.92"/>
<polygon fill="#dc2626" stroke="#dc2626" points="430.6,-58.69 439.04,-57.95 431.98,-53.26 430.6,-58.69"/>
<text text-anchor="middle" x="335" y="-46.8" font-family="Helvetica,sans-Serif" font-size="9.00" fill="#dc2626"> reads unguarded</text>
</g>
</g>
</svg>
