<?xml version="1.0" encoding="UTF-8" standalone="no"?>
<!DOCTYPE svg PUBLIC "-//W3C//DTD SVG 1.1//EN"
 "http://www.w3.org/Graphics/SVG/1.1/DTD/svg11.dtd">
<!-- Generated by graphviz version 2.43.0 (0)
 -->
<!-- Title: race Pages: 1 -->
<svg width="982pt" height="160pt"
 viewBox="0.00 0.00 982.00 160.00" xmlns="http://www.w3.org/2000/svg" xmlns:xlink="http://www.w3.org/1999/xlink">
<g id="graph0" class="graph" transform="scale(1 1) rotate(0) translate(4 156)">
<title>race</title>
<polygon fill="white" stroke="transparent" points="-4,4 -4,-156 978,-156 978,4 -4,4"/>
<!-- __field__ -->
<g id="node1" class="node">
<title>__field__</title>
<path fill="#fef9c3" stroke="#ca8a04" stroke-width="2" d="M962,-94C962,-94 611,-94 611,-94 605,-94 599,-88 599,-82 599,-82 599,-70 599,-70 599,-64 605,-58 611,-58 611,-58 962,-58 962,-58 968,-58 974,-64 974,-70 974,-70 974,-82 974,-82 974,-88 968,-94 962,-94"/>
<text text-anchor="middle" x="786.5" y="-73.2" font-family="Helvetica,sans-Serif" font-size="11.00">AutofillInlineSuggestionsRequestSession.mImeSessionInvalidated</text>
</g>
<!-- __guard__ -->
<g id="node2" class="node">
<title>__guard__</title>
<path fill="#dcfce7" stroke="#16a34a" stroke-width="2" d="M332.5,-152C332.5,-152 138.5,-152 138.5,-152 132.5,-152 126.5,-146 126.5,-140 126.5,-140 126.5,-128 126.5,-128 126.5,-122 132.5,-116 138.5,-116 138.5,-116 332.5,-116 332.5,-116 338.5,-116 344.5,-122 344.5,-128 344.5,-128 344.5,-140 344.5,-140 344.5,-146 338.5,-152 332.5,-152"/>
<text text-anchor="middle" x="235.5" y="-131.2" font-family="Helvetica,sans-Serif" font-size="11.00">AutofillInlineSessionController.mLock</text>
</g>
<!-- __guard__&#45;&gt;__field__ -->
<g id="edge1" class="edge">
<title>__guard__&#45;&gt;__field__</title>
<path fill="none" stroke="#16a34a" stroke-width="1.6" d="M344.64,-122.58C419.31,-114.69 520.35,-104.01 606.86,-94.87"/>
<polygon fill="#16a34a" stroke="#16a34a" stroke-width="1.6" points="607.26,-97.65 614.92,-94.02 606.67,-92.08 607.26,-97.65"/>
<text text-anchor="middle" x="535" y="-108.8" font-family="Helvetica,sans-Serif" font-size="9.00" fill="#15803d"> guards 2/3</text>
</g>
<!-- m::com.android.server.autofill.AutofillInlineSuggestionsRequestSession.onCreateInlineSuggestionsRequestLocked:()V -->
<g id="node3" class="node">
<title>m::com.android.server.autofill.AutofillInlineSuggestionsRequestSession.onCreateInlineSuggestionsRequestLocked:()V</title>
<path fill="#fee2e2" stroke="#dc2626" d="M459,-94C459,-94 12,-94 12,-94 6,-94 0,-88 0,-82 0,-82 0,-70 0,-70 0,-64 6,-58 12,-58 12,-58 459,-58 459,-58 465,-58 471,-64 471,-70 471,-70 471,-82 471,-82 471,-88 465,-94 459,-94"/>
<text text-anchor="middle" x="235.5" y="-73.2" font-family="Helvetica,sans-Serif" font-size="11.00">AutofillInlineSuggestionsRequestSession.onCreateInlineSuggestionsRequestLocked</text>
</g>
<!-- m::com.android.server.autofill.AutofillInlineSuggestionsRequestSession.onCreateInlineSuggestionsRequestLocked:()V&#45;&gt;__field__ -->
<g id="edge2" class="edge">
<title>m::com.android.server.autofill.AutofillInlineSuggestionsRequestSession.onCreateInlineSuggestionsRequestLocked:()V&#45;&gt;__field__</title>
<path fill="none" stroke="#dc2626" d="M471.32,-76C511.15,-76 552.12,-76 590.78,-76"/>
<polygon fill="#dc2626" stroke="#dc2626" points="590.99,-78.8 598.99,-76 590.99,-73.2 590.99,-78.8"/>
<text text-anchor="middle" x="535" y="-78.8" font-family="Helvetica,sans-Serif" font-size="9.00" fill="#dc2626"> writes unguarded</text>
</g>
<!-- m::com.android.server.autofill.AutofillInlineSuggestionsRequestSession.onInlineSuggestionsResponseLocked:(Lcom/android/server/autofill/ui/InlineFillUi;)Z -->
<g id="node4" class="node">
<title>m::com.android.server.autofill.AutofillInlineSuggestionsRequestSession.onInlineSuggestionsResponseLocked:(Lcom/android/server/autofill/ui/InlineFillUi;)Z</title>
<path fill="#fee2e2" stroke="#dc2626" d="M445,-36C445,-36 26,-36 26,-36 20,-36 14,-30 14,-24 14,-24 14,-12 14,-12 14,-6 20,0 26,0 26,0 445,0 445,0 451,0 457,-6 457,-12 457,-12 457,-24 457,-24 457,-30 451,-36 445,-36"/>
<text text-anchor="middle" x="235.5" y="-15.2" font-family="Helvetica,sans-Serif" font-size="11.00">AutofillInlineSuggestionsRequestSession.onInlineSuggestionsResponseLocked</text>
</g>
<!-- m::com.android.server.autofill.AutofillInlineSuggestionsRequestSession.onInlineSuggestionsResponseLocked:(Lcom/android/server/autofill/ui/InlineFillUi;)Z&#45;&gt;__field__ -->
<g id="edge3" class="edge">
<title>m::com.android.server.autofill.AutofillInlineSuggestionsRequestSession.onInlineSuggestionsResponseLocked:(Lcom/android/server/autofill/ui/InlineFillUi;)Z&#45;&gt;__field__</title>
<path fill="none" stroke="#dc2626" d="M407.2,-36.03C470.59,-42.73 542.64,-50.34 606.73,-57.11"/>
<polygon fill="#dc2626" stroke="#dc2626" points="606.66,-59.92 614.91,-57.98 607.25,-54.35 606.66,-59.92"/>
<text text-anchor="middle" x="535" y="-55.8" font-family="Helvetica,sans-Serif" font-size="9.00" fill="#dc2626"> reads unguarded</text>
</g>
</g>
</svg>
