<?xml version="1.0" encoding="UTF-8" standalone="no"?>
<!DOCTYPE svg PUBLIC "-//W3C//DTD SVG 1.1//EN"
 "http://www.w3.org/Graphics/SVG/1.1/DTD/svg11.dtd">
<!-- Generated by graphviz version 2.43.0 (0)
 -->
<!-- Title: race Pages: 1 -->
<svg width="770pt" height="192pt"
 viewBox="0.00 0.00 770.00 192.00" xmlns="http://www.w3.org/2000/svg" xmlns:xlink="http://www.w3.org/1999/xlink">
<g id="graph0" class="graph" transform="scale(1 1) rotate(0) translate(4 188)">
<title>race</title>
<polygon fill="white" stroke="transparent" points="-4,4 -4,-188 766,-188 766,4 -4,4"/>
<!-- __field__ -->
<g id="node1" class="node">
<title>__field__</title>
<path fill="#fef9c3" stroke="#ca8a04" stroke-width="2" d="M750,-110C750,-110 475,-110 475,-110 469,-110 463,-104 463,-98 463,-98 463,-86 463,-86 463,-80 469,-74 475,-74 475,-74 750,-74 750,-74 756,-74 762,-80 762,-86 762,-86 762,-98 762,-98 762,-104 756,-110 750,-110"/>
<text text-anchor="middle" x="612.5" y="-89.2" font-family="Helvetica,sans-Serif" font-size="11.00">BatteryStatsImpl.mDischargeScreenOnUnplugLevel</text>
</g>
<!-- __guard__ -->
<g id="node2" class="node">
<title>__guard__</title>
<path fill="#dcfce7" stroke="#16a34a" stroke-width="2" d="M226,-184C226,-184 109,-184 109,-184 103,-184 97,-178 97,-172 97,-172 97,-160 97,-160 97,-154 103,-148 109,-148 109,-148 226,-148 226,-148 232,-148 238,-154 238,-160 238,-160 238,-172 238,-172 238,-178 232,-184 226,-184"/>
<text text-anchor="middle" x="167.5" y="-163.2" font-family="Helvetica,sans-Serif" font-size="11.00">stats.BatteryStatsImpl</text>
</g>
<!-- __guard__&#45;&gt;__field__ -->
<g id="edge1" class="edge">
<title>__guard__&#45;&gt;__field__</title>
<path fill="none" stroke="#16a34a" stroke-width="1.6" d="M238.21,-154.36C306.99,-142.87 413.41,-125.09 495.05,-111.45"/>
<polygon fill="#16a34a" stroke="#16a34a" stroke-width="1.6" points="495.94,-114.14 503.37,-110.06 495.02,-108.62 495.94,-114.14"/>
<text text-anchor="middle" x="399" y="-135.8" font-family="Helvetica,sans-Serif" font-size="9.00" fill="#15803d"> guards 6/9</text>
</g>
<!-- m::com.android.server.power.stats.BatteryStatsImpl.updateNewDischargeScreenLevelLocked:(I)V -->
<g id="node3" class="node">
<title>m::com.android.server.power.stats.BatteryStatsImpl.updateNewDischargeScreenLevelLocked:(I)V</title>
<path fill="#fee2e2" stroke="#dc2626" d="M323,-110C323,-110 12,-110 12,-110 6,-110 0,-104 0,-98 0,-98 0,-86 0,-86 0,-80 6,-74 12,-74 12,-74 323,-74 323,-74 329,-74 335,-80 335,-86 335,-86 335,-98 335,-98 335,-104 329,-110 323,-110"/>
<text text-anchor="middle" x="167.5" y="-89.2" font-family="Helvetica,sans-Serif" font-size="11.00">BatteryStatsImpl.updateNewDischargeScreenLevelLocked</text>
</g>
<!-- m::com.android.server.power.stats.BatteryStatsImpl.updateNewDischargeScreenLevelLocked:(I)V&#45;&gt;__field__ -->
<g id="edge2" class="edge">
<title>m::com.android.server.power.stats.BatteryStatsImpl.updateNewDischargeScreenLevelLocked:(I)V&#45;&gt;__field__</title>
<path fill="none" stroke="#dc2626" d="M335.29,-102.57C370.21,-103.71 406.81,-104.1 441,-103 445.45,-102.86 449.96,-102.69 454.51,-102.51"/>
<polygon fill="#dc2626" stroke="#dc2626" points="454.87,-105.3 462.75,-102.16 454.63,-99.7 454.87,-105.3"/>
<text text-anchor="middle" x="399" y="-105.8" font-family="Helvetica,sans-Serif" font-size="9.00" fill="#dc2626"> writes unguarded</text>
</g>
<!-- m::com.android.server.power.stats.BatteryStatsImpl.updateNewDischargeScreenLevelLocked:(I)V&#45;&gt;__field__ -->
<g id="edge3" class="edge">
<title>m::com.android.server.power.stats.BatteryStatsImpl.updateNewDischargeScreenLevelLocked:(I)V&#45;&gt;__field__</title>
<path fill="none" stroke="#dc2626" d="M335.03,-92C374.21,-92 415.83,-92 454.57,-92"/>
<polygon fill="#dc2626" stroke="#dc2626" points="454.79,-94.8 462.79,-92 454.79,-89.2 454.79,-94.8"/>
<text text-anchor="middle" x="399" y="-94.8" font-family="Helvetica,sans-Serif" font-size="9.00" fill="#dc2626"> writes unguarded</text>
</g>
<!-- m::com.android.server.power.stats.BatteryStatsImpl.updateNewDischargeScreenLevelLocked:(I)V&#45;&gt;__field__ -->
<g id="edge4" class="edge">
<title>m::com.android.server.power.stats.BatteryStatsImpl.updateNewDischargeScreenLevelLocked:(I)V&#45;&gt;__field__</title>
<path fill="none" stroke="#dc2626" d="M335.28,-77.59C370.2,-76.04 406.8,-75.5 441,-77 445.45,-77.2 449.97,-77.42 454.53,-77.67"/>
<polygon fill="#dc2626" stroke="#dc2626" points="454.62,-80.48 462.77,-78.14 454.94,-74.89 454.62,-80.48"/>
<text text-anchor="middle" x="399" y="-79.8" font-family="Helvetica,sans-Serif" font-size="9.00" fill="#dc2626"> writes unguarded</text>
</g>
<!-- m::com.android.server.power.stats.BatteryStatsImpl.updateOldDischargeScreenLevelLocked:(I)V -->
<g id="node4" class="node">
<title>m::com.android.server.power.stats.BatteryStatsImpl.updateOldDischargeScreenLevelLocked:(I)V</title>
<path fill="#fee2e2" stroke="#dc2626" d="M320.5,-36C320.5,-36 14.5,-36 14.5,-36 8.5,-36 2.5,-30 2.5,-24 2.5,-24 2.5,-12 2.5,-12 2.5,-6 8.5,0 14.5,0 14.5,0 320.5,0 320.5,0 326.5,0 332.5,-6 332.5,-12 332.5,-12 332.5,-24 332.5,-24 332.5,-30 326.5,-36 320.5,-36"/>
<text text-anchor="middle" x="167.5" y="-15.2" font-family="Helvetica,sans-Serif" font-size="11.00">BatteryStatsImpl.updateOldDischargeScreenLevelLocked</text>
</g>
<!-- m::com.android.server.power.stats.BatteryStatsImpl.updateOldDischargeScreenLevelLocked:(I)V&#45;&gt;__field__ -->
<g id="edge5" class="edge">
<title>m::com.android.server.power.stats.BatteryStatsImpl.updateOldDischargeScreenLevelLocked:(I)V&#45;&gt;__field__</title>
<path fill="none" stroke="#dc2626" d="M286.63,-36.03C334.58,-43.5 390.48,-52.42 441,-61 462.27,-64.61 484.99,-68.63 506.7,-72.55"/>
<polygon fill="#dc2626" stroke="#dc2626" points="506.27,-75.32 514.64,-73.98 507.27,-69.8 506.27,-75.32"/>
<text text-anchor="middle" x="399" y="-63.8" font-family="Helvetica,sans-Serif" font-size="9.00" fill="#dc2626"> reads unguarded</text>
</g>
</g>
</svg>
