<?xml version="1.0" encoding="UTF-8" standalone="no"?>
<!DOCTYPE svg PUBLIC "-//W3C//DTD SVG 1.1//EN"
 "http://www.w3.org/Graphics/SVG/1.1/DTD/svg11.dtd">
<!-- Generated by graphviz version 2.43.0 (0)
 -->
<!-- Title: race Pages: 1 -->
<svg width="657pt" height="102pt"
 viewBox="0.00 0.00 657.00 102.00" xmlns="http://www.w3.org/2000/svg" xmlns:xlink="http://www.w3.org/1999/xlink">
<g id="graph0" class="graph" transform="scale(1 1) rotate(0) translate(4 98)">
<title>race</title>
<polygon fill="white" stroke="transparent" points="-4,4 -4,-98 653,-98 653,4 -4,4"/>
<!-- __field__ -->
<g id="node1" class="node">
<title>__field__</title>
<path fill="#fef9c3" stroke="#ca8a04" stroke-width="2" d="M637,-65C637,-65 343,-65 343,-65 337,-65 331,-59 331,-53 331,-53 331,-41 331,-41 331,-35 337,-29 343,-29 343,-29 637,-29 637,-29 643,-29 649,-35 649,-41 649,-41 649,-53 649,-53 649,-59 643,-65 637,-65"/>
<text text-anchor="middle" x="490" y="-44.2" font-family="Helvetica,sans-Serif" font-size="11.00">ProcessList$ProcStateMemTracker.mPendingMemState</text>
</g>
<!-- __guard__ -->
<g id="node2" class="node">
<title>__guard__</title>
<path fill="#dcfce7" stroke="#16a34a" stroke-width="2" d="M166.5,-94C166.5,-94 36.5,-94 36.5,-94 30.5,-94 24.5,-88 24.5,-82 24.5,-82 24.5,-70 24.5,-70 24.5,-64 30.5,-58 36.5,-58 36.5,-58 166.5,-58 166.5,-58 172.5,-58 178.5,-64 178.5,-70 178.5,-70 178.5,-82 178.5,-82 178.5,-88 172.5,-94 166.5,-94"/>
<text text-anchor="middle" x="101.5" y="-73.2" font-family="Helvetica,sans-Serif" font-size="11.00">AppProfiler.mProfilerLock</text>
</g>
<!-- __guard__&#45;&gt;__field__ -->
<g id="edge1" class="edge">
<title>__guard__&#45;&gt;__field__</title>
<path fill="none" stroke="#16a34a" stroke-width="1.6" d="M178.86,-70.27C220.1,-67.18 272.72,-63.23 322.86,-59.47"/>
<polygon fill="#16a34a" stroke="#16a34a" stroke-width="1.6" points="323.12,-62.25 330.88,-58.86 322.7,-56.67 323.12,-62.25"/>
<text text-anchor="middle" x="267" y="-68.8" font-family="Helvetica,sans-Serif" font-size="9.00" fill="#15803d"> guards 2/3</text>
</g>
<!-- m::com.android.server.am.ProcessList.computeNextPssTime:(ILcom/android/server/am/ProcessList$ProcStateMemTracker;ZZJJ)J -->
<g id="node3" class="node">
<title>m::com.android.server.am.ProcessList.computeNextPssTime:(ILcom/android/server/am/ProcessList$ProcStateMemTracker;ZZJJ)J</title>
<path fill="#fee2e2" stroke="#dc2626" d="M191,-36C191,-36 12,-36 12,-36 6,-36 0,-30 0,-24 0,-24 0,-12 0,-12 0,-6 6,0 12,0 12,0 191,0 191,0 197,0 203,-6 203,-12 203,-12 203,-24 203,-24 203,-30 197,-36 191,-36"/>
<text text-anchor="middle" x="101.5" y="-15.2" font-family="Helvetica,sans-Serif" font-size="11.00">ProcessList.computeNextPssTime</text>
</g>
<!-- m::com.android.server.am.ProcessList.computeNextPssTime:(ILcom/android/server/am/ProcessList$ProcStateMemTracker;ZZJJ)J&#45;&gt;__field__ -->
<g id="edge2" class="edge">
<title>m::com.android.server.am.ProcessList.computeNextPssTime:(ILcom/android/server/am/ProcessList$ProcStateMemTracker;ZZJJ)J&#45;&gt;__field__</title>
<path fill="none" stroke="#dc2626" d="M203.04,-25.54C239.63,-28.29 282.03,-31.47 322.8,-34.53"/>
<polygon fill="#dc2626" stroke="#dc2626" points="322.74,-37.33 330.93,-35.14 323.16,-31.75 322.74,-37.33"/>
<text text-anchor="middle" x="267" y="-35.8" font-family="Helvetica,sans-Serif" font-size="9.00" fill="#dc2626"> writes unguarded</text>
</g>
</g>
</svg>
