<?xml version="1.0" encoding="UTF-8" standalone="no"?>
<!DOCTYPE svg PUBLIC "-//W3C//DTD SVG 1.1//EN"
 "http://www.w3.org/Graphics/SVG/1.1/DTD/svg11.dtd">
<!-- Generated by graphviz version 2.43.0 (0)
 -->
<!-- Title: race Pages: 1 -->
<svg width="563pt" height="746pt"
 viewBox="0.00 0.00 563.00 746.00" xmlns="http://www.w3.org/2000/svg" xmlns:xlink="http://www.w3.org/1999/xlink">
<g id="graph0" class="graph" transform="scale(1 1) rotate(0) translate(4 742)">
<title>race</title>
<polygon fill="white" stroke="transparent" points="-4,4 -4,-742 559,-742 559,4 -4,4"/>
<!-- __field__ -->
<g id="node1" class="node">
<title>__field__</title>
<path fill="#fef9c3" stroke="#ca8a04" stroke-width="2" d="M543,-442C543,-442 475,-442 475,-442 469,-442 463,-436 463,-430 463,-430 463,-418 463,-418 463,-412 469,-406 475,-406 475,-406 543,-406 543,-406 549,-406 555,-412 555,-418 555,-418 555,-430 555,-430 555,-436 549,-442 543,-442"/>
<text text-anchor="middle" x="509" y="-421.2" font-family="Helvetica,sans-Serif" font-size="11.00">UserInfo.flags</text>
</g>
<!-- __guard__ -->
<g id="node2" class="node">
<title>__guard__</title>
<path fill="#dcfce7" stroke="#16a34a" stroke-width="2" d="M256,-738C256,-738 79,-738 79,-738 73,-738 67,-732 67,-726 67,-726 67,-714 67,-714 67,-708 73,-702 79,-702 79,-702 256,-702 256,-702 262,-702 268,-708 268,-714 268,-714 268,-726 268,-726 268,-732 262,-738 256,-738"/>
<text text-anchor="middle" x="167.5" y="-717.2" font-family="Helvetica,sans-Serif" font-size="11.00">UserManagerService.mUsersLock</text>
</g>
<!-- __guard__&#45;&gt;__field__ -->
<g id="edge1" class="edge">
<title>__guard__&#45;&gt;__field__</title>
<path fill="none" stroke="#16a34a" stroke-width="1.6" d="M268.04,-734.05C325.15,-736.4 394.52,-728.73 441,-688 476.85,-656.59 497.78,-510.95 505.06,-450.45"/>
<polygon fill="#16a34a" stroke="#16a34a" stroke-width="1.6" points="507.88,-450.44 506.04,-442.17 502.32,-449.79 507.88,-450.44"/>
<text text-anchor="middle" x="399" y="-728.8" font-family="Helvetica,sans-Serif" font-size="9.00" fill="#15803d"> guards 18/25</text>
</g>
<!-- m::com.android.server.pm.UserManagerService.addUserInfoFlags:(Landroid/content/pm/UserInfo;I)V -->
<g id="node3" class="node">
<title>m::com.android.server.pm.UserManagerService.addUserInfoFlags:(Landroid/content/pm/UserInfo;I)V</title>
<path fill="#fee2e2" stroke="#dc2626" d="M270,-677C270,-677 65,-677 65,-677 59,-677 53,-671 53,-665 53,-665 53,-653 53,-653 53,-647 59,-641 65,-641 65,-641 270,-641 270,-641 276,-641 282,-647 282,-653 282,-653 282,-665 282,-665 282,-671 276,-677 270,-677"/>
<text text-anchor="middle" x="167.5" y="-656.2" font-family="Helvetica,sans-Serif" font-size="11.00">UserManagerService.addUserInfoFlags</text>
</g>
<!-- m::com.android.server.pm.UserManagerService.addUserInfoFlags:(Landroid/content/pm/UserInfo;I)V&#45;&gt;__field__ -->
<g id="edge2" class="edge">
<title>m::com.android.server.pm.UserManagerService.addUserInfoFlags:(Landroid/content/pm/UserInfo;I)V&#45;&gt;__field__</title>
<path fill="none" stroke="#dc2626" d="M282.3,-671.43C345.54,-675.82 416.31,-675.73 441,-657 474.25,-631.77 496.19,-505.8 504.39,-450.31"/>
<polygon fill="#dc2626" stroke="#dc2626" points="507.17,-450.67 505.55,-442.35 501.63,-449.86 507.17,-450.67"/>
<text text-anchor="middle" x="399" y="-675.8" font-family="Helvetica,sans-Serif" font-size="9.00" fill="#dc2626"> writes unguarded</text>
</g>
<!-- m::com.android.server.pm.UserManagerService.addUserInfoFlags:(Landroid/content/pm/UserInfo;I)V&#45;&gt;__field__ -->
<g id="edge14" class="edge">
<title>m::com.android.server.pm.UserManagerService.addUserInfoFlags:(Landroid/content/pm/UserInfo;I)V&#45;&gt;__field__</title>
<path fill="none" stroke="#dc2626" d="M282.01,-652.7C345.59,-646.98 416.83,-636.18 441,-616 491.2,-574.08 503.83,-492.3 506.98,-450.29"/>
<polygon fill="#dc2626" stroke="#dc2626" points="509.78,-450.37 507.5,-442.2 504.19,-450 509.78,-450.37"/>
<text text-anchor="middle" x="399" y="-644.8" font-family="Helvetica,sans-Serif" font-size="9.00" fill="#dc2626"> reads unguarded</text>
</g>
<!-- m::com.android.server.pm.UserManagerService.convertPreCreatedUserIfPossible:(Ljava/lang/String;ILjava/lang/String;Ljava/lang/Object;)Landroid/content/pm/UserInfo; -->
<g id="node4" class="node">
<title>m::com.android.server.pm.UserManagerService.convertPreCreatedUserIfPossible:(Ljava/lang/String;ILjava/lang/String;Ljava/lang/Object;)Landroid/content/pm/UserInfo;</title>
<path fill="#fee2e2" stroke="#dc2626" d="M312.5,-616C312.5,-616 22.5,-616 22.5,-616 16.5,-616 10.5,-610 10.5,-604 10.5,-604 10.5,-592 10.5,-592 10.5,-586 16.5,-580 22.5,-580 22.5,-580 312.5,-580 312.5,-580 318.5,-580 324.5,-586 324.5,-592 324.5,-592 324.5,-604 324.5,-604 324.5,-610 318.5,-616 312.5,-616"/>
<text text-anchor="middle" x="167.5" y="-595.2" font-family="Helvetica,sans-Serif" font-size="11.00">UserManagerService.convertPreCreatedUserIfPossible</text>
</g>
<!-- m::com.android.server.pm.UserManagerService.convertPreCreatedUserIfPossible:(Ljava/lang/String;ILjava/lang/String;Ljava/lang/Object;)Landroid/content/pm/UserInfo;&#45;&gt;__field__ -->
<g id="edge3" class="edge">
<title>m::com.android.server.pm.UserManagerService.convertPreCreatedUserIfPossible:(Ljava/lang/String;ILjava/lang/String;Ljava/lang/Object;)Landroid/content/pm/UserInfo;&#45;&gt;__field__</title>
<path fill="none" stroke="#dc2626" d="M324.61,-603.34C374.2,-602.09 421.29,-596.88 441,-583 484.76,-552.19 500.07,-486.93 505.33,-450.32"/>
<polygon fill="#dc2626" stroke="#dc2626" points="508.15,-450.4 506.41,-442.1 502.59,-449.67 508.15,-450.4"/>
<text text-anchor="middle" x="399" y="-603.8" font-family="Helvetica,sans-Serif" font-size="9.00" fill="#dc2626"> writes unguarded</text>
</g>
<!-- m::com.android.server.pm.UserManagerService.convertPreCreatedUserIfPossible:(Ljava/lang/String;ILjava/lang/String;Ljava/lang/Object;)Landroid/content/pm/UserInfo;&#45;&gt;__field__ -->
<g id="edge15" class="edge">
<title>m::com.android.server.pm.UserManagerService.convertPreCreatedUserIfPossible:(Ljava/lang/String;ILjava/lang/String;Ljava/lang/Object;)Landroid/content/pm/UserInfo;&#45;&gt;__field__</title>
<path fill="none" stroke="#dc2626" d="M289.02,-579.97C355.94,-569.09 428.24,-555.52 441,-546 473.08,-522.06 491.7,-478.02 500.84,-449.92"/>
<polygon fill="#dc2626" stroke="#dc2626" points="503.57,-450.57 503.28,-442.09 498.23,-448.9 503.57,-450.57"/>
<text text-anchor="middle" x="399" y="-568.8" font-family="Helvetica,sans-Serif" font-size="9.00" fill="#dc2626"> reads unguarded</text>
</g>
<!-- m::com.android.server.pm.UserManagerService.convertPreCreatedUserIfPossible:(Ljava/lang/String;ILjava/lang/String;Ljava/lang/Object;)Landroid/content/pm/UserInfo;&#45;&gt;__field__ -->
<g id="edge16" class="edge">
<title>m::com.android.server.pm.UserManagerService.convertPreCreatedUserIfPossible:(Ljava/lang/String;ILjava/lang/String;Ljava/lang/Object;)Landroid/content/pm/UserInfo;&#45;&gt;__field__</title>
<path fill="none" stroke="#dc2626" d="M315.2,-579.85C322.11,-576.72 328.76,-573.13 335,-569 350.01,-559.07 342.65,-545.87 357,-535 388.15,-511.4 408.78,-531.12 441,-509 463.53,-493.53 482.08,-468.21 493.91,-449.22"/>
<polygon fill="#dc2626" stroke="#dc2626" points="496.36,-450.58 498.1,-442.28 491.56,-447.68 496.36,-450.58"/>
<text text-anchor="middle" x="399" y="-537.8" font-family="Helvetica,sans-Serif" font-size="9.00" fill="#dc2626"> reads unguarded</text>
</g>
<!-- m::com.android.server.pm.UserManagerService.removeUserWithProfilesUnchecked:(I)Z -->
<g id="node5" class="node">
<title>m::com.android.server.pm.UserManagerService.removeUserWithProfilesUnchecked:(I)Z</title>
<path fill="#fee2e2" stroke="#dc2626" d="M319,-558C319,-558 16,-558 16,-558 10,-558 4,-552 4,-546 4,-546 4,-534 4,-534 4,-528 10,-522 16,-522 16,-522 319,-522 319,-522 325,-522 331,-528 331,-534 331,-534 331,-546 331,-546 331,-552 325,-558 319,-558"/>
<text text-anchor="middle" x="167.5" y="-537.2" font-family="Helvetica,sans-Serif" font-size="11.00">UserManagerService.removeUserWithProfilesUnchecked</text>
</g>
<!-- m::com.android.server.pm.UserManagerService.removeUserWithProfilesUnchecked:(I)Z&#45;&gt;__field__ -->
<g id="edge4" class="edge">
<title>m::com.android.server.pm.UserManagerService.removeUserWithProfilesUnchecked:(I)Z&#45;&gt;__field__</title>
<path fill="none" stroke="#dc2626" d="M299.23,-521.91C311.48,-518.82 323.57,-515.21 335,-511 345.66,-507.07 346.82,-503.03 357,-498 393.1,-480.15 404.94,-481.93 441,-464 451.54,-458.76 462.65,-452.47 472.72,-446.44"/>
<polygon fill="#dc2626" stroke="#dc2626" points="474.46,-448.66 479.85,-442.12 471.56,-443.87 474.46,-448.66"/>
<text text-anchor="middle" x="399" y="-500.8" font-family="Helvetica,sans-Serif" font-size="9.00" fill="#dc2626"> writes unguarded</text>
</g>
<!-- m::com.android.server.pm.UserManagerService.setUserEphemeralUnchecked:(I)I -->
<g id="node6" class="node">
<title>m::com.android.server.pm.UserManagerService.setUserEphemeralUnchecked:(I)I</title>
<path fill="#fee2e2" stroke="#dc2626" d="M303.5,-500C303.5,-500 31.5,-500 31.5,-500 25.5,-500 19.5,-494 19.5,-488 19.5,-488 19.5,-476 19.5,-476 19.5,-470 25.5,-464 31.5,-464 31.5,-464 303.5,-464 303.5,-464 309.5,-464 315.5,-470 315.5,-476 315.5,-476 315.5,-488 315.5,-488 315.5,-494 309.5,-500 303.5,-500"/>
<text text-anchor="middle" x="167.5" y="-479.2" font-family="Helvetica,sans-Serif" font-size="11.00">UserManagerService.setUserEphemeralUnchecked</text>
</g>
<!-- m::com.android.server.pm.UserManagerService.setUserEphemeralUnchecked:(I)I&#45;&gt;__field__ -->
<g id="edge5" class="edge">
<title>m::com.android.server.pm.UserManagerService.setUserEphemeralUnchecked:(I)I&#45;&gt;__field__</title>
<path fill="none" stroke="#dc2626" d="M274.06,-463.97C334.04,-453.72 406.57,-441.33 454.81,-433.09"/>
<polygon fill="#dc2626" stroke="#dc2626" points="455.52,-435.81 462.93,-431.7 454.58,-430.29 455.52,-435.81"/>
<text text-anchor="middle" x="399" y="-451.8" font-family="Helvetica,sans-Serif" font-size="9.00" fill="#dc2626"> writes unguarded</text>
</g>
<!-- m::com.android.server.pm.UserManagerService.setUserNonEphemeralUnchecked:(I)Z -->
<g id="node7" class="node">
<title>m::com.android.server.pm.UserManagerService.setUserNonEphemeralUnchecked:(I)Z</title>
<path fill="#fee2e2" stroke="#dc2626" d="M314,-442C314,-442 21,-442 21,-442 15,-442 9,-436 9,-430 9,-430 9,-418 9,-418 9,-412 15,-406 21,-406 21,-406 314,-406 314,-406 320,-406 326,-412 326,-418 326,-418 326,-430 326,-430 326,-436 320,-442 314,-442"/>
<text text-anchor="middle" x="167.5" y="-421.2" font-family="Helvetica,sans-Serif" font-size="11.00">UserManagerService.setUserNonEphemeralUnchecked</text>
</g>
<!-- m::com.android.server.pm.UserManagerService.setUserNonEphemeralUnchecked:(I)Z&#45;&gt;__field__ -->
<g id="edge6" class="edge">
<title>m::com.android.server.pm.UserManagerService.setUserNonEphemeralUnchecked:(I)Z&#45;&gt;__field__</title>
<path fill="none" stroke="#dc2626" d="M326.32,-424C372.49,-424 419.84,-424 454.63,-424"/>
<polygon fill="#dc2626" stroke="#dc2626" points="454.74,-426.8 462.74,-424 454.74,-421.2 454.74,-426.8"/>
<text text-anchor="middle" x="399" y="-426.8" font-family="Helvetica,sans-Serif" font-size="9.00" fill="#dc2626"> writes unguarded</text>
</g>
<!-- m::com.android.server.pm.UserManagerService.upgradeIfNecessaryLP:(II)V -->
<g id="node8" class="node">
<title>m::com.android.server.pm.UserManagerService.upgradeIfNecessaryLP:(II)V</title>
<path fill="#fee2e2" stroke="#dc2626" d="M284,-384C284,-384 51,-384 51,-384 45,-384 39,-378 39,-372 39,-372 39,-360 39,-360 39,-354 45,-348 51,-348 51,-348 284,-348 284,-348 290,-348 296,-354 296,-360 296,-360 296,-372 296,-372 296,-378 290,-384 284,-384"/>
<text text-anchor="middle" x="167.5" y="-363.2" font-family="Helvetica,sans-Serif" font-size="11.00">UserManagerService.upgradeIfNecessaryLP</text>
</g>
<!-- m::com.android.server.pm.UserManagerService.upgradeIfNecessaryLP:(II)V&#45;&gt;__field__ -->
<g id="edge7" class="edge">
<title>m::com.android.server.pm.UserManagerService.upgradeIfNecessaryLP:(II)V&#45;&gt;__field__</title>
<path fill="none" stroke="#dc2626" d="M293.6,-384.03C340,-391.17 393.01,-399.85 441,-409 445.5,-409.86 450.16,-410.8 454.83,-411.77"/>
<polygon fill="#dc2626" stroke="#dc2626" points="454.26,-414.51 462.67,-413.44 455.43,-409.04 454.26,-414.51"/>
<text text-anchor="middle" x="399" y="-411.8" font-family="Helvetica,sans-Serif" font-size="9.00" fill="#dc2626"> writes unguarded</text>
</g>
<!-- m::com.android.server.pm.UserManagerService.upgradeIfNecessaryLP:(II)V&#45;&gt;__field__ -->
<g id="edge8" class="edge">
<title>m::com.android.server.pm.UserManagerService.upgradeIfNecessaryLP:(II)V&#45;&gt;__field__</title>
<path fill="none" stroke="#dc2626" d="M296.24,-357.98C342.82,-358.7 395.25,-363.86 441,-379 455.35,-383.75 469.49,-392.48 481.07,-401"/>
<polygon fill="#dc2626" stroke="#dc2626" points="479.5,-403.33 487.56,-405.96 482.9,-398.88 479.5,-403.33"/>
<text text-anchor="middle" x="399" y="-381.8" font-family="Helvetica,sans-Serif" font-size="9.00" fill="#dc2626"> writes unguarded</text>
</g>
<!-- m::com.android.server.am.UserController.startProfiles:()V -->
<g id="node9" class="node">
<title>m::com.android.server.am.UserController.startProfiles:()V</title>
<path fill="#fee2e2" stroke="#dc2626" d="M238.5,-326C238.5,-326 96.5,-326 96.5,-326 90.5,-326 84.5,-320 84.5,-314 84.5,-314 84.5,-302 84.5,-302 84.5,-296 90.5,-290 96.5,-290 96.5,-290 238.5,-290 238.5,-290 244.5,-290 250.5,-296 250.5,-302 250.5,-302 250.5,-314 250.5,-314 250.5,-320 244.5,-326 238.5,-326"/>
<text text-anchor="middle" x="167.5" y="-305.2" font-family="Helvetica,sans-Serif" font-size="11.00">UserController.startProfiles</text>
</g>
<!-- m::com.android.server.am.UserController.startProfiles:()V&#45;&gt;__field__ -->
<g id="edge9" class="edge">
<title>m::com.android.server.am.UserController.startProfiles:()V&#45;&gt;__field__</title>
<path fill="none" stroke="#dc2626" d="M250.67,-305.09C307.33,-306.47 382.65,-315.24 441,-347 462.93,-358.93 481.01,-381.05 492.84,-398.53"/>
<polygon fill="#dc2626" stroke="#dc2626" points="490.8,-400.53 497.52,-405.69 495.49,-397.46 490.8,-400.53"/>
<text text-anchor="middle" x="399" y="-349.8" font-family="Helvetica,sans-Serif" font-size="9.00" fill="#dc2626"> reads unguarded</text>
</g>
<!-- m::com.android.server.pm.UserJourneyLogger.logDelayedUserJourneyFinishWithError:(ILandroid/content/pm/UserInfo;II)Lcom/android/server/pm/UserJourneyLogger$UserJourneySession; -->
<g id="node10" class="node">
<title>m::com.android.server.pm.UserJourneyLogger.logDelayedUserJourneyFinishWithError:(ILandroid/content/pm/UserInfo;II)Lcom/android/server/pm/UserJourneyLogger$UserJourneySession;</title>
<path fill="#fee2e2" stroke="#dc2626" d="M323,-268C323,-268 12,-268 12,-268 6,-268 0,-262 0,-256 0,-256 0,-244 0,-244 0,-238 6,-232 12,-232 12,-232 323,-232 323,-232 329,-232 335,-238 335,-244 335,-244 335,-256 335,-256 335,-262 329,-268 323,-268"/>
<text text-anchor="middle" x="167.5" y="-247.2" font-family="Helvetica,sans-Serif" font-size="11.00">UserJourneyLogger.logDelayedUserJourneyFinishWithError</text>
</g>
<!-- m::com.android.server.pm.UserJourneyLogger.logDelayedUserJourneyFinishWithError:(ILandroid/content/pm/UserInfo;II)Lcom/android/server/pm/UserJourneyLogger$UserJourneySession;&#45;&gt;__field__ -->
<g id="edge10" class="edge">
<title>m::com.android.server.pm.UserJourneyLogger.logDelayedUserJourneyFinishWithError:(ILandroid/content/pm/UserInfo;II)Lcom/android/server/pm/UserJourneyLogger$UserJourneySession;&#45;&gt;__field__</title>
<path fill="none" stroke="#dc2626" d="M335.14,-258.12C372.7,-266.26 410.45,-280.07 441,-303 472.64,-326.75 491.3,-370.04 500.59,-397.89"/>
<polygon fill="#dc2626" stroke="#dc2626" points="497.97,-398.88 503.07,-405.65 503.3,-397.17 497.97,-398.88"/>
<text text-anchor="middle" x="399" y="-305.8" font-family="Helvetica,sans-Serif" font-size="9.00" fill="#dc2626"> reads unguarded</text>
</g>
<!-- m::com.android.server.pm.UserJourneyLogger.logUserCreateJourneyFinish:(ILandroid/content/pm/UserInfo;)Lcom/android/server/pm/UserJourneyLogger$UserJourneySession; -->
<g id="node11" class="node">
<title>m::com.android.server.pm.UserJourneyLogger.logUserCreateJourneyFinish:(ILandroid/content/pm/UserInfo;)Lcom/android/server/pm/UserJourneyLogger$UserJourneySession;</title>
<path fill="#fee2e2" stroke="#dc2626" d="M293,-210C293,-210 42,-210 42,-210 36,-210 30,-204 30,-198 30,-198 30,-186 30,-186 30,-180 36,-174 42,-174 42,-174 293,-174 293,-174 299,-174 305,-180 305,-186 305,-186 305,-198 305,-198 305,-204 299,-210 293,-210"/>
<text text-anchor="middle" x="167.5" y="-189.2" font-family="Helvetica,sans-Serif" font-size="11.00">UserJourneyLogger.logUserCreateJourneyFinish</text>
</g>
<!-- m::com.android.server.pm.UserJourneyLogger.logUserCreateJourneyFinish:(ILandroid/content/pm/UserInfo;)Lcom/android/server/pm/UserJourneyLogger$UserJourneySession;&#45;&gt;__field__ -->
<g id="edge11" class="edge">
<title>m::com.android.server.pm.UserJourneyLogger.logUserCreateJourneyFinish:(ILandroid/content/pm/UserInfo;)Lcom/android/server/pm/UserJourneyLogger$UserJourneySession;&#45;&gt;__field__</title>
<path fill="none" stroke="#dc2626" d="M305.17,-193.2C353.11,-200.17 404.14,-215.9 441,-249 484.77,-288.3 500.13,-359.4 505.38,-397.76"/>
<polygon fill="#dc2626" stroke="#dc2626" points="502.63,-398.29 506.41,-405.87 508.18,-397.59 502.63,-398.29"/>
<text text-anchor="middle" x="399" y="-251.8" font-family="Helvetica,sans-Serif" font-size="9.00" fill="#dc2626"> reads unguarded</text>
</g>
<!-- m::com.android.server.pm.UserJourneyLogger.logUserJourneyFinishWithError:(ILandroid/content/pm/UserInfo;II)Lcom/android/server/pm/UserJourneyLogger$UserJourneySession; -->
<g id="node12" class="node">
<title>m::com.android.server.pm.UserJourneyLogger.logUserJourneyFinishWithError:(ILandroid/content/pm/UserInfo;II)Lcom/android/server/pm/UserJourneyLogger$UserJourneySession;</title>
<path fill="#fee2e2" stroke="#dc2626" d="M300.5,-152C300.5,-152 34.5,-152 34.5,-152 28.5,-152 22.5,-146 22.5,-140 22.5,-140 22.5,-128 22.5,-128 22.5,-122 28.5,-116 34.5,-116 34.5,-116 300.5,-116 300.5,-116 306.5,-116 312.5,-122 312.5,-128 312.5,-128 312.5,-140 312.5,-140 312.5,-146 306.5,-152 300.5,-152"/>
<text text-anchor="middle" x="167.5" y="-131.2" font-family="Helvetica,sans-Serif" font-size="11.00">UserJourneyLogger.logUserJourneyFinishWithError</text>
</g>
<!-- m::com.android.server.pm.UserJourneyLogger.logUserJourneyFinishWithError:(ILandroid/content/pm/UserInfo;II)Lcom/android/server/pm/UserJourneyLogger$UserJourneySession;&#45;&gt;__field__ -->
<g id="edge12" class="edge">
<title>m::com.android.server.pm.UserJourneyLogger.logUserJourneyFinishWithError:(ILandroid/content/pm/UserInfo;II)Lcom/android/server/pm/UserJourneyLogger$UserJourneySession;&#45;&gt;__field__</title>
<path fill="none" stroke="#dc2626" d="M312.73,-134.42C359.03,-141.67 407.06,-157.79 441,-191 498.61,-247.37 507.52,-349.79 508.36,-397.82"/>
<polygon fill="#dc2626" stroke="#dc2626" points="505.56,-397.88 508.43,-405.86 511.16,-397.83 505.56,-397.88"/>
<text text-anchor="middle" x="399" y="-193.8" font-family="Helvetica,sans-Serif" font-size="9.00" fill="#dc2626"> reads unguarded</text>
</g>
<!-- m::com.android.server.pm.UserManagerService$LocalService.isUserInitialized:(I)Z -->
<g id="node13" class="node">
<title>m::com.android.server.pm.UserManagerService$LocalService.isUserInitialized:(I)Z</title>
<path fill="#fee2e2" stroke="#dc2626" d="M304,-94C304,-94 31,-94 31,-94 25,-94 19,-88 19,-82 19,-82 19,-70 19,-70 19,-64 25,-58 31,-58 31,-58 304,-58 304,-58 310,-58 316,-64 316,-70 316,-70 316,-82 316,-82 316,-88 310,-94 304,-94"/>
<text text-anchor="middle" x="167.5" y="-73.2" font-family="Helvetica,sans-Serif" font-size="11.00">UserManagerService$LocalService.isUserInitialized</text>
</g>
<!-- m::com.android.server.pm.UserManagerService$LocalService.isUserInitialized:(I)Z&#45;&gt;__field__ -->
<g id="edge13" class="edge">
<title>m::com.android.server.pm.UserManagerService$LocalService.isUserInitialized:(I)Z&#45;&gt;__field__</title>
<path fill="none" stroke="#dc2626" d="M316.07,-73.85C361.53,-80.58 408.19,-96.21 441,-129 479.04,-167.02 499.1,-333.01 505.6,-397.89"/>
<polygon fill="#dc2626" stroke="#dc2626" points="502.82,-398.3 506.39,-405.99 508.4,-397.76 502.82,-398.3"/>
<text text-anchor="middle" x="399" y="-131.8" font-family="Helvetica,sans-Serif" font-size="9.00" fill="#dc2626"> reads unguarded</text>
</g>
<!-- m::com.android.server.pm.UserManagerService.onPullAtom:(ILjava/util/List;)I -->
<g id="node14" class="node">
<title>m::com.android.server.pm.UserManagerService.onPullAtom:(ILjava/util/List;)I</title>
<path fill="#fee2e2" stroke="#dc2626" d="M254,-36C254,-36 81,-36 81,-36 75,-36 69,-30 69,-24 69,-24 69,-12 69,-12 69,-6 75,0 81,0 81,0 254,0 254,0 260,0 266,-6 266,-12 266,-12 266,-24 266,-24 266,-30 260,-36 254,-36"/>
<text text-anchor="middle" x="167.5" y="-15.2" font-family="Helvetica,sans-Serif" font-size="11.00">UserManagerService.onPullAtom</text>
</g>
<!-- m::com.android.server.pm.UserManagerService.onPullAtom:(ILjava/util/List;)I&#45;&gt;__field__ -->
<g id="edge17" class="edge">
<title>m::com.android.server.pm.UserManagerService.onPullAtom:(ILjava/util/List;)I&#45;&gt;__field__</title>
<path fill="none" stroke="#dc2626" d="M266.14,-9.75C324.57,-10.4 395.99,-21.94 441,-67 487.68,-113.73 502.83,-323.03 506.79,-397.55"/>
<polygon fill="#dc2626" stroke="#dc2626" points="504.02,-398.1 507.22,-405.95 509.61,-397.82 504.02,-398.1"/>
<text text-anchor="middle" x="399" y="-69.8" font-family="Helvetica,sans-Serif" font-size="9.00" fill="#dc2626"> reads unguarded</text>
</g>
</g>
</svg>
