<?xml version="1.0" encoding="UTF-8" standalone="no"?>
<!DOCTYPE svg PUBLIC "-//W3C//DTD SVG 1.1//EN"
 "http://www.w3.org/Graphics/SVG/1.1/DTD/svg11.dtd">
<!-- Generated by graphviz version 2.43.0 (0)
 -->
<!-- Title: race Pages: 1 -->
<svg width="763pt" height="764pt"
 viewBox="0.00 0.00 763.00 764.25" xmlns="http://www.w3.org/2000/svg" xmlns:xlink="http://www.w3.org/1999/xlink">
<g id="graph0" class="graph" transform="scale(1 1) rotate(0) translate(4 760.25)">
<title>race</title>
<polygon fill="white" stroke="transparent" points="-4,4 -4,-760.25 759,-760.25 759,4 -4,4"/>
<!-- __field__ -->
<g id="node1" class="node">
<title>__field__</title>
<path fill="#fef9c3" stroke="#ca8a04" stroke-width="2" d="M743,-379.13C743,-379.13 643,-379.13 643,-379.13 637,-379.13 631,-373.13 631,-367.13 631,-367.13 631,-355.13 631,-355.13 631,-349.13 637,-343.13 643,-343.13 643,-343.13 743,-343.13 743,-343.13 749,-343.13 755,-349.13 755,-355.13 755,-355.13 755,-367.13 755,-367.13 755,-373.13 749,-379.13 743,-379.13"/>
<text text-anchor="middle" x="693" y="-358.33" font-family="Helvetica,sans-Serif" font-size="11.00">ResolveInfo.priority</text>
</g>
<!-- __guard__ -->
<g id="node2" class="node">
<title>__guard__</title>
<path fill="#dcfce7" stroke="#16a34a" stroke-width="2" d="M354.5,-756.13C354.5,-756.13 148.5,-756.13 148.5,-756.13 142.5,-756.13 136.5,-750.13 136.5,-744.13 136.5,-744.13 136.5,-732.13 136.5,-732.13 136.5,-726.13 142.5,-720.13 148.5,-720.13 148.5,-720.13 354.5,-720.13 354.5,-720.13 360.5,-720.13 366.5,-726.13 366.5,-732.13 366.5,-732.13 366.5,-744.13 366.5,-744.13 366.5,-750.13 360.5,-756.13 354.5,-756.13"/>
<text text-anchor="middle" x="251.5" y="-735.33" font-family="Helvetica,sans-Serif" font-size="11.00">PackageManagerServiceInjector.mLock</text>
</g>
<!-- __guard__&#45;&gt;__field__ -->
<g id="edge1" class="edge">
<title>__guard__&#45;&gt;__field__</title>
<path fill="none" stroke="#16a34a" stroke-width="1.6" d="M366.51,-754.75C444.38,-759.36 544.72,-751.07 609,-692.13 654.42,-650.48 680.83,-457.92 689.14,-387.24"/>
<polygon fill="#16a34a" stroke="#16a34a" stroke-width="1.6" points="691.92,-387.51 690.06,-379.24 686.36,-386.87 691.92,-387.51"/>
<text text-anchor="middle" x="567" y="-740.93" font-family="Helvetica,sans-Serif" font-size="9.00" fill="#15803d"> guards 2/3</text>
</g>
<!-- m::com.android.server.pm.PackageManagerService.setUpInstantAppInstallerActivityLP:(Landroid/content/pm/ActivityInfo;)V -->
<g id="node3" class="node">
<title>m::com.android.server.pm.PackageManagerService.setUpInstantAppInstallerActivityLP:(Landroid/content/pm/ActivityInfo;)V</title>
<path fill="#fee2e2" stroke="#dc2626" d="M411.5,-698.13C411.5,-698.13 91.5,-698.13 91.5,-698.13 85.5,-698.13 79.5,-692.13 79.5,-686.13 79.5,-686.13 79.5,-674.13 79.5,-674.13 79.5,-668.13 85.5,-662.13 91.5,-662.13 91.5,-662.13 411.5,-662.13 411.5,-662.13 417.5,-662.13 423.5,-668.13 423.5,-674.13 423.5,-674.13 423.5,-686.13 423.5,-686.13 423.5,-692.13 417.5,-698.13 411.5,-698.13"/>
<text text-anchor="middle" x="251.5" y="-677.33" font-family="Helvetica,sans-Serif" font-size="11.00">PackageManagerService.setUpInstantAppInstallerActivityLP</text>
</g>
<!-- m::com.android.server.pm.PackageManagerService.setUpInstantAppInstallerActivityLP:(Landroid/content/pm/ActivityInfo;)V&#45;&gt;__field__ -->
<g id="edge2" class="edge">
<title>m::com.android.server.pm.PackageManagerService.setUpInstantAppInstallerActivityLP:(Landroid/content/pm/ActivityInfo;)V&#45;&gt;__field__</title>
<path fill="none" stroke="#dc2626" d="M423.87,-695.31C488.85,-692.05 559.12,-676.36 609,-632.13 681.51,-567.82 691.58,-442.05 692.36,-387.46"/>
<polygon fill="#dc2626" stroke="#dc2626" points="695.16,-387.35 692.42,-379.33 689.56,-387.31 695.16,-387.35"/>
<text text-anchor="middle" x="567" y="-679.93" font-family="Helvetica,sans-Serif" font-size="9.00" fill="#dc2626"> writes unguarded</text>
</g>
<!-- m::com.android.server.am.BroadcastController.broadcastIntentLockedTraced:(Lcom/android/server/am/ProcessRecord;Ljava/lang/String;Ljava/lang/String;Landroid/content/Intent;Ljava/lang/String;Lcom/android/server/am/ProcessRecord;Landroid/content/IIntentReceiver;ILjava/lang/String;Landroid/os/Bundle;[Ljava/lang/String;[Ljava/lang/String;[Ljava/lang/String;ILandroid/app/BroadcastOptions;ZZIIIIILandroid/app/BackgroundStartPrivileges;[ILjava/util/function/BiFunction;Lcom/android/server/am/BroadcastSentEventRecord;)I -->
<g id="node4" class="node">
<title>m::com.android.server.am.BroadcastController.broadcastIntentLockedTraced:(Lcom/android/server/am/ProcessRecord;Ljava/lang/String;Ljava/lang/String;Landroid/content/Intent;Ljava/lang/String;Lcom/android/server/am/ProcessRecord;Landroid/content/IIntentReceiver;ILjava/lang/String;Landroid/os/Bundle;[Ljava/lang/String;[Ljava/lang/String;[Ljava/lang/String;ILandroid/app/BroadcastOptions;ZZIIIIILandroid/app/BackgroundStartPrivileges;[ILjava/util/function/BiFunction;Lcom/android/server/am/BroadcastSentEventRecord;)I</title>
<path fill="#fee2e2" stroke="#dc2626" d="M384.5,-640.13C384.5,-640.13 118.5,-640.13 118.5,-640.13 112.5,-640.13 106.5,-634.13 106.5,-628.13 106.5,-628.13 106.5,-616.13 106.5,-616.13 106.5,-610.13 112.5,-604.13 118.5,-604.13 118.5,-604.13 384.5,-604.13 384.5,-604.13 390.5,-604.13 396.5,-610.13 396.5,-616.13 396.5,-616.13 396.5,-628.13 396.5,-628.13 396.5,-634.13 390.5,-640.13 384.5,-640.13"/>
<text text-anchor="middle" x="251.5" y="-619.33" font-family="Helvetica,sans-Serif" font-size="11.00">BroadcastController.broadcastIntentLockedTraced</text>
</g>
<!-- m::com.android.server.am.BroadcastController.broadcastIntentLockedTraced:(Lcom/android/server/am/ProcessRecord;Ljava/lang/String;Ljava/lang/String;Landroid/content/Intent;Ljava/lang/String;Lcom/android/server/am/ProcessRecord;Landroid/content/IIntentReceiver;ILjava/lang/String;Landroid/os/Bundle;[Ljava/lang/String;[Ljava/lang/String;[Ljava/lang/String;ILandroid/app/BroadcastOptions;ZZIIIIILandroid/app/BackgroundStartPrivileges;[ILjava/util/function/BiFunction;Lcom/android/server/am/BroadcastSentEventRecord;)I&#45;&gt;__field__ -->
<g id="edge3" class="edge">
<title>m::com.android.server.am.BroadcastController.broadcastIntentLockedTraced:(Lcom/android/server/am/ProcessRecord;Ljava/lang/String;Ljava/lang/String;Landroid/content/Intent;Ljava/lang/String;Lcom/android/server/am/ProcessRecord;Landroid/content/IIntentReceiver;ILjava/lang/String;Landroid/os/Bundle;[Ljava/lang/String;[Ljava/lang/String;[Ljava/lang/String;ILandroid/app/BroadcastOptions;ZZIIIIILandroid/app/BackgroundStartPrivileges;[ILjava/util/function/BiFunction;Lcom/android/server/am/BroadcastSentEventRecord;)I&#45;&gt;__field__</title>
<path fill="none" stroke="#dc2626" d="M396.57,-637.57C467.47,-637.52 550.12,-625.07 609,-578.13 668.98,-530.31 685.65,-433.8 690.26,-387.31"/>
<polygon fill="#dc2626" stroke="#dc2626" points="693.05,-387.46 690.98,-379.24 687.48,-386.96 693.05,-387.46"/>
<text text-anchor="middle" x="567" y="-619.93" font-family="Helvetica,sans-Serif" font-size="9.00" fill="#dc2626"> reads unguarded</text>
</g>
<!-- m::com.android.server.am.BroadcastRecord.getReceiverPriority:(Ljava/lang/Object;)I -->
<g id="node5" class="node">
<title>m::com.android.server.am.BroadcastRecord.getReceiverPriority:(Ljava/lang/Object;)I</title>
<path fill="#fee2e2" stroke="#dc2626" d="M349.5,-582.13C349.5,-582.13 153.5,-582.13 153.5,-582.13 147.5,-582.13 141.5,-576.13 141.5,-570.13 141.5,-570.13 141.5,-558.13 141.5,-558.13 141.5,-552.13 147.5,-546.13 153.5,-546.13 153.5,-546.13 349.5,-546.13 349.5,-546.13 355.5,-546.13 361.5,-552.13 361.5,-558.13 361.5,-558.13 361.5,-570.13 361.5,-570.13 361.5,-576.13 355.5,-582.13 349.5,-582.13"/>
<text text-anchor="middle" x="251.5" y="-561.33" font-family="Helvetica,sans-Serif" font-size="11.00">BroadcastRecord.getReceiverPriority</text>
</g>
<!-- m::com.android.server.am.BroadcastRecord.getReceiverPriority:(Ljava/lang/Object;)I&#45;&gt;__field__ -->
<g id="edge4" class="edge">
<title>m::com.android.server.am.BroadcastRecord.getReceiverPriority:(Ljava/lang/Object;)I&#45;&gt;__field__</title>
<path fill="none" stroke="#dc2626" d="M361.64,-579.17C437.47,-583.79 537.37,-577.67 609,-528.13 657.15,-494.83 678.69,-425.25 687.19,-387.26"/>
<polygon fill="#dc2626" stroke="#dc2626" points="689.97,-387.62 688.9,-379.21 684.5,-386.45 689.97,-387.62"/>
<text text-anchor="middle" x="567" y="-565.93" font-family="Helvetica,sans-Serif" font-size="9.00" fill="#dc2626"> reads unguarded</text>
</g>
<!-- m::com.android.server.input.KeyboardLayoutManager.visitAllKeyboardLayouts:(Lcom/android/server/input/KeyboardLayoutManager$KeyboardLayoutVisitor;)V -->
<g id="node6" class="node">
<title>m::com.android.server.input.KeyboardLayoutManager.visitAllKeyboardLayouts:(Lcom/android/server/input/KeyboardLayoutManager$KeyboardLayoutVisitor;)V</title>
<path fill="#fee2e2" stroke="#dc2626" d="M384,-524.13C384,-524.13 119,-524.13 119,-524.13 113,-524.13 107,-518.13 107,-512.13 107,-512.13 107,-500.13 107,-500.13 107,-494.13 113,-488.13 119,-488.13 119,-488.13 384,-488.13 384,-488.13 390,-488.13 396,-494.13 396,-500.13 396,-500.13 396,-512.13 396,-512.13 396,-518.13 390,-524.13 384,-524.13"/>
<text text-anchor="middle" x="251.5" y="-503.33" font-family="Helvetica,sans-Serif" font-size="11.00">KeyboardLayoutManager.visitAllKeyboardLayouts</text>
</g>
<!-- m::com.android.server.input.KeyboardLayoutManager.visitAllKeyboardLayouts:(Lcom/android/server/input/KeyboardLayoutManager$KeyboardLayoutVisitor;)V&#45;&gt;__field__ -->
<g id="edge5" class="edge">
<title>m::com.android.server.input.KeyboardLayoutManager.visitAllKeyboardLayouts:(Lcom/android/server/input/KeyboardLayoutManager$KeyboardLayoutVisitor;)V&#45;&gt;__field__</title>
<path fill="none" stroke="#dc2626" d="M378.63,-524.13C450.59,-528.27 539.93,-522.58 609,-483.13 646.21,-461.88 670.23,-416.31 682.41,-387.28"/>
<polygon fill="#dc2626" stroke="#dc2626" points="685.13,-388.03 685.53,-379.56 679.94,-385.93 685.13,-388.03"/>
<text text-anchor="middle" x="567" y="-515.93" font-family="Helvetica,sans-Serif" font-size="9.00" fill="#dc2626"> reads unguarded</text>
</g>
<!-- m::com.android.server.pm.ComputerEngine.getDefaultHomeActivity:(I)Landroid/content/ComponentName; -->
<g id="node7" class="node">
<title>m::com.android.server.pm.ComputerEngine.getDefaultHomeActivity:(I)Landroid/content/ComponentName;</title>
<path fill="#fee2e2" stroke="#dc2626" d="M361,-466.13C361,-466.13 142,-466.13 142,-466.13 136,-466.13 130,-460.13 130,-454.13 130,-454.13 130,-442.13 130,-442.13 130,-436.13 136,-430.13 142,-430.13 142,-430.13 361,-430.13 361,-430.13 367,-430.13 373,-436.13 373,-442.13 373,-442.13 373,-454.13 373,-454.13 373,-460.13 367,-466.13 361,-466.13"/>
<text text-anchor="middle" x="251.5" y="-445.33" font-family="Helvetica,sans-Serif" font-size="11.00">ComputerEngine.getDefaultHomeActivity</text>
</g>
<!-- m::com.android.server.pm.ComputerEngine.getDefaultHomeActivity:(I)Landroid/content/ComponentName;&#45;&gt;__field__ -->
<g id="edge6" class="edge">
<title>m::com.android.server.pm.ComputerEngine.getDefaultHomeActivity:(I)Landroid/content/ComponentName;&#45;&gt;__field__</title>
<path fill="none" stroke="#dc2626" d="M342.04,-466.15C416.55,-476.89 523.83,-482.29 609,-446.13 637.83,-433.89 661.66,-406.27 676.28,-385.82"/>
<polygon fill="#dc2626" stroke="#dc2626" points="678.61,-387.36 680.87,-379.19 674.01,-384.16 678.61,-387.36"/>
<text text-anchor="middle" x="567" y="-470.93" font-family="Helvetica,sans-Serif" font-size="9.00" fill="#dc2626"> reads unguarded</text>
</g>
<!-- m::com.android.server.pm.ComputerEngine.getDefaultHomeActivity:(I)Landroid/content/ComponentName;&#45;&gt;__field__ -->
<g id="edge7" class="edge">
<title>m::com.android.server.pm.ComputerEngine.getDefaultHomeActivity:(I)Landroid/content/ComponentName;&#45;&gt;__field__</title>
<path fill="none" stroke="#dc2626" d="M373.39,-438.64C443.4,-430.89 532.52,-417.14 609,-393.13 619.21,-389.92 629.98,-386.1 640.26,-382.24"/>
<polygon fill="#dc2626" stroke="#dc2626" points="641.52,-384.76 648,-379.29 639.53,-379.52 641.52,-384.76"/>
<text text-anchor="middle" x="567" y="-415.93" font-family="Helvetica,sans-Serif" font-size="9.00" fill="#dc2626"> reads unguarded</text>
</g>
<!-- m::com.android.server.pm.ComputerEngine.hasNonNegativePriority:(Ljava/util/List;)Z -->
<g id="node8" class="node">
<title>m::com.android.server.pm.ComputerEngine.hasNonNegativePriority:(Ljava/util/List;)Z</title>
<path fill="#fee2e2" stroke="#dc2626" d="M360.5,-408.13C360.5,-408.13 142.5,-408.13 142.5,-408.13 136.5,-408.13 130.5,-402.13 130.5,-396.13 130.5,-396.13 130.5,-384.13 130.5,-384.13 130.5,-378.13 136.5,-372.13 142.5,-372.13 142.5,-372.13 360.5,-372.13 360.5,-372.13 366.5,-372.13 372.5,-378.13 372.5,-384.13 372.5,-384.13 372.5,-396.13 372.5,-396.13 372.5,-402.13 366.5,-408.13 360.5,-408.13"/>
<text text-anchor="middle" x="251.5" y="-387.33" font-family="Helvetica,sans-Serif" font-size="11.00">ComputerEngine.hasNonNegativePriority</text>
</g>
<!-- m::com.android.server.pm.ComputerEngine.hasNonNegativePriority:(Ljava/util/List;)Z&#45;&gt;__field__ -->
<g id="edge8" class="edge">
<title>m::com.android.server.pm.ComputerEngine.hasNonNegativePriority:(Ljava/util/List;)Z&#45;&gt;__field__</title>
<path fill="none" stroke="#dc2626" d="M372.73,-386.49C441.92,-383.79 530.47,-379.3 609,-372.13 613.43,-371.72 617.99,-371.26 622.59,-370.75"/>
<polygon fill="#dc2626" stroke="#dc2626" points="623.24,-373.5 630.87,-369.8 622.6,-367.93 623.24,-373.5"/>
<text text-anchor="middle" x="567" y="-380.93" font-family="Helvetica,sans-Serif" font-size="9.00" fill="#dc2626"> reads unguarded</text>
</g>
<!-- m::com.android.server.pm.CrossProfileIntentResolverEngine.filterCandidatesWithDomainPreferredActivitiesLPrBody:(Lcom/android/server/pm/Computer;Landroid/content/Intent;JLjava/util/List;Ljava/util/List;IZZZLjava/util/function/Function;)Ljava/util/List; -->
<g id="node9" class="node">
<title>m::com.android.server.pm.CrossProfileIntentResolverEngine.filterCandidatesWithDomainPreferredActivitiesLPrBody:(Lcom/android/server/pm/Computer;Landroid/content/Intent;JLjava/util/List;Ljava/util/List;IZZZLjava/util/function/Function;)Ljava/util/List;</title>
<path fill="#fee2e2" stroke="#dc2626" d="M491,-347.13C491,-347.13 12,-347.13 12,-347.13 6,-347.13 0,-341.13 0,-335.13 0,-335.13 0,-323.13 0,-323.13 0,-317.13 6,-311.13 12,-311.13 12,-311.13 491,-311.13 491,-311.13 497,-311.13 503,-317.13 503,-323.13 503,-323.13 503,-335.13 503,-335.13 503,-341.13 497,-347.13 491,-347.13"/>
<text text-anchor="middle" x="251.5" y="-326.33" font-family="Helvetica,sans-Serif" font-size="11.00">CrossProfileIntentResolverEngine.filterCandidatesWithDomainPreferredActivitiesLPrBody</text>
</g>
<!-- m::com.android.server.pm.CrossProfileIntentResolverEngine.filterCandidatesWithDomainPreferredActivitiesLPrBody:(Lcom/android/server/pm/Computer;Landroid/content/Intent;JLjava/util/List;Ljava/util/List;IZZZLjava/util/function/Function;)Ljava/util/List;&#45;&gt;__field__ -->
<g id="edge9" class="edge">
<title>m::com.android.server.pm.CrossProfileIntentResolverEngine.filterCandidatesWithDomainPreferredActivitiesLPrBody:(Lcom/android/server/pm/Computer;Landroid/content/Intent;JLjava/util/List;Ljava/util/List;IZZZLjava/util/function/Function;)Ljava/util/List;&#45;&gt;__field__</title>
<path fill="none" stroke="#dc2626" d="M499.87,-347.14C545.04,-350.43 588.64,-353.6 622.85,-356.09"/>
<polygon fill="#dc2626" stroke="#dc2626" points="622.71,-358.89 630.89,-356.68 623.12,-353.31 622.71,-358.89"/>
<text text-anchor="middle" x="567" y="-356.93" font-family="Helvetica,sans-Serif" font-size="9.00" fill="#dc2626"> reads unguarded</text>
</g>
<!-- m::com.android.server.pm.CrossProfileIntentResolverEngine.filterCandidatesWithDomainPreferredActivitiesLPrBody:(Lcom/android/server/pm/Computer;Landroid/content/Intent;JLjava/util/List;Ljava/util/List;IZZZLjava/util/function/Function;)Ljava/util/List;&#45;&gt;__field__ -->
<g id="edge10" class="edge">
<title>m::com.android.server.pm.CrossProfileIntentResolverEngine.filterCandidatesWithDomainPreferredActivitiesLPrBody:(Lcom/android/server/pm/Computer;Landroid/content/Intent;JLjava/util/List;Ljava/util/List;IZZZLjava/util/function/Function;)Ljava/util/List;&#45;&gt;__field__</title>
<path fill="none" stroke="#dc2626" d="M503.15,-323.16C538.83,-325.06 574.96,-328.49 609,-334.13 618.23,-335.66 627.83,-338.02 637.09,-340.72"/>
<polygon fill="#dc2626" stroke="#dc2626" points="636.3,-343.41 644.77,-343.06 637.93,-338.05 636.3,-343.41"/>
<text text-anchor="middle" x="567" y="-336.93" font-family="Helvetica,sans-Serif" font-size="9.00" fill="#dc2626"> reads unguarded</text>
</g>
<!-- m::com.android.server.pm.CrossProfileIntentResolverEngine.filterCandidatesWithDomainPreferredActivitiesLPrBody:(Lcom/android/server/pm/Computer;Landroid/content/Intent;JLjava/util/List;Ljava/util/List;IZZZLjava/util/function/Function;)Ljava/util/List;&#45;&gt;__field__ -->
<g id="edge11" class="edge">
<title>m::com.android.server.pm.CrossProfileIntentResolverEngine.filterCandidatesWithDomainPreferredActivitiesLPrBody:(Lcom/android/server/pm/Computer;Landroid/content/Intent;JLjava/util/List;Ljava/util/List;IZZZLjava/util/function/Function;)Ljava/util/List;&#45;&gt;__field__</title>
<path fill="none" stroke="#dc2626" d="M400.29,-311.09C480.35,-303.25 570.57,-298.08 609,-309.13 628.98,-314.87 648.81,-326.99 664.07,-338.09"/>
<polygon fill="#dc2626" stroke="#dc2626" points="662.67,-340.53 670.75,-343.08 666.03,-336.05 662.67,-340.53"/>
<text text-anchor="middle" x="567" y="-311.93" font-family="Helvetica,sans-Serif" font-size="9.00" fill="#dc2626"> reads unguarded</text>
</g>
<!-- m::com.android.server.pm.CrossProfileIntentResolverEngine.hasNonNegativePriority:(Ljava/util/List;)Z -->
<g id="node10" class="node">
<title>m::com.android.server.pm.CrossProfileIntentResolverEngine.hasNonNegativePriority:(Ljava/util/List;)Z</title>
<path fill="#fee2e2" stroke="#dc2626" d="M406,-289.13C406,-289.13 97,-289.13 97,-289.13 91,-289.13 85,-283.13 85,-277.13 85,-277.13 85,-265.13 85,-265.13 85,-259.13 91,-253.13 97,-253.13 97,-253.13 406,-253.13 406,-253.13 412,-253.13 418,-259.13 418,-265.13 418,-265.13 418,-277.13 418,-277.13 418,-283.13 412,-289.13 406,-289.13"/>
<text text-anchor="middle" x="251.5" y="-268.33" font-family="Helvetica,sans-Serif" font-size="11.00">CrossProfileIntentResolverEngine.hasNonNegativePriority</text>
</g>
<!-- m::com.android.server.pm.CrossProfileIntentResolverEngine.hasNonNegativePriority:(Ljava/util/List;)Z&#45;&gt;__field__ -->
<g id="edge12" class="edge">
<title>m::com.android.server.pm.CrossProfileIntentResolverEngine.hasNonNegativePriority:(Ljava/util/List;)Z&#45;&gt;__field__</title>
<path fill="none" stroke="#dc2626" d="M418.07,-255.67C479.97,-255.72 549.61,-262.96 609,-287.13 634.64,-297.56 657.6,-319.52 672.83,-336.83"/>
<polygon fill="#dc2626" stroke="#dc2626" points="670.76,-338.71 678.09,-342.96 675.01,-335.06 670.76,-338.71"/>
<text text-anchor="middle" x="567" y="-289.93" font-family="Helvetica,sans-Serif" font-size="9.00" fill="#dc2626"> reads unguarded</text>
</g>
<!-- m::com.android.server.pm.PackageManagerService.getDomainVerificationAgentComponentNameLPr:(Lcom/android/server/pm/Computer;I)Landroid/content/ComponentName; -->
<g id="node11" class="node">
<title>m::com.android.server.pm.PackageManagerService.getDomainVerificationAgentComponentNameLPr:(Lcom/android/server/pm/Computer;I)Landroid/content/ComponentName;</title>
<path fill="#fee2e2" stroke="#dc2626" d="M449.5,-231.13C449.5,-231.13 53.5,-231.13 53.5,-231.13 47.5,-231.13 41.5,-225.13 41.5,-219.13 41.5,-219.13 41.5,-207.13 41.5,-207.13 41.5,-201.13 47.5,-195.13 53.5,-195.13 53.5,-195.13 449.5,-195.13 449.5,-195.13 455.5,-195.13 461.5,-201.13 461.5,-207.13 461.5,-207.13 461.5,-219.13 461.5,-219.13 461.5,-225.13 455.5,-231.13 449.5,-231.13"/>
<text text-anchor="middle" x="251.5" y="-210.33" font-family="Helvetica,sans-Serif" font-size="11.00">PackageManagerService.getDomainVerificationAgentComponentNameLPr</text>
</g>
<!-- m::com.android.server.pm.PackageManagerService.getDomainVerificationAgentComponentNameLPr:(Lcom/android/server/pm/Computer;I)Landroid/content/ComponentName;&#45;&gt;__field__ -->
<g id="edge13" class="edge">
<title>m::com.android.server.pm.PackageManagerService.getDomainVerificationAgentComponentNameLPr:(Lcom/android/server/pm/Computer;I)Landroid/content/ComponentName;&#45;&gt;__field__</title>
<path fill="none" stroke="#dc2626" d="M461.75,-204.74C512.5,-210.32 564.82,-222.97 609,-248.13 643.66,-267.86 667.95,-308.61 680.95,-335.4"/>
<polygon fill="#dc2626" stroke="#dc2626" points="678.53,-336.84 684.47,-342.9 683.6,-334.46 678.53,-336.84"/>
<text text-anchor="middle" x="567" y="-250.93" font-family="Helvetica,sans-Serif" font-size="9.00" fill="#dc2626"> reads unguarded</text>
</g>
<!-- m::com.android.server.pm.PackageManagerService.getIntentFilterVerifierComponentNameLPr:(Lcom/android/server/pm/Computer;)Landroid/content/ComponentName; -->
<g id="node12" class="node">
<title>m::com.android.server.pm.PackageManagerService.getIntentFilterVerifierComponentNameLPr:(Lcom/android/server/pm/Computer;)Landroid/content/ComponentName;</title>
<path fill="#fee2e2" stroke="#dc2626" d="M431,-173.13C431,-173.13 72,-173.13 72,-173.13 66,-173.13 60,-167.13 60,-161.13 60,-161.13 60,-149.13 60,-149.13 60,-143.13 66,-137.13 72,-137.13 72,-137.13 431,-137.13 431,-137.13 437,-137.13 443,-143.13 443,-149.13 443,-149.13 443,-161.13 443,-161.13 443,-167.13 437,-173.13 431,-173.13"/>
<text text-anchor="middle" x="251.5" y="-152.33" font-family="Helvetica,sans-Serif" font-size="11.00">PackageManagerService.getIntentFilterVerifierComponentNameLPr</text>
</g>
<!-- m::com.android.server.pm.PackageManagerService.getIntentFilterVerifierComponentNameLPr:(Lcom/android/server/pm/Computer;)Landroid/content/ComponentName;&#45;&gt;__field__ -->
<g id="edge14" class="edge">
<title>m::com.android.server.pm.PackageManagerService.getIntentFilterVerifierComponentNameLPr:(Lcom/android/server/pm/Computer;)Landroid/content/ComponentName;&#45;&gt;__field__</title>
<path fill="none" stroke="#dc2626" d="M443.44,-145.85C501.08,-151.53 561.58,-166.87 609,-201.13 654.2,-233.79 676.69,-298.51 686.19,-334.83"/>
<polygon fill="#dc2626" stroke="#dc2626" points="683.57,-335.91 688.23,-342.99 689,-334.55 683.57,-335.91"/>
<text text-anchor="middle" x="567" y="-203.93" font-family="Helvetica,sans-Serif" font-size="9.00" fill="#dc2626"> reads unguarded</text>
</g>
<!-- m::com.android.server.pm.PackageManagerShellCommand.printResolveInfo:(Landroid/util/PrintWriterPrinter;Ljava/lang/String;Landroid/content/pm/ResolveInfo;ZZ)V -->
<g id="node13" class="node">
<title>m::com.android.server.pm.PackageManagerShellCommand.printResolveInfo:(Landroid/util/PrintWriterPrinter;Ljava/lang/String;Landroid/content/pm/ResolveInfo;ZZ)V</title>
<path fill="#fee2e2" stroke="#dc2626" d="M381.5,-115.13C381.5,-115.13 121.5,-115.13 121.5,-115.13 115.5,-115.13 109.5,-109.13 109.5,-103.13 109.5,-103.13 109.5,-91.13 109.5,-91.13 109.5,-85.13 115.5,-79.13 121.5,-79.13 121.5,-79.13 381.5,-79.13 381.5,-79.13 387.5,-79.13 393.5,-85.13 393.5,-91.13 393.5,-91.13 393.5,-103.13 393.5,-103.13 393.5,-109.13 387.5,-115.13 381.5,-115.13"/>
<text text-anchor="middle" x="251.5" y="-94.33" font-family="Helvetica,sans-Serif" font-size="11.00">PackageManagerShellCommand.printResolveInfo</text>
</g>
<!-- m::com.android.server.pm.PackageManagerShellCommand.printResolveInfo:(Landroid/util/PrintWriterPrinter;Ljava/lang/String;Landroid/content/pm/ResolveInfo;ZZ)V&#45;&gt;__field__ -->
<g id="edge15" class="edge">
<title>m::com.android.server.pm.PackageManagerShellCommand.printResolveInfo:(Landroid/util/PrintWriterPrinter;Ljava/lang/String;Landroid/content/pm/ResolveInfo;ZZ)V&#45;&gt;__field__</title>
<path fill="none" stroke="#dc2626" d="M393.64,-83.91C465.69,-84.76 550.28,-98.47 609,-148.13 666.23,-196.52 684.19,-289.41 689.68,-334.83"/>
<polygon fill="#dc2626" stroke="#dc2626" points="686.92,-335.35 690.59,-342.99 692.48,-334.73 686.92,-335.35"/>
<text text-anchor="middle" x="567" y="-150.93" font-family="Helvetica,sans-Serif" font-size="9.00" fill="#dc2626"> reads unguarded</text>
</g>
<!-- m::com.android.server.pm.ResolveIntentHelper.chooseBestActivity:(Lcom/android/server/pm/Computer;Landroid/content/Intent;Ljava/lang/String;JJLjava/util/List;IZ)Landroid/content/pm/ResolveInfo; -->
<g id="node14" class="node">
<title>m::com.android.server.pm.ResolveIntentHelper.chooseBestActivity:(Lcom/android/server/pm/Computer;Landroid/content/Intent;Ljava/lang/String;JJLjava/util/List;IZ)Landroid/content/pm/ResolveInfo;</title>
<path fill="#fee2e2" stroke="#dc2626" d="M358,-57.13C358,-57.13 145,-57.13 145,-57.13 139,-57.13 133,-51.13 133,-45.13 133,-45.13 133,-33.13 133,-33.13 133,-27.13 139,-21.13 145,-21.13 145,-21.13 358,-21.13 358,-21.13 364,-21.13 370,-27.13 370,-33.13 370,-33.13 370,-45.13 370,-45.13 370,-51.13 364,-57.13 358,-57.13"/>
<text text-anchor="middle" x="251.5" y="-36.33" font-family="Helvetica,sans-Serif" font-size="11.00">ResolveIntentHelper.chooseBestActivity</text>
</g>
<!-- m::com.android.server.pm.ResolveIntentHelper.chooseBestActivity:(Lcom/android/server/pm/Computer;Landroid/content/Intent;Ljava/lang/String;JJLjava/util/List;IZ)Landroid/content/pm/ResolveInfo;&#45;&gt;__field__ -->
<g id="edge16" class="edge">
<title>m::com.android.server.pm.ResolveIntentHelper.chooseBestActivity:(Lcom/android/server/pm/Computer;Landroid/content/Intent;Ljava/lang/String;JJLjava/util/List;IZ)Landroid/content/pm/ResolveInfo;&#45;&gt;__field__</title>
<path fill="none" stroke="#dc2626" d="M370.2,-42.31C460.32,-47.24 574.8,-59.71 609,-91.13 679.95,-156.32 690.88,-280.5 692.13,-334.71"/>
<polygon fill="#dc2626" stroke="#dc2626" points="689.33,-334.83 692.26,-342.79 694.93,-334.75 689.33,-334.83"/>
<text text-anchor="middle" x="567" y="-93.93" font-family="Helvetica,sans-Serif" font-size="9.00" fill="#dc2626"> reads unguarded</text>
</g>
<!-- m::com.android.server.pm.ResolveIntentHelper.chooseBestActivity:(Lcom/android/server/pm/Computer;Landroid/content/Intent;Ljava/lang/String;JJLjava/util/List;IZ)Landroid/content/pm/ResolveInfo;&#45;&gt;__field__ -->
<g id="edge17" class="edge">
<title>m::com.android.server.pm.ResolveIntentHelper.chooseBestActivity:(Lcom/android/server/pm/Computer;Landroid/content/Intent;Ljava/lang/String;JJLjava/util/List;IZ)Landroid/content/pm/ResolveInfo;&#45;&gt;__field__</title>
<path fill="none" stroke="#dc2626" d="M309.1,-21.08C385.77,-0.45 522.93,22.42 609,-45.13 655.11,-81.31 680.86,-265.01 689.08,-334.47"/>
<polygon fill="#dc2626" stroke="#dc2626" points="686.33,-335.11 690.04,-342.74 691.9,-334.47 686.33,-335.11"/>
<text text-anchor="middle" x="567" y="-47.93" font-family="Helvetica,sans-Serif" font-size="9.00" fill="#dc2626"> reads unguarded</text>
</g>
</g>
</svg>
