<?xml version="1.0" encoding="UTF-8" standalone="no"?>
<!DOCTYPE svg PUBLIC "-//W3C//DTD SVG 1.1//EN"
 "http://www.w3.org/Graphics/SVG/1.1/DTD/svg11.dtd">
<!-- Generated by graphviz version 2.43.0 (0)
 -->
<!-- Title: race Pages: 1 -->
<svg width="607pt" height="452pt"
 viewBox="0.00 0.00 607.00 452.00" xmlns="http://www.w3.org/2000/svg" xmlns:xlink="http://www.w3.org/1999/xlink">
<g id="graph0" class="graph" transform="scale(1 1) rotate(0) translate(4 448)">
<title>race</title>
<polygon fill="white" stroke="transparent" points="-4,4 -4,-448 603,-448 603,4 -4,4"/>
<!-- __field__ -->
<g id="node1" class="node">
<title>__field__</title>
<path fill="#fef9c3" stroke="#ca8a04" stroke-width="2" d="M587,-259C587,-259 414,-259 414,-259 408,-259 402,-253 402,-247 402,-247 402,-235 402,-235 402,-229 408,-223 414,-223 414,-223 587,-223 587,-223 593,-223 599,-229 599,-235 599,-235 599,-247 599,-247 599,-253 593,-259 587,-259"/>
<text text-anchor="middle" x="500.5" y="-238.2" font-family="Helvetica,sans-Serif" font-size="11.00">AttributedOp.mInProgressEvents</text>
</g>
<!-- __guard__ -->
<g id="node2" class="node">
<title>__guard__</title>
<path fill="#dcfce7" stroke="#16a34a" stroke-width="2" d="M193.5,-444C193.5,-444 80.5,-444 80.5,-444 74.5,-444 68.5,-438 68.5,-432 68.5,-432 68.5,-420 68.5,-420 68.5,-414 74.5,-408 80.5,-408 80.5,-408 193.5,-408 193.5,-408 199.5,-408 205.5,-414 205.5,-420 205.5,-420 205.5,-432 205.5,-432 205.5,-438 199.5,-444 193.5,-444"/>
<text text-anchor="middle" x="137" y="-423.2" font-family="Helvetica,sans-Serif" font-size="11.00">appop.AppOpsService</text>
</g>
<!-- __guard__&#45;&gt;__field__ -->
<g id="edge1" class="edge">
<title>__guard__&#45;&gt;__field__</title>
<path fill="none" stroke="#16a34a" stroke-width="1.6" d="M205.69,-428.47C256.76,-427.42 326.84,-419.55 380,-389 430.58,-359.93 468.25,-300.51 486.75,-266.47"/>
<polygon fill="#16a34a" stroke="#16a34a" stroke-width="1.6" points="489.33,-267.58 490.61,-259.2 484.39,-264.95 489.33,-267.58"/>
<text text-anchor="middle" x="338" y="-420.8" font-family="Helvetica,sans-Serif" font-size="9.00" fill="#15803d"> guards 3/4</text>
</g>
<!-- m::com.android.server.appop.AttributedOp.finishOrPause:(Landroid/os/IBinder;ZZ)V -->
<g id="node3" class="node">
<title>m::com.android.server.appop.AttributedOp.finishOrPause:(Landroid/os/IBinder;ZZ)V</title>
<path fill="#fee2e2" stroke="#dc2626" d="M208.5,-333C208.5,-333 65.5,-333 65.5,-333 59.5,-333 53.5,-327 53.5,-321 53.5,-321 53.5,-309 53.5,-309 53.5,-303 59.5,-297 65.5,-297 65.5,-297 208.5,-297 208.5,-297 214.5,-297 220.5,-303 220.5,-309 220.5,-309 220.5,-321 220.5,-321 220.5,-327 214.5,-333 208.5,-333"/>
<text text-anchor="middle" x="137" y="-312.2" font-family="Helvetica,sans-Serif" font-size="11.00">AttributedOp.finishOrPause</text>
</g>
<!-- m::com.android.server.appop.AttributedOp.finishOrPause:(Landroid/os/IBinder;ZZ)V&#45;&gt;__field__ -->
<g id="edge2" class="edge">
<title>m::com.android.server.appop.AttributedOp.finishOrPause:(Landroid/os/IBinder;ZZ)V&#45;&gt;__field__</title>
<path fill="none" stroke="#dc2626" d="M170.53,-333.08C218.16,-357.01 308.92,-392.87 380,-363 426.81,-343.33 464.47,-295.37 484.28,-265.78"/>
<polygon fill="#dc2626" stroke="#dc2626" points="486.65,-267.27 488.69,-259.04 481.97,-264.2 486.65,-267.27"/>
<text text-anchor="middle" x="338" y="-376.8" font-family="Helvetica,sans-Serif" font-size="9.00" fill="#dc2626"> writes unguarded</text>
</g>
<!-- m::com.android.server.appop.AttributedOp.finishOrPause:(Landroid/os/IBinder;ZZ)V&#45;&gt;__field__ -->
<g id="edge6" class="edge">
<title>m::com.android.server.appop.AttributedOp.finishOrPause:(Landroid/os/IBinder;ZZ)V&#45;&gt;__field__</title>
<path fill="none" stroke="#dc2626" d="M220.54,-332.78C268.22,-339.63 328.72,-342.38 380,-326 417.46,-314.03 453.23,-285.56 475.7,-264.86"/>
<polygon fill="#dc2626" stroke="#dc2626" points="477.76,-266.76 481.68,-259.24 473.93,-262.68 477.76,-266.76"/>
<text text-anchor="middle" x="338" y="-340.8" font-family="Helvetica,sans-Serif" font-size="9.00" fill="#dc2626"> reads unguarded</text>
</g>
<!-- m::com.android.server.appop.AttributedOp.finishOrPause:(Landroid/os/IBinder;ZZ)V&#45;&gt;__field__ -->
<g id="edge7" class="edge">
<title>m::com.android.server.appop.AttributedOp.finishOrPause:(Landroid/os/IBinder;ZZ)V&#45;&gt;__field__</title>
<path fill="none" stroke="#dc2626" d="M220.75,-311.74C267.97,-308.49 327.93,-301.99 380,-289 405.42,-282.66 432.61,-272.06 454.62,-262.44"/>
<polygon fill="#dc2626" stroke="#dc2626" points="456,-264.89 462.18,-259.09 453.73,-259.77 456,-264.89"/>
<text text-anchor="middle" x="338" y="-305.8" font-family="Helvetica,sans-Serif" font-size="9.00" fill="#dc2626"> reads unguarded</text>
</g>
<!-- m::com.android.server.appop.AttributedOp.finishOrPause:(Landroid/os/IBinder;ZZ)V&#45;&gt;__field__ -->
<g id="edge8" class="edge">
<title>m::com.android.server.appop.AttributedOp.finishOrPause:(Landroid/os/IBinder;ZZ)V&#45;&gt;__field__</title>
<path fill="none" stroke="#dc2626" d="M211.78,-296.91C238.27,-290.63 268.42,-283.73 296,-278 327.68,-271.41 362.27,-264.88 393.8,-259.18"/>
<polygon fill="#dc2626" stroke="#dc2626" points="394.37,-261.92 401.75,-257.75 393.38,-256.41 394.37,-261.92"/>
<text text-anchor="middle" x="338" y="-280.8" font-family="Helvetica,sans-Serif" font-size="9.00" fill="#dc2626"> reads unguarded</text>
</g>
<!-- m::com.android.server.appop.AttributedOp.finishOrPause:(Landroid/os/IBinder;ZZ)V&#45;&gt;__field__ -->
<g id="edge9" class="edge">
<title>m::com.android.server.appop.AttributedOp.finishOrPause:(Landroid/os/IBinder;ZZ)V&#45;&gt;__field__</title>
<path fill="none" stroke="#dc2626" d="M169.44,-296.91C200.46,-280.12 249.83,-256.24 296,-246 327.33,-239.05 362.04,-236.41 393.79,-235.88"/>
<polygon fill="#dc2626" stroke="#dc2626" points="393.82,-238.68 401.79,-235.79 393.76,-233.08 393.82,-238.68"/>
<text text-anchor="middle" x="338" y="-248.8" font-family="Helvetica,sans-Serif" font-size="9.00" fill="#dc2626"> reads unguarded</text>
</g>
<!-- m::com.android.server.appop.AttributedOp.createAttributedOpEntryLocked:()Landroid/app/AppOpsManager$AttributedOpEntry; -->
<g id="node4" class="node">
<title>m::com.android.server.appop.AttributedOp.createAttributedOpEntryLocked:()Landroid/app/AppOpsManager$AttributedOpEntry;</title>
<path fill="#fee2e2" stroke="#dc2626" d="M258,-218C258,-218 16,-218 16,-218 10,-218 4,-212 4,-206 4,-206 4,-194 4,-194 4,-188 10,-182 16,-182 16,-182 258,-182 258,-182 264,-182 270,-188 270,-194 270,-194 270,-206 270,-206 270,-212 264,-218 258,-218"/>
<text text-anchor="middle" x="137" y="-197.2" font-family="Helvetica,sans-Serif" font-size="11.00">AttributedOp.createAttributedOpEntryLocked</text>
</g>
<!-- m::com.android.server.appop.AttributedOp.createAttributedOpEntryLocked:()Landroid/app/AppOpsManager$AttributedOpEntry;&#45;&gt;__field__ -->
<g id="edge3" class="edge">
<title>m::com.android.server.appop.AttributedOp.createAttributedOpEntryLocked:()Landroid/app/AppOpsManager$AttributedOpEntry;&#45;&gt;__field__</title>
<path fill="none" stroke="#dc2626" d="M270.15,-195.42C305.98,-196.02 344.63,-198.35 380,-204 401.49,-207.43 424.46,-213.85 444.47,-220.38"/>
<polygon fill="#dc2626" stroke="#dc2626" points="443.79,-223.11 452.27,-222.98 445.56,-217.8 443.79,-223.11"/>
<text text-anchor="middle" x="338" y="-206.8" font-family="Helvetica,sans-Serif" font-size="9.00" fill="#dc2626"> reads unguarded</text>
</g>
<!-- m::com.android.server.appop.AttributedOp.createAttributedOpEntryLocked:()Landroid/app/AppOpsManager$AttributedOpEntry;&#45;&gt;__field__ -->
<g id="edge4" class="edge">
<title>m::com.android.server.appop.AttributedOp.createAttributedOpEntryLocked:()Landroid/app/AppOpsManager$AttributedOpEntry;&#45;&gt;__field__</title>
<path fill="none" stroke="#dc2626" d="M214.96,-181.96C262.98,-173.65 325.77,-168.15 380,-181 410.71,-188.28 442.5,-204.74 465.56,-218.59"/>
<polygon fill="#dc2626" stroke="#dc2626" points="464.14,-221 472.43,-222.79 467.07,-216.23 464.14,-221"/>
<text text-anchor="middle" x="338" y="-183.8" font-family="Helvetica,sans-Serif" font-size="9.00" fill="#dc2626"> reads unguarded</text>
</g>
<!-- m::com.android.server.appop.AttributedOp.doForAllInProgressStartOpEvents:(Ljava/util/function/Consumer;)V -->
<g id="node5" class="node">
<title>m::com.android.server.appop.AttributedOp.doForAllInProgressStartOpEvents:(Ljava/util/function/Consumer;)V</title>
<path fill="#fee2e2" stroke="#dc2626" d="M262,-152C262,-152 12,-152 12,-152 6,-152 0,-146 0,-140 0,-140 0,-128 0,-128 0,-122 6,-116 12,-116 12,-116 262,-116 262,-116 268,-116 274,-122 274,-128 274,-128 274,-140 274,-140 274,-146 268,-152 262,-152"/>
<text text-anchor="middle" x="137" y="-131.2" font-family="Helvetica,sans-Serif" font-size="11.00">AttributedOp.doForAllInProgressStartOpEvents</text>
</g>
<!-- m::com.android.server.appop.AttributedOp.doForAllInProgressStartOpEvents:(Ljava/util/function/Consumer;)V&#45;&gt;__field__ -->
<g id="edge5" class="edge">
<title>m::com.android.server.appop.AttributedOp.doForAllInProgressStartOpEvents:(Ljava/util/function/Consumer;)V&#45;&gt;__field__</title>
<path fill="none" stroke="#dc2626" d="M274.18,-135.37C309.45,-138.98 346.82,-145.78 380,-158 415.97,-171.25 451.28,-197.95 474.08,-217.5"/>
<polygon fill="#dc2626" stroke="#dc2626" points="472.29,-219.67 480.16,-222.81 475.97,-215.44 472.29,-219.67"/>
<text text-anchor="middle" x="338" y="-160.8" font-family="Helvetica,sans-Serif" font-size="9.00" fill="#dc2626"> reads unguarded</text>
</g>
<!-- m::com.android.server.appop.AttributedOp.isRunning:()Z -->
<g id="node6" class="node">
<title>m::com.android.server.appop.AttributedOp.isRunning:()Z</title>
<path fill="#fee2e2" stroke="#dc2626" d="M197.5,-94C197.5,-94 76.5,-94 76.5,-94 70.5,-94 64.5,-88 64.5,-82 64.5,-82 64.5,-70 64.5,-70 64.5,-64 70.5,-58 76.5,-58 76.5,-58 197.5,-58 197.5,-58 203.5,-58 209.5,-64 209.5,-70 209.5,-70 209.5,-82 209.5,-82 209.5,-88 203.5,-94 197.5,-94"/>
<text text-anchor="middle" x="137" y="-73.2" font-family="Helvetica,sans-Serif" font-size="11.00">AttributedOp.isRunning</text>
</g>
<!-- m::com.android.server.appop.AttributedOp.isRunning:()Z&#45;&gt;__field__ -->
<g id="edge10" class="edge">
<title>m::com.android.server.appop.AttributedOp.isRunning:()Z&#45;&gt;__field__</title>
<path fill="none" stroke="#dc2626" d="M209.66,-79.01C259.84,-83.65 327.1,-95.09 380,-123 423.03,-145.7 460.73,-188.94 481.77,-216.3"/>
<polygon fill="#dc2626" stroke="#dc2626" points="479.7,-218.2 486.76,-222.89 484.17,-214.82 479.7,-218.2"/>
<text text-anchor="middle" x="338" y="-125.8" font-family="Helvetica,sans-Serif" font-size="9.00" fill="#dc2626"> reads unguarded</text>
</g>
<!-- m::com.android.server.appop.AttributedOp.onClientDeath:(Landroid/os/IBinder;)V -->
<g id="node7" class="node">
<title>m::com.android.server.appop.AttributedOp.onClientDeath:(Landroid/os/IBinder;)V</title>
<path fill="#fee2e2" stroke="#dc2626" d="M210,-36C210,-36 64,-36 64,-36 58,-36 52,-30 52,-24 52,-24 52,-12 52,-12 52,-6 58,0 64,0 64,0 210,0 210,0 216,0 222,-6 222,-12 222,-12 222,-24 222,-24 222,-30 216,-36 210,-36"/>
<text text-anchor="middle" x="137" y="-15.2" font-family="Helvetica,sans-Serif" font-size="11.00">AttributedOp.onClientDeath</text>
</g>
<!-- m::com.android.server.appop.AttributedOp.onClientDeath:(Landroid/os/IBinder;)V&#45;&gt;__field__ -->
<g id="edge11" class="edge">
<title>m::com.android.server.appop.AttributedOp.onClientDeath:(Landroid/os/IBinder;)V&#45;&gt;__field__</title>
<path fill="none" stroke="#dc2626" d="M222.1,-23.74C271.76,-30.62 333.74,-45.58 380,-78 431.5,-114.1 469.47,-179.56 487.61,-215.57"/>
<polygon fill="#dc2626" stroke="#dc2626" points="485.12,-216.85 491.17,-222.78 490.14,-214.37 485.12,-216.85"/>
<text text-anchor="middle" x="338" y="-80.8" font-family="Helvetica,sans-Serif" font-size="9.00" fill="#dc2626"> reads unguarded</text>
</g>
</g>
</svg>
