<?xml version="1.0" encoding="UTF-8" standalone="no"?>
<!DOCTYPE svg PUBLIC "-//W3C//DTD SVG 1.1//EN"
 "http://www.w3.org/Graphics/SVG/1.1/DTD/svg11.dtd">
<!-- Generated by graphviz version 2.43.0 (0)
 -->
<!-- Title: race Pages: 1 -->
<svg width="822pt" height="334pt"
 viewBox="0.00 0.00 822.00 334.00" xmlns="http://www.w3.org/2000/svg" xmlns:xlink="http://www.w3.org/1999/xlink">
<g id="graph0" class="graph" transform="scale(1 1) rotate(0) translate(4 330)">
<title>race</title>
<polygon fill="white" stroke="transparent" points="-4,4 -4,-330 818,-330 818,4 -4,4"/>
<!-- __field__ -->
<g id="node1" class="node">
<title>__field__</title>
<path fill="#fef9c3" stroke="#ca8a04" stroke-width="2" d="M802,-189C802,-189 434,-189 434,-189 428,-189 422,-183 422,-177 422,-177 422,-165 422,-165 422,-159 428,-153 434,-153 434,-153 802,-153 802,-153 808,-153 814,-159 814,-165 814,-165 814,-177 814,-177 814,-183 808,-189 802,-189"/>
<text text-anchor="middle" x="618" y="-168.2" font-family="Helvetica,sans-Serif" font-size="11.00">LaunchParamsController$LaunchParams.mPreferredTaskDisplayArea</text>
</g>
<!-- __guard__ -->
<g id="node2" class="node">
<title>__guard__</title>
<path fill="#dcfce7" stroke="#16a34a" stroke-width="2" d="M257.5,-326C257.5,-326 36.5,-326 36.5,-326 30.5,-326 24.5,-320 24.5,-314 24.5,-314 24.5,-302 24.5,-302 24.5,-296 30.5,-290 36.5,-290 36.5,-290 257.5,-290 257.5,-290 263.5,-290 269.5,-296 269.5,-302 269.5,-302 269.5,-314 269.5,-314 269.5,-320 263.5,-326 257.5,-326"/>
<text text-anchor="middle" x="147" y="-305.2" font-family="Helvetica,sans-Serif" font-size="11.00">ActivityTaskManagerService.mGlobalLock</text>
</g>
<!-- __guard__&#45;&gt;__field__ -->
<g id="edge1" class="edge">
<title>__guard__&#45;&gt;__field__</title>
<path fill="none" stroke="#16a34a" stroke-width="1.6" d="M247.74,-289.94C263.3,-286.62 279.14,-282.94 294,-279 389.56,-253.64 498.08,-215.34 561.87,-191.82"/>
<polygon fill="#16a34a" stroke="#16a34a" stroke-width="1.6" points="562.89,-194.42 569.42,-189.02 560.94,-189.17 562.89,-194.42"/>
<text text-anchor="middle" x="358" y="-273.8" font-family="Helvetica,sans-Serif" font-size="9.00" fill="#15803d"> guards 8/10</text>
</g>
<!-- m::com.android.server.wm.LaunchParamsController$LaunchParams.reset:()V -->
<g id="node3" class="node">
<title>m::com.android.server.wm.LaunchParamsController$LaunchParams.reset:()V</title>
<path fill="#fee2e2" stroke="#dc2626" d="M269.5,-268C269.5,-268 24.5,-268 24.5,-268 18.5,-268 12.5,-262 12.5,-256 12.5,-256 12.5,-244 12.5,-244 12.5,-238 18.5,-232 24.5,-232 24.5,-232 269.5,-232 269.5,-232 275.5,-232 281.5,-238 281.5,-244 281.5,-244 281.5,-256 281.5,-256 281.5,-262 275.5,-268 269.5,-268"/>
<text text-anchor="middle" x="147" y="-247.2" font-family="Helvetica,sans-Serif" font-size="11.00">LaunchParamsController$LaunchParams.reset</text>
</g>
<!-- m::com.android.server.wm.LaunchParamsController$LaunchParams.reset:()V&#45;&gt;__field__ -->
<g id="edge2" class="edge">
<title>m::com.android.server.wm.LaunchParamsController$LaunchParams.reset:()V&#45;&gt;__field__</title>
<path fill="none" stroke="#dc2626" d="M255.01,-231.97C328.7,-219.56 426.52,-203.08 501.9,-190.39"/>
<polygon fill="#dc2626" stroke="#dc2626" points="502.62,-193.11 510.04,-189.02 501.69,-187.58 502.62,-193.11"/>
<text text-anchor="middle" x="358" y="-221.8" font-family="Helvetica,sans-Serif" font-size="9.00" fill="#dc2626"> writes unguarded</text>
</g>
<!-- m::com.android.server.wm.LaunchParamsController$LaunchParams.set:(Lcom/android/server/wm/LaunchParamsController$LaunchParams;)V -->
<g id="node4" class="node">
<title>m::com.android.server.wm.LaunchParamsController$LaunchParams.set:(Lcom/android/server/wm/LaunchParamsController$LaunchParams;)V</title>
<path fill="#fee2e2" stroke="#dc2626" d="M263.5,-210C263.5,-210 30.5,-210 30.5,-210 24.5,-210 18.5,-204 18.5,-198 18.5,-198 18.5,-186 18.5,-186 18.5,-180 24.5,-174 30.5,-174 30.5,-174 263.5,-174 263.5,-174 269.5,-174 275.5,-180 275.5,-186 275.5,-186 275.5,-198 275.5,-198 275.5,-204 269.5,-210 263.5,-210"/>
<text text-anchor="middle" x="147" y="-189.2" font-family="Helvetica,sans-Serif" font-size="11.00">LaunchParamsController$LaunchParams.set</text>
</g>
<!-- m::com.android.server.wm.LaunchParamsController$LaunchParams.set:(Lcom/android/server/wm/LaunchParamsController$LaunchParams;)V&#45;&gt;__field__ -->
<g id="edge3" class="edge">
<title>m::com.android.server.wm.LaunchParamsController$LaunchParams.set:(Lcom/android/server/wm/LaunchParamsController$LaunchParams;)V&#45;&gt;__field__</title>
<path fill="none" stroke="#dc2626" d="M275.56,-187.21C315.42,-185.64 359.54,-183.83 400,-182 404.47,-181.8 409,-181.59 413.57,-181.38"/>
<polygon fill="#dc2626" stroke="#dc2626" points="413.96,-184.16 421.82,-181 413.7,-178.57 413.96,-184.16"/>
<text text-anchor="middle" x="358" y="-187.8" font-family="Helvetica,sans-Serif" font-size="9.00" fill="#dc2626"> writes unguarded</text>
</g>
<!-- m::com.android.server.wm.LaunchParamsController$LaunchParams.set:(Lcom/android/server/wm/LaunchParamsController$LaunchParams;)V&#45;&gt;__field__ -->
<g id="edge6" class="edge">
<title>m::com.android.server.wm.LaunchParamsController$LaunchParams.set:(Lcom/android/server/wm/LaunchParamsController$LaunchParams;)V&#45;&gt;__field__</title>
<path fill="none" stroke="#dc2626" d="M275.8,-174.35C289.35,-172.98 302.95,-171.81 316,-171 347.49,-169.04 380.88,-168 413.5,-167.57"/>
<polygon fill="#dc2626" stroke="#dc2626" points="413.82,-170.36 421.78,-167.47 413.75,-164.76 413.82,-170.36"/>
<text text-anchor="middle" x="358" y="-173.8" font-family="Helvetica,sans-Serif" font-size="9.00" fill="#dc2626"> reads unguarded</text>
</g>
<!-- m::com.android.server.wm.LaunchParamsController$LaunchParams.equals:(Ljava/lang/Object;)Z -->
<g id="node5" class="node">
<title>m::com.android.server.wm.LaunchParamsController$LaunchParams.equals:(Ljava/lang/Object;)Z</title>
<path fill="#fee2e2" stroke="#dc2626" d="M273,-152C273,-152 21,-152 21,-152 15,-152 9,-146 9,-140 9,-140 9,-128 9,-128 9,-122 15,-116 21,-116 21,-116 273,-116 273,-116 279,-116 285,-122 285,-128 285,-128 285,-140 285,-140 285,-146 279,-152 273,-152"/>
<text text-anchor="middle" x="147" y="-131.2" font-family="Helvetica,sans-Serif" font-size="11.00">LaunchParamsController$LaunchParams.equals</text>
</g>
<!-- m::com.android.server.wm.LaunchParamsController$LaunchParams.equals:(Ljava/lang/Object;)Z&#45;&gt;__field__ -->
<g id="edge4" class="edge">
<title>m::com.android.server.wm.LaunchParamsController$LaunchParams.equals:(Ljava/lang/Object;)Z&#45;&gt;__field__</title>
<path fill="none" stroke="#dc2626" d="M285.03,-143.39C322.33,-146.05 362.73,-149.04 400,-152 404.48,-152.36 409.01,-152.72 413.57,-153.09"/>
<polygon fill="#dc2626" stroke="#dc2626" points="413.62,-155.9 421.83,-153.76 414.08,-150.32 413.62,-155.9"/>
<text text-anchor="middle" x="358" y="-154.8" font-family="Helvetica,sans-Serif" font-size="9.00" fill="#dc2626"> reads unguarded</text>
</g>
<!-- m::com.android.server.wm.LaunchParamsController$LaunchParams.hashCode:()I -->
<g id="node6" class="node">
<title>m::com.android.server.wm.LaunchParamsController$LaunchParams.hashCode:()I</title>
<path fill="#fee2e2" stroke="#dc2626" d="M282,-94C282,-94 12,-94 12,-94 6,-94 0,-88 0,-82 0,-82 0,-70 0,-70 0,-64 6,-58 12,-58 12,-58 282,-58 282,-58 288,-58 294,-64 294,-70 294,-70 294,-82 294,-82 294,-88 288,-94 282,-94"/>
<text text-anchor="middle" x="147" y="-73.2" font-family="Helvetica,sans-Serif" font-size="11.00">LaunchParamsController$LaunchParams.hashCode</text>
</g>
<!-- m::com.android.server.wm.LaunchParamsController$LaunchParams.hashCode:()I&#45;&gt;__field__ -->
<g id="edge5" class="edge">
<title>m::com.android.server.wm.LaunchParamsController$LaunchParams.hashCode:()I&#45;&gt;__field__</title>
<path fill="none" stroke="#dc2626" d="M239.14,-94.02C257.32,-97.64 276.27,-101.43 294,-105 370.4,-120.39 456.92,-138.09 521.17,-151.28"/>
<polygon fill="#dc2626" stroke="#dc2626" points="520.89,-154.08 529.29,-152.94 522.02,-148.59 520.89,-154.08"/>
<text text-anchor="middle" x="358" y="-126.8" font-family="Helvetica,sans-Serif" font-size="9.00" fill="#dc2626"> reads unguarded</text>
</g>
<!-- m::com.android.server.wm.RootWindowContainer.getOrCreateRootTask:(Lcom/android/server/wm/ActivityRecord;Landroid/app/ActivityOptions;Lcom/android/server/wm/Task;Lcom/android/server/wm/Task;ZLcom/android/server/wm/LaunchParamsController$LaunchParams;I)Lcom/android/server/wm/Task; -->
<g id="node7" class="node">
<title>m::com.android.server.wm.RootWindowContainer.getOrCreateRootTask:(Lcom/android/server/wm/ActivityRecord;Landroid/app/ActivityOptions;Lcom/android/server/wm/Task;Lcom/android/server/wm/Task;ZLcom/android/server/wm/LaunchParamsController$LaunchParams;I)Lcom/android/server/wm/Task;</title>
<path fill="#fee2e2" stroke="#dc2626" d="M264.5,-36C264.5,-36 29.5,-36 29.5,-36 23.5,-36 17.5,-30 17.5,-24 17.5,-24 17.5,-12 17.5,-12 17.5,-6 23.5,0 29.5,0 29.5,0 264.5,0 264.5,0 270.5,0 276.5,-6 276.5,-12 276.5,-12 276.5,-24 276.5,-24 276.5,-30 270.5,-36 264.5,-36"/>
<text text-anchor="middle" x="147" y="-15.2" font-family="Helvetica,sans-Serif" font-size="11.00">RootWindowContainer.getOrCreateRootTask</text>
</g>
<!-- m::com.android.server.wm.RootWindowContainer.getOrCreateRootTask:(Lcom/android/server/wm/ActivityRecord;Landroid/app/ActivityOptions;Lcom/android/server/wm/Task;Lcom/android/server/wm/Task;ZLcom/android/server/wm/LaunchParamsController$LaunchParams;I)Lcom/android/server/wm/Task;&#45;&gt;__field__ -->
<g id="edge7" class="edge">
<title>m::com.android.server.wm.RootWindowContainer.getOrCreateRootTask:(Lcom/android/server/wm/ActivityRecord;Landroid/app/ActivityOptions;Lcom/android/server/wm/Task;Lcom/android/server/wm/Task;ZLcom/android/server/wm/LaunchParamsController$LaunchParams;I)Lcom/android/server/wm/Task;&#45;&gt;__field__</title>
<path fill="none" stroke="#dc2626" d="M250.25,-36C265.03,-39.27 279.97,-42.95 294,-47 394.23,-75.96 507.14,-122.71 569.38,-149.77"/>
<polygon fill="#dc2626" stroke="#dc2626" points="568.27,-152.34 576.72,-152.97 570.51,-147.2 568.27,-152.34"/>
<text text-anchor="middle" x="358" y="-81.8" font-family="Helvetica,sans-Serif" font-size="9.00" fill="#dc2626"> reads unguarded</text>
</g>
</g>
</svg>
