<?xml version="1.0" encoding="UTF-8" standalone="no"?>
<!DOCTYPE svg PUBLIC "-//W3C//DTD SVG 1.1//EN"
 "http://www.w3.org/Graphics/SVG/1.1/DTD/svg11.dtd">
<!-- Generated by graphviz version 2.43.0 (0)
 -->
<!-- Title: race Pages: 1 -->
<svg width="917pt" height="160pt"
 viewBox="0.00 0.00 917.00 160.00" xmlns="http://www.w3.org/2000/svg" xmlns:xlink="http://www.w3.org/1999/xlink">
<g id="graph0" class="graph" transform="scale(1 1) rotate(0) translate(4 156)">
<title>race</title>
<polygon fill="white" stroke="transparent" points="-4,4 -4,-156 913,-156 913,4 -4,4"/>
<!-- __field__ -->
<g id="node1" class="node">
<title>__field__</title>
<path fill="#fef9c3" stroke="#ca8a04" stroke-width="2" d="M897,-94C897,-94 571,-94 571,-94 565,-94 559,-88 559,-82 559,-82 559,-70 559,-70 559,-64 565,-58 571,-58 571,-58 897,-58 897,-58 903,-58 909,-64 909,-70 909,-70 909,-82 909,-82 909,-88 903,-94 897,-94"/>
<text text-anchor="middle" x="734" y="-73.2" font-family="Helvetica,sans-Serif" font-size="11.00">ActivityManagerShellCommand$MyActivityController.mState</text>
</g>
<!-- __guard__ -->
<g id="node2" class="node">
<title>__guard__</title>
<path fill="#dcfce7" stroke="#16a34a" stroke-width="2" d="M368,-152C368,-152 63,-152 63,-152 57,-152 51,-146 51,-140 51,-140 51,-128 51,-128 51,-122 57,-116 63,-116 63,-116 368,-116 368,-116 374,-116 380,-122 380,-128 380,-128 380,-140 380,-140 380,-146 374,-152 368,-152"/>
<text text-anchor="middle" x="215.5" y="-131.2" font-family="Helvetica,sans-Serif" font-size="11.00">am.ActivityManagerShellCommand$MyActivityController</text>
</g>
<!-- __guard__&#45;&gt;__field__ -->
<g id="edge1" class="edge">
<title>__guard__&#45;&gt;__field__</title>
<path fill="none" stroke="#16a34a" stroke-width="1.6" d="M377.09,-115.97C436.61,-109.28 504.24,-101.69 564.44,-94.93"/>
<polygon fill="#16a34a" stroke="#16a34a" stroke-width="1.6" points="564.87,-97.7 572.51,-94.02 564.24,-92.13 564.87,-97.7"/>
<text text-anchor="middle" x="495" y="-108.8" font-family="Helvetica,sans-Serif" font-size="9.00" fill="#15803d"> guards 2/3</text>
</g>
<!-- m::com.android.server.am.ActivityManagerShellCommand$MyActivityController.run:()V -->
<g id="node3" class="node">
<title>m::com.android.server.am.ActivityManagerShellCommand$MyActivityController.run:()V</title>
<path fill="#fee2e2" stroke="#dc2626" d="M368,-94C368,-94 63,-94 63,-94 57,-94 51,-88 51,-82 51,-82 51,-70 51,-70 51,-64 57,-58 63,-58 63,-58 368,-58 368,-58 374,-58 380,-64 380,-70 380,-70 380,-82 380,-82 380,-88 374,-94 368,-94"/>
<text text-anchor="middle" x="215.5" y="-73.2" font-family="Helvetica,sans-Serif" font-size="11.00">ActivityManagerShellCommand$MyActivityController.run</text>
</g>
<!-- m::com.android.server.am.ActivityManagerShellCommand$MyActivityController.run:()V&#45;&gt;__field__ -->
<g id="edge2" class="edge">
<title>m::com.android.server.am.ActivityManagerShellCommand$MyActivityController.run:()V&#45;&gt;__field__</title>
<path fill="none" stroke="#dc2626" d="M380.28,-76C434.49,-76 495.14,-76 550.66,-76"/>
<polygon fill="#dc2626" stroke="#dc2626" points="550.81,-78.8 558.81,-76 550.81,-73.2 550.81,-78.8"/>
<text text-anchor="middle" x="495" y="-78.8" font-family="Helvetica,sans-Serif" font-size="9.00" fill="#dc2626"> writes unguarded</text>
</g>
<!-- m::com.android.server.am.ActivityManagerShellCommand$MyActivityController.run:()V&#45;&gt;__field__ -->
<g id="edge4" class="edge">
<title>m::com.android.server.am.ActivityManagerShellCommand$MyActivityController.run:()V&#45;&gt;__field__</title>
<path fill="none" stroke="#dc2626" d="M380.35,-62.97C430.6,-60.42 486.07,-59.05 537,-61 541.48,-61.17 546.01,-61.36 550.58,-61.58"/>
<polygon fill="#dc2626" stroke="#dc2626" points="550.72,-64.39 558.84,-61.98 550.99,-58.79 550.72,-64.39"/>
<text text-anchor="middle" x="495" y="-63.8" font-family="Helvetica,sans-Serif" font-size="9.00" fill="#dc2626"> reads unguarded</text>
</g>
<!-- m::com.android.server.am.ActivityManagerShellCommand$MyActivityController.printMessageForState:()V -->
<g id="node4" class="node">
<title>m::com.android.server.am.ActivityManagerShellCommand$MyActivityController.printMessageForState:()V</title>
<path fill="#fee2e2" stroke="#dc2626" d="M419,-36C419,-36 12,-36 12,-36 6,-36 0,-30 0,-24 0,-24 0,-12 0,-12 0,-6 6,0 12,0 12,0 419,0 419,0 425,0 431,-6 431,-12 431,-12 431,-24 431,-24 431,-30 425,-36 419,-36"/>
<text text-anchor="middle" x="215.5" y="-15.2" font-family="Helvetica,sans-Serif" font-size="11.00">ActivityManagerShellCommand$MyActivityController.printMessageForState</text>
</g>
<!-- m::com.android.server.am.ActivityManagerShellCommand$MyActivityController.printMessageForState:()V&#45;&gt;__field__ -->
<g id="edge3" class="edge">
<title>m::com.android.server.am.ActivityManagerShellCommand$MyActivityController.printMessageForState:()V&#45;&gt;__field__</title>
<path fill="none" stroke="#dc2626" d="M431.36,-33.93C466.7,-37.17 502.91,-40.87 537,-45 564,-48.27 592.99,-52.47 620.18,-56.72"/>
<polygon fill="#dc2626" stroke="#dc2626" points="619.83,-59.5 628.17,-57.98 620.71,-53.97 619.83,-59.5"/>
<text text-anchor="middle" x="495" y="-47.8" font-family="Helvetica,sans-Serif" font-size="9.00" fill="#dc2626"> reads unguarded</text>
</g>
</g>
</svg>
