<?xml version="1.0" encoding="UTF-8" standalone="no"?>
<!DOCTYPE svg PUBLIC "-//W3C//DTD SVG 1.1//EN"
 "http://www.w3.org/Graphics/SVG/1.1/DTD/svg11.dtd">
<!-- Generated by graphviz version 2.43.0 (0)
 -->
<!-- Title: race Pages: 1 -->
<svg width="791pt" height="110pt"
 viewBox="0.00 0.00 791.00 110.00" xmlns="http://www.w3.org/2000/svg" xmlns:xlink="http://www.w3.org/1999/xlink">
<g id="graph0" class="graph" transform="scale(1 1) rotate(0) translate(4 106)">
<title>race</title>
<polygon fill="white" stroke="transparent" points="-4,4 -4,-106 787,-106 787,4 -4,4"/>
<!-- __field__ -->
<g id="node1" class="node">
<title>__field__</title>
<path fill="#fef9c3" stroke="#ca8a04" stroke-width="2" d="M771,-65C771,-65 438,-65 438,-65 432,-65 426,-59 426,-53 426,-53 426,-41 426,-41 426,-35 432,-29 438,-29 438,-29 771,-29 771,-29 777,-29 783,-35 783,-41 783,-41 783,-53 783,-53 783,-59 777,-65 771,-65"/>
<text text-anchor="middle" x="604.5" y="-44.2" font-family="Helvetica,sans-Serif" font-size="11.00">PowerManagerService$SuspendBlockerImpl.mReferenceCount</text>
</g>
<!-- __guard__ -->
<g id="node2" class="node">
<title>__guard__</title>
<path fill="#dcfce7" stroke="#16a34a" stroke-width="2" d="M283,-102C283,-102 15,-102 15,-102 9,-102 3,-96 3,-90 3,-90 3,-78 3,-78 3,-72 9,-66 15,-66 15,-66 283,-66 283,-66 289,-66 295,-72 295,-78 295,-78 295,-90 295,-90 295,-96 289,-102 283,-102"/>
<text text-anchor="middle" x="149" y="-81.2" font-family="Helvetica,sans-Serif" font-size="11.00">power.PowerManagerService$SuspendBlockerImpl</text>
</g>
<!-- __guard__&#45;&gt;__field__ -->
<g id="edge1" class="edge">
<title>__guard__&#45;&gt;__field__</title>
<path fill="none" stroke="#16a34a" stroke-width="1.6" d="M295.05,-72.17C334.04,-68.98 376.76,-65.5 417.64,-62.16"/>
<polygon fill="#16a34a" stroke="#16a34a" stroke-width="1.6" points="418.04,-64.94 425.79,-61.5 417.59,-59.36 418.04,-64.94"/>
<text text-anchor="middle" x="362" y="-71.8" font-family="Helvetica,sans-Serif" font-size="9.00" fill="#15803d"> guards 3/4</text>
</g>
<!-- m::com.android.server.power.PowerManagerService$SuspendBlockerImpl.finalize:()V -->
<g id="node3" class="node">
<title>m::com.android.server.power.PowerManagerService$SuspendBlockerImpl.finalize:()V</title>
<path fill="#fee2e2" stroke="#dc2626" d="M286,-36C286,-36 12,-36 12,-36 6,-36 0,-30 0,-24 0,-24 0,-12 0,-12 0,-6 6,0 12,0 12,0 286,0 286,0 292,0 298,-6 298,-12 298,-12 298,-24 298,-24 298,-30 292,-36 286,-36"/>
<text text-anchor="middle" x="149" y="-15.2" font-family="Helvetica,sans-Serif" font-size="11.00">PowerManagerService$SuspendBlockerImpl.finalize</text>
</g>
<!-- m::com.android.server.power.PowerManagerService$SuspendBlockerImpl.finalize:()V&#45;&gt;__field__ -->
<g id="edge2" class="edge">
<title>m::com.android.server.power.PowerManagerService$SuspendBlockerImpl.finalize:()V&#45;&gt;__field__</title>
<path fill="none" stroke="#dc2626" d="M298.18,-27.48C336.17,-29.91 377.53,-32.55 417.18,-35.09"/>
<polygon fill="#dc2626" stroke="#dc2626" points="417.45,-37.91 425.61,-35.62 417.81,-32.32 417.45,-37.91"/>
<text text-anchor="middle" x="362" y="-36.8" font-family="Helvetica,sans-Serif" font-size="9.00" fill="#dc2626"> writes unguarded</text>
</g>
<!-- m::com.android.server.power.PowerManagerService$SuspendBlockerImpl.finalize:()V&#45;&gt;__field__ -->
<g id="edge3" class="edge">
<title>m::com.android.server.power.PowerManagerService$SuspendBlockerImpl.finalize:()V&#45;&gt;__field__</title>
<path fill="none" stroke="#dc2626" d="M298.34,-14.3C305.66,-14.19 312.92,-14.08 320,-14 357.33,-13.56 366.79,-10.94 404,-14 437.38,-16.74 473.6,-22.02 505.89,-27.57"/>
<polygon fill="#dc2626" stroke="#dc2626" points="505.65,-30.37 514.01,-28.99 506.61,-24.86 505.65,-30.37"/>
<text text-anchor="middle" x="362" y="-16.8" font-family="Helvetica,sans-Serif" font-size="9.00" fill="#dc2626"> reads unguarded</text>
</g>
</g>
</svg>
