<?xml version="1.0" encoding="UTF-8" standalone="no"?>
<!DOCTYPE svg PUBLIC "-//W3C//DTD SVG 1.1//EN"
 "http://www.w3.org/Graphics/SVG/1.1/DTD/svg11.dtd">
<!-- Generated by graphviz version 2.43.0 (0)
 -->
<!-- Title: race Pages: 1 -->
<svg width="638pt" height="102pt"
 viewBox="0.00 0.00 638.00 102.00" xmlns="http://www.w3.org/2000/svg" xmlns:xlink="http://www.w3.org/1999/xlink">
<g id="graph0" class="graph" transform="scale(1 1) rotate(0) translate(4 98)">
<title>race</title>
<polygon fill="white" stroke="transparent" points="-4,4 -4,-98 634,-98 634,4 -4,4"/>
<!-- __field__ -->
<g id="node1" class="node">
<title>__field__</title>
<path fill="#fef9c3" stroke="#ca8a04" stroke-width="2" d="M618,-65C618,-65 405,-65 405,-65 399,-65 393,-59 393,-53 393,-53 393,-41 393,-41 393,-35 399,-29 405,-29 405,-29 618,-29 618,-29 624,-29 630,-35 630,-41 630,-41 630,-53 630,-53 630,-59 624,-65 618,-65"/>
<text text-anchor="middle" x="511.5" y="-44.2" font-family="Helvetica,sans-Serif" font-size="11.00">SecurityLogMonitor.mAllowedToRetrieve</text>
</g>
<!-- __guard__ -->
<g id="node2" class="node">
<title>__guard__</title>
<path fill="#dcfce7" stroke="#16a34a" stroke-width="2" d="M201,-94C201,-94 64,-94 64,-94 58,-94 52,-88 52,-82 52,-82 52,-70 52,-70 52,-64 58,-58 64,-58 64,-58 201,-58 201,-58 207,-58 213,-64 213,-70 213,-70 213,-82 213,-82 213,-88 207,-94 201,-94"/>
<text text-anchor="middle" x="132.5" y="-73.2" font-family="Helvetica,sans-Serif" font-size="11.00">SecurityLogMonitor.mLock</text>
</g>
<!-- __guard__&#45;&gt;__field__ -->
<g id="edge1" class="edge">
<title>__guard__&#45;&gt;__field__</title>
<path fill="none" stroke="#16a34a" stroke-width="1.6" d="M213.45,-69.85C263.1,-66.03 327.99,-61.04 384.45,-56.7"/>
<polygon fill="#16a34a" stroke="#16a34a" stroke-width="1.6" points="384.96,-59.47 392.72,-56.06 384.53,-53.88 384.96,-59.47"/>
<text text-anchor="middle" x="329" y="-66.8" font-family="Helvetica,sans-Serif" font-size="9.00" fill="#15803d"> guards 5/6</text>
</g>
<!-- m::com.android.server.devicepolicy.SecurityLogMonitor.resetLegacyBufferLocked:()V -->
<g id="node3" class="node">
<title>m::com.android.server.devicepolicy.SecurityLogMonitor.resetLegacyBufferLocked:()V</title>
<path fill="#fee2e2" stroke="#dc2626" d="M253,-36C253,-36 12,-36 12,-36 6,-36 0,-30 0,-24 0,-24 0,-12 0,-12 0,-6 6,0 12,0 12,0 253,0 253,0 259,0 265,-6 265,-12 265,-12 265,-24 265,-24 265,-30 259,-36 253,-36"/>
<text text-anchor="middle" x="132.5" y="-15.2" font-family="Helvetica,sans-Serif" font-size="11.00">SecurityLogMonitor.resetLegacyBufferLocked</text>
</g>
<!-- m::com.android.server.devicepolicy.SecurityLogMonitor.resetLegacyBufferLocked:()V&#45;&gt;__field__ -->
<g id="edge2" class="edge">
<title>m::com.android.server.devicepolicy.SecurityLogMonitor.resetLegacyBufferLocked:()V&#45;&gt;__field__</title>
<path fill="none" stroke="#dc2626" d="M265.09,-28.12C303.86,-31.1 346.18,-34.36 384.58,-37.31"/>
<polygon fill="#dc2626" stroke="#dc2626" points="384.52,-40.12 392.71,-37.94 384.95,-34.53 384.52,-40.12"/>
<text text-anchor="middle" x="329" y="-37.8" font-family="Helvetica,sans-Serif" font-size="9.00" fill="#dc2626"> writes unguarded</text>
</g>
</g>
</svg>
