<?xml version="1.0" encoding="UTF-8" standalone="no"?>
<!DOCTYPE svg PUBLIC "-//W3C//DTD SVG 1.1//EN"
 "http://www.w3.org/Graphics/SVG/1.1/DTD/svg11.dtd">
<!-- Generated by graphviz version 2.43.0 (0)
 -->
<!-- Title: race Pages: 1 -->
<svg width="535pt" height="461pt"
 viewBox="0.00 0.00 535.00 461.00" xmlns="http://www.w3.org/2000/svg" xmlns:xlink="http://www.w3.org/1999/xlink">
<g id="graph0" class="graph" transform="scale(1 1) rotate(0) translate(4 457)">
<title>race</title>
<polygon fill="white" stroke="transparent" points="-4,4 -4,-457 531,-457 531,4 -4,4"/>
<!-- __field__ -->
<g id="node1" class="node">
<title>__field__</title>
<path fill="#fef9c3" stroke="#ca8a04" stroke-width="2" d="M515,-286C515,-286 401,-286 401,-286 395,-286 389,-280 389,-274 389,-274 389,-262 389,-262 389,-256 395,-250 401,-250 401,-250 515,-250 515,-250 521,-250 527,-256 527,-262 527,-262 527,-274 527,-274 527,-280 521,-286 515,-286"/>
<text text-anchor="middle" x="458" y="-265.2" font-family="Helvetica,sans-Serif" font-size="11.00">ServiceRecord.tracker</text>
</g>
<!-- __guard__ -->
<g id="node2" class="node">
<title>__guard__</title>
<path fill="#dcfce7" stroke="#16a34a" stroke-width="2" d="M202,-453C202,-453 59,-453 59,-453 53,-453 47,-447 47,-441 47,-441 47,-429 47,-429 47,-423 53,-417 59,-417 59,-417 202,-417 202,-417 208,-417 214,-423 214,-429 214,-429 214,-441 214,-441 214,-447 208,-453 202,-453"/>
<text text-anchor="middle" x="130.5" y="-432.2" font-family="Helvetica,sans-Serif" font-size="11.00">ProcessStatsService.mLock</text>
</g>
<!-- __guard__&#45;&gt;__field__ -->
<g id="edge1" class="edge">
<title>__guard__&#45;&gt;__field__</title>
<path fill="none" stroke="#16a34a" stroke-width="1.6" d="M214.01,-440.5C261.98,-439.9 321.71,-432.3 367,-404 408.39,-378.13 434.85,-325.43 447.72,-293.77"/>
<polygon fill="#16a34a" stroke="#16a34a" stroke-width="1.6" points="450.37,-294.67 450.7,-286.2 445.16,-292.62 450.37,-294.67"/>
<text text-anchor="middle" x="325" y="-435.8" font-family="Helvetica,sans-Serif" font-size="9.00" fill="#15803d"> guards 3/4</text>
</g>
<!-- m::com.android.server.am.ServiceRecord.getTracker:()Lcom/android/internal/app/procstats/ServiceState; -->
<g id="node3" class="node">
<title>m::com.android.server.am.ServiceRecord.getTracker:()Lcom/android/internal/app/procstats/ServiceState;</title>
<path fill="#fee2e2" stroke="#dc2626" d="M197,-384C197,-384 64,-384 64,-384 58,-384 52,-378 52,-372 52,-372 52,-360 52,-360 52,-354 58,-348 64,-348 64,-348 197,-348 197,-348 203,-348 209,-354 209,-360 209,-360 209,-372 209,-372 209,-378 203,-384 197,-384"/>
<text text-anchor="middle" x="130.5" y="-363.2" font-family="Helvetica,sans-Serif" font-size="11.00">ServiceRecord.getTracker</text>
</g>
<!-- m::com.android.server.am.ServiceRecord.getTracker:()Lcom/android/internal/app/procstats/ServiceState;&#45;&gt;__field__ -->
<g id="edge2" class="edge">
<title>m::com.android.server.am.ServiceRecord.getTracker:()Lcom/android/internal/app/procstats/ServiceState;&#45;&gt;__field__</title>
<path fill="none" stroke="#dc2626" d="M205.14,-384.01C253.34,-392 316.5,-395.08 367,-372 402.18,-355.92 428.88,-318.54 443.74,-293.26"/>
<polygon fill="#dc2626" stroke="#dc2626" points="446.26,-294.5 447.79,-286.16 441.4,-291.72 446.26,-294.5"/>
<text text-anchor="middle" x="325" y="-391.8" font-family="Helvetica,sans-Serif" font-size="9.00" fill="#dc2626"> writes unguarded</text>
</g>
<!-- m::com.android.server.am.ServiceRecord.getTracker:()Lcom/android/internal/app/procstats/ServiceState;&#45;&gt;__field__ -->
<g id="edge9" class="edge">
<title>m::com.android.server.am.ServiceRecord.getTracker:()Lcom/android/internal/app/procstats/ServiceState;&#45;&gt;__field__</title>
<path fill="none" stroke="#dc2626" d="M209.04,-365.59C256.22,-362.98 316.85,-355.35 367,-335 391.54,-325.04 415.4,-306.77 432.38,-291.81"/>
<polygon fill="#dc2626" stroke="#dc2626" points="434.69,-293.5 438.76,-286.06 430.94,-289.34 434.69,-293.5"/>
<text text-anchor="middle" x="325" y="-359.8" font-family="Helvetica,sans-Serif" font-size="9.00" fill="#dc2626"> reads unguarded</text>
</g>
<!-- m::com.android.server.am.ServiceRecord.getTracker:()Lcom/android/internal/app/procstats/ServiceState;&#45;&gt;__field__ -->
<g id="edge10" class="edge">
<title>m::com.android.server.am.ServiceRecord.getTracker:()Lcom/android/internal/app/procstats/ServiceState;&#45;&gt;__field__</title>
<path fill="none" stroke="#dc2626" d="M209.05,-352.79C226.46,-348.69 244.61,-343.49 261,-337 271.56,-332.82 272.62,-328.6 283,-324 318.73,-308.17 329.79,-309.96 367,-298 376.28,-295.02 386.08,-291.81 395.66,-288.64"/>
<polygon fill="#dc2626" stroke="#dc2626" points="396.57,-291.29 403.28,-286.12 394.81,-285.98 396.57,-291.29"/>
<text text-anchor="middle" x="325" y="-326.8" font-family="Helvetica,sans-Serif" font-size="9.00" fill="#dc2626"> reads unguarded</text>
</g>
<!-- m::com.android.server.am.ActiveServices.killServicesLocked:(Lcom/android/server/am/ProcessRecord;Z)V -->
<g id="node4" class="node">
<title>m::com.android.server.am.ActiveServices.killServicesLocked:(Lcom/android/server/am/ProcessRecord;Z)V</title>
<path fill="#fee2e2" stroke="#dc2626" d="M219,-326C219,-326 42,-326 42,-326 36,-326 30,-320 30,-314 30,-314 30,-302 30,-302 30,-296 36,-290 42,-290 42,-290 219,-290 219,-290 225,-290 231,-296 231,-302 231,-302 231,-314 231,-314 231,-320 225,-326 219,-326"/>
<text text-anchor="middle" x="130.5" y="-305.2" font-family="Helvetica,sans-Serif" font-size="11.00">ActiveServices.killServicesLocked</text>
</g>
<!-- m::com.android.server.am.ActiveServices.killServicesLocked:(Lcom/android/server/am/ProcessRecord;Z)V&#45;&gt;__field__ -->
<g id="edge3" class="edge">
<title>m::com.android.server.am.ActiveServices.killServicesLocked:(Lcom/android/server/am/ProcessRecord;Z)V&#45;&gt;__field__</title>
<path fill="none" stroke="#dc2626" d="M231.27,-293.75C248.51,-291.41 266.27,-289.07 283,-287 314.97,-283.04 350.31,-279.1 380.74,-275.84"/>
<polygon fill="#dc2626" stroke="#dc2626" points="381.11,-278.62 388.77,-274.99 380.52,-273.05 381.11,-278.62"/>
<text text-anchor="middle" x="325" y="-289.8" font-family="Helvetica,sans-Serif" font-size="9.00" fill="#dc2626"> reads unguarded</text>
</g>
<!-- m::com.android.server.am.ActiveServices.removeConnectionLocked:(Lcom/android/server/am/ConnectionRecord;Lcom/android/server/am/ProcessRecord;Lcom/android/server/wm/ActivityServiceConnectionsHolder;Z)I -->
<g id="node5" class="node">
<title>m::com.android.server.am.ActiveServices.removeConnectionLocked:(Lcom/android/server/am/ConnectionRecord;Lcom/android/server/am/ProcessRecord;Lcom/android/server/wm/ActivityServiceConnectionsHolder;Z)I</title>
<path fill="#fee2e2" stroke="#dc2626" d="M240,-268C240,-268 21,-268 21,-268 15,-268 9,-262 9,-256 9,-256 9,-244 9,-244 9,-238 15,-232 21,-232 21,-232 240,-232 240,-232 246,-232 252,-238 252,-244 252,-244 252,-256 252,-256 252,-262 246,-268 240,-268"/>
<text text-anchor="middle" x="130.5" y="-247.2" font-family="Helvetica,sans-Serif" font-size="11.00">ActiveServices.removeConnectionLocked</text>
</g>
<!-- m::com.android.server.am.ActiveServices.removeConnectionLocked:(Lcom/android/server/am/ConnectionRecord;Lcom/android/server/am/ProcessRecord;Lcom/android/server/wm/ActivityServiceConnectionsHolder;Z)I&#45;&gt;__field__ -->
<g id="edge4" class="edge">
<title>m::com.android.server.am.ActiveServices.removeConnectionLocked:(Lcom/android/server/am/ConnectionRecord;Lcom/android/server/am/ProcessRecord;Lcom/android/server/wm/ActivityServiceConnectionsHolder;Z)I&#45;&gt;__field__</title>
<path fill="none" stroke="#dc2626" d="M252.14,-245.43C289.07,-245.26 329.77,-246.31 367,-250 371.57,-250.45 376.25,-251.03 380.97,-251.7"/>
<polygon fill="#dc2626" stroke="#dc2626" points="380.58,-254.48 388.91,-252.91 381.42,-248.94 380.58,-254.48"/>
<text text-anchor="middle" x="325" y="-252.8" font-family="Helvetica,sans-Serif" font-size="9.00" fill="#dc2626"> reads unguarded</text>
</g>
<!-- m::com.android.server.am.ActiveServices.serviceDoneExecutingLocked:(Lcom/android/server/am/ServiceRecord;ZZZI)V -->
<g id="node6" class="node">
<title>m::com.android.server.am.ActiveServices.serviceDoneExecutingLocked:(Lcom/android/server/am/ServiceRecord;ZZZI)V</title>
<path fill="#fee2e2" stroke="#dc2626" d="M249,-210C249,-210 12,-210 12,-210 6,-210 0,-204 0,-198 0,-198 0,-186 0,-186 0,-180 6,-174 12,-174 12,-174 249,-174 249,-174 255,-174 261,-180 261,-186 261,-186 261,-198 261,-198 261,-204 255,-210 249,-210"/>
<text text-anchor="middle" x="130.5" y="-189.2" font-family="Helvetica,sans-Serif" font-size="11.00">ActiveServices.serviceDoneExecutingLocked</text>
</g>
<!-- m::com.android.server.am.ActiveServices.serviceDoneExecutingLocked:(Lcom/android/server/am/ServiceRecord;ZZZI)V&#45;&gt;__field__ -->
<g id="edge5" class="edge">
<title>m::com.android.server.am.ActiveServices.serviceDoneExecutingLocked:(Lcom/android/server/am/ServiceRecord;ZZZI)V&#45;&gt;__field__</title>
<path fill="none" stroke="#dc2626" d="M261.06,-207.2C295.84,-212.83 333.17,-220.28 367,-230 381.99,-234.31 397.83,-240.42 411.97,-246.49"/>
<polygon fill="#dc2626" stroke="#dc2626" points="411.18,-249.21 419.63,-249.85 413.43,-244.08 411.18,-249.21"/>
<text text-anchor="middle" x="325" y="-232.8" font-family="Helvetica,sans-Serif" font-size="9.00" fill="#dc2626"> reads unguarded</text>
</g>
<!-- m::com.android.server.am.ActiveServices.serviceProcessGoneLocked:(Lcom/android/server/am/ServiceRecord;Z)V -->
<g id="node7" class="node">
<title>m::com.android.server.am.ActiveServices.serviceProcessGoneLocked:(Lcom/android/server/am/ServiceRecord;Z)V</title>
<path fill="#fee2e2" stroke="#dc2626" d="M244,-152C244,-152 17,-152 17,-152 11,-152 5,-146 5,-140 5,-140 5,-128 5,-128 5,-122 11,-116 17,-116 17,-116 244,-116 244,-116 250,-116 256,-122 256,-128 256,-128 256,-140 256,-140 256,-146 250,-152 244,-152"/>
<text text-anchor="middle" x="130.5" y="-131.2" font-family="Helvetica,sans-Serif" font-size="11.00">ActiveServices.serviceProcessGoneLocked</text>
</g>
<!-- m::com.android.server.am.ActiveServices.serviceProcessGoneLocked:(Lcom/android/server/am/ServiceRecord;Z)V&#45;&gt;__field__ -->
<g id="edge6" class="edge">
<title>m::com.android.server.am.ActiveServices.serviceProcessGoneLocked:(Lcom/android/server/am/ServiceRecord;Z)V&#45;&gt;__field__</title>
<path fill="none" stroke="#dc2626" d="M241.8,-152.01C282.69,-161.48 328.45,-175.52 367,-196 391.24,-208.87 415.34,-228.62 432.49,-244.18"/>
<polygon fill="#dc2626" stroke="#dc2626" points="430.7,-246.34 438.48,-249.7 434.5,-242.22 430.7,-246.34"/>
<text text-anchor="middle" x="325" y="-198.8" font-family="Helvetica,sans-Serif" font-size="9.00" fill="#dc2626"> reads unguarded</text>
</g>
<!-- m::com.android.server.am.ActiveServices.stopServiceLocked:(Lcom/android/server/am/ServiceRecord;Z)V -->
<g id="node8" class="node">
<title>m::com.android.server.am.ActiveServices.stopServiceLocked:(Lcom/android/server/am/ServiceRecord;Z)V</title>
<path fill="#fee2e2" stroke="#dc2626" d="M220.5,-94C220.5,-94 40.5,-94 40.5,-94 34.5,-94 28.5,-88 28.5,-82 28.5,-82 28.5,-70 28.5,-70 28.5,-64 34.5,-58 40.5,-58 40.5,-58 220.5,-58 220.5,-58 226.5,-58 232.5,-64 232.5,-70 232.5,-70 232.5,-82 232.5,-82 232.5,-88 226.5,-94 220.5,-94"/>
<text text-anchor="middle" x="130.5" y="-73.2" font-family="Helvetica,sans-Serif" font-size="11.00">ActiveServices.stopServiceLocked</text>
</g>
<!-- m::com.android.server.am.ActiveServices.stopServiceLocked:(Lcom/android/server/am/ServiceRecord;Z)V&#45;&gt;__field__ -->
<g id="edge7" class="edge">
<title>m::com.android.server.am.ActiveServices.stopServiceLocked:(Lcom/android/server/am/ServiceRecord;Z)V&#45;&gt;__field__</title>
<path fill="none" stroke="#dc2626" d="M232.56,-90.36C277.24,-100.65 328.3,-118.19 367,-148 400.76,-174 428.13,-215.78 443.49,-242.55"/>
<polygon fill="#dc2626" stroke="#dc2626" points="441.13,-244.08 447.49,-249.68 446.01,-241.34 441.13,-244.08"/>
<text text-anchor="middle" x="325" y="-150.8" font-family="Helvetica,sans-Serif" font-size="9.00" fill="#dc2626"> reads unguarded</text>
</g>
<!-- m::com.android.server.am.ActiveServices.stopServiceTokenLocked:(Landroid/content/ComponentName;Landroid/os/IBinder;I)Z -->
<g id="node9" class="node">
<title>m::com.android.server.am.ActiveServices.stopServiceTokenLocked:(Landroid/content/ComponentName;Landroid/os/IBinder;I)Z</title>
<path fill="#fee2e2" stroke="#dc2626" d="M236,-36C236,-36 25,-36 25,-36 19,-36 13,-30 13,-24 13,-24 13,-12 13,-12 13,-6 19,0 25,0 25,0 236,0 236,0 242,0 248,-6 248,-12 248,-12 248,-24 248,-24 248,-30 242,-36 236,-36"/>
<text text-anchor="middle" x="130.5" y="-15.2" font-family="Helvetica,sans-Serif" font-size="11.00">ActiveServices.stopServiceTokenLocked</text>
</g>
<!-- m::com.android.server.am.ActiveServices.stopServiceTokenLocked:(Landroid/content/ComponentName;Landroid/os/IBinder;I)Z&#45;&gt;__field__ -->
<g id="edge8" class="edge">
<title>m::com.android.server.am.ActiveServices.stopServiceTokenLocked:(Landroid/content/ComponentName;Landroid/os/IBinder;I)Z&#45;&gt;__field__</title>
<path fill="none" stroke="#dc2626" d="M248.29,-32.38C289.93,-42.61 334.52,-60.1 367,-90 412.95,-132.3 438.83,-203.35 450.11,-241.64"/>
<polygon fill="#dc2626" stroke="#dc2626" points="447.53,-242.82 452.42,-249.74 452.92,-241.28 447.53,-242.82"/>
<text text-anchor="middle" x="325" y="-92.8" font-family="Helvetica,sans-Serif" font-size="9.00" fill="#dc2626"> reads unguarded</text>
</g>
</g>
</svg>
