<?xml version="1.0" encoding="UTF-8" standalone="no"?>
<!DOCTYPE svg PUBLIC "-//W3C//DTD SVG 1.1//EN"
 "http://www.w3.org/Graphics/SVG/1.1/DTD/svg11.dtd">
<!-- Generated by graphviz version 2.43.0 (0)
 -->
<!-- Title: race Pages: 1 -->
<svg width="590pt" height="110pt"
 viewBox="0.00 0.00 590.00 110.00" xmlns="http://www.w3.org/2000/svg" xmlns:xlink="http://www.w3.org/1999/xlink">
<g id="graph0" class="graph" transform="scale(1 1) rotate(0) translate(4 106)">
<title>race</title>
<polygon fill="white" stroke="transparent" points="-4,4 -4,-106 586,-106 586,4 -4,4"/>
<!-- __field__ -->
<g id="node1" class="node">
<title>__field__</title>
<path fill="#fef9c3" stroke="#ca8a04" stroke-width="2" d="M570,-65C570,-65 415,-65 415,-65 409,-65 403,-59 403,-53 403,-53 403,-41 403,-41 403,-35 409,-29 415,-29 415,-29 570,-29 570,-29 576,-29 582,-35 582,-41 582,-41 582,-53 582,-53 582,-59 576,-65 570,-65"/>
<text text-anchor="middle" x="492.5" y="-44.2" font-family="Helvetica,sans-Serif" font-size="11.00">WallpaperData.primaryColors</text>
</g>
<!-- __guard__ -->
<g id="node2" class="node">
<title>__guard__</title>
<path fill="#dcfce7" stroke="#16a34a" stroke-width="2" d="M225,-102C225,-102 50,-102 50,-102 44,-102 38,-96 38,-90 38,-90 38,-78 38,-78 38,-72 44,-66 50,-66 50,-66 225,-66 225,-66 231,-66 237,-72 237,-78 237,-78 237,-90 237,-90 237,-96 231,-102 225,-102"/>
<text text-anchor="middle" x="137.5" y="-81.2" font-family="Helvetica,sans-Serif" font-size="11.00">WallpaperManagerService.mLock</text>
</g>
<!-- __guard__&#45;&gt;__field__ -->
<g id="edge1" class="edge">
<title>__guard__&#45;&gt;__field__</title>
<path fill="none" stroke="#16a34a" stroke-width="1.6" d="M237.3,-73.64C286.57,-68.48 345.93,-62.26 394.89,-57.13"/>
<polygon fill="#16a34a" stroke="#16a34a" stroke-width="1.6" points="395.3,-59.9 402.97,-56.28 394.72,-54.33 395.3,-59.9"/>
<text text-anchor="middle" x="339" y="-68.8" font-family="Helvetica,sans-Serif" font-size="9.00" fill="#15803d"> guards 4/6</text>
</g>
<!-- m::com.android.server.wallpaper.WallpaperDataParser.parseWallpaperAttributes:(Lcom/android/modules/utils/TypedXmlPullParser;Lcom/android/server/wallpaper/WallpaperData;Z)V -->
<g id="node3" class="node">
<title>m::com.android.server.wallpaper.WallpaperDataParser.parseWallpaperAttributes:(Lcom/android/modules/utils/TypedXmlPullParser;Lcom/android/server/wallpaper/WallpaperData;Z)V</title>
<path fill="#fee2e2" stroke="#dc2626" d="M263,-36C263,-36 12,-36 12,-36 6,-36 0,-30 0,-24 0,-24 0,-12 0,-12 0,-6 6,0 12,0 12,0 263,0 263,0 269,0 275,-6 275,-12 275,-12 275,-24 275,-24 275,-30 269,-36 263,-36"/>
<text text-anchor="middle" x="137.5" y="-15.2" font-family="Helvetica,sans-Serif" font-size="11.00">WallpaperDataParser.parseWallpaperAttributes</text>
</g>
<!-- m::com.android.server.wallpaper.WallpaperDataParser.parseWallpaperAttributes:(Lcom/android/modules/utils/TypedXmlPullParser;Lcom/android/server/wallpaper/WallpaperData;Z)V&#45;&gt;__field__ -->
<g id="edge2" class="edge">
<title>m::com.android.server.wallpaper.WallpaperDataParser.parseWallpaperAttributes:(Lcom/android/modules/utils/TypedXmlPullParser;Lcom/android/server/wallpaper/WallpaperData;Z)V&#45;&gt;__field__</title>
<path fill="none" stroke="#dc2626" d="M275.23,-29.23C315.07,-32.51 357.76,-36.01 394.6,-39.04"/>
<polygon fill="#dc2626" stroke="#dc2626" points="394.65,-41.85 402.86,-39.72 395.11,-36.27 394.65,-41.85"/>
<text text-anchor="middle" x="339" y="-39.8" font-family="Helvetica,sans-Serif" font-size="9.00" fill="#dc2626"> writes unguarded</text>
</g>
<!-- m::com.android.server.wallpaper.WallpaperDataParser.parseWallpaperAttributes:(Lcom/android/modules/utils/TypedXmlPullParser;Lcom/android/server/wallpaper/WallpaperData;Z)V&#45;&gt;__field__ -->
<g id="edge3" class="edge">
<title>m::com.android.server.wallpaper.WallpaperDataParser.parseWallpaperAttributes:(Lcom/android/modules/utils/TypedXmlPullParser;Lcom/android/server/wallpaper/WallpaperData;Z)V&#45;&gt;__field__</title>
<path fill="none" stroke="#dc2626" d="M275.21,-9.96C309.85,-9.82 346.9,-11.31 381,-16 397.37,-18.25 414.73,-22.3 430.72,-26.74"/>
<polygon fill="#dc2626" stroke="#dc2626" points="429.99,-29.44 438.45,-28.95 431.52,-24.06 429.99,-29.44"/>
<text text-anchor="middle" x="339" y="-18.8" font-family="Helvetica,sans-Serif" font-size="9.00" fill="#dc2626"> writes unguarded</text>
</g>
</g>
</svg>
