<?xml version="1.0" encoding="UTF-8" standalone="no"?>
<!DOCTYPE svg PUBLIC "-//W3C//DTD SVG 1.1//EN"
 "http://www.w3.org/Graphics/SVG/1.1/DTD/svg11.dtd">
<!-- Generated by graphviz version 2.43.0 (0)
 -->
<!-- Title: race Pages: 1 -->
<svg width="673pt" height="160pt"
 viewBox="0.00 0.00 673.00 160.00" xmlns="http://www.w3.org/2000/svg" xmlns:xlink="http://www.w3.org/1999/xlink">
<g id="graph0" class="graph" transform="scale(1 1) rotate(0) translate(4 156)">
<title>race</title>
<polygon fill="white" stroke="transparent" points="-4,4 -4,-156 669,-156 669,4 -4,4"/>
<!-- __field__ -->
<g id="node1" class="node">
<title>__field__</title>
<path fill="#fef9c3" stroke="#ca8a04" stroke-width="2" d="M653,-94C653,-94 431,-94 431,-94 425,-94 419,-88 419,-82 419,-82 419,-70 419,-70 419,-64 425,-58 431,-58 431,-58 653,-58 653,-58 659,-58 665,-64 665,-70 665,-70 665,-82 665,-82 665,-88 659,-94 653,-94"/>
<text text-anchor="middle" x="542" y="-73.2" font-family="Helvetica,sans-Serif" font-size="11.00">MediaFocusControl.mFocusFreezerForTest</text>
</g>
<!-- __guard__ -->
<g id="node2" class="node">
<title>__guard__</title>
<path fill="#dcfce7" stroke="#16a34a" stroke-width="2" d="M244.5,-152C244.5,-152 46.5,-152 46.5,-152 40.5,-152 34.5,-146 34.5,-140 34.5,-140 34.5,-128 34.5,-128 34.5,-122 40.5,-116 46.5,-116 46.5,-116 244.5,-116 244.5,-116 250.5,-116 256.5,-122 256.5,-128 256.5,-128 256.5,-140 256.5,-140 256.5,-146 250.5,-152 244.5,-152"/>
<text text-anchor="middle" x="145.5" y="-131.2" font-family="Helvetica,sans-Serif" font-size="11.00">MediaFocusControl.mAudioFocusLock</text>
</g>
<!-- __guard__&#45;&gt;__field__ -->
<g id="edge1" class="edge">
<title>__guard__&#45;&gt;__field__</title>
<path fill="none" stroke="#16a34a" stroke-width="1.6" d="M256.65,-117.81C304.47,-110.77 360.84,-102.49 410.73,-95.15"/>
<polygon fill="#16a34a" stroke="#16a34a" stroke-width="1.6" points="411.17,-97.92 418.67,-93.98 410.35,-92.38 411.17,-97.92"/>
<text text-anchor="middle" x="355" y="-110.8" font-family="Helvetica,sans-Serif" font-size="9.00" fill="#15803d"> guards 2/3</text>
</g>
<!-- m::com.android.server.audio.MediaFocusControl.enterAudioFocusFreezeForTest:(Landroid/os/IBinder;[I)Z -->
<g id="node3" class="node">
<title>m::com.android.server.audio.MediaFocusControl.enterAudioFocusFreezeForTest:(Landroid/os/IBinder;[I)Z</title>
<path fill="#fee2e2" stroke="#dc2626" d="M279,-94C279,-94 12,-94 12,-94 6,-94 0,-88 0,-82 0,-82 0,-70 0,-70 0,-64 6,-58 12,-58 12,-58 279,-58 279,-58 285,-58 291,-64 291,-70 291,-70 291,-82 291,-82 291,-88 285,-94 279,-94"/>
<text text-anchor="middle" x="145.5" y="-73.2" font-family="Helvetica,sans-Serif" font-size="11.00">MediaFocusControl.enterAudioFocusFreezeForTest</text>
</g>
<!-- m::com.android.server.audio.MediaFocusControl.enterAudioFocusFreezeForTest:(Landroid/os/IBinder;[I)Z&#45;&gt;__field__ -->
<g id="edge2" class="edge">
<title>m::com.android.server.audio.MediaFocusControl.enterAudioFocusFreezeForTest:(Landroid/os/IBinder;[I)Z&#45;&gt;__field__</title>
<path fill="none" stroke="#dc2626" d="M291.16,-76C330.27,-76 372.35,-76 410.63,-76"/>
<polygon fill="#dc2626" stroke="#dc2626" points="410.73,-78.8 418.73,-76 410.73,-73.2 410.73,-78.8"/>
<text text-anchor="middle" x="355" y="-78.8" font-family="Helvetica,sans-Serif" font-size="9.00" fill="#dc2626"> writes unguarded</text>
</g>
<!-- m::com.android.server.audio.MediaFocusControl.isFocusFrozenForTest:()Z -->
<g id="node4" class="node">
<title>m::com.android.server.audio.MediaFocusControl.isFocusFrozenForTest:()Z</title>
<path fill="#fee2e2" stroke="#dc2626" d="M253.5,-36C253.5,-36 37.5,-36 37.5,-36 31.5,-36 25.5,-30 25.5,-24 25.5,-24 25.5,-12 25.5,-12 25.5,-6 31.5,0 37.5,0 37.5,0 253.5,0 253.5,0 259.5,0 265.5,-6 265.5,-12 265.5,-12 265.5,-24 265.5,-24 265.5,-30 259.5,-36 253.5,-36"/>
<text text-anchor="middle" x="145.5" y="-15.2" font-family="Helvetica,sans-Serif" font-size="11.00">MediaFocusControl.isFocusFrozenForTest</text>
</g>
<!-- m::com.android.server.audio.MediaFocusControl.isFocusFrozenForTest:()Z&#45;&gt;__field__ -->
<g id="edge3" class="edge">
<title>m::com.android.server.audio.MediaFocusControl.isFocusFrozenForTest:()Z&#45;&gt;__field__</title>
<path fill="none" stroke="#dc2626" d="M265.67,-35.52C311.44,-42.25 363.92,-49.96 410.69,-56.84"/>
<polygon fill="#dc2626" stroke="#dc2626" points="410.42,-59.63 418.75,-58.03 411.24,-54.09 410.42,-59.63"/>
<text text-anchor="middle" x="355" y="-55.8" font-family="Helvetica,sans-Serif" font-size="9.00" fill="#dc2626"> reads unguarded</text>
</g>
</g>
</svg>
