<?xml version="1.0" encoding="UTF-8" standalone="no"?>
<!DOCTYPE svg PUBLIC "-//W3C//DTD SVG 1.1//EN"
 "http://www.w3.org/Graphics/SVG/1.1/DTD/svg11.dtd">
<!-- Generated by graphviz version 2.43.0 (0)
 -->
<!-- Title: race Pages: 1 -->
<svg width="738pt" height="102pt"
 viewBox="0.00 0.00 738.00 102.00" xmlns="http://www.w3.org/2000/svg" xmlns:xlink="http://www.w3.org/1999/xlink">
<g id="graph0" class="graph" transform="scale(1 1) rotate(0) translate(4 98)">
<title>race</title>
<polygon fill="white" stroke="transparent" points="-4,4 -4,-98 734,-98 734,4 -4,4"/>
<!-- __field__ -->
<g id="node1" class="node">
<title>__field__</title>
<path fill="#fef9c3" stroke="#ca8a04" stroke-width="2" d="M718,-65C718,-65 421,-65 421,-65 415,-65 409,-59 409,-53 409,-53 409,-41 409,-41 409,-35 415,-29 421,-29 421,-29 718,-29 718,-29 724,-29 730,-35 730,-41 730,-41 730,-53 730,-53 730,-59 724,-65 718,-65"/>
<text text-anchor="middle" x="569.5" y="-44.2" font-family="Helvetica,sans-Serif" font-size="11.00">MagnificationConnectionManager.mConnectionWrapper</text>
</g>
<!-- __guard__ -->
<g id="node2" class="node">
<title>__guard__</title>
<path fill="#dcfce7" stroke="#16a34a" stroke-width="2" d="M219.5,-94C219.5,-94 61.5,-94 61.5,-94 55.5,-94 49.5,-88 49.5,-82 49.5,-82 49.5,-70 49.5,-70 49.5,-64 55.5,-58 61.5,-58 61.5,-58 219.5,-58 219.5,-58 225.5,-58 231.5,-64 231.5,-70 231.5,-70 231.5,-82 231.5,-82 231.5,-88 225.5,-94 219.5,-94"/>
<text text-anchor="middle" x="140.5" y="-73.2" font-family="Helvetica,sans-Serif" font-size="11.00">MagnificationController.mLock</text>
</g>
<!-- __guard__&#45;&gt;__field__ -->
<g id="edge1" class="edge">
<title>__guard__&#45;&gt;__field__</title>
<path fill="none" stroke="#16a34a" stroke-width="1.6" d="M231.53,-69.89C280.61,-66.55 342.94,-62.32 400.62,-58.4"/>
<polygon fill="#16a34a" stroke="#16a34a" stroke-width="1.6" points="400.93,-61.19 408.73,-57.85 400.55,-55.6 400.93,-61.19"/>
<text text-anchor="middle" x="345" y="-66.8" font-family="Helvetica,sans-Serif" font-size="9.00" fill="#15803d"> guards 3/4</text>
</g>
<!-- m::com.android.server.accessibility.magnification.MagnificationConnectionManager.setConnection:(Landroid/view/accessibility/IMagnificationConnection;)V -->
<g id="node3" class="node">
<title>m::com.android.server.accessibility.magnification.MagnificationConnectionManager.setConnection:(Landroid/view/accessibility/IMagnificationConnection;)V</title>
<path fill="#fee2e2" stroke="#dc2626" d="M269,-36C269,-36 12,-36 12,-36 6,-36 0,-30 0,-24 0,-24 0,-12 0,-12 0,-6 6,0 12,0 12,0 269,0 269,0 275,0 281,-6 281,-12 281,-12 281,-24 281,-24 281,-30 275,-36 269,-36"/>
<text text-anchor="middle" x="140.5" y="-15.2" font-family="Helvetica,sans-Serif" font-size="11.00">MagnificationConnectionManager.setConnection</text>
</g>
<!-- m::com.android.server.accessibility.magnification.MagnificationConnectionManager.setConnection:(Landroid/view/accessibility/IMagnificationConnection;)V&#45;&gt;__field__ -->
<g id="edge2" class="edge">
<title>m::com.android.server.accessibility.magnification.MagnificationConnectionManager.setConnection:(Landroid/view/accessibility/IMagnificationConnection;)V&#45;&gt;__field__</title>
<path fill="none" stroke="#dc2626" d="M281.02,-27.48C319.18,-30.07 360.94,-32.9 400.51,-35.59"/>
<polygon fill="#dc2626" stroke="#dc2626" points="400.75,-38.41 408.92,-36.16 401.13,-32.83 400.75,-38.41"/>
<text text-anchor="middle" x="345" y="-36.8" font-family="Helvetica,sans-Serif" font-size="9.00" fill="#dc2626"> writes unguarded</text>
</g>
</g>
</svg>
