<?xml version="1.0" encoding="UTF-8" standalone="no"?>
<!DOCTYPE svg PUBLIC "-//W3C//DTD SVG 1.1//EN"
 "http://www.w3.org/Graphics/SVG/1.1/DTD/svg11.dtd">
<!-- Generated by graphviz version 2.43.0 (0)
 -->
<!-- Title: race Pages: 1 -->
<svg width="660pt" height="218pt"
 viewBox="0.00 0.00 660.00 218.00" xmlns="http://www.w3.org/2000/svg" xmlns:xlink="http://www.w3.org/1999/xlink">
<g id="graph0" class="graph" transform="scale(1 1) rotate(0) translate(4 214)">
<title>race</title>
<polygon fill="white" stroke="transparent" points="-4,4 -4,-214 656,-214 656,4 -4,4"/>
<!-- __field__ -->
<g id="node1" class="node">
<title>__field__</title>
<path fill="#fef9c3" stroke="#ca8a04" stroke-width="2" d="M640,-123C640,-123 455,-123 455,-123 449,-123 443,-117 443,-111 443,-111 443,-99 443,-99 443,-93 449,-87 455,-87 455,-87 640,-87 640,-87 646,-87 652,-93 652,-99 652,-99 652,-111 652,-111 652,-117 646,-123 640,-123"/>
<text text-anchor="middle" x="547.5" y="-102.2" font-family="Helvetica,sans-Serif" font-size="11.00">SpatializerHelper.mSensorManager</text>
</g>
<!-- __guard__ -->
<g id="node2" class="node">
<title>__guard__</title>
<path fill="#dcfce7" stroke="#16a34a" stroke-width="2" d="M217.5,-210C217.5,-210 97.5,-210 97.5,-210 91.5,-210 85.5,-204 85.5,-198 85.5,-198 85.5,-186 85.5,-186 85.5,-180 91.5,-174 97.5,-174 97.5,-174 217.5,-174 217.5,-174 223.5,-174 229.5,-180 229.5,-186 229.5,-186 229.5,-198 229.5,-198 229.5,-204 223.5,-210 217.5,-210"/>
<text text-anchor="middle" x="157.5" y="-189.2" font-family="Helvetica,sans-Serif" font-size="11.00">audio.SpatializerHelper</text>
</g>
<!-- __guard__&#45;&gt;__field__ -->
<g id="edge1" class="edge">
<title>__guard__&#45;&gt;__field__</title>
<path fill="none" stroke="#16a34a" stroke-width="1.6" d="M229.58,-179.79C256.42,-174.93 287.19,-169.05 315,-163 367.42,-151.59 426.03,-136.88 471.16,-125.14"/>
<polygon fill="#16a34a" stroke="#16a34a" stroke-width="1.6" points="472.11,-127.78 479.14,-123.05 470.7,-122.36 472.11,-127.78"/>
<text text-anchor="middle" x="379" y="-159.8" font-family="Helvetica,sans-Serif" font-size="9.00" fill="#15803d"> guards 2/3</text>
</g>
<!-- m::com.android.server.audio.SpatializerHelper.onInitSensors:()V -->
<g id="node3" class="node">
<title>m::com.android.server.audio.SpatializerHelper.onInitSensors:()V</title>
<path fill="#fee2e2" stroke="#dc2626" d="M239.5,-152C239.5,-152 75.5,-152 75.5,-152 69.5,-152 63.5,-146 63.5,-140 63.5,-140 63.5,-128 63.5,-128 63.5,-122 69.5,-116 75.5,-116 75.5,-116 239.5,-116 239.5,-116 245.5,-116 251.5,-122 251.5,-128 251.5,-128 251.5,-140 251.5,-140 251.5,-146 245.5,-152 239.5,-152"/>
<text text-anchor="middle" x="157.5" y="-131.2" font-family="Helvetica,sans-Serif" font-size="11.00">SpatializerHelper.onInitSensors</text>
</g>
<!-- m::com.android.server.audio.SpatializerHelper.onInitSensors:()V&#45;&gt;__field__ -->
<g id="edge2" class="edge">
<title>m::com.android.server.audio.SpatializerHelper.onInitSensors:()V&#45;&gt;__field__</title>
<path fill="none" stroke="#dc2626" d="M251.93,-127.02C306.97,-122.9 376.94,-117.67 434.87,-113.34"/>
<polygon fill="#dc2626" stroke="#dc2626" points="435.19,-116.13 442.96,-112.74 434.78,-110.54 435.19,-116.13"/>
<text text-anchor="middle" x="379" y="-122.8" font-family="Helvetica,sans-Serif" font-size="9.00" fill="#dc2626"> writes unguarded</text>
</g>
<!-- m::com.android.server.audio.SpatializerHelper.getHeadSensorHandleUpdateTracker:()I -->
<g id="node4" class="node">
<title>m::com.android.server.audio.SpatializerHelper.getHeadSensorHandleUpdateTracker:()I</title>
<path fill="#fee2e2" stroke="#dc2626" d="M303,-94C303,-94 12,-94 12,-94 6,-94 0,-88 0,-82 0,-82 0,-70 0,-70 0,-64 6,-58 12,-58 12,-58 303,-58 303,-58 309,-58 315,-64 315,-70 315,-70 315,-82 315,-82 315,-88 309,-94 303,-94"/>
<text text-anchor="middle" x="157.5" y="-73.2" font-family="Helvetica,sans-Serif" font-size="11.00">SpatializerHelper.getHeadSensorHandleUpdateTracker</text>
</g>
<!-- m::com.android.server.audio.SpatializerHelper.getHeadSensorHandleUpdateTracker:()I&#45;&gt;__field__ -->
<g id="edge3" class="edge">
<title>m::com.android.server.audio.SpatializerHelper.getHeadSensorHandleUpdateTracker:()I&#45;&gt;__field__</title>
<path fill="none" stroke="#dc2626" d="M315.2,-87.71C355.18,-90.7 397.37,-93.85 434.6,-96.64"/>
<polygon fill="#dc2626" stroke="#dc2626" points="434.78,-99.46 442.96,-97.26 435.19,-93.87 434.78,-99.46"/>
<text text-anchor="middle" x="379" y="-97.8" font-family="Helvetica,sans-Serif" font-size="9.00" fill="#dc2626"> reads unguarded</text>
</g>
<!-- m::com.android.server.audio.SpatializerHelper.getScreenSensorHandle:()I -->
<g id="node5" class="node">
<title>m::com.android.server.audio.SpatializerHelper.getScreenSensorHandle:()I</title>
<path fill="#fee2e2" stroke="#dc2626" d="M268,-36C268,-36 47,-36 47,-36 41,-36 35,-30 35,-24 35,-24 35,-12 35,-12 35,-6 41,0 47,0 47,0 268,0 268,0 274,0 280,-6 280,-12 280,-12 280,-24 280,-24 280,-30 274,-36 268,-36"/>
<text text-anchor="middle" x="157.5" y="-15.2" font-family="Helvetica,sans-Serif" font-size="11.00">SpatializerHelper.getScreenSensorHandle</text>
</g>
<!-- m::com.android.server.audio.SpatializerHelper.getScreenSensorHandle:()I&#45;&gt;__field__ -->
<g id="edge4" class="edge">
<title>m::com.android.server.audio.SpatializerHelper.getScreenSensorHandle:()I&#45;&gt;__field__</title>
<path fill="none" stroke="#dc2626" d="M260.97,-36.04C279.01,-39.49 297.58,-43.21 315,-47 367.42,-58.41 426.03,-73.12 471.16,-84.86"/>
<polygon fill="#dc2626" stroke="#dc2626" points="470.7,-87.64 479.14,-86.95 472.11,-82.22 470.7,-87.64"/>
<text text-anchor="middle" x="379" y="-73.8" font-family="Helvetica,sans-Serif" font-size="9.00" fill="#dc2626"> reads unguarded</text>
</g>
</g>
</svg>
