<?xml version="1.0" encoding="UTF-8" standalone="no"?>
<!DOCTYPE svg PUBLIC "-//W3C//DTD SVG 1.1//EN"
 "http://www.w3.org/Graphics/SVG/1.1/DTD/svg11.dtd">
<!-- Generated by graphviz version 2.43.0 (0)
 -->
<!-- Title: race Pages: 1 -->
<svg width="554pt" height="482pt"
 viewBox="0.00 0.00 554.00 482.00" xmlns="http://www.w3.org/2000/svg" xmlns:xlink="http://www.w3.org/1999/xlink">
<g id="graph0" class="graph" transform="scale(1 1) rotate(0) translate(4 478)">
<title>race</title>
<polygon fill="white" stroke="transparent" points="-4,4 -4,-478 550,-478 550,4 -4,4"/>
<!-- __field__ -->
<g id="node1" class="node">
<title>__field__</title>
<path fill="#fef9c3" stroke="#ca8a04" stroke-width="2" d="M534,-270C534,-270 400,-270 400,-270 394,-270 388,-264 388,-258 388,-258 388,-246 388,-246 388,-240 394,-234 400,-234 400,-234 534,-234 534,-234 540,-234 546,-240 546,-246 546,-246 546,-258 546,-258 546,-264 540,-270 534,-270"/>
<text text-anchor="middle" x="467" y="-249.2" font-family="Helvetica,sans-Serif" font-size="11.00">BtHelper.mScoAudioState</text>
</g>
<!-- __guard__ -->
<g id="node2" class="node">
<title>__guard__</title>
<path fill="#dcfce7" stroke="#16a34a" stroke-width="2" d="M167,-474C167,-474 93,-474 93,-474 87,-474 81,-468 81,-462 81,-462 81,-450 81,-450 81,-444 87,-438 93,-438 93,-438 167,-438 167,-438 173,-438 179,-444 179,-450 179,-450 179,-462 179,-462 179,-468 173,-474 167,-474"/>
<text text-anchor="middle" x="130" y="-453.2" font-family="Helvetica,sans-Serif" font-size="11.00">audio.BtHelper</text>
</g>
<!-- __guard__&#45;&gt;__field__ -->
<g id="edge1" class="edge">
<title>__guard__&#45;&gt;__field__</title>
<path fill="none" stroke="#16a34a" stroke-width="1.6" d="M179.41,-459.54C230.18,-460.82 310.19,-455.73 366,-418 416.27,-384.01 445.34,-315.52 458.13,-278.01"/>
<polygon fill="#16a34a" stroke="#16a34a" stroke-width="1.6" points="460.91,-278.54 460.76,-270.06 455.59,-276.78 460.91,-278.54"/>
<text text-anchor="middle" x="324" y="-453.8" font-family="Helvetica,sans-Serif" font-size="9.00" fill="#15803d"> guards 14/19</text>
</g>
<!-- m::com.android.server.audio.BtHelper.onScoAudioStateChanged:(I)V -->
<g id="node3" class="node">
<title>m::com.android.server.audio.BtHelper.onScoAudioStateChanged:(I)V</title>
<path fill="#fee2e2" stroke="#dc2626" d="M222.5,-308C222.5,-308 37.5,-308 37.5,-308 31.5,-308 25.5,-302 25.5,-296 25.5,-296 25.5,-284 25.5,-284 25.5,-278 31.5,-272 37.5,-272 37.5,-272 222.5,-272 222.5,-272 228.5,-272 234.5,-278 234.5,-284 234.5,-284 234.5,-296 234.5,-296 234.5,-302 228.5,-308 222.5,-308"/>
<text text-anchor="middle" x="130" y="-287.2" font-family="Helvetica,sans-Serif" font-size="11.00">BtHelper.onScoAudioStateChanged</text>
</g>
<!-- m::com.android.server.audio.BtHelper.onScoAudioStateChanged:(I)V&#45;&gt;__field__ -->
<g id="edge2" class="edge">
<title>m::com.android.server.audio.BtHelper.onScoAudioStateChanged:(I)V&#45;&gt;__field__</title>
<path fill="none" stroke="#dc2626" d="M148.16,-308.21C187.45,-347.6 286.65,-434 366,-393 412.9,-368.77 442.56,-311.27 456.53,-277.66"/>
<polygon fill="#dc2626" stroke="#dc2626" points="459.2,-278.53 459.59,-270.06 454,-276.44 459.2,-278.53"/>
<text text-anchor="middle" x="324" y="-405.8" font-family="Helvetica,sans-Serif" font-size="9.00" fill="#dc2626"> writes unguarded</text>
</g>
<!-- m::com.android.server.audio.BtHelper.onScoAudioStateChanged:(I)V&#45;&gt;__field__ -->
<g id="edge3" class="edge">
<title>m::com.android.server.audio.BtHelper.onScoAudioStateChanged:(I)V&#45;&gt;__field__</title>
<path fill="none" stroke="#dc2626" d="M156.42,-308.1C200.32,-336.99 292.7,-387.21 366,-356 403.5,-340.04 433.72,-302.35 450.78,-277.01"/>
<polygon fill="#dc2626" stroke="#dc2626" points="453.19,-278.44 455.23,-270.22 448.5,-275.37 453.19,-278.44"/>
<text text-anchor="middle" x="324" y="-367.8" font-family="Helvetica,sans-Serif" font-size="9.00" fill="#dc2626"> writes unguarded</text>
</g>
<!-- m::com.android.server.audio.BtHelper.onScoAudioStateChanged:(I)V&#45;&gt;__field__ -->
<g id="edge4" class="edge">
<title>m::com.android.server.audio.BtHelper.onScoAudioStateChanged:(I)V&#45;&gt;__field__</title>
<path fill="none" stroke="#dc2626" d="M181.55,-308.08C229.85,-322.61 304.25,-337.77 366,-319 394.2,-310.43 421.69,-290.96 440.68,-275.21"/>
<polygon fill="#dc2626" stroke="#dc2626" points="442.5,-277.34 446.78,-270.03 438.87,-273.07 442.5,-277.34"/>
<text text-anchor="middle" x="324" y="-329.8" font-family="Helvetica,sans-Serif" font-size="9.00" fill="#dc2626"> writes unguarded</text>
</g>
<!-- m::com.android.server.audio.BtHelper.onScoAudioStateChanged:(I)V&#45;&gt;__field__ -->
<g id="edge5" class="edge">
<title>m::com.android.server.audio.BtHelper.onScoAudioStateChanged:(I)V&#45;&gt;__field__</title>
<path fill="none" stroke="#dc2626" d="M234.52,-292.2C275.67,-291.59 323.3,-289.01 366,-282 379.53,-279.78 393.8,-276.25 407.18,-272.38"/>
<polygon fill="#dc2626" stroke="#dc2626" points="408.08,-275.04 414.95,-270.07 406.49,-269.67 408.08,-275.04"/>
<text text-anchor="middle" x="324" y="-292.8" font-family="Helvetica,sans-Serif" font-size="9.00" fill="#dc2626"> writes unguarded</text>
</g>
<!-- m::com.android.server.audio.BtHelper.onScoAudioStateChanged:(I)V&#45;&gt;__field__ -->
<g id="edge9" class="edge">
<title>m::com.android.server.audio.BtHelper.onScoAudioStateChanged:(I)V&#45;&gt;__field__</title>
<path fill="none" stroke="#dc2626" d="M234.53,-276.66C250.42,-274.71 266.64,-272.76 282,-271 313.78,-267.36 348.68,-263.68 379.47,-260.53"/>
<polygon fill="#dc2626" stroke="#dc2626" points="379.94,-263.3 387.62,-259.71 379.37,-257.73 379.94,-263.3"/>
<text text-anchor="middle" x="324" y="-273.8" font-family="Helvetica,sans-Serif" font-size="9.00" fill="#dc2626"> reads unguarded</text>
</g>
<!-- m::com.android.server.audio.BtHelper.onScoAudioStateChanged:(I)V&#45;&gt;__field__ -->
<g id="edge10" class="edge">
<title>m::com.android.server.audio.BtHelper.onScoAudioStateChanged:(I)V&#45;&gt;__field__</title>
<path fill="none" stroke="#dc2626" d="M181.27,-271.89C210.29,-262.41 247.72,-251.79 282,-247 318.97,-241.84 328.68,-246.07 366,-247 370.45,-247.11 375.02,-247.25 379.62,-247.41"/>
<polygon fill="#dc2626" stroke="#dc2626" points="379.85,-250.22 387.95,-247.72 380.06,-244.62 379.85,-250.22"/>
<text text-anchor="middle" x="324" y="-249.8" font-family="Helvetica,sans-Serif" font-size="9.00" fill="#dc2626"> reads unguarded</text>
</g>
<!-- m::com.android.server.audio.BtHelper.onScoAudioStateChanged:(I)V&#45;&gt;__field__ -->
<g id="edge11" class="edge">
<title>m::com.android.server.audio.BtHelper.onScoAudioStateChanged:(I)V&#45;&gt;__field__</title>
<path fill="none" stroke="#dc2626" d="M164.92,-271.89C194.79,-257.04 239.95,-237.17 282,-229 318.42,-221.92 359.35,-225.88 393.34,-232.37"/>
<polygon fill="#dc2626" stroke="#dc2626" points="392.98,-235.15 401.37,-233.98 394.08,-229.66 392.98,-235.15"/>
<text text-anchor="middle" x="324" y="-231.8" font-family="Helvetica,sans-Serif" font-size="9.00" fill="#dc2626"> reads unguarded</text>
</g>
<!-- m::com.android.server.audio.BtHelper.onScoAudioStateChanged:(I)V&#45;&gt;__field__ -->
<g id="edge12" class="edge">
<title>m::com.android.server.audio.BtHelper.onScoAudioStateChanged:(I)V&#45;&gt;__field__</title>
<path fill="none" stroke="#dc2626" d="M155.89,-271.87C184.61,-252.17 234.06,-221.91 282,-210 318.23,-201 329.4,-202.63 366,-210 386.19,-214.07 407.38,-222.33 425.03,-230.45"/>
<polygon fill="#dc2626" stroke="#dc2626" points="423.94,-233.03 432.37,-233.91 426.33,-227.97 423.94,-233.03"/>
<text text-anchor="middle" x="324" y="-212.8" font-family="Helvetica,sans-Serif" font-size="9.00" fill="#dc2626"> reads unguarded</text>
</g>
<!-- m::com.android.server.audio.BtHelper.resetBluetoothSco:()V -->
<g id="node4" class="node">
<title>m::com.android.server.audio.BtHelper.resetBluetoothSco:()V</title>
<path fill="#fee2e2" stroke="#dc2626" d="M202.5,-152C202.5,-152 57.5,-152 57.5,-152 51.5,-152 45.5,-146 45.5,-140 45.5,-140 45.5,-128 45.5,-128 45.5,-122 51.5,-116 57.5,-116 57.5,-116 202.5,-116 202.5,-116 208.5,-116 214.5,-122 214.5,-128 214.5,-128 214.5,-140 214.5,-140 214.5,-146 208.5,-152 202.5,-152"/>
<text text-anchor="middle" x="130" y="-131.2" font-family="Helvetica,sans-Serif" font-size="11.00">BtHelper.resetBluetoothSco</text>
</g>
<!-- m::com.android.server.audio.BtHelper.resetBluetoothSco:()V&#45;&gt;__field__ -->
<g id="edge6" class="edge">
<title>m::com.android.server.audio.BtHelper.resetBluetoothSco:()V&#45;&gt;__field__</title>
<path fill="none" stroke="#dc2626" d="M214.73,-146.03C260.6,-154.39 317.75,-167.74 366,-188 391.16,-198.57 417.04,-215.32 436.17,-229.04"/>
<polygon fill="#dc2626" stroke="#dc2626" points="434.53,-231.3 442.64,-233.75 437.82,-226.77 434.53,-231.3"/>
<text text-anchor="middle" x="324" y="-190.8" font-family="Helvetica,sans-Serif" font-size="9.00" fill="#dc2626"> writes unguarded</text>
</g>
<!-- m::com.android.server.audio.BtHelper.dump:(Ljava/io/PrintWriter;Ljava/lang/String;)V -->
<g id="node5" class="node">
<title>m::com.android.server.audio.BtHelper.dump:(Ljava/io/PrintWriter;Ljava/lang/String;)V</title>
<path fill="#fee2e2" stroke="#dc2626" d="M167,-94C167,-94 93,-94 93,-94 87,-94 81,-88 81,-82 81,-82 81,-70 81,-70 81,-64 87,-58 93,-58 93,-58 167,-58 167,-58 173,-58 179,-64 179,-70 179,-70 179,-82 179,-82 179,-88 173,-94 167,-94"/>
<text text-anchor="middle" x="130" y="-73.2" font-family="Helvetica,sans-Serif" font-size="11.00">BtHelper.dump</text>
</g>
<!-- m::com.android.server.audio.BtHelper.dump:(Ljava/io/PrintWriter;Ljava/lang/String;)V&#45;&gt;__field__ -->
<g id="edge7" class="edge">
<title>m::com.android.server.audio.BtHelper.dump:(Ljava/io/PrintWriter;Ljava/lang/String;)V&#45;&gt;__field__</title>
<path fill="none" stroke="#dc2626" d="M179.17,-81.75C229.37,-89.61 308.59,-107.41 366,-146 399.25,-168.35 429.63,-203.61 447.97,-227.26"/>
<polygon fill="#dc2626" stroke="#dc2626" points="445.96,-229.24 453.04,-233.9 450.41,-225.84 445.96,-229.24"/>
<text text-anchor="middle" x="324" y="-148.8" font-family="Helvetica,sans-Serif" font-size="9.00" fill="#dc2626"> reads unguarded</text>
</g>
<!-- m::com.android.server.audio.BtHelper.isBluetoothScoRequestedInternally:()Z -->
<g id="node6" class="node">
<title>m::com.android.server.audio.BtHelper.isBluetoothScoRequestedInternally:()Z</title>
<path fill="#fee2e2" stroke="#dc2626" d="M248,-36C248,-36 12,-36 12,-36 6,-36 0,-30 0,-24 0,-24 0,-12 0,-12 0,-6 6,0 12,0 12,0 248,0 248,0 254,0 260,-6 260,-12 260,-12 260,-24 260,-24 260,-30 254,-36 248,-36"/>
<text text-anchor="middle" x="130" y="-15.2" font-family="Helvetica,sans-Serif" font-size="11.00">BtHelper.isBluetoothScoRequestedInternally</text>
</g>
<!-- m::com.android.server.audio.BtHelper.isBluetoothScoRequestedInternally:()Z&#45;&gt;__field__ -->
<g id="edge8" class="edge">
<title>m::com.android.server.audio.BtHelper.isBluetoothScoRequestedInternally:()Z&#45;&gt;__field__</title>
<path fill="none" stroke="#dc2626" d="M248.43,-36.04C289.25,-47.03 333.02,-64.69 366,-93 409.52,-130.36 440.45,-191.45 455.54,-226.02"/>
<polygon fill="#dc2626" stroke="#dc2626" points="453.14,-227.54 458.86,-233.79 458.29,-225.34 453.14,-227.54"/>
<text text-anchor="middle" x="324" y="-95.8" font-family="Helvetica,sans-Serif" font-size="9.00" fill="#dc2626"> reads unguarded</text>
</g>
</g>
</svg>
