<?xml version="1.0" encoding="UTF-8" standalone="no"?>
<!DOCTYPE svg PUBLIC "-//W3C//DTD SVG 1.1//EN"
 "http://www.w3.org/Graphics/SVG/1.1/DTD/svg11.dtd">
<!-- Generated by graphviz version 2.43.0 (0)
 -->
<!-- Title: race Pages: 1 -->
<svg width="649pt" height="102pt"
 viewBox="0.00 0.00 649.00 102.00" xmlns="http://www.w3.org/2000/svg" xmlns:xlink="http://www.w3.org/1999/xlink">
<g id="graph0" class="graph" transform="scale(1 1) rotate(0) translate(4 98)">
<title>race</title>
<polygon fill="white" stroke="transparent" points="-4,4 -4,-98 645,-98 645,4 -4,4"/>
<!-- __field__ -->
<g id="node1" class="node">
<title>__field__</title>
<path fill="#fef9c3" stroke="#ca8a04" stroke-width="2" d="M629,-65C629,-65 420,-65 420,-65 414,-65 408,-59 408,-53 408,-53 408,-41 408,-41 408,-35 414,-29 420,-29 420,-29 629,-29 629,-29 635,-29 641,-35 641,-41 641,-41 641,-53 641,-53 641,-59 635,-65 629,-65"/>
<text text-anchor="middle" x="524.5" y="-44.2" font-family="Helvetica,sans-Serif" font-size="11.00">LocationBasedCountryDetector.mTimer</text>
</g>
<!-- __guard__ -->
<g id="node2" class="node">
<title>__guard__</title>
<path fill="#dcfce7" stroke="#16a34a" stroke-width="2" d="M268,-94C268,-94 12,-94 12,-94 6,-94 0,-88 0,-82 0,-82 0,-70 0,-70 0,-64 6,-58 12,-58 12,-58 268,-58 268,-58 274,-58 280,-64 280,-70 280,-70 280,-82 280,-82 280,-88 274,-94 268,-94"/>
<text text-anchor="middle" x="140" y="-73.2" font-family="Helvetica,sans-Serif" font-size="11.00">countrydetector.LocationBasedCountryDetector</text>
</g>
<!-- __guard__&#45;&gt;__field__ -->
<g id="edge1" class="edge">
<title>__guard__&#45;&gt;__field__</title>
<path fill="none" stroke="#16a34a" stroke-width="1.6" d="M280.17,-65.45C319.36,-62.48 361.7,-59.27 399.91,-56.37"/>
<polygon fill="#16a34a" stroke="#16a34a" stroke-width="1.6" points="400.23,-59.15 408,-55.76 399.81,-53.57 400.23,-59.15"/>
<text text-anchor="middle" x="344" y="-65.8" font-family="Helvetica,sans-Serif" font-size="9.00" fill="#15803d"> guards 2/3</text>
</g>
<!-- m::com.android.server.location.countrydetector.LocationBasedCountryDetector$2.run:()V -->
<g id="node3" class="node">
<title>m::com.android.server.location.countrydetector.LocationBasedCountryDetector$2.run:()V</title>
<path fill="#fee2e2" stroke="#dc2626" d="M240,-36C240,-36 40,-36 40,-36 34,-36 28,-30 28,-24 28,-24 28,-12 28,-12 28,-6 34,0 40,0 40,0 240,0 240,0 246,0 252,-6 252,-12 252,-12 252,-24 252,-24 252,-30 246,-36 240,-36"/>
<text text-anchor="middle" x="140" y="-15.2" font-family="Helvetica,sans-Serif" font-size="11.00">LocationBasedCountryDetector$2.run</text>
</g>
<!-- m::com.android.server.location.countrydetector.LocationBasedCountryDetector$2.run:()V&#45;&gt;__field__ -->
<g id="edge2" class="edge">
<title>m::com.android.server.location.countrydetector.LocationBasedCountryDetector$2.run:()V&#45;&gt;__field__</title>
<path fill="none" stroke="#dc2626" d="M252.15,-26.43C298.33,-29.93 352.13,-34.01 399.58,-37.6"/>
<polygon fill="#dc2626" stroke="#dc2626" points="399.56,-40.41 407.75,-38.22 399.98,-34.83 399.56,-40.41"/>
<text text-anchor="middle" x="344" y="-37.8" font-family="Helvetica,sans-Serif" font-size="9.00" fill="#dc2626"> writes unguarded</text>
</g>
</g>
</svg>
