<?xml version="1.0" encoding="UTF-8" standalone="no"?>
<!DOCTYPE svg PUBLIC "-//W3C//DTD SVG 1.1//EN"
 "http://www.w3.org/Graphics/SVG/1.1/DTD/svg11.dtd">
<!-- Generated by graphviz version 2.43.0 (0)
 -->
<!-- Title: race Pages: 1 -->
<svg width="549pt" height="160pt"
 viewBox="0.00 0.00 549.00 160.00" xmlns="http://www.w3.org/2000/svg" xmlns:xlink="http://www.w3.org/1999/xlink">
<g id="graph0" class="graph" transform="scale(1 1) rotate(0) translate(4 156)">
<title>race</title>
<polygon fill="white" stroke="transparent" points="-4,4 -4,-156 545,-156 545,4 -4,4"/>
<!-- __field__ -->
<g id="node1" class="node">
<title>__field__</title>
<path fill="#fef9c3" stroke="#ca8a04" stroke-width="2" d="M529,-94C529,-94 362,-94 362,-94 356,-94 350,-88 350,-82 350,-82 350,-70 350,-70 350,-64 356,-58 362,-58 362,-58 529,-58 529,-58 535,-58 541,-64 541,-70 541,-70 541,-82 541,-82 541,-88 535,-94 529,-94"/>
<text text-anchor="middle" x="445.5" y="-73.2" font-family="Helvetica,sans-Serif" font-size="11.00">Session.mWaitForImeAnimation</text>
</g>
<!-- __guard__ -->
<g id="node2" class="node">
<title>__guard__</title>
<path fill="#dcfce7" stroke="#16a34a" stroke-width="2" d="M210,-152C210,-152 12,-152 12,-152 6,-152 0,-146 0,-140 0,-140 0,-128 0,-128 0,-122 6,-116 12,-116 12,-116 210,-116 210,-116 216,-116 222,-122 222,-128 222,-128 222,-140 222,-140 222,-146 216,-152 210,-152"/>
<text text-anchor="middle" x="111" y="-131.2" font-family="Helvetica,sans-Serif" font-size="11.00">AbstractMasterSystemService.mLock</text>
</g>
<!-- __guard__&#45;&gt;__field__ -->
<g id="edge1" class="edge">
<title>__guard__&#45;&gt;__field__</title>
<path fill="none" stroke="#16a34a" stroke-width="1.6" d="M215.38,-115.97C255.68,-108.94 301.77,-100.9 341.98,-93.88"/>
<polygon fill="#16a34a" stroke="#16a34a" stroke-width="1.6" points="342.55,-96.63 349.95,-92.49 341.58,-91.11 342.55,-96.63"/>
<text text-anchor="middle" x="286" y="-112.8" font-family="Helvetica,sans-Serif" font-size="9.00" fill="#15803d"> guards 2/3</text>
</g>
<!-- m::com.android.server.autofill.Session.resetImeAnimationState:()V -->
<g id="node3" class="node">
<title>m::com.android.server.autofill.Session.resetImeAnimationState:()V</title>
<path fill="#fee2e2" stroke="#dc2626" d="M197,-94C197,-94 25,-94 25,-94 19,-94 13,-88 13,-82 13,-82 13,-70 13,-70 13,-64 19,-58 25,-58 25,-58 197,-58 197,-58 203,-58 209,-64 209,-70 209,-70 209,-82 209,-82 209,-88 203,-94 197,-94"/>
<text text-anchor="middle" x="111" y="-73.2" font-family="Helvetica,sans-Serif" font-size="11.00">Session.resetImeAnimationState</text>
</g>
<!-- m::com.android.server.autofill.Session.resetImeAnimationState:()V&#45;&gt;__field__ -->
<g id="edge2" class="edge">
<title>m::com.android.server.autofill.Session.resetImeAnimationState:()V&#45;&gt;__field__</title>
<path fill="none" stroke="#dc2626" d="M209.07,-76C250.75,-76 299.51,-76 341.8,-76"/>
<polygon fill="#dc2626" stroke="#dc2626" points="341.89,-78.8 349.89,-76 341.89,-73.2 341.89,-78.8"/>
<text text-anchor="middle" x="286" y="-78.8" font-family="Helvetica,sans-Serif" font-size="9.00" fill="#dc2626"> writes unguarded</text>
</g>
<!-- m::com.android.server.autofill.Session.requestShowFillDialog:(Landroid/service/autofill/FillResponse;Landroid/view/autofill/AutofillId;Ljava/lang/String;I)I -->
<g id="node4" class="node">
<title>m::com.android.server.autofill.Session.requestShowFillDialog:(Landroid/service/autofill/FillResponse;Landroid/view/autofill/AutofillId;Ljava/lang/String;I)I</title>
<path fill="#fee2e2" stroke="#dc2626" d="M190,-36C190,-36 32,-36 32,-36 26,-36 20,-30 20,-24 20,-24 20,-12 20,-12 20,-6 26,0 32,0 32,0 190,0 190,0 196,0 202,-6 202,-12 202,-12 202,-24 202,-24 202,-30 196,-36 190,-36"/>
<text text-anchor="middle" x="111" y="-15.2" font-family="Helvetica,sans-Serif" font-size="11.00">Session.requestShowFillDialog</text>
</g>
<!-- m::com.android.server.autofill.Session.requestShowFillDialog:(Landroid/service/autofill/FillResponse;Landroid/view/autofill/AutofillId;Ljava/lang/String;I)I&#45;&gt;__field__ -->
<g id="edge3" class="edge">
<title>m::com.android.server.autofill.Session.requestShowFillDialog:(Landroid/service/autofill/FillResponse;Landroid/view/autofill/AutofillId;Ljava/lang/String;I)I&#45;&gt;__field__</title>
<path fill="none" stroke="#dc2626" d="M202.42,-33.77C245.5,-41.29 297.24,-50.31 341.8,-58.09"/>
<polygon fill="#dc2626" stroke="#dc2626" points="341.38,-60.85 349.75,-59.47 342.35,-55.34 341.38,-60.85"/>
<text text-anchor="middle" x="286" y="-57.8" font-family="Helvetica,sans-Serif" font-size="9.00" fill="#dc2626"> reads unguarded</text>
</g>
</g>
</svg>
