<?xml version="1.0" encoding="UTF-8" standalone="no"?>
<!DOCTYPE svg PUBLIC "-//W3C//DTD SVG 1.1//EN"
 "http://www.w3.org/Graphics/SVG/1.1/DTD/svg11.dtd">
<!-- Generated by graphviz version 2.43.0 (0)
 -->
<!-- Title: race Pages: 1 -->
<svg width="742pt" height="918pt"
 viewBox="0.00 0.00 742.00 918.27" xmlns="http://www.w3.org/2000/svg" xmlns:xlink="http://www.w3.org/1999/xlink">
<g id="graph0" class="graph" transform="scale(1 1) rotate(0) translate(4 914.27)">
<title>race</title>
<polygon fill="white" stroke="transparent" points="-4,4 -4,-914.27 738,-914.27 738,4 -4,4"/>
<!-- __field__ -->
<g id="node1" class="node">
<title>__field__</title>
<path fill="#fef9c3" stroke="#ca8a04" stroke-width="2" d="M722,-500C722,-500 600,-500 600,-500 594,-500 588,-494 588,-488 588,-488 588,-476 588,-476 588,-470 594,-464 600,-464 600,-464 722,-464 722,-464 728,-464 734,-470 734,-476 734,-476 734,-488 734,-488 734,-494 728,-500 722,-500"/>
<text text-anchor="middle" x="661" y="-479.2" font-family="Helvetica,sans-Serif" font-size="11.00">WallpaperData.mWhich</text>
</g>
<!-- __guard__ -->
<g id="node2" class="node">
<title>__guard__</title>
<path fill="#dcfce7" stroke="#16a34a" stroke-width="2" d="M317.5,-906C317.5,-906 142.5,-906 142.5,-906 136.5,-906 130.5,-900 130.5,-894 130.5,-894 130.5,-882 130.5,-882 130.5,-876 136.5,-870 142.5,-870 142.5,-870 317.5,-870 317.5,-870 323.5,-870 329.5,-876 329.5,-882 329.5,-882 329.5,-894 329.5,-894 329.5,-900 323.5,-906 317.5,-906"/>
<text text-anchor="middle" x="230" y="-885.2" font-family="Helvetica,sans-Serif" font-size="11.00">WallpaperManagerService.mLock</text>
</g>
<!-- __guard__&#45;&gt;__field__ -->
<g id="edge1" class="edge">
<title>__guard__&#45;&gt;__field__</title>
<path fill="none" stroke="#16a34a" stroke-width="1.6" d="M323.4,-906.01C397.63,-914.85 500.04,-913.55 566,-857 619.73,-810.94 648.72,-586.32 657.28,-508.56"/>
<polygon fill="#16a34a" stroke="#16a34a" stroke-width="1.6" points="660.1,-508.49 658.17,-500.24 654.53,-507.89 660.1,-508.49"/>
<text text-anchor="middle" x="524" y="-899.8" font-family="Helvetica,sans-Serif" font-size="9.00" fill="#15803d"> guards 6/9</text>
</g>
<!-- m::com.android.server.wallpaper.WallpaperDataParser.loadSettingsLocked:(IZZI)Lcom/android/server/wallpaper/WallpaperDataParser$WallpaperLoadingResult; -->
<g id="node3" class="node">
<title>m::com.android.server.wallpaper.WallpaperDataParser.loadSettingsLocked:(IZZI)Lcom/android/server/wallpaper/WallpaperDataParser$WallpaperLoadingResult;</title>
<path fill="#fee2e2" stroke="#dc2626" d="M339,-848C339,-848 121,-848 121,-848 115,-848 109,-842 109,-836 109,-836 109,-824 109,-824 109,-818 115,-812 121,-812 121,-812 339,-812 339,-812 345,-812 351,-818 351,-824 351,-824 351,-836 351,-836 351,-842 345,-848 339,-848"/>
<text text-anchor="middle" x="230" y="-827.2" font-family="Helvetica,sans-Serif" font-size="11.00">WallpaperDataParser.loadSettingsLocked</text>
</g>
<!-- m::com.android.server.wallpaper.WallpaperDataParser.loadSettingsLocked:(IZZI)Lcom/android/server/wallpaper/WallpaperDataParser$WallpaperLoadingResult;&#45;&gt;__field__ -->
<g id="edge2" class="edge">
<title>m::com.android.server.wallpaper.WallpaperDataParser.loadSettingsLocked:(IZZI)Lcom/android/server/wallpaper/WallpaperDataParser$WallpaperLoadingResult;&#45;&gt;__field__</title>
<path fill="none" stroke="#dc2626" d="M316.04,-848.03C390.24,-858.56 496.61,-860.36 566,-804 612.82,-765.98 645.41,-578.67 656.15,-508.56"/>
<polygon fill="#dc2626" stroke="#dc2626" points="658.98,-508.55 657.41,-500.22 653.45,-507.72 658.98,-508.55"/>
<text text-anchor="middle" x="524" y="-844.8" font-family="Helvetica,sans-Serif" font-size="9.00" fill="#dc2626"> writes unguarded</text>
</g>
<!-- m::com.android.server.wallpaper.WallpaperDataParser.loadSettingsLocked:(IZZI)Lcom/android/server/wallpaper/WallpaperDataParser$WallpaperLoadingResult;&#45;&gt;__field__ -->
<g id="edge3" class="edge">
<title>m::com.android.server.wallpaper.WallpaperDataParser.loadSettingsLocked:(IZZI)Lcom/android/server/wallpaper/WallpaperDataParser$WallpaperLoadingResult;&#45;&gt;__field__</title>
<path fill="none" stroke="#dc2626" d="M351.18,-820.34C386.56,-816.01 425.13,-809.81 460,-801 463.06,-800.23 563.82,-762.28 566,-760 635.25,-687.71 653.57,-562.62 658.35,-508.37"/>
<polygon fill="#dc2626" stroke="#dc2626" points="661.15,-508.49 659.01,-500.29 655.57,-508.03 661.15,-508.49"/>
<text text-anchor="middle" x="524" y="-794.8" font-family="Helvetica,sans-Serif" font-size="9.00" fill="#dc2626"> writes unguarded</text>
</g>
<!-- m::com.android.server.wallpaper.WallpaperManagerService.initializeFallbackWallpaper:()V -->
<g id="node4" class="node">
<title>m::com.android.server.wallpaper.WallpaperManagerService.initializeFallbackWallpaper:()V</title>
<path fill="#fee2e2" stroke="#dc2626" d="M372,-790C372,-790 88,-790 88,-790 82,-790 76,-784 76,-778 76,-778 76,-766 76,-766 76,-760 82,-754 88,-754 88,-754 372,-754 372,-754 378,-754 384,-760 384,-766 384,-766 384,-778 384,-778 384,-784 378,-790 372,-790"/>
<text text-anchor="middle" x="230" y="-769.2" font-family="Helvetica,sans-Serif" font-size="11.00">WallpaperManagerService.initializeFallbackWallpaper</text>
</g>
<!-- m::com.android.server.wallpaper.WallpaperManagerService.initializeFallbackWallpaper:()V&#45;&gt;__field__ -->
<g id="edge4" class="edge">
<title>m::com.android.server.wallpaper.WallpaperManagerService.initializeFallbackWallpaper:()V&#45;&gt;__field__</title>
<path fill="none" stroke="#dc2626" d="M384.13,-771.93C448.21,-763.96 518.64,-743.52 566,-696 619.68,-642.13 645.15,-552.44 654.93,-508.25"/>
<polygon fill="#dc2626" stroke="#dc2626" points="657.7,-508.7 656.64,-500.29 652.22,-507.53 657.7,-508.7"/>
<text text-anchor="middle" x="524" y="-747.8" font-family="Helvetica,sans-Serif" font-size="9.00" fill="#dc2626"> writes unguarded</text>
</g>
<!-- m::com.android.server.wallpaper.WallpaperData.getCropFile:()Ljava/io/File; -->
<g id="node5" class="node">
<title>m::com.android.server.wallpaper.WallpaperData.getCropFile:()Ljava/io/File;</title>
<path fill="#fee2e2" stroke="#dc2626" d="M299.5,-732C299.5,-732 160.5,-732 160.5,-732 154.5,-732 148.5,-726 148.5,-720 148.5,-720 148.5,-708 148.5,-708 148.5,-702 154.5,-696 160.5,-696 160.5,-696 299.5,-696 299.5,-696 305.5,-696 311.5,-702 311.5,-708 311.5,-708 311.5,-720 311.5,-720 311.5,-726 305.5,-732 299.5,-732"/>
<text text-anchor="middle" x="230" y="-711.2" font-family="Helvetica,sans-Serif" font-size="11.00">WallpaperData.getCropFile</text>
</g>
<!-- m::com.android.server.wallpaper.WallpaperData.getCropFile:()Ljava/io/File;&#45;&gt;__field__ -->
<g id="edge5" class="edge">
<title>m::com.android.server.wallpaper.WallpaperData.getCropFile:()Ljava/io/File;&#45;&gt;__field__</title>
<path fill="none" stroke="#dc2626" d="M311.6,-715.52C386.38,-712.6 496.32,-696.69 566,-634 606.14,-597.88 635.15,-540.62 649.61,-507.65"/>
<polygon fill="#dc2626" stroke="#dc2626" points="652.22,-508.67 652.8,-500.22 647.07,-506.46 652.22,-508.67"/>
<text text-anchor="middle" x="524" y="-683.8" font-family="Helvetica,sans-Serif" font-size="9.00" fill="#dc2626"> reads unguarded</text>
</g>
<!-- m::com.android.server.wallpaper.WallpaperData.getFile:(Landroid/util/SparseArray;Ljava/lang/String;)Ljava/io/File; -->
<g id="node6" class="node">
<title>m::com.android.server.wallpaper.WallpaperData.getFile:(Landroid/util/SparseArray;Ljava/lang/String;)Ljava/io/File;</title>
<path fill="#fee2e2" stroke="#dc2626" d="M286.5,-674C286.5,-674 173.5,-674 173.5,-674 167.5,-674 161.5,-668 161.5,-662 161.5,-662 161.5,-650 161.5,-650 161.5,-644 167.5,-638 173.5,-638 173.5,-638 286.5,-638 286.5,-638 292.5,-638 298.5,-644 298.5,-650 298.5,-650 298.5,-662 298.5,-662 298.5,-668 292.5,-674 286.5,-674"/>
<text text-anchor="middle" x="230" y="-653.2" font-family="Helvetica,sans-Serif" font-size="11.00">WallpaperData.getFile</text>
</g>
<!-- m::com.android.server.wallpaper.WallpaperData.getFile:(Landroid/util/SparseArray;Ljava/lang/String;)Ljava/io/File;&#45;&gt;__field__ -->
<g id="edge6" class="edge">
<title>m::com.android.server.wallpaper.WallpaperData.getFile:(Landroid/util/SparseArray;Ljava/lang/String;)Ljava/io/File;&#45;&gt;__field__</title>
<path fill="none" stroke="#dc2626" d="M298.56,-653.16C344.79,-649.84 407.06,-642.64 460,-627 510.14,-612.19 523.36,-606.25 566,-576 594.37,-555.88 621.91,-526.88 639.77,-506.42"/>
<polygon fill="#dc2626" stroke="#dc2626" points="642.11,-507.99 645.21,-500.1 637.87,-504.33 642.11,-507.99"/>
<text text-anchor="middle" x="524" y="-621.8" font-family="Helvetica,sans-Serif" font-size="9.00" fill="#dc2626"> reads unguarded</text>
</g>
<!-- m::com.android.server.wallpaper.WallpaperData.getWallpaperFile:()Ljava/io/File; -->
<g id="node7" class="node">
<title>m::com.android.server.wallpaper.WallpaperData.getWallpaperFile:()Ljava/io/File;</title>
<path fill="#fee2e2" stroke="#dc2626" d="M314,-616C314,-616 146,-616 146,-616 140,-616 134,-610 134,-604 134,-604 134,-592 134,-592 134,-586 140,-580 146,-580 146,-580 314,-580 314,-580 320,-580 326,-586 326,-592 326,-592 326,-604 326,-604 326,-610 320,-616 314,-616"/>
<text text-anchor="middle" x="230" y="-595.2" font-family="Helvetica,sans-Serif" font-size="11.00">WallpaperData.getWallpaperFile</text>
</g>
<!-- m::com.android.server.wallpaper.WallpaperData.getWallpaperFile:()Ljava/io/File;&#45;&gt;__field__ -->
<g id="edge7" class="edge">
<title>m::com.android.server.wallpaper.WallpaperData.getWallpaperFile:()Ljava/io/File;&#45;&gt;__field__</title>
<path fill="none" stroke="#dc2626" d="M326.05,-592.04C367.69,-587.88 416.81,-580.85 460,-569 509.53,-555.42 518.91,-543.49 566,-523 580.6,-516.65 596.47,-509.73 610.94,-503.42"/>
<polygon fill="#dc2626" stroke="#dc2626" points="612.15,-505.95 618.36,-500.18 609.91,-500.81 612.15,-505.95"/>
<text text-anchor="middle" x="524" y="-563.8" font-family="Helvetica,sans-Serif" font-size="9.00" fill="#dc2626"> reads unguarded</text>
</g>
<!-- m::com.android.server.wallpaper.WallpaperData.toString:()Ljava/lang/String; -->
<g id="node8" class="node">
<title>m::com.android.server.wallpaper.WallpaperData.toString:()Ljava/lang/String;</title>
<path fill="#fee2e2" stroke="#dc2626" d="M290.5,-558C290.5,-558 169.5,-558 169.5,-558 163.5,-558 157.5,-552 157.5,-546 157.5,-546 157.5,-534 157.5,-534 157.5,-528 163.5,-522 169.5,-522 169.5,-522 290.5,-522 290.5,-522 296.5,-522 302.5,-528 302.5,-534 302.5,-534 302.5,-546 302.5,-546 302.5,-552 296.5,-558 290.5,-558"/>
<text text-anchor="middle" x="230" y="-537.2" font-family="Helvetica,sans-Serif" font-size="11.00">WallpaperData.toString</text>
</g>
<!-- m::com.android.server.wallpaper.WallpaperData.toString:()Ljava/lang/String;&#45;&gt;__field__ -->
<g id="edge8" class="edge">
<title>m::com.android.server.wallpaper.WallpaperData.toString:()Ljava/lang/String;&#45;&gt;__field__</title>
<path fill="none" stroke="#dc2626" d="M302.65,-531.52C370.55,-523.32 475.34,-510.22 566,-497 570.56,-496.34 575.24,-495.64 579.96,-494.92"/>
<polygon fill="#dc2626" stroke="#dc2626" points="580.44,-497.68 587.92,-493.7 579.59,-492.15 580.44,-497.68"/>
<text text-anchor="middle" x="524" y="-510.8" font-family="Helvetica,sans-Serif" font-size="9.00" fill="#dc2626"> reads unguarded</text>
</g>
<!-- m::com.android.server.wallpaper.WallpaperManagerService$DisplayConnector.connectLocked:(Lcom/android/server/wallpaper/WallpaperManagerService$WallpaperConnection;Lcom/android/server/wallpaper/WallpaperData;)V -->
<g id="node9" class="node">
<title>m::com.android.server.wallpaper.WallpaperManagerService$DisplayConnector.connectLocked:(Lcom/android/server/wallpaper/WallpaperManagerService$WallpaperConnection;Lcom/android/server/wallpaper/WallpaperData;)V</title>
<path fill="#fee2e2" stroke="#dc2626" d="M392,-500C392,-500 68,-500 68,-500 62,-500 56,-494 56,-488 56,-488 56,-476 56,-476 56,-470 62,-464 68,-464 68,-464 392,-464 392,-464 398,-464 404,-470 404,-476 404,-476 404,-488 404,-488 404,-494 398,-500 392,-500"/>
<text text-anchor="middle" x="230" y="-479.2" font-family="Helvetica,sans-Serif" font-size="11.00">WallpaperManagerService$DisplayConnector.connectLocked</text>
</g>
<!-- m::com.android.server.wallpaper.WallpaperManagerService$DisplayConnector.connectLocked:(Lcom/android/server/wallpaper/WallpaperManagerService$WallpaperConnection;Lcom/android/server/wallpaper/WallpaperData;)V&#45;&gt;__field__ -->
<g id="edge9" class="edge">
<title>m::com.android.server.wallpaper.WallpaperManagerService$DisplayConnector.connectLocked:(Lcom/android/server/wallpaper/WallpaperManagerService$WallpaperConnection;Lcom/android/server/wallpaper/WallpaperData;)V&#45;&gt;__field__</title>
<path fill="none" stroke="#dc2626" d="M404.25,-482C465.05,-482 530.44,-482 579.89,-482"/>
<polygon fill="#dc2626" stroke="#dc2626" points="579.99,-484.8 587.99,-482 579.99,-479.2 579.99,-484.8"/>
<text text-anchor="middle" x="524" y="-484.8" font-family="Helvetica,sans-Serif" font-size="9.00" fill="#dc2626"> reads unguarded</text>
</g>
<!-- m::com.android.server.wallpaper.WallpaperManagerService$WallpaperConnection.appendConnectorWithCondition:(Ljava/util/function/Predicate;)V -->
<g id="node10" class="node">
<title>m::com.android.server.wallpaper.WallpaperManagerService$WallpaperConnection.appendConnectorWithCondition:(Ljava/util/function/Predicate;)V</title>
<path fill="#fee2e2" stroke="#dc2626" d="M448,-442C448,-442 12,-442 12,-442 6,-442 0,-436 0,-430 0,-430 0,-418 0,-418 0,-412 6,-406 12,-406 12,-406 448,-406 448,-406 454,-406 460,-412 460,-418 460,-418 460,-430 460,-430 460,-436 454,-442 448,-442"/>
<text text-anchor="middle" x="230" y="-421.2" font-family="Helvetica,sans-Serif" font-size="11.00">WallpaperManagerService$WallpaperConnection.appendConnectorWithCondition</text>
</g>
<!-- m::com.android.server.wallpaper.WallpaperManagerService$WallpaperConnection.appendConnectorWithCondition:(Ljava/util/function/Predicate;)V&#45;&gt;__field__ -->
<g id="edge10" class="edge">
<title>m::com.android.server.wallpaper.WallpaperManagerService$WallpaperConnection.appendConnectorWithCondition:(Ljava/util/function/Predicate;)V&#45;&gt;__field__</title>
<path fill="none" stroke="#dc2626" d="M379.99,-442.01C438.09,-449.33 505.22,-458.14 566,-467 570.56,-467.66 575.24,-468.36 579.96,-469.08"/>
<polygon fill="#dc2626" stroke="#dc2626" points="579.59,-471.85 587.92,-470.3 580.44,-466.32 579.59,-471.85"/>
<text text-anchor="middle" x="524" y="-469.8" font-family="Helvetica,sans-Serif" font-size="9.00" fill="#dc2626"> reads unguarded</text>
</g>
<!-- m::com.android.server.wallpaper.WallpaperManagerService$WallpaperConnection.getDisplayConnectorOrCreate:(I)Lcom/android/server/wallpaper/WallpaperManagerService$DisplayConnector; -->
<g id="node11" class="node">
<title>m::com.android.server.wallpaper.WallpaperManagerService$WallpaperConnection.getDisplayConnectorOrCreate:(I)Lcom/android/server/wallpaper/WallpaperManagerService$DisplayConnector;</title>
<path fill="#fee2e2" stroke="#dc2626" d="M444,-384C444,-384 16,-384 16,-384 10,-384 4,-378 4,-372 4,-372 4,-360 4,-360 4,-354 10,-348 16,-348 16,-348 444,-348 444,-348 450,-348 456,-354 456,-360 456,-360 456,-372 456,-372 456,-378 450,-384 444,-384"/>
<text text-anchor="middle" x="230" y="-363.2" font-family="Helvetica,sans-Serif" font-size="11.00">WallpaperManagerService$WallpaperConnection.getDisplayConnectorOrCreate</text>
</g>
<!-- m::com.android.server.wallpaper.WallpaperManagerService$WallpaperConnection.getDisplayConnectorOrCreate:(I)Lcom/android/server/wallpaper/WallpaperManagerService$DisplayConnector;&#45;&gt;__field__ -->
<g id="edge11" class="edge">
<title>m::com.android.server.wallpaper.WallpaperManagerService$WallpaperConnection.getDisplayConnectorOrCreate:(I)Lcom/android/server/wallpaper/WallpaperManagerService$DisplayConnector;&#45;&gt;__field__</title>
<path fill="none" stroke="#dc2626" d="M411,-384C427.69,-387.11 444.23,-390.74 460,-395 509.41,-408.34 519.08,-419.56 566,-440 581.07,-446.57 597.45,-453.83 612.24,-460.45"/>
<polygon fill="#dc2626" stroke="#dc2626" points="611.37,-463.13 619.82,-463.85 613.66,-458.02 611.37,-463.13"/>
<text text-anchor="middle" x="524" y="-442.8" font-family="Helvetica,sans-Serif" font-size="9.00" fill="#dc2626"> reads unguarded</text>
</g>
<!-- m::com.android.server.wallpaper.WallpaperManagerService$WallpaperObserver.updateWallpapers:(ILjava/lang/String;)V -->
<g id="node12" class="node">
<title>m::com.android.server.wallpaper.WallpaperManagerService$WallpaperObserver.updateWallpapers:(ILjava/lang/String;)V</title>
<path fill="#fee2e2" stroke="#dc2626" d="M405,-326C405,-326 55,-326 55,-326 49,-326 43,-320 43,-314 43,-314 43,-302 43,-302 43,-296 49,-290 55,-290 55,-290 405,-290 405,-290 411,-290 417,-296 417,-302 417,-302 417,-314 417,-314 417,-320 411,-326 405,-326"/>
<text text-anchor="middle" x="230" y="-305.2" font-family="Helvetica,sans-Serif" font-size="11.00">WallpaperManagerService$WallpaperObserver.updateWallpapers</text>
</g>
<!-- m::com.android.server.wallpaper.WallpaperManagerService$WallpaperObserver.updateWallpapers:(ILjava/lang/String;)V&#45;&gt;__field__ -->
<g id="edge12" class="edge">
<title>m::com.android.server.wallpaper.WallpaperManagerService$WallpaperObserver.updateWallpapers:(ILjava/lang/String;)V&#45;&gt;__field__</title>
<path fill="none" stroke="#dc2626" d="M414.55,-326.01C430.05,-329.11 445.38,-332.74 460,-337 510.01,-351.56 523.48,-356.92 566,-387 594.67,-407.28 622.29,-436.78 640.09,-457.52"/>
<polygon fill="#dc2626" stroke="#dc2626" points="637.98,-459.36 645.29,-463.65 642.25,-455.74 637.98,-459.36"/>
<text text-anchor="middle" x="524" y="-389.8" font-family="Helvetica,sans-Serif" font-size="9.00" fill="#dc2626"> reads unguarded</text>
</g>
<!-- m::com.android.server.wallpaper.WallpaperManagerService.$r8$lambda$AmUWA&#45;zo1T459jgxbE0_PDcVzx4:(Lcom/android/server/wallpaper/WallpaperManagerInternal$ColorsChangedCallbackInternal;Landroid/app/WallpaperColors;Lcom/android/server/wallpaper/WallpaperData;I)V -->
<g id="node13" class="node">
<title>m::com.android.server.wallpaper.WallpaperManagerService.$r8$lambda$AmUWA&#45;zo1T459jgxbE0_PDcVzx4:(Lcom/android/server/wallpaper/WallpaperManagerInternal$ColorsChangedCallbackInternal;Landroid/app/WallpaperColors;Lcom/android/server/wallpaper/WallpaperData;I)V</title>
<path fill="#fee2e2" stroke="#dc2626" d="M428,-268C428,-268 32,-268 32,-268 26,-268 20,-262 20,-256 20,-256 20,-244 20,-244 20,-238 26,-232 32,-232 32,-232 428,-232 428,-232 434,-232 440,-238 440,-244 440,-244 440,-256 440,-256 440,-262 434,-268 428,-268"/>
<text text-anchor="middle" x="230" y="-247.2" font-family="Helvetica,sans-Serif" font-size="11.00">WallpaperManagerService.$r8$lambda$AmUWA&#45;zo1T459jgxbE0_PDcVzx4</text>
</g>
<!-- m::com.android.server.wallpaper.WallpaperManagerService.$r8$lambda$AmUWA&#45;zo1T459jgxbE0_PDcVzx4:(Lcom/android/server/wallpaper/WallpaperManagerInternal$ColorsChangedCallbackInternal;Landroid/app/WallpaperColors;Lcom/android/server/wallpaper/WallpaperData;I)V&#45;&gt;__field__ -->
<g id="edge13" class="edge">
<title>m::com.android.server.wallpaper.WallpaperManagerService.$r8$lambda$AmUWA&#45;zo1T459jgxbE0_PDcVzx4:(Lcom/android/server/wallpaper/WallpaperManagerInternal$ColorsChangedCallbackInternal;Landroid/app/WallpaperColors;Lcom/android/server/wallpaper/WallpaperData;I)V&#45;&gt;__field__</title>
<path fill="none" stroke="#dc2626" d="M440.42,-266.14C486.04,-278.18 531.06,-297.71 566,-329 606.42,-365.2 635.33,-422.9 649.7,-456.13"/>
<polygon fill="#dc2626" stroke="#dc2626" points="647.17,-457.35 652.87,-463.63 652.33,-455.17 647.17,-457.35"/>
<text text-anchor="middle" x="524" y="-331.8" font-family="Helvetica,sans-Serif" font-size="9.00" fill="#dc2626"> reads unguarded</text>
</g>
<!-- m::com.android.server.wallpaper.WallpaperManagerService.maybeDetachLastWallpapers:(Lcom/android/server/wallpaper/WallpaperData;)V -->
<g id="node14" class="node">
<title>m::com.android.server.wallpaper.WallpaperManagerService.maybeDetachLastWallpapers:(Lcom/android/server/wallpaper/WallpaperData;)V</title>
<path fill="#fee2e2" stroke="#dc2626" d="M380,-210C380,-210 80,-210 80,-210 74,-210 68,-204 68,-198 68,-198 68,-186 68,-186 68,-180 74,-174 80,-174 80,-174 380,-174 380,-174 386,-174 392,-180 392,-186 392,-186 392,-198 392,-198 392,-204 386,-210 380,-210"/>
<text text-anchor="middle" x="230" y="-189.2" font-family="Helvetica,sans-Serif" font-size="11.00">WallpaperManagerService.maybeDetachLastWallpapers</text>
</g>
<!-- m::com.android.server.wallpaper.WallpaperManagerService.maybeDetachLastWallpapers:(Lcom/android/server/wallpaper/WallpaperData;)V&#45;&gt;__field__ -->
<g id="edge14" class="edge">
<title>m::com.android.server.wallpaper.WallpaperManagerService.maybeDetachLastWallpapers:(Lcom/android/server/wallpaper/WallpaperData;)V&#45;&gt;__field__</title>
<path fill="none" stroke="#dc2626" d="M392.06,-192.26C453.86,-200.57 520.42,-220.82 566,-266 620.58,-320.09 645.68,-411.14 655.17,-455.75"/>
<polygon fill="#dc2626" stroke="#dc2626" points="652.46,-456.5 656.81,-463.78 657.95,-455.38 652.46,-456.5"/>
<text text-anchor="middle" x="524" y="-268.8" font-family="Helvetica,sans-Serif" font-size="9.00" fill="#dc2626"> reads unguarded</text>
</g>
<!-- m::com.android.server.wallpaper.WallpaperManagerService.notifyWallpaperChanged:(Lcom/android/server/wallpaper/WallpaperData;)V -->
<g id="node15" class="node">
<title>m::com.android.server.wallpaper.WallpaperManagerService.notifyWallpaperChanged:(Lcom/android/server/wallpaper/WallpaperData;)V</title>
<path fill="#fee2e2" stroke="#dc2626" d="M367,-152C367,-152 93,-152 93,-152 87,-152 81,-146 81,-140 81,-140 81,-128 81,-128 81,-122 87,-116 93,-116 93,-116 367,-116 367,-116 373,-116 379,-122 379,-128 379,-128 379,-140 379,-140 379,-146 373,-152 367,-152"/>
<text text-anchor="middle" x="230" y="-131.2" font-family="Helvetica,sans-Serif" font-size="11.00">WallpaperManagerService.notifyWallpaperChanged</text>
</g>
<!-- m::com.android.server.wallpaper.WallpaperManagerService.notifyWallpaperChanged:(Lcom/android/server/wallpaper/WallpaperData;)V&#45;&gt;__field__ -->
<g id="edge15" class="edge">
<title>m::com.android.server.wallpaper.WallpaperManagerService.notifyWallpaperChanged:(Lcom/android/server/wallpaper/WallpaperData;)V&#45;&gt;__field__</title>
<path fill="none" stroke="#dc2626" d="M379.37,-128.51C445.06,-134.12 518.13,-152.74 566,-202 636.39,-274.43 654.11,-401.16 658.54,-455.75"/>
<polygon fill="#dc2626" stroke="#dc2626" points="655.76,-456.1 659.14,-463.87 661.34,-455.69 655.76,-456.1"/>
<text text-anchor="middle" x="524" y="-204.8" font-family="Helvetica,sans-Serif" font-size="9.00" fill="#dc2626"> reads unguarded</text>
</g>
<!-- m::com.android.server.wallpaper.WallpaperManagerService.notifyWallpaperColorsChangedOnDisplay:(Lcom/android/server/wallpaper/WallpaperData;I)V -->
<g id="node16" class="node">
<title>m::com.android.server.wallpaper.WallpaperManagerService.notifyWallpaperColorsChangedOnDisplay:(Lcom/android/server/wallpaper/WallpaperData;I)V</title>
<path fill="#fee2e2" stroke="#dc2626" d="M412.5,-94C412.5,-94 47.5,-94 47.5,-94 41.5,-94 35.5,-88 35.5,-82 35.5,-82 35.5,-70 35.5,-70 35.5,-64 41.5,-58 47.5,-58 47.5,-58 412.5,-58 412.5,-58 418.5,-58 424.5,-64 424.5,-70 424.5,-70 424.5,-82 424.5,-82 424.5,-88 418.5,-94 412.5,-94"/>
<text text-anchor="middle" x="230" y="-73.2" font-family="Helvetica,sans-Serif" font-size="11.00">WallpaperManagerService.notifyWallpaperColorsChangedOnDisplay</text>
</g>
<!-- m::com.android.server.wallpaper.WallpaperManagerService.notifyWallpaperColorsChangedOnDisplay:(Lcom/android/server/wallpaper/WallpaperData;I)V&#45;&gt;__field__ -->
<g id="edge16" class="edge">
<title>m::com.android.server.wallpaper.WallpaperManagerService.notifyWallpaperColorsChangedOnDisplay:(Lcom/android/server/wallpaper/WallpaperData;I)V&#45;&gt;__field__</title>
<path fill="none" stroke="#dc2626" d="M424.69,-72.16C476.93,-80.78 529.13,-99.81 566,-138 653.28,-228.39 661.25,-391.67 660.81,-455.45"/>
<polygon fill="#dc2626" stroke="#dc2626" points="658,-455.74 660.7,-463.78 663.6,-455.81 658,-455.74"/>
<text text-anchor="middle" x="524" y="-140.8" font-family="Helvetica,sans-Serif" font-size="9.00" fill="#dc2626"> reads unguarded</text>
</g>
<!-- m::com.android.server.wallpaper.WallpaperManagerService.systemReady:()V -->
<g id="node17" class="node">
<title>m::com.android.server.wallpaper.WallpaperManagerService.systemReady:()V</title>
<path fill="#fee2e2" stroke="#dc2626" d="M337.5,-36C337.5,-36 122.5,-36 122.5,-36 116.5,-36 110.5,-30 110.5,-24 110.5,-24 110.5,-12 110.5,-12 110.5,-6 116.5,0 122.5,0 122.5,0 337.5,0 337.5,0 343.5,0 349.5,-6 349.5,-12 349.5,-12 349.5,-24 349.5,-24 349.5,-30 343.5,-36 337.5,-36"/>
<text text-anchor="middle" x="230" y="-15.2" font-family="Helvetica,sans-Serif" font-size="11.00">WallpaperManagerService.systemReady</text>
</g>
<!-- m::com.android.server.wallpaper.WallpaperManagerService.systemReady:()V&#45;&gt;__field__ -->
<g id="edge17" class="edge">
<title>m::com.android.server.wallpaper.WallpaperManagerService.systemReady:()V&#45;&gt;__field__</title>
<path fill="none" stroke="#dc2626" d="M349.89,-4.65C421.98,-3.49 510.46,-15.58 566,-71 621.12,-126 649.54,-373.44 657.58,-455.48"/>
<polygon fill="#dc2626" stroke="#dc2626" points="654.82,-456.07 658.37,-463.77 660.4,-455.54 654.82,-456.07"/>
<text text-anchor="middle" x="524" y="-73.8" font-family="Helvetica,sans-Serif" font-size="9.00" fill="#dc2626"> reads unguarded</text>
</g>
</g>
</svg>
