<?xml version="1.0" encoding="UTF-8" standalone="no"?>
<!DOCTYPE svg PUBLIC "-//W3C//DTD SVG 1.1//EN"
 "http://www.w3.org/Graphics/SVG/1.1/DTD/svg11.dtd">
<!-- Generated by graphviz version 2.43.0 (0)
 -->
<!-- Title: race Pages: 1 -->
<svg width="657pt" height="218pt"
 viewBox="0.00 0.00 657.00 218.00" xmlns="http://www.w3.org/2000/svg" xmlns:xlink="http://www.w3.org/1999/xlink">
<g id="graph0" class="graph" transform="scale(1 1) rotate(0) translate(4 214)">
<title>race</title>
<polygon fill="white" stroke="transparent" points="-4,4 -4,-214 653,-214 653,4 -4,4"/>
<!-- __field__ -->
<g id="node1" class="node">
<title>__field__</title>
<path fill="#fef9c3" stroke="#ca8a04" stroke-width="2" d="M637,-123C637,-123 488,-123 488,-123 482,-123 476,-117 476,-111 476,-111 476,-99 476,-99 476,-93 482,-87 488,-87 488,-87 637,-87 637,-87 643,-87 649,-93 649,-99 649,-99 649,-111 649,-111 649,-117 643,-123 637,-123"/>
<text text-anchor="middle" x="562.5" y="-102.2" font-family="Helvetica,sans-Serif" font-size="11.00">WallpaperData.mBindSource</text>
</g>
<!-- __guard__ -->
<g id="node2" class="node">
<title>__guard__</title>
<path fill="#dcfce7" stroke="#16a34a" stroke-width="2" d="M261.5,-210C261.5,-210 86.5,-210 86.5,-210 80.5,-210 74.5,-204 74.5,-198 74.5,-198 74.5,-186 74.5,-186 74.5,-180 80.5,-174 86.5,-174 86.5,-174 261.5,-174 261.5,-174 267.5,-174 273.5,-180 273.5,-186 273.5,-186 273.5,-198 273.5,-198 273.5,-204 267.5,-210 261.5,-210"/>
<text text-anchor="middle" x="174" y="-189.2" font-family="Helvetica,sans-Serif" font-size="11.00">WallpaperManagerService.mLock</text>
</g>
<!-- __guard__&#45;&gt;__field__ -->
<g id="edge1" class="edge">
<title>__guard__&#45;&gt;__field__</title>
<path fill="none" stroke="#16a34a" stroke-width="1.6" d="M273.68,-177.2C298.06,-173.06 324.05,-168.25 348,-163 396.99,-152.27 451.56,-137.39 493.26,-125.39"/>
<polygon fill="#16a34a" stroke="#16a34a" stroke-width="1.6" points="494.25,-128.02 501.16,-123.11 492.69,-122.64 494.25,-128.02"/>
<text text-anchor="middle" x="412" y="-159.8" font-family="Helvetica,sans-Serif" font-size="9.00" fill="#15803d"> guards 7/10</text>
</g>
<!-- m::com.android.server.wallpaper.WallpaperDataParser.parseWallpaperAttributes:(Lcom/android/modules/utils/TypedXmlPullParser;Lcom/android/server/wallpaper/WallpaperData;Z)V -->
<g id="node3" class="node">
<title>m::com.android.server.wallpaper.WallpaperDataParser.parseWallpaperAttributes:(Lcom/android/modules/utils/TypedXmlPullParser;Lcom/android/server/wallpaper/WallpaperData;Z)V</title>
<path fill="#fee2e2" stroke="#dc2626" d="M299.5,-152C299.5,-152 48.5,-152 48.5,-152 42.5,-152 36.5,-146 36.5,-140 36.5,-140 36.5,-128 36.5,-128 36.5,-122 42.5,-116 48.5,-116 48.5,-116 299.5,-116 299.5,-116 305.5,-116 311.5,-122 311.5,-128 311.5,-128 311.5,-140 311.5,-140 311.5,-146 305.5,-152 299.5,-152"/>
<text text-anchor="middle" x="174" y="-131.2" font-family="Helvetica,sans-Serif" font-size="11.00">WallpaperDataParser.parseWallpaperAttributes</text>
</g>
<!-- m::com.android.server.wallpaper.WallpaperDataParser.parseWallpaperAttributes:(Lcom/android/modules/utils/TypedXmlPullParser;Lcom/android/server/wallpaper/WallpaperData;Z)V&#45;&gt;__field__ -->
<g id="edge2" class="edge">
<title>m::com.android.server.wallpaper.WallpaperDataParser.parseWallpaperAttributes:(Lcom/android/modules/utils/TypedXmlPullParser;Lcom/android/server/wallpaper/WallpaperData;Z)V&#45;&gt;__field__</title>
<path fill="none" stroke="#dc2626" d="M311.54,-123.76C363.29,-119.87 421,-115.54 467.91,-112.02"/>
<polygon fill="#dc2626" stroke="#dc2626" points="468.17,-114.81 475.94,-111.42 467.76,-109.23 468.17,-114.81"/>
<text text-anchor="middle" x="412" y="-120.8" font-family="Helvetica,sans-Serif" font-size="9.00" fill="#dc2626"> writes unguarded</text>
</g>
<!-- m::com.android.server.wallpaper.WallpaperManagerService$DisplayConnector.connectLocked:(Lcom/android/server/wallpaper/WallpaperManagerService$WallpaperConnection;Lcom/android/server/wallpaper/WallpaperData;)V -->
<g id="node4" class="node">
<title>m::com.android.server.wallpaper.WallpaperManagerService$DisplayConnector.connectLocked:(Lcom/android/server/wallpaper/WallpaperManagerService$WallpaperConnection;Lcom/android/server/wallpaper/WallpaperData;)V</title>
<path fill="#fee2e2" stroke="#dc2626" d="M336,-94C336,-94 12,-94 12,-94 6,-94 0,-88 0,-82 0,-82 0,-70 0,-70 0,-64 6,-58 12,-58 12,-58 336,-58 336,-58 342,-58 348,-64 348,-70 348,-70 348,-82 348,-82 348,-88 342,-94 336,-94"/>
<text text-anchor="middle" x="174" y="-73.2" font-family="Helvetica,sans-Serif" font-size="11.00">WallpaperManagerService$DisplayConnector.connectLocked</text>
</g>
<!-- m::com.android.server.wallpaper.WallpaperManagerService$DisplayConnector.connectLocked:(Lcom/android/server/wallpaper/WallpaperManagerService$WallpaperConnection;Lcom/android/server/wallpaper/WallpaperData;)V&#45;&gt;__field__ -->
<g id="edge3" class="edge">
<title>m::com.android.server.wallpaper.WallpaperManagerService$DisplayConnector.connectLocked:(Lcom/android/server/wallpaper/WallpaperManagerService$WallpaperConnection;Lcom/android/server/wallpaper/WallpaperData;)V&#45;&gt;__field__</title>
<path fill="none" stroke="#dc2626" d="M348.18,-88.99C389.35,-92.08 431.75,-95.26 467.8,-97.97"/>
<polygon fill="#dc2626" stroke="#dc2626" points="467.67,-100.77 475.86,-98.57 468.09,-95.18 467.67,-100.77"/>
<text text-anchor="middle" x="412" y="-98.8" font-family="Helvetica,sans-Serif" font-size="9.00" fill="#dc2626"> writes unguarded</text>
</g>
<!-- m::com.android.server.wallpaper.WallpaperManagerService.initializeFallbackWallpaper:()V -->
<g id="node5" class="node">
<title>m::com.android.server.wallpaper.WallpaperManagerService.initializeFallbackWallpaper:()V</title>
<path fill="#fee2e2" stroke="#dc2626" d="M316,-36C316,-36 32,-36 32,-36 26,-36 20,-30 20,-24 20,-24 20,-12 20,-12 20,-6 26,0 32,0 32,0 316,0 316,0 322,0 328,-6 328,-12 328,-12 328,-24 328,-24 328,-30 322,-36 316,-36"/>
<text text-anchor="middle" x="174" y="-15.2" font-family="Helvetica,sans-Serif" font-size="11.00">WallpaperManagerService.initializeFallbackWallpaper</text>
</g>
<!-- m::com.android.server.wallpaper.WallpaperManagerService.initializeFallbackWallpaper:()V&#45;&gt;__field__ -->
<g id="edge4" class="edge">
<title>m::com.android.server.wallpaper.WallpaperManagerService.initializeFallbackWallpaper:()V&#45;&gt;__field__</title>
<path fill="none" stroke="#dc2626" d="M292.09,-36.01C310.85,-39.36 330,-43.06 348,-47 396.99,-57.73 451.56,-72.61 493.26,-84.61"/>
<polygon fill="#dc2626" stroke="#dc2626" points="492.69,-87.36 501.16,-86.89 494.25,-81.98 492.69,-87.36"/>
<text text-anchor="middle" x="412" y="-75.8" font-family="Helvetica,sans-Serif" font-size="9.00" fill="#dc2626"> writes unguarded</text>
</g>
</g>
</svg>
