<?xml version="1.0" encoding="UTF-8" standalone="no"?>
<!DOCTYPE svg PUBLIC "-//W3C//DTD SVG 1.1//EN"
 "http://www.w3.org/Graphics/SVG/1.1/DTD/svg11.dtd">
<!-- Generated by graphviz version 2.43.0 (0)
 -->
<!-- Title: race Pages: 1 -->
<svg width="551pt" height="168pt"
 viewBox="0.00 0.00 551.00 168.00" xmlns="http://www.w3.org/2000/svg" xmlns:xlink="http://www.w3.org/1999/xlink">
<g id="graph0" class="graph" transform="scale(1 1) rotate(0) translate(4 164)">
<title>race</title>
<polygon fill="white" stroke="transparent" points="-4,4 -4,-164 547,-164 547,4 -4,4"/>
<!-- __field__ -->
<g id="node1" class="node">
<title>__field__</title>
<path fill="#fef9c3" stroke="#ca8a04" stroke-width="2" d="M531,-83C531,-83 385,-83 385,-83 379,-83 373,-77 373,-71 373,-71 373,-59 373,-59 373,-53 379,-47 385,-47 385,-47 531,-47 531,-47 537,-47 543,-53 543,-59 543,-59 543,-71 543,-71 543,-77 537,-83 531,-83"/>
<text text-anchor="middle" x="458" y="-62.2" font-family="Helvetica,sans-Serif" font-size="11.00">ActivityStarter.mDoResume</text>
</g>
<!-- __guard__ -->
<g id="node2" class="node">
<title>__guard__</title>
<path fill="#dcfce7" stroke="#16a34a" stroke-width="2" d="M233,-160C233,-160 12,-160 12,-160 6,-160 0,-154 0,-148 0,-148 0,-136 0,-136 0,-130 6,-124 12,-124 12,-124 233,-124 233,-124 239,-124 245,-130 245,-136 245,-136 245,-148 245,-148 245,-154 239,-160 233,-160"/>
<text text-anchor="middle" x="122.5" y="-139.2" font-family="Helvetica,sans-Serif" font-size="11.00">ActivityTaskManagerService.mGlobalLock</text>
</g>
<!-- __guard__&#45;&gt;__field__ -->
<g id="edge1" class="edge">
<title>__guard__&#45;&gt;__field__</title>
<path fill="none" stroke="#16a34a" stroke-width="1.6" d="M203.02,-123.97C246.72,-114.02 301.87,-101.41 351,-90 358.1,-88.35 365.47,-86.63 372.86,-84.9"/>
<polygon fill="#16a34a" stroke="#16a34a" stroke-width="1.6" points="373.73,-87.57 380.88,-83.02 372.45,-82.12 373.73,-87.57"/>
<text text-anchor="middle" x="309" y="-110.8" font-family="Helvetica,sans-Serif" font-size="9.00" fill="#15803d"> guards 6/8</text>
</g>
<!-- m::com.android.server.wm.ActivityStarter.reset:(Z)V -->
<g id="node3" class="node">
<title>m::com.android.server.wm.ActivityStarter.reset:(Z)V</title>
<path fill="#fee2e2" stroke="#dc2626" d="M174.5,-102C174.5,-102 70.5,-102 70.5,-102 64.5,-102 58.5,-96 58.5,-90 58.5,-90 58.5,-78 58.5,-78 58.5,-72 64.5,-66 70.5,-66 70.5,-66 174.5,-66 174.5,-66 180.5,-66 186.5,-72 186.5,-78 186.5,-78 186.5,-90 186.5,-90 186.5,-96 180.5,-102 174.5,-102"/>
<text text-anchor="middle" x="122.5" y="-81.2" font-family="Helvetica,sans-Serif" font-size="11.00">ActivityStarter.reset</text>
</g>
<!-- m::com.android.server.wm.ActivityStarter.reset:(Z)V&#45;&gt;__field__ -->
<g id="edge2" class="edge">
<title>m::com.android.server.wm.ActivityStarter.reset:(Z)V&#45;&gt;__field__</title>
<path fill="none" stroke="#dc2626" d="M186.62,-80.4C236.84,-77.54 307.83,-73.5 364.47,-70.27"/>
<polygon fill="#dc2626" stroke="#dc2626" points="364.89,-73.05 372.71,-69.8 364.57,-67.46 364.89,-73.05"/>
<text text-anchor="middle" x="309" y="-77.8" font-family="Helvetica,sans-Serif" font-size="9.00" fill="#dc2626"> writes unguarded</text>
</g>
<!-- m::com.android.server.wm.ActivityStarter.set:(Lcom/android/server/wm/ActivityStarter;)V -->
<g id="node4" class="node">
<title>m::com.android.server.wm.ActivityStarter.set:(Lcom/android/server/wm/ActivityStarter;)V</title>
<path fill="#fee2e2" stroke="#dc2626" d="M169,-36C169,-36 76,-36 76,-36 70,-36 64,-30 64,-24 64,-24 64,-12 64,-12 64,-6 70,0 76,0 76,0 169,0 169,0 175,0 181,-6 181,-12 181,-12 181,-24 181,-24 181,-30 175,-36 169,-36"/>
<text text-anchor="middle" x="122.5" y="-15.2" font-family="Helvetica,sans-Serif" font-size="11.00">ActivityStarter.set</text>
</g>
<!-- m::com.android.server.wm.ActivityStarter.set:(Lcom/android/server/wm/ActivityStarter;)V&#45;&gt;__field__ -->
<g id="edge3" class="edge">
<title>m::com.android.server.wm.ActivityStarter.set:(Lcom/android/server/wm/ActivityStarter;)V&#45;&gt;__field__</title>
<path fill="none" stroke="#dc2626" d="M181.21,-26.13C231.69,-33.25 305.91,-43.71 364.64,-51.98"/>
<polygon fill="#dc2626" stroke="#dc2626" points="364.51,-54.79 372.82,-53.14 365.29,-49.25 364.51,-54.79"/>
<text text-anchor="middle" x="309" y="-51.8" font-family="Helvetica,sans-Serif" font-size="9.00" fill="#dc2626"> writes unguarded</text>
</g>
<!-- m::com.android.server.wm.ActivityStarter.set:(Lcom/android/server/wm/ActivityStarter;)V&#45;&gt;__field__ -->
<g id="edge4" class="edge">
<title>m::com.android.server.wm.ActivityStarter.set:(Lcom/android/server/wm/ActivityStarter;)V&#45;&gt;__field__</title>
<path fill="none" stroke="#dc2626" d="M181.15,-13.68C227.52,-11.55 294.08,-11.48 351,-23 372.05,-27.26 394.3,-35.45 412.95,-43.48"/>
<polygon fill="#dc2626" stroke="#dc2626" points="412.26,-46.23 420.71,-46.9 414.51,-41.11 412.26,-46.23"/>
<text text-anchor="middle" x="309" y="-25.8" font-family="Helvetica,sans-Serif" font-size="9.00" fill="#dc2626"> reads unguarded</text>
</g>
</g>
</svg>
