<?xml version="1.0" encoding="UTF-8" standalone="no"?>
<!DOCTYPE svg PUBLIC "-//W3C//DTD SVG 1.1//EN"
 "http://www.w3.org/Graphics/SVG/1.1/DTD/svg11.dtd">
<!-- Generated by graphviz version 2.43.0 (0)
 -->
<!-- Title: race Pages: 1 -->
<svg width="502pt" height="160pt"
 viewBox="0.00 0.00 502.00 160.00" xmlns="http://www.w3.org/2000/svg" xmlns:xlink="http://www.w3.org/1999/xlink">
<g id="graph0" class="graph" transform="scale(1 1) rotate(0) translate(4 156)">
<title>race</title>
<polygon fill="white" stroke="transparent" points="-4,4 -4,-156 498,-156 498,4 -4,4"/>
<!-- __field__ -->
<g id="node1" class="node">
<title>__field__</title>
<path fill="#fef9c3" stroke="#ca8a04" stroke-width="2" d="M482,-94C482,-94 362,-94 362,-94 356,-94 350,-88 350,-82 350,-82 350,-70 350,-70 350,-64 356,-58 362,-58 362,-58 482,-58 482,-58 488,-58 494,-64 494,-70 494,-70 494,-82 494,-82 494,-88 488,-94 482,-94"/>
<text text-anchor="middle" x="422" y="-73.2" font-family="Helvetica,sans-Serif" font-size="11.00">Session.mSessionState</text>
</g>
<!-- __guard__ -->
<g id="node2" class="node">
<title>__guard__</title>
<path fill="#dcfce7" stroke="#16a34a" stroke-width="2" d="M210,-152C210,-152 12,-152 12,-152 6,-152 0,-146 0,-140 0,-140 0,-128 0,-128 0,-122 6,-116 12,-116 12,-116 210,-116 210,-116 216,-116 222,-122 222,-128 222,-128 222,-140 222,-140 222,-146 216,-152 210,-152"/>
<text text-anchor="middle" x="111" y="-131.2" font-family="Helvetica,sans-Serif" font-size="11.00">AbstractMasterSystemService.mLock</text>
</g>
<!-- __guard__&#45;&gt;__field__ -->
<g id="edge1" class="edge">
<title>__guard__&#45;&gt;__field__</title>
<path fill="none" stroke="#16a34a" stroke-width="1.6" d="M208.08,-115.97C250.93,-107.92 300.81,-98.56 341.52,-90.92"/>
<polygon fill="#16a34a" stroke="#16a34a" stroke-width="1.6" points="342.19,-93.64 349.53,-89.41 341.15,-88.14 342.19,-93.64"/>
<text text-anchor="middle" x="286" y="-110.8" font-family="Helvetica,sans-Serif" font-size="9.00" fill="#15803d"> guards 2/3</text>
</g>
<!-- m::com.android.server.autofill.Session.removeFromServiceLocked:()V -->
<g id="node3" class="node">
<title>m::com.android.server.autofill.Session.removeFromServiceLocked:()V</title>
<path fill="#fee2e2" stroke="#dc2626" d="M204,-94C204,-94 18,-94 18,-94 12,-94 6,-88 6,-82 6,-82 6,-70 6,-70 6,-64 12,-58 18,-58 18,-58 204,-58 204,-58 210,-58 216,-64 216,-70 216,-70 216,-82 216,-82 216,-88 210,-94 204,-94"/>
<text text-anchor="middle" x="111" y="-73.2" font-family="Helvetica,sans-Serif" font-size="11.00">Session.removeFromServiceLocked</text>
</g>
<!-- m::com.android.server.autofill.Session.removeFromServiceLocked:()V&#45;&gt;__field__ -->
<g id="edge2" class="edge">
<title>m::com.android.server.autofill.Session.removeFromServiceLocked:()V&#45;&gt;__field__</title>
<path fill="none" stroke="#dc2626" d="M216.18,-76C257.24,-76 303.62,-76 341.85,-76"/>
<polygon fill="#dc2626" stroke="#dc2626" points="341.88,-78.8 349.88,-76 341.88,-73.2 341.88,-78.8"/>
<text text-anchor="middle" x="286" y="-78.8" font-family="Helvetica,sans-Serif" font-size="9.00" fill="#dc2626"> writes unguarded</text>
</g>
<!-- m::com.android.server.autofill.Session.toString:()Ljava/lang/String; -->
<g id="node4" class="node">
<title>m::com.android.server.autofill.Session.toString:()Ljava/lang/String;</title>
<path fill="#fee2e2" stroke="#dc2626" d="M152,-36C152,-36 70,-36 70,-36 64,-36 58,-30 58,-24 58,-24 58,-12 58,-12 58,-6 64,0 70,0 70,0 152,0 152,0 158,0 164,-6 164,-12 164,-12 164,-24 164,-24 164,-30 158,-36 152,-36"/>
<text text-anchor="middle" x="111" y="-15.2" font-family="Helvetica,sans-Serif" font-size="11.00">Session.toString</text>
</g>
<!-- m::com.android.server.autofill.Session.toString:()Ljava/lang/String;&#45;&gt;__field__ -->
<g id="edge3" class="edge">
<title>m::com.android.server.autofill.Session.toString:()Ljava/lang/String;&#45;&gt;__field__</title>
<path fill="none" stroke="#dc2626" d="M164.07,-27.77C212.67,-36.9 285.9,-50.64 341.76,-61.13"/>
<polygon fill="#dc2626" stroke="#dc2626" points="341.49,-63.92 349.87,-62.65 342.52,-58.42 341.49,-63.92"/>
<text text-anchor="middle" x="286" y="-59.8" font-family="Helvetica,sans-Serif" font-size="9.00" fill="#dc2626"> reads unguarded</text>
</g>
</g>
</svg>
