<?xml version="1.0" encoding="UTF-8" standalone="no"?>
<!DOCTYPE svg PUBLIC "-//W3C//DTD SVG 1.1//EN"
 "http://www.w3.org/Graphics/SVG/1.1/DTD/svg11.dtd">
<!-- Generated by graphviz version 2.43.0 (0)
 -->
<!-- Title: race Pages: 1 -->
<svg width="541pt" height="184pt"
 viewBox="0.00 0.00 541.00 184.00" xmlns="http://www.w3.org/2000/svg" xmlns:xlink="http://www.w3.org/1999/xlink">
<g id="graph0" class="graph" transform="scale(1 1) rotate(0) translate(4 180)">
<title>race</title>
<polygon fill="white" stroke="transparent" points="-4,4 -4,-180 537,-180 537,4 -4,4"/>
<!-- __field__ -->
<g id="node1" class="node">
<title>__field__</title>
<path fill="#fef9c3" stroke="#ca8a04" stroke-width="2" d="M521,-102C521,-102 308,-102 308,-102 302,-102 296,-96 296,-90 296,-90 296,-78 296,-78 296,-72 302,-66 308,-66 308,-66 521,-66 521,-66 527,-66 533,-72 533,-78 533,-78 533,-90 533,-90 533,-96 527,-102 521,-102"/>
<text text-anchor="middle" x="414.5" y="-81.2" font-family="Helvetica,sans-Serif" font-size="11.00">ServiceRecord.pendingConnectionGroup</text>
</g>
<!-- __guard__ -->
<g id="node2" class="node">
<title>__guard__</title>
<path fill="#dcfce7" stroke="#16a34a" stroke-width="2" d="M156,-176C156,-176 12,-176 12,-176 6,-176 0,-170 0,-164 0,-164 0,-152 0,-152 0,-146 6,-140 12,-140 12,-140 156,-140 156,-140 162,-140 168,-146 168,-152 168,-152 168,-164 168,-164 168,-170 162,-176 156,-176"/>
<text text-anchor="middle" x="84" y="-155.2" font-family="Helvetica,sans-Serif" font-size="11.00">am.ActivityManagerService</text>
</g>
<!-- __guard__&#45;&gt;__field__ -->
<g id="edge1" class="edge">
<title>__guard__&#45;&gt;__field__</title>
<path fill="none" stroke="#16a34a" stroke-width="1.6" d="M164.94,-139.99C213.52,-129.05 275.61,-115.06 325.58,-103.81"/>
<polygon fill="#16a34a" stroke="#16a34a" stroke-width="1.6" points="326.3,-106.51 333.49,-102.02 325.07,-101.05 326.3,-106.51"/>
<text text-anchor="middle" x="232" y="-136.8" font-family="Helvetica,sans-Serif" font-size="9.00" fill="#15803d"> guards 2/3</text>
</g>
<!-- m::com.android.server.am.ServiceRecord.setProcess:(Lcom/android/server/am/ProcessRecord;Landroid/app/IApplicationThread;ILcom/android/server/am/UidRecord;)V -->
<g id="node3" class="node">
<title>m::com.android.server.am.ServiceRecord.setProcess:(Lcom/android/server/am/ProcessRecord;Landroid/app/IApplicationThread;ILcom/android/server/am/UidRecord;)V</title>
<path fill="#fee2e2" stroke="#dc2626" d="M151.5,-110C151.5,-110 16.5,-110 16.5,-110 10.5,-110 4.5,-104 4.5,-98 4.5,-98 4.5,-86 4.5,-86 4.5,-80 10.5,-74 16.5,-74 16.5,-74 151.5,-74 151.5,-74 157.5,-74 163.5,-80 163.5,-86 163.5,-86 163.5,-98 163.5,-98 163.5,-104 157.5,-110 151.5,-110"/>
<text text-anchor="middle" x="84" y="-89.2" font-family="Helvetica,sans-Serif" font-size="11.00">ServiceRecord.setProcess</text>
</g>
<!-- m::com.android.server.am.ServiceRecord.setProcess:(Lcom/android/server/am/ProcessRecord;Landroid/app/IApplicationThread;ILcom/android/server/am/UidRecord;)V&#45;&gt;__field__ -->
<g id="edge2" class="edge">
<title>m::com.android.server.am.ServiceRecord.setProcess:(Lcom/android/server/am/ProcessRecord;Landroid/app/IApplicationThread;ILcom/android/server/am/UidRecord;)V&#45;&gt;__field__</title>
<path fill="none" stroke="#dc2626" d="M163.55,-94.49C172.47,-94.7 181.43,-94.88 190,-95 227.33,-95.53 236.7,-96.47 274,-95 278.48,-94.82 283.03,-94.62 287.63,-94.38"/>
<polygon fill="#dc2626" stroke="#dc2626" points="288.11,-97.16 295.95,-93.93 287.81,-91.57 288.11,-97.16"/>
<text text-anchor="middle" x="232" y="-97.8" font-family="Helvetica,sans-Serif" font-size="9.00" fill="#dc2626"> writes unguarded</text>
</g>
<!-- m::com.android.server.am.ServiceRecord.setProcess:(Lcom/android/server/am/ProcessRecord;Landroid/app/IApplicationThread;ILcom/android/server/am/UidRecord;)V&#45;&gt;__field__ -->
<g id="edge5" class="edge">
<title>m::com.android.server.am.ServiceRecord.setProcess:(Lcom/android/server/am/ProcessRecord;Landroid/app/IApplicationThread;ILcom/android/server/am/UidRecord;)V&#45;&gt;__field__</title>
<path fill="none" stroke="#dc2626" d="M163.51,-85.36C172.44,-84.8 181.41,-84.33 190,-84 221.63,-82.8 255.81,-82.36 287.68,-82.32"/>
<polygon fill="#dc2626" stroke="#dc2626" points="287.74,-85.12 295.74,-82.32 287.73,-79.52 287.74,-85.12"/>
<text text-anchor="middle" x="232" y="-86.8" font-family="Helvetica,sans-Serif" font-size="9.00" fill="#dc2626"> reads unguarded</text>
</g>
<!-- m::com.android.server.am.ServiceRecord.dump:(Ljava/io/PrintWriter;Ljava/lang/String;)V -->
<g id="node4" class="node">
<title>m::com.android.server.am.ServiceRecord.dump:(Ljava/io/PrintWriter;Ljava/lang/String;)V</title>
<path fill="#fee2e2" stroke="#dc2626" d="M137,-36C137,-36 31,-36 31,-36 25,-36 19,-30 19,-24 19,-24 19,-12 19,-12 19,-6 25,0 31,0 31,0 137,0 137,0 143,0 149,-6 149,-12 149,-12 149,-24 149,-24 149,-30 143,-36 137,-36"/>
<text text-anchor="middle" x="84" y="-15.2" font-family="Helvetica,sans-Serif" font-size="11.00">ServiceRecord.dump</text>
</g>
<!-- m::com.android.server.am.ServiceRecord.dump:(Ljava/io/PrintWriter;Ljava/lang/String;)V&#45;&gt;__field__ -->
<g id="edge3" class="edge">
<title>m::com.android.server.am.ServiceRecord.dump:(Ljava/io/PrintWriter;Ljava/lang/String;)V&#45;&gt;__field__</title>
<path fill="none" stroke="#dc2626" d="M149.12,-30.88C196.55,-40.41 261.99,-53.56 315.89,-64.39"/>
<polygon fill="#dc2626" stroke="#dc2626" points="315.36,-67.14 323.76,-65.97 316.47,-61.65 315.36,-67.14"/>
<text text-anchor="middle" x="232" y="-56.8" font-family="Helvetica,sans-Serif" font-size="9.00" fill="#dc2626"> reads unguarded</text>
</g>
<!-- m::com.android.server.am.ServiceRecord.dump:(Ljava/io/PrintWriter;Ljava/lang/String;)V&#45;&gt;__field__ -->
<g id="edge4" class="edge">
<title>m::com.android.server.am.ServiceRecord.dump:(Ljava/io/PrintWriter;Ljava/lang/String;)V&#45;&gt;__field__</title>
<path fill="none" stroke="#dc2626" d="M149.17,-14.15C186.1,-13.38 233.14,-14.91 274,-24 309.17,-31.83 346.54,-48.39 373.74,-62.14"/>
<polygon fill="#dc2626" stroke="#dc2626" points="372.74,-64.77 381.13,-65.93 375.29,-59.79 372.74,-64.77"/>
<text text-anchor="middle" x="232" y="-26.8" font-family="Helvetica,sans-Serif" font-size="9.00" fill="#dc2626"> reads unguarded</text>
</g>
</g>
</svg>
