<?xml version="1.0" encoding="UTF-8" standalone="no"?>
<!DOCTYPE svg PUBLIC "-//W3C//DTD SVG 1.1//EN"
 "http://www.w3.org/Graphics/SVG/1.1/DTD/svg11.dtd">
<!-- Generated by graphviz version 2.43.0 (0)
 -->
<!-- Title: race Pages: 1 -->
<svg width="646pt" height="371pt"
 viewBox="0.00 0.00 646.00 371.00" xmlns="http://www.w3.org/2000/svg" xmlns:xlink="http://www.w3.org/1999/xlink">
<g id="graph0" class="graph" transform="scale(1 1) rotate(0) translate(4 367)">
<title>race</title>
<polygon fill="white" stroke="transparent" points="-4,4 -4,-367 642,-367 642,4 -4,4"/>
<!-- __field__ -->
<g id="node1" class="node">
<title>__field__</title>
<path fill="#fef9c3" stroke="#ca8a04" stroke-width="2" d="M626,-215C626,-215 414,-215 414,-215 408,-215 402,-209 402,-203 402,-203 402,-191 402,-191 402,-185 408,-179 414,-179 414,-179 626,-179 626,-179 632,-179 638,-185 638,-191 638,-191 638,-203 638,-203 638,-209 632,-215 626,-215"/>
<text text-anchor="middle" x="520" y="-194.2" font-family="Helvetica,sans-Serif" font-size="11.00">AttributedOp.mPausedInProgressEvents</text>
</g>
<!-- __guard__ -->
<g id="node2" class="node">
<title>__guard__</title>
<path fill="#dcfce7" stroke="#16a34a" stroke-width="2" d="M193.5,-363C193.5,-363 80.5,-363 80.5,-363 74.5,-363 68.5,-357 68.5,-351 68.5,-351 68.5,-339 68.5,-339 68.5,-333 74.5,-327 80.5,-327 80.5,-327 193.5,-327 193.5,-327 199.5,-327 205.5,-333 205.5,-339 205.5,-339 205.5,-351 205.5,-351 205.5,-357 199.5,-363 193.5,-363"/>
<text text-anchor="middle" x="137" y="-342.2" font-family="Helvetica,sans-Serif" font-size="11.00">appop.AppOpsService</text>
</g>
<!-- __guard__&#45;&gt;__field__ -->
<g id="edge1" class="edge">
<title>__guard__&#45;&gt;__field__</title>
<path fill="none" stroke="#16a34a" stroke-width="1.6" d="M205.69,-341.89C255.64,-337.57 324.31,-327.31 380,-303 425.32,-283.21 469.26,-245.67 495.21,-220.99"/>
<polygon fill="#16a34a" stroke="#16a34a" stroke-width="1.6" points="497.28,-222.89 501.1,-215.32 493.4,-218.86 497.28,-222.89"/>
<text text-anchor="middle" x="338" y="-330.8" font-family="Helvetica,sans-Serif" font-size="9.00" fill="#15803d"> guards 3/4</text>
</g>
<!-- m::com.android.server.appop.AttributedOp.finishPossiblyPaused:(Landroid/os/IBinder;Z)V -->
<g id="node3" class="node">
<title>m::com.android.server.appop.AttributedOp.finishPossiblyPaused:(Landroid/os/IBinder;Z)V</title>
<path fill="#fee2e2" stroke="#dc2626" d="M227,-252C227,-252 47,-252 47,-252 41,-252 35,-246 35,-240 35,-240 35,-228 35,-228 35,-222 41,-216 47,-216 47,-216 227,-216 227,-216 233,-216 239,-222 239,-228 239,-228 239,-240 239,-240 239,-246 233,-252 227,-252"/>
<text text-anchor="middle" x="137" y="-231.2" font-family="Helvetica,sans-Serif" font-size="11.00">AttributedOp.finishPossiblyPaused</text>
</g>
<!-- m::com.android.server.appop.AttributedOp.finishPossiblyPaused:(Landroid/os/IBinder;Z)V&#45;&gt;__field__ -->
<g id="edge2" class="edge">
<title>m::com.android.server.appop.AttributedOp.finishPossiblyPaused:(Landroid/os/IBinder;Z)V&#45;&gt;__field__</title>
<path fill="none" stroke="#dc2626" d="M174.91,-252.02C222.74,-272.93 308.47,-302.14 380,-282 422.42,-270.06 464.69,-241.17 491.28,-220.38"/>
<polygon fill="#dc2626" stroke="#dc2626" points="493.17,-222.46 497.69,-215.29 489.69,-218.07 493.17,-222.46"/>
<text text-anchor="middle" x="338" y="-290.8" font-family="Helvetica,sans-Serif" font-size="9.00" fill="#dc2626"> writes unguarded</text>
</g>
<!-- m::com.android.server.appop.AttributedOp.finishPossiblyPaused:(Landroid/os/IBinder;Z)V&#45;&gt;__field__ -->
<g id="edge4" class="edge">
<title>m::com.android.server.appop.AttributedOp.finishPossiblyPaused:(Landroid/os/IBinder;Z)V&#45;&gt;__field__</title>
<path fill="none" stroke="#dc2626" d="M239.24,-248.07C282.81,-251.69 334.17,-252.69 380,-245 411.05,-239.79 444.44,-228.46 470.72,-218.12"/>
<polygon fill="#dc2626" stroke="#dc2626" points="471.89,-220.66 478.28,-215.09 469.81,-215.46 471.89,-220.66"/>
<text text-anchor="middle" x="338" y="-252.8" font-family="Helvetica,sans-Serif" font-size="9.00" fill="#dc2626"> reads unguarded</text>
</g>
<!-- m::com.android.server.appop.AttributedOp.finishPossiblyPaused:(Landroid/os/IBinder;Z)V&#45;&gt;__field__ -->
<g id="edge5" class="edge">
<title>m::com.android.server.appop.AttributedOp.finishPossiblyPaused:(Landroid/os/IBinder;Z)V&#45;&gt;__field__</title>
<path fill="none" stroke="#dc2626" d="M239.1,-224.18C286.6,-219.57 343.7,-214.02 393.89,-209.15"/>
<polygon fill="#dc2626" stroke="#dc2626" points="394.2,-211.93 401.89,-208.37 393.66,-206.36 394.2,-211.93"/>
<text text-anchor="middle" x="338" y="-219.8" font-family="Helvetica,sans-Serif" font-size="9.00" fill="#dc2626"> reads unguarded</text>
</g>
<!-- m::com.android.server.appop.AttributedOp.finishPossiblyPaused:(Landroid/os/IBinder;Z)V&#45;&gt;__field__ -->
<g id="edge6" class="edge">
<title>m::com.android.server.appop.AttributedOp.finishPossiblyPaused:(Landroid/os/IBinder;Z)V&#45;&gt;__field__</title>
<path fill="none" stroke="#dc2626" d="M200.08,-215.98C228.97,-208.49 263.96,-200.7 296,-197 327.55,-193.35 361.79,-192.05 393.74,-191.95"/>
<polygon fill="#dc2626" stroke="#dc2626" points="393.82,-194.75 401.82,-191.95 393.82,-189.15 393.82,-194.75"/>
<text text-anchor="middle" x="338" y="-199.8" font-family="Helvetica,sans-Serif" font-size="9.00" fill="#dc2626"> reads unguarded</text>
</g>
<!-- m::com.android.server.appop.AttributedOp.finishPossiblyPaused:(Landroid/os/IBinder;Z)V&#45;&gt;__field__ -->
<g id="edge7" class="edge">
<title>m::com.android.server.appop.AttributedOp.finishPossiblyPaused:(Landroid/os/IBinder;Z)V&#45;&gt;__field__</title>
<path fill="none" stroke="#dc2626" d="M176.25,-215.95C207.63,-202.2 253.63,-184.41 296,-177 338.45,-169.58 385.95,-172.33 426.17,-177.85"/>
<polygon fill="#dc2626" stroke="#dc2626" points="425.8,-180.62 434.11,-178.98 426.59,-175.08 425.8,-180.62"/>
<text text-anchor="middle" x="338" y="-179.8" font-family="Helvetica,sans-Serif" font-size="9.00" fill="#dc2626"> reads unguarded</text>
</g>
<!-- m::com.android.server.appop.AttributedOp.doForAllInProgressStartOpEvents:(Ljava/util/function/Consumer;)V -->
<g id="node4" class="node">
<title>m::com.android.server.appop.AttributedOp.doForAllInProgressStartOpEvents:(Ljava/util/function/Consumer;)V</title>
<path fill="#fee2e2" stroke="#dc2626" d="M262,-152C262,-152 12,-152 12,-152 6,-152 0,-146 0,-140 0,-140 0,-128 0,-128 0,-122 6,-116 12,-116 12,-116 262,-116 262,-116 268,-116 274,-122 274,-128 274,-128 274,-140 274,-140 274,-146 268,-152 262,-152"/>
<text text-anchor="middle" x="137" y="-131.2" font-family="Helvetica,sans-Serif" font-size="11.00">AttributedOp.doForAllInProgressStartOpEvents</text>
</g>
<!-- m::com.android.server.appop.AttributedOp.doForAllInProgressStartOpEvents:(Ljava/util/function/Consumer;)V&#45;&gt;__field__ -->
<g id="edge3" class="edge">
<title>m::com.android.server.appop.AttributedOp.doForAllInProgressStartOpEvents:(Ljava/util/function/Consumer;)V&#45;&gt;__field__</title>
<path fill="none" stroke="#dc2626" d="M274.3,-142.49C308.95,-145.87 346,-150.55 380,-157 405.6,-161.86 433.29,-169.35 457.16,-176.54"/>
<polygon fill="#dc2626" stroke="#dc2626" points="456.63,-179.31 465.1,-178.96 458.27,-173.95 456.63,-179.31"/>
<text text-anchor="middle" x="338" y="-159.8" font-family="Helvetica,sans-Serif" font-size="9.00" fill="#dc2626"> reads unguarded</text>
</g>
<!-- m::com.android.server.appop.AttributedOp.isPaused:()Z -->
<g id="node5" class="node">
<title>m::com.android.server.appop.AttributedOp.isPaused:()Z</title>
<path fill="#fee2e2" stroke="#dc2626" d="M195,-94C195,-94 79,-94 79,-94 73,-94 67,-88 67,-82 67,-82 67,-70 67,-70 67,-64 73,-58 79,-58 79,-58 195,-58 195,-58 201,-58 207,-64 207,-70 207,-70 207,-82 207,-82 207,-88 201,-94 195,-94"/>
<text text-anchor="middle" x="137" y="-73.2" font-family="Helvetica,sans-Serif" font-size="11.00">AttributedOp.isPaused</text>
</g>
<!-- m::com.android.server.appop.AttributedOp.isPaused:()Z&#45;&gt;__field__ -->
<g id="edge8" class="edge">
<title>m::com.android.server.appop.AttributedOp.isPaused:()Z&#45;&gt;__field__</title>
<path fill="none" stroke="#dc2626" d="M207.25,-90.47C228.67,-95.02 252.33,-100.13 274,-105 321.23,-115.6 334.37,-113.84 380,-130 414.77,-142.31 452.35,-160.77 479.66,-175.19"/>
<polygon fill="#dc2626" stroke="#dc2626" points="478.35,-177.66 486.72,-178.95 480.98,-172.72 478.35,-177.66"/>
<text text-anchor="middle" x="338" y="-132.8" font-family="Helvetica,sans-Serif" font-size="9.00" fill="#dc2626"> reads unguarded</text>
</g>
<!-- m::com.android.server.appop.AttributedOp.onClientDeath:(Landroid/os/IBinder;)V -->
<g id="node6" class="node">
<title>m::com.android.server.appop.AttributedOp.onClientDeath:(Landroid/os/IBinder;)V</title>
<path fill="#fee2e2" stroke="#dc2626" d="M210,-36C210,-36 64,-36 64,-36 58,-36 52,-30 52,-24 52,-24 52,-12 52,-12 52,-6 58,0 64,0 64,0 210,0 210,0 216,0 222,-6 222,-12 222,-12 222,-24 222,-24 222,-30 216,-36 210,-36"/>
<text text-anchor="middle" x="137" y="-15.2" font-family="Helvetica,sans-Serif" font-size="11.00">AttributedOp.onClientDeath</text>
</g>
<!-- m::com.android.server.appop.AttributedOp.onClientDeath:(Landroid/os/IBinder;)V&#45;&gt;__field__ -->
<g id="edge9" class="edge">
<title>m::com.android.server.appop.AttributedOp.onClientDeath:(Landroid/os/IBinder;)V&#45;&gt;__field__</title>
<path fill="none" stroke="#dc2626" d="M222.15,-33.1C239.47,-37 257.47,-41.64 274,-47 323.02,-62.9 335.47,-68.06 380,-94 420.84,-117.8 464,-151.26 491.19,-173.52"/>
<polygon fill="#dc2626" stroke="#dc2626" points="489.46,-175.72 497.42,-178.64 493.02,-171.39 489.46,-175.72"/>
<text text-anchor="middle" x="338" y="-96.8" font-family="Helvetica,sans-Serif" font-size="9.00" fill="#dc2626"> reads unguarded</text>
</g>
</g>
</svg>
