<?xml version="1.0" encoding="UTF-8" standalone="no"?>
<!DOCTYPE svg PUBLIC "-//W3C//DTD SVG 1.1//EN"
 "http://www.w3.org/Graphics/SVG/1.1/DTD/svg11.dtd">
<!-- Generated by graphviz version 2.43.0 (0)
 -->
<!-- Title: race Pages: 1 -->
<svg width="565pt" height="276pt"
 viewBox="0.00 0.00 565.00 276.00" xmlns="http://www.w3.org/2000/svg" xmlns:xlink="http://www.w3.org/1999/xlink">
<g id="graph0" class="graph" transform="scale(1 1) rotate(0) translate(4 272)">
<title>race</title>
<polygon fill="white" stroke="transparent" points="-4,4 -4,-272 561,-272 561,4 -4,4"/>
<!-- __field__ -->
<g id="node1" class="node">
<title>__field__</title>
<path fill="#fef9c3" stroke="#ca8a04" stroke-width="2" d="M545,-152C545,-152 442,-152 442,-152 436,-152 430,-146 430,-140 430,-140 430,-128 430,-128 430,-122 436,-116 442,-116 442,-116 545,-116 545,-116 551,-116 557,-122 557,-128 557,-128 557,-140 557,-140 557,-146 551,-152 545,-152"/>
<text text-anchor="middle" x="493.5" y="-131.2" font-family="Helvetica,sans-Serif" font-size="11.00">ProfilerInfo.profileFd</text>
</g>
<!-- __guard__ -->
<g id="node2" class="node">
<title>__guard__</title>
<path fill="#dcfce7" stroke="#16a34a" stroke-width="2" d="M216,-268C216,-268 86,-268 86,-268 80,-268 74,-262 74,-256 74,-256 74,-244 74,-244 74,-238 80,-232 86,-232 86,-232 216,-232 216,-232 222,-232 228,-238 228,-244 228,-244 228,-256 228,-256 228,-262 222,-268 216,-268"/>
<text text-anchor="middle" x="151" y="-247.2" font-family="Helvetica,sans-Serif" font-size="11.00">AppProfiler.mProfilerLock</text>
</g>
<!-- __guard__&#45;&gt;__field__ -->
<g id="edge1" class="edge">
<title>__guard__&#45;&gt;__field__</title>
<path fill="none" stroke="#16a34a" stroke-width="1.6" d="M228.2,-249.87C280.97,-247.09 351.6,-237.9 408,-211 433.69,-198.75 457.11,-176.06 472.74,-158.48"/>
<polygon fill="#16a34a" stroke="#16a34a" stroke-width="1.6" points="475.01,-160.13 478.14,-152.26 470.78,-156.46 475.01,-160.13"/>
<text text-anchor="middle" x="366" y="-239.8" font-family="Helvetica,sans-Serif" font-size="9.00" fill="#15803d"> guards 4/5</text>
</g>
<!-- m::com.android.server.wm.WindowProcessController.createProfilerInfoIfNeeded:()Landroid/app/ProfilerInfo; -->
<g id="node3" class="node">
<title>m::com.android.server.wm.WindowProcessController.createProfilerInfoIfNeeded:()Landroid/app/ProfilerInfo;</title>
<path fill="#fee2e2" stroke="#dc2626" d="M290,-210C290,-210 12,-210 12,-210 6,-210 0,-204 0,-198 0,-198 0,-186 0,-186 0,-180 6,-174 12,-174 12,-174 290,-174 290,-174 296,-174 302,-180 302,-186 302,-186 302,-198 302,-198 302,-204 296,-210 290,-210"/>
<text text-anchor="middle" x="151" y="-189.2" font-family="Helvetica,sans-Serif" font-size="11.00">WindowProcessController.createProfilerInfoIfNeeded</text>
</g>
<!-- m::com.android.server.wm.WindowProcessController.createProfilerInfoIfNeeded:()Landroid/app/ProfilerInfo;&#45;&gt;__field__ -->
<g id="edge2" class="edge">
<title>m::com.android.server.wm.WindowProcessController.createProfilerInfoIfNeeded:()Landroid/app/ProfilerInfo;&#45;&gt;__field__</title>
<path fill="none" stroke="#dc2626" d="M302.12,-198.05C337.37,-196.22 374.42,-191.58 408,-182 426.85,-176.62 446,-166.24 461.29,-156.5"/>
<polygon fill="#dc2626" stroke="#dc2626" points="462.87,-158.81 468.03,-152.09 459.8,-154.13 462.87,-158.81"/>
<text text-anchor="middle" x="366" y="-198.8" font-family="Helvetica,sans-Serif" font-size="9.00" fill="#dc2626"> writes unguarded</text>
</g>
<!-- m::com.android.server.wm.WindowProcessController.createProfilerInfoIfNeeded:()Landroid/app/ProfilerInfo;&#45;&gt;__field__ -->
<g id="edge7" class="edge">
<title>m::com.android.server.wm.WindowProcessController.createProfilerInfoIfNeeded:()Landroid/app/ProfilerInfo;&#45;&gt;__field__</title>
<path fill="none" stroke="#dc2626" d="M257.87,-173.97C311.2,-164.88 374.42,-154.11 421.79,-146.04"/>
<polygon fill="#dc2626" stroke="#dc2626" points="422.44,-148.78 429.85,-144.67 421.5,-143.25 422.44,-148.78"/>
<text text-anchor="middle" x="366" y="-163.8" font-family="Helvetica,sans-Serif" font-size="9.00" fill="#dc2626"> reads unguarded</text>
</g>
<!-- m::com.android.server.am.ActivityManagerService.profileControl:(Ljava/lang/String;IZLandroid/app/ProfilerInfo;I)Z -->
<g id="node4" class="node">
<title>m::com.android.server.am.ActivityManagerService.profileControl:(Ljava/lang/String;IZLandroid/app/ProfilerInfo;I)Z</title>
<path fill="#fee2e2" stroke="#dc2626" d="M251.5,-152C251.5,-152 50.5,-152 50.5,-152 44.5,-152 38.5,-146 38.5,-140 38.5,-140 38.5,-128 38.5,-128 38.5,-122 44.5,-116 50.5,-116 50.5,-116 251.5,-116 251.5,-116 257.5,-116 263.5,-122 263.5,-128 263.5,-128 263.5,-140 263.5,-140 263.5,-146 257.5,-152 251.5,-152"/>
<text text-anchor="middle" x="151" y="-131.2" font-family="Helvetica,sans-Serif" font-size="11.00">ActivityManagerService.profileControl</text>
</g>
<!-- m::com.android.server.am.ActivityManagerService.profileControl:(Ljava/lang/String;IZLandroid/app/ProfilerInfo;I)Z&#45;&gt;__field__ -->
<g id="edge3" class="edge">
<title>m::com.android.server.am.ActivityManagerService.profileControl:(Ljava/lang/String;IZLandroid/app/ProfilerInfo;I)Z&#45;&gt;__field__</title>
<path fill="none" stroke="#dc2626" d="M263.96,-134C315.89,-134 376.05,-134 421.61,-134"/>
<polygon fill="#dc2626" stroke="#dc2626" points="421.65,-136.8 429.65,-134 421.65,-131.2 421.65,-136.8"/>
<text text-anchor="middle" x="366" y="-136.8" font-family="Helvetica,sans-Serif" font-size="9.00" fill="#dc2626"> reads unguarded</text>
</g>
<!-- m::com.android.server.am.AppProfiler.dumpProfileDataLocked:(Ljava/io/PrintWriter;Ljava/lang/String;Z)Z -->
<g id="node5" class="node">
<title>m::com.android.server.am.AppProfiler.dumpProfileDataLocked:(Ljava/io/PrintWriter;Ljava/lang/String;Z)Z</title>
<path fill="#fee2e2" stroke="#dc2626" d="M243.5,-94C243.5,-94 58.5,-94 58.5,-94 52.5,-94 46.5,-88 46.5,-82 46.5,-82 46.5,-70 46.5,-70 46.5,-64 52.5,-58 58.5,-58 58.5,-58 243.5,-58 243.5,-58 249.5,-58 255.5,-64 255.5,-70 255.5,-70 255.5,-82 255.5,-82 255.5,-88 249.5,-94 243.5,-94"/>
<text text-anchor="middle" x="151" y="-73.2" font-family="Helvetica,sans-Serif" font-size="11.00">AppProfiler.dumpProfileDataLocked</text>
</g>
<!-- m::com.android.server.am.AppProfiler.dumpProfileDataLocked:(Ljava/io/PrintWriter;Ljava/lang/String;Z)Z&#45;&gt;__field__ -->
<g id="edge4" class="edge">
<title>m::com.android.server.am.AppProfiler.dumpProfileDataLocked:(Ljava/io/PrintWriter;Ljava/lang/String;Z)Z&#45;&gt;__field__</title>
<path fill="none" stroke="#dc2626" d="M255.73,-93.2C302.3,-100.98 357.93,-110.35 408,-119 412.51,-119.78 417.16,-120.59 421.85,-121.41"/>
<polygon fill="#dc2626" stroke="#dc2626" points="421.39,-124.17 429.76,-122.8 422.36,-118.65 421.39,-124.17"/>
<text text-anchor="middle" x="366" y="-121.8" font-family="Helvetica,sans-Serif" font-size="9.00" fill="#dc2626"> reads unguarded</text>
</g>
<!-- m::com.android.server.am.AppProfiler.dumpProfileDataLocked:(Ljava/io/PrintWriter;Ljava/lang/String;Z)Z&#45;&gt;__field__ -->
<g id="edge5" class="edge">
<title>m::com.android.server.am.AppProfiler.dumpProfileDataLocked:(Ljava/io/PrintWriter;Ljava/lang/String;Z)Z&#45;&gt;__field__</title>
<path fill="none" stroke="#dc2626" d="M255.74,-71.77C302.94,-72.35 359.06,-76.59 408,-90 425.41,-94.77 443.33,-103.47 458.17,-111.88"/>
<polygon fill="#dc2626" stroke="#dc2626" points="456.87,-114.36 465.19,-115.97 459.68,-109.52 456.87,-114.36"/>
<text text-anchor="middle" x="366" y="-92.8" font-family="Helvetica,sans-Serif" font-size="9.00" fill="#dc2626"> reads unguarded</text>
</g>
<!-- m::com.android.server.am.AppProfiler.writeProfileDataToProtoLocked:(Landroid/util/proto/ProtoOutputStream;Ljava/lang/String;)V -->
<g id="node6" class="node">
<title>m::com.android.server.am.AppProfiler.writeProfileDataToProtoLocked:(Landroid/util/proto/ProtoOutputStream;Ljava/lang/String;)V</title>
<path fill="#fee2e2" stroke="#dc2626" d="M262.5,-36C262.5,-36 39.5,-36 39.5,-36 33.5,-36 27.5,-30 27.5,-24 27.5,-24 27.5,-12 27.5,-12 27.5,-6 33.5,0 39.5,0 39.5,0 262.5,0 262.5,0 268.5,0 274.5,-6 274.5,-12 274.5,-12 274.5,-24 274.5,-24 274.5,-30 268.5,-36 262.5,-36"/>
<text text-anchor="middle" x="151" y="-15.2" font-family="Helvetica,sans-Serif" font-size="11.00">AppProfiler.writeProfileDataToProtoLocked</text>
</g>
<!-- m::com.android.server.am.AppProfiler.writeProfileDataToProtoLocked:(Landroid/util/proto/ProtoOutputStream;Ljava/lang/String;)V&#45;&gt;__field__ -->
<g id="edge6" class="edge">
<title>m::com.android.server.am.AppProfiler.writeProfileDataToProtoLocked:(Landroid/util/proto/ProtoOutputStream;Ljava/lang/String;)V&#45;&gt;__field__</title>
<path fill="none" stroke="#dc2626" d="M274.66,-24.2C318.34,-29.95 366.86,-40.59 408,-60 432.97,-71.79 456.17,-93.18 471.92,-109.94"/>
<polygon fill="#dc2626" stroke="#dc2626" points="469.9,-111.88 477.38,-115.88 474.03,-108.09 469.9,-111.88"/>
<text text-anchor="middle" x="366" y="-62.8" font-family="Helvetica,sans-Serif" font-size="9.00" fill="#dc2626"> reads unguarded</text>
</g>
</g>
</svg>
