<?xml version="1.0" encoding="UTF-8" standalone="no"?>
<!DOCTYPE svg PUBLIC "-//W3C//DTD SVG 1.1//EN"
 "http://www.w3.org/Graphics/SVG/1.1/DTD/svg11.dtd">
<!-- Generated by graphviz version 2.43.0 (0)
 -->
<!-- Title: race Pages: 1 -->
<svg width="494pt" height="287pt"
 viewBox="0.00 0.00 494.00 287.00" xmlns="http://www.w3.org/2000/svg" xmlns:xlink="http://www.w3.org/1999/xlink">
<g id="graph0" class="graph" transform="scale(1 1) rotate(0) translate(4 283)">
<title>race</title>
<polygon fill="white" stroke="transparent" points="-4,4 -4,-283 490,-283 490,4 -4,4"/>
<!-- __field__ -->
<g id="node1" class="node">
<title>__field__</title>
<path fill="#fef9c3" stroke="#ca8a04" stroke-width="2" d="M474,-168C474,-168 385,-168 385,-168 379,-168 373,-162 373,-156 373,-156 373,-144 373,-144 373,-138 379,-132 385,-132 385,-132 474,-132 474,-132 480,-132 486,-138 486,-144 486,-144 486,-156 486,-156 486,-162 480,-168 474,-168"/>
<text text-anchor="middle" x="429.5" y="-147.2" font-family="Helvetica,sans-Serif" font-size="11.00">Task.mReuseTask</text>
</g>
<!-- __guard__ -->
<g id="node2" class="node">
<title>__guard__</title>
<path fill="#dcfce7" stroke="#16a34a" stroke-width="2" d="M233,-279C233,-279 12,-279 12,-279 6,-279 0,-273 0,-267 0,-267 0,-255 0,-255 0,-249 6,-243 12,-243 12,-243 233,-243 233,-243 239,-243 245,-249 245,-255 245,-255 245,-267 245,-267 245,-273 239,-279 233,-279"/>
<text text-anchor="middle" x="122.5" y="-258.2" font-family="Helvetica,sans-Serif" font-size="11.00">ActivityTaskManagerService.mGlobalLock</text>
</g>
<!-- __guard__&#45;&gt;__field__ -->
<g id="edge1" class="edge">
<title>__guard__&#45;&gt;__field__</title>
<path fill="none" stroke="#16a34a" stroke-width="1.6" d="M245.21,-255.58C280.7,-250.4 318.62,-241.16 351,-225 374.66,-213.19 395.81,-191.58 410.01,-174.58"/>
<polygon fill="#16a34a" stroke="#16a34a" stroke-width="1.6" points="412.41,-176.06 415.29,-168.09 408.07,-172.53 412.41,-176.06"/>
<text text-anchor="middle" x="309" y="-253.8" font-family="Helvetica,sans-Serif" font-size="9.00" fill="#15803d"> guards 6/9</text>
</g>
<!-- m::com.android.server.wm.Task.performClearTaskForReuse:(Z)V -->
<g id="node3" class="node">
<title>m::com.android.server.wm.Task.performClearTaskForReuse:(Z)V</title>
<path fill="#fee2e2" stroke="#dc2626" d="M206,-218C206,-218 39,-218 39,-218 33,-218 27,-212 27,-206 27,-206 27,-194 27,-194 27,-188 33,-182 39,-182 39,-182 206,-182 206,-182 212,-182 218,-188 218,-194 218,-194 218,-206 218,-206 218,-212 212,-218 206,-218"/>
<text text-anchor="middle" x="122.5" y="-197.2" font-family="Helvetica,sans-Serif" font-size="11.00">Task.performClearTaskForReuse</text>
</g>
<!-- m::com.android.server.wm.Task.performClearTaskForReuse:(Z)V&#45;&gt;__field__ -->
<g id="edge2" class="edge">
<title>m::com.android.server.wm.Task.performClearTaskForReuse:(Z)V&#45;&gt;__field__</title>
<path fill="none" stroke="#dc2626" d="M218.13,-210.49C259.65,-212.22 308.51,-210.3 351,-198 368.64,-192.9 386.21,-182.56 400.15,-172.78"/>
<polygon fill="#dc2626" stroke="#dc2626" points="401.84,-175.01 406.68,-168.05 398.56,-170.47 401.84,-175.01"/>
<text text-anchor="middle" x="309" y="-212.8" font-family="Helvetica,sans-Serif" font-size="9.00" fill="#dc2626"> writes unguarded</text>
</g>
<!-- m::com.android.server.wm.Task.performClearTaskForReuse:(Z)V&#45;&gt;__field__ -->
<g id="edge3" class="edge">
<title>m::com.android.server.wm.Task.performClearTaskForReuse:(Z)V&#45;&gt;__field__</title>
<path fill="none" stroke="#dc2626" d="M218.33,-184.45C265.97,-176.64 322.42,-167.39 364.81,-160.44"/>
<polygon fill="#dc2626" stroke="#dc2626" points="365.39,-163.18 372.83,-159.13 364.48,-157.66 365.39,-163.18"/>
<text text-anchor="middle" x="309" y="-177.8" font-family="Helvetica,sans-Serif" font-size="9.00" fill="#dc2626"> writes unguarded</text>
</g>
<!-- m::com.android.server.wm.Task.dump:(Ljava/io/PrintWriter;Ljava/lang/String;)V -->
<g id="node4" class="node">
<title>m::com.android.server.wm.Task.dump:(Ljava/io/PrintWriter;Ljava/lang/String;)V</title>
<path fill="#fee2e2" stroke="#dc2626" d="M148,-155C148,-155 97,-155 97,-155 91,-155 85,-149 85,-143 85,-143 85,-131 85,-131 85,-125 91,-119 97,-119 97,-119 148,-119 148,-119 154,-119 160,-125 160,-131 160,-131 160,-143 160,-143 160,-149 154,-155 148,-155"/>
<text text-anchor="middle" x="122.5" y="-134.2" font-family="Helvetica,sans-Serif" font-size="11.00">Task.dump</text>
</g>
<!-- m::com.android.server.wm.Task.dump:(Ljava/io/PrintWriter;Ljava/lang/String;)V&#45;&gt;__field__ -->
<g id="edge4" class="edge">
<title>m::com.android.server.wm.Task.dump:(Ljava/io/PrintWriter;Ljava/lang/String;)V&#45;&gt;__field__</title>
<path fill="none" stroke="#dc2626" d="M160.29,-138.57C210.93,-140.73 302.88,-144.65 364.82,-147.29"/>
<polygon fill="#dc2626" stroke="#dc2626" points="364.86,-150.09 372.98,-147.63 365.1,-144.5 364.86,-150.09"/>
<text text-anchor="middle" x="309" y="-148.8" font-family="Helvetica,sans-Serif" font-size="9.00" fill="#dc2626"> reads unguarded</text>
</g>
<!-- m::com.android.server.wm.Task.dump:(Ljava/io/PrintWriter;Ljava/lang/String;)V&#45;&gt;__field__ -->
<g id="edge5" class="edge">
<title>m::com.android.server.wm.Task.dump:(Ljava/io/PrintWriter;Ljava/lang/String;)V&#45;&gt;__field__</title>
<path fill="none" stroke="#dc2626" d="M160.34,-131.55C205.5,-125.79 284.25,-118.71 351,-128 355.42,-128.61 359.93,-129.42 364.46,-130.35"/>
<polygon fill="#dc2626" stroke="#dc2626" points="364.18,-133.16 372.59,-132.16 365.39,-127.69 364.18,-133.16"/>
<text text-anchor="middle" x="309" y="-130.8" font-family="Helvetica,sans-Serif" font-size="9.00" fill="#dc2626"> reads unguarded</text>
</g>
<!-- m::com.android.server.wm.Task.isClearingToReuseTask:()Z -->
<g id="node5" class="node">
<title>m::com.android.server.wm.Task.isClearingToReuseTask:()Z</title>
<path fill="#fee2e2" stroke="#dc2626" d="M194,-94C194,-94 51,-94 51,-94 45,-94 39,-88 39,-82 39,-82 39,-70 39,-70 39,-64 45,-58 51,-58 51,-58 194,-58 194,-58 200,-58 206,-64 206,-70 206,-70 206,-82 206,-82 206,-88 200,-94 194,-94"/>
<text text-anchor="middle" x="122.5" y="-73.2" font-family="Helvetica,sans-Serif" font-size="11.00">Task.isClearingToReuseTask</text>
</g>
<!-- m::com.android.server.wm.Task.isClearingToReuseTask:()Z&#45;&gt;__field__ -->
<g id="edge6" class="edge">
<title>m::com.android.server.wm.Task.isClearingToReuseTask:()Z&#45;&gt;__field__</title>
<path fill="none" stroke="#dc2626" d="M206.18,-80.51C250.06,-84.67 304.4,-92.65 351,-108 365.72,-112.85 380.92,-120.43 393.91,-127.83"/>
<polygon fill="#dc2626" stroke="#dc2626" points="392.57,-130.28 400.89,-131.9 395.39,-125.45 392.57,-130.28"/>
<text text-anchor="middle" x="309" y="-110.8" font-family="Helvetica,sans-Serif" font-size="9.00" fill="#dc2626"> reads unguarded</text>
</g>
<!-- m::com.android.server.wm.Task.removeChild:(Lcom/android/server/wm/WindowContainer;Ljava/lang/String;)V -->
<g id="node6" class="node">
<title>m::com.android.server.wm.Task.removeChild:(Lcom/android/server/wm/WindowContainer;Ljava/lang/String;)V</title>
<path fill="#fee2e2" stroke="#dc2626" d="M167,-36C167,-36 78,-36 78,-36 72,-36 66,-30 66,-24 66,-24 66,-12 66,-12 66,-6 72,0 78,0 78,0 167,0 167,0 173,0 179,-6 179,-12 179,-12 179,-24 179,-24 179,-30 173,-36 167,-36"/>
<text text-anchor="middle" x="122.5" y="-15.2" font-family="Helvetica,sans-Serif" font-size="11.00">Task.removeChild</text>
</g>
<!-- m::com.android.server.wm.Task.removeChild:(Lcom/android/server/wm/WindowContainer;Ljava/lang/String;)V&#45;&gt;__field__ -->
<g id="edge7" class="edge">
<title>m::com.android.server.wm.Task.removeChild:(Lcom/android/server/wm/WindowContainer;Ljava/lang/String;)V&#45;&gt;__field__</title>
<path fill="none" stroke="#dc2626" d="M179.44,-22.95C227.49,-29.14 297.31,-42.87 351,-73 374.36,-86.11 395.54,-108.19 409.83,-125.36"/>
<polygon fill="#dc2626" stroke="#dc2626" points="407.93,-127.46 415.14,-131.9 412.27,-123.93 407.93,-127.46"/>
<text text-anchor="middle" x="309" y="-75.8" font-family="Helvetica,sans-Serif" font-size="9.00" fill="#dc2626"> reads unguarded</text>
</g>
</g>
</svg>
