<?xml version="1.0" encoding="UTF-8" standalone="no"?>
<!DOCTYPE svg PUBLIC "-//W3C//DTD SVG 1.1//EN"
 "http://www.w3.org/Graphics/SVG/1.1/DTD/svg11.dtd">
<!-- Generated by graphviz version 2.43.0 (0)
 -->
<!-- Title: race Pages: 1 -->
<svg width="715pt" height="218pt"
 viewBox="0.00 0.00 715.00 218.00" xmlns="http://www.w3.org/2000/svg" xmlns:xlink="http://www.w3.org/1999/xlink">
<g id="graph0" class="graph" transform="scale(1 1) rotate(0) translate(4 214)">
<title>race</title>
<polygon fill="white" stroke="transparent" points="-4,4 -4,-214 711,-214 711,4 -4,4"/>
<!-- __field__ -->
<g id="node1" class="node">
<title>__field__</title>
<path fill="#fef9c3" stroke="#ca8a04" stroke-width="2" d="M695,-123C695,-123 447,-123 447,-123 441,-123 435,-117 435,-111 435,-111 435,-99 435,-99 435,-93 441,-87 447,-87 447,-87 695,-87 695,-87 701,-87 707,-93 707,-99 707,-99 707,-111 707,-111 707,-117 701,-123 695,-123"/>
<text text-anchor="middle" x="571" y="-102.2" font-family="Helvetica,sans-Serif" font-size="11.00">ActiveAdmin.mManagedProfileContactsAccess</text>
</g>
<!-- __guard__ -->
<g id="node2" class="node">
<title>__guard__</title>
<path fill="#dcfce7" stroke="#16a34a" stroke-width="2" d="M295,-210C295,-210 12,-210 12,-210 6,-210 0,-204 0,-198 0,-198 0,-186 0,-186 0,-180 6,-174 12,-174 12,-174 295,-174 295,-174 301,-174 307,-180 307,-186 307,-186 307,-198 307,-198 307,-204 301,-210 295,-210"/>
<text text-anchor="middle" x="153.5" y="-189.2" font-family="Helvetica,sans-Serif" font-size="11.00">DevicePolicyManagerService.mLockDoNoUseDirectly</text>
</g>
<!-- __guard__&#45;&gt;__field__ -->
<g id="edge1" class="edge">
<title>__guard__&#45;&gt;__field__</title>
<path fill="none" stroke="#16a34a" stroke-width="1.6" d="M251.8,-173.94C270.16,-170.4 289.18,-166.66 307,-163 365.8,-150.93 431.77,-136.38 482.93,-124.87"/>
<polygon fill="#16a34a" stroke="#16a34a" stroke-width="1.6" points="483.82,-127.54 491.01,-123.05 482.59,-122.08 483.82,-127.54"/>
<text text-anchor="middle" x="371" y="-159.8" font-family="Helvetica,sans-Serif" font-size="9.00" fill="#15803d"> guards 3/4</text>
</g>
<!-- m::com.android.server.devicepolicy.ActiveAdmin.readFromXml:(Lcom/android/modules/utils/TypedXmlPullParser;Z)V -->
<g id="node3" class="node">
<title>m::com.android.server.devicepolicy.ActiveAdmin.readFromXml:(Lcom/android/modules/utils/TypedXmlPullParser;Z)V</title>
<path fill="#fee2e2" stroke="#dc2626" d="M222.5,-152C222.5,-152 84.5,-152 84.5,-152 78.5,-152 72.5,-146 72.5,-140 72.5,-140 72.5,-128 72.5,-128 72.5,-122 78.5,-116 84.5,-116 84.5,-116 222.5,-116 222.5,-116 228.5,-116 234.5,-122 234.5,-128 234.5,-128 234.5,-140 234.5,-140 234.5,-146 228.5,-152 222.5,-152"/>
<text text-anchor="middle" x="153.5" y="-131.2" font-family="Helvetica,sans-Serif" font-size="11.00">ActiveAdmin.readFromXml</text>
</g>
<!-- m::com.android.server.devicepolicy.ActiveAdmin.readFromXml:(Lcom/android/modules/utils/TypedXmlPullParser;Z)V&#45;&gt;__field__ -->
<g id="edge2" class="edge">
<title>m::com.android.server.devicepolicy.ActiveAdmin.readFromXml:(Lcom/android/modules/utils/TypedXmlPullParser;Z)V&#45;&gt;__field__</title>
<path fill="none" stroke="#dc2626" d="M234.61,-128.41C289,-124.61 362.44,-119.49 426.74,-115"/>
<polygon fill="#dc2626" stroke="#dc2626" points="427.15,-117.78 434.94,-114.43 426.76,-112.19 427.15,-117.78"/>
<text text-anchor="middle" x="371" y="-123.8" font-family="Helvetica,sans-Serif" font-size="9.00" fill="#dc2626"> writes unguarded</text>
</g>
<!-- m::com.android.server.devicepolicy.ActiveAdmin.dump:(Landroid/util/IndentingPrintWriter;)V -->
<g id="node4" class="node">
<title>m::com.android.server.devicepolicy.ActiveAdmin.dump:(Landroid/util/IndentingPrintWriter;)V</title>
<path fill="#fee2e2" stroke="#dc2626" d="M201.5,-94C201.5,-94 105.5,-94 105.5,-94 99.5,-94 93.5,-88 93.5,-82 93.5,-82 93.5,-70 93.5,-70 93.5,-64 99.5,-58 105.5,-58 105.5,-58 201.5,-58 201.5,-58 207.5,-58 213.5,-64 213.5,-70 213.5,-70 213.5,-82 213.5,-82 213.5,-88 207.5,-94 201.5,-94"/>
<text text-anchor="middle" x="153.5" y="-73.2" font-family="Helvetica,sans-Serif" font-size="11.00">ActiveAdmin.dump</text>
</g>
<!-- m::com.android.server.devicepolicy.ActiveAdmin.dump:(Landroid/util/IndentingPrintWriter;)V&#45;&gt;__field__ -->
<g id="edge3" class="edge">
<title>m::com.android.server.devicepolicy.ActiveAdmin.dump:(Landroid/util/IndentingPrintWriter;)V&#45;&gt;__field__</title>
<path fill="none" stroke="#dc2626" d="M213.59,-80.12C268.82,-83.98 353.48,-89.89 426.43,-94.98"/>
<polygon fill="#dc2626" stroke="#dc2626" points="426.64,-97.8 434.81,-95.56 427.03,-92.21 426.64,-97.8"/>
<text text-anchor="middle" x="371" y="-95.8" font-family="Helvetica,sans-Serif" font-size="9.00" fill="#dc2626"> reads unguarded</text>
</g>
<!-- m::com.android.server.devicepolicy.ActiveAdmin.writeToXml:(Lcom/android/modules/utils/TypedXmlSerializer;)V -->
<g id="node5" class="node">
<title>m::com.android.server.devicepolicy.ActiveAdmin.writeToXml:(Lcom/android/modules/utils/TypedXmlSerializer;)V</title>
<path fill="#fee2e2" stroke="#dc2626" d="M216,-36C216,-36 91,-36 91,-36 85,-36 79,-30 79,-24 79,-24 79,-12 79,-12 79,-6 85,0 91,0 91,0 216,0 216,0 222,0 228,-6 228,-12 228,-12 228,-24 228,-24 228,-30 222,-36 216,-36"/>
<text text-anchor="middle" x="153.5" y="-15.2" font-family="Helvetica,sans-Serif" font-size="11.00">ActiveAdmin.writeToXml</text>
</g>
<!-- m::com.android.server.devicepolicy.ActiveAdmin.writeToXml:(Lcom/android/modules/utils/TypedXmlSerializer;)V&#45;&gt;__field__ -->
<g id="edge4" class="edge">
<title>m::com.android.server.devicepolicy.ActiveAdmin.writeToXml:(Lcom/android/modules/utils/TypedXmlSerializer;)V&#45;&gt;__field__</title>
<path fill="none" stroke="#dc2626" d="M228.27,-31.58C253.3,-36.31 281.39,-41.74 307,-47 365.8,-59.07 431.77,-73.62 482.93,-85.13"/>
<polygon fill="#dc2626" stroke="#dc2626" points="482.59,-87.92 491.01,-86.95 483.82,-82.46 482.59,-87.92"/>
<text text-anchor="middle" x="371" y="-70.8" font-family="Helvetica,sans-Serif" font-size="9.00" fill="#dc2626"> reads unguarded</text>
</g>
</g>
</svg>
