<?xml version="1.0" encoding="UTF-8" standalone="no"?>
<!DOCTYPE svg PUBLIC "-//W3C//DTD SVG 1.1//EN"
 "http://www.w3.org/Graphics/SVG/1.1/DTD/svg11.dtd">
<!-- Generated by graphviz version 2.43.0 (0)
 -->
<!-- Title: race Pages: 1 -->
<svg width="715pt" height="160pt"
 viewBox="0.00 0.00 715.00 160.00" xmlns="http://www.w3.org/2000/svg" xmlns:xlink="http://www.w3.org/1999/xlink">
<g id="graph0" class="graph" transform="scale(1 1) rotate(0) translate(4 156)">
<title>race</title>
<polygon fill="white" stroke="transparent" points="-4,4 -4,-156 711,-156 711,4 -4,4"/>
<!-- __field__ -->
<g id="node1" class="node">
<title>__field__</title>
<path fill="#fef9c3" stroke="#ca8a04" stroke-width="2" d="M695,-94C695,-94 384,-94 384,-94 378,-94 372,-88 372,-82 372,-82 372,-70 372,-70 372,-64 378,-58 384,-58 384,-58 695,-58 695,-58 701,-58 707,-64 707,-70 707,-70 707,-82 707,-82 707,-88 701,-94 695,-94"/>
<text text-anchor="middle" x="539.5" y="-73.2" font-family="Helvetica,sans-Serif" font-size="11.00">PreferencesHelper$PackagePreferences.bubblePreference</text>
</g>
<!-- __guard__ -->
<g id="node2" class="node">
<title>__guard__</title>
<path fill="#dcfce7" stroke="#16a34a" stroke-width="2" d="M188,-152C188,-152 56,-152 56,-152 50,-152 44,-146 44,-140 44,-140 44,-128 44,-128 44,-122 50,-116 56,-116 56,-116 188,-116 188,-116 194,-116 200,-122 200,-128 200,-128 200,-140 200,-140 200,-146 194,-152 188,-152"/>
<text text-anchor="middle" x="122" y="-131.2" font-family="Helvetica,sans-Serif" font-size="11.00">PreferencesHelper.mLock</text>
</g>
<!-- __guard__&#45;&gt;__field__ -->
<g id="edge1" class="edge">
<title>__guard__&#45;&gt;__field__</title>
<path fill="none" stroke="#16a34a" stroke-width="1.6" d="M200.18,-123.23C256.56,-115.36 334.51,-104.47 401.39,-95.14"/>
<polygon fill="#16a34a" stroke="#16a34a" stroke-width="1.6" points="401.95,-97.89 409.48,-94.01 401.17,-92.34 401.95,-97.89"/>
<text text-anchor="middle" x="308" y="-115.8" font-family="Helvetica,sans-Serif" font-size="9.00" fill="#15803d"> guards 2/3</text>
</g>
<!-- m::com.android.server.notification.PreferencesHelper.restorePackageLocked:(Lcom/android/modules/utils/TypedXmlPullParser;ZILjava/lang/String;ZZ)V -->
<g id="node3" class="node">
<title>m::com.android.server.notification.PreferencesHelper.restorePackageLocked:(Lcom/android/modules/utils/TypedXmlPullParser;ZILjava/lang/String;ZZ)V</title>
<path fill="#fee2e2" stroke="#dc2626" d="M232,-94C232,-94 12,-94 12,-94 6,-94 0,-88 0,-82 0,-82 0,-70 0,-70 0,-64 6,-58 12,-58 12,-58 232,-58 232,-58 238,-58 244,-64 244,-70 244,-70 244,-82 244,-82 244,-88 238,-94 232,-94"/>
<text text-anchor="middle" x="122" y="-73.2" font-family="Helvetica,sans-Serif" font-size="11.00">PreferencesHelper.restorePackageLocked</text>
</g>
<!-- m::com.android.server.notification.PreferencesHelper.restorePackageLocked:(Lcom/android/modules/utils/TypedXmlPullParser;ZILjava/lang/String;ZZ)V&#45;&gt;__field__ -->
<g id="edge2" class="edge">
<title>m::com.android.server.notification.PreferencesHelper.restorePackageLocked:(Lcom/android/modules/utils/TypedXmlPullParser;ZILjava/lang/String;ZZ)V&#45;&gt;__field__</title>
<path fill="none" stroke="#dc2626" d="M244.02,-76C281.41,-76 323.38,-76 363.65,-76"/>
<polygon fill="#dc2626" stroke="#dc2626" points="363.68,-78.8 371.68,-76 363.68,-73.2 363.68,-78.8"/>
<text text-anchor="middle" x="308" y="-78.8" font-family="Helvetica,sans-Serif" font-size="9.00" fill="#dc2626"> writes unguarded</text>
</g>
<!-- m::com.android.server.notification.PreferencesHelper.writePackageXml:(Lcom/android/server/notification/PreferencesHelper$PackagePreferences;Lcom/android/modules/utils/TypedXmlSerializer;Landroid/util/ArrayMap;Z)V -->
<g id="node4" class="node">
<title>m::com.android.server.notification.PreferencesHelper.writePackageXml:(Lcom/android/server/notification/PreferencesHelper$PackagePreferences;Lcom/android/modules/utils/TypedXmlSerializer;Landroid/util/ArrayMap;Z)V</title>
<path fill="#fee2e2" stroke="#dc2626" d="M217.5,-36C217.5,-36 26.5,-36 26.5,-36 20.5,-36 14.5,-30 14.5,-24 14.5,-24 14.5,-12 14.5,-12 14.5,-6 20.5,0 26.5,0 26.5,0 217.5,0 217.5,0 223.5,0 229.5,-6 229.5,-12 229.5,-12 229.5,-24 229.5,-24 229.5,-30 223.5,-36 217.5,-36"/>
<text text-anchor="middle" x="122" y="-15.2" font-family="Helvetica,sans-Serif" font-size="11.00">PreferencesHelper.writePackageXml</text>
</g>
<!-- m::com.android.server.notification.PreferencesHelper.writePackageXml:(Lcom/android/server/notification/PreferencesHelper$PackagePreferences;Lcom/android/modules/utils/TypedXmlSerializer;Landroid/util/ArrayMap;Z)V&#45;&gt;__field__ -->
<g id="edge3" class="edge">
<title>m::com.android.server.notification.PreferencesHelper.writePackageXml:(Lcom/android/server/notification/PreferencesHelper$PackagePreferences;Lcom/android/modules/utils/TypedXmlSerializer;Landroid/util/ArrayMap;Z)V&#45;&gt;__field__</title>
<path fill="none" stroke="#dc2626" d="M229.73,-32.9C281.98,-40.19 345.5,-49.06 401.31,-56.85"/>
<polygon fill="#dc2626" stroke="#dc2626" points="401.18,-59.66 409.49,-57.99 401.95,-54.11 401.18,-59.66"/>
<text text-anchor="middle" x="308" y="-50.8" font-family="Helvetica,sans-Serif" font-size="9.00" fill="#dc2626"> reads unguarded</text>
</g>
</g>
</svg>
