<?xml version="1.0" encoding="UTF-8" standalone="no"?>
<!DOCTYPE svg PUBLIC "-//W3C//DTD SVG 1.1//EN"
 "http://www.w3.org/Graphics/SVG/1.1/DTD/svg11.dtd">
<!-- Generated by graphviz version 2.43.0 (0)
 -->
<!-- Title: race Pages: 1 -->
<svg width="517pt" height="168pt"
 viewBox="0.00 0.00 517.00 168.00" xmlns="http://www.w3.org/2000/svg" xmlns:xlink="http://www.w3.org/1999/xlink">
<g id="graph0" class="graph" transform="scale(1 1) rotate(0) translate(4 164)">
<title>race</title>
<polygon fill="white" stroke="transparent" points="-4,4 -4,-164 513,-164 513,4 -4,4"/>
<!-- __field__ -->
<g id="node1" class="node">
<title>__field__</title>
<path fill="#fef9c3" stroke="#ca8a04" stroke-width="2" d="M497,-83C497,-83 419,-83 419,-83 413,-83 407,-77 407,-71 407,-71 407,-59 407,-59 407,-53 413,-47 419,-47 419,-47 497,-47 497,-47 503,-47 509,-53 509,-59 509,-59 509,-71 509,-71 509,-77 503,-83 497,-83"/>
<text text-anchor="middle" x="458" y="-62.2" font-family="Helvetica,sans-Serif" font-size="11.00">WaitResult.who</text>
</g>
<!-- __guard__ -->
<g id="node2" class="node">
<title>__guard__</title>
<path fill="#dcfce7" stroke="#16a34a" stroke-width="2" d="M250,-160C250,-160 29,-160 29,-160 23,-160 17,-154 17,-148 17,-148 17,-136 17,-136 17,-130 23,-124 29,-124 29,-124 250,-124 250,-124 256,-124 262,-130 262,-136 262,-136 262,-148 262,-148 262,-154 256,-160 250,-160"/>
<text text-anchor="middle" x="139.5" y="-139.2" font-family="Helvetica,sans-Serif" font-size="11.00">ActivityTaskManagerService.mGlobalLock</text>
</g>
<!-- __guard__&#45;&gt;__field__ -->
<g id="edge1" class="edge">
<title>__guard__&#45;&gt;__field__</title>
<path fill="none" stroke="#16a34a" stroke-width="1.6" d="M233.08,-123.97C279.05,-114.41 335.25,-101.79 385,-88 389.54,-86.74 394.22,-85.39 398.91,-83.98"/>
<polygon fill="#16a34a" stroke="#16a34a" stroke-width="1.6" points="399.95,-86.59 406.8,-81.59 398.33,-81.23 399.95,-86.59"/>
<text text-anchor="middle" x="343" y="-110.8" font-family="Helvetica,sans-Serif" font-size="9.00" fill="#15803d"> guards 2/3</text>
</g>
<!-- m::com.android.server.wm.ActivityTaskSupervisor.reportActivityLaunched:(ZLcom/android/server/wm/ActivityRecord;JI)V -->
<g id="node3" class="node">
<title>m::com.android.server.wm.ActivityTaskSupervisor.reportActivityLaunched:(ZLcom/android/server/wm/ActivityRecord;JI)V</title>
<path fill="#fee2e2" stroke="#dc2626" d="M263.5,-102C263.5,-102 15.5,-102 15.5,-102 9.5,-102 3.5,-96 3.5,-90 3.5,-90 3.5,-78 3.5,-78 3.5,-72 9.5,-66 15.5,-66 15.5,-66 263.5,-66 263.5,-66 269.5,-66 275.5,-72 275.5,-78 275.5,-78 275.5,-90 275.5,-90 275.5,-96 269.5,-102 263.5,-102"/>
<text text-anchor="middle" x="139.5" y="-81.2" font-family="Helvetica,sans-Serif" font-size="11.00">ActivityTaskSupervisor.reportActivityLaunched</text>
</g>
<!-- m::com.android.server.wm.ActivityTaskSupervisor.reportActivityLaunched:(ZLcom/android/server/wm/ActivityRecord;JI)V&#45;&gt;__field__ -->
<g id="edge2" class="edge">
<title>m::com.android.server.wm.ActivityTaskSupervisor.reportActivityLaunched:(ZLcom/android/server/wm/ActivityRecord;JI)V&#45;&gt;__field__</title>
<path fill="none" stroke="#dc2626" d="M275.64,-75.89C318.73,-73.3 364.15,-70.57 398.76,-68.5"/>
<polygon fill="#dc2626" stroke="#dc2626" points="399.05,-71.28 406.87,-68.01 398.71,-65.69 399.05,-71.28"/>
<text text-anchor="middle" x="343" y="-75.8" font-family="Helvetica,sans-Serif" font-size="9.00" fill="#dc2626"> writes unguarded</text>
</g>
<!-- m::com.android.server.am.ActivityManagerShellCommand.runStartActivity:(Ljava/io/PrintWriter;)I -->
<g id="node4" class="node">
<title>m::com.android.server.am.ActivityManagerShellCommand.runStartActivity:(Ljava/io/PrintWriter;)I</title>
<path fill="#fee2e2" stroke="#dc2626" d="M267,-36C267,-36 12,-36 12,-36 6,-36 0,-30 0,-24 0,-24 0,-12 0,-12 0,-6 6,0 12,0 12,0 267,0 267,0 273,0 279,-6 279,-12 279,-12 279,-24 279,-24 279,-30 273,-36 267,-36"/>
<text text-anchor="middle" x="139.5" y="-15.2" font-family="Helvetica,sans-Serif" font-size="11.00">ActivityManagerShellCommand.runStartActivity</text>
</g>
<!-- m::com.android.server.am.ActivityManagerShellCommand.runStartActivity:(Ljava/io/PrintWriter;)I&#45;&gt;__field__ -->
<g id="edge3" class="edge">
<title>m::com.android.server.am.ActivityManagerShellCommand.runStartActivity:(Ljava/io/PrintWriter;)I&#45;&gt;__field__</title>
<path fill="none" stroke="#dc2626" d="M263.96,-36.05C302.71,-41.75 345.65,-48.1 385,-54 389.38,-54.66 393.9,-55.34 398.45,-56.03"/>
<polygon fill="#dc2626" stroke="#dc2626" points="398.32,-58.84 406.65,-57.27 399.16,-53.3 398.32,-58.84"/>
<text text-anchor="middle" x="343" y="-56.8" font-family="Helvetica,sans-Serif" font-size="9.00" fill="#dc2626"> reads unguarded</text>
</g>
<!-- m::com.android.server.am.ActivityManagerShellCommand.runStartActivity:(Ljava/io/PrintWriter;)I&#45;&gt;__field__ -->
<g id="edge4" class="edge">
<title>m::com.android.server.am.ActivityManagerShellCommand.runStartActivity:(Ljava/io/PrintWriter;)I&#45;&gt;__field__</title>
<path fill="none" stroke="#dc2626" d="M279.23,-11.44C314.22,-12.8 351.39,-16.89 385,-26 398.29,-29.6 411.84,-36.06 423.54,-42.7"/>
<polygon fill="#dc2626" stroke="#dc2626" points="422.25,-45.2 430.57,-46.84 425.09,-40.37 422.25,-45.2"/>
<text text-anchor="middle" x="343" y="-28.8" font-family="Helvetica,sans-Serif" font-size="9.00" fill="#dc2626"> reads unguarded</text>
</g>
</g>
</svg>
