<?xml version="1.0" encoding="UTF-8" standalone="no"?>
<!DOCTYPE svg PUBLIC "-//W3C//DTD SVG 1.1//EN"
 "http://www.w3.org/Graphics/SVG/1.1/DTD/svg11.dtd">
<!-- Generated by graphviz version 2.43.0 (0)
 -->
<!-- Title: race Pages: 1 -->
<svg width="628pt" height="355pt"
 viewBox="0.00 0.00 628.00 354.94" xmlns="http://www.w3.org/2000/svg" xmlns:xlink="http://www.w3.org/1999/xlink">
<g id="graph0" class="graph" transform="scale(1 1) rotate(0) translate(4 350.94)">
<title>race</title>
<polygon fill="white" stroke="transparent" points="-4,4 -4,-350.94 624,-350.94 624,4 -4,4"/>
<!-- __field__ -->
<g id="node1" class="node">
<title>__field__</title>
<path fill="#fef9c3" stroke="#ca8a04" stroke-width="2" d="M608,-175.94C608,-175.94 513,-175.94 513,-175.94 507,-175.94 501,-169.94 501,-163.94 501,-163.94 501,-151.94 501,-151.94 501,-145.94 507,-139.94 513,-139.94 513,-139.94 608,-139.94 608,-139.94 614,-139.94 620,-145.94 620,-151.94 620,-151.94 620,-163.94 620,-163.94 620,-169.94 614,-175.94 608,-175.94"/>
<text text-anchor="middle" x="560.5" y="-155.14" font-family="Helvetica,sans-Serif" font-size="11.00">ResolveInfo.match</text>
</g>
<!-- __guard__ -->
<g id="node2" class="node">
<title>__guard__</title>
<path fill="#dcfce7" stroke="#16a34a" stroke-width="2" d="M289.5,-346.94C289.5,-346.94 83.5,-346.94 83.5,-346.94 77.5,-346.94 71.5,-340.94 71.5,-334.94 71.5,-334.94 71.5,-322.94 71.5,-322.94 71.5,-316.94 77.5,-310.94 83.5,-310.94 83.5,-310.94 289.5,-310.94 289.5,-310.94 295.5,-310.94 301.5,-316.94 301.5,-322.94 301.5,-322.94 301.5,-334.94 301.5,-334.94 301.5,-340.94 295.5,-346.94 289.5,-346.94"/>
<text text-anchor="middle" x="186.5" y="-326.14" font-family="Helvetica,sans-Serif" font-size="11.00">PackageManagerServiceInjector.mLock</text>
</g>
<!-- __guard__&#45;&gt;__field__ -->
<g id="edge1" class="edge">
<title>__guard__&#45;&gt;__field__</title>
<path fill="none" stroke="#16a34a" stroke-width="1.6" d="M301.55,-329.54C359.04,-324.82 427.33,-311.1 479,-275.94 512.59,-253.09 536.16,-211.16 548.77,-183.93"/>
<polygon fill="#16a34a" stroke="#16a34a" stroke-width="1.6" points="551.46,-184.78 552.19,-176.33 546.35,-182.48 551.46,-184.78"/>
<text text-anchor="middle" x="437" y="-314.74" font-family="Helvetica,sans-Serif" font-size="9.00" fill="#15803d"> guards 2/3</text>
</g>
<!-- m::com.android.server.pm.PackageManagerService.setUpInstantAppInstallerActivityLP:(Landroid/content/pm/ActivityInfo;)V -->
<g id="node3" class="node">
<title>m::com.android.server.pm.PackageManagerService.setUpInstantAppInstallerActivityLP:(Landroid/content/pm/ActivityInfo;)V</title>
<path fill="#fee2e2" stroke="#dc2626" d="M346.5,-288.94C346.5,-288.94 26.5,-288.94 26.5,-288.94 20.5,-288.94 14.5,-282.94 14.5,-276.94 14.5,-276.94 14.5,-264.94 14.5,-264.94 14.5,-258.94 20.5,-252.94 26.5,-252.94 26.5,-252.94 346.5,-252.94 346.5,-252.94 352.5,-252.94 358.5,-258.94 358.5,-264.94 358.5,-264.94 358.5,-276.94 358.5,-276.94 358.5,-282.94 352.5,-288.94 346.5,-288.94"/>
<text text-anchor="middle" x="186.5" y="-268.14" font-family="Helvetica,sans-Serif" font-size="11.00">PackageManagerService.setUpInstantAppInstallerActivityLP</text>
</g>
<!-- m::com.android.server.pm.PackageManagerService.setUpInstantAppInstallerActivityLP:(Landroid/content/pm/ActivityInfo;)V&#45;&gt;__field__ -->
<g id="edge2" class="edge">
<title>m::com.android.server.pm.PackageManagerService.setUpInstantAppInstallerActivityLP:(Landroid/content/pm/ActivityInfo;)V&#45;&gt;__field__</title>
<path fill="none" stroke="#dc2626" d="M358.75,-268.14C399.59,-262.57 442.03,-252.49 479,-234.94 504.21,-222.98 526.57,-200.05 541.29,-182.3"/>
<polygon fill="#dc2626" stroke="#dc2626" points="543.51,-184.01 546.36,-176.03 539.15,-180.5 543.51,-184.01"/>
<text text-anchor="middle" x="437" y="-263.74" font-family="Helvetica,sans-Serif" font-size="9.00" fill="#dc2626"> writes unguarded</text>
</g>
<!-- m::com.android.server.pm.ComputerEngine.findPreferredActivityBody:(Landroid/content/Intent;Ljava/lang/String;JLjava/util/List;ZZZIZIZ)Lcom/android/server/pm/PackageManagerService$FindPreferredActivityBodyResult; -->
<g id="node4" class="node">
<title>m::com.android.server.pm.ComputerEngine.findPreferredActivityBody:(Landroid/content/Intent;Ljava/lang/String;JLjava/util/List;ZZZIZIZ)Lcom/android/server/pm/PackageManagerService$FindPreferredActivityBodyResult;</title>
<path fill="#fee2e2" stroke="#dc2626" d="M300.5,-230.94C300.5,-230.94 72.5,-230.94 72.5,-230.94 66.5,-230.94 60.5,-224.94 60.5,-218.94 60.5,-218.94 60.5,-206.94 60.5,-206.94 60.5,-200.94 66.5,-194.94 72.5,-194.94 72.5,-194.94 300.5,-194.94 300.5,-194.94 306.5,-194.94 312.5,-200.94 312.5,-206.94 312.5,-206.94 312.5,-218.94 312.5,-218.94 312.5,-224.94 306.5,-230.94 300.5,-230.94"/>
<text text-anchor="middle" x="186.5" y="-210.14" font-family="Helvetica,sans-Serif" font-size="11.00">ComputerEngine.findPreferredActivityBody</text>
</g>
<!-- m::com.android.server.pm.ComputerEngine.findPreferredActivityBody:(Landroid/content/Intent;Ljava/lang/String;JLjava/util/List;ZZZIZIZ)Lcom/android/server/pm/PackageManagerService$FindPreferredActivityBodyResult;&#45;&gt;__field__ -->
<g id="edge3" class="edge">
<title>m::com.android.server.pm.ComputerEngine.findPreferredActivityBody:(Landroid/content/Intent;Ljava/lang/String;JLjava/util/List;ZZZIZIZ)Lcom/android/server/pm/PackageManagerService$FindPreferredActivityBodyResult;&#45;&gt;__field__</title>
<path fill="none" stroke="#dc2626" d="M312.66,-223.79C364.99,-224.79 425.86,-221.27 479,-205.94 497,-200.75 515.1,-190.52 529.56,-180.83"/>
<polygon fill="#dc2626" stroke="#dc2626" points="531.36,-182.99 536.35,-176.14 528.18,-178.38 531.36,-182.99"/>
<text text-anchor="middle" x="437" y="-222.74" font-family="Helvetica,sans-Serif" font-size="9.00" fill="#dc2626"> reads unguarded</text>
</g>
<!-- m::com.android.server.pm.ComputerEngine.findPreferredActivityBody:(Landroid/content/Intent;Ljava/lang/String;JLjava/util/List;ZZZIZIZ)Lcom/android/server/pm/PackageManagerService$FindPreferredActivityBodyResult;&#45;&gt;__field__ -->
<g id="edge4" class="edge">
<title>m::com.android.server.pm.ComputerEngine.findPreferredActivityBody:(Landroid/content/Intent;Ljava/lang/String;JLjava/util/List;ZZZIZIZ)Lcom/android/server/pm/PackageManagerService$FindPreferredActivityBodyResult;&#45;&gt;__field__</title>
<path fill="none" stroke="#dc2626" d="M309.31,-194.94C370.35,-185.91 441.91,-175.33 492.83,-167.8"/>
<polygon fill="#dc2626" stroke="#dc2626" points="493.31,-170.56 500.82,-166.62 492.49,-165.02 493.31,-170.56"/>
<text text-anchor="middle" x="437" y="-184.74" font-family="Helvetica,sans-Serif" font-size="9.00" fill="#dc2626"> reads unguarded</text>
</g>
<!-- m::com.android.server.pm.PackageManagerShellCommand.printResolveInfo:(Landroid/util/PrintWriterPrinter;Ljava/lang/String;Landroid/content/pm/ResolveInfo;ZZ)V -->
<g id="node5" class="node">
<title>m::com.android.server.pm.PackageManagerShellCommand.printResolveInfo:(Landroid/util/PrintWriterPrinter;Ljava/lang/String;Landroid/content/pm/ResolveInfo;ZZ)V</title>
<path fill="#fee2e2" stroke="#dc2626" d="M316.5,-172.94C316.5,-172.94 56.5,-172.94 56.5,-172.94 50.5,-172.94 44.5,-166.94 44.5,-160.94 44.5,-160.94 44.5,-148.94 44.5,-148.94 44.5,-142.94 50.5,-136.94 56.5,-136.94 56.5,-136.94 316.5,-136.94 316.5,-136.94 322.5,-136.94 328.5,-142.94 328.5,-148.94 328.5,-148.94 328.5,-160.94 328.5,-160.94 328.5,-166.94 322.5,-172.94 316.5,-172.94"/>
<text text-anchor="middle" x="186.5" y="-152.14" font-family="Helvetica,sans-Serif" font-size="11.00">PackageManagerShellCommand.printResolveInfo</text>
</g>
<!-- m::com.android.server.pm.PackageManagerShellCommand.printResolveInfo:(Landroid/util/PrintWriterPrinter;Ljava/lang/String;Landroid/content/pm/ResolveInfo;ZZ)V&#45;&gt;__field__ -->
<g id="edge5" class="edge">
<title>m::com.android.server.pm.PackageManagerShellCommand.printResolveInfo:(Landroid/util/PrintWriterPrinter;Ljava/lang/String;Landroid/content/pm/ResolveInfo;ZZ)V&#45;&gt;__field__</title>
<path fill="none" stroke="#dc2626" d="M328.67,-156.08C384.9,-156.54 446.94,-157.04 492.53,-157.4"/>
<polygon fill="#dc2626" stroke="#dc2626" points="492.54,-160.2 500.56,-157.47 492.58,-154.6 492.54,-160.2"/>
<text text-anchor="middle" x="437" y="-159.74" font-family="Helvetica,sans-Serif" font-size="9.00" fill="#dc2626"> reads unguarded</text>
</g>
<!-- m::com.android.server.pm.Settings.applyDefaultPreferredActivityLPw:(Landroid/content/pm/PackageManagerInternal;Landroid/content/Intent;ILandroid/content/ComponentName;Ljava/lang/String;Landroid/os/PatternMatcher;Landroid/content/IntentFilter$AuthorityEntry;Landroid/os/PatternMatcher;I)V -->
<g id="node6" class="node">
<title>m::com.android.server.pm.Settings.applyDefaultPreferredActivityLPw:(Landroid/content/pm/PackageManagerInternal;Landroid/content/Intent;ILandroid/content/ComponentName;Ljava/lang/String;Landroid/os/PatternMatcher;Landroid/content/IntentFilter$AuthorityEntry;Landroid/os/PatternMatcher;I)V</title>
<path fill="#fee2e2" stroke="#dc2626" d="M299.5,-109.94C299.5,-109.94 73.5,-109.94 73.5,-109.94 67.5,-109.94 61.5,-103.94 61.5,-97.94 61.5,-97.94 61.5,-85.94 61.5,-85.94 61.5,-79.94 67.5,-73.94 73.5,-73.94 73.5,-73.94 299.5,-73.94 299.5,-73.94 305.5,-73.94 311.5,-79.94 311.5,-85.94 311.5,-85.94 311.5,-97.94 311.5,-97.94 311.5,-103.94 305.5,-109.94 299.5,-109.94"/>
<text text-anchor="middle" x="186.5" y="-89.14" font-family="Helvetica,sans-Serif" font-size="11.00">Settings.applyDefaultPreferredActivityLPw</text>
</g>
<!-- m::com.android.server.pm.Settings.applyDefaultPreferredActivityLPw:(Landroid/content/pm/PackageManagerInternal;Landroid/content/Intent;ILandroid/content/ComponentName;Ljava/lang/String;Landroid/os/PatternMatcher;Landroid/content/IntentFilter$AuthorityEntry;Landroid/os/PatternMatcher;I)V&#45;&gt;__field__ -->
<g id="edge6" class="edge">
<title>m::com.android.server.pm.Settings.applyDefaultPreferredActivityLPw:(Landroid/content/pm/PackageManagerInternal;Landroid/content/Intent;ILandroid/content/ComponentName;Ljava/lang/String;Landroid/os/PatternMatcher;Landroid/content/IntentFilter$AuthorityEntry;Landroid/os/PatternMatcher;I)V&#45;&gt;__field__</title>
<path fill="none" stroke="#dc2626" d="M301.56,-109.99C355.46,-118.81 420.64,-129.88 479,-140.94 483.5,-141.8 488.13,-142.7 492.79,-143.63"/>
<polygon fill="#dc2626" stroke="#dc2626" points="492.25,-146.38 500.64,-145.22 493.36,-140.89 492.25,-146.38"/>
<text text-anchor="middle" x="437" y="-143.74" font-family="Helvetica,sans-Serif" font-size="9.00" fill="#dc2626"> reads unguarded</text>
</g>
<!-- m::com.android.server.pm.Settings.applyDefaultPreferredActivityLPw:(Landroid/content/pm/PackageManagerInternal;Landroid/content/Intent;ILandroid/content/ComponentName;Ljava/lang/String;Landroid/os/PatternMatcher;Landroid/content/IntentFilter$AuthorityEntry;Landroid/os/PatternMatcher;I)V&#45;&gt;__field__ -->
<g id="edge7" class="edge">
<title>m::com.android.server.pm.Settings.applyDefaultPreferredActivityLPw:(Landroid/content/pm/PackageManagerInternal;Landroid/content/Intent;ILandroid/content/ComponentName;Ljava/lang/String;Landroid/os/PatternMatcher;Landroid/content/IntentFilter$AuthorityEntry;Landroid/os/PatternMatcher;I)V&#45;&gt;__field__</title>
<path fill="none" stroke="#dc2626" d="M311.74,-87.52C364.33,-88.83 425.65,-94.63 479,-110.94 496.56,-116.31 514.36,-126.15 528.74,-135.45"/>
<polygon fill="#dc2626" stroke="#dc2626" points="527.3,-137.85 535.51,-139.94 530.4,-133.18 527.3,-137.85"/>
<text text-anchor="middle" x="437" y="-113.74" font-family="Helvetica,sans-Serif" font-size="9.00" fill="#dc2626"> reads unguarded</text>
</g>
<!-- m::com.android.server.pm.resolution.ComponentResolver.$r8$lambda$UVMyfxjaimXrgxK&#45;y9k5NRVVfkI:(Landroid/content/pm/ResolveInfo;Landroid/content/pm/ResolveInfo;)I -->
<g id="node7" class="node">
<title>m::com.android.server.pm.resolution.ComponentResolver.$r8$lambda$UVMyfxjaimXrgxK&#45;y9k5NRVVfkI:(Landroid/content/pm/ResolveInfo;Landroid/content/pm/ResolveInfo;)I</title>
<path fill="#fee2e2" stroke="#dc2626" d="M361,-38.94C361,-38.94 12,-38.94 12,-38.94 6,-38.94 0,-32.94 0,-26.94 0,-26.94 0,-14.94 0,-14.94 0,-8.94 6,-2.94 12,-2.94 12,-2.94 361,-2.94 361,-2.94 367,-2.94 373,-8.94 373,-14.94 373,-14.94 373,-26.94 373,-26.94 373,-32.94 367,-38.94 361,-38.94"/>
<text text-anchor="middle" x="186.5" y="-18.14" font-family="Helvetica,sans-Serif" font-size="11.00">ComponentResolver.$r8$lambda$UVMyfxjaimXrgxK&#45;y9k5NRVVfkI</text>
</g>
<!-- m::com.android.server.pm.resolution.ComponentResolver.$r8$lambda$UVMyfxjaimXrgxK&#45;y9k5NRVVfkI:(Landroid/content/pm/ResolveInfo;Landroid/content/pm/ResolveInfo;)I&#45;&gt;__field__ -->
<g id="edge8" class="edge">
<title>m::com.android.server.pm.resolution.ComponentResolver.$r8$lambda$UVMyfxjaimXrgxK&#45;y9k5NRVVfkI:(Landroid/content/pm/ResolveInfo;Landroid/content/pm/ResolveInfo;)I&#45;&gt;__field__</title>
<path fill="none" stroke="#dc2626" d="M363.46,-38.96C402.98,-47.57 443.64,-60.26 479,-78.94 503.98,-92.15 526.37,-115.56 541.16,-133.48"/>
<polygon fill="#dc2626" stroke="#dc2626" points="539.05,-135.33 546.25,-139.81 543.42,-131.82 539.05,-135.33"/>
<text text-anchor="middle" x="437" y="-81.74" font-family="Helvetica,sans-Serif" font-size="9.00" fill="#dc2626"> reads unguarded</text>
</g>
<!-- m::com.android.server.pm.resolution.ComponentResolver.$r8$lambda$UVMyfxjaimXrgxK&#45;y9k5NRVVfkI:(Landroid/content/pm/ResolveInfo;Landroid/content/pm/ResolveInfo;)I&#45;&gt;__field__ -->
<g id="edge9" class="edge">
<title>m::com.android.server.pm.resolution.ComponentResolver.$r8$lambda$UVMyfxjaimXrgxK&#45;y9k5NRVVfkI:(Landroid/content/pm/ResolveInfo;Landroid/content/pm/ResolveInfo;)I&#45;&gt;__field__</title>
<path fill="none" stroke="#dc2626" d="M284.23,-2.94C344.15,3.19 420.55,1.52 479,-31.94 517.26,-53.85 540.18,-102.14 551.28,-132.17"/>
<polygon fill="#dc2626" stroke="#dc2626" points="548.66,-133.15 553.98,-139.75 553.93,-131.27 548.66,-133.15"/>
<text text-anchor="middle" x="437" y="-34.74" font-family="Helvetica,sans-Serif" font-size="9.00" fill="#dc2626"> reads unguarded</text>
</g>
</g>
</svg>
