<?xml version="1.0" encoding="UTF-8" standalone="no"?>
<!DOCTYPE svg PUBLIC "-//W3C//DTD SVG 1.1//EN"
 "http://www.w3.org/Graphics/SVG/1.1/DTD/svg11.dtd">
<!-- Generated by graphviz version 2.43.0 (0)
 -->
<!-- Title: race Pages: 1 -->
<svg width="751pt" height="102pt"
 viewBox="0.00 0.00 751.00 102.00" xmlns="http://www.w3.org/2000/svg" xmlns:xlink="http://www.w3.org/1999/xlink">
<g id="graph0" class="graph" transform="scale(1 1) rotate(0) translate(4 98)">
<title>race</title>
<polygon fill="white" stroke="transparent" points="-4,4 -4,-98 747,-98 747,4 -4,4"/>
<!-- __field__ -->
<g id="node1" class="node">
<title>__field__</title>
<path fill="#fef9c3" stroke="#ca8a04" stroke-width="2" d="M731,-65C731,-65 499,-65 499,-65 493,-65 487,-59 487,-53 487,-53 487,-41 487,-41 487,-35 493,-29 499,-29 499,-29 731,-29 731,-29 737,-29 743,-35 743,-41 743,-41 743,-53 743,-53 743,-59 737,-65 731,-65"/>
<text text-anchor="middle" x="615" y="-44.2" font-family="Helvetica,sans-Serif" font-size="11.00">UserBackupManagerService.mClearingData</text>
</g>
<!-- __guard__ -->
<g id="node2" class="node">
<title>__guard__</title>
<path fill="#dcfce7" stroke="#16a34a" stroke-width="2" d="M299.5,-94C299.5,-94 59.5,-94 59.5,-94 53.5,-94 47.5,-88 47.5,-82 47.5,-82 47.5,-70 47.5,-70 47.5,-64 53.5,-58 59.5,-58 59.5,-58 299.5,-58 299.5,-58 305.5,-58 311.5,-64 311.5,-70 311.5,-70 311.5,-82 311.5,-82 311.5,-88 305.5,-94 299.5,-94"/>
<text text-anchor="middle" x="179.5" y="-73.2" font-family="Helvetica,sans-Serif" font-size="11.00">UserBackupManagerService.mClearDataLock</text>
</g>
<!-- __guard__&#45;&gt;__field__ -->
<g id="edge1" class="edge">
<title>__guard__&#45;&gt;__field__</title>
<path fill="none" stroke="#16a34a" stroke-width="1.6" d="M311.74,-67.22C364.6,-63.68 425.54,-59.61 478.79,-56.05"/>
<polygon fill="#16a34a" stroke="#16a34a" stroke-width="1.6" points="479.13,-58.83 486.93,-55.5 478.76,-53.24 479.13,-58.83"/>
<text text-anchor="middle" x="423" y="-64.8" font-family="Helvetica,sans-Serif" font-size="9.00" fill="#15803d"> guards 2/3</text>
</g>
<!-- m::com.android.server.backup.UserBackupManagerService.clearApplicationDataSynchronous:(Ljava/lang/String;ZZ)V -->
<g id="node3" class="node">
<title>m::com.android.server.backup.UserBackupManagerService.clearApplicationDataSynchronous:(Ljava/lang/String;ZZ)V</title>
<path fill="#fee2e2" stroke="#dc2626" d="M347,-36C347,-36 12,-36 12,-36 6,-36 0,-30 0,-24 0,-24 0,-12 0,-12 0,-6 6,0 12,0 12,0 347,0 347,0 353,0 359,-6 359,-12 359,-12 359,-24 359,-24 359,-30 353,-36 347,-36"/>
<text text-anchor="middle" x="179.5" y="-15.2" font-family="Helvetica,sans-Serif" font-size="11.00">UserBackupManagerService.clearApplicationDataSynchronous</text>
</g>
<!-- m::com.android.server.backup.UserBackupManagerService.clearApplicationDataSynchronous:(Ljava/lang/String;ZZ)V&#45;&gt;__field__ -->
<g id="edge2" class="edge">
<title>m::com.android.server.backup.UserBackupManagerService.clearApplicationDataSynchronous:(Ljava/lang/String;ZZ)V&#45;&gt;__field__</title>
<path fill="none" stroke="#dc2626" d="M359.01,-29.94C398.99,-32.62 440.76,-35.41 478.66,-37.95"/>
<polygon fill="#dc2626" stroke="#dc2626" points="478.51,-40.74 486.68,-38.48 478.88,-35.15 478.51,-40.74"/>
<text text-anchor="middle" x="423" y="-38.8" font-family="Helvetica,sans-Serif" font-size="9.00" fill="#dc2626"> writes unguarded</text>
</g>
</g>
</svg>
