<?xml version="1.0" encoding="UTF-8" standalone="no"?>
<!DOCTYPE svg PUBLIC "-//W3C//DTD SVG 1.1//EN"
 "http://www.w3.org/Graphics/SVG/1.1/DTD/svg11.dtd">
<!-- Generated by graphviz version 2.43.0 (0)
 -->
<!-- Title: race Pages: 1 -->
<svg width="788pt" height="160pt"
 viewBox="0.00 0.00 788.00 160.00" xmlns="http://www.w3.org/2000/svg" xmlns:xlink="http://www.w3.org/1999/xlink">
<g id="graph0" class="graph" transform="scale(1 1) rotate(0) translate(4 156)">
<title>race</title>
<polygon fill="white" stroke="transparent" points="-4,4 -4,-156 784,-156 784,4 -4,4"/>
<!-- __field__ -->
<g id="node1" class="node">
<title>__field__</title>
<path fill="#fef9c3" stroke="#ca8a04" stroke-width="2" d="M768,-94C768,-94 478,-94 478,-94 472,-94 466,-88 466,-82 466,-82 466,-70 466,-70 466,-64 472,-58 478,-58 478,-58 768,-58 768,-58 774,-58 780,-64 780,-70 780,-70 780,-82 780,-82 780,-88 774,-94 768,-94"/>
<text text-anchor="middle" x="623" y="-73.2" font-family="Helvetica,sans-Serif" font-size="11.00">BackupAgentConnectionManager.mCurrentConnection</text>
</g>
<!-- __guard__ -->
<g id="node2" class="node">
<title>__guard__</title>
<path fill="#dcfce7" stroke="#16a34a" stroke-width="2" d="M314,-152C314,-152 24,-152 24,-152 18,-152 12,-146 12,-140 12,-140 12,-128 12,-128 12,-122 18,-116 24,-116 24,-116 314,-116 314,-116 320,-116 326,-122 326,-128 326,-128 326,-140 326,-140 326,-146 320,-152 314,-152"/>
<text text-anchor="middle" x="169" y="-131.2" font-family="Helvetica,sans-Serif" font-size="11.00">BackupAgentConnectionManager.mAgentConnectLock</text>
</g>
<!-- __guard__&#45;&gt;__field__ -->
<g id="edge1" class="edge">
<title>__guard__&#45;&gt;__field__</title>
<path fill="none" stroke="#16a34a" stroke-width="1.6" d="M310.54,-115.97C362.3,-109.32 421.08,-101.78 473.52,-95.05"/>
<polygon fill="#16a34a" stroke="#16a34a" stroke-width="1.6" points="473.97,-97.82 481.55,-94.02 473.26,-92.26 473.97,-97.82"/>
<text text-anchor="middle" x="402" y="-110.8" font-family="Helvetica,sans-Serif" font-size="9.00" fill="#15803d"> guards 5/6</text>
</g>
<!-- m::com.android.server.backup.BackupAgentConnectionManager.bindToAgentSynchronous:(Landroid/content/pm/ApplicationInfo;II)Landroid/app/IBackupAgent; -->
<g id="node3" class="node">
<title>m::com.android.server.backup.BackupAgentConnectionManager.bindToAgentSynchronous:(Landroid/content/pm/ApplicationInfo;II)Landroid/app/IBackupAgent;</title>
<path fill="#fee2e2" stroke="#dc2626" d="M326,-94C326,-94 12,-94 12,-94 6,-94 0,-88 0,-82 0,-82 0,-70 0,-70 0,-64 6,-58 12,-58 12,-58 326,-58 326,-58 332,-58 338,-64 338,-70 338,-70 338,-82 338,-82 338,-88 332,-94 326,-94"/>
<text text-anchor="middle" x="169" y="-73.2" font-family="Helvetica,sans-Serif" font-size="11.00">BackupAgentConnectionManager.bindToAgentSynchronous</text>
</g>
<!-- m::com.android.server.backup.BackupAgentConnectionManager.bindToAgentSynchronous:(Landroid/content/pm/ApplicationInfo;II)Landroid/app/IBackupAgent;&#45;&gt;__field__ -->
<g id="edge2" class="edge">
<title>m::com.android.server.backup.BackupAgentConnectionManager.bindToAgentSynchronous:(Landroid/content/pm/ApplicationInfo;II)Landroid/app/IBackupAgent;&#45;&gt;__field__</title>
<path fill="none" stroke="#dc2626" d="M338.31,-76C377.32,-76 418.8,-76 457.64,-76"/>
<polygon fill="#dc2626" stroke="#dc2626" points="457.89,-78.8 465.89,-76 457.89,-73.2 457.89,-78.8"/>
<text text-anchor="middle" x="402" y="-78.8" font-family="Helvetica,sans-Serif" font-size="9.00" fill="#dc2626"> writes unguarded</text>
</g>
<!-- m::com.android.server.backup.BackupAgentConnectionManager.shouldKillAppOnUnbind:(Landroid/content/pm/ApplicationInfo;)Z -->
<g id="node4" class="node">
<title>m::com.android.server.backup.BackupAgentConnectionManager.shouldKillAppOnUnbind:(Landroid/content/pm/ApplicationInfo;)Z</title>
<path fill="#fee2e2" stroke="#dc2626" d="M321.5,-36C321.5,-36 16.5,-36 16.5,-36 10.5,-36 4.5,-30 4.5,-24 4.5,-24 4.5,-12 4.5,-12 4.5,-6 10.5,0 16.5,0 16.5,0 321.5,0 321.5,0 327.5,0 333.5,-6 333.5,-12 333.5,-12 333.5,-24 333.5,-24 333.5,-30 327.5,-36 321.5,-36"/>
<text text-anchor="middle" x="169" y="-15.2" font-family="Helvetica,sans-Serif" font-size="11.00">BackupAgentConnectionManager.shouldKillAppOnUnbind</text>
</g>
<!-- m::com.android.server.backup.BackupAgentConnectionManager.shouldKillAppOnUnbind:(Landroid/content/pm/ApplicationInfo;)Z&#45;&gt;__field__ -->
<g id="edge3" class="edge">
<title>m::com.android.server.backup.BackupAgentConnectionManager.shouldKillAppOnUnbind:(Landroid/content/pm/ApplicationInfo;)Z&#45;&gt;__field__</title>
<path fill="none" stroke="#dc2626" d="M310.54,-36.03C362.3,-42.68 421.08,-50.22 473.52,-56.95"/>
<polygon fill="#dc2626" stroke="#dc2626" points="473.26,-59.74 481.55,-57.98 473.97,-54.18 473.26,-59.74"/>
<text text-anchor="middle" x="402" y="-54.8" font-family="Helvetica,sans-Serif" font-size="9.00" fill="#dc2626"> reads unguarded</text>
</g>
</g>
</svg>
