<?xml version="1.0" encoding="UTF-8" standalone="no"?>
<!DOCTYPE svg PUBLIC "-//W3C//DTD SVG 1.1//EN"
 "http://www.w3.org/Graphics/SVG/1.1/DTD/svg11.dtd">
<!-- Generated by graphviz version 2.43.0 (0)
 -->
<!-- Title: race Pages: 1 -->
<svg width="564pt" height="160pt"
 viewBox="0.00 0.00 564.00 160.00" xmlns="http://www.w3.org/2000/svg" xmlns:xlink="http://www.w3.org/1999/xlink">
<g id="graph0" class="graph" transform="scale(1 1) rotate(0) translate(4 156)">
<title>race</title>
<polygon fill="white" stroke="transparent" points="-4,4 -4,-156 560,-156 560,4 -4,4"/>
<!-- __field__ -->
<g id="node1" class="node">
<title>__field__</title>
<path fill="#fef9c3" stroke="#ca8a04" stroke-width="2" d="M544,-94C544,-94 346,-94 346,-94 340,-94 334,-88 334,-82 334,-82 334,-70 334,-70 334,-64 340,-58 346,-58 346,-58 544,-58 544,-58 550,-58 556,-64 556,-70 556,-70 556,-82 556,-82 556,-88 550,-94 544,-94"/>
<text text-anchor="middle" x="445" y="-73.2" font-family="Helvetica,sans-Serif" font-size="11.00">SpatializerHelper.mCapableSpatLevel</text>
</g>
<!-- __guard__ -->
<g id="node2" class="node">
<title>__guard__</title>
<path fill="#dcfce7" stroke="#16a34a" stroke-width="2" d="M163,-152C163,-152 43,-152 43,-152 37,-152 31,-146 31,-140 31,-140 31,-128 31,-128 31,-122 37,-116 43,-116 43,-116 163,-116 163,-116 169,-116 175,-122 175,-128 175,-128 175,-140 175,-140 175,-146 169,-152 163,-152"/>
<text text-anchor="middle" x="103" y="-131.2" font-family="Helvetica,sans-Serif" font-size="11.00">audio.SpatializerHelper</text>
</g>
<!-- __guard__&#45;&gt;__field__ -->
<g id="edge1" class="edge">
<title>__guard__&#45;&gt;__field__</title>
<path fill="none" stroke="#16a34a" stroke-width="1.6" d="M175.28,-121.84C220.1,-114.2 278.93,-104.16 330.12,-95.43"/>
<polygon fill="#16a34a" stroke="#16a34a" stroke-width="1.6" points="330.85,-98.14 338.27,-94.04 329.91,-92.62 330.85,-98.14"/>
<text text-anchor="middle" x="270" y="-113.8" font-family="Helvetica,sans-Serif" font-size="9.00" fill="#15803d"> guards 2/3</text>
</g>
<!-- m::com.android.server.audio.SpatializerHelper.resetCapabilities:()V -->
<g id="node3" class="node">
<title>m::com.android.server.audio.SpatializerHelper.resetCapabilities:()V</title>
<path fill="#fee2e2" stroke="#dc2626" d="M194,-94C194,-94 12,-94 12,-94 6,-94 0,-88 0,-82 0,-82 0,-70 0,-70 0,-64 6,-58 12,-58 12,-58 194,-58 194,-58 200,-58 206,-64 206,-70 206,-70 206,-82 206,-82 206,-88 200,-94 194,-94"/>
<text text-anchor="middle" x="103" y="-73.2" font-family="Helvetica,sans-Serif" font-size="11.00">SpatializerHelper.resetCapabilities</text>
</g>
<!-- m::com.android.server.audio.SpatializerHelper.resetCapabilities:()V&#45;&gt;__field__ -->
<g id="edge2" class="edge">
<title>m::com.android.server.audio.SpatializerHelper.resetCapabilities:()V&#45;&gt;__field__</title>
<path fill="none" stroke="#dc2626" d="M206.01,-76C243.63,-76 286.57,-76 325.52,-76"/>
<polygon fill="#dc2626" stroke="#dc2626" points="325.77,-78.8 333.77,-76 325.77,-73.2 325.77,-78.8"/>
<text text-anchor="middle" x="270" y="-78.8" font-family="Helvetica,sans-Serif" font-size="9.00" fill="#dc2626"> writes unguarded</text>
</g>
<!-- m::com.android.server.audio.SpatializerHelper.dump:(Ljava/io/PrintWriter;)V -->
<g id="node4" class="node">
<title>m::com.android.server.audio.SpatializerHelper.dump:(Ljava/io/PrintWriter;)V</title>
<path fill="#fee2e2" stroke="#dc2626" d="M163,-36C163,-36 43,-36 43,-36 37,-36 31,-30 31,-24 31,-24 31,-12 31,-12 31,-6 37,0 43,0 43,0 163,0 163,0 169,0 175,-6 175,-12 175,-12 175,-24 175,-24 175,-30 169,-36 163,-36"/>
<text text-anchor="middle" x="103" y="-15.2" font-family="Helvetica,sans-Serif" font-size="11.00">SpatializerHelper.dump</text>
</g>
<!-- m::com.android.server.audio.SpatializerHelper.dump:(Ljava/io/PrintWriter;)V&#45;&gt;__field__ -->
<g id="edge3" class="edge">
<title>m::com.android.server.audio.SpatializerHelper.dump:(Ljava/io/PrintWriter;)V&#45;&gt;__field__</title>
<path fill="none" stroke="#dc2626" d="M175.28,-30.16C220.1,-37.8 278.93,-47.84 330.12,-56.57"/>
<polygon fill="#dc2626" stroke="#dc2626" points="329.91,-59.38 338.27,-57.96 330.85,-53.86 329.91,-59.38"/>
<text text-anchor="middle" x="270" y="-54.8" font-family="Helvetica,sans-Serif" font-size="9.00" fill="#dc2626"> reads unguarded</text>
</g>
</g>
</svg>
