<?xml version="1.0" encoding="UTF-8" standalone="no"?>
<!DOCTYPE svg PUBLIC "-//W3C//DTD SVG 1.1//EN"
 "http://www.w3.org/Graphics/SVG/1.1/DTD/svg11.dtd">
<!-- Generated by graphviz version 2.43.0 (0)
 -->
<!-- Title: race Pages: 1 -->
<svg width="654pt" height="242pt"
 viewBox="0.00 0.00 654.00 242.00" xmlns="http://www.w3.org/2000/svg" xmlns:xlink="http://www.w3.org/1999/xlink">
<g id="graph0" class="graph" transform="scale(1 1) rotate(0) translate(4 238)">
<title>race</title>
<polygon fill="white" stroke="transparent" points="-4,4 -4,-238 650,-238 650,4 -4,4"/>
<!-- __field__ -->
<g id="node1" class="node">
<title>__field__</title>
<path fill="#fef9c3" stroke="#ca8a04" stroke-width="2" d="M634,-120C634,-120 447,-120 447,-120 441,-120 435,-114 435,-108 435,-108 435,-96 435,-96 435,-90 441,-84 447,-84 447,-84 634,-84 634,-84 640,-84 646,-90 646,-96 646,-96 646,-108 646,-108 646,-114 640,-120 634,-120"/>
<text text-anchor="middle" x="540.5" y="-99.2" font-family="Helvetica,sans-Serif" font-size="11.00">ActiveAdmin.mEnrollmentSpecificId</text>
</g>
<!-- __guard__ -->
<g id="node2" class="node">
<title>__guard__</title>
<path fill="#dcfce7" stroke="#16a34a" stroke-width="2" d="M295,-234C295,-234 12,-234 12,-234 6,-234 0,-228 0,-222 0,-222 0,-210 0,-210 0,-204 6,-198 12,-198 12,-198 295,-198 295,-198 301,-198 307,-204 307,-210 307,-210 307,-222 307,-222 307,-228 301,-234 295,-234"/>
<text text-anchor="middle" x="153.5" y="-213.2" font-family="Helvetica,sans-Serif" font-size="11.00">DevicePolicyManagerService.mLockDoNoUseDirectly</text>
</g>
<!-- __guard__&#45;&gt;__field__ -->
<g id="edge1" class="edge">
<title>__guard__&#45;&gt;__field__</title>
<path fill="none" stroke="#16a34a" stroke-width="1.6" d="M261.25,-197.99C276.69,-194.72 292.32,-191.05 307,-187 370.97,-169.35 442.35,-142.07 488.94,-123.2"/>
<polygon fill="#16a34a" stroke="#16a34a" stroke-width="1.6" points="490.12,-125.74 496.48,-120.13 488.01,-120.55 490.12,-125.74"/>
<text text-anchor="middle" x="371" y="-181.8" font-family="Helvetica,sans-Serif" font-size="9.00" fill="#15803d"> guards 2/3</text>
</g>
<!-- m::com.android.server.devicepolicy.ActiveAdmin.readFromXml:(Lcom/android/modules/utils/TypedXmlPullParser;Z)V -->
<g id="node3" class="node">
<title>m::com.android.server.devicepolicy.ActiveAdmin.readFromXml:(Lcom/android/modules/utils/TypedXmlPullParser;Z)V</title>
<path fill="#fee2e2" stroke="#dc2626" d="M222.5,-176C222.5,-176 84.5,-176 84.5,-176 78.5,-176 72.5,-170 72.5,-164 72.5,-164 72.5,-152 72.5,-152 72.5,-146 78.5,-140 84.5,-140 84.5,-140 222.5,-140 222.5,-140 228.5,-140 234.5,-146 234.5,-152 234.5,-152 234.5,-164 234.5,-164 234.5,-170 228.5,-176 222.5,-176"/>
<text text-anchor="middle" x="153.5" y="-155.2" font-family="Helvetica,sans-Serif" font-size="11.00">ActiveAdmin.readFromXml</text>
</g>
<!-- m::com.android.server.devicepolicy.ActiveAdmin.readFromXml:(Lcom/android/modules/utils/TypedXmlPullParser;Z)V&#45;&gt;__field__ -->
<g id="edge2" class="edge">
<title>m::com.android.server.devicepolicy.ActiveAdmin.readFromXml:(Lcom/android/modules/utils/TypedXmlPullParser;Z)V&#45;&gt;__field__</title>
<path fill="none" stroke="#dc2626" d="M234.74,-146.33C290.31,-138.25 365.08,-127.37 426.64,-118.42"/>
<polygon fill="#dc2626" stroke="#dc2626" points="427.34,-121.14 434.85,-117.22 426.53,-115.6 427.34,-121.14"/>
<text text-anchor="middle" x="371" y="-133.8" font-family="Helvetica,sans-Serif" font-size="9.00" fill="#dc2626"> writes unguarded</text>
</g>
<!-- m::com.android.server.devicepolicy.ActiveAdmin.dump:(Landroid/util/IndentingPrintWriter;)V -->
<g id="node4" class="node">
<title>m::com.android.server.devicepolicy.ActiveAdmin.dump:(Landroid/util/IndentingPrintWriter;)V</title>
<path fill="#fee2e2" stroke="#dc2626" d="M201.5,-110C201.5,-110 105.5,-110 105.5,-110 99.5,-110 93.5,-104 93.5,-98 93.5,-98 93.5,-86 93.5,-86 93.5,-80 99.5,-74 105.5,-74 105.5,-74 201.5,-74 201.5,-74 207.5,-74 213.5,-80 213.5,-86 213.5,-86 213.5,-98 213.5,-98 213.5,-104 207.5,-110 201.5,-110"/>
<text text-anchor="middle" x="153.5" y="-89.2" font-family="Helvetica,sans-Serif" font-size="11.00">ActiveAdmin.dump</text>
</g>
<!-- m::com.android.server.devicepolicy.ActiveAdmin.dump:(Landroid/util/IndentingPrintWriter;)V&#45;&gt;__field__ -->
<g id="edge3" class="edge">
<title>m::com.android.server.devicepolicy.ActiveAdmin.dump:(Landroid/util/IndentingPrintWriter;)V&#45;&gt;__field__</title>
<path fill="none" stroke="#dc2626" d="M213.81,-93.54C270.26,-95.01 356.68,-97.25 426.32,-99.06"/>
<polygon fill="#dc2626" stroke="#dc2626" points="426.65,-101.87 434.72,-99.28 426.8,-96.27 426.65,-101.87"/>
<text text-anchor="middle" x="371" y="-100.8" font-family="Helvetica,sans-Serif" font-size="9.00" fill="#dc2626"> reads unguarded</text>
</g>
<!-- m::com.android.server.devicepolicy.ActiveAdmin.dump:(Landroid/util/IndentingPrintWriter;)V&#45;&gt;__field__ -->
<g id="edge4" class="edge">
<title>m::com.android.server.devicepolicy.ActiveAdmin.dump:(Landroid/util/IndentingPrintWriter;)V&#45;&gt;__field__</title>
<path fill="none" stroke="#dc2626" d="M213.6,-86.76C266.04,-82.93 344.7,-79.16 413,-84 417.43,-84.31 421.93,-84.69 426.48,-85.11"/>
<polygon fill="#dc2626" stroke="#dc2626" points="426.46,-87.92 434.7,-85.92 427.01,-82.35 426.46,-87.92"/>
<text text-anchor="middle" x="371" y="-86.8" font-family="Helvetica,sans-Serif" font-size="9.00" fill="#dc2626"> reads unguarded</text>
</g>
<!-- m::com.android.server.devicepolicy.ActiveAdmin.writeToXml:(Lcom/android/modules/utils/TypedXmlSerializer;)V -->
<g id="node5" class="node">
<title>m::com.android.server.devicepolicy.ActiveAdmin.writeToXml:(Lcom/android/modules/utils/TypedXmlSerializer;)V</title>
<path fill="#fee2e2" stroke="#dc2626" d="M216,-36C216,-36 91,-36 91,-36 85,-36 79,-30 79,-24 79,-24 79,-12 79,-12 79,-6 85,0 91,0 91,0 216,0 216,0 222,0 228,-6 228,-12 228,-12 228,-24 228,-24 228,-30 222,-36 216,-36"/>
<text text-anchor="middle" x="153.5" y="-15.2" font-family="Helvetica,sans-Serif" font-size="11.00">ActiveAdmin.writeToXml</text>
</g>
<!-- m::com.android.server.devicepolicy.ActiveAdmin.writeToXml:(Lcom/android/modules/utils/TypedXmlSerializer;)V&#45;&gt;__field__ -->
<g id="edge5" class="edge">
<title>m::com.android.server.devicepolicy.ActiveAdmin.writeToXml:(Lcom/android/modules/utils/TypedXmlSerializer;)V&#45;&gt;__field__</title>
<path fill="none" stroke="#dc2626" d="M228.14,-29.79C280.07,-38.56 351.12,-51.48 413,-66 432.54,-70.58 453.57,-76.26 472.77,-81.75"/>
<polygon fill="#dc2626" stroke="#dc2626" points="472.13,-84.48 480.59,-84 473.68,-79.09 472.13,-84.48"/>
<text text-anchor="middle" x="371" y="-68.8" font-family="Helvetica,sans-Serif" font-size="9.00" fill="#dc2626"> reads unguarded</text>
</g>
<!-- m::com.android.server.devicepolicy.ActiveAdmin.writeToXml:(Lcom/android/modules/utils/TypedXmlSerializer;)V&#45;&gt;__field__ -->
<g id="edge6" class="edge">
<title>m::com.android.server.devicepolicy.ActiveAdmin.writeToXml:(Lcom/android/modules/utils/TypedXmlSerializer;)V&#45;&gt;__field__</title>
<path fill="none" stroke="#dc2626" d="M228.05,-14.26C280.57,-13.57 352.35,-16.72 413,-34 447.05,-43.7 482.24,-63.56 506.83,-79.32"/>
<polygon fill="#dc2626" stroke="#dc2626" points="505.57,-81.84 513.8,-83.86 508.62,-77.14 505.57,-81.84"/>
<text text-anchor="middle" x="371" y="-36.8" font-family="Helvetica,sans-Serif" font-size="9.00" fill="#dc2626"> reads unguarded</text>
</g>
</g>
</svg>
