<?xml version="1.0" encoding="UTF-8" standalone="no"?>
<!DOCTYPE svg PUBLIC "-//W3C//DTD SVG 1.1//EN"
 "http://www.w3.org/Graphics/SVG/1.1/DTD/svg11.dtd">
<!-- Generated by graphviz version 2.43.0 (0)
 -->
<!-- Title: race Pages: 1 -->
<svg width="650pt" height="276pt"
 viewBox="0.00 0.00 650.00 276.00" xmlns="http://www.w3.org/2000/svg" xmlns:xlink="http://www.w3.org/1999/xlink">
<g id="graph0" class="graph" transform="scale(1 1) rotate(0) translate(4 272)">
<title>race</title>
<polygon fill="white" stroke="transparent" points="-4,4 -4,-272 646,-272 646,4 -4,4"/>
<!-- __field__ -->
<g id="node1" class="node">
<title>__field__</title>
<path fill="#fef9c3" stroke="#ca8a04" stroke-width="2" d="M630,-152C630,-152 451,-152 451,-152 445,-152 439,-146 439,-140 439,-140 439,-128 439,-128 439,-122 445,-116 451,-116 451,-116 630,-116 630,-116 636,-116 642,-122 642,-128 642,-128 642,-140 642,-140 642,-146 636,-152 630,-152"/>
<text text-anchor="middle" x="540.5" y="-131.2" font-family="Helvetica,sans-Serif" font-size="11.00">ActiveAdmin.specifiesGlobalProxy</text>
</g>
<!-- __guard__ -->
<g id="node2" class="node">
<title>__guard__</title>
<path fill="#dcfce7" stroke="#16a34a" stroke-width="2" d="M297,-268C297,-268 14,-268 14,-268 8,-268 2,-262 2,-256 2,-256 2,-244 2,-244 2,-238 8,-232 14,-232 14,-232 297,-232 297,-232 303,-232 309,-238 309,-244 309,-244 309,-256 309,-256 309,-262 303,-268 297,-268"/>
<text text-anchor="middle" x="155.5" y="-247.2" font-family="Helvetica,sans-Serif" font-size="11.00">DevicePolicyManagerService.mLockDoNoUseDirectly</text>
</g>
<!-- __guard__&#45;&gt;__field__ -->
<g id="edge1" class="edge">
<title>__guard__&#45;&gt;__field__</title>
<path fill="none" stroke="#16a34a" stroke-width="1.6" d="M265.95,-231.97C281.18,-228.73 296.55,-225.07 311,-221 374.67,-203.06 445.49,-174.73 491.16,-155.3"/>
<polygon fill="#16a34a" stroke="#16a34a" stroke-width="1.6" points="492.3,-157.86 498.55,-152.14 490.1,-152.71 492.3,-157.86"/>
<text text-anchor="middle" x="375" y="-215.8" font-family="Helvetica,sans-Serif" font-size="9.00" fill="#15803d"> guards 2/3</text>
</g>
<!-- m::com.android.server.devicepolicy.ActiveAdmin.readFromXml:(Lcom/android/modules/utils/TypedXmlPullParser;Z)V -->
<g id="node3" class="node">
<title>m::com.android.server.devicepolicy.ActiveAdmin.readFromXml:(Lcom/android/modules/utils/TypedXmlPullParser;Z)V</title>
<path fill="#fee2e2" stroke="#dc2626" d="M224.5,-210C224.5,-210 86.5,-210 86.5,-210 80.5,-210 74.5,-204 74.5,-198 74.5,-198 74.5,-186 74.5,-186 74.5,-180 80.5,-174 86.5,-174 86.5,-174 224.5,-174 224.5,-174 230.5,-174 236.5,-180 236.5,-186 236.5,-186 236.5,-198 236.5,-198 236.5,-204 230.5,-210 224.5,-210"/>
<text text-anchor="middle" x="155.5" y="-189.2" font-family="Helvetica,sans-Serif" font-size="11.00">ActiveAdmin.readFromXml</text>
</g>
<!-- m::com.android.server.devicepolicy.ActiveAdmin.readFromXml:(Lcom/android/modules/utils/TypedXmlPullParser;Z)V&#45;&gt;__field__ -->
<g id="edge2" class="edge">
<title>m::com.android.server.devicepolicy.ActiveAdmin.readFromXml:(Lcom/android/modules/utils/TypedXmlPullParser;Z)V&#45;&gt;__field__</title>
<path fill="none" stroke="#dc2626" d="M236.79,-179.84C293.05,-171.32 368.91,-159.83 430.61,-150.49"/>
<polygon fill="#dc2626" stroke="#dc2626" points="431.34,-153.21 438.83,-149.24 430.5,-147.67 431.34,-153.21"/>
<text text-anchor="middle" x="375" y="-166.8" font-family="Helvetica,sans-Serif" font-size="9.00" fill="#dc2626"> writes unguarded</text>
</g>
<!-- m::com.android.server.devicepolicy.ActiveAdmin.dump:(Landroid/util/IndentingPrintWriter;)V -->
<g id="node4" class="node">
<title>m::com.android.server.devicepolicy.ActiveAdmin.dump:(Landroid/util/IndentingPrintWriter;)V</title>
<path fill="#fee2e2" stroke="#dc2626" d="M203.5,-152C203.5,-152 107.5,-152 107.5,-152 101.5,-152 95.5,-146 95.5,-140 95.5,-140 95.5,-128 95.5,-128 95.5,-122 101.5,-116 107.5,-116 107.5,-116 203.5,-116 203.5,-116 209.5,-116 215.5,-122 215.5,-128 215.5,-128 215.5,-140 215.5,-140 215.5,-146 209.5,-152 203.5,-152"/>
<text text-anchor="middle" x="155.5" y="-131.2" font-family="Helvetica,sans-Serif" font-size="11.00">ActiveAdmin.dump</text>
</g>
<!-- m::com.android.server.devicepolicy.ActiveAdmin.dump:(Landroid/util/IndentingPrintWriter;)V&#45;&gt;__field__ -->
<g id="edge3" class="edge">
<title>m::com.android.server.devicepolicy.ActiveAdmin.dump:(Landroid/util/IndentingPrintWriter;)V&#45;&gt;__field__</title>
<path fill="none" stroke="#dc2626" d="M215.5,-134C272.57,-134 360.42,-134 430.25,-134"/>
<polygon fill="#dc2626" stroke="#dc2626" points="430.67,-136.8 438.67,-134 430.67,-131.2 430.67,-136.8"/>
<text text-anchor="middle" x="375" y="-136.8" font-family="Helvetica,sans-Serif" font-size="9.00" fill="#dc2626"> reads unguarded</text>
</g>
<!-- m::com.android.server.devicepolicy.ActiveAdmin.writeToXml:(Lcom/android/modules/utils/TypedXmlSerializer;)V -->
<g id="node5" class="node">
<title>m::com.android.server.devicepolicy.ActiveAdmin.writeToXml:(Lcom/android/modules/utils/TypedXmlSerializer;)V</title>
<path fill="#fee2e2" stroke="#dc2626" d="M218,-94C218,-94 93,-94 93,-94 87,-94 81,-88 81,-82 81,-82 81,-70 81,-70 81,-64 87,-58 93,-58 93,-58 218,-58 218,-58 224,-58 230,-64 230,-70 230,-70 230,-82 230,-82 230,-88 224,-94 218,-94"/>
<text text-anchor="middle" x="155.5" y="-73.2" font-family="Helvetica,sans-Serif" font-size="11.00">ActiveAdmin.writeToXml</text>
</g>
<!-- m::com.android.server.devicepolicy.ActiveAdmin.writeToXml:(Lcom/android/modules/utils/TypedXmlSerializer;)V&#45;&gt;__field__ -->
<g id="edge4" class="edge">
<title>m::com.android.server.devicepolicy.ActiveAdmin.writeToXml:(Lcom/android/modules/utils/TypedXmlSerializer;)V&#45;&gt;__field__</title>
<path fill="none" stroke="#dc2626" d="M230.35,-87.18C287.15,-95.79 366.51,-107.8 430.59,-117.51"/>
<polygon fill="#dc2626" stroke="#dc2626" points="430.4,-120.31 438.73,-118.74 431.24,-114.77 430.4,-120.31"/>
<text text-anchor="middle" x="375" y="-117.8" font-family="Helvetica,sans-Serif" font-size="9.00" fill="#dc2626"> reads unguarded</text>
</g>
<!-- m::com.android.server.devicepolicy.DevicePolicyManagerService.resetGlobalProxyLocked:(Lcom/android/server/devicepolicy/DevicePolicyData;)V -->
<g id="node6" class="node">
<title>m::com.android.server.devicepolicy.DevicePolicyManagerService.resetGlobalProxyLocked:(Lcom/android/server/devicepolicy/DevicePolicyData;)V</title>
<path fill="#fee2e2" stroke="#dc2626" d="M299,-36C299,-36 12,-36 12,-36 6,-36 0,-30 0,-24 0,-24 0,-12 0,-12 0,-6 6,0 12,0 12,0 299,0 299,0 305,0 311,-6 311,-12 311,-12 311,-24 311,-24 311,-30 305,-36 299,-36"/>
<text text-anchor="middle" x="155.5" y="-15.2" font-family="Helvetica,sans-Serif" font-size="11.00">DevicePolicyManagerService.resetGlobalProxyLocked</text>
</g>
<!-- m::com.android.server.devicepolicy.DevicePolicyManagerService.resetGlobalProxyLocked:(Lcom/android/server/devicepolicy/DevicePolicyData;)V&#45;&gt;__field__ -->
<g id="edge5" class="edge">
<title>m::com.android.server.devicepolicy.DevicePolicyManagerService.resetGlobalProxyLocked:(Lcom/android/server/devicepolicy/DevicePolicyData;)V&#45;&gt;__field__</title>
<path fill="none" stroke="#dc2626" d="M265.95,-36.03C281.18,-39.27 296.55,-42.93 311,-47 374.67,-64.94 445.49,-93.27 491.16,-112.7"/>
<polygon fill="#dc2626" stroke="#dc2626" points="490.1,-115.29 498.55,-115.86 492.3,-110.14 490.1,-115.29"/>
<text text-anchor="middle" x="375" y="-83.8" font-family="Helvetica,sans-Serif" font-size="9.00" fill="#dc2626"> reads unguarded</text>
</g>
</g>
</svg>
