<?xml version="1.0" encoding="UTF-8" standalone="no"?>
<!DOCTYPE svg PUBLIC "-//W3C//DTD SVG 1.1//EN"
 "http://www.w3.org/Graphics/SVG/1.1/DTD/svg11.dtd">
<!-- Generated by graphviz version 2.43.0 (0)
 -->
<!-- Title: race Pages: 1 -->
<svg width="716pt" height="519pt"
 viewBox="0.00 0.00 716.00 519.00" xmlns="http://www.w3.org/2000/svg" xmlns:xlink="http://www.w3.org/1999/xlink">
<g id="graph0" class="graph" transform="scale(1 1) rotate(0) translate(4 515)">
<title>race</title>
<polygon fill="white" stroke="transparent" points="-4,4 -4,-515 712,-515 712,4 -4,4"/>
<!-- __field__ -->
<g id="node1" class="node">
<title>__field__</title>
<path fill="#fef9c3" stroke="#ca8a04" stroke-width="2" d="M696,-305C696,-305 457,-305 457,-305 451,-305 445,-299 445,-293 445,-293 445,-281 445,-281 445,-275 451,-269 457,-269 457,-269 696,-269 696,-269 702,-269 708,-275 708,-281 708,-281 708,-293 708,-293 708,-299 702,-305 696,-305"/>
<text text-anchor="middle" x="576.5" y="-284.2" font-family="Helvetica,sans-Serif" font-size="11.00">AbstractPerUserSystemService.mServiceInfo</text>
</g>
<!-- __guard__ -->
<g id="node2" class="node">
<title>__guard__</title>
<path fill="#dcfce7" stroke="#16a34a" stroke-width="2" d="M260,-511C260,-511 57,-511 57,-511 51,-511 45,-505 45,-499 45,-499 45,-487 45,-487 45,-481 51,-475 57,-475 57,-475 260,-475 260,-475 266,-475 272,-481 272,-487 272,-487 272,-499 272,-499 272,-505 266,-511 260,-511"/>
<text text-anchor="middle" x="158.5" y="-490.2" font-family="Helvetica,sans-Serif" font-size="11.00">AbstractPerUserSystemService.mLock</text>
</g>
<!-- __guard__&#45;&gt;__field__ -->
<g id="edge1" class="edge">
<title>__guard__&#45;&gt;__field__</title>
<path fill="none" stroke="#16a34a" stroke-width="1.6" d="M272.22,-483.79C321.02,-476.07 377.3,-461.92 423,-436 479.81,-403.77 530.75,-345.19 556.93,-311.89"/>
<polygon fill="#16a34a" stroke="#16a34a" stroke-width="1.6" points="559.44,-313.22 562.13,-305.18 555.02,-309.79 559.44,-313.22"/>
<text text-anchor="middle" x="381" y="-470.8" font-family="Helvetica,sans-Serif" font-size="9.00" fill="#15803d"> guards 2/3</text>
</g>
<!-- m::com.android.server.infra.AbstractPerUserSystemService.getServiceComponent:(Ljava/lang/String;)Landroid/content/ComponentName; -->
<g id="node3" class="node">
<title>m::com.android.server.infra.AbstractPerUserSystemService.getServiceComponent:(Ljava/lang/String;)Landroid/content/ComponentName;</title>
<path fill="#fee2e2" stroke="#dc2626" d="M303,-453C303,-453 14,-453 14,-453 8,-453 2,-447 2,-441 2,-441 2,-429 2,-429 2,-423 8,-417 14,-417 14,-417 303,-417 303,-417 309,-417 315,-423 315,-429 315,-429 315,-441 315,-441 315,-447 309,-453 303,-453"/>
<text text-anchor="middle" x="158.5" y="-432.2" font-family="Helvetica,sans-Serif" font-size="11.00">AbstractPerUserSystemService.getServiceComponent</text>
</g>
<!-- m::com.android.server.infra.AbstractPerUserSystemService.getServiceComponent:(Ljava/lang/String;)Landroid/content/ComponentName;&#45;&gt;__field__ -->
<g id="edge2" class="edge">
<title>m::com.android.server.infra.AbstractPerUserSystemService.getServiceComponent:(Ljava/lang/String;)Landroid/content/ComponentName;&#45;&gt;__field__</title>
<path fill="none" stroke="#dc2626" d="M315.03,-425.97C351.36,-420.39 389.28,-411.64 423,-398 473.52,-377.57 522.8,-336.79 551.1,-310.76"/>
<polygon fill="#dc2626" stroke="#dc2626" points="553.21,-312.62 557.16,-305.12 549.4,-308.52 553.21,-312.62"/>
<text text-anchor="middle" x="381" y="-423.8" font-family="Helvetica,sans-Serif" font-size="9.00" fill="#dc2626"> writes unguarded</text>
</g>
<!-- m::com.android.server.infra.AbstractPerUserSystemService.dumpLocked:(Ljava/lang/String;Ljava/io/PrintWriter;)V -->
<g id="node4" class="node">
<title>m::com.android.server.infra.AbstractPerUserSystemService.dumpLocked:(Ljava/lang/String;Ljava/io/PrintWriter;)V</title>
<path fill="#fee2e2" stroke="#dc2626" d="M276.5,-384C276.5,-384 40.5,-384 40.5,-384 34.5,-384 28.5,-378 28.5,-372 28.5,-372 28.5,-360 28.5,-360 28.5,-354 34.5,-348 40.5,-348 40.5,-348 276.5,-348 276.5,-348 282.5,-348 288.5,-354 288.5,-360 288.5,-360 288.5,-372 288.5,-372 288.5,-378 282.5,-384 276.5,-384"/>
<text text-anchor="middle" x="158.5" y="-363.2" font-family="Helvetica,sans-Serif" font-size="11.00">AbstractPerUserSystemService.dumpLocked</text>
</g>
<!-- m::com.android.server.infra.AbstractPerUserSystemService.dumpLocked:(Ljava/lang/String;Ljava/io/PrintWriter;)V&#45;&gt;__field__ -->
<g id="edge3" class="edge">
<title>m::com.android.server.infra.AbstractPerUserSystemService.dumpLocked:(Ljava/lang/String;Ljava/io/PrintWriter;)V&#45;&gt;__field__</title>
<path fill="none" stroke="#dc2626" d="M288.8,-383C332.06,-385 380.15,-383.13 423,-372 469.03,-360.04 515.93,-330.8 545.34,-309.97"/>
<polygon fill="#dc2626" stroke="#dc2626" points="547.2,-312.07 552.06,-305.13 543.93,-307.53 547.2,-312.07"/>
<text text-anchor="middle" x="381" y="-385.8" font-family="Helvetica,sans-Serif" font-size="9.00" fill="#dc2626"> reads unguarded</text>
</g>
<!-- m::com.android.server.infra.AbstractPerUserSystemService.dumpLocked:(Ljava/lang/String;Ljava/io/PrintWriter;)V&#45;&gt;__field__ -->
<g id="edge4" class="edge">
<title>m::com.android.server.infra.AbstractPerUserSystemService.dumpLocked:(Ljava/lang/String;Ljava/io/PrintWriter;)V&#45;&gt;__field__</title>
<path fill="none" stroke="#dc2626" d="M288.62,-355.7C331.65,-350.97 379.65,-344.29 423,-335 455.13,-328.12 490.15,-317.34 518.52,-307.74"/>
<polygon fill="#dc2626" stroke="#dc2626" points="519.67,-310.3 526.34,-305.06 517.86,-305 519.67,-310.3"/>
<text text-anchor="middle" x="381" y="-350.8" font-family="Helvetica,sans-Serif" font-size="9.00" fill="#dc2626"> reads unguarded</text>
</g>
<!-- m::com.android.server.infra.AbstractPerUserSystemService.dumpLocked:(Ljava/lang/String;Ljava/io/PrintWriter;)V&#45;&gt;__field__ -->
<g id="edge5" class="edge">
<title>m::com.android.server.infra.AbstractPerUserSystemService.dumpLocked:(Ljava/lang/String;Ljava/io/PrintWriter;)V&#45;&gt;__field__</title>
<path fill="none" stroke="#dc2626" d="M281.49,-347.99C293.65,-344.87 305.67,-341.24 317,-337 327.64,-333.02 328.31,-327.84 339,-324 369.74,-312.97 403.9,-305.23 436.47,-299.79"/>
<polygon fill="#dc2626" stroke="#dc2626" points="437.27,-302.5 444.72,-298.46 436.37,-296.97 437.27,-302.5"/>
<text text-anchor="middle" x="381" y="-326.8" font-family="Helvetica,sans-Serif" font-size="9.00" fill="#dc2626"> reads unguarded</text>
</g>
<!-- m::com.android.server.infra.AbstractPerUserSystemService.getServiceIconLocked:()Landroid/graphics/drawable/Drawable; -->
<g id="node5" class="node">
<title>m::com.android.server.infra.AbstractPerUserSystemService.getServiceIconLocked:()Landroid/graphics/drawable/Drawable;</title>
<path fill="#fee2e2" stroke="#dc2626" d="M302,-326C302,-326 15,-326 15,-326 9,-326 3,-320 3,-314 3,-314 3,-302 3,-302 3,-296 9,-290 15,-290 15,-290 302,-290 302,-290 308,-290 314,-296 314,-302 314,-302 314,-314 314,-314 314,-320 308,-326 302,-326"/>
<text text-anchor="middle" x="158.5" y="-305.2" font-family="Helvetica,sans-Serif" font-size="11.00">AbstractPerUserSystemService.getServiceIconLocked</text>
</g>
<!-- m::com.android.server.infra.AbstractPerUserSystemService.getServiceIconLocked:()Landroid/graphics/drawable/Drawable;&#45;&gt;__field__ -->
<g id="edge6" class="edge">
<title>m::com.android.server.infra.AbstractPerUserSystemService.getServiceIconLocked:()Landroid/graphics/drawable/Drawable;&#45;&gt;__field__</title>
<path fill="none" stroke="#dc2626" d="M299.98,-289.98C313.15,-288.77 326.31,-287.74 339,-287 370.65,-285.16 404.72,-284.42 436.87,-284.3"/>
<polygon fill="#dc2626" stroke="#dc2626" points="437,-287.1 445,-284.28 436.99,-281.5 437,-287.1"/>
<text text-anchor="middle" x="381" y="-289.8" font-family="Helvetica,sans-Serif" font-size="9.00" fill="#dc2626"> reads unguarded</text>
</g>
<!-- m::com.android.server.infra.AbstractPerUserSystemService.getServiceInfo:()Landroid/content/pm/ServiceInfo; -->
<g id="node6" class="node">
<title>m::com.android.server.infra.AbstractPerUserSystemService.getServiceInfo:()Landroid/content/pm/ServiceInfo;</title>
<path fill="#fee2e2" stroke="#dc2626" d="M281.5,-268C281.5,-268 35.5,-268 35.5,-268 29.5,-268 23.5,-262 23.5,-256 23.5,-256 23.5,-244 23.5,-244 23.5,-238 29.5,-232 35.5,-232 35.5,-232 281.5,-232 281.5,-232 287.5,-232 293.5,-238 293.5,-244 293.5,-244 293.5,-256 293.5,-256 293.5,-262 287.5,-268 281.5,-268"/>
<text text-anchor="middle" x="158.5" y="-247.2" font-family="Helvetica,sans-Serif" font-size="11.00">AbstractPerUserSystemService.getServiceInfo</text>
</g>
<!-- m::com.android.server.infra.AbstractPerUserSystemService.getServiceInfo:()Landroid/content/pm/ServiceInfo;&#45;&gt;__field__ -->
<g id="edge7" class="edge">
<title>m::com.android.server.infra.AbstractPerUserSystemService.getServiceInfo:()Landroid/content/pm/ServiceInfo;&#45;&gt;__field__</title>
<path fill="none" stroke="#dc2626" d="M293.65,-258.49C335.15,-261.43 380.99,-265.01 423,-269 427.59,-269.44 432.26,-269.9 436.97,-270.37"/>
<polygon fill="#dc2626" stroke="#dc2626" points="436.69,-273.16 444.93,-271.19 437.26,-267.59 436.69,-273.16"/>
<text text-anchor="middle" x="381" y="-271.8" font-family="Helvetica,sans-Serif" font-size="9.00" fill="#dc2626"> reads unguarded</text>
</g>
<!-- m::com.android.server.infra.AbstractPerUserSystemService.getServiceLabelLocked:()Ljava/lang/CharSequence; -->
<g id="node7" class="node">
<title>m::com.android.server.infra.AbstractPerUserSystemService.getServiceLabelLocked:()Ljava/lang/CharSequence;</title>
<path fill="#fee2e2" stroke="#dc2626" d="M305,-210C305,-210 12,-210 12,-210 6,-210 0,-204 0,-198 0,-198 0,-186 0,-186 0,-180 6,-174 12,-174 12,-174 305,-174 305,-174 311,-174 317,-180 317,-186 317,-186 317,-198 317,-198 317,-204 311,-210 305,-210"/>
<text text-anchor="middle" x="158.5" y="-189.2" font-family="Helvetica,sans-Serif" font-size="11.00">AbstractPerUserSystemService.getServiceLabelLocked</text>
</g>
<!-- m::com.android.server.infra.AbstractPerUserSystemService.getServiceLabelLocked:()Ljava/lang/CharSequence;&#45;&gt;__field__ -->
<g id="edge8" class="edge">
<title>m::com.android.server.infra.AbstractPerUserSystemService.getServiceLabelLocked:()Ljava/lang/CharSequence;&#45;&gt;__field__</title>
<path fill="none" stroke="#dc2626" d="M262.19,-210.01C280.48,-213.47 299.33,-217.21 317,-221 364.43,-231.17 375.98,-235.07 423,-247 448.02,-253.35 475.29,-260.45 499.77,-266.88"/>
<polygon fill="#dc2626" stroke="#dc2626" points="499.17,-269.62 507.62,-268.95 500.59,-264.2 499.17,-269.62"/>
<text text-anchor="middle" x="381" y="-249.8" font-family="Helvetica,sans-Serif" font-size="9.00" fill="#dc2626"> reads unguarded</text>
</g>
<!-- m::com.android.server.infra.AbstractPerUserSystemService.getServiceUidLocked:()I -->
<g id="node8" class="node">
<title>m::com.android.server.infra.AbstractPerUserSystemService.getServiceUidLocked:()I</title>
<path fill="#fee2e2" stroke="#dc2626" d="M299.5,-152C299.5,-152 17.5,-152 17.5,-152 11.5,-152 5.5,-146 5.5,-140 5.5,-140 5.5,-128 5.5,-128 5.5,-122 11.5,-116 17.5,-116 17.5,-116 299.5,-116 299.5,-116 305.5,-116 311.5,-122 311.5,-128 311.5,-128 311.5,-140 311.5,-140 311.5,-146 305.5,-152 299.5,-152"/>
<text text-anchor="middle" x="158.5" y="-131.2" font-family="Helvetica,sans-Serif" font-size="11.00">AbstractPerUserSystemService.getServiceUidLocked</text>
</g>
<!-- m::com.android.server.infra.AbstractPerUserSystemService.getServiceUidLocked:()I&#45;&gt;__field__ -->
<g id="edge9" class="edge">
<title>m::com.android.server.infra.AbstractPerUserSystemService.getServiceUidLocked:()I&#45;&gt;__field__</title>
<path fill="none" stroke="#dc2626" d="M275.1,-152.05C289.33,-155.22 303.59,-158.85 317,-163 399.72,-188.56 489.37,-236.64 538.35,-264.83"/>
<polygon fill="#dc2626" stroke="#dc2626" points="536.95,-267.25 545.27,-268.84 539.75,-262.41 536.95,-267.25"/>
<text text-anchor="middle" x="381" y="-205.8" font-family="Helvetica,sans-Serif" font-size="9.00" fill="#dc2626"> reads unguarded</text>
</g>
<!-- m::com.android.server.infra.AbstractPerUserSystemService.getTargedSdkLocked:()I -->
<g id="node9" class="node">
<title>m::com.android.server.infra.AbstractPerUserSystemService.getTargedSdkLocked:()I</title>
<path fill="#fee2e2" stroke="#dc2626" d="M298.5,-94C298.5,-94 18.5,-94 18.5,-94 12.5,-94 6.5,-88 6.5,-82 6.5,-82 6.5,-70 6.5,-70 6.5,-64 12.5,-58 18.5,-58 18.5,-58 298.5,-58 298.5,-58 304.5,-58 310.5,-64 310.5,-70 310.5,-70 310.5,-82 310.5,-82 310.5,-88 304.5,-94 298.5,-94"/>
<text text-anchor="middle" x="158.5" y="-73.2" font-family="Helvetica,sans-Serif" font-size="11.00">AbstractPerUserSystemService.getTargedSdkLocked</text>
</g>
<!-- m::com.android.server.infra.AbstractPerUserSystemService.getTargedSdkLocked:()I&#45;&gt;__field__ -->
<g id="edge10" class="edge">
<title>m::com.android.server.infra.AbstractPerUserSystemService.getTargedSdkLocked:()I&#45;&gt;__field__</title>
<path fill="none" stroke="#dc2626" d="M276.46,-94.03C290.26,-97.19 304.03,-100.83 317,-105 366.58,-120.96 379.35,-126.58 423,-155 472.59,-187.28 523.16,-234.46 551.81,-262.8"/>
<polygon fill="#dc2626" stroke="#dc2626" points="549.93,-264.89 557.58,-268.55 553.89,-260.92 549.93,-264.89"/>
<text text-anchor="middle" x="381" y="-157.8" font-family="Helvetica,sans-Serif" font-size="9.00" fill="#dc2626"> reads unguarded</text>
</g>
<!-- m::com.android.server.infra.AbstractPerUserSystemService.isEnabledLocked:()Z -->
<g id="node10" class="node">
<title>m::com.android.server.infra.AbstractPerUserSystemService.isEnabledLocked:()Z</title>
<path fill="#fee2e2" stroke="#dc2626" d="M287.5,-36C287.5,-36 29.5,-36 29.5,-36 23.5,-36 17.5,-30 17.5,-24 17.5,-24 17.5,-12 17.5,-12 17.5,-6 23.5,0 29.5,0 29.5,0 287.5,0 287.5,0 293.5,0 299.5,-6 299.5,-12 299.5,-12 299.5,-24 299.5,-24 299.5,-30 293.5,-36 287.5,-36"/>
<text text-anchor="middle" x="158.5" y="-15.2" font-family="Helvetica,sans-Serif" font-size="11.00">AbstractPerUserSystemService.isEnabledLocked</text>
</g>
<!-- m::com.android.server.infra.AbstractPerUserSystemService.isEnabledLocked:()Z&#45;&gt;__field__ -->
<g id="edge11" class="edge">
<title>m::com.android.server.infra.AbstractPerUserSystemService.isEnabledLocked:()Z&#45;&gt;__field__</title>
<path fill="none" stroke="#dc2626" d="M286.95,-36.04C333.44,-47.54 384.09,-66.32 423,-97 484.13,-145.19 536.19,-222.29 560.62,-261.83"/>
<polygon fill="#dc2626" stroke="#dc2626" points="558.29,-263.39 564.85,-268.76 563.07,-260.47 558.29,-263.39"/>
<text text-anchor="middle" x="381" y="-99.8" font-family="Helvetica,sans-Serif" font-size="9.00" fill="#dc2626"> reads unguarded</text>
</g>
</g>
</svg>
