<?xml version="1.0" encoding="UTF-8" standalone="no"?>
<!DOCTYPE svg PUBLIC "-//W3C//DTD SVG 1.1//EN"
 "http://www.w3.org/Graphics/SVG/1.1/DTD/svg11.dtd">
<!-- Generated by graphviz version 2.43.0 (0)
 -->
<!-- Title: race Pages: 1 -->
<svg width="492pt" height="218pt"
 viewBox="0.00 0.00 492.00 218.00" xmlns="http://www.w3.org/2000/svg" xmlns:xlink="http://www.w3.org/1999/xlink">
<g id="graph0" class="graph" transform="scale(1 1) rotate(0) translate(4 214)">
<title>race</title>
<polygon fill="white" stroke="transparent" points="-4,4 -4,-214 488,-214 488,4 -4,4"/>
<!-- __field__ -->
<g id="node1" class="node">
<title>__field__</title>
<path fill="#fef9c3" stroke="#ca8a04" stroke-width="2" d="M472,-115C472,-115 343,-115 343,-115 337,-115 331,-109 331,-103 331,-103 331,-91 331,-91 331,-85 337,-79 343,-79 343,-79 472,-79 472,-79 478,-79 484,-85 484,-91 484,-91 484,-103 484,-103 484,-109 478,-115 472,-115"/>
<text text-anchor="middle" x="407.5" y="-94.2" font-family="Helvetica,sans-Serif" font-size="11.00">SpatializerHelper.mState</text>
</g>
<!-- __guard__ -->
<g id="node2" class="node">
<title>__guard__</title>
<path fill="#dcfce7" stroke="#16a34a" stroke-width="2" d="M161.5,-210C161.5,-210 41.5,-210 41.5,-210 35.5,-210 29.5,-204 29.5,-198 29.5,-198 29.5,-186 29.5,-186 29.5,-180 35.5,-174 41.5,-174 41.5,-174 161.5,-174 161.5,-174 167.5,-174 173.5,-180 173.5,-186 173.5,-186 173.5,-198 173.5,-198 173.5,-204 167.5,-210 161.5,-210"/>
<text text-anchor="middle" x="101.5" y="-189.2" font-family="Helvetica,sans-Serif" font-size="11.00">audio.SpatializerHelper</text>
</g>
<!-- __guard__&#45;&gt;__field__ -->
<g id="edge1" class="edge">
<title>__guard__&#45;&gt;__field__</title>
<path fill="none" stroke="#16a34a" stroke-width="1.6" d="M170.79,-173.88C211.21,-162.81 263.28,-147.95 309,-133 323.04,-128.41 338.06,-123.08 352.01,-117.94"/>
<polygon fill="#16a34a" stroke="#16a34a" stroke-width="1.6" points="353.11,-120.52 359.64,-115.12 351.16,-115.27 353.11,-120.52"/>
<text text-anchor="middle" x="267" y="-159.8" font-family="Helvetica,sans-Serif" font-size="9.00" fill="#15803d"> guards 15/16</text>
</g>
<!-- m::com.android.server.audio.SpatializerHelper.createSpat:()V -->
<g id="node3" class="node">
<title>m::com.android.server.audio.SpatializerHelper.createSpat:()V</title>
<path fill="#fee2e2" stroke="#dc2626" d="M176,-152C176,-152 27,-152 27,-152 21,-152 15,-146 15,-140 15,-140 15,-128 15,-128 15,-122 21,-116 27,-116 27,-116 176,-116 176,-116 182,-116 188,-122 188,-128 188,-128 188,-140 188,-140 188,-146 182,-152 176,-152"/>
<text text-anchor="middle" x="101.5" y="-131.2" font-family="Helvetica,sans-Serif" font-size="11.00">SpatializerHelper.createSpat</text>
</g>
<!-- m::com.android.server.audio.SpatializerHelper.createSpat:()V&#45;&gt;__field__ -->
<g id="edge2" class="edge">
<title>m::com.android.server.audio.SpatializerHelper.createSpat:()V&#45;&gt;__field__</title>
<path fill="none" stroke="#dc2626" d="M188.4,-123.55C230.54,-118.42 281.1,-112.26 322.93,-107.17"/>
<polygon fill="#dc2626" stroke="#dc2626" points="323.3,-109.95 330.9,-106.2 322.63,-104.39 323.3,-109.95"/>
<text text-anchor="middle" x="267" y="-120.8" font-family="Helvetica,sans-Serif" font-size="9.00" fill="#dc2626"> writes unguarded</text>
</g>
<!-- m::com.android.server.audio.SpatializerHelper.checkSpatializer:(Ljava/lang/String;)Z -->
<g id="node4" class="node">
<title>m::com.android.server.audio.SpatializerHelper.checkSpatializer:(Ljava/lang/String;)Z</title>
<path fill="#fee2e2" stroke="#dc2626" d="M191,-94C191,-94 12,-94 12,-94 6,-94 0,-88 0,-82 0,-82 0,-70 0,-70 0,-64 6,-58 12,-58 12,-58 191,-58 191,-58 197,-58 203,-64 203,-70 203,-70 203,-82 203,-82 203,-88 197,-94 191,-94"/>
<text text-anchor="middle" x="101.5" y="-73.2" font-family="Helvetica,sans-Serif" font-size="11.00">SpatializerHelper.checkSpatializer</text>
</g>
<!-- m::com.android.server.audio.SpatializerHelper.checkSpatializer:(Ljava/lang/String;)Z&#45;&gt;__field__ -->
<g id="edge3" class="edge">
<title>m::com.android.server.audio.SpatializerHelper.checkSpatializer:(Ljava/lang/String;)Z&#45;&gt;__field__</title>
<path fill="none" stroke="#dc2626" d="M203.31,-82.96C242.03,-85.64 285.77,-88.66 322.73,-91.21"/>
<polygon fill="#dc2626" stroke="#dc2626" points="322.82,-94.03 330.99,-91.78 323.2,-88.44 322.82,-94.03"/>
<text text-anchor="middle" x="267" y="-92.8" font-family="Helvetica,sans-Serif" font-size="9.00" fill="#dc2626"> reads unguarded</text>
</g>
<!-- m::com.android.server.audio.SpatializerHelper.checkSpatializer:(Ljava/lang/String;)Z&#45;&gt;__field__ -->
<g id="edge4" class="edge">
<title>m::com.android.server.audio.SpatializerHelper.checkSpatializer:(Ljava/lang/String;)Z&#45;&gt;__field__</title>
<path fill="none" stroke="#dc2626" d="M203.18,-65.62C236.94,-63.98 274.72,-64.18 309,-69 321.09,-70.7 333.78,-73.53 345.86,-76.76"/>
<polygon fill="#dc2626" stroke="#dc2626" points="345.24,-79.49 353.7,-78.93 346.73,-74.1 345.24,-79.49"/>
<text text-anchor="middle" x="267" y="-71.8" font-family="Helvetica,sans-Serif" font-size="9.00" fill="#dc2626"> reads unguarded</text>
</g>
<!-- m::com.android.server.audio.SpatializerHelper.dump:(Ljava/io/PrintWriter;)V -->
<g id="node5" class="node">
<title>m::com.android.server.audio.SpatializerHelper.dump:(Ljava/io/PrintWriter;)V</title>
<path fill="#fee2e2" stroke="#dc2626" d="M161.5,-36C161.5,-36 41.5,-36 41.5,-36 35.5,-36 29.5,-30 29.5,-24 29.5,-24 29.5,-12 29.5,-12 29.5,-6 35.5,0 41.5,0 41.5,0 161.5,0 161.5,0 167.5,0 173.5,-6 173.5,-12 173.5,-12 173.5,-24 173.5,-24 173.5,-30 167.5,-36 161.5,-36"/>
<text text-anchor="middle" x="101.5" y="-15.2" font-family="Helvetica,sans-Serif" font-size="11.00">SpatializerHelper.dump</text>
</g>
<!-- m::com.android.server.audio.SpatializerHelper.dump:(Ljava/io/PrintWriter;)V&#45;&gt;__field__ -->
<g id="edge5" class="edge">
<title>m::com.android.server.audio.SpatializerHelper.dump:(Ljava/io/PrintWriter;)V&#45;&gt;__field__</title>
<path fill="none" stroke="#dc2626" d="M173.97,-23.26C214.3,-27.58 265.23,-35.31 309,-49 329.48,-55.41 351.01,-65.6 368.62,-74.95"/>
<polygon fill="#dc2626" stroke="#dc2626" points="367.54,-77.54 375.9,-78.89 370.2,-72.62 367.54,-77.54"/>
<text text-anchor="middle" x="267" y="-51.8" font-family="Helvetica,sans-Serif" font-size="9.00" fill="#dc2626"> reads unguarded</text>
</g>
</g>
</svg>
