<?xml version="1.0" encoding="UTF-8" standalone="no"?>
<!DOCTYPE svg PUBLIC "-//W3C//DTD SVG 1.1//EN"
 "http://www.w3.org/Graphics/SVG/1.1/DTD/svg11.dtd">
<!-- Generated by graphviz version 2.43.0 (0)
 -->
<!-- Title: race Pages: 1 -->
<svg width="623pt" height="242pt"
 viewBox="0.00 0.00 623.00 242.00" xmlns="http://www.w3.org/2000/svg" xmlns:xlink="http://www.w3.org/1999/xlink">
<g id="graph0" class="graph" transform="scale(1 1) rotate(0) translate(4 238)">
<title>race</title>
<polygon fill="white" stroke="transparent" points="-4,4 -4,-238 619,-238 619,4 -4,4"/>
<!-- __field__ -->
<g id="node1" class="node">
<title>__field__</title>
<path fill="#fef9c3" stroke="#ca8a04" stroke-width="2" d="M603,-120C603,-120 447,-120 447,-120 441,-120 435,-114 435,-108 435,-108 435,-96 435,-96 435,-90 441,-84 447,-84 447,-84 603,-84 603,-84 609,-84 615,-90 615,-96 615,-96 615,-108 615,-108 615,-114 609,-120 603,-120"/>
<text text-anchor="middle" x="525" y="-99.2" font-family="Helvetica,sans-Serif" font-size="11.00">ActiveAdmin.mOrganizationId</text>
</g>
<!-- __guard__ -->
<g id="node2" class="node">
<title>__guard__</title>
<path fill="#dcfce7" stroke="#16a34a" stroke-width="2" d="M295,-234C295,-234 12,-234 12,-234 6,-234 0,-228 0,-222 0,-222 0,-210 0,-210 0,-204 6,-198 12,-198 12,-198 295,-198 295,-198 301,-198 307,-204 307,-210 307,-210 307,-222 307,-222 307,-228 301,-234 295,-234"/>
<text text-anchor="middle" x="153.5" y="-213.2" font-family="Helvetica,sans-Serif" font-size="11.00">DevicePolicyManagerService.mLockDoNoUseDirectly</text>
</g>
<!-- __guard__&#45;&gt;__field__ -->
<g id="edge1" class="edge">
<title>__guard__&#45;&gt;__field__</title>
<path fill="none" stroke="#16a34a" stroke-width="1.6" d="M262.98,-197.94C277.87,-194.72 292.89,-191.07 307,-187 366.97,-169.72 433.44,-142.4 476.82,-123.42"/>
<polygon fill="#16a34a" stroke="#16a34a" stroke-width="1.6" points="478.18,-125.88 484.38,-120.1 475.93,-120.76 478.18,-125.88"/>
<text text-anchor="middle" x="371" y="-181.8" font-family="Helvetica,sans-Serif" font-size="9.00" fill="#15803d"> guards 2/3</text>
</g>
<!-- m::com.android.server.devicepolicy.ActiveAdmin.readFromXml:(Lcom/android/modules/utils/TypedXmlPullParser;Z)V -->
<g id="node3" class="node">
<title>m::com.android.server.devicepolicy.ActiveAdmin.readFromXml:(Lcom/android/modules/utils/TypedXmlPullParser;Z)V</title>
<path fill="#fee2e2" stroke="#dc2626" d="M222.5,-176C222.5,-176 84.5,-176 84.5,-176 78.5,-176 72.5,-170 72.5,-164 72.5,-164 72.5,-152 72.5,-152 72.5,-146 78.5,-140 84.5,-140 84.5,-140 222.5,-140 222.5,-140 228.5,-140 234.5,-146 234.5,-152 234.5,-152 234.5,-164 234.5,-164 234.5,-170 228.5,-176 222.5,-176"/>
<text text-anchor="middle" x="153.5" y="-155.2" font-family="Helvetica,sans-Serif" font-size="11.00">ActiveAdmin.readFromXml</text>
</g>
<!-- m::com.android.server.devicepolicy.ActiveAdmin.readFromXml:(Lcom/android/modules/utils/TypedXmlPullParser;Z)V&#45;&gt;__field__ -->
<g id="edge2" class="edge">
<title>m::com.android.server.devicepolicy.ActiveAdmin.readFromXml:(Lcom/android/modules/utils/TypedXmlPullParser;Z)V&#45;&gt;__field__</title>
<path fill="none" stroke="#dc2626" d="M234.68,-145.85C291.15,-137.29 367.05,-125.79 426.95,-116.71"/>
<polygon fill="#dc2626" stroke="#dc2626" points="427.42,-119.47 434.92,-115.5 426.59,-113.93 427.42,-119.47"/>
<text text-anchor="middle" x="371" y="-132.8" font-family="Helvetica,sans-Serif" font-size="9.00" fill="#dc2626"> writes unguarded</text>
</g>
<!-- m::com.android.server.devicepolicy.ActiveAdmin.dump:(Landroid/util/IndentingPrintWriter;)V -->
<g id="node4" class="node">
<title>m::com.android.server.devicepolicy.ActiveAdmin.dump:(Landroid/util/IndentingPrintWriter;)V</title>
<path fill="#fee2e2" stroke="#dc2626" d="M201.5,-110C201.5,-110 105.5,-110 105.5,-110 99.5,-110 93.5,-104 93.5,-98 93.5,-98 93.5,-86 93.5,-86 93.5,-80 99.5,-74 105.5,-74 105.5,-74 201.5,-74 201.5,-74 207.5,-74 213.5,-80 213.5,-86 213.5,-86 213.5,-98 213.5,-98 213.5,-104 207.5,-110 201.5,-110"/>
<text text-anchor="middle" x="153.5" y="-89.2" font-family="Helvetica,sans-Serif" font-size="11.00">ActiveAdmin.dump</text>
</g>
<!-- m::com.android.server.devicepolicy.ActiveAdmin.dump:(Landroid/util/IndentingPrintWriter;)V&#45;&gt;__field__ -->
<g id="edge3" class="edge">
<title>m::com.android.server.devicepolicy.ActiveAdmin.dump:(Landroid/util/IndentingPrintWriter;)V&#45;&gt;__field__</title>
<path fill="none" stroke="#dc2626" d="M213.87,-93.61C271.21,-95.16 359.06,-97.54 426.64,-99.36"/>
<polygon fill="#dc2626" stroke="#dc2626" points="426.7,-102.17 434.77,-99.59 426.85,-96.57 426.7,-102.17"/>
<text text-anchor="middle" x="371" y="-100.8" font-family="Helvetica,sans-Serif" font-size="9.00" fill="#dc2626"> reads unguarded</text>
</g>
<!-- m::com.android.server.devicepolicy.ActiveAdmin.dump:(Landroid/util/IndentingPrintWriter;)V&#45;&gt;__field__ -->
<g id="edge4" class="edge">
<title>m::com.android.server.devicepolicy.ActiveAdmin.dump:(Landroid/util/IndentingPrintWriter;)V&#45;&gt;__field__</title>
<path fill="none" stroke="#dc2626" d="M213.63,-86.44C266.08,-82.39 344.75,-78.5 413,-84 417.44,-84.36 421.97,-84.79 426.54,-85.29"/>
<polygon fill="#dc2626" stroke="#dc2626" points="426.52,-88.11 434.79,-86.26 427.17,-82.55 426.52,-88.11"/>
<text text-anchor="middle" x="371" y="-86.8" font-family="Helvetica,sans-Serif" font-size="9.00" fill="#dc2626"> reads unguarded</text>
</g>
<!-- m::com.android.server.devicepolicy.ActiveAdmin.writeToXml:(Lcom/android/modules/utils/TypedXmlSerializer;)V -->
<g id="node5" class="node">
<title>m::com.android.server.devicepolicy.ActiveAdmin.writeToXml:(Lcom/android/modules/utils/TypedXmlSerializer;)V</title>
<path fill="#fee2e2" stroke="#dc2626" d="M216,-36C216,-36 91,-36 91,-36 85,-36 79,-30 79,-24 79,-24 79,-12 79,-12 79,-6 85,0 91,0 91,0 216,0 216,0 222,0 228,-6 228,-12 228,-12 228,-24 228,-24 228,-30 222,-36 216,-36"/>
<text text-anchor="middle" x="153.5" y="-15.2" font-family="Helvetica,sans-Serif" font-size="11.00">ActiveAdmin.writeToXml</text>
</g>
<!-- m::com.android.server.devicepolicy.ActiveAdmin.writeToXml:(Lcom/android/modules/utils/TypedXmlSerializer;)V&#45;&gt;__field__ -->
<g id="edge5" class="edge">
<title>m::com.android.server.devicepolicy.ActiveAdmin.writeToXml:(Lcom/android/modules/utils/TypedXmlSerializer;)V&#45;&gt;__field__</title>
<path fill="none" stroke="#dc2626" d="M228.03,-29.04C280.07,-37.49 351.28,-50.33 413,-66 430.04,-70.33 448.29,-75.86 464.96,-81.28"/>
<polygon fill="#dc2626" stroke="#dc2626" points="464.54,-84.09 473.01,-83.93 466.29,-78.77 464.54,-84.09"/>
<text text-anchor="middle" x="371" y="-68.8" font-family="Helvetica,sans-Serif" font-size="9.00" fill="#dc2626"> reads unguarded</text>
</g>
<!-- m::com.android.server.devicepolicy.ActiveAdmin.writeToXml:(Lcom/android/modules/utils/TypedXmlSerializer;)V&#45;&gt;__field__ -->
<g id="edge6" class="edge">
<title>m::com.android.server.devicepolicy.ActiveAdmin.writeToXml:(Lcom/android/modules/utils/TypedXmlSerializer;)V&#45;&gt;__field__</title>
<path fill="none" stroke="#dc2626" d="M228.11,-12.75C280.81,-11.26 352.79,-13.91 413,-33 443.64,-42.72 474.36,-62.81 495.69,-78.82"/>
<polygon fill="#dc2626" stroke="#dc2626" points="494.22,-81.22 502.27,-83.86 497.62,-76.77 494.22,-81.22"/>
<text text-anchor="middle" x="371" y="-35.8" font-family="Helvetica,sans-Serif" font-size="9.00" fill="#dc2626"> reads unguarded</text>
</g>
</g>
</svg>
