<?xml version="1.0" encoding="UTF-8" standalone="no"?>
<!DOCTYPE svg PUBLIC "-//W3C//DTD SVG 1.1//EN"
 "http://www.w3.org/Graphics/SVG/1.1/DTD/svg11.dtd">
<!-- Generated by graphviz version 2.43.0 (0)
 -->
<!-- Title: race Pages: 1 -->
<svg width="570pt" height="160pt"
 viewBox="0.00 0.00 570.00 160.00" xmlns="http://www.w3.org/2000/svg" xmlns:xlink="http://www.w3.org/1999/xlink">
<g id="graph0" class="graph" transform="scale(1 1) rotate(0) translate(4 156)">
<title>race</title>
<polygon fill="white" stroke="transparent" points="-4,4 -4,-156 566,-156 566,4 -4,4"/>
<!-- __field__ -->
<g id="node1" class="node">
<title>__field__</title>
<path fill="#fef9c3" stroke="#ca8a04" stroke-width="2" d="M550,-94C550,-94 308,-94 308,-94 302,-94 296,-88 296,-82 296,-82 296,-70 296,-70 296,-64 302,-58 308,-58 308,-58 550,-58 550,-58 556,-58 562,-64 562,-70 562,-70 562,-82 562,-82 562,-88 556,-94 550,-94"/>
<text text-anchor="middle" x="429" y="-73.2" font-family="Helvetica,sans-Serif" font-size="11.00">ServiceRecord.pendingConnectionImportance</text>
</g>
<!-- __guard__ -->
<g id="node2" class="node">
<title>__guard__</title>
<path fill="#dcfce7" stroke="#16a34a" stroke-width="2" d="M156,-152C156,-152 12,-152 12,-152 6,-152 0,-146 0,-140 0,-140 0,-128 0,-128 0,-122 6,-116 12,-116 12,-116 156,-116 156,-116 162,-116 168,-122 168,-128 168,-128 168,-140 168,-140 168,-146 162,-152 156,-152"/>
<text text-anchor="middle" x="84" y="-131.2" font-family="Helvetica,sans-Serif" font-size="11.00">am.ActivityManagerService</text>
</g>
<!-- __guard__&#45;&gt;__field__ -->
<g id="edge1" class="edge">
<title>__guard__&#45;&gt;__field__</title>
<path fill="none" stroke="#16a34a" stroke-width="1.6" d="M168.03,-119.96C211.61,-112.59 265.68,-103.45 313.2,-95.41"/>
<polygon fill="#16a34a" stroke="#16a34a" stroke-width="1.6" points="313.96,-98.12 321.38,-94.03 313.02,-92.6 313.96,-98.12"/>
<text text-anchor="middle" x="232" y="-117.8" font-family="Helvetica,sans-Serif" font-size="9.00" fill="#15803d"> guards 2/3</text>
</g>
<!-- m::com.android.server.am.ServiceRecord.setProcess:(Lcom/android/server/am/ProcessRecord;Landroid/app/IApplicationThread;ILcom/android/server/am/UidRecord;)V -->
<g id="node3" class="node">
<title>m::com.android.server.am.ServiceRecord.setProcess:(Lcom/android/server/am/ProcessRecord;Landroid/app/IApplicationThread;ILcom/android/server/am/UidRecord;)V</title>
<path fill="#fee2e2" stroke="#dc2626" d="M151.5,-94C151.5,-94 16.5,-94 16.5,-94 10.5,-94 4.5,-88 4.5,-82 4.5,-82 4.5,-70 4.5,-70 4.5,-64 10.5,-58 16.5,-58 16.5,-58 151.5,-58 151.5,-58 157.5,-58 163.5,-64 163.5,-70 163.5,-70 163.5,-82 163.5,-82 163.5,-88 157.5,-94 151.5,-94"/>
<text text-anchor="middle" x="84" y="-73.2" font-family="Helvetica,sans-Serif" font-size="11.00">ServiceRecord.setProcess</text>
</g>
<!-- m::com.android.server.am.ServiceRecord.setProcess:(Lcom/android/server/am/ProcessRecord;Landroid/app/IApplicationThread;ILcom/android/server/am/UidRecord;)V&#45;&gt;__field__ -->
<g id="edge2" class="edge">
<title>m::com.android.server.am.ServiceRecord.setProcess:(Lcom/android/server/am/ProcessRecord;Landroid/app/IApplicationThread;ILcom/android/server/am/UidRecord;)V&#45;&gt;__field__</title>
<path fill="none" stroke="#dc2626" d="M163.69,-76C200.48,-76 245.43,-76 287.74,-76"/>
<polygon fill="#dc2626" stroke="#dc2626" points="287.89,-78.8 295.89,-76 287.89,-73.2 287.89,-78.8"/>
<text text-anchor="middle" x="232" y="-78.8" font-family="Helvetica,sans-Serif" font-size="9.00" fill="#dc2626"> writes unguarded</text>
</g>
<!-- m::com.android.server.am.ServiceRecord.setProcess:(Lcom/android/server/am/ProcessRecord;Landroid/app/IApplicationThread;ILcom/android/server/am/UidRecord;)V&#45;&gt;__field__ -->
<g id="edge4" class="edge">
<title>m::com.android.server.am.ServiceRecord.setProcess:(Lcom/android/server/am/ProcessRecord;Landroid/app/IApplicationThread;ILcom/android/server/am/UidRecord;)V&#45;&gt;__field__</title>
<path fill="none" stroke="#dc2626" d="M163.71,-63.52C172.56,-62.49 181.46,-61.61 190,-61 221.6,-58.75 255.57,-59.19 287.67,-60.91"/>
<polygon fill="#dc2626" stroke="#dc2626" points="287.65,-63.71 295.79,-61.37 287.96,-58.12 287.65,-63.71"/>
<text text-anchor="middle" x="232" y="-63.8" font-family="Helvetica,sans-Serif" font-size="9.00" fill="#dc2626"> reads unguarded</text>
</g>
<!-- m::com.android.server.am.ServiceRecord.dump:(Ljava/io/PrintWriter;Ljava/lang/String;)V -->
<g id="node4" class="node">
<title>m::com.android.server.am.ServiceRecord.dump:(Ljava/io/PrintWriter;Ljava/lang/String;)V</title>
<path fill="#fee2e2" stroke="#dc2626" d="M137,-36C137,-36 31,-36 31,-36 25,-36 19,-30 19,-24 19,-24 19,-12 19,-12 19,-6 25,0 31,0 31,0 137,0 137,0 143,0 149,-6 149,-12 149,-12 149,-24 149,-24 149,-30 143,-36 137,-36"/>
<text text-anchor="middle" x="84" y="-15.2" font-family="Helvetica,sans-Serif" font-size="11.00">ServiceRecord.dump</text>
</g>
<!-- m::com.android.server.am.ServiceRecord.dump:(Ljava/io/PrintWriter;Ljava/lang/String;)V&#45;&gt;__field__ -->
<g id="edge3" class="edge">
<title>m::com.android.server.am.ServiceRecord.dump:(Ljava/io/PrintWriter;Ljava/lang/String;)V&#45;&gt;__field__</title>
<path fill="none" stroke="#dc2626" d="M149.03,-25.71C185.71,-30.4 232.55,-36.85 274,-44 294.88,-47.6 317.25,-51.96 338.29,-56.28"/>
<polygon fill="#dc2626" stroke="#dc2626" points="337.88,-59.06 346.28,-57.94 339.01,-53.57 337.88,-59.06"/>
<text text-anchor="middle" x="232" y="-46.8" font-family="Helvetica,sans-Serif" font-size="9.00" fill="#dc2626"> reads unguarded</text>
</g>
</g>
</svg>
