<?xml version="1.0" encoding="UTF-8" standalone="no"?>
<!DOCTYPE svg PUBLIC "-//W3C//DTD SVG 1.1//EN"
 "http://www.w3.org/Graphics/SVG/1.1/DTD/svg11.dtd">
<!-- Generated by graphviz version 2.43.0 (0)
 -->
<!-- Title: race Pages: 1 -->
<svg width="657pt" height="334pt"
 viewBox="0.00 0.00 657.00 334.00" xmlns="http://www.w3.org/2000/svg" xmlns:xlink="http://www.w3.org/1999/xlink">
<g id="graph0" class="graph" transform="scale(1 1) rotate(0) translate(4 330)">
<title>race</title>
<polygon fill="white" stroke="transparent" points="-4,4 -4,-330 653,-330 653,4 -4,4"/>
<!-- __field__ -->
<g id="node1" class="node">
<title>__field__</title>
<path fill="#fef9c3" stroke="#ca8a04" stroke-width="2" d="M637,-181C637,-181 488,-181 488,-181 482,-181 476,-175 476,-169 476,-169 476,-157 476,-157 476,-151 482,-145 488,-145 488,-145 637,-145 637,-145 643,-145 649,-151 649,-157 649,-157 649,-169 649,-169 649,-175 643,-181 637,-181"/>
<text text-anchor="middle" x="562.5" y="-160.2" font-family="Helvetica,sans-Serif" font-size="11.00">WallpaperData.mBindSource</text>
</g>
<!-- __guard__ -->
<g id="node2" class="node">
<title>__guard__</title>
<path fill="#dcfce7" stroke="#16a34a" stroke-width="2" d="M261.5,-326C261.5,-326 86.5,-326 86.5,-326 80.5,-326 74.5,-320 74.5,-314 74.5,-314 74.5,-302 74.5,-302 74.5,-296 80.5,-290 86.5,-290 86.5,-290 261.5,-290 261.5,-290 267.5,-290 273.5,-296 273.5,-302 273.5,-302 273.5,-314 273.5,-314 273.5,-320 267.5,-326 261.5,-326"/>
<text text-anchor="middle" x="174" y="-305.2" font-family="Helvetica,sans-Serif" font-size="11.00">WallpaperManagerService.mLock</text>
</g>
<!-- __guard__&#45;&gt;__field__ -->
<g id="edge1" class="edge">
<title>__guard__&#45;&gt;__field__</title>
<path fill="none" stroke="#16a34a" stroke-width="1.6" d="M273.51,-296.16C298.14,-291.92 324.29,-286.32 348,-279 397.59,-263.68 408.33,-254.66 454,-230 479.38,-216.29 506.98,-199.04 527.85,-185.48"/>
<polygon fill="#16a34a" stroke="#16a34a" stroke-width="1.6" points="529.49,-187.75 534.66,-181.03 526.43,-183.06 529.49,-187.75"/>
<text text-anchor="middle" x="412" y="-273.8" font-family="Helvetica,sans-Serif" font-size="9.00" fill="#15803d"> guards 7/10</text>
</g>
<!-- m::com.android.server.wallpaper.WallpaperDataParser.parseWallpaperAttributes:(Lcom/android/modules/utils/TypedXmlPullParser;Lcom/android/server/wallpaper/WallpaperData;Z)V -->
<g id="node3" class="node">
<title>m::com.android.server.wallpaper.WallpaperDataParser.parseWallpaperAttributes:(Lcom/android/modules/utils/TypedXmlPullParser;Lcom/android/server/wallpaper/WallpaperData;Z)V</title>
<path fill="#fee2e2" stroke="#dc2626" d="M299.5,-268C299.5,-268 48.5,-268 48.5,-268 42.5,-268 36.5,-262 36.5,-256 36.5,-256 36.5,-244 36.5,-244 36.5,-238 42.5,-232 48.5,-232 48.5,-232 299.5,-232 299.5,-232 305.5,-232 311.5,-238 311.5,-244 311.5,-244 311.5,-256 311.5,-256 311.5,-262 305.5,-268 299.5,-268"/>
<text text-anchor="middle" x="174" y="-247.2" font-family="Helvetica,sans-Serif" font-size="11.00">WallpaperDataParser.parseWallpaperAttributes</text>
</g>
<!-- m::com.android.server.wallpaper.WallpaperDataParser.parseWallpaperAttributes:(Lcom/android/modules/utils/TypedXmlPullParser;Lcom/android/server/wallpaper/WallpaperData;Z)V&#45;&gt;__field__ -->
<g id="edge2" class="edge">
<title>m::com.android.server.wallpaper.WallpaperDataParser.parseWallpaperAttributes:(Lcom/android/modules/utils/TypedXmlPullParser;Lcom/android/server/wallpaper/WallpaperData;Z)V&#45;&gt;__field__</title>
<path fill="none" stroke="#dc2626" d="M292.09,-231.99C310.85,-228.64 330,-224.94 348,-221 396.99,-210.27 451.56,-195.39 493.26,-183.39"/>
<polygon fill="#dc2626" stroke="#dc2626" points="494.25,-186.02 501.16,-181.11 492.69,-180.64 494.25,-186.02"/>
<text text-anchor="middle" x="412" y="-217.8" font-family="Helvetica,sans-Serif" font-size="9.00" fill="#dc2626"> writes unguarded</text>
</g>
<!-- m::com.android.server.wallpaper.WallpaperManagerService$DisplayConnector.connectLocked:(Lcom/android/server/wallpaper/WallpaperManagerService$WallpaperConnection;Lcom/android/server/wallpaper/WallpaperData;)V -->
<g id="node4" class="node">
<title>m::com.android.server.wallpaper.WallpaperManagerService$DisplayConnector.connectLocked:(Lcom/android/server/wallpaper/WallpaperManagerService$WallpaperConnection;Lcom/android/server/wallpaper/WallpaperData;)V</title>
<path fill="#fee2e2" stroke="#dc2626" d="M336,-210C336,-210 12,-210 12,-210 6,-210 0,-204 0,-198 0,-198 0,-186 0,-186 0,-180 6,-174 12,-174 12,-174 336,-174 336,-174 342,-174 348,-180 348,-186 348,-186 348,-198 348,-198 348,-204 342,-210 336,-210"/>
<text text-anchor="middle" x="174" y="-189.2" font-family="Helvetica,sans-Serif" font-size="11.00">WallpaperManagerService$DisplayConnector.connectLocked</text>
</g>
<!-- m::com.android.server.wallpaper.WallpaperManagerService$DisplayConnector.connectLocked:(Lcom/android/server/wallpaper/WallpaperManagerService$WallpaperConnection;Lcom/android/server/wallpaper/WallpaperData;)V&#45;&gt;__field__ -->
<g id="edge3" class="edge">
<title>m::com.android.server.wallpaper.WallpaperManagerService$DisplayConnector.connectLocked:(Lcom/android/server/wallpaper/WallpaperManagerService$WallpaperConnection;Lcom/android/server/wallpaper/WallpaperData;)V&#45;&gt;__field__</title>
<path fill="none" stroke="#dc2626" d="M348.18,-179.01C389.35,-175.92 431.75,-172.74 467.8,-170.03"/>
<polygon fill="#dc2626" stroke="#dc2626" points="468.09,-172.82 475.86,-169.43 467.67,-167.23 468.09,-172.82"/>
<text text-anchor="middle" x="412" y="-178.8" font-family="Helvetica,sans-Serif" font-size="9.00" fill="#dc2626"> writes unguarded</text>
</g>
<!-- m::com.android.server.wallpaper.WallpaperManagerService.initializeFallbackWallpaper:()V -->
<g id="node5" class="node">
<title>m::com.android.server.wallpaper.WallpaperManagerService.initializeFallbackWallpaper:()V</title>
<path fill="#fee2e2" stroke="#dc2626" d="M316,-152C316,-152 32,-152 32,-152 26,-152 20,-146 20,-140 20,-140 20,-128 20,-128 20,-122 26,-116 32,-116 32,-116 316,-116 316,-116 322,-116 328,-122 328,-128 328,-128 328,-140 328,-140 328,-146 322,-152 316,-152"/>
<text text-anchor="middle" x="174" y="-131.2" font-family="Helvetica,sans-Serif" font-size="11.00">WallpaperManagerService.initializeFallbackWallpaper</text>
</g>
<!-- m::com.android.server.wallpaper.WallpaperManagerService.initializeFallbackWallpaper:()V&#45;&gt;__field__ -->
<g id="edge4" class="edge">
<title>m::com.android.server.wallpaper.WallpaperManagerService.initializeFallbackWallpaper:()V&#45;&gt;__field__</title>
<path fill="none" stroke="#dc2626" d="M328.03,-145.48C375.28,-149.03 425.89,-152.82 467.86,-155.97"/>
<polygon fill="#dc2626" stroke="#dc2626" points="467.68,-158.77 475.87,-156.57 468.1,-153.18 467.68,-158.77"/>
<text text-anchor="middle" x="412" y="-156.8" font-family="Helvetica,sans-Serif" font-size="9.00" fill="#dc2626"> writes unguarded</text>
</g>
<!-- m::com.android.server.wallpaper.WallpaperDataParser.writeWallpaperAttributes:(Lcom/android/modules/utils/TypedXmlSerializer;Ljava/lang/String;Lcom/android/server/wallpaper/WallpaperData;)V -->
<g id="node6" class="node">
<title>m::com.android.server.wallpaper.WallpaperDataParser.writeWallpaperAttributes:(Lcom/android/modules/utils/TypedXmlSerializer;Ljava/lang/String;Lcom/android/server/wallpaper/WallpaperData;)V</title>
<path fill="#fee2e2" stroke="#dc2626" d="M298,-94C298,-94 50,-94 50,-94 44,-94 38,-88 38,-82 38,-82 38,-70 38,-70 38,-64 44,-58 50,-58 50,-58 298,-58 298,-58 304,-58 310,-64 310,-70 310,-70 310,-82 310,-82 310,-88 304,-94 298,-94"/>
<text text-anchor="middle" x="174" y="-73.2" font-family="Helvetica,sans-Serif" font-size="11.00">WallpaperDataParser.writeWallpaperAttributes</text>
</g>
<!-- m::com.android.server.wallpaper.WallpaperDataParser.writeWallpaperAttributes:(Lcom/android/modules/utils/TypedXmlSerializer;Ljava/lang/String;Lcom/android/server/wallpaper/WallpaperData;)V&#45;&gt;__field__ -->
<g id="edge5" class="edge">
<title>m::com.android.server.wallpaper.WallpaperDataParser.writeWallpaperAttributes:(Lcom/android/modules/utils/TypedXmlSerializer;Ljava/lang/String;Lcom/android/server/wallpaper/WallpaperData;)V&#45;&gt;__field__</title>
<path fill="none" stroke="#dc2626" d="M292.09,-94.01C310.85,-97.36 330,-101.06 348,-105 396.99,-115.73 451.56,-130.61 493.26,-142.61"/>
<polygon fill="#dc2626" stroke="#dc2626" points="492.69,-145.36 501.16,-144.89 494.25,-139.98 492.69,-145.36"/>
<text text-anchor="middle" x="412" y="-133.8" font-family="Helvetica,sans-Serif" font-size="9.00" fill="#dc2626"> reads unguarded</text>
</g>
<!-- m::com.android.server.wallpaper.WallpaperManagerService.dumpWallpaper:(Lcom/android/server/wallpaper/WallpaperData;Ljava/io/PrintWriter;)V -->
<g id="node7" class="node">
<title>m::com.android.server.wallpaper.WallpaperManagerService.dumpWallpaper:(Lcom/android/server/wallpaper/WallpaperData;Ljava/io/PrintWriter;)V</title>
<path fill="#fee2e2" stroke="#dc2626" d="M286.5,-36C286.5,-36 61.5,-36 61.5,-36 55.5,-36 49.5,-30 49.5,-24 49.5,-24 49.5,-12 49.5,-12 49.5,-6 55.5,0 61.5,0 61.5,0 286.5,0 286.5,0 292.5,0 298.5,-6 298.5,-12 298.5,-12 298.5,-24 298.5,-24 298.5,-30 292.5,-36 286.5,-36"/>
<text text-anchor="middle" x="174" y="-15.2" font-family="Helvetica,sans-Serif" font-size="11.00">WallpaperManagerService.dumpWallpaper</text>
</g>
<!-- m::com.android.server.wallpaper.WallpaperManagerService.dumpWallpaper:(Lcom/android/server/wallpaper/WallpaperData;Ljava/io/PrintWriter;)V&#45;&gt;__field__ -->
<g id="edge6" class="edge">
<title>m::com.android.server.wallpaper.WallpaperManagerService.dumpWallpaper:(Lcom/android/server/wallpaper/WallpaperData;Ljava/io/PrintWriter;)V&#45;&gt;__field__</title>
<path fill="none" stroke="#dc2626" d="M298.77,-34.72C315.48,-38.15 332.27,-42.21 348,-47 397.47,-62.07 408.48,-70.45 454,-95 479.67,-108.84 507.47,-126.5 528.36,-140.35"/>
<polygon fill="#dc2626" stroke="#dc2626" points="526.96,-142.79 535.17,-144.9 530.07,-138.13 526.96,-142.79"/>
<text text-anchor="middle" x="412" y="-97.8" font-family="Helvetica,sans-Serif" font-size="9.00" fill="#dc2626"> reads unguarded</text>
</g>
</g>
</svg>
