<?xml version="1.0" encoding="UTF-8" standalone="no"?>
<!DOCTYPE svg PUBLIC "-//W3C//DTD SVG 1.1//EN"
 "http://www.w3.org/Graphics/SVG/1.1/DTD/svg11.dtd">
<!-- Generated by graphviz version 2.43.0 (0)
 -->
<!-- Title: race Pages: 1 -->
<svg width="489pt" height="102pt"
 viewBox="0.00 0.00 489.00 102.00" xmlns="http://www.w3.org/2000/svg" xmlns:xlink="http://www.w3.org/1999/xlink">
<g id="graph0" class="graph" transform="scale(1 1) rotate(0) translate(4 98)">
<title>race</title>
<polygon fill="white" stroke="transparent" points="-4,4 -4,-98 485,-98 485,4 -4,4"/>
<!-- __field__ -->
<g id="node1" class="node">
<title>__field__</title>
<path fill="#fef9c3" stroke="#ca8a04" stroke-width="2" d="M469,-65C469,-65 326,-65 326,-65 320,-65 314,-59 314,-53 314,-53 314,-41 314,-41 314,-35 320,-29 326,-29 326,-29 469,-29 469,-29 475,-29 481,-35 481,-41 481,-41 481,-53 481,-53 481,-59 475,-65 469,-65"/>
<text text-anchor="middle" x="397.5" y="-44.2" font-family="Helvetica,sans-Serif" font-size="11.00">BtHelper.mLeAudioCallback</text>
</g>
<!-- __guard__ -->
<g id="node2" class="node">
<title>__guard__</title>
<path fill="#dcfce7" stroke="#16a34a" stroke-width="2" d="M130,-94C130,-94 56,-94 56,-94 50,-94 44,-88 44,-82 44,-82 44,-70 44,-70 44,-64 50,-58 56,-58 56,-58 130,-58 130,-58 136,-58 142,-64 142,-70 142,-70 142,-82 142,-82 142,-88 136,-94 130,-94"/>
<text text-anchor="middle" x="93" y="-73.2" font-family="Helvetica,sans-Serif" font-size="11.00">audio.BtHelper</text>
</g>
<!-- __guard__&#45;&gt;__field__ -->
<g id="edge1" class="edge">
<title>__guard__&#45;&gt;__field__</title>
<path fill="none" stroke="#16a34a" stroke-width="1.6" d="M142.27,-71.37C186.14,-67.17 252.02,-60.85 305.72,-55.7"/>
<polygon fill="#16a34a" stroke="#16a34a" stroke-width="1.6" points="306.2,-58.47 313.89,-54.92 305.66,-52.9 306.2,-58.47"/>
<text text-anchor="middle" x="250" y="-66.8" font-family="Helvetica,sans-Serif" font-size="9.00" fill="#15803d"> guards 2/3</text>
</g>
<!-- m::com.android.server.audio.BtHelper.onBtProfileConnected:(ILandroid/bluetooth/BluetoothProfile;)V -->
<g id="node3" class="node">
<title>m::com.android.server.audio.BtHelper.onBtProfileConnected:(ILandroid/bluetooth/BluetoothProfile;)V</title>
<path fill="#fee2e2" stroke="#dc2626" d="M174,-36C174,-36 12,-36 12,-36 6,-36 0,-30 0,-24 0,-24 0,-12 0,-12 0,-6 6,0 12,0 12,0 174,0 174,0 180,0 186,-6 186,-12 186,-12 186,-24 186,-24 186,-30 180,-36 174,-36"/>
<text text-anchor="middle" x="93" y="-15.2" font-family="Helvetica,sans-Serif" font-size="11.00">BtHelper.onBtProfileConnected</text>
</g>
<!-- m::com.android.server.audio.BtHelper.onBtProfileConnected:(ILandroid/bluetooth/BluetoothProfile;)V&#45;&gt;__field__ -->
<g id="edge2" class="edge">
<title>m::com.android.server.audio.BtHelper.onBtProfileConnected:(ILandroid/bluetooth/BluetoothProfile;)V&#45;&gt;__field__</title>
<path fill="none" stroke="#dc2626" d="M186.4,-26.86C224.2,-30.48 267.81,-34.66 305.47,-38.27"/>
<polygon fill="#dc2626" stroke="#dc2626" points="305.67,-41.11 313.9,-39.08 306.21,-35.53 305.67,-41.11"/>
<text text-anchor="middle" x="250" y="-38.8" font-family="Helvetica,sans-Serif" font-size="9.00" fill="#dc2626"> writes unguarded</text>
</g>
</g>
</svg>
