<?xml version="1.0" encoding="UTF-8" standalone="no"?>
<!DOCTYPE svg PUBLIC "-//W3C//DTD SVG 1.1//EN"
 "http://www.w3.org/Graphics/SVG/1.1/DTD/svg11.dtd">
<!-- Generated by graphviz version 2.43.0 (0)
 -->
<!-- Title: race Pages: 1 -->
<svg width="703pt" height="218pt"
 viewBox="0.00 0.00 703.00 218.00" xmlns="http://www.w3.org/2000/svg" xmlns:xlink="http://www.w3.org/1999/xlink">
<g id="graph0" class="graph" transform="scale(1 1) rotate(0) translate(4 214)">
<title>race</title>
<polygon fill="white" stroke="transparent" points="-4,4 -4,-214 699,-214 699,4 -4,4"/>
<!-- __field__ -->
<g id="node1" class="node">
<title>__field__</title>
<path fill="#fef9c3" stroke="#ca8a04" stroke-width="2" d="M683,-123C683,-123 482,-123 482,-123 476,-123 470,-117 470,-111 470,-111 470,-99 470,-99 470,-93 476,-87 482,-87 482,-87 683,-87 683,-87 689,-87 695,-93 695,-99 695,-99 695,-111 695,-111 695,-117 689,-123 683,-123"/>
<text text-anchor="middle" x="582.5" y="-102.2" font-family="Helvetica,sans-Serif" font-size="11.00">SyncStatusInfo$Stats.numSourceFeed</text>
</g>
<!-- __guard__ -->
<g id="node2" class="node">
<title>__guard__</title>
<path fill="#dcfce7" stroke="#16a34a" stroke-width="2" d="M257.5,-210C257.5,-210 84.5,-210 84.5,-210 78.5,-210 72.5,-204 72.5,-198 72.5,-198 72.5,-186 72.5,-186 72.5,-180 78.5,-174 84.5,-174 84.5,-174 257.5,-174 257.5,-174 263.5,-174 269.5,-180 269.5,-186 269.5,-186 269.5,-198 269.5,-198 269.5,-204 263.5,-210 257.5,-210"/>
<text text-anchor="middle" x="171" y="-189.2" font-family="Helvetica,sans-Serif" font-size="11.00">SyncStorageEngine.mAuthorities</text>
</g>
<!-- __guard__&#45;&gt;__field__ -->
<g id="edge1" class="edge">
<title>__guard__&#45;&gt;__field__</title>
<path fill="none" stroke="#16a34a" stroke-width="1.6" d="M269.75,-176.51C293.46,-172.42 318.69,-167.81 342,-163 396.66,-151.73 457.81,-136.89 504.63,-125.04"/>
<polygon fill="#16a34a" stroke="#16a34a" stroke-width="1.6" points="505.55,-127.69 512.61,-123.01 504.17,-122.27 505.55,-127.69"/>
<text text-anchor="middle" x="406" y="-159.8" font-family="Helvetica,sans-Serif" font-size="9.00" fill="#15803d"> guards 2/3</text>
</g>
<!-- m::com.android.server.content.SyncStorageEngine.readSyncStatusStatsLocked:(Landroid/util/proto/ProtoInputStream;Landroid/content/SyncStatusInfo$Stats;)V -->
<g id="node3" class="node">
<title>m::com.android.server.content.SyncStorageEngine.readSyncStatusStatsLocked:(Landroid/util/proto/ProtoInputStream;Landroid/content/SyncStatusInfo$Stats;)V</title>
<path fill="#fee2e2" stroke="#dc2626" d="M298.5,-152C298.5,-152 43.5,-152 43.5,-152 37.5,-152 31.5,-146 31.5,-140 31.5,-140 31.5,-128 31.5,-128 31.5,-122 37.5,-116 43.5,-116 43.5,-116 298.5,-116 298.5,-116 304.5,-116 310.5,-122 310.5,-128 310.5,-128 310.5,-140 310.5,-140 310.5,-146 304.5,-152 298.5,-152"/>
<text text-anchor="middle" x="171" y="-131.2" font-family="Helvetica,sans-Serif" font-size="11.00">SyncStorageEngine.readSyncStatusStatsLocked</text>
</g>
<!-- m::com.android.server.content.SyncStorageEngine.readSyncStatusStatsLocked:(Landroid/util/proto/ProtoInputStream;Landroid/content/SyncStatusInfo$Stats;)V&#45;&gt;__field__ -->
<g id="edge2" class="edge">
<title>m::com.android.server.content.SyncStorageEngine.readSyncStatusStatsLocked:(Landroid/util/proto/ProtoInputStream;Landroid/content/SyncStatusInfo$Stats;)V&#45;&gt;__field__</title>
<path fill="none" stroke="#dc2626" d="M310.64,-124.18C359.66,-120.71 414.35,-116.84 461.68,-113.49"/>
<polygon fill="#dc2626" stroke="#dc2626" points="462.03,-116.27 469.81,-112.91 461.64,-110.68 462.03,-116.27"/>
<text text-anchor="middle" x="406" y="-122.8" font-family="Helvetica,sans-Serif" font-size="9.00" fill="#dc2626"> writes unguarded</text>
</g>
<!-- m::com.android.server.content.SyncManager.$r8$lambda$O&#45;rCqIKduPt_pMNS4QFjC5FeAVA:(Ljava/lang/StringBuilder;Lcom/android/server/content/SyncManager$PrintTable;Ljava/lang/String;Landroid/content/SyncStatusInfo$Stats;Ljava/util/function/Function;Ljava/lang/Integer;)V -->
<g id="node4" class="node">
<title>m::com.android.server.content.SyncManager.$r8$lambda$O&#45;rCqIKduPt_pMNS4QFjC5FeAVA:(Ljava/lang/StringBuilder;Lcom/android/server/content/SyncManager$PrintTable;Ljava/lang/String;Landroid/content/SyncStatusInfo$Stats;Ljava/util/function/Function;Ljava/lang/Integer;)V</title>
<path fill="#fee2e2" stroke="#dc2626" d="M330,-94C330,-94 12,-94 12,-94 6,-94 0,-88 0,-82 0,-82 0,-70 0,-70 0,-64 6,-58 12,-58 12,-58 330,-58 330,-58 336,-58 342,-64 342,-70 342,-70 342,-82 342,-82 342,-88 336,-94 330,-94"/>
<text text-anchor="middle" x="171" y="-73.2" font-family="Helvetica,sans-Serif" font-size="11.00">SyncManager.$r8$lambda$O&#45;rCqIKduPt_pMNS4QFjC5FeAVA</text>
</g>
<!-- m::com.android.server.content.SyncManager.$r8$lambda$O&#45;rCqIKduPt_pMNS4QFjC5FeAVA:(Ljava/lang/StringBuilder;Lcom/android/server/content/SyncManager$PrintTable;Ljava/lang/String;Landroid/content/SyncStatusInfo$Stats;Ljava/util/function/Function;Ljava/lang/Integer;)V&#45;&gt;__field__ -->
<g id="edge3" class="edge">
<title>m::com.android.server.content.SyncManager.$r8$lambda$O&#45;rCqIKduPt_pMNS4QFjC5FeAVA:(Ljava/lang/StringBuilder;Lcom/android/server/content/SyncManager$PrintTable;Ljava/lang/String;Landroid/content/SyncStatusInfo$Stats;Ljava/util/function/Function;Ljava/lang/Integer;)V&#45;&gt;__field__</title>
<path fill="none" stroke="#dc2626" d="M342.11,-88.05C382.15,-90.88 424.01,-93.85 461.33,-96.49"/>
<polygon fill="#dc2626" stroke="#dc2626" points="461.53,-99.31 469.71,-97.08 461.93,-93.73 461.53,-99.31"/>
<text text-anchor="middle" x="406" y="-96.8" font-family="Helvetica,sans-Serif" font-size="9.00" fill="#dc2626"> reads unguarded</text>
</g>
<!-- m::com.android.server.content.SyncStorageEngine.writeStatusStatsLocked:(Landroid/util/proto/ProtoOutputStream;Landroid/content/SyncStatusInfo$Stats;)V -->
<g id="node5" class="node">
<title>m::com.android.server.content.SyncStorageEngine.writeStatusStatsLocked:(Landroid/util/proto/ProtoOutputStream;Landroid/content/SyncStatusInfo$Stats;)V</title>
<path fill="#fee2e2" stroke="#dc2626" d="M287,-36C287,-36 55,-36 55,-36 49,-36 43,-30 43,-24 43,-24 43,-12 43,-12 43,-6 49,0 55,0 55,0 287,0 287,0 293,0 299,-6 299,-12 299,-12 299,-24 299,-24 299,-30 293,-36 287,-36"/>
<text text-anchor="middle" x="171" y="-15.2" font-family="Helvetica,sans-Serif" font-size="11.00">SyncStorageEngine.writeStatusStatsLocked</text>
</g>
<!-- m::com.android.server.content.SyncStorageEngine.writeStatusStatsLocked:(Landroid/util/proto/ProtoOutputStream;Landroid/content/SyncStatusInfo$Stats;)V&#45;&gt;__field__ -->
<g id="edge4" class="edge">
<title>m::com.android.server.content.SyncStorageEngine.writeStatusStatsLocked:(Landroid/util/proto/ProtoOutputStream;Landroid/content/SyncStatusInfo$Stats;)V&#45;&gt;__field__</title>
<path fill="none" stroke="#dc2626" d="M284.22,-36.02C303.54,-39.44 323.38,-43.16 342,-47 396.66,-58.27 457.81,-73.11 504.63,-84.96"/>
<polygon fill="#dc2626" stroke="#dc2626" points="504.17,-87.73 512.61,-86.99 505.55,-82.31 504.17,-87.73"/>
<text text-anchor="middle" x="406" y="-72.8" font-family="Helvetica,sans-Serif" font-size="9.00" fill="#dc2626"> reads unguarded</text>
</g>
</g>
</svg>
