<?xml version="1.0" encoding="UTF-8" standalone="no"?>
<!DOCTYPE svg PUBLIC "-//W3C//DTD SVG 1.1//EN"
 "http://www.w3.org/Graphics/SVG/1.1/DTD/svg11.dtd">
<!-- Generated by graphviz version 2.43.0 (0)
 -->
<!-- Title: race Pages: 1 -->
<svg width="654pt" height="591pt"
 viewBox="0.00 0.00 654.00 591.00" xmlns="http://www.w3.org/2000/svg" xmlns:xlink="http://www.w3.org/1999/xlink">
<g id="graph0" class="graph" transform="scale(1 1) rotate(0) translate(4 587)">
<title>race</title>
<polygon fill="white" stroke="transparent" points="-4,4 -4,-587 650,-587 650,4 -4,4"/>
<!-- __field__ -->
<g id="node1" class="node">
<title>__field__</title>
<path fill="#fef9c3" stroke="#ca8a04" stroke-width="2" d="M634,-304C634,-304 467,-304 467,-304 461,-304 455,-298 455,-292 455,-292 455,-280 455,-280 455,-274 461,-268 467,-268 467,-268 634,-268 634,-268 640,-268 646,-274 646,-280 646,-280 646,-292 646,-292 646,-298 640,-304 634,-304"/>
<text text-anchor="middle" x="550.5" y="-283.2" font-family="Helvetica,sans-Serif" font-size="11.00">DeviceIdleController.mForceIdle</text>
</g>
<!-- __guard__ -->
<g id="node2" class="node">
<title>__guard__</title>
<path fill="#dcfce7" stroke="#16a34a" stroke-width="2" d="M234.5,-583C234.5,-583 92.5,-583 92.5,-583 86.5,-583 80.5,-577 80.5,-571 80.5,-571 80.5,-559 80.5,-559 80.5,-553 86.5,-547 92.5,-547 92.5,-547 234.5,-547 234.5,-547 240.5,-547 246.5,-553 246.5,-559 246.5,-559 246.5,-571 246.5,-571 246.5,-577 240.5,-583 234.5,-583"/>
<text text-anchor="middle" x="163.5" y="-562.2" font-family="Helvetica,sans-Serif" font-size="11.00">server.DeviceIdleController</text>
</g>
<!-- __guard__&#45;&gt;__field__ -->
<g id="edge1" class="edge">
<title>__guard__&#45;&gt;__field__</title>
<path fill="none" stroke="#16a34a" stroke-width="1.6" d="M246.79,-574.13C304.14,-576.14 379.61,-569.64 433,-531 507.27,-477.25 535.95,-363.58 545.43,-312.2"/>
<polygon fill="#16a34a" stroke="#16a34a" stroke-width="1.6" points="548.21,-312.58 546.84,-304.22 542.69,-311.61 548.21,-312.58"/>
<text text-anchor="middle" x="391" y="-567.8" font-family="Helvetica,sans-Serif" font-size="9.00" fill="#15803d"> guards 5/6</text>
</g>
<!-- m::com.android.server.DeviceIdleController.exitForceIdleLocked:()V -->
<g id="node3" class="node">
<title>m::com.android.server.DeviceIdleController.exitForceIdleLocked:()V</title>
<path fill="#fee2e2" stroke="#dc2626" d="M271,-525C271,-525 56,-525 56,-525 50,-525 44,-519 44,-513 44,-513 44,-501 44,-501 44,-495 50,-489 56,-489 56,-489 271,-489 271,-489 277,-489 283,-495 283,-501 283,-501 283,-513 283,-513 283,-519 277,-525 271,-525"/>
<text text-anchor="middle" x="163.5" y="-504.2" font-family="Helvetica,sans-Serif" font-size="11.00">DeviceIdleController.exitForceIdleLocked</text>
</g>
<!-- m::com.android.server.DeviceIdleController.exitForceIdleLocked:()V&#45;&gt;__field__ -->
<g id="edge2" class="edge">
<title>m::com.android.server.DeviceIdleController.exitForceIdleLocked:()V&#45;&gt;__field__</title>
<path fill="none" stroke="#dc2626" d="M283.03,-521.54C332.72,-521.98 389.04,-514.56 433,-487 497.5,-446.57 530.22,-356.49 542.96,-311.95"/>
<polygon fill="#dc2626" stroke="#dc2626" points="545.67,-312.65 545.11,-304.19 540.28,-311.15 545.67,-312.65"/>
<text text-anchor="middle" x="391" y="-518.8" font-family="Helvetica,sans-Serif" font-size="9.00" fill="#dc2626"> writes unguarded</text>
</g>
<!-- m::com.android.server.DeviceIdleController.exitForceIdleLocked:()V&#45;&gt;__field__ -->
<g id="edge6" class="edge">
<title>m::com.android.server.DeviceIdleController.exitForceIdleLocked:()V&#45;&gt;__field__</title>
<path fill="none" stroke="#dc2626" d="M274.06,-488.98C291.82,-485.62 309.96,-481.92 327,-478 374.71,-467.02 392.91,-476.11 433,-448 483.63,-412.5 520.29,-347.74 537.85,-311.79"/>
<polygon fill="#dc2626" stroke="#dc2626" points="540.58,-312.58 541.51,-304.15 535.53,-310.16 540.58,-312.58"/>
<text text-anchor="middle" x="391" y="-475.8" font-family="Helvetica,sans-Serif" font-size="9.00" fill="#dc2626"> reads unguarded</text>
</g>
<!-- m::com.android.server.DeviceIdleController.becomeInactiveIfAppropriateLocked:()V -->
<g id="node4" class="node">
<title>m::com.android.server.DeviceIdleController.becomeInactiveIfAppropriateLocked:()V</title>
<path fill="#fee2e2" stroke="#dc2626" d="M315,-467C315,-467 12,-467 12,-467 6,-467 0,-461 0,-455 0,-455 0,-443 0,-443 0,-437 6,-431 12,-431 12,-431 315,-431 315,-431 321,-431 327,-437 327,-443 327,-443 327,-455 327,-455 327,-461 321,-467 315,-467"/>
<text text-anchor="middle" x="163.5" y="-446.2" font-family="Helvetica,sans-Serif" font-size="11.00">DeviceIdleController.becomeInactiveIfAppropriateLocked</text>
</g>
<!-- m::com.android.server.DeviceIdleController.becomeInactiveIfAppropriateLocked:()V&#45;&gt;__field__ -->
<g id="edge3" class="edge">
<title>m::com.android.server.DeviceIdleController.becomeInactiveIfAppropriateLocked:()V&#45;&gt;__field__</title>
<path fill="none" stroke="#dc2626" d="M327.08,-436.33C371.78,-430.84 413.35,-423.25 433,-413 478.19,-389.43 514.82,-340.99 534.28,-311.22"/>
<polygon fill="#dc2626" stroke="#dc2626" points="536.66,-312.69 538.62,-304.45 531.95,-309.67 536.66,-312.69"/>
<text text-anchor="middle" x="391" y="-435.8" font-family="Helvetica,sans-Serif" font-size="9.00" fill="#dc2626"> reads unguarded</text>
</g>
<!-- m::com.android.server.DeviceIdleController.becomeInactiveIfAppropriateLocked:()V&#45;&gt;__field__ -->
<g id="edge4" class="edge">
<title>m::com.android.server.DeviceIdleController.becomeInactiveIfAppropriateLocked:()V&#45;&gt;__field__</title>
<path fill="none" stroke="#dc2626" d="M297.92,-430.98C307.95,-427.88 317.76,-424.25 327,-420 338.48,-414.72 338.07,-408.33 349,-402 383.57,-381.98 397.83,-388.96 433,-370 465.16,-352.67 498.68,-327.65 521.46,-309.43"/>
<polygon fill="#dc2626" stroke="#dc2626" points="523.41,-311.45 527.88,-304.25 519.89,-307.1 523.41,-311.45"/>
<text text-anchor="middle" x="391" y="-404.8" font-family="Helvetica,sans-Serif" font-size="9.00" fill="#dc2626"> reads unguarded</text>
</g>
<!-- m::com.android.server.DeviceIdleController.dump:(Ljava/io/FileDescriptor;Ljava/io/PrintWriter;[Ljava/lang/String;)V -->
<g id="node5" class="node">
<title>m::com.android.server.DeviceIdleController.dump:(Ljava/io/FileDescriptor;Ljava/io/PrintWriter;[Ljava/lang/String;)V</title>
<path fill="#fee2e2" stroke="#dc2626" d="M232,-409C232,-409 95,-409 95,-409 89,-409 83,-403 83,-397 83,-397 83,-385 83,-385 83,-379 89,-373 95,-373 95,-373 232,-373 232,-373 238,-373 244,-379 244,-385 244,-385 244,-397 244,-397 244,-403 238,-409 232,-409"/>
<text text-anchor="middle" x="163.5" y="-388.2" font-family="Helvetica,sans-Serif" font-size="11.00">DeviceIdleController.dump</text>
</g>
<!-- m::com.android.server.DeviceIdleController.dump:(Ljava/io/FileDescriptor;Ljava/io/PrintWriter;[Ljava/lang/String;)V&#45;&gt;__field__ -->
<g id="edge5" class="edge">
<title>m::com.android.server.DeviceIdleController.dump:(Ljava/io/FileDescriptor;Ljava/io/PrintWriter;[Ljava/lang/String;)V&#45;&gt;__field__</title>
<path fill="none" stroke="#dc2626" d="M244.37,-379.24C270.85,-374.68 300.36,-368.89 327,-362 385.66,-346.85 451.08,-323.72 495.72,-306.96"/>
<polygon fill="#dc2626" stroke="#dc2626" points="496.75,-309.56 503.25,-304.12 494.78,-304.32 496.75,-309.56"/>
<text text-anchor="middle" x="391" y="-357.8" font-family="Helvetica,sans-Serif" font-size="9.00" fill="#dc2626"> reads unguarded</text>
</g>
<!-- m::com.android.server.DeviceIdleController.keyguardShowingLocked:(Z)V -->
<g id="node6" class="node">
<title>m::com.android.server.DeviceIdleController.keyguardShowingLocked:(Z)V</title>
<path fill="#fee2e2" stroke="#dc2626" d="M284.5,-351C284.5,-351 42.5,-351 42.5,-351 36.5,-351 30.5,-345 30.5,-339 30.5,-339 30.5,-327 30.5,-327 30.5,-321 36.5,-315 42.5,-315 42.5,-315 284.5,-315 284.5,-315 290.5,-315 296.5,-321 296.5,-327 296.5,-327 296.5,-339 296.5,-339 296.5,-345 290.5,-351 284.5,-351"/>
<text text-anchor="middle" x="163.5" y="-330.2" font-family="Helvetica,sans-Serif" font-size="11.00">DeviceIdleController.keyguardShowingLocked</text>
</g>
<!-- m::com.android.server.DeviceIdleController.keyguardShowingLocked:(Z)V&#45;&gt;__field__ -->
<g id="edge7" class="edge">
<title>m::com.android.server.DeviceIdleController.keyguardShowingLocked:(Z)V&#45;&gt;__field__</title>
<path fill="none" stroke="#dc2626" d="M296.73,-316.86C345.79,-310.87 400.65,-304.17 446.7,-298.55"/>
<polygon fill="#dc2626" stroke="#dc2626" points="447.3,-301.3 454.9,-297.55 446.62,-295.74 447.3,-301.3"/>
<text text-anchor="middle" x="391" y="-311.8" font-family="Helvetica,sans-Serif" font-size="9.00" fill="#dc2626"> reads unguarded</text>
</g>
<!-- m::com.android.server.DeviceIdleController.onShellCommand:(Lcom/android/server/DeviceIdleController$Shell;Ljava/lang/String;)I -->
<g id="node7" class="node">
<title>m::com.android.server.DeviceIdleController.onShellCommand:(Lcom/android/server/DeviceIdleController$Shell;Ljava/lang/String;)I</title>
<path fill="#fee2e2" stroke="#dc2626" d="M264.5,-293C264.5,-293 62.5,-293 62.5,-293 56.5,-293 50.5,-287 50.5,-281 50.5,-281 50.5,-269 50.5,-269 50.5,-263 56.5,-257 62.5,-257 62.5,-257 264.5,-257 264.5,-257 270.5,-257 276.5,-263 276.5,-269 276.5,-269 276.5,-281 276.5,-281 276.5,-287 270.5,-293 264.5,-293"/>
<text text-anchor="middle" x="163.5" y="-272.2" font-family="Helvetica,sans-Serif" font-size="11.00">DeviceIdleController.onShellCommand</text>
</g>
<!-- m::com.android.server.DeviceIdleController.onShellCommand:(Lcom/android/server/DeviceIdleController$Shell;Ljava/lang/String;)I&#45;&gt;__field__ -->
<g id="edge8" class="edge">
<title>m::com.android.server.DeviceIdleController.onShellCommand:(Lcom/android/server/DeviceIdleController$Shell;Ljava/lang/String;)I&#45;&gt;__field__</title>
<path fill="none" stroke="#dc2626" d="M276.63,-278.21C330.26,-279.74 394.03,-281.56 446.43,-283.06"/>
<polygon fill="#dc2626" stroke="#dc2626" points="446.66,-285.86 454.74,-283.29 446.82,-280.27 446.66,-285.86"/>
<text text-anchor="middle" x="391" y="-284.8" font-family="Helvetica,sans-Serif" font-size="9.00" fill="#dc2626"> reads unguarded</text>
</g>
<!-- m::com.android.server.DeviceIdleController.stepIdleStateLocked:(Ljava/lang/String;)V -->
<g id="node8" class="node">
<title>m::com.android.server.DeviceIdleController.stepIdleStateLocked:(Ljava/lang/String;)V</title>
<path fill="#fee2e2" stroke="#dc2626" d="M272.5,-235C272.5,-235 54.5,-235 54.5,-235 48.5,-235 42.5,-229 42.5,-223 42.5,-223 42.5,-211 42.5,-211 42.5,-205 48.5,-199 54.5,-199 54.5,-199 272.5,-199 272.5,-199 278.5,-199 284.5,-205 284.5,-211 284.5,-211 284.5,-223 284.5,-223 284.5,-229 278.5,-235 272.5,-235"/>
<text text-anchor="middle" x="163.5" y="-214.2" font-family="Helvetica,sans-Serif" font-size="11.00">DeviceIdleController.stepIdleStateLocked</text>
</g>
<!-- m::com.android.server.DeviceIdleController.stepIdleStateLocked:(Ljava/lang/String;)V&#45;&gt;__field__ -->
<g id="edge9" class="edge">
<title>m::com.android.server.DeviceIdleController.stepIdleStateLocked:(Ljava/lang/String;)V&#45;&gt;__field__</title>
<path fill="none" stroke="#dc2626" d="M265.55,-235.02C315.88,-244.01 377.65,-255.05 433,-265 437.54,-265.82 442.17,-266.65 446.85,-267.49"/>
<polygon fill="#dc2626" stroke="#dc2626" points="446.4,-270.26 454.77,-268.92 447.39,-264.74 446.4,-270.26"/>
<text text-anchor="middle" x="391" y="-267.8" font-family="Helvetica,sans-Serif" font-size="9.00" fill="#dc2626"> reads unguarded</text>
</g>
<!-- m::com.android.server.DeviceIdleController.updateChargingLocked:(Z)V -->
<g id="node9" class="node">
<title>m::com.android.server.DeviceIdleController.updateChargingLocked:(Z)V</title>
<path fill="#fee2e2" stroke="#dc2626" d="M279.5,-177C279.5,-177 47.5,-177 47.5,-177 41.5,-177 35.5,-171 35.5,-165 35.5,-165 35.5,-153 35.5,-153 35.5,-147 41.5,-141 47.5,-141 47.5,-141 279.5,-141 279.5,-141 285.5,-141 291.5,-147 291.5,-153 291.5,-153 291.5,-165 291.5,-165 291.5,-171 285.5,-177 279.5,-177"/>
<text text-anchor="middle" x="163.5" y="-156.2" font-family="Helvetica,sans-Serif" font-size="11.00">DeviceIdleController.updateChargingLocked</text>
</g>
<!-- m::com.android.server.DeviceIdleController.updateChargingLocked:(Z)V&#45;&gt;__field__ -->
<g id="edge10" class="edge">
<title>m::com.android.server.DeviceIdleController.updateChargingLocked:(Z)V&#45;&gt;__field__</title>
<path fill="none" stroke="#dc2626" d="M284.2,-177C298.74,-180.17 313.29,-183.83 327,-188 392.46,-207.95 464.24,-241.93 508.09,-264.18"/>
<polygon fill="#dc2626" stroke="#dc2626" points="507.01,-266.77 515.41,-267.91 509.56,-261.78 507.01,-266.77"/>
<text text-anchor="middle" x="391" y="-230.8" font-family="Helvetica,sans-Serif" font-size="9.00" fill="#dc2626"> reads unguarded</text>
</g>
<!-- m::com.android.server.DeviceIdleController.updateChargingLocked:(Z)V&#45;&gt;__field__ -->
<g id="edge11" class="edge">
<title>m::com.android.server.DeviceIdleController.updateChargingLocked:(Z)V&#45;&gt;__field__</title>
<path fill="none" stroke="#dc2626" d="M291.54,-152.78C337.68,-154.76 389.2,-162.09 433,-181 473.62,-198.54 509.6,-236.11 530.48,-261.22"/>
<polygon fill="#dc2626" stroke="#dc2626" points="528.48,-263.2 535.7,-267.63 532.82,-259.66 528.48,-263.2"/>
<text text-anchor="middle" x="391" y="-183.8" font-family="Helvetica,sans-Serif" font-size="9.00" fill="#dc2626"> reads unguarded</text>
</g>
<!-- m::com.android.server.DeviceIdleController.updateInteractivityLocked:()V -->
<g id="node10" class="node">
<title>m::com.android.server.DeviceIdleController.updateInteractivityLocked:()V</title>
<path fill="#fee2e2" stroke="#dc2626" d="M288.5,-119C288.5,-119 38.5,-119 38.5,-119 32.5,-119 26.5,-113 26.5,-107 26.5,-107 26.5,-95 26.5,-95 26.5,-89 32.5,-83 38.5,-83 38.5,-83 288.5,-83 288.5,-83 294.5,-83 300.5,-89 300.5,-95 300.5,-95 300.5,-107 300.5,-107 300.5,-113 294.5,-119 288.5,-119"/>
<text text-anchor="middle" x="163.5" y="-98.2" font-family="Helvetica,sans-Serif" font-size="11.00">DeviceIdleController.updateInteractivityLocked</text>
</g>
<!-- m::com.android.server.DeviceIdleController.updateInteractivityLocked:()V&#45;&gt;__field__ -->
<g id="edge12" class="edge">
<title>m::com.android.server.DeviceIdleController.updateInteractivityLocked:()V&#45;&gt;__field__</title>
<path fill="none" stroke="#dc2626" d="M300.61,-103.77C345.12,-109.5 393.29,-121.2 433,-144 481.33,-171.76 517.97,-227.8 536.36,-260.57"/>
<polygon fill="#dc2626" stroke="#dc2626" points="533.9,-261.92 540.21,-267.59 538.81,-259.23 533.9,-261.92"/>
<text text-anchor="middle" x="391" y="-146.8" font-family="Helvetica,sans-Serif" font-size="9.00" fill="#dc2626"> reads unguarded</text>
</g>
<!-- m::com.android.server.DeviceIdleController.updateInteractivityLocked:()V&#45;&gt;__field__ -->
<g id="edge13" class="edge">
<title>m::com.android.server.DeviceIdleController.updateInteractivityLocked:()V&#45;&gt;__field__</title>
<path fill="none" stroke="#dc2626" d="M236.45,-82.99C293.38,-72.8 373.01,-67.89 433,-101 494.99,-135.22 528.5,-217.82 542.12,-260.11"/>
<polygon fill="#dc2626" stroke="#dc2626" points="539.53,-261.2 544.58,-268 544.87,-259.53 539.53,-261.2"/>
<text text-anchor="middle" x="391" y="-103.8" font-family="Helvetica,sans-Serif" font-size="9.00" fill="#dc2626"> reads unguarded</text>
</g>
<!-- m::com.android.server.DeviceIdleController.updateQuickDozeFlagLocked:(Z)V -->
<g id="node11" class="node">
<title>m::com.android.server.DeviceIdleController.updateQuickDozeFlagLocked:(Z)V</title>
<path fill="#fee2e2" stroke="#dc2626" d="M295.5,-53C295.5,-53 31.5,-53 31.5,-53 25.5,-53 19.5,-47 19.5,-41 19.5,-41 19.5,-29 19.5,-29 19.5,-23 25.5,-17 31.5,-17 31.5,-17 295.5,-17 295.5,-17 301.5,-17 307.5,-23 307.5,-29 307.5,-29 307.5,-41 307.5,-41 307.5,-47 301.5,-53 295.5,-53"/>
<text text-anchor="middle" x="163.5" y="-32.2" font-family="Helvetica,sans-Serif" font-size="11.00">DeviceIdleController.updateQuickDozeFlagLocked</text>
</g>
<!-- m::com.android.server.DeviceIdleController.updateQuickDozeFlagLocked:(Z)V&#45;&gt;__field__ -->
<g id="edge14" class="edge">
<title>m::com.android.server.DeviceIdleController.updateQuickDozeFlagLocked:(Z)V&#45;&gt;__field__</title>
<path fill="none" stroke="#dc2626" d="M307.53,-38.49C360.06,-42.23 411.88,-49.63 433,-64 501.91,-110.9 532.91,-211.86 544.16,-259.76"/>
<polygon fill="#dc2626" stroke="#dc2626" points="541.48,-260.6 545.98,-267.79 546.95,-259.37 541.48,-260.6"/>
<text text-anchor="middle" x="391" y="-66.8" font-family="Helvetica,sans-Serif" font-size="9.00" fill="#dc2626"> reads unguarded</text>
</g>
<!-- m::com.android.server.DeviceIdleController.updateQuickDozeFlagLocked:(Z)V&#45;&gt;__field__ -->
<g id="edge15" class="edge">
<title>m::com.android.server.DeviceIdleController.updateQuickDozeFlagLocked:(Z)V&#45;&gt;__field__</title>
<path fill="none" stroke="#dc2626" d="M217.14,-17C274.96,-0.71 368.19,14.91 433,-27 514.74,-79.86 539.69,-205.24 546.83,-259.84"/>
<polygon fill="#dc2626" stroke="#dc2626" points="544.08,-260.37 547.83,-267.97 549.64,-259.69 544.08,-260.37"/>
<text text-anchor="middle" x="391" y="-29.8" font-family="Helvetica,sans-Serif" font-size="9.00" fill="#dc2626"> reads unguarded</text>
</g>
</g>
</svg>
