<?xml version="1.0" encoding="UTF-8" standalone="no"?>
<!DOCTYPE svg PUBLIC "-//W3C//DTD SVG 1.1//EN"
 "http://www.w3.org/Graphics/SVG/1.1/DTD/svg11.dtd">
<!-- Generated by graphviz version 2.43.0 (0)
 -->
<!-- Title: race Pages: 1 -->
<svg width="702pt" height="218pt"
 viewBox="0.00 0.00 702.00 218.00" xmlns="http://www.w3.org/2000/svg" xmlns:xlink="http://www.w3.org/1999/xlink">
<g id="graph0" class="graph" transform="scale(1 1) rotate(0) translate(4 214)">
<title>race</title>
<polygon fill="white" stroke="transparent" points="-4,4 -4,-214 698,-214 698,4 -4,4"/>
<!-- __field__ -->
<g id="node1" class="node">
<title>__field__</title>
<path fill="#fef9c3" stroke="#ca8a04" stroke-width="2" d="M682,-123C682,-123 482,-123 482,-123 476,-123 470,-117 470,-111 470,-111 470,-99 470,-99 470,-93 476,-87 482,-87 482,-87 682,-87 682,-87 688,-87 694,-93 694,-99 694,-99 694,-111 694,-111 694,-117 688,-123 682,-123"/>
<text text-anchor="middle" x="582" y="-102.2" font-family="Helvetica,sans-Serif" font-size="11.00">SyncStatusInfo$Stats.numSourceUser</text>
</g>
<!-- __guard__ -->
<g id="node2" class="node">
<title>__guard__</title>
<path fill="#dcfce7" stroke="#16a34a" stroke-width="2" d="M257.5,-210C257.5,-210 84.5,-210 84.5,-210 78.5,-210 72.5,-204 72.5,-198 72.5,-198 72.5,-186 72.5,-186 72.5,-180 78.5,-174 84.5,-174 84.5,-174 257.5,-174 257.5,-174 263.5,-174 269.5,-180 269.5,-186 269.5,-186 269.5,-198 269.5,-198 269.5,-204 263.5,-210 257.5,-210"/>
<text text-anchor="middle" x="171" y="-189.2" font-family="Helvetica,sans-Serif" font-size="11.00">SyncStorageEngine.mAuthorities</text>
</g>
<!-- __guard__&#45;&gt;__field__ -->
<g id="edge1" class="edge">
<title>__guard__&#45;&gt;__field__</title>
<path fill="none" stroke="#16a34a" stroke-width="1.6" d="M269.76,-176.51C293.46,-172.43 318.69,-167.81 342,-163 396.55,-151.74 457.57,-136.9 504.29,-125.04"/>
<polygon fill="#16a34a" stroke="#16a34a" stroke-width="1.6" points="505.19,-127.7 512.26,-123.02 503.81,-122.28 505.19,-127.7"/>
<text text-anchor="middle" x="406" y="-159.8" font-family="Helvetica,sans-Serif" font-size="9.00" fill="#15803d"> guards 2/3</text>
</g>
<!-- m::com.android.server.content.SyncStorageEngine.readSyncStatusStatsLocked:(Landroid/util/proto/ProtoInputStream;Landroid/content/SyncStatusInfo$Stats;)V -->
<g id="node3" class="node">
<title>m::com.android.server.content.SyncStorageEngine.readSyncStatusStatsLocked:(Landroid/util/proto/ProtoInputStream;Landroid/content/SyncStatusInfo$Stats;)V</title>
<path fill="#fee2e2" stroke="#dc2626" d="M298.5,-152C298.5,-152 43.5,-152 43.5,-152 37.5,-152 31.5,-146 31.5,-140 31.5,-140 31.5,-128 31.5,-128 31.5,-122 37.5,-116 43.5,-116 43.5,-116 298.5,-116 298.5,-116 304.5,-116 310.5,-122 310.5,-128 310.5,-128 310.5,-140 310.5,-140 310.5,-146 304.5,-152 298.5,-152"/>
<text text-anchor="middle" x="171" y="-131.2" font-family="Helvetica,sans-Serif" font-size="11.00">SyncStorageEngine.readSyncStatusStatsLocked</text>
</g>
<!-- m::com.android.server.content.SyncStorageEngine.readSyncStatusStatsLocked:(Landroid/util/proto/ProtoInputStream;Landroid/content/SyncStatusInfo$Stats;)V&#45;&gt;__field__ -->
<g id="edge2" class="edge">
<title>m::com.android.server.content.SyncStorageEngine.readSyncStatusStatsLocked:(Landroid/util/proto/ProtoInputStream;Landroid/content/SyncStatusInfo$Stats;)V&#45;&gt;__field__</title>
<path fill="none" stroke="#dc2626" d="M310.75,-124.16C359.81,-120.68 414.51,-116.8 461.8,-113.45"/>
<polygon fill="#dc2626" stroke="#dc2626" points="462.15,-116.23 469.93,-112.88 461.75,-110.65 462.15,-116.23"/>
<text text-anchor="middle" x="406" y="-122.8" font-family="Helvetica,sans-Serif" font-size="9.00" fill="#dc2626"> writes unguarded</text>
</g>
<!-- m::com.android.server.content.SyncManager.$r8$lambda$O&#45;rCqIKduPt_pMNS4QFjC5FeAVA:(Ljava/lang/StringBuilder;Lcom/android/server/content/SyncManager$PrintTable;Ljava/lang/String;Landroid/content/SyncStatusInfo$Stats;Ljava/util/function/Function;Ljava/lang/Integer;)V -->
<g id="node4" class="node">
<title>m::com.android.server.content.SyncManager.$r8$lambda$O&#45;rCqIKduPt_pMNS4QFjC5FeAVA:(Ljava/lang/StringBuilder;Lcom/android/server/content/SyncManager$PrintTable;Ljava/lang/String;Landroid/content/SyncStatusInfo$Stats;Ljava/util/function/Function;Ljava/lang/Integer;)V</title>
<path fill="#fee2e2" stroke="#dc2626" d="M330,-94C330,-94 12,-94 12,-94 6,-94 0,-88 0,-82 0,-82 0,-70 0,-70 0,-64 6,-58 12,-58 12,-58 330,-58 330,-58 336,-58 342,-64 342,-70 342,-70 342,-82 342,-82 342,-88 336,-94 330,-94"/>
<text text-anchor="middle" x="171" y="-73.2" font-family="Helvetica,sans-Serif" font-size="11.00">SyncManager.$r8$lambda$O&#45;rCqIKduPt_pMNS4QFjC5FeAVA</text>
</g>
<!-- m::com.android.server.content.SyncManager.$r8$lambda$O&#45;rCqIKduPt_pMNS4QFjC5FeAVA:(Ljava/lang/StringBuilder;Lcom/android/server/content/SyncManager$PrintTable;Ljava/lang/String;Landroid/content/SyncStatusInfo$Stats;Ljava/util/function/Function;Ljava/lang/Integer;)V&#45;&gt;__field__ -->
<g id="edge3" class="edge">
<title>m::com.android.server.content.SyncManager.$r8$lambda$O&#45;rCqIKduPt_pMNS4QFjC5FeAVA:(Ljava/lang/StringBuilder;Lcom/android/server/content/SyncManager$PrintTable;Ljava/lang/String;Landroid/content/SyncStatusInfo$Stats;Ljava/util/function/Function;Ljava/lang/Integer;)V&#45;&gt;__field__</title>
<path fill="none" stroke="#dc2626" d="M342.2,-88.07C382.26,-90.91 424.14,-93.88 461.44,-96.52"/>
<polygon fill="#dc2626" stroke="#dc2626" points="461.64,-99.34 469.82,-97.12 462.03,-93.76 461.64,-99.34"/>
<text text-anchor="middle" x="406" y="-96.8" font-family="Helvetica,sans-Serif" font-size="9.00" fill="#dc2626"> reads unguarded</text>
</g>
<!-- m::com.android.server.content.SyncStorageEngine.writeStatusStatsLocked:(Landroid/util/proto/ProtoOutputStream;Landroid/content/SyncStatusInfo$Stats;)V -->
<g id="node5" class="node">
<title>m::com.android.server.content.SyncStorageEngine.writeStatusStatsLocked:(Landroid/util/proto/ProtoOutputStream;Landroid/content/SyncStatusInfo$Stats;)V</title>
<path fill="#fee2e2" stroke="#dc2626" d="M287,-36C287,-36 55,-36 55,-36 49,-36 43,-30 43,-24 43,-24 43,-12 43,-12 43,-6 49,0 55,0 55,0 287,0 287,0 293,0 299,-6 299,-12 299,-12 299,-24 299,-24 299,-30 293,-36 287,-36"/>
<text text-anchor="middle" x="171" y="-15.2" font-family="Helvetica,sans-Serif" font-size="11.00">SyncStorageEngine.writeStatusStatsLocked</text>
</g>
<!-- m::com.android.server.content.SyncStorageEngine.writeStatusStatsLocked:(Landroid/util/proto/ProtoOutputStream;Landroid/content/SyncStatusInfo$Stats;)V&#45;&gt;__field__ -->
<g id="edge4" class="edge">
<title>m::com.android.server.content.SyncStorageEngine.writeStatusStatsLocked:(Landroid/util/proto/ProtoOutputStream;Landroid/content/SyncStatusInfo$Stats;)V&#45;&gt;__field__</title>
<path fill="none" stroke="#dc2626" d="M284.23,-36.01C303.54,-39.44 323.38,-43.16 342,-47 396.55,-58.26 457.57,-73.1 504.29,-84.96"/>
<polygon fill="#dc2626" stroke="#dc2626" points="503.81,-87.72 512.26,-86.98 505.19,-82.3 503.81,-87.72"/>
<text text-anchor="middle" x="406" y="-72.8" font-family="Helvetica,sans-Serif" font-size="9.00" fill="#dc2626"> reads unguarded</text>
</g>
</g>
</svg>
