<?xml version="1.0" encoding="UTF-8" standalone="no"?>
<!DOCTYPE svg PUBLIC "-//W3C//DTD SVG 1.1//EN"
 "http://www.w3.org/Graphics/SVG/1.1/DTD/svg11.dtd">
<!-- Generated by graphviz version 2.43.0 (0)
 -->
<!-- Title: race Pages: 1 -->
<svg width="905pt" height="210pt"
 viewBox="0.00 0.00 905.00 210.00" xmlns="http://www.w3.org/2000/svg" xmlns:xlink="http://www.w3.org/1999/xlink">
<g id="graph0" class="graph" transform="scale(1 1) rotate(0) translate(4 206)">
<title>race</title>
<polygon fill="white" stroke="transparent" points="-4,4 -4,-206 901,-206 901,4 -4,4"/>
<!-- __field__ -->
<g id="node1" class="node">
<title>__field__</title>
<path fill="#fef9c3" stroke="#ca8a04" stroke-width="2" d="M885,-109C885,-109 547,-109 547,-109 541,-109 535,-103 535,-97 535,-97 535,-85 535,-85 535,-79 541,-73 547,-73 547,-73 885,-73 885,-73 891,-73 897,-79 897,-85 897,-85 897,-97 897,-97 897,-103 891,-109 885,-109"/>
<text text-anchor="middle" x="716" y="-88.2" font-family="Helvetica,sans-Serif" font-size="11.00">AutofillManagerServiceImpl.mRemoteFieldClassificationService</text>
</g>
<!-- __guard__ -->
<g id="node2" class="node">
<title>__guard__</title>
<path fill="#dcfce7" stroke="#16a34a" stroke-width="2" d="M305,-202C305,-202 102,-202 102,-202 96,-202 90,-196 90,-190 90,-190 90,-178 90,-178 90,-172 96,-166 102,-166 102,-166 305,-166 305,-166 311,-166 317,-172 317,-178 317,-178 317,-190 317,-190 317,-196 311,-202 305,-202"/>
<text text-anchor="middle" x="203.5" y="-181.2" font-family="Helvetica,sans-Serif" font-size="11.00">AbstractPerUserSystemService.mLock</text>
</g>
<!-- __guard__&#45;&gt;__field__ -->
<g id="edge1" class="edge">
<title>__guard__&#45;&gt;__field__</title>
<path fill="none" stroke="#16a34a" stroke-width="1.6" d="M317.33,-169.4C375.9,-161.26 448.5,-150.29 513,-138 553.78,-130.23 598.8,-119.92 635.97,-110.94"/>
<polygon fill="#16a34a" stroke="#16a34a" stroke-width="1.6" points="636.67,-113.66 643.78,-109.05 635.35,-108.21 636.67,-113.66"/>
<text text-anchor="middle" x="471" y="-153.8" font-family="Helvetica,sans-Serif" font-size="9.00" fill="#15803d"> guards 2/3</text>
</g>
<!-- m::com.android.server.autofill.AutofillManagerServiceImpl.getRemoteFieldClassificationServiceLocked:()Lcom/android/server/autofill/RemoteFieldClassificationService; -->
<g id="node3" class="node">
<title>m::com.android.server.autofill.AutofillManagerServiceImpl.getRemoteFieldClassificationServiceLocked:()Lcom/android/server/autofill/RemoteFieldClassificationService;</title>
<path fill="#fee2e2" stroke="#dc2626" d="M395,-128C395,-128 12,-128 12,-128 6,-128 0,-122 0,-116 0,-116 0,-104 0,-104 0,-98 6,-92 12,-92 12,-92 395,-92 395,-92 401,-92 407,-98 407,-104 407,-104 407,-116 407,-116 407,-122 401,-128 395,-128"/>
<text text-anchor="middle" x="203.5" y="-107.2" font-family="Helvetica,sans-Serif" font-size="11.00">AutofillManagerServiceImpl.getRemoteFieldClassificationServiceLocked</text>
</g>
<!-- m::com.android.server.autofill.AutofillManagerServiceImpl.getRemoteFieldClassificationServiceLocked:()Lcom/android/server/autofill/RemoteFieldClassificationService;&#45;&gt;__field__ -->
<g id="edge2" class="edge">
<title>m::com.android.server.autofill.AutofillManagerServiceImpl.getRemoteFieldClassificationServiceLocked:()Lcom/android/server/autofill/RemoteFieldClassificationService;&#45;&gt;__field__</title>
<path fill="none" stroke="#dc2626" d="M407.07,-123.54C442.41,-124.1 478.79,-123.53 513,-121 543.27,-118.76 575.88,-114.67 605.88,-110.21"/>
<polygon fill="#dc2626" stroke="#dc2626" points="606.37,-112.97 613.86,-109.01 605.53,-107.43 606.37,-112.97"/>
<text text-anchor="middle" x="471" y="-125.8" font-family="Helvetica,sans-Serif" font-size="9.00" fill="#dc2626"> writes unguarded</text>
</g>
<!-- m::com.android.server.autofill.AutofillManagerServiceImpl.getRemoteFieldClassificationServiceLocked:()Lcom/android/server/autofill/RemoteFieldClassificationService;&#45;&gt;__field__ -->
<g id="edge5" class="edge">
<title>m::com.android.server.autofill.AutofillManagerServiceImpl.getRemoteFieldClassificationServiceLocked:()Lcom/android/server/autofill/RemoteFieldClassificationService;&#45;&gt;__field__</title>
<path fill="none" stroke="#dc2626" d="M407.36,-102.45C446.71,-100.99 487.8,-99.46 526.66,-98.01"/>
<polygon fill="#dc2626" stroke="#dc2626" points="527.03,-100.8 534.92,-97.7 526.82,-95.2 527.03,-100.8"/>
<text text-anchor="middle" x="471" y="-103.8" font-family="Helvetica,sans-Serif" font-size="9.00" fill="#dc2626"> reads unguarded</text>
</g>
<!-- m::com.android.server.autofill.AutofillManagerServiceImpl.getRemoteFieldClassificationServiceLocked:()Lcom/android/server/autofill/RemoteFieldClassificationService;&#45;&gt;__field__ -->
<g id="edge6" class="edge">
<title>m::com.android.server.autofill.AutofillManagerServiceImpl.getRemoteFieldClassificationServiceLocked:()Lcom/android/server/autofill/RemoteFieldClassificationService;&#45;&gt;__field__</title>
<path fill="none" stroke="#dc2626" d="M331.89,-92C363.55,-88.26 397.46,-84.89 429,-83 466.27,-80.77 475.67,-82.26 513,-83 517.5,-83.09 522.05,-83.19 526.64,-83.3"/>
<polygon fill="#dc2626" stroke="#dc2626" points="526.87,-86.11 534.94,-83.51 527.01,-80.51 526.87,-86.11"/>
<text text-anchor="middle" x="471" y="-85.8" font-family="Helvetica,sans-Serif" font-size="9.00" fill="#dc2626"> reads unguarded</text>
</g>
<!-- m::com.android.server.autofill.AutofillManagerServiceImpl.dumpLocked:(Ljava/lang/String;Ljava/io/PrintWriter;)V -->
<g id="node4" class="node">
<title>m::com.android.server.autofill.AutofillManagerServiceImpl.dumpLocked:(Ljava/lang/String;Ljava/io/PrintWriter;)V</title>
<path fill="#fee2e2" stroke="#dc2626" d="M311,-36C311,-36 96,-36 96,-36 90,-36 84,-30 84,-24 84,-24 84,-12 84,-12 84,-6 90,0 96,0 96,0 311,0 311,0 317,0 323,-6 323,-12 323,-12 323,-24 323,-24 323,-30 317,-36 311,-36"/>
<text text-anchor="middle" x="203.5" y="-15.2" font-family="Helvetica,sans-Serif" font-size="11.00">AutofillManagerServiceImpl.dumpLocked</text>
</g>
<!-- m::com.android.server.autofill.AutofillManagerServiceImpl.dumpLocked:(Ljava/lang/String;Ljava/io/PrintWriter;)V&#45;&gt;__field__ -->
<g id="edge3" class="edge">
<title>m::com.android.server.autofill.AutofillManagerServiceImpl.dumpLocked:(Ljava/lang/String;Ljava/io/PrintWriter;)V&#45;&gt;__field__</title>
<path fill="none" stroke="#dc2626" d="M323.22,-34.98C400.26,-45.99 500.81,-60.37 580.76,-71.8"/>
<polygon fill="#dc2626" stroke="#dc2626" points="580.61,-74.61 588.92,-72.97 581.4,-69.07 580.61,-74.61"/>
<text text-anchor="middle" x="471" y="-63.8" font-family="Helvetica,sans-Serif" font-size="9.00" fill="#dc2626"> reads unguarded</text>
</g>
<!-- m::com.android.server.autofill.AutofillManagerServiceImpl.dumpLocked:(Ljava/lang/String;Ljava/io/PrintWriter;)V&#45;&gt;__field__ -->
<g id="edge4" class="edge">
<title>m::com.android.server.autofill.AutofillManagerServiceImpl.dumpLocked:(Ljava/lang/String;Ljava/io/PrintWriter;)V&#45;&gt;__field__</title>
<path fill="none" stroke="#dc2626" d="M323.07,-18.58C380.71,-20.37 450.81,-24.79 513,-35 561.31,-42.93 614.63,-57.99 654.35,-70.5"/>
<polygon fill="#dc2626" stroke="#dc2626" points="653.64,-73.21 662.11,-72.96 655.34,-67.87 653.64,-73.21"/>
<text text-anchor="middle" x="471" y="-37.8" font-family="Helvetica,sans-Serif" font-size="9.00" fill="#dc2626"> reads unguarded</text>
</g>
</g>
</svg>
