<?xml version="1.0" encoding="UTF-8" standalone="no"?>
<!DOCTYPE svg PUBLIC "-//W3C//DTD SVG 1.1//EN"
 "http://www.w3.org/Graphics/SVG/1.1/DTD/svg11.dtd">
<!-- Generated by graphviz version 2.43.0 (0)
 -->
<!-- Title: race Pages: 1 -->
<svg width="720pt" height="218pt"
 viewBox="0.00 0.00 720.00 218.00" xmlns="http://www.w3.org/2000/svg" xmlns:xlink="http://www.w3.org/1999/xlink">
<g id="graph0" class="graph" transform="scale(1 1) rotate(0) translate(4 214)">
<title>race</title>
<polygon fill="white" stroke="transparent" points="-4,4 -4,-214 716,-214 716,4 -4,4"/>
<!-- __field__ -->
<g id="node1" class="node">
<title>__field__</title>
<path fill="#fef9c3" stroke="#ca8a04" stroke-width="2" d="M700,-123C700,-123 482,-123 482,-123 476,-123 470,-117 470,-111 470,-111 470,-99 470,-99 470,-93 476,-87 482,-87 482,-87 700,-87 700,-87 706,-87 712,-93 712,-99 712,-99 712,-111 712,-111 712,-117 706,-123 700,-123"/>
<text text-anchor="middle" x="591" y="-102.2" font-family="Helvetica,sans-Serif" font-size="11.00">SyncStatusInfo$Stats.numSourcePeriodic</text>
</g>
<!-- __guard__ -->
<g id="node2" class="node">
<title>__guard__</title>
<path fill="#dcfce7" stroke="#16a34a" stroke-width="2" d="M257.5,-210C257.5,-210 84.5,-210 84.5,-210 78.5,-210 72.5,-204 72.5,-198 72.5,-198 72.5,-186 72.5,-186 72.5,-180 78.5,-174 84.5,-174 84.5,-174 257.5,-174 257.5,-174 263.5,-174 269.5,-180 269.5,-186 269.5,-186 269.5,-198 269.5,-198 269.5,-204 263.5,-210 257.5,-210"/>
<text text-anchor="middle" x="171" y="-189.2" font-family="Helvetica,sans-Serif" font-size="11.00">SyncStorageEngine.mAuthorities</text>
</g>
<!-- __guard__&#45;&gt;__field__ -->
<g id="edge1" class="edge">
<title>__guard__&#45;&gt;__field__</title>
<path fill="none" stroke="#16a34a" stroke-width="1.6" d="M269.73,-176.38C293.43,-172.3 318.67,-167.71 342,-163 398.45,-151.59 461.66,-136.78 510.13,-124.98"/>
<polygon fill="#16a34a" stroke="#16a34a" stroke-width="1.6" points="510.98,-127.66 518.09,-123.04 509.65,-122.21 510.98,-127.66"/>
<text text-anchor="middle" x="406" y="-159.8" font-family="Helvetica,sans-Serif" font-size="9.00" fill="#15803d"> guards 2/3</text>
</g>
<!-- m::com.android.server.content.SyncStorageEngine.readSyncStatusStatsLocked:(Landroid/util/proto/ProtoInputStream;Landroid/content/SyncStatusInfo$Stats;)V -->
<g id="node3" class="node">
<title>m::com.android.server.content.SyncStorageEngine.readSyncStatusStatsLocked:(Landroid/util/proto/ProtoInputStream;Landroid/content/SyncStatusInfo$Stats;)V</title>
<path fill="#fee2e2" stroke="#dc2626" d="M298.5,-152C298.5,-152 43.5,-152 43.5,-152 37.5,-152 31.5,-146 31.5,-140 31.5,-140 31.5,-128 31.5,-128 31.5,-122 37.5,-116 43.5,-116 43.5,-116 298.5,-116 298.5,-116 304.5,-116 310.5,-122 310.5,-128 310.5,-128 310.5,-140 310.5,-140 310.5,-146 304.5,-152 298.5,-152"/>
<text text-anchor="middle" x="171" y="-131.2" font-family="Helvetica,sans-Serif" font-size="11.00">SyncStorageEngine.readSyncStatusStatsLocked</text>
</g>
<!-- m::com.android.server.content.SyncStorageEngine.readSyncStatusStatsLocked:(Landroid/util/proto/ProtoInputStream;Landroid/content/SyncStatusInfo$Stats;)V&#45;&gt;__field__ -->
<g id="edge2" class="edge">
<title>m::com.android.server.content.SyncStorageEngine.readSyncStatusStatsLocked:(Landroid/util/proto/ProtoInputStream;Landroid/content/SyncStatusInfo$Stats;)V&#45;&gt;__field__</title>
<path fill="none" stroke="#dc2626" d="M310.61,-124.38C359.36,-121 413.89,-117.22 461.75,-113.9"/>
<polygon fill="#dc2626" stroke="#dc2626" points="462.2,-116.67 469.99,-113.33 461.81,-111.09 462.2,-116.67"/>
<text text-anchor="middle" x="406" y="-122.8" font-family="Helvetica,sans-Serif" font-size="9.00" fill="#dc2626"> writes unguarded</text>
</g>
<!-- m::com.android.server.content.SyncManager.$r8$lambda$O&#45;rCqIKduPt_pMNS4QFjC5FeAVA:(Ljava/lang/StringBuilder;Lcom/android/server/content/SyncManager$PrintTable;Ljava/lang/String;Landroid/content/SyncStatusInfo$Stats;Ljava/util/function/Function;Ljava/lang/Integer;)V -->
<g id="node4" class="node">
<title>m::com.android.server.content.SyncManager.$r8$lambda$O&#45;rCqIKduPt_pMNS4QFjC5FeAVA:(Ljava/lang/StringBuilder;Lcom/android/server/content/SyncManager$PrintTable;Ljava/lang/String;Landroid/content/SyncStatusInfo$Stats;Ljava/util/function/Function;Ljava/lang/Integer;)V</title>
<path fill="#fee2e2" stroke="#dc2626" d="M330,-94C330,-94 12,-94 12,-94 6,-94 0,-88 0,-82 0,-82 0,-70 0,-70 0,-64 6,-58 12,-58 12,-58 330,-58 330,-58 336,-58 342,-64 342,-70 342,-70 342,-82 342,-82 342,-88 336,-94 330,-94"/>
<text text-anchor="middle" x="171" y="-73.2" font-family="Helvetica,sans-Serif" font-size="11.00">SyncManager.$r8$lambda$O&#45;rCqIKduPt_pMNS4QFjC5FeAVA</text>
</g>
<!-- m::com.android.server.content.SyncManager.$r8$lambda$O&#45;rCqIKduPt_pMNS4QFjC5FeAVA:(Ljava/lang/StringBuilder;Lcom/android/server/content/SyncManager$PrintTable;Ljava/lang/String;Landroid/content/SyncStatusInfo$Stats;Ljava/util/function/Function;Ljava/lang/Integer;)V&#45;&gt;__field__ -->
<g id="edge3" class="edge">
<title>m::com.android.server.content.SyncManager.$r8$lambda$O&#45;rCqIKduPt_pMNS4QFjC5FeAVA:(Ljava/lang/StringBuilder;Lcom/android/server/content/SyncManager$PrintTable;Ljava/lang/String;Landroid/content/SyncStatusInfo$Stats;Ljava/util/function/Function;Ljava/lang/Integer;)V&#45;&gt;__field__</title>
<path fill="none" stroke="#dc2626" d="M342.02,-87.8C382,-90.57 423.97,-93.48 461.76,-96.1"/>
<polygon fill="#dc2626" stroke="#dc2626" points="461.59,-98.9 469.76,-96.66 461.98,-93.31 461.59,-98.9"/>
<text text-anchor="middle" x="406" y="-96.8" font-family="Helvetica,sans-Serif" font-size="9.00" fill="#dc2626"> reads unguarded</text>
</g>
<!-- m::com.android.server.content.SyncStorageEngine.writeStatusStatsLocked:(Landroid/util/proto/ProtoOutputStream;Landroid/content/SyncStatusInfo$Stats;)V -->
<g id="node5" class="node">
<title>m::com.android.server.content.SyncStorageEngine.writeStatusStatsLocked:(Landroid/util/proto/ProtoOutputStream;Landroid/content/SyncStatusInfo$Stats;)V</title>
<path fill="#fee2e2" stroke="#dc2626" d="M287,-36C287,-36 55,-36 55,-36 49,-36 43,-30 43,-24 43,-24 43,-12 43,-12 43,-6 49,0 55,0 55,0 287,0 287,0 293,0 299,-6 299,-12 299,-12 299,-24 299,-24 299,-30 293,-36 287,-36"/>
<text text-anchor="middle" x="171" y="-15.2" font-family="Helvetica,sans-Serif" font-size="11.00">SyncStorageEngine.writeStatusStatsLocked</text>
</g>
<!-- m::com.android.server.content.SyncStorageEngine.writeStatusStatsLocked:(Landroid/util/proto/ProtoOutputStream;Landroid/content/SyncStatusInfo$Stats;)V&#45;&gt;__field__ -->
<g id="edge4" class="edge">
<title>m::com.android.server.content.SyncStorageEngine.writeStatusStatsLocked:(Landroid/util/proto/ProtoOutputStream;Landroid/content/SyncStatusInfo$Stats;)V&#45;&gt;__field__</title>
<path fill="none" stroke="#dc2626" d="M283.74,-36.07C303.2,-39.5 323.22,-43.21 342,-47 398.45,-58.41 461.66,-73.22 510.13,-85.02"/>
<polygon fill="#dc2626" stroke="#dc2626" points="509.65,-87.79 518.09,-86.96 510.98,-82.34 509.65,-87.79"/>
<text text-anchor="middle" x="406" y="-71.8" font-family="Helvetica,sans-Serif" font-size="9.00" fill="#dc2626"> reads unguarded</text>
</g>
</g>
</svg>
