<?xml version="1.0" encoding="UTF-8" standalone="no"?>
<!DOCTYPE svg PUBLIC "-//W3C//DTD SVG 1.1//EN"
 "http://www.w3.org/Graphics/SVG/1.1/DTD/svg11.dtd">
<!-- Generated by graphviz version 2.43.0 (0)
 -->
<!-- Title: race Pages: 1 -->
<svg width="770pt" height="392pt"
 viewBox="0.00 0.00 770.00 392.00" xmlns="http://www.w3.org/2000/svg" xmlns:xlink="http://www.w3.org/1999/xlink">
<g id="graph0" class="graph" transform="scale(1 1) rotate(0) translate(4 388)">
<title>race</title>
<polygon fill="white" stroke="transparent" points="-4,4 -4,-388 766,-388 766,4 -4,4"/>
<!-- __field__ -->
<g id="node1" class="node">
<title>__field__</title>
<path fill="#fef9c3" stroke="#ca8a04" stroke-width="2" d="M750,-228C750,-228 434,-228 434,-228 428,-228 422,-222 422,-216 422,-216 422,-204 422,-204 422,-198 428,-192 434,-192 434,-192 750,-192 750,-192 756,-192 762,-198 762,-204 762,-204 762,-216 762,-216 762,-222 756,-228 750,-228"/>
<text text-anchor="middle" x="592" y="-207.2" font-family="Helvetica,sans-Serif" font-size="11.00">LaunchParamsController$LaunchParams.mWindowingMode</text>
</g>
<!-- __guard__ -->
<g id="node2" class="node">
<title>__guard__</title>
<path fill="#dcfce7" stroke="#16a34a" stroke-width="2" d="M257.5,-384C257.5,-384 36.5,-384 36.5,-384 30.5,-384 24.5,-378 24.5,-372 24.5,-372 24.5,-360 24.5,-360 24.5,-354 30.5,-348 36.5,-348 36.5,-348 257.5,-348 257.5,-348 263.5,-348 269.5,-354 269.5,-360 269.5,-360 269.5,-372 269.5,-372 269.5,-378 263.5,-384 257.5,-384"/>
<text text-anchor="middle" x="147" y="-363.2" font-family="Helvetica,sans-Serif" font-size="11.00">ActivityTaskManagerService.mGlobalLock</text>
</g>
<!-- __guard__&#45;&gt;__field__ -->
<g id="edge1" class="edge">
<title>__guard__&#45;&gt;__field__</title>
<path fill="none" stroke="#16a34a" stroke-width="1.6" d="M252.34,-348C266.46,-344.77 280.66,-341.11 294,-337 387.35,-308.25 491.16,-259.83 547.98,-231.82"/>
<polygon fill="#16a34a" stroke="#16a34a" stroke-width="1.6" points="549.42,-234.23 555.35,-228.17 546.94,-229.21 549.42,-234.23"/>
<text text-anchor="middle" x="358" y="-330.8" font-family="Helvetica,sans-Serif" font-size="9.00" fill="#15803d"> guards 13/15</text>
</g>
<!-- m::com.android.server.wm.LaunchParamsController$LaunchParams.reset:()V -->
<g id="node3" class="node">
<title>m::com.android.server.wm.LaunchParamsController$LaunchParams.reset:()V</title>
<path fill="#fee2e2" stroke="#dc2626" d="M269.5,-326C269.5,-326 24.5,-326 24.5,-326 18.5,-326 12.5,-320 12.5,-314 12.5,-314 12.5,-302 12.5,-302 12.5,-296 18.5,-290 24.5,-290 24.5,-290 269.5,-290 269.5,-290 275.5,-290 281.5,-296 281.5,-302 281.5,-302 281.5,-314 281.5,-314 281.5,-320 275.5,-326 269.5,-326"/>
<text text-anchor="middle" x="147" y="-305.2" font-family="Helvetica,sans-Serif" font-size="11.00">LaunchParamsController$LaunchParams.reset</text>
</g>
<!-- m::com.android.server.wm.LaunchParamsController$LaunchParams.reset:()V&#45;&gt;__field__ -->
<g id="edge2" class="edge">
<title>m::com.android.server.wm.LaunchParamsController$LaunchParams.reset:()V&#45;&gt;__field__</title>
<path fill="none" stroke="#dc2626" d="M251.32,-289.95C297.03,-281.55 351.34,-270.99 400,-260 439.32,-251.12 482.82,-239.85 518.37,-230.25"/>
<polygon fill="#dc2626" stroke="#dc2626" points="519.3,-232.9 526.29,-228.11 517.84,-227.5 519.3,-232.9"/>
<text text-anchor="middle" x="358" y="-279.8" font-family="Helvetica,sans-Serif" font-size="9.00" fill="#dc2626"> writes unguarded</text>
</g>
<!-- m::com.android.server.wm.LaunchParamsController$LaunchParams.set:(Lcom/android/server/wm/LaunchParamsController$LaunchParams;)V -->
<g id="node4" class="node">
<title>m::com.android.server.wm.LaunchParamsController$LaunchParams.set:(Lcom/android/server/wm/LaunchParamsController$LaunchParams;)V</title>
<path fill="#fee2e2" stroke="#dc2626" d="M263.5,-268C263.5,-268 30.5,-268 30.5,-268 24.5,-268 18.5,-262 18.5,-256 18.5,-256 18.5,-244 18.5,-244 18.5,-238 24.5,-232 30.5,-232 30.5,-232 263.5,-232 263.5,-232 269.5,-232 275.5,-238 275.5,-244 275.5,-244 275.5,-256 275.5,-256 275.5,-262 269.5,-268 263.5,-268"/>
<text text-anchor="middle" x="147" y="-247.2" font-family="Helvetica,sans-Serif" font-size="11.00">LaunchParamsController$LaunchParams.set</text>
</g>
<!-- m::com.android.server.wm.LaunchParamsController$LaunchParams.set:(Lcom/android/server/wm/LaunchParamsController$LaunchParams;)V&#45;&gt;__field__ -->
<g id="edge3" class="edge">
<title>m::com.android.server.wm.LaunchParamsController$LaunchParams.set:(Lcom/android/server/wm/LaunchParamsController$LaunchParams;)V&#45;&gt;__field__</title>
<path fill="none" stroke="#dc2626" d="M275.75,-247.81C315.61,-246.35 359.69,-243.95 400,-240 426.91,-237.36 455.79,-233.41 482.75,-229.24"/>
<polygon fill="#dc2626" stroke="#dc2626" points="483.2,-232 490.67,-228 482.33,-226.47 483.2,-232"/>
<text text-anchor="middle" x="358" y="-247.8" font-family="Helvetica,sans-Serif" font-size="9.00" fill="#dc2626"> writes unguarded</text>
</g>
<!-- m::com.android.server.wm.LaunchParamsController$LaunchParams.set:(Lcom/android/server/wm/LaunchParamsController$LaunchParams;)V&#45;&gt;__field__ -->
<g id="edge6" class="edge">
<title>m::com.android.server.wm.LaunchParamsController$LaunchParams.set:(Lcom/android/server/wm/LaunchParamsController$LaunchParams;)V&#45;&gt;__field__</title>
<path fill="none" stroke="#dc2626" d="M275.88,-233.27C289.41,-231.72 302.98,-230.26 316,-229 347.51,-225.94 381.09,-223.2 413.58,-220.81"/>
<polygon fill="#dc2626" stroke="#dc2626" points="414.03,-223.58 421.81,-220.21 413.63,-218 414.03,-223.58"/>
<text text-anchor="middle" x="358" y="-231.8" font-family="Helvetica,sans-Serif" font-size="9.00" fill="#dc2626"> reads unguarded</text>
</g>
<!-- m::com.android.server.wm.LaunchParamsController$LaunchParams.equals:(Ljava/lang/Object;)Z -->
<g id="node5" class="node">
<title>m::com.android.server.wm.LaunchParamsController$LaunchParams.equals:(Ljava/lang/Object;)Z</title>
<path fill="#fee2e2" stroke="#dc2626" d="M273,-210C273,-210 21,-210 21,-210 15,-210 9,-204 9,-198 9,-198 9,-186 9,-186 9,-180 15,-174 21,-174 21,-174 273,-174 273,-174 279,-174 285,-180 285,-186 285,-186 285,-198 285,-198 285,-204 279,-210 273,-210"/>
<text text-anchor="middle" x="147" y="-189.2" font-family="Helvetica,sans-Serif" font-size="11.00">LaunchParamsController$LaunchParams.equals</text>
</g>
<!-- m::com.android.server.wm.LaunchParamsController$LaunchParams.equals:(Ljava/lang/Object;)Z&#45;&gt;__field__ -->
<g id="edge4" class="edge">
<title>m::com.android.server.wm.LaunchParamsController$LaunchParams.equals:(Ljava/lang/Object;)Z&#45;&gt;__field__</title>
<path fill="none" stroke="#dc2626" d="M285.05,-189.66C322.36,-189.66 362.74,-190.25 400,-192 404.47,-192.21 409,-192.45 413.56,-192.71"/>
<polygon fill="#dc2626" stroke="#dc2626" points="413.67,-195.52 421.82,-193.21 414,-189.93 413.67,-195.52"/>
<text text-anchor="middle" x="358" y="-194.8" font-family="Helvetica,sans-Serif" font-size="9.00" fill="#dc2626"> reads unguarded</text>
</g>
<!-- m::com.android.server.wm.LaunchParamsController$LaunchParams.hashCode:()I -->
<g id="node6" class="node">
<title>m::com.android.server.wm.LaunchParamsController$LaunchParams.hashCode:()I</title>
<path fill="#fee2e2" stroke="#dc2626" d="M282,-152C282,-152 12,-152 12,-152 6,-152 0,-146 0,-140 0,-140 0,-128 0,-128 0,-122 6,-116 12,-116 12,-116 282,-116 282,-116 288,-116 294,-122 294,-128 294,-128 294,-140 294,-140 294,-146 288,-152 282,-152"/>
<text text-anchor="middle" x="147" y="-131.2" font-family="Helvetica,sans-Serif" font-size="11.00">LaunchParamsController$LaunchParams.hashCode</text>
</g>
<!-- m::com.android.server.wm.LaunchParamsController$LaunchParams.hashCode:()I&#45;&gt;__field__ -->
<g id="edge5" class="edge">
<title>m::com.android.server.wm.LaunchParamsController$LaunchParams.hashCode:()I&#45;&gt;__field__</title>
<path fill="none" stroke="#dc2626" d="M266.06,-152.02C308.36,-158.66 356.35,-166.42 400,-174 429.33,-179.09 461.12,-184.95 490.2,-190.44"/>
<polygon fill="#dc2626" stroke="#dc2626" points="489.94,-193.24 498.32,-191.97 490.98,-187.74 489.94,-193.24"/>
<text text-anchor="middle" x="358" y="-176.8" font-family="Helvetica,sans-Serif" font-size="9.00" fill="#dc2626"> reads unguarded</text>
</g>
<!-- m::com.android.server.wm.RootWindowContainer.getOrCreateRootTask:(Lcom/android/server/wm/ActivityRecord;Landroid/app/ActivityOptions;Lcom/android/server/wm/Task;Lcom/android/server/wm/Task;ZLcom/android/server/wm/LaunchParamsController$LaunchParams;I)Lcom/android/server/wm/Task; -->
<g id="node7" class="node">
<title>m::com.android.server.wm.RootWindowContainer.getOrCreateRootTask:(Lcom/android/server/wm/ActivityRecord;Landroid/app/ActivityOptions;Lcom/android/server/wm/Task;Lcom/android/server/wm/Task;ZLcom/android/server/wm/LaunchParamsController$LaunchParams;I)Lcom/android/server/wm/Task;</title>
<path fill="#fee2e2" stroke="#dc2626" d="M264.5,-94C264.5,-94 29.5,-94 29.5,-94 23.5,-94 17.5,-88 17.5,-82 17.5,-82 17.5,-70 17.5,-70 17.5,-64 23.5,-58 29.5,-58 29.5,-58 264.5,-58 264.5,-58 270.5,-58 276.5,-64 276.5,-70 276.5,-70 276.5,-82 276.5,-82 276.5,-88 270.5,-94 264.5,-94"/>
<text text-anchor="middle" x="147" y="-73.2" font-family="Helvetica,sans-Serif" font-size="11.00">RootWindowContainer.getOrCreateRootTask</text>
</g>
<!-- m::com.android.server.wm.RootWindowContainer.getOrCreateRootTask:(Lcom/android/server/wm/ActivityRecord;Landroid/app/ActivityOptions;Lcom/android/server/wm/Task;Lcom/android/server/wm/Task;ZLcom/android/server/wm/LaunchParamsController$LaunchParams;I)Lcom/android/server/wm/Task;&#45;&gt;__field__ -->
<g id="edge7" class="edge">
<title>m::com.android.server.wm.RootWindowContainer.getOrCreateRootTask:(Lcom/android/server/wm/ActivityRecord;Landroid/app/ActivityOptions;Lcom/android/server/wm/Task;Lcom/android/server/wm/Task;ZLcom/android/server/wm/LaunchParamsController$LaunchParams;I)Lcom/android/server/wm/Task;&#45;&gt;__field__</title>
<path fill="none" stroke="#dc2626" d="M248.58,-94C263.88,-97.31 279.42,-101 294,-105 381.32,-128.97 479.92,-165.86 538.69,-188.92"/>
<polygon fill="#dc2626" stroke="#dc2626" points="537.89,-191.62 546.36,-191.94 539.94,-186.41 537.89,-191.62"/>
<text text-anchor="middle" x="358" y="-137.8" font-family="Helvetica,sans-Serif" font-size="9.00" fill="#dc2626"> reads unguarded</text>
</g>
<!-- m::com.android.server.wm.TaskDisplayArea.getOrCreateRootTask:(Lcom/android/server/wm/ActivityRecord;Landroid/app/ActivityOptions;Lcom/android/server/wm/Task;Lcom/android/server/wm/Task;Lcom/android/server/wm/LaunchParamsController$LaunchParams;IIZ)Lcom/android/server/wm/Task; -->
<g id="node8" class="node">
<title>m::com.android.server.wm.TaskDisplayArea.getOrCreateRootTask:(Lcom/android/server/wm/ActivityRecord;Landroid/app/ActivityOptions;Lcom/android/server/wm/Task;Lcom/android/server/wm/Task;Lcom/android/server/wm/LaunchParamsController$LaunchParams;IIZ)Lcom/android/server/wm/Task;</title>
<path fill="#fee2e2" stroke="#dc2626" d="M249,-36C249,-36 45,-36 45,-36 39,-36 33,-30 33,-24 33,-24 33,-12 33,-12 33,-6 39,0 45,0 45,0 249,0 249,0 255,0 261,-6 261,-12 261,-12 261,-24 261,-24 261,-30 255,-36 249,-36"/>
<text text-anchor="middle" x="147" y="-15.2" font-family="Helvetica,sans-Serif" font-size="11.00">TaskDisplayArea.getOrCreateRootTask</text>
</g>
<!-- m::com.android.server.wm.TaskDisplayArea.getOrCreateRootTask:(Lcom/android/server/wm/ActivityRecord;Landroid/app/ActivityOptions;Lcom/android/server/wm/Task;Lcom/android/server/wm/Task;Lcom/android/server/wm/LaunchParamsController$LaunchParams;IIZ)Lcom/android/server/wm/Task;&#45;&gt;__field__ -->
<g id="edge8" class="edge">
<title>m::com.android.server.wm.TaskDisplayArea.getOrCreateRootTask:(Lcom/android/server/wm/ActivityRecord;Landroid/app/ActivityOptions;Lcom/android/server/wm/Task;Lcom/android/server/wm/Task;Lcom/android/server/wm/LaunchParamsController$LaunchParams;IIZ)Lcom/android/server/wm/Task;&#45;&gt;__field__</title>
<path fill="none" stroke="#dc2626" d="M254.42,-36.07C267.87,-39.25 281.34,-42.88 294,-47 397.58,-80.7 506.72,-150.94 559.17,-187.22"/>
<polygon fill="#dc2626" stroke="#dc2626" points="557.72,-189.62 565.89,-191.89 560.92,-185.03 557.72,-189.62"/>
<text text-anchor="middle" x="358" y="-92.8" font-family="Helvetica,sans-Serif" font-size="9.00" fill="#dc2626"> reads unguarded</text>
</g>
</g>
</svg>
