<?xml version="1.0" encoding="UTF-8" standalone="no"?>
<!DOCTYPE svg PUBLIC "-//W3C//DTD SVG 1.1//EN"
 "http://www.w3.org/Graphics/SVG/1.1/DTD/svg11.dtd">
<!-- Generated by graphviz version 2.43.0 (0)
 -->
<!-- Title: race Pages: 1 -->
<svg width="716pt" height="624pt"
 viewBox="0.00 0.00 716.00 623.55" xmlns="http://www.w3.org/2000/svg" xmlns:xlink="http://www.w3.org/1999/xlink">
<g id="graph0" class="graph" transform="scale(1 1) rotate(0) translate(4 619.55)">
<title>race</title>
<polygon fill="white" stroke="transparent" points="-4,4 -4,-619.55 712,-619.55 712,4 -4,4"/>
<!-- __field__ -->
<g id="node1" class="node">
<title>__field__</title>
<path fill="#fef9c3" stroke="#ca8a04" stroke-width="2" d="M696,-319.55C696,-319.55 479,-319.55 479,-319.55 473,-319.55 467,-313.55 467,-307.55 467,-307.55 467,-295.55 467,-295.55 467,-289.55 473,-283.55 479,-283.55 479,-283.55 696,-283.55 696,-283.55 702,-283.55 708,-289.55 708,-295.55 708,-295.55 708,-307.55 708,-307.55 708,-313.55 702,-319.55 696,-319.55"/>
<text text-anchor="middle" x="587.5" y="-298.75" font-family="Helvetica,sans-Serif" font-size="11.00">BroadcastQueueImpl.mRunningColdStart</text>
</g>
<!-- __guard__ -->
<g id="node2" class="node">
<title>__guard__</title>
<path fill="#dcfce7" stroke="#16a34a" stroke-width="2" d="M239,-615.55C239,-615.55 100,-615.55 100,-615.55 94,-615.55 88,-609.55 88,-603.55 88,-603.55 88,-591.55 88,-591.55 88,-585.55 94,-579.55 100,-579.55 100,-579.55 239,-579.55 239,-579.55 245,-579.55 251,-585.55 251,-591.55 251,-591.55 251,-603.55 251,-603.55 251,-609.55 245,-615.55 239,-615.55"/>
<text text-anchor="middle" x="169.5" y="-594.75" font-family="Helvetica,sans-Serif" font-size="11.00">BroadcastQueue.mService</text>
</g>
<!-- __guard__&#45;&gt;__field__ -->
<g id="edge1" class="edge">
<title>__guard__&#45;&gt;__field__</title>
<path fill="none" stroke="#16a34a" stroke-width="1.6" d="M251.13,-609.18C309.73,-613.33 388.37,-609.58 445,-571.55 532.14,-513.05 569.19,-383.16 581.46,-327.59"/>
<polygon fill="#16a34a" stroke="#16a34a" stroke-width="1.6" points="584.22,-328.05 583.16,-319.64 578.75,-326.88 584.22,-328.05"/>
<text text-anchor="middle" x="403" y="-606.35" font-family="Helvetica,sans-Serif" font-size="9.00" fill="#15803d"> guards 5/7</text>
</g>
<!-- m::com.android.server.am.BroadcastQueueImpl.clearRunningColdStart:()V -->
<g id="node3" class="node">
<title>m::com.android.server.am.BroadcastQueueImpl.clearRunningColdStart:()V</title>
<path fill="#fee2e2" stroke="#dc2626" d="M286,-541.55C286,-541.55 53,-541.55 53,-541.55 47,-541.55 41,-535.55 41,-529.55 41,-529.55 41,-517.55 41,-517.55 41,-511.55 47,-505.55 53,-505.55 53,-505.55 286,-505.55 286,-505.55 292,-505.55 298,-511.55 298,-517.55 298,-517.55 298,-529.55 298,-529.55 298,-535.55 292,-541.55 286,-541.55"/>
<text text-anchor="middle" x="169.5" y="-520.75" font-family="Helvetica,sans-Serif" font-size="11.00">BroadcastQueueImpl.clearRunningColdStart</text>
</g>
<!-- m::com.android.server.am.BroadcastQueueImpl.clearRunningColdStart:()V&#45;&gt;__field__ -->
<g id="edge2" class="edge">
<title>m::com.android.server.am.BroadcastQueueImpl.clearRunningColdStart:()V&#45;&gt;__field__</title>
<path fill="none" stroke="#dc2626" d="M224.7,-541.58C283.06,-557.56 376.73,-572.97 445,-534.55 525.29,-489.38 565.29,-378.18 579.85,-327.49"/>
<polygon fill="#dc2626" stroke="#dc2626" points="582.6,-328.07 582.05,-319.61 577.2,-326.56 582.6,-328.07"/>
<text text-anchor="middle" x="403" y="-559.35" font-family="Helvetica,sans-Serif" font-size="9.00" fill="#dc2626"> writes unguarded</text>
</g>
<!-- m::com.android.server.am.BroadcastQueueImpl.clearRunningColdStart:()V&#45;&gt;__field__ -->
<g id="edge10" class="edge">
<title>m::com.android.server.am.BroadcastQueueImpl.clearRunningColdStart:()V&#45;&gt;__field__</title>
<path fill="none" stroke="#dc2626" d="M298.03,-521.49C357.17,-518.54 419.87,-511.94 445,-497.55 513.58,-458.29 557.82,-370.76 576.43,-327.2"/>
<polygon fill="#dc2626" stroke="#dc2626" points="579.1,-328.06 579.61,-319.6 573.94,-325.9 579.1,-328.06"/>
<text text-anchor="middle" x="403" y="-519.35" font-family="Helvetica,sans-Serif" font-size="9.00" fill="#dc2626"> reads unguarded</text>
</g>
<!-- m::com.android.server.am.BroadcastQueueImpl.clearRunningColdStart:()V&#45;&gt;__field__ -->
<g id="edge11" class="edge">
<title>m::com.android.server.am.BroadcastQueueImpl.clearRunningColdStart:()V&#45;&gt;__field__</title>
<path fill="none" stroke="#dc2626" d="M286.35,-505.54C338.04,-493.59 397.78,-474.07 445,-442.55 494.82,-409.3 541.82,-356.74 567.13,-326.06"/>
<polygon fill="#dc2626" stroke="#dc2626" points="569.31,-327.82 572.2,-319.86 564.97,-324.28 569.31,-327.82"/>
<text text-anchor="middle" x="403" y="-486.35" font-family="Helvetica,sans-Serif" font-size="9.00" fill="#dc2626"> reads unguarded</text>
</g>
<!-- m::com.android.server.am.BroadcastQueueImpl.onApplicationAttachedLocked:(Lcom/android/server/am/ProcessRecord;)Z -->
<g id="node4" class="node">
<title>m::com.android.server.am.BroadcastQueueImpl.onApplicationAttachedLocked:(Lcom/android/server/am/ProcessRecord;)Z</title>
<path fill="#fee2e2" stroke="#dc2626" d="M306,-475.55C306,-475.55 33,-475.55 33,-475.55 27,-475.55 21,-469.55 21,-463.55 21,-463.55 21,-451.55 21,-451.55 21,-445.55 27,-439.55 33,-439.55 33,-439.55 306,-439.55 306,-439.55 312,-439.55 318,-445.55 318,-451.55 318,-451.55 318,-463.55 318,-463.55 318,-469.55 312,-475.55 306,-475.55"/>
<text text-anchor="middle" x="169.5" y="-454.75" font-family="Helvetica,sans-Serif" font-size="11.00">BroadcastQueueImpl.onApplicationAttachedLocked</text>
</g>
<!-- m::com.android.server.am.BroadcastQueueImpl.onApplicationAttachedLocked:(Lcom/android/server/am/ProcessRecord;)Z&#45;&gt;__field__ -->
<g id="edge3" class="edge">
<title>m::com.android.server.am.BroadcastQueueImpl.onApplicationAttachedLocked:(Lcom/android/server/am/ProcessRecord;)Z&#45;&gt;__field__</title>
<path fill="none" stroke="#dc2626" d="M316.25,-439.54C359.04,-430.89 405.05,-418.19 445,-399.55 487.87,-379.56 531.83,-346.82 559.14,-324.74"/>
<polygon fill="#dc2626" stroke="#dc2626" points="560.95,-326.88 565.38,-319.65 557.41,-322.54 560.95,-326.88"/>
<text text-anchor="middle" x="403" y="-430.35" font-family="Helvetica,sans-Serif" font-size="9.00" fill="#dc2626"> writes unguarded</text>
</g>
<!-- m::com.android.server.am.BroadcastQueueImpl.checkPendingColdStartValidityLocked:()V -->
<g id="node5" class="node">
<title>m::com.android.server.am.BroadcastQueueImpl.checkPendingColdStartValidityLocked:()V</title>
<path fill="#fee2e2" stroke="#dc2626" d="M327,-417.55C327,-417.55 12,-417.55 12,-417.55 6,-417.55 0,-411.55 0,-405.55 0,-405.55 0,-393.55 0,-393.55 0,-387.55 6,-381.55 12,-381.55 12,-381.55 327,-381.55 327,-381.55 333,-381.55 339,-387.55 339,-393.55 339,-393.55 339,-405.55 339,-405.55 339,-411.55 333,-417.55 327,-417.55"/>
<text text-anchor="middle" x="169.5" y="-396.75" font-family="Helvetica,sans-Serif" font-size="11.00">BroadcastQueueImpl.checkPendingColdStartValidityLocked</text>
</g>
<!-- m::com.android.server.am.BroadcastQueueImpl.checkPendingColdStartValidityLocked:()V&#45;&gt;__field__ -->
<g id="edge4" class="edge">
<title>m::com.android.server.am.BroadcastQueueImpl.checkPendingColdStartValidityLocked:()V&#45;&gt;__field__</title>
<path fill="none" stroke="#dc2626" d="M339.11,-388.52C374.5,-383.81 411.3,-377.11 445,-367.55 481.51,-357.21 520.4,-338.44 548.15,-323.56"/>
<polygon fill="#dc2626" stroke="#dc2626" points="549.62,-325.94 555.32,-319.67 546.95,-321.02 549.62,-325.94"/>
<text text-anchor="middle" x="403" y="-387.35" font-family="Helvetica,sans-Serif" font-size="9.00" fill="#dc2626"> reads unguarded</text>
</g>
<!-- m::com.android.server.am.BroadcastQueueImpl.clearInvalidPendingColdStart:()V -->
<g id="node6" class="node">
<title>m::com.android.server.am.BroadcastQueueImpl.clearInvalidPendingColdStart:()V</title>
<path fill="#fee2e2" stroke="#dc2626" d="M303.5,-319.55C303.5,-319.55 35.5,-319.55 35.5,-319.55 29.5,-319.55 23.5,-313.55 23.5,-307.55 23.5,-307.55 23.5,-295.55 23.5,-295.55 23.5,-289.55 29.5,-283.55 35.5,-283.55 35.5,-283.55 303.5,-283.55 303.5,-283.55 309.5,-283.55 315.5,-289.55 315.5,-295.55 315.5,-295.55 315.5,-307.55 315.5,-307.55 315.5,-313.55 309.5,-319.55 303.5,-319.55"/>
<text text-anchor="middle" x="169.5" y="-298.75" font-family="Helvetica,sans-Serif" font-size="11.00">BroadcastQueueImpl.clearInvalidPendingColdStart</text>
</g>
<!-- m::com.android.server.am.BroadcastQueueImpl.clearInvalidPendingColdStart:()V&#45;&gt;__field__ -->
<g id="edge5" class="edge">
<title>m::com.android.server.am.BroadcastQueueImpl.clearInvalidPendingColdStart:()V&#45;&gt;__field__</title>
<path fill="none" stroke="#dc2626" d="M218.06,-319.69C272.76,-338.27 365.28,-362.71 445,-349.55 476.57,-344.35 510.56,-333.02 537.31,-322.67"/>
<polygon fill="#dc2626" stroke="#dc2626" points="538.59,-325.18 545.01,-319.64 536.54,-319.97 538.59,-325.18"/>
<text text-anchor="middle" x="403" y="-355.35" font-family="Helvetica,sans-Serif" font-size="9.00" fill="#dc2626"> reads unguarded</text>
</g>
<!-- m::com.android.server.am.BroadcastQueueImpl.clearInvalidPendingColdStart:()V&#45;&gt;__field__ -->
<g id="edge6" class="edge">
<title>m::com.android.server.am.BroadcastQueueImpl.clearInvalidPendingColdStart:()V&#45;&gt;__field__</title>
<path fill="none" stroke="#dc2626" d="M315.81,-311.65C357.52,-313.39 403.06,-314.18 445,-312.55 449.46,-312.38 454,-312.18 458.59,-311.95"/>
<polygon fill="#dc2626" stroke="#dc2626" points="459.04,-314.73 466.88,-311.51 458.74,-309.14 459.04,-314.73"/>
<text text-anchor="middle" x="403" y="-315.35" font-family="Helvetica,sans-Serif" font-size="9.00" fill="#dc2626"> reads unguarded</text>
</g>
<!-- m::com.android.server.am.BroadcastQueueImpl.clearInvalidPendingColdStart:()V&#45;&gt;__field__ -->
<g id="edge7" class="edge">
<title>m::com.android.server.am.BroadcastQueueImpl.clearInvalidPendingColdStart:()V&#45;&gt;__field__</title>
<path fill="none" stroke="#dc2626" d="M315.7,-301.55C362.25,-301.55 413.42,-301.55 458.64,-301.55"/>
<polygon fill="#dc2626" stroke="#dc2626" points="458.71,-304.36 466.71,-301.55 458.71,-298.76 458.71,-304.36"/>
<text text-anchor="middle" x="403" y="-304.35" font-family="Helvetica,sans-Serif" font-size="9.00" fill="#dc2626"> reads unguarded</text>
</g>
<!-- m::com.android.server.am.BroadcastQueueImpl.clearInvalidPendingColdStart:()V&#45;&gt;__field__ -->
<g id="edge8" class="edge">
<title>m::com.android.server.am.BroadcastQueueImpl.clearInvalidPendingColdStart:()V&#45;&gt;__field__</title>
<path fill="none" stroke="#dc2626" d="M315.8,-287.79C357.52,-285.42 403.06,-284.34 445,-286.55 449.47,-286.79 454.02,-287.07 458.61,-287.38"/>
<polygon fill="#dc2626" stroke="#dc2626" points="458.73,-290.2 466.91,-287.98 459.13,-284.61 458.73,-290.2"/>
<text text-anchor="middle" x="403" y="-289.35" font-family="Helvetica,sans-Serif" font-size="9.00" fill="#dc2626"> reads unguarded</text>
</g>
<!-- m::com.android.server.am.BroadcastQueueImpl.clearInvalidPendingColdStart:()V&#45;&gt;__field__ -->
<g id="edge9" class="edge">
<title>m::com.android.server.am.BroadcastQueueImpl.clearInvalidPendingColdStart:()V&#45;&gt;__field__</title>
<path fill="none" stroke="#dc2626" d="M245.92,-283.5C301.05,-272.55 377.65,-262.03 445,-269.55 467.29,-272.04 491.2,-276.67 512.9,-281.66"/>
<polygon fill="#dc2626" stroke="#dc2626" points="512.36,-284.4 520.79,-283.5 513.64,-278.95 512.36,-284.4"/>
<text text-anchor="middle" x="403" y="-272.35" font-family="Helvetica,sans-Serif" font-size="9.00" fill="#dc2626"> reads unguarded</text>
</g>
<!-- m::com.android.server.am.BroadcastQueueImpl.demoteFromRunningLocked:(Lcom/android/server/am/BroadcastProcessQueue;)V -->
<g id="node7" class="node">
<title>m::com.android.server.am.BroadcastQueueImpl.demoteFromRunningLocked:(Lcom/android/server/am/BroadcastProcessQueue;)V</title>
<path fill="#fee2e2" stroke="#dc2626" d="M301,-200.55C301,-200.55 38,-200.55 38,-200.55 32,-200.55 26,-194.55 26,-188.55 26,-188.55 26,-176.55 26,-176.55 26,-170.55 32,-164.55 38,-164.55 38,-164.55 301,-164.55 301,-164.55 307,-164.55 313,-170.55 313,-176.55 313,-176.55 313,-188.55 313,-188.55 313,-194.55 307,-200.55 301,-200.55"/>
<text text-anchor="middle" x="169.5" y="-179.75" font-family="Helvetica,sans-Serif" font-size="11.00">BroadcastQueueImpl.demoteFromRunningLocked</text>
</g>
<!-- m::com.android.server.am.BroadcastQueueImpl.demoteFromRunningLocked:(Lcom/android/server/am/BroadcastProcessQueue;)V&#45;&gt;__field__ -->
<g id="edge12" class="edge">
<title>m::com.android.server.am.BroadcastQueueImpl.demoteFromRunningLocked:(Lcom/android/server/am/BroadcastProcessQueue;)V&#45;&gt;__field__</title>
<path fill="none" stroke="#dc2626" d="M250.62,-200.61C305.65,-213.52 380.2,-232.01 445,-251.55 473.83,-260.25 505.48,-271.29 531.51,-280.78"/>
<polygon fill="#dc2626" stroke="#dc2626" points="530.58,-283.42 539.05,-283.54 532.5,-278.16 530.58,-283.42"/>
<text text-anchor="middle" x="403" y="-254.35" font-family="Helvetica,sans-Serif" font-size="9.00" fill="#dc2626"> reads unguarded</text>
</g>
<!-- m::com.android.server.am.BroadcastQueueImpl.demoteFromRunningLocked:(Lcom/android/server/am/BroadcastProcessQueue;)V&#45;&gt;__field__ -->
<g id="edge13" class="edge">
<title>m::com.android.server.am.BroadcastQueueImpl.demoteFromRunningLocked:(Lcom/android/server/am/BroadcastProcessQueue;)V&#45;&gt;__field__</title>
<path fill="none" stroke="#dc2626" d="M313.2,-185.89C356.44,-190.14 403.46,-198.09 445,-212.55 487.7,-227.43 530.83,-257.16 558.06,-278.16"/>
<polygon fill="#dc2626" stroke="#dc2626" points="556.6,-280.57 564.63,-283.29 560.05,-276.16 556.6,-280.57"/>
<text text-anchor="middle" x="403" y="-215.35" font-family="Helvetica,sans-Serif" font-size="9.00" fill="#dc2626"> reads unguarded</text>
</g>
<!-- m::com.android.server.am.BroadcastQueueImpl.dumpProcessQueues:(Landroid/util/IndentingPrintWriter;J)V -->
<g id="node8" class="node">
<title>m::com.android.server.am.BroadcastQueueImpl.dumpProcessQueues:(Landroid/util/IndentingPrintWriter;J)V</title>
<path fill="#fee2e2" stroke="#dc2626" d="M283,-134.55C283,-134.55 56,-134.55 56,-134.55 50,-134.55 44,-128.55 44,-122.55 44,-122.55 44,-110.55 44,-110.55 44,-104.55 50,-98.55 56,-98.55 56,-98.55 283,-98.55 283,-98.55 289,-98.55 295,-104.55 295,-110.55 295,-110.55 295,-122.55 295,-122.55 295,-128.55 289,-134.55 283,-134.55"/>
<text text-anchor="middle" x="169.5" y="-113.75" font-family="Helvetica,sans-Serif" font-size="11.00">BroadcastQueueImpl.dumpProcessQueues</text>
</g>
<!-- m::com.android.server.am.BroadcastQueueImpl.dumpProcessQueues:(Landroid/util/IndentingPrintWriter;J)V&#45;&gt;__field__ -->
<g id="edge14" class="edge">
<title>m::com.android.server.am.BroadcastQueueImpl.dumpProcessQueues:(Landroid/util/IndentingPrintWriter;J)V&#45;&gt;__field__</title>
<path fill="none" stroke="#dc2626" d="M295.29,-130.65C343.9,-139.57 398.89,-154.07 445,-177.55 494.25,-202.64 540.21,-248.74 565.72,-277.11"/>
<polygon fill="#dc2626" stroke="#dc2626" points="563.74,-279.1 571.14,-283.23 567.93,-275.38 563.74,-279.1"/>
<text text-anchor="middle" x="403" y="-180.35" font-family="Helvetica,sans-Serif" font-size="9.00" fill="#dc2626"> reads unguarded</text>
</g>
<!-- m::com.android.server.am.BroadcastQueueImpl.isPendingColdStartValid:()Z -->
<g id="node9" class="node">
<title>m::com.android.server.am.BroadcastQueueImpl.isPendingColdStartValid:()Z</title>
<path fill="#fee2e2" stroke="#dc2626" d="M289.5,-60.55C289.5,-60.55 49.5,-60.55 49.5,-60.55 43.5,-60.55 37.5,-54.55 37.5,-48.55 37.5,-48.55 37.5,-36.55 37.5,-36.55 37.5,-30.55 43.5,-24.55 49.5,-24.55 49.5,-24.55 289.5,-24.55 289.5,-24.55 295.5,-24.55 301.5,-30.55 301.5,-36.55 301.5,-36.55 301.5,-48.55 301.5,-48.55 301.5,-54.55 295.5,-60.55 289.5,-60.55"/>
<text text-anchor="middle" x="169.5" y="-39.75" font-family="Helvetica,sans-Serif" font-size="11.00">BroadcastQueueImpl.isPendingColdStartValid</text>
</g>
<!-- m::com.android.server.am.BroadcastQueueImpl.isPendingColdStartValid:()Z&#45;&gt;__field__ -->
<g id="edge15" class="edge">
<title>m::com.android.server.am.BroadcastQueueImpl.isPendingColdStartValid:()Z&#45;&gt;__field__</title>
<path fill="none" stroke="#dc2626" d="M277.95,-60.62C331.94,-73.66 396.1,-95.52 445,-131.55 500.79,-172.66 548.24,-240.3 571.39,-276.63"/>
<polygon fill="#dc2626" stroke="#dc2626" points="569.05,-278.18 575.68,-283.46 573.79,-275.2 569.05,-278.18"/>
<text text-anchor="middle" x="403" y="-134.35" font-family="Helvetica,sans-Serif" font-size="9.00" fill="#dc2626"> reads unguarded</text>
</g>
<!-- m::com.android.server.am.BroadcastQueueImpl.isPendingColdStartValid:()Z&#45;&gt;__field__ -->
<g id="edge16" class="edge">
<title>m::com.android.server.am.BroadcastQueueImpl.isPendingColdStartValid:()Z&#45;&gt;__field__</title>
<path fill="none" stroke="#dc2626" d="M301.65,-33C349.88,-35.27 402.94,-45.05 445,-71.55 521.65,-119.85 563.21,-226.29 578.98,-275.57"/>
<polygon fill="#dc2626" stroke="#dc2626" points="576.32,-276.45 581.37,-283.25 581.66,-274.78 576.32,-276.45"/>
<text text-anchor="middle" x="403" y="-74.35" font-family="Helvetica,sans-Serif" font-size="9.00" fill="#dc2626"> reads unguarded</text>
</g>
<!-- m::com.android.server.am.BroadcastQueueImpl.isPendingColdStartValid:()Z&#45;&gt;__field__ -->
<g id="edge17" class="edge">
<title>m::com.android.server.am.BroadcastQueueImpl.isPendingColdStartValid:()Z&#45;&gt;__field__</title>
<path fill="none" stroke="#dc2626" d="M216.13,-24.5C273.95,-4.81 374.53,18.58 445,-24.55 536.97,-80.85 571.56,-217.85 582.32,-275.41"/>
<polygon fill="#dc2626" stroke="#dc2626" points="579.57,-275.93 583.74,-283.3 585.08,-274.93 579.57,-275.93"/>
<text text-anchor="middle" x="403" y="-27.35" font-family="Helvetica,sans-Serif" font-size="9.00" fill="#dc2626"> reads unguarded</text>
</g>
</g>
</svg>
