<?xml version="1.0" encoding="UTF-8" standalone="no"?>
<!DOCTYPE svg PUBLIC "-//W3C//DTD SVG 1.1//EN"
 "http://www.w3.org/Graphics/SVG/1.1/DTD/svg11.dtd">
<!-- Generated by graphviz version 2.43.0 (0)
 -->
<!-- Title: race Pages: 1 -->
<svg width="696pt" height="192pt"
 viewBox="0.00 0.00 696.00 192.00" xmlns="http://www.w3.org/2000/svg" xmlns:xlink="http://www.w3.org/1999/xlink">
<g id="graph0" class="graph" transform="scale(1 1) rotate(0) translate(4 188)">
<title>race</title>
<polygon fill="white" stroke="transparent" points="-4,4 -4,-188 692,-188 692,4 -4,4"/>
<!-- __field__ -->
<g id="node1" class="node">
<title>__field__</title>
<path fill="#fef9c3" stroke="#ca8a04" stroke-width="2" d="M676,-110C676,-110 424,-110 424,-110 418,-110 412,-104 412,-98 412,-98 412,-86 412,-86 412,-80 418,-74 424,-74 424,-74 676,-74 676,-74 682,-74 688,-80 688,-86 688,-86 688,-98 688,-98 688,-104 682,-110 676,-110"/>
<text text-anchor="middle" x="550" y="-89.2" font-family="Helvetica,sans-Serif" font-size="11.00">AccessibilityWindowManager.mActiveWindowId</text>
</g>
<!-- __guard__ -->
<g id="node2" class="node">
<title>__guard__</title>
<path fill="#dcfce7" stroke="#16a34a" stroke-width="2" d="M237,-184C237,-184 47,-184 47,-184 41,-184 35,-178 35,-172 35,-172 35,-160 35,-160 35,-154 41,-148 47,-148 47,-148 237,-148 237,-148 243,-148 249,-154 249,-160 249,-160 249,-172 249,-172 249,-178 243,-184 237,-184"/>
<text text-anchor="middle" x="142" y="-163.2" font-family="Helvetica,sans-Serif" font-size="11.00">AccessibilityWindowManager.mLock</text>
</g>
<!-- __guard__&#45;&gt;__field__ -->
<g id="edge1" class="edge">
<title>__guard__&#45;&gt;__field__</title>
<path fill="none" stroke="#16a34a" stroke-width="1.6" d="M241.8,-147.99C302.46,-136.94 380.16,-122.77 442.23,-111.46"/>
<polygon fill="#16a34a" stroke="#16a34a" stroke-width="1.6" points="442.74,-114.21 450.11,-110.02 441.74,-108.7 442.74,-114.21"/>
<text text-anchor="middle" x="348" y="-137.8" font-family="Helvetica,sans-Serif" font-size="9.00" fill="#15803d"> guards 3/4</text>
</g>
<!-- m::com.android.server.accessibility.AccessibilityWindowManager.getActiveWindowId:(I)I -->
<g id="node3" class="node">
<title>m::com.android.server.accessibility.AccessibilityWindowManager.getActiveWindowId:(I)I</title>
<path fill="#fee2e2" stroke="#dc2626" d="M272,-110C272,-110 12,-110 12,-110 6,-110 0,-104 0,-98 0,-98 0,-86 0,-86 0,-80 6,-74 12,-74 12,-74 272,-74 272,-74 278,-74 284,-80 284,-86 284,-86 284,-98 284,-98 284,-104 278,-110 272,-110"/>
<text text-anchor="middle" x="142" y="-89.2" font-family="Helvetica,sans-Serif" font-size="11.00">AccessibilityWindowManager.getActiveWindowId</text>
</g>
<!-- m::com.android.server.accessibility.AccessibilityWindowManager.getActiveWindowId:(I)I&#45;&gt;__field__ -->
<g id="edge2" class="edge">
<title>m::com.android.server.accessibility.AccessibilityWindowManager.getActiveWindowId:(I)I&#45;&gt;__field__</title>
<path fill="none" stroke="#dc2626" d="M284.33,-102.12C291.66,-102.46 298.91,-102.76 306,-103 343.31,-104.26 352.69,-104.29 390,-103 394.49,-102.84 399.06,-102.66 403.66,-102.46"/>
<polygon fill="#dc2626" stroke="#dc2626" points="404.14,-105.25 412,-102.08 403.88,-99.65 404.14,-105.25"/>
<text text-anchor="middle" x="348" y="-105.8" font-family="Helvetica,sans-Serif" font-size="9.00" fill="#dc2626"> writes unguarded</text>
</g>
<!-- m::com.android.server.accessibility.AccessibilityWindowManager.getActiveWindowId:(I)I&#45;&gt;__field__ -->
<g id="edge4" class="edge">
<title>m::com.android.server.accessibility.AccessibilityWindowManager.getActiveWindowId:(I)I&#45;&gt;__field__</title>
<path fill="none" stroke="#dc2626" d="M284.14,-92C322.83,-92 364.83,-92 403.74,-92"/>
<polygon fill="#dc2626" stroke="#dc2626" points="404,-94.8 412,-92 404,-89.2 404,-94.8"/>
<text text-anchor="middle" x="348" y="-94.8" font-family="Helvetica,sans-Serif" font-size="9.00" fill="#dc2626"> reads unguarded</text>
</g>
<!-- m::com.android.server.accessibility.AccessibilityWindowManager.getActiveWindowId:(I)I&#45;&gt;__field__ -->
<g id="edge5" class="edge">
<title>m::com.android.server.accessibility.AccessibilityWindowManager.getActiveWindowId:(I)I&#45;&gt;__field__</title>
<path fill="none" stroke="#dc2626" d="M284.3,-78.2C291.64,-77.73 298.9,-77.33 306,-77 343.29,-75.29 352.71,-75.24 390,-77 394.41,-77.21 398.89,-77.45 403.42,-77.72"/>
<polygon fill="#dc2626" stroke="#dc2626" points="403.44,-80.52 411.6,-78.23 403.79,-74.93 403.44,-80.52"/>
<text text-anchor="middle" x="348" y="-79.8" font-family="Helvetica,sans-Serif" font-size="9.00" fill="#dc2626"> reads unguarded</text>
</g>
<!-- m::com.android.server.accessibility.AccessibilityWindowManager.dump:(Ljava/io/FileDescriptor;Ljava/io/PrintWriter;[Ljava/lang/String;)V -->
<g id="node4" class="node">
<title>m::com.android.server.accessibility.AccessibilityWindowManager.dump:(Ljava/io/FileDescriptor;Ljava/io/PrintWriter;[Ljava/lang/String;)V</title>
<path fill="#fee2e2" stroke="#dc2626" d="M234.5,-36C234.5,-36 49.5,-36 49.5,-36 43.5,-36 37.5,-30 37.5,-24 37.5,-24 37.5,-12 37.5,-12 37.5,-6 43.5,0 49.5,0 49.5,0 234.5,0 234.5,0 240.5,0 246.5,-6 246.5,-12 246.5,-12 246.5,-24 246.5,-24 246.5,-30 240.5,-36 234.5,-36"/>
<text text-anchor="middle" x="142" y="-15.2" font-family="Helvetica,sans-Serif" font-size="11.00">AccessibilityWindowManager.dump</text>
</g>
<!-- m::com.android.server.accessibility.AccessibilityWindowManager.dump:(Ljava/io/FileDescriptor;Ljava/io/PrintWriter;[Ljava/lang/String;)V&#45;&gt;__field__ -->
<g id="edge3" class="edge">
<title>m::com.android.server.accessibility.AccessibilityWindowManager.dump:(Ljava/io/FileDescriptor;Ljava/io/PrintWriter;[Ljava/lang/String;)V&#45;&gt;__field__</title>
<path fill="none" stroke="#dc2626" d="M246.78,-34.93C290.97,-42.33 343.06,-51.29 390,-60 410.62,-63.83 432.7,-68.14 453.65,-72.32"/>
<polygon fill="#dc2626" stroke="#dc2626" points="453.22,-75.09 461.62,-73.92 454.32,-69.6 453.22,-75.09"/>
<text text-anchor="middle" x="348" y="-62.8" font-family="Helvetica,sans-Serif" font-size="9.00" fill="#dc2626"> reads unguarded</text>
</g>
</g>
</svg>
