<?xml version="1.0" encoding="UTF-8" standalone="no"?>
<!DOCTYPE svg PUBLIC "-//W3C//DTD SVG 1.1//EN"
 "http://www.w3.org/Graphics/SVG/1.1/DTD/svg11.dtd">
<!-- Generated by graphviz version 2.43.0 (0)
 -->
<!-- Title: race Pages: 1 -->
<svg width="965pt" height="334pt"
 viewBox="0.00 0.00 965.00 334.00" xmlns="http://www.w3.org/2000/svg" xmlns:xlink="http://www.w3.org/1999/xlink">
<g id="graph0" class="graph" transform="scale(1 1) rotate(0) translate(4 330)">
<title>race</title>
<polygon fill="white" stroke="transparent" points="-4,4 -4,-330 961,-330 961,4 -4,4"/>
<!-- __field__ -->
<g id="node1" class="node">
<title>__field__</title>
<path fill="#fef9c3" stroke="#ca8a04" stroke-width="2" d="M945,-191C945,-191 598,-191 598,-191 592,-191 586,-185 586,-179 586,-179 586,-167 586,-167 586,-161 592,-155 598,-155 598,-155 945,-155 945,-155 951,-155 957,-161 957,-167 957,-167 957,-179 957,-179 957,-185 951,-191 945,-191"/>
<text text-anchor="middle" x="771.5" y="-170.2" font-family="Helvetica,sans-Serif" font-size="11.00">NetworkPolicyManagerService$UidBlockedState.allowedReasons</text>
</g>
<!-- __guard__ -->
<g id="node2" class="node">
<title>__guard__</title>
<path fill="#dcfce7" stroke="#16a34a" stroke-width="2" d="M360.5,-326C360.5,-326 97.5,-326 97.5,-326 91.5,-326 85.5,-320 85.5,-314 85.5,-314 85.5,-302 85.5,-302 85.5,-296 91.5,-290 97.5,-290 97.5,-290 360.5,-290 360.5,-290 366.5,-290 372.5,-296 372.5,-302 372.5,-302 372.5,-314 372.5,-314 372.5,-320 366.5,-326 360.5,-326"/>
<text text-anchor="middle" x="229" y="-305.2" font-family="Helvetica,sans-Serif" font-size="11.00">NetworkPolicyManagerService.mUidBlockedState</text>
</g>
<!-- __guard__&#45;&gt;__field__ -->
<g id="edge1" class="edge">
<title>__guard__&#45;&gt;__field__</title>
<path fill="none" stroke="#16a34a" stroke-width="1.6" d="M372.83,-298.92C432.7,-292.73 502.53,-282.36 564,-265 624.45,-247.93 690.02,-216.25 730.69,-194.89"/>
<polygon fill="#16a34a" stroke="#16a34a" stroke-width="1.6" points="732.22,-197.25 737.98,-191.03 729.6,-192.3 732.22,-197.25"/>
<text text-anchor="middle" x="522" y="-285.8" font-family="Helvetica,sans-Serif" font-size="9.00" fill="#15803d"> guards 4/5</text>
</g>
<!-- m::com.android.server.net.NetworkPolicyManagerService$UidBlockedState.copyFrom:(Lcom/android/server/net/NetworkPolicyManagerService$UidBlockedState;)V -->
<g id="node3" class="node">
<title>m::com.android.server.net.NetworkPolicyManagerService$UidBlockedState.copyFrom:(Lcom/android/server/net/NetworkPolicyManagerService$UidBlockedState;)V</title>
<path fill="#fee2e2" stroke="#dc2626" d="M385,-268C385,-268 73,-268 73,-268 67,-268 61,-262 61,-256 61,-256 61,-244 61,-244 61,-238 67,-232 73,-232 73,-232 385,-232 385,-232 391,-232 397,-238 397,-244 397,-244 397,-256 397,-256 397,-262 391,-268 385,-268"/>
<text text-anchor="middle" x="229" y="-247.2" font-family="Helvetica,sans-Serif" font-size="11.00">NetworkPolicyManagerService$UidBlockedState.copyFrom</text>
</g>
<!-- m::com.android.server.net.NetworkPolicyManagerService$UidBlockedState.copyFrom:(Lcom/android/server/net/NetworkPolicyManagerService$UidBlockedState;)V&#45;&gt;__field__ -->
<g id="edge2" class="edge">
<title>m::com.android.server.net.NetworkPolicyManagerService$UidBlockedState.copyFrom:(Lcom/android/server/net/NetworkPolicyManagerService$UidBlockedState;)V&#45;&gt;__field__</title>
<path fill="none" stroke="#dc2626" d="M397,-254.27C450.65,-253.17 510.13,-249.35 564,-240 618.54,-230.54 678.46,-209.88 719.64,-193.99"/>
<polygon fill="#dc2626" stroke="#dc2626" points="720.67,-196.59 727.11,-191.08 718.64,-191.38 720.67,-196.59"/>
<text text-anchor="middle" x="522" y="-252.8" font-family="Helvetica,sans-Serif" font-size="9.00" fill="#dc2626"> writes unguarded</text>
</g>
<!-- m::com.android.server.net.NetworkPolicyManagerService$UidBlockedState.copyFrom:(Lcom/android/server/net/NetworkPolicyManagerService$UidBlockedState;)V&#45;&gt;__field__ -->
<g id="edge4" class="edge">
<title>m::com.android.server.net.NetworkPolicyManagerService$UidBlockedState.copyFrom:(Lcom/android/server/net/NetworkPolicyManagerService$UidBlockedState;)V&#45;&gt;__field__</title>
<path fill="none" stroke="#dc2626" d="M376.03,-232C403.29,-228.47 431.53,-224.72 458,-221 521.34,-212.11 591.76,-201.37 649.69,-192.3"/>
<polygon fill="#dc2626" stroke="#dc2626" points="650.31,-195.04 657.78,-191.03 649.44,-189.51 650.31,-195.04"/>
<text text-anchor="middle" x="522" y="-219.8" font-family="Helvetica,sans-Serif" font-size="9.00" fill="#dc2626"> reads unguarded</text>
</g>
<!-- m::com.android.server.net.NetworkPolicyLogger.networkBlocked:(ILcom/android/server/net/NetworkPolicyManagerService$UidBlockedState;)V -->
<g id="node4" class="node">
<title>m::com.android.server.net.NetworkPolicyLogger.networkBlocked:(ILcom/android/server/net/NetworkPolicyManagerService$UidBlockedState;)V</title>
<path fill="#fee2e2" stroke="#dc2626" d="M327.5,-210C327.5,-210 130.5,-210 130.5,-210 124.5,-210 118.5,-204 118.5,-198 118.5,-198 118.5,-186 118.5,-186 118.5,-180 124.5,-174 130.5,-174 130.5,-174 327.5,-174 327.5,-174 333.5,-174 339.5,-180 339.5,-186 339.5,-186 339.5,-198 339.5,-198 339.5,-204 333.5,-210 327.5,-210"/>
<text text-anchor="middle" x="229" y="-189.2" font-family="Helvetica,sans-Serif" font-size="11.00">NetworkPolicyLogger.networkBlocked</text>
</g>
<!-- m::com.android.server.net.NetworkPolicyLogger.networkBlocked:(ILcom/android/server/net/NetworkPolicyManagerService$UidBlockedState;)V&#45;&gt;__field__ -->
<g id="edge3" class="edge">
<title>m::com.android.server.net.NetworkPolicyLogger.networkBlocked:(ILcom/android/server/net/NetworkPolicyManagerService$UidBlockedState;)V&#45;&gt;__field__</title>
<path fill="none" stroke="#dc2626" d="M339.7,-188.14C408.02,-185.74 497.8,-182.59 577.72,-179.78"/>
<polygon fill="#dc2626" stroke="#dc2626" points="578.02,-182.57 585.92,-179.49 577.82,-176.97 578.02,-182.57"/>
<text text-anchor="middle" x="522" y="-185.8" font-family="Helvetica,sans-Serif" font-size="9.00" fill="#dc2626"> reads unguarded</text>
</g>
<!-- m::com.android.server.net.NetworkPolicyManagerService$UidBlockedState.deriveUidRules:()I -->
<g id="node5" class="node">
<title>m::com.android.server.net.NetworkPolicyManagerService$UidBlockedState.deriveUidRules:()I</title>
<path fill="#fee2e2" stroke="#dc2626" d="M399.5,-152C399.5,-152 58.5,-152 58.5,-152 52.5,-152 46.5,-146 46.5,-140 46.5,-140 46.5,-128 46.5,-128 46.5,-122 52.5,-116 58.5,-116 58.5,-116 399.5,-116 399.5,-116 405.5,-116 411.5,-122 411.5,-128 411.5,-128 411.5,-140 411.5,-140 411.5,-146 405.5,-152 399.5,-152"/>
<text text-anchor="middle" x="229" y="-131.2" font-family="Helvetica,sans-Serif" font-size="11.00">NetworkPolicyManagerService$UidBlockedState.deriveUidRules</text>
</g>
<!-- m::com.android.server.net.NetworkPolicyManagerService$UidBlockedState.deriveUidRules:()I&#45;&gt;__field__ -->
<g id="edge5" class="edge">
<title>m::com.android.server.net.NetworkPolicyManagerService$UidBlockedState.deriveUidRules:()I&#45;&gt;__field__</title>
<path fill="none" stroke="#dc2626" d="M411.86,-147.12C465.08,-150.96 523.43,-155.17 577.33,-159.06"/>
<polygon fill="#dc2626" stroke="#dc2626" points="577.41,-161.87 585.59,-159.66 577.81,-156.29 577.41,-161.87"/>
<text text-anchor="middle" x="522" y="-158.8" font-family="Helvetica,sans-Serif" font-size="9.00" fill="#dc2626"> reads unguarded</text>
</g>
<!-- m::com.android.server.net.NetworkPolicyManagerService$UidBlockedState.deriveUidRules:()I&#45;&gt;__field__ -->
<g id="edge6" class="edge">
<title>m::com.android.server.net.NetworkPolicyManagerService$UidBlockedState.deriveUidRules:()I&#45;&gt;__field__</title>
<path fill="none" stroke="#dc2626" d="M411.85,-130.24C461.29,-130.69 514.77,-132.52 564,-137 601.4,-140.4 642.2,-146.91 677.59,-153.47"/>
<polygon fill="#dc2626" stroke="#dc2626" points="677.14,-156.24 685.52,-154.96 678.17,-150.73 677.14,-156.24"/>
<text text-anchor="middle" x="522" y="-139.8" font-family="Helvetica,sans-Serif" font-size="9.00" fill="#dc2626"> reads unguarded</text>
</g>
<!-- m::com.android.server.net.NetworkPolicyManagerService$UidBlockedState.toString:()Ljava/lang/String; -->
<g id="node6" class="node">
<title>m::com.android.server.net.NetworkPolicyManagerService$UidBlockedState.toString:()Ljava/lang/String;</title>
<path fill="#fee2e2" stroke="#dc2626" d="M380,-94C380,-94 78,-94 78,-94 72,-94 66,-88 66,-82 66,-82 66,-70 66,-70 66,-64 72,-58 78,-58 78,-58 380,-58 380,-58 386,-58 392,-64 392,-70 392,-70 392,-82 392,-82 392,-88 386,-94 380,-94"/>
<text text-anchor="middle" x="229" y="-73.2" font-family="Helvetica,sans-Serif" font-size="11.00">NetworkPolicyManagerService$UidBlockedState.toString</text>
</g>
<!-- m::com.android.server.net.NetworkPolicyManagerService$UidBlockedState.toString:()Ljava/lang/String;&#45;&gt;__field__ -->
<g id="edge7" class="edge">
<title>m::com.android.server.net.NetworkPolicyManagerService$UidBlockedState.toString:()Ljava/lang/String;&#45;&gt;__field__</title>
<path fill="none" stroke="#dc2626" d="M392.16,-90.47C447,-96.67 508.42,-105.06 564,-116 612.34,-125.51 665.94,-140.44 706.42,-152.63"/>
<polygon fill="#dc2626" stroke="#dc2626" points="705.61,-155.31 714.07,-154.96 707.23,-149.95 705.61,-155.31"/>
<text text-anchor="middle" x="522" y="-118.8" font-family="Helvetica,sans-Serif" font-size="9.00" fill="#dc2626"> reads unguarded</text>
</g>
<!-- m::com.android.server.net.NetworkPolicyManagerService$UidBlockedState.updateEffectiveBlockedReasons:()V -->
<g id="node7" class="node">
<title>m::com.android.server.net.NetworkPolicyManagerService$UidBlockedState.updateEffectiveBlockedReasons:()V</title>
<path fill="#fee2e2" stroke="#dc2626" d="M446,-36C446,-36 12,-36 12,-36 6,-36 0,-30 0,-24 0,-24 0,-12 0,-12 0,-6 6,0 12,0 12,0 446,0 446,0 452,0 458,-6 458,-12 458,-12 458,-24 458,-24 458,-30 452,-36 446,-36"/>
<text text-anchor="middle" x="229" y="-15.2" font-family="Helvetica,sans-Serif" font-size="11.00">NetworkPolicyManagerService$UidBlockedState.updateEffectiveBlockedReasons</text>
</g>
<!-- m::com.android.server.net.NetworkPolicyManagerService$UidBlockedState.updateEffectiveBlockedReasons:()V&#45;&gt;__field__ -->
<g id="edge8" class="edge">
<title>m::com.android.server.net.NetworkPolicyManagerService$UidBlockedState.updateEffectiveBlockedReasons:()V&#45;&gt;__field__</title>
<path fill="none" stroke="#dc2626" d="M405.06,-36.01C423.04,-39.13 440.96,-42.76 458,-47 558.17,-71.9 668.72,-122.34 727.75,-151.28"/>
<polygon fill="#dc2626" stroke="#dc2626" points="726.62,-153.84 735.03,-154.87 729.1,-148.82 726.62,-153.84"/>
<text text-anchor="middle" x="522" y="-82.8" font-family="Helvetica,sans-Serif" font-size="9.00" fill="#dc2626"> reads unguarded</text>
</g>
</g>
</svg>
