<?xml version="1.0" encoding="UTF-8" standalone="no"?>
<!DOCTYPE svg PUBLIC "-//W3C//DTD SVG 1.1//EN"
 "http://www.w3.org/Graphics/SVG/1.1/DTD/svg11.dtd">
<!-- Generated by graphviz version 2.43.0 (0)
 -->
<!-- Title: race Pages: 1 -->
<svg width="626pt" height="804pt"
 viewBox="0.00 0.00 626.00 803.99" xmlns="http://www.w3.org/2000/svg" xmlns:xlink="http://www.w3.org/1999/xlink">
<g id="graph0" class="graph" transform="scale(1 1) rotate(0) translate(4 799.99)">
<title>race</title>
<polygon fill="white" stroke="transparent" points="-4,4 -4,-799.99 622,-799.99 622,4 -4,4"/>
<!-- __field__ -->
<g id="node1" class="node">
<title>__field__</title>
<path fill="#fef9c3" stroke="#ca8a04" stroke-width="2" d="M606,-389.99C606,-389.99 517,-389.99 517,-389.99 511,-389.99 505,-383.99 505,-377.99 505,-377.99 505,-365.99 505,-365.99 505,-359.99 511,-353.99 517,-353.99 517,-353.99 606,-353.99 606,-353.99 612,-353.99 618,-359.99 618,-365.99 618,-365.99 618,-377.99 618,-377.99 618,-383.99 612,-389.99 606,-389.99"/>
<text text-anchor="middle" x="561.5" y="-369.19" font-family="Helvetica,sans-Serif" font-size="11.00">ActivityInfo.name</text>
</g>
<!-- __guard__ -->
<g id="node2" class="node">
<title>__guard__</title>
<path fill="#dcfce7" stroke="#16a34a" stroke-width="2" d="M291.5,-795.99C291.5,-795.99 85.5,-795.99 85.5,-795.99 79.5,-795.99 73.5,-789.99 73.5,-783.99 73.5,-783.99 73.5,-771.99 73.5,-771.99 73.5,-765.99 79.5,-759.99 85.5,-759.99 85.5,-759.99 291.5,-759.99 291.5,-759.99 297.5,-759.99 303.5,-765.99 303.5,-771.99 303.5,-771.99 303.5,-783.99 303.5,-783.99 303.5,-789.99 297.5,-795.99 291.5,-795.99"/>
<text text-anchor="middle" x="188.5" y="-775.19" font-family="Helvetica,sans-Serif" font-size="11.00">PackageManagerServiceInjector.mLock</text>
</g>
<!-- __guard__&#45;&gt;__field__ -->
<g id="edge1" class="edge">
<title>__guard__&#45;&gt;__field__</title>
<path fill="none" stroke="#16a34a" stroke-width="1.6" d="M303.7,-788.71C364.46,-787.98 436.11,-775.85 483,-730.99 531.36,-684.73 552.52,-472.97 558.57,-398.21"/>
<polygon fill="#16a34a" stroke="#16a34a" stroke-width="1.6" points="561.37,-398.39 559.2,-390.2 555.78,-397.95 561.37,-398.39"/>
<text text-anchor="middle" x="441" y="-777.79" font-family="Helvetica,sans-Serif" font-size="9.00" fill="#15803d"> guards 2/3</text>
</g>
<!-- m::com.android.server.wm.Task.trimIneffectiveInfo:(Lcom/android/server/wm/Task;Landroid/app/TaskInfo;)V -->
<g id="node3" class="node">
<title>m::com.android.server.wm.Task.trimIneffectiveInfo:(Lcom/android/server/wm/Task;Landroid/app/TaskInfo;)V</title>
<path fill="#fee2e2" stroke="#dc2626" d="M249,-737.99C249,-737.99 128,-737.99 128,-737.99 122,-737.99 116,-731.99 116,-725.99 116,-725.99 116,-713.99 116,-713.99 116,-707.99 122,-701.99 128,-701.99 128,-701.99 249,-701.99 249,-701.99 255,-701.99 261,-707.99 261,-713.99 261,-713.99 261,-725.99 261,-725.99 261,-731.99 255,-737.99 249,-737.99"/>
<text text-anchor="middle" x="188.5" y="-717.19" font-family="Helvetica,sans-Serif" font-size="11.00">Task.trimIneffectiveInfo</text>
</g>
<!-- m::com.android.server.wm.Task.trimIneffectiveInfo:(Lcom/android/server/wm/Task;Landroid/app/TaskInfo;)V&#45;&gt;__field__ -->
<g id="edge2" class="edge">
<title>m::com.android.server.wm.Task.trimIneffectiveInfo:(Lcom/android/server/wm/Task;Landroid/app/TaskInfo;)V&#45;&gt;__field__</title>
<path fill="none" stroke="#dc2626" d="M261.2,-728.77C327.25,-732.64 423.75,-726.93 483,-671.99 523.49,-634.45 548.88,-464.21 557.35,-398.23"/>
<polygon fill="#dc2626" stroke="#dc2626" points="560.16,-398.28 558.39,-390 554.61,-397.58 560.16,-398.28"/>
<text text-anchor="middle" x="441" y="-718.79" font-family="Helvetica,sans-Serif" font-size="9.00" fill="#dc2626"> writes unguarded</text>
</g>
<!-- m::com.android.server.accounts.AccountManagerService$Session.checkKeyIntent:(ILandroid/os/Bundle;)Z -->
<g id="node4" class="node">
<title>m::com.android.server.accounts.AccountManagerService$Session.checkKeyIntent:(ILandroid/os/Bundle;)Z</title>
<path fill="#fee2e2" stroke="#dc2626" d="M319.5,-679.99C319.5,-679.99 57.5,-679.99 57.5,-679.99 51.5,-679.99 45.5,-673.99 45.5,-667.99 45.5,-667.99 45.5,-655.99 45.5,-655.99 45.5,-649.99 51.5,-643.99 57.5,-643.99 57.5,-643.99 319.5,-643.99 319.5,-643.99 325.5,-643.99 331.5,-649.99 331.5,-655.99 331.5,-655.99 331.5,-667.99 331.5,-667.99 331.5,-673.99 325.5,-679.99 319.5,-679.99"/>
<text text-anchor="middle" x="188.5" y="-659.19" font-family="Helvetica,sans-Serif" font-size="11.00">AccountManagerService$Session.checkKeyIntent</text>
</g>
<!-- m::com.android.server.accounts.AccountManagerService$Session.checkKeyIntent:(ILandroid/os/Bundle;)Z&#45;&gt;__field__ -->
<g id="edge3" class="edge">
<title>m::com.android.server.accounts.AccountManagerService$Session.checkKeyIntent:(ILandroid/os/Bundle;)Z&#45;&gt;__field__</title>
<path fill="none" stroke="#dc2626" d="M331.7,-670.87C384.57,-666.99 441.68,-653.31 483,-617.99 548.96,-561.61 559.47,-449.63 560.68,-398.53"/>
<polygon fill="#dc2626" stroke="#dc2626" points="563.48,-398.33 560.81,-390.29 557.88,-398.25 563.48,-398.33"/>
<text text-anchor="middle" x="441" y="-659.79" font-family="Helvetica,sans-Serif" font-size="9.00" fill="#dc2626"> reads unguarded</text>
</g>
<!-- m::com.android.server.accounts.AccountManagerService$Session.isExportedSystemActivity:(Landroid/content/pm/ActivityInfo;)Z -->
<g id="node5" class="node">
<title>m::com.android.server.accounts.AccountManagerService$Session.isExportedSystemActivity:(Landroid/content/pm/ActivityInfo;)Z</title>
<path fill="#fee2e2" stroke="#dc2626" d="M348.5,-621.99C348.5,-621.99 28.5,-621.99 28.5,-621.99 22.5,-621.99 16.5,-615.99 16.5,-609.99 16.5,-609.99 16.5,-597.99 16.5,-597.99 16.5,-591.99 22.5,-585.99 28.5,-585.99 28.5,-585.99 348.5,-585.99 348.5,-585.99 354.5,-585.99 360.5,-591.99 360.5,-597.99 360.5,-597.99 360.5,-609.99 360.5,-609.99 360.5,-615.99 354.5,-621.99 348.5,-621.99"/>
<text text-anchor="middle" x="188.5" y="-601.19" font-family="Helvetica,sans-Serif" font-size="11.00">AccountManagerService$Session.isExportedSystemActivity</text>
</g>
<!-- m::com.android.server.accounts.AccountManagerService$Session.isExportedSystemActivity:(Landroid/content/pm/ActivityInfo;)Z&#45;&gt;__field__ -->
<g id="edge4" class="edge">
<title>m::com.android.server.accounts.AccountManagerService$Session.isExportedSystemActivity:(Landroid/content/pm/ActivityInfo;)Z&#45;&gt;__field__</title>
<path fill="none" stroke="#dc2626" d="M360.83,-612.35C404.28,-606.86 448.38,-593.8 483,-566.99 536.74,-525.38 553.31,-440.85 558.35,-398.06"/>
<polygon fill="#dc2626" stroke="#dc2626" points="561.13,-398.34 559.21,-390.09 555.57,-397.74 561.13,-398.34"/>
<text text-anchor="middle" x="441" y="-605.79" font-family="Helvetica,sans-Serif" font-size="9.00" fill="#dc2626"> reads unguarded</text>
</g>
<!-- m::com.android.server.am.BroadcastController.collectReceiverComponents:(Landroid/content/Intent;Ljava/lang/String;II[I[I[Ljava/lang/String;)Ljava/util/List; -->
<g id="node6" class="node">
<title>m::com.android.server.am.BroadcastController.collectReceiverComponents:(Landroid/content/Intent;Ljava/lang/String;II[I[I[Ljava/lang/String;)Ljava/util/List;</title>
<path fill="#fee2e2" stroke="#dc2626" d="M317.5,-563.99C317.5,-563.99 59.5,-563.99 59.5,-563.99 53.5,-563.99 47.5,-557.99 47.5,-551.99 47.5,-551.99 47.5,-539.99 47.5,-539.99 47.5,-533.99 53.5,-527.99 59.5,-527.99 59.5,-527.99 317.5,-527.99 317.5,-527.99 323.5,-527.99 329.5,-533.99 329.5,-539.99 329.5,-539.99 329.5,-551.99 329.5,-551.99 329.5,-557.99 323.5,-563.99 317.5,-563.99"/>
<text text-anchor="middle" x="188.5" y="-543.19" font-family="Helvetica,sans-Serif" font-size="11.00">BroadcastController.collectReceiverComponents</text>
</g>
<!-- m::com.android.server.am.BroadcastController.collectReceiverComponents:(Landroid/content/Intent;Ljava/lang/String;II[I[I[Ljava/lang/String;)Ljava/util/List;&#45;&gt;__field__ -->
<g id="edge5" class="edge">
<title>m::com.android.server.am.BroadcastController.collectReceiverComponents:(Landroid/content/Intent;Ljava/lang/String;II[I[I[Ljava/lang/String;)Ljava/util/List;&#45;&gt;__field__</title>
<path fill="none" stroke="#dc2626" d="M329.86,-560.62C381.74,-559.39 438.64,-549.59 483,-519.99 525.37,-491.72 546.08,-432.59 554.91,-398.24"/>
<polygon fill="#dc2626" stroke="#dc2626" points="557.72,-398.51 556.9,-390.08 552.28,-397.18 557.72,-398.51"/>
<text text-anchor="middle" x="441" y="-554.79" font-family="Helvetica,sans-Serif" font-size="9.00" fill="#dc2626"> reads unguarded</text>
</g>
<!-- m::com.android.server.am.BroadcastController.collectReceiverComponents:(Landroid/content/Intent;Ljava/lang/String;II[I[I[Ljava/lang/String;)Ljava/util/List;&#45;&gt;__field__ -->
<g id="edge6" class="edge">
<title>m::com.android.server.am.BroadcastController.collectReceiverComponents:(Landroid/content/Intent;Ljava/lang/String;II[I[I[Ljava/lang/String;)Ljava/util/List;&#45;&gt;__field__</title>
<path fill="none" stroke="#dc2626" d="M329.54,-529C345.7,-525.67 361.82,-521.7 377,-516.99 401.97,-509.24 462.43,-482.12 483,-465.99 507.97,-446.41 530.3,-417.5 544.5,-396.91"/>
<polygon fill="#dc2626" stroke="#dc2626" points="546.82,-398.47 548.99,-390.27 542.19,-395.33 546.82,-398.47"/>
<text text-anchor="middle" x="441" y="-510.79" font-family="Helvetica,sans-Serif" font-size="9.00" fill="#dc2626"> reads unguarded</text>
</g>
<!-- m::com.android.server.am.BroadcastProcessQueue.dumpRecord:(Ljava/lang/String;JLandroid/util/IndentingPrintWriter;Lcom/android/server/am/BroadcastRecord;I)V -->
<g id="node7" class="node">
<title>m::com.android.server.am.BroadcastProcessQueue.dumpRecord:(Ljava/lang/String;JLandroid/util/IndentingPrintWriter;Lcom/android/server/am/BroadcastRecord;I)V</title>
<path fill="#fee2e2" stroke="#dc2626" d="M288.5,-505.99C288.5,-505.99 88.5,-505.99 88.5,-505.99 82.5,-505.99 76.5,-499.99 76.5,-493.99 76.5,-493.99 76.5,-481.99 76.5,-481.99 76.5,-475.99 82.5,-469.99 88.5,-469.99 88.5,-469.99 288.5,-469.99 288.5,-469.99 294.5,-469.99 300.5,-475.99 300.5,-481.99 300.5,-481.99 300.5,-493.99 300.5,-493.99 300.5,-499.99 294.5,-505.99 288.5,-505.99"/>
<text text-anchor="middle" x="188.5" y="-485.19" font-family="Helvetica,sans-Serif" font-size="11.00">BroadcastProcessQueue.dumpRecord</text>
</g>
<!-- m::com.android.server.am.BroadcastProcessQueue.dumpRecord:(Ljava/lang/String;JLandroid/util/IndentingPrintWriter;Lcom/android/server/am/BroadcastRecord;I)V&#45;&gt;__field__ -->
<g id="edge7" class="edge">
<title>m::com.android.server.am.BroadcastProcessQueue.dumpRecord:(Ljava/lang/String;JLandroid/util/IndentingPrintWriter;Lcom/android/server/am/BroadcastRecord;I)V&#45;&gt;__field__</title>
<path fill="none" stroke="#dc2626" d="M300.54,-475.47C325.92,-471.33 352.61,-465.94 377,-458.99 426.22,-444.97 436.89,-436.21 483,-413.99 495.79,-407.83 509.49,-400.61 521.76,-393.92"/>
<polygon fill="#dc2626" stroke="#dc2626" points="523.14,-396.36 528.8,-390.05 520.44,-391.45 523.14,-396.36"/>
<text text-anchor="middle" x="441" y="-453.79" font-family="Helvetica,sans-Serif" font-size="9.00" fill="#dc2626"> reads unguarded</text>
</g>
<!-- m::com.android.server.am.BroadcastQueueImpl.$r8$lambda$tClXJ7lHT7SDttp6mit80Rp9sTM:(Ljava/lang/String;Ljava/util/Set;Lcom/android/server/am/BroadcastRecord;I)Z -->
<g id="node8" class="node">
<title>m::com.android.server.am.BroadcastQueueImpl.$r8$lambda$tClXJ7lHT7SDttp6mit80Rp9sTM:(Ljava/lang/String;Ljava/util/Set;Lcom/android/server/am/BroadcastRecord;I)Z</title>
<path fill="#fee2e2" stroke="#dc2626" d="M365,-447.99C365,-447.99 12,-447.99 12,-447.99 6,-447.99 0,-441.99 0,-435.99 0,-435.99 0,-423.99 0,-423.99 0,-417.99 6,-411.99 12,-411.99 12,-411.99 365,-411.99 365,-411.99 371,-411.99 377,-417.99 377,-423.99 377,-423.99 377,-435.99 377,-435.99 377,-441.99 371,-447.99 365,-447.99"/>
<text text-anchor="middle" x="188.5" y="-427.19" font-family="Helvetica,sans-Serif" font-size="11.00">BroadcastQueueImpl.$r8$lambda$tClXJ7lHT7SDttp6mit80Rp9sTM</text>
</g>
<!-- m::com.android.server.am.BroadcastQueueImpl.$r8$lambda$tClXJ7lHT7SDttp6mit80Rp9sTM:(Ljava/lang/String;Ljava/util/Set;Lcom/android/server/am/BroadcastRecord;I)Z&#45;&gt;__field__ -->
<g id="edge8" class="edge">
<title>m::com.android.server.am.BroadcastQueueImpl.$r8$lambda$tClXJ7lHT7SDttp6mit80Rp9sTM:(Ljava/lang/String;Ljava/util/Set;Lcom/android/server/am/BroadcastRecord;I)Z&#45;&gt;__field__</title>
<path fill="none" stroke="#dc2626" d="M321.56,-411.95C372.14,-404.7 430.33,-395.94 483,-386.99 487.39,-386.25 491.92,-385.45 496.47,-384.62"/>
<polygon fill="#dc2626" stroke="#dc2626" points="497.32,-387.31 504.68,-383.11 496.3,-381.81 497.32,-387.31"/>
<text text-anchor="middle" x="441" y="-401.79" font-family="Helvetica,sans-Serif" font-size="9.00" fill="#dc2626"> reads unguarded</text>
</g>
<!-- m::com.android.server.am.BroadcastRecord.applySingletonPolicy:(Lcom/android/server/am/ActivityManagerService;)V -->
<g id="node9" class="node">
<title>m::com.android.server.am.BroadcastRecord.applySingletonPolicy:(Lcom/android/server/am/ActivityManagerService;)V</title>
<path fill="#fee2e2" stroke="#dc2626" d="M290,-389.99C290,-389.99 87,-389.99 87,-389.99 81,-389.99 75,-383.99 75,-377.99 75,-377.99 75,-365.99 75,-365.99 75,-359.99 81,-353.99 87,-353.99 87,-353.99 290,-353.99 290,-353.99 296,-353.99 302,-359.99 302,-365.99 302,-365.99 302,-377.99 302,-377.99 302,-383.99 296,-389.99 290,-389.99"/>
<text text-anchor="middle" x="188.5" y="-369.19" font-family="Helvetica,sans-Serif" font-size="11.00">BroadcastRecord.applySingletonPolicy</text>
</g>
<!-- m::com.android.server.am.BroadcastRecord.applySingletonPolicy:(Lcom/android/server/am/ActivityManagerService;)V&#45;&gt;__field__ -->
<g id="edge9" class="edge">
<title>m::com.android.server.am.BroadcastRecord.applySingletonPolicy:(Lcom/android/server/am/ActivityManagerService;)V&#45;&gt;__field__</title>
<path fill="none" stroke="#dc2626" d="M302.07,-371.99C365.96,-371.99 443.57,-371.99 496.97,-371.99"/>
<polygon fill="#dc2626" stroke="#dc2626" points="497,-374.79 505,-371.99 497,-369.19 497,-374.79"/>
<text text-anchor="middle" x="441" y="-374.79" font-family="Helvetica,sans-Serif" font-size="9.00" fill="#dc2626"> reads unguarded</text>
</g>
<!-- m::com.android.server.am.BroadcastRecord.cleanupDisabledPackageReceiversLocked:(Ljava/lang/String;Ljava/util/Set;IZ)Z -->
<g id="node10" class="node">
<title>m::com.android.server.am.BroadcastRecord.cleanupDisabledPackageReceiversLocked:(Ljava/lang/String;Ljava/util/Set;IZ)Z</title>
<path fill="#fee2e2" stroke="#dc2626" d="M347,-331.99C347,-331.99 30,-331.99 30,-331.99 24,-331.99 18,-325.99 18,-319.99 18,-319.99 18,-307.99 18,-307.99 18,-301.99 24,-295.99 30,-295.99 30,-295.99 347,-295.99 347,-295.99 353,-295.99 359,-301.99 359,-307.99 359,-307.99 359,-319.99 359,-319.99 359,-325.99 353,-331.99 347,-331.99"/>
<text text-anchor="middle" x="188.5" y="-311.19" font-family="Helvetica,sans-Serif" font-size="11.00">BroadcastRecord.cleanupDisabledPackageReceiversLocked</text>
</g>
<!-- m::com.android.server.am.BroadcastRecord.cleanupDisabledPackageReceiversLocked:(Ljava/lang/String;Ljava/util/Set;IZ)Z&#45;&gt;__field__ -->
<g id="edge10" class="edge">
<title>m::com.android.server.am.BroadcastRecord.cleanupDisabledPackageReceiversLocked:(Ljava/lang/String;Ljava/util/Set;IZ)Z&#45;&gt;__field__</title>
<path fill="none" stroke="#dc2626" d="M321.56,-332.03C372.14,-339.28 430.33,-348.04 483,-356.99 487.39,-357.74 491.92,-358.54 496.47,-359.36"/>
<polygon fill="#dc2626" stroke="#dc2626" points="496.3,-362.18 504.68,-360.87 497.32,-356.67 496.3,-362.18"/>
<text text-anchor="middle" x="441" y="-359.79" font-family="Helvetica,sans-Serif" font-size="9.00" fill="#dc2626"> reads unguarded</text>
</g>
<!-- m::com.android.server.am.BroadcastRecord.getReceiverClassName:(Ljava/lang/Object;)Ljava/lang/String; -->
<g id="node11" class="node">
<title>m::com.android.server.am.BroadcastRecord.getReceiverClassName:(Ljava/lang/Object;)Ljava/lang/String;</title>
<path fill="#fee2e2" stroke="#dc2626" d="M297.5,-273.99C297.5,-273.99 79.5,-273.99 79.5,-273.99 73.5,-273.99 67.5,-267.99 67.5,-261.99 67.5,-261.99 67.5,-249.99 67.5,-249.99 67.5,-243.99 73.5,-237.99 79.5,-237.99 79.5,-237.99 297.5,-237.99 297.5,-237.99 303.5,-237.99 309.5,-243.99 309.5,-249.99 309.5,-249.99 309.5,-261.99 309.5,-261.99 309.5,-267.99 303.5,-273.99 297.5,-273.99"/>
<text text-anchor="middle" x="188.5" y="-253.19" font-family="Helvetica,sans-Serif" font-size="11.00">BroadcastRecord.getReceiverClassName</text>
</g>
<!-- m::com.android.server.am.BroadcastRecord.getReceiverClassName:(Ljava/lang/Object;)Ljava/lang/String;&#45;&gt;__field__ -->
<g id="edge11" class="edge">
<title>m::com.android.server.am.BroadcastRecord.getReceiverClassName:(Ljava/lang/Object;)Ljava/lang/String;&#45;&gt;__field__</title>
<path fill="none" stroke="#dc2626" d="M309.95,-270.24C332.44,-274.13 355.59,-278.99 377,-284.99 426.11,-298.77 437.07,-306.81 483,-328.99 496.09,-335.31 510.07,-342.83 522.5,-349.79"/>
<polygon fill="#dc2626" stroke="#dc2626" points="521.28,-352.31 529.63,-353.81 524.04,-347.44 521.28,-352.31"/>
<text text-anchor="middle" x="441" y="-331.79" font-family="Helvetica,sans-Serif" font-size="9.00" fill="#dc2626"> reads unguarded</text>
</g>
<!-- m::com.android.server.am.BroadcastRecord.isReceiverEquals:(Ljava/lang/Object;Ljava/lang/Object;)Z -->
<g id="node12" class="node">
<title>m::com.android.server.am.BroadcastRecord.isReceiverEquals:(Ljava/lang/Object;Ljava/lang/Object;)Z</title>
<path fill="#fee2e2" stroke="#dc2626" d="M280,-215.99C280,-215.99 97,-215.99 97,-215.99 91,-215.99 85,-209.99 85,-203.99 85,-203.99 85,-191.99 85,-191.99 85,-185.99 91,-179.99 97,-179.99 97,-179.99 280,-179.99 280,-179.99 286,-179.99 292,-185.99 292,-191.99 292,-191.99 292,-203.99 292,-203.99 292,-209.99 286,-215.99 280,-215.99"/>
<text text-anchor="middle" x="188.5" y="-195.19" font-family="Helvetica,sans-Serif" font-size="11.00">BroadcastRecord.isReceiverEquals</text>
</g>
<!-- m::com.android.server.am.BroadcastRecord.isReceiverEquals:(Ljava/lang/Object;Ljava/lang/Object;)Z&#45;&gt;__field__ -->
<g id="edge12" class="edge">
<title>m::com.android.server.am.BroadcastRecord.isReceiverEquals:(Ljava/lang/Object;Ljava/lang/Object;)Z&#45;&gt;__field__</title>
<path fill="none" stroke="#dc2626" d="M292.14,-205.24C352.96,-214.09 428.54,-233.52 483,-275.99 508.65,-295.99 531.13,-326.04 545.19,-347.18"/>
<polygon fill="#dc2626" stroke="#dc2626" points="542.91,-348.81 549.62,-353.98 547.6,-345.75 542.91,-348.81"/>
<text text-anchor="middle" x="441" y="-278.79" font-family="Helvetica,sans-Serif" font-size="9.00" fill="#dc2626"> reads unguarded</text>
</g>
<!-- m::com.android.server.am.BroadcastSkipPolicy.noteOpForManifestReceiverInner:(ILjava/lang/String;Lcom/android/server/am/BroadcastRecord;Landroid/content/pm/ResolveInfo;Landroid/content/ComponentName;Ljava/lang/String;)Z -->
<g id="node13" class="node">
<title>m::com.android.server.am.BroadcastSkipPolicy.noteOpForManifestReceiverInner:(ILjava/lang/String;Lcom/android/server/am/BroadcastRecord;Landroid/content/pm/ResolveInfo;Landroid/content/ComponentName;Ljava/lang/String;)Z</title>
<path fill="#fee2e2" stroke="#dc2626" d="M331,-157.99C331,-157.99 46,-157.99 46,-157.99 40,-157.99 34,-151.99 34,-145.99 34,-145.99 34,-133.99 34,-133.99 34,-127.99 40,-121.99 46,-121.99 46,-121.99 331,-121.99 331,-121.99 337,-121.99 343,-127.99 343,-133.99 343,-133.99 343,-145.99 343,-145.99 343,-151.99 337,-157.99 331,-157.99"/>
<text text-anchor="middle" x="188.5" y="-137.19" font-family="Helvetica,sans-Serif" font-size="11.00">BroadcastSkipPolicy.noteOpForManifestReceiverInner</text>
</g>
<!-- m::com.android.server.am.BroadcastSkipPolicy.noteOpForManifestReceiverInner:(ILjava/lang/String;Lcom/android/server/am/BroadcastRecord;Landroid/content/pm/ResolveInfo;Landroid/content/ComponentName;Ljava/lang/String;)Z&#45;&gt;__field__ -->
<g id="edge13" class="edge">
<title>m::com.android.server.am.BroadcastSkipPolicy.noteOpForManifestReceiverInner:(ILjava/lang/String;Lcom/android/server/am/BroadcastRecord;Landroid/content/pm/ResolveInfo;Landroid/content/ComponentName;Ljava/lang/String;)Z&#45;&gt;__field__</title>
<path fill="none" stroke="#dc2626" d="M343.32,-151.15C393.35,-161.92 445.58,-181.79 483,-217.99 520.48,-254.25 542.84,-312.49 553.3,-345.99"/>
<polygon fill="#dc2626" stroke="#dc2626" points="550.71,-347.1 555.71,-353.95 556.07,-345.48 550.71,-347.1"/>
<text text-anchor="middle" x="441" y="-220.79" font-family="Helvetica,sans-Serif" font-size="9.00" fill="#dc2626"> reads unguarded</text>
</g>
<!-- m::com.android.server.am.BroadcastSkipPolicy.shouldSkipMessage:(Lcom/android/server/am/BroadcastRecord;Landroid/content/pm/ResolveInfo;Z)Ljava/lang/String; -->
<g id="node14" class="node">
<title>m::com.android.server.am.BroadcastSkipPolicy.shouldSkipMessage:(Lcom/android/server/am/BroadcastRecord;Landroid/content/pm/ResolveInfo;Z)Ljava/lang/String;</title>
<path fill="#fee2e2" stroke="#dc2626" d="M294.5,-99.99C294.5,-99.99 82.5,-99.99 82.5,-99.99 76.5,-99.99 70.5,-93.99 70.5,-87.99 70.5,-87.99 70.5,-75.99 70.5,-75.99 70.5,-69.99 76.5,-63.99 82.5,-63.99 82.5,-63.99 294.5,-63.99 294.5,-63.99 300.5,-63.99 306.5,-69.99 306.5,-75.99 306.5,-75.99 306.5,-87.99 306.5,-87.99 306.5,-93.99 300.5,-99.99 294.5,-99.99"/>
<text text-anchor="middle" x="188.5" y="-79.19" font-family="Helvetica,sans-Serif" font-size="11.00">BroadcastSkipPolicy.shouldSkipMessage</text>
</g>
<!-- m::com.android.server.am.BroadcastSkipPolicy.shouldSkipMessage:(Lcom/android/server/am/BroadcastRecord;Landroid/content/pm/ResolveInfo;Z)Ljava/lang/String;&#45;&gt;__field__ -->
<g id="edge14" class="edge">
<title>m::com.android.server.am.BroadcastSkipPolicy.shouldSkipMessage:(Lcom/android/server/am/BroadcastRecord;Landroid/content/pm/ResolveInfo;Z)Ljava/lang/String;&#45;&gt;__field__</title>
<path fill="none" stroke="#dc2626" d="M306.55,-96.92C377.21,-108.33 458.24,-126.47 483,-151.99 536.24,-206.88 553.11,-300.49 558.29,-345.84"/>
<polygon fill="#dc2626" stroke="#dc2626" points="555.53,-346.32 559.15,-353.98 561.09,-345.73 555.53,-346.32"/>
<text text-anchor="middle" x="441" y="-154.79" font-family="Helvetica,sans-Serif" font-size="9.00" fill="#dc2626"> reads unguarded</text>
</g>
<!-- m::com.android.server.am.BroadcastSkipPolicy.shouldSkipMessage:(Lcom/android/server/am/BroadcastRecord;Landroid/content/pm/ResolveInfo;Z)Ljava/lang/String;&#45;&gt;__field__ -->
<g id="edge15" class="edge">
<title>m::com.android.server.am.BroadcastSkipPolicy.shouldSkipMessage:(Lcom/android/server/am/BroadcastRecord;Landroid/content/pm/ResolveInfo;Z)Ljava/lang/String;&#45;&gt;__field__</title>
<path fill="none" stroke="#dc2626" d="M306.65,-77.08C376.35,-76.65 456.26,-81.33 483,-102.99 521.23,-133.96 547.47,-284.22 556.77,-345.69"/>
<polygon fill="#dc2626" stroke="#dc2626" points="554.02,-346.26 557.97,-353.76 559.56,-345.43 554.02,-346.26"/>
<text text-anchor="middle" x="441" y="-105.79" font-family="Helvetica,sans-Serif" font-size="9.00" fill="#dc2626"> reads unguarded</text>
</g>
<!-- m::com.android.server.am.BroadcastSkipPolicy.shouldSkipMessage:(Lcom/android/server/am/BroadcastRecord;Landroid/content/pm/ResolveInfo;Z)Ljava/lang/String;&#45;&gt;__field__ -->
<g id="edge16" class="edge">
<title>m::com.android.server.am.BroadcastSkipPolicy.shouldSkipMessage:(Lcom/android/server/am/BroadcastRecord;Landroid/content/pm/ResolveInfo;Z)Ljava/lang/String;&#45;&gt;__field__</title>
<path fill="none" stroke="#dc2626" d="M306.59,-68.4C382.14,-60.86 468.88,-55 483,-65.99 527.58,-100.69 550.62,-277.99 557.9,-345.68"/>
<polygon fill="#dc2626" stroke="#dc2626" points="555.13,-346.08 558.75,-353.74 560.7,-345.5 555.13,-346.08"/>
<text text-anchor="middle" x="441" y="-68.79" font-family="Helvetica,sans-Serif" font-size="9.00" fill="#dc2626"> reads unguarded</text>
</g>
<!-- m::com.android.server.appwidget.AppWidgetServiceImpl.addProviderLocked:(Landroid/content/pm/ResolveInfo;)Z -->
<g id="node15" class="node">
<title>m::com.android.server.appwidget.AppWidgetServiceImpl.addProviderLocked:(Landroid/content/pm/ResolveInfo;)Z</title>
<path fill="#fee2e2" stroke="#dc2626" d="M300.5,-41.99C300.5,-41.99 76.5,-41.99 76.5,-41.99 70.5,-41.99 64.5,-35.99 64.5,-29.99 64.5,-29.99 64.5,-17.99 64.5,-17.99 64.5,-11.99 70.5,-5.99 76.5,-5.99 76.5,-5.99 300.5,-5.99 300.5,-5.99 306.5,-5.99 312.5,-11.99 312.5,-17.99 312.5,-17.99 312.5,-29.99 312.5,-29.99 312.5,-35.99 306.5,-41.99 300.5,-41.99"/>
<text text-anchor="middle" x="188.5" y="-21.19" font-family="Helvetica,sans-Serif" font-size="11.00">AppWidgetServiceImpl.addProviderLocked</text>
</g>
<!-- m::com.android.server.appwidget.AppWidgetServiceImpl.addProviderLocked:(Landroid/content/pm/ResolveInfo;)Z&#45;&gt;__field__ -->
<g id="edge17" class="edge">
<title>m::com.android.server.appwidget.AppWidgetServiceImpl.addProviderLocked:(Landroid/content/pm/ResolveInfo;)Z&#45;&gt;__field__</title>
<path fill="none" stroke="#dc2626" d="M268.74,-5.95C333.85,3.91 424.57,5.56 483,-43.99 529.42,-83.36 551.57,-275.36 558.25,-345.92"/>
<polygon fill="#dc2626" stroke="#dc2626" points="555.46,-346.19 558.98,-353.9 561.04,-345.68 555.46,-346.19"/>
<text text-anchor="middle" x="441" y="-46.79" font-family="Helvetica,sans-Serif" font-size="9.00" fill="#dc2626"> reads unguarded</text>
</g>
</g>
</svg>
