<?xml version="1.0" encoding="UTF-8" standalone="no"?>
<!DOCTYPE svg PUBLIC "-//W3C//DTD SVG 1.1//EN"
 "http://www.w3.org/Graphics/SVG/1.1/DTD/svg11.dtd">
<!-- Generated by graphviz version 2.43.0 (0)
 -->
<!-- Title: race Pages: 1 -->
<svg width="912pt" height="121pt"
 viewBox="0.00 0.00 912.00 120.99" xmlns="http://www.w3.org/2000/svg" xmlns:xlink="http://www.w3.org/1999/xlink">
<g id="graph0" class="graph" transform="scale(1 1) rotate(0) translate(4 116.99)">
<title>race</title>
<polygon fill="white" stroke="transparent" points="-4,4 -4,-116.99 908,-116.99 908,4 -4,4"/>
<!-- __field__ -->
<g id="node1" class="node">
<title>__field__</title>
<path fill="#fef9c3" stroke="#ca8a04" stroke-width="2" d="M892,-56.99C892,-56.99 551,-56.99 551,-56.99 545,-56.99 539,-50.99 539,-44.99 539,-44.99 539,-32.99 539,-32.99 539,-26.99 545,-20.99 551,-20.99 551,-20.99 892,-20.99 892,-20.99 898,-20.99 904,-26.99 904,-32.99 904,-32.99 904,-44.99 904,-44.99 904,-50.99 898,-56.99 892,-56.99"/>
<text text-anchor="middle" x="721.5" y="-36.19" font-family="Helvetica,sans-Serif" font-size="11.00">AutofillManagerServiceImpl.mRemoteAugmentedAutofillService</text>
</g>
<!-- __guard__ -->
<g id="node2" class="node">
<title>__guard__</title>
<path fill="#dcfce7" stroke="#16a34a" stroke-width="2" d="M307,-112.99C307,-112.99 104,-112.99 104,-112.99 98,-112.99 92,-106.99 92,-100.99 92,-100.99 92,-88.99 92,-88.99 92,-82.99 98,-76.99 104,-76.99 104,-76.99 307,-76.99 307,-76.99 313,-76.99 319,-82.99 319,-88.99 319,-88.99 319,-100.99 319,-100.99 319,-106.99 313,-112.99 307,-112.99"/>
<text text-anchor="middle" x="205.5" y="-92.19" font-family="Helvetica,sans-Serif" font-size="11.00">AbstractPerUserSystemService.mLock</text>
</g>
<!-- __guard__&#45;&gt;__field__ -->
<g id="edge1" class="edge">
<title>__guard__&#45;&gt;__field__</title>
<path fill="none" stroke="#16a34a" stroke-width="1.6" d="M319.3,-82.7C386.02,-75.43 471.91,-66.07 547.09,-57.88"/>
<polygon fill="#16a34a" stroke="#16a34a" stroke-width="1.6" points="547.62,-60.64 555.26,-56.99 547.01,-55.07 547.62,-60.64"/>
<text text-anchor="middle" x="475" y="-70.79" font-family="Helvetica,sans-Serif" font-size="9.00" fill="#15803d"> guards 2/3</text>
</g>
<!-- m::com.android.server.autofill.AutofillManagerServiceImpl.getRemoteAugmentedAutofillServiceLocked:()Lcom/android/server/autofill/RemoteAugmentedAutofillService; -->
<g id="node3" class="node">
<title>m::com.android.server.autofill.AutofillManagerServiceImpl.getRemoteAugmentedAutofillServiceLocked:()Lcom/android/server/autofill/RemoteAugmentedAutofillService;</title>
<path fill="#fee2e2" stroke="#dc2626" d="M399,-38.99C399,-38.99 12,-38.99 12,-38.99 6,-38.99 0,-32.99 0,-26.99 0,-26.99 0,-14.99 0,-14.99 0,-8.99 6,-2.99 12,-2.99 12,-2.99 399,-2.99 399,-2.99 405,-2.99 411,-8.99 411,-14.99 411,-14.99 411,-26.99 411,-26.99 411,-32.99 405,-38.99 399,-38.99"/>
<text text-anchor="middle" x="205.5" y="-18.19" font-family="Helvetica,sans-Serif" font-size="11.00">AutofillManagerServiceImpl.getRemoteAugmentedAutofillServiceLocked</text>
</g>
<!-- m::com.android.server.autofill.AutofillManagerServiceImpl.getRemoteAugmentedAutofillServiceLocked:()Lcom/android/server/autofill/RemoteAugmentedAutofillService;&#45;&gt;__field__ -->
<g id="edge2" class="edge">
<title>m::com.android.server.autofill.AutofillManagerServiceImpl.getRemoteAugmentedAutofillServiceLocked:()Lcom/android/server/autofill/RemoteAugmentedAutofillService;&#45;&gt;__field__</title>
<path fill="none" stroke="#dc2626" d="M411.13,-31.15C418.51,-31.44 425.82,-31.72 433,-31.99 464.51,-33.13 497.97,-34.14 530.49,-35.01"/>
<polygon fill="#dc2626" stroke="#dc2626" points="530.67,-37.81 538.74,-35.23 530.82,-32.22 530.67,-37.81"/>
<text text-anchor="middle" x="475" y="-36.79" font-family="Helvetica,sans-Serif" font-size="9.00" fill="#dc2626"> writes unguarded</text>
</g>
<!-- m::com.android.server.autofill.AutofillManagerServiceImpl.getRemoteAugmentedAutofillServiceLocked:()Lcom/android/server/autofill/RemoteAugmentedAutofillService;&#45;&gt;__field__ -->
<g id="edge3" class="edge">
<title>m::com.android.server.autofill.AutofillManagerServiceImpl.getRemoteAugmentedAutofillServiceLocked:()Lcom/android/server/autofill/RemoteAugmentedAutofillService;&#45;&gt;__field__</title>
<path fill="none" stroke="#dc2626" d="M411.16,-18.43C446.47,-18.72 482.8,-19.48 517,-20.99 521.48,-21.18 526.02,-21.41 530.6,-21.65"/>
<polygon fill="#dc2626" stroke="#dc2626" points="530.73,-24.46 538.87,-22.11 531.04,-18.87 530.73,-24.46"/>
<text text-anchor="middle" x="475" y="-23.79" font-family="Helvetica,sans-Serif" font-size="9.00" fill="#dc2626"> reads unguarded</text>
</g>
<!-- m::com.android.server.autofill.AutofillManagerServiceImpl.getRemoteAugmentedAutofillServiceLocked:()Lcom/android/server/autofill/RemoteAugmentedAutofillService;&#45;&gt;__field__ -->
<g id="edge4" class="edge">
<title>m::com.android.server.autofill.AutofillManagerServiceImpl.getRemoteAugmentedAutofillServiceLocked:()Lcom/android/server/autofill/RemoteAugmentedAutofillService;&#45;&gt;__field__</title>
<path fill="none" stroke="#dc2626" d="M364.19,-2.97C413.2,0.25 467.38,1.37 517,-2.99 554.22,-6.25 594.82,-12.82 629.91,-19.46"/>
<polygon fill="#dc2626" stroke="#dc2626" points="629.38,-22.21 637.77,-20.96 630.44,-16.71 629.38,-22.21"/>
<text text-anchor="middle" x="475" y="-5.79" font-family="Helvetica,sans-Serif" font-size="9.00" fill="#dc2626"> reads unguarded</text>
</g>
</g>
</svg>
