<?xml version="1.0" encoding="UTF-8" standalone="no"?>
<!DOCTYPE svg PUBLIC "-//W3C//DTD SVG 1.1//EN"
 "http://www.w3.org/Graphics/SVG/1.1/DTD/svg11.dtd">
<!-- Generated by graphviz version 2.43.0 (0)
 -->
<!-- Title: race Pages: 1 -->
<svg width="605pt" height="218pt"
 viewBox="0.00 0.00 605.00 218.00" xmlns="http://www.w3.org/2000/svg" xmlns:xlink="http://www.w3.org/1999/xlink">
<g id="graph0" class="graph" transform="scale(1 1) rotate(0) translate(4 214)">
<title>race</title>
<polygon fill="white" stroke="transparent" points="-4,4 -4,-214 601,-214 601,4 -4,4"/>
<!-- __field__ -->
<g id="node1" class="node">
<title>__field__</title>
<path fill="#fef9c3" stroke="#ca8a04" stroke-width="2" d="M585,-131C585,-131 409,-131 409,-131 403,-131 397,-125 397,-119 397,-119 397,-107 397,-107 397,-101 403,-95 409,-95 409,-95 585,-95 585,-95 591,-95 597,-101 597,-107 597,-107 597,-119 597,-119 597,-125 591,-131 585,-131"/>
<text text-anchor="middle" x="497" y="-110.2" font-family="Helvetica,sans-Serif" font-size="11.00">AppProfiler.mMemWatchDumpUri</text>
</g>
<!-- __guard__ -->
<g id="node2" class="node">
<title>__guard__</title>
<path fill="#dcfce7" stroke="#16a34a" stroke-width="2" d="M199.5,-210C199.5,-210 69.5,-210 69.5,-210 63.5,-210 57.5,-204 57.5,-198 57.5,-198 57.5,-186 57.5,-186 57.5,-180 63.5,-174 69.5,-174 69.5,-174 199.5,-174 199.5,-174 205.5,-174 211.5,-180 211.5,-186 211.5,-186 211.5,-198 211.5,-198 211.5,-204 205.5,-210 199.5,-210"/>
<text text-anchor="middle" x="134.5" y="-189.2" font-family="Helvetica,sans-Serif" font-size="11.00">AppProfiler.mProfilerLock</text>
</g>
<!-- __guard__&#45;&gt;__field__ -->
<g id="edge1" class="edge">
<title>__guard__&#45;&gt;__field__</title>
<path fill="none" stroke="#16a34a" stroke-width="1.6" d="M211.72,-177.24C258.86,-167.9 320.56,-155.31 375,-143 388.8,-139.88 403.45,-136.39 417.61,-132.94"/>
<polygon fill="#16a34a" stroke="#16a34a" stroke-width="1.6" points="418.31,-135.65 425.42,-131.02 416.98,-130.21 418.31,-135.65"/>
<text text-anchor="middle" x="333" y="-162.8" font-family="Helvetica,sans-Serif" font-size="9.00" fill="#15803d"> guards 2/3</text>
</g>
<!-- m::com.android.server.am.AppProfiler.startHeapDumpLPf:(Lcom/android/server/am/ProcessProfileRecord;Z)V -->
<g id="node3" class="node">
<title>m::com.android.server.am.AppProfiler.startHeapDumpLPf:(Lcom/android/server/am/ProcessProfileRecord;Z)V</title>
<path fill="#fee2e2" stroke="#dc2626" d="M214,-152C214,-152 55,-152 55,-152 49,-152 43,-146 43,-140 43,-140 43,-128 43,-128 43,-122 49,-116 55,-116 55,-116 214,-116 214,-116 220,-116 226,-122 226,-128 226,-128 226,-140 226,-140 226,-146 220,-152 214,-152"/>
<text text-anchor="middle" x="134.5" y="-131.2" font-family="Helvetica,sans-Serif" font-size="11.00">AppProfiler.startHeapDumpLPf</text>
</g>
<!-- m::com.android.server.am.AppProfiler.startHeapDumpLPf:(Lcom/android/server/am/ProcessProfileRecord;Z)V&#45;&gt;__field__ -->
<g id="edge2" class="edge">
<title>m::com.android.server.am.AppProfiler.startHeapDumpLPf:(Lcom/android/server/am/ProcessProfileRecord;Z)V&#45;&gt;__field__</title>
<path fill="none" stroke="#dc2626" d="M226.25,-131.26C271.06,-129.64 325.9,-127.26 375,-124 379.58,-123.7 384.26,-123.36 388.99,-123.01"/>
<polygon fill="#dc2626" stroke="#dc2626" points="389.22,-125.8 396.98,-122.4 388.79,-120.22 389.22,-125.8"/>
<text text-anchor="middle" x="333" y="-130.8" font-family="Helvetica,sans-Serif" font-size="9.00" fill="#dc2626"> writes unguarded</text>
</g>
<!-- m::com.android.server.am.AppProfiler.startHeapDumpLPf:(Lcom/android/server/am/ProcessProfileRecord;Z)V&#45;&gt;__field__ -->
<g id="edge4" class="edge">
<title>m::com.android.server.am.AppProfiler.startHeapDumpLPf:(Lcom/android/server/am/ProcessProfileRecord;Z)V&#45;&gt;__field__</title>
<path fill="none" stroke="#dc2626" d="M226.15,-119.67C247.37,-116.9 269.94,-114.42 291,-113 322.62,-110.87 357.04,-110.23 388.5,-110.29"/>
<polygon fill="#dc2626" stroke="#dc2626" points="388.84,-113.09 396.85,-110.32 388.86,-107.49 388.84,-113.09"/>
<text text-anchor="middle" x="333" y="-115.8" font-family="Helvetica,sans-Serif" font-size="9.00" fill="#dc2626"> reads unguarded</text>
</g>
<!-- m::com.android.server.am.AppProfiler.dumpMemWatchProcessesLPf:(Ljava/io/PrintWriter;Z)Z -->
<g id="node4" class="node">
<title>m::com.android.server.am.AppProfiler.dumpMemWatchProcessesLPf:(Ljava/io/PrintWriter;Z)Z</title>
<path fill="#fee2e2" stroke="#dc2626" d="M244.5,-94C244.5,-94 24.5,-94 24.5,-94 18.5,-94 12.5,-88 12.5,-82 12.5,-82 12.5,-70 12.5,-70 12.5,-64 18.5,-58 24.5,-58 24.5,-58 244.5,-58 244.5,-58 250.5,-58 256.5,-64 256.5,-70 256.5,-70 256.5,-82 256.5,-82 256.5,-88 250.5,-94 244.5,-94"/>
<text text-anchor="middle" x="134.5" y="-73.2" font-family="Helvetica,sans-Serif" font-size="11.00">AppProfiler.dumpMemWatchProcessesLPf</text>
</g>
<!-- m::com.android.server.am.AppProfiler.dumpMemWatchProcessesLPf:(Ljava/io/PrintWriter;Z)Z&#45;&gt;__field__ -->
<g id="edge3" class="edge">
<title>m::com.android.server.am.AppProfiler.dumpMemWatchProcessesLPf:(Ljava/io/PrintWriter;Z)Z&#45;&gt;__field__</title>
<path fill="none" stroke="#dc2626" d="M256.57,-83.98C294.54,-86.92 336.56,-90.62 375,-95 379.42,-95.5 383.92,-96.04 388.47,-96.61"/>
<polygon fill="#dc2626" stroke="#dc2626" points="388.4,-99.43 396.69,-97.67 389.11,-93.87 388.4,-99.43"/>
<text text-anchor="middle" x="333" y="-97.8" font-family="Helvetica,sans-Serif" font-size="9.00" fill="#dc2626"> reads unguarded</text>
</g>
<!-- m::com.android.server.am.AppProfiler.writeMemWatchProcessToProtoLPf:(Landroid/util/proto/ProtoOutputStream;)V -->
<g id="node5" class="node">
<title>m::com.android.server.am.AppProfiler.writeMemWatchProcessToProtoLPf:(Landroid/util/proto/ProtoOutputStream;)V</title>
<path fill="#fee2e2" stroke="#dc2626" d="M257,-36C257,-36 12,-36 12,-36 6,-36 0,-30 0,-24 0,-24 0,-12 0,-12 0,-6 6,0 12,0 12,0 257,0 257,0 263,0 269,-6 269,-12 269,-12 269,-24 269,-24 269,-30 263,-36 257,-36"/>
<text text-anchor="middle" x="134.5" y="-15.2" font-family="Helvetica,sans-Serif" font-size="11.00">AppProfiler.writeMemWatchProcessToProtoLPf</text>
</g>
<!-- m::com.android.server.am.AppProfiler.writeMemWatchProcessToProtoLPf:(Landroid/util/proto/ProtoOutputStream;)V&#45;&gt;__field__ -->
<g id="edge5" class="edge">
<title>m::com.android.server.am.AppProfiler.writeMemWatchProcessToProtoLPf:(Landroid/util/proto/ProtoOutputStream;)V&#45;&gt;__field__</title>
<path fill="none" stroke="#dc2626" d="M226.82,-36.02C271.76,-45.53 326.55,-58.11 375,-72 395.89,-77.99 418.52,-85.4 438.49,-92.27"/>
<polygon fill="#dc2626" stroke="#dc2626" points="437.82,-95 446.3,-94.97 439.65,-89.71 437.82,-95"/>
<text text-anchor="middle" x="333" y="-74.8" font-family="Helvetica,sans-Serif" font-size="9.00" fill="#dc2626"> reads unguarded</text>
</g>
</g>
</svg>
