<?xml version="1.0" encoding="UTF-8" standalone="no"?>
<!DOCTYPE svg PUBLIC "-//W3C//DTD SVG 1.1//EN"
 "http://www.w3.org/Graphics/SVG/1.1/DTD/svg11.dtd">
<!-- Generated by graphviz version 2.43.0 (0)
 -->
<!-- Title: race Pages: 1 -->
<svg width="674pt" height="124pt"
 viewBox="0.00 0.00 674.00 123.91" xmlns="http://www.w3.org/2000/svg" xmlns:xlink="http://www.w3.org/1999/xlink">
<g id="graph0" class="graph" transform="scale(1 1) rotate(0) translate(4 119.91)">
<title>race</title>
<polygon fill="white" stroke="transparent" points="-4,4 -4,-119.91 670,-119.91 670,4 -4,4"/>
<!-- __field__ -->
<g id="node1" class="node">
<title>__field__</title>
<path fill="#fef9c3" stroke="#ca8a04" stroke-width="2" d="M654,-59.91C654,-59.91 473,-59.91 473,-59.91 467,-59.91 461,-53.91 461,-47.91 461,-47.91 461,-35.91 461,-35.91 461,-29.91 467,-23.91 473,-23.91 473,-23.91 654,-23.91 654,-23.91 660,-23.91 666,-29.91 666,-35.91 666,-35.91 666,-47.91 666,-47.91 666,-53.91 660,-59.91 654,-59.91"/>
<text text-anchor="middle" x="563.5" y="-39.11" font-family="Helvetica,sans-Serif" font-size="11.00">ErrorDialogController.mWaitDialog</text>
</g>
<!-- __guard__ -->
<g id="node2" class="node">
<title>__guard__</title>
<path fill="#dcfce7" stroke="#16a34a" stroke-width="2" d="M259.5,-115.91C259.5,-115.91 73.5,-115.91 73.5,-115.91 67.5,-115.91 61.5,-109.91 61.5,-103.91 61.5,-103.91 61.5,-91.91 61.5,-91.91 61.5,-85.91 67.5,-79.91 73.5,-79.91 73.5,-79.91 259.5,-79.91 259.5,-79.91 265.5,-79.91 271.5,-85.91 271.5,-91.91 271.5,-91.91 271.5,-103.91 271.5,-103.91 271.5,-109.91 265.5,-115.91 259.5,-115.91"/>
<text text-anchor="middle" x="166.5" y="-95.11" font-family="Helvetica,sans-Serif" font-size="11.00">ActivityManagerService.mProcLock</text>
</g>
<!-- __guard__&#45;&gt;__field__ -->
<g id="edge1" class="edge">
<title>__guard__&#45;&gt;__field__</title>
<path fill="none" stroke="#16a34a" stroke-width="1.6" d="M271.54,-83.16C327.31,-75.25 396.01,-65.51 452.64,-57.49"/>
<polygon fill="#16a34a" stroke="#16a34a" stroke-width="1.6" points="453.38,-60.21 460.91,-56.31 452.59,-54.66 453.38,-60.21"/>
<text text-anchor="middle" x="397" y="-72.71" font-family="Helvetica,sans-Serif" font-size="9.00" fill="#15803d"> guards 2/3</text>
</g>
<!-- m::com.android.server.am.ErrorDialogController.moveWaitingDialogToDefaultDisplay:(I)V -->
<g id="node3" class="node">
<title>m::com.android.server.am.ErrorDialogController.moveWaitingDialogToDefaultDisplay:(I)V</title>
<path fill="#fee2e2" stroke="#dc2626" d="M321,-41.91C321,-41.91 12,-41.91 12,-41.91 6,-41.91 0,-35.91 0,-29.91 0,-29.91 0,-17.91 0,-17.91 0,-11.91 6,-5.91 12,-5.91 12,-5.91 321,-5.91 321,-5.91 327,-5.91 333,-11.91 333,-17.91 333,-17.91 333,-29.91 333,-29.91 333,-35.91 327,-41.91 321,-41.91"/>
<text text-anchor="middle" x="166.5" y="-21.11" font-family="Helvetica,sans-Serif" font-size="11.00">ErrorDialogController.moveWaitingDialogToDefaultDisplay</text>
</g>
<!-- m::com.android.server.am.ErrorDialogController.moveWaitingDialogToDefaultDisplay:(I)V&#45;&gt;__field__ -->
<g id="edge2" class="edge">
<title>m::com.android.server.am.ErrorDialogController.moveWaitingDialogToDefaultDisplay:(I)V&#45;&gt;__field__</title>
<path fill="none" stroke="#dc2626" d="M333.12,-33.85C340.51,-34.22 347.83,-34.58 355,-34.91 386.65,-36.37 421.02,-37.66 452.53,-38.71"/>
<polygon fill="#dc2626" stroke="#dc2626" points="452.81,-41.52 460.9,-38.99 452.99,-35.92 452.81,-41.52"/>
<text text-anchor="middle" x="397" y="-40.71" font-family="Helvetica,sans-Serif" font-size="9.00" fill="#dc2626"> writes unguarded</text>
</g>
<!-- m::com.android.server.am.ErrorDialogController.moveWaitingDialogToDefaultDisplay:(I)V&#45;&gt;__field__ -->
<g id="edge3" class="edge">
<title>m::com.android.server.am.ErrorDialogController.moveWaitingDialogToDefaultDisplay:(I)V&#45;&gt;__field__</title>
<path fill="none" stroke="#dc2626" d="M333.11,-20.1C368.11,-20.36 404.8,-21.43 439,-23.91 443.46,-24.23 448,-24.62 452.58,-25.06"/>
<polygon fill="#dc2626" stroke="#dc2626" points="452.62,-27.88 460.86,-25.91 453.19,-22.31 452.62,-27.88"/>
<text text-anchor="middle" x="397" y="-26.71" font-family="Helvetica,sans-Serif" font-size="9.00" fill="#dc2626"> reads unguarded</text>
</g>
<!-- m::com.android.server.am.ErrorDialogController.moveWaitingDialogToDefaultDisplay:(I)V&#45;&gt;__field__ -->
<g id="edge4" class="edge">
<title>m::com.android.server.am.ErrorDialogController.moveWaitingDialogToDefaultDisplay:(I)V&#45;&gt;__field__</title>
<path fill="none" stroke="#dc2626" d="M273.95,-5.91C324.2,-0.1 384.89,3.02 439,-4.91 461.48,-8.21 485.56,-14.71 506.43,-21.35"/>
<polygon fill="#dc2626" stroke="#dc2626" points="505.78,-24.09 514.26,-23.9 507.52,-18.76 505.78,-24.09"/>
<text text-anchor="middle" x="397" y="-7.71" font-family="Helvetica,sans-Serif" font-size="9.00" fill="#dc2626"> reads unguarded</text>
</g>
</g>
</svg>
