<?xml version="1.0" encoding="UTF-8" standalone="no"?>
<!DOCTYPE svg PUBLIC "-//W3C//DTD SVG 1.1//EN"
 "http://www.w3.org/Graphics/SVG/1.1/DTD/svg11.dtd">
<!-- Generated by graphviz version 2.43.0 (0)
 -->
<!-- Title: race Pages: 1 -->
<svg width="661pt" height="102pt"
 viewBox="0.00 0.00 661.00 102.00" xmlns="http://www.w3.org/2000/svg" xmlns:xlink="http://www.w3.org/1999/xlink">
<g id="graph0" class="graph" transform="scale(1 1) rotate(0) translate(4 98)">
<title>race</title>
<polygon fill="white" stroke="transparent" points="-4,4 -4,-98 657,-98 657,4 -4,4"/>
<!-- __field__ -->
<g id="node1" class="node">
<title>__field__</title>
<path fill="#fef9c3" stroke="#ca8a04" stroke-width="2" d="M641,-65C641,-65 411,-65 411,-65 405,-65 399,-59 399,-53 399,-53 399,-41 399,-41 399,-35 405,-29 411,-29 411,-29 641,-29 641,-29 647,-29 653,-35 653,-41 653,-41 653,-53 653,-53 653,-59 647,-65 641,-65"/>
<text text-anchor="middle" x="526" y="-44.2" font-family="Helvetica,sans-Serif" font-size="11.00">UserState.mPrintServiceRecommendations</text>
</g>
<!-- __guard__ -->
<g id="node2" class="node">
<title>__guard__</title>
<path fill="#dcfce7" stroke="#16a34a" stroke-width="2" d="M261,-94C261,-94 12,-94 12,-94 6,-94 0,-88 0,-82 0,-82 0,-70 0,-70 0,-64 6,-58 12,-58 12,-58 261,-58 261,-58 267,-58 273,-64 273,-70 273,-70 273,-82 273,-82 273,-88 267,-94 261,-94"/>
<text text-anchor="middle" x="136.5" y="-73.2" font-family="Helvetica,sans-Serif" font-size="11.00">PrintManagerService$PrintManagerImpl.mLock</text>
</g>
<!-- __guard__&#45;&gt;__field__ -->
<g id="edge1" class="edge">
<title>__guard__&#45;&gt;__field__</title>
<path fill="none" stroke="#16a34a" stroke-width="1.6" d="M273.03,-65.86C311.23,-63 352.77,-59.89 390.89,-57.04"/>
<polygon fill="#16a34a" stroke="#16a34a" stroke-width="1.6" points="391.2,-59.82 398.97,-56.43 390.78,-54.24 391.2,-59.82"/>
<text text-anchor="middle" x="336" y="-66.8" font-family="Helvetica,sans-Serif" font-size="9.00" fill="#15803d"> guards 2/2</text>
</g>
<!-- m::com.android.server.print.UserState.getPrintServiceRecommendations:()Ljava/util/List; -->
<g id="node3" class="node">
<title>m::com.android.server.print.UserState.getPrintServiceRecommendations:()Ljava/util/List;</title>
<path fill="#fee2e2" stroke="#dc2626" d="M255,-36C255,-36 18,-36 18,-36 12,-36 6,-30 6,-24 6,-24 6,-12 6,-12 6,-6 12,0 18,0 18,0 255,0 255,0 261,0 267,-6 267,-12 267,-12 267,-24 267,-24 267,-30 261,-36 255,-36"/>
<text text-anchor="middle" x="136.5" y="-15.2" font-family="Helvetica,sans-Serif" font-size="11.00">UserState.getPrintServiceRecommendations</text>
</g>
<!-- m::com.android.server.print.UserState.getPrintServiceRecommendations:()Ljava/util/List;&#45;&gt;__field__ -->
<g id="edge2" class="edge">
<title>m::com.android.server.print.UserState.getPrintServiceRecommendations:()Ljava/util/List;&#45;&gt;__field__</title>
<path fill="none" stroke="#dc2626" d="M267.07,-27.7C306.8,-30.67 350.58,-33.95 390.62,-36.94"/>
<polygon fill="#dc2626" stroke="#dc2626" points="390.65,-39.75 398.84,-37.56 391.07,-34.17 390.65,-39.75"/>
<text text-anchor="middle" x="336" y="-37.8" font-family="Helvetica,sans-Serif" font-size="9.00" fill="#dc2626"> reads unguarded</text>
</g>
</g>
</svg>
