<?xml version="1.0" encoding="UTF-8" standalone="no"?>
<!DOCTYPE svg PUBLIC "-//W3C//DTD SVG 1.1//EN"
 "http://www.w3.org/Graphics/SVG/1.1/DTD/svg11.dtd">
<!-- Generated by graphviz version 2.43.0 (0)
 -->
<!-- Title: race Pages: 1 -->
<svg width="610pt" height="160pt"
 viewBox="0.00 0.00 610.00 160.00" xmlns="http://www.w3.org/2000/svg" xmlns:xlink="http://www.w3.org/1999/xlink">
<g id="graph0" class="graph" transform="scale(1 1) rotate(0) translate(4 156)">
<title>race</title>
<polygon fill="white" stroke="transparent" points="-4,4 -4,-156 606,-156 606,4 -4,4"/>
<!-- __field__ -->
<g id="node1" class="node">
<title>__field__</title>
<path fill="#fef9c3" stroke="#ca8a04" stroke-width="2" d="M590,-94C590,-94 375,-94 375,-94 369,-94 363,-88 363,-82 363,-82 363,-70 363,-70 363,-64 369,-58 375,-58 375,-58 590,-58 590,-58 596,-58 602,-64 602,-70 602,-70 602,-82 602,-82 602,-88 596,-94 590,-94"/>
<text text-anchor="middle" x="482.5" y="-73.2" font-family="Helvetica,sans-Serif" font-size="11.00">PackageProperty.mApplicationProperties</text>
</g>
<!-- __guard__ -->
<g id="node2" class="node">
<title>__guard__</title>
<path fill="#dcfce7" stroke="#16a34a" stroke-width="2" d="M221.5,-152C221.5,-152 15.5,-152 15.5,-152 9.5,-152 3.5,-146 3.5,-140 3.5,-140 3.5,-128 3.5,-128 3.5,-122 9.5,-116 15.5,-116 15.5,-116 221.5,-116 221.5,-116 227.5,-116 233.5,-122 233.5,-128 233.5,-128 233.5,-140 233.5,-140 233.5,-146 227.5,-152 221.5,-152"/>
<text text-anchor="middle" x="118.5" y="-131.2" font-family="Helvetica,sans-Serif" font-size="11.00">PackageManagerServiceInjector.mLock</text>
</g>
<!-- __guard__&#45;&gt;__field__ -->
<g id="edge1" class="edge">
<title>__guard__&#45;&gt;__field__</title>
<path fill="none" stroke="#16a34a" stroke-width="1.6" d="M232.05,-115.97C273,-109.41 319.43,-101.97 361.03,-95.3"/>
<polygon fill="#16a34a" stroke="#16a34a" stroke-width="1.6" points="361.56,-98.05 369.01,-94.02 360.67,-92.52 361.56,-98.05"/>
<text text-anchor="middle" x="300" y="-112.8" font-family="Helvetica,sans-Serif" font-size="9.00" fill="#15803d"> guards 2/2</text>
</g>
<!-- m::com.android.server.pm.PackageProperty.getApplicationProperty:(Ljava/lang/String;Ljava/lang/String;)Landroid/content/pm/PackageManager$Property; -->
<g id="node3" class="node">
<title>m::com.android.server.pm.PackageProperty.getApplicationProperty:(Ljava/lang/String;Ljava/lang/String;)Landroid/content/pm/PackageManager$Property;</title>
<path fill="#fee2e2" stroke="#dc2626" d="M225,-94C225,-94 12,-94 12,-94 6,-94 0,-88 0,-82 0,-82 0,-70 0,-70 0,-64 6,-58 12,-58 12,-58 225,-58 225,-58 231,-58 237,-64 237,-70 237,-70 237,-82 237,-82 237,-88 231,-94 225,-94"/>
<text text-anchor="middle" x="118.5" y="-73.2" font-family="Helvetica,sans-Serif" font-size="11.00">PackageProperty.getApplicationProperty</text>
</g>
<!-- m::com.android.server.pm.PackageProperty.getApplicationProperty:(Ljava/lang/String;Ljava/lang/String;)Landroid/content/pm/PackageManager$Property;&#45;&gt;__field__ -->
<g id="edge2" class="edge">
<title>m::com.android.server.pm.PackageProperty.getApplicationProperty:(Ljava/lang/String;Ljava/lang/String;)Landroid/content/pm/PackageManager$Property;&#45;&gt;__field__</title>
<path fill="none" stroke="#dc2626" d="M237.03,-76C274.62,-76 316.38,-76 354.6,-76"/>
<polygon fill="#dc2626" stroke="#dc2626" points="354.7,-78.8 362.7,-76 354.7,-73.2 354.7,-78.8"/>
<text text-anchor="middle" x="300" y="-78.8" font-family="Helvetica,sans-Serif" font-size="9.00" fill="#dc2626"> reads unguarded</text>
</g>
<!-- m::com.android.server.pm.PackageProperty.queryProperty:(Ljava/lang/String;ILjava/util/function/Predicate;)Ljava/util/List; -->
<g id="node4" class="node">
<title>m::com.android.server.pm.PackageProperty.queryProperty:(Ljava/lang/String;ILjava/util/function/Predicate;)Ljava/util/List;</title>
<path fill="#fee2e2" stroke="#dc2626" d="M201.5,-36C201.5,-36 35.5,-36 35.5,-36 29.5,-36 23.5,-30 23.5,-24 23.5,-24 23.5,-12 23.5,-12 23.5,-6 29.5,0 35.5,0 35.5,0 201.5,0 201.5,0 207.5,0 213.5,-6 213.5,-12 213.5,-12 213.5,-24 213.5,-24 213.5,-30 207.5,-36 201.5,-36"/>
<text text-anchor="middle" x="118.5" y="-15.2" font-family="Helvetica,sans-Serif" font-size="11.00">PackageProperty.queryProperty</text>
</g>
<!-- m::com.android.server.pm.PackageProperty.queryProperty:(Ljava/lang/String;ILjava/util/function/Predicate;)Ljava/util/List;&#45;&gt;__field__ -->
<g id="edge3" class="edge">
<title>m::com.android.server.pm.PackageProperty.queryProperty:(Ljava/lang/String;ILjava/util/function/Predicate;)Ljava/util/List;&#45;&gt;__field__</title>
<path fill="none" stroke="#dc2626" d="M213.67,-33.09C258.71,-40.3 313.16,-49.03 361.17,-56.72"/>
<polygon fill="#dc2626" stroke="#dc2626" points="360.79,-59.49 369.13,-58 361.67,-53.97 360.79,-59.49"/>
<text text-anchor="middle" x="300" y="-54.8" font-family="Helvetica,sans-Serif" font-size="9.00" fill="#dc2626"> reads unguarded</text>
</g>
</g>
</svg>
