<?xml version="1.0" encoding="UTF-8" standalone="no"?>
<!DOCTYPE svg PUBLIC "-//W3C//DTD SVG 1.1//EN"
 "http://www.w3.org/Graphics/SVG/1.1/DTD/svg11.dtd">
<!-- Generated by graphviz version 2.43.0 (0)
 -->
<!-- Title: race Pages: 1 -->
<svg width="589pt" height="276pt"
 viewBox="0.00 0.00 589.00 276.00" xmlns="http://www.w3.org/2000/svg" xmlns:xlink="http://www.w3.org/1999/xlink">
<g id="graph0" class="graph" transform="scale(1 1) rotate(0) translate(4 272)">
<title>race</title>
<polygon fill="white" stroke="transparent" points="-4,4 -4,-272 585,-272 585,4 -4,4"/>
<!-- __field__ -->
<g id="node1" class="node">
<title>__field__</title>
<path fill="#fef9c3" stroke="#ca8a04" stroke-width="2" d="M569,-152C569,-152 383,-152 383,-152 377,-152 371,-146 371,-140 371,-140 371,-128 371,-128 371,-122 377,-116 383,-116 383,-116 569,-116 569,-116 575,-116 581,-122 581,-128 581,-128 581,-140 581,-140 581,-146 575,-152 569,-152"/>
<text text-anchor="middle" x="476" y="-131.2" font-family="Helvetica,sans-Serif" font-size="11.00">MediaSessionRecord.mVolumeType</text>
</g>
<!-- __guard__ -->
<g id="node2" class="node">
<title>__guard__</title>
<path fill="#dcfce7" stroke="#16a34a" stroke-width="2" d="M195,-268C195,-268 50,-268 50,-268 44,-268 38,-262 38,-256 38,-256 38,-244 38,-244 38,-238 44,-232 50,-232 50,-232 195,-232 195,-232 201,-232 207,-238 207,-244 207,-244 207,-256 207,-256 207,-262 201,-268 195,-268"/>
<text text-anchor="middle" x="122.5" y="-247.2" font-family="Helvetica,sans-Serif" font-size="11.00">MediaSessionRecord.mLock</text>
</g>
<!-- __guard__&#45;&gt;__field__ -->
<g id="edge1" class="edge">
<title>__guard__&#45;&gt;__field__</title>
<path fill="none" stroke="#16a34a" stroke-width="1.6" d="M204.89,-231.95C218.36,-228.57 232.12,-224.87 245,-221 308.12,-202 378.77,-174.27 424.9,-155.26"/>
<polygon fill="#16a34a" stroke="#16a34a" stroke-width="1.6" points="426.05,-157.81 432.37,-152.16 423.91,-152.64 426.05,-157.81"/>
<text text-anchor="middle" x="308" y="-215.8" font-family="Helvetica,sans-Serif" font-size="9.00" fill="#15803d"> guards 2/2</text>
</g>
<!-- m::com.android.server.media.MediaSessionRecord.adjustVolume:(Ljava/lang/String;Ljava/lang/String;IIZIIZ)V -->
<g id="node3" class="node">
<title>m::com.android.server.media.MediaSessionRecord.adjustVolume:(Ljava/lang/String;Ljava/lang/String;IIZIIZ)V</title>
<path fill="#fee2e2" stroke="#dc2626" d="M214.5,-210C214.5,-210 30.5,-210 30.5,-210 24.5,-210 18.5,-204 18.5,-198 18.5,-198 18.5,-186 18.5,-186 18.5,-180 24.5,-174 30.5,-174 30.5,-174 214.5,-174 214.5,-174 220.5,-174 226.5,-180 226.5,-186 226.5,-186 226.5,-198 226.5,-198 226.5,-204 220.5,-210 214.5,-210"/>
<text text-anchor="middle" x="122.5" y="-189.2" font-family="Helvetica,sans-Serif" font-size="11.00">MediaSessionRecord.adjustVolume</text>
</g>
<!-- m::com.android.server.media.MediaSessionRecord.adjustVolume:(Ljava/lang/String;Ljava/lang/String;IIZIIZ)V&#45;&gt;__field__ -->
<g id="edge2" class="edge">
<title>m::com.android.server.media.MediaSessionRecord.adjustVolume:(Ljava/lang/String;Ljava/lang/String;IIZIIZ)V&#45;&gt;__field__</title>
<path fill="none" stroke="#dc2626" d="M226.59,-174.99C269.3,-167.94 318.97,-159.75 362.62,-152.54"/>
<polygon fill="#dc2626" stroke="#dc2626" points="363.26,-155.28 370.7,-151.21 362.35,-149.75 363.26,-155.28"/>
<text text-anchor="middle" x="308" y="-170.8" font-family="Helvetica,sans-Serif" font-size="9.00" fill="#dc2626"> reads unguarded</text>
</g>
<!-- m::com.android.server.media.MediaSessionRecord.dump:(Ljava/io/PrintWriter;Ljava/lang/String;)V -->
<g id="node4" class="node">
<title>m::com.android.server.media.MediaSessionRecord.dump:(Ljava/io/PrintWriter;Ljava/lang/String;)V</title>
<path fill="#fee2e2" stroke="#dc2626" d="M192.5,-152C192.5,-152 52.5,-152 52.5,-152 46.5,-152 40.5,-146 40.5,-140 40.5,-140 40.5,-128 40.5,-128 40.5,-122 46.5,-116 52.5,-116 52.5,-116 192.5,-116 192.5,-116 198.5,-116 204.5,-122 204.5,-128 204.5,-128 204.5,-140 204.5,-140 204.5,-146 198.5,-152 192.5,-152"/>
<text text-anchor="middle" x="122.5" y="-131.2" font-family="Helvetica,sans-Serif" font-size="11.00">MediaSessionRecord.dump</text>
</g>
<!-- m::com.android.server.media.MediaSessionRecord.dump:(Ljava/io/PrintWriter;Ljava/lang/String;)V&#45;&gt;__field__ -->
<g id="edge3" class="edge">
<title>m::com.android.server.media.MediaSessionRecord.dump:(Ljava/io/PrintWriter;Ljava/lang/String;)V&#45;&gt;__field__</title>
<path fill="none" stroke="#dc2626" d="M204.58,-134C251.54,-134 311.35,-134 362.78,-134"/>
<polygon fill="#dc2626" stroke="#dc2626" points="362.95,-136.8 370.95,-134 362.95,-131.2 362.95,-136.8"/>
<text text-anchor="middle" x="308" y="-136.8" font-family="Helvetica,sans-Serif" font-size="9.00" fill="#dc2626"> reads unguarded</text>
</g>
<!-- m::com.android.server.media.MediaSessionRecord.isPlaybackTypeLocal:()Z -->
<g id="node5" class="node">
<title>m::com.android.server.media.MediaSessionRecord.isPlaybackTypeLocal:()Z</title>
<path fill="#fee2e2" stroke="#dc2626" d="M233,-94C233,-94 12,-94 12,-94 6,-94 0,-88 0,-82 0,-82 0,-70 0,-70 0,-64 6,-58 12,-58 12,-58 233,-58 233,-58 239,-58 245,-64 245,-70 245,-70 245,-82 245,-82 245,-88 239,-94 233,-94"/>
<text text-anchor="middle" x="122.5" y="-73.2" font-family="Helvetica,sans-Serif" font-size="11.00">MediaSessionRecord.isPlaybackTypeLocal</text>
</g>
<!-- m::com.android.server.media.MediaSessionRecord.isPlaybackTypeLocal:()Z&#45;&gt;__field__ -->
<g id="edge4" class="edge">
<title>m::com.android.server.media.MediaSessionRecord.isPlaybackTypeLocal:()Z&#45;&gt;__field__</title>
<path fill="none" stroke="#dc2626" d="M232.79,-94.03C274.16,-100.86 321.29,-108.64 362.91,-115.5"/>
<polygon fill="#dc2626" stroke="#dc2626" points="362.54,-118.28 370.89,-116.82 363.45,-112.76 362.54,-118.28"/>
<text text-anchor="middle" x="308" y="-113.8" font-family="Helvetica,sans-Serif" font-size="9.00" fill="#dc2626"> reads unguarded</text>
</g>
<!-- m::com.android.server.media.MediaSessionRecord.setVolumeTo:(Ljava/lang/String;Ljava/lang/String;IIII)V -->
<g id="node6" class="node">
<title>m::com.android.server.media.MediaSessionRecord.setVolumeTo:(Ljava/lang/String;Ljava/lang/String;IIII)V</title>
<path fill="#fee2e2" stroke="#dc2626" d="M212,-36C212,-36 33,-36 33,-36 27,-36 21,-30 21,-24 21,-24 21,-12 21,-12 21,-6 27,0 33,0 33,0 212,0 212,0 218,0 224,-6 224,-12 224,-12 224,-24 224,-24 224,-30 218,-36 212,-36"/>
<text text-anchor="middle" x="122.5" y="-15.2" font-family="Helvetica,sans-Serif" font-size="11.00">MediaSessionRecord.setVolumeTo</text>
</g>
<!-- m::com.android.server.media.MediaSessionRecord.setVolumeTo:(Ljava/lang/String;Ljava/lang/String;IIII)V&#45;&gt;__field__ -->
<g id="edge5" class="edge">
<title>m::com.android.server.media.MediaSessionRecord.setVolumeTo:(Ljava/lang/String;Ljava/lang/String;IIII)V&#45;&gt;__field__</title>
<path fill="none" stroke="#dc2626" d="M204.54,-36.06C218.11,-39.45 232,-43.15 245,-47 308.4,-65.78 379.27,-93.68 425.37,-112.79"/>
<polygon fill="#dc2626" stroke="#dc2626" points="424.37,-115.41 432.83,-115.9 426.52,-110.24 424.37,-115.41"/>
<text text-anchor="middle" x="308" y="-83.8" font-family="Helvetica,sans-Serif" font-size="9.00" fill="#dc2626"> reads unguarded</text>
</g>
</g>
</svg>
