<?xml version="1.0" encoding="UTF-8" standalone="no"?>
<!DOCTYPE svg PUBLIC "-//W3C//DTD SVG 1.1//EN"
 "http://www.w3.org/Graphics/SVG/1.1/DTD/svg11.dtd">
<!-- Generated by graphviz version 2.43.0 (0)
 -->
<!-- Title: race Pages: 1 -->
<svg width="740pt" height="508pt"
 viewBox="0.00 0.00 740.00 508.00" xmlns="http://www.w3.org/2000/svg" xmlns:xlink="http://www.w3.org/1999/xlink">
<g id="graph0" class="graph" transform="scale(1 1) rotate(0) translate(4 504)">
<title>race</title>
<polygon fill="white" stroke="transparent" points="-4,4 -4,-504 736,-504 736,4 -4,4"/>
<!-- __field__ -->
<g id="node1" class="node">
<title>__field__</title>
<path fill="#fef9c3" stroke="#ca8a04" stroke-width="2" d="M720,-268C720,-268 476,-268 476,-268 470,-268 464,-262 464,-256 464,-256 464,-244 464,-244 464,-238 470,-232 476,-232 476,-232 720,-232 720,-232 726,-232 732,-238 732,-244 732,-244 732,-256 732,-256 732,-262 726,-268 720,-268"/>
<text text-anchor="middle" x="598" y="-247.2" font-family="Helvetica,sans-Serif" font-size="11.00">AudioService$VolumeStreamState.mIndexMin</text>
</g>
<!-- __guard__ -->
<g id="node2" class="node">
<title>__guard__</title>
<path fill="#dcfce7" stroke="#16a34a" stroke-width="2" d="M276,-500C276,-500 62,-500 62,-500 56,-500 50,-494 50,-488 50,-488 50,-476 50,-476 50,-470 56,-464 62,-464 62,-464 276,-464 276,-464 282,-464 288,-470 288,-476 288,-476 288,-488 288,-488 288,-494 282,-500 276,-500"/>
<text text-anchor="middle" x="169" y="-479.2" font-family="Helvetica,sans-Serif" font-size="11.00">audio.AudioService$VolumeStreamState</text>
</g>
<!-- __guard__&#45;&gt;__field__ -->
<g id="edge1" class="edge">
<title>__guard__&#45;&gt;__field__</title>
<path fill="none" stroke="#16a34a" stroke-width="1.6" d="M288.24,-479.98C338.4,-474.72 395.81,-462.56 442,-436 509.75,-397.05 560.85,-316.56 583.75,-275.42"/>
<polygon fill="#16a34a" stroke="#16a34a" stroke-width="1.6" points="586.31,-276.58 587.69,-268.22 581.39,-273.89 586.31,-276.58"/>
<text text-anchor="middle" x="401" y="-468.8" font-family="Helvetica,sans-Serif" font-size="9.00" fill="#15803d"> guards 5/5</text>
</g>
<!-- m::com.android.server.audio.AudioService$VolumeStreamState.dump:(Ljava/io/PrintWriter;)V -->
<g id="node3" class="node">
<title>m::com.android.server.audio.AudioService$VolumeStreamState.dump:(Ljava/io/PrintWriter;)V</title>
<path fill="#fee2e2" stroke="#dc2626" d="M276.5,-442C276.5,-442 61.5,-442 61.5,-442 55.5,-442 49.5,-436 49.5,-430 49.5,-430 49.5,-418 49.5,-418 49.5,-412 55.5,-406 61.5,-406 61.5,-406 276.5,-406 276.5,-406 282.5,-406 288.5,-412 288.5,-418 288.5,-418 288.5,-430 288.5,-430 288.5,-436 282.5,-442 276.5,-442"/>
<text text-anchor="middle" x="169" y="-421.2" font-family="Helvetica,sans-Serif" font-size="11.00">AudioService$VolumeStreamState.dump</text>
</g>
<!-- m::com.android.server.audio.AudioService$VolumeStreamState.dump:(Ljava/io/PrintWriter;)V&#45;&gt;__field__ -->
<g id="edge2" class="edge">
<title>m::com.android.server.audio.AudioService$VolumeStreamState.dump:(Ljava/io/PrintWriter;)V&#45;&gt;__field__</title>
<path fill="none" stroke="#dc2626" d="M288.53,-429.43C337.91,-427.51 394.65,-419.65 442,-398 502.59,-370.3 554.25,-308.94 579.83,-274.56"/>
<polygon fill="#dc2626" stroke="#dc2626" points="582.13,-276.17 584.6,-268.06 577.61,-272.86 582.13,-276.17"/>
<text text-anchor="middle" x="401" y="-423.8" font-family="Helvetica,sans-Serif" font-size="9.00" fill="#dc2626"> reads unguarded</text>
</g>
<!-- m::com.android.server.audio.AudioService$VolumeStreamState.dump:(Ljava/io/PrintWriter;)V&#45;&gt;__field__ -->
<g id="edge3" class="edge">
<title>m::com.android.server.audio.AudioService$VolumeStreamState.dump:(Ljava/io/PrintWriter;)V&#45;&gt;__field__</title>
<path fill="none" stroke="#dc2626" d="M288.53,-407.91C305.32,-404.37 322.23,-400.11 338,-395 362.49,-387.06 419.42,-356.35 442,-344 484.1,-320.97 531.03,-292.03 562.11,-272.39"/>
<polygon fill="#dc2626" stroke="#dc2626" points="563.62,-274.75 568.88,-268.1 560.62,-270.02 563.62,-274.75"/>
<text text-anchor="middle" x="401" y="-387.8" font-family="Helvetica,sans-Serif" font-size="9.00" fill="#dc2626"> reads unguarded</text>
</g>
<!-- m::com.android.server.audio.AudioService$VolumeStreamState.getMinIndex:()I -->
<g id="node4" class="node">
<title>m::com.android.server.audio.AudioService$VolumeStreamState.getMinIndex:()I</title>
<path fill="#fee2e2" stroke="#dc2626" d="M294.5,-384C294.5,-384 43.5,-384 43.5,-384 37.5,-384 31.5,-378 31.5,-372 31.5,-372 31.5,-360 31.5,-360 31.5,-354 37.5,-348 43.5,-348 43.5,-348 294.5,-348 294.5,-348 300.5,-348 306.5,-354 306.5,-360 306.5,-360 306.5,-372 306.5,-372 306.5,-378 300.5,-384 294.5,-384"/>
<text text-anchor="middle" x="169" y="-363.2" font-family="Helvetica,sans-Serif" font-size="11.00">AudioService$VolumeStreamState.getMinIndex</text>
</g>
<!-- m::com.android.server.audio.AudioService$VolumeStreamState.getMinIndex:()I&#45;&gt;__field__ -->
<g id="edge4" class="edge">
<title>m::com.android.server.audio.AudioService$VolumeStreamState.getMinIndex:()I&#45;&gt;__field__</title>
<path fill="none" stroke="#dc2626" d="M287.98,-347.99C304.85,-344.73 321.93,-341.06 338,-337 409.96,-318.82 490.71,-290.36 542.62,-270.98"/>
<polygon fill="#dc2626" stroke="#dc2626" points="543.88,-273.5 550.38,-268.07 541.91,-268.26 543.88,-273.5"/>
<text text-anchor="middle" x="401" y="-331.8" font-family="Helvetica,sans-Serif" font-size="9.00" fill="#dc2626"> reads unguarded</text>
</g>
<!-- m::com.android.server.audio.AudioService$VolumeStreamState.getMinIndex:(Z)I -->
<g id="node5" class="node">
<title>m::com.android.server.audio.AudioService$VolumeStreamState.getMinIndex:(Z)I</title>
<path fill="#fee2e2" stroke="#dc2626" d="M294.5,-326C294.5,-326 43.5,-326 43.5,-326 37.5,-326 31.5,-320 31.5,-314 31.5,-314 31.5,-302 31.5,-302 31.5,-296 37.5,-290 43.5,-290 43.5,-290 294.5,-290 294.5,-290 300.5,-290 306.5,-296 306.5,-302 306.5,-302 306.5,-314 306.5,-314 306.5,-320 300.5,-326 294.5,-326"/>
<text text-anchor="middle" x="169" y="-305.2" font-family="Helvetica,sans-Serif" font-size="11.00">AudioService$VolumeStreamState.getMinIndex</text>
</g>
<!-- m::com.android.server.audio.AudioService$VolumeStreamState.getMinIndex:(Z)I&#45;&gt;__field__ -->
<g id="edge5" class="edge">
<title>m::com.android.server.audio.AudioService$VolumeStreamState.getMinIndex:(Z)I&#45;&gt;__field__</title>
<path fill="none" stroke="#dc2626" d="M302.76,-289.97C351.47,-283.35 406.74,-275.84 456.13,-269.14"/>
<polygon fill="#dc2626" stroke="#dc2626" points="456.77,-271.87 464.32,-268.02 456.01,-266.32 456.77,-271.87"/>
<text text-anchor="middle" x="401" y="-282.8" font-family="Helvetica,sans-Serif" font-size="9.00" fill="#dc2626"> reads unguarded</text>
</g>
<!-- m::com.android.server.audio.AudioService$VolumeStreamState.getValidIndex:(IZ)I -->
<g id="node6" class="node">
<title>m::com.android.server.audio.AudioService$VolumeStreamState.getValidIndex:(IZ)I</title>
<path fill="#fee2e2" stroke="#dc2626" d="M298,-268C298,-268 40,-268 40,-268 34,-268 28,-262 28,-256 28,-256 28,-244 28,-244 28,-238 34,-232 40,-232 40,-232 298,-232 298,-232 304,-232 310,-238 310,-244 310,-244 310,-256 310,-256 310,-262 304,-268 298,-268"/>
<text text-anchor="middle" x="169" y="-247.2" font-family="Helvetica,sans-Serif" font-size="11.00">AudioService$VolumeStreamState.getValidIndex</text>
</g>
<!-- m::com.android.server.audio.AudioService$VolumeStreamState.getValidIndex:(IZ)I&#45;&gt;__field__ -->
<g id="edge6" class="edge">
<title>m::com.android.server.audio.AudioService$VolumeStreamState.getValidIndex:(IZ)I&#45;&gt;__field__</title>
<path fill="none" stroke="#dc2626" d="M310.11,-250C356.89,-250 409.01,-250 455.86,-250"/>
<polygon fill="#dc2626" stroke="#dc2626" points="455.94,-252.8 463.94,-250 455.94,-247.2 455.94,-252.8"/>
<text text-anchor="middle" x="401" y="-252.8" font-family="Helvetica,sans-Serif" font-size="9.00" fill="#dc2626"> reads unguarded</text>
</g>
<!-- m::com.android.server.audio.AudioService$VolumeStreamState.isMutable:()Z -->
<g id="node7" class="node">
<title>m::com.android.server.audio.AudioService$VolumeStreamState.isMutable:()Z</title>
<path fill="#fee2e2" stroke="#dc2626" d="M287.5,-210C287.5,-210 50.5,-210 50.5,-210 44.5,-210 38.5,-204 38.5,-198 38.5,-198 38.5,-186 38.5,-186 38.5,-180 44.5,-174 50.5,-174 50.5,-174 287.5,-174 287.5,-174 293.5,-174 299.5,-180 299.5,-186 299.5,-186 299.5,-198 299.5,-198 299.5,-204 293.5,-210 287.5,-210"/>
<text text-anchor="middle" x="169" y="-189.2" font-family="Helvetica,sans-Serif" font-size="11.00">AudioService$VolumeStreamState.isMutable</text>
</g>
<!-- m::com.android.server.audio.AudioService$VolumeStreamState.isMutable:()Z&#45;&gt;__field__ -->
<g id="edge7" class="edge">
<title>m::com.android.server.audio.AudioService$VolumeStreamState.isMutable:()Z&#45;&gt;__field__</title>
<path fill="none" stroke="#dc2626" d="M299.56,-209.6C349.07,-216.32 405.73,-224.02 456.23,-230.88"/>
<polygon fill="#dc2626" stroke="#dc2626" points="455.97,-233.67 464.27,-231.97 456.72,-228.12 455.97,-233.67"/>
<text text-anchor="middle" x="401" y="-229.8" font-family="Helvetica,sans-Serif" font-size="9.00" fill="#dc2626"> reads unguarded</text>
</g>
<!-- m::com.android.server.audio.AudioService$VolumeStreamState.setStreamVolumeIndex:(II)V -->
<g id="node8" class="node">
<title>m::com.android.server.audio.AudioService$VolumeStreamState.setStreamVolumeIndex:(II)V</title>
<path fill="#fee2e2" stroke="#dc2626" d="M324.5,-152C324.5,-152 13.5,-152 13.5,-152 7.5,-152 1.5,-146 1.5,-140 1.5,-140 1.5,-128 1.5,-128 1.5,-122 7.5,-116 13.5,-116 13.5,-116 324.5,-116 324.5,-116 330.5,-116 336.5,-122 336.5,-128 336.5,-128 336.5,-140 336.5,-140 336.5,-146 330.5,-152 324.5,-152"/>
<text text-anchor="middle" x="169" y="-131.2" font-family="Helvetica,sans-Serif" font-size="11.00">AudioService$VolumeStreamState.setStreamVolumeIndex</text>
</g>
<!-- m::com.android.server.audio.AudioService$VolumeStreamState.setStreamVolumeIndex:(II)V&#45;&gt;__field__ -->
<g id="edge8" class="edge">
<title>m::com.android.server.audio.AudioService$VolumeStreamState.setStreamVolumeIndex:(II)V&#45;&gt;__field__</title>
<path fill="none" stroke="#dc2626" d="M287.98,-152.01C304.85,-155.27 321.93,-158.94 338,-163 409.96,-181.18 490.71,-209.64 542.62,-229.02"/>
<polygon fill="#dc2626" stroke="#dc2626" points="541.91,-231.74 550.38,-231.93 543.88,-226.5 541.91,-231.74"/>
<text text-anchor="middle" x="401" y="-194.8" font-family="Helvetica,sans-Serif" font-size="9.00" fill="#dc2626"> reads unguarded</text>
</g>
<!-- m::com.android.server.audio.AudioService$VolumeStreamState.updateIndexFactors:()V -->
<g id="node9" class="node">
<title>m::com.android.server.audio.AudioService$VolumeStreamState.updateIndexFactors:()V</title>
<path fill="#fee2e2" stroke="#dc2626" d="M315,-94C315,-94 23,-94 23,-94 17,-94 11,-88 11,-82 11,-82 11,-70 11,-70 11,-64 17,-58 23,-58 23,-58 315,-58 315,-58 321,-58 327,-64 327,-70 327,-70 327,-82 327,-82 327,-88 321,-94 315,-94"/>
<text text-anchor="middle" x="169" y="-73.2" font-family="Helvetica,sans-Serif" font-size="11.00">AudioService$VolumeStreamState.updateIndexFactors</text>
</g>
<!-- m::com.android.server.audio.AudioService$VolumeStreamState.updateIndexFactors:()V&#45;&gt;__field__ -->
<g id="edge9" class="edge">
<title>m::com.android.server.audio.AudioService$VolumeStreamState.updateIndexFactors:()V&#45;&gt;__field__</title>
<path fill="none" stroke="#dc2626" d="M297.05,-94.05C311,-97.18 324.89,-100.81 338,-105 426.65,-133.35 519.14,-193.88 565.91,-227.06"/>
<polygon fill="#dc2626" stroke="#dc2626" points="564.34,-229.38 572.48,-231.75 567.6,-224.82 564.34,-229.38"/>
<text text-anchor="middle" x="401" y="-148.8" font-family="Helvetica,sans-Serif" font-size="9.00" fill="#dc2626"> reads unguarded</text>
</g>
<!-- m::com.android.server.audio.AudioService$VolumeStreamState.updateNoPermMinIndex:(I)V -->
<g id="node10" class="node">
<title>m::com.android.server.audio.AudioService$VolumeStreamState.updateNoPermMinIndex:(I)V</title>
<path fill="#fee2e2" stroke="#dc2626" d="M326,-36C326,-36 12,-36 12,-36 6,-36 0,-30 0,-24 0,-24 0,-12 0,-12 0,-6 6,0 12,0 12,0 326,0 326,0 332,0 338,-6 338,-12 338,-12 338,-24 338,-24 338,-30 332,-36 326,-36"/>
<text text-anchor="middle" x="169" y="-15.2" font-family="Helvetica,sans-Serif" font-size="11.00">AudioService$VolumeStreamState.updateNoPermMinIndex</text>
</g>
<!-- m::com.android.server.audio.AudioService$VolumeStreamState.updateNoPermMinIndex:(I)V&#45;&gt;__field__ -->
<g id="edge10" class="edge">
<title>m::com.android.server.audio.AudioService$VolumeStreamState.updateNoPermMinIndex:(I)V&#45;&gt;__field__</title>
<path fill="none" stroke="#dc2626" d="M297.05,-36.05C311,-39.18 324.89,-42.81 338,-47 386.85,-62.62 400.07,-67.47 442,-97 496.2,-135.17 548.86,-192.81 576.67,-225.36"/>
<polygon fill="#dc2626" stroke="#dc2626" points="574.58,-227.23 581.89,-231.52 578.85,-223.61 574.58,-227.23"/>
<text text-anchor="middle" x="401" y="-99.8" font-family="Helvetica,sans-Serif" font-size="9.00" fill="#dc2626"> reads unguarded</text>
</g>
<!-- m::com.android.server.audio.AudioService$VolumeStreamState.updateNoPermMinIndex:(I)V&#45;&gt;__field__ -->
<g id="edge11" class="edge">
<title>m::com.android.server.audio.AudioService$VolumeStreamState.updateNoPermMinIndex:(I)V&#45;&gt;__field__</title>
<path fill="none" stroke="#dc2626" d="M338,-8.66C374.02,-12.62 410.64,-21.58 442,-39 517.87,-81.15 566.8,-177.82 586.76,-224.22"/>
<polygon fill="#dc2626" stroke="#dc2626" points="584.25,-225.46 589.93,-231.75 589.41,-223.29 584.25,-225.46"/>
<text text-anchor="middle" x="401" y="-41.8" font-family="Helvetica,sans-Serif" font-size="9.00" fill="#dc2626"> reads unguarded</text>
</g>
</g>
</svg>
