<?xml version="1.0" encoding="UTF-8" standalone="no"?>
<!DOCTYPE svg PUBLIC "-//W3C//DTD SVG 1.1//EN"
 "http://www.w3.org/Graphics/SVG/1.1/DTD/svg11.dtd">
<!-- Generated by graphviz version 2.43.0 (0)
 -->
<!-- Title: race Pages: 1 -->
<svg width="615pt" height="102pt"
 viewBox="0.00 0.00 615.00 102.00" xmlns="http://www.w3.org/2000/svg" xmlns:xlink="http://www.w3.org/1999/xlink">
<g id="graph0" class="graph" transform="scale(1 1) rotate(0) translate(4 98)">
<title>race</title>
<polygon fill="white" stroke="transparent" points="-4,4 -4,-98 611,-98 611,4 -4,4"/>
<!-- __field__ -->
<g id="node1" class="node">
<title>__field__</title>
<path fill="#fef9c3" stroke="#ca8a04" stroke-width="2" d="M595,-65C595,-65 387,-65 387,-65 381,-65 375,-59 375,-53 375,-53 375,-41 375,-41 375,-35 381,-29 387,-29 387,-29 595,-29 595,-29 601,-29 607,-35 607,-41 607,-41 607,-53 607,-53 607,-59 601,-65 595,-65"/>
<text text-anchor="middle" x="491" y="-44.2" font-family="Helvetica,sans-Serif" font-size="11.00">StatsPullAtomService.mStorageService</text>
</g>
<!-- __guard__ -->
<g id="node2" class="node">
<title>__guard__</title>
<path fill="#dcfce7" stroke="#16a34a" stroke-width="2" d="M224,-94C224,-94 25,-94 25,-94 19,-94 13,-88 13,-82 13,-82 13,-70 13,-70 13,-64 19,-58 25,-58 25,-58 224,-58 224,-58 230,-58 236,-64 236,-70 236,-70 236,-82 236,-82 236,-88 230,-94 224,-94"/>
<text text-anchor="middle" x="124.5" y="-73.2" font-family="Helvetica,sans-Serif" font-size="11.00">StatsPullAtomService.mStoragedLock</text>
</g>
<!-- __guard__&#45;&gt;__field__ -->
<g id="edge1" class="edge">
<title>__guard__&#45;&gt;__field__</title>
<path fill="none" stroke="#16a34a" stroke-width="1.6" d="M236.35,-67.18C277.57,-63.9 324.58,-60.16 366.84,-56.8"/>
<polygon fill="#16a34a" stroke="#16a34a" stroke-width="1.6" points="367.2,-59.58 374.95,-56.15 366.75,-54 367.2,-59.58"/>
<text text-anchor="middle" x="312" y="-66.8" font-family="Helvetica,sans-Serif" font-size="9.00" fill="#15803d"> guards 2/2</text>
</g>
<!-- m::com.android.server.stats.pull.StatsPullAtomService.getIStoragedService:()Landroid/os/IStoraged; -->
<g id="node3" class="node">
<title>m::com.android.server.stats.pull.StatsPullAtomService.getIStoragedService:()Landroid/os/IStoraged;</title>
<path fill="#fee2e2" stroke="#dc2626" d="M237,-36C237,-36 12,-36 12,-36 6,-36 0,-30 0,-24 0,-24 0,-12 0,-12 0,-6 6,0 12,0 12,0 237,0 237,0 243,0 249,-6 249,-12 249,-12 249,-24 249,-24 249,-30 243,-36 237,-36"/>
<text text-anchor="middle" x="124.5" y="-15.2" font-family="Helvetica,sans-Serif" font-size="11.00">StatsPullAtomService.getIStoragedService</text>
</g>
<!-- m::com.android.server.stats.pull.StatsPullAtomService.getIStoragedService:()Landroid/os/IStoraged;&#45;&gt;__field__ -->
<g id="edge2" class="edge">
<title>m::com.android.server.stats.pull.StatsPullAtomService.getIStoragedService:()Landroid/os/IStoraged;&#45;&gt;__field__</title>
<path fill="none" stroke="#dc2626" d="M249.16,-27.84C287.13,-30.86 328.9,-34.18 366.84,-37.2"/>
<polygon fill="#dc2626" stroke="#dc2626" points="366.67,-40 374.87,-37.84 367.12,-34.41 366.67,-40"/>
<text text-anchor="middle" x="312" y="-37.8" font-family="Helvetica,sans-Serif" font-size="9.00" fill="#dc2626"> reads unguarded</text>
</g>
</g>
</svg>
