<?xml version="1.0" encoding="UTF-8" standalone="no"?>
<!DOCTYPE svg PUBLIC "-//W3C//DTD SVG 1.1//EN"
 "http://www.w3.org/Graphics/SVG/1.1/DTD/svg11.dtd">
<!-- Generated by graphviz version 2.43.0 (0)
 -->
<!-- Title: race Pages: 1 -->
<svg width="881pt" height="102pt"
 viewBox="0.00 0.00 881.00 102.00" xmlns="http://www.w3.org/2000/svg" xmlns:xlink="http://www.w3.org/1999/xlink">
<g id="graph0" class="graph" transform="scale(1 1) rotate(0) translate(4 98)">
<title>race</title>
<polygon fill="white" stroke="transparent" points="-4,4 -4,-98 877,-98 877,4 -4,4"/>
<!-- __field__ -->
<g id="node1" class="node">
<title>__field__</title>
<path fill="#fef9c3" stroke="#ca8a04" stroke-width="2" d="M861,-65C861,-65 515,-65 515,-65 509,-65 503,-59 503,-53 503,-53 503,-41 503,-41 503,-35 509,-29 515,-29 515,-29 861,-29 861,-29 867,-29 873,-35 873,-41 873,-41 873,-53 873,-53 873,-59 867,-65 861,-65"/>
<text text-anchor="middle" x="688" y="-44.2" font-family="Helvetica,sans-Serif" font-size="11.00">OnDeviceIntelligenceManagerService.mRemoteInferenceService</text>
</g>
<!-- __guard__ -->
<g id="node2" class="node">
<title>__guard__</title>
<path fill="#dcfce7" stroke="#16a34a" stroke-width="2" d="M306.5,-94C306.5,-94 70.5,-94 70.5,-94 64.5,-94 58.5,-88 58.5,-82 58.5,-82 58.5,-70 58.5,-70 58.5,-64 64.5,-58 70.5,-58 70.5,-58 306.5,-58 306.5,-58 312.5,-58 318.5,-64 318.5,-70 318.5,-70 318.5,-82 318.5,-82 318.5,-88 312.5,-94 306.5,-94"/>
<text text-anchor="middle" x="188.5" y="-73.2" font-family="Helvetica,sans-Serif" font-size="11.00">OnDeviceIntelligenceManagerService.mLock</text>
</g>
<!-- __guard__&#45;&gt;__field__ -->
<g id="edge1" class="edge">
<title>__guard__&#45;&gt;__field__</title>
<path fill="none" stroke="#16a34a" stroke-width="1.6" d="M318.59,-68.48C372.21,-65.35 435.57,-61.66 494.48,-58.22"/>
<polygon fill="#16a34a" stroke="#16a34a" stroke-width="1.6" points="494.94,-61 502.76,-57.74 494.62,-55.41 494.94,-61"/>
<text text-anchor="middle" x="440" y="-65.8" font-family="Helvetica,sans-Serif" font-size="9.00" fill="#15803d"> guards 3/3</text>
</g>
<!-- m::com.android.server.ondeviceintelligence.OnDeviceIntelligenceManagerService.getRemoteInferenceService:()Lcom/android/server/ondeviceintelligence/RemoteOnDeviceSandboxedInferenceService; -->
<g id="node3" class="node">
<title>m::com.android.server.ondeviceintelligence.OnDeviceIntelligenceManagerService.getRemoteInferenceService:()Lcom/android/server/ondeviceintelligence/RemoteOnDeviceSandboxedInferenceService;</title>
<path fill="#fee2e2" stroke="#dc2626" d="M365,-36C365,-36 12,-36 12,-36 6,-36 0,-30 0,-24 0,-24 0,-12 0,-12 0,-6 6,0 12,0 12,0 365,0 365,0 371,0 377,-6 377,-12 377,-12 377,-24 377,-24 377,-30 371,-36 365,-36"/>
<text text-anchor="middle" x="188.5" y="-15.2" font-family="Helvetica,sans-Serif" font-size="11.00">OnDeviceIntelligenceManagerService.getRemoteInferenceService</text>
</g>
<!-- m::com.android.server.ondeviceintelligence.OnDeviceIntelligenceManagerService.getRemoteInferenceService:()Lcom/android/server/ondeviceintelligence/RemoteOnDeviceSandboxedInferenceService;&#45;&gt;__field__ -->
<g id="edge2" class="edge">
<title>m::com.android.server.ondeviceintelligence.OnDeviceIntelligenceManagerService.getRemoteInferenceService:()Lcom/android/server/ondeviceintelligence/RemoteOnDeviceSandboxedInferenceService;&#45;&gt;__field__</title>
<path fill="none" stroke="#dc2626" d="M377.23,-28.94C415.65,-31.18 456.15,-33.54 494.73,-35.79"/>
<polygon fill="#dc2626" stroke="#dc2626" points="494.78,-38.6 502.93,-36.27 495.11,-33.01 494.78,-38.6"/>
<text text-anchor="middle" x="440" y="-36.8" font-family="Helvetica,sans-Serif" font-size="9.00" fill="#dc2626"> reads unguarded</text>
</g>
</g>
</svg>
