<?xml version="1.0" encoding="UTF-8" standalone="no"?>
<!DOCTYPE svg PUBLIC "-//W3C//DTD SVG 1.1//EN"
 "http://www.w3.org/Graphics/SVG/1.1/DTD/svg11.dtd">
<!-- Generated by graphviz version 2.43.0 (0)
 -->
<!-- Title: race Pages: 1 -->
<svg width="599pt" height="102pt"
 viewBox="0.00 0.00 599.00 102.00" xmlns="http://www.w3.org/2000/svg" xmlns:xlink="http://www.w3.org/1999/xlink">
<g id="graph0" class="graph" transform="scale(1 1) rotate(0) translate(4 98)">
<title>race</title>
<polygon fill="white" stroke="transparent" points="-4,4 -4,-98 595,-98 595,4 -4,4"/>
<!-- __field__ -->
<g id="node1" class="node">
<title>__field__</title>
<path fill="#fef9c3" stroke="#ca8a04" stroke-width="2" d="M579,-65C579,-65 377,-65 377,-65 371,-65 365,-59 365,-53 365,-53 365,-41 365,-41 365,-35 371,-29 377,-29 377,-29 579,-29 579,-29 585,-29 591,-35 591,-41 591,-41 591,-53 591,-53 591,-59 585,-65 579,-65"/>
<text text-anchor="middle" x="478" y="-44.2" font-family="Helvetica,sans-Serif" font-size="11.00">PackageProperty.mReceiverProperties</text>
</g>
<!-- __guard__ -->
<g id="node2" class="node">
<title>__guard__</title>
<path fill="#dcfce7" stroke="#16a34a" stroke-width="2" d="M222.5,-94C222.5,-94 16.5,-94 16.5,-94 10.5,-94 4.5,-88 4.5,-82 4.5,-82 4.5,-70 4.5,-70 4.5,-64 10.5,-58 16.5,-58 16.5,-58 222.5,-58 222.5,-58 228.5,-58 234.5,-64 234.5,-70 234.5,-70 234.5,-82 234.5,-82 234.5,-88 228.5,-94 222.5,-94"/>
<text text-anchor="middle" x="119.5" y="-73.2" font-family="Helvetica,sans-Serif" font-size="11.00">PackageManagerServiceInjector.mLock</text>
</g>
<!-- __guard__&#45;&gt;__field__ -->
<g id="edge1" class="edge">
<title>__guard__&#45;&gt;__field__</title>
<path fill="none" stroke="#16a34a" stroke-width="1.6" d="M234.77,-66.7C273.65,-63.54 317.22,-60 356.57,-56.8"/>
<polygon fill="#16a34a" stroke="#16a34a" stroke-width="1.6" points="357.15,-59.56 364.9,-56.12 356.7,-53.98 357.15,-59.56"/>
<text text-anchor="middle" x="302" y="-66.8" font-family="Helvetica,sans-Serif" font-size="9.00" fill="#15803d"> guards 2/2</text>
</g>
<!-- m::com.android.server.pm.PackageProperty.getComponentProperty:(Ljava/lang/String;Ljava/lang/String;Ljava/lang/String;)Landroid/content/pm/PackageManager$Property; -->
<g id="node3" class="node">
<title>m::com.android.server.pm.PackageProperty.getComponentProperty:(Ljava/lang/String;Ljava/lang/String;Ljava/lang/String;)Landroid/content/pm/PackageManager$Property;</title>
<path fill="#fee2e2" stroke="#dc2626" d="M227,-36C227,-36 12,-36 12,-36 6,-36 0,-30 0,-24 0,-24 0,-12 0,-12 0,-6 6,0 12,0 12,0 227,0 227,0 233,0 239,-6 239,-12 239,-12 239,-24 239,-24 239,-30 233,-36 227,-36"/>
<text text-anchor="middle" x="119.5" y="-15.2" font-family="Helvetica,sans-Serif" font-size="11.00">PackageProperty.getComponentProperty</text>
</g>
<!-- m::com.android.server.pm.PackageProperty.getComponentProperty:(Ljava/lang/String;Ljava/lang/String;Ljava/lang/String;)Landroid/content/pm/PackageManager$Property;&#45;&gt;__field__ -->
<g id="edge2" class="edge">
<title>m::com.android.server.pm.PackageProperty.getComponentProperty:(Ljava/lang/String;Ljava/lang/String;Ljava/lang/String;)Landroid/content/pm/PackageManager$Property;&#45;&gt;__field__</title>
<path fill="none" stroke="#dc2626" d="M239.21,-27.66C277.03,-30.73 318.89,-34.14 356.81,-37.22"/>
<polygon fill="#dc2626" stroke="#dc2626" points="356.64,-40.02 364.84,-37.88 357.1,-34.44 356.64,-40.02"/>
<text text-anchor="middle" x="302" y="-37.8" font-family="Helvetica,sans-Serif" font-size="9.00" fill="#dc2626"> reads unguarded</text>
</g>
</g>
</svg>
