<?xml version="1.0" encoding="UTF-8" standalone="no"?>
<!DOCTYPE svg PUBLIC "-//W3C//DTD SVG 1.1//EN"
 "http://www.w3.org/Graphics/SVG/1.1/DTD/svg11.dtd">
<!-- Generated by graphviz version 2.43.0 (0)
 -->
<!-- Title: race Pages: 1 -->
<svg width="792pt" height="102pt"
 viewBox="0.00 0.00 792.00 102.00" xmlns="http://www.w3.org/2000/svg" xmlns:xlink="http://www.w3.org/1999/xlink">
<g id="graph0" class="graph" transform="scale(1 1) rotate(0) translate(4 98)">
<title>race</title>
<polygon fill="white" stroke="transparent" points="-4,4 -4,-98 788,-98 788,4 -4,4"/>
<!-- __field__ -->
<g id="node1" class="node">
<title>__field__</title>
<path fill="#fef9c3" stroke="#ca8a04" stroke-width="2" d="M772,-65C772,-65 455,-65 455,-65 449,-65 443,-59 443,-53 443,-53 443,-41 443,-41 443,-35 449,-29 455,-29 455,-29 772,-29 772,-29 778,-29 784,-35 784,-41 784,-41 784,-53 784,-53 784,-59 778,-65 772,-65"/>
<text text-anchor="middle" x="613.5" y="-44.2" font-family="Helvetica,sans-Serif" font-size="11.00">MusicRecognitionManagerPerUserService.mRemoteService</text>
</g>
<!-- __guard__ -->
<g id="node2" class="node">
<title>__guard__</title>
<path fill="#dcfce7" stroke="#16a34a" stroke-width="2" d="M257.5,-94C257.5,-94 59.5,-94 59.5,-94 53.5,-94 47.5,-88 47.5,-82 47.5,-82 47.5,-70 47.5,-70 47.5,-64 53.5,-58 59.5,-58 59.5,-58 257.5,-58 257.5,-58 263.5,-58 269.5,-64 269.5,-70 269.5,-70 269.5,-82 269.5,-82 269.5,-88 263.5,-94 257.5,-94"/>
<text text-anchor="middle" x="158.5" y="-73.2" font-family="Helvetica,sans-Serif" font-size="11.00">AbstractMasterSystemService.mLock</text>
</g>
<!-- __guard__&#45;&gt;__field__ -->
<g id="edge1" class="edge">
<title>__guard__&#45;&gt;__field__</title>
<path fill="none" stroke="#16a34a" stroke-width="1.6" d="M269.74,-68.94C319.29,-65.77 379.02,-61.95 434.64,-58.39"/>
<polygon fill="#16a34a" stroke="#16a34a" stroke-width="1.6" points="435.01,-61.17 442.82,-57.86 434.66,-55.58 435.01,-61.17"/>
<text text-anchor="middle" x="380" y="-66.8" font-family="Helvetica,sans-Serif" font-size="9.00" fill="#15803d"> guards 2/2</text>
</g>
<!-- m::com.android.server.musicrecognition.MusicRecognitionManagerPerUserService.streamAudio:(Landroid/media/musicrecognition/RecognitionRequest;ILandroid/media/AudioRecord;Ljava/io/OutputStream;)V -->
<g id="node3" class="node">
<title>m::com.android.server.musicrecognition.MusicRecognitionManagerPerUserService.streamAudio:(Landroid/media/musicrecognition/RecognitionRequest;ILandroid/media/AudioRecord;Ljava/io/OutputStream;)V</title>
<path fill="#fee2e2" stroke="#dc2626" d="M305,-36C305,-36 12,-36 12,-36 6,-36 0,-30 0,-24 0,-24 0,-12 0,-12 0,-6 6,0 12,0 12,0 305,0 305,0 311,0 317,-6 317,-12 317,-12 317,-24 317,-24 317,-30 311,-36 305,-36"/>
<text text-anchor="middle" x="158.5" y="-15.2" font-family="Helvetica,sans-Serif" font-size="11.00">MusicRecognitionManagerPerUserService.streamAudio</text>
</g>
<!-- m::com.android.server.musicrecognition.MusicRecognitionManagerPerUserService.streamAudio:(Landroid/media/musicrecognition/RecognitionRequest;ILandroid/media/AudioRecord;Ljava/io/OutputStream;)V&#45;&gt;__field__ -->
<g id="edge2" class="edge">
<title>m::com.android.server.musicrecognition.MusicRecognitionManagerPerUserService.streamAudio:(Landroid/media/musicrecognition/RecognitionRequest;ILandroid/media/AudioRecord;Ljava/io/OutputStream;)V&#45;&gt;__field__</title>
<path fill="none" stroke="#dc2626" d="M317.3,-28.1C355.2,-30.53 395.94,-33.14 434.69,-35.62"/>
<polygon fill="#dc2626" stroke="#dc2626" points="434.76,-38.43 442.92,-36.14 435.12,-32.84 434.76,-38.43"/>
<text text-anchor="middle" x="380" y="-36.8" font-family="Helvetica,sans-Serif" font-size="9.00" fill="#dc2626"> reads unguarded</text>
</g>
</g>
</svg>
