<?xml version="1.0" encoding="UTF-8" standalone="no"?>
<!DOCTYPE svg PUBLIC "-//W3C//DTD SVG 1.1//EN"
 "http://www.w3.org/Graphics/SVG/1.1/DTD/svg11.dtd">
<!-- Generated by graphviz version 2.43.0 (0)
 -->
<!-- Title: race Pages: 1 -->
<svg width="1087pt" height="110pt"
 viewBox="0.00 0.00 1087.00 110.00" xmlns="http://www.w3.org/2000/svg" xmlns:xlink="http://www.w3.org/1999/xlink">
<g id="graph0" class="graph" transform="scale(1 1) rotate(0) translate(4 106)">
<title>race</title>
<polygon fill="white" stroke="transparent" points="-4,4 -4,-106 1083,-106 1083,4 -4,4"/>
<!-- __field__ -->
<g id="node1" class="node">
<title>__field__</title>
<path fill="#fef9c3" stroke="#ca8a04" stroke-width="2" d="M1067,-65C1067,-65 666,-65 666,-65 660,-65 654,-59 654,-53 654,-53 654,-41 654,-41 654,-35 660,-29 666,-29 666,-29 1067,-29 1067,-29 1073,-29 1079,-35 1079,-41 1079,-41 1079,-53 1079,-53 1079,-59 1073,-65 1067,-65"/>
<text text-anchor="middle" x="866.5" y="-44.2" font-family="Helvetica,sans-Serif" font-size="11.00">ContextualSearchManagerService$ContextualSearchManagerStub.mToken</text>
</g>
<!-- __guard__ -->
<g id="node2" class="node">
<title>__guard__</title>
<path fill="#dcfce7" stroke="#16a34a" stroke-width="2" d="M491.5,-102C491.5,-102 36.5,-102 36.5,-102 30.5,-102 24.5,-96 24.5,-90 24.5,-90 24.5,-78 24.5,-78 24.5,-72 30.5,-66 36.5,-66 36.5,-66 491.5,-66 491.5,-66 497.5,-66 503.5,-72 503.5,-78 503.5,-78 503.5,-90 503.5,-90 503.5,-96 497.5,-102 491.5,-102"/>
<text text-anchor="middle" x="264" y="-81.2" font-family="Helvetica,sans-Serif" font-size="11.00">contextualsearch.ContextualSearchManagerService$ContextualSearchManagerStub</text>
</g>
<!-- __guard__&#45;&gt;__field__ -->
<g id="edge1" class="edge">
<title>__guard__&#45;&gt;__field__</title>
<path fill="none" stroke="#16a34a" stroke-width="1.6" d="M503.63,-69.3C550.5,-66.41 599.46,-63.39 645.68,-60.54"/>
<polygon fill="#16a34a" stroke="#16a34a" stroke-width="1.6" points="645.86,-63.34 653.67,-60.05 645.51,-57.75 645.86,-63.34"/>
<text text-anchor="middle" x="591" y="-67.8" font-family="Helvetica,sans-Serif" font-size="9.00" fill="#15803d"> guards 2/2</text>
</g>
<!-- m::com.android.server.contextualsearch.ContextualSearchManagerService$ContextualSearchManagerStub.getContextualSearchState:(Landroid/os/IBinder;Landroid/app/contextualsearch/IContextualSearchCallback;)V -->
<g id="node3" class="node">
<title>m::com.android.server.contextualsearch.ContextualSearchManagerService$ContextualSearchManagerStub.getContextualSearchState:(Landroid/os/IBinder;Landroid/app/contextualsearch/IContextualSearchCallback;)V</title>
<path fill="#fee2e2" stroke="#dc2626" d="M516,-36C516,-36 12,-36 12,-36 6,-36 0,-30 0,-24 0,-24 0,-12 0,-12 0,-6 6,0 12,0 12,0 516,0 516,0 522,0 528,-6 528,-12 528,-12 528,-24 528,-24 528,-30 522,-36 516,-36"/>
<text text-anchor="middle" x="264" y="-15.2" font-family="Helvetica,sans-Serif" font-size="11.00">ContextualSearchManagerService$ContextualSearchManagerStub.getContextualSearchState</text>
</g>
<!-- m::com.android.server.contextualsearch.ContextualSearchManagerService$ContextualSearchManagerStub.getContextualSearchState:(Landroid/os/IBinder;Landroid/app/contextualsearch/IContextualSearchCallback;)V&#45;&gt;__field__ -->
<g id="edge2" class="edge">
<title>m::com.android.server.contextualsearch.ContextualSearchManagerService$ContextualSearchManagerStub.getContextualSearchState:(Landroid/os/IBinder;Landroid/app/contextualsearch/IContextualSearchCallback;)V&#45;&gt;__field__</title>
<path fill="none" stroke="#dc2626" d="M528.39,-30.72C567.52,-32.61 607.49,-34.54 645.61,-36.38"/>
<polygon fill="#dc2626" stroke="#dc2626" points="645.58,-39.18 653.71,-36.77 645.85,-33.59 645.58,-39.18"/>
<text text-anchor="middle" x="591" y="-37.8" font-family="Helvetica,sans-Serif" font-size="9.00" fill="#dc2626"> reads unguarded</text>
</g>
<!-- m::com.android.server.contextualsearch.ContextualSearchManagerService$ContextualSearchManagerStub.getContextualSearchState:(Landroid/os/IBinder;Landroid/app/contextualsearch/IContextualSearchCallback;)V&#45;&gt;__field__ -->
<g id="edge3" class="edge">
<title>m::com.android.server.contextualsearch.ContextualSearchManagerService$ContextualSearchManagerStub.getContextualSearchState:(Landroid/os/IBinder;Landroid/app/contextualsearch/IContextualSearchCallback;)V&#45;&gt;__field__</title>
<path fill="none" stroke="#dc2626" d="M528.25,-13.05C563.16,-13.64 598.46,-14.85 632,-17 667.21,-19.25 705.23,-23.4 740.15,-27.9"/>
<polygon fill="#dc2626" stroke="#dc2626" points="740.2,-30.73 748.49,-28.99 740.92,-25.18 740.2,-30.73"/>
<text text-anchor="middle" x="591" y="-19.8" font-family="Helvetica,sans-Serif" font-size="9.00" fill="#dc2626"> reads unguarded</text>
</g>
</g>
</svg>
