<?xml version="1.0" encoding="UTF-8" standalone="no"?>
<!DOCTYPE svg PUBLIC "-//W3C//DTD SVG 1.1//EN"
 "http://www.w3.org/Graphics/SVG/1.1/DTD/svg11.dtd">
<!-- Generated by graphviz version 2.43.0 (0)
 -->
<!-- Title: race Pages: 1 -->
<svg width="516pt" height="218pt"
 viewBox="0.00 0.00 516.00 218.00" xmlns="http://www.w3.org/2000/svg" xmlns:xlink="http://www.w3.org/1999/xlink">
<g id="graph0" class="graph" transform="scale(1 1) rotate(0) translate(4 214)">
<title>race</title>
<polygon fill="white" stroke="transparent" points="-4,4 -4,-214 512,-214 512,4 -4,4"/>
<!-- __field__ -->
<g id="node1" class="node">
<title>__field__</title>
<path fill="#fef9c3" stroke="#ca8a04" stroke-width="2" d="M496,-123C496,-123 330,-123 330,-123 324,-123 318,-117 318,-111 318,-111 318,-99 318,-99 318,-93 324,-87 330,-87 330,-87 496,-87 496,-87 502,-87 508,-93 508,-99 508,-99 508,-111 508,-111 508,-117 502,-123 496,-123"/>
<text text-anchor="middle" x="413" y="-102.2" font-family="Helvetica,sans-Serif" font-size="11.00">UriPermission.ownedModeFlags</text>
</g>
<!-- __guard__ -->
<g id="node2" class="node">
<title>__guard__</title>
<path fill="#dcfce7" stroke="#16a34a" stroke-width="2" d="M139,-210C139,-210 53,-210 53,-210 47,-210 41,-204 41,-198 41,-198 41,-186 41,-186 41,-180 47,-174 53,-174 53,-174 139,-174 139,-174 145,-174 151,-180 151,-186 151,-186 151,-198 151,-198 151,-204 145,-210 139,-210"/>
<text text-anchor="middle" x="96" y="-189.2" font-family="Helvetica,sans-Serif" font-size="11.00">uri.UriPermission</text>
</g>
<!-- __guard__&#45;&gt;__field__ -->
<g id="edge1" class="edge">
<title>__guard__&#45;&gt;__field__</title>
<path fill="none" stroke="#16a34a" stroke-width="1.6" d="M151.15,-177.04C202.9,-162.75 281.29,-141.1 338.62,-125.27"/>
<polygon fill="#16a34a" stroke="#16a34a" stroke-width="1.6" points="339.6,-127.9 346.57,-123.07 338.11,-122.5 339.6,-127.9"/>
<text text-anchor="middle" x="255" y="-160.8" font-family="Helvetica,sans-Serif" font-size="9.00" fill="#15803d"> guards 6/6</text>
</g>
<!-- m::com.android.server.uri.UriPermission.dump:(Ljava/io/PrintWriter;Ljava/lang/String;)V -->
<g id="node3" class="node">
<title>m::com.android.server.uri.UriPermission.dump:(Ljava/io/PrintWriter;Ljava/lang/String;)V</title>
<path fill="#fee2e2" stroke="#dc2626" d="M147,-152C147,-152 45,-152 45,-152 39,-152 33,-146 33,-140 33,-140 33,-128 33,-128 33,-122 39,-116 45,-116 45,-116 147,-116 147,-116 153,-116 159,-122 159,-128 159,-128 159,-140 159,-140 159,-146 153,-152 147,-152"/>
<text text-anchor="middle" x="96" y="-131.2" font-family="Helvetica,sans-Serif" font-size="11.00">UriPermission.dump</text>
</g>
<!-- m::com.android.server.uri.UriPermission.dump:(Ljava/io/PrintWriter;Ljava/lang/String;)V&#45;&gt;__field__ -->
<g id="edge2" class="edge">
<title>m::com.android.server.uri.UriPermission.dump:(Ljava/io/PrintWriter;Ljava/lang/String;)V&#45;&gt;__field__</title>
<path fill="none" stroke="#dc2626" d="M159.23,-128.27C202.12,-124.32 260.1,-118.98 309.71,-114.42"/>
<polygon fill="#dc2626" stroke="#dc2626" points="310.21,-117.18 317.91,-113.66 309.69,-111.61 310.21,-117.18"/>
<text text-anchor="middle" x="255" y="-124.8" font-family="Helvetica,sans-Serif" font-size="9.00" fill="#dc2626"> reads unguarded</text>
</g>
<!-- m::com.android.server.uri.UriPermission.getStrength:(I)I -->
<g id="node4" class="node">
<title>m::com.android.server.uri.UriPermission.getStrength:(I)I</title>
<path fill="#fee2e2" stroke="#dc2626" d="M164.5,-94C164.5,-94 27.5,-94 27.5,-94 21.5,-94 15.5,-88 15.5,-82 15.5,-82 15.5,-70 15.5,-70 15.5,-64 21.5,-58 27.5,-58 27.5,-58 164.5,-58 164.5,-58 170.5,-58 176.5,-64 176.5,-70 176.5,-70 176.5,-82 176.5,-82 176.5,-88 170.5,-94 164.5,-94"/>
<text text-anchor="middle" x="96" y="-73.2" font-family="Helvetica,sans-Serif" font-size="11.00">UriPermission.getStrength</text>
</g>
<!-- m::com.android.server.uri.UriPermission.getStrength:(I)I&#45;&gt;__field__ -->
<g id="edge3" class="edge">
<title>m::com.android.server.uri.UriPermission.getStrength:(I)I&#45;&gt;__field__</title>
<path fill="none" stroke="#dc2626" d="M176.9,-83.36C217.3,-87.08 266.8,-91.63 309.94,-95.6"/>
<polygon fill="#dc2626" stroke="#dc2626" points="309.69,-98.39 317.91,-96.34 310.2,-92.82 309.69,-98.39"/>
<text text-anchor="middle" x="255" y="-95.8" font-family="Helvetica,sans-Serif" font-size="9.00" fill="#dc2626"> reads unguarded</text>
</g>
<!-- m::com.android.server.uri.UriPermission.updateModeFlags:()V -->
<g id="node5" class="node">
<title>m::com.android.server.uri.UriPermission.updateModeFlags:()V</title>
<path fill="#fee2e2" stroke="#dc2626" d="M180,-36C180,-36 12,-36 12,-36 6,-36 0,-30 0,-24 0,-24 0,-12 0,-12 0,-6 6,0 12,0 12,0 180,0 180,0 186,0 192,-6 192,-12 192,-12 192,-24 192,-24 192,-30 186,-36 180,-36"/>
<text text-anchor="middle" x="96" y="-15.2" font-family="Helvetica,sans-Serif" font-size="11.00">UriPermission.updateModeFlags</text>
</g>
<!-- m::com.android.server.uri.UriPermission.updateModeFlags:()V&#45;&gt;__field__ -->
<g id="edge4" class="edge">
<title>m::com.android.server.uri.UriPermission.updateModeFlags:()V&#45;&gt;__field__</title>
<path fill="none" stroke="#dc2626" d="M164.3,-36.04C202.88,-46.44 252.2,-59.83 296,-72 310.69,-76.08 326.4,-80.51 341.38,-84.76"/>
<polygon fill="#dc2626" stroke="#dc2626" points="340.67,-87.47 349.13,-86.96 342.2,-82.08 340.67,-87.47"/>
<text text-anchor="middle" x="255" y="-74.8" font-family="Helvetica,sans-Serif" font-size="9.00" fill="#dc2626"> reads unguarded</text>
</g>
</g>
</svg>
