<?xml version="1.0" encoding="UTF-8" standalone="no"?>
<!DOCTYPE svg PUBLIC "-//W3C//DTD SVG 1.1//EN"
 "http://www.w3.org/Graphics/SVG/1.1/DTD/svg11.dtd">
<!-- Generated by graphviz version 2.43.0 (0)
 -->
<!-- Title: race Pages: 1 -->
<svg width="636pt" height="102pt"
 viewBox="0.00 0.00 636.00 102.00" xmlns="http://www.w3.org/2000/svg" xmlns:xlink="http://www.w3.org/1999/xlink">
<g id="graph0" class="graph" transform="scale(1 1) rotate(0) translate(4 98)">
<title>race</title>
<polygon fill="white" stroke="transparent" points="-4,4 -4,-98 632,-98 632,4 -4,4"/>
<!-- __field__ -->
<g id="node1" class="node">
<title>__field__</title>
<path fill="#fef9c3" stroke="#ca8a04" stroke-width="2" d="M616,-65C616,-65 380,-65 380,-65 374,-65 368,-59 368,-53 368,-53 368,-41 368,-41 368,-35 374,-29 380,-29 380,-29 616,-29 616,-29 622,-29 628,-35 628,-41 628,-41 628,-53 628,-53 628,-59 622,-65 616,-65"/>
<text text-anchor="middle" x="498" y="-44.2" font-family="Helvetica,sans-Serif" font-size="11.00">BiometricUserState.mInvalidationInProgress</text>
</g>
<!-- __guard__ -->
<g id="node2" class="node">
<title>__guard__</title>
<path fill="#dcfce7" stroke="#16a34a" stroke-width="2" d="M194,-94C194,-94 48,-94 48,-94 42,-94 36,-88 36,-82 36,-82 36,-70 36,-70 36,-64 42,-58 48,-58 48,-58 194,-58 194,-58 200,-58 206,-64 206,-70 206,-70 206,-82 206,-82 206,-88 200,-94 194,-94"/>
<text text-anchor="middle" x="121" y="-73.2" font-family="Helvetica,sans-Serif" font-size="11.00">sensors.BiometricUserState</text>
</g>
<!-- __guard__&#45;&gt;__field__ -->
<g id="edge1" class="edge">
<title>__guard__&#45;&gt;__field__</title>
<path fill="none" stroke="#16a34a" stroke-width="1.6" d="M206.16,-69.49C251.35,-66 308.2,-61.6 359.62,-57.62"/>
<polygon fill="#16a34a" stroke="#16a34a" stroke-width="1.6" points="360.07,-60.4 367.83,-56.99 359.63,-54.81 360.07,-60.4"/>
<text text-anchor="middle" x="305" y="-66.8" font-family="Helvetica,sans-Serif" font-size="9.00" fill="#15803d"> guards 2/2</text>
</g>
<!-- m::com.android.server.biometrics.sensors.BiometricUserState.doWriteStateInternal:()V -->
<g id="node3" class="node">
<title>m::com.android.server.biometrics.sensors.BiometricUserState.doWriteStateInternal:()V</title>
<path fill="#fee2e2" stroke="#dc2626" d="M230,-36C230,-36 12,-36 12,-36 6,-36 0,-30 0,-24 0,-24 0,-12 0,-12 0,-6 6,0 12,0 12,0 230,0 230,0 236,0 242,-6 242,-12 242,-12 242,-24 242,-24 242,-30 236,-36 230,-36"/>
<text text-anchor="middle" x="121" y="-15.2" font-family="Helvetica,sans-Serif" font-size="11.00">BiometricUserState.doWriteStateInternal</text>
</g>
<!-- m::com.android.server.biometrics.sensors.BiometricUserState.doWriteStateInternal:()V&#45;&gt;__field__ -->
<g id="edge2" class="edge">
<title>m::com.android.server.biometrics.sensors.BiometricUserState.doWriteStateInternal:()V&#45;&gt;__field__</title>
<path fill="none" stroke="#dc2626" d="M242.2,-27.3C279.6,-30.19 321.12,-33.4 359.6,-36.37"/>
<polygon fill="#dc2626" stroke="#dc2626" points="359.57,-39.18 367.76,-37.01 360,-33.6 359.57,-39.18"/>
<text text-anchor="middle" x="305" y="-37.8" font-family="Helvetica,sans-Serif" font-size="9.00" fill="#dc2626"> reads unguarded</text>
</g>
</g>
</svg>
