<?xml version="1.0" encoding="UTF-8" standalone="no"?>
<!DOCTYPE svg PUBLIC "-//W3C//DTD SVG 1.1//EN"
 "http://www.w3.org/Graphics/SVG/1.1/DTD/svg11.dtd">
<!-- Generated by graphviz version 2.43.0 (0)
 -->
<!-- Title: race Pages: 1 -->
<svg width="536pt" height="102pt"
 viewBox="0.00 0.00 536.00 102.00" xmlns="http://www.w3.org/2000/svg" xmlns:xlink="http://www.w3.org/1999/xlink">
<g id="graph0" class="graph" transform="scale(1 1) rotate(0) translate(4 98)">
<title>race</title>
<polygon fill="white" stroke="transparent" points="-4,4 -4,-98 532,-98 532,4 -4,4"/>
<!-- __field__ -->
<g id="node1" class="node">
<title>__field__</title>
<path fill="#fef9c3" stroke="#ca8a04" stroke-width="2" d="M516,-65C516,-65 335,-65 335,-65 329,-65 323,-59 323,-53 323,-53 323,-41 323,-41 323,-35 329,-29 335,-29 335,-29 516,-29 516,-29 522,-29 528,-35 528,-41 528,-41 528,-53 528,-53 528,-59 522,-65 516,-65"/>
<text text-anchor="middle" x="425.5" y="-44.2" font-family="Helvetica,sans-Serif" font-size="11.00">UriPermission.persistedModeFlags</text>
</g>
<!-- __guard__ -->
<g id="node2" class="node">
<title>__guard__</title>
<path fill="#dcfce7" stroke="#16a34a" stroke-width="2" d="M185,-94C185,-94 12,-94 12,-94 6,-94 0,-88 0,-82 0,-82 0,-70 0,-70 0,-64 6,-58 12,-58 12,-58 185,-58 185,-58 191,-58 197,-64 197,-70 197,-70 197,-82 197,-82 197,-88 191,-94 185,-94"/>
<text text-anchor="middle" x="98.5" y="-73.2" font-family="Helvetica,sans-Serif" font-size="11.00">UriGrantsManagerService.mLock</text>
</g>
<!-- __guard__&#45;&gt;__field__ -->
<g id="edge1" class="edge">
<title>__guard__&#45;&gt;__field__</title>
<path fill="none" stroke="#16a34a" stroke-width="1.6" d="M197.01,-67.3C234.1,-63.99 276.61,-60.2 314.76,-56.79"/>
<polygon fill="#16a34a" stroke="#16a34a" stroke-width="1.6" points="315.11,-59.57 322.83,-56.07 314.61,-53.99 315.11,-59.57"/>
<text text-anchor="middle" x="260" y="-66.8" font-family="Helvetica,sans-Serif" font-size="9.00" fill="#15803d"> guards 5/5</text>
</g>
<!-- m::com.android.server.uri.UriPermission.updateModeFlags:()V -->
<g id="node3" class="node">
<title>m::com.android.server.uri.UriPermission.updateModeFlags:()V</title>
<path fill="#fee2e2" stroke="#dc2626" d="M182.5,-36C182.5,-36 14.5,-36 14.5,-36 8.5,-36 2.5,-30 2.5,-24 2.5,-24 2.5,-12 2.5,-12 2.5,-6 8.5,0 14.5,0 14.5,0 182.5,0 182.5,0 188.5,0 194.5,-6 194.5,-12 194.5,-12 194.5,-24 194.5,-24 194.5,-30 188.5,-36 182.5,-36"/>
<text text-anchor="middle" x="98.5" y="-15.2" font-family="Helvetica,sans-Serif" font-size="11.00">UriPermission.updateModeFlags</text>
</g>
<!-- m::com.android.server.uri.UriPermission.updateModeFlags:()V&#45;&gt;__field__ -->
<g id="edge2" class="edge">
<title>m::com.android.server.uri.UriPermission.updateModeFlags:()V&#45;&gt;__field__</title>
<path fill="none" stroke="#dc2626" d="M194.81,-26.51C232.41,-29.86 275.83,-33.73 314.73,-37.2"/>
<polygon fill="#dc2626" stroke="#dc2626" points="314.74,-40.02 322.96,-37.94 315.24,-34.44 314.74,-40.02"/>
<text text-anchor="middle" x="260" y="-37.8" font-family="Helvetica,sans-Serif" font-size="9.00" fill="#dc2626"> reads unguarded</text>
</g>
</g>
</svg>
