<?xml version="1.0" encoding="UTF-8" standalone="no"?>
<!DOCTYPE svg PUBLIC "-//W3C//DTD SVG 1.1//EN"
 "http://www.w3.org/Graphics/SVG/1.1/DTD/svg11.dtd">
<!-- Generated by graphviz version 2.43.0 (0)
 -->
<!-- Title: race Pages: 1 -->
<svg width="490pt" height="102pt"
 viewBox="0.00 0.00 490.00 102.00" xmlns="http://www.w3.org/2000/svg" xmlns:xlink="http://www.w3.org/1999/xlink">
<g id="graph0" class="graph" transform="scale(1 1) rotate(0) translate(4 98)">
<title>race</title>
<polygon fill="white" stroke="transparent" points="-4,4 -4,-98 486,-98 486,4 -4,4"/>
<!-- __field__ -->
<g id="node1" class="node">
<title>__field__</title>
<path fill="#fef9c3" stroke="#ca8a04" stroke-width="2" d="M470,-65C470,-65 360,-65 360,-65 354,-65 348,-59 348,-53 348,-53 348,-41 348,-41 348,-35 354,-29 360,-29 360,-29 470,-29 470,-29 476,-29 482,-35 482,-41 482,-41 482,-53 482,-53 482,-59 476,-65 470,-65"/>
<text text-anchor="middle" x="415" y="-44.2" font-family="Helvetica,sans-Serif" font-size="11.00">Session.mClientState</text>
</g>
<!-- __guard__ -->
<g id="node2" class="node">
<title>__guard__</title>
<path fill="#dcfce7" stroke="#16a34a" stroke-width="2" d="M210,-94C210,-94 12,-94 12,-94 6,-94 0,-88 0,-82 0,-82 0,-70 0,-70 0,-64 6,-58 12,-58 12,-58 210,-58 210,-58 216,-58 222,-64 222,-70 222,-70 222,-82 222,-82 222,-88 216,-94 210,-94"/>
<text text-anchor="middle" x="111" y="-73.2" font-family="Helvetica,sans-Serif" font-size="11.00">AbstractMasterSystemService.mLock</text>
</g>
<!-- __guard__&#45;&gt;__field__ -->
<g id="edge1" class="edge">
<title>__guard__&#45;&gt;__field__</title>
<path fill="none" stroke="#16a34a" stroke-width="1.6" d="M222.31,-65.41C261.31,-61.66 304.22,-57.54 339.54,-54.15"/>
<polygon fill="#16a34a" stroke="#16a34a" stroke-width="1.6" points="340.18,-56.9 347.88,-53.35 339.65,-51.33 340.18,-56.9"/>
<text text-anchor="middle" x="285" y="-65.8" font-family="Helvetica,sans-Serif" font-size="9.00" fill="#15803d"> guards 2/2</text>
</g>
<!-- m::com.android.server.autofill.Session.logSaveShown:()V -->
<g id="node3" class="node">
<title>m::com.android.server.autofill.Session.logSaveShown:()V</title>
<path fill="#fee2e2" stroke="#dc2626" d="M170,-36C170,-36 52,-36 52,-36 46,-36 40,-30 40,-24 40,-24 40,-12 40,-12 40,-6 46,0 52,0 52,0 170,0 170,0 176,0 182,-6 182,-12 182,-12 182,-24 182,-24 182,-30 176,-36 170,-36"/>
<text text-anchor="middle" x="111" y="-15.2" font-family="Helvetica,sans-Serif" font-size="11.00">Session.logSaveShown</text>
</g>
<!-- m::com.android.server.autofill.Session.logSaveShown:()V&#45;&gt;__field__ -->
<g id="edge2" class="edge">
<title>m::com.android.server.autofill.Session.logSaveShown:()V&#45;&gt;__field__</title>
<path fill="none" stroke="#dc2626" d="M182.04,-24.73C229.32,-29.27 291.62,-35.25 339.75,-39.87"/>
<polygon fill="#dc2626" stroke="#dc2626" points="339.73,-42.68 347.96,-40.66 340.26,-37.11 339.73,-42.68"/>
<text text-anchor="middle" x="285" y="-40.8" font-family="Helvetica,sans-Serif" font-size="9.00" fill="#dc2626"> reads unguarded</text>
</g>
</g>
</svg>
