<?xml version="1.0" encoding="UTF-8" standalone="no"?>
<!DOCTYPE svg PUBLIC "-//W3C//DTD SVG 1.1//EN"
 "http://www.w3.org/Graphics/SVG/1.1/DTD/svg11.dtd">
<!-- Generated by graphviz version 2.43.0 (0)
 -->
<!-- Title: race Pages: 1 -->
<svg width="537pt" height="184pt"
 viewBox="0.00 0.00 537.00 184.00" xmlns="http://www.w3.org/2000/svg" xmlns:xlink="http://www.w3.org/1999/xlink">
<g id="graph0" class="graph" transform="scale(1 1) rotate(0) translate(4 180)">
<title>race</title>
<polygon fill="white" stroke="transparent" points="-4,4 -4,-180 533,-180 533,4 -4,4"/>
<!-- __field__ -->
<g id="node1" class="node">
<title>__field__</title>
<path fill="#fef9c3" stroke="#ca8a04" stroke-width="2" d="M517,-102C517,-102 349,-102 349,-102 343,-102 337,-96 337,-90 337,-90 337,-78 337,-78 337,-72 343,-66 349,-66 349,-66 517,-66 517,-66 523,-66 529,-72 529,-78 529,-78 529,-90 529,-90 529,-96 523,-102 517,-102"/>
<text text-anchor="middle" x="433" y="-81.2" font-family="Helvetica,sans-Serif" font-size="11.00">ShortcutPackage.mApiCallCount</text>
</g>
<!-- __guard__ -->
<g id="node2" class="node">
<title>__guard__</title>
<path fill="#dcfce7" stroke="#16a34a" stroke-width="2" d="M184,-176C184,-176 25,-176 25,-176 19,-176 13,-170 13,-164 13,-164 13,-152 13,-152 13,-146 19,-140 25,-140 25,-140 184,-140 184,-140 190,-140 196,-146 196,-152 196,-152 196,-164 196,-164 196,-170 190,-176 184,-176"/>
<text text-anchor="middle" x="104.5" y="-155.2" font-family="Helvetica,sans-Serif" font-size="11.00">ShortcutService.mServiceLock</text>
</g>
<!-- __guard__&#45;&gt;__field__ -->
<g id="edge1" class="edge">
<title>__guard__&#45;&gt;__field__</title>
<path fill="none" stroke="#16a34a" stroke-width="1.6" d="M186.61,-139.92C225.47,-131.23 272.66,-120.64 315,-111 325.12,-108.7 335.74,-106.27 346.27,-103.85"/>
<polygon fill="#16a34a" stroke="#16a34a" stroke-width="1.6" points="347.12,-106.52 354.29,-102 345.87,-101.07 347.12,-106.52"/>
<text text-anchor="middle" x="273" y="-131.8" font-family="Helvetica,sans-Serif" font-size="9.00" fill="#15803d"> guards 5/6</text>
</g>
<!-- m::com.android.server.pm.ShortcutPackage.resetRateLimiting:()V -->
<g id="node3" class="node">
<title>m::com.android.server.pm.ShortcutPackage.resetRateLimiting:()V</title>
<path fill="#fee2e2" stroke="#dc2626" d="M197,-110C197,-110 12,-110 12,-110 6,-110 0,-104 0,-98 0,-98 0,-86 0,-86 0,-80 6,-74 12,-74 12,-74 197,-74 197,-74 203,-74 209,-80 209,-86 209,-86 209,-98 209,-98 209,-104 203,-110 197,-110"/>
<text text-anchor="middle" x="104.5" y="-89.2" font-family="Helvetica,sans-Serif" font-size="11.00">ShortcutPackage.resetRateLimiting</text>
</g>
<!-- m::com.android.server.pm.ShortcutPackage.resetRateLimiting:()V&#45;&gt;__field__ -->
<g id="edge2" class="edge">
<title>m::com.android.server.pm.ShortcutPackage.resetRateLimiting:()V&#45;&gt;__field__</title>
<path fill="none" stroke="#dc2626" d="M209.17,-95.99C242.93,-96.62 280.57,-96.61 315,-95 319.46,-94.79 324.01,-94.54 328.6,-94.25"/>
<polygon fill="#dc2626" stroke="#dc2626" points="329.12,-97.02 336.91,-93.69 328.74,-91.43 329.12,-97.02"/>
<text text-anchor="middle" x="273" y="-98.8" font-family="Helvetica,sans-Serif" font-size="9.00" fill="#dc2626"> writes unguarded</text>
</g>
<!-- m::com.android.server.pm.ShortcutPackage.resetRateLimiting:()V&#45;&gt;__field__ -->
<g id="edge3" class="edge">
<title>m::com.android.server.pm.ShortcutPackage.resetRateLimiting:()V&#45;&gt;__field__</title>
<path fill="none" stroke="#dc2626" d="M209.23,-84.87C216.59,-84.52 223.91,-84.23 231,-84 262.7,-82.99 297.22,-82.7 328.57,-82.74"/>
<polygon fill="#dc2626" stroke="#dc2626" points="328.88,-85.54 336.89,-82.76 328.9,-79.94 328.88,-85.54"/>
<text text-anchor="middle" x="273" y="-86.8" font-family="Helvetica,sans-Serif" font-size="9.00" fill="#dc2626"> reads unguarded</text>
</g>
<!-- m::com.android.server.pm.ShortcutPackage.saveToXml:(Lcom/android/modules/utils/TypedXmlSerializer;Z)V -->
<g id="node4" class="node">
<title>m::com.android.server.pm.ShortcutPackage.saveToXml:(Lcom/android/modules/utils/TypedXmlSerializer;Z)V</title>
<path fill="#fee2e2" stroke="#dc2626" d="M177.5,-36C177.5,-36 31.5,-36 31.5,-36 25.5,-36 19.5,-30 19.5,-24 19.5,-24 19.5,-12 19.5,-12 19.5,-6 25.5,0 31.5,0 31.5,0 177.5,0 177.5,0 183.5,0 189.5,-6 189.5,-12 189.5,-12 189.5,-24 189.5,-24 189.5,-30 183.5,-36 177.5,-36"/>
<text text-anchor="middle" x="104.5" y="-15.2" font-family="Helvetica,sans-Serif" font-size="11.00">ShortcutPackage.saveToXml</text>
</g>
<!-- m::com.android.server.pm.ShortcutPackage.saveToXml:(Lcom/android/modules/utils/TypedXmlSerializer;Z)V&#45;&gt;__field__ -->
<g id="edge4" class="edge">
<title>m::com.android.server.pm.ShortcutPackage.saveToXml:(Lcom/android/modules/utils/TypedXmlSerializer;Z)V&#45;&gt;__field__</title>
<path fill="none" stroke="#dc2626" d="M189.58,-35C233.97,-43.97 288.65,-55.02 334.85,-64.36"/>
<polygon fill="#dc2626" stroke="#dc2626" points="334.38,-67.12 342.77,-65.96 335.49,-61.63 334.38,-67.12"/>
<text text-anchor="middle" x="273" y="-60.8" font-family="Helvetica,sans-Serif" font-size="9.00" fill="#dc2626"> reads unguarded</text>
</g>
<!-- m::com.android.server.pm.ShortcutPackage.saveToXml:(Lcom/android/modules/utils/TypedXmlSerializer;Z)V&#45;&gt;__field__ -->
<g id="edge5" class="edge">
<title>m::com.android.server.pm.ShortcutPackage.saveToXml:(Lcom/android/modules/utils/TypedXmlSerializer;Z)V&#45;&gt;__field__</title>
<path fill="none" stroke="#dc2626" d="M189.67,-15.68C228.35,-16.42 274.53,-19.89 315,-30 342.69,-36.92 371.84,-50.35 394.12,-62.09"/>
<polygon fill="#dc2626" stroke="#dc2626" points="393.02,-64.68 401.39,-65.99 395.67,-59.74 393.02,-64.68"/>
<text text-anchor="middle" x="273" y="-32.8" font-family="Helvetica,sans-Serif" font-size="9.00" fill="#dc2626"> reads unguarded</text>
</g>
</g>
</svg>
