<?xml version="1.0" encoding="UTF-8" standalone="no"?>
<!DOCTYPE svg PUBLIC "-//W3C//DTD SVG 1.1//EN"
 "http://www.w3.org/Graphics/SVG/1.1/DTD/svg11.dtd">
<!-- Generated by graphviz version 2.43.0 (0)
 -->
<!-- Title: race Pages: 1 -->
<svg width="1417pt" height="102pt"
 viewBox="0.00 0.00 1417.00 102.00" xmlns="http://www.w3.org/2000/svg" xmlns:xlink="http://www.w3.org/1999/xlink">
<g id="graph0" class="graph" transform="scale(1 1) rotate(0) translate(4 98)">
<title>race</title>
<polygon fill="white" stroke="transparent" points="-4,4 -4,-98 1413,-98 1413,4 -4,4"/>
<!-- __field__ -->
<g id="node1" class="node">
<title>__field__</title>
<path fill="#fef9c3" stroke="#ca8a04" stroke-width="2" d="M1397,-65C1397,-65 755,-65 755,-65 749,-65 743,-59 743,-53 743,-53 743,-41 743,-41 743,-35 749,-29 755,-29 755,-29 1397,-29 1397,-29 1403,-29 1409,-35 1409,-41 1409,-41 1409,-53 1409,-53 1409,-59 1403,-65 1397,-65"/>
<text text-anchor="middle" x="1076" y="-44.2" font-family="Helvetica,sans-Serif" font-size="11.00">VoiceInteractionManagerService$VoiceInteractionManagerServiceStub$SoundTriggerSession.mSessionInternalCallback</text>
</g>
<!-- __guard__ -->
<g id="node2" class="node">
<title>__guard__</title>
<path fill="#dcfce7" stroke="#16a34a" stroke-width="2" d="M576.5,-94C576.5,-94 40.5,-94 40.5,-94 34.5,-94 28.5,-88 28.5,-82 28.5,-82 28.5,-70 28.5,-70 28.5,-64 34.5,-58 40.5,-58 40.5,-58 576.5,-58 576.5,-58 582.5,-58 588.5,-64 588.5,-70 588.5,-70 588.5,-82 588.5,-82 588.5,-88 582.5,-94 576.5,-94"/>
<text text-anchor="middle" x="308.5" y="-73.2" font-family="Helvetica,sans-Serif" font-size="11.00">VoiceInteractionManagerService$VoiceInteractionManagerServiceStub$SoundTriggerSession.this$1</text>
</g>
<!-- __guard__&#45;&gt;__field__ -->
<g id="edge1" class="edge">
<title>__guard__&#45;&gt;__field__</title>
<path fill="none" stroke="#16a34a" stroke-width="1.6" d="M588.57,-65.43C636.03,-63.63 685.79,-61.74 734.61,-59.9"/>
<polygon fill="#16a34a" stroke="#16a34a" stroke-width="1.6" points="734.87,-62.69 742.76,-59.59 734.66,-57.09 734.87,-62.69"/>
<text text-anchor="middle" x="680" y="-65.8" font-family="Helvetica,sans-Serif" font-size="9.00" fill="#15803d"> guards 2/2</text>
</g>
<!-- m::com.android.server.voiceinteraction.VoiceInteractionManagerService$VoiceInteractionManagerServiceStub$SoundTriggerSession.startRecognition:(ILjava/lang/String;Lcom/android/internal/app/IHotwordRecognitionStatusCallback;Landroid/hardware/soundtrigger/SoundTrigger$RecognitionConfig;Z)I -->
<g id="node3" class="node">
<title>m::com.android.server.voiceinteraction.VoiceInteractionManagerService$VoiceInteractionManagerServiceStub$SoundTriggerSession.startRecognition:(ILjava/lang/String;Lcom/android/internal/app/IHotwordRecognitionStatusCallback;Landroid/hardware/soundtrigger/SoundTrigger$RecognitionConfig;Z)I</title>
<path fill="#fee2e2" stroke="#dc2626" d="M605,-36C605,-36 12,-36 12,-36 6,-36 0,-30 0,-24 0,-24 0,-12 0,-12 0,-6 6,0 12,0 12,0 605,0 605,0 611,0 617,-6 617,-12 617,-12 617,-24 617,-24 617,-30 611,-36 605,-36"/>
<text text-anchor="middle" x="308.5" y="-15.2" font-family="Helvetica,sans-Serif" font-size="11.00">VoiceInteractionManagerService$VoiceInteractionManagerServiceStub$SoundTriggerSession.startRecognition</text>
</g>
<!-- m::com.android.server.voiceinteraction.VoiceInteractionManagerService$VoiceInteractionManagerServiceStub$SoundTriggerSession.startRecognition:(ILjava/lang/String;Lcom/android/internal/app/IHotwordRecognitionStatusCallback;Landroid/hardware/soundtrigger/SoundTrigger$RecognitionConfig;Z)I&#45;&gt;__field__ -->
<g id="edge2" class="edge">
<title>m::com.android.server.voiceinteraction.VoiceInteractionManagerService$VoiceInteractionManagerServiceStub$SoundTriggerSession.startRecognition:(ILjava/lang/String;Lcom/android/internal/app/IHotwordRecognitionStatusCallback;Landroid/hardware/soundtrigger/SoundTrigger$RecognitionConfig;Z)I&#45;&gt;__field__</title>
<path fill="none" stroke="#dc2626" d="M617.27,-29.66C655.88,-31.12 695.54,-32.62 734.61,-34.1"/>
<polygon fill="#dc2626" stroke="#dc2626" points="734.84,-36.92 742.94,-34.42 735.05,-31.32 734.84,-36.92"/>
<text text-anchor="middle" x="680" y="-35.8" font-family="Helvetica,sans-Serif" font-size="9.00" fill="#dc2626"> reads unguarded</text>
</g>
</g>
</svg>
