<?xml version="1.0" encoding="UTF-8" standalone="no"?>
<!DOCTYPE svg PUBLIC "-//W3C//DTD SVG 1.1//EN"
 "http://www.w3.org/Graphics/SVG/1.1/DTD/svg11.dtd">
<!-- Generated by graphviz version 2.43.0 (0)
 -->
<!-- Title: race Pages: 1 -->
<svg width="530pt" height="460pt"
 viewBox="0.00 0.00 530.00 460.30" xmlns="http://www.w3.org/2000/svg" xmlns:xlink="http://www.w3.org/1999/xlink">
<g id="graph0" class="graph" transform="scale(1 1) rotate(0) translate(4 456.3)">
<title>race</title>
<polygon fill="white" stroke="transparent" points="-4,4 -4,-456.3 526,-456.3 526,4 -4,4"/>
<!-- __field__ -->
<g id="node1" class="node">
<title>__field__</title>
<path fill="#fef9c3" stroke="#ca8a04" stroke-width="2" d="M510,-248.3C510,-248.3 467,-248.3 467,-248.3 461,-248.3 455,-242.3 455,-236.3 455,-236.3 455,-224.3 455,-224.3 455,-218.3 461,-212.3 467,-212.3 467,-212.3 510,-212.3 510,-212.3 516,-212.3 522,-218.3 522,-224.3 522,-224.3 522,-236.3 522,-236.3 522,-242.3 516,-248.3 510,-248.3"/>
<text text-anchor="middle" x="488.5" y="-227.5" font-family="Helvetica,sans-Serif" font-size="11.00">info.flags</text>
</g>
<!-- __guard__ -->
<g id="node2" class="node">
<title>__guard__</title>
<path fill="#dcfce7" stroke="#16a34a" stroke-width="2" d="M252,-452.3C252,-452.3 75,-452.3 75,-452.3 69,-452.3 63,-446.3 63,-440.3 63,-440.3 63,-428.3 63,-428.3 63,-422.3 69,-416.3 75,-416.3 75,-416.3 252,-416.3 252,-416.3 258,-416.3 264,-422.3 264,-428.3 264,-428.3 264,-440.3 264,-440.3 264,-446.3 258,-452.3 252,-452.3"/>
<text text-anchor="middle" x="163.5" y="-431.5" font-family="Helvetica,sans-Serif" font-size="11.00">UserManagerService.mUsersLock</text>
</g>
<!-- __guard__&#45;&gt;__field__ -->
<g id="edge1" class="edge">
<title>__guard__&#45;&gt;__field__</title>
<path fill="none" stroke="#16a34a" stroke-width="1.6" d="M264.08,-445.22C319.65,-445.86 386.77,-436.86 433,-398.3 475.29,-363.02 485.07,-294.56 487.13,-256.83"/>
<polygon fill="#16a34a" stroke="#16a34a" stroke-width="1.6" points="489.95,-256.5 487.5,-248.38 484.36,-256.26 489.95,-256.5"/>
<text text-anchor="middle" x="391" y="-438.1" font-family="Helvetica,sans-Serif" font-size="9.00" fill="#15803d"> guards 14/19</text>
</g>
<!-- m::com.android.server.pm.UserManagerService.convertPreCreatedUserIfPossible:(Ljava/lang/String;ILjava/lang/String;Ljava/lang/Object;)Landroid/content/pm/UserInfo; -->
<g id="node3" class="node">
<title>m::com.android.server.pm.UserManagerService.convertPreCreatedUserIfPossible:(Ljava/lang/String;ILjava/lang/String;Ljava/lang/Object;)Landroid/content/pm/UserInfo;</title>
<path fill="#fee2e2" stroke="#dc2626" d="M308.5,-378.3C308.5,-378.3 18.5,-378.3 18.5,-378.3 12.5,-378.3 6.5,-372.3 6.5,-366.3 6.5,-366.3 6.5,-354.3 6.5,-354.3 6.5,-348.3 12.5,-342.3 18.5,-342.3 18.5,-342.3 308.5,-342.3 308.5,-342.3 314.5,-342.3 320.5,-348.3 320.5,-354.3 320.5,-354.3 320.5,-366.3 320.5,-366.3 320.5,-372.3 314.5,-378.3 308.5,-378.3"/>
<text text-anchor="middle" x="163.5" y="-357.5" font-family="Helvetica,sans-Serif" font-size="11.00">UserManagerService.convertPreCreatedUserIfPossible</text>
</g>
<!-- m::com.android.server.pm.UserManagerService.convertPreCreatedUserIfPossible:(Ljava/lang/String;ILjava/lang/String;Ljava/lang/Object;)Landroid/content/pm/UserInfo;&#45;&gt;__field__ -->
<g id="edge2" class="edge">
<title>m::com.android.server.pm.UserManagerService.convertPreCreatedUserIfPossible:(Ljava/lang/String;ILjava/lang/String;Ljava/lang/Object;)Landroid/content/pm/UserInfo;&#45;&gt;__field__</title>
<path fill="none" stroke="#dc2626" d="M279.21,-378.34C340.46,-385.4 408.23,-388.28 433,-371.3 470.55,-345.55 482.24,-289.94 485.87,-256.77"/>
<polygon fill="#dc2626" stroke="#dc2626" points="488.69,-256.68 486.66,-248.45 483.11,-256.15 488.69,-256.68"/>
<text text-anchor="middle" x="391" y="-386.1" font-family="Helvetica,sans-Serif" font-size="9.00" fill="#dc2626"> writes unguarded</text>
</g>
<!-- m::com.android.server.pm.UserManagerService.convertPreCreatedUserIfPossible:(Ljava/lang/String;ILjava/lang/String;Ljava/lang/Object;)Landroid/content/pm/UserInfo;&#45;&gt;__field__ -->
<g id="edge7" class="edge">
<title>m::com.android.server.pm.UserManagerService.convertPreCreatedUserIfPossible:(Ljava/lang/String;ILjava/lang/String;Ljava/lang/Object;)Landroid/content/pm/UserInfo;&#45;&gt;__field__</title>
<path fill="none" stroke="#dc2626" d="M320.82,-357.64C368.58,-354.17 413.62,-347.34 433,-334.3 459.74,-316.3 474.24,-280.86 481.42,-256.39"/>
<polygon fill="#dc2626" stroke="#dc2626" points="484.15,-257.01 483.58,-248.55 478.75,-255.52 484.15,-257.01"/>
<text text-anchor="middle" x="391" y="-357.1" font-family="Helvetica,sans-Serif" font-size="9.00" fill="#dc2626"> reads unguarded</text>
</g>
<!-- m::com.android.server.pm.UserManagerService.convertPreCreatedUserIfPossible:(Ljava/lang/String;ILjava/lang/String;Ljava/lang/Object;)Landroid/content/pm/UserInfo;&#45;&gt;__field__ -->
<g id="edge8" class="edge">
<title>m::com.android.server.pm.UserManagerService.convertPreCreatedUserIfPossible:(Ljava/lang/String;ILjava/lang/String;Ljava/lang/Object;)Landroid/content/pm/UserInfo;&#45;&gt;__field__</title>
<path fill="none" stroke="#dc2626" d="M255.99,-342.28C321.52,-328.3 403.22,-308.32 433,-290.3 447.73,-281.39 460.83,-267.29 470.49,-255"/>
<polygon fill="#dc2626" stroke="#dc2626" points="472.89,-256.47 475.49,-248.4 468.43,-253.08 472.89,-256.47"/>
<text text-anchor="middle" x="391" y="-322.1" font-family="Helvetica,sans-Serif" font-size="9.00" fill="#dc2626"> reads unguarded</text>
</g>
<!-- m::com.android.server.pm.UserManagerService.removeUserWithProfilesUnchecked:(I)Z -->
<g id="node4" class="node">
<title>m::com.android.server.pm.UserManagerService.removeUserWithProfilesUnchecked:(I)Z</title>
<path fill="#fee2e2" stroke="#dc2626" d="M315,-296.3C315,-296.3 12,-296.3 12,-296.3 6,-296.3 0,-290.3 0,-284.3 0,-284.3 0,-272.3 0,-272.3 0,-266.3 6,-260.3 12,-260.3 12,-260.3 315,-260.3 315,-260.3 321,-260.3 327,-266.3 327,-272.3 327,-272.3 327,-284.3 327,-284.3 327,-290.3 321,-296.3 315,-296.3"/>
<text text-anchor="middle" x="163.5" y="-275.5" font-family="Helvetica,sans-Serif" font-size="11.00">UserManagerService.removeUserWithProfilesUnchecked</text>
</g>
<!-- m::com.android.server.pm.UserManagerService.removeUserWithProfilesUnchecked:(I)Z&#45;&gt;__field__ -->
<g id="edge3" class="edge">
<title>m::com.android.server.pm.UserManagerService.removeUserWithProfilesUnchecked:(I)Z&#45;&gt;__field__</title>
<path fill="none" stroke="#dc2626" d="M327.29,-278.78C362.65,-275.74 399.49,-270.12 433,-260.3 439.7,-258.33 446.5,-255.45 452.91,-252.23"/>
<polygon fill="#dc2626" stroke="#dc2626" points="454.49,-254.56 460.24,-248.33 451.86,-249.62 454.49,-254.56"/>
<text text-anchor="middle" x="391" y="-278.1" font-family="Helvetica,sans-Serif" font-size="9.00" fill="#dc2626"> writes unguarded</text>
</g>
<!-- m::com.android.server.pm.UserManagerService.removeUserWithProfilesUnchecked:(I)Z&#45;&gt;__field__ -->
<g id="edge9" class="edge">
<title>m::com.android.server.pm.UserManagerService.removeUserWithProfilesUnchecked:(I)Z&#45;&gt;__field__</title>
<path fill="none" stroke="#dc2626" d="M277.14,-260.24C300.86,-256.53 325.74,-252.72 349,-249.3 381.75,-244.48 418.92,-239.4 446.5,-235.71"/>
<polygon fill="#dc2626" stroke="#dc2626" points="447.17,-238.44 454.73,-234.61 446.43,-232.89 447.17,-238.44"/>
<text text-anchor="middle" x="391" y="-252.1" font-family="Helvetica,sans-Serif" font-size="9.00" fill="#dc2626"> reads unguarded</text>
</g>
<!-- m::com.android.server.pm.UserManagerService.setUserEphemeralUnchecked:(I)I -->
<g id="node5" class="node">
<title>m::com.android.server.pm.UserManagerService.setUserEphemeralUnchecked:(I)I</title>
<path fill="#fee2e2" stroke="#dc2626" d="M299.5,-222.3C299.5,-222.3 27.5,-222.3 27.5,-222.3 21.5,-222.3 15.5,-216.3 15.5,-210.3 15.5,-210.3 15.5,-198.3 15.5,-198.3 15.5,-192.3 21.5,-186.3 27.5,-186.3 27.5,-186.3 299.5,-186.3 299.5,-186.3 305.5,-186.3 311.5,-192.3 311.5,-198.3 311.5,-198.3 311.5,-210.3 311.5,-210.3 311.5,-216.3 305.5,-222.3 299.5,-222.3"/>
<text text-anchor="middle" x="163.5" y="-201.5" font-family="Helvetica,sans-Serif" font-size="11.00">UserManagerService.setUserEphemeralUnchecked</text>
</g>
<!-- m::com.android.server.pm.UserManagerService.setUserEphemeralUnchecked:(I)I&#45;&gt;__field__ -->
<g id="edge4" class="edge">
<title>m::com.android.server.pm.UserManagerService.setUserEphemeralUnchecked:(I)I&#45;&gt;__field__</title>
<path fill="none" stroke="#dc2626" d="M311.6,-201.03C351.25,-202.23 393.96,-205.42 433,-212.3 437.59,-213.11 442.32,-214.22 446.99,-215.5"/>
<polygon fill="#dc2626" stroke="#dc2626" points="446.28,-218.21 454.75,-217.79 447.87,-212.84 446.28,-218.21"/>
<text text-anchor="middle" x="391" y="-215.1" font-family="Helvetica,sans-Serif" font-size="9.00" fill="#dc2626"> writes unguarded</text>
</g>
<!-- m::com.android.server.pm.UserManagerService.setUserEphemeralUnchecked:(I)I&#45;&gt;__field__ -->
<g id="edge10" class="edge">
<title>m::com.android.server.pm.UserManagerService.setUserEphemeralUnchecked:(I)I&#45;&gt;__field__</title>
<path fill="none" stroke="#dc2626" d="M229.88,-186.28C285.47,-174.18 366.59,-164.26 433,-187.3 444.54,-191.31 455.49,-198.88 464.51,-206.58"/>
<polygon fill="#dc2626" stroke="#dc2626" points="462.89,-208.88 470.71,-212.15 466.63,-204.72 462.89,-208.88"/>
<text text-anchor="middle" x="391" y="-190.1" font-family="Helvetica,sans-Serif" font-size="9.00" fill="#dc2626"> reads unguarded</text>
</g>
<!-- m::com.android.server.pm.UserManagerService.setUserNonEphemeralUnchecked:(I)Z -->
<g id="node6" class="node">
<title>m::com.android.server.pm.UserManagerService.setUserNonEphemeralUnchecked:(I)Z</title>
<path fill="#fee2e2" stroke="#dc2626" d="M310,-156.3C310,-156.3 17,-156.3 17,-156.3 11,-156.3 5,-150.3 5,-144.3 5,-144.3 5,-132.3 5,-132.3 5,-126.3 11,-120.3 17,-120.3 17,-120.3 310,-120.3 310,-120.3 316,-120.3 322,-126.3 322,-132.3 322,-132.3 322,-144.3 322,-144.3 322,-150.3 316,-156.3 310,-156.3"/>
<text text-anchor="middle" x="163.5" y="-135.5" font-family="Helvetica,sans-Serif" font-size="11.00">UserManagerService.setUserNonEphemeralUnchecked</text>
</g>
<!-- m::com.android.server.pm.UserManagerService.setUserNonEphemeralUnchecked:(I)Z&#45;&gt;__field__ -->
<g id="edge5" class="edge">
<title>m::com.android.server.pm.UserManagerService.setUserNonEphemeralUnchecked:(I)Z&#45;&gt;__field__</title>
<path fill="none" stroke="#dc2626" d="M322.05,-128.12C360.17,-131.44 399.54,-140.08 433,-158.3 451.98,-168.64 466.33,-188.73 475.52,-205.06"/>
<polygon fill="#dc2626" stroke="#dc2626" points="473.13,-206.53 479.38,-212.26 478.07,-203.88 473.13,-206.53"/>
<text text-anchor="middle" x="391" y="-161.1" font-family="Helvetica,sans-Serif" font-size="9.00" fill="#dc2626"> writes unguarded</text>
</g>
<!-- m::com.android.server.pm.UserManagerService.upgradeIfNecessaryLP:(II)V -->
<g id="node7" class="node">
<title>m::com.android.server.pm.UserManagerService.upgradeIfNecessaryLP:(II)V</title>
<path fill="#fee2e2" stroke="#dc2626" d="M280,-98.3C280,-98.3 47,-98.3 47,-98.3 41,-98.3 35,-92.3 35,-86.3 35,-86.3 35,-74.3 35,-74.3 35,-68.3 41,-62.3 47,-62.3 47,-62.3 280,-62.3 280,-62.3 286,-62.3 292,-68.3 292,-74.3 292,-74.3 292,-86.3 292,-86.3 292,-92.3 286,-98.3 280,-98.3"/>
<text text-anchor="middle" x="163.5" y="-77.5" font-family="Helvetica,sans-Serif" font-size="11.00">UserManagerService.upgradeIfNecessaryLP</text>
</g>
<!-- m::com.android.server.pm.UserManagerService.upgradeIfNecessaryLP:(II)V&#45;&gt;__field__ -->
<g id="edge6" class="edge">
<title>m::com.android.server.pm.UserManagerService.upgradeIfNecessaryLP:(II)V&#45;&gt;__field__</title>
<path fill="none" stroke="#dc2626" d="M292.18,-72.73C340.23,-75.86 392.88,-87.1 433,-116.3 461.81,-137.26 476,-177.52 482.53,-204.14"/>
<polygon fill="#dc2626" stroke="#dc2626" points="479.87,-205.09 484.38,-212.27 485.33,-203.84 479.87,-205.09"/>
<text text-anchor="middle" x="391" y="-119.1" font-family="Helvetica,sans-Serif" font-size="9.00" fill="#dc2626"> writes unguarded</text>
</g>
<!-- m::com.android.server.pm.UserManagerService.upgradeIfNecessaryLP:(II)V&#45;&gt;__field__ -->
<g id="edge11" class="edge">
<title>m::com.android.server.pm.UserManagerService.upgradeIfNecessaryLP:(II)V&#45;&gt;__field__</title>
<path fill="none" stroke="#dc2626" d="M265.35,-62.26C330.07,-53.06 406.74,-47.35 433,-66.3 476.7,-97.83 485.91,-165.84 487.51,-203.62"/>
<polygon fill="#dc2626" stroke="#dc2626" points="484.73,-204.18 487.76,-212.09 490.32,-204.01 484.73,-204.18"/>
<text text-anchor="middle" x="391" y="-69.1" font-family="Helvetica,sans-Serif" font-size="9.00" fill="#dc2626"> reads unguarded</text>
</g>
<!-- m::com.android.server.pm.UserManagerService.writeUserLP:(Lcom/android/server/pm/UserManagerService$UserData;Ljava/io/OutputStream;)V -->
<g id="node8" class="node">
<title>m::com.android.server.pm.UserManagerService.writeUserLP:(Lcom/android/server/pm/UserManagerService$UserData;Ljava/io/OutputStream;)V</title>
<path fill="#fee2e2" stroke="#dc2626" d="M251.5,-40.3C251.5,-40.3 75.5,-40.3 75.5,-40.3 69.5,-40.3 63.5,-34.3 63.5,-28.3 63.5,-28.3 63.5,-16.3 63.5,-16.3 63.5,-10.3 69.5,-4.3 75.5,-4.3 75.5,-4.3 251.5,-4.3 251.5,-4.3 257.5,-4.3 263.5,-10.3 263.5,-16.3 263.5,-16.3 263.5,-28.3 263.5,-28.3 263.5,-34.3 257.5,-40.3 251.5,-40.3"/>
<text text-anchor="middle" x="163.5" y="-19.5" font-family="Helvetica,sans-Serif" font-size="11.00">UserManagerService.writeUserLP</text>
</g>
<!-- m::com.android.server.pm.UserManagerService.writeUserLP:(Lcom/android/server/pm/UserManagerService$UserData;Ljava/io/OutputStream;)V&#45;&gt;__field__ -->
<g id="edge12" class="edge">
<title>m::com.android.server.pm.UserManagerService.writeUserLP:(Lcom/android/server/pm/UserManagerService$UserData;Ljava/io/OutputStream;)V&#45;&gt;__field__</title>
<path fill="none" stroke="#dc2626" d="M246.06,-4.28C304.35,3.61 381.31,3.23 433,-38.3 458.93,-59.13 476.62,-156.69 483.84,-204.19"/>
<polygon fill="#dc2626" stroke="#dc2626" points="481.08,-204.67 485.03,-212.17 486.62,-203.85 481.08,-204.67"/>
<text text-anchor="middle" x="391" y="-41.1" font-family="Helvetica,sans-Serif" font-size="9.00" fill="#dc2626"> reads unguarded</text>
</g>
</g>
</svg>
