<?xml version="1.0" encoding="UTF-8" standalone="no"?>
<!DOCTYPE svg PUBLIC "-//W3C//DTD SVG 1.1//EN"
 "http://www.w3.org/Graphics/SVG/1.1/DTD/svg11.dtd">
<!-- Generated by graphviz version 2.43.0 (0)
 -->
<!-- Title: race Pages: 1 -->
<svg width="757pt" height="160pt"
 viewBox="0.00 0.00 757.00 160.00" xmlns="http://www.w3.org/2000/svg" xmlns:xlink="http://www.w3.org/1999/xlink">
<g id="graph0" class="graph" transform="scale(1 1) rotate(0) translate(4 156)">
<title>race</title>
<polygon fill="white" stroke="transparent" points="-4,4 -4,-156 753,-156 753,4 -4,4"/>
<!-- __field__ -->
<g id="node1" class="node">
<title>__field__</title>
<path fill="#fef9c3" stroke="#ca8a04" stroke-width="2" d="M737,-94C737,-94 454,-94 454,-94 448,-94 442,-88 442,-82 442,-82 442,-70 442,-70 442,-64 448,-58 454,-58 454,-58 737,-58 737,-58 743,-58 749,-64 749,-70 749,-70 749,-82 749,-82 749,-88 743,-94 737,-94"/>
<text text-anchor="middle" x="595.5" y="-73.2" font-family="Helvetica,sans-Serif" font-size="11.00">AudioService$VolumeStreamState.mIndexStepFactor</text>
</g>
<!-- __guard__ -->
<g id="node2" class="node">
<title>__guard__</title>
<path fill="#dcfce7" stroke="#16a34a" stroke-width="2" d="M265,-152C265,-152 51,-152 51,-152 45,-152 39,-146 39,-140 39,-140 39,-128 39,-128 39,-122 45,-116 51,-116 51,-116 265,-116 265,-116 271,-116 277,-122 277,-128 277,-128 277,-140 277,-140 277,-146 271,-152 265,-152"/>
<text text-anchor="middle" x="158" y="-131.2" font-family="Helvetica,sans-Serif" font-size="11.00">audio.AudioService$VolumeStreamState</text>
</g>
<!-- __guard__&#45;&gt;__field__ -->
<g id="edge1" class="edge">
<title>__guard__&#45;&gt;__field__</title>
<path fill="none" stroke="#16a34a" stroke-width="1.6" d="M277.14,-118.27C330.68,-111.14 394.46,-102.64 450.75,-95.14"/>
<polygon fill="#16a34a" stroke="#16a34a" stroke-width="1.6" points="451.44,-97.88 459,-94.05 450.7,-92.33 451.44,-97.88"/>
<text text-anchor="middle" x="379" y="-110.8" font-family="Helvetica,sans-Serif" font-size="9.00" fill="#15803d"> guards 4/4</text>
</g>
<!-- m::com.android.server.audio.AudioService$VolumeStreamState.getIndexStepFactor:()F -->
<g id="node3" class="node">
<title>m::com.android.server.audio.AudioService$VolumeStreamState.getIndexStepFactor:()F</title>
<path fill="#fee2e2" stroke="#dc2626" d="M303,-94C303,-94 13,-94 13,-94 7,-94 1,-88 1,-82 1,-82 1,-70 1,-70 1,-64 7,-58 13,-58 13,-58 303,-58 303,-58 309,-58 315,-64 315,-70 315,-70 315,-82 315,-82 315,-88 309,-94 303,-94"/>
<text text-anchor="middle" x="158" y="-73.2" font-family="Helvetica,sans-Serif" font-size="11.00">AudioService$VolumeStreamState.getIndexStepFactor</text>
</g>
<!-- m::com.android.server.audio.AudioService$VolumeStreamState.getIndexStepFactor:()F&#45;&gt;__field__ -->
<g id="edge2" class="edge">
<title>m::com.android.server.audio.AudioService$VolumeStreamState.getIndexStepFactor:()F&#45;&gt;__field__</title>
<path fill="none" stroke="#dc2626" d="M315.3,-76C353.79,-76 395.08,-76 433.77,-76"/>
<polygon fill="#dc2626" stroke="#dc2626" points="433.99,-78.8 441.99,-76 433.99,-73.2 433.99,-78.8"/>
<text text-anchor="middle" x="379" y="-78.8" font-family="Helvetica,sans-Serif" font-size="9.00" fill="#dc2626"> reads unguarded</text>
</g>
<!-- m::com.android.server.audio.AudioService$VolumeStreamState.updateIndexFactors:()V -->
<g id="node4" class="node">
<title>m::com.android.server.audio.AudioService$VolumeStreamState.updateIndexFactors:()V</title>
<path fill="#fee2e2" stroke="#dc2626" d="M304,-36C304,-36 12,-36 12,-36 6,-36 0,-30 0,-24 0,-24 0,-12 0,-12 0,-6 6,0 12,0 12,0 304,0 304,0 310,0 316,-6 316,-12 316,-12 316,-24 316,-24 316,-30 310,-36 304,-36"/>
<text text-anchor="middle" x="158" y="-15.2" font-family="Helvetica,sans-Serif" font-size="11.00">AudioService$VolumeStreamState.updateIndexFactors</text>
</g>
<!-- m::com.android.server.audio.AudioService$VolumeStreamState.updateIndexFactors:()V&#45;&gt;__field__ -->
<g id="edge3" class="edge">
<title>m::com.android.server.audio.AudioService$VolumeStreamState.updateIndexFactors:()V&#45;&gt;__field__</title>
<path fill="none" stroke="#dc2626" d="M294.41,-36.03C344.18,-42.66 400.68,-50.19 451.13,-56.91"/>
<polygon fill="#dc2626" stroke="#dc2626" points="450.88,-59.7 459.18,-57.98 451.62,-54.15 450.88,-59.7"/>
<text text-anchor="middle" x="379" y="-54.8" font-family="Helvetica,sans-Serif" font-size="9.00" fill="#dc2626"> reads unguarded</text>
</g>
</g>
</svg>
