<?xml version="1.0" encoding="UTF-8" standalone="no"?>
<!DOCTYPE svg PUBLIC "-//W3C//DTD SVG 1.1//EN"
 "http://www.w3.org/Graphics/SVG/1.1/DTD/svg11.dtd">
<!-- Generated by graphviz version 2.43.0 (0)
 -->
<!-- Title: race Pages: 1 -->
<svg width="665pt" height="102pt"
 viewBox="0.00 0.00 665.00 102.00" xmlns="http://www.w3.org/2000/svg" xmlns:xlink="http://www.w3.org/1999/xlink">
<g id="graph0" class="graph" transform="scale(1 1) rotate(0) translate(4 98)">
<title>race</title>
<polygon fill="white" stroke="transparent" points="-4,4 -4,-98 661,-98 661,4 -4,4"/>
<!-- __field__ -->
<g id="node1" class="node">
<title>__field__</title>
<path fill="#fef9c3" stroke="#ca8a04" stroke-width="2" d="M645,-65C645,-65 409,-65 409,-65 403,-65 397,-59 397,-53 397,-53 397,-41 397,-41 397,-35 403,-29 409,-29 409,-29 645,-29 645,-29 651,-29 657,-35 657,-41 657,-41 657,-53 657,-53 657,-59 651,-65 645,-65"/>
<text text-anchor="middle" x="527" y="-44.2" font-family="Helvetica,sans-Serif" font-size="11.00">StatsPullAtomService.mProcessStatsService</text>
</g>
<!-- __guard__ -->
<g id="node2" class="node">
<title>__guard__</title>
<path fill="#dcfce7" stroke="#16a34a" stroke-width="2" d="M236.5,-94C236.5,-94 34.5,-94 34.5,-94 28.5,-94 22.5,-88 22.5,-82 22.5,-82 22.5,-70 22.5,-70 22.5,-64 28.5,-58 34.5,-58 34.5,-58 236.5,-58 236.5,-58 242.5,-58 248.5,-64 248.5,-70 248.5,-70 248.5,-82 248.5,-82 248.5,-88 242.5,-94 236.5,-94"/>
<text text-anchor="middle" x="135.5" y="-73.2" font-family="Helvetica,sans-Serif" font-size="11.00">StatsPullAtomService.mProcStatsLock</text>
</g>
<!-- __guard__&#45;&gt;__field__ -->
<g id="edge1" class="edge">
<title>__guard__&#45;&gt;__field__</title>
<path fill="none" stroke="#16a34a" stroke-width="1.6" d="M248.64,-67.65C292.31,-64.4 342.79,-60.64 388.61,-57.23"/>
<polygon fill="#16a34a" stroke="#16a34a" stroke-width="1.6" points="389.05,-60 396.82,-56.62 388.63,-54.42 389.05,-60"/>
<text text-anchor="middle" x="334" y="-66.8" font-family="Helvetica,sans-Serif" font-size="9.00" fill="#15803d"> guards 2/2</text>
</g>
<!-- m::com.android.server.stats.pull.StatsPullAtomService.getIProcessStatsService:()Lcom/android/internal/app/procstats/IProcessStats; -->
<g id="node3" class="node">
<title>m::com.android.server.stats.pull.StatsPullAtomService.getIProcessStatsService:()Lcom/android/internal/app/procstats/IProcessStats;</title>
<path fill="#fee2e2" stroke="#dc2626" d="M259,-36C259,-36 12,-36 12,-36 6,-36 0,-30 0,-24 0,-24 0,-12 0,-12 0,-6 6,0 12,0 12,0 259,0 259,0 265,0 271,-6 271,-12 271,-12 271,-24 271,-24 271,-30 265,-36 259,-36"/>
<text text-anchor="middle" x="135.5" y="-15.2" font-family="Helvetica,sans-Serif" font-size="11.00">StatsPullAtomService.getIProcessStatsService</text>
</g>
<!-- m::com.android.server.stats.pull.StatsPullAtomService.getIProcessStatsService:()Lcom/android/internal/app/procstats/IProcessStats;&#45;&gt;__field__ -->
<g id="edge2" class="edge">
<title>m::com.android.server.stats.pull.StatsPullAtomService.getIProcessStatsService:()Lcom/android/internal/app/procstats/IProcessStats;&#45;&gt;__field__</title>
<path fill="none" stroke="#dc2626" d="M271.09,-28.02C309.17,-30.86 350.65,-33.94 388.88,-36.79"/>
<polygon fill="#dc2626" stroke="#dc2626" points="388.8,-39.59 396.99,-37.39 389.22,-34.01 388.8,-39.59"/>
<text text-anchor="middle" x="334" y="-37.8" font-family="Helvetica,sans-Serif" font-size="9.00" fill="#dc2626"> reads unguarded</text>
</g>
</g>
</svg>
