<?xml version="1.0" encoding="UTF-8" standalone="no"?>
<!DOCTYPE svg PUBLIC "-//W3C//DTD SVG 1.1//EN"
 "http://www.w3.org/Graphics/SVG/1.1/DTD/svg11.dtd">
<!-- Generated by graphviz version 2.43.0 (0)
 -->
<!-- Title: race Pages: 1 -->
<svg width="844pt" height="110pt"
 viewBox="0.00 0.00 844.00 110.00" xmlns="http://www.w3.org/2000/svg" xmlns:xlink="http://www.w3.org/1999/xlink">
<g id="graph0" class="graph" transform="scale(1 1) rotate(0) translate(4 106)">
<title>race</title>
<polygon fill="white" stroke="transparent" points="-4,4 -4,-106 840,-106 840,4 -4,4"/>
<!-- __field__ -->
<g id="node1" class="node">
<title>__field__</title>
<path fill="#fef9c3" stroke="#ca8a04" stroke-width="2" d="M824,-65C824,-65 500,-65 500,-65 494,-65 488,-59 488,-53 488,-53 488,-41 488,-41 488,-35 494,-29 500,-29 500,-29 824,-29 824,-29 830,-29 836,-35 836,-41 836,-41 836,-53 836,-53 836,-59 830,-65 824,-65"/>
<text text-anchor="middle" x="662" y="-44.2" font-family="Helvetica,sans-Serif" font-size="11.00">BatteryHistoryStepDetailsProvider.mCurStepStatIdleTimeMs</text>
</g>
<!-- __guard__ -->
<g id="node2" class="node">
<title>__guard__</title>
<path fill="#dcfce7" stroke="#16a34a" stroke-width="2" d="M239.5,-102C239.5,-102 122.5,-102 122.5,-102 116.5,-102 110.5,-96 110.5,-90 110.5,-90 110.5,-78 110.5,-78 110.5,-72 116.5,-66 122.5,-66 122.5,-66 239.5,-66 239.5,-66 245.5,-66 251.5,-72 251.5,-78 251.5,-78 251.5,-90 251.5,-90 251.5,-96 245.5,-102 239.5,-102"/>
<text text-anchor="middle" x="181" y="-81.2" font-family="Helvetica,sans-Serif" font-size="11.00">stats.BatteryStatsImpl</text>
</g>
<!-- __guard__&#45;&gt;__field__ -->
<g id="edge1" class="edge">
<title>__guard__&#45;&gt;__field__</title>
<path fill="none" stroke="#16a34a" stroke-width="1.6" d="M251.65,-78.62C311.35,-74.01 400.07,-67.16 479.67,-61.01"/>
<polygon fill="#16a34a" stroke="#16a34a" stroke-width="1.6" points="480.07,-63.78 487.83,-60.38 479.64,-58.2 480.07,-63.78"/>
<text text-anchor="middle" x="425" y="-69.8" font-family="Helvetica,sans-Serif" font-size="9.00" fill="#15803d"> guards 2/2</text>
</g>
<!-- m::com.android.server.power.stats.BatteryHistoryStepDetailsProvider.calculateHistoryStepDetails:()V -->
<g id="node3" class="node">
<title>m::com.android.server.power.stats.BatteryHistoryStepDetailsProvider.calculateHistoryStepDetails:()V</title>
<path fill="#fee2e2" stroke="#dc2626" d="M350,-36C350,-36 12,-36 12,-36 6,-36 0,-30 0,-24 0,-24 0,-12 0,-12 0,-6 6,0 12,0 12,0 350,0 350,0 356,0 362,-6 362,-12 362,-12 362,-24 362,-24 362,-30 356,-36 350,-36"/>
<text text-anchor="middle" x="181" y="-15.2" font-family="Helvetica,sans-Serif" font-size="11.00">BatteryHistoryStepDetailsProvider.calculateHistoryStepDetails</text>
</g>
<!-- m::com.android.server.power.stats.BatteryHistoryStepDetailsProvider.calculateHistoryStepDetails:()V&#45;&gt;__field__ -->
<g id="edge2" class="edge">
<title>m::com.android.server.power.stats.BatteryHistoryStepDetailsProvider.calculateHistoryStepDetails:()V&#45;&gt;__field__</title>
<path fill="none" stroke="#dc2626" d="M362.07,-28.9C400.46,-31.23 441.03,-33.68 479.48,-36.01"/>
<polygon fill="#dc2626" stroke="#dc2626" points="479.5,-38.82 487.65,-36.51 479.84,-33.23 479.5,-38.82"/>
<text text-anchor="middle" x="425" y="-37.8" font-family="Helvetica,sans-Serif" font-size="9.00" fill="#dc2626"> reads unguarded</text>
</g>
<!-- m::com.android.server.power.stats.BatteryHistoryStepDetailsProvider.calculateHistoryStepDetails:()V&#45;&gt;__field__ -->
<g id="edge3" class="edge">
<title>m::com.android.server.power.stats.BatteryHistoryStepDetailsProvider.calculateHistoryStepDetails:()V&#45;&gt;__field__</title>
<path fill="none" stroke="#dc2626" d="M362.08,-11.11C396.62,-11.2 432.46,-12.27 466,-15 497.39,-17.56 531.34,-22.4 561.98,-27.55"/>
<polygon fill="#dc2626" stroke="#dc2626" points="561.75,-30.35 570.11,-28.94 562.7,-24.83 561.75,-30.35"/>
<text text-anchor="middle" x="425" y="-17.8" font-family="Helvetica,sans-Serif" font-size="9.00" fill="#dc2626"> reads unguarded</text>
</g>
</g>
</svg>
