<?xml version="1.0" encoding="UTF-8" standalone="no"?>
<!DOCTYPE svg PUBLIC "-//W3C//DTD SVG 1.1//EN"
 "http://www.w3.org/Graphics/SVG/1.1/DTD/svg11.dtd">
<!-- Generated by graphviz version 2.43.0 (0)
 -->
<!-- Title: race Pages: 1 -->
<svg width="546pt" height="160pt"
 viewBox="0.00 0.00 546.00 160.00" xmlns="http://www.w3.org/2000/svg" xmlns:xlink="http://www.w3.org/1999/xlink">
<g id="graph0" class="graph" transform="scale(1 1) rotate(0) translate(4 156)">
<title>race</title>
<polygon fill="white" stroke="transparent" points="-4,4 -4,-156 542,-156 542,4 -4,4"/>
<!-- __field__ -->
<g id="node1" class="node">
<title>__field__</title>
<path fill="#fef9c3" stroke="#ca8a04" stroke-width="2" d="M526,-94C526,-94 365,-94 365,-94 359,-94 353,-88 353,-82 353,-82 353,-70 353,-70 353,-64 359,-58 365,-58 365,-58 526,-58 526,-58 532,-58 538,-64 538,-70 538,-70 538,-82 538,-82 538,-88 532,-94 526,-94"/>
<text text-anchor="middle" x="445.5" y="-73.2" font-family="Helvetica,sans-Serif" font-size="11.00">ProcessProfileRecord.mThread</text>
</g>
<!-- __guard__ -->
<g id="node2" class="node">
<title>__guard__</title>
<path fill="#dcfce7" stroke="#16a34a" stroke-width="2" d="M178.5,-152C178.5,-152 48.5,-152 48.5,-152 42.5,-152 36.5,-146 36.5,-140 36.5,-140 36.5,-128 36.5,-128 36.5,-122 42.5,-116 48.5,-116 48.5,-116 178.5,-116 178.5,-116 184.5,-116 190.5,-122 190.5,-128 190.5,-128 190.5,-140 190.5,-140 190.5,-146 184.5,-152 178.5,-152"/>
<text text-anchor="middle" x="113.5" y="-131.2" font-family="Helvetica,sans-Serif" font-size="11.00">AppProfiler.mProfilerLock</text>
</g>
<!-- __guard__&#45;&gt;__field__ -->
<g id="edge1" class="edge">
<title>__guard__&#45;&gt;__field__</title>
<path fill="none" stroke="#16a34a" stroke-width="1.6" d="M190.62,-120.62C236.42,-112.57 295.24,-102.23 344.73,-93.54"/>
<polygon fill="#16a34a" stroke="#16a34a" stroke-width="1.6" points="345.51,-96.24 352.9,-92.1 344.54,-90.73 345.51,-96.24"/>
<text text-anchor="middle" x="290" y="-112.8" font-family="Helvetica,sans-Serif" font-size="9.00" fill="#15803d"> guards 3/3</text>
</g>
<!-- m::com.android.server.am.ProcessProfileRecord.getThread:()Landroid/app/IApplicationThread; -->
<g id="node3" class="node">
<title>m::com.android.server.am.ProcessProfileRecord.getThread:()Landroid/app/IApplicationThread;</title>
<path fill="#fee2e2" stroke="#dc2626" d="M197.5,-94C197.5,-94 29.5,-94 29.5,-94 23.5,-94 17.5,-88 17.5,-82 17.5,-82 17.5,-70 17.5,-70 17.5,-64 23.5,-58 29.5,-58 29.5,-58 197.5,-58 197.5,-58 203.5,-58 209.5,-64 209.5,-70 209.5,-70 209.5,-82 209.5,-82 209.5,-88 203.5,-94 197.5,-94"/>
<text text-anchor="middle" x="113.5" y="-73.2" font-family="Helvetica,sans-Serif" font-size="11.00">ProcessProfileRecord.getThread</text>
</g>
<!-- m::com.android.server.am.ProcessProfileRecord.getThread:()Landroid/app/IApplicationThread;&#45;&gt;__field__ -->
<g id="edge2" class="edge">
<title>m::com.android.server.am.ProcessProfileRecord.getThread:()Landroid/app/IApplicationThread;&#45;&gt;__field__</title>
<path fill="none" stroke="#dc2626" d="M209.51,-76C251.81,-76 301.65,-76 344.52,-76"/>
<polygon fill="#dc2626" stroke="#dc2626" points="344.72,-78.8 352.72,-76 344.72,-73.2 344.72,-78.8"/>
<text text-anchor="middle" x="290" y="-78.8" font-family="Helvetica,sans-Serif" font-size="9.00" fill="#dc2626"> reads unguarded</text>
</g>
<!-- m::com.android.server.am.ProcessProfileRecord.onProcessActive:(Landroid/app/IApplicationThread;Lcom/android/server/am/ProcessStatsService;)V -->
<g id="node4" class="node">
<title>m::com.android.server.am.ProcessProfileRecord.onProcessActive:(Landroid/app/IApplicationThread;Lcom/android/server/am/ProcessStatsService;)V</title>
<path fill="#fee2e2" stroke="#dc2626" d="M215,-36C215,-36 12,-36 12,-36 6,-36 0,-30 0,-24 0,-24 0,-12 0,-12 0,-6 6,0 12,0 12,0 215,0 215,0 221,0 227,-6 227,-12 227,-12 227,-24 227,-24 227,-30 221,-36 215,-36"/>
<text text-anchor="middle" x="113.5" y="-15.2" font-family="Helvetica,sans-Serif" font-size="11.00">ProcessProfileRecord.onProcessActive</text>
</g>
<!-- m::com.android.server.am.ProcessProfileRecord.onProcessActive:(Landroid/app/IApplicationThread;Lcom/android/server/am/ProcessStatsService;)V&#45;&gt;__field__ -->
<g id="edge3" class="edge">
<title>m::com.android.server.am.ProcessProfileRecord.onProcessActive:(Landroid/app/IApplicationThread;Lcom/android/server/am/ProcessStatsService;)V&#45;&gt;__field__</title>
<path fill="none" stroke="#dc2626" d="M217.11,-36.03C257.81,-43.19 304.46,-51.39 344.87,-58.49"/>
<polygon fill="#dc2626" stroke="#dc2626" points="344.51,-61.27 352.87,-59.9 345.47,-55.75 344.51,-61.27"/>
<text text-anchor="middle" x="290" y="-57.8" font-family="Helvetica,sans-Serif" font-size="9.00" fill="#dc2626"> reads unguarded</text>
</g>
</g>
</svg>
