<?xml version="1.0" encoding="UTF-8" standalone="no"?>
<!DOCTYPE svg PUBLIC "-//W3C//DTD SVG 1.1//EN"
 "http://www.w3.org/Graphics/SVG/1.1/DTD/svg11.dtd">
<!-- Generated by graphviz version 2.43.0 (0)
 -->
<!-- Title: race Pages: 1 -->
<svg width="646pt" height="102pt"
 viewBox="0.00 0.00 646.00 102.00" xmlns="http://www.w3.org/2000/svg" xmlns:xlink="http://www.w3.org/1999/xlink">
<g id="graph0" class="graph" transform="scale(1 1) rotate(0) translate(4 98)">
<title>race</title>
<polygon fill="white" stroke="transparent" points="-4,4 -4,-98 642,-98 642,4 -4,4"/>
<!-- __field__ -->
<g id="node1" class="node">
<title>__field__</title>
<path fill="#fef9c3" stroke="#ca8a04" stroke-width="2" d="M626,-65C626,-65 398,-65 398,-65 392,-65 386,-59 386,-53 386,-53 386,-41 386,-41 386,-35 392,-29 398,-29 398,-29 626,-29 626,-29 632,-29 638,-35 638,-41 638,-41 638,-53 638,-53 638,-59 632,-65 626,-65"/>
<text text-anchor="middle" x="512" y="-44.2" font-family="Helvetica,sans-Serif" font-size="11.00">HintManagerService$ChannelItem.mConfig</text>
</g>
<!-- __guard__ -->
<g id="node2" class="node">
<title>__guard__</title>
<path fill="#dcfce7" stroke="#16a34a" stroke-width="2" d="M235,-94C235,-94 25,-94 25,-94 19,-94 13,-88 13,-82 13,-82 13,-70 13,-70 13,-64 19,-58 25,-58 25,-58 235,-58 235,-58 241,-58 247,-64 247,-70 247,-70 247,-82 247,-82 247,-88 241,-94 235,-94"/>
<text text-anchor="middle" x="130" y="-73.2" font-family="Helvetica,sans-Serif" font-size="11.00">HintManagerService.mChannelMapLock</text>
</g>
<!-- __guard__&#45;&gt;__field__ -->
<g id="edge1" class="edge">
<title>__guard__&#45;&gt;__field__</title>
<path fill="none" stroke="#16a34a" stroke-width="1.6" d="M247.08,-67.14C288.29,-64 335,-60.43 377.55,-57.18"/>
<polygon fill="#16a34a" stroke="#16a34a" stroke-width="1.6" points="377.96,-59.96 385.73,-56.56 377.54,-54.38 377.96,-59.96"/>
<text text-anchor="middle" x="323" y="-66.8" font-family="Helvetica,sans-Serif" font-size="9.00" fill="#15803d"> guards 2/2</text>
</g>
<!-- m::com.android.server.power.hint.HintManagerService$ChannelItem.getConfig:()Landroid/hardware/power/ChannelConfig; -->
<g id="node3" class="node">
<title>m::com.android.server.power.hint.HintManagerService$ChannelItem.getConfig:()Landroid/hardware/power/ChannelConfig;</title>
<path fill="#fee2e2" stroke="#dc2626" d="M248,-36C248,-36 12,-36 12,-36 6,-36 0,-30 0,-24 0,-24 0,-12 0,-12 0,-6 6,0 12,0 12,0 248,0 248,0 254,0 260,-6 260,-12 260,-12 260,-24 260,-24 260,-30 254,-36 248,-36"/>
<text text-anchor="middle" x="130" y="-15.2" font-family="Helvetica,sans-Serif" font-size="11.00">HintManagerService$ChannelItem.getConfig</text>
</g>
<!-- m::com.android.server.power.hint.HintManagerService$ChannelItem.getConfig:()Landroid/hardware/power/ChannelConfig;&#45;&gt;__field__ -->
<g id="edge2" class="edge">
<title>m::com.android.server.power.hint.HintManagerService$ChannelItem.getConfig:()Landroid/hardware/power/ChannelConfig;&#45;&gt;__field__</title>
<path fill="none" stroke="#dc2626" d="M260.18,-27.86C298.05,-30.75 339.51,-33.91 377.63,-36.82"/>
<polygon fill="#dc2626" stroke="#dc2626" points="377.52,-39.62 385.71,-37.44 377.95,-34.04 377.52,-39.62"/>
<text text-anchor="middle" x="323" y="-37.8" font-family="Helvetica,sans-Serif" font-size="9.00" fill="#dc2626"> reads unguarded</text>
</g>
</g>
</svg>
