<?xml version="1.0" encoding="UTF-8" standalone="no"?>
<!DOCTYPE svg PUBLIC "-//W3C//DTD SVG 1.1//EN"
 "http://www.w3.org/Graphics/SVG/1.1/DTD/svg11.dtd">
<!-- Generated by graphviz version 2.43.0 (0)
 -->
<!-- Title: race Pages: 1 -->
<svg width="653pt" height="168pt"
 viewBox="0.00 0.00 653.00 168.00" xmlns="http://www.w3.org/2000/svg" xmlns:xlink="http://www.w3.org/1999/xlink">
<g id="graph0" class="graph" transform="scale(1 1) rotate(0) translate(4 164)">
<title>race</title>
<polygon fill="white" stroke="transparent" points="-4,4 -4,-164 649,-164 649,4 -4,4"/>
<!-- __field__ -->
<g id="node1" class="node">
<title>__field__</title>
<path fill="#fef9c3" stroke="#ca8a04" stroke-width="2" d="M633,-83C633,-83 409,-83 409,-83 403,-83 397,-77 397,-71 397,-71 397,-59 397,-59 397,-53 403,-47 409,-47 409,-47 633,-47 633,-47 639,-47 645,-53 645,-59 645,-59 645,-71 645,-71 645,-77 639,-83 633,-83"/>
<text text-anchor="middle" x="521" y="-62.2" font-family="Helvetica,sans-Serif" font-size="11.00">UsbPortManager$PortInfo.mUsbPortStatus</text>
</g>
<!-- __guard__ -->
<g id="node2" class="node">
<title>__guard__</title>
<path fill="#dcfce7" stroke="#16a34a" stroke-width="2" d="M196.5,-160C196.5,-160 74.5,-160 74.5,-160 68.5,-160 62.5,-154 62.5,-148 62.5,-148 62.5,-136 62.5,-136 62.5,-130 68.5,-124 74.5,-124 74.5,-124 196.5,-124 196.5,-124 202.5,-124 208.5,-130 208.5,-136 208.5,-136 208.5,-148 208.5,-148 208.5,-154 202.5,-160 196.5,-160"/>
<text text-anchor="middle" x="135.5" y="-139.2" font-family="Helvetica,sans-Serif" font-size="11.00">UsbPortManager.mLock</text>
</g>
<!-- __guard__&#45;&gt;__field__ -->
<g id="edge1" class="edge">
<title>__guard__&#45;&gt;__field__</title>
<path fill="none" stroke="#16a34a" stroke-width="1.6" d="M208.63,-127.52C268.99,-115.4 355.68,-97.99 422.27,-84.62"/>
<polygon fill="#16a34a" stroke="#16a34a" stroke-width="1.6" points="423,-87.33 430.29,-83.01 421.89,-81.84 423,-87.33"/>
<text text-anchor="middle" x="334" y="-112.8" font-family="Helvetica,sans-Serif" font-size="9.00" fill="#15803d"> guards 3/3</text>
</g>
<!-- m::com.android.server.usb.UsbPortManager$PortInfo.toString:()Ljava/lang/String; -->
<g id="node3" class="node">
<title>m::com.android.server.usb.UsbPortManager$PortInfo.toString:()Ljava/lang/String;</title>
<path fill="#fee2e2" stroke="#dc2626" d="M225,-102C225,-102 46,-102 46,-102 40,-102 34,-96 34,-90 34,-90 34,-78 34,-78 34,-72 40,-66 46,-66 46,-66 225,-66 225,-66 231,-66 237,-72 237,-78 237,-78 237,-90 237,-90 237,-96 231,-102 225,-102"/>
<text text-anchor="middle" x="135.5" y="-81.2" font-family="Helvetica,sans-Serif" font-size="11.00">UsbPortManager$PortInfo.toString</text>
</g>
<!-- m::com.android.server.usb.UsbPortManager$PortInfo.toString:()Ljava/lang/String;&#45;&gt;__field__ -->
<g id="edge2" class="edge">
<title>m::com.android.server.usb.UsbPortManager$PortInfo.toString:()Ljava/lang/String;&#45;&gt;__field__</title>
<path fill="none" stroke="#dc2626" d="M237.01,-79.02C283.36,-76.72 338.99,-73.97 388.62,-71.51"/>
<polygon fill="#dc2626" stroke="#dc2626" points="389,-74.29 396.85,-71.1 388.72,-68.7 389,-74.29"/>
<text text-anchor="middle" x="334" y="-78.8" font-family="Helvetica,sans-Serif" font-size="9.00" fill="#dc2626"> reads unguarded</text>
</g>
<!-- m::com.android.server.usb.UsbPortManager.enableContaminantDetection:(Ljava/lang/String;ZLcom/android/internal/util/IndentingPrintWriter;)V -->
<g id="node4" class="node">
<title>m::com.android.server.usb.UsbPortManager.enableContaminantDetection:(Ljava/lang/String;ZLcom/android/internal/util/IndentingPrintWriter;)V</title>
<path fill="#fee2e2" stroke="#dc2626" d="M259,-36C259,-36 12,-36 12,-36 6,-36 0,-30 0,-24 0,-24 0,-12 0,-12 0,-6 6,0 12,0 12,0 259,0 259,0 265,0 271,-6 271,-12 271,-12 271,-24 271,-24 271,-30 265,-36 259,-36"/>
<text text-anchor="middle" x="135.5" y="-15.2" font-family="Helvetica,sans-Serif" font-size="11.00">UsbPortManager.enableContaminantDetection</text>
</g>
<!-- m::com.android.server.usb.UsbPortManager.enableContaminantDetection:(Ljava/lang/String;ZLcom/android/internal/util/IndentingPrintWriter;)V&#45;&gt;__field__ -->
<g id="edge3" class="edge">
<title>m::com.android.server.usb.UsbPortManager.enableContaminantDetection:(Ljava/lang/String;ZLcom/android/internal/util/IndentingPrintWriter;)V&#45;&gt;__field__</title>
<path fill="none" stroke="#dc2626" d="M271.17,-34.5C309.35,-39.18 350.86,-44.27 388.83,-48.92"/>
<polygon fill="#dc2626" stroke="#dc2626" points="388.59,-51.72 396.88,-49.91 389.28,-46.16 388.59,-51.72"/>
<text text-anchor="middle" x="334" y="-49.8" font-family="Helvetica,sans-Serif" font-size="9.00" fill="#dc2626"> reads unguarded</text>
</g>
<!-- m::com.android.server.usb.UsbPortManager.enableContaminantDetection:(Ljava/lang/String;ZLcom/android/internal/util/IndentingPrintWriter;)V&#45;&gt;__field__ -->
<g id="edge4" class="edge">
<title>m::com.android.server.usb.UsbPortManager.enableContaminantDetection:(Ljava/lang/String;ZLcom/android/internal/util/IndentingPrintWriter;)V&#45;&gt;__field__</title>
<path fill="none" stroke="#dc2626" d="M271.06,-13.89C305.13,-14.59 341.54,-16.86 375,-22 404.88,-26.59 437.21,-35.75 463.75,-44.44"/>
<polygon fill="#dc2626" stroke="#dc2626" points="462.95,-47.13 471.43,-47 464.72,-41.81 462.95,-47.13"/>
<text text-anchor="middle" x="334" y="-24.8" font-family="Helvetica,sans-Serif" font-size="9.00" fill="#dc2626"> reads unguarded</text>
</g>
</g>
</svg>
