<?xml version="1.0" encoding="UTF-8" standalone="no"?>
<!DOCTYPE svg PUBLIC "-//W3C//DTD SVG 1.1//EN"
 "http://www.w3.org/Graphics/SVG/1.1/DTD/svg11.dtd">
<!-- Generated by graphviz version 2.43.0 (0)
 -->
<!-- Title: race Pages: 1 -->
<svg width="569pt" height="102pt"
 viewBox="0.00 0.00 569.00 102.00" xmlns="http://www.w3.org/2000/svg" xmlns:xlink="http://www.w3.org/1999/xlink">
<g id="graph0" class="graph" transform="scale(1 1) rotate(0) translate(4 98)">
<title>race</title>
<polygon fill="white" stroke="transparent" points="-4,4 -4,-98 565,-98 565,4 -4,4"/>
<!-- __field__ -->
<g id="node1" class="node">
<title>__field__</title>
<path fill="#fef9c3" stroke="#ca8a04" stroke-width="2" d="M549,-65C549,-65 361,-65 361,-65 355,-65 349,-59 349,-53 349,-53 349,-41 349,-41 349,-35 355,-29 361,-29 361,-29 549,-29 549,-29 555,-29 561,-35 561,-41 561,-41 561,-53 561,-53 561,-59 555,-65 549,-65"/>
<text text-anchor="middle" x="455" y="-44.2" font-family="Helvetica,sans-Serif" font-size="11.00">StatsPullAtomService.mVoldService</text>
</g>
<!-- __guard__ -->
<g id="node2" class="node">
<title>__guard__</title>
<path fill="#dcfce7" stroke="#16a34a" stroke-width="2" d="M198,-94C198,-94 25,-94 25,-94 19,-94 13,-88 13,-82 13,-82 13,-70 13,-70 13,-64 19,-58 25,-58 25,-58 198,-58 198,-58 204,-58 210,-64 210,-70 210,-70 210,-82 210,-82 210,-88 204,-94 198,-94"/>
<text text-anchor="middle" x="111.5" y="-73.2" font-family="Helvetica,sans-Serif" font-size="11.00">StatsPullAtomService.mVoldLock</text>
</g>
<!-- __guard__&#45;&gt;__field__ -->
<g id="edge1" class="edge">
<title>__guard__&#45;&gt;__field__</title>
<path fill="none" stroke="#16a34a" stroke-width="1.6" d="M210.36,-67.69C251.1,-64.23 298.64,-60.19 340.87,-56.61"/>
<polygon fill="#16a34a" stroke="#16a34a" stroke-width="1.6" points="341.23,-59.39 348.96,-55.92 340.76,-53.81 341.23,-59.39"/>
<text text-anchor="middle" x="286" y="-66.8" font-family="Helvetica,sans-Serif" font-size="9.00" fill="#15803d"> guards 2/2</text>
</g>
<!-- m::com.android.server.stats.pull.StatsPullAtomService.getIVoldService:()Landroid/os/IVold; -->
<g id="node3" class="node">
<title>m::com.android.server.stats.pull.StatsPullAtomService.getIVoldService:()Landroid/os/IVold;</title>
<path fill="#fee2e2" stroke="#dc2626" d="M211,-36C211,-36 12,-36 12,-36 6,-36 0,-30 0,-24 0,-24 0,-12 0,-12 0,-6 6,0 12,0 12,0 211,0 211,0 217,0 223,-6 223,-12 223,-12 223,-24 223,-24 223,-30 217,-36 211,-36"/>
<text text-anchor="middle" x="111.5" y="-15.2" font-family="Helvetica,sans-Serif" font-size="11.00">StatsPullAtomService.getIVoldService</text>
</g>
<!-- m::com.android.server.stats.pull.StatsPullAtomService.getIVoldService:()Landroid/os/IVold;&#45;&gt;__field__ -->
<g id="edge2" class="edge">
<title>m::com.android.server.stats.pull.StatsPullAtomService.getIVoldService:()Landroid/os/IVold;&#45;&gt;__field__</title>
<path fill="none" stroke="#dc2626" d="M223.38,-27.42C261.01,-30.61 303.09,-34.19 340.9,-37.4"/>
<polygon fill="#dc2626" stroke="#dc2626" points="340.69,-40.19 348.9,-38.08 341.17,-34.61 340.69,-40.19"/>
<text text-anchor="middle" x="286" y="-37.8" font-family="Helvetica,sans-Serif" font-size="9.00" fill="#dc2626"> reads unguarded</text>
</g>
</g>
</svg>
