<?xml version="1.0" encoding="UTF-8" standalone="no"?>
<!DOCTYPE svg PUBLIC "-//W3C//DTD SVG 1.1//EN"
 "http://www.w3.org/Graphics/SVG/1.1/DTD/svg11.dtd">
<!-- Generated by graphviz version 2.43.0 (0)
 -->
<!-- Title: race Pages: 1 -->
<svg width="615pt" height="102pt"
 viewBox="0.00 0.00 615.00 102.00" xmlns="http://www.w3.org/2000/svg" xmlns:xlink="http://www.w3.org/1999/xlink">
<g id="graph0" class="graph" transform="scale(1 1) rotate(0) translate(4 98)">
<title>race</title>
<polygon fill="white" stroke="transparent" points="-4,4 -4,-98 611,-98 611,4 -4,4"/>
<!-- __field__ -->
<g id="node1" class="node">
<title>__field__</title>
<path fill="#fef9c3" stroke="#ca8a04" stroke-width="2" d="M595,-65C595,-65 371,-65 371,-65 365,-65 359,-59 359,-53 359,-53 359,-41 359,-41 359,-35 365,-29 371,-29 371,-29 595,-29 595,-29 601,-29 607,-35 607,-41 607,-41 607,-53 607,-53 607,-59 601,-65 595,-65"/>
<text text-anchor="middle" x="483" y="-44.2" font-family="Helvetica,sans-Serif" font-size="11.00">WallpaperData.mPendingStaticDescription</text>
</g>
<!-- __guard__ -->
<g id="node2" class="node">
<title>__guard__</title>
<path fill="#dcfce7" stroke="#16a34a" stroke-width="2" d="M204,-94C204,-94 29,-94 29,-94 23,-94 17,-88 17,-82 17,-82 17,-70 17,-70 17,-64 23,-58 29,-58 29,-58 204,-58 204,-58 210,-58 216,-64 216,-70 216,-70 216,-82 216,-82 216,-88 210,-94 204,-94"/>
<text text-anchor="middle" x="116.5" y="-73.2" font-family="Helvetica,sans-Serif" font-size="11.00">WallpaperManagerService.mLock</text>
</g>
<!-- __guard__&#45;&gt;__field__ -->
<g id="edge1" class="edge">
<title>__guard__&#45;&gt;__field__</title>
<path fill="none" stroke="#16a34a" stroke-width="1.6" d="M216.14,-68.15C257.52,-64.86 306.25,-60.98 350.61,-57.45"/>
<polygon fill="#16a34a" stroke="#16a34a" stroke-width="1.6" points="351.08,-60.22 358.84,-56.8 350.64,-54.64 351.08,-60.22"/>
<text text-anchor="middle" x="296" y="-66.8" font-family="Helvetica,sans-Serif" font-size="9.00" fill="#15803d"> guards 3/3</text>
</g>
<!-- m::com.android.server.wallpaper.WallpaperData.imageWallpaperPending:()Z -->
<g id="node3" class="node">
<title>m::com.android.server.wallpaper.WallpaperData.imageWallpaperPending:()Z</title>
<path fill="#fee2e2" stroke="#dc2626" d="M221,-36C221,-36 12,-36 12,-36 6,-36 0,-30 0,-24 0,-24 0,-12 0,-12 0,-6 6,0 12,0 12,0 221,0 221,0 227,0 233,-6 233,-12 233,-12 233,-24 233,-24 233,-30 227,-36 221,-36"/>
<text text-anchor="middle" x="116.5" y="-15.2" font-family="Helvetica,sans-Serif" font-size="11.00">WallpaperData.imageWallpaperPending</text>
</g>
<!-- m::com.android.server.wallpaper.WallpaperData.imageWallpaperPending:()Z&#45;&gt;__field__ -->
<g id="edge2" class="edge">
<title>m::com.android.server.wallpaper.WallpaperData.imageWallpaperPending:()Z&#45;&gt;__field__</title>
<path fill="none" stroke="#dc2626" d="M233.08,-27.2C270.46,-30.17 312.17,-33.49 350.61,-36.55"/>
<polygon fill="#dc2626" stroke="#dc2626" points="350.56,-39.35 358.76,-37.19 351,-33.77 350.56,-39.35"/>
<text text-anchor="middle" x="296" y="-37.8" font-family="Helvetica,sans-Serif" font-size="9.00" fill="#dc2626"> reads unguarded</text>
</g>
</g>
</svg>
