<?xml version="1.0" encoding="UTF-8" standalone="no"?>
<!DOCTYPE svg PUBLIC "-//W3C//DTD SVG 1.1//EN"
 "http://www.w3.org/Graphics/SVG/1.1/DTD/svg11.dtd">
<!-- Generated by graphviz version 2.43.0 (0)
 -->
<!-- Title: race Pages: 1 -->
<svg width="548pt" height="110pt"
 viewBox="0.00 0.00 548.00 110.00" xmlns="http://www.w3.org/2000/svg" xmlns:xlink="http://www.w3.org/1999/xlink">
<g id="graph0" class="graph" transform="scale(1 1) rotate(0) translate(4 106)">
<title>race</title>
<polygon fill="white" stroke="transparent" points="-4,4 -4,-106 544,-106 544,4 -4,4"/>
<!-- __field__ -->
<g id="node1" class="node">
<title>__field__</title>
<path fill="#fef9c3" stroke="#ca8a04" stroke-width="2" d="M528,-65C528,-65 337,-65 337,-65 331,-65 325,-59 325,-53 325,-53 325,-41 325,-41 325,-35 331,-29 337,-29 337,-29 528,-29 528,-29 534,-29 540,-35 540,-41 540,-41 540,-53 540,-53 540,-59 534,-65 528,-65"/>
<text text-anchor="middle" x="432.5" y="-44.2" font-family="Helvetica,sans-Serif" font-size="11.00">UriPermission.persistableModeFlags</text>
</g>
<!-- __guard__ -->
<g id="node2" class="node">
<title>__guard__</title>
<path fill="#dcfce7" stroke="#16a34a" stroke-width="2" d="M185,-102C185,-102 12,-102 12,-102 6,-102 0,-96 0,-90 0,-90 0,-78 0,-78 0,-72 6,-66 12,-66 12,-66 185,-66 185,-66 191,-66 197,-72 197,-78 197,-78 197,-90 197,-90 197,-96 191,-102 185,-102"/>
<text text-anchor="middle" x="98.5" y="-81.2" font-family="Helvetica,sans-Serif" font-size="11.00">UriGrantsManagerService.mLock</text>
</g>
<!-- __guard__&#45;&gt;__field__ -->
<g id="edge1" class="edge">
<title>__guard__&#45;&gt;__field__</title>
<path fill="none" stroke="#16a34a" stroke-width="1.6" d="M197.32,-73.1C234.73,-68.93 277.73,-64.14 316.59,-59.81"/>
<polygon fill="#16a34a" stroke="#16a34a" stroke-width="1.6" points="317.18,-62.56 324.82,-58.89 316.56,-56.99 317.18,-62.56"/>
<text text-anchor="middle" x="261" y="-71.8" font-family="Helvetica,sans-Serif" font-size="9.00" fill="#15803d"> guards 3/4</text>
</g>
<!-- m::com.android.server.uri.UriPermission.grantModes:(ILcom/android/server/uri/UriPermissionOwner;)Z -->
<g id="node3" class="node">
<title>m::com.android.server.uri.UriPermission.grantModes:(ILcom/android/server/uri/UriPermissionOwner;)Z</title>
<path fill="#fee2e2" stroke="#dc2626" d="M167,-36C167,-36 30,-36 30,-36 24,-36 18,-30 18,-24 18,-24 18,-12 18,-12 18,-6 24,0 30,0 30,0 167,0 167,0 173,0 179,-6 179,-12 179,-12 179,-24 179,-24 179,-30 173,-36 167,-36"/>
<text text-anchor="middle" x="98.5" y="-15.2" font-family="Helvetica,sans-Serif" font-size="11.00">UriPermission.grantModes</text>
</g>
<!-- m::com.android.server.uri.UriPermission.grantModes:(ILcom/android/server/uri/UriPermissionOwner;)Z&#45;&gt;__field__ -->
<g id="edge2" class="edge">
<title>m::com.android.server.uri.UriPermission.grantModes:(ILcom/android/server/uri/UriPermissionOwner;)Z&#45;&gt;__field__</title>
<path fill="none" stroke="#dc2626" d="M179.02,-24.95C220.19,-28.54 271.21,-33 316.58,-36.96"/>
<polygon fill="#dc2626" stroke="#dc2626" points="316.48,-39.76 324.69,-37.67 316.97,-34.18 316.48,-39.76"/>
<text text-anchor="middle" x="261" y="-37.8" font-family="Helvetica,sans-Serif" font-size="9.00" fill="#dc2626"> writes unguarded</text>
</g>
<!-- m::com.android.server.uri.UriPermission.grantModes:(ILcom/android/server/uri/UriPermissionOwner;)Z&#45;&gt;__field__ -->
<g id="edge3" class="edge">
<title>m::com.android.server.uri.UriPermission.grantModes:(ILcom/android/server/uri/UriPermissionOwner;)Z&#45;&gt;__field__</title>
<path fill="none" stroke="#dc2626" d="M179.03,-11.11C216.74,-9.2 262.33,-8.86 303,-14 323.78,-16.63 346.01,-21.55 366.04,-26.81"/>
<polygon fill="#dc2626" stroke="#dc2626" points="365.44,-29.54 373.89,-28.91 366.89,-24.14 365.44,-29.54"/>
<text text-anchor="middle" x="261" y="-16.8" font-family="Helvetica,sans-Serif" font-size="9.00" fill="#dc2626"> reads unguarded</text>
</g>
</g>
</svg>
