<?xml version="1.0" encoding="UTF-8" standalone="no"?>
<!DOCTYPE svg PUBLIC "-//W3C//DTD SVG 1.1//EN"
 "http://www.w3.org/Graphics/SVG/1.1/DTD/svg11.dtd">
<!-- Generated by graphviz version 2.43.0 (0)
 -->
<!-- Title: race Pages: 1 -->
<svg width="755pt" height="102pt"
 viewBox="0.00 0.00 755.00 102.00" xmlns="http://www.w3.org/2000/svg" xmlns:xlink="http://www.w3.org/1999/xlink">
<g id="graph0" class="graph" transform="scale(1 1) rotate(0) translate(4 98)">
<title>race</title>
<polygon fill="white" stroke="transparent" points="-4,4 -4,-98 751,-98 751,4 -4,4"/>
<!-- __field__ -->
<g id="node1" class="node">
<title>__field__</title>
<path fill="#fef9c3" stroke="#ca8a04" stroke-width="2" d="M735,-65C735,-65 422,-65 422,-65 416,-65 410,-59 410,-53 410,-53 410,-41 410,-41 410,-35 416,-29 422,-29 422,-29 735,-29 735,-29 741,-29 747,-35 747,-41 747,-41 747,-53 747,-53 747,-59 741,-65 735,-65"/>
<text text-anchor="middle" x="578.5" y="-44.2" font-family="Helvetica,sans-Serif" font-size="11.00">AccessibilityWindowManager.mTouchInteractionInProgress</text>
</g>
<!-- __guard__ -->
<g id="node2" class="node">
<title>__guard__</title>
<path fill="#dcfce7" stroke="#16a34a" stroke-width="2" d="M237,-94C237,-94 47,-94 47,-94 41,-94 35,-88 35,-82 35,-82 35,-70 35,-70 35,-64 41,-58 47,-58 47,-58 237,-58 237,-58 243,-58 249,-64 249,-70 249,-70 249,-82 249,-82 249,-88 243,-94 237,-94"/>
<text text-anchor="middle" x="142" y="-73.2" font-family="Helvetica,sans-Serif" font-size="11.00">AccessibilityWindowManager.mLock</text>
</g>
<!-- __guard__&#45;&gt;__field__ -->
<g id="edge1" class="edge">
<title>__guard__&#45;&gt;__field__</title>
<path fill="none" stroke="#16a34a" stroke-width="1.6" d="M249.01,-68.92C294.92,-65.86 349.89,-62.19 401.62,-58.74"/>
<polygon fill="#16a34a" stroke="#16a34a" stroke-width="1.6" points="402.1,-61.51 409.89,-58.19 401.72,-55.93 402.1,-61.51"/>
<text text-anchor="middle" x="347" y="-66.8" font-family="Helvetica,sans-Serif" font-size="9.00" fill="#15803d"> guards 2/2</text>
</g>
<!-- m::com.android.server.accessibility.AccessibilityWindowManager.getActiveWindowId:(I)I -->
<g id="node3" class="node">
<title>m::com.android.server.accessibility.AccessibilityWindowManager.getActiveWindowId:(I)I</title>
<path fill="#fee2e2" stroke="#dc2626" d="M272,-36C272,-36 12,-36 12,-36 6,-36 0,-30 0,-24 0,-24 0,-12 0,-12 0,-6 6,0 12,0 12,0 272,0 272,0 278,0 284,-6 284,-12 284,-12 284,-24 284,-24 284,-30 278,-36 272,-36"/>
<text text-anchor="middle" x="142" y="-15.2" font-family="Helvetica,sans-Serif" font-size="11.00">AccessibilityWindowManager.getActiveWindowId</text>
</g>
<!-- m::com.android.server.accessibility.AccessibilityWindowManager.getActiveWindowId:(I)I&#45;&gt;__field__ -->
<g id="edge2" class="edge">
<title>m::com.android.server.accessibility.AccessibilityWindowManager.getActiveWindowId:(I)I&#45;&gt;__field__</title>
<path fill="none" stroke="#dc2626" d="M284.07,-27.42C321.55,-29.92 362.49,-32.65 401.57,-35.26"/>
<polygon fill="#dc2626" stroke="#dc2626" points="401.72,-38.07 409.88,-35.81 402.09,-32.49 401.72,-38.07"/>
<text text-anchor="middle" x="347" y="-36.8" font-family="Helvetica,sans-Serif" font-size="9.00" fill="#dc2626"> reads unguarded</text>
</g>
</g>
</svg>
