<?xml version="1.0" encoding="UTF-8" standalone="no"?>
<!DOCTYPE svg PUBLIC "-//W3C//DTD SVG 1.1//EN"
 "http://www.w3.org/Graphics/SVG/1.1/DTD/svg11.dtd">
<!-- Generated by graphviz version 2.43.0 (0)
 -->
<!-- Title: race Pages: 1 -->
<svg width="572pt" height="110pt"
 viewBox="0.00 0.00 572.00 110.00" xmlns="http://www.w3.org/2000/svg" xmlns:xlink="http://www.w3.org/1999/xlink">
<g id="graph0" class="graph" transform="scale(1 1) rotate(0) translate(4 106)">
<title>race</title>
<polygon fill="white" stroke="transparent" points="-4,4 -4,-106 568,-106 568,4 -4,4"/>
<!-- __field__ -->
<g id="node1" class="node">
<title>__field__</title>
<path fill="#fef9c3" stroke="#ca8a04" stroke-width="2" d="M552,-65C552,-65 304,-65 304,-65 298,-65 292,-59 292,-53 292,-53 292,-41 292,-41 292,-35 298,-29 304,-29 304,-29 552,-29 552,-29 558,-29 564,-35 564,-41 564,-41 564,-53 564,-53 564,-59 558,-65 552,-65"/>
<text text-anchor="middle" x="428" y="-44.2" font-family="Helvetica,sans-Serif" font-size="11.00">FingerprintProvider.mHalInstanceNameCurrent</text>
</g>
<!-- __guard__ -->
<g id="node2" class="node">
<title>__guard__</title>
<path fill="#dcfce7" stroke="#16a34a" stroke-width="2" d="M143,-102C143,-102 23,-102 23,-102 17,-102 11,-96 11,-90 11,-90 11,-78 11,-78 11,-72 17,-66 23,-66 23,-66 143,-66 143,-66 149,-66 155,-72 155,-78 155,-78 155,-90 155,-90 155,-96 149,-102 143,-102"/>
<text text-anchor="middle" x="83" y="-81.2" font-family="Helvetica,sans-Serif" font-size="11.00">aidl.FingerprintProvider</text>
</g>
<!-- __guard__&#45;&gt;__field__ -->
<g id="edge1" class="edge">
<title>__guard__&#45;&gt;__field__</title>
<path fill="none" stroke="#16a34a" stroke-width="1.6" d="M155.07,-76.33C192.37,-72.31 239.46,-67.23 283.92,-62.43"/>
<polygon fill="#16a34a" stroke="#16a34a" stroke-width="1.6" points="284.24,-65.22 291.9,-61.57 283.64,-59.65 284.24,-65.22"/>
<text text-anchor="middle" x="229" y="-74.8" font-family="Helvetica,sans-Serif" font-size="9.00" fill="#15803d"> guards 3/3</text>
</g>
<!-- m::com.android.server.biometrics.sensors.fingerprint.aidl.FingerprintProvider.getVhal:()Landroid/hardware/biometrics/fingerprint/virtualhal/IVirtualHal; -->
<g id="node3" class="node">
<title>m::com.android.server.biometrics.sensors.fingerprint.aidl.FingerprintProvider.getVhal:()Landroid/hardware/biometrics/fingerprint/virtualhal/IVirtualHal;</title>
<path fill="#fee2e2" stroke="#dc2626" d="M154,-36C154,-36 12,-36 12,-36 6,-36 0,-30 0,-24 0,-24 0,-12 0,-12 0,-6 6,0 12,0 12,0 154,0 154,0 160,0 166,-6 166,-12 166,-12 166,-24 166,-24 166,-30 160,-36 154,-36"/>
<text text-anchor="middle" x="83" y="-15.2" font-family="Helvetica,sans-Serif" font-size="11.00">FingerprintProvider.getVhal</text>
</g>
<!-- m::com.android.server.biometrics.sensors.fingerprint.aidl.FingerprintProvider.getVhal:()Landroid/hardware/biometrics/fingerprint/virtualhal/IVirtualHal;&#45;&gt;__field__ -->
<g id="edge2" class="edge">
<title>m::com.android.server.biometrics.sensors.fingerprint.aidl.FingerprintProvider.getVhal:()Landroid/hardware/biometrics/fingerprint/virtualhal/IVirtualHal;&#45;&gt;__field__</title>
<path fill="none" stroke="#dc2626" d="M166.16,-24.95C201.46,-27.93 243.77,-31.51 283.94,-34.9"/>
<polygon fill="#dc2626" stroke="#dc2626" points="283.73,-37.7 291.94,-35.58 284.21,-32.12 283.73,-37.7"/>
<text text-anchor="middle" x="229" y="-35.8" font-family="Helvetica,sans-Serif" font-size="9.00" fill="#dc2626"> reads unguarded</text>
</g>
<!-- m::com.android.server.biometrics.sensors.fingerprint.aidl.FingerprintProvider.getVhal:()Landroid/hardware/biometrics/fingerprint/virtualhal/IVirtualHal;&#45;&gt;__field__ -->
<g id="edge3" class="edge">
<title>m::com.android.server.biometrics.sensors.fingerprint.aidl.FingerprintProvider.getVhal:()Landroid/hardware/biometrics/fingerprint/virtualhal/IVirtualHal;&#45;&gt;__field__</title>
<path fill="none" stroke="#dc2626" d="M166.01,-12.83C173.45,-12.49 180.86,-12.21 188,-12 224.43,-10.95 233.77,-8.01 270,-12 297.42,-15.02 327.06,-20.92 353.11,-27.03"/>
<polygon fill="#dc2626" stroke="#dc2626" points="352.65,-29.8 361.08,-28.93 353.95,-24.35 352.65,-29.8"/>
<text text-anchor="middle" x="229" y="-14.8" font-family="Helvetica,sans-Serif" font-size="9.00" fill="#dc2626"> reads unguarded</text>
</g>
</g>
</svg>
