<?xml version="1.0" encoding="UTF-8" standalone="no"?>
<!DOCTYPE svg PUBLIC "-//W3C//DTD SVG 1.1//EN"
 "http://www.w3.org/Graphics/SVG/1.1/DTD/svg11.dtd">
<!-- Generated by graphviz version 2.43.0 (0)
 -->
<!-- Title: race Pages: 1 -->
<svg width="652pt" height="218pt"
 viewBox="0.00 0.00 652.00 218.00" xmlns="http://www.w3.org/2000/svg" xmlns:xlink="http://www.w3.org/1999/xlink">
<g id="graph0" class="graph" transform="scale(1 1) rotate(0) translate(4 214)">
<title>race</title>
<polygon fill="white" stroke="transparent" points="-4,4 -4,-214 648,-214 648,4 -4,4"/>
<!-- __field__ -->
<g id="node1" class="node">
<title>__field__</title>
<path fill="#fef9c3" stroke="#ca8a04" stroke-width="2" d="M632,-123C632,-123 434,-123 434,-123 428,-123 422,-117 422,-111 422,-111 422,-99 422,-99 422,-93 428,-87 434,-87 434,-87 632,-87 632,-87 638,-87 644,-93 644,-99 644,-99 644,-111 644,-111 644,-117 638,-123 632,-123"/>
<text text-anchor="middle" x="533" y="-102.2" font-family="Helvetica,sans-Serif" font-size="11.00">UserBackupManagerService.mJournal</text>
</g>
<!-- __guard__ -->
<g id="node2" class="node">
<title>__guard__</title>
<path fill="#dcfce7" stroke="#16a34a" stroke-width="2" d="M257.5,-210C257.5,-210 36.5,-210 36.5,-210 30.5,-210 24.5,-204 24.5,-198 24.5,-198 24.5,-186 24.5,-186 24.5,-180 30.5,-174 36.5,-174 36.5,-174 257.5,-174 257.5,-174 263.5,-174 269.5,-180 269.5,-186 269.5,-186 269.5,-198 269.5,-198 269.5,-204 263.5,-210 257.5,-210"/>
<text text-anchor="middle" x="147" y="-189.2" font-family="Helvetica,sans-Serif" font-size="11.00">UserBackupManagerService.mQueueLock</text>
</g>
<!-- __guard__&#45;&gt;__field__ -->
<g id="edge1" class="edge">
<title>__guard__&#45;&gt;__field__</title>
<path fill="none" stroke="#16a34a" stroke-width="1.6" d="M241.98,-173.95C259.31,-170.45 277.22,-166.71 294,-163 347.39,-151.2 407.18,-136.62 453.47,-125.04"/>
<polygon fill="#16a34a" stroke="#16a34a" stroke-width="1.6" points="454.29,-127.72 461.37,-123.06 452.93,-122.29 454.29,-127.72"/>
<text text-anchor="middle" x="358" y="-159.8" font-family="Helvetica,sans-Serif" font-size="9.00" fill="#15803d"> guards 2/3</text>
</g>
<!-- m::com.android.server.backup.UserBackupManagerService.setJournal:(Lcom/android/server/backup/DataChangedJournal;)V -->
<g id="node3" class="node">
<title>m::com.android.server.backup.UserBackupManagerService.setJournal:(Lcom/android/server/backup/DataChangedJournal;)V</title>
<path fill="#fee2e2" stroke="#dc2626" d="M249.5,-152C249.5,-152 44.5,-152 44.5,-152 38.5,-152 32.5,-146 32.5,-140 32.5,-140 32.5,-128 32.5,-128 32.5,-122 38.5,-116 44.5,-116 44.5,-116 249.5,-116 249.5,-116 255.5,-116 261.5,-122 261.5,-128 261.5,-128 261.5,-140 261.5,-140 261.5,-146 255.5,-152 249.5,-152"/>
<text text-anchor="middle" x="147" y="-131.2" font-family="Helvetica,sans-Serif" font-size="11.00">UserBackupManagerService.setJournal</text>
</g>
<!-- m::com.android.server.backup.UserBackupManagerService.setJournal:(Lcom/android/server/backup/DataChangedJournal;)V&#45;&gt;__field__ -->
<g id="edge2" class="edge">
<title>m::com.android.server.backup.UserBackupManagerService.setJournal:(Lcom/android/server/backup/DataChangedJournal;)V&#45;&gt;__field__</title>
<path fill="none" stroke="#dc2626" d="M261.65,-125.42C309.63,-121.79 365.48,-117.58 413.92,-113.92"/>
<polygon fill="#dc2626" stroke="#dc2626" points="414.17,-116.71 421.94,-113.31 413.75,-111.12 414.17,-116.71"/>
<text text-anchor="middle" x="358" y="-123.8" font-family="Helvetica,sans-Serif" font-size="9.00" fill="#dc2626"> writes unguarded</text>
</g>
<!-- m::com.android.server.backup.UserBackupManagerService.getJournal:()Lcom/android/server/backup/DataChangedJournal; -->
<g id="node4" class="node">
<title>m::com.android.server.backup.UserBackupManagerService.getJournal:()Lcom/android/server/backup/DataChangedJournal;</title>
<path fill="#fee2e2" stroke="#dc2626" d="M250,-94C250,-94 44,-94 44,-94 38,-94 32,-88 32,-82 32,-82 32,-70 32,-70 32,-64 38,-58 44,-58 44,-58 250,-58 250,-58 256,-58 262,-64 262,-70 262,-70 262,-82 262,-82 262,-88 256,-94 250,-94"/>
<text text-anchor="middle" x="147" y="-73.2" font-family="Helvetica,sans-Serif" font-size="11.00">UserBackupManagerService.getJournal</text>
</g>
<!-- m::com.android.server.backup.UserBackupManagerService.getJournal:()Lcom/android/server/backup/DataChangedJournal;&#45;&gt;__field__ -->
<g id="edge3" class="edge">
<title>m::com.android.server.backup.UserBackupManagerService.getJournal:()Lcom/android/server/backup/DataChangedJournal;&#45;&gt;__field__</title>
<path fill="none" stroke="#dc2626" d="M262.17,-84.62C310.03,-88.24 365.64,-92.44 413.91,-96.08"/>
<polygon fill="#dc2626" stroke="#dc2626" points="413.71,-98.87 421.9,-96.68 414.13,-93.29 413.71,-98.87"/>
<text text-anchor="middle" x="358" y="-96.8" font-family="Helvetica,sans-Serif" font-size="9.00" fill="#dc2626"> reads unguarded</text>
</g>
<!-- m::com.android.server.backup.UserBackupManagerService.parseLeftoverJournals:()V -->
<g id="node5" class="node">
<title>m::com.android.server.backup.UserBackupManagerService.parseLeftoverJournals:()V</title>
<path fill="#fee2e2" stroke="#dc2626" d="M282,-36C282,-36 12,-36 12,-36 6,-36 0,-30 0,-24 0,-24 0,-12 0,-12 0,-6 6,0 12,0 12,0 282,0 282,0 288,0 294,-6 294,-12 294,-12 294,-24 294,-24 294,-30 288,-36 282,-36"/>
<text text-anchor="middle" x="147" y="-15.2" font-family="Helvetica,sans-Serif" font-size="11.00">UserBackupManagerService.parseLeftoverJournals</text>
</g>
<!-- m::com.android.server.backup.UserBackupManagerService.parseLeftoverJournals:()V&#45;&gt;__field__ -->
<g id="edge4" class="edge">
<title>m::com.android.server.backup.UserBackupManagerService.parseLeftoverJournals:()V&#45;&gt;__field__</title>
<path fill="none" stroke="#dc2626" d="M241.98,-36.05C259.31,-39.55 277.22,-43.29 294,-47 347.39,-58.8 407.18,-73.38 453.47,-84.96"/>
<polygon fill="#dc2626" stroke="#dc2626" points="452.93,-87.71 461.37,-86.94 454.29,-82.28 452.93,-87.71"/>
<text text-anchor="middle" x="358" y="-73.8" font-family="Helvetica,sans-Serif" font-size="9.00" fill="#dc2626"> reads unguarded</text>
</g>
</g>
</svg>
