<?xml version="1.0" encoding="UTF-8" standalone="no"?>
<!DOCTYPE svg PUBLIC "-//W3C//DTD SVG 1.1//EN"
 "http://www.w3.org/Graphics/SVG/1.1/DTD/svg11.dtd">
<!-- Generated by graphviz version 2.43.0 (0)
 -->
<!-- Title: race Pages: 1 -->
<svg width="515pt" height="102pt"
 viewBox="0.00 0.00 515.00 102.00" xmlns="http://www.w3.org/2000/svg" xmlns:xlink="http://www.w3.org/1999/xlink">
<g id="graph0" class="graph" transform="scale(1 1) rotate(0) translate(4 98)">
<title>race</title>
<polygon fill="white" stroke="transparent" points="-4,4 -4,-98 511,-98 511,4 -4,4"/>
<!-- __field__ -->
<g id="node1" class="node">
<title>__field__</title>
<path fill="#fef9c3" stroke="#ca8a04" stroke-width="2" d="M495,-65C495,-65 308,-65 308,-65 302,-65 296,-59 296,-53 296,-53 296,-41 296,-41 296,-35 302,-29 308,-29 308,-29 495,-29 495,-29 501,-29 507,-35 507,-41 507,-41 507,-53 507,-53 507,-59 501,-65 495,-65"/>
<text text-anchor="middle" x="401.5" y="-44.2" font-family="Helvetica,sans-Serif" font-size="11.00">PinnedSliceState.mSupportedSpecs</text>
</g>
<!-- __guard__ -->
<g id="node2" class="node">
<title>__guard__</title>
<path fill="#dcfce7" stroke="#16a34a" stroke-width="2" d="M158,-94C158,-94 12,-94 12,-94 6,-94 0,-88 0,-82 0,-82 0,-70 0,-70 0,-64 6,-58 12,-58 12,-58 158,-58 158,-58 164,-58 170,-64 170,-70 170,-70 170,-82 170,-82 170,-88 164,-94 158,-94"/>
<text text-anchor="middle" x="85" y="-73.2" font-family="Helvetica,sans-Serif" font-size="11.00">SliceManagerService.mLock</text>
</g>
<!-- __guard__&#45;&gt;__field__ -->
<g id="edge1" class="edge">
<title>__guard__&#45;&gt;__field__</title>
<path fill="none" stroke="#16a34a" stroke-width="1.6" d="M170.28,-68.23C206.29,-64.91 248.86,-60.98 287.54,-57.42"/>
<polygon fill="#16a34a" stroke="#16a34a" stroke-width="1.6" points="288.03,-60.18 295.74,-56.66 287.51,-54.61 288.03,-60.18"/>
<text text-anchor="middle" x="233" y="-67.8" font-family="Helvetica,sans-Serif" font-size="9.00" fill="#15803d"> guards 2/2</text>
</g>
<!-- m::com.android.server.slice.PinnedSliceState.getSpecs:()[Landroid/app/slice/SliceSpec; -->
<g id="node3" class="node">
<title>m::com.android.server.slice.PinnedSliceState.getSpecs:()[Landroid/app/slice/SliceSpec;</title>
<path fill="#fee2e2" stroke="#dc2626" d="M154,-36C154,-36 16,-36 16,-36 10,-36 4,-30 4,-24 4,-24 4,-12 4,-12 4,-6 10,0 16,0 16,0 154,0 154,0 160,0 166,-6 166,-12 166,-12 166,-24 166,-24 166,-30 160,-36 154,-36"/>
<text text-anchor="middle" x="85" y="-15.2" font-family="Helvetica,sans-Serif" font-size="11.00">PinnedSliceState.getSpecs</text>
</g>
<!-- m::com.android.server.slice.PinnedSliceState.getSpecs:()[Landroid/app/slice/SliceSpec;&#45;&gt;__field__ -->
<g id="edge2" class="edge">
<title>m::com.android.server.slice.PinnedSliceState.getSpecs:()[Landroid/app/slice/SliceSpec;&#45;&gt;__field__</title>
<path fill="none" stroke="#dc2626" d="M166.18,-25.39C203.11,-28.8 247.59,-32.9 287.82,-36.61"/>
<polygon fill="#dc2626" stroke="#dc2626" points="287.59,-39.4 295.81,-37.35 288.1,-33.82 287.59,-39.4"/>
<text text-anchor="middle" x="233" y="-37.8" font-family="Helvetica,sans-Serif" font-size="9.00" fill="#dc2626"> reads unguarded</text>
</g>
</g>
</svg>
