<?xml version="1.0" encoding="UTF-8" standalone="no"?>
<!DOCTYPE svg PUBLIC "-//W3C//DTD SVG 1.1//EN"
 "http://www.w3.org/Graphics/SVG/1.1/DTD/svg11.dtd">
<!-- Generated by graphviz version 2.43.0 (0)
 -->
<!-- Title: race Pages: 1 -->
<svg width="597pt" height="102pt"
 viewBox="0.00 0.00 597.00 102.00" xmlns="http://www.w3.org/2000/svg" xmlns:xlink="http://www.w3.org/1999/xlink">
<g id="graph0" class="graph" transform="scale(1 1) rotate(0) translate(4 98)">
<title>race</title>
<polygon fill="white" stroke="transparent" points="-4,4 -4,-98 593,-98 593,4 -4,4"/>
<!-- __field__ -->
<g id="node1" class="node">
<title>__field__</title>
<path fill="#fef9c3" stroke="#ca8a04" stroke-width="2" d="M577,-65C577,-65 377,-65 377,-65 371,-65 365,-59 365,-53 365,-53 365,-41 365,-41 365,-35 371,-29 377,-29 377,-29 577,-29 577,-29 583,-29 589,-35 589,-41 589,-41 589,-53 589,-53 589,-59 583,-65 577,-65"/>
<text text-anchor="middle" x="477" y="-44.2" font-family="Helvetica,sans-Serif" font-size="11.00">PackageProperty.mProviderProperties</text>
</g>
<!-- __guard__ -->
<g id="node2" class="node">
<title>__guard__</title>
<path fill="#dcfce7" stroke="#16a34a" stroke-width="2" d="M222.5,-94C222.5,-94 16.5,-94 16.5,-94 10.5,-94 4.5,-88 4.5,-82 4.5,-82 4.5,-70 4.5,-70 4.5,-64 10.5,-58 16.5,-58 16.5,-58 222.5,-58 222.5,-58 228.5,-58 234.5,-64 234.5,-70 234.5,-70 234.5,-82 234.5,-82 234.5,-88 228.5,-94 222.5,-94"/>
<text text-anchor="middle" x="119.5" y="-73.2" font-family="Helvetica,sans-Serif" font-size="11.00">PackageManagerServiceInjector.mLock</text>
</g>
<!-- __guard__&#45;&gt;__field__ -->
<g id="edge1" class="edge">
<title>__guard__&#45;&gt;__field__</title>
<path fill="none" stroke="#16a34a" stroke-width="1.6" d="M234.94,-66.66C273.79,-63.5 317.27,-59.95 356.51,-56.75"/>
<polygon fill="#16a34a" stroke="#16a34a" stroke-width="1.6" points="357.06,-59.51 364.81,-56.07 356.61,-53.93 357.06,-59.51"/>
<text text-anchor="middle" x="302" y="-66.8" font-family="Helvetica,sans-Serif" font-size="9.00" fill="#15803d"> guards 2/2</text>
</g>
<!-- m::com.android.server.pm.PackageProperty.getComponentProperty:(Ljava/lang/String;Ljava/lang/String;Ljava/lang/String;)Landroid/content/pm/PackageManager$Property; -->
<g id="node3" class="node">
<title>m::com.android.server.pm.PackageProperty.getComponentProperty:(Ljava/lang/String;Ljava/lang/String;Ljava/lang/String;)Landroid/content/pm/PackageManager$Property;</title>
<path fill="#fee2e2" stroke="#dc2626" d="M227,-36C227,-36 12,-36 12,-36 6,-36 0,-30 0,-24 0,-24 0,-12 0,-12 0,-6 6,0 12,0 12,0 227,0 227,0 233,0 239,-6 239,-12 239,-12 239,-24 239,-24 239,-30 233,-36 227,-36"/>
<text text-anchor="middle" x="119.5" y="-15.2" font-family="Helvetica,sans-Serif" font-size="11.00">PackageProperty.getComponentProperty</text>
</g>
<!-- m::com.android.server.pm.PackageProperty.getComponentProperty:(Ljava/lang/String;Ljava/lang/String;Ljava/lang/String;)Landroid/content/pm/PackageManager$Property;&#45;&gt;__field__ -->
<g id="edge2" class="edge">
<title>m::com.android.server.pm.PackageProperty.getComponentProperty:(Ljava/lang/String;Ljava/lang/String;Ljava/lang/String;)Landroid/content/pm/PackageManager$Property;&#45;&gt;__field__</title>
<path fill="none" stroke="#dc2626" d="M239.37,-27.7C277.15,-30.78 318.94,-34.19 356.75,-37.27"/>
<polygon fill="#dc2626" stroke="#dc2626" points="356.55,-40.07 364.75,-37.93 357.01,-34.48 356.55,-40.07"/>
<text text-anchor="middle" x="302" y="-37.8" font-family="Helvetica,sans-Serif" font-size="9.00" fill="#dc2626"> reads unguarded</text>
</g>
</g>
</svg>
