<?xml version="1.0" encoding="UTF-8" standalone="no"?>
<!DOCTYPE svg PUBLIC "-//W3C//DTD SVG 1.1//EN"
 "http://www.w3.org/Graphics/SVG/1.1/DTD/svg11.dtd">
<!-- Generated by graphviz version 2.43.0 (0)
 -->
<!-- Title: race Pages: 1 -->
<svg width="820pt" height="218pt"
 viewBox="0.00 0.00 820.00 218.00" xmlns="http://www.w3.org/2000/svg" xmlns:xlink="http://www.w3.org/1999/xlink">
<g id="graph0" class="graph" transform="scale(1 1) rotate(0) translate(4 214)">
<title>race</title>
<polygon fill="white" stroke="transparent" points="-4,4 -4,-214 816,-214 816,4 -4,4"/>
<!-- __field__ -->
<g id="node1" class="node">
<title>__field__</title>
<path fill="#fef9c3" stroke="#ca8a04" stroke-width="2" d="M800,-123C800,-123 582,-123 582,-123 576,-123 570,-117 570,-111 570,-111 570,-99 570,-99 570,-93 576,-87 582,-87 582,-87 800,-87 800,-87 806,-87 812,-93 812,-99 812,-99 812,-111 812,-111 812,-117 806,-123 800,-123"/>
<text text-anchor="middle" x="691" y="-102.2" font-family="Helvetica,sans-Serif" font-size="11.00">AccessibilityWindowManager.mHasProxy</text>
</g>
<!-- __guard__ -->
<g id="node2" class="node">
<title>__guard__</title>
<path fill="#dcfce7" stroke="#16a34a" stroke-width="2" d="M317,-210C317,-210 127,-210 127,-210 121,-210 115,-204 115,-198 115,-198 115,-186 115,-186 115,-180 121,-174 127,-174 127,-174 317,-174 317,-174 323,-174 329,-180 329,-186 329,-186 329,-198 329,-198 329,-204 323,-210 317,-210"/>
<text text-anchor="middle" x="222" y="-189.2" font-family="Helvetica,sans-Serif" font-size="11.00">AccessibilityWindowManager.mLock</text>
</g>
<!-- __guard__&#45;&gt;__field__ -->
<g id="edge1" class="edge">
<title>__guard__&#45;&gt;__field__</title>
<path fill="none" stroke="#16a34a" stroke-width="1.6" d="M329.01,-180.3C365.57,-175.68 406.7,-169.83 444,-163 501.34,-152.51 565.42,-137.28 613.8,-125.07"/>
<polygon fill="#16a34a" stroke="#16a34a" stroke-width="1.6" points="614.66,-127.74 621.73,-123.05 613.29,-122.31 614.66,-127.74"/>
<text text-anchor="middle" x="507" y="-159.8" font-family="Helvetica,sans-Serif" font-size="9.00" fill="#15803d"> guards 2/2</text>
</g>
<!-- m::com.android.server.accessibility.AccessibilityWindowManager.getFocusedWindowId:(II)I -->
<g id="node3" class="node">
<title>m::com.android.server.accessibility.AccessibilityWindowManager.getFocusedWindowId:(II)I</title>
<path fill="#fee2e2" stroke="#dc2626" d="M357,-152C357,-152 87,-152 87,-152 81,-152 75,-146 75,-140 75,-140 75,-128 75,-128 75,-122 81,-116 87,-116 87,-116 357,-116 357,-116 363,-116 369,-122 369,-128 369,-128 369,-140 369,-140 369,-146 363,-152 357,-152"/>
<text text-anchor="middle" x="222" y="-131.2" font-family="Helvetica,sans-Serif" font-size="11.00">AccessibilityWindowManager.getFocusedWindowId</text>
</g>
<!-- m::com.android.server.accessibility.AccessibilityWindowManager.getFocusedWindowId:(II)I&#45;&gt;__field__ -->
<g id="edge2" class="edge">
<title>m::com.android.server.accessibility.AccessibilityWindowManager.getFocusedWindowId:(II)I&#45;&gt;__field__</title>
<path fill="none" stroke="#dc2626" d="M369.16,-124.92C430.75,-121.1 501.8,-116.69 561.37,-112.99"/>
<polygon fill="#dc2626" stroke="#dc2626" points="561.88,-115.76 569.69,-112.47 561.53,-110.17 561.88,-115.76"/>
<text text-anchor="middle" x="507" y="-120.8" font-family="Helvetica,sans-Serif" font-size="9.00" fill="#dc2626"> reads unguarded</text>
</g>
<!-- m::com.android.server.accessibility.AccessibilityWindowManager.moveNonProxyTopFocusedDisplayToTopIfNeeded:()V -->
<g id="node4" class="node">
<title>m::com.android.server.accessibility.AccessibilityWindowManager.moveNonProxyTopFocusedDisplayToTopIfNeeded:()V</title>
<path fill="#fee2e2" stroke="#dc2626" d="M432,-94C432,-94 12,-94 12,-94 6,-94 0,-88 0,-82 0,-82 0,-70 0,-70 0,-64 6,-58 12,-58 12,-58 432,-58 432,-58 438,-58 444,-64 444,-70 444,-70 444,-82 444,-82 444,-88 438,-94 432,-94"/>
<text text-anchor="middle" x="222" y="-73.2" font-family="Helvetica,sans-Serif" font-size="11.00">AccessibilityWindowManager.moveNonProxyTopFocusedDisplayToTopIfNeeded</text>
</g>
<!-- m::com.android.server.accessibility.AccessibilityWindowManager.moveNonProxyTopFocusedDisplayToTopIfNeeded:()V&#45;&gt;__field__ -->
<g id="edge3" class="edge">
<title>m::com.android.server.accessibility.AccessibilityWindowManager.moveNonProxyTopFocusedDisplayToTopIfNeeded:()V&#45;&gt;__field__</title>
<path fill="none" stroke="#dc2626" d="M444.19,-89.74C484.41,-92.23 525.12,-94.76 561.52,-97.02"/>
<polygon fill="#dc2626" stroke="#dc2626" points="561.55,-99.83 569.71,-97.53 561.9,-94.24 561.55,-99.83"/>
<text text-anchor="middle" x="507" y="-97.8" font-family="Helvetica,sans-Serif" font-size="9.00" fill="#dc2626"> reads unguarded</text>
</g>
<!-- m::com.android.server.accessibility.AccessibilityWindowManager.windowIdBelongsToDisplayType:(II)Z -->
<g id="node5" class="node">
<title>m::com.android.server.accessibility.AccessibilityWindowManager.windowIdBelongsToDisplayType:(II)Z</title>
<path fill="#fee2e2" stroke="#dc2626" d="M385,-36C385,-36 59,-36 59,-36 53,-36 47,-30 47,-24 47,-24 47,-12 47,-12 47,-6 53,0 59,0 59,0 385,0 385,0 391,0 397,-6 397,-12 397,-12 397,-24 397,-24 397,-30 391,-36 385,-36"/>
<text text-anchor="middle" x="222" y="-15.2" font-family="Helvetica,sans-Serif" font-size="11.00">AccessibilityWindowManager.windowIdBelongsToDisplayType</text>
</g>
<!-- m::com.android.server.accessibility.AccessibilityWindowManager.windowIdBelongsToDisplayType:(II)Z&#45;&gt;__field__ -->
<g id="edge4" class="edge">
<title>m::com.android.server.accessibility.AccessibilityWindowManager.windowIdBelongsToDisplayType:(II)Z&#45;&gt;__field__</title>
<path fill="none" stroke="#dc2626" d="M375.79,-36C398.71,-39.29 422.02,-42.98 444,-47 501.34,-57.49 565.42,-72.72 613.8,-84.93"/>
<polygon fill="#dc2626" stroke="#dc2626" points="613.29,-87.69 621.73,-86.95 614.66,-82.26 613.29,-87.69"/>
<text text-anchor="middle" x="507" y="-70.8" font-family="Helvetica,sans-Serif" font-size="9.00" fill="#dc2626"> reads unguarded</text>
</g>
</g>
</svg>
