<?xml version="1.0" encoding="UTF-8" standalone="no"?>
<!DOCTYPE svg PUBLIC "-//W3C//DTD SVG 1.1//EN"
 "http://www.w3.org/Graphics/SVG/1.1/DTD/svg11.dtd">
<!-- Generated by graphviz version 2.43.0 (0)
 -->
<!-- Title: race Pages: 1 -->
<svg width="781pt" height="102pt"
 viewBox="0.00 0.00 781.00 102.00" xmlns="http://www.w3.org/2000/svg" xmlns:xlink="http://www.w3.org/1999/xlink">
<g id="graph0" class="graph" transform="scale(1 1) rotate(0) translate(4 98)">
<title>race</title>
<polygon fill="white" stroke="transparent" points="-4,4 -4,-98 777,-98 777,4 -4,4"/>
<!-- __field__ -->
<g id="node1" class="node">
<title>__field__</title>
<path fill="#fef9c3" stroke="#ca8a04" stroke-width="2" d="M761,-65C761,-65 452,-65 452,-65 446,-65 440,-59 440,-53 440,-53 440,-41 440,-41 440,-35 446,-29 452,-29 452,-29 761,-29 761,-29 767,-29 773,-35 773,-41 773,-41 773,-53 773,-53 773,-59 767,-65 761,-65"/>
<text text-anchor="middle" x="606.5" y="-44.2" font-family="Helvetica,sans-Serif" font-size="11.00">HintManagerService$AppHintSession.mShouldForcePause</text>
</g>
<!-- __guard__ -->
<g id="node2" class="node">
<title>__guard__</title>
<path fill="#dcfce7" stroke="#16a34a" stroke-width="2" d="M266.5,-94C266.5,-94 45.5,-94 45.5,-94 39.5,-94 33.5,-88 33.5,-82 33.5,-82 33.5,-70 33.5,-70 33.5,-64 39.5,-58 45.5,-58 45.5,-58 266.5,-58 266.5,-58 272.5,-58 278.5,-64 278.5,-70 278.5,-70 278.5,-82 278.5,-82 278.5,-88 272.5,-94 266.5,-94"/>
<text text-anchor="middle" x="156" y="-73.2" font-family="Helvetica,sans-Serif" font-size="11.00">hint.HintManagerService$AppHintSession</text>
</g>
<!-- __guard__&#45;&gt;__field__ -->
<g id="edge1" class="edge">
<title>__guard__&#45;&gt;__field__</title>
<path fill="none" stroke="#16a34a" stroke-width="1.6" d="M278.67,-68.13C325.7,-65.09 380.4,-61.55 431.45,-58.25"/>
<polygon fill="#16a34a" stroke="#16a34a" stroke-width="1.6" points="431.81,-61.04 439.61,-57.73 431.44,-55.45 431.81,-61.04"/>
<text text-anchor="middle" x="376" y="-66.8" font-family="Helvetica,sans-Serif" font-size="9.00" fill="#15803d"> guards 2/3</text>
</g>
<!-- m::com.android.server.power.hint.HintManagerService$CleanUpHandler.cleanUpSession:(Lcom/android/server/power/hint/HintManagerService$AppHintSession;Landroid/util/SparseIntArray;[I)I -->
<g id="node3" class="node">
<title>m::com.android.server.power.hint.HintManagerService$CleanUpHandler.cleanUpSession:(Lcom/android/server/power/hint/HintManagerService$AppHintSession;Landroid/util/SparseIntArray;[I)I</title>
<path fill="#fee2e2" stroke="#dc2626" d="M300,-36C300,-36 12,-36 12,-36 6,-36 0,-30 0,-24 0,-24 0,-12 0,-12 0,-6 6,0 12,0 12,0 300,0 300,0 306,0 312,-6 312,-12 312,-12 312,-24 312,-24 312,-30 306,-36 300,-36"/>
<text text-anchor="middle" x="156" y="-15.2" font-family="Helvetica,sans-Serif" font-size="11.00">HintManagerService$CleanUpHandler.cleanUpSession</text>
</g>
<!-- m::com.android.server.power.hint.HintManagerService$CleanUpHandler.cleanUpSession:(Lcom/android/server/power/hint/HintManagerService$AppHintSession;Landroid/util/SparseIntArray;[I)I&#45;&gt;__field__ -->
<g id="edge2" class="edge">
<title>m::com.android.server.power.hint.HintManagerService$CleanUpHandler.cleanUpSession:(Lcom/android/server/power/hint/HintManagerService$AppHintSession;Landroid/util/SparseIntArray;[I)I&#45;&gt;__field__</title>
<path fill="none" stroke="#dc2626" d="M312.29,-28.04C350.69,-30.52 392.07,-33.2 431.31,-35.74"/>
<polygon fill="#dc2626" stroke="#dc2626" points="431.48,-38.55 439.64,-36.28 431.84,-32.97 431.48,-38.55"/>
<text text-anchor="middle" x="376" y="-36.8" font-family="Helvetica,sans-Serif" font-size="9.00" fill="#dc2626"> writes unguarded</text>
</g>
</g>
</svg>
