<?xml version="1.0" encoding="UTF-8" standalone="no"?>
<!DOCTYPE svg PUBLIC "-//W3C//DTD SVG 1.1//EN"
 "http://www.w3.org/Graphics/SVG/1.1/DTD/svg11.dtd">
<!-- Generated by graphviz version 2.43.0 (0)
 -->
<!-- Title: race Pages: 1 -->
<svg width="520pt" height="160pt"
 viewBox="0.00 0.00 520.00 160.00" xmlns="http://www.w3.org/2000/svg" xmlns:xlink="http://www.w3.org/1999/xlink">
<g id="graph0" class="graph" transform="scale(1 1) rotate(0) translate(4 156)">
<title>race</title>
<polygon fill="white" stroke="transparent" points="-4,4 -4,-156 516,-156 516,4 -4,4"/>
<!-- __field__ -->
<g id="node1" class="node">
<title>__field__</title>
<path fill="#fef9c3" stroke="#ca8a04" stroke-width="2" d="M500,-94C500,-94 337,-94 337,-94 331,-94 325,-88 325,-82 325,-82 325,-70 325,-70 325,-64 331,-58 337,-58 337,-58 500,-58 500,-58 506,-58 512,-64 512,-70 512,-70 512,-82 512,-82 512,-88 506,-94 500,-94"/>
<text text-anchor="middle" x="418.5" y="-73.2" font-family="Helvetica,sans-Serif" font-size="11.00">UriPermission.globalModeFlags</text>
</g>
<!-- __guard__ -->
<g id="node2" class="node">
<title>__guard__</title>
<path fill="#dcfce7" stroke="#16a34a" stroke-width="2" d="M185,-152C185,-152 12,-152 12,-152 6,-152 0,-146 0,-140 0,-140 0,-128 0,-128 0,-122 6,-116 12,-116 12,-116 185,-116 185,-116 191,-116 197,-122 197,-128 197,-128 197,-140 197,-140 197,-146 191,-152 185,-152"/>
<text text-anchor="middle" x="98.5" y="-131.2" font-family="Helvetica,sans-Serif" font-size="11.00">UriGrantsManagerService.mLock</text>
</g>
<!-- __guard__&#45;&gt;__field__ -->
<g id="edge1" class="edge">
<title>__guard__&#45;&gt;__field__</title>
<path fill="none" stroke="#16a34a" stroke-width="1.6" d="M197.07,-116.2C235,-109.29 278.43,-101.36 316.66,-94.39"/>
<polygon fill="#16a34a" stroke="#16a34a" stroke-width="1.6" points="317.37,-97.11 324.74,-92.92 316.37,-91.6 317.37,-97.11"/>
<text text-anchor="middle" x="261" y="-113.8" font-family="Helvetica,sans-Serif" font-size="9.00" fill="#15803d"> guards 2/3</text>
</g>
<!-- m::com.android.server.uri.UriPermission.grantModes:(ILcom/android/server/uri/UriPermissionOwner;)Z -->
<g id="node3" class="node">
<title>m::com.android.server.uri.UriPermission.grantModes:(ILcom/android/server/uri/UriPermissionOwner;)Z</title>
<path fill="#fee2e2" stroke="#dc2626" d="M167,-94C167,-94 30,-94 30,-94 24,-94 18,-88 18,-82 18,-82 18,-70 18,-70 18,-64 24,-58 30,-58 30,-58 167,-58 167,-58 173,-58 179,-64 179,-70 179,-70 179,-82 179,-82 179,-88 173,-94 167,-94"/>
<text text-anchor="middle" x="98.5" y="-73.2" font-family="Helvetica,sans-Serif" font-size="11.00">UriPermission.grantModes</text>
</g>
<!-- m::com.android.server.uri.UriPermission.grantModes:(ILcom/android/server/uri/UriPermissionOwner;)Z&#45;&gt;__field__ -->
<g id="edge2" class="edge">
<title>m::com.android.server.uri.UriPermission.grantModes:(ILcom/android/server/uri/UriPermissionOwner;)Z&#45;&gt;__field__</title>
<path fill="none" stroke="#dc2626" d="M179.33,-76C220.99,-76 272.38,-76 316.74,-76"/>
<polygon fill="#dc2626" stroke="#dc2626" points="316.94,-78.8 324.94,-76 316.94,-73.2 316.94,-78.8"/>
<text text-anchor="middle" x="261" y="-78.8" font-family="Helvetica,sans-Serif" font-size="9.00" fill="#dc2626"> writes unguarded</text>
</g>
<!-- m::com.android.server.uri.UriPermission.grantModes:(ILcom/android/server/uri/UriPermissionOwner;)Z&#45;&gt;__field__ -->
<g id="edge3" class="edge">
<title>m::com.android.server.uri.UriPermission.grantModes:(ILcom/android/server/uri/UriPermissionOwner;)Z&#45;&gt;__field__</title>
<path fill="none" stroke="#dc2626" d="M179.08,-64.61C192.38,-63.11 206.06,-61.81 219,-61 256.26,-58.67 265.75,-58.57 303,-61 307.44,-61.29 311.97,-61.64 316.54,-62.04"/>
<polygon fill="#dc2626" stroke="#dc2626" points="316.58,-64.86 324.8,-62.82 317.1,-59.28 316.58,-64.86"/>
<text text-anchor="middle" x="261" y="-63.8" font-family="Helvetica,sans-Serif" font-size="9.00" fill="#dc2626"> reads unguarded</text>
</g>
<!-- m::com.android.server.uri.UriPermission.updateModeFlags:()V -->
<g id="node4" class="node">
<title>m::com.android.server.uri.UriPermission.updateModeFlags:()V</title>
<path fill="#fee2e2" stroke="#dc2626" d="M182.5,-36C182.5,-36 14.5,-36 14.5,-36 8.5,-36 2.5,-30 2.5,-24 2.5,-24 2.5,-12 2.5,-12 2.5,-6 8.5,0 14.5,0 14.5,0 182.5,0 182.5,0 188.5,0 194.5,-6 194.5,-12 194.5,-12 194.5,-24 194.5,-24 194.5,-30 188.5,-36 182.5,-36"/>
<text text-anchor="middle" x="98.5" y="-15.2" font-family="Helvetica,sans-Serif" font-size="11.00">UriPermission.updateModeFlags</text>
</g>
<!-- m::com.android.server.uri.UriPermission.updateModeFlags:()V&#45;&gt;__field__ -->
<g id="edge4" class="edge">
<title>m::com.android.server.uri.UriPermission.updateModeFlags:()V&#45;&gt;__field__</title>
<path fill="none" stroke="#dc2626" d="M194.7,-27.26C229.02,-31.36 267.92,-36.9 303,-44 318.76,-47.19 335.54,-51.41 351.25,-55.72"/>
<polygon fill="#dc2626" stroke="#dc2626" points="350.9,-58.53 359.35,-57.98 352.4,-53.14 350.9,-58.53"/>
<text text-anchor="middle" x="261" y="-46.8" font-family="Helvetica,sans-Serif" font-size="9.00" fill="#dc2626"> reads unguarded</text>
</g>
</g>
</svg>
