<?xml version="1.0" encoding="UTF-8" standalone="no"?>
<!DOCTYPE svg PUBLIC "-//W3C//DTD SVG 1.1//EN"
 "http://www.w3.org/Graphics/SVG/1.1/DTD/svg11.dtd">
<!-- Generated by graphviz version 2.43.0 (0)
 -->
<!-- Title: race Pages: 1 -->
<svg width="864pt" height="110pt"
 viewBox="0.00 0.00 864.00 110.00" xmlns="http://www.w3.org/2000/svg" xmlns:xlink="http://www.w3.org/1999/xlink">
<g id="graph0" class="graph" transform="scale(1 1) rotate(0) translate(4 106)">
<title>race</title>
<polygon fill="white" stroke="transparent" points="-4,4 -4,-106 860,-106 860,4 -4,4"/>
<!-- __field__ -->
<g id="node1" class="node">
<title>__field__</title>
<path fill="#fef9c3" stroke="#ca8a04" stroke-width="2" d="M844,-65C844,-65 500,-65 500,-65 494,-65 488,-59 488,-53 488,-53 488,-41 488,-41 488,-35 494,-29 500,-29 500,-29 844,-29 844,-29 850,-29 856,-35 856,-41 856,-41 856,-53 856,-53 856,-59 850,-65 844,-65"/>
<text text-anchor="middle" x="672" y="-44.2" font-family="Helvetica,sans-Serif" font-size="11.00">BatteryHistoryStepDetailsProvider.mCurStepCpuSystemTimeMs</text>
</g>
<!-- __guard__ -->
<g id="node2" class="node">
<title>__guard__</title>
<path fill="#dcfce7" stroke="#16a34a" stroke-width="2" d="M239.5,-102C239.5,-102 122.5,-102 122.5,-102 116.5,-102 110.5,-96 110.5,-90 110.5,-90 110.5,-78 110.5,-78 110.5,-72 116.5,-66 122.5,-66 122.5,-66 239.5,-66 239.5,-66 245.5,-66 251.5,-72 251.5,-78 251.5,-78 251.5,-90 251.5,-90 251.5,-96 245.5,-102 239.5,-102"/>
<text text-anchor="middle" x="181" y="-81.2" font-family="Helvetica,sans-Serif" font-size="11.00">stats.BatteryStatsImpl</text>
</g>
<!-- __guard__&#45;&gt;__field__ -->
<g id="edge1" class="edge">
<title>__guard__&#45;&gt;__field__</title>
<path fill="none" stroke="#16a34a" stroke-width="1.6" d="M251.54,-78.74C310.94,-74.24 399.27,-67.56 479.57,-61.48"/>
<polygon fill="#16a34a" stroke="#16a34a" stroke-width="1.6" points="480.05,-64.26 487.81,-60.86 479.62,-58.67 480.05,-64.26"/>
<text text-anchor="middle" x="425" y="-69.8" font-family="Helvetica,sans-Serif" font-size="9.00" fill="#15803d"> guards 2/2</text>
</g>
<!-- m::com.android.server.power.stats.BatteryHistoryStepDetailsProvider.calculateHistoryStepDetails:()V -->
<g id="node3" class="node">
<title>m::com.android.server.power.stats.BatteryHistoryStepDetailsProvider.calculateHistoryStepDetails:()V</title>
<path fill="#fee2e2" stroke="#dc2626" d="M350,-36C350,-36 12,-36 12,-36 6,-36 0,-30 0,-24 0,-24 0,-12 0,-12 0,-6 6,0 12,0 12,0 350,0 350,0 356,0 362,-6 362,-12 362,-12 362,-24 362,-24 362,-30 356,-36 350,-36"/>
<text text-anchor="middle" x="181" y="-15.2" font-family="Helvetica,sans-Serif" font-size="11.00">BatteryHistoryStepDetailsProvider.calculateHistoryStepDetails</text>
</g>
<!-- m::com.android.server.power.stats.BatteryHistoryStepDetailsProvider.calculateHistoryStepDetails:()V&#45;&gt;__field__ -->
<g id="edge2" class="edge">
<title>m::com.android.server.power.stats.BatteryHistoryStepDetailsProvider.calculateHistoryStepDetails:()V&#45;&gt;__field__</title>
<path fill="none" stroke="#dc2626" d="M362,-28.67C400.27,-30.94 440.8,-33.35 479.47,-35.64"/>
<polygon fill="#dc2626" stroke="#dc2626" points="479.54,-38.45 487.7,-36.13 479.88,-32.86 479.54,-38.45"/>
<text text-anchor="middle" x="425" y="-36.8" font-family="Helvetica,sans-Serif" font-size="9.00" fill="#dc2626"> reads unguarded</text>
</g>
<!-- m::com.android.server.power.stats.BatteryHistoryStepDetailsProvider.calculateHistoryStepDetails:()V&#45;&gt;__field__ -->
<g id="edge3" class="edge">
<title>m::com.android.server.power.stats.BatteryHistoryStepDetailsProvider.calculateHistoryStepDetails:()V&#45;&gt;__field__</title>
<path fill="none" stroke="#dc2626" d="M362.07,-11.33C396.6,-11.4 432.45,-12.4 466,-15 499.19,-17.57 535.13,-22.46 567.52,-27.65"/>
<polygon fill="#dc2626" stroke="#dc2626" points="567.32,-30.46 575.67,-28.98 568.22,-24.93 567.32,-30.46"/>
<text text-anchor="middle" x="425" y="-17.8" font-family="Helvetica,sans-Serif" font-size="9.00" fill="#dc2626"> reads unguarded</text>
</g>
</g>
</svg>
