<?xml version="1.0" encoding="UTF-8" standalone="no"?>
<!DOCTYPE svg PUBLIC "-//W3C//DTD SVG 1.1//EN"
 "http://www.w3.org/Graphics/SVG/1.1/DTD/svg11.dtd">
<!-- Generated by graphviz version 2.43.0 (0)
 -->
<!-- Title: race Pages: 1 -->
<svg width="505pt" height="110pt"
 viewBox="0.00 0.00 505.00 110.00" xmlns="http://www.w3.org/2000/svg" xmlns:xlink="http://www.w3.org/1999/xlink">
<g id="graph0" class="graph" transform="scale(1 1) rotate(0) translate(4 106)">
<title>race</title>
<polygon fill="white" stroke="transparent" points="-4,4 -4,-106 501,-106 501,4 -4,4"/>
<!-- __field__ -->
<g id="node1" class="node">
<title>__field__</title>
<path fill="#fef9c3" stroke="#ca8a04" stroke-width="2" d="M485,-65C485,-65 270,-65 270,-65 264,-65 258,-59 258,-53 258,-53 258,-41 258,-41 258,-35 264,-29 270,-29 270,-29 485,-29 485,-29 491,-29 497,-35 497,-41 497,-41 497,-53 497,-53 497,-59 491,-65 485,-65"/>
<text text-anchor="middle" x="377.5" y="-44.2" font-family="Helvetica,sans-Serif" font-size="11.00">FaceProvider.mHalInstanceNameCurrent</text>
</g>
<!-- __guard__ -->
<g id="node2" class="node">
<title>__guard__</title>
<path fill="#dcfce7" stroke="#16a34a" stroke-width="2" d="M109,-102C109,-102 23,-102 23,-102 17,-102 11,-96 11,-90 11,-90 11,-78 11,-78 11,-72 17,-66 23,-66 23,-66 109,-66 109,-66 115,-66 121,-72 121,-78 121,-78 121,-90 121,-90 121,-96 115,-102 109,-102"/>
<text text-anchor="middle" x="66" y="-81.2" font-family="Helvetica,sans-Serif" font-size="11.00">aidl.FaceProvider</text>
</g>
<!-- __guard__&#45;&gt;__field__ -->
<g id="edge1" class="edge">
<title>__guard__&#45;&gt;__field__</title>
<path fill="none" stroke="#16a34a" stroke-width="1.6" d="M121.26,-77.51C156.84,-73.26 204.89,-67.52 249.7,-62.16"/>
<polygon fill="#16a34a" stroke="#16a34a" stroke-width="1.6" points="250.13,-64.93 257.74,-61.2 249.46,-59.37 250.13,-64.93"/>
<text text-anchor="middle" x="195" y="-75.8" font-family="Helvetica,sans-Serif" font-size="9.00" fill="#15803d"> guards 3/3</text>
</g>
<!-- m::com.android.server.biometrics.sensors.face.aidl.FaceProvider.getVhal:()Landroid/hardware/biometrics/face/virtualhal/IVirtualHal; -->
<g id="node3" class="node">
<title>m::com.android.server.biometrics.sensors.face.aidl.FaceProvider.getVhal:()Landroid/hardware/biometrics/face/virtualhal/IVirtualHal;</title>
<path fill="#fee2e2" stroke="#dc2626" d="M120,-36C120,-36 12,-36 12,-36 6,-36 0,-30 0,-24 0,-24 0,-12 0,-12 0,-6 6,0 12,0 12,0 120,0 120,0 126,0 132,-6 132,-12 132,-12 132,-24 132,-24 132,-30 126,-36 120,-36"/>
<text text-anchor="middle" x="66" y="-15.2" font-family="Helvetica,sans-Serif" font-size="11.00">FaceProvider.getVhal</text>
</g>
<!-- m::com.android.server.biometrics.sensors.face.aidl.FaceProvider.getVhal:()Landroid/hardware/biometrics/face/virtualhal/IVirtualHal;&#45;&gt;__field__ -->
<g id="edge2" class="edge">
<title>m::com.android.server.biometrics.sensors.face.aidl.FaceProvider.getVhal:()Landroid/hardware/biometrics/face/virtualhal/IVirtualHal;&#45;&gt;__field__</title>
<path fill="none" stroke="#dc2626" d="M132.26,-24.11C166.43,-27.32 209.46,-31.35 249.86,-35.13"/>
<polygon fill="#dc2626" stroke="#dc2626" points="249.67,-37.93 257.89,-35.89 250.19,-32.35 249.67,-37.93"/>
<text text-anchor="middle" x="195" y="-35.8" font-family="Helvetica,sans-Serif" font-size="9.00" fill="#dc2626"> reads unguarded</text>
</g>
<!-- m::com.android.server.biometrics.sensors.face.aidl.FaceProvider.getVhal:()Landroid/hardware/biometrics/face/virtualhal/IVirtualHal;&#45;&gt;__field__ -->
<g id="edge3" class="edge">
<title>m::com.android.server.biometrics.sensors.face.aidl.FaceProvider.getVhal:()Landroid/hardware/biometrics/face/virtualhal/IVirtualHal;&#45;&gt;__field__</title>
<path fill="none" stroke="#dc2626" d="M132.05,-12.19C139.45,-11.7 146.88,-11.29 154,-11 190.42,-9.54 199.84,-6.44 236,-11 261.14,-14.17 288.22,-20.41 311.84,-26.82"/>
<polygon fill="#dc2626" stroke="#dc2626" points="311.25,-29.56 319.71,-28.99 312.74,-24.16 311.25,-29.56"/>
<text text-anchor="middle" x="195" y="-13.8" font-family="Helvetica,sans-Serif" font-size="9.00" fill="#dc2626"> reads unguarded</text>
</g>
</g>
</svg>
