<?xml version="1.0" encoding="UTF-8" standalone="no"?>
<!DOCTYPE svg PUBLIC "-//W3C//DTD SVG 1.1//EN"
 "http://www.w3.org/Graphics/SVG/1.1/DTD/svg11.dtd">
<!-- Generated by graphviz version 2.43.0 (0)
 -->
<!-- Title: race Pages: 1 -->
<svg width="668pt" height="160pt"
 viewBox="0.00 0.00 668.00 160.00" xmlns="http://www.w3.org/2000/svg" xmlns:xlink="http://www.w3.org/1999/xlink">
<g id="graph0" class="graph" transform="scale(1 1) rotate(0) translate(4 156)">
<title>race</title>
<polygon fill="white" stroke="transparent" points="-4,4 -4,-156 664,-156 664,4 -4,4"/>
<!-- __field__ -->
<g id="node1" class="node">
<title>__field__</title>
<path fill="#fef9c3" stroke="#ca8a04" stroke-width="2" d="M648,-94C648,-94 429,-94 429,-94 423,-94 417,-88 417,-82 417,-82 417,-70 417,-70 417,-64 423,-58 429,-58 429,-58 648,-58 648,-58 654,-58 660,-64 660,-70 660,-70 660,-82 660,-82 660,-88 654,-94 648,-94"/>
<text text-anchor="middle" x="538.5" y="-73.2" font-family="Helvetica,sans-Serif" font-size="11.00">PowerStatsService.mPowerMonitorStates</text>
</g>
<!-- __guard__ -->
<g id="node2" class="node">
<title>__guard__</title>
<path fill="#dcfce7" stroke="#16a34a" stroke-width="2" d="M224.5,-152C224.5,-152 64.5,-152 64.5,-152 58.5,-152 52.5,-146 52.5,-140 52.5,-140 52.5,-128 52.5,-128 52.5,-122 58.5,-116 64.5,-116 64.5,-116 224.5,-116 224.5,-116 230.5,-116 236.5,-122 236.5,-128 236.5,-128 236.5,-140 236.5,-140 236.5,-146 230.5,-152 224.5,-152"/>
<text text-anchor="middle" x="144.5" y="-131.2" font-family="Helvetica,sans-Serif" font-size="11.00">powerstats.PowerStatsService</text>
</g>
<!-- __guard__&#45;&gt;__field__ -->
<g id="edge1" class="edge">
<title>__guard__&#45;&gt;__field__</title>
<path fill="none" stroke="#16a34a" stroke-width="1.6" d="M236.91,-120.47C288.02,-112.91 352.54,-103.37 408.69,-95.06"/>
<polygon fill="#16a34a" stroke="#16a34a" stroke-width="1.6" points="409.4,-97.78 416.91,-93.84 408.59,-92.24 409.4,-97.78"/>
<text text-anchor="middle" x="353" y="-110.8" font-family="Helvetica,sans-Serif" font-size="9.00" fill="#15803d"> guards 2/3</text>
</g>
<!-- m::com.android.server.powerstats.PowerStatsService.setPowerMonitorApiEnabled:(Z)V -->
<g id="node3" class="node">
<title>m::com.android.server.powerstats.PowerStatsService.setPowerMonitorApiEnabled:(Z)V</title>
<path fill="#fee2e2" stroke="#dc2626" d="M270,-94C270,-94 19,-94 19,-94 13,-94 7,-88 7,-82 7,-82 7,-70 7,-70 7,-64 13,-58 19,-58 19,-58 270,-58 270,-58 276,-58 282,-64 282,-70 282,-70 282,-82 282,-82 282,-88 276,-94 270,-94"/>
<text text-anchor="middle" x="144.5" y="-73.2" font-family="Helvetica,sans-Serif" font-size="11.00">PowerStatsService.setPowerMonitorApiEnabled</text>
</g>
<!-- m::com.android.server.powerstats.PowerStatsService.setPowerMonitorApiEnabled:(Z)V&#45;&gt;__field__ -->
<g id="edge2" class="edge">
<title>m::com.android.server.powerstats.PowerStatsService.setPowerMonitorApiEnabled:(Z)V&#45;&gt;__field__</title>
<path fill="none" stroke="#dc2626" d="M282.05,-76C323.17,-76 368.15,-76 408.74,-76"/>
<polygon fill="#dc2626" stroke="#dc2626" points="408.8,-78.8 416.8,-76 408.8,-73.2 408.8,-78.8"/>
<text text-anchor="middle" x="353" y="-78.8" font-family="Helvetica,sans-Serif" font-size="9.00" fill="#dc2626"> writes unguarded</text>
</g>
<!-- m::com.android.server.powerstats.PowerStatsService.getPowerMonitorReadingsImpl:([ILandroid/os/ResultReceiver;I)V -->
<g id="node4" class="node">
<title>m::com.android.server.powerstats.PowerStatsService.getPowerMonitorReadingsImpl:([ILandroid/os/ResultReceiver;I)V</title>
<path fill="#fee2e2" stroke="#dc2626" d="M277,-36C277,-36 12,-36 12,-36 6,-36 0,-30 0,-24 0,-24 0,-12 0,-12 0,-6 6,0 12,0 12,0 277,0 277,0 283,0 289,-6 289,-12 289,-12 289,-24 289,-24 289,-30 283,-36 277,-36"/>
<text text-anchor="middle" x="144.5" y="-15.2" font-family="Helvetica,sans-Serif" font-size="11.00">PowerStatsService.getPowerMonitorReadingsImpl</text>
</g>
<!-- m::com.android.server.powerstats.PowerStatsService.getPowerMonitorReadingsImpl:([ILandroid/os/ResultReceiver;I)V&#45;&gt;__field__ -->
<g id="edge3" class="edge">
<title>m::com.android.server.powerstats.PowerStatsService.getPowerMonitorReadingsImpl:([ILandroid/os/ResultReceiver;I)V&#45;&gt;__field__</title>
<path fill="none" stroke="#dc2626" d="M267.38,-36.03C312.22,-42.67 363.14,-50.2 408.58,-56.93"/>
<polygon fill="#dc2626" stroke="#dc2626" points="408.38,-59.73 416.7,-58.13 409.2,-54.19 408.38,-59.73"/>
<text text-anchor="middle" x="353" y="-55.8" font-family="Helvetica,sans-Serif" font-size="9.00" fill="#dc2626"> reads unguarded</text>
</g>
</g>
</svg>
