<?xml version="1.0" encoding="UTF-8" standalone="no"?>
<!DOCTYPE svg PUBLIC "-//W3C//DTD SVG 1.1//EN"
 "http://www.w3.org/Graphics/SVG/1.1/DTD/svg11.dtd">
<!-- Generated by graphviz version 2.43.0 (0)
 -->
<!-- Title: race Pages: 1 -->
<svg width="635pt" height="353pt"
 viewBox="0.00 0.00 635.00 352.55" xmlns="http://www.w3.org/2000/svg" xmlns:xlink="http://www.w3.org/1999/xlink">
<g id="graph0" class="graph" transform="scale(1 1) rotate(0) translate(4 348.55)">
<title>race</title>
<polygon fill="white" stroke="transparent" points="-4,4 -4,-348.55 631,-348.55 631,4 -4,4"/>
<!-- __field__ -->
<g id="node1" class="node">
<title>__field__</title>
<path fill="#fef9c3" stroke="#ca8a04" stroke-width="2" d="M615,-151.55C615,-151.55 487,-151.55 487,-151.55 481,-151.55 475,-145.55 475,-139.55 475,-139.55 475,-127.55 475,-127.55 475,-121.55 481,-115.55 487,-115.55 487,-115.55 615,-115.55 615,-115.55 621,-115.55 627,-121.55 627,-127.55 627,-127.55 627,-139.55 627,-139.55 627,-145.55 621,-151.55 615,-151.55"/>
<text text-anchor="middle" x="551" y="-130.75" font-family="Helvetica,sans-Serif" font-size="11.00">NetworkPolicy.limitBytes</text>
</g>
<!-- __guard__ -->
<g id="node2" class="node">
<title>__guard__</title>
<path fill="#dcfce7" stroke="#16a34a" stroke-width="2" d="M335,-344.55C335,-344.55 12,-344.55 12,-344.55 6,-344.55 0,-338.55 0,-332.55 0,-332.55 0,-320.55 0,-320.55 0,-314.55 6,-308.55 12,-308.55 12,-308.55 335,-308.55 335,-308.55 341,-308.55 347,-314.55 347,-320.55 347,-320.55 347,-332.55 347,-332.55 347,-338.55 341,-344.55 335,-344.55"/>
<text text-anchor="middle" x="173.5" y="-323.75" font-family="Helvetica,sans-Serif" font-size="11.00">NetworkPolicyManagerService.mNetworkPoliciesSecondLock</text>
</g>
<!-- __guard__&#45;&gt;__field__ -->
<g id="edge1" class="edge">
<title>__guard__&#45;&gt;__field__</title>
<path fill="none" stroke="#16a34a" stroke-width="1.6" d="M311.06,-308.55C359.57,-296.95 412.21,-277.89 453,-246.55 485.99,-221.22 515.82,-183.1 533.44,-158.27"/>
<polygon fill="#16a34a" stroke="#16a34a" stroke-width="1.6" points="535.78,-159.8 538.08,-151.64 531.2,-156.59 535.78,-159.8"/>
<text text-anchor="middle" x="411" y="-293.35" font-family="Helvetica,sans-Serif" font-size="9.00" fill="#15803d"> guards 5/6</text>
</g>
<!-- m::com.android.server.net.NetworkPolicyManagerService.factoryReset:(Ljava/lang/String;)V -->
<g id="node3" class="node">
<title>m::com.android.server.net.NetworkPolicyManagerService.factoryReset:(Ljava/lang/String;)V</title>
<path fill="#fee2e2" stroke="#dc2626" d="M290,-286.55C290,-286.55 57,-286.55 57,-286.55 51,-286.55 45,-280.55 45,-274.55 45,-274.55 45,-262.55 45,-262.55 45,-256.55 51,-250.55 57,-250.55 57,-250.55 290,-250.55 290,-250.55 296,-250.55 302,-256.55 302,-262.55 302,-262.55 302,-274.55 302,-274.55 302,-280.55 296,-286.55 290,-286.55"/>
<text text-anchor="middle" x="173.5" y="-265.75" font-family="Helvetica,sans-Serif" font-size="11.00">NetworkPolicyManagerService.factoryReset</text>
</g>
<!-- m::com.android.server.net.NetworkPolicyManagerService.factoryReset:(Ljava/lang/String;)V&#45;&gt;__field__ -->
<g id="edge2" class="edge">
<title>m::com.android.server.net.NetworkPolicyManagerService.factoryReset:(Ljava/lang/String;)V&#45;&gt;__field__</title>
<path fill="none" stroke="#dc2626" d="M302.08,-250.94C317.35,-247.71 332.62,-243.94 347,-239.55 396.47,-224.47 407.18,-215.53 453,-191.55 473.87,-180.63 496.5,-167.2 514.65,-156.01"/>
<polygon fill="#dc2626" stroke="#dc2626" points="516.3,-158.28 521.63,-151.68 513.35,-153.52 516.3,-158.28"/>
<text text-anchor="middle" x="411" y="-234.35" font-family="Helvetica,sans-Serif" font-size="9.00" fill="#dc2626"> writes unguarded</text>
</g>
<!-- m::com.android.server.connectivity.MultipathPolicyTracker.getActiveLimit:(Landroid/net/NetworkPolicy;J)J -->
<g id="node4" class="node">
<title>m::com.android.server.connectivity.MultipathPolicyTracker.getActiveLimit:(Landroid/net/NetworkPolicy;J)J</title>
<path fill="#fee2e2" stroke="#dc2626" d="M272.5,-228.55C272.5,-228.55 74.5,-228.55 74.5,-228.55 68.5,-228.55 62.5,-222.55 62.5,-216.55 62.5,-216.55 62.5,-204.55 62.5,-204.55 62.5,-198.55 68.5,-192.55 74.5,-192.55 74.5,-192.55 272.5,-192.55 272.5,-192.55 278.5,-192.55 284.5,-198.55 284.5,-204.55 284.5,-204.55 284.5,-216.55 284.5,-216.55 284.5,-222.55 278.5,-228.55 272.5,-228.55"/>
<text text-anchor="middle" x="173.5" y="-207.75" font-family="Helvetica,sans-Serif" font-size="11.00">MultipathPolicyTracker.getActiveLimit</text>
</g>
<!-- m::com.android.server.connectivity.MultipathPolicyTracker.getActiveLimit:(Landroid/net/NetworkPolicy;J)J&#45;&gt;__field__ -->
<g id="edge3" class="edge">
<title>m::com.android.server.connectivity.MultipathPolicyTracker.getActiveLimit:(Landroid/net/NetworkPolicy;J)J&#45;&gt;__field__</title>
<path fill="none" stroke="#dc2626" d="M284.66,-193.13C305.42,-189.54 326.91,-185.61 347,-181.55 394.45,-171.98 405.9,-167.69 453,-156.55 457.53,-155.48 462.18,-154.38 466.88,-153.27"/>
<polygon fill="#dc2626" stroke="#dc2626" points="467.67,-155.96 474.81,-151.39 466.38,-150.51 467.67,-155.96"/>
<text text-anchor="middle" x="411" y="-179.35" font-family="Helvetica,sans-Serif" font-size="9.00" fill="#dc2626"> reads unguarded</text>
</g>
<!-- m::com.android.server.net.NetworkPolicyManagerService.enqueueNotification:(Landroid/net/NetworkPolicy;IJLandroid/content/pm/ApplicationInfo;)V -->
<g id="node5" class="node">
<title>m::com.android.server.net.NetworkPolicyManagerService.enqueueNotification:(Landroid/net/NetworkPolicy;IJLandroid/content/pm/ApplicationInfo;)V</title>
<path fill="#fee2e2" stroke="#dc2626" d="M309.5,-170.55C309.5,-170.55 37.5,-170.55 37.5,-170.55 31.5,-170.55 25.5,-164.55 25.5,-158.55 25.5,-158.55 25.5,-146.55 25.5,-146.55 25.5,-140.55 31.5,-134.55 37.5,-134.55 37.5,-134.55 309.5,-134.55 309.5,-134.55 315.5,-134.55 321.5,-140.55 321.5,-146.55 321.5,-146.55 321.5,-158.55 321.5,-158.55 321.5,-164.55 315.5,-170.55 309.5,-170.55"/>
<text text-anchor="middle" x="173.5" y="-149.75" font-family="Helvetica,sans-Serif" font-size="11.00">NetworkPolicyManagerService.enqueueNotification</text>
</g>
<!-- m::com.android.server.net.NetworkPolicyManagerService.enqueueNotification:(Landroid/net/NetworkPolicy;IJLandroid/content/pm/ApplicationInfo;)V&#45;&gt;__field__ -->
<g id="edge4" class="edge">
<title>m::com.android.server.net.NetworkPolicyManagerService.enqueueNotification:(Landroid/net/NetworkPolicy;IJLandroid/content/pm/ApplicationInfo;)V&#45;&gt;__field__</title>
<path fill="none" stroke="#dc2626" d="M321.56,-145.11C370.91,-142.62 424.19,-139.92 466.88,-137.76"/>
<polygon fill="#dc2626" stroke="#dc2626" points="467.15,-140.55 474.99,-137.35 466.86,-134.96 467.15,-140.55"/>
<text text-anchor="middle" x="411" y="-144.35" font-family="Helvetica,sans-Serif" font-size="9.00" fill="#dc2626"> reads unguarded</text>
</g>
<!-- m::com.android.server.net.NetworkPolicyManagerService.updateNetworkEnabledNL:()V -->
<g id="node6" class="node">
<title>m::com.android.server.net.NetworkPolicyManagerService.updateNetworkEnabledNL:()V</title>
<path fill="#fee2e2" stroke="#dc2626" d="M325.5,-112.55C325.5,-112.55 21.5,-112.55 21.5,-112.55 15.5,-112.55 9.5,-106.55 9.5,-100.55 9.5,-100.55 9.5,-88.55 9.5,-88.55 9.5,-82.55 15.5,-76.55 21.5,-76.55 21.5,-76.55 325.5,-76.55 325.5,-76.55 331.5,-76.55 337.5,-82.55 337.5,-88.55 337.5,-88.55 337.5,-100.55 337.5,-100.55 337.5,-106.55 331.5,-112.55 325.5,-112.55"/>
<text text-anchor="middle" x="173.5" y="-91.75" font-family="Helvetica,sans-Serif" font-size="11.00">NetworkPolicyManagerService.updateNetworkEnabledNL</text>
</g>
<!-- m::com.android.server.net.NetworkPolicyManagerService.updateNetworkEnabledNL:()V&#45;&gt;__field__ -->
<g id="edge5" class="edge">
<title>m::com.android.server.net.NetworkPolicyManagerService.updateNetworkEnabledNL:()V&#45;&gt;__field__</title>
<path fill="none" stroke="#dc2626" d="M337.56,-111.49C382.09,-116.12 428.51,-120.94 466.56,-124.89"/>
<polygon fill="#dc2626" stroke="#dc2626" points="466.3,-127.68 474.55,-125.72 466.88,-122.11 466.3,-127.68"/>
<text text-anchor="middle" x="411" y="-125.35" font-family="Helvetica,sans-Serif" font-size="9.00" fill="#dc2626"> reads unguarded</text>
</g>
<!-- m::com.android.server.net.NetworkPolicyManagerService.updateNetworkRulesNL:()V -->
<g id="node7" class="node">
<title>m::com.android.server.net.NetworkPolicyManagerService.updateNetworkRulesNL:()V</title>
<path fill="#fee2e2" stroke="#dc2626" d="M318.5,-54.55C318.5,-54.55 28.5,-54.55 28.5,-54.55 22.5,-54.55 16.5,-48.55 16.5,-42.55 16.5,-42.55 16.5,-30.55 16.5,-30.55 16.5,-24.55 22.5,-18.55 28.5,-18.55 28.5,-18.55 318.5,-18.55 318.5,-18.55 324.5,-18.55 330.5,-24.55 330.5,-30.55 330.5,-30.55 330.5,-42.55 330.5,-42.55 330.5,-48.55 324.5,-54.55 318.5,-54.55"/>
<text text-anchor="middle" x="173.5" y="-33.75" font-family="Helvetica,sans-Serif" font-size="11.00">NetworkPolicyManagerService.updateNetworkRulesNL</text>
</g>
<!-- m::com.android.server.net.NetworkPolicyManagerService.updateNetworkRulesNL:()V&#45;&gt;__field__ -->
<g id="edge6" class="edge">
<title>m::com.android.server.net.NetworkPolicyManagerService.updateNetworkRulesNL:()V&#45;&gt;__field__</title>
<path fill="none" stroke="#dc2626" d="M295.13,-54.56C312.61,-57.82 330.33,-61.5 347,-65.55 395.08,-77.24 406.1,-83.81 453,-99.55 465.47,-103.74 478.8,-108.33 491.46,-112.75"/>
<polygon fill="#dc2626" stroke="#dc2626" points="490.77,-115.48 499.24,-115.48 492.62,-110.19 490.77,-115.48"/>
<text text-anchor="middle" x="411" y="-102.35" font-family="Helvetica,sans-Serif" font-size="9.00" fill="#dc2626"> reads unguarded</text>
</g>
<!-- m::com.android.server.net.NetworkPolicyManagerService.updateNetworkRulesNL:()V&#45;&gt;__field__ -->
<g id="edge7" class="edge">
<title>m::com.android.server.net.NetworkPolicyManagerService.updateNetworkRulesNL:()V&#45;&gt;__field__</title>
<path fill="none" stroke="#dc2626" d="M330.65,-30.63C371.56,-33.51 414.86,-40.64 453,-55.55 482.47,-67.08 509.97,-90.94 528.1,-109.26"/>
<polygon fill="#dc2626" stroke="#dc2626" points="526.31,-111.43 533.89,-115.23 530.33,-107.53 526.31,-111.43"/>
<text text-anchor="middle" x="411" y="-58.35" font-family="Helvetica,sans-Serif" font-size="9.00" fill="#dc2626"> reads unguarded</text>
</g>
<!-- m::com.android.server.net.NetworkPolicyManagerService.updateNetworkRulesNL:()V&#45;&gt;__field__ -->
<g id="edge8" class="edge">
<title>m::com.android.server.net.NetworkPolicyManagerService.updateNetworkRulesNL:()V&#45;&gt;__field__</title>
<path fill="none" stroke="#dc2626" d="M229.15,-18.49C287.44,-2.48 381.11,13.67 453,-19.55 492.41,-37.77 521.69,-80.76 537.28,-108.43"/>
<polygon fill="#dc2626" stroke="#dc2626" points="534.83,-109.79 541.13,-115.46 539.74,-107.1 534.83,-109.79"/>
<text text-anchor="middle" x="411" y="-22.35" font-family="Helvetica,sans-Serif" font-size="9.00" fill="#dc2626"> reads unguarded</text>
</g>
</g>
</svg>
