<?xml version="1.0" encoding="UTF-8" standalone="no"?>
<!DOCTYPE svg PUBLIC "-//W3C//DTD SVG 1.1//EN"
 "http://www.w3.org/Graphics/SVG/1.1/DTD/svg11.dtd">
<!-- Generated by graphviz version 2.43.0 (0)
 -->
<!-- Title: race Pages: 1 -->
<svg width="554pt" height="218pt"
 viewBox="0.00 0.00 554.00 218.00" xmlns="http://www.w3.org/2000/svg" xmlns:xlink="http://www.w3.org/1999/xlink">
<g id="graph0" class="graph" transform="scale(1 1) rotate(0) translate(4 214)">
<title>race</title>
<polygon fill="white" stroke="transparent" points="-4,4 -4,-214 550,-214 550,4 -4,4"/>
<!-- __field__ -->
<g id="node1" class="node">
<title>__field__</title>
<path fill="#fef9c3" stroke="#ca8a04" stroke-width="2" d="M534,-123C534,-123 400,-123 400,-123 394,-123 388,-117 388,-111 388,-111 388,-99 388,-99 388,-93 394,-87 400,-87 400,-87 534,-87 534,-87 540,-87 546,-93 546,-99 546,-99 546,-111 546,-111 546,-117 540,-123 534,-123"/>
<text text-anchor="middle" x="467" y="-102.2" font-family="Helvetica,sans-Serif" font-size="11.00">BtHelper.mScoAudioState</text>
</g>
<!-- __guard__ -->
<g id="node2" class="node">
<title>__guard__</title>
<path fill="#dcfce7" stroke="#16a34a" stroke-width="2" d="M167,-210C167,-210 93,-210 93,-210 87,-210 81,-204 81,-198 81,-198 81,-186 81,-186 81,-180 87,-174 93,-174 93,-174 167,-174 167,-174 173,-174 179,-180 179,-186 179,-186 179,-198 179,-198 179,-204 173,-210 167,-210"/>
<text text-anchor="middle" x="130" y="-189.2" font-family="Helvetica,sans-Serif" font-size="11.00">audio.BtHelper</text>
</g>
<!-- __guard__&#45;&gt;__field__ -->
<g id="edge1" class="edge">
<title>__guard__&#45;&gt;__field__</title>
<path fill="none" stroke="#16a34a" stroke-width="1.6" d="M179.19,-181.61C203.47,-176.26 233.35,-169.51 260,-163 307.33,-151.43 319.1,-148.22 366,-135 376.74,-131.97 388.1,-128.67 399.15,-125.39"/>
<polygon fill="#16a34a" stroke="#16a34a" stroke-width="1.6" points="400.27,-127.98 407.14,-123.01 398.67,-122.61 400.27,-127.98"/>
<text text-anchor="middle" x="324" y="-159.8" font-family="Helvetica,sans-Serif" font-size="9.00" fill="#15803d"> guards 18/19</text>
</g>
<!-- m::com.android.server.audio.BtHelper.resetBluetoothSco:()V -->
<g id="node3" class="node">
<title>m::com.android.server.audio.BtHelper.resetBluetoothSco:()V</title>
<path fill="#fee2e2" stroke="#dc2626" d="M202.5,-152C202.5,-152 57.5,-152 57.5,-152 51.5,-152 45.5,-146 45.5,-140 45.5,-140 45.5,-128 45.5,-128 45.5,-122 51.5,-116 57.5,-116 57.5,-116 202.5,-116 202.5,-116 208.5,-116 214.5,-122 214.5,-128 214.5,-128 214.5,-140 214.5,-140 214.5,-146 208.5,-152 202.5,-152"/>
<text text-anchor="middle" x="130" y="-131.2" font-family="Helvetica,sans-Serif" font-size="11.00">BtHelper.resetBluetoothSco</text>
</g>
<!-- m::com.android.server.audio.BtHelper.resetBluetoothSco:()V&#45;&gt;__field__ -->
<g id="edge2" class="edge">
<title>m::com.android.server.audio.BtHelper.resetBluetoothSco:()V&#45;&gt;__field__</title>
<path fill="none" stroke="#dc2626" d="M214.67,-126.76C265.07,-122.39 329.12,-116.85 379.95,-112.45"/>
<polygon fill="#dc2626" stroke="#dc2626" points="380.26,-115.23 387.99,-111.75 379.78,-109.65 380.26,-115.23"/>
<text text-anchor="middle" x="324" y="-122.8" font-family="Helvetica,sans-Serif" font-size="9.00" fill="#dc2626"> writes unguarded</text>
</g>
<!-- m::com.android.server.audio.BtHelper.dump:(Ljava/io/PrintWriter;Ljava/lang/String;)V -->
<g id="node4" class="node">
<title>m::com.android.server.audio.BtHelper.dump:(Ljava/io/PrintWriter;Ljava/lang/String;)V</title>
<path fill="#fee2e2" stroke="#dc2626" d="M167,-94C167,-94 93,-94 93,-94 87,-94 81,-88 81,-82 81,-82 81,-70 81,-70 81,-64 87,-58 93,-58 93,-58 167,-58 167,-58 173,-58 179,-64 179,-70 179,-70 179,-82 179,-82 179,-88 173,-94 167,-94"/>
<text text-anchor="middle" x="130" y="-73.2" font-family="Helvetica,sans-Serif" font-size="11.00">BtHelper.dump</text>
</g>
<!-- m::com.android.server.audio.BtHelper.dump:(Ljava/io/PrintWriter;Ljava/lang/String;)V&#45;&gt;__field__ -->
<g id="edge3" class="edge">
<title>m::com.android.server.audio.BtHelper.dump:(Ljava/io/PrintWriter;Ljava/lang/String;)V&#45;&gt;__field__</title>
<path fill="none" stroke="#dc2626" d="M179.35,-80.19C231.66,-84.71 316.09,-92.02 379.81,-97.54"/>
<polygon fill="#dc2626" stroke="#dc2626" points="379.65,-100.34 387.87,-98.24 380.14,-94.76 379.65,-100.34"/>
<text text-anchor="middle" x="324" y="-97.8" font-family="Helvetica,sans-Serif" font-size="9.00" fill="#dc2626"> reads unguarded</text>
</g>
<!-- m::com.android.server.audio.BtHelper.isBluetoothScoRequestedInternally:()Z -->
<g id="node5" class="node">
<title>m::com.android.server.audio.BtHelper.isBluetoothScoRequestedInternally:()Z</title>
<path fill="#fee2e2" stroke="#dc2626" d="M248,-36C248,-36 12,-36 12,-36 6,-36 0,-30 0,-24 0,-24 0,-12 0,-12 0,-6 6,0 12,0 12,0 248,0 248,0 254,0 260,-6 260,-12 260,-12 260,-24 260,-24 260,-30 254,-36 248,-36"/>
<text text-anchor="middle" x="130" y="-15.2" font-family="Helvetica,sans-Serif" font-size="11.00">BtHelper.isBluetoothScoRequestedInternally</text>
</g>
<!-- m::com.android.server.audio.BtHelper.isBluetoothScoRequestedInternally:()Z&#45;&gt;__field__ -->
<g id="edge4" class="edge">
<title>m::com.android.server.audio.BtHelper.isBluetoothScoRequestedInternally:()Z&#45;&gt;__field__</title>
<path fill="none" stroke="#dc2626" d="M214.08,-36.05C259.25,-46.3 315.95,-59.88 366,-74 377.62,-77.28 389.95,-80.95 401.83,-84.58"/>
<polygon fill="#dc2626" stroke="#dc2626" points="401.09,-87.28 409.56,-86.95 402.74,-81.92 401.09,-87.28"/>
<text text-anchor="middle" x="324" y="-76.8" font-family="Helvetica,sans-Serif" font-size="9.00" fill="#dc2626"> reads unguarded</text>
</g>
</g>
</svg>
