<?xml version="1.0" encoding="UTF-8" standalone="no"?>
<!DOCTYPE svg PUBLIC "-//W3C//DTD SVG 1.1//EN"
 "http://www.w3.org/Graphics/SVG/1.1/DTD/svg11.dtd">
<!-- Generated by graphviz version 2.43.0 (0)
 -->
<!-- Title: race Pages: 1 -->
<svg width="667pt" height="160pt"
 viewBox="0.00 0.00 667.00 160.00" xmlns="http://www.w3.org/2000/svg" xmlns:xlink="http://www.w3.org/1999/xlink">
<g id="graph0" class="graph" transform="scale(1 1) rotate(0) translate(4 156)">
<title>race</title>
<polygon fill="white" stroke="transparent" points="-4,4 -4,-156 663,-156 663,4 -4,4"/>
<!-- __field__ -->
<g id="node1" class="node">
<title>__field__</title>
<path fill="#fef9c3" stroke="#ca8a04" stroke-width="2" d="M647,-94C647,-94 417,-94 417,-94 411,-94 405,-88 405,-82 405,-82 405,-70 405,-70 405,-64 411,-58 417,-58 417,-58 647,-58 647,-58 653,-58 659,-64 659,-70 659,-70 659,-82 659,-82 659,-88 653,-94 647,-94"/>
<text text-anchor="middle" x="532" y="-73.2" font-family="Helvetica,sans-Serif" font-size="11.00">SoundDoseHelper.mSafeMediaVolumeState</text>
</g>
<!-- __guard__ -->
<g id="node2" class="node">
<title>__guard__</title>
<path fill="#dcfce7" stroke="#16a34a" stroke-width="2" d="M267,-152C267,-152 12,-152 12,-152 6,-152 0,-146 0,-140 0,-140 0,-128 0,-128 0,-122 6,-116 12,-116 12,-116 267,-116 267,-116 273,-116 279,-122 279,-128 279,-128 279,-140 279,-140 279,-146 273,-152 267,-152"/>
<text text-anchor="middle" x="139.5" y="-131.2" font-family="Helvetica,sans-Serif" font-size="11.00">SoundDoseHelper.mSafeMediaVolumeStateLock</text>
</g>
<!-- __guard__&#45;&gt;__field__ -->
<g id="edge1" class="edge">
<title>__guard__&#45;&gt;__field__</title>
<path fill="none" stroke="#16a34a" stroke-width="1.6" d="M261.92,-115.97C306.27,-109.38 356.59,-101.91 401.61,-95.22"/>
<polygon fill="#16a34a" stroke="#16a34a" stroke-width="1.6" points="402.16,-97.97 409.66,-94.02 401.33,-92.43 402.16,-97.97"/>
<text text-anchor="middle" x="342" y="-110.8" font-family="Helvetica,sans-Serif" font-size="9.00" fill="#15803d"> guards 5/5</text>
</g>
<!-- m::com.android.server.audio.SoundDoseHelper.dump:(Ljava/io/PrintWriter;)V -->
<g id="node3" class="node">
<title>m::com.android.server.audio.SoundDoseHelper.dump:(Ljava/io/PrintWriter;)V</title>
<path fill="#fee2e2" stroke="#dc2626" d="M201.5,-94C201.5,-94 77.5,-94 77.5,-94 71.5,-94 65.5,-88 65.5,-82 65.5,-82 65.5,-70 65.5,-70 65.5,-64 71.5,-58 77.5,-58 77.5,-58 201.5,-58 201.5,-58 207.5,-58 213.5,-64 213.5,-70 213.5,-70 213.5,-82 213.5,-82 213.5,-88 207.5,-94 201.5,-94"/>
<text text-anchor="middle" x="139.5" y="-73.2" font-family="Helvetica,sans-Serif" font-size="11.00">SoundDoseHelper.dump</text>
</g>
<!-- m::com.android.server.audio.SoundDoseHelper.dump:(Ljava/io/PrintWriter;)V&#45;&gt;__field__ -->
<g id="edge2" class="edge">
<title>m::com.android.server.audio.SoundDoseHelper.dump:(Ljava/io/PrintWriter;)V&#45;&gt;__field__</title>
<path fill="none" stroke="#dc2626" d="M213.95,-76C265.33,-76 335.45,-76 396.68,-76"/>
<polygon fill="#dc2626" stroke="#dc2626" points="396.87,-78.8 404.87,-76 396.87,-73.2 396.87,-78.8"/>
<text text-anchor="middle" x="342" y="-78.8" font-family="Helvetica,sans-Serif" font-size="9.00" fill="#dc2626"> reads unguarded</text>
</g>
<!-- m::com.android.server.audio.SoundDoseHelper.getSafeMediaVolumeIndex:(I)I -->
<g id="node4" class="node">
<title>m::com.android.server.audio.SoundDoseHelper.getSafeMediaVolumeIndex:(I)I</title>
<path fill="#fee2e2" stroke="#dc2626" d="M259,-36C259,-36 20,-36 20,-36 14,-36 8,-30 8,-24 8,-24 8,-12 8,-12 8,-6 14,0 20,0 20,0 259,0 259,0 265,0 271,-6 271,-12 271,-12 271,-24 271,-24 271,-30 265,-36 259,-36"/>
<text text-anchor="middle" x="139.5" y="-15.2" font-family="Helvetica,sans-Serif" font-size="11.00">SoundDoseHelper.getSafeMediaVolumeIndex</text>
</g>
<!-- m::com.android.server.audio.SoundDoseHelper.getSafeMediaVolumeIndex:(I)I&#45;&gt;__field__ -->
<g id="edge3" class="edge">
<title>m::com.android.server.audio.SoundDoseHelper.getSafeMediaVolumeIndex:(I)I&#45;&gt;__field__</title>
<path fill="none" stroke="#dc2626" d="M261.92,-36.03C306.27,-42.62 356.59,-50.09 401.61,-56.78"/>
<polygon fill="#dc2626" stroke="#dc2626" points="401.33,-59.57 409.66,-57.98 402.16,-54.03 401.33,-59.57"/>
<text text-anchor="middle" x="342" y="-55.8" font-family="Helvetica,sans-Serif" font-size="9.00" fill="#dc2626"> reads unguarded</text>
</g>
</g>
</svg>
