<?xml version="1.0" encoding="UTF-8" standalone="no"?>
<!DOCTYPE svg PUBLIC "-//W3C//DTD SVG 1.1//EN"
 "http://www.w3.org/Graphics/SVG/1.1/DTD/svg11.dtd">
<!-- Generated by graphviz version 2.43.0 (0)
 -->
<!-- Title: race Pages: 1 -->
<svg width="1012pt" height="160pt"
 viewBox="0.00 0.00 1012.00 160.00" xmlns="http://www.w3.org/2000/svg" xmlns:xlink="http://www.w3.org/1999/xlink">
<g id="graph0" class="graph" transform="scale(1 1) rotate(0) translate(4 156)">
<title>race</title>
<polygon fill="white" stroke="transparent" points="-4,4 -4,-156 1008,-156 1008,4 -4,4"/>
<!-- __field__ -->
<g id="node1" class="node">
<title>__field__</title>
<path fill="#fef9c3" stroke="#ca8a04" stroke-width="2" d="M992,-94C992,-94 581,-94 581,-94 575,-94 569,-88 569,-82 569,-82 569,-70 569,-70 569,-64 575,-58 581,-58 581,-58 992,-58 992,-58 998,-58 1004,-64 1004,-70 1004,-70 1004,-82 1004,-82 1004,-88 998,-94 992,-94"/>
<text text-anchor="middle" x="786.5" y="-73.2" font-family="Helvetica,sans-Serif" font-size="11.00">OnDeviceIntelligenceManagerService.mRemoteOnDeviceIntelligenceService</text>
</g>
<!-- __guard__ -->
<g id="node2" class="node">
<title>__guard__</title>
<path fill="#dcfce7" stroke="#16a34a" stroke-width="2" d="M339.5,-152C339.5,-152 103.5,-152 103.5,-152 97.5,-152 91.5,-146 91.5,-140 91.5,-140 91.5,-128 91.5,-128 91.5,-122 97.5,-116 103.5,-116 103.5,-116 339.5,-116 339.5,-116 345.5,-116 351.5,-122 351.5,-128 351.5,-128 351.5,-140 351.5,-140 351.5,-146 345.5,-152 339.5,-152"/>
<text text-anchor="middle" x="221.5" y="-131.2" font-family="Helvetica,sans-Serif" font-size="11.00">OnDeviceIntelligenceManagerService.mLock</text>
</g>
<!-- __guard__&#45;&gt;__field__ -->
<g id="edge1" class="edge">
<title>__guard__&#45;&gt;__field__</title>
<path fill="none" stroke="#16a34a" stroke-width="1.6" d="M351.66,-120.69C425.89,-113.05 520.34,-103.32 602.15,-94.89"/>
<polygon fill="#16a34a" stroke="#16a34a" stroke-width="1.6" points="602.86,-97.63 610.54,-94.02 602.29,-92.06 602.86,-97.63"/>
<text text-anchor="middle" x="506" y="-110.8" font-family="Helvetica,sans-Serif" font-size="9.00" fill="#15803d"> guards 3/3</text>
</g>
<!-- m::com.android.server.ondeviceintelligence.OnDeviceIntelligenceManagerService.getRemoteOnDeviceIntelligenceService:()Lcom/android/server/ondeviceintelligence/RemoteOnDeviceIntelligenceService; -->
<g id="node3" class="node">
<title>m::com.android.server.ondeviceintelligence.OnDeviceIntelligenceManagerService.getRemoteOnDeviceIntelligenceService:()Lcom/android/server/ondeviceintelligence/RemoteOnDeviceIntelligenceService;</title>
<path fill="#fee2e2" stroke="#dc2626" d="M431,-94C431,-94 12,-94 12,-94 6,-94 0,-88 0,-82 0,-82 0,-70 0,-70 0,-64 6,-58 12,-58 12,-58 431,-58 431,-58 437,-58 443,-64 443,-70 443,-70 443,-82 443,-82 443,-88 437,-94 431,-94"/>
<text text-anchor="middle" x="221.5" y="-73.2" font-family="Helvetica,sans-Serif" font-size="11.00">OnDeviceIntelligenceManagerService.getRemoteOnDeviceIntelligenceService</text>
</g>
<!-- m::com.android.server.ondeviceintelligence.OnDeviceIntelligenceManagerService.getRemoteOnDeviceIntelligenceService:()Lcom/android/server/ondeviceintelligence/RemoteOnDeviceIntelligenceService;&#45;&gt;__field__ -->
<g id="edge2" class="edge">
<title>m::com.android.server.ondeviceintelligence.OnDeviceIntelligenceManagerService.getRemoteOnDeviceIntelligenceService:()Lcom/android/server/ondeviceintelligence/RemoteOnDeviceIntelligenceService;&#45;&gt;__field__</title>
<path fill="none" stroke="#dc2626" d="M443.4,-76C481.94,-76 522.07,-76 560.71,-76"/>
<polygon fill="#dc2626" stroke="#dc2626" points="560.93,-78.8 568.93,-76 560.93,-73.2 560.93,-78.8"/>
<text text-anchor="middle" x="506" y="-78.8" font-family="Helvetica,sans-Serif" font-size="9.00" fill="#dc2626"> reads unguarded</text>
</g>
<!-- m::com.android.server.ondeviceintelligence.OnDeviceIntelligenceManagerService.getRemoteStorageService:()Landroid/service/ondeviceintelligence/IRemoteStorageService$Stub; -->
<g id="node4" class="node">
<title>m::com.android.server.ondeviceintelligence.OnDeviceIntelligenceManagerService.getRemoteStorageService:()Landroid/service/ondeviceintelligence/IRemoteStorageService$Stub;</title>
<path fill="#fee2e2" stroke="#dc2626" d="M394,-36C394,-36 49,-36 49,-36 43,-36 37,-30 37,-24 37,-24 37,-12 37,-12 37,-6 43,0 49,0 49,0 394,0 394,0 400,0 406,-6 406,-12 406,-12 406,-24 406,-24 406,-30 400,-36 394,-36"/>
<text text-anchor="middle" x="221.5" y="-15.2" font-family="Helvetica,sans-Serif" font-size="11.00">OnDeviceIntelligenceManagerService.getRemoteStorageService</text>
</g>
<!-- m::com.android.server.ondeviceintelligence.OnDeviceIntelligenceManagerService.getRemoteStorageService:()Landroid/service/ondeviceintelligence/IRemoteStorageService$Stub;&#45;&gt;__field__ -->
<g id="edge3" class="edge">
<title>m::com.android.server.ondeviceintelligence.OnDeviceIntelligenceManagerService.getRemoteStorageService:()Landroid/service/ondeviceintelligence/IRemoteStorageService$Stub;&#45;&gt;__field__</title>
<path fill="none" stroke="#dc2626" d="M397.55,-36.03C462.69,-42.74 536.75,-50.37 602.57,-57.15"/>
<polygon fill="#dc2626" stroke="#dc2626" points="602.31,-59.94 610.56,-57.98 602.89,-54.37 602.31,-59.94"/>
<text text-anchor="middle" x="506" y="-52.8" font-family="Helvetica,sans-Serif" font-size="9.00" fill="#dc2626"> reads unguarded</text>
</g>
</g>
</svg>
