<?xml version="1.0" encoding="UTF-8" standalone="no"?>
<!DOCTYPE svg PUBLIC "-//W3C//DTD SVG 1.1//EN"
 "http://www.w3.org/Graphics/SVG/1.1/DTD/svg11.dtd">
<!-- Generated by graphviz version 2.43.0 (0)
 -->
<!-- Title: race Pages: 1 -->
<svg width="521pt" height="102pt"
 viewBox="0.00 0.00 521.00 102.00" xmlns="http://www.w3.org/2000/svg" xmlns:xlink="http://www.w3.org/1999/xlink">
<g id="graph0" class="graph" transform="scale(1 1) rotate(0) translate(4 98)">
<title>race</title>
<polygon fill="white" stroke="transparent" points="-4,4 -4,-98 517,-98 517,4 -4,4"/>
<!-- __field__ -->
<g id="node1" class="node">
<title>__field__</title>
<path fill="#fef9c3" stroke="#ca8a04" stroke-width="2" d="M501,-65C501,-65 335,-65 335,-65 329,-65 323,-59 323,-53 323,-53 323,-41 323,-41 323,-35 329,-29 335,-29 335,-29 501,-29 501,-29 507,-29 513,-35 513,-41 513,-41 513,-53 513,-53 513,-59 507,-65 501,-65"/>
<text text-anchor="middle" x="418" y="-44.2" font-family="Helvetica,sans-Serif" font-size="11.00">LightsService$LightImpl.mColor</text>
</g>
<!-- __guard__ -->
<g id="node2" class="node">
<title>__guard__</title>
<path fill="#dcfce7" stroke="#16a34a" stroke-width="2" d="M177,-94C177,-94 20,-94 20,-94 14,-94 8,-88 8,-82 8,-82 8,-70 8,-70 8,-64 14,-58 20,-58 20,-58 177,-58 177,-58 183,-58 189,-64 189,-70 189,-70 189,-82 189,-82 189,-88 183,-94 177,-94"/>
<text text-anchor="middle" x="98.5" y="-73.2" font-family="Helvetica,sans-Serif" font-size="11.00">lights.LightsService$LightImpl</text>
</g>
<!-- __guard__&#45;&gt;__field__ -->
<g id="edge1" class="edge">
<title>__guard__&#45;&gt;__field__</title>
<path fill="none" stroke="#16a34a" stroke-width="1.6" d="M189.21,-67.81C228.32,-64.23 274.37,-60.03 314.8,-56.33"/>
<polygon fill="#16a34a" stroke="#16a34a" stroke-width="1.6" points="315.09,-59.12 322.81,-55.6 314.59,-53.54 315.09,-59.12"/>
<text text-anchor="middle" x="260" y="-66.8" font-family="Helvetica,sans-Serif" font-size="9.00" fill="#15803d"> guards 2/2</text>
</g>
<!-- m::com.android.server.lights.LightsService$LightImpl.getColor:()I -->
<g id="node3" class="node">
<title>m::com.android.server.lights.LightsService$LightImpl.getColor:()I</title>
<path fill="#fee2e2" stroke="#dc2626" d="M185,-36C185,-36 12,-36 12,-36 6,-36 0,-30 0,-24 0,-24 0,-12 0,-12 0,-6 6,0 12,0 12,0 185,0 185,0 191,0 197,-6 197,-12 197,-12 197,-24 197,-24 197,-30 191,-36 185,-36"/>
<text text-anchor="middle" x="98.5" y="-15.2" font-family="Helvetica,sans-Serif" font-size="11.00">LightsService$LightImpl.getColor</text>
</g>
<!-- m::com.android.server.lights.LightsService$LightImpl.getColor:()I&#45;&gt;__field__ -->
<g id="edge2" class="edge">
<title>m::com.android.server.lights.LightsService$LightImpl.getColor:()I&#45;&gt;__field__</title>
<path fill="none" stroke="#dc2626" d="M197.35,-26.94C234.45,-30.33 276.78,-34.19 314.31,-37.62"/>
<polygon fill="#dc2626" stroke="#dc2626" points="314.51,-40.45 322.73,-38.39 315.02,-34.87 314.51,-40.45"/>
<text text-anchor="middle" x="260" y="-37.8" font-family="Helvetica,sans-Serif" font-size="9.00" fill="#dc2626"> reads unguarded</text>
</g>
</g>
</svg>
