<?xml version="1.0" encoding="UTF-8" standalone="no"?>
<!DOCTYPE svg PUBLIC "-//W3C//DTD SVG 1.1//EN"
 "http://www.w3.org/Graphics/SVG/1.1/DTD/svg11.dtd">
<!-- Generated by graphviz version 2.43.0 (0)
 -->
<!-- Title: race Pages: 1 -->
<svg width="861pt" height="110pt"
 viewBox="0.00 0.00 861.00 110.00" xmlns="http://www.w3.org/2000/svg" xmlns:xlink="http://www.w3.org/1999/xlink">
<g id="graph0" class="graph" transform="scale(1 1) rotate(0) translate(4 106)">
<title>race</title>
<polygon fill="white" stroke="transparent" points="-4,4 -4,-106 857,-106 857,4 -4,4"/>
<!-- __field__ -->
<g id="node1" class="node">
<title>__field__</title>
<path fill="#fef9c3" stroke="#ca8a04" stroke-width="2" d="M841,-65C841,-65 500,-65 500,-65 494,-65 488,-59 488,-53 488,-53 488,-41 488,-41 488,-35 494,-29 500,-29 500,-29 841,-29 841,-29 847,-29 853,-35 853,-41 853,-41 853,-53 853,-53 853,-59 847,-65 841,-65"/>
<text text-anchor="middle" x="670.5" y="-44.2" font-family="Helvetica,sans-Serif" font-size="11.00">BatteryHistoryStepDetailsProvider.mCurStepStatSoftIrqTimeMs</text>
</g>
<!-- __guard__ -->
<g id="node2" class="node">
<title>__guard__</title>
<path fill="#dcfce7" stroke="#16a34a" stroke-width="2" d="M239.5,-102C239.5,-102 122.5,-102 122.5,-102 116.5,-102 110.5,-96 110.5,-90 110.5,-90 110.5,-78 110.5,-78 110.5,-72 116.5,-66 122.5,-66 122.5,-66 239.5,-66 239.5,-66 245.5,-66 251.5,-72 251.5,-78 251.5,-78 251.5,-90 251.5,-90 251.5,-96 245.5,-102 239.5,-102"/>
<text text-anchor="middle" x="181" y="-81.2" font-family="Helvetica,sans-Serif" font-size="11.00">stats.BatteryStatsImpl</text>
</g>
<!-- __guard__&#45;&gt;__field__ -->
<g id="edge1" class="edge">
<title>__guard__&#45;&gt;__field__</title>
<path fill="none" stroke="#16a34a" stroke-width="1.6" d="M251.59,-78.72C311.04,-74.21 399.43,-67.5 479.62,-61.41"/>
<polygon fill="#16a34a" stroke="#16a34a" stroke-width="1.6" points="480.09,-64.18 487.86,-60.79 479.67,-58.6 480.09,-64.18"/>
<text text-anchor="middle" x="425" y="-69.8" font-family="Helvetica,sans-Serif" font-size="9.00" fill="#15803d"> guards 2/2</text>
</g>
<!-- m::com.android.server.power.stats.BatteryHistoryStepDetailsProvider.calculateHistoryStepDetails:()V -->
<g id="node3" class="node">
<title>m::com.android.server.power.stats.BatteryHistoryStepDetailsProvider.calculateHistoryStepDetails:()V</title>
<path fill="#fee2e2" stroke="#dc2626" d="M350,-36C350,-36 12,-36 12,-36 6,-36 0,-30 0,-24 0,-24 0,-12 0,-12 0,-6 6,0 12,0 12,0 350,0 350,0 356,0 362,-6 362,-12 362,-12 362,-24 362,-24 362,-30 356,-36 350,-36"/>
<text text-anchor="middle" x="181" y="-15.2" font-family="Helvetica,sans-Serif" font-size="11.00">BatteryHistoryStepDetailsProvider.calculateHistoryStepDetails</text>
</g>
<!-- m::com.android.server.power.stats.BatteryHistoryStepDetailsProvider.calculateHistoryStepDetails:()V&#45;&gt;__field__ -->
<g id="edge2" class="edge">
<title>m::com.android.server.power.stats.BatteryHistoryStepDetailsProvider.calculateHistoryStepDetails:()V&#45;&gt;__field__</title>
<path fill="none" stroke="#dc2626" d="M362.14,-28.72C400.38,-30.99 440.86,-33.4 479.45,-35.69"/>
<polygon fill="#dc2626" stroke="#dc2626" points="479.5,-38.5 487.66,-36.18 479.84,-32.91 479.5,-38.5"/>
<text text-anchor="middle" x="425" y="-36.8" font-family="Helvetica,sans-Serif" font-size="9.00" fill="#dc2626"> reads unguarded</text>
</g>
<!-- m::com.android.server.power.stats.BatteryHistoryStepDetailsProvider.calculateHistoryStepDetails:()V&#45;&gt;__field__ -->
<g id="edge3" class="edge">
<title>m::com.android.server.power.stats.BatteryHistoryStepDetailsProvider.calculateHistoryStepDetails:()V&#45;&gt;__field__</title>
<path fill="none" stroke="#dc2626" d="M362.07,-11.3C396.6,-11.37 432.45,-12.38 466,-15 498.95,-17.57 534.63,-22.46 566.78,-27.65"/>
<polygon fill="#dc2626" stroke="#dc2626" points="566.52,-30.45 574.87,-28.98 567.43,-24.92 566.52,-30.45"/>
<text text-anchor="middle" x="425" y="-17.8" font-family="Helvetica,sans-Serif" font-size="9.00" fill="#dc2626"> reads unguarded</text>
</g>
</g>
</svg>
