<?xml version="1.0" encoding="UTF-8" standalone="no"?>
<!DOCTYPE svg PUBLIC "-//W3C//DTD SVG 1.1//EN"
 "http://www.w3.org/Graphics/SVG/1.1/DTD/svg11.dtd">
<!-- Generated by graphviz version 2.43.0 (0)
 -->
<!-- Title: race Pages: 1 -->
<svg width="1090pt" height="102pt"
 viewBox="0.00 0.00 1090.00 102.00" xmlns="http://www.w3.org/2000/svg" xmlns:xlink="http://www.w3.org/1999/xlink">
<g id="graph0" class="graph" transform="scale(1 1) rotate(0) translate(4 98)">
<title>race</title>
<polygon fill="white" stroke="transparent" points="-4,4 -4,-98 1086,-98 1086,4 -4,4"/>
<!-- __field__ -->
<g id="node1" class="node">
<title>__field__</title>
<path fill="#fef9c3" stroke="#ca8a04" stroke-width="2" d="M1070,-65C1070,-65 666,-65 666,-65 660,-65 654,-59 654,-53 654,-53 654,-41 654,-41 654,-35 660,-29 666,-29 666,-29 1070,-29 1070,-29 1076,-29 1082,-35 1082,-41 1082,-41 1082,-53 1082,-53 1082,-59 1076,-65 1070,-65"/>
<text text-anchor="middle" x="868" y="-44.2" font-family="Helvetica,sans-Serif" font-size="11.00">ContextualSearchManagerService$ContextualSearchManagerStub.mConfig</text>
</g>
<!-- __guard__ -->
<g id="node2" class="node">
<title>__guard__</title>
<path fill="#dcfce7" stroke="#16a34a" stroke-width="2" d="M491.5,-94C491.5,-94 36.5,-94 36.5,-94 30.5,-94 24.5,-88 24.5,-82 24.5,-82 24.5,-70 24.5,-70 24.5,-64 30.5,-58 36.5,-58 36.5,-58 491.5,-58 491.5,-58 497.5,-58 503.5,-64 503.5,-70 503.5,-70 503.5,-82 503.5,-82 503.5,-88 497.5,-94 491.5,-94"/>
<text text-anchor="middle" x="264" y="-73.2" font-family="Helvetica,sans-Serif" font-size="11.00">contextualsearch.ContextualSearchManagerService$ContextualSearchManagerStub</text>
</g>
<!-- __guard__&#45;&gt;__field__ -->
<g id="edge1" class="edge">
<title>__guard__&#45;&gt;__field__</title>
<path fill="none" stroke="#16a34a" stroke-width="1.6" d="M503.79,-64.5C550.65,-62.24 599.61,-59.88 645.86,-57.65"/>
<polygon fill="#16a34a" stroke="#16a34a" stroke-width="1.6" points="646,-60.45 653.86,-57.27 645.73,-54.86 646,-60.45"/>
<text text-anchor="middle" x="591" y="-63.8" font-family="Helvetica,sans-Serif" font-size="9.00" fill="#15803d"> guards 2/2</text>
</g>
<!-- m::com.android.server.contextualsearch.ContextualSearchManagerService$ContextualSearchManagerStub.getContextualSearchState:(Landroid/os/IBinder;Landroid/app/contextualsearch/IContextualSearchCallback;)V -->
<g id="node3" class="node">
<title>m::com.android.server.contextualsearch.ContextualSearchManagerService$ContextualSearchManagerStub.getContextualSearchState:(Landroid/os/IBinder;Landroid/app/contextualsearch/IContextualSearchCallback;)V</title>
<path fill="#fee2e2" stroke="#dc2626" d="M516,-36C516,-36 12,-36 12,-36 6,-36 0,-30 0,-24 0,-24 0,-12 0,-12 0,-6 6,0 12,0 12,0 516,0 516,0 522,0 528,-6 528,-12 528,-12 528,-24 528,-24 528,-30 522,-36 516,-36"/>
<text text-anchor="middle" x="264" y="-15.2" font-family="Helvetica,sans-Serif" font-size="11.00">ContextualSearchManagerService$ContextualSearchManagerStub.getContextualSearchState</text>
</g>
<!-- m::com.android.server.contextualsearch.ContextualSearchManagerService$ContextualSearchManagerStub.getContextualSearchState:(Landroid/os/IBinder;Landroid/app/contextualsearch/IContextualSearchCallback;)V&#45;&gt;__field__ -->
<g id="edge2" class="edge">
<title>m::com.android.server.contextualsearch.ContextualSearchManagerService$ContextualSearchManagerStub.getContextualSearchState:(Landroid/os/IBinder;Landroid/app/contextualsearch/IContextualSearchCallback;)V&#45;&gt;__field__</title>
<path fill="none" stroke="#dc2626" d="M528.17,-30.68C567.31,-32.56 607.31,-34.49 645.48,-36.33"/>
<polygon fill="#dc2626" stroke="#dc2626" points="645.47,-39.13 653.59,-36.72 645.74,-33.54 645.47,-39.13"/>
<text text-anchor="middle" x="591" y="-37.8" font-family="Helvetica,sans-Serif" font-size="9.00" fill="#dc2626"> reads unguarded</text>
</g>
</g>
</svg>
