<?xml version="1.0" encoding="UTF-8" standalone="no"?>
<!DOCTYPE svg PUBLIC "-//W3C//DTD SVG 1.1//EN"
 "http://www.w3.org/Graphics/SVG/1.1/DTD/svg11.dtd">
<!-- Generated by graphviz version 2.43.0 (0)
 -->
<!-- Title: race Pages: 1 -->
<svg width="685pt" height="102pt"
 viewBox="0.00 0.00 685.00 102.00" xmlns="http://www.w3.org/2000/svg" xmlns:xlink="http://www.w3.org/1999/xlink">
<g id="graph0" class="graph" transform="scale(1 1) rotate(0) translate(4 98)">
<title>race</title>
<polygon fill="white" stroke="transparent" points="-4,4 -4,-98 681,-98 681,4 -4,4"/>
<!-- __field__ -->
<g id="node1" class="node">
<title>__field__</title>
<path fill="#fef9c3" stroke="#ca8a04" stroke-width="2" d="M665,-65C665,-65 417,-65 417,-65 411,-65 405,-59 405,-53 405,-53 405,-41 405,-41 405,-35 411,-29 417,-29 417,-29 665,-29 665,-29 671,-29 677,-35 677,-41 677,-41 677,-53 677,-53 677,-59 671,-65 665,-65"/>
<text text-anchor="middle" x="541" y="-44.2" font-family="Helvetica,sans-Serif" font-size="11.00">StorageManagerService.mPrimaryStorageUuid</text>
</g>
<!-- __guard__ -->
<g id="node2" class="node">
<title>__guard__</title>
<path fill="#dcfce7" stroke="#16a34a" stroke-width="2" d="M221,-94C221,-94 58,-94 58,-94 52,-94 46,-88 46,-82 46,-82 46,-70 46,-70 46,-64 52,-58 58,-58 58,-58 221,-58 221,-58 227,-58 233,-64 233,-70 233,-70 233,-82 233,-82 233,-88 227,-94 221,-94"/>
<text text-anchor="middle" x="139.5" y="-73.2" font-family="Helvetica,sans-Serif" font-size="11.00">StorageManagerService.mLock</text>
</g>
<!-- __guard__&#45;&gt;__field__ -->
<g id="edge1" class="edge">
<title>__guard__&#45;&gt;__field__</title>
<path fill="none" stroke="#16a34a" stroke-width="1.6" d="M233.16,-69.27C281.71,-65.75 342.25,-61.35 396.69,-57.4"/>
<polygon fill="#16a34a" stroke="#16a34a" stroke-width="1.6" points="396.9,-60.2 404.68,-56.82 396.5,-54.61 396.9,-60.2"/>
<text text-anchor="middle" x="342" y="-66.8" font-family="Helvetica,sans-Serif" font-size="9.00" fill="#15803d"> guards 5/5</text>
</g>
<!-- m::com.android.server.StorageManagerService.setPrimaryStorageUuid:(Ljava/lang/String;Landroid/content/pm/IPackageMoveObserver;)V -->
<g id="node3" class="node">
<title>m::com.android.server.StorageManagerService.setPrimaryStorageUuid:(Ljava/lang/String;Landroid/content/pm/IPackageMoveObserver;)V</title>
<path fill="#fee2e2" stroke="#dc2626" d="M267,-36C267,-36 12,-36 12,-36 6,-36 0,-30 0,-24 0,-24 0,-12 0,-12 0,-6 6,0 12,0 12,0 267,0 267,0 273,0 279,-6 279,-12 279,-12 279,-24 279,-24 279,-30 273,-36 267,-36"/>
<text text-anchor="middle" x="139.5" y="-15.2" font-family="Helvetica,sans-Serif" font-size="11.00">StorageManagerService.setPrimaryStorageUuid</text>
</g>
<!-- m::com.android.server.StorageManagerService.setPrimaryStorageUuid:(Ljava/lang/String;Landroid/content/pm/IPackageMoveObserver;)V&#45;&gt;__field__ -->
<g id="edge2" class="edge">
<title>m::com.android.server.StorageManagerService.setPrimaryStorageUuid:(Ljava/lang/String;Landroid/content/pm/IPackageMoveObserver;)V&#45;&gt;__field__</title>
<path fill="none" stroke="#dc2626" d="M279.1,-28.06C317.08,-30.82 358.32,-33.81 396.56,-36.59"/>
<polygon fill="#dc2626" stroke="#dc2626" points="396.49,-39.39 404.67,-37.18 396.9,-33.8 396.49,-39.39"/>
<text text-anchor="middle" x="342" y="-37.8" font-family="Helvetica,sans-Serif" font-size="9.00" fill="#dc2626"> reads unguarded</text>
</g>
</g>
</svg>
