<?xml version="1.0" encoding="UTF-8" standalone="no"?>
<!DOCTYPE svg PUBLIC "-//W3C//DTD SVG 1.1//EN"
 "http://www.w3.org/Graphics/SVG/1.1/DTD/svg11.dtd">
<!-- Generated by graphviz version 2.43.0 (0)
 -->
<!-- Title: race Pages: 1 -->
<svg width="634pt" height="276pt"
 viewBox="0.00 0.00 634.00 276.00" xmlns="http://www.w3.org/2000/svg" xmlns:xlink="http://www.w3.org/1999/xlink">
<g id="graph0" class="graph" transform="scale(1 1) rotate(0) translate(4 272)">
<title>race</title>
<polygon fill="white" stroke="transparent" points="-4,4 -4,-272 630,-272 630,4 -4,4"/>
<!-- __field__ -->
<g id="node1" class="node">
<title>__field__</title>
<path fill="#fef9c3" stroke="#ca8a04" stroke-width="2" d="M614,-131C614,-131 416,-131 416,-131 410,-131 404,-125 404,-119 404,-119 404,-107 404,-107 404,-101 410,-95 416,-95 416,-95 614,-95 614,-95 620,-95 626,-101 626,-107 626,-107 626,-119 626,-119 626,-125 620,-131 614,-131"/>
<text text-anchor="middle" x="515" y="-110.2" font-family="Helvetica,sans-Serif" font-size="11.00">MediaSessionRecord.mPlaybackState</text>
</g>
<!-- __guard__ -->
<g id="node2" class="node">
<title>__guard__</title>
<path fill="#dcfce7" stroke="#16a34a" stroke-width="2" d="M211.5,-268C211.5,-268 66.5,-268 66.5,-268 60.5,-268 54.5,-262 54.5,-256 54.5,-256 54.5,-244 54.5,-244 54.5,-238 60.5,-232 66.5,-232 66.5,-232 211.5,-232 211.5,-232 217.5,-232 223.5,-238 223.5,-244 223.5,-244 223.5,-256 223.5,-256 223.5,-262 217.5,-268 211.5,-268"/>
<text text-anchor="middle" x="139" y="-247.2" font-family="Helvetica,sans-Serif" font-size="11.00">MediaSessionRecord.mLock</text>
</g>
<!-- __guard__&#45;&gt;__field__ -->
<g id="edge1" class="edge">
<title>__guard__&#45;&gt;__field__</title>
<path fill="none" stroke="#16a34a" stroke-width="1.6" d="M223.62,-235.54C241.75,-231.55 260.68,-226.71 278,-221 349.09,-197.59 427.29,-159.09 473.44,-134.93"/>
<polygon fill="#16a34a" stroke="#16a34a" stroke-width="1.6" points="474.79,-137.39 480.57,-131.19 472.18,-132.43 474.79,-137.39"/>
<text text-anchor="middle" x="341" y="-213.8" font-family="Helvetica,sans-Serif" font-size="9.00" fill="#15803d"> guards 2/2</text>
</g>
<!-- m::com.android.server.media.MediaSessionRecord.checkPlaybackActiveState:(Z)Z -->
<g id="node3" class="node">
<title>m::com.android.server.media.MediaSessionRecord.checkPlaybackActiveState:(Z)Z</title>
<path fill="#fee2e2" stroke="#dc2626" d="M266,-210C266,-210 12,-210 12,-210 6,-210 0,-204 0,-198 0,-198 0,-186 0,-186 0,-180 6,-174 12,-174 12,-174 266,-174 266,-174 272,-174 278,-180 278,-186 278,-186 278,-198 278,-198 278,-204 272,-210 266,-210"/>
<text text-anchor="middle" x="139" y="-189.2" font-family="Helvetica,sans-Serif" font-size="11.00">MediaSessionRecord.checkPlaybackActiveState</text>
</g>
<!-- m::com.android.server.media.MediaSessionRecord.checkPlaybackActiveState:(Z)Z&#45;&gt;__field__ -->
<g id="edge2" class="edge">
<title>m::com.android.server.media.MediaSessionRecord.checkPlaybackActiveState:(Z)Z&#45;&gt;__field__</title>
<path fill="none" stroke="#dc2626" d="M225.77,-174C243.06,-170.36 261.11,-166.56 278,-163 325.16,-153.05 377.62,-141.94 421.07,-132.72"/>
<polygon fill="#dc2626" stroke="#dc2626" points="421.83,-135.43 429.08,-131.03 420.67,-129.95 421.83,-135.43"/>
<text text-anchor="middle" x="341" y="-159.8" font-family="Helvetica,sans-Serif" font-size="9.00" fill="#dc2626"> reads unguarded</text>
</g>
<!-- m::com.android.server.media.MediaSessionRecord.dump:(Ljava/io/PrintWriter;Ljava/lang/String;)V -->
<g id="node4" class="node">
<title>m::com.android.server.media.MediaSessionRecord.dump:(Ljava/io/PrintWriter;Ljava/lang/String;)V</title>
<path fill="#fee2e2" stroke="#dc2626" d="M209,-152C209,-152 69,-152 69,-152 63,-152 57,-146 57,-140 57,-140 57,-128 57,-128 57,-122 63,-116 69,-116 69,-116 209,-116 209,-116 215,-116 221,-122 221,-128 221,-128 221,-140 221,-140 221,-146 215,-152 209,-152"/>
<text text-anchor="middle" x="139" y="-131.2" font-family="Helvetica,sans-Serif" font-size="11.00">MediaSessionRecord.dump</text>
</g>
<!-- m::com.android.server.media.MediaSessionRecord.dump:(Ljava/io/PrintWriter;Ljava/lang/String;)V&#45;&gt;__field__ -->
<g id="edge3" class="edge">
<title>m::com.android.server.media.MediaSessionRecord.dump:(Ljava/io/PrintWriter;Ljava/lang/String;)V&#45;&gt;__field__</title>
<path fill="none" stroke="#dc2626" d="M221.15,-129.44C272.14,-126.58 338.78,-122.84 395.61,-119.65"/>
<polygon fill="#dc2626" stroke="#dc2626" points="396.09,-122.43 403.92,-119.18 395.77,-116.83 396.09,-122.43"/>
<text text-anchor="middle" x="341" y="-126.8" font-family="Helvetica,sans-Serif" font-size="9.00" fill="#dc2626"> reads unguarded</text>
</g>
<!-- m::com.android.server.media.MediaSessionRecord.setActive:(Z)V -->
<g id="node5" class="node">
<title>m::com.android.server.media.MediaSessionRecord.setActive:(Z)V</title>
<path fill="#fee2e2" stroke="#dc2626" d="M219.5,-94C219.5,-94 58.5,-94 58.5,-94 52.5,-94 46.5,-88 46.5,-82 46.5,-82 46.5,-70 46.5,-70 46.5,-64 52.5,-58 58.5,-58 58.5,-58 219.5,-58 219.5,-58 225.5,-58 231.5,-64 231.5,-70 231.5,-70 231.5,-82 231.5,-82 231.5,-88 225.5,-94 219.5,-94"/>
<text text-anchor="middle" x="139" y="-73.2" font-family="Helvetica,sans-Serif" font-size="11.00">MediaSessionRecord.setActive</text>
</g>
<!-- m::com.android.server.media.MediaSessionRecord.setActive:(Z)V&#45;&gt;__field__ -->
<g id="edge4" class="edge">
<title>m::com.android.server.media.MediaSessionRecord.setActive:(Z)V&#45;&gt;__field__</title>
<path fill="none" stroke="#dc2626" d="M231.97,-85.1C281.34,-89.98 342.76,-96.06 395.65,-101.29"/>
<polygon fill="#dc2626" stroke="#dc2626" points="395.49,-104.09 403.73,-102.09 396.05,-98.52 395.49,-104.09"/>
<text text-anchor="middle" x="341" y="-100.8" font-family="Helvetica,sans-Serif" font-size="9.00" fill="#dc2626"> reads unguarded</text>
</g>
<!-- m::com.android.server.media.MediaSessionRecord.setPlaybackState:(Landroid/media/session/PlaybackState;)V -->
<g id="node6" class="node">
<title>m::com.android.server.media.MediaSessionRecord.setPlaybackState:(Landroid/media/session/PlaybackState;)V</title>
<path fill="#fee2e2" stroke="#dc2626" d="M241.5,-36C241.5,-36 36.5,-36 36.5,-36 30.5,-36 24.5,-30 24.5,-24 24.5,-24 24.5,-12 24.5,-12 24.5,-6 30.5,0 36.5,0 36.5,0 241.5,0 241.5,0 247.5,0 253.5,-6 253.5,-12 253.5,-12 253.5,-24 253.5,-24 253.5,-30 247.5,-36 241.5,-36"/>
<text text-anchor="middle" x="139" y="-15.2" font-family="Helvetica,sans-Serif" font-size="11.00">MediaSessionRecord.setPlaybackState</text>
</g>
<!-- m::com.android.server.media.MediaSessionRecord.setPlaybackState:(Landroid/media/session/PlaybackState;)V&#45;&gt;__field__ -->
<g id="edge5" class="edge">
<title>m::com.android.server.media.MediaSessionRecord.setPlaybackState:(Landroid/media/session/PlaybackState;)V&#45;&gt;__field__</title>
<path fill="none" stroke="#dc2626" d="M230.01,-36.03C246.04,-39.49 262.54,-43.22 278,-47 334.96,-60.93 398.99,-78.99 445.97,-92.7"/>
<polygon fill="#dc2626" stroke="#dc2626" points="445.19,-95.39 453.66,-94.95 446.76,-90.01 445.19,-95.39"/>
<text text-anchor="middle" x="341" y="-76.8" font-family="Helvetica,sans-Serif" font-size="9.00" fill="#dc2626"> reads unguarded</text>
</g>
<!-- m::com.android.server.media.MediaSessionRecord.setPlaybackState:(Landroid/media/session/PlaybackState;)V&#45;&gt;__field__ -->
<g id="edge6" class="edge">
<title>m::com.android.server.media.MediaSessionRecord.setPlaybackState:(Landroid/media/session/PlaybackState;)V&#45;&gt;__field__</title>
<path fill="none" stroke="#dc2626" d="M253.67,-17.28C294.84,-19.64 341.22,-25.4 382,-38 419.22,-49.5 457.46,-72.72 483.14,-90.29"/>
<polygon fill="#dc2626" stroke="#dc2626" points="481.54,-92.59 489.71,-94.85 484.73,-87.99 481.54,-92.59"/>
<text text-anchor="middle" x="341" y="-40.8" font-family="Helvetica,sans-Serif" font-size="9.00" fill="#dc2626"> reads unguarded</text>
</g>
</g>
</svg>
