<?xml version="1.0" encoding="UTF-8" standalone="no"?>
<!DOCTYPE svg PUBLIC "-//W3C//DTD SVG 1.1//EN"
 "http://www.w3.org/Graphics/SVG/1.1/DTD/svg11.dtd">
<!-- Generated by graphviz version 2.43.0 (0)
 -->
<!-- Title: race Pages: 1 -->
<svg width="800pt" height="102pt"
 viewBox="0.00 0.00 800.00 102.00" xmlns="http://www.w3.org/2000/svg" xmlns:xlink="http://www.w3.org/1999/xlink">
<g id="graph0" class="graph" transform="scale(1 1) rotate(0) translate(4 98)">
<title>race</title>
<polygon fill="white" stroke="transparent" points="-4,4 -4,-98 796,-98 796,4 -4,4"/>
<!-- __field__ -->
<g id="node1" class="node">
<title>__field__</title>
<path fill="#fef9c3" stroke="#ca8a04" stroke-width="2" d="M780,-65C780,-65 464,-65 464,-65 458,-65 452,-59 452,-53 452,-53 452,-41 452,-41 452,-35 458,-29 464,-29 464,-29 780,-29 780,-29 786,-29 792,-35 792,-41 792,-41 792,-53 792,-53 792,-59 786,-65 780,-65"/>
<text text-anchor="middle" x="622" y="-44.2" font-family="Helvetica,sans-Serif" font-size="11.00">WearableSensingManagerPerUserService.mRemoteService</text>
</g>
<!-- __guard__ -->
<g id="node2" class="node">
<title>__guard__</title>
<path fill="#dcfce7" stroke="#16a34a" stroke-width="2" d="M262,-94C262,-94 64,-94 64,-94 58,-94 52,-88 52,-82 52,-82 52,-70 52,-70 52,-64 58,-58 64,-58 64,-58 262,-58 262,-58 268,-58 274,-64 274,-70 274,-70 274,-82 274,-82 274,-88 268,-94 262,-94"/>
<text text-anchor="middle" x="163" y="-73.2" font-family="Helvetica,sans-Serif" font-size="11.00">AbstractMasterSystemService.mLock</text>
</g>
<!-- __guard__&#45;&gt;__field__ -->
<g id="edge1" class="edge">
<title>__guard__&#45;&gt;__field__</title>
<path fill="none" stroke="#16a34a" stroke-width="1.6" d="M274.04,-69.02C324.87,-65.79 386.51,-61.88 443.65,-58.25"/>
<polygon fill="#16a34a" stroke="#16a34a" stroke-width="1.6" points="443.87,-61.05 451.68,-57.74 443.52,-55.46 443.87,-61.05"/>
<text text-anchor="middle" x="389" y="-66.8" font-family="Helvetica,sans-Serif" font-size="9.00" fill="#15803d"> guards 2/2</text>
</g>
<!-- m::com.android.server.wearable.WearableSensingManagerPerUserService.destroyLocked:()V -->
<g id="node3" class="node">
<title>m::com.android.server.wearable.WearableSensingManagerPerUserService.destroyLocked:()V</title>
<path fill="#fee2e2" stroke="#dc2626" d="M314,-36C314,-36 12,-36 12,-36 6,-36 0,-30 0,-24 0,-24 0,-12 0,-12 0,-6 6,0 12,0 12,0 314,0 314,0 320,0 326,-6 326,-12 326,-12 326,-24 326,-24 326,-30 320,-36 314,-36"/>
<text text-anchor="middle" x="163" y="-15.2" font-family="Helvetica,sans-Serif" font-size="11.00">WearableSensingManagerPerUserService.destroyLocked</text>
</g>
<!-- m::com.android.server.wearable.WearableSensingManagerPerUserService.destroyLocked:()V&#45;&gt;__field__ -->
<g id="edge2" class="edge">
<title>m::com.android.server.wearable.WearableSensingManagerPerUserService.destroyLocked:()V&#45;&gt;__field__</title>
<path fill="none" stroke="#dc2626" d="M326.09,-28.29C364.18,-30.7 404.98,-33.29 443.71,-35.75"/>
<polygon fill="#dc2626" stroke="#dc2626" points="443.78,-38.56 451.94,-36.27 444.13,-32.97 443.78,-38.56"/>
<text text-anchor="middle" x="389" y="-36.8" font-family="Helvetica,sans-Serif" font-size="9.00" fill="#dc2626"> reads unguarded</text>
</g>
</g>
</svg>
