<?xml version="1.0" encoding="UTF-8" standalone="no"?>
<!DOCTYPE svg PUBLIC "-//W3C//DTD SVG 1.1//EN"
 "http://www.w3.org/Graphics/SVG/1.1/DTD/svg11.dtd">
<!-- Generated by graphviz version 2.43.0 (0)
 -->
<!-- Title: race Pages: 1 -->
<svg width="692pt" height="102pt"
 viewBox="0.00 0.00 692.00 102.00" xmlns="http://www.w3.org/2000/svg" xmlns:xlink="http://www.w3.org/1999/xlink">
<g id="graph0" class="graph" transform="scale(1 1) rotate(0) translate(4 98)">
<title>race</title>
<polygon fill="white" stroke="transparent" points="-4,4 -4,-98 688,-98 688,4 -4,4"/>
<!-- __field__ -->
<g id="node1" class="node">
<title>__field__</title>
<path fill="#fef9c3" stroke="#ca8a04" stroke-width="2" d="M672,-65C672,-65 401,-65 401,-65 395,-65 389,-59 389,-53 389,-53 389,-41 389,-41 389,-35 395,-29 401,-29 401,-29 672,-29 672,-29 678,-29 684,-35 684,-41 684,-41 684,-53 684,-53 684,-59 678,-65 672,-65"/>
<text text-anchor="middle" x="536.5" y="-44.2" font-family="Helvetica,sans-Serif" font-size="11.00">AudioService.mUserSelectedVolumeControlStream</text>
</g>
<!-- __guard__ -->
<g id="node2" class="node">
<title>__guard__</title>
<path fill="#dcfce7" stroke="#16a34a" stroke-width="2" d="M237.5,-94C237.5,-94 25.5,-94 25.5,-94 19.5,-94 13.5,-88 13.5,-82 13.5,-82 13.5,-70 13.5,-70 13.5,-64 19.5,-58 25.5,-58 25.5,-58 237.5,-58 237.5,-58 243.5,-58 249.5,-64 249.5,-70 249.5,-70 249.5,-82 249.5,-82 249.5,-88 243.5,-94 237.5,-94"/>
<text text-anchor="middle" x="131.5" y="-73.2" font-family="Helvetica,sans-Serif" font-size="11.00">AudioService.mForceControlStreamLock</text>
</g>
<!-- __guard__&#45;&gt;__field__ -->
<g id="edge1" class="edge">
<title>__guard__&#45;&gt;__field__</title>
<path fill="none" stroke="#16a34a" stroke-width="1.6" d="M249.61,-67.57C290.52,-64.63 337.09,-61.28 380.6,-58.15"/>
<polygon fill="#16a34a" stroke="#16a34a" stroke-width="1.6" points="380.91,-60.93 388.69,-57.56 380.51,-55.35 380.91,-60.93"/>
<text text-anchor="middle" x="326" y="-66.8" font-family="Helvetica,sans-Serif" font-size="9.00" fill="#15803d"> guards 2/2</text>
</g>
<!-- m::com.android.server.audio.AudioService.adjustSuggestedStreamVolume:(IIILjava/lang/String;Ljava/lang/String;IIZI)V -->
<g id="node3" class="node">
<title>m::com.android.server.audio.AudioService.adjustSuggestedStreamVolume:(IIILjava/lang/String;Ljava/lang/String;IIZI)V</title>
<path fill="#fee2e2" stroke="#dc2626" d="M251,-36C251,-36 12,-36 12,-36 6,-36 0,-30 0,-24 0,-24 0,-12 0,-12 0,-6 6,0 12,0 12,0 251,0 251,0 257,0 263,-6 263,-12 263,-12 263,-24 263,-24 263,-30 257,-36 251,-36"/>
<text text-anchor="middle" x="131.5" y="-15.2" font-family="Helvetica,sans-Serif" font-size="11.00">AudioService.adjustSuggestedStreamVolume</text>
</g>
<!-- m::com.android.server.audio.AudioService.adjustSuggestedStreamVolume:(IIILjava/lang/String;Ljava/lang/String;IIZI)V&#45;&gt;__field__ -->
<g id="edge2" class="edge">
<title>m::com.android.server.audio.AudioService.adjustSuggestedStreamVolume:(IIILjava/lang/String;Ljava/lang/String;IIZI)V&#45;&gt;__field__</title>
<path fill="none" stroke="#dc2626" d="M263.06,-27.4C300.52,-30.09 341.72,-33.06 380.49,-35.85"/>
<polygon fill="#dc2626" stroke="#dc2626" points="380.55,-38.66 388.73,-36.44 380.95,-33.07 380.55,-38.66"/>
<text text-anchor="middle" x="326" y="-36.8" font-family="Helvetica,sans-Serif" font-size="9.00" fill="#dc2626"> reads unguarded</text>
</g>
</g>
</svg>
