<?xml version="1.0" encoding="UTF-8" standalone="no"?>
<!DOCTYPE svg PUBLIC "-//W3C//DTD SVG 1.1//EN"
 "http://www.w3.org/Graphics/SVG/1.1/DTD/svg11.dtd">
<!-- Generated by graphviz version 2.43.0 (0)
 -->
<!-- Title: race Pages: 1 -->
<svg width="590pt" height="229pt"
 viewBox="0.00 0.00 590.00 229.00" xmlns="http://www.w3.org/2000/svg" xmlns:xlink="http://www.w3.org/1999/xlink">
<g id="graph0" class="graph" transform="scale(1 1) rotate(0) translate(4 225)">
<title>race</title>
<polygon fill="white" stroke="transparent" points="-4,4 -4,-225 586,-225 586,4 -4,4"/>
<!-- __field__ -->
<g id="node1" class="node">
<title>__field__</title>
<path fill="#fef9c3" stroke="#ca8a04" stroke-width="2" d="M570,-128C570,-128 365,-128 365,-128 359,-128 353,-122 353,-116 353,-116 353,-104 353,-104 353,-98 359,-92 365,-92 365,-92 570,-92 570,-92 576,-92 582,-98 582,-104 582,-104 582,-116 582,-116 582,-122 576,-128 570,-128"/>
<text text-anchor="middle" x="467.5" y="-107.2" font-family="Helvetica,sans-Serif" font-size="11.00">ThermalManagerService.mHalWrapper</text>
</g>
<!-- __guard__ -->
<g id="node2" class="node">
<title>__guard__</title>
<path fill="#dcfce7" stroke="#16a34a" stroke-width="2" d="M196,-221C196,-221 31,-221 31,-221 25,-221 19,-215 19,-209 19,-209 19,-197 19,-197 19,-191 25,-185 31,-185 31,-185 196,-185 196,-185 202,-185 208,-191 208,-197 208,-197 208,-209 208,-209 208,-215 202,-221 196,-221"/>
<text text-anchor="middle" x="113.5" y="-200.2" font-family="Helvetica,sans-Serif" font-size="11.00">ThermalManagerService.mLock</text>
</g>
<!-- __guard__&#45;&gt;__field__ -->
<g id="edge1" class="edge">
<title>__guard__&#45;&gt;__field__</title>
<path fill="none" stroke="#16a34a" stroke-width="1.6" d="M208.1,-185.76C246.45,-178.01 291.11,-168.11 331,-157 357.73,-149.56 386.87,-139.69 411.25,-130.91"/>
<polygon fill="#16a34a" stroke="#16a34a" stroke-width="1.6" points="412.42,-133.47 418.99,-128.11 410.51,-128.2 412.42,-133.47"/>
<text text-anchor="middle" x="290" y="-177.8" font-family="Helvetica,sans-Serif" font-size="9.00" fill="#15803d"> guards 4/4</text>
</g>
<!-- m::com.android.server.power.thermal.ThermalManagerService.dumpInternal:(Ljava/io/FileDescriptor;Ljava/io/PrintWriter;[Ljava/lang/String;)V -->
<g id="node3" class="node">
<title>m::com.android.server.power.thermal.ThermalManagerService.dumpInternal:(Ljava/io/FileDescriptor;Ljava/io/PrintWriter;[Ljava/lang/String;)V</title>
<path fill="#fee2e2" stroke="#dc2626" d="M215,-129C215,-129 12,-129 12,-129 6,-129 0,-123 0,-117 0,-117 0,-105 0,-105 0,-99 6,-93 12,-93 12,-93 215,-93 215,-93 221,-93 227,-99 227,-105 227,-105 227,-117 227,-117 227,-123 221,-129 215,-129"/>
<text text-anchor="middle" x="113.5" y="-108.2" font-family="Helvetica,sans-Serif" font-size="11.00">ThermalManagerService.dumpInternal</text>
</g>
<!-- m::com.android.server.power.thermal.ThermalManagerService.dumpInternal:(Ljava/io/FileDescriptor;Ljava/io/PrintWriter;[Ljava/lang/String;)V&#45;&gt;__field__ -->
<g id="edge2" class="edge">
<title>m::com.android.server.power.thermal.ThermalManagerService.dumpInternal:(Ljava/io/FileDescriptor;Ljava/io/PrintWriter;[Ljava/lang/String;)V&#45;&gt;__field__</title>
<path fill="none" stroke="#dc2626" d="M184.55,-129.05C205.16,-133.56 227.86,-137.75 249,-140 285.24,-143.86 294.77,-143.96 331,-140 350.58,-137.86 371.47,-134.03 390.83,-129.8"/>
<polygon fill="#dc2626" stroke="#dc2626" points="391.55,-132.51 398.75,-128.04 390.33,-127.05 391.55,-132.51"/>
<text text-anchor="middle" x="290" y="-144.8" font-family="Helvetica,sans-Serif" font-size="9.00" fill="#dc2626"> reads unguarded</text>
</g>
<!-- m::com.android.server.power.thermal.ThermalManagerService.dumpInternal:(Ljava/io/FileDescriptor;Ljava/io/PrintWriter;[Ljava/lang/String;)V&#45;&gt;__field__ -->
<g id="edge3" class="edge">
<title>m::com.android.server.power.thermal.ThermalManagerService.dumpInternal:(Ljava/io/FileDescriptor;Ljava/io/PrintWriter;[Ljava/lang/String;)V&#45;&gt;__field__</title>
<path fill="none" stroke="#dc2626" d="M227.33,-110.68C264.78,-110.57 306.64,-110.45 344.73,-110.35"/>
<polygon fill="#dc2626" stroke="#dc2626" points="344.81,-113.15 352.8,-110.32 344.79,-107.55 344.81,-113.15"/>
<text text-anchor="middle" x="290" y="-112.8" font-family="Helvetica,sans-Serif" font-size="9.00" fill="#dc2626"> reads unguarded</text>
</g>
<!-- m::com.android.server.power.thermal.ThermalManagerService.dumpInternal:(Ljava/io/FileDescriptor;Ljava/io/PrintWriter;[Ljava/lang/String;)V&#45;&gt;__field__ -->
<g id="edge4" class="edge">
<title>m::com.android.server.power.thermal.ThermalManagerService.dumpInternal:(Ljava/io/FileDescriptor;Ljava/io/PrintWriter;[Ljava/lang/String;)V&#45;&gt;__field__</title>
<path fill="none" stroke="#dc2626" d="M227.06,-96.62C234.48,-95.97 241.84,-95.42 249,-95 285.38,-92.84 294.61,-92.99 331,-95 335.43,-95.24 339.94,-95.53 344.49,-95.86"/>
<polygon fill="#dc2626" stroke="#dc2626" points="344.53,-98.67 352.72,-96.48 344.96,-93.09 344.53,-98.67"/>
<text text-anchor="middle" x="290" y="-97.8" font-family="Helvetica,sans-Serif" font-size="9.00" fill="#dc2626"> reads unguarded</text>
</g>
<!-- m::com.android.server.power.thermal.ThermalManagerService.dumpInternal:(Ljava/io/FileDescriptor;Ljava/io/PrintWriter;[Ljava/lang/String;)V&#45;&gt;__field__ -->
<g id="edge5" class="edge">
<title>m::com.android.server.power.thermal.ThermalManagerService.dumpInternal:(Ljava/io/FileDescriptor;Ljava/io/PrintWriter;[Ljava/lang/String;)V&#45;&gt;__field__</title>
<path fill="none" stroke="#dc2626" d="M174.52,-93C197.58,-86.95 224.3,-80.99 249,-78 285.18,-73.63 294.8,-73.78 331,-78 352.29,-80.48 375.09,-85.08 395.79,-90.04"/>
<polygon fill="#dc2626" stroke="#dc2626" points="395.18,-92.77 403.62,-91.95 396.51,-87.33 395.18,-92.77"/>
<text text-anchor="middle" x="290" y="-80.8" font-family="Helvetica,sans-Serif" font-size="9.00" fill="#dc2626"> reads unguarded</text>
</g>
<!-- m::com.android.server.power.thermal.ThermalManagerService.onPullAtom:(ILjava/util/List;)I -->
<g id="node4" class="node">
<title>m::com.android.server.power.thermal.ThermalManagerService.onPullAtom:(ILjava/util/List;)I</title>
<path fill="#fee2e2" stroke="#dc2626" d="M209.5,-36C209.5,-36 17.5,-36 17.5,-36 11.5,-36 5.5,-30 5.5,-24 5.5,-24 5.5,-12 5.5,-12 5.5,-6 11.5,0 17.5,0 17.5,0 209.5,0 209.5,0 215.5,0 221.5,-6 221.5,-12 221.5,-12 221.5,-24 221.5,-24 221.5,-30 215.5,-36 209.5,-36"/>
<text text-anchor="middle" x="113.5" y="-15.2" font-family="Helvetica,sans-Serif" font-size="11.00">ThermalManagerService.onPullAtom</text>
</g>
<!-- m::com.android.server.power.thermal.ThermalManagerService.onPullAtom:(ILjava/util/List;)I&#45;&gt;__field__ -->
<g id="edge6" class="edge">
<title>m::com.android.server.power.thermal.ThermalManagerService.onPullAtom:(ILjava/util/List;)I&#45;&gt;__field__</title>
<path fill="none" stroke="#dc2626" d="M221.61,-34.5C256.77,-40.92 295.83,-49.13 331,-59 359.84,-67.09 391.19,-78.7 416.47,-88.8"/>
<polygon fill="#dc2626" stroke="#dc2626" points="415.64,-91.49 424.11,-91.88 417.74,-86.29 415.64,-91.49"/>
<text text-anchor="middle" x="290" y="-61.8" font-family="Helvetica,sans-Serif" font-size="9.00" fill="#dc2626"> reads unguarded</text>
</g>
</g>
</svg>
