<?xml version="1.0" encoding="UTF-8" standalone="no"?>
<!DOCTYPE svg PUBLIC "-//W3C//DTD SVG 1.1//EN"
 "http://www.w3.org/Graphics/SVG/1.1/DTD/svg11.dtd">
<!-- Generated by graphviz version 2.43.0 (0)
 -->
<!-- Title: race Pages: 1 -->
<svg width="1155pt" height="102pt"
 viewBox="0.00 0.00 1155.00 102.00" xmlns="http://www.w3.org/2000/svg" xmlns:xlink="http://www.w3.org/1999/xlink">
<g id="graph0" class="graph" transform="scale(1 1) rotate(0) translate(4 98)">
<title>race</title>
<polygon fill="white" stroke="transparent" points="-4,4 -4,-98 1151,-98 1151,4 -4,4"/>
<!-- __field__ -->
<g id="node1" class="node">
<title>__field__</title>
<path fill="#fef9c3" stroke="#ca8a04" stroke-width="2" d="M1135,-65C1135,-65 635,-65 635,-65 629,-65 623,-59 623,-53 623,-53 623,-41 623,-41 623,-35 629,-29 635,-29 635,-29 1135,-29 1135,-29 1141,-29 1147,-35 1147,-41 1147,-41 1147,-53 1147,-53 1147,-59 1141,-65 1135,-65"/>
<text text-anchor="middle" x="885" y="-44.2" font-family="Helvetica,sans-Serif" font-size="11.00">RotationResolverShellCommand$TestableRotationCallbackInternal.mLastCallbackResultCode</text>
</g>
<!-- __guard__ -->
<g id="node2" class="node">
<title>__guard__</title>
<path fill="#dcfce7" stroke="#16a34a" stroke-width="2" d="M347.5,-94C347.5,-94 149.5,-94 149.5,-94 143.5,-94 137.5,-88 137.5,-82 137.5,-82 137.5,-70 137.5,-70 137.5,-64 143.5,-58 149.5,-58 149.5,-58 347.5,-58 347.5,-58 353.5,-58 359.5,-64 359.5,-70 359.5,-70 359.5,-82 359.5,-82 359.5,-88 353.5,-94 347.5,-94"/>
<text text-anchor="middle" x="248.5" y="-73.2" font-family="Helvetica,sans-Serif" font-size="11.00">AbstractMasterSystemService.mLock</text>
</g>
<!-- __guard__&#45;&gt;__field__ -->
<g id="edge1" class="edge">
<title>__guard__&#45;&gt;__field__</title>
<path fill="none" stroke="#16a34a" stroke-width="1.6" d="M359.66,-70.97C430.28,-67.74 525.21,-63.4 614.88,-59.3"/>
<polygon fill="#16a34a" stroke="#16a34a" stroke-width="1.6" points="615.13,-62.09 622.99,-58.93 614.87,-56.5 615.13,-62.09"/>
<text text-anchor="middle" x="560" y="-65.8" font-family="Helvetica,sans-Serif" font-size="9.00" fill="#15803d"> guards 2/2</text>
</g>
<!-- m::com.android.server.rotationresolver.RotationResolverShellCommand$TestableRotationCallbackInternal.getLastCallbackCode:()I -->
<g id="node3" class="node">
<title>m::com.android.server.rotationresolver.RotationResolverShellCommand$TestableRotationCallbackInternal.getLastCallbackCode:()I</title>
<path fill="#fee2e2" stroke="#dc2626" d="M485,-36C485,-36 12,-36 12,-36 6,-36 0,-30 0,-24 0,-24 0,-12 0,-12 0,-6 6,0 12,0 12,0 485,0 485,0 491,0 497,-6 497,-12 497,-12 497,-24 497,-24 497,-30 491,-36 485,-36"/>
<text text-anchor="middle" x="248.5" y="-15.2" font-family="Helvetica,sans-Serif" font-size="11.00">RotationResolverShellCommand$TestableRotationCallbackInternal.getLastCallbackCode</text>
</g>
<!-- m::com.android.server.rotationresolver.RotationResolverShellCommand$TestableRotationCallbackInternal.getLastCallbackCode:()I&#45;&gt;__field__ -->
<g id="edge2" class="edge">
<title>m::com.android.server.rotationresolver.RotationResolverShellCommand$TestableRotationCallbackInternal.getLastCallbackCode:()I&#45;&gt;__field__</title>
<path fill="none" stroke="#dc2626" d="M497.09,-29.32C535.64,-31.08 575.64,-32.91 614.65,-34.69"/>
<polygon fill="#dc2626" stroke="#dc2626" points="614.84,-37.5 622.96,-35.07 615.09,-31.91 614.84,-37.5"/>
<text text-anchor="middle" x="560" y="-35.8" font-family="Helvetica,sans-Serif" font-size="9.00" fill="#dc2626"> reads unguarded</text>
</g>
</g>
</svg>
