<?xml version="1.0" encoding="UTF-8" standalone="no"?>
<!DOCTYPE svg PUBLIC "-//W3C//DTD SVG 1.1//EN"
 "http://www.w3.org/Graphics/SVG/1.1/DTD/svg11.dtd">
<!-- Generated by graphviz version 2.43.0 (0)
 -->
<!-- Title: cycle Pages: 1 -->
<svg width="591pt" height="1029pt"
 viewBox="0.00 0.00 590.50 1029.00" xmlns="http://www.w3.org/2000/svg" xmlns:xlink="http://www.w3.org/1999/xlink">
<g id="graph0" class="graph" transform="scale(1 1) rotate(0) translate(4 1025)">
<title>cycle</title>
<polygon fill="white" stroke="transparent" points="-4,4 -4,-1025 586.5,-1025 586.5,4 -4,4"/>
<!-- com.android.server.display.DisplayPowerController.mLock -->
<g id="node1" class="node">
<title>com.android.server.display.DisplayPowerController.mLock</title>
<path fill="#fee2e2" stroke="#dc2626" stroke-width="2" d="M476,-1021C476,-1021 284,-1021 284,-1021 278,-1021 272,-1015 272,-1009 272,-1009 272,-997 272,-997 272,-991 278,-985 284,-985 284,-985 476,-985 476,-985 482,-985 488,-991 488,-997 488,-997 488,-1009 488,-1009 488,-1015 482,-1021 476,-1021"/>
<text text-anchor="middle" x="380" y="-999.6" font-family="Helvetica,sans-Serif" font-size="13.00">DisplayPowerController.mLock</text>
</g>
<!-- m::com.android.server.display.DisplayPowerController.stop:()V -->
<g id="node3" class="node">
<title>m::com.android.server.display.DisplayPowerController.stop:()V</title>
<path fill="#eef2ff" stroke="#a5b4fc" d="M386.5,-939C386.5,-939 239.5,-939 239.5,-939 233.5,-939 227.5,-933 227.5,-927 227.5,-927 227.5,-915 227.5,-915 227.5,-909 233.5,-903 239.5,-903 239.5,-903 386.5,-903 386.5,-903 392.5,-903 398.5,-909 398.5,-915 398.5,-915 398.5,-927 398.5,-927 398.5,-933 392.5,-939 386.5,-939"/>
<text text-anchor="middle" x="313" y="-918.2" font-family="Helvetica,sans-Serif" font-size="11.00">DisplayPowerController.stop</text>
</g>
<!-- com.android.server.display.DisplayPowerController.mLock&#45;&gt;m::com.android.server.display.DisplayPowerController.stop:()V -->
<g id="edge1" class="edge">
<title>com.android.server.display.DisplayPowerController.mLock&#45;&gt;m::com.android.server.display.DisplayPowerController.stop:()V</title>
<path fill="none" stroke="#dc2626" stroke-width="1.6" d="M365.46,-984.64C355.83,-973.14 343.07,-957.9 332.55,-945.34"/>
<polygon fill="#dc2626" stroke="#dc2626" stroke-width="1.6" points="334.56,-943.39 327.28,-939.05 330.27,-946.98 334.56,-943.39"/>
<text text-anchor="middle" x="365" y="-959.8" font-family="Helvetica,sans-Serif" font-size="9.00" fill="#dc2626"> holds</text>
</g>
<!-- com.android.server.display.brightness.DisplayBrightnessController.mLock -->
<g id="node2" class="node">
<title>com.android.server.display.brightness.DisplayBrightnessController.mLock</title>
<path fill="#fee2e2" stroke="#dc2626" stroke-width="2" d="M336,-711C336,-711 114,-711 114,-711 108,-711 102,-705 102,-699 102,-699 102,-687 102,-687 102,-681 108,-675 114,-675 114,-675 336,-675 336,-675 342,-675 348,-681 348,-687 348,-687 348,-699 348,-699 348,-705 342,-711 336,-711"/>
<text text-anchor="middle" x="225" y="-689.6" font-family="Helvetica,sans-Serif" font-size="13.00">DisplayBrightnessController.mLock</text>
</g>
<!-- m::com.android.server.display.brightness.DisplayBrightnessController.updateBrightness:(Landroid/hardware/display/DisplayManagerInternal$DisplayPowerRequest;ILandroid/hardware/display/DisplayManagerInternal$DisplayOffloadSession;Z)Lcom/android/server/display/DisplayBrightnessState; -->
<g id="node6" class="node">
<title>m::com.android.server.display.brightness.DisplayBrightnessController.updateBrightness:(Landroid/hardware/display/DisplayManagerInternal$DisplayPowerRequest;ILandroid/hardware/display/DisplayManagerInternal$DisplayOffloadSession;Z)Lcom/android/server/display/DisplayBrightnessState;</title>
<path fill="#eef2ff" stroke="#a5b4fc" d="M346.5,-629C346.5,-629 101.5,-629 101.5,-629 95.5,-629 89.5,-623 89.5,-617 89.5,-617 89.5,-605 89.5,-605 89.5,-599 95.5,-593 101.5,-593 101.5,-593 346.5,-593 346.5,-593 352.5,-593 358.5,-599 358.5,-605 358.5,-605 358.5,-617 358.5,-617 358.5,-623 352.5,-629 346.5,-629"/>
<text text-anchor="middle" x="224" y="-608.2" font-family="Helvetica,sans-Serif" font-size="11.00">DisplayBrightnessController.updateBrightness</text>
</g>
<!-- com.android.server.display.brightness.DisplayBrightnessController.mLock&#45;&gt;m::com.android.server.display.brightness.DisplayBrightnessController.updateBrightness:(Landroid/hardware/display/DisplayManagerInternal$DisplayPowerRequest;ILandroid/hardware/display/DisplayManagerInternal$DisplayOffloadSession;Z)Lcom/android/server/display/DisplayBrightnessState; -->
<g id="edge5" class="edge">
<title>com.android.server.display.brightness.DisplayBrightnessController.mLock&#45;&gt;m::com.android.server.display.brightness.DisplayBrightnessController.updateBrightness:(Landroid/hardware/display/DisplayManagerInternal$DisplayPowerRequest;ILandroid/hardware/display/DisplayManagerInternal$DisplayOffloadSession;Z)Lcom/android/server/display/DisplayBrightnessState;</title>
<path fill="none" stroke="#dc2626" stroke-width="1.6" d="M224.78,-674.64C224.65,-663.66 224.47,-649.29 224.31,-637.09"/>
<polygon fill="#dc2626" stroke="#dc2626" stroke-width="1.6" points="227.11,-637.01 224.21,-629.05 221.51,-637.08 227.11,-637.01"/>
<text text-anchor="middle" x="239" y="-649.8" font-family="Helvetica,sans-Serif" font-size="9.00" fill="#dc2626"> holds</text>
</g>
<!-- m::com.android.server.display.brightness.DisplayBrightnessController.stop:()V -->
<g id="node4" class="node">
<title>m::com.android.server.display.brightness.DisplayBrightnessController.stop:()V</title>
<path fill="#eef2ff" stroke="#a5b4fc" d="M374.5,-866C374.5,-866 201.5,-866 201.5,-866 195.5,-866 189.5,-860 189.5,-854 189.5,-854 189.5,-842 189.5,-842 189.5,-836 195.5,-830 201.5,-830 201.5,-830 374.5,-830 374.5,-830 380.5,-830 386.5,-836 386.5,-842 386.5,-842 386.5,-854 386.5,-854 386.5,-860 380.5,-866 374.5,-866"/>
<text text-anchor="middle" x="288" y="-845.2" font-family="Helvetica,sans-Serif" font-size="11.00">DisplayBrightnessController.stop</text>
</g>
<!-- m::com.android.server.display.DisplayPowerController.stop:()V&#45;&gt;m::com.android.server.display.brightness.DisplayBrightnessController.stop:()V -->
<g id="edge2" class="edge">
<title>m::com.android.server.display.DisplayPowerController.stop:()V&#45;&gt;m::com.android.server.display.brightness.DisplayBrightnessController.stop:()V</title>
<path fill="none" stroke="#64748b" d="M306.95,-902.81C303.88,-894.09 300.09,-883.34 296.71,-873.75"/>
<polygon fill="#64748b" stroke="#64748b" points="299.29,-872.64 294,-866.03 294.01,-874.5 299.29,-872.64"/>
</g>
<!-- m::com.android.server.display.brightness.DisplayBrightnessController.getAutoBrightnessFallbackStrategy:()Lcom/android/server/display/brightness/strategy/AutoBrightnessFallbackStrategy; -->
<g id="node5" class="node">
<title>m::com.android.server.display.brightness.DisplayBrightnessController.getAutoBrightnessFallbackStrategy:()Lcom/android/server/display/brightness/strategy/AutoBrightnessFallbackStrategy;</title>
<path fill="#eef2ff" stroke="#a5b4fc" d="M395.5,-793C395.5,-793 54.5,-793 54.5,-793 48.5,-793 42.5,-787 42.5,-781 42.5,-781 42.5,-769 42.5,-769 42.5,-763 48.5,-757 54.5,-757 54.5,-757 395.5,-757 395.5,-757 401.5,-757 407.5,-763 407.5,-769 407.5,-769 407.5,-781 407.5,-781 407.5,-787 401.5,-793 395.5,-793"/>
<text text-anchor="middle" x="225" y="-772.2" font-family="Helvetica,sans-Serif" font-size="11.00">DisplayBrightnessController.getAutoBrightnessFallbackStrategy</text>
</g>
<!-- m::com.android.server.display.brightness.DisplayBrightnessController.stop:()V&#45;&gt;m::com.android.server.display.brightness.DisplayBrightnessController.getAutoBrightnessFallbackStrategy:()Lcom/android/server/display/brightness/strategy/AutoBrightnessFallbackStrategy; -->
<g id="edge3" class="edge">
<title>m::com.android.server.display.brightness.DisplayBrightnessController.stop:()V&#45;&gt;m::com.android.server.display.brightness.DisplayBrightnessController.getAutoBrightnessFallbackStrategy:()Lcom/android/server/display/brightness/strategy/AutoBrightnessFallbackStrategy;</title>
<path fill="none" stroke="#64748b" d="M272.75,-829.81C264.55,-820.57 254.32,-809.04 245.44,-799.03"/>
<polygon fill="#64748b" stroke="#64748b" points="247.51,-797.15 240.11,-793.03 243.33,-800.87 247.51,-797.15"/>
</g>
<!-- m::com.android.server.display.brightness.DisplayBrightnessController.getAutoBrightnessFallbackStrategy:()Lcom/android/server/display/brightness/strategy/AutoBrightnessFallbackStrategy;&#45;&gt;com.android.server.display.brightness.DisplayBrightnessController.mLock -->
<g id="edge4" class="edge">
<title>m::com.android.server.display.brightness.DisplayBrightnessController.getAutoBrightnessFallbackStrategy:()Lcom/android/server/display/brightness/strategy/AutoBrightnessFallbackStrategy;&#45;&gt;com.android.server.display.brightness.DisplayBrightnessController.mLock</title>
<path fill="none" stroke="#dc2626" stroke-width="1.6" d="M225,-756.64C225,-745.66 225,-731.29 225,-719.09"/>
<polygon fill="#dc2626" stroke="#dc2626" stroke-width="1.6" points="227.8,-719.05 225,-711.05 222.2,-719.05 227.8,-719.05"/>
<text text-anchor="middle" x="246" y="-731.8" font-family="Helvetica,sans-Serif" font-size="9.00" fill="#dc2626"> acquires</text>
</g>
<!-- m::com.android.server.display.brightness.DisplayBrightnessStrategySelector.selectStrategy:(Lcom/android/server/display/brightness/StrategySelectionRequest;)Lcom/android/server/display/brightness/strategy/DisplayBrightnessStrategy; -->
<g id="node7" class="node">
<title>m::com.android.server.display.brightness.DisplayBrightnessStrategySelector.selectStrategy:(Lcom/android/server/display/brightness/StrategySelectionRequest;)Lcom/android/server/display/brightness/strategy/DisplayBrightnessStrategy;</title>
<path fill="#eef2ff" stroke="#a5b4fc" d="M353.5,-556C353.5,-556 86.5,-556 86.5,-556 80.5,-556 74.5,-550 74.5,-544 74.5,-544 74.5,-532 74.5,-532 74.5,-526 80.5,-520 86.5,-520 86.5,-520 353.5,-520 353.5,-520 359.5,-520 365.5,-526 365.5,-532 365.5,-532 365.5,-544 365.5,-544 365.5,-550 359.5,-556 353.5,-556"/>
<text text-anchor="middle" x="220" y="-535.2" font-family="Helvetica,sans-Serif" font-size="11.00">DisplayBrightnessStrategySelector.selectStrategy</text>
</g>
<!-- m::com.android.server.display.brightness.DisplayBrightnessController.updateBrightness:(Landroid/hardware/display/DisplayManagerInternal$DisplayPowerRequest;ILandroid/hardware/display/DisplayManagerInternal$DisplayOffloadSession;Z)Lcom/android/server/display/DisplayBrightnessState;&#45;&gt;m::com.android.server.display.brightness.DisplayBrightnessStrategySelector.selectStrategy:(Lcom/android/server/display/brightness/StrategySelectionRequest;)Lcom/android/server/display/brightness/strategy/DisplayBrightnessStrategy; -->
<g id="edge6" class="edge">
<title>m::com.android.server.display.brightness.DisplayBrightnessController.updateBrightness:(Landroid/hardware/display/DisplayManagerInternal$DisplayPowerRequest;ILandroid/hardware/display/DisplayManagerInternal$DisplayOffloadSession;Z)Lcom/android/server/display/DisplayBrightnessState;&#45;&gt;m::com.android.server.display.brightness.DisplayBrightnessStrategySelector.selectStrategy:(Lcom/android/server/display/brightness/StrategySelectionRequest;)Lcom/android/server/display/brightness/strategy/DisplayBrightnessStrategy;</title>
<path fill="none" stroke="#64748b" d="M223.03,-592.81C222.55,-584.18 221.95,-573.56 221.41,-564.03"/>
<polygon fill="#64748b" stroke="#64748b" points="224.21,-563.86 220.96,-556.03 218.61,-564.17 224.21,-563.86"/>
</g>
<!-- m::com.android.server.display.brightness.DisplayBrightnessStrategySelector.isAutomaticBrightnessStrategyValid:(Lcom/android/server/display/brightness/StrategySelectionRequest;)Z -->
<g id="node8" class="node">
<title>m::com.android.server.display.brightness.DisplayBrightnessStrategySelector.isAutomaticBrightnessStrategyValid:(Lcom/android/server/display/brightness/StrategySelectionRequest;)Z</title>
<path fill="#eef2ff" stroke="#a5b4fc" d="M396,-474C396,-474 12,-474 12,-474 6,-474 0,-468 0,-462 0,-462 0,-450 0,-450 0,-444 6,-438 12,-438 12,-438 396,-438 396,-438 402,-438 408,-444 408,-450 408,-450 408,-462 408,-462 408,-468 402,-474 396,-474"/>
<text text-anchor="middle" x="204" y="-453.2" font-family="Helvetica,sans-Serif" font-size="11.00">DisplayBrightnessStrategySelector.isAutomaticBrightnessStrategyValid</text>
</g>
<!-- m::com.android.server.display.brightness.DisplayBrightnessStrategySelector.selectStrategy:(Lcom/android/server/display/brightness/StrategySelectionRequest;)Lcom/android/server/display/brightness/strategy/DisplayBrightnessStrategy;&#45;&gt;m::com.android.server.display.brightness.DisplayBrightnessStrategySelector.isAutomaticBrightnessStrategyValid:(Lcom/android/server/display/brightness/StrategySelectionRequest;)Z -->
<g id="edge7" class="edge">
<title>m::com.android.server.display.brightness.DisplayBrightnessStrategySelector.selectStrategy:(Lcom/android/server/display/brightness/StrategySelectionRequest;)Lcom/android/server/display/brightness/strategy/DisplayBrightnessStrategy;&#45;&gt;m::com.android.server.display.brightness.DisplayBrightnessStrategySelector.isAutomaticBrightnessStrategyValid:(Lcom/android/server/display/brightness/StrategySelectionRequest;)Z</title>
<path fill="none" stroke="#64748b" d="M216.53,-519.64C214.33,-508.66 211.46,-494.29 209.02,-482.09"/>
<polygon fill="#64748b" stroke="#64748b" points="211.72,-481.35 207.41,-474.05 206.23,-482.44 211.72,-481.35"/>
</g>
<!-- m::com.android.server.display.brightness.strategy.AutomaticBrightnessStrategy.setAutoBrightnessState:(IZIIZFZZ)V -->
<g id="node9" class="node">
<title>m::com.android.server.display.brightness.strategy.AutomaticBrightnessStrategy.setAutoBrightnessState:(IZIIZFZZ)V</title>
<path fill="#eef2ff" stroke="#a5b4fc" d="M347.5,-401C347.5,-401 60.5,-401 60.5,-401 54.5,-401 48.5,-395 48.5,-389 48.5,-389 48.5,-377 48.5,-377 48.5,-371 54.5,-365 60.5,-365 60.5,-365 347.5,-365 347.5,-365 353.5,-365 359.5,-371 359.5,-377 359.5,-377 359.5,-389 359.5,-389 359.5,-395 353.5,-401 347.5,-401"/>
<text text-anchor="middle" x="204" y="-380.2" font-family="Helvetica,sans-Serif" font-size="11.00">AutomaticBrightnessStrategy.setAutoBrightnessState</text>
</g>
<!-- m::com.android.server.display.brightness.DisplayBrightnessStrategySelector.isAutomaticBrightnessStrategyValid:(Lcom/android/server/display/brightness/StrategySelectionRequest;)Z&#45;&gt;m::com.android.server.display.brightness.strategy.AutomaticBrightnessStrategy.setAutoBrightnessState:(IZIIZFZZ)V -->
<g id="edge8" class="edge">
<title>m::com.android.server.display.brightness.DisplayBrightnessStrategySelector.isAutomaticBrightnessStrategyValid:(Lcom/android/server/display/brightness/StrategySelectionRequest;)Z&#45;&gt;m::com.android.server.display.brightness.strategy.AutomaticBrightnessStrategy.setAutoBrightnessState:(IZIIZFZZ)V</title>
<path fill="none" stroke="#64748b" d="M204,-437.81C204,-429.18 204,-418.56 204,-409.03"/>
<polygon fill="#64748b" stroke="#64748b" points="206.8,-409.03 204,-401.03 201.2,-409.03 206.8,-409.03"/>
</g>
<!-- m::com.android.server.display.brightness.strategy.AutomaticBrightnessStrategy.switchMode:(IZIZZ)V -->
<g id="node10" class="node">
<title>m::com.android.server.display.brightness.strategy.AutomaticBrightnessStrategy.switchMode:(IZIZZ)V</title>
<path fill="#eef2ff" stroke="#a5b4fc" d="M315,-328C315,-328 93,-328 93,-328 87,-328 81,-322 81,-316 81,-316 81,-304 81,-304 81,-298 87,-292 93,-292 93,-292 315,-292 315,-292 321,-292 327,-298 327,-304 327,-304 327,-316 327,-316 327,-322 321,-328 315,-328"/>
<text text-anchor="middle" x="204" y="-307.2" font-family="Helvetica,sans-Serif" font-size="11.00">AutomaticBrightnessStrategy.switchMode</text>
</g>
<!-- m::com.android.server.display.brightness.strategy.AutomaticBrightnessStrategy.setAutoBrightnessState:(IZIIZFZZ)V&#45;&gt;m::com.android.server.display.brightness.strategy.AutomaticBrightnessStrategy.switchMode:(IZIZZ)V -->
<g id="edge9" class="edge">
<title>m::com.android.server.display.brightness.strategy.AutomaticBrightnessStrategy.setAutoBrightnessState:(IZIIZFZZ)V&#45;&gt;m::com.android.server.display.brightness.strategy.AutomaticBrightnessStrategy.switchMode:(IZIZZ)V</title>
<path fill="none" stroke="#64748b" d="M204,-364.81C204,-356.18 204,-345.56 204,-336.03"/>
<polygon fill="#64748b" stroke="#64748b" points="206.8,-336.03 204,-328.03 201.2,-336.03 206.8,-336.03"/>
</g>
<!-- m::com.android.server.display.AutomaticBrightnessController.switchMode:(IZ)V -->
<g id="node11" class="node">
<title>m::com.android.server.display.AutomaticBrightnessController.switchMode:(IZ)V</title>
<path fill="#eef2ff" stroke="#a5b4fc" d="M322,-255C322,-255 92,-255 92,-255 86,-255 80,-249 80,-243 80,-243 80,-231 80,-231 80,-225 86,-219 92,-219 92,-219 322,-219 322,-219 328,-219 334,-225 334,-231 334,-231 334,-243 334,-243 334,-249 328,-255 322,-255"/>
<text text-anchor="middle" x="207" y="-234.2" font-family="Helvetica,sans-Serif" font-size="11.00">AutomaticBrightnessController.switchMode</text>
</g>
<!-- m::com.android.server.display.brightness.strategy.AutomaticBrightnessStrategy.switchMode:(IZIZZ)V&#45;&gt;m::com.android.server.display.AutomaticBrightnessController.switchMode:(IZ)V -->
<g id="edge10" class="edge">
<title>m::com.android.server.display.brightness.strategy.AutomaticBrightnessStrategy.switchMode:(IZIZZ)V&#45;&gt;m::com.android.server.display.AutomaticBrightnessController.switchMode:(IZ)V</title>
<path fill="none" stroke="#64748b" d="M204.73,-291.81C205.09,-283.18 205.54,-272.56 205.94,-263.03"/>
<polygon fill="#64748b" stroke="#64748b" points="208.74,-263.14 206.28,-255.03 203.15,-262.9 208.74,-263.14"/>
</g>
<!-- m::com.android.server.display.AutomaticBrightnessController.updateAutoBrightness:(ZZ)V -->
<g id="node12" class="node">
<title>m::com.android.server.display.AutomaticBrightnessController.updateAutoBrightness:(ZZ)V</title>
<path fill="#eef2ff" stroke="#a5b4fc" d="M362.5,-182C362.5,-182 75.5,-182 75.5,-182 69.5,-182 63.5,-176 63.5,-170 63.5,-170 63.5,-158 63.5,-158 63.5,-152 69.5,-146 75.5,-146 75.5,-146 362.5,-146 362.5,-146 368.5,-146 374.5,-152 374.5,-158 374.5,-158 374.5,-170 374.5,-170 374.5,-176 368.5,-182 362.5,-182"/>
<text text-anchor="middle" x="219" y="-161.2" font-family="Helvetica,sans-Serif" font-size="11.00">AutomaticBrightnessController.updateAutoBrightness</text>
</g>
<!-- m::com.android.server.display.AutomaticBrightnessController.switchMode:(IZ)V&#45;&gt;m::com.android.server.display.AutomaticBrightnessController.updateAutoBrightness:(ZZ)V -->
<g id="edge11" class="edge">
<title>m::com.android.server.display.AutomaticBrightnessController.switchMode:(IZ)V&#45;&gt;m::com.android.server.display.AutomaticBrightnessController.updateAutoBrightness:(ZZ)V</title>
<path fill="none" stroke="#64748b" d="M209.9,-218.81C211.36,-210.18 213.16,-199.56 214.77,-190.03"/>
<polygon fill="#64748b" stroke="#64748b" points="217.55,-190.38 216.12,-182.03 212.03,-189.45 217.55,-190.38"/>
</g>
<!-- m::com.android.server.display.DisplayPowerController.updateBrightness:()V -->
<g id="node13" class="node">
<title>m::com.android.server.display.DisplayPowerController.updateBrightness:()V</title>
<path fill="#eef2ff" stroke="#a5b4fc" d="M374,-109C374,-109 154,-109 154,-109 148,-109 142,-103 142,-97 142,-97 142,-85 142,-85 142,-79 148,-73 154,-73 154,-73 374,-73 374,-73 380,-73 386,-79 386,-85 386,-85 386,-97 386,-97 386,-103 380,-109 374,-109"/>
<text text-anchor="middle" x="264" y="-88.2" font-family="Helvetica,sans-Serif" font-size="11.00">DisplayPowerController.updateBrightness</text>
</g>
<!-- m::com.android.server.display.AutomaticBrightnessController.updateAutoBrightness:(ZZ)V&#45;&gt;m::com.android.server.display.DisplayPowerController.updateBrightness:()V -->
<g id="edge12" class="edge">
<title>m::com.android.server.display.AutomaticBrightnessController.updateAutoBrightness:(ZZ)V&#45;&gt;m::com.android.server.display.DisplayPowerController.updateBrightness:()V</title>
<path fill="none" stroke="#64748b" d="M229.89,-145.81C235.59,-136.83 242.65,-125.69 248.86,-115.89"/>
<polygon fill="#64748b" stroke="#64748b" points="251.29,-117.28 253.21,-109.03 246.56,-114.29 251.29,-117.28"/>
</g>
<!-- m::com.android.server.display.DisplayPowerController.sendUpdatePowerState:()V -->
<g id="node14" class="node">
<title>m::com.android.server.display.DisplayPowerController.sendUpdatePowerState:()V</title>
<path fill="#eef2ff" stroke="#a5b4fc" d="M570.5,-36C570.5,-36 319.5,-36 319.5,-36 313.5,-36 307.5,-30 307.5,-24 307.5,-24 307.5,-12 307.5,-12 307.5,-6 313.5,0 319.5,0 319.5,0 570.5,0 570.5,0 576.5,0 582.5,-6 582.5,-12 582.5,-12 582.5,-24 582.5,-24 582.5,-30 576.5,-36 570.5,-36"/>
<text text-anchor="middle" x="445" y="-15.2" font-family="Helvetica,sans-Serif" font-size="11.00">DisplayPowerController.sendUpdatePowerState</text>
</g>
<!-- m::com.android.server.display.DisplayPowerController.updateBrightness:()V&#45;&gt;m::com.android.server.display.DisplayPowerController.sendUpdatePowerState:()V -->
<g id="edge13" class="edge">
<title>m::com.android.server.display.DisplayPowerController.updateBrightness:()V&#45;&gt;m::com.android.server.display.DisplayPowerController.sendUpdatePowerState:()V</title>
<path fill="none" stroke="#64748b" d="M307.35,-72.99C333.36,-62.79 366.56,-49.77 393.85,-39.07"/>
<polygon fill="#64748b" stroke="#64748b" points="394.95,-41.64 401.37,-36.11 392.9,-36.43 394.95,-41.64"/>
</g>
<!-- m::com.android.server.display.DisplayPowerController.sendUpdatePowerState:()V&#45;&gt;com.android.server.display.DisplayPowerController.mLock -->
<g id="edge14" class="edge">
<title>m::com.android.server.display.DisplayPowerController.sendUpdatePowerState:()V&#45;&gt;com.android.server.display.DisplayPowerController.mLock</title>
<path fill="none" stroke="#dc2626" stroke-width="1.6" d="M445.38,-36.22C445.66,-50.59 446,-71.63 446,-90 446,-922 446,-922 446,-922 446,-945.21 429.27,-965.33 412.66,-979.58"/>
<polygon fill="#dc2626" stroke="#dc2626" stroke-width="1.6" points="410.51,-977.72 406.08,-984.94 414.05,-982.05 410.51,-977.72"/>
<text text-anchor="middle" x="467" y="-494.8" font-family="Helvetica,sans-Serif" font-size="9.00" fill="#dc2626"> acquires</text>
</g>
</g>
</svg>
