<?xml version="1.0" encoding="UTF-8" standalone="no"?>
<!DOCTYPE svg PUBLIC "-//W3C//DTD SVG 1.1//EN"
 "http://www.w3.org/Graphics/SVG/1.1/DTD/svg11.dtd">
<!-- Generated by graphviz version 2.43.0 (0)
 -->
<!-- Title: cycle Pages: 1 -->
<svg width="750pt" height="737pt"
 viewBox="0.00 0.00 750.00 737.00" xmlns="http://www.w3.org/2000/svg" xmlns:xlink="http://www.w3.org/1999/xlink">
<g id="graph0" class="graph" transform="scale(1 1) rotate(0) translate(4 733)">
<title>cycle</title>
<polygon fill="white" stroke="transparent" points="-4,4 -4,-733 746,-733 746,4 -4,4"/>
<!-- com.android.server.location.listeners.ListenerMultiplexer.mMultiplexerLock -->
<g id="node1" class="node">
<title>com.android.server.location.listeners.ListenerMultiplexer.mMultiplexerLock</title>
<path fill="#fee2e2" stroke="#dc2626" stroke-width="2" d="M600,-729C600,-729 362,-729 362,-729 356,-729 350,-723 350,-717 350,-717 350,-705 350,-705 350,-699 356,-693 362,-693 362,-693 600,-693 600,-693 606,-693 612,-699 612,-705 612,-705 612,-717 612,-717 612,-723 606,-729 600,-729"/>
<text text-anchor="middle" x="481" y="-707.6" font-family="Helvetica,sans-Serif" font-size="13.00">ListenerMultiplexer.mMultiplexerLock</text>
</g>
<!-- m::com.android.server.location.provider.LocationProviderManager.setMockProvider:(Lcom/android/server/location/provider/MockLocationProvider;)V -->
<g id="node3" class="node">
<title>m::com.android.server.location.provider.LocationProviderManager.setMockProvider:(Lcom/android/server/location/provider/MockLocationProvider;)V</title>
<path fill="#eef2ff" stroke="#a5b4fc" d="M512.5,-647C512.5,-647 285.5,-647 285.5,-647 279.5,-647 273.5,-641 273.5,-635 273.5,-635 273.5,-623 273.5,-623 273.5,-617 279.5,-611 285.5,-611 285.5,-611 512.5,-611 512.5,-611 518.5,-611 524.5,-617 524.5,-623 524.5,-623 524.5,-635 524.5,-635 524.5,-641 518.5,-647 512.5,-647"/>
<text text-anchor="middle" x="399" y="-626.2" font-family="Helvetica,sans-Serif" font-size="11.00">LocationProviderManager.setMockProvider</text>
</g>
<!-- com.android.server.location.listeners.ListenerMultiplexer.mMultiplexerLock&#45;&gt;m::com.android.server.location.provider.LocationProviderManager.setMockProvider:(Lcom/android/server/location/provider/MockLocationProvider;)V -->
<g id="edge1" class="edge">
<title>com.android.server.location.listeners.ListenerMultiplexer.mMultiplexerLock&#45;&gt;m::com.android.server.location.provider.LocationProviderManager.setMockProvider:(Lcom/android/server/location/provider/MockLocationProvider;)V</title>
<path fill="none" stroke="#dc2626" stroke-width="1.6" d="M463.21,-692.64C451.2,-680.92 435.23,-665.34 422.22,-652.65"/>
<polygon fill="#dc2626" stroke="#dc2626" stroke-width="1.6" points="424.16,-650.63 416.48,-647.05 420.25,-654.64 424.16,-650.63"/>
<text text-anchor="middle" x="459" y="-667.8" font-family="Helvetica,sans-Serif" font-size="9.00" fill="#dc2626"> holds</text>
</g>
<!-- com.android.server.location.provider.DelegateLocationProvider.mInitializationLock -->
<g id="node2" class="node">
<title>com.android.server.location.provider.DelegateLocationProvider.mInitializationLock</title>
<path fill="#fee2e2" stroke="#dc2626" stroke-width="2" d="M302,-118C302,-118 12,-118 12,-118 6,-118 0,-112 0,-106 0,-106 0,-94 0,-94 0,-88 6,-82 12,-82 12,-82 302,-82 302,-82 308,-82 314,-88 314,-94 314,-94 314,-106 314,-106 314,-112 308,-118 302,-118"/>
<text text-anchor="middle" x="157" y="-96.6" font-family="Helvetica,sans-Serif" font-size="13.00">DelegateLocationProvider.mInitializationLock</text>
</g>
<!-- m::com.android.server.location.provider.DelegateLocationProvider.initializeDelegate:()V -->
<g id="node10" class="node">
<title>m::com.android.server.location.provider.DelegateLocationProvider.initializeDelegate:()V</title>
<path fill="#eef2ff" stroke="#a5b4fc" d="M371.5,-36C371.5,-36 138.5,-36 138.5,-36 132.5,-36 126.5,-30 126.5,-24 126.5,-24 126.5,-12 126.5,-12 126.5,-6 132.5,0 138.5,0 138.5,0 371.5,0 371.5,0 377.5,0 383.5,-6 383.5,-12 383.5,-12 383.5,-24 383.5,-24 383.5,-30 377.5,-36 371.5,-36"/>
<text text-anchor="middle" x="255" y="-15.2" font-family="Helvetica,sans-Serif" font-size="11.00">DelegateLocationProvider.initializeDelegate</text>
</g>
<!-- com.android.server.location.provider.DelegateLocationProvider.mInitializationLock&#45;&gt;m::com.android.server.location.provider.DelegateLocationProvider.initializeDelegate:()V -->
<g id="edge9" class="edge">
<title>com.android.server.location.provider.DelegateLocationProvider.mInitializationLock&#45;&gt;m::com.android.server.location.provider.DelegateLocationProvider.initializeDelegate:()V</title>
<path fill="none" stroke="#dc2626" stroke-width="1.6" d="M178.26,-81.64C192.75,-69.82 212.05,-54.06 227.67,-41.31"/>
<polygon fill="#dc2626" stroke="#dc2626" stroke-width="1.6" points="229.69,-43.28 234.11,-36.05 226.15,-38.94 229.69,-43.28"/>
<text text-anchor="middle" x="226" y="-56.8" font-family="Helvetica,sans-Serif" font-size="9.00" fill="#dc2626"> holds</text>
</g>
<!-- m::com.android.server.location.provider.MockableLocationProvider.setMockProvider:(Lcom/android/server/location/provider/MockLocationProvider;)V -->
<g id="node4" class="node">
<title>m::com.android.server.location.provider.MockableLocationProvider.setMockProvider:(Lcom/android/server/location/provider/MockLocationProvider;)V</title>
<path fill="#eef2ff" stroke="#a5b4fc" d="M511.5,-574C511.5,-574 280.5,-574 280.5,-574 274.5,-574 268.5,-568 268.5,-562 268.5,-562 268.5,-550 268.5,-550 268.5,-544 274.5,-538 280.5,-538 280.5,-538 511.5,-538 511.5,-538 517.5,-538 523.5,-544 523.5,-550 523.5,-550 523.5,-562 523.5,-562 523.5,-568 517.5,-574 511.5,-574"/>
<text text-anchor="middle" x="396" y="-553.2" font-family="Helvetica,sans-Serif" font-size="11.00">MockableLocationProvider.setMockProvider</text>
</g>
<!-- m::com.android.server.location.provider.LocationProviderManager.setMockProvider:(Lcom/android/server/location/provider/MockLocationProvider;)V&#45;&gt;m::com.android.server.location.provider.MockableLocationProvider.setMockProvider:(Lcom/android/server/location/provider/MockLocationProvider;)V -->
<g id="edge2" class="edge">
<title>m::com.android.server.location.provider.LocationProviderManager.setMockProvider:(Lcom/android/server/location/provider/MockLocationProvider;)V&#45;&gt;m::com.android.server.location.provider.MockableLocationProvider.setMockProvider:(Lcom/android/server/location/provider/MockLocationProvider;)V</title>
<path fill="none" stroke="#64748b" d="M398.27,-610.81C397.91,-602.18 397.46,-591.56 397.06,-582.03"/>
<polygon fill="#64748b" stroke="#64748b" points="399.85,-581.9 396.72,-574.03 394.26,-582.14 399.85,-581.9"/>
</g>
<!-- m::com.android.server.location.provider.MockableLocationProvider.setProviderLocked:(Lcom/android/server/location/provider/AbstractLocationProvider;)V -->
<g id="node5" class="node">
<title>m::com.android.server.location.provider.MockableLocationProvider.setProviderLocked:(Lcom/android/server/location/provider/AbstractLocationProvider;)V</title>
<path fill="#eef2ff" stroke="#a5b4fc" d="M507.5,-492C507.5,-492 266.5,-492 266.5,-492 260.5,-492 254.5,-486 254.5,-480 254.5,-480 254.5,-468 254.5,-468 254.5,-462 260.5,-456 266.5,-456 266.5,-456 507.5,-456 507.5,-456 513.5,-456 519.5,-462 519.5,-468 519.5,-468 519.5,-480 519.5,-480 519.5,-486 513.5,-492 507.5,-492"/>
<text text-anchor="middle" x="387" y="-471.2" font-family="Helvetica,sans-Serif" font-size="11.00">MockableLocationProvider.setProviderLocked</text>
</g>
<!-- m::com.android.server.location.provider.MockableLocationProvider.setMockProvider:(Lcom/android/server/location/provider/MockLocationProvider;)V&#45;&gt;m::com.android.server.location.provider.MockableLocationProvider.setProviderLocked:(Lcom/android/server/location/provider/AbstractLocationProvider;)V -->
<g id="edge3" class="edge">
<title>m::com.android.server.location.provider.MockableLocationProvider.setMockProvider:(Lcom/android/server/location/provider/MockLocationProvider;)V&#45;&gt;m::com.android.server.location.provider.MockableLocationProvider.setProviderLocked:(Lcom/android/server/location/provider/AbstractLocationProvider;)V</title>
<path fill="none" stroke="#64748b" d="M394.05,-537.64C392.81,-526.66 391.2,-512.29 389.82,-500.09"/>
<polygon fill="#64748b" stroke="#64748b" points="392.6,-499.69 388.92,-492.05 387.03,-500.31 392.6,-499.69"/>
</g>
<!-- m::com.android.server.location.provider.AbstractLocationProvider.setState:(Ljava/util/function/UnaryOperator;)V -->
<g id="node6" class="node">
<title>m::com.android.server.location.provider.AbstractLocationProvider.setState:(Ljava/util/function/UnaryOperator;)V</title>
<path fill="#eef2ff" stroke="#a5b4fc" d="M445.5,-419C445.5,-419 264.5,-419 264.5,-419 258.5,-419 252.5,-413 252.5,-407 252.5,-407 252.5,-395 252.5,-395 252.5,-389 258.5,-383 264.5,-383 264.5,-383 445.5,-383 445.5,-383 451.5,-383 457.5,-389 457.5,-395 457.5,-395 457.5,-407 457.5,-407 457.5,-413 451.5,-419 445.5,-419"/>
<text text-anchor="middle" x="355" y="-398.2" font-family="Helvetica,sans-Serif" font-size="11.00">AbstractLocationProvider.setState</text>
</g>
<!-- m::com.android.server.location.provider.MockableLocationProvider.setProviderLocked:(Lcom/android/server/location/provider/AbstractLocationProvider;)V&#45;&gt;m::com.android.server.location.provider.AbstractLocationProvider.setState:(Ljava/util/function/UnaryOperator;)V -->
<g id="edge4" class="edge">
<title>m::com.android.server.location.provider.MockableLocationProvider.setProviderLocked:(Lcom/android/server/location/provider/AbstractLocationProvider;)V&#45;&gt;m::com.android.server.location.provider.AbstractLocationProvider.setState:(Ljava/util/function/UnaryOperator;)V</title>
<path fill="none" stroke="#64748b" d="M379.25,-455.81C375.28,-447 370.38,-436.13 366.02,-426.46"/>
<polygon fill="#64748b" stroke="#64748b" points="368.51,-425.17 362.67,-419.03 363.41,-427.47 368.51,-425.17"/>
</g>
<!-- m::com.android.server.location.provider.StationaryThrottlingLocationProvider.onStateChanged:(Lcom/android/server/location/provider/AbstractLocationProvider$State;Lcom/android/server/location/provider/AbstractLocationProvider$State;)V -->
<g id="node7" class="node">
<title>m::com.android.server.location.provider.StationaryThrottlingLocationProvider.onStateChanged:(Lcom/android/server/location/provider/AbstractLocationProvider$State;Lcom/android/server/location/provider/AbstractLocationProvider$State;)V</title>
<path fill="#eef2ff" stroke="#a5b4fc" d="M301.5,-346C301.5,-346 12.5,-346 12.5,-346 6.5,-346 0.5,-340 0.5,-334 0.5,-334 0.5,-322 0.5,-322 0.5,-316 6.5,-310 12.5,-310 12.5,-310 301.5,-310 301.5,-310 307.5,-310 313.5,-316 313.5,-322 313.5,-322 313.5,-334 313.5,-334 313.5,-340 307.5,-346 301.5,-346"/>
<text text-anchor="middle" x="157" y="-325.2" font-family="Helvetica,sans-Serif" font-size="11.00">StationaryThrottlingLocationProvider.onStateChanged</text>
</g>
<!-- m::com.android.server.location.provider.AbstractLocationProvider.setState:(Ljava/util/function/UnaryOperator;)V&#45;&gt;m::com.android.server.location.provider.StationaryThrottlingLocationProvider.onStateChanged:(Lcom/android/server/location/provider/AbstractLocationProvider$State;Lcom/android/server/location/provider/AbstractLocationProvider$State;)V -->
<g id="edge5" class="edge">
<title>m::com.android.server.location.provider.AbstractLocationProvider.setState:(Ljava/util/function/UnaryOperator;)V&#45;&gt;m::com.android.server.location.provider.StationaryThrottlingLocationProvider.onStateChanged:(Lcom/android/server/location/provider/AbstractLocationProvider$State;Lcom/android/server/location/provider/AbstractLocationProvider$State;)V</title>
<path fill="none" stroke="#64748b" d="M307.57,-382.99C279.01,-372.75 242.49,-359.66 212.58,-348.93"/>
<polygon fill="#64748b" stroke="#64748b" points="213.2,-346.18 204.73,-346.11 211.31,-351.45 213.2,-346.18"/>
</g>
<!-- m::com.android.server.location.provider.MockableLocationProvider$ListenerWrapper.onStateChanged:(Lcom/android/server/location/provider/AbstractLocationProvider$State;Lcom/android/server/location/provider/AbstractLocationProvider$State;)V -->
<g id="node11" class="node">
<title>m::com.android.server.location.provider.MockableLocationProvider$ListenerWrapper.onStateChanged:(Lcom/android/server/location/provider/AbstractLocationProvider$State;Lcom/android/server/location/provider/AbstractLocationProvider$State;)V</title>
<path fill="#eef2ff" stroke="#a5b4fc" d="M730,-346C730,-346 402,-346 402,-346 396,-346 390,-340 390,-334 390,-334 390,-322 390,-322 390,-316 396,-310 402,-310 402,-310 730,-310 730,-310 736,-310 742,-316 742,-322 742,-322 742,-334 742,-334 742,-340 736,-346 730,-346"/>
<text text-anchor="middle" x="566" y="-325.2" font-family="Helvetica,sans-Serif" font-size="11.00">MockableLocationProvider$ListenerWrapper.onStateChanged</text>
</g>
<!-- m::com.android.server.location.provider.AbstractLocationProvider.setState:(Ljava/util/function/UnaryOperator;)V&#45;&gt;m::com.android.server.location.provider.MockableLocationProvider$ListenerWrapper.onStateChanged:(Lcom/android/server/location/provider/AbstractLocationProvider$State;Lcom/android/server/location/provider/AbstractLocationProvider$State;)V -->
<g id="edge11" class="edge">
<title>m::com.android.server.location.provider.AbstractLocationProvider.setState:(Ljava/util/function/UnaryOperator;)V&#45;&gt;m::com.android.server.location.provider.MockableLocationProvider$ListenerWrapper.onStateChanged:(Lcom/android/server/location/provider/AbstractLocationProvider$State;Lcom/android/server/location/provider/AbstractLocationProvider$State;)V</title>
<path fill="none" stroke="#64748b" d="M405.54,-382.99C436.11,-372.71 475.22,-359.55 507.18,-348.79"/>
<polygon fill="#64748b" stroke="#64748b" points="508.45,-351.32 515.14,-346.11 506.67,-346.01 508.45,-351.32"/>
</g>
<!-- m::com.android.server.location.provider.DelegateLocationProvider.onStateChanged:(Lcom/android/server/location/provider/AbstractLocationProvider$State;Lcom/android/server/location/provider/AbstractLocationProvider$State;)V -->
<g id="node8" class="node">
<title>m::com.android.server.location.provider.DelegateLocationProvider.onStateChanged:(Lcom/android/server/location/provider/AbstractLocationProvider$State;Lcom/android/server/location/provider/AbstractLocationProvider$State;)V</title>
<path fill="#eef2ff" stroke="#a5b4fc" d="M271,-273C271,-273 43,-273 43,-273 37,-273 31,-267 31,-261 31,-261 31,-249 31,-249 31,-243 37,-237 43,-237 43,-237 271,-237 271,-237 277,-237 283,-243 283,-249 283,-249 283,-261 283,-261 283,-267 277,-273 271,-273"/>
<text text-anchor="middle" x="157" y="-252.2" font-family="Helvetica,sans-Serif" font-size="11.00">DelegateLocationProvider.onStateChanged</text>
</g>
<!-- m::com.android.server.location.provider.StationaryThrottlingLocationProvider.onStateChanged:(Lcom/android/server/location/provider/AbstractLocationProvider$State;Lcom/android/server/location/provider/AbstractLocationProvider$State;)V&#45;&gt;m::com.android.server.location.provider.DelegateLocationProvider.onStateChanged:(Lcom/android/server/location/provider/AbstractLocationProvider$State;Lcom/android/server/location/provider/AbstractLocationProvider$State;)V -->
<g id="edge6" class="edge">
<title>m::com.android.server.location.provider.StationaryThrottlingLocationProvider.onStateChanged:(Lcom/android/server/location/provider/AbstractLocationProvider$State;Lcom/android/server/location/provider/AbstractLocationProvider$State;)V&#45;&gt;m::com.android.server.location.provider.DelegateLocationProvider.onStateChanged:(Lcom/android/server/location/provider/AbstractLocationProvider$State;Lcom/android/server/location/provider/AbstractLocationProvider$State;)V</title>
<path fill="none" stroke="#64748b" d="M157,-309.81C157,-301.18 157,-290.56 157,-281.03"/>
<polygon fill="#64748b" stroke="#64748b" points="159.8,-281.03 157,-273.03 154.2,-281.03 159.8,-281.03"/>
</g>
<!-- m::com.android.server.location.provider.DelegateLocationProvider.waitForInitialization:()V -->
<g id="node9" class="node">
<title>m::com.android.server.location.provider.DelegateLocationProvider.waitForInitialization:()V</title>
<path fill="#eef2ff" stroke="#a5b4fc" d="M279.5,-200C279.5,-200 34.5,-200 34.5,-200 28.5,-200 22.5,-194 22.5,-188 22.5,-188 22.5,-176 22.5,-176 22.5,-170 28.5,-164 34.5,-164 34.5,-164 279.5,-164 279.5,-164 285.5,-164 291.5,-170 291.5,-176 291.5,-176 291.5,-188 291.5,-188 291.5,-194 285.5,-200 279.5,-200"/>
<text text-anchor="middle" x="157" y="-179.2" font-family="Helvetica,sans-Serif" font-size="11.00">DelegateLocationProvider.waitForInitialization</text>
</g>
<!-- m::com.android.server.location.provider.DelegateLocationProvider.onStateChanged:(Lcom/android/server/location/provider/AbstractLocationProvider$State;Lcom/android/server/location/provider/AbstractLocationProvider$State;)V&#45;&gt;m::com.android.server.location.provider.DelegateLocationProvider.waitForInitialization:()V -->
<g id="edge7" class="edge">
<title>m::com.android.server.location.provider.DelegateLocationProvider.onStateChanged:(Lcom/android/server/location/provider/AbstractLocationProvider$State;Lcom/android/server/location/provider/AbstractLocationProvider$State;)V&#45;&gt;m::com.android.server.location.provider.DelegateLocationProvider.waitForInitialization:()V</title>
<path fill="none" stroke="#64748b" d="M157,-236.81C157,-228.18 157,-217.56 157,-208.03"/>
<polygon fill="#64748b" stroke="#64748b" points="159.8,-208.03 157,-200.03 154.2,-208.03 159.8,-208.03"/>
</g>
<!-- m::com.android.server.location.provider.DelegateLocationProvider.waitForInitialization:()V&#45;&gt;com.android.server.location.provider.DelegateLocationProvider.mInitializationLock -->
<g id="edge8" class="edge">
<title>m::com.android.server.location.provider.DelegateLocationProvider.waitForInitialization:()V&#45;&gt;com.android.server.location.provider.DelegateLocationProvider.mInitializationLock</title>
<path fill="none" stroke="#dc2626" stroke-width="1.6" d="M157,-163.64C157,-152.66 157,-138.29 157,-126.09"/>
<polygon fill="#dc2626" stroke="#dc2626" stroke-width="1.6" points="159.8,-126.05 157,-118.05 154.2,-126.05 159.8,-126.05"/>
<text text-anchor="middle" x="178" y="-138.8" font-family="Helvetica,sans-Serif" font-size="9.00" fill="#dc2626"> acquires</text>
</g>
<!-- m::com.android.server.location.provider.DelegateLocationProvider.initializeDelegate:()V&#45;&gt;m::com.android.server.location.provider.AbstractLocationProvider.setState:(Ljava/util/function/UnaryOperator;)V -->
<g id="edge10" class="edge">
<title>m::com.android.server.location.provider.DelegateLocationProvider.initializeDelegate:()V&#45;&gt;m::com.android.server.location.provider.AbstractLocationProvider.setState:(Ljava/util/function/UnaryOperator;)V</title>
<path fill="none" stroke="#64748b" d="M299.81,-36.12C325.22,-49.05 352,-69.64 352,-99 352,-329 352,-329 352,-329 352,-344.08 352.68,-360.94 353.4,-374.45"/>
<polygon fill="#64748b" stroke="#64748b" points="350.62,-374.96 353.87,-382.79 356.21,-374.65 350.62,-374.96"/>
</g>
<!-- m::com.android.server.location.provider.MockableLocationProvider$ListenerWrapper.onStateChanged:(Lcom/android/server/location/provider/AbstractLocationProvider$State;Lcom/android/server/location/provider/AbstractLocationProvider$State;)V&#45;&gt;com.android.server.location.listeners.ListenerMultiplexer.mMultiplexerLock -->
<g id="edge12" class="edge">
<title>m::com.android.server.location.provider.MockableLocationProvider$ListenerWrapper.onStateChanged:(Lcom/android/server/location/provider/AbstractLocationProvider$State;Lcom/android/server/location/provider/AbstractLocationProvider$State;)V&#45;&gt;com.android.server.location.listeners.ListenerMultiplexer.mMultiplexerLock</title>
<path fill="none" stroke="#dc2626" stroke-width="1.6" d="M564.87,-346.21C564.02,-360.58 563,-381.62 563,-400 563,-630 563,-630 563,-630 563,-655.02 543.2,-674.76 523.07,-688.38"/>
<polygon fill="#dc2626" stroke="#dc2626" stroke-width="1.6" points="521.47,-686.08 516.25,-692.76 524.49,-690.79 521.47,-686.08"/>
<text text-anchor="middle" x="584" y="-512.8" font-family="Helvetica,sans-Serif" font-size="9.00" fill="#dc2626"> acquires</text>
</g>
</g>
</svg>
