<?xml version="1.0" encoding="UTF-8" standalone="no"?>
<!DOCTYPE svg PUBLIC "-//W3C//DTD SVG 1.1//EN"
 "http://www.w3.org/Graphics/SVG/1.1/DTD/svg11.dtd">
<!-- Generated by graphviz version 2.43.0 (0)
 -->
<!-- Title: cycle Pages: 1 -->
<svg width="885pt" height="1885pt"
 viewBox="0.00 0.00 885.00 1885.00" xmlns="http://www.w3.org/2000/svg" xmlns:xlink="http://www.w3.org/1999/xlink">
<g id="graph0" class="graph" transform="scale(1 1) rotate(0) translate(4 1881)">
<title>cycle</title>
<polygon fill="white" stroke="transparent" points="-4,4 -4,-1881 881,-1881 881,4 -4,4"/>
<!-- com.android.server.job.JobSchedulerService.mLock -->
<g id="node1" class="node">
<title>com.android.server.job.JobSchedulerService.mLock</title>
<path fill="#fee2e2" stroke="#dc2626" stroke-width="2" d="M791.5,-1877C791.5,-1877 616.5,-1877 616.5,-1877 610.5,-1877 604.5,-1871 604.5,-1865 604.5,-1865 604.5,-1853 604.5,-1853 604.5,-1847 610.5,-1841 616.5,-1841 616.5,-1841 791.5,-1841 791.5,-1841 797.5,-1841 803.5,-1847 803.5,-1853 803.5,-1853 803.5,-1865 803.5,-1865 803.5,-1871 797.5,-1877 791.5,-1877"/>
<text text-anchor="middle" x="704" y="-1855.6" font-family="Helvetica,sans-Serif" font-size="13.00">JobSchedulerService.mLock</text>
</g>
<!-- m::com.android.server.job.JobSchedulerService$3.onReceive:(Landroid/content/Context;Landroid/content/Intent;)V -->
<g id="node4" class="node">
<title>m::com.android.server.job.JobSchedulerService$3.onReceive:(Landroid/content/Context;Landroid/content/Intent;)V</title>
<path fill="#eef2ff" stroke="#a5b4fc" d="M663,-1795C663,-1795 485,-1795 485,-1795 479,-1795 473,-1789 473,-1783 473,-1783 473,-1771 473,-1771 473,-1765 479,-1759 485,-1759 485,-1759 663,-1759 663,-1759 669,-1759 675,-1765 675,-1771 675,-1771 675,-1783 675,-1783 675,-1789 669,-1795 663,-1795"/>
<text text-anchor="middle" x="574" y="-1774.2" font-family="Helvetica,sans-Serif" font-size="11.00">JobSchedulerService$3.onReceive</text>
</g>
<!-- com.android.server.job.JobSchedulerService.mLock&#45;&gt;m::com.android.server.job.JobSchedulerService$3.onReceive:(Landroid/content/Context;Landroid/content/Intent;)V -->
<g id="edge1" class="edge">
<title>com.android.server.job.JobSchedulerService.mLock&#45;&gt;m::com.android.server.job.JobSchedulerService$3.onReceive:(Landroid/content/Context;Landroid/content/Intent;)V</title>
<path fill="none" stroke="#dc2626" stroke-width="1.6" d="M656.15,-1840.9C644.56,-1835.87 632.5,-1829.85 622,-1823 612.55,-1816.83 603.24,-1808.72 595.38,-1801.08"/>
<polygon fill="#dc2626" stroke="#dc2626" stroke-width="1.6" points="597.3,-1799.05 589.66,-1795.38 593.35,-1803.01 597.3,-1799.05"/>
<text text-anchor="middle" x="636" y="-1815.8" font-family="Helvetica,sans-Serif" font-size="9.00" fill="#dc2626"> holds</text>
</g>
<!-- com.android.server.job.JobSchedulerService.mLock&#45;&gt;m::com.android.server.job.JobSchedulerService$3.onReceive:(Landroid/content/Context;Landroid/content/Intent;)V -->
<g id="edge15" class="edge">
<title>com.android.server.job.JobSchedulerService.mLock&#45;&gt;m::com.android.server.job.JobSchedulerService$3.onReceive:(Landroid/content/Context;Landroid/content/Intent;)V</title>
<path fill="none" stroke="#dc2626" stroke-width="1.6" d="M686.74,-1840.79C677.07,-1831.77 664.48,-1820.96 652,-1813 643.7,-1807.71 634.48,-1802.82 625.35,-1798.46"/>
<polygon fill="#dc2626" stroke="#dc2626" stroke-width="1.6" points="626.52,-1795.92 618.08,-1795.09 624.16,-1801 626.52,-1795.92"/>
<text text-anchor="middle" x="680" y="-1815.8" font-family="Helvetica,sans-Serif" font-size="9.00" fill="#dc2626"> holds</text>
</g>
<!-- com.android.server.job.JobServiceContext.mLock -->
<g id="node2" class="node">
<title>com.android.server.job.JobServiceContext.mLock</title>
<path fill="#fee2e2" stroke="#dc2626" stroke-width="2" d="M438,-793C438,-793 278,-793 278,-793 272,-793 266,-787 266,-781 266,-781 266,-769 266,-769 266,-763 272,-757 278,-757 278,-757 438,-757 438,-757 444,-757 450,-763 450,-769 450,-769 450,-781 450,-781 450,-787 444,-793 438,-793"/>
<text text-anchor="middle" x="358" y="-771.6" font-family="Helvetica,sans-Serif" font-size="13.00">JobServiceContext.mLock</text>
</g>
<!-- m::com.android.server.job.JobServiceContext$JobServiceHandler.handleMessage:(Landroid/os/Message;)V -->
<g id="node19" class="node">
<title>m::com.android.server.job.JobServiceContext$JobServiceHandler.handleMessage:(Landroid/os/Message;)V</title>
<path fill="#eef2ff" stroke="#a5b4fc" d="M487,-711C487,-711 199,-711 199,-711 193,-711 187,-705 187,-699 187,-699 187,-687 187,-687 187,-681 193,-675 199,-675 199,-675 487,-675 487,-675 493,-675 499,-681 499,-687 499,-687 499,-699 499,-699 499,-705 493,-711 487,-711"/>
<text text-anchor="middle" x="343" y="-690.2" font-family="Helvetica,sans-Serif" font-size="11.00">JobServiceContext$JobServiceHandler.handleMessage</text>
</g>
<!-- com.android.server.job.JobServiceContext.mLock&#45;&gt;m::com.android.server.job.JobServiceContext$JobServiceHandler.handleMessage:(Landroid/os/Message;)V -->
<g id="edge19" class="edge">
<title>com.android.server.job.JobServiceContext.mLock&#45;&gt;m::com.android.server.job.JobServiceContext$JobServiceHandler.handleMessage:(Landroid/os/Message;)V</title>
<path fill="none" stroke="#dc2626" stroke-width="1.6" d="M333.93,-756.7C328.69,-751.64 323.87,-745.66 321,-739 318.07,-732.2 319.53,-724.94 322.77,-718.28"/>
<polygon fill="#dc2626" stroke="#dc2626" stroke-width="1.6" points="325.21,-719.65 326.88,-711.34 320.4,-716.8 325.21,-719.65"/>
<text text-anchor="middle" x="335" y="-731.8" font-family="Helvetica,sans-Serif" font-size="9.00" fill="#dc2626"> holds</text>
</g>
<!-- com.android.server.job.JobServiceContext.mLock&#45;&gt;m::com.android.server.job.JobServiceContext$JobServiceHandler.handleMessage:(Landroid/os/Message;)V -->
<g id="edge24" class="edge">
<title>com.android.server.job.JobServiceContext.mLock&#45;&gt;m::com.android.server.job.JobServiceContext$JobServiceHandler.handleMessage:(Landroid/os/Message;)V</title>
<path fill="none" stroke="#dc2626" stroke-width="1.6" d="M355.62,-756.86C354.38,-748.44 352.76,-738.16 351,-729 350.38,-725.79 349.68,-722.42 348.96,-719.1"/>
<polygon fill="#dc2626" stroke="#dc2626" stroke-width="1.6" points="351.64,-718.23 347.15,-711.04 346.17,-719.46 351.64,-718.23"/>
<text text-anchor="middle" x="367" y="-731.8" font-family="Helvetica,sans-Serif" font-size="9.00" fill="#dc2626"> holds</text>
</g>
<!-- com.android.server.job.controllers.StateController.mLock -->
<g id="node3" class="node">
<title>com.android.server.job.controllers.StateController.mLock</title>
<path fill="#fee2e2" stroke="#dc2626" stroke-width="2" d="M413,-264C413,-264 273,-264 273,-264 267,-264 261,-258 261,-252 261,-252 261,-240 261,-240 261,-234 267,-228 273,-228 273,-228 413,-228 413,-228 419,-228 425,-234 425,-240 425,-240 425,-252 425,-252 425,-258 419,-264 413,-264"/>
<text text-anchor="middle" x="343" y="-242.6" font-family="Helvetica,sans-Serif" font-size="13.00">StateController.mLock</text>
</g>
<!-- m::com.android.server.job.controllers.BatteryController.lambda$onBatteryStateChangedLocked$0:()V -->
<g id="node26" class="node">
<title>m::com.android.server.job.controllers.BatteryController.lambda$onBatteryStateChangedLocked$0:()V</title>
<path fill="#eef2ff" stroke="#a5b4fc" d="M715,-182C715,-182 393,-182 393,-182 387,-182 381,-176 381,-170 381,-170 381,-158 381,-158 381,-152 387,-146 393,-146 393,-146 715,-146 715,-146 721,-146 727,-152 727,-158 727,-158 727,-170 727,-170 727,-176 721,-182 715,-182"/>
<text text-anchor="middle" x="554" y="-161.2" font-family="Helvetica,sans-Serif" font-size="11.00">BatteryController.lambda$onBatteryStateChangedLocked$0</text>
</g>
<!-- com.android.server.job.controllers.StateController.mLock&#45;&gt;m::com.android.server.job.controllers.BatteryController.lambda$onBatteryStateChangedLocked$0:()V -->
<g id="edge31" class="edge">
<title>com.android.server.job.controllers.StateController.mLock&#45;&gt;m::com.android.server.job.controllers.BatteryController.lambda$onBatteryStateChangedLocked$0:()V</title>
<path fill="none" stroke="#dc2626" stroke-width="1.6" d="M388.01,-227.94C421.2,-215.35 466.46,-198.19 501.34,-184.97"/>
<polygon fill="#dc2626" stroke="#dc2626" stroke-width="1.6" points="502.58,-187.49 509.06,-182.04 500.59,-182.26 502.58,-187.49"/>
<text text-anchor="middle" x="476" y="-202.8" font-family="Helvetica,sans-Serif" font-size="9.00" fill="#dc2626"> holds</text>
</g>
<!-- m::com.android.server.job.JobSchedulerService.&#45;$$Nest$mcancelJobsForPackageAndUidLocked:(Lcom/android/server/job/JobSchedulerService;Ljava/lang/String;IZZIILjava/lang/String;)V -->
<g id="node5" class="node">
<title>m::com.android.server.job.JobSchedulerService.&#45;$$Nest$mcancelJobsForPackageAndUidLocked:(Lcom/android/server/job/JobSchedulerService;Ljava/lang/String;IZZIILjava/lang/String;)V</title>
<path fill="#eef2ff" stroke="#a5b4fc" d="M685.5,-1722C685.5,-1722 320.5,-1722 320.5,-1722 314.5,-1722 308.5,-1716 308.5,-1710 308.5,-1710 308.5,-1698 308.5,-1698 308.5,-1692 314.5,-1686 320.5,-1686 320.5,-1686 685.5,-1686 685.5,-1686 691.5,-1686 697.5,-1692 697.5,-1698 697.5,-1698 697.5,-1710 697.5,-1710 697.5,-1716 691.5,-1722 685.5,-1722"/>
<text text-anchor="middle" x="503" y="-1701.2" font-family="Helvetica,sans-Serif" font-size="11.00">JobSchedulerService.&#45;$$Nest$mcancelJobsForPackageAndUidLocked</text>
</g>
<!-- m::com.android.server.job.JobSchedulerService$3.onReceive:(Landroid/content/Context;Landroid/content/Intent;)V&#45;&gt;m::com.android.server.job.JobSchedulerService.&#45;$$Nest$mcancelJobsForPackageAndUidLocked:(Lcom/android/server/job/JobSchedulerService;Ljava/lang/String;IZZIILjava/lang/String;)V -->
<g id="edge2" class="edge">
<title>m::com.android.server.job.JobSchedulerService$3.onReceive:(Landroid/content/Context;Landroid/content/Intent;)V&#45;&gt;m::com.android.server.job.JobSchedulerService.&#45;$$Nest$mcancelJobsForPackageAndUidLocked:(Lcom/android/server/job/JobSchedulerService;Ljava/lang/String;IZZIILjava/lang/String;)V</title>
<path fill="none" stroke="#64748b" d="M556.81,-1758.81C547.48,-1749.48 535.83,-1737.83 525.75,-1727.75"/>
<polygon fill="#64748b" stroke="#64748b" points="527.67,-1725.71 520.03,-1722.03 523.71,-1729.67 527.67,-1725.71"/>
</g>
<!-- m::com.android.server.job.controllers.TimeController.reevaluateStateLocked:(I)V -->
<g id="node17" class="node">
<title>m::com.android.server.job.controllers.TimeController.reevaluateStateLocked:(I)V</title>
<path fill="#eef2ff" stroke="#a5b4fc" d="M258.5,-1722C258.5,-1722 55.5,-1722 55.5,-1722 49.5,-1722 43.5,-1716 43.5,-1710 43.5,-1710 43.5,-1698 43.5,-1698 43.5,-1692 49.5,-1686 55.5,-1686 55.5,-1686 258.5,-1686 258.5,-1686 264.5,-1686 270.5,-1692 270.5,-1698 270.5,-1698 270.5,-1710 270.5,-1710 270.5,-1716 264.5,-1722 258.5,-1722"/>
<text text-anchor="middle" x="157" y="-1701.2" font-family="Helvetica,sans-Serif" font-size="11.00">TimeController.reevaluateStateLocked</text>
</g>
<!-- m::com.android.server.job.JobSchedulerService$3.onReceive:(Landroid/content/Context;Landroid/content/Intent;)V&#45;&gt;m::com.android.server.job.controllers.TimeController.reevaluateStateLocked:(I)V -->
<g id="edge16" class="edge">
<title>m::com.android.server.job.JobSchedulerService$3.onReceive:(Landroid/content/Context;Landroid/content/Intent;)V&#45;&gt;m::com.android.server.job.controllers.TimeController.reevaluateStateLocked:(I)V</title>
<path fill="none" stroke="#64748b" d="M474.12,-1758.99C411.15,-1748.27 329.85,-1734.43 265.33,-1723.45"/>
<polygon fill="#64748b" stroke="#64748b" points="265.51,-1720.63 257.15,-1722.05 264.57,-1726.16 265.51,-1720.63"/>
</g>
<!-- m::com.android.server.job.JobSchedulerService.cancelJobsForPackageAndUidLocked:(Ljava/lang/String;IZZIILjava/lang/String;)V -->
<g id="node6" class="node">
<title>m::com.android.server.job.JobSchedulerService.cancelJobsForPackageAndUidLocked:(Ljava/lang/String;IZZIILjava/lang/String;)V</title>
<path fill="#eef2ff" stroke="#a5b4fc" d="M655.5,-1649C655.5,-1649 350.5,-1649 350.5,-1649 344.5,-1649 338.5,-1643 338.5,-1637 338.5,-1637 338.5,-1625 338.5,-1625 338.5,-1619 344.5,-1613 350.5,-1613 350.5,-1613 655.5,-1613 655.5,-1613 661.5,-1613 667.5,-1619 667.5,-1625 667.5,-1625 667.5,-1637 667.5,-1637 667.5,-1643 661.5,-1649 655.5,-1649"/>
<text text-anchor="middle" x="503" y="-1628.2" font-family="Helvetica,sans-Serif" font-size="11.00">JobSchedulerService.cancelJobsForPackageAndUidLocked</text>
</g>
<!-- m::com.android.server.job.JobSchedulerService.&#45;$$Nest$mcancelJobsForPackageAndUidLocked:(Lcom/android/server/job/JobSchedulerService;Ljava/lang/String;IZZIILjava/lang/String;)V&#45;&gt;m::com.android.server.job.JobSchedulerService.cancelJobsForPackageAndUidLocked:(Ljava/lang/String;IZZIILjava/lang/String;)V -->
<g id="edge3" class="edge">
<title>m::com.android.server.job.JobSchedulerService.&#45;$$Nest$mcancelJobsForPackageAndUidLocked:(Lcom/android/server/job/JobSchedulerService;Ljava/lang/String;IZZIILjava/lang/String;)V&#45;&gt;m::com.android.server.job.JobSchedulerService.cancelJobsForPackageAndUidLocked:(Ljava/lang/String;IZZIILjava/lang/String;)V</title>
<path fill="none" stroke="#64748b" d="M503,-1685.81C503,-1677.18 503,-1666.56 503,-1657.03"/>
<polygon fill="#64748b" stroke="#64748b" points="505.8,-1657.03 503,-1649.03 500.2,-1657.03 505.8,-1657.03"/>
</g>
<!-- m::com.android.server.job.JobSchedulerService.cancelJobImplLocked:(Lcom/android/server/job/controllers/JobStatus;Lcom/android/server/job/controllers/JobStatus;IILjava/lang/String;)V -->
<g id="node7" class="node">
<title>m::com.android.server.job.JobSchedulerService.cancelJobImplLocked:(Lcom/android/server/job/controllers/JobStatus;Lcom/android/server/job/controllers/JobStatus;IILjava/lang/String;)V</title>
<path fill="#eef2ff" stroke="#a5b4fc" d="M613.5,-1541C613.5,-1541 392.5,-1541 392.5,-1541 386.5,-1541 380.5,-1535 380.5,-1529 380.5,-1529 380.5,-1517 380.5,-1517 380.5,-1511 386.5,-1505 392.5,-1505 392.5,-1505 613.5,-1505 613.5,-1505 619.5,-1505 625.5,-1511 625.5,-1517 625.5,-1517 625.5,-1529 625.5,-1529 625.5,-1535 619.5,-1541 613.5,-1541"/>
<text text-anchor="middle" x="503" y="-1520.2" font-family="Helvetica,sans-Serif" font-size="11.00">JobSchedulerService.cancelJobImplLocked</text>
</g>
<!-- m::com.android.server.job.JobSchedulerService.cancelJobsForPackageAndUidLocked:(Ljava/lang/String;IZZIILjava/lang/String;)V&#45;&gt;m::com.android.server.job.JobSchedulerService.cancelJobImplLocked:(Lcom/android/server/job/controllers/JobStatus;Lcom/android/server/job/controllers/JobStatus;IILjava/lang/String;)V -->
<g id="edge4" class="edge">
<title>m::com.android.server.job.JobSchedulerService.cancelJobsForPackageAndUidLocked:(Ljava/lang/String;IZZIILjava/lang/String;)V&#45;&gt;m::com.android.server.job.JobSchedulerService.cancelJobImplLocked:(Lcom/android/server/job/controllers/JobStatus;Lcom/android/server/job/controllers/JobStatus;IILjava/lang/String;)V</title>
<path fill="none" stroke="#64748b" d="M503,-1612.97C503,-1595.84 503,-1569.22 503,-1549.56"/>
<polygon fill="#64748b" stroke="#64748b" points="505.8,-1549.34 503,-1541.34 500.2,-1549.34 505.8,-1549.34"/>
</g>
<!-- m::com.android.server.job.JobConcurrencyManager.stopJobOnServiceContextLocked:(Lcom/android/server/job/controllers/JobStatus;IILjava/lang/String;)Z -->
<g id="node8" class="node">
<title>m::com.android.server.job.JobConcurrencyManager.stopJobOnServiceContextLocked:(Lcom/android/server/job/controllers/JobStatus;IILjava/lang/String;)Z</title>
<path fill="#eef2ff" stroke="#a5b4fc" d="M657,-1468C657,-1468 349,-1468 349,-1468 343,-1468 337,-1462 337,-1456 337,-1456 337,-1444 337,-1444 337,-1438 343,-1432 349,-1432 349,-1432 657,-1432 657,-1432 663,-1432 669,-1438 669,-1444 669,-1444 669,-1456 669,-1456 669,-1462 663,-1468 657,-1468"/>
<text text-anchor="middle" x="503" y="-1447.2" font-family="Helvetica,sans-Serif" font-size="11.00">JobConcurrencyManager.stopJobOnServiceContextLocked</text>
</g>
<!-- m::com.android.server.job.JobSchedulerService.cancelJobImplLocked:(Lcom/android/server/job/controllers/JobStatus;Lcom/android/server/job/controllers/JobStatus;IILjava/lang/String;)V&#45;&gt;m::com.android.server.job.JobConcurrencyManager.stopJobOnServiceContextLocked:(Lcom/android/server/job/controllers/JobStatus;IILjava/lang/String;)Z -->
<g id="edge5" class="edge">
<title>m::com.android.server.job.JobSchedulerService.cancelJobImplLocked:(Lcom/android/server/job/controllers/JobStatus;Lcom/android/server/job/controllers/JobStatus;IILjava/lang/String;)V&#45;&gt;m::com.android.server.job.JobConcurrencyManager.stopJobOnServiceContextLocked:(Lcom/android/server/job/controllers/JobStatus;IILjava/lang/String;)Z</title>
<path fill="none" stroke="#64748b" d="M503,-1504.81C503,-1496.18 503,-1485.56 503,-1476.03"/>
<polygon fill="#64748b" stroke="#64748b" points="505.8,-1476.03 503,-1468.03 500.2,-1476.03 505.8,-1476.03"/>
</g>
<!-- m::com.android.server.job.JobServiceContext.cancelExecutingJobLocked:(IILjava/lang/String;)V -->
<g id="node9" class="node">
<title>m::com.android.server.job.JobServiceContext.cancelExecutingJobLocked:(IILjava/lang/String;)V</title>
<path fill="#eef2ff" stroke="#a5b4fc" d="M625,-1386C625,-1386 385,-1386 385,-1386 379,-1386 373,-1380 373,-1374 373,-1374 373,-1362 373,-1362 373,-1356 379,-1350 385,-1350 385,-1350 625,-1350 625,-1350 631,-1350 637,-1356 637,-1362 637,-1362 637,-1374 637,-1374 637,-1380 631,-1386 625,-1386"/>
<text text-anchor="middle" x="505" y="-1365.2" font-family="Helvetica,sans-Serif" font-size="11.00">JobServiceContext.cancelExecutingJobLocked</text>
</g>
<!-- m::com.android.server.job.JobConcurrencyManager.stopJobOnServiceContextLocked:(Lcom/android/server/job/controllers/JobStatus;IILjava/lang/String;)Z&#45;&gt;m::com.android.server.job.JobServiceContext.cancelExecutingJobLocked:(IILjava/lang/String;)V -->
<g id="edge6" class="edge">
<title>m::com.android.server.job.JobConcurrencyManager.stopJobOnServiceContextLocked:(Lcom/android/server/job/controllers/JobStatus;IILjava/lang/String;)Z&#45;&gt;m::com.android.server.job.JobServiceContext.cancelExecutingJobLocked:(IILjava/lang/String;)V</title>
<path fill="none" stroke="#64748b" d="M503.43,-1431.64C503.71,-1420.66 504.07,-1406.29 504.37,-1394.09"/>
<polygon fill="#64748b" stroke="#64748b" points="507.17,-1394.12 504.57,-1386.05 501.57,-1393.98 507.17,-1394.12"/>
</g>
<!-- m::com.android.server.job.JobServiceContext.doCancelLocked:(IILjava/lang/String;)V -->
<g id="node10" class="node">
<title>m::com.android.server.job.JobServiceContext.doCancelLocked:(IILjava/lang/String;)V</title>
<path fill="#eef2ff" stroke="#a5b4fc" d="M598.5,-1313C598.5,-1313 413.5,-1313 413.5,-1313 407.5,-1313 401.5,-1307 401.5,-1301 401.5,-1301 401.5,-1289 401.5,-1289 401.5,-1283 407.5,-1277 413.5,-1277 413.5,-1277 598.5,-1277 598.5,-1277 604.5,-1277 610.5,-1283 610.5,-1289 610.5,-1289 610.5,-1301 610.5,-1301 610.5,-1307 604.5,-1313 598.5,-1313"/>
<text text-anchor="middle" x="506" y="-1292.2" font-family="Helvetica,sans-Serif" font-size="11.00">JobServiceContext.doCancelLocked</text>
</g>
<!-- m::com.android.server.job.JobServiceContext.cancelExecutingJobLocked:(IILjava/lang/String;)V&#45;&gt;m::com.android.server.job.JobServiceContext.doCancelLocked:(IILjava/lang/String;)V -->
<g id="edge7" class="edge">
<title>m::com.android.server.job.JobServiceContext.cancelExecutingJobLocked:(IILjava/lang/String;)V&#45;&gt;m::com.android.server.job.JobServiceContext.doCancelLocked:(IILjava/lang/String;)V</title>
<path fill="none" stroke="#64748b" d="M505.24,-1349.81C505.36,-1341.18 505.51,-1330.56 505.65,-1321.03"/>
<polygon fill="#64748b" stroke="#64748b" points="508.45,-1321.07 505.76,-1313.03 502.85,-1320.99 508.45,-1321.07"/>
</g>
<!-- m::com.android.server.job.JobServiceContext.handleCancelLocked:(Ljava/lang/String;)V -->
<g id="node11" class="node">
<title>m::com.android.server.job.JobServiceContext.handleCancelLocked:(Ljava/lang/String;)V</title>
<path fill="#eef2ff" stroke="#a5b4fc" d="M617.5,-1240C617.5,-1240 408.5,-1240 408.5,-1240 402.5,-1240 396.5,-1234 396.5,-1228 396.5,-1228 396.5,-1216 396.5,-1216 396.5,-1210 402.5,-1204 408.5,-1204 408.5,-1204 617.5,-1204 617.5,-1204 623.5,-1204 629.5,-1210 629.5,-1216 629.5,-1216 629.5,-1228 629.5,-1228 629.5,-1234 623.5,-1240 617.5,-1240"/>
<text text-anchor="middle" x="513" y="-1219.2" font-family="Helvetica,sans-Serif" font-size="11.00">JobServiceContext.handleCancelLocked</text>
</g>
<!-- m::com.android.server.job.JobServiceContext.doCancelLocked:(IILjava/lang/String;)V&#45;&gt;m::com.android.server.job.JobServiceContext.handleCancelLocked:(Ljava/lang/String;)V -->
<g id="edge8" class="edge">
<title>m::com.android.server.job.JobServiceContext.doCancelLocked:(IILjava/lang/String;)V&#45;&gt;m::com.android.server.job.JobServiceContext.handleCancelLocked:(Ljava/lang/String;)V</title>
<path fill="none" stroke="#64748b" d="M507.69,-1276.81C508.55,-1268.18 509.59,-1257.56 510.53,-1248.03"/>
<polygon fill="#64748b" stroke="#64748b" points="513.32,-1248.26 511.32,-1240.03 507.75,-1247.72 513.32,-1248.26"/>
</g>
<!-- m::com.android.server.job.JobServiceContext.sendStopMessageLocked:(Ljava/lang/String;)V -->
<g id="node12" class="node">
<title>m::com.android.server.job.JobServiceContext.sendStopMessageLocked:(Ljava/lang/String;)V</title>
<path fill="#eef2ff" stroke="#a5b4fc" d="M643.5,-1167C643.5,-1167 408.5,-1167 408.5,-1167 402.5,-1167 396.5,-1161 396.5,-1155 396.5,-1155 396.5,-1143 396.5,-1143 396.5,-1137 402.5,-1131 408.5,-1131 408.5,-1131 643.5,-1131 643.5,-1131 649.5,-1131 655.5,-1137 655.5,-1143 655.5,-1143 655.5,-1155 655.5,-1155 655.5,-1161 649.5,-1167 643.5,-1167"/>
<text text-anchor="middle" x="526" y="-1146.2" font-family="Helvetica,sans-Serif" font-size="11.00">JobServiceContext.sendStopMessageLocked</text>
</g>
<!-- m::com.android.server.job.JobServiceContext.handleCancelLocked:(Ljava/lang/String;)V&#45;&gt;m::com.android.server.job.JobServiceContext.sendStopMessageLocked:(Ljava/lang/String;)V -->
<g id="edge9" class="edge">
<title>m::com.android.server.job.JobServiceContext.handleCancelLocked:(Ljava/lang/String;)V&#45;&gt;m::com.android.server.job.JobServiceContext.sendStopMessageLocked:(Ljava/lang/String;)V</title>
<path fill="none" stroke="#64748b" d="M516.15,-1203.81C517.73,-1195.18 519.67,-1184.56 521.42,-1175.03"/>
<polygon fill="#64748b" stroke="#64748b" points="524.2,-1175.4 522.88,-1167.03 518.69,-1174.39 524.2,-1175.4"/>
</g>
<!-- m::com.android.server.job.JobServiceContext.closeAndCleanupJobLocked:(ZLjava/lang/String;)V -->
<g id="node13" class="node">
<title>m::com.android.server.job.JobServiceContext.closeAndCleanupJobLocked:(ZLjava/lang/String;)V</title>
<path fill="#eef2ff" stroke="#a5b4fc" d="M651.5,-1094C651.5,-1094 406.5,-1094 406.5,-1094 400.5,-1094 394.5,-1088 394.5,-1082 394.5,-1082 394.5,-1070 394.5,-1070 394.5,-1064 400.5,-1058 406.5,-1058 406.5,-1058 651.5,-1058 651.5,-1058 657.5,-1058 663.5,-1064 663.5,-1070 663.5,-1070 663.5,-1082 663.5,-1082 663.5,-1088 657.5,-1094 651.5,-1094"/>
<text text-anchor="middle" x="529" y="-1073.2" font-family="Helvetica,sans-Serif" font-size="11.00">JobServiceContext.closeAndCleanupJobLocked</text>
</g>
<!-- m::com.android.server.job.JobServiceContext.sendStopMessageLocked:(Ljava/lang/String;)V&#45;&gt;m::com.android.server.job.JobServiceContext.closeAndCleanupJobLocked:(ZLjava/lang/String;)V -->
<g id="edge10" class="edge">
<title>m::com.android.server.job.JobServiceContext.sendStopMessageLocked:(Ljava/lang/String;)V&#45;&gt;m::com.android.server.job.JobServiceContext.closeAndCleanupJobLocked:(ZLjava/lang/String;)V</title>
<path fill="none" stroke="#64748b" d="M526.73,-1130.81C527.09,-1122.18 527.54,-1111.56 527.94,-1102.03"/>
<polygon fill="#64748b" stroke="#64748b" points="530.74,-1102.14 528.28,-1094.03 525.15,-1101.9 530.74,-1102.14"/>
</g>
<!-- m::com.android.server.job.JobConcurrencyManager.onJobCompletedLocked:(Lcom/android/server/job/JobServiceContext;Lcom/android/server/job/controllers/JobStatus;I)V -->
<g id="node14" class="node">
<title>m::com.android.server.job.JobConcurrencyManager.onJobCompletedLocked:(Lcom/android/server/job/JobServiceContext;Lcom/android/server/job/controllers/JobStatus;I)V</title>
<path fill="#eef2ff" stroke="#a5b4fc" d="M486.5,-1021C486.5,-1021 229.5,-1021 229.5,-1021 223.5,-1021 217.5,-1015 217.5,-1009 217.5,-1009 217.5,-997 217.5,-997 217.5,-991 223.5,-985 229.5,-985 229.5,-985 486.5,-985 486.5,-985 492.5,-985 498.5,-991 498.5,-997 498.5,-997 498.5,-1009 498.5,-1009 498.5,-1015 492.5,-1021 486.5,-1021"/>
<text text-anchor="middle" x="358" y="-1000.2" font-family="Helvetica,sans-Serif" font-size="11.00">JobConcurrencyManager.onJobCompletedLocked</text>
</g>
<!-- m::com.android.server.job.JobServiceContext.closeAndCleanupJobLocked:(ZLjava/lang/String;)V&#45;&gt;m::com.android.server.job.JobConcurrencyManager.onJobCompletedLocked:(Lcom/android/server/job/JobServiceContext;Lcom/android/server/job/controllers/JobStatus;I)V -->
<g id="edge11" class="edge">
<title>m::com.android.server.job.JobServiceContext.closeAndCleanupJobLocked:(ZLjava/lang/String;)V&#45;&gt;m::com.android.server.job.JobConcurrencyManager.onJobCompletedLocked:(Lcom/android/server/job/JobServiceContext;Lcom/android/server/job/controllers/JobStatus;I)V</title>
<path fill="none" stroke="#64748b" d="M488.04,-1057.99C463.58,-1047.84 432.37,-1034.88 406.66,-1024.2"/>
<polygon fill="#64748b" stroke="#64748b" points="407.68,-1021.6 399.22,-1021.11 405.53,-1026.77 407.68,-1021.6"/>
</g>
<!-- m::com.android.server.job.JobSchedulerService.getUidProcState:(I)I -->
<g id="node21" class="node">
<title>m::com.android.server.job.JobSchedulerService.getUidProcState:(I)I</title>
<path fill="#eef2ff" stroke="#a5b4fc" d="M784.5,-1021C784.5,-1021 587.5,-1021 587.5,-1021 581.5,-1021 575.5,-1015 575.5,-1009 575.5,-1009 575.5,-997 575.5,-997 575.5,-991 581.5,-985 587.5,-985 587.5,-985 784.5,-985 784.5,-985 790.5,-985 796.5,-991 796.5,-997 796.5,-997 796.5,-1009 796.5,-1009 796.5,-1015 790.5,-1021 784.5,-1021"/>
<text text-anchor="middle" x="686" y="-1000.2" font-family="Helvetica,sans-Serif" font-size="11.00">JobSchedulerService.getUidProcState</text>
</g>
<!-- m::com.android.server.job.JobServiceContext.closeAndCleanupJobLocked:(ZLjava/lang/String;)V&#45;&gt;m::com.android.server.job.JobSchedulerService.getUidProcState:(I)I -->
<g id="edge22" class="edge">
<title>m::com.android.server.job.JobServiceContext.closeAndCleanupJobLocked:(ZLjava/lang/String;)V&#45;&gt;m::com.android.server.job.JobSchedulerService.getUidProcState:(I)I</title>
<path fill="none" stroke="#64748b" d="M566.61,-1057.99C588.87,-1047.92 617.23,-1035.1 640.72,-1024.48"/>
<polygon fill="#64748b" stroke="#64748b" points="642.02,-1026.96 648.16,-1021.11 639.71,-1021.86 642.02,-1026.96"/>
</g>
<!-- m::com.android.server.job.JobConcurrencyManager.startJobLocked:(Lcom/android/server/job/JobServiceContext;Lcom/android/server/job/controllers/JobStatus;I)V -->
<g id="node15" class="node">
<title>m::com.android.server.job.JobConcurrencyManager.startJobLocked:(Lcom/android/server/job/JobServiceContext;Lcom/android/server/job/controllers/JobStatus;I)V</title>
<path fill="#eef2ff" stroke="#a5b4fc" d="M463,-948C463,-948 253,-948 253,-948 247,-948 241,-942 241,-936 241,-936 241,-924 241,-924 241,-918 247,-912 253,-912 253,-912 463,-912 463,-912 469,-912 475,-918 475,-924 475,-924 475,-936 475,-936 475,-942 469,-948 463,-948"/>
<text text-anchor="middle" x="358" y="-927.2" font-family="Helvetica,sans-Serif" font-size="11.00">JobConcurrencyManager.startJobLocked</text>
</g>
<!-- m::com.android.server.job.JobConcurrencyManager.onJobCompletedLocked:(Lcom/android/server/job/JobServiceContext;Lcom/android/server/job/controllers/JobStatus;I)V&#45;&gt;m::com.android.server.job.JobConcurrencyManager.startJobLocked:(Lcom/android/server/job/JobServiceContext;Lcom/android/server/job/controllers/JobStatus;I)V -->
<g id="edge12" class="edge">
<title>m::com.android.server.job.JobConcurrencyManager.onJobCompletedLocked:(Lcom/android/server/job/JobServiceContext;Lcom/android/server/job/controllers/JobStatus;I)V&#45;&gt;m::com.android.server.job.JobConcurrencyManager.startJobLocked:(Lcom/android/server/job/JobServiceContext;Lcom/android/server/job/controllers/JobStatus;I)V</title>
<path fill="none" stroke="#64748b" d="M358,-984.81C358,-976.18 358,-965.56 358,-956.03"/>
<polygon fill="#64748b" stroke="#64748b" points="360.8,-956.03 358,-948.03 355.2,-956.03 360.8,-956.03"/>
</g>
<!-- m::com.android.server.job.JobServiceContext.executeRunnableJob:(Lcom/android/server/job/controllers/JobStatus;I)Z -->
<g id="node16" class="node">
<title>m::com.android.server.job.JobServiceContext.executeRunnableJob:(Lcom/android/server/job/controllers/JobStatus;I)Z</title>
<path fill="#eef2ff" stroke="#a5b4fc" d="M462,-875C462,-875 254,-875 254,-875 248,-875 242,-869 242,-863 242,-863 242,-851 242,-851 242,-845 248,-839 254,-839 254,-839 462,-839 462,-839 468,-839 474,-845 474,-851 474,-851 474,-863 474,-863 474,-869 468,-875 462,-875"/>
<text text-anchor="middle" x="358" y="-854.2" font-family="Helvetica,sans-Serif" font-size="11.00">JobServiceContext.executeRunnableJob</text>
</g>
<!-- m::com.android.server.job.JobConcurrencyManager.startJobLocked:(Lcom/android/server/job/JobServiceContext;Lcom/android/server/job/controllers/JobStatus;I)V&#45;&gt;m::com.android.server.job.JobServiceContext.executeRunnableJob:(Lcom/android/server/job/controllers/JobStatus;I)Z -->
<g id="edge13" class="edge">
<title>m::com.android.server.job.JobConcurrencyManager.startJobLocked:(Lcom/android/server/job/JobServiceContext;Lcom/android/server/job/controllers/JobStatus;I)V&#45;&gt;m::com.android.server.job.JobServiceContext.executeRunnableJob:(Lcom/android/server/job/controllers/JobStatus;I)Z</title>
<path fill="none" stroke="#64748b" d="M358,-911.81C358,-903.18 358,-892.56 358,-883.03"/>
<polygon fill="#64748b" stroke="#64748b" points="360.8,-883.03 358,-875.03 355.2,-883.03 360.8,-883.03"/>
</g>
<!-- m::com.android.server.job.JobServiceContext.executeRunnableJob:(Lcom/android/server/job/controllers/JobStatus;I)Z&#45;&gt;com.android.server.job.JobServiceContext.mLock -->
<g id="edge14" class="edge">
<title>m::com.android.server.job.JobServiceContext.executeRunnableJob:(Lcom/android/server/job/controllers/JobStatus;I)Z&#45;&gt;com.android.server.job.JobServiceContext.mLock</title>
<path fill="none" stroke="#dc2626" stroke-width="1.6" d="M358,-838.64C358,-827.66 358,-813.29 358,-801.09"/>
<polygon fill="#dc2626" stroke="#dc2626" stroke-width="1.6" points="360.8,-801.05 358,-793.05 355.2,-801.05 360.8,-801.05"/>
<text text-anchor="middle" x="379" y="-813.8" font-family="Helvetica,sans-Serif" font-size="9.00" fill="#dc2626"> acquires</text>
</g>
<!-- m::com.android.server.job.controllers.TimeController.checkExpiredDeadlinesAndResetAlarm:()V -->
<g id="node18" class="node">
<title>m::com.android.server.job.controllers.TimeController.checkExpiredDeadlinesAndResetAlarm:()V</title>
<path fill="#eef2ff" stroke="#a5b4fc" d="M300,-1595C300,-1595 12,-1595 12,-1595 6,-1595 0,-1589 0,-1583 0,-1583 0,-1571 0,-1571 0,-1565 6,-1559 12,-1559 12,-1559 300,-1559 300,-1559 306,-1559 312,-1565 312,-1571 312,-1571 312,-1583 312,-1583 312,-1589 306,-1595 300,-1595"/>
<text text-anchor="middle" x="156" y="-1574.2" font-family="Helvetica,sans-Serif" font-size="11.00">TimeController.checkExpiredDeadlinesAndResetAlarm</text>
</g>
<!-- m::com.android.server.job.controllers.TimeController.reevaluateStateLocked:(I)V&#45;&gt;m::com.android.server.job.controllers.TimeController.checkExpiredDeadlinesAndResetAlarm:()V -->
<g id="edge17" class="edge">
<title>m::com.android.server.job.controllers.TimeController.reevaluateStateLocked:(I)V&#45;&gt;m::com.android.server.job.controllers.TimeController.checkExpiredDeadlinesAndResetAlarm:()V</title>
<path fill="none" stroke="#64748b" d="M156.86,-1685.88C156.69,-1664.59 156.4,-1628.05 156.2,-1603.47"/>
<polygon fill="#64748b" stroke="#64748b" points="159,-1603.29 156.14,-1595.31 153.4,-1603.34 159,-1603.29"/>
</g>
<!-- m::com.android.server.job.controllers.TimeController.checkExpiredDeadlinesAndResetAlarm:()V&#45;&gt;com.android.server.job.controllers.StateController.mLock -->
<g id="edge18" class="edge">
<title>m::com.android.server.job.controllers.TimeController.checkExpiredDeadlinesAndResetAlarm:()V&#45;&gt;com.android.server.job.controllers.StateController.mLock</title>
<path fill="none" stroke="#dc2626" stroke-width="1.6" d="M153.86,-1558.97C151.8,-1541.08 149,-1512.11 149,-1487 149,-1487 149,-1487 149,-327 149,-278.24 202.03,-258.6 252.63,-250.96"/>
<polygon fill="#dc2626" stroke="#dc2626" stroke-width="1.6" points="253.19,-253.7 260.73,-249.83 252.42,-248.16 253.19,-253.7"/>
<text text-anchor="middle" x="170" y="-927.8" font-family="Helvetica,sans-Serif" font-size="9.00" fill="#dc2626"> acquires</text>
</g>
<!-- m::com.android.server.job.JobServiceContext.handleOpTimeoutLocked:()V -->
<g id="node20" class="node">
<title>m::com.android.server.job.JobServiceContext.handleOpTimeoutLocked:()V</title>
<path fill="#eef2ff" stroke="#a5b4fc" d="M459.5,-638C459.5,-638 226.5,-638 226.5,-638 220.5,-638 214.5,-632 214.5,-626 214.5,-626 214.5,-614 214.5,-614 214.5,-608 220.5,-602 226.5,-602 226.5,-602 459.5,-602 459.5,-602 465.5,-602 471.5,-608 471.5,-614 471.5,-614 471.5,-626 471.5,-626 471.5,-632 465.5,-638 459.5,-638"/>
<text text-anchor="middle" x="343" y="-617.2" font-family="Helvetica,sans-Serif" font-size="11.00">JobServiceContext.handleOpTimeoutLocked</text>
</g>
<!-- m::com.android.server.job.JobServiceContext$JobServiceHandler.handleMessage:(Landroid/os/Message;)V&#45;&gt;m::com.android.server.job.JobServiceContext.handleOpTimeoutLocked:()V -->
<g id="edge20" class="edge">
<title>m::com.android.server.job.JobServiceContext$JobServiceHandler.handleMessage:(Landroid/os/Message;)V&#45;&gt;m::com.android.server.job.JobServiceContext.handleOpTimeoutLocked:()V</title>
<path fill="none" stroke="#64748b" d="M335.16,-674.81C333.96,-666.18 333.69,-655.56 334.36,-646.03"/>
<polygon fill="#64748b" stroke="#64748b" points="337.15,-646.27 335.18,-638.03 331.58,-645.7 337.15,-646.27"/>
</g>
<!-- m::com.android.server.job.JobServiceContext$JobServiceHandler.handleMessage:(Landroid/os/Message;)V&#45;&gt;m::com.android.server.job.JobServiceContext.handleOpTimeoutLocked:()V -->
<g id="edge25" class="edge">
<title>m::com.android.server.job.JobServiceContext$JobServiceHandler.handleMessage:(Landroid/os/Message;)V&#45;&gt;m::com.android.server.job.JobServiceContext.handleOpTimeoutLocked:()V</title>
<path fill="none" stroke="#64748b" d="M351.49,-674.81C352.8,-666.18 353.09,-655.56 352.36,-646.03"/>
<polygon fill="#64748b" stroke="#64748b" points="355.14,-645.67 351.47,-638.03 349.57,-646.29 355.14,-645.67"/>
</g>
<!-- m::com.android.server.job.JobServiceContext.handleOpTimeoutLocked:()V&#45;&gt;m::com.android.server.job.JobServiceContext.closeAndCleanupJobLocked:(ZLjava/lang/String;)V -->
<g id="edge21" class="edge">
<title>m::com.android.server.job.JobServiceContext.handleOpTimeoutLocked:()V&#45;&gt;m::com.android.server.job.JobServiceContext.closeAndCleanupJobLocked:(ZLjava/lang/String;)V</title>
<path fill="none" stroke="#64748b" d="M434.89,-638.04C485.03,-650.05 537,-668.24 537,-692 537,-1004 537,-1004 537,-1004 537,-1019.31 535.14,-1036.35 533.22,-1049.9"/>
<polygon fill="#64748b" stroke="#64748b" points="530.44,-1049.52 532.02,-1057.84 535.98,-1050.35 530.44,-1049.52"/>
</g>
<!-- m::com.android.server.job.JobSchedulerService.isReadyToBeExecutedLocked:(Lcom/android/server/job/controllers/JobStatus;Z)Z -->
<g id="node22" class="node">
<title>m::com.android.server.job.JobSchedulerService.isReadyToBeExecutedLocked:(Lcom/android/server/job/controllers/JobStatus;Z)Z</title>
<path fill="#eef2ff" stroke="#a5b4fc" d="M475.5,-565C475.5,-565 210.5,-565 210.5,-565 204.5,-565 198.5,-559 198.5,-553 198.5,-553 198.5,-541 198.5,-541 198.5,-535 204.5,-529 210.5,-529 210.5,-529 475.5,-529 475.5,-529 481.5,-529 487.5,-535 487.5,-541 487.5,-541 487.5,-553 487.5,-553 487.5,-559 481.5,-565 475.5,-565"/>
<text text-anchor="middle" x="343" y="-544.2" font-family="Helvetica,sans-Serif" font-size="11.00">JobSchedulerService.isReadyToBeExecutedLocked</text>
</g>
<!-- m::com.android.server.job.JobServiceContext.handleOpTimeoutLocked:()V&#45;&gt;m::com.android.server.job.JobSchedulerService.isReadyToBeExecutedLocked:(Lcom/android/server/job/controllers/JobStatus;Z)Z -->
<g id="edge26" class="edge">
<title>m::com.android.server.job.JobServiceContext.handleOpTimeoutLocked:()V&#45;&gt;m::com.android.server.job.JobSchedulerService.isReadyToBeExecutedLocked:(Lcom/android/server/job/controllers/JobStatus;Z)Z</title>
<path fill="none" stroke="#64748b" d="M343,-601.81C343,-593.18 343,-582.56 343,-573.03"/>
<polygon fill="#64748b" stroke="#64748b" points="345.8,-573.03 343,-565.03 340.2,-573.03 345.8,-573.03"/>
</g>
<!-- m::com.android.server.job.JobSchedulerService.getUidProcState:(I)I&#45;&gt;com.android.server.job.JobSchedulerService.mLock -->
<g id="edge23" class="edge">
<title>m::com.android.server.job.JobSchedulerService.getUidProcState:(I)I&#45;&gt;com.android.server.job.JobSchedulerService.mLock</title>
<path fill="none" stroke="#dc2626" stroke-width="1.6" d="M707.2,-1021.24C720.83,-1034.36 736,-1053.74 736,-1075 736,-1778 736,-1778 736,-1778 736,-1797.8 727.45,-1818.51 719.19,-1833.89"/>
<polygon fill="#dc2626" stroke="#dc2626" stroke-width="1.6" points="716.67,-1832.65 715.19,-1840.99 721.56,-1835.39 716.67,-1832.65"/>
<text text-anchor="middle" x="757" y="-1406.8" font-family="Helvetica,sans-Serif" font-size="9.00" fill="#dc2626"> acquires</text>
</g>
<!-- m::com.android.server.job.JobSchedulerService.evaluateControllerStatesLocked:(Lcom/android/server/job/controllers/JobStatus;)Z -->
<g id="node23" class="node">
<title>m::com.android.server.job.JobSchedulerService.evaluateControllerStatesLocked:(Lcom/android/server/job/controllers/JobStatus;)Z</title>
<path fill="#eef2ff" stroke="#a5b4fc" d="M484.5,-492C484.5,-492 201.5,-492 201.5,-492 195.5,-492 189.5,-486 189.5,-480 189.5,-480 189.5,-468 189.5,-468 189.5,-462 195.5,-456 201.5,-456 201.5,-456 484.5,-456 484.5,-456 490.5,-456 496.5,-462 496.5,-468 496.5,-468 496.5,-480 496.5,-480 496.5,-486 490.5,-492 484.5,-492"/>
<text text-anchor="middle" x="343" y="-471.2" font-family="Helvetica,sans-Serif" font-size="11.00">JobSchedulerService.evaluateControllerStatesLocked</text>
</g>
<!-- m::com.android.server.job.JobSchedulerService.isReadyToBeExecutedLocked:(Lcom/android/server/job/controllers/JobStatus;Z)Z&#45;&gt;m::com.android.server.job.JobSchedulerService.evaluateControllerStatesLocked:(Lcom/android/server/job/controllers/JobStatus;)Z -->
<g id="edge27" class="edge">
<title>m::com.android.server.job.JobSchedulerService.isReadyToBeExecutedLocked:(Lcom/android/server/job/controllers/JobStatus;Z)Z&#45;&gt;m::com.android.server.job.JobSchedulerService.evaluateControllerStatesLocked:(Lcom/android/server/job/controllers/JobStatus;)Z</title>
<path fill="none" stroke="#64748b" d="M343,-528.81C343,-520.18 343,-509.56 343,-500.03"/>
<polygon fill="#64748b" stroke="#64748b" points="345.8,-500.03 343,-492.03 340.2,-500.03 345.8,-500.03"/>
</g>
<!-- m::com.android.server.job.controllers.ConnectivityController.evaluateStateLocked:(Lcom/android/server/job/controllers/JobStatus;)V -->
<g id="node24" class="node">
<title>m::com.android.server.job.controllers.ConnectivityController.evaluateStateLocked:(Lcom/android/server/job/controllers/JobStatus;)V</title>
<path fill="#eef2ff" stroke="#a5b4fc" d="M460,-419C460,-419 226,-419 226,-419 220,-419 214,-413 214,-407 214,-407 214,-395 214,-395 214,-389 220,-383 226,-383 226,-383 460,-383 460,-383 466,-383 472,-389 472,-395 472,-395 472,-407 472,-407 472,-413 466,-419 460,-419"/>
<text text-anchor="middle" x="343" y="-398.2" font-family="Helvetica,sans-Serif" font-size="11.00">ConnectivityController.evaluateStateLocked</text>
</g>
<!-- m::com.android.server.job.JobSchedulerService.evaluateControllerStatesLocked:(Lcom/android/server/job/controllers/JobStatus;)Z&#45;&gt;m::com.android.server.job.controllers.ConnectivityController.evaluateStateLocked:(Lcom/android/server/job/controllers/JobStatus;)V -->
<g id="edge28" class="edge">
<title>m::com.android.server.job.JobSchedulerService.evaluateControllerStatesLocked:(Lcom/android/server/job/controllers/JobStatus;)Z&#45;&gt;m::com.android.server.job.controllers.ConnectivityController.evaluateStateLocked:(Lcom/android/server/job/controllers/JobStatus;)V</title>
<path fill="none" stroke="#64748b" d="M343,-455.81C343,-447.18 343,-436.56 343,-427.03"/>
<polygon fill="#64748b" stroke="#64748b" points="345.8,-427.03 343,-419.03 340.2,-427.03 345.8,-427.03"/>
</g>
<!-- m::com.android.server.job.controllers.ConnectivityController.isNetworkAvailable:(Lcom/android/server/job/controllers/JobStatus;)Z -->
<g id="node25" class="node">
<title>m::com.android.server.job.controllers.ConnectivityController.isNetworkAvailable:(Lcom/android/server/job/controllers/JobStatus;)Z</title>
<path fill="#eef2ff" stroke="#a5b4fc" d="M454.5,-346C454.5,-346 231.5,-346 231.5,-346 225.5,-346 219.5,-340 219.5,-334 219.5,-334 219.5,-322 219.5,-322 219.5,-316 225.5,-310 231.5,-310 231.5,-310 454.5,-310 454.5,-310 460.5,-310 466.5,-316 466.5,-322 466.5,-322 466.5,-334 466.5,-334 466.5,-340 460.5,-346 454.5,-346"/>
<text text-anchor="middle" x="343" y="-325.2" font-family="Helvetica,sans-Serif" font-size="11.00">ConnectivityController.isNetworkAvailable</text>
</g>
<!-- m::com.android.server.job.controllers.ConnectivityController.evaluateStateLocked:(Lcom/android/server/job/controllers/JobStatus;)V&#45;&gt;m::com.android.server.job.controllers.ConnectivityController.isNetworkAvailable:(Lcom/android/server/job/controllers/JobStatus;)Z -->
<g id="edge29" class="edge">
<title>m::com.android.server.job.controllers.ConnectivityController.evaluateStateLocked:(Lcom/android/server/job/controllers/JobStatus;)V&#45;&gt;m::com.android.server.job.controllers.ConnectivityController.isNetworkAvailable:(Lcom/android/server/job/controllers/JobStatus;)Z</title>
<path fill="none" stroke="#64748b" d="M343,-382.81C343,-374.18 343,-363.56 343,-354.03"/>
<polygon fill="#64748b" stroke="#64748b" points="345.8,-354.03 343,-346.03 340.2,-354.03 345.8,-354.03"/>
</g>
<!-- m::com.android.server.job.controllers.ConnectivityController.isNetworkAvailable:(Lcom/android/server/job/controllers/JobStatus;)Z&#45;&gt;com.android.server.job.controllers.StateController.mLock -->
<g id="edge30" class="edge">
<title>m::com.android.server.job.controllers.ConnectivityController.isNetworkAvailable:(Lcom/android/server/job/controllers/JobStatus;)Z&#45;&gt;com.android.server.job.controllers.StateController.mLock</title>
<path fill="none" stroke="#dc2626" stroke-width="1.6" d="M343,-309.64C343,-298.66 343,-284.29 343,-272.09"/>
<polygon fill="#dc2626" stroke="#dc2626" stroke-width="1.6" points="345.8,-272.05 343,-264.05 340.2,-272.05 345.8,-272.05"/>
<text text-anchor="middle" x="364" y="-284.8" font-family="Helvetica,sans-Serif" font-size="9.00" fill="#dc2626"> acquires</text>
</g>
<!-- m::com.android.server.job.controllers.BatteryController.maybeReportNewChargingStateLocked:()V -->
<g id="node27" class="node">
<title>m::com.android.server.job.controllers.BatteryController.maybeReportNewChargingStateLocked:()V</title>
<path fill="#eef2ff" stroke="#a5b4fc" d="M783.5,-109C783.5,-109 478.5,-109 478.5,-109 472.5,-109 466.5,-103 466.5,-97 466.5,-97 466.5,-85 466.5,-85 466.5,-79 472.5,-73 478.5,-73 478.5,-73 783.5,-73 783.5,-73 789.5,-73 795.5,-79 795.5,-85 795.5,-85 795.5,-97 795.5,-97 795.5,-103 789.5,-109 783.5,-109"/>
<text text-anchor="middle" x="631" y="-88.2" font-family="Helvetica,sans-Serif" font-size="11.00">BatteryController.maybeReportNewChargingStateLocked</text>
</g>
<!-- m::com.android.server.job.controllers.BatteryController.lambda$onBatteryStateChangedLocked$0:()V&#45;&gt;m::com.android.server.job.controllers.BatteryController.maybeReportNewChargingStateLocked:()V -->
<g id="edge32" class="edge">
<title>m::com.android.server.job.controllers.BatteryController.lambda$onBatteryStateChangedLocked$0:()V&#45;&gt;m::com.android.server.job.controllers.BatteryController.maybeReportNewChargingStateLocked:()V</title>
<path fill="none" stroke="#64748b" d="M572.64,-145.81C582.85,-136.39 595.64,-124.61 606.63,-114.47"/>
<polygon fill="#64748b" stroke="#64748b" points="608.55,-116.51 612.53,-109.03 604.75,-112.39 608.55,-116.51"/>
</g>
<!-- m::com.android.server.job.JobSchedulerService.isPowerConnected:()Z -->
<g id="node28" class="node">
<title>m::com.android.server.job.JobSchedulerService.isPowerConnected:()Z</title>
<path fill="#eef2ff" stroke="#a5b4fc" d="M838,-36C838,-36 630,-36 630,-36 624,-36 618,-30 618,-24 618,-24 618,-12 618,-12 618,-6 624,0 630,0 630,0 838,0 838,0 844,0 850,-6 850,-12 850,-12 850,-24 850,-24 850,-30 844,-36 838,-36"/>
<text text-anchor="middle" x="734" y="-15.2" font-family="Helvetica,sans-Serif" font-size="11.00">JobSchedulerService.isPowerConnected</text>
</g>
<!-- m::com.android.server.job.controllers.BatteryController.maybeReportNewChargingStateLocked:()V&#45;&gt;m::com.android.server.job.JobSchedulerService.isPowerConnected:()Z -->
<g id="edge33" class="edge">
<title>m::com.android.server.job.controllers.BatteryController.maybeReportNewChargingStateLocked:()V&#45;&gt;m::com.android.server.job.JobSchedulerService.isPowerConnected:()Z</title>
<path fill="none" stroke="#64748b" d="M655.67,-72.99C669.71,-63.32 687.44,-51.1 702.48,-40.73"/>
<polygon fill="#64748b" stroke="#64748b" points="704.18,-42.96 709.17,-36.11 701,-38.35 704.18,-42.96"/>
</g>
<!-- m::com.android.server.job.JobSchedulerService.isPowerConnected:()Z&#45;&gt;com.android.server.job.JobSchedulerService.mLock -->
<g id="edge34" class="edge">
<title>m::com.android.server.job.JobSchedulerService.isPowerConnected:()Z&#45;&gt;com.android.server.job.JobSchedulerService.mLock</title>
<path fill="none" stroke="#dc2626" stroke-width="1.6" d="M789.23,-36.05C812.81,-47.07 835,-64.28 835,-90 835,-1778 835,-1778 835,-1778 835,-1806.86 811.55,-1825.63 784.49,-1837.66"/>
<polygon fill="#dc2626" stroke="#dc2626" stroke-width="1.6" points="783.08,-1835.22 776.78,-1840.89 785.24,-1840.39 783.08,-1835.22"/>
<text text-anchor="middle" x="856" y="-927.8" font-family="Helvetica,sans-Serif" font-size="9.00" fill="#dc2626"> acquires</text>
</g>
</g>
</svg>
