<?xml version="1.0" encoding="UTF-8" standalone="no"?>
<!DOCTYPE svg PUBLIC "-//W3C//DTD SVG 1.1//EN"
 "http://www.w3.org/Graphics/SVG/1.1/DTD/svg11.dtd">
<!-- Generated by graphviz version 2.43.0 (0)
 -->
<!-- Title: cycle Pages: 1 -->
<svg width="406pt" height="582pt"
 viewBox="0.00 0.00 405.50 582.00" xmlns="http://www.w3.org/2000/svg" xmlns:xlink="http://www.w3.org/1999/xlink">
<g id="graph0" class="graph" transform="scale(1 1) rotate(0) translate(4 578)">
<title>cycle</title>
<polygon fill="white" stroke="transparent" points="-4,4 -4,-578 401.5,-578 401.5,4 -4,4"/>
<!-- com.android.server.am.UserController.mLock -->
<g id="node1" class="node">
<title>com.android.server.am.UserController.mLock</title>
<path fill="#fee2e2" stroke="#dc2626" stroke-width="2" d="M353.5,-574C353.5,-574 219.5,-574 219.5,-574 213.5,-574 207.5,-568 207.5,-562 207.5,-562 207.5,-550 207.5,-550 207.5,-544 213.5,-538 219.5,-538 219.5,-538 353.5,-538 353.5,-538 359.5,-538 365.5,-544 365.5,-550 365.5,-550 365.5,-562 365.5,-562 365.5,-568 359.5,-574 353.5,-574"/>
<text text-anchor="middle" x="286.5" y="-552.6" font-family="Helvetica,sans-Serif" font-size="13.00">UserController.mLock</text>
</g>
<!-- m::com.android.server.am.UserController.finishUserStopped:(Lcom/android/server/am/UserState;Z)V -->
<g id="node3" class="node">
<title>m::com.android.server.am.UserController.finishUserStopped:(Lcom/android/server/am/UserState;Z)V</title>
<path fill="#eef2ff" stroke="#a5b4fc" d="M305,-492C305,-492 130,-492 130,-492 124,-492 118,-486 118,-480 118,-480 118,-468 118,-468 118,-462 124,-456 130,-456 130,-456 305,-456 305,-456 311,-456 317,-462 317,-468 317,-468 317,-480 317,-480 317,-486 311,-492 305,-492"/>
<text text-anchor="middle" x="217.5" y="-471.2" font-family="Helvetica,sans-Serif" font-size="11.00">UserController.finishUserStopped</text>
</g>
<!-- com.android.server.am.UserController.mLock&#45;&gt;m::com.android.server.am.UserController.finishUserStopped:(Lcom/android/server/am/UserState;Z)V -->
<g id="edge1" class="edge">
<title>com.android.server.am.UserController.mLock&#45;&gt;m::com.android.server.am.UserController.finishUserStopped:(Lcom/android/server/am/UserState;Z)V</title>
<path fill="none" stroke="#dc2626" stroke-width="1.6" d="M271.53,-537.64C261.6,-526.14 248.47,-510.9 237.63,-498.34"/>
<polygon fill="#dc2626" stroke="#dc2626" stroke-width="1.6" points="239.55,-496.28 232.21,-492.05 235.31,-499.94 239.55,-496.28"/>
<text text-anchor="middle" x="273.5" y="-512.8" font-family="Helvetica,sans-Serif" font-size="9.00" fill="#dc2626"> held in</text>
</g>
<!-- com.android.server.pm.UserManagerService.mUsersLock -->
<g id="node2" class="node">
<title>com.android.server.pm.UserManagerService.mUsersLock</title>
<path fill="#fee2e2" stroke="#dc2626" stroke-width="2" d="M303,-264C303,-264 90,-264 90,-264 84,-264 78,-258 78,-252 78,-252 78,-240 78,-240 78,-234 84,-228 90,-228 90,-228 303,-228 303,-228 309,-228 315,-234 315,-240 315,-240 315,-252 315,-252 315,-258 309,-264 303,-264"/>
<text text-anchor="middle" x="196.5" y="-242.6" font-family="Helvetica,sans-Serif" font-size="13.00">UserManagerService.mUsersLock</text>
</g>
<!-- m::com.android.server.pm.UserManagerService.removeUserState:(I)V -->
<g id="node6" class="node">
<title>m::com.android.server.pm.UserManagerService.removeUserState:(I)V</title>
<path fill="#eef2ff" stroke="#a5b4fc" d="M285,-182C285,-182 78,-182 78,-182 72,-182 66,-176 66,-170 66,-170 66,-158 66,-158 66,-152 72,-146 78,-146 78,-146 285,-146 285,-146 291,-146 297,-152 297,-158 297,-158 297,-170 297,-170 297,-176 291,-182 285,-182"/>
<text text-anchor="middle" x="181.5" y="-161.2" font-family="Helvetica,sans-Serif" font-size="11.00">UserManagerService.removeUserState</text>
</g>
<!-- com.android.server.pm.UserManagerService.mUsersLock&#45;&gt;m::com.android.server.pm.UserManagerService.removeUserState:(I)V -->
<g id="edge5" class="edge">
<title>com.android.server.pm.UserManagerService.mUsersLock&#45;&gt;m::com.android.server.pm.UserManagerService.removeUserState:(I)V</title>
<path fill="none" stroke="#dc2626" stroke-width="1.6" d="M193.25,-227.64C191.19,-216.66 188.49,-202.29 186.2,-190.09"/>
<polygon fill="#dc2626" stroke="#dc2626" stroke-width="1.6" points="188.92,-189.4 184.7,-182.05 183.42,-190.43 188.92,-189.4"/>
<text text-anchor="middle" x="207.5" y="-202.8" font-family="Helvetica,sans-Serif" font-size="9.00" fill="#dc2626"> held in</text>
</g>
<!-- m::com.android.server.am.UserController.getUserInfo:(I)Landroid/content/pm/UserInfo; -->
<g id="node4" class="node">
<title>m::com.android.server.am.UserController.getUserInfo:(I)Landroid/content/pm/UserInfo;</title>
<path fill="#eef2ff" stroke="#a5b4fc" d="M285,-419C285,-419 146,-419 146,-419 140,-419 134,-413 134,-407 134,-407 134,-395 134,-395 134,-389 140,-383 146,-383 146,-383 285,-383 285,-383 291,-383 297,-389 297,-395 297,-395 297,-407 297,-407 297,-413 291,-419 285,-419"/>
<text text-anchor="middle" x="215.5" y="-398.2" font-family="Helvetica,sans-Serif" font-size="11.00">UserController.getUserInfo</text>
</g>
<!-- m::com.android.server.am.UserController.finishUserStopped:(Lcom/android/server/am/UserState;Z)V&#45;&gt;m::com.android.server.am.UserController.getUserInfo:(I)Landroid/content/pm/UserInfo; -->
<g id="edge2" class="edge">
<title>m::com.android.server.am.UserController.finishUserStopped:(Lcom/android/server/am/UserState;Z)V&#45;&gt;m::com.android.server.am.UserController.getUserInfo:(I)Landroid/content/pm/UserInfo;</title>
<path fill="none" stroke="#64748b" d="M217.02,-455.81C216.77,-447.18 216.47,-436.56 216.21,-427.03"/>
<polygon fill="#64748b" stroke="#64748b" points="219,-426.95 215.98,-419.03 213.41,-427.1 219,-426.95"/>
</g>
<!-- m::com.android.server.pm.UserManagerService.getUserInfo:(I)Landroid/content/pm/UserInfo; -->
<g id="node5" class="node">
<title>m::com.android.server.pm.UserManagerService.getUserInfo:(I)Landroid/content/pm/UserInfo;</title>
<path fill="#eef2ff" stroke="#a5b4fc" d="M295.5,-346C295.5,-346 121.5,-346 121.5,-346 115.5,-346 109.5,-340 109.5,-334 109.5,-334 109.5,-322 109.5,-322 109.5,-316 115.5,-310 121.5,-310 121.5,-310 295.5,-310 295.5,-310 301.5,-310 307.5,-316 307.5,-322 307.5,-322 307.5,-334 307.5,-334 307.5,-340 301.5,-346 295.5,-346"/>
<text text-anchor="middle" x="208.5" y="-325.2" font-family="Helvetica,sans-Serif" font-size="11.00">UserManagerService.getUserInfo</text>
</g>
<!-- m::com.android.server.am.UserController.getUserInfo:(I)Landroid/content/pm/UserInfo;&#45;&gt;m::com.android.server.pm.UserManagerService.getUserInfo:(I)Landroid/content/pm/UserInfo; -->
<g id="edge3" class="edge">
<title>m::com.android.server.am.UserController.getUserInfo:(I)Landroid/content/pm/UserInfo;&#45;&gt;m::com.android.server.pm.UserManagerService.getUserInfo:(I)Landroid/content/pm/UserInfo;</title>
<path fill="none" stroke="#64748b" d="M213.81,-382.81C212.95,-374.18 211.91,-363.56 210.97,-354.03"/>
<polygon fill="#64748b" stroke="#64748b" points="213.75,-353.72 210.18,-346.03 208.18,-354.26 213.75,-353.72"/>
</g>
<!-- m::com.android.server.pm.UserManagerService.getUserInfo:(I)Landroid/content/pm/UserInfo;&#45;&gt;com.android.server.pm.UserManagerService.mUsersLock -->
<g id="edge4" class="edge">
<title>m::com.android.server.pm.UserManagerService.getUserInfo:(I)Landroid/content/pm/UserInfo;&#45;&gt;com.android.server.pm.UserManagerService.mUsersLock</title>
<path fill="none" stroke="#dc2626" stroke-width="1.6" d="M205.9,-309.64C204.25,-298.66 202.09,-284.29 200.26,-272.09"/>
<polygon fill="#dc2626" stroke="#dc2626" stroke-width="1.6" points="203.01,-271.55 199.06,-264.05 197.48,-272.38 203.01,-271.55"/>
<text text-anchor="middle" x="224.5" y="-284.8" font-family="Helvetica,sans-Serif" font-size="9.00" fill="#dc2626"> acquires</text>
</g>
<!-- m::com.android.server.am.ActivityManagerService$LocalService.onUserRemoved:(I)V -->
<g id="node7" class="node">
<title>m::com.android.server.am.ActivityManagerService$LocalService.onUserRemoved:(I)V</title>
<path fill="#eef2ff" stroke="#a5b4fc" d="M305,-109C305,-109 12,-109 12,-109 6,-109 0,-103 0,-97 0,-97 0,-85 0,-85 0,-79 6,-73 12,-73 12,-73 305,-73 305,-73 311,-73 317,-79 317,-85 317,-85 317,-97 317,-97 317,-103 311,-109 305,-109"/>
<text text-anchor="middle" x="158.5" y="-88.2" font-family="Helvetica,sans-Serif" font-size="11.00">ActivityManagerService$LocalService.onUserRemoved</text>
</g>
<!-- m::com.android.server.pm.UserManagerService.removeUserState:(I)V&#45;&gt;m::com.android.server.am.ActivityManagerService$LocalService.onUserRemoved:(I)V -->
<g id="edge6" class="edge">
<title>m::com.android.server.pm.UserManagerService.removeUserState:(I)V&#45;&gt;m::com.android.server.am.ActivityManagerService$LocalService.onUserRemoved:(I)V</title>
<path fill="none" stroke="#64748b" d="M175.93,-145.81C173.11,-137.09 169.62,-126.34 166.52,-116.75"/>
<polygon fill="#64748b" stroke="#64748b" points="169.15,-115.78 164.02,-109.03 163.82,-117.5 169.15,-115.78"/>
</g>
<!-- m::com.android.server.am.UserController.onUserRemoved:(I)V -->
<g id="node8" class="node">
<title>m::com.android.server.am.UserController.onUserRemoved:(I)V</title>
<path fill="#eef2ff" stroke="#a5b4fc" d="M339.5,-36C339.5,-36 173.5,-36 173.5,-36 167.5,-36 161.5,-30 161.5,-24 161.5,-24 161.5,-12 161.5,-12 161.5,-6 167.5,0 173.5,0 173.5,0 339.5,0 339.5,0 345.5,0 351.5,-6 351.5,-12 351.5,-12 351.5,-24 351.5,-24 351.5,-30 345.5,-36 339.5,-36"/>
<text text-anchor="middle" x="256.5" y="-15.2" font-family="Helvetica,sans-Serif" font-size="11.00">UserController.onUserRemoved</text>
</g>
<!-- m::com.android.server.am.ActivityManagerService$LocalService.onUserRemoved:(I)V&#45;&gt;m::com.android.server.am.UserController.onUserRemoved:(I)V -->
<g id="edge7" class="edge">
<title>m::com.android.server.am.ActivityManagerService$LocalService.onUserRemoved:(I)V&#45;&gt;m::com.android.server.am.UserController.onUserRemoved:(I)V</title>
<path fill="none" stroke="#64748b" d="M182.22,-72.81C195.46,-63.22 212.1,-51.17 226.26,-40.91"/>
<polygon fill="#64748b" stroke="#64748b" points="228.16,-42.99 233,-36.03 224.87,-38.45 228.16,-42.99"/>
</g>
<!-- m::com.android.server.am.UserController.onUserRemoved:(I)V&#45;&gt;com.android.server.am.UserController.mLock -->
<g id="edge8" class="edge">
<title>m::com.android.server.am.UserController.onUserRemoved:(I)V&#45;&gt;com.android.server.am.UserController.mLock</title>
<path fill="none" stroke="#dc2626" stroke-width="1.6" d="M310.06,-36.06C333.38,-47.15 355.5,-64.41 355.5,-90 355.5,-475 355.5,-475 355.5,-475 355.5,-498.69 337.94,-518.83 320.54,-532.98"/>
<polygon fill="#dc2626" stroke="#dc2626" stroke-width="1.6" points="318.78,-530.81 314.17,-537.92 322.21,-535.23 318.78,-530.81"/>
<text text-anchor="middle" x="376.5" y="-284.8" font-family="Helvetica,sans-Serif" font-size="9.00" fill="#dc2626"> acquires</text>
</g>
</g>
</svg>
