<?xml version="1.0" encoding="UTF-8" standalone="no"?>
<!DOCTYPE svg PUBLIC "-//W3C//DTD SVG 1.1//EN"
 "http://www.w3.org/Graphics/SVG/1.1/DTD/svg11.dtd">
<!-- Generated by graphviz version 2.43.0 (0)
 -->
<!-- Title: cycle Pages: 1 -->
<svg width="525pt" height="728pt"
 viewBox="0.00 0.00 524.50 728.00" xmlns="http://www.w3.org/2000/svg" xmlns:xlink="http://www.w3.org/1999/xlink">
<g id="graph0" class="graph" transform="scale(1 1) rotate(0) translate(4 724)">
<title>cycle</title>
<polygon fill="white" stroke="transparent" points="-4,4 -4,-724 520.5,-724 520.5,4 -4,4"/>
<!-- com.android.server.DeviceIdleController$LocalService.this$0 -->
<g id="node1" class="node">
<title>com.android.server.DeviceIdleController$LocalService.this$0</title>
<path fill="#fee2e2" stroke="#dc2626" stroke-width="2" d="M439,-720C439,-720 176,-720 176,-720 170,-720 164,-714 164,-708 164,-708 164,-696 164,-696 164,-690 170,-684 176,-684 176,-684 439,-684 439,-684 445,-684 451,-690 451,-696 451,-696 451,-708 451,-708 451,-714 445,-720 439,-720"/>
<text text-anchor="middle" x="307.5" y="-698.6" font-family="Helvetica,sans-Serif" font-size="13.00">DeviceIdleController$LocalService.this$0</text>
</g>
<!-- m::com.android.server.DeviceIdleController$LocalService.onConstraintStateChanged:(Lcom/android/server/deviceidle/IDeviceIdleConstraint;Z)V -->
<g id="node3" class="node">
<title>m::com.android.server.DeviceIdleController$LocalService.onConstraintStateChanged:(Lcom/android/server/deviceidle/IDeviceIdleConstraint;Z)V</title>
<path fill="#eef2ff" stroke="#a5b4fc" d="M362,-638C362,-638 31,-638 31,-638 25,-638 19,-632 19,-626 19,-626 19,-614 19,-614 19,-608 25,-602 31,-602 31,-602 362,-602 362,-602 368,-602 374,-608 374,-614 374,-614 374,-626 374,-626 374,-632 368,-638 362,-638"/>
<text text-anchor="middle" x="196.5" y="-617.2" font-family="Helvetica,sans-Serif" font-size="11.00">DeviceIdleController$LocalService.onConstraintStateChanged</text>
</g>
<!-- com.android.server.DeviceIdleController$LocalService.this$0&#45;&gt;m::com.android.server.DeviceIdleController$LocalService.onConstraintStateChanged:(Lcom/android/server/deviceidle/IDeviceIdleConstraint;Z)V -->
<g id="edge1" class="edge">
<title>com.android.server.DeviceIdleController$LocalService.this$0&#45;&gt;m::com.android.server.DeviceIdleController$LocalService.onConstraintStateChanged:(Lcom/android/server/deviceidle/IDeviceIdleConstraint;Z)V</title>
<path fill="none" stroke="#dc2626" stroke-width="1.6" d="M283.69,-683.84C267.15,-671.92 244.98,-655.94 227.13,-643.07"/>
<polygon fill="#dc2626" stroke="#dc2626" stroke-width="1.6" points="228.4,-640.54 220.27,-638.13 225.13,-645.08 228.4,-640.54"/>
<text text-anchor="middle" x="276.5" y="-658.8" font-family="Helvetica,sans-Serif" font-size="9.00" fill="#dc2626"> held in</text>
</g>
<!-- com.android.server.alarm.AlarmManagerService.mLock -->
<g id="node2" class="node">
<title>com.android.server.alarm.AlarmManagerService.mLock</title>
<path fill="#fee2e2" stroke="#dc2626" stroke-width="2" d="M434,-36C434,-36 249,-36 249,-36 243,-36 237,-30 237,-24 237,-24 237,-12 237,-12 237,-6 243,0 249,0 249,0 434,0 434,0 440,0 446,-6 446,-12 446,-12 446,-24 446,-24 446,-30 440,-36 434,-36"/>
<text text-anchor="middle" x="341.5" y="-14.6" font-family="Helvetica,sans-Serif" font-size="13.00">AlarmManagerService.mLock</text>
</g>
<!-- com.android.server.alarm.AlarmManagerService.mLock&#45;&gt;com.android.server.DeviceIdleController$LocalService.this$0 -->
<g id="edge10" class="edge">
<title>com.android.server.alarm.AlarmManagerService.mLock&#45;&gt;com.android.server.DeviceIdleController$LocalService.this$0</title>
<path fill="none" stroke="#dc2626" stroke-width="1.6" stroke-dasharray="5,2" d="M372.03,-36.19C392.41,-50.15 415.5,-71.94 415.5,-99 415.5,-621 415.5,-621 415.5,-621 415.5,-648.61 392.43,-667.79 367.61,-680.43"/>
<polygon fill="#dc2626" stroke="#dc2626" stroke-width="1.6" points="366.23,-677.99 360.23,-683.98 368.66,-683.03 366.23,-677.99"/>
<text text-anchor="middle" x="466" y="-357.8" font-family="Helvetica,sans-Serif" font-size="9.00" fill="#dc2626"> holds → acquires [2x]</text>
</g>
<!-- m::com.android.server.DeviceIdleController.&#45;$$Nest$monConstraintStateChangedLocked:(Lcom/android/server/DeviceIdleController;Lcom/android/server/deviceidle/IDeviceIdleConstraint;Z)V -->
<g id="node4" class="node">
<title>m::com.android.server.DeviceIdleController.&#45;$$Nest$monConstraintStateChangedLocked:(Lcom/android/server/DeviceIdleController;Lcom/android/server/deviceidle/IDeviceIdleConstraint;Z)V</title>
<path fill="#eef2ff" stroke="#a5b4fc" d="M365,-565C365,-565 12,-565 12,-565 6,-565 0,-559 0,-553 0,-553 0,-541 0,-541 0,-535 6,-529 12,-529 12,-529 365,-529 365,-529 371,-529 377,-535 377,-541 377,-541 377,-553 377,-553 377,-559 371,-565 365,-565"/>
<text text-anchor="middle" x="188.5" y="-544.2" font-family="Helvetica,sans-Serif" font-size="11.00">DeviceIdleController.&#45;$$Nest$monConstraintStateChangedLocked</text>
</g>
<!-- m::com.android.server.DeviceIdleController$LocalService.onConstraintStateChanged:(Lcom/android/server/deviceidle/IDeviceIdleConstraint;Z)V&#45;&gt;m::com.android.server.DeviceIdleController.&#45;$$Nest$monConstraintStateChangedLocked:(Lcom/android/server/DeviceIdleController;Lcom/android/server/deviceidle/IDeviceIdleConstraint;Z)V -->
<g id="edge2" class="edge">
<title>m::com.android.server.DeviceIdleController$LocalService.onConstraintStateChanged:(Lcom/android/server/deviceidle/IDeviceIdleConstraint;Z)V&#45;&gt;m::com.android.server.DeviceIdleController.&#45;$$Nest$monConstraintStateChangedLocked:(Lcom/android/server/DeviceIdleController;Lcom/android/server/deviceidle/IDeviceIdleConstraint;Z)V</title>
<path fill="none" stroke="#64748b" d="M194.56,-601.81C193.59,-593.18 192.39,-582.56 191.32,-573.03"/>
<polygon fill="#64748b" stroke="#64748b" points="194.1,-572.66 190.42,-565.03 188.53,-573.29 194.1,-572.66"/>
</g>
<!-- m::com.android.server.DeviceIdleController.onConstraintStateChangedLocked:(Lcom/android/server/deviceidle/IDeviceIdleConstraint;Z)V -->
<g id="node5" class="node">
<title>m::com.android.server.DeviceIdleController.onConstraintStateChangedLocked:(Lcom/android/server/deviceidle/IDeviceIdleConstraint;Z)V</title>
<path fill="#eef2ff" stroke="#a5b4fc" d="M344,-492C344,-492 51,-492 51,-492 45,-492 39,-486 39,-480 39,-480 39,-468 39,-468 39,-462 45,-456 51,-456 51,-456 344,-456 344,-456 350,-456 356,-462 356,-468 356,-468 356,-480 356,-480 356,-486 350,-492 344,-492"/>
<text text-anchor="middle" x="197.5" y="-471.2" font-family="Helvetica,sans-Serif" font-size="11.00">DeviceIdleController.onConstraintStateChangedLocked</text>
</g>
<!-- m::com.android.server.DeviceIdleController.&#45;$$Nest$monConstraintStateChangedLocked:(Lcom/android/server/DeviceIdleController;Lcom/android/server/deviceidle/IDeviceIdleConstraint;Z)V&#45;&gt;m::com.android.server.DeviceIdleController.onConstraintStateChangedLocked:(Lcom/android/server/deviceidle/IDeviceIdleConstraint;Z)V -->
<g id="edge3" class="edge">
<title>m::com.android.server.DeviceIdleController.&#45;$$Nest$monConstraintStateChangedLocked:(Lcom/android/server/DeviceIdleController;Lcom/android/server/deviceidle/IDeviceIdleConstraint;Z)V&#45;&gt;m::com.android.server.DeviceIdleController.onConstraintStateChangedLocked:(Lcom/android/server/deviceidle/IDeviceIdleConstraint;Z)V</title>
<path fill="none" stroke="#64748b" d="M190.68,-528.81C191.77,-520.18 193.12,-509.56 194.33,-500.03"/>
<polygon fill="#64748b" stroke="#64748b" points="197.11,-500.32 195.34,-492.03 191.56,-499.61 197.11,-500.32"/>
</g>
<!-- m::com.android.server.DeviceIdleController.becomeInactiveIfAppropriateLocked:()V -->
<g id="node6" class="node">
<title>m::com.android.server.DeviceIdleController.becomeInactiveIfAppropriateLocked:()V</title>
<path fill="#eef2ff" stroke="#a5b4fc" d="M364,-419C364,-419 61,-419 61,-419 55,-419 49,-413 49,-407 49,-407 49,-395 49,-395 49,-389 55,-383 61,-383 61,-383 364,-383 364,-383 370,-383 376,-389 376,-395 376,-395 376,-407 376,-407 376,-413 370,-419 364,-419"/>
<text text-anchor="middle" x="212.5" y="-398.2" font-family="Helvetica,sans-Serif" font-size="11.00">DeviceIdleController.becomeInactiveIfAppropriateLocked</text>
</g>
<!-- m::com.android.server.DeviceIdleController.onConstraintStateChangedLocked:(Lcom/android/server/deviceidle/IDeviceIdleConstraint;Z)V&#45;&gt;m::com.android.server.DeviceIdleController.becomeInactiveIfAppropriateLocked:()V -->
<g id="edge4" class="edge">
<title>m::com.android.server.DeviceIdleController.onConstraintStateChangedLocked:(Lcom/android/server/deviceidle/IDeviceIdleConstraint;Z)V&#45;&gt;m::com.android.server.DeviceIdleController.becomeInactiveIfAppropriateLocked:()V</title>
<path fill="none" stroke="#64748b" d="M201.13,-455.81C202.96,-447.18 205.2,-436.56 207.21,-427.03"/>
<polygon fill="#64748b" stroke="#64748b" points="209.99,-427.43 208.9,-419.03 204.51,-426.28 209.99,-427.43"/>
</g>
<!-- m::com.android.server.DeviceIdleController.verifyAlarmStateLocked:()V -->
<g id="node7" class="node">
<title>m::com.android.server.DeviceIdleController.verifyAlarmStateLocked:()V</title>
<path fill="#eef2ff" stroke="#a5b4fc" d="M334.5,-337C334.5,-337 96.5,-337 96.5,-337 90.5,-337 84.5,-331 84.5,-325 84.5,-325 84.5,-313 84.5,-313 84.5,-307 90.5,-301 96.5,-301 96.5,-301 334.5,-301 334.5,-301 340.5,-301 346.5,-307 346.5,-313 346.5,-313 346.5,-325 346.5,-325 346.5,-331 340.5,-337 334.5,-337"/>
<text text-anchor="middle" x="215.5" y="-316.2" font-family="Helvetica,sans-Serif" font-size="11.00">DeviceIdleController.verifyAlarmStateLocked</text>
</g>
<!-- m::com.android.server.DeviceIdleController.becomeInactiveIfAppropriateLocked:()V&#45;&gt;m::com.android.server.DeviceIdleController.verifyAlarmStateLocked:()V -->
<g id="edge5" class="edge">
<title>m::com.android.server.DeviceIdleController.becomeInactiveIfAppropriateLocked:()V&#45;&gt;m::com.android.server.DeviceIdleController.verifyAlarmStateLocked:()V</title>
<path fill="none" stroke="#64748b" d="M213.15,-382.64C213.56,-371.66 214.1,-357.29 214.56,-345.09"/>
<polygon fill="#64748b" stroke="#64748b" points="217.36,-345.15 214.86,-337.05 211.76,-344.94 217.36,-345.15"/>
</g>
<!-- m::com.android.server.alarm.AlarmManagerService$LocalService.isIdling:()Z -->
<g id="node8" class="node">
<title>m::com.android.server.alarm.AlarmManagerService$LocalService.isIdling:()Z</title>
<path fill="#eef2ff" stroke="#a5b4fc" d="M343,-264C343,-264 112,-264 112,-264 106,-264 100,-258 100,-252 100,-252 100,-240 100,-240 100,-234 106,-228 112,-228 112,-228 343,-228 343,-228 349,-228 355,-234 355,-240 355,-240 355,-252 355,-252 355,-258 349,-264 343,-264"/>
<text text-anchor="middle" x="227.5" y="-243.2" font-family="Helvetica,sans-Serif" font-size="11.00">AlarmManagerService$LocalService.isIdling</text>
</g>
<!-- m::com.android.server.DeviceIdleController.verifyAlarmStateLocked:()V&#45;&gt;m::com.android.server.alarm.AlarmManagerService$LocalService.isIdling:()Z -->
<g id="edge6" class="edge">
<title>m::com.android.server.DeviceIdleController.verifyAlarmStateLocked:()V&#45;&gt;m::com.android.server.alarm.AlarmManagerService$LocalService.isIdling:()Z</title>
<path fill="none" stroke="#64748b" d="M218.4,-300.81C219.86,-292.18 221.66,-281.56 223.27,-272.03"/>
<polygon fill="#64748b" stroke="#64748b" points="226.05,-272.38 224.62,-264.03 220.53,-271.45 226.05,-272.38"/>
</g>
<!-- m::com.android.server.alarm.AlarmManagerService.&#45;$$Nest$misIdlingImpl:(Lcom/android/server/alarm/AlarmManagerService;)Z -->
<g id="node9" class="node">
<title>m::com.android.server.alarm.AlarmManagerService.&#45;$$Nest$misIdlingImpl:(Lcom/android/server/alarm/AlarmManagerService;)Z</title>
<path fill="#eef2ff" stroke="#a5b4fc" d="M364,-191C364,-191 125,-191 125,-191 119,-191 113,-185 113,-179 113,-179 113,-167 113,-167 113,-161 119,-155 125,-155 125,-155 364,-155 364,-155 370,-155 376,-161 376,-167 376,-167 376,-179 376,-179 376,-185 370,-191 364,-191"/>
<text text-anchor="middle" x="244.5" y="-170.2" font-family="Helvetica,sans-Serif" font-size="11.00">AlarmManagerService.&#45;$$Nest$misIdlingImpl</text>
</g>
<!-- m::com.android.server.alarm.AlarmManagerService$LocalService.isIdling:()Z&#45;&gt;m::com.android.server.alarm.AlarmManagerService.&#45;$$Nest$misIdlingImpl:(Lcom/android/server/alarm/AlarmManagerService;)Z -->
<g id="edge7" class="edge">
<title>m::com.android.server.alarm.AlarmManagerService$LocalService.isIdling:()Z&#45;&gt;m::com.android.server.alarm.AlarmManagerService.&#45;$$Nest$misIdlingImpl:(Lcom/android/server/alarm/AlarmManagerService;)Z</title>
<path fill="none" stroke="#64748b" d="M231.62,-227.81C233.68,-219.18 236.23,-208.56 238.51,-199.03"/>
<polygon fill="#64748b" stroke="#64748b" points="241.28,-199.46 240.42,-191.03 235.84,-198.16 241.28,-199.46"/>
</g>
<!-- m::com.android.server.alarm.AlarmManagerService.isIdlingImpl:()Z -->
<g id="node10" class="node">
<title>m::com.android.server.alarm.AlarmManagerService.isIdlingImpl:()Z</title>
<path fill="#eef2ff" stroke="#a5b4fc" d="M357,-118C357,-118 178,-118 178,-118 172,-118 166,-112 166,-106 166,-106 166,-94 166,-94 166,-88 172,-82 178,-82 178,-82 357,-82 357,-82 363,-82 369,-88 369,-94 369,-94 369,-106 369,-106 369,-112 363,-118 357,-118"/>
<text text-anchor="middle" x="267.5" y="-97.2" font-family="Helvetica,sans-Serif" font-size="11.00">AlarmManagerService.isIdlingImpl</text>
</g>
<!-- m::com.android.server.alarm.AlarmManagerService.&#45;$$Nest$misIdlingImpl:(Lcom/android/server/alarm/AlarmManagerService;)Z&#45;&gt;m::com.android.server.alarm.AlarmManagerService.isIdlingImpl:()Z -->
<g id="edge8" class="edge">
<title>m::com.android.server.alarm.AlarmManagerService.&#45;$$Nest$misIdlingImpl:(Lcom/android/server/alarm/AlarmManagerService;)Z&#45;&gt;m::com.android.server.alarm.AlarmManagerService.isIdlingImpl:()Z</title>
<path fill="none" stroke="#64748b" d="M250.07,-154.81C252.89,-146.09 256.38,-135.34 259.48,-125.75"/>
<polygon fill="#64748b" stroke="#64748b" points="262.18,-126.5 261.98,-118.03 256.85,-124.78 262.18,-126.5"/>
</g>
<!-- m::com.android.server.alarm.AlarmManagerService.isIdlingImpl:()Z&#45;&gt;com.android.server.alarm.AlarmManagerService.mLock -->
<g id="edge9" class="edge">
<title>m::com.android.server.alarm.AlarmManagerService.isIdlingImpl:()Z&#45;&gt;com.android.server.alarm.AlarmManagerService.mLock</title>
<path fill="none" stroke="#dc2626" stroke-width="1.6" d="M283.56,-81.64C294.3,-70.03 308.55,-54.63 320.23,-42"/>
<polygon fill="#dc2626" stroke="#dc2626" stroke-width="1.6" points="322.35,-43.82 325.73,-36.05 318.24,-40.02 322.35,-43.82"/>
<text text-anchor="middle" x="330.5" y="-56.8" font-family="Helvetica,sans-Serif" font-size="9.00" fill="#dc2626"> acquires</text>
</g>
</g>
</svg>
