<?xml version="1.0" encoding="UTF-8" standalone="no"?>
<!DOCTYPE svg PUBLIC "-//W3C//DTD SVG 1.1//EN"
 "http://www.w3.org/Graphics/SVG/1.1/DTD/svg11.dtd">
<!-- Generated by graphviz version 2.43.0 (0)
 -->
<!-- Title: cycle Pages: 1 -->
<svg width="354pt" height="436pt"
 viewBox="0.00 0.00 354.00 436.00" xmlns="http://www.w3.org/2000/svg" xmlns:xlink="http://www.w3.org/1999/xlink">
<g id="graph0" class="graph" transform="scale(1 1) rotate(0) translate(4 432)">
<title>cycle</title>
<polygon fill="white" stroke="transparent" points="-4,4 -4,-432 350,-432 350,4 -4,4"/>
<!-- com.android.server.hdmi.HdmiControlService.mLock -->
<g id="node1" class="node">
<title>com.android.server.hdmi.HdmiControlService.mLock</title>
<path fill="#fee2e2" stroke="#dc2626" stroke-width="2" d="M317.5,-428C317.5,-428 146.5,-428 146.5,-428 140.5,-428 134.5,-422 134.5,-416 134.5,-416 134.5,-404 134.5,-404 134.5,-398 140.5,-392 146.5,-392 146.5,-392 317.5,-392 317.5,-392 323.5,-392 329.5,-398 329.5,-404 329.5,-404 329.5,-416 329.5,-416 329.5,-422 323.5,-428 317.5,-428"/>
<text text-anchor="middle" x="232" y="-406.6" font-family="Helvetica,sans-Serif" font-size="13.00">HdmiControlService.mLock</text>
</g>
<!-- m::com.android.server.hdmi.HdmiControlService$22.onAllocated:(II)V -->
<g id="node3" class="node">
<title>m::com.android.server.hdmi.HdmiControlService$22.onAllocated:(II)V</title>
<path fill="#eef2ff" stroke="#a5b4fc" d="M254,-346C254,-346 64,-346 64,-346 58,-346 52,-340 52,-334 52,-334 52,-322 52,-322 52,-316 58,-310 64,-310 64,-310 254,-310 254,-310 260,-310 266,-316 266,-322 266,-322 266,-334 266,-334 266,-340 260,-346 254,-346"/>
<text text-anchor="middle" x="159" y="-325.2" font-family="Helvetica,sans-Serif" font-size="11.00">HdmiControlService$22.onAllocated</text>
</g>
<!-- com.android.server.hdmi.HdmiControlService.mLock&#45;&gt;m::com.android.server.hdmi.HdmiControlService$22.onAllocated:(II)V -->
<g id="edge1" class="edge">
<title>com.android.server.hdmi.HdmiControlService.mLock&#45;&gt;m::com.android.server.hdmi.HdmiControlService$22.onAllocated:(II)V</title>
<path fill="none" stroke="#dc2626" stroke-width="1.6" d="M216.16,-391.64C205.57,-380.03 191.51,-364.63 179.98,-352"/>
<polygon fill="#dc2626" stroke="#dc2626" stroke-width="1.6" points="182.02,-350.07 174.56,-346.05 177.88,-353.85 182.02,-350.07"/>
<text text-anchor="middle" x="214" y="-366.8" font-family="Helvetica,sans-Serif" font-size="9.00" fill="#dc2626"> holds</text>
</g>
<!-- com.android.server.hdmi.HdmiLocalDevice.mLock -->
<g id="node2" class="node">
<title>com.android.server.hdmi.HdmiLocalDevice.mLock</title>
<path fill="#fee2e2" stroke="#dc2626" stroke-width="2" d="M224,-191C224,-191 70,-191 70,-191 64,-191 58,-185 58,-179 58,-179 58,-167 58,-167 58,-161 64,-155 70,-155 70,-155 224,-155 224,-155 230,-155 236,-161 236,-167 236,-167 236,-179 236,-179 236,-185 230,-191 224,-191"/>
<text text-anchor="middle" x="147" y="-169.6" font-family="Helvetica,sans-Serif" font-size="13.00">HdmiLocalDevice.mLock</text>
</g>
<!-- m::com.android.server.hdmi.HdmiCecLocalDeviceAudioSystem.onStandby:(ZILcom/android/server/hdmi/HdmiCecLocalDevice$StandbyCompletedCallback;)V -->
<g id="node5" class="node">
<title>m::com.android.server.hdmi.HdmiCecLocalDeviceAudioSystem.onStandby:(ZILcom/android/server/hdmi/HdmiCecLocalDevice$StandbyCompletedCallback;)V</title>
<path fill="#eef2ff" stroke="#a5b4fc" d="M254,-109C254,-109 12,-109 12,-109 6,-109 0,-103 0,-97 0,-97 0,-85 0,-85 0,-79 6,-73 12,-73 12,-73 254,-73 254,-73 260,-73 266,-79 266,-85 266,-85 266,-97 266,-97 266,-103 260,-109 254,-109"/>
<text text-anchor="middle" x="133" y="-88.2" font-family="Helvetica,sans-Serif" font-size="11.00">HdmiCecLocalDeviceAudioSystem.onStandby</text>
</g>
<!-- com.android.server.hdmi.HdmiLocalDevice.mLock&#45;&gt;m::com.android.server.hdmi.HdmiCecLocalDeviceAudioSystem.onStandby:(ZILcom/android/server/hdmi/HdmiCecLocalDevice$StandbyCompletedCallback;)V -->
<g id="edge4" class="edge">
<title>com.android.server.hdmi.HdmiLocalDevice.mLock&#45;&gt;m::com.android.server.hdmi.HdmiCecLocalDeviceAudioSystem.onStandby:(ZILcom/android/server/hdmi/HdmiCecLocalDevice$StandbyCompletedCallback;)V</title>
<path fill="none" stroke="#dc2626" stroke-width="1.6" d="M143.96,-154.64C142.04,-143.66 139.53,-129.29 137.39,-117.09"/>
<polygon fill="#dc2626" stroke="#dc2626" stroke-width="1.6" points="140.12,-116.45 135.98,-109.05 134.6,-117.41 140.12,-116.45"/>
<text text-anchor="middle" x="155" y="-129.8" font-family="Helvetica,sans-Serif" font-size="9.00" fill="#dc2626"> holds</text>
</g>
<!-- m::com.android.server.hdmi.HdmiCecLocalDevice.setDeviceInfo:(Landroid/hardware/hdmi/HdmiDeviceInfo;)V -->
<g id="node4" class="node">
<title>m::com.android.server.hdmi.HdmiCecLocalDevice.setDeviceInfo:(Landroid/hardware/hdmi/HdmiDeviceInfo;)V</title>
<path fill="#eef2ff" stroke="#a5b4fc" d="M249,-273C249,-273 63,-273 63,-273 57,-273 51,-267 51,-261 51,-261 51,-249 51,-249 51,-243 57,-237 63,-237 63,-237 249,-237 249,-237 255,-237 261,-243 261,-249 261,-249 261,-261 261,-261 261,-267 255,-273 249,-273"/>
<text text-anchor="middle" x="156" y="-252.2" font-family="Helvetica,sans-Serif" font-size="11.00">HdmiCecLocalDevice.setDeviceInfo</text>
</g>
<!-- m::com.android.server.hdmi.HdmiControlService$22.onAllocated:(II)V&#45;&gt;m::com.android.server.hdmi.HdmiCecLocalDevice.setDeviceInfo:(Landroid/hardware/hdmi/HdmiDeviceInfo;)V -->
<g id="edge2" class="edge">
<title>m::com.android.server.hdmi.HdmiControlService$22.onAllocated:(II)V&#45;&gt;m::com.android.server.hdmi.HdmiCecLocalDevice.setDeviceInfo:(Landroid/hardware/hdmi/HdmiDeviceInfo;)V</title>
<path fill="none" stroke="#64748b" d="M158.27,-309.81C157.91,-301.18 157.46,-290.56 157.06,-281.03"/>
<polygon fill="#64748b" stroke="#64748b" points="159.85,-280.9 156.72,-273.03 154.26,-281.14 159.85,-280.9"/>
</g>
<!-- m::com.android.server.hdmi.HdmiCecLocalDevice.setDeviceInfo:(Landroid/hardware/hdmi/HdmiDeviceInfo;)V&#45;&gt;com.android.server.hdmi.HdmiLocalDevice.mLock -->
<g id="edge3" class="edge">
<title>m::com.android.server.hdmi.HdmiCecLocalDevice.setDeviceInfo:(Landroid/hardware/hdmi/HdmiDeviceInfo;)V&#45;&gt;com.android.server.hdmi.HdmiLocalDevice.mLock</title>
<path fill="none" stroke="#dc2626" stroke-width="1.6" d="M154.05,-236.64C152.81,-225.66 151.2,-211.29 149.82,-199.09"/>
<polygon fill="#dc2626" stroke="#dc2626" stroke-width="1.6" points="152.6,-198.69 148.92,-191.05 147.03,-199.31 152.6,-198.69"/>
<text text-anchor="middle" x="174" y="-211.8" font-family="Helvetica,sans-Serif" font-size="9.00" fill="#dc2626"> acquires</text>
</g>
<!-- m::com.android.server.hdmi.HdmiControlService.setActiveSource:(IILjava/lang/String;)V -->
<g id="node6" class="node">
<title>m::com.android.server.hdmi.HdmiControlService.setActiveSource:(IILjava/lang/String;)V</title>
<path fill="#eef2ff" stroke="#a5b4fc" d="M315,-36C315,-36 121,-36 121,-36 115,-36 109,-30 109,-24 109,-24 109,-12 109,-12 109,-6 115,0 121,0 121,0 315,0 315,0 321,0 327,-6 327,-12 327,-12 327,-24 327,-24 327,-30 321,-36 315,-36"/>
<text text-anchor="middle" x="218" y="-15.2" font-family="Helvetica,sans-Serif" font-size="11.00">HdmiControlService.setActiveSource</text>
</g>
<!-- m::com.android.server.hdmi.HdmiCecLocalDeviceAudioSystem.onStandby:(ZILcom/android/server/hdmi/HdmiCecLocalDevice$StandbyCompletedCallback;)V&#45;&gt;m::com.android.server.hdmi.HdmiControlService.setActiveSource:(IILjava/lang/String;)V -->
<g id="edge5" class="edge">
<title>m::com.android.server.hdmi.HdmiCecLocalDeviceAudioSystem.onStandby:(ZILcom/android/server/hdmi/HdmiCecLocalDevice$StandbyCompletedCallback;)V&#45;&gt;m::com.android.server.hdmi.HdmiControlService.setActiveSource:(IILjava/lang/String;)V</title>
<path fill="none" stroke="#64748b" d="M153.58,-72.81C164.96,-63.31 179.23,-51.39 191.44,-41.19"/>
<polygon fill="#64748b" stroke="#64748b" points="193.27,-43.31 197.61,-36.03 189.68,-39.01 193.27,-43.31"/>
</g>
<!-- m::com.android.server.hdmi.HdmiControlService.setActiveSource:(IILjava/lang/String;)V&#45;&gt;com.android.server.hdmi.HdmiControlService.mLock -->
<g id="edge6" class="edge">
<title>m::com.android.server.hdmi.HdmiControlService.setActiveSource:(IILjava/lang/String;)V&#45;&gt;com.android.server.hdmi.HdmiControlService.mLock</title>
<path fill="none" stroke="#dc2626" stroke-width="1.6" d="M261.25,-36.05C282.67,-47.61 304,-65.31 304,-90 304,-329 304,-329 304,-329 304,-352.96 285.93,-373 267.89,-387.02"/>
<polygon fill="#dc2626" stroke="#dc2626" stroke-width="1.6" points="266.05,-384.9 261.29,-391.91 269.38,-389.4 266.05,-384.9"/>
<text text-anchor="middle" x="325" y="-211.8" font-family="Helvetica,sans-Serif" font-size="9.00" fill="#dc2626"> acquires</text>
</g>
</g>
</svg>
