<?xml version="1.0" encoding="UTF-8" standalone="no"?>
<!DOCTYPE svg PUBLIC "-//W3C//DTD SVG 1.1//EN"
 "http://www.w3.org/Graphics/SVG/1.1/DTD/svg11.dtd">
<!-- Generated by graphviz version 2.43.0 (0)
 -->
<!-- Title: cycle Pages: 1 -->
<svg width="908pt" height="1257pt"
 viewBox="0.00 0.00 907.50 1257.00" xmlns="http://www.w3.org/2000/svg" xmlns:xlink="http://www.w3.org/1999/xlink">
<g id="graph0" class="graph" transform="scale(1 1) rotate(0) translate(4 1253)">
<title>cycle</title>
<polygon fill="white" stroke="transparent" points="-4,4 -4,-1253 903.5,-1253 903.5,4 -4,4"/>
<!-- com.android.server.companion.securechannel.SecureChannel.mHandshakeLock -->
<g id="node1" class="node">
<title>com.android.server.companion.securechannel.SecureChannel.mHandshakeLock</title>
<path fill="#fee2e2" stroke="#dc2626" stroke-width="2" d="M871.5,-1249C871.5,-1249 659.5,-1249 659.5,-1249 653.5,-1249 647.5,-1243 647.5,-1237 647.5,-1237 647.5,-1225 647.5,-1225 647.5,-1219 653.5,-1213 659.5,-1213 659.5,-1213 871.5,-1213 871.5,-1213 877.5,-1213 883.5,-1219 883.5,-1225 883.5,-1225 883.5,-1237 883.5,-1237 883.5,-1243 877.5,-1249 871.5,-1249"/>
<text text-anchor="middle" x="765.5" y="-1227.6" font-family="Helvetica,sans-Serif" font-size="13.00">SecureChannel.mHandshakeLock</text>
</g>
<!-- m::com.android.server.companion.securechannel.SecureChannel.exchangeHandshake:()V -->
<g id="node4" class="node">
<title>m::com.android.server.companion.securechannel.SecureChannel.exchangeHandshake:()V</title>
<path fill="#eef2ff" stroke="#a5b4fc" d="M715,-1167C715,-1167 524,-1167 524,-1167 518,-1167 512,-1161 512,-1155 512,-1155 512,-1143 512,-1143 512,-1137 518,-1131 524,-1131 524,-1131 715,-1131 715,-1131 721,-1131 727,-1137 727,-1143 727,-1143 727,-1155 727,-1155 727,-1161 721,-1167 715,-1167"/>
<text text-anchor="middle" x="619.5" y="-1146.2" font-family="Helvetica,sans-Serif" font-size="11.00">SecureChannel.exchangeHandshake</text>
</g>
<!-- com.android.server.companion.securechannel.SecureChannel.mHandshakeLock&#45;&gt;m::com.android.server.companion.securechannel.SecureChannel.exchangeHandshake:()V -->
<g id="edge1" class="edge">
<title>com.android.server.companion.securechannel.SecureChannel.mHandshakeLock&#45;&gt;m::com.android.server.companion.securechannel.SecureChannel.exchangeHandshake:()V</title>
<path fill="none" stroke="#dc2626" stroke-width="1.6" d="M734.18,-1212.84C711.85,-1200.61 681.71,-1184.09 657.93,-1171.06"/>
<polygon fill="#dc2626" stroke="#dc2626" stroke-width="1.6" points="659.13,-1168.52 650.77,-1167.13 656.44,-1173.43 659.13,-1168.52"/>
<text text-anchor="middle" x="717.5" y="-1187.8" font-family="Helvetica,sans-Serif" font-size="9.00" fill="#dc2626"> held in</text>
</g>
<!-- com.android.server.companion.transport.CompanionTransportManager.mTransports -->
<g id="node2" class="node">
<title>com.android.server.companion.transport.CompanionTransportManager.mTransports</title>
<path fill="#fee2e2" stroke="#dc2626" stroke-width="2" d="M375.5,-264C375.5,-264 103.5,-264 103.5,-264 97.5,-264 91.5,-258 91.5,-252 91.5,-252 91.5,-240 91.5,-240 91.5,-234 97.5,-228 103.5,-228 103.5,-228 375.5,-228 375.5,-228 381.5,-228 387.5,-234 387.5,-240 387.5,-240 387.5,-252 387.5,-252 387.5,-258 381.5,-264 375.5,-264"/>
<text text-anchor="middle" x="239.5" y="-242.6" font-family="Helvetica,sans-Serif" font-size="13.00">CompanionTransportManager.mTransports</text>
</g>
<!-- m::com.android.server.companion.transport.CompanionTransportManager.sendMessage:(I[B[I)Landroid/util/SparseArray; -->
<g id="node6" class="node">
<title>m::com.android.server.companion.transport.CompanionTransportManager.sendMessage:(I[B[I)Landroid/util/SparseArray;</title>
<path fill="#eef2ff" stroke="#a5b4fc" d="M376.5,-182C376.5,-182 144.5,-182 144.5,-182 138.5,-182 132.5,-176 132.5,-170 132.5,-170 132.5,-158 132.5,-158 132.5,-152 138.5,-146 144.5,-146 144.5,-146 376.5,-146 376.5,-146 382.5,-146 388.5,-152 388.5,-158 388.5,-158 388.5,-170 388.5,-170 388.5,-176 382.5,-182 376.5,-182"/>
<text text-anchor="middle" x="260.5" y="-161.2" font-family="Helvetica,sans-Serif" font-size="11.00">CompanionTransportManager.sendMessage</text>
</g>
<!-- com.android.server.companion.transport.CompanionTransportManager.mTransports&#45;&gt;m::com.android.server.companion.transport.CompanionTransportManager.sendMessage:(I[B[I)Landroid/util/SparseArray; -->
<g id="edge4" class="edge">
<title>com.android.server.companion.transport.CompanionTransportManager.mTransports&#45;&gt;m::com.android.server.companion.transport.CompanionTransportManager.sendMessage:(I[B[I)Landroid/util/SparseArray;</title>
<path fill="none" stroke="#dc2626" stroke-width="1.6" d="M244.06,-227.64C246.94,-216.66 250.71,-202.29 253.91,-190.09"/>
<polygon fill="#dc2626" stroke="#dc2626" stroke-width="1.6" points="256.7,-190.5 256.02,-182.05 251.28,-189.08 256.7,-190.5"/>
<text text-anchor="middle" x="268.5" y="-202.8" font-family="Helvetica,sans-Serif" font-size="9.00" fill="#dc2626"> held in</text>
</g>
<!-- com.android.server.companion.transport.Transport.mRemoteIn -->
<g id="node3" class="node">
<title>com.android.server.companion.transport.Transport.mRemoteIn</title>
<path fill="#fee2e2" stroke="#dc2626" stroke-width="2" d="M686.5,-1012C686.5,-1012 552.5,-1012 552.5,-1012 546.5,-1012 540.5,-1006 540.5,-1000 540.5,-1000 540.5,-988 540.5,-988 540.5,-982 546.5,-976 552.5,-976 552.5,-976 686.5,-976 686.5,-976 692.5,-976 698.5,-982 698.5,-988 698.5,-988 698.5,-1000 698.5,-1000 698.5,-1006 692.5,-1012 686.5,-1012"/>
<text text-anchor="middle" x="619.5" y="-990.6" font-family="Helvetica,sans-Serif" font-size="13.00">Transport.mRemoteIn</text>
</g>
<!-- m::com.android.server.companion.transport.RawTransport.receiveMessage:()V -->
<g id="node13" class="node">
<title>m::com.android.server.companion.transport.RawTransport.receiveMessage:()V</title>
<path fill="#eef2ff" stroke="#a5b4fc" d="M663,-930C663,-930 502,-930 502,-930 496,-930 490,-924 490,-918 490,-918 490,-906 490,-906 490,-900 496,-894 502,-894 502,-894 663,-894 663,-894 669,-894 675,-900 675,-906 675,-906 675,-918 675,-918 675,-924 669,-930 663,-930"/>
<text text-anchor="middle" x="582.5" y="-909.2" font-family="Helvetica,sans-Serif" font-size="11.00">RawTransport.receiveMessage</text>
</g>
<!-- com.android.server.companion.transport.Transport.mRemoteIn&#45;&gt;m::com.android.server.companion.transport.RawTransport.receiveMessage:()V -->
<g id="edge12" class="edge">
<title>com.android.server.companion.transport.Transport.mRemoteIn&#45;&gt;m::com.android.server.companion.transport.RawTransport.receiveMessage:()V</title>
<path fill="none" stroke="#dc2626" stroke-width="1.6" d="M577.86,-975.89C570.91,-971.14 564.63,-965.24 560.5,-958 556.77,-951.45 558.09,-944.18 561.46,-937.43"/>
<polygon fill="#dc2626" stroke="#dc2626" stroke-width="1.6" points="564,-938.64 565.79,-930.36 559.22,-935.72 564,-938.64"/>
<text text-anchor="middle" x="577.5" y="-950.8" font-family="Helvetica,sans-Serif" font-size="9.00" fill="#dc2626"> held in</text>
</g>
<!-- com.android.server.companion.transport.Transport.mRemoteIn&#45;&gt;m::com.android.server.companion.transport.RawTransport.receiveMessage:()V -->
<g id="edge20" class="edge">
<title>com.android.server.companion.transport.Transport.mRemoteIn&#45;&gt;m::com.android.server.companion.transport.RawTransport.receiveMessage:()V</title>
<path fill="none" stroke="#dc2626" stroke-width="1.6" d="M611.47,-975.64C606.3,-964.45 599.49,-949.74 593.78,-937.39"/>
<polygon fill="#dc2626" stroke="#dc2626" stroke-width="1.6" points="596.29,-936.14 590.39,-930.05 591.2,-938.49 596.29,-936.14"/>
<text text-anchor="middle" x="620.5" y="-950.8" font-family="Helvetica,sans-Serif" font-size="9.00" fill="#dc2626"> held in</text>
</g>
<!-- m::com.android.server.companion.securechannel.SecureChannel.readMessage:(Lcom/android/server/companion/securechannel/SecureChannel$MessageType;)[B -->
<g id="node5" class="node">
<title>m::com.android.server.companion.securechannel.SecureChannel.readMessage:(Lcom/android/server/companion/securechannel/SecureChannel$MessageType;)[B</title>
<path fill="#eef2ff" stroke="#a5b4fc" d="M695.5,-1094C695.5,-1094 543.5,-1094 543.5,-1094 537.5,-1094 531.5,-1088 531.5,-1082 531.5,-1082 531.5,-1070 531.5,-1070 531.5,-1064 537.5,-1058 543.5,-1058 543.5,-1058 695.5,-1058 695.5,-1058 701.5,-1058 707.5,-1064 707.5,-1070 707.5,-1070 707.5,-1082 707.5,-1082 707.5,-1088 701.5,-1094 695.5,-1094"/>
<text text-anchor="middle" x="619.5" y="-1073.2" font-family="Helvetica,sans-Serif" font-size="11.00">SecureChannel.readMessage</text>
</g>
<!-- m::com.android.server.companion.securechannel.SecureChannel.exchangeHandshake:()V&#45;&gt;m::com.android.server.companion.securechannel.SecureChannel.readMessage:(Lcom/android/server/companion/securechannel/SecureChannel$MessageType;)[B -->
<g id="edge2" class="edge">
<title>m::com.android.server.companion.securechannel.SecureChannel.exchangeHandshake:()V&#45;&gt;m::com.android.server.companion.securechannel.SecureChannel.readMessage:(Lcom/android/server/companion/securechannel/SecureChannel$MessageType;)[B</title>
<path fill="none" stroke="#64748b" d="M619.5,-1130.81C619.5,-1122.18 619.5,-1111.56 619.5,-1102.03"/>
<polygon fill="#64748b" stroke="#64748b" points="622.3,-1102.03 619.5,-1094.03 616.7,-1102.03 622.3,-1102.03"/>
</g>
<!-- m::com.android.server.companion.securechannel.SecureChannel.readMessage:(Lcom/android/server/companion/securechannel/SecureChannel$MessageType;)[B&#45;&gt;com.android.server.companion.transport.Transport.mRemoteIn -->
<g id="edge3" class="edge">
<title>m::com.android.server.companion.securechannel.SecureChannel.readMessage:(Lcom/android/server/companion/securechannel/SecureChannel$MessageType;)[B&#45;&gt;com.android.server.companion.transport.Transport.mRemoteIn</title>
<path fill="none" stroke="#dc2626" stroke-width="1.6" d="M619.5,-1057.64C619.5,-1046.66 619.5,-1032.29 619.5,-1020.09"/>
<polygon fill="#dc2626" stroke="#dc2626" stroke-width="1.6" points="622.3,-1020.05 619.5,-1012.05 616.7,-1020.05 622.3,-1020.05"/>
<text text-anchor="middle" x="640.5" y="-1032.8" font-family="Helvetica,sans-Serif" font-size="9.00" fill="#dc2626"> acquires</text>
</g>
<!-- m::com.android.server.companion.transport.Transport.sendMessage:(I[B)Ljava/util/concurrent/Future; -->
<g id="node7" class="node">
<title>m::com.android.server.companion.transport.Transport.sendMessage:(I[B)Ljava/util/concurrent/Future;</title>
<path fill="#eef2ff" stroke="#a5b4fc" d="M368,-109C368,-109 245,-109 245,-109 239,-109 233,-103 233,-97 233,-97 233,-85 233,-85 233,-79 239,-73 245,-73 245,-73 368,-73 368,-73 374,-73 380,-79 380,-85 380,-85 380,-97 380,-97 380,-103 374,-109 368,-109"/>
<text text-anchor="middle" x="306.5" y="-88.2" font-family="Helvetica,sans-Serif" font-size="11.00">Transport.sendMessage</text>
</g>
<!-- m::com.android.server.companion.transport.CompanionTransportManager.sendMessage:(I[B[I)Landroid/util/SparseArray;&#45;&gt;m::com.android.server.companion.transport.Transport.sendMessage:(I[B)Ljava/util/concurrent/Future; -->
<g id="edge5" class="edge">
<title>m::com.android.server.companion.transport.CompanionTransportManager.sendMessage:(I[B[I)Landroid/util/SparseArray;&#45;&gt;m::com.android.server.companion.transport.Transport.sendMessage:(I[B)Ljava/util/concurrent/Future;</title>
<path fill="none" stroke="#64748b" d="M271.64,-145.81C277.46,-136.83 284.67,-125.69 291.02,-115.89"/>
<polygon fill="#64748b" stroke="#64748b" points="293.47,-117.27 295.47,-109.03 288.77,-114.22 293.47,-117.27"/>
</g>
<!-- m::com.android.server.companion.transport.Transport.sendAndForget:(I[B)Ljava/util/concurrent/Future; -->
<g id="node8" class="node">
<title>m::com.android.server.companion.transport.Transport.sendAndForget:(I[B)Ljava/util/concurrent/Future;</title>
<path fill="#eef2ff" stroke="#a5b4fc" d="M441,-36C441,-36 310,-36 310,-36 304,-36 298,-30 298,-24 298,-24 298,-12 298,-12 298,-6 304,0 310,0 310,0 441,0 441,0 447,0 453,-6 453,-12 453,-12 453,-24 453,-24 453,-30 447,-36 441,-36"/>
<text text-anchor="middle" x="375.5" y="-15.2" font-family="Helvetica,sans-Serif" font-size="11.00">Transport.sendAndForget</text>
</g>
<!-- m::com.android.server.companion.transport.Transport.sendMessage:(I[B)Ljava/util/concurrent/Future;&#45;&gt;m::com.android.server.companion.transport.Transport.sendAndForget:(I[B)Ljava/util/concurrent/Future; -->
<g id="edge6" class="edge">
<title>m::com.android.server.companion.transport.Transport.sendMessage:(I[B)Ljava/util/concurrent/Future;&#45;&gt;m::com.android.server.companion.transport.Transport.sendAndForget:(I[B)Ljava/util/concurrent/Future;</title>
<path fill="none" stroke="#64748b" d="M323.2,-72.81C332.19,-63.57 343.39,-52.04 353.12,-42.03"/>
<polygon fill="#64748b" stroke="#64748b" points="355.38,-43.72 358.95,-36.03 351.37,-39.81 355.38,-43.72"/>
</g>
<!-- m::com.android.server.companion.transport.SecureTransport.sendMessage:(II[B)V -->
<g id="node9" class="node">
<title>m::com.android.server.companion.transport.SecureTransport.sendMessage:(II[B)V</title>
<path fill="#eef2ff" stroke="#a5b4fc" d="M663,-711C663,-711 502,-711 502,-711 496,-711 490,-705 490,-699 490,-699 490,-687 490,-687 490,-681 496,-675 502,-675 502,-675 663,-675 663,-675 669,-675 675,-681 675,-687 675,-687 675,-699 675,-699 675,-705 669,-711 663,-711"/>
<text text-anchor="middle" x="582.5" y="-690.2" font-family="Helvetica,sans-Serif" font-size="11.00">SecureTransport.sendMessage</text>
</g>
<!-- m::com.android.server.companion.transport.Transport.sendAndForget:(I[B)Ljava/util/concurrent/Future;&#45;&gt;m::com.android.server.companion.transport.SecureTransport.sendMessage:(II[B)V -->
<g id="edge7" class="edge">
<title>m::com.android.server.companion.transport.Transport.sendAndForget:(I[B)Ljava/util/concurrent/Future;&#45;&gt;m::com.android.server.companion.transport.SecureTransport.sendMessage:(II[B)V</title>
<path fill="none" stroke="#64748b" d="M399.9,-36.26C414.99,-49.12 431.5,-68.18 431.5,-90 431.5,-621 431.5,-621 431.5,-621 431.5,-649.85 454.36,-667 482.28,-677.19"/>
<polygon fill="#64748b" stroke="#64748b" points="481.41,-679.84 489.88,-679.75 483.2,-674.54 481.41,-679.84"/>
</g>
<!-- m::com.android.server.companion.transport.SecureTransport.establishSecureConnection:()V -->
<g id="node10" class="node">
<title>m::com.android.server.companion.transport.SecureTransport.establishSecureConnection:()V</title>
<path fill="#eef2ff" stroke="#a5b4fc" d="M715.5,-638C715.5,-638 481.5,-638 481.5,-638 475.5,-638 469.5,-632 469.5,-626 469.5,-626 469.5,-614 469.5,-614 469.5,-608 475.5,-602 481.5,-602 481.5,-602 715.5,-602 715.5,-602 721.5,-602 727.5,-608 727.5,-614 727.5,-614 727.5,-626 727.5,-626 727.5,-632 721.5,-638 715.5,-638"/>
<text text-anchor="middle" x="598.5" y="-617.2" font-family="Helvetica,sans-Serif" font-size="11.00">SecureTransport.establishSecureConnection</text>
</g>
<!-- m::com.android.server.companion.transport.SecureTransport.sendMessage:(II[B)V&#45;&gt;m::com.android.server.companion.transport.SecureTransport.establishSecureConnection:()V -->
<g id="edge8" class="edge">
<title>m::com.android.server.companion.transport.SecureTransport.sendMessage:(II[B)V&#45;&gt;m::com.android.server.companion.transport.SecureTransport.establishSecureConnection:()V</title>
<path fill="none" stroke="#64748b" d="M578.54,-674.81C579.28,-666.09 581.45,-655.34 584.3,-645.75"/>
<polygon fill="#64748b" stroke="#64748b" points="587,-646.5 586.85,-638.03 581.68,-644.75 587,-646.5"/>
</g>
<!-- m::com.android.server.companion.transport.SecureTransport.sendMessage:(II[B)V&#45;&gt;m::com.android.server.companion.transport.SecureTransport.establishSecureConnection:()V -->
<g id="edge16" class="edge">
<title>m::com.android.server.companion.transport.SecureTransport.sendMessage:(II[B)V&#45;&gt;m::com.android.server.companion.transport.SecureTransport.establishSecureConnection:()V</title>
<path fill="none" stroke="#64748b" d="M594.86,-674.81C598.11,-666.18 600.8,-655.56 602.22,-646.03"/>
<polygon fill="#64748b" stroke="#64748b" points="605.01,-646.29 603.13,-638.03 599.45,-645.66 605.01,-646.29"/>
</g>
<!-- m::com.android.server.companion.transport.SecureTransport.close:()V -->
<g id="node16" class="node">
<title>m::com.android.server.companion.transport.SecureTransport.close:()V</title>
<path fill="#eef2ff" stroke="#a5b4fc" d="M348.5,-638C348.5,-638 234.5,-638 234.5,-638 228.5,-638 222.5,-632 222.5,-626 222.5,-626 222.5,-614 222.5,-614 222.5,-608 228.5,-602 234.5,-602 234.5,-602 348.5,-602 348.5,-602 354.5,-602 360.5,-608 360.5,-614 360.5,-614 360.5,-626 360.5,-626 360.5,-632 354.5,-638 348.5,-638"/>
<text text-anchor="middle" x="291.5" y="-617.2" font-family="Helvetica,sans-Serif" font-size="11.00">SecureTransport.close</text>
</g>
<!-- m::com.android.server.companion.transport.SecureTransport.sendMessage:(II[B)V&#45;&gt;m::com.android.server.companion.transport.SecureTransport.close:()V -->
<g id="edge24" class="edge">
<title>m::com.android.server.companion.transport.SecureTransport.sendMessage:(II[B)V&#45;&gt;m::com.android.server.companion.transport.SecureTransport.close:()V</title>
<path fill="none" stroke="#64748b" d="M492.18,-674.91C466.34,-669.62 438.22,-663.46 412.5,-657 392.98,-652.1 371.89,-646.08 352.87,-640.37"/>
<polygon fill="#64748b" stroke="#64748b" points="353.6,-637.67 345.14,-638.04 351.98,-643.03 353.6,-637.67"/>
</g>
<!-- m::com.android.server.companion.securechannel.SecureChannel.establishSecureConnection:()V -->
<g id="node11" class="node">
<title>m::com.android.server.companion.securechannel.SecureChannel.establishSecureConnection:()V</title>
<path fill="#eef2ff" stroke="#a5b4fc" d="M714,-565C714,-565 487,-565 487,-565 481,-565 475,-559 475,-553 475,-553 475,-541 475,-541 475,-535 481,-529 487,-529 487,-529 714,-529 714,-529 720,-529 726,-535 726,-541 726,-541 726,-553 726,-553 726,-559 720,-565 714,-565"/>
<text text-anchor="middle" x="600.5" y="-544.2" font-family="Helvetica,sans-Serif" font-size="11.00">SecureChannel.establishSecureConnection</text>
</g>
<!-- m::com.android.server.companion.transport.SecureTransport.establishSecureConnection:()V&#45;&gt;m::com.android.server.companion.securechannel.SecureChannel.establishSecureConnection:()V -->
<g id="edge9" class="edge">
<title>m::com.android.server.companion.transport.SecureTransport.establishSecureConnection:()V&#45;&gt;m::com.android.server.companion.securechannel.SecureChannel.establishSecureConnection:()V</title>
<path fill="none" stroke="#64748b" d="M591.15,-601.81C590.19,-593.18 590.22,-582.56 591.15,-573.03"/>
<polygon fill="#64748b" stroke="#64748b" points="593.94,-573.33 592.2,-565.03 588.39,-572.6 593.94,-573.33"/>
</g>
<!-- m::com.android.server.companion.transport.SecureTransport.establishSecureConnection:()V&#45;&gt;m::com.android.server.companion.securechannel.SecureChannel.establishSecureConnection:()V -->
<g id="edge17" class="edge">
<title>m::com.android.server.companion.transport.SecureTransport.establishSecureConnection:()V&#45;&gt;m::com.android.server.companion.securechannel.SecureChannel.establishSecureConnection:()V</title>
<path fill="none" stroke="#64748b" d="M607.47,-601.81C609.02,-593.18 609.61,-582.56 609.16,-573.03"/>
<polygon fill="#64748b" stroke="#64748b" points="611.95,-572.77 608.49,-565.03 606.37,-573.23 611.95,-572.77"/>
</g>
<!-- m::com.android.server.companion.securechannel.SecureChannel.initiateHandshake:()V -->
<g id="node12" class="node">
<title>m::com.android.server.companion.securechannel.SecureChannel.initiateHandshake:()V</title>
<path fill="#eef2ff" stroke="#a5b4fc" d="M802,-492C802,-492 625,-492 625,-492 619,-492 613,-486 613,-480 613,-480 613,-468 613,-468 613,-462 619,-456 625,-456 625,-456 802,-456 802,-456 808,-456 814,-462 814,-468 814,-468 814,-480 814,-480 814,-486 808,-492 802,-492"/>
<text text-anchor="middle" x="713.5" y="-471.2" font-family="Helvetica,sans-Serif" font-size="11.00">SecureChannel.initiateHandshake</text>
</g>
<!-- m::com.android.server.companion.securechannel.SecureChannel.establishSecureConnection:()V&#45;&gt;m::com.android.server.companion.securechannel.SecureChannel.initiateHandshake:()V -->
<g id="edge10" class="edge">
<title>m::com.android.server.companion.securechannel.SecureChannel.establishSecureConnection:()V&#45;&gt;m::com.android.server.companion.securechannel.SecureChannel.initiateHandshake:()V</title>
<path fill="none" stroke="#64748b" d="M619.75,-528.99C634.04,-519.14 653.75,-506.66 671.49,-496.17"/>
<polygon fill="#64748b" stroke="#64748b" points="672.94,-498.57 678.44,-492.11 670.12,-493.73 672.94,-498.57"/>
</g>
<!-- m::com.android.server.companion.securechannel.SecureChannel.establishSecureConnection:()V&#45;&gt;m::com.android.server.companion.securechannel.SecureChannel.initiateHandshake:()V -->
<g id="edge18" class="edge">
<title>m::com.android.server.companion.securechannel.SecureChannel.establishSecureConnection:()V&#45;&gt;m::com.android.server.companion.securechannel.SecureChannel.initiateHandshake:()V</title>
<path fill="none" stroke="#64748b" d="M636.03,-528.99C652.91,-519.32 672.56,-507.1 687.98,-496.73"/>
<polygon fill="#64748b" stroke="#64748b" points="689.71,-498.94 694.74,-492.11 686.56,-494.31 689.71,-498.94"/>
</g>
<!-- m::com.android.server.companion.securechannel.SecureChannel.initiateHandshake:()V&#45;&gt;com.android.server.companion.securechannel.SecureChannel.mHandshakeLock -->
<g id="edge11" class="edge">
<title>m::com.android.server.companion.securechannel.SecureChannel.initiateHandshake:()V&#45;&gt;com.android.server.companion.securechannel.SecureChannel.mHandshakeLock</title>
<path fill="none" stroke="#dc2626" stroke-width="1.6" d="M735.55,-492.07C749.73,-505.11 765.5,-524.46 765.5,-546 765.5,-1150 765.5,-1150 765.5,-1150 765.5,-1168.28 765.5,-1188.91 765.5,-1204.64"/>
<polygon fill="#dc2626" stroke="#dc2626" stroke-width="1.6" points="762.7,-1204.83 765.5,-1212.83 768.3,-1204.83 762.7,-1204.83"/>
<text text-anchor="middle" x="786.5" y="-836.8" font-family="Helvetica,sans-Serif" font-size="9.00" fill="#dc2626"> acquires</text>
</g>
<!-- m::com.android.server.companion.securechannel.SecureChannel.initiateHandshake:()V&#45;&gt;com.android.server.companion.securechannel.SecureChannel.mHandshakeLock -->
<g id="edge19" class="edge">
<title>m::com.android.server.companion.securechannel.SecureChannel.initiateHandshake:()V&#45;&gt;com.android.server.companion.securechannel.SecureChannel.mHandshakeLock</title>
<path fill="none" stroke="#dc2626" stroke-width="1.6" d="M811.54,-492.02C837.04,-502.39 857.5,-519.1 857.5,-546 857.5,-1150 857.5,-1150 857.5,-1150 857.5,-1176.07 836.2,-1195.57 814.1,-1208.79"/>
<polygon fill="#dc2626" stroke="#dc2626" stroke-width="1.6" points="812.5,-1206.48 806.92,-1212.87 815.26,-1211.35 812.5,-1206.48"/>
<text text-anchor="middle" x="878.5" y="-836.8" font-family="Helvetica,sans-Serif" font-size="9.00" fill="#dc2626"> acquires</text>
</g>
<!-- m::com.android.server.companion.transport.Transport.handleMessage:(II[B)V -->
<g id="node14" class="node">
<title>m::com.android.server.companion.transport.Transport.handleMessage:(II[B)V</title>
<path fill="#eef2ff" stroke="#a5b4fc" d="M649.5,-857C649.5,-857 515.5,-857 515.5,-857 509.5,-857 503.5,-851 503.5,-845 503.5,-845 503.5,-833 503.5,-833 503.5,-827 509.5,-821 515.5,-821 515.5,-821 649.5,-821 649.5,-821 655.5,-821 661.5,-827 661.5,-833 661.5,-833 661.5,-845 661.5,-845 661.5,-851 655.5,-857 649.5,-857"/>
<text text-anchor="middle" x="582.5" y="-836.2" font-family="Helvetica,sans-Serif" font-size="11.00">Transport.handleMessage</text>
</g>
<!-- m::com.android.server.companion.transport.RawTransport.receiveMessage:()V&#45;&gt;m::com.android.server.companion.transport.Transport.handleMessage:(II[B)V -->
<g id="edge13" class="edge">
<title>m::com.android.server.companion.transport.RawTransport.receiveMessage:()V&#45;&gt;m::com.android.server.companion.transport.Transport.handleMessage:(II[B)V</title>
<path fill="none" stroke="#64748b" d="M574.66,-893.81C573.46,-885.18 573.19,-874.56 573.86,-865.03"/>
<polygon fill="#64748b" stroke="#64748b" points="576.65,-865.27 574.68,-857.03 571.08,-864.7 576.65,-865.27"/>
</g>
<!-- m::com.android.server.companion.transport.RawTransport.receiveMessage:()V&#45;&gt;m::com.android.server.companion.transport.Transport.handleMessage:(II[B)V -->
<g id="edge21" class="edge">
<title>m::com.android.server.companion.transport.RawTransport.receiveMessage:()V&#45;&gt;m::com.android.server.companion.transport.Transport.handleMessage:(II[B)V</title>
<path fill="none" stroke="#64748b" d="M590.99,-893.81C592.3,-885.18 592.59,-874.56 591.86,-865.03"/>
<polygon fill="#64748b" stroke="#64748b" points="594.64,-864.67 590.97,-857.03 589.07,-865.29 594.64,-864.67"/>
</g>
<!-- m::com.android.server.companion.transport.Transport.processRequest:(II[B)V -->
<g id="node15" class="node">
<title>m::com.android.server.companion.transport.Transport.processRequest:(II[B)V</title>
<path fill="#eef2ff" stroke="#a5b4fc" d="M650.5,-784C650.5,-784 514.5,-784 514.5,-784 508.5,-784 502.5,-778 502.5,-772 502.5,-772 502.5,-760 502.5,-760 502.5,-754 508.5,-748 514.5,-748 514.5,-748 650.5,-748 650.5,-748 656.5,-748 662.5,-754 662.5,-760 662.5,-760 662.5,-772 662.5,-772 662.5,-778 656.5,-784 650.5,-784"/>
<text text-anchor="middle" x="582.5" y="-763.2" font-family="Helvetica,sans-Serif" font-size="11.00">Transport.processRequest</text>
</g>
<!-- m::com.android.server.companion.transport.Transport.handleMessage:(II[B)V&#45;&gt;m::com.android.server.companion.transport.Transport.processRequest:(II[B)V -->
<g id="edge14" class="edge">
<title>m::com.android.server.companion.transport.Transport.handleMessage:(II[B)V&#45;&gt;m::com.android.server.companion.transport.Transport.processRequest:(II[B)V</title>
<path fill="none" stroke="#64748b" d="M574.66,-820.81C573.46,-812.18 573.19,-801.56 573.86,-792.03"/>
<polygon fill="#64748b" stroke="#64748b" points="576.65,-792.27 574.68,-784.03 571.08,-791.7 576.65,-792.27"/>
</g>
<!-- m::com.android.server.companion.transport.Transport.handleMessage:(II[B)V&#45;&gt;m::com.android.server.companion.transport.Transport.processRequest:(II[B)V -->
<g id="edge22" class="edge">
<title>m::com.android.server.companion.transport.Transport.handleMessage:(II[B)V&#45;&gt;m::com.android.server.companion.transport.Transport.processRequest:(II[B)V</title>
<path fill="none" stroke="#64748b" d="M590.99,-820.81C592.3,-812.18 592.59,-801.56 591.86,-792.03"/>
<polygon fill="#64748b" stroke="#64748b" points="594.64,-791.67 590.97,-784.03 589.07,-792.29 594.64,-791.67"/>
</g>
<!-- m::com.android.server.companion.transport.Transport.processRequest:(II[B)V&#45;&gt;m::com.android.server.companion.transport.SecureTransport.sendMessage:(II[B)V -->
<g id="edge15" class="edge">
<title>m::com.android.server.companion.transport.Transport.processRequest:(II[B)V&#45;&gt;m::com.android.server.companion.transport.SecureTransport.sendMessage:(II[B)V</title>
<path fill="none" stroke="#64748b" d="M574.66,-747.81C573.46,-739.18 573.19,-728.56 573.86,-719.03"/>
<polygon fill="#64748b" stroke="#64748b" points="576.65,-719.27 574.68,-711.03 571.08,-718.7 576.65,-719.27"/>
</g>
<!-- m::com.android.server.companion.transport.Transport.processRequest:(II[B)V&#45;&gt;m::com.android.server.companion.transport.SecureTransport.sendMessage:(II[B)V -->
<g id="edge23" class="edge">
<title>m::com.android.server.companion.transport.Transport.processRequest:(II[B)V&#45;&gt;m::com.android.server.companion.transport.SecureTransport.sendMessage:(II[B)V</title>
<path fill="none" stroke="#64748b" d="M590.99,-747.81C592.3,-739.18 592.59,-728.56 591.86,-719.03"/>
<polygon fill="#64748b" stroke="#64748b" points="594.64,-718.67 590.97,-711.03 589.07,-719.29 594.64,-718.67"/>
</g>
<!-- m::com.android.server.companion.transport.Transport.close:()V -->
<g id="node17" class="node">
<title>m::com.android.server.companion.transport.Transport.close:()V</title>
<path fill="#eef2ff" stroke="#a5b4fc" d="M254,-565C254,-565 177,-565 177,-565 171,-565 165,-559 165,-553 165,-553 165,-541 165,-541 165,-535 171,-529 177,-529 177,-529 254,-529 254,-529 260,-529 266,-535 266,-541 266,-541 266,-553 266,-553 266,-559 260,-565 254,-565"/>
<text text-anchor="middle" x="215.5" y="-544.2" font-family="Helvetica,sans-Serif" font-size="11.00">Transport.close</text>
</g>
<!-- m::com.android.server.companion.transport.SecureTransport.close:()V&#45;&gt;m::com.android.server.companion.transport.Transport.close:()V -->
<g id="edge25" class="edge">
<title>m::com.android.server.companion.transport.SecureTransport.close:()V&#45;&gt;m::com.android.server.companion.transport.Transport.close:()V</title>
<path fill="none" stroke="#64748b" d="M273.1,-601.81C263.11,-592.48 250.64,-580.83 239.85,-570.75"/>
<polygon fill="#64748b" stroke="#64748b" points="241.49,-568.44 233.73,-565.03 237.66,-572.54 241.49,-568.44"/>
</g>
<!-- m::com.android.server.companion.transport.CompanionTransportManager$$ExternalSyntheticLambda2.onClosed:(Lcom/android/server/companion/transport/Transport;)V -->
<g id="node18" class="node">
<title>m::com.android.server.companion.transport.CompanionTransportManager$$ExternalSyntheticLambda2.onClosed:(Lcom/android/server/companion/transport/Transport;)V</title>
<path fill="#eef2ff" stroke="#a5b4fc" d="M381,-492C381,-492 12,-492 12,-492 6,-492 0,-486 0,-480 0,-480 0,-468 0,-468 0,-462 6,-456 12,-456 12,-456 381,-456 381,-456 387,-456 393,-462 393,-468 393,-468 393,-480 393,-480 393,-486 387,-492 381,-492"/>
<text text-anchor="middle" x="196.5" y="-471.2" font-family="Helvetica,sans-Serif" font-size="11.00">CompanionTransportManager$$ExternalSyntheticLambda2.onClosed</text>
</g>
<!-- m::com.android.server.companion.transport.Transport.close:()V&#45;&gt;m::com.android.server.companion.transport.CompanionTransportManager$$ExternalSyntheticLambda2.onClosed:(Lcom/android/server/companion/transport/Transport;)V -->
<g id="edge26" class="edge">
<title>m::com.android.server.companion.transport.Transport.close:()V&#45;&gt;m::com.android.server.companion.transport.CompanionTransportManager$$ExternalSyntheticLambda2.onClosed:(Lcom/android/server/companion/transport/Transport;)V</title>
<path fill="none" stroke="#64748b" d="M210.9,-528.81C208.59,-520.18 205.75,-509.56 203.2,-500.03"/>
<polygon fill="#64748b" stroke="#64748b" points="205.83,-499.03 201.06,-492.03 200.42,-500.48 205.83,-499.03"/>
</g>
<!-- m::com.android.server.companion.transport.CompanionTransportManager.detachSystemDataTransport:(Lcom/android/server/companion/transport/Transport;)V -->
<g id="node19" class="node">
<title>m::com.android.server.companion.transport.CompanionTransportManager.detachSystemDataTransport:(Lcom/android/server/companion/transport/Transport;)V</title>
<path fill="#eef2ff" stroke="#a5b4fc" d="M374.5,-419C374.5,-419 60.5,-419 60.5,-419 54.5,-419 48.5,-413 48.5,-407 48.5,-407 48.5,-395 48.5,-395 48.5,-389 54.5,-383 60.5,-383 60.5,-383 374.5,-383 374.5,-383 380.5,-383 386.5,-389 386.5,-395 386.5,-395 386.5,-407 386.5,-407 386.5,-413 380.5,-419 374.5,-419"/>
<text text-anchor="middle" x="217.5" y="-398.2" font-family="Helvetica,sans-Serif" font-size="11.00">CompanionTransportManager.detachSystemDataTransport</text>
</g>
<!-- m::com.android.server.companion.transport.CompanionTransportManager$$ExternalSyntheticLambda2.onClosed:(Lcom/android/server/companion/transport/Transport;)V&#45;&gt;m::com.android.server.companion.transport.CompanionTransportManager.detachSystemDataTransport:(Lcom/android/server/companion/transport/Transport;)V -->
<g id="edge27" class="edge">
<title>m::com.android.server.companion.transport.CompanionTransportManager$$ExternalSyntheticLambda2.onClosed:(Lcom/android/server/companion/transport/Transport;)V&#45;&gt;m::com.android.server.companion.transport.CompanionTransportManager.detachSystemDataTransport:(Lcom/android/server/companion/transport/Transport;)V</title>
<path fill="none" stroke="#64748b" d="M201.58,-455.81C204.16,-447.09 207.34,-436.34 210.18,-426.75"/>
<polygon fill="#64748b" stroke="#64748b" points="212.88,-427.49 212.46,-419.03 207.51,-425.91 212.88,-427.49"/>
</g>
<!-- m::com.android.server.companion.transport.CompanionTransportManager.detachSystemDataTransport:(I)V -->
<g id="node20" class="node">
<title>m::com.android.server.companion.transport.CompanionTransportManager.detachSystemDataTransport:(I)V</title>
<path fill="#eef2ff" stroke="#a5b4fc" d="M379.5,-346C379.5,-346 65.5,-346 65.5,-346 59.5,-346 53.5,-340 53.5,-334 53.5,-334 53.5,-322 53.5,-322 53.5,-316 59.5,-310 65.5,-310 65.5,-310 379.5,-310 379.5,-310 385.5,-310 391.5,-316 391.5,-322 391.5,-322 391.5,-334 391.5,-334 391.5,-340 385.5,-346 379.5,-346"/>
<text text-anchor="middle" x="222.5" y="-325.2" font-family="Helvetica,sans-Serif" font-size="11.00">CompanionTransportManager.detachSystemDataTransport</text>
</g>
<!-- m::com.android.server.companion.transport.CompanionTransportManager.detachSystemDataTransport:(Lcom/android/server/companion/transport/Transport;)V&#45;&gt;m::com.android.server.companion.transport.CompanionTransportManager.detachSystemDataTransport:(I)V -->
<g id="edge28" class="edge">
<title>m::com.android.server.companion.transport.CompanionTransportManager.detachSystemDataTransport:(Lcom/android/server/companion/transport/Transport;)V&#45;&gt;m::com.android.server.companion.transport.CompanionTransportManager.detachSystemDataTransport:(I)V</title>
<path fill="none" stroke="#64748b" d="M218.71,-382.81C219.32,-374.18 220.07,-363.56 220.74,-354.03"/>
<polygon fill="#64748b" stroke="#64748b" points="223.53,-354.21 221.3,-346.03 217.95,-353.81 223.53,-354.21"/>
</g>
<!-- m::com.android.server.companion.transport.CompanionTransportManager.detachSystemDataTransport:(I)V&#45;&gt;com.android.server.companion.transport.CompanionTransportManager.mTransports -->
<g id="edge29" class="edge">
<title>m::com.android.server.companion.transport.CompanionTransportManager.detachSystemDataTransport:(I)V&#45;&gt;com.android.server.companion.transport.CompanionTransportManager.mTransports</title>
<path fill="none" stroke="#dc2626" stroke-width="1.6" d="M226.19,-309.64C228.52,-298.66 231.57,-284.29 234.17,-272.09"/>
<polygon fill="#dc2626" stroke="#dc2626" stroke-width="1.6" points="236.95,-272.46 235.88,-264.05 231.48,-271.29 236.95,-272.46"/>
<text text-anchor="middle" x="253.5" y="-284.8" font-family="Helvetica,sans-Serif" font-size="9.00" fill="#dc2626"> acquires</text>
</g>
</g>
</svg>
