<?xml version="1.0" encoding="UTF-8" standalone="no"?>
<!DOCTYPE svg PUBLIC "-//W3C//DTD SVG 1.1//EN"
 "http://www.w3.org/Graphics/SVG/1.1/DTD/svg11.dtd">
<!-- Generated by graphviz version 2.43.0 (0)
 -->
<!-- Title: cycle Pages: 1 -->
<svg width="471pt" height="582pt"
 viewBox="0.00 0.00 470.50 582.00" xmlns="http://www.w3.org/2000/svg" xmlns:xlink="http://www.w3.org/1999/xlink">
<g id="graph0" class="graph" transform="scale(1 1) rotate(0) translate(4 578)">
<title>cycle</title>
<polygon fill="white" stroke="transparent" points="-4,4 -4,-578 466.5,-578 466.5,4 -4,4"/>
<!-- com.android.server.locksettings.LockSettingsService.mSeparateChallengeLock -->
<g id="node1" class="node">
<title>com.android.server.locksettings.LockSettingsService.mSeparateChallengeLock</title>
<path fill="#fee2e2" stroke="#dc2626" stroke-width="2" d="M440,-574C440,-574 141,-574 141,-574 135,-574 129,-568 129,-562 129,-562 129,-550 129,-550 129,-544 135,-538 141,-538 141,-538 440,-538 440,-538 446,-538 452,-544 452,-550 452,-550 452,-562 452,-562 452,-568 446,-574 440,-574"/>
<text text-anchor="middle" x="290.5" y="-552.6" font-family="Helvetica,sans-Serif" font-size="13.00">LockSettingsService.mSeparateChallengeLock</text>
</g>
<!-- m::com.android.server.locksettings.LockSettingsService.setLockCredential:(Lcom/android/internal/widget/LockscreenCredential;Lcom/android/internal/widget/LockscreenCredential;I)Z -->
<g id="node3" class="node">
<title>m::com.android.server.locksettings.LockSettingsService.setLockCredential:(Lcom/android/internal/widget/LockscreenCredential;Lcom/android/internal/widget/LockscreenCredential;I)Z</title>
<path fill="#eef2ff" stroke="#a5b4fc" d="M316,-492C316,-492 111,-492 111,-492 105,-492 99,-486 99,-480 99,-480 99,-468 99,-468 99,-462 105,-456 111,-456 111,-456 316,-456 316,-456 322,-456 328,-462 328,-468 328,-468 328,-480 328,-480 328,-486 322,-492 316,-492"/>
<text text-anchor="middle" x="213.5" y="-471.2" font-family="Helvetica,sans-Serif" font-size="11.00">LockSettingsService.setLockCredential</text>
</g>
<!-- com.android.server.locksettings.LockSettingsService.mSeparateChallengeLock&#45;&gt;m::com.android.server.locksettings.LockSettingsService.setLockCredential:(Lcom/android/internal/widget/LockscreenCredential;Lcom/android/internal/widget/LockscreenCredential;I)Z -->
<g id="edge1" class="edge">
<title>com.android.server.locksettings.LockSettingsService.mSeparateChallengeLock&#45;&gt;m::com.android.server.locksettings.LockSettingsService.setLockCredential:(Lcom/android/internal/widget/LockscreenCredential;Lcom/android/internal/widget/LockscreenCredential;I)Z</title>
<path fill="none" stroke="#dc2626" stroke-width="1.6" d="M273.79,-537.64C262.62,-526.03 247.79,-510.63 235.63,-498"/>
<polygon fill="#dc2626" stroke="#dc2626" stroke-width="1.6" points="237.48,-495.87 229.91,-492.05 233.44,-499.76 237.48,-495.87"/>
<text text-anchor="middle" x="271.5" y="-512.8" font-family="Helvetica,sans-Serif" font-size="9.00" fill="#dc2626"> holds</text>
</g>
<!-- com.android.server.locksettings.LockSettingsService.mSpManager -->
<g id="node2" class="node">
<title>com.android.server.locksettings.LockSettingsService.mSpManager</title>
<path fill="#fee2e2" stroke="#dc2626" stroke-width="2" d="M313,-337C313,-337 96,-337 96,-337 90,-337 84,-331 84,-325 84,-325 84,-313 84,-313 84,-307 90,-301 96,-301 96,-301 313,-301 313,-301 319,-301 325,-307 325,-313 325,-313 325,-325 325,-325 325,-331 319,-337 313,-337"/>
<text text-anchor="middle" x="204.5" y="-315.6" font-family="Helvetica,sans-Serif" font-size="13.00">LockSettingsService.mSpManager</text>
</g>
<!-- m::com.android.server.locksettings.LockSettingsService$1.run:()V -->
<g id="node5" class="node">
<title>m::com.android.server.locksettings.LockSettingsService$1.run:()V</title>
<path fill="#eef2ff" stroke="#a5b4fc" d="M257.5,-255C257.5,-255 119.5,-255 119.5,-255 113.5,-255 107.5,-249 107.5,-243 107.5,-243 107.5,-231 107.5,-231 107.5,-225 113.5,-219 119.5,-219 119.5,-219 257.5,-219 257.5,-219 263.5,-219 269.5,-225 269.5,-231 269.5,-231 269.5,-243 269.5,-243 269.5,-249 263.5,-255 257.5,-255"/>
<text text-anchor="middle" x="188.5" y="-234.2" font-family="Helvetica,sans-Serif" font-size="11.00">LockSettingsService$1.run</text>
</g>
<!-- com.android.server.locksettings.LockSettingsService.mSpManager&#45;&gt;m::com.android.server.locksettings.LockSettingsService$1.run:()V -->
<g id="edge4" class="edge">
<title>com.android.server.locksettings.LockSettingsService.mSpManager&#45;&gt;m::com.android.server.locksettings.LockSettingsService$1.run:()V</title>
<path fill="none" stroke="#dc2626" stroke-width="1.6" d="M201.03,-300.64C198.83,-289.66 195.96,-275.29 193.52,-263.09"/>
<polygon fill="#dc2626" stroke="#dc2626" stroke-width="1.6" points="196.22,-262.35 191.91,-255.05 190.73,-263.44 196.22,-262.35"/>
<text text-anchor="middle" x="211.5" y="-275.8" font-family="Helvetica,sans-Serif" font-size="9.00" fill="#dc2626"> holds</text>
</g>
<!-- m::com.android.server.locksettings.LockSettingsService.doVerifyCredential:(Lcom/android/internal/widget/LockscreenCredential;ILcom/android/internal/widget/ICheckCredentialProgressCallback;I)Lcom/android/internal/widget/VerifyCredentialResponse; -->
<g id="node4" class="node">
<title>m::com.android.server.locksettings.LockSettingsService.doVerifyCredential:(Lcom/android/internal/widget/LockscreenCredential;ILcom/android/internal/widget/ICheckCredentialProgressCallback;I)Lcom/android/internal/widget/VerifyCredentialResponse;</title>
<path fill="#eef2ff" stroke="#a5b4fc" d="M315.5,-419C315.5,-419 107.5,-419 107.5,-419 101.5,-419 95.5,-413 95.5,-407 95.5,-407 95.5,-395 95.5,-395 95.5,-389 101.5,-383 107.5,-383 107.5,-383 315.5,-383 315.5,-383 321.5,-383 327.5,-389 327.5,-395 327.5,-395 327.5,-407 327.5,-407 327.5,-413 321.5,-419 315.5,-419"/>
<text text-anchor="middle" x="211.5" y="-398.2" font-family="Helvetica,sans-Serif" font-size="11.00">LockSettingsService.doVerifyCredential</text>
</g>
<!-- m::com.android.server.locksettings.LockSettingsService.setLockCredential:(Lcom/android/internal/widget/LockscreenCredential;Lcom/android/internal/widget/LockscreenCredential;I)Z&#45;&gt;m::com.android.server.locksettings.LockSettingsService.doVerifyCredential:(Lcom/android/internal/widget/LockscreenCredential;ILcom/android/internal/widget/ICheckCredentialProgressCallback;I)Lcom/android/internal/widget/VerifyCredentialResponse; -->
<g id="edge2" class="edge">
<title>m::com.android.server.locksettings.LockSettingsService.setLockCredential:(Lcom/android/internal/widget/LockscreenCredential;Lcom/android/internal/widget/LockscreenCredential;I)Z&#45;&gt;m::com.android.server.locksettings.LockSettingsService.doVerifyCredential:(Lcom/android/internal/widget/LockscreenCredential;ILcom/android/internal/widget/ICheckCredentialProgressCallback;I)Lcom/android/internal/widget/VerifyCredentialResponse;</title>
<path fill="none" stroke="#64748b" d="M213.02,-455.81C212.77,-447.18 212.47,-436.56 212.21,-427.03"/>
<polygon fill="#64748b" stroke="#64748b" points="215,-426.95 211.98,-419.03 209.41,-427.1 215,-426.95"/>
</g>
<!-- m::com.android.server.locksettings.LockSettingsService.doVerifyCredential:(Lcom/android/internal/widget/LockscreenCredential;ILcom/android/internal/widget/ICheckCredentialProgressCallback;I)Lcom/android/internal/widget/VerifyCredentialResponse;&#45;&gt;com.android.server.locksettings.LockSettingsService.mSpManager -->
<g id="edge3" class="edge">
<title>m::com.android.server.locksettings.LockSettingsService.doVerifyCredential:(Lcom/android/internal/widget/LockscreenCredential;ILcom/android/internal/widget/ICheckCredentialProgressCallback;I)Lcom/android/internal/widget/VerifyCredentialResponse;&#45;&gt;com.android.server.locksettings.LockSettingsService.mSpManager</title>
<path fill="none" stroke="#dc2626" stroke-width="1.6" d="M209.98,-382.64C209.02,-371.66 207.76,-357.29 206.7,-345.09"/>
<polygon fill="#dc2626" stroke="#dc2626" stroke-width="1.6" points="209.48,-344.78 205.99,-337.05 203.9,-345.26 209.48,-344.78"/>
<text text-anchor="middle" x="229.5" y="-357.8" font-family="Helvetica,sans-Serif" font-size="9.00" fill="#dc2626"> acquires</text>
</g>
<!-- m::com.android.server.locksettings.LockSettingsService.&#45;$$Nest$mtieProfileLockIfNecessary:(Lcom/android/server/locksettings/LockSettingsService;ILcom/android/internal/widget/LockscreenCredential;)V -->
<g id="node6" class="node">
<title>m::com.android.server.locksettings.LockSettingsService.&#45;$$Nest$mtieProfileLockIfNecessary:(Lcom/android/server/locksettings/LockSettingsService;ILcom/android/internal/widget/LockscreenCredential;)V</title>
<path fill="#eef2ff" stroke="#a5b4fc" d="M317,-182C317,-182 12,-182 12,-182 6,-182 0,-176 0,-170 0,-170 0,-158 0,-158 0,-152 6,-146 12,-146 12,-146 317,-146 317,-146 323,-146 329,-152 329,-158 329,-158 329,-170 329,-170 329,-176 323,-182 317,-182"/>
<text text-anchor="middle" x="164.5" y="-161.2" font-family="Helvetica,sans-Serif" font-size="11.00">LockSettingsService.&#45;$$Nest$mtieProfileLockIfNecessary</text>
</g>
<!-- m::com.android.server.locksettings.LockSettingsService$1.run:()V&#45;&gt;m::com.android.server.locksettings.LockSettingsService.&#45;$$Nest$mtieProfileLockIfNecessary:(Lcom/android/server/locksettings/LockSettingsService;ILcom/android/internal/widget/LockscreenCredential;)V -->
<g id="edge5" class="edge">
<title>m::com.android.server.locksettings.LockSettingsService$1.run:()V&#45;&gt;m::com.android.server.locksettings.LockSettingsService.&#45;$$Nest$mtieProfileLockIfNecessary:(Lcom/android/server/locksettings/LockSettingsService;ILcom/android/internal/widget/LockscreenCredential;)V</title>
<path fill="none" stroke="#64748b" d="M182.69,-218.81C179.74,-210.09 176.11,-199.34 172.86,-189.75"/>
<polygon fill="#64748b" stroke="#64748b" points="175.47,-188.71 170.26,-182.03 170.17,-190.5 175.47,-188.71"/>
</g>
<!-- m::com.android.server.locksettings.LockSettingsService.tieProfileLockIfNecessary:(ILcom/android/internal/widget/LockscreenCredential;)V -->
<g id="node7" class="node">
<title>m::com.android.server.locksettings.LockSettingsService.tieProfileLockIfNecessary:(ILcom/android/internal/widget/LockscreenCredential;)V</title>
<path fill="#eef2ff" stroke="#a5b4fc" d="M309,-109C309,-109 64,-109 64,-109 58,-109 52,-103 52,-97 52,-97 52,-85 52,-85 52,-79 58,-73 64,-73 64,-73 309,-73 309,-73 315,-73 321,-79 321,-85 321,-85 321,-97 321,-97 321,-103 315,-109 309,-109"/>
<text text-anchor="middle" x="186.5" y="-88.2" font-family="Helvetica,sans-Serif" font-size="11.00">LockSettingsService.tieProfileLockIfNecessary</text>
</g>
<!-- m::com.android.server.locksettings.LockSettingsService.&#45;$$Nest$mtieProfileLockIfNecessary:(Lcom/android/server/locksettings/LockSettingsService;ILcom/android/internal/widget/LockscreenCredential;)V&#45;&gt;m::com.android.server.locksettings.LockSettingsService.tieProfileLockIfNecessary:(ILcom/android/internal/widget/LockscreenCredential;)V -->
<g id="edge6" class="edge">
<title>m::com.android.server.locksettings.LockSettingsService.&#45;$$Nest$mtieProfileLockIfNecessary:(Lcom/android/server/locksettings/LockSettingsService;ILcom/android/internal/widget/LockscreenCredential;)V&#45;&gt;m::com.android.server.locksettings.LockSettingsService.tieProfileLockIfNecessary:(ILcom/android/internal/widget/LockscreenCredential;)V</title>
<path fill="none" stroke="#64748b" d="M169.83,-145.81C172.53,-137.09 175.86,-126.34 178.83,-116.75"/>
<polygon fill="#64748b" stroke="#64748b" points="181.53,-117.5 181.22,-109.03 176.18,-115.84 181.53,-117.5"/>
</g>
<!-- m::com.android.server.locksettings.LockSettingsService.getSeparateProfileChallengeEnabledInternal:(I)Z -->
<g id="node8" class="node">
<title>m::com.android.server.locksettings.LockSettingsService.getSeparateProfileChallengeEnabledInternal:(I)Z</title>
<path fill="#eef2ff" stroke="#a5b4fc" d="M450.5,-36C450.5,-36 102.5,-36 102.5,-36 96.5,-36 90.5,-30 90.5,-24 90.5,-24 90.5,-12 90.5,-12 90.5,-6 96.5,0 102.5,0 102.5,0 450.5,0 450.5,0 456.5,0 462.5,-6 462.5,-12 462.5,-12 462.5,-24 462.5,-24 462.5,-30 456.5,-36 450.5,-36"/>
<text text-anchor="middle" x="276.5" y="-15.2" font-family="Helvetica,sans-Serif" font-size="11.00">LockSettingsService.getSeparateProfileChallengeEnabledInternal</text>
</g>
<!-- m::com.android.server.locksettings.LockSettingsService.tieProfileLockIfNecessary:(ILcom/android/internal/widget/LockscreenCredential;)V&#45;&gt;m::com.android.server.locksettings.LockSettingsService.getSeparateProfileChallengeEnabledInternal:(I)Z -->
<g id="edge7" class="edge">
<title>m::com.android.server.locksettings.LockSettingsService.tieProfileLockIfNecessary:(ILcom/android/internal/widget/LockscreenCredential;)V&#45;&gt;m::com.android.server.locksettings.LockSettingsService.getSeparateProfileChallengeEnabledInternal:(I)Z</title>
<path fill="none" stroke="#64748b" d="M208.29,-72.81C220.34,-63.31 235.44,-51.39 248.38,-41.19"/>
<polygon fill="#64748b" stroke="#64748b" points="250.37,-43.18 254.91,-36.03 246.9,-38.79 250.37,-43.18"/>
</g>
<!-- m::com.android.server.locksettings.LockSettingsService.getSeparateProfileChallengeEnabledInternal:(I)Z&#45;&gt;com.android.server.locksettings.LockSettingsService.mSeparateChallengeLock -->
<g id="edge8" class="edge">
<title>m::com.android.server.locksettings.LockSettingsService.getSeparateProfileChallengeEnabledInternal:(I)Z&#45;&gt;com.android.server.locksettings.LockSettingsService.mSeparateChallengeLock</title>
<path fill="none" stroke="#dc2626" stroke-width="1.6" d="M322.82,-36.07C344.87,-47.47 366.5,-65.02 366.5,-90 366.5,-475 366.5,-475 366.5,-475 366.5,-499.23 347.95,-519.04 329.18,-532.89"/>
<polygon fill="#dc2626" stroke="#dc2626" stroke-width="1.6" points="327.24,-530.84 322.29,-537.72 330.45,-535.42 327.24,-530.84"/>
<text text-anchor="middle" x="387.5" y="-275.8" font-family="Helvetica,sans-Serif" font-size="9.00" fill="#dc2626"> acquires</text>
</g>
</g>
</svg>
