<?xml version="1.0" encoding="UTF-8" standalone="no"?>
<!DOCTYPE svg PUBLIC "-//W3C//DTD SVG 1.1//EN"
 "http://www.w3.org/Graphics/SVG/1.1/DTD/svg11.dtd">
<!-- Generated by graphviz version 2.43.0 (0)
 -->
<!-- Title: cycle Pages: 1 -->
<svg width="667pt" height="509pt"
 viewBox="0.00 0.00 667.00 509.00" xmlns="http://www.w3.org/2000/svg" xmlns:xlink="http://www.w3.org/1999/xlink">
<g id="graph0" class="graph" transform="scale(1 1) rotate(0) translate(4 505)">
<title>cycle</title>
<polygon fill="white" stroke="transparent" points="-4,4 -4,-505 663,-505 663,4 -4,4"/>
<!-- com.android.server.pm.permission.OneTimePermissionUserManager$PackageInactivityListener.mInnerLock -->
<g id="node1" class="node">
<title>com.android.server.pm.permission.OneTimePermissionUserManager$PackageInactivityListener.mInnerLock</title>
<path fill="#fee2e2" stroke="#dc2626" stroke-width="2" d="M647,-501C647,-501 178,-501 178,-501 172,-501 166,-495 166,-489 166,-489 166,-477 166,-477 166,-471 172,-465 178,-465 178,-465 647,-465 647,-465 653,-465 659,-471 659,-477 659,-477 659,-489 659,-489 659,-495 653,-501 647,-501"/>
<text text-anchor="middle" x="412.5" y="-479.6" font-family="Helvetica,sans-Serif" font-size="13.00">OneTimePermissionUserManager$PackageInactivityListener.mInnerLock</text>
</g>
<!-- m::com.android.server.pm.permission.OneTimePermissionUserManager$PackageInactivityListener.&lt;init&gt;:(Lcom/android/server/pm/permission/OneTimePermissionUserManager;ILjava/lang/String;IJJ)V -->
<g id="node3" class="node">
<title>m::com.android.server.pm.permission.OneTimePermissionUserManager$PackageInactivityListener.&lt;init&gt;:(Lcom/android/server/pm/permission/OneTimePermissionUserManager;ILjava/lang/String;IJJ)V</title>
<path fill="#eef2ff" stroke="#a5b4fc" d="M464.5,-419C464.5,-419 104.5,-419 104.5,-419 98.5,-419 92.5,-413 92.5,-407 92.5,-407 92.5,-395 92.5,-395 92.5,-389 98.5,-383 104.5,-383 104.5,-383 464.5,-383 464.5,-383 470.5,-383 476.5,-389 476.5,-395 476.5,-395 476.5,-407 476.5,-407 476.5,-413 470.5,-419 464.5,-419"/>
<text text-anchor="middle" x="284.5" y="-398.2" font-family="Helvetica,sans-Serif" font-size="11.00">OneTimePermissionUserManager$PackageInactivityListener.&lt;init&gt;</text>
</g>
<!-- com.android.server.pm.permission.OneTimePermissionUserManager$PackageInactivityListener.mInnerLock&#45;&gt;m::com.android.server.pm.permission.OneTimePermissionUserManager$PackageInactivityListener.&lt;init&gt;:(Lcom/android/server/pm/permission/OneTimePermissionUserManager;ILjava/lang/String;IJJ)V -->
<g id="edge1" class="edge">
<title>com.android.server.pm.permission.OneTimePermissionUserManager$PackageInactivityListener.mInnerLock&#45;&gt;m::com.android.server.pm.permission.OneTimePermissionUserManager$PackageInactivityListener.&lt;init&gt;:(Lcom/android/server/pm/permission/OneTimePermissionUserManager;ILjava/lang/String;IJJ)V</title>
<path fill="none" stroke="#dc2626" stroke-width="1.6" d="M385.04,-464.84C365.64,-452.71 339.5,-436.37 318.73,-423.39"/>
<polygon fill="#dc2626" stroke="#dc2626" stroke-width="1.6" points="320.18,-421 311.91,-419.13 317.21,-425.75 320.18,-421"/>
<text text-anchor="middle" x="370.5" y="-439.8" font-family="Helvetica,sans-Serif" font-size="9.00" fill="#dc2626"> holds</text>
</g>
<!-- com.android.server.pm.permission.OneTimePermissionUserManager.mLock -->
<g id="node2" class="node">
<title>com.android.server.pm.permission.OneTimePermissionUserManager.mLock</title>
<path fill="#fee2e2" stroke="#dc2626" stroke-width="2" d="M375,-264C375,-264 118,-264 118,-264 112,-264 106,-258 106,-252 106,-252 106,-240 106,-240 106,-234 112,-228 118,-228 118,-228 375,-228 375,-228 381,-228 387,-234 387,-240 387,-240 387,-252 387,-252 387,-258 381,-264 375,-264"/>
<text text-anchor="middle" x="246.5" y="-242.6" font-family="Helvetica,sans-Serif" font-size="13.00">OneTimePermissionUserManager.mLock</text>
</g>
<!-- m::com.android.server.pm.permission.OneTimePermissionUserManager$1.onReceive:(Landroid/content/Context;Landroid/content/Intent;)V -->
<g id="node5" class="node">
<title>m::com.android.server.pm.permission.OneTimePermissionUserManager$1.onReceive:(Landroid/content/Context;Landroid/content/Intent;)V</title>
<path fill="#eef2ff" stroke="#a5b4fc" d="M380,-182C380,-182 131,-182 131,-182 125,-182 119,-176 119,-170 119,-170 119,-158 119,-158 119,-152 125,-146 131,-146 131,-146 380,-146 380,-146 386,-146 392,-152 392,-158 392,-158 392,-170 392,-170 392,-176 386,-182 380,-182"/>
<text text-anchor="middle" x="255.5" y="-161.2" font-family="Helvetica,sans-Serif" font-size="11.00">OneTimePermissionUserManager$1.onReceive</text>
</g>
<!-- com.android.server.pm.permission.OneTimePermissionUserManager.mLock&#45;&gt;m::com.android.server.pm.permission.OneTimePermissionUserManager$1.onReceive:(Landroid/content/Context;Landroid/content/Intent;)V -->
<g id="edge4" class="edge">
<title>com.android.server.pm.permission.OneTimePermissionUserManager.mLock&#45;&gt;m::com.android.server.pm.permission.OneTimePermissionUserManager$1.onReceive:(Landroid/content/Context;Landroid/content/Intent;)V</title>
<path fill="none" stroke="#dc2626" stroke-width="1.6" d="M248.45,-227.64C249.69,-216.66 251.3,-202.29 252.68,-190.09"/>
<polygon fill="#dc2626" stroke="#dc2626" stroke-width="1.6" points="255.47,-190.31 253.58,-182.05 249.9,-189.69 255.47,-190.31"/>
<text text-anchor="middle" x="266.5" y="-202.8" font-family="Helvetica,sans-Serif" font-size="9.00" fill="#dc2626"> holds</text>
</g>
<!-- m::com.android.server.pm.permission.OneTimePermissionUserManager$PackageInactivityListener.onPackageInactiveLocked:()V -->
<g id="node4" class="node">
<title>m::com.android.server.pm.permission.OneTimePermissionUserManager$PackageInactivityListener.onPackageInactiveLocked:()V</title>
<path fill="#eef2ff" stroke="#a5b4fc" d="M477,-346C477,-346 12,-346 12,-346 6,-346 0,-340 0,-334 0,-334 0,-322 0,-322 0,-316 6,-310 12,-310 12,-310 477,-310 477,-310 483,-310 489,-316 489,-322 489,-322 489,-334 489,-334 489,-340 483,-346 477,-346"/>
<text text-anchor="middle" x="244.5" y="-325.2" font-family="Helvetica,sans-Serif" font-size="11.00">OneTimePermissionUserManager$PackageInactivityListener.onPackageInactiveLocked</text>
</g>
<!-- m::com.android.server.pm.permission.OneTimePermissionUserManager$PackageInactivityListener.&lt;init&gt;:(Lcom/android/server/pm/permission/OneTimePermissionUserManager;ILjava/lang/String;IJJ)V&#45;&gt;m::com.android.server.pm.permission.OneTimePermissionUserManager$PackageInactivityListener.onPackageInactiveLocked:()V -->
<g id="edge2" class="edge">
<title>m::com.android.server.pm.permission.OneTimePermissionUserManager$PackageInactivityListener.&lt;init&gt;:(Lcom/android/server/pm/permission/OneTimePermissionUserManager;ILjava/lang/String;IJJ)V&#45;&gt;m::com.android.server.pm.permission.OneTimePermissionUserManager$PackageInactivityListener.onPackageInactiveLocked:()V</title>
<path fill="none" stroke="#64748b" d="M274.82,-382.81C269.81,-373.92 263.6,-362.91 258.12,-353.17"/>
<polygon fill="#64748b" stroke="#64748b" points="260.46,-351.62 254.09,-346.03 255.58,-354.37 260.46,-351.62"/>
</g>
<!-- m::com.android.server.pm.permission.OneTimePermissionUserManager$PackageInactivityListener.onPackageInactiveLocked:()V&#45;&gt;com.android.server.pm.permission.OneTimePermissionUserManager.mLock -->
<g id="edge3" class="edge">
<title>m::com.android.server.pm.permission.OneTimePermissionUserManager$PackageInactivityListener.onPackageInactiveLocked:()V&#45;&gt;com.android.server.pm.permission.OneTimePermissionUserManager.mLock</title>
<path fill="none" stroke="#dc2626" stroke-width="1.6" d="M244.93,-309.64C245.21,-298.66 245.57,-284.29 245.87,-272.09"/>
<polygon fill="#dc2626" stroke="#dc2626" stroke-width="1.6" points="248.67,-272.12 246.07,-264.05 243.07,-271.98 248.67,-272.12"/>
<text text-anchor="middle" x="267.5" y="-284.8" font-family="Helvetica,sans-Serif" font-size="9.00" fill="#dc2626"> acquires</text>
</g>
<!-- m::com.android.server.pm.permission.OneTimePermissionUserManager$PackageInactivityListener.&#45;$$Nest$mcancel:(Lcom/android/server/pm/permission/OneTimePermissionUserManager$PackageInactivityListener;)V -->
<g id="node6" class="node">
<title>m::com.android.server.pm.permission.OneTimePermissionUserManager$PackageInactivityListener.&#45;$$Nest$mcancel:(Lcom/android/server/pm/permission/OneTimePermissionUserManager$PackageInactivityListener;)V</title>
<path fill="#eef2ff" stroke="#a5b4fc" d="M477.5,-109C477.5,-109 57.5,-109 57.5,-109 51.5,-109 45.5,-103 45.5,-97 45.5,-97 45.5,-85 45.5,-85 45.5,-79 51.5,-73 57.5,-73 57.5,-73 477.5,-73 477.5,-73 483.5,-73 489.5,-79 489.5,-85 489.5,-85 489.5,-97 489.5,-97 489.5,-103 483.5,-109 477.5,-109"/>
<text text-anchor="middle" x="267.5" y="-88.2" font-family="Helvetica,sans-Serif" font-size="11.00">OneTimePermissionUserManager$PackageInactivityListener.&#45;$$Nest$mcancel</text>
</g>
<!-- m::com.android.server.pm.permission.OneTimePermissionUserManager$1.onReceive:(Landroid/content/Context;Landroid/content/Intent;)V&#45;&gt;m::com.android.server.pm.permission.OneTimePermissionUserManager$PackageInactivityListener.&#45;$$Nest$mcancel:(Lcom/android/server/pm/permission/OneTimePermissionUserManager$PackageInactivityListener;)V -->
<g id="edge5" class="edge">
<title>m::com.android.server.pm.permission.OneTimePermissionUserManager$1.onReceive:(Landroid/content/Context;Landroid/content/Intent;)V&#45;&gt;m::com.android.server.pm.permission.OneTimePermissionUserManager$PackageInactivityListener.&#45;$$Nest$mcancel:(Lcom/android/server/pm/permission/OneTimePermissionUserManager$PackageInactivityListener;)V</title>
<path fill="none" stroke="#64748b" d="M258.4,-145.81C259.86,-137.18 261.66,-126.56 263.27,-117.03"/>
<polygon fill="#64748b" stroke="#64748b" points="266.05,-117.38 264.62,-109.03 260.53,-116.45 266.05,-117.38"/>
</g>
<!-- m::com.android.server.pm.permission.OneTimePermissionUserManager$PackageInactivityListener.cancel:()V -->
<g id="node7" class="node">
<title>m::com.android.server.pm.permission.OneTimePermissionUserManager$PackageInactivityListener.cancel:()V</title>
<path fill="#eef2ff" stroke="#a5b4fc" d="M577.5,-36C577.5,-36 217.5,-36 217.5,-36 211.5,-36 205.5,-30 205.5,-24 205.5,-24 205.5,-12 205.5,-12 205.5,-6 211.5,0 217.5,0 217.5,0 577.5,0 577.5,0 583.5,0 589.5,-6 589.5,-12 589.5,-12 589.5,-24 589.5,-24 589.5,-30 583.5,-36 577.5,-36"/>
<text text-anchor="middle" x="397.5" y="-15.2" font-family="Helvetica,sans-Serif" font-size="11.00">OneTimePermissionUserManager$PackageInactivityListener.cancel</text>
</g>
<!-- m::com.android.server.pm.permission.OneTimePermissionUserManager$PackageInactivityListener.&#45;$$Nest$mcancel:(Lcom/android/server/pm/permission/OneTimePermissionUserManager$PackageInactivityListener;)V&#45;&gt;m::com.android.server.pm.permission.OneTimePermissionUserManager$PackageInactivityListener.cancel:()V -->
<g id="edge6" class="edge">
<title>m::com.android.server.pm.permission.OneTimePermissionUserManager$PackageInactivityListener.&#45;$$Nest$mcancel:(Lcom/android/server/pm/permission/OneTimePermissionUserManager$PackageInactivityListener;)V&#45;&gt;m::com.android.server.pm.permission.OneTimePermissionUserManager$PackageInactivityListener.cancel:()V</title>
<path fill="none" stroke="#64748b" d="M298.64,-72.99C316.76,-63.1 339.74,-50.54 358.99,-40.03"/>
<polygon fill="#64748b" stroke="#64748b" points="360.49,-42.41 366.17,-36.11 357.8,-37.49 360.49,-42.41"/>
</g>
<!-- m::com.android.server.pm.permission.OneTimePermissionUserManager$PackageInactivityListener.cancel:()V&#45;&gt;com.android.server.pm.permission.OneTimePermissionUserManager$PackageInactivityListener.mInnerLock -->
<g id="edge7" class="edge">
<title>m::com.android.server.pm.permission.OneTimePermissionUserManager$PackageInactivityListener.cancel:()V&#45;&gt;com.android.server.pm.permission.OneTimePermissionUserManager$PackageInactivityListener.mInnerLock</title>
<path fill="none" stroke="#dc2626" stroke-width="1.6" d="M480.57,-36.08C506.04,-46.52 527.5,-63.26 527.5,-90 527.5,-402 527.5,-402 527.5,-402 527.5,-430.12 504.04,-449.16 478.31,-461.58"/>
<polygon fill="#dc2626" stroke="#dc2626" stroke-width="1.6" points="477.13,-459.05 471.01,-464.92 479.45,-464.14 477.13,-459.05"/>
<text text-anchor="middle" x="548.5" y="-243.8" font-family="Helvetica,sans-Serif" font-size="9.00" fill="#dc2626"> acquires</text>
</g>
</g>
</svg>
