<?xml version="1.0" encoding="UTF-8" standalone="no"?>
<!DOCTYPE svg PUBLIC "-//W3C//DTD SVG 1.1//EN"
 "http://www.w3.org/Graphics/SVG/1.1/DTD/svg11.dtd">
<!-- Generated by graphviz version 2.43.0 (0)
 -->
<!-- Title: cycle Pages: 1 -->
<svg width="949pt" height="974pt"
 viewBox="0.00 0.00 948.50 974.00" xmlns="http://www.w3.org/2000/svg" xmlns:xlink="http://www.w3.org/1999/xlink">
<g id="graph0" class="graph" transform="scale(1 1) rotate(0) translate(4 970)">
<title>cycle</title>
<polygon fill="white" stroke="transparent" points="-4,4 -4,-970 944.5,-970 944.5,4 -4,4"/>
<!-- com.android.server.audio.AudioDeviceBroker.mBluetoothAudioStateLock -->
<g id="node1" class="node">
<title>com.android.server.audio.AudioDeviceBroker.mBluetoothAudioStateLock</title>
<path fill="#fee2e2" stroke="#dc2626" stroke-width="2" d="M768.5,-966C768.5,-966 466.5,-966 466.5,-966 460.5,-966 454.5,-960 454.5,-954 454.5,-954 454.5,-942 454.5,-942 454.5,-936 460.5,-930 466.5,-930 466.5,-930 768.5,-930 768.5,-930 774.5,-930 780.5,-936 780.5,-942 780.5,-942 780.5,-954 780.5,-954 780.5,-960 774.5,-966 768.5,-966"/>
<text text-anchor="middle" x="617.5" y="-944.6" font-family="Helvetica,sans-Serif" font-size="13.00">AudioDeviceBroker.mBluetoothAudioStateLock</text>
</g>
<!-- m::com.android.server.audio.AudioDeviceBroker.setBluetoothScoOn:(ZLjava/lang/String;)V -->
<g id="node4" class="node">
<title>m::com.android.server.audio.AudioDeviceBroker.setBluetoothScoOn:(ZLjava/lang/String;)V</title>
<path fill="#eef2ff" stroke="#a5b4fc" d="M720.5,-884C720.5,-884 514.5,-884 514.5,-884 508.5,-884 502.5,-878 502.5,-872 502.5,-872 502.5,-860 502.5,-860 502.5,-854 508.5,-848 514.5,-848 514.5,-848 720.5,-848 720.5,-848 726.5,-848 732.5,-854 732.5,-860 732.5,-860 732.5,-872 732.5,-872 732.5,-878 726.5,-884 720.5,-884"/>
<text text-anchor="middle" x="617.5" y="-863.2" font-family="Helvetica,sans-Serif" font-size="11.00">AudioDeviceBroker.setBluetoothScoOn</text>
</g>
<!-- com.android.server.audio.AudioDeviceBroker.mBluetoothAudioStateLock&#45;&gt;m::com.android.server.audio.AudioDeviceBroker.setBluetoothScoOn:(ZLjava/lang/String;)V -->
<g id="edge1" class="edge">
<title>com.android.server.audio.AudioDeviceBroker.mBluetoothAudioStateLock&#45;&gt;m::com.android.server.audio.AudioDeviceBroker.setBluetoothScoOn:(ZLjava/lang/String;)V</title>
<path fill="none" stroke="#dc2626" stroke-width="1.6" d="M617.5,-929.64C617.5,-918.66 617.5,-904.29 617.5,-892.09"/>
<polygon fill="#dc2626" stroke="#dc2626" stroke-width="1.6" points="620.3,-892.05 617.5,-884.05 614.7,-892.05 620.3,-892.05"/>
<text text-anchor="middle" x="634.5" y="-904.8" font-family="Helvetica,sans-Serif" font-size="9.00" fill="#dc2626"> held in</text>
</g>
<!-- com.android.server.audio.AudioDeviceBroker.mDeviceStateLock -->
<g id="node2" class="node">
<title>com.android.server.audio.AudioDeviceBroker.mDeviceStateLock</title>
<path fill="#fee2e2" stroke="#dc2626" stroke-width="2" d="M515,-574C515,-574 270,-574 270,-574 264,-574 258,-568 258,-562 258,-562 258,-550 258,-550 258,-544 264,-538 270,-538 270,-538 515,-538 515,-538 521,-538 527,-544 527,-550 527,-550 527,-562 527,-562 527,-568 521,-574 515,-574"/>
<text text-anchor="middle" x="392.5" y="-552.6" font-family="Helvetica,sans-Serif" font-size="13.00">AudioDeviceBroker.mDeviceStateLock</text>
</g>
<!-- com.android.server.audio.AudioDeviceBroker.mDeviceStateLock&#45;&gt;com.android.server.audio.AudioDeviceBroker.mBluetoothAudioStateLock -->
<g id="edge6" class="edge">
<title>com.android.server.audio.AudioDeviceBroker.mDeviceStateLock&#45;&gt;com.android.server.audio.AudioDeviceBroker.mBluetoothAudioStateLock</title>
<path fill="none" stroke="#dc2626" stroke-width="1.6" stroke-dasharray="5,2" d="M392.5,-574.17C392.5,-590.37 392.5,-615.33 392.5,-637 392.5,-867 392.5,-867 392.5,-867 392.5,-894.37 452.36,-914.79 510.32,-928.15"/>
<polygon fill="#dc2626" stroke="#dc2626" stroke-width="1.6" points="510.06,-930.96 518.48,-929.98 511.29,-925.49 510.06,-930.96"/>
<text text-anchor="middle" x="444" y="-749.8" font-family="Helvetica,sans-Serif" font-size="9.00" fill="#dc2626"> held → acquires [18x]</text>
</g>
<!-- m::com.android.server.audio.AudioDeviceBroker$BrokerHandler.handleMessage:(Landroid/os/Message;)V -->
<g id="node8" class="node">
<title>m::com.android.server.audio.AudioDeviceBroker$BrokerHandler.handleMessage:(Landroid/os/Message;)V</title>
<path fill="#eef2ff" stroke="#a5b4fc" d="M528,-492C528,-492 257,-492 257,-492 251,-492 245,-486 245,-480 245,-480 245,-468 245,-468 245,-462 251,-456 257,-456 257,-456 528,-456 528,-456 534,-456 540,-462 540,-468 540,-468 540,-480 540,-480 540,-486 534,-492 528,-492"/>
<text text-anchor="middle" x="392.5" y="-471.2" font-family="Helvetica,sans-Serif" font-size="11.00">AudioDeviceBroker$BrokerHandler.handleMessage</text>
</g>
<!-- com.android.server.audio.AudioDeviceBroker.mDeviceStateLock&#45;&gt;m::com.android.server.audio.AudioDeviceBroker$BrokerHandler.handleMessage:(Landroid/os/Message;)V -->
<g id="edge7" class="edge">
<title>com.android.server.audio.AudioDeviceBroker.mDeviceStateLock&#45;&gt;m::com.android.server.audio.AudioDeviceBroker$BrokerHandler.handleMessage:(Landroid/os/Message;)V</title>
<path fill="none" stroke="#dc2626" stroke-width="1.6" d="M392.5,-537.64C392.5,-526.66 392.5,-512.29 392.5,-500.09"/>
<polygon fill="#dc2626" stroke="#dc2626" stroke-width="1.6" points="395.3,-500.05 392.5,-492.05 389.7,-500.05 395.3,-500.05"/>
<text text-anchor="middle" x="409.5" y="-512.8" font-family="Helvetica,sans-Serif" font-size="9.00" fill="#dc2626"> held in</text>
</g>
<!-- com.android.server.audio.AudioDeviceInventory.mDevicesLock -->
<g id="node3" class="node">
<title>com.android.server.audio.AudioDeviceInventory.mDevicesLock</title>
<path fill="#fee2e2" stroke="#dc2626" stroke-width="2" d="M510,-337C510,-337 275,-337 275,-337 269,-337 263,-331 263,-325 263,-325 263,-313 263,-313 263,-307 269,-301 275,-301 275,-301 510,-301 510,-301 516,-301 522,-307 522,-313 522,-313 522,-325 522,-325 522,-331 516,-337 510,-337"/>
<text text-anchor="middle" x="392.5" y="-315.6" font-family="Helvetica,sans-Serif" font-size="13.00">AudioDeviceInventory.mDevicesLock</text>
</g>
<!-- m::com.android.server.audio.AudioDeviceInventory.onSetBtActiveDevice:(Lcom/android/server/audio/AudioDeviceBroker$BtDeviceInfo;II)V -->
<g id="node10" class="node">
<title>m::com.android.server.audio.AudioDeviceInventory.onSetBtActiveDevice:(Lcom/android/server/audio/AudioDeviceBroker$BtDeviceInfo;II)V</title>
<path fill="#eef2ff" stroke="#a5b4fc" d="M790,-255C790,-255 559,-255 559,-255 553,-255 547,-249 547,-243 547,-243 547,-231 547,-231 547,-225 553,-219 559,-219 559,-219 790,-219 790,-219 796,-219 802,-225 802,-231 802,-231 802,-243 802,-243 802,-249 796,-255 790,-255"/>
<text text-anchor="middle" x="674.5" y="-234.2" font-family="Helvetica,sans-Serif" font-size="11.00">AudioDeviceInventory.onSetBtActiveDevice</text>
</g>
<!-- com.android.server.audio.AudioDeviceInventory.mDevicesLock&#45;&gt;m::com.android.server.audio.AudioDeviceInventory.onSetBtActiveDevice:(Lcom/android/server/audio/AudioDeviceBroker$BtDeviceInfo;II)V -->
<g id="edge10" class="edge">
<title>com.android.server.audio.AudioDeviceInventory.mDevicesLock&#45;&gt;m::com.android.server.audio.AudioDeviceInventory.onSetBtActiveDevice:(Lcom/android/server/audio/AudioDeviceBroker$BtDeviceInfo;II)V</title>
<path fill="none" stroke="#dc2626" stroke-width="1.6" d="M452.65,-300.94C497.76,-288.14 559.54,-270.61 606.46,-257.3"/>
<polygon fill="#dc2626" stroke="#dc2626" stroke-width="1.6" points="607.51,-259.91 614.44,-255.04 605.98,-254.53 607.51,-259.91"/>
<text text-anchor="middle" x="566.5" y="-275.8" font-family="Helvetica,sans-Serif" font-size="9.00" fill="#dc2626"> held in</text>
</g>
<!-- m::com.android.server.audio.AudioDeviceInventory.onMakeA2dpDeviceUnavailableNow:(Ljava/lang/String;I)V -->
<g id="node13" class="node">
<title>m::com.android.server.audio.AudioDeviceInventory.onMakeA2dpDeviceUnavailableNow:(Ljava/lang/String;I)V</title>
<path fill="#eef2ff" stroke="#a5b4fc" d="M507.5,-255C507.5,-255 195.5,-255 195.5,-255 189.5,-255 183.5,-249 183.5,-243 183.5,-243 183.5,-231 183.5,-231 183.5,-225 189.5,-219 195.5,-219 195.5,-219 507.5,-219 507.5,-219 513.5,-219 519.5,-225 519.5,-231 519.5,-231 519.5,-243 519.5,-243 519.5,-249 513.5,-255 507.5,-255"/>
<text text-anchor="middle" x="351.5" y="-234.2" font-family="Helvetica,sans-Serif" font-size="11.00">AudioDeviceInventory.onMakeA2dpDeviceUnavailableNow</text>
</g>
<!-- com.android.server.audio.AudioDeviceInventory.mDevicesLock&#45;&gt;m::com.android.server.audio.AudioDeviceInventory.onMakeA2dpDeviceUnavailableNow:(Ljava/lang/String;I)V -->
<g id="edge14" class="edge">
<title>com.android.server.audio.AudioDeviceInventory.mDevicesLock&#45;&gt;m::com.android.server.audio.AudioDeviceInventory.onMakeA2dpDeviceUnavailableNow:(Ljava/lang/String;I)V</title>
<path fill="none" stroke="#dc2626" stroke-width="1.6" d="M383.6,-300.64C377.87,-289.45 370.33,-274.74 364,-262.39"/>
<polygon fill="#dc2626" stroke="#dc2626" stroke-width="1.6" points="366.38,-260.89 360.24,-255.05 361.4,-263.45 366.38,-260.89"/>
<text text-anchor="middle" x="391.5" y="-275.8" font-family="Helvetica,sans-Serif" font-size="9.00" fill="#dc2626"> held in</text>
</g>
<!-- m::com.android.server.audio.AudioDeviceBroker.bluetoothScoRequestOwnerAttributionSource:()Landroid/content/AttributionSource; -->
<g id="node5" class="node">
<title>m::com.android.server.audio.AudioDeviceBroker.bluetoothScoRequestOwnerAttributionSource:()Landroid/content/AttributionSource;</title>
<path fill="#eef2ff" stroke="#a5b4fc" d="M792,-811C792,-811 443,-811 443,-811 437,-811 431,-805 431,-799 431,-799 431,-787 431,-787 431,-781 437,-775 443,-775 443,-775 792,-775 792,-775 798,-775 804,-781 804,-787 804,-787 804,-799 804,-799 804,-805 798,-811 792,-811"/>
<text text-anchor="middle" x="617.5" y="-790.2" font-family="Helvetica,sans-Serif" font-size="11.00">AudioDeviceBroker.bluetoothScoRequestOwnerAttributionSource</text>
</g>
<!-- m::com.android.server.audio.AudioDeviceBroker.setBluetoothScoOn:(ZLjava/lang/String;)V&#45;&gt;m::com.android.server.audio.AudioDeviceBroker.bluetoothScoRequestOwnerAttributionSource:()Landroid/content/AttributionSource; -->
<g id="edge2" class="edge">
<title>m::com.android.server.audio.AudioDeviceBroker.setBluetoothScoOn:(ZLjava/lang/String;)V&#45;&gt;m::com.android.server.audio.AudioDeviceBroker.bluetoothScoRequestOwnerAttributionSource:()Landroid/content/AttributionSource;</title>
<path fill="none" stroke="#64748b" d="M617.5,-847.81C617.5,-839.18 617.5,-828.56 617.5,-819.03"/>
<polygon fill="#64748b" stroke="#64748b" points="620.3,-819.03 617.5,-811.03 614.7,-819.03 620.3,-819.03"/>
</g>
<!-- m::com.android.server.audio.AudioDeviceBroker.isBluetoothScoRequested:()Z -->
<g id="node6" class="node">
<title>m::com.android.server.audio.AudioDeviceBroker.isBluetoothScoRequested:()Z</title>
<path fill="#eef2ff" stroke="#a5b4fc" d="M733.5,-729C733.5,-729 493.5,-729 493.5,-729 487.5,-729 481.5,-723 481.5,-717 481.5,-717 481.5,-705 481.5,-705 481.5,-699 487.5,-693 493.5,-693 493.5,-693 733.5,-693 733.5,-693 739.5,-693 745.5,-699 745.5,-705 745.5,-705 745.5,-717 745.5,-717 745.5,-723 739.5,-729 733.5,-729"/>
<text text-anchor="middle" x="613.5" y="-708.2" font-family="Helvetica,sans-Serif" font-size="11.00">AudioDeviceBroker.isBluetoothScoRequested</text>
</g>
<!-- m::com.android.server.audio.AudioDeviceBroker.bluetoothScoRequestOwnerAttributionSource:()Landroid/content/AttributionSource;&#45;&gt;m::com.android.server.audio.AudioDeviceBroker.isBluetoothScoRequested:()Z -->
<g id="edge3" class="edge">
<title>m::com.android.server.audio.AudioDeviceBroker.bluetoothScoRequestOwnerAttributionSource:()Landroid/content/AttributionSource;&#45;&gt;m::com.android.server.audio.AudioDeviceBroker.isBluetoothScoRequested:()Z</title>
<path fill="none" stroke="#64748b" d="M616.63,-774.64C616.08,-763.66 615.36,-749.29 614.75,-737.09"/>
<polygon fill="#64748b" stroke="#64748b" points="617.55,-736.9 614.35,-729.05 611.96,-737.18 617.55,-736.9"/>
</g>
<!-- m::com.android.server.audio.AudioDeviceBroker.isDeviceRequestedForCommunication:(I)Z -->
<g id="node7" class="node">
<title>m::com.android.server.audio.AudioDeviceBroker.isDeviceRequestedForCommunication:(I)Z</title>
<path fill="#eef2ff" stroke="#a5b4fc" d="M752.5,-656C752.5,-656 444.5,-656 444.5,-656 438.5,-656 432.5,-650 432.5,-644 432.5,-644 432.5,-632 432.5,-632 432.5,-626 438.5,-620 444.5,-620 444.5,-620 752.5,-620 752.5,-620 758.5,-620 764.5,-626 764.5,-632 764.5,-632 764.5,-644 764.5,-644 764.5,-650 758.5,-656 752.5,-656"/>
<text text-anchor="middle" x="598.5" y="-635.2" font-family="Helvetica,sans-Serif" font-size="11.00">AudioDeviceBroker.isDeviceRequestedForCommunication</text>
</g>
<!-- m::com.android.server.audio.AudioDeviceBroker.isBluetoothScoRequested:()Z&#45;&gt;m::com.android.server.audio.AudioDeviceBroker.isDeviceRequestedForCommunication:(I)Z -->
<g id="edge4" class="edge">
<title>m::com.android.server.audio.AudioDeviceBroker.isBluetoothScoRequested:()Z&#45;&gt;m::com.android.server.audio.AudioDeviceBroker.isDeviceRequestedForCommunication:(I)Z</title>
<path fill="none" stroke="#64748b" d="M609.87,-692.81C608.04,-684.18 605.8,-673.56 603.79,-664.03"/>
<polygon fill="#64748b" stroke="#64748b" points="606.49,-663.28 602.1,-656.03 601.01,-664.43 606.49,-663.28"/>
</g>
<!-- m::com.android.server.audio.AudioDeviceBroker.isDeviceRequestedForCommunication:(I)Z&#45;&gt;com.android.server.audio.AudioDeviceBroker.mDeviceStateLock -->
<g id="edge5" class="edge">
<title>m::com.android.server.audio.AudioDeviceBroker.isDeviceRequestedForCommunication:(I)Z&#45;&gt;com.android.server.audio.AudioDeviceBroker.mDeviceStateLock</title>
<path fill="none" stroke="#dc2626" stroke-width="1.6" d="M554.56,-619.94C522.15,-607.35 477.96,-590.19 443.91,-576.97"/>
<polygon fill="#dc2626" stroke="#dc2626" stroke-width="1.6" points="444.84,-574.32 436.37,-574.04 442.82,-579.54 444.84,-574.32"/>
<text text-anchor="middle" x="528.5" y="-594.8" font-family="Helvetica,sans-Serif" font-size="9.00" fill="#dc2626"> acquires</text>
</g>
<!-- m::com.android.server.audio.AudioDeviceInventory.onMakeHearingAidDeviceUnavailableNow:(Ljava/lang/String;)V -->
<g id="node9" class="node">
<title>m::com.android.server.audio.AudioDeviceInventory.onMakeHearingAidDeviceUnavailableNow:(Ljava/lang/String;)V</title>
<path fill="#eef2ff" stroke="#a5b4fc" d="M564.5,-419C564.5,-419 220.5,-419 220.5,-419 214.5,-419 208.5,-413 208.5,-407 208.5,-407 208.5,-395 208.5,-395 208.5,-389 214.5,-383 220.5,-383 220.5,-383 564.5,-383 564.5,-383 570.5,-383 576.5,-389 576.5,-395 576.5,-395 576.5,-407 576.5,-407 576.5,-413 570.5,-419 564.5,-419"/>
<text text-anchor="middle" x="392.5" y="-398.2" font-family="Helvetica,sans-Serif" font-size="11.00">AudioDeviceInventory.onMakeHearingAidDeviceUnavailableNow</text>
</g>
<!-- m::com.android.server.audio.AudioDeviceBroker$BrokerHandler.handleMessage:(Landroid/os/Message;)V&#45;&gt;m::com.android.server.audio.AudioDeviceInventory.onMakeHearingAidDeviceUnavailableNow:(Ljava/lang/String;)V -->
<g id="edge8" class="edge">
<title>m::com.android.server.audio.AudioDeviceBroker$BrokerHandler.handleMessage:(Landroid/os/Message;)V&#45;&gt;m::com.android.server.audio.AudioDeviceInventory.onMakeHearingAidDeviceUnavailableNow:(Ljava/lang/String;)V</title>
<path fill="none" stroke="#64748b" d="M392.5,-455.81C392.5,-447.18 392.5,-436.56 392.5,-427.03"/>
<polygon fill="#64748b" stroke="#64748b" points="395.3,-427.03 392.5,-419.03 389.7,-427.03 395.3,-427.03"/>
</g>
<!-- m::com.android.server.audio.AudioDeviceInventory.onMakeHearingAidDeviceUnavailableNow:(Ljava/lang/String;)V&#45;&gt;com.android.server.audio.AudioDeviceInventory.mDevicesLock -->
<g id="edge9" class="edge">
<title>m::com.android.server.audio.AudioDeviceInventory.onMakeHearingAidDeviceUnavailableNow:(Ljava/lang/String;)V&#45;&gt;com.android.server.audio.AudioDeviceInventory.mDevicesLock</title>
<path fill="none" stroke="#dc2626" stroke-width="1.6" d="M392.5,-382.64C392.5,-371.66 392.5,-357.29 392.5,-345.09"/>
<polygon fill="#dc2626" stroke="#dc2626" stroke-width="1.6" points="395.3,-345.05 392.5,-337.05 389.7,-345.05 395.3,-345.05"/>
<text text-anchor="middle" x="413.5" y="-357.8" font-family="Helvetica,sans-Serif" font-size="9.00" fill="#dc2626"> acquires</text>
</g>
<!-- m::com.android.server.audio.AudioDeviceInventory.makeLeAudioDeviceAvailable:(Lcom/android/server/audio/AudioDeviceBroker$BtDeviceInfo;IILjava/lang/String;)V -->
<g id="node11" class="node">
<title>m::com.android.server.audio.AudioDeviceInventory.makeLeAudioDeviceAvailable:(Lcom/android/server/audio/AudioDeviceBroker$BtDeviceInfo;IILjava/lang/String;)V</title>
<path fill="#eef2ff" stroke="#a5b4fc" d="M818.5,-182C818.5,-182 542.5,-182 542.5,-182 536.5,-182 530.5,-176 530.5,-170 530.5,-170 530.5,-158 530.5,-158 530.5,-152 536.5,-146 542.5,-146 542.5,-146 818.5,-146 818.5,-146 824.5,-146 830.5,-152 830.5,-158 830.5,-158 830.5,-170 830.5,-170 830.5,-176 824.5,-182 818.5,-182"/>
<text text-anchor="middle" x="680.5" y="-161.2" font-family="Helvetica,sans-Serif" font-size="11.00">AudioDeviceInventory.makeLeAudioDeviceAvailable</text>
</g>
<!-- m::com.android.server.audio.AudioDeviceInventory.onSetBtActiveDevice:(Lcom/android/server/audio/AudioDeviceBroker$BtDeviceInfo;II)V&#45;&gt;m::com.android.server.audio.AudioDeviceInventory.makeLeAudioDeviceAvailable:(Lcom/android/server/audio/AudioDeviceBroker$BtDeviceInfo;IILjava/lang/String;)V -->
<g id="edge11" class="edge">
<title>m::com.android.server.audio.AudioDeviceInventory.onSetBtActiveDevice:(Lcom/android/server/audio/AudioDeviceBroker$BtDeviceInfo;II)V&#45;&gt;m::com.android.server.audio.AudioDeviceInventory.makeLeAudioDeviceAvailable:(Lcom/android/server/audio/AudioDeviceBroker$BtDeviceInfo;IILjava/lang/String;)V</title>
<path fill="none" stroke="#64748b" d="M675.95,-218.81C676.68,-210.18 677.58,-199.56 678.38,-190.03"/>
<polygon fill="#64748b" stroke="#64748b" points="681.18,-190.24 679.06,-182.03 675.6,-189.76 681.18,-190.24"/>
</g>
<!-- m::com.android.server.audio.AudioDeviceBroker.clearLeAudioSuspended:(Z)V -->
<g id="node12" class="node">
<title>m::com.android.server.audio.AudioDeviceBroker.clearLeAudioSuspended:(Z)V</title>
<path fill="#eef2ff" stroke="#a5b4fc" d="M928.5,-109C928.5,-109 698.5,-109 698.5,-109 692.5,-109 686.5,-103 686.5,-97 686.5,-97 686.5,-85 686.5,-85 686.5,-79 692.5,-73 698.5,-73 698.5,-73 928.5,-73 928.5,-73 934.5,-73 940.5,-79 940.5,-85 940.5,-85 940.5,-97 940.5,-97 940.5,-103 934.5,-109 928.5,-109"/>
<text text-anchor="middle" x="813.5" y="-88.2" font-family="Helvetica,sans-Serif" font-size="11.00">AudioDeviceBroker.clearLeAudioSuspended</text>
</g>
<!-- m::com.android.server.audio.AudioDeviceInventory.makeLeAudioDeviceAvailable:(Lcom/android/server/audio/AudioDeviceBroker$BtDeviceInfo;IILjava/lang/String;)V&#45;&gt;m::com.android.server.audio.AudioDeviceBroker.clearLeAudioSuspended:(Z)V -->
<g id="edge12" class="edge">
<title>m::com.android.server.audio.AudioDeviceInventory.makeLeAudioDeviceAvailable:(Lcom/android/server/audio/AudioDeviceBroker$BtDeviceInfo;IILjava/lang/String;)V&#45;&gt;m::com.android.server.audio.AudioDeviceBroker.clearLeAudioSuspended:(Z)V</title>
<path fill="none" stroke="#64748b" d="M712.36,-145.99C730.97,-136.06 754.62,-123.43 774.36,-112.89"/>
<polygon fill="#64748b" stroke="#64748b" points="775.7,-115.35 781.44,-109.11 773.07,-110.41 775.7,-115.35"/>
</g>
<!-- m::com.android.server.audio.AudioDeviceBroker.clearLeAudioSuspended:(Z)V&#45;&gt;com.android.server.audio.AudioDeviceBroker.mBluetoothAudioStateLock -->
<g id="edge13" class="edge">
<title>m::com.android.server.audio.AudioDeviceBroker.clearLeAudioSuspended:(Z)V&#45;&gt;com.android.server.audio.AudioDeviceBroker.mBluetoothAudioStateLock</title>
<path fill="none" stroke="#dc2626" stroke-width="1.6" d="M837.14,-109.08C852.05,-121.98 868.5,-141.17 868.5,-163 868.5,-867 868.5,-867 868.5,-867 868.5,-895.84 807.59,-915.68 745.78,-928.39"/>
<polygon fill="#dc2626" stroke="#dc2626" stroke-width="1.6" points="745.15,-925.66 737.85,-929.98 746.25,-931.15 745.15,-925.66"/>
<text text-anchor="middle" x="889.5" y="-512.8" font-family="Helvetica,sans-Serif" font-size="9.00" fill="#dc2626"> acquires</text>
</g>
<!-- m::com.android.server.audio.AudioDeviceInventory.makeA2dpDeviceUnavailableNow:(Ljava/lang/String;IZ)V -->
<g id="node14" class="node">
<title>m::com.android.server.audio.AudioDeviceInventory.makeA2dpDeviceUnavailableNow:(Ljava/lang/String;IZ)V</title>
<path fill="#eef2ff" stroke="#a5b4fc" d="M493,-182C493,-182 194,-182 194,-182 188,-182 182,-176 182,-170 182,-170 182,-158 182,-158 182,-152 188,-146 194,-146 194,-146 493,-146 493,-146 499,-146 505,-152 505,-158 505,-158 505,-170 505,-170 505,-176 499,-182 493,-182"/>
<text text-anchor="middle" x="343.5" y="-161.2" font-family="Helvetica,sans-Serif" font-size="11.00">AudioDeviceInventory.makeA2dpDeviceUnavailableNow</text>
</g>
<!-- m::com.android.server.audio.AudioDeviceInventory.onMakeA2dpDeviceUnavailableNow:(Ljava/lang/String;I)V&#45;&gt;m::com.android.server.audio.AudioDeviceInventory.makeA2dpDeviceUnavailableNow:(Ljava/lang/String;IZ)V -->
<g id="edge15" class="edge">
<title>m::com.android.server.audio.AudioDeviceInventory.onMakeA2dpDeviceUnavailableNow:(Ljava/lang/String;I)V&#45;&gt;m::com.android.server.audio.AudioDeviceInventory.makeA2dpDeviceUnavailableNow:(Ljava/lang/String;IZ)V</title>
<path fill="none" stroke="#64748b" d="M349.56,-218.81C348.59,-210.18 347.39,-199.56 346.32,-190.03"/>
<polygon fill="#64748b" stroke="#64748b" points="349.1,-189.66 345.42,-182.03 343.53,-190.29 349.1,-189.66"/>
</g>
<!-- m::com.android.server.audio.AudioDeviceBroker.clearAvrcpAbsoluteVolumeSupported:(Landroid/media/AudioDeviceAttributes;)V -->
<g id="node15" class="node">
<title>m::com.android.server.audio.AudioDeviceBroker.clearAvrcpAbsoluteVolumeSupported:(Landroid/media/AudioDeviceAttributes;)V</title>
<path fill="#eef2ff" stroke="#a5b4fc" d="M495.5,-109C495.5,-109 193.5,-109 193.5,-109 187.5,-109 181.5,-103 181.5,-97 181.5,-97 181.5,-85 181.5,-85 181.5,-79 187.5,-73 193.5,-73 193.5,-73 495.5,-73 495.5,-73 501.5,-73 507.5,-79 507.5,-85 507.5,-85 507.5,-97 507.5,-97 507.5,-103 501.5,-109 495.5,-109"/>
<text text-anchor="middle" x="344.5" y="-88.2" font-family="Helvetica,sans-Serif" font-size="11.00">AudioDeviceBroker.clearAvrcpAbsoluteVolumeSupported</text>
</g>
<!-- m::com.android.server.audio.AudioDeviceInventory.makeA2dpDeviceUnavailableNow:(Ljava/lang/String;IZ)V&#45;&gt;m::com.android.server.audio.AudioDeviceBroker.clearAvrcpAbsoluteVolumeSupported:(Landroid/media/AudioDeviceAttributes;)V -->
<g id="edge16" class="edge">
<title>m::com.android.server.audio.AudioDeviceInventory.makeA2dpDeviceUnavailableNow:(Ljava/lang/String;IZ)V&#45;&gt;m::com.android.server.audio.AudioDeviceBroker.clearAvrcpAbsoluteVolumeSupported:(Landroid/media/AudioDeviceAttributes;)V</title>
<path fill="none" stroke="#64748b" d="M343.74,-145.81C343.86,-137.18 344.01,-126.56 344.15,-117.03"/>
<polygon fill="#64748b" stroke="#64748b" points="346.95,-117.07 344.26,-109.03 341.35,-116.99 346.95,-117.07"/>
</g>
<!-- m::com.android.server.audio.AudioDeviceBroker.setAvrcpAbsoluteVolumeSupported:(Z)V -->
<g id="node16" class="node">
<title>m::com.android.server.audio.AudioDeviceBroker.setAvrcpAbsoluteVolumeSupported:(Z)V</title>
<path fill="#eef2ff" stroke="#a5b4fc" d="M305,-36C305,-36 12,-36 12,-36 6,-36 0,-30 0,-24 0,-24 0,-12 0,-12 0,-6 6,0 12,0 12,0 305,0 305,0 311,0 317,-6 317,-12 317,-12 317,-24 317,-24 317,-30 311,-36 305,-36"/>
<text text-anchor="middle" x="158.5" y="-15.2" font-family="Helvetica,sans-Serif" font-size="11.00">AudioDeviceBroker.setAvrcpAbsoluteVolumeSupported</text>
</g>
<!-- m::com.android.server.audio.AudioDeviceBroker.clearAvrcpAbsoluteVolumeSupported:(Landroid/media/AudioDeviceAttributes;)V&#45;&gt;m::com.android.server.audio.AudioDeviceBroker.setAvrcpAbsoluteVolumeSupported:(Z)V -->
<g id="edge17" class="edge">
<title>m::com.android.server.audio.AudioDeviceBroker.clearAvrcpAbsoluteVolumeSupported:(Landroid/media/AudioDeviceAttributes;)V&#45;&gt;m::com.android.server.audio.AudioDeviceBroker.setAvrcpAbsoluteVolumeSupported:(Z)V</title>
<path fill="none" stroke="#64748b" d="M299.95,-72.99C273.23,-62.79 239.1,-49.77 211.07,-39.07"/>
<polygon fill="#64748b" stroke="#64748b" points="211.81,-36.35 203.33,-36.11 209.81,-41.58 211.81,-36.35"/>
</g>
<!-- m::com.android.server.audio.AudioDeviceBroker.setAvrcpAbsoluteVolumeSupported:(Z)V&#45;&gt;com.android.server.audio.AudioDeviceBroker.mDeviceStateLock -->
<g id="edge18" class="edge">
<title>m::com.android.server.audio.AudioDeviceBroker.setAvrcpAbsoluteVolumeSupported:(Z)V&#45;&gt;com.android.server.audio.AudioDeviceBroker.mDeviceStateLock</title>
<path fill="none" stroke="#dc2626" stroke-width="1.6" d="M152.83,-36C148.58,-50.26 143.5,-71.23 143.5,-90 143.5,-475 143.5,-475 143.5,-475 143.5,-503.74 204.38,-523.62 265.94,-536.37"/>
<polygon fill="#dc2626" stroke="#dc2626" stroke-width="1.6" points="265.44,-539.13 273.83,-537.97 266.55,-533.64 265.44,-539.13"/>
<text text-anchor="middle" x="164.5" y="-275.8" font-family="Helvetica,sans-Serif" font-size="9.00" fill="#dc2626"> acquires</text>
</g>
</g>
</svg>
