<?xml version="1.0" encoding="UTF-8" standalone="no"?>
<!DOCTYPE svg PUBLIC "-//W3C//DTD SVG 1.1//EN"
 "http://www.w3.org/Graphics/SVG/1.1/DTD/svg11.dtd">
<!-- Generated by graphviz version 2.43.0 (0)
 -->
<!-- Title: cycle Pages: 1 -->
<svg width="644pt" height="947pt"
 viewBox="0.00 0.00 643.50 947.00" xmlns="http://www.w3.org/2000/svg" xmlns:xlink="http://www.w3.org/1999/xlink">
<g id="graph0" class="graph" transform="scale(1 1) rotate(0) translate(4 943)">
<title>cycle</title>
<polygon fill="white" stroke="transparent" points="-4,4 -4,-943 639.5,-943 639.5,4 -4,4"/>
<!-- com.android.server.input.BatteryController$LocalBluetoothBatteryManager.mBroadcastReceiver -->
<g id="node1" class="node">
<title>com.android.server.input.BatteryController$LocalBluetoothBatteryManager.mBroadcastReceiver</title>
<path fill="#fee2e2" stroke="#dc2626" stroke-width="2" d="M591,-939C591,-939 130,-939 130,-939 124,-939 118,-933 118,-927 118,-927 118,-915 118,-915 118,-909 124,-903 130,-903 130,-903 591,-903 591,-903 597,-903 603,-909 603,-915 603,-915 603,-927 603,-927 603,-933 597,-939 591,-939"/>
<text text-anchor="middle" x="360.5" y="-917.6" font-family="Helvetica,sans-Serif" font-size="13.00">BatteryController$LocalBluetoothBatteryManager.mBroadcastReceiver</text>
</g>
<!-- m::com.android.server.input.BatteryController$LocalBluetoothBatteryManager$1.onReceive:(Landroid/content/Context;Landroid/content/Intent;)V -->
<g id="node3" class="node">
<title>m::com.android.server.input.BatteryController$LocalBluetoothBatteryManager$1.onReceive:(Landroid/content/Context;Landroid/content/Intent;)V</title>
<path fill="#eef2ff" stroke="#a5b4fc" d="M412.5,-857C412.5,-857 72.5,-857 72.5,-857 66.5,-857 60.5,-851 60.5,-845 60.5,-845 60.5,-833 60.5,-833 60.5,-827 66.5,-821 72.5,-821 72.5,-821 412.5,-821 412.5,-821 418.5,-821 424.5,-827 424.5,-833 424.5,-833 424.5,-845 424.5,-845 424.5,-851 418.5,-857 412.5,-857"/>
<text text-anchor="middle" x="242.5" y="-836.2" font-family="Helvetica,sans-Serif" font-size="11.00">BatteryController$LocalBluetoothBatteryManager$1.onReceive</text>
</g>
<!-- com.android.server.input.BatteryController$LocalBluetoothBatteryManager.mBroadcastReceiver&#45;&gt;m::com.android.server.input.BatteryController$LocalBluetoothBatteryManager$1.onReceive:(Landroid/content/Context;Landroid/content/Intent;)V -->
<g id="edge1" class="edge">
<title>com.android.server.input.BatteryController$LocalBluetoothBatteryManager.mBroadcastReceiver&#45;&gt;m::com.android.server.input.BatteryController$LocalBluetoothBatteryManager$1.onReceive:(Landroid/content/Context;Landroid/content/Intent;)V</title>
<path fill="none" stroke="#dc2626" stroke-width="1.6" d="M335.19,-902.84C317.45,-890.82 293.62,-874.66 274.56,-861.73"/>
<polygon fill="#dc2626" stroke="#dc2626" stroke-width="1.6" points="275.97,-859.31 267.77,-857.13 272.82,-863.94 275.97,-859.31"/>
<text text-anchor="middle" x="323.5" y="-877.8" font-family="Helvetica,sans-Serif" font-size="9.00" fill="#dc2626"> holds</text>
</g>
<!-- com.android.server.input.BatteryController.mLock -->
<g id="node2" class="node">
<title>com.android.server.input.BatteryController.mLock</title>
<path fill="#fee2e2" stroke="#dc2626" stroke-width="2" d="M294,-556C294,-556 141,-556 141,-556 135,-556 129,-550 129,-544 129,-544 129,-532 129,-532 129,-526 135,-520 141,-520 141,-520 294,-520 294,-520 300,-520 306,-526 306,-532 306,-532 306,-544 306,-544 306,-550 300,-556 294,-556"/>
<text text-anchor="middle" x="217.5" y="-534.6" font-family="Helvetica,sans-Serif" font-size="13.00">BatteryController.mLock</text>
</g>
<!-- m::com.android.server.input.BatteryController$1.onInputDeviceAdded:(I)V -->
<g id="node7" class="node">
<title>m::com.android.server.input.BatteryController$1.onInputDeviceAdded:(I)V</title>
<path fill="#eef2ff" stroke="#a5b4fc" d="M326.5,-474C326.5,-474 108.5,-474 108.5,-474 102.5,-474 96.5,-468 96.5,-462 96.5,-462 96.5,-450 96.5,-450 96.5,-444 102.5,-438 108.5,-438 108.5,-438 326.5,-438 326.5,-438 332.5,-438 338.5,-444 338.5,-450 338.5,-450 338.5,-462 338.5,-462 338.5,-468 332.5,-474 326.5,-474"/>
<text text-anchor="middle" x="217.5" y="-453.2" font-family="Helvetica,sans-Serif" font-size="11.00">BatteryController$1.onInputDeviceAdded</text>
</g>
<!-- com.android.server.input.BatteryController.mLock&#45;&gt;m::com.android.server.input.BatteryController$1.onInputDeviceAdded:(I)V -->
<g id="edge6" class="edge">
<title>com.android.server.input.BatteryController.mLock&#45;&gt;m::com.android.server.input.BatteryController$1.onInputDeviceAdded:(I)V</title>
<path fill="none" stroke="#dc2626" stroke-width="1.6" d="M217.5,-519.64C217.5,-508.66 217.5,-494.29 217.5,-482.09"/>
<polygon fill="#dc2626" stroke="#dc2626" stroke-width="1.6" points="220.3,-482.05 217.5,-474.05 214.7,-482.05 220.3,-482.05"/>
<text text-anchor="middle" x="231.5" y="-494.8" font-family="Helvetica,sans-Serif" font-size="9.00" fill="#dc2626"> holds</text>
</g>
<!-- m::com.android.server.input.BatteryController$$ExternalSyntheticLambda4.onBluetoothBatteryChanged:(JLjava/lang/String;I)V -->
<g id="node4" class="node">
<title>m::com.android.server.input.BatteryController$$ExternalSyntheticLambda4.onBluetoothBatteryChanged:(JLjava/lang/String;I)V</title>
<path fill="#eef2ff" stroke="#a5b4fc" d="M421,-784C421,-784 12,-784 12,-784 6,-784 0,-778 0,-772 0,-772 0,-760 0,-760 0,-754 6,-748 12,-748 12,-748 421,-748 421,-748 427,-748 433,-754 433,-760 433,-760 433,-772 433,-772 433,-778 427,-784 421,-784"/>
<text text-anchor="middle" x="216.5" y="-763.2" font-family="Helvetica,sans-Serif" font-size="11.00">BatteryController$$ExternalSyntheticLambda4.onBluetoothBatteryChanged</text>
</g>
<!-- m::com.android.server.input.BatteryController$LocalBluetoothBatteryManager$1.onReceive:(Landroid/content/Context;Landroid/content/Intent;)V&#45;&gt;m::com.android.server.input.BatteryController$$ExternalSyntheticLambda4.onBluetoothBatteryChanged:(JLjava/lang/String;I)V -->
<g id="edge2" class="edge">
<title>m::com.android.server.input.BatteryController$LocalBluetoothBatteryManager$1.onReceive:(Landroid/content/Context;Landroid/content/Intent;)V&#45;&gt;m::com.android.server.input.BatteryController$$ExternalSyntheticLambda4.onBluetoothBatteryChanged:(JLjava/lang/String;I)V</title>
<path fill="none" stroke="#64748b" d="M236.21,-820.81C233.01,-812.09 229.08,-801.34 225.56,-791.75"/>
<polygon fill="#64748b" stroke="#64748b" points="228.12,-790.58 222.74,-784.03 222.86,-792.5 228.12,-790.58"/>
</g>
<!-- m::com.android.server.input.BatteryController.$r8$lambda$kHxElP6jGL2CI2h9&#45;PGs0oeXj6g:(Lcom/android/server/input/BatteryController;JLjava/lang/String;I)V -->
<g id="node5" class="node">
<title>m::com.android.server.input.BatteryController.$r8$lambda$kHxElP6jGL2CI2h9&#45;PGs0oeXj6g:(Lcom/android/server/input/BatteryController;JLjava/lang/String;I)V</title>
<path fill="#eef2ff" stroke="#a5b4fc" d="M383,-711C383,-711 52,-711 52,-711 46,-711 40,-705 40,-699 40,-699 40,-687 40,-687 40,-681 46,-675 52,-675 52,-675 383,-675 383,-675 389,-675 395,-681 395,-687 395,-687 395,-699 395,-699 395,-705 389,-711 383,-711"/>
<text text-anchor="middle" x="217.5" y="-690.2" font-family="Helvetica,sans-Serif" font-size="11.00">BatteryController.$r8$lambda$kHxElP6jGL2CI2h9&#45;PGs0oeXj6g</text>
</g>
<!-- m::com.android.server.input.BatteryController$$ExternalSyntheticLambda4.onBluetoothBatteryChanged:(JLjava/lang/String;I)V&#45;&gt;m::com.android.server.input.BatteryController.$r8$lambda$kHxElP6jGL2CI2h9&#45;PGs0oeXj6g:(Lcom/android/server/input/BatteryController;JLjava/lang/String;I)V -->
<g id="edge3" class="edge">
<title>m::com.android.server.input.BatteryController$$ExternalSyntheticLambda4.onBluetoothBatteryChanged:(JLjava/lang/String;I)V&#45;&gt;m::com.android.server.input.BatteryController.$r8$lambda$kHxElP6jGL2CI2h9&#45;PGs0oeXj6g:(Lcom/android/server/input/BatteryController;JLjava/lang/String;I)V</title>
<path fill="none" stroke="#64748b" d="M216.74,-747.81C216.86,-739.18 217.01,-728.56 217.15,-719.03"/>
<polygon fill="#64748b" stroke="#64748b" points="219.95,-719.07 217.26,-711.03 214.35,-718.99 219.95,-719.07"/>
</g>
<!-- m::com.android.server.input.BatteryController.handleBluetoothBatteryLevelChange:(JLjava/lang/String;I)V -->
<g id="node6" class="node">
<title>m::com.android.server.input.BatteryController.handleBluetoothBatteryLevelChange:(JLjava/lang/String;I)V</title>
<path fill="#eef2ff" stroke="#a5b4fc" d="M364,-638C364,-638 71,-638 71,-638 65,-638 59,-632 59,-626 59,-626 59,-614 59,-614 59,-608 65,-602 71,-602 71,-602 364,-602 364,-602 370,-602 376,-608 376,-614 376,-614 376,-626 376,-626 376,-632 370,-638 364,-638"/>
<text text-anchor="middle" x="217.5" y="-617.2" font-family="Helvetica,sans-Serif" font-size="11.00">BatteryController.handleBluetoothBatteryLevelChange</text>
</g>
<!-- m::com.android.server.input.BatteryController.$r8$lambda$kHxElP6jGL2CI2h9&#45;PGs0oeXj6g:(Lcom/android/server/input/BatteryController;JLjava/lang/String;I)V&#45;&gt;m::com.android.server.input.BatteryController.handleBluetoothBatteryLevelChange:(JLjava/lang/String;I)V -->
<g id="edge4" class="edge">
<title>m::com.android.server.input.BatteryController.$r8$lambda$kHxElP6jGL2CI2h9&#45;PGs0oeXj6g:(Lcom/android/server/input/BatteryController;JLjava/lang/String;I)V&#45;&gt;m::com.android.server.input.BatteryController.handleBluetoothBatteryLevelChange:(JLjava/lang/String;I)V</title>
<path fill="none" stroke="#64748b" d="M217.5,-674.81C217.5,-666.18 217.5,-655.56 217.5,-646.03"/>
<polygon fill="#64748b" stroke="#64748b" points="220.3,-646.03 217.5,-638.03 214.7,-646.03 220.3,-646.03"/>
</g>
<!-- m::com.android.server.input.BatteryController.handleBluetoothBatteryLevelChange:(JLjava/lang/String;I)V&#45;&gt;com.android.server.input.BatteryController.mLock -->
<g id="edge5" class="edge">
<title>m::com.android.server.input.BatteryController.handleBluetoothBatteryLevelChange:(JLjava/lang/String;I)V&#45;&gt;com.android.server.input.BatteryController.mLock</title>
<path fill="none" stroke="#dc2626" stroke-width="1.6" d="M217.5,-601.64C217.5,-590.66 217.5,-576.29 217.5,-564.09"/>
<polygon fill="#dc2626" stroke="#dc2626" stroke-width="1.6" points="220.3,-564.05 217.5,-556.05 214.7,-564.05 220.3,-564.05"/>
<text text-anchor="middle" x="238.5" y="-576.8" font-family="Helvetica,sans-Serif" font-size="9.00" fill="#dc2626"> acquires</text>
</g>
<!-- m::com.android.server.input.BatteryController$UsiDeviceMonitor.&lt;init&gt;:(Lcom/android/server/input/BatteryController;I)V -->
<g id="node8" class="node">
<title>m::com.android.server.input.BatteryController$UsiDeviceMonitor.&lt;init&gt;:(Lcom/android/server/input/BatteryController;I)V</title>
<path fill="#eef2ff" stroke="#a5b4fc" d="M332.5,-401C332.5,-401 102.5,-401 102.5,-401 96.5,-401 90.5,-395 90.5,-389 90.5,-389 90.5,-377 90.5,-377 90.5,-371 96.5,-365 102.5,-365 102.5,-365 332.5,-365 332.5,-365 338.5,-365 344.5,-371 344.5,-377 344.5,-377 344.5,-389 344.5,-389 344.5,-395 338.5,-401 332.5,-401"/>
<text text-anchor="middle" x="217.5" y="-380.2" font-family="Helvetica,sans-Serif" font-size="11.00">BatteryController$UsiDeviceMonitor.&lt;init&gt;</text>
</g>
<!-- m::com.android.server.input.BatteryController$1.onInputDeviceAdded:(I)V&#45;&gt;m::com.android.server.input.BatteryController$UsiDeviceMonitor.&lt;init&gt;:(Lcom/android/server/input/BatteryController;I)V -->
<g id="edge7" class="edge">
<title>m::com.android.server.input.BatteryController$1.onInputDeviceAdded:(I)V&#45;&gt;m::com.android.server.input.BatteryController$UsiDeviceMonitor.&lt;init&gt;:(Lcom/android/server/input/BatteryController;I)V</title>
<path fill="none" stroke="#64748b" d="M217.5,-437.81C217.5,-429.18 217.5,-418.56 217.5,-409.03"/>
<polygon fill="#64748b" stroke="#64748b" points="220.3,-409.03 217.5,-401.03 214.7,-409.03 220.3,-409.03"/>
</g>
<!-- m::com.android.server.input.BatteryController$DeviceMonitor.&lt;init&gt;:(Lcom/android/server/input/BatteryController;I)V -->
<g id="node9" class="node">
<title>m::com.android.server.input.BatteryController$DeviceMonitor.&lt;init&gt;:(Lcom/android/server/input/BatteryController;I)V</title>
<path fill="#eef2ff" stroke="#a5b4fc" d="M325.5,-328C325.5,-328 113.5,-328 113.5,-328 107.5,-328 101.5,-322 101.5,-316 101.5,-316 101.5,-304 101.5,-304 101.5,-298 107.5,-292 113.5,-292 113.5,-292 325.5,-292 325.5,-292 331.5,-292 337.5,-298 337.5,-304 337.5,-304 337.5,-316 337.5,-316 337.5,-322 331.5,-328 325.5,-328"/>
<text text-anchor="middle" x="219.5" y="-307.2" font-family="Helvetica,sans-Serif" font-size="11.00">BatteryController$DeviceMonitor.&lt;init&gt;</text>
</g>
<!-- m::com.android.server.input.BatteryController$UsiDeviceMonitor.&lt;init&gt;:(Lcom/android/server/input/BatteryController;I)V&#45;&gt;m::com.android.server.input.BatteryController$DeviceMonitor.&lt;init&gt;:(Lcom/android/server/input/BatteryController;I)V -->
<g id="edge8" class="edge">
<title>m::com.android.server.input.BatteryController$UsiDeviceMonitor.&lt;init&gt;:(Lcom/android/server/input/BatteryController;I)V&#45;&gt;m::com.android.server.input.BatteryController$DeviceMonitor.&lt;init&gt;:(Lcom/android/server/input/BatteryController;I)V</title>
<path fill="none" stroke="#64748b" d="M217.98,-364.81C218.23,-356.18 218.53,-345.56 218.79,-336.03"/>
<polygon fill="#64748b" stroke="#64748b" points="221.59,-336.1 219.02,-328.03 216,-335.95 221.59,-336.1"/>
</g>
<!-- m::com.android.server.input.BatteryController$DeviceMonitor.configureDeviceMonitor:(J)V -->
<g id="node10" class="node">
<title>m::com.android.server.input.BatteryController$DeviceMonitor.configureDeviceMonitor:(J)V</title>
<path fill="#eef2ff" stroke="#a5b4fc" d="M379.5,-255C379.5,-255 71.5,-255 71.5,-255 65.5,-255 59.5,-249 59.5,-243 59.5,-243 59.5,-231 59.5,-231 59.5,-225 65.5,-219 71.5,-219 71.5,-219 379.5,-219 379.5,-219 385.5,-219 391.5,-225 391.5,-231 391.5,-231 391.5,-243 391.5,-243 391.5,-249 385.5,-255 379.5,-255"/>
<text text-anchor="middle" x="225.5" y="-234.2" font-family="Helvetica,sans-Serif" font-size="11.00">BatteryController$DeviceMonitor.configureDeviceMonitor</text>
</g>
<!-- m::com.android.server.input.BatteryController$DeviceMonitor.&lt;init&gt;:(Lcom/android/server/input/BatteryController;I)V&#45;&gt;m::com.android.server.input.BatteryController$DeviceMonitor.configureDeviceMonitor:(J)V -->
<g id="edge9" class="edge">
<title>m::com.android.server.input.BatteryController$DeviceMonitor.&lt;init&gt;:(Lcom/android/server/input/BatteryController;I)V&#45;&gt;m::com.android.server.input.BatteryController$DeviceMonitor.configureDeviceMonitor:(J)V</title>
<path fill="none" stroke="#64748b" d="M220.95,-291.81C221.68,-283.18 222.58,-272.56 223.38,-263.03"/>
<polygon fill="#64748b" stroke="#64748b" points="226.18,-263.24 224.06,-255.03 220.6,-262.76 226.18,-263.24"/>
</g>
<!-- m::com.android.server.input.BatteryController.&#45;$$Nest$mupdateBluetoothBatteryMonitoring:(Lcom/android/server/input/BatteryController;)V -->
<g id="node11" class="node">
<title>m::com.android.server.input.BatteryController.&#45;$$Nest$mupdateBluetoothBatteryMonitoring:(Lcom/android/server/input/BatteryController;)V</title>
<path fill="#eef2ff" stroke="#a5b4fc" d="M420.5,-182C420.5,-182 78.5,-182 78.5,-182 72.5,-182 66.5,-176 66.5,-170 66.5,-170 66.5,-158 66.5,-158 66.5,-152 72.5,-146 78.5,-146 78.5,-146 420.5,-146 420.5,-146 426.5,-146 432.5,-152 432.5,-158 432.5,-158 432.5,-170 432.5,-170 432.5,-176 426.5,-182 420.5,-182"/>
<text text-anchor="middle" x="249.5" y="-161.2" font-family="Helvetica,sans-Serif" font-size="11.00">BatteryController.&#45;$$Nest$mupdateBluetoothBatteryMonitoring</text>
</g>
<!-- m::com.android.server.input.BatteryController$DeviceMonitor.configureDeviceMonitor:(J)V&#45;&gt;m::com.android.server.input.BatteryController.&#45;$$Nest$mupdateBluetoothBatteryMonitoring:(Lcom/android/server/input/BatteryController;)V -->
<g id="edge10" class="edge">
<title>m::com.android.server.input.BatteryController$DeviceMonitor.configureDeviceMonitor:(J)V&#45;&gt;m::com.android.server.input.BatteryController.&#45;$$Nest$mupdateBluetoothBatteryMonitoring:(Lcom/android/server/input/BatteryController;)V</title>
<path fill="none" stroke="#64748b" d="M231.31,-218.81C234.26,-210.09 237.89,-199.34 241.14,-189.75"/>
<polygon fill="#64748b" stroke="#64748b" points="243.83,-190.5 243.74,-182.03 238.53,-188.71 243.83,-190.5"/>
</g>
<!-- m::com.android.server.input.BatteryController.updateBluetoothBatteryMonitoring:()V -->
<g id="node12" class="node">
<title>m::com.android.server.input.BatteryController.updateBluetoothBatteryMonitoring:()V</title>
<path fill="#eef2ff" stroke="#a5b4fc" d="M412.5,-109C412.5,-109 130.5,-109 130.5,-109 124.5,-109 118.5,-103 118.5,-97 118.5,-97 118.5,-85 118.5,-85 118.5,-79 124.5,-73 130.5,-73 130.5,-73 412.5,-73 412.5,-73 418.5,-73 424.5,-79 424.5,-85 424.5,-85 424.5,-97 424.5,-97 424.5,-103 418.5,-109 412.5,-109"/>
<text text-anchor="middle" x="271.5" y="-88.2" font-family="Helvetica,sans-Serif" font-size="11.00">BatteryController.updateBluetoothBatteryMonitoring</text>
</g>
<!-- m::com.android.server.input.BatteryController.&#45;$$Nest$mupdateBluetoothBatteryMonitoring:(Lcom/android/server/input/BatteryController;)V&#45;&gt;m::com.android.server.input.BatteryController.updateBluetoothBatteryMonitoring:()V -->
<g id="edge11" class="edge">
<title>m::com.android.server.input.BatteryController.&#45;$$Nest$mupdateBluetoothBatteryMonitoring:(Lcom/android/server/input/BatteryController;)V&#45;&gt;m::com.android.server.input.BatteryController.updateBluetoothBatteryMonitoring:()V</title>
<path fill="none" stroke="#64748b" d="M254.83,-145.81C257.53,-137.09 260.86,-126.34 263.83,-116.75"/>
<polygon fill="#64748b" stroke="#64748b" points="266.53,-117.5 266.22,-109.03 261.18,-115.84 266.53,-117.5"/>
</g>
<!-- m::com.android.server.input.BatteryController$LocalBluetoothBatteryManager.addBatteryListener:(Lcom/android/server/input/BatteryController$BluetoothBatteryManager$BluetoothBatteryListener;)V -->
<g id="node13" class="node">
<title>m::com.android.server.input.BatteryController$LocalBluetoothBatteryManager.addBatteryListener:(Lcom/android/server/input/BatteryController$BluetoothBatteryManager$BluetoothBatteryListener;)V</title>
<path fill="#eef2ff" stroke="#a5b4fc" d="M623.5,-36C623.5,-36 249.5,-36 249.5,-36 243.5,-36 237.5,-30 237.5,-24 237.5,-24 237.5,-12 237.5,-12 237.5,-6 243.5,0 249.5,0 249.5,0 623.5,0 623.5,0 629.5,0 635.5,-6 635.5,-12 635.5,-12 635.5,-24 635.5,-24 635.5,-30 629.5,-36 623.5,-36"/>
<text text-anchor="middle" x="436.5" y="-15.2" font-family="Helvetica,sans-Serif" font-size="11.00">BatteryController$LocalBluetoothBatteryManager.addBatteryListener</text>
</g>
<!-- m::com.android.server.input.BatteryController.updateBluetoothBatteryMonitoring:()V&#45;&gt;m::com.android.server.input.BatteryController$LocalBluetoothBatteryManager.addBatteryListener:(Lcom/android/server/input/BatteryController$BluetoothBatteryManager$BluetoothBatteryListener;)V -->
<g id="edge12" class="edge">
<title>m::com.android.server.input.BatteryController.updateBluetoothBatteryMonitoring:()V&#45;&gt;m::com.android.server.input.BatteryController$LocalBluetoothBatteryManager.addBatteryListener:(Lcom/android/server/input/BatteryController$BluetoothBatteryManager$BluetoothBatteryListener;)V</title>
<path fill="none" stroke="#64748b" d="M311.02,-72.99C334.52,-62.88 364.48,-49.99 389.23,-39.34"/>
<polygon fill="#64748b" stroke="#64748b" points="390.49,-41.85 396.73,-36.11 388.27,-36.7 390.49,-41.85"/>
</g>
<!-- m::com.android.server.input.BatteryController$LocalBluetoothBatteryManager.addBatteryListener:(Lcom/android/server/input/BatteryController$BluetoothBatteryManager$BluetoothBatteryListener;)V&#45;&gt;com.android.server.input.BatteryController$LocalBluetoothBatteryManager.mBroadcastReceiver -->
<g id="edge13" class="edge">
<title>m::com.android.server.input.BatteryController$LocalBluetoothBatteryManager.addBatteryListener:(Lcom/android/server/input/BatteryController$BluetoothBatteryManager$BluetoothBatteryListener;)V&#45;&gt;com.android.server.input.BatteryController$LocalBluetoothBatteryManager.mBroadcastReceiver</title>
<path fill="none" stroke="#dc2626" stroke-width="1.6" d="M449.94,-36.01C459.44,-49.76 470.5,-70.05 470.5,-90 470.5,-840 470.5,-840 470.5,-840 470.5,-867.72 447.36,-886.85 422.31,-899.42"/>
<polygon fill="#dc2626" stroke="#dc2626" stroke-width="1.6" points="420.88,-897 414.86,-902.96 423.28,-902.06 420.88,-897"/>
<text text-anchor="middle" x="491.5" y="-453.8" font-family="Helvetica,sans-Serif" font-size="9.00" fill="#dc2626"> acquires</text>
</g>
</g>
</svg>
