<?xml version="1.0" encoding="UTF-8" standalone="no"?>
<!DOCTYPE svg PUBLIC "-//W3C//DTD SVG 1.1//EN"
 "http://www.w3.org/Graphics/SVG/1.1/DTD/svg11.dtd">
<!-- Generated by graphviz version 2.43.0 (0)
 -->
<!-- Title: cycle Pages: 1 -->
<svg width="798pt" height="1038pt"
 viewBox="0.00 0.00 798.00 1038.00" xmlns="http://www.w3.org/2000/svg" xmlns:xlink="http://www.w3.org/1999/xlink">
<g id="graph0" class="graph" transform="scale(1 1) rotate(0) translate(4 1034)">
<title>cycle</title>
<polygon fill="white" stroke="transparent" points="-4,4 -4,-1034 794,-1034 794,4 -4,4"/>
<!-- com.android.server.power.thermal.ThermalManagerService$TemperatureWatcher.mSamples -->
<g id="node1" class="node">
<title>com.android.server.power.thermal.ThermalManagerService$TemperatureWatcher.mSamples</title>
<path fill="#fee2e2" stroke="#dc2626" stroke-width="2" d="M386,-1030C386,-1030 12,-1030 12,-1030 6,-1030 0,-1024 0,-1018 0,-1018 0,-1006 0,-1006 0,-1000 6,-994 12,-994 12,-994 386,-994 386,-994 392,-994 398,-1000 398,-1006 398,-1006 398,-1018 398,-1018 398,-1024 392,-1030 386,-1030"/>
<text text-anchor="middle" x="199" y="-1008.6" font-family="Helvetica,sans-Serif" font-size="13.00">ThermalManagerService$TemperatureWatcher.mSamples</text>
</g>
<!-- m::com.android.server.power.thermal.ThermalManagerService$1.onThresholdChanged:(Landroid/hardware/thermal/TemperatureThreshold;)V -->
<g id="node4" class="node">
<title>m::com.android.server.power.thermal.ThermalManagerService$1.onThresholdChanged:(Landroid/hardware/thermal/TemperatureThreshold;)V</title>
<path fill="#eef2ff" stroke="#a5b4fc" d="M552.5,-948C552.5,-948 293.5,-948 293.5,-948 287.5,-948 281.5,-942 281.5,-936 281.5,-936 281.5,-924 281.5,-924 281.5,-918 287.5,-912 293.5,-912 293.5,-912 552.5,-912 552.5,-912 558.5,-912 564.5,-918 564.5,-924 564.5,-924 564.5,-936 564.5,-936 564.5,-942 558.5,-948 552.5,-948"/>
<text text-anchor="middle" x="423" y="-927.2" font-family="Helvetica,sans-Serif" font-size="11.00">ThermalManagerService$1.onThresholdChanged</text>
</g>
<!-- com.android.server.power.thermal.ThermalManagerService$TemperatureWatcher.mSamples&#45;&gt;m::com.android.server.power.thermal.ThermalManagerService$1.onThresholdChanged:(Landroid/hardware/thermal/TemperatureThreshold;)V -->
<g id="edge1" class="edge">
<title>com.android.server.power.thermal.ThermalManagerService$TemperatureWatcher.mSamples&#45;&gt;m::com.android.server.power.thermal.ThermalManagerService$1.onThresholdChanged:(Landroid/hardware/thermal/TemperatureThreshold;)V</title>
<path fill="none" stroke="#dc2626" stroke-width="1.6" d="M246.78,-993.94C282.17,-981.3 330.47,-964.05 367.56,-950.8"/>
<polygon fill="#dc2626" stroke="#dc2626" stroke-width="1.6" points="368.7,-953.37 375.29,-948.04 366.82,-948.09 368.7,-953.37"/>
<text text-anchor="middle" x="341" y="-968.8" font-family="Helvetica,sans-Serif" font-size="9.00" fill="#dc2626"> held in</text>
</g>
<!-- com.android.server.power.thermal.ThermalManagerService$ThermalHalWrapper.mHalLock -->
<g id="node2" class="node">
<title>com.android.server.power.thermal.ThermalManagerService$ThermalHalWrapper.mHalLock</title>
<path fill="#fee2e2" stroke="#dc2626" stroke-width="2" d="M648,-647C648,-647 286,-647 286,-647 280,-647 274,-641 274,-635 274,-635 274,-623 274,-623 274,-617 280,-611 286,-611 286,-611 648,-611 648,-611 654,-611 660,-617 660,-623 660,-623 660,-635 660,-635 660,-641 654,-647 648,-647"/>
<text text-anchor="middle" x="467" y="-625.6" font-family="Helvetica,sans-Serif" font-size="13.00">ThermalManagerService$ThermalHalWrapper.mHalLock</text>
</g>
<!-- m::com.android.server.power.thermal.ThermalManagerService$ThermalHalWrapper$DeathRecipient.serviceDied:(J)V -->
<g id="node8" class="node">
<title>m::com.android.server.power.thermal.ThermalManagerService$ThermalHalWrapper$DeathRecipient.serviceDied:(J)V</title>
<path fill="#eef2ff" stroke="#a5b4fc" d="M650.5,-565C650.5,-565 249.5,-565 249.5,-565 243.5,-565 237.5,-559 237.5,-553 237.5,-553 237.5,-541 237.5,-541 237.5,-535 243.5,-529 249.5,-529 249.5,-529 650.5,-529 650.5,-529 656.5,-529 662.5,-535 662.5,-541 662.5,-541 662.5,-553 662.5,-553 662.5,-559 656.5,-565 650.5,-565"/>
<text text-anchor="middle" x="450" y="-544.2" font-family="Helvetica,sans-Serif" font-size="11.00">ThermalManagerService$ThermalHalWrapper$DeathRecipient.serviceDied</text>
</g>
<!-- com.android.server.power.thermal.ThermalManagerService$ThermalHalWrapper.mHalLock&#45;&gt;m::com.android.server.power.thermal.ThermalManagerService$ThermalHalWrapper$DeathRecipient.serviceDied:(J)V -->
<g id="edge6" class="edge">
<title>com.android.server.power.thermal.ThermalManagerService$ThermalHalWrapper.mHalLock&#45;&gt;m::com.android.server.power.thermal.ThermalManagerService$ThermalHalWrapper$DeathRecipient.serviceDied:(J)V</title>
<path fill="none" stroke="#dc2626" stroke-width="1.6" d="M463.31,-610.64C460.98,-599.66 457.93,-585.29 455.33,-573.09"/>
<polygon fill="#dc2626" stroke="#dc2626" stroke-width="1.6" points="458.02,-572.29 453.62,-565.05 452.55,-573.46 458.02,-572.29"/>
<text text-anchor="middle" x="476" y="-585.8" font-family="Helvetica,sans-Serif" font-size="9.00" fill="#dc2626"> held in</text>
</g>
<!-- com.android.server.power.thermal.ThermalManagerService.mLock -->
<g id="node3" class="node">
<title>com.android.server.power.thermal.ThermalManagerService.mLock</title>
<path fill="#fee2e2" stroke="#dc2626" stroke-width="2" d="M396.5,-191C396.5,-191 195.5,-191 195.5,-191 189.5,-191 183.5,-185 183.5,-179 183.5,-179 183.5,-167 183.5,-167 183.5,-161 189.5,-155 195.5,-155 195.5,-155 396.5,-155 396.5,-155 402.5,-155 408.5,-161 408.5,-167 408.5,-167 408.5,-179 408.5,-179 408.5,-185 402.5,-191 396.5,-191"/>
<text text-anchor="middle" x="296" y="-169.6" font-family="Helvetica,sans-Serif" font-size="13.00">ThermalManagerService.mLock</text>
</g>
<!-- com.android.server.power.thermal.ThermalManagerService.mLock&#45;&gt;com.android.server.power.thermal.ThermalManagerService$TemperatureWatcher.mSamples -->
<g id="edge13" class="edge">
<title>com.android.server.power.thermal.ThermalManagerService.mLock&#45;&gt;com.android.server.power.thermal.ThermalManagerService$TemperatureWatcher.mSamples</title>
<path fill="none" stroke="#dc2626" stroke-width="1.6" stroke-dasharray="5,2" d="M206.4,-191.06C148.54,-204.74 84,-226.22 84,-254 84,-931 84,-931 84,-931 84,-959.12 107.46,-978.16 133.19,-990.58"/>
<polygon fill="#dc2626" stroke="#dc2626" stroke-width="1.6" points="132.05,-993.14 140.49,-993.92 134.37,-988.05 132.05,-993.14"/>
<text text-anchor="middle" x="132.5" y="-585.8" font-family="Helvetica,sans-Serif" font-size="9.00" fill="#dc2626"> held → acquires [3x]</text>
</g>
<!-- m::com.android.server.power.thermal.ThermalManagerService.onActivityManagerReady:()V -->
<g id="node13" class="node">
<title>m::com.android.server.power.thermal.ThermalManagerService.onActivityManagerReady:()V</title>
<path fill="#eef2ff" stroke="#a5b4fc" d="M588,-109C588,-109 320,-109 320,-109 314,-109 308,-103 308,-97 308,-97 308,-85 308,-85 308,-79 314,-73 320,-73 320,-73 588,-73 588,-73 594,-73 600,-79 600,-85 600,-85 600,-97 600,-97 600,-103 594,-109 588,-109"/>
<text text-anchor="middle" x="454" y="-88.2" font-family="Helvetica,sans-Serif" font-size="11.00">ThermalManagerService.onActivityManagerReady</text>
</g>
<!-- com.android.server.power.thermal.ThermalManagerService.mLock&#45;&gt;m::com.android.server.power.thermal.ThermalManagerService.onActivityManagerReady:()V -->
<g id="edge14" class="edge">
<title>com.android.server.power.thermal.ThermalManagerService.mLock&#45;&gt;m::com.android.server.power.thermal.ThermalManagerService.onActivityManagerReady:()V</title>
<path fill="none" stroke="#dc2626" stroke-width="1.6" d="M329.89,-154.84C354.16,-142.55 386.96,-125.95 412.74,-112.89"/>
<polygon fill="#dc2626" stroke="#dc2626" stroke-width="1.6" points="414.29,-115.25 420.16,-109.13 411.76,-110.25 414.29,-115.25"/>
<text text-anchor="middle" x="401" y="-129.8" font-family="Helvetica,sans-Serif" font-size="9.00" fill="#dc2626"> held in</text>
</g>
<!-- m::com.android.server.power.thermal.ThermalManagerService$TemperatureWatcher.getHeadroomCallbackDataLocked:()Lcom/android/server/power/thermal/ThermalManagerService$HeadroomCallbackData; -->
<g id="node5" class="node">
<title>m::com.android.server.power.thermal.ThermalManagerService$TemperatureWatcher.getHeadroomCallbackDataLocked:()Lcom/android/server/power/thermal/ThermalManagerService$HeadroomCallbackData;</title>
<path fill="#eef2ff" stroke="#a5b4fc" d="M685,-875C685,-875 249,-875 249,-875 243,-875 237,-869 237,-863 237,-863 237,-851 237,-851 237,-845 243,-839 249,-839 249,-839 685,-839 685,-839 691,-839 697,-845 697,-851 697,-851 697,-863 697,-863 697,-869 691,-875 685,-875"/>
<text text-anchor="middle" x="467" y="-854.2" font-family="Helvetica,sans-Serif" font-size="11.00">ThermalManagerService$TemperatureWatcher.getHeadroomCallbackDataLocked</text>
</g>
<!-- m::com.android.server.power.thermal.ThermalManagerService$1.onThresholdChanged:(Landroid/hardware/thermal/TemperatureThreshold;)V&#45;&gt;m::com.android.server.power.thermal.ThermalManagerService$TemperatureWatcher.getHeadroomCallbackDataLocked:()Lcom/android/server/power/thermal/ThermalManagerService$HeadroomCallbackData; -->
<g id="edge2" class="edge">
<title>m::com.android.server.power.thermal.ThermalManagerService$1.onThresholdChanged:(Landroid/hardware/thermal/TemperatureThreshold;)V&#45;&gt;m::com.android.server.power.thermal.ThermalManagerService$TemperatureWatcher.getHeadroomCallbackDataLocked:()Lcom/android/server/power/thermal/ThermalManagerService$HeadroomCallbackData;</title>
<path fill="none" stroke="#64748b" d="M433.65,-911.81C439.22,-902.83 446.12,-891.69 452.2,-881.89"/>
<polygon fill="#64748b" stroke="#64748b" points="454.61,-883.3 456.45,-875.03 449.85,-880.35 454.61,-883.3"/>
</g>
<!-- m::com.android.server.power.thermal.ThermalManagerService$TemperatureWatcher.getForecast:(I)F -->
<g id="node6" class="node">
<title>m::com.android.server.power.thermal.ThermalManagerService$TemperatureWatcher.getForecast:(I)F</title>
<path fill="#eef2ff" stroke="#a5b4fc" d="M625,-802C625,-802 309,-802 309,-802 303,-802 297,-796 297,-790 297,-790 297,-778 297,-778 297,-772 303,-766 309,-766 309,-766 625,-766 625,-766 631,-766 637,-772 637,-778 637,-778 637,-790 637,-790 637,-796 631,-802 625,-802"/>
<text text-anchor="middle" x="467" y="-781.2" font-family="Helvetica,sans-Serif" font-size="11.00">ThermalManagerService$TemperatureWatcher.getForecast</text>
</g>
<!-- m::com.android.server.power.thermal.ThermalManagerService$TemperatureWatcher.getHeadroomCallbackDataLocked:()Lcom/android/server/power/thermal/ThermalManagerService$HeadroomCallbackData;&#45;&gt;m::com.android.server.power.thermal.ThermalManagerService$TemperatureWatcher.getForecast:(I)F -->
<g id="edge3" class="edge">
<title>m::com.android.server.power.thermal.ThermalManagerService$TemperatureWatcher.getHeadroomCallbackDataLocked:()Lcom/android/server/power/thermal/ThermalManagerService$HeadroomCallbackData;&#45;&gt;m::com.android.server.power.thermal.ThermalManagerService$TemperatureWatcher.getForecast:(I)F</title>
<path fill="none" stroke="#64748b" d="M467,-838.81C467,-830.18 467,-819.56 467,-810.03"/>
<polygon fill="#64748b" stroke="#64748b" points="469.8,-810.03 467,-802.03 464.2,-810.03 469.8,-810.03"/>
</g>
<!-- m::com.android.server.power.thermal.ThermalManagerService$ThermalHalAidlWrapper.forecastSkinTemperature:(I)F -->
<g id="node7" class="node">
<title>m::com.android.server.power.thermal.ThermalManagerService$ThermalHalAidlWrapper.forecastSkinTemperature:(I)F</title>
<path fill="#eef2ff" stroke="#a5b4fc" d="M668,-729C668,-729 266,-729 266,-729 260,-729 254,-723 254,-717 254,-717 254,-705 254,-705 254,-699 260,-693 266,-693 266,-693 668,-693 668,-693 674,-693 680,-699 680,-705 680,-705 680,-717 680,-717 680,-723 674,-729 668,-729"/>
<text text-anchor="middle" x="467" y="-708.2" font-family="Helvetica,sans-Serif" font-size="11.00">ThermalManagerService$ThermalHalAidlWrapper.forecastSkinTemperature</text>
</g>
<!-- m::com.android.server.power.thermal.ThermalManagerService$TemperatureWatcher.getForecast:(I)F&#45;&gt;m::com.android.server.power.thermal.ThermalManagerService$ThermalHalAidlWrapper.forecastSkinTemperature:(I)F -->
<g id="edge4" class="edge">
<title>m::com.android.server.power.thermal.ThermalManagerService$TemperatureWatcher.getForecast:(I)F&#45;&gt;m::com.android.server.power.thermal.ThermalManagerService$ThermalHalAidlWrapper.forecastSkinTemperature:(I)F</title>
<path fill="none" stroke="#64748b" d="M467,-765.81C467,-757.18 467,-746.56 467,-737.03"/>
<polygon fill="#64748b" stroke="#64748b" points="469.8,-737.03 467,-729.03 464.2,-737.03 469.8,-737.03"/>
</g>
<!-- m::com.android.server.power.thermal.ThermalManagerService$ThermalHalAidlWrapper.forecastSkinTemperature:(I)F&#45;&gt;com.android.server.power.thermal.ThermalManagerService$ThermalHalWrapper.mHalLock -->
<g id="edge5" class="edge">
<title>m::com.android.server.power.thermal.ThermalManagerService$ThermalHalAidlWrapper.forecastSkinTemperature:(I)F&#45;&gt;com.android.server.power.thermal.ThermalManagerService$ThermalHalWrapper.mHalLock</title>
<path fill="none" stroke="#dc2626" stroke-width="1.6" d="M467,-692.64C467,-681.66 467,-667.29 467,-655.09"/>
<polygon fill="#dc2626" stroke="#dc2626" stroke-width="1.6" points="469.8,-655.05 467,-647.05 464.2,-655.05 469.8,-655.05"/>
<text text-anchor="middle" x="488" y="-667.8" font-family="Helvetica,sans-Serif" font-size="9.00" fill="#dc2626"> acquires</text>
</g>
<!-- m::com.android.server.power.thermal.ThermalManagerService$ThermalHalWrapper.resendCurrentTemperatures:()V -->
<g id="node9" class="node">
<title>m::com.android.server.power.thermal.ThermalManagerService$ThermalHalWrapper.resendCurrentTemperatures:()V</title>
<path fill="#eef2ff" stroke="#a5b4fc" d="M649.5,-492C649.5,-492 250.5,-492 250.5,-492 244.5,-492 238.5,-486 238.5,-480 238.5,-480 238.5,-468 238.5,-468 238.5,-462 244.5,-456 250.5,-456 250.5,-456 649.5,-456 649.5,-456 655.5,-456 661.5,-462 661.5,-468 661.5,-468 661.5,-480 661.5,-480 661.5,-486 655.5,-492 649.5,-492"/>
<text text-anchor="middle" x="450" y="-471.2" font-family="Helvetica,sans-Serif" font-size="11.00">ThermalManagerService$ThermalHalWrapper.resendCurrentTemperatures</text>
</g>
<!-- m::com.android.server.power.thermal.ThermalManagerService$ThermalHalWrapper$DeathRecipient.serviceDied:(J)V&#45;&gt;m::com.android.server.power.thermal.ThermalManagerService$ThermalHalWrapper.resendCurrentTemperatures:()V -->
<g id="edge7" class="edge">
<title>m::com.android.server.power.thermal.ThermalManagerService$ThermalHalWrapper$DeathRecipient.serviceDied:(J)V&#45;&gt;m::com.android.server.power.thermal.ThermalManagerService$ThermalHalWrapper.resendCurrentTemperatures:()V</title>
<path fill="none" stroke="#64748b" d="M450,-528.81C450,-520.18 450,-509.56 450,-500.03"/>
<polygon fill="#64748b" stroke="#64748b" points="452.8,-500.03 450,-492.03 447.2,-500.03 452.8,-500.03"/>
</g>
<!-- m::com.android.server.power.thermal.ThermalManagerService$1.onTemperatureChanged:(Landroid/os/Temperature;)V -->
<g id="node10" class="node">
<title>m::com.android.server.power.thermal.ThermalManagerService$1.onTemperatureChanged:(Landroid/os/Temperature;)V</title>
<path fill="#eef2ff" stroke="#a5b4fc" d="M545,-419C545,-419 271,-419 271,-419 265,-419 259,-413 259,-407 259,-407 259,-395 259,-395 259,-389 265,-383 271,-383 271,-383 545,-383 545,-383 551,-383 557,-389 557,-395 557,-395 557,-407 557,-407 557,-413 551,-419 545,-419"/>
<text text-anchor="middle" x="408" y="-398.2" font-family="Helvetica,sans-Serif" font-size="11.00">ThermalManagerService$1.onTemperatureChanged</text>
</g>
<!-- m::com.android.server.power.thermal.ThermalManagerService$ThermalHalWrapper.resendCurrentTemperatures:()V&#45;&gt;m::com.android.server.power.thermal.ThermalManagerService$1.onTemperatureChanged:(Landroid/os/Temperature;)V -->
<g id="edge8" class="edge">
<title>m::com.android.server.power.thermal.ThermalManagerService$ThermalHalWrapper.resendCurrentTemperatures:()V&#45;&gt;m::com.android.server.power.thermal.ThermalManagerService$1.onTemperatureChanged:(Landroid/os/Temperature;)V</title>
<path fill="none" stroke="#64748b" d="M439.83,-455.81C434.57,-446.92 428.06,-435.91 422.3,-426.17"/>
<polygon fill="#64748b" stroke="#64748b" points="424.56,-424.49 418.07,-419.03 419.74,-427.34 424.56,-424.49"/>
</g>
<!-- m::com.android.server.power.thermal.ThermalManagerService.&#45;$$Nest$monTemperatureChanged:(Lcom/android/server/power/thermal/ThermalManagerService;Landroid/os/Temperature;Z)V -->
<g id="node11" class="node">
<title>m::com.android.server.power.thermal.ThermalManagerService.&#45;$$Nest$monTemperatureChanged:(Lcom/android/server/power/thermal/ThermalManagerService;Landroid/os/Temperature;Z)V</title>
<path fill="#eef2ff" stroke="#a5b4fc" d="M514,-346C514,-346 254,-346 254,-346 248,-346 242,-340 242,-334 242,-334 242,-322 242,-322 242,-316 248,-310 254,-310 254,-310 514,-310 514,-310 520,-310 526,-316 526,-322 526,-322 526,-334 526,-334 526,-340 520,-346 514,-346"/>
<text text-anchor="middle" x="384" y="-325.2" font-family="Helvetica,sans-Serif" font-size="11.00">ThermalManagerService.onTemperatureChanged</text>
</g>
<!-- m::com.android.server.power.thermal.ThermalManagerService$1.onTemperatureChanged:(Landroid/os/Temperature;)V&#45;&gt;m::com.android.server.power.thermal.ThermalManagerService.&#45;$$Nest$monTemperatureChanged:(Lcom/android/server/power/thermal/ThermalManagerService;Landroid/os/Temperature;Z)V -->
<g id="edge9" class="edge">
<title>m::com.android.server.power.thermal.ThermalManagerService$1.onTemperatureChanged:(Landroid/os/Temperature;)V&#45;&gt;m::com.android.server.power.thermal.ThermalManagerService.&#45;$$Nest$monTemperatureChanged:(Lcom/android/server/power/thermal/ThermalManagerService;Landroid/os/Temperature;Z)V</title>
<path fill="none" stroke="#64748b" d="M402.19,-382.81C399.24,-374.09 395.61,-363.34 392.36,-353.75"/>
<polygon fill="#64748b" stroke="#64748b" points="394.97,-352.71 389.76,-346.03 389.67,-354.5 394.97,-352.71"/>
</g>
<!-- m::com.android.server.power.thermal.ThermalManagerService.onTemperatureChanged:(Landroid/os/Temperature;Z)V -->
<g id="node12" class="node">
<title>m::com.android.server.power.thermal.ThermalManagerService.onTemperatureChanged:(Landroid/os/Temperature;Z)V</title>
<path fill="#eef2ff" stroke="#a5b4fc" d="M426,-273C426,-273 166,-273 166,-273 160,-273 154,-267 154,-261 154,-261 154,-249 154,-249 154,-243 160,-237 166,-237 166,-237 426,-237 426,-237 432,-237 438,-243 438,-249 438,-249 438,-261 438,-261 438,-267 432,-273 426,-273"/>
<text text-anchor="middle" x="296" y="-252.2" font-family="Helvetica,sans-Serif" font-size="11.00">ThermalManagerService.onTemperatureChanged</text>
</g>
<!-- m::com.android.server.power.thermal.ThermalManagerService.&#45;$$Nest$monTemperatureChanged:(Lcom/android/server/power/thermal/ThermalManagerService;Landroid/os/Temperature;Z)V&#45;&gt;m::com.android.server.power.thermal.ThermalManagerService.onTemperatureChanged:(Landroid/os/Temperature;Z)V -->
<g id="edge10" class="edge">
<title>m::com.android.server.power.thermal.ThermalManagerService.&#45;$$Nest$monTemperatureChanged:(Lcom/android/server/power/thermal/ThermalManagerService;Landroid/os/Temperature;Z)V&#45;&gt;m::com.android.server.power.thermal.ThermalManagerService.onTemperatureChanged:(Landroid/os/Temperature;Z)V</title>
<path fill="none" stroke="#64748b" d="M362.7,-309.81C350.92,-300.31 336.14,-288.39 323.5,-278.19"/>
<polygon fill="#64748b" stroke="#64748b" points="325.09,-275.87 317.11,-273.03 321.57,-280.23 325.09,-275.87"/>
</g>
<!-- m::com.android.server.power.thermal.ThermalManagerService.onTemperatureChanged:(Landroid/os/Temperature;Z)V&#45;&gt;com.android.server.power.thermal.ThermalManagerService$TemperatureWatcher.mSamples -->
<g id="edge11" class="edge">
<title>m::com.android.server.power.thermal.ThermalManagerService.onTemperatureChanged:(Landroid/os/Temperature;Z)V&#45;&gt;com.android.server.power.thermal.ThermalManagerService$TemperatureWatcher.mSamples</title>
<path fill="none" stroke="#dc2626" stroke-width="1.6" d="M244.09,-273.07C221.03,-284.22 199,-301.54 199,-327 199,-931 199,-931 199,-931 199,-949.28 199,-969.91 199,-985.64"/>
<polygon fill="#dc2626" stroke="#dc2626" stroke-width="1.6" points="196.2,-985.83 199,-993.83 201.8,-985.83 196.2,-985.83"/>
<text text-anchor="middle" x="220" y="-626.8" font-family="Helvetica,sans-Serif" font-size="9.00" fill="#dc2626"> acquires</text>
</g>
<!-- m::com.android.server.power.thermal.ThermalManagerService.onTemperatureChanged:(Landroid/os/Temperature;Z)V&#45;&gt;com.android.server.power.thermal.ThermalManagerService.mLock -->
<g id="edge12" class="edge">
<title>m::com.android.server.power.thermal.ThermalManagerService.onTemperatureChanged:(Landroid/os/Temperature;Z)V&#45;&gt;com.android.server.power.thermal.ThermalManagerService.mLock</title>
<path fill="none" stroke="#dc2626" stroke-width="1.6" d="M296,-236.64C296,-225.66 296,-211.29 296,-199.09"/>
<polygon fill="#dc2626" stroke="#dc2626" stroke-width="1.6" points="298.8,-199.05 296,-191.05 293.2,-199.05 298.8,-199.05"/>
<text text-anchor="middle" x="317" y="-211.8" font-family="Helvetica,sans-Serif" font-size="9.00" fill="#dc2626"> acquires</text>
</g>
<!-- m::com.android.server.power.thermal.ThermalManagerService$ThermalHalAidlWrapper.connectToHal:()Z -->
<g id="node14" class="node">
<title>m::com.android.server.power.thermal.ThermalManagerService$ThermalHalAidlWrapper.connectToHal:()Z</title>
<path fill="#eef2ff" stroke="#a5b4fc" d="M778,-36C778,-36 440,-36 440,-36 434,-36 428,-30 428,-24 428,-24 428,-12 428,-12 428,-6 434,0 440,0 440,0 778,0 778,0 784,0 790,-6 790,-12 790,-12 790,-24 790,-24 790,-30 784,-36 778,-36"/>
<text text-anchor="middle" x="609" y="-15.2" font-family="Helvetica,sans-Serif" font-size="11.00">ThermalManagerService$ThermalHalAidlWrapper.connectToHal</text>
</g>
<!-- m::com.android.server.power.thermal.ThermalManagerService.onActivityManagerReady:()V&#45;&gt;m::com.android.server.power.thermal.ThermalManagerService$ThermalHalAidlWrapper.connectToHal:()Z -->
<g id="edge15" class="edge">
<title>m::com.android.server.power.thermal.ThermalManagerService.onActivityManagerReady:()V&#45;&gt;m::com.android.server.power.thermal.ThermalManagerService$ThermalHalAidlWrapper.connectToHal:()Z</title>
<path fill="none" stroke="#64748b" d="M491.13,-72.99C513.11,-62.92 541.1,-50.1 564.29,-39.48"/>
<polygon fill="#64748b" stroke="#64748b" points="565.53,-41.99 571.64,-36.11 563.2,-36.9 565.53,-41.99"/>
</g>
<!-- m::com.android.server.power.thermal.ThermalManagerService$ThermalHalAidlWrapper.connectToHal:()Z&#45;&gt;com.android.server.power.thermal.ThermalManagerService$ThermalHalWrapper.mHalLock -->
<g id="edge16" class="edge">
<title>m::com.android.server.power.thermal.ThermalManagerService$ThermalHalAidlWrapper.connectToHal:()Z&#45;&gt;com.android.server.power.thermal.ThermalManagerService$ThermalHalWrapper.mHalLock</title>
<path fill="none" stroke="#dc2626" stroke-width="1.6" d="M656.89,-36.07C679.24,-47.4 701,-64.88 701,-90 701,-548 701,-548 701,-548 701,-575.94 640.51,-596.15 581.04,-609.27"/>
<polygon fill="#dc2626" stroke="#dc2626" stroke-width="1.6" points="580.28,-606.57 573.05,-610.99 581.46,-612.04 580.28,-606.57"/>
<text text-anchor="middle" x="722" y="-325.8" font-family="Helvetica,sans-Serif" font-size="9.00" fill="#dc2626"> acquires</text>
</g>
</g>
</svg>
