<?xml version="1.0" encoding="UTF-8" standalone="no"?>
<!DOCTYPE svg PUBLIC "-//W3C//DTD SVG 1.1//EN"
 "http://www.w3.org/Graphics/SVG/1.1/DTD/svg11.dtd">
<!-- Generated by graphviz version 2.43.0 (0)
 -->
<!-- Title: cycle Pages: 1 -->
<svg width="1357pt" height="790pt"
 viewBox="0.00 0.00 1357.00 790.00" xmlns="http://www.w3.org/2000/svg" xmlns:xlink="http://www.w3.org/1999/xlink">
<g id="graph0" class="graph" transform="scale(1 1) rotate(0) translate(4 786)">
<title>cycle</title>
<polygon fill="white" stroke="transparent" points="-4,4 -4,-786 1353,-786 1353,4 -4,4"/>
<!-- com.android.server.location.listeners.ListenerMultiplexer.mMultiplexerLock -->
<g id="node1" class="node">
<title>com.android.server.location.listeners.ListenerMultiplexer.mMultiplexerLock</title>
<path fill="#fee2e2" stroke="#dc2626" stroke-width="2" d="M1316,-782C1316,-782 1078,-782 1078,-782 1072,-782 1066,-776 1066,-770 1066,-770 1066,-758 1066,-758 1066,-752 1072,-746 1078,-746 1078,-746 1316,-746 1316,-746 1322,-746 1328,-752 1328,-758 1328,-758 1328,-770 1328,-770 1328,-776 1322,-782 1316,-782"/>
<text text-anchor="middle" x="1197" y="-760.6" font-family="Helvetica,sans-Serif" font-size="13.00">ListenerMultiplexer.mMultiplexerLock</text>
</g>
<!-- m::com.android.server.location.provider.LocationProviderManager.setMockProvider:(Lcom/android/server/location/provider/MockLocationProvider;)V -->
<g id="node4" class="node">
<title>m::com.android.server.location.provider.LocationProviderManager.setMockProvider:(Lcom/android/server/location/provider/MockLocationProvider;)V</title>
<path fill="#eef2ff" stroke="#a5b4fc" d="M960.5,-700C960.5,-700 733.5,-700 733.5,-700 727.5,-700 721.5,-694 721.5,-688 721.5,-688 721.5,-676 721.5,-676 721.5,-670 727.5,-664 733.5,-664 733.5,-664 960.5,-664 960.5,-664 966.5,-664 972.5,-670 972.5,-676 972.5,-676 972.5,-688 972.5,-688 972.5,-694 966.5,-700 960.5,-700"/>
<text text-anchor="middle" x="847" y="-679.2" font-family="Helvetica,sans-Serif" font-size="11.00">LocationProviderManager.setMockProvider</text>
</g>
<!-- com.android.server.location.listeners.ListenerMultiplexer.mMultiplexerLock&#45;&gt;m::com.android.server.location.provider.LocationProviderManager.setMockProvider:(Lcom/android/server/location/provider/MockLocationProvider;)V -->
<g id="edge1" class="edge">
<title>com.android.server.location.listeners.ListenerMultiplexer.mMultiplexerLock&#45;&gt;m::com.android.server.location.provider.LocationProviderManager.setMockProvider:(Lcom/android/server/location/provider/MockLocationProvider;)V</title>
<path fill="none" stroke="#dc2626" stroke-width="1.6" d="M1122.35,-745.94C1065.78,-733.01 988.09,-715.25 929.65,-701.89"/>
<polygon fill="#dc2626" stroke="#dc2626" stroke-width="1.6" points="929.96,-699.09 921.54,-700.04 928.71,-704.55 929.96,-699.09"/>
<text text-anchor="middle" x="1057" y="-720.8" font-family="Helvetica,sans-Serif" font-size="9.00" fill="#dc2626"> holds</text>
</g>
<!-- m::com.android.server.location.listeners.ListenerMultiplexer.dump:(Ljava/io/FileDescriptor;Ljava/io/PrintWriter;[Ljava/lang/String;)V -->
<g id="node11" class="node">
<title>m::com.android.server.location.listeners.ListenerMultiplexer.dump:(Ljava/io/FileDescriptor;Ljava/io/PrintWriter;[Ljava/lang/String;)V</title>
<path fill="#eef2ff" stroke="#a5b4fc" d="M1152.5,-700C1152.5,-700 1021.5,-700 1021.5,-700 1015.5,-700 1009.5,-694 1009.5,-688 1009.5,-688 1009.5,-676 1009.5,-676 1009.5,-670 1015.5,-664 1021.5,-664 1021.5,-664 1152.5,-664 1152.5,-664 1158.5,-664 1164.5,-670 1164.5,-676 1164.5,-676 1164.5,-688 1164.5,-688 1164.5,-694 1158.5,-700 1152.5,-700"/>
<text text-anchor="middle" x="1087" y="-679.2" font-family="Helvetica,sans-Serif" font-size="11.00">ListenerMultiplexer.dump</text>
</g>
<!-- com.android.server.location.listeners.ListenerMultiplexer.mMultiplexerLock&#45;&gt;m::com.android.server.location.listeners.ListenerMultiplexer.dump:(Ljava/io/FileDescriptor;Ljava/io/PrintWriter;[Ljava/lang/String;)V -->
<g id="edge9" class="edge">
<title>com.android.server.location.listeners.ListenerMultiplexer.mMultiplexerLock&#45;&gt;m::com.android.server.location.listeners.ListenerMultiplexer.dump:(Ljava/io/FileDescriptor;Ljava/io/PrintWriter;[Ljava/lang/String;)V</title>
<path fill="none" stroke="#dc2626" stroke-width="1.6" d="M1173.4,-745.84C1157.02,-733.92 1135.04,-717.94 1117.35,-705.07"/>
<polygon fill="#dc2626" stroke="#dc2626" stroke-width="1.6" points="1118.68,-702.57 1110.56,-700.13 1115.38,-707.1 1118.68,-702.57"/>
<text text-anchor="middle" x="1162" y="-720.8" font-family="Helvetica,sans-Serif" font-size="9.00" fill="#dc2626"> holds</text>
</g>
<!-- com.android.server.location.provider.DelegateLocationProvider.mInitializationLock -->
<g id="node2" class="node">
<title>com.android.server.location.provider.DelegateLocationProvider.mInitializationLock</title>
<path fill="#fee2e2" stroke="#dc2626" stroke-width="2" d="M302,-118C302,-118 12,-118 12,-118 6,-118 0,-112 0,-106 0,-106 0,-94 0,-94 0,-88 6,-82 12,-82 12,-82 302,-82 302,-82 308,-82 314,-88 314,-94 314,-94 314,-106 314,-106 314,-112 308,-118 302,-118"/>
<text text-anchor="middle" x="157" y="-96.6" font-family="Helvetica,sans-Serif" font-size="13.00">DelegateLocationProvider.mInitializationLock</text>
</g>
<!-- m::com.android.server.location.provider.DelegateLocationProvider.initializeDelegate:()V -->
<g id="node14" class="node">
<title>m::com.android.server.location.provider.DelegateLocationProvider.initializeDelegate:()V</title>
<path fill="#eef2ff" stroke="#a5b4fc" d="M364.5,-36C364.5,-36 131.5,-36 131.5,-36 125.5,-36 119.5,-30 119.5,-24 119.5,-24 119.5,-12 119.5,-12 119.5,-6 125.5,0 131.5,0 131.5,0 364.5,0 364.5,0 370.5,0 376.5,-6 376.5,-12 376.5,-12 376.5,-24 376.5,-24 376.5,-30 370.5,-36 364.5,-36"/>
<text text-anchor="middle" x="248" y="-15.2" font-family="Helvetica,sans-Serif" font-size="11.00">DelegateLocationProvider.initializeDelegate</text>
</g>
<!-- com.android.server.location.provider.DelegateLocationProvider.mInitializationLock&#45;&gt;m::com.android.server.location.provider.DelegateLocationProvider.initializeDelegate:()V -->
<g id="edge13" class="edge">
<title>com.android.server.location.provider.DelegateLocationProvider.mInitializationLock&#45;&gt;m::com.android.server.location.provider.DelegateLocationProvider.initializeDelegate:()V</title>
<path fill="none" stroke="#dc2626" stroke-width="1.6" d="M187.05,-81.84C195.19,-76.59 203.75,-70.47 211,-64 218.05,-57.71 224.88,-50.02 230.71,-42.78"/>
<polygon fill="#dc2626" stroke="#dc2626" stroke-width="1.6" points="233.04,-44.35 235.77,-36.33 228.63,-40.9 233.04,-44.35"/>
<text text-anchor="middle" x="235" y="-56.8" font-family="Helvetica,sans-Serif" font-size="9.00" fill="#dc2626"> holds</text>
</g>
<!-- com.android.server.location.provider.DelegateLocationProvider.mInitializationLock&#45;&gt;m::com.android.server.location.provider.DelegateLocationProvider.initializeDelegate:()V -->
<g id="edge18" class="edge">
<title>com.android.server.location.provider.DelegateLocationProvider.mInitializationLock&#45;&gt;m::com.android.server.location.provider.DelegateLocationProvider.initializeDelegate:()V</title>
<path fill="none" stroke="#dc2626" stroke-width="1.6" d="M161.46,-81.98C164.57,-72.79 169.54,-61.77 177,-54 182.03,-48.76 188.02,-44.19 194.35,-40.24"/>
<polygon fill="#dc2626" stroke="#dc2626" stroke-width="1.6" points="195.8,-42.63 201.32,-36.19 192.99,-37.79 195.8,-42.63"/>
<text text-anchor="middle" x="191" y="-56.8" font-family="Helvetica,sans-Serif" font-size="9.00" fill="#dc2626"> holds</text>
</g>
<!-- com.android.server.location.provider.MockableLocationProvider.mOwnerLock -->
<g id="node3" class="node">
<title>com.android.server.location.provider.MockableLocationProvider.mOwnerLock</title>
<path fill="#fee2e2" stroke="#dc2626" stroke-width="2" d="M815.5,-282C815.5,-282 560.5,-282 560.5,-282 554.5,-282 548.5,-276 548.5,-270 548.5,-270 548.5,-258 548.5,-258 548.5,-252 554.5,-246 560.5,-246 560.5,-246 815.5,-246 815.5,-246 821.5,-246 827.5,-252 827.5,-258 827.5,-258 827.5,-270 827.5,-270 827.5,-276 821.5,-282 815.5,-282"/>
<text text-anchor="middle" x="688" y="-260.6" font-family="Helvetica,sans-Serif" font-size="13.00">MockableLocationProvider.mOwnerLock</text>
</g>
<!-- m::com.android.server.location.provider.MockableLocationProvider.setMockProviderAllowed:(Z)V -->
<g id="node18" class="node">
<title>m::com.android.server.location.provider.MockableLocationProvider.setMockProviderAllowed:(Z)V</title>
<path fill="#eef2ff" stroke="#a5b4fc" d="M775,-200C775,-200 501,-200 501,-200 495,-200 489,-194 489,-188 489,-188 489,-176 489,-176 489,-170 495,-164 501,-164 501,-164 775,-164 775,-164 781,-164 787,-170 787,-176 787,-176 787,-188 787,-188 787,-194 781,-200 775,-200"/>
<text text-anchor="middle" x="638" y="-179.2" font-family="Helvetica,sans-Serif" font-size="11.00">MockableLocationProvider.setMockProviderAllowed</text>
</g>
<!-- com.android.server.location.provider.MockableLocationProvider.mOwnerLock&#45;&gt;m::com.android.server.location.provider.MockableLocationProvider.setMockProviderAllowed:(Z)V -->
<g id="edge22" class="edge">
<title>com.android.server.location.provider.MockableLocationProvider.mOwnerLock&#45;&gt;m::com.android.server.location.provider.MockableLocationProvider.setMockProviderAllowed:(Z)V</title>
<path fill="none" stroke="#dc2626" stroke-width="1.6" d="M678.95,-245.64C674.39,-237.17 668.63,-226.91 663,-218 660.66,-214.29 658.07,-210.44 655.48,-206.71"/>
<polygon fill="#dc2626" stroke="#dc2626" stroke-width="1.6" points="657.76,-205.09 650.86,-200.18 653.19,-208.33 657.76,-205.09"/>
<text text-anchor="middle" x="683" y="-220.8" font-family="Helvetica,sans-Serif" font-size="9.00" fill="#dc2626"> holds</text>
</g>
<!-- com.android.server.location.provider.MockableLocationProvider.mOwnerLock&#45;&gt;m::com.android.server.location.provider.MockableLocationProvider.setMockProviderAllowed:(Z)V -->
<g id="edge29" class="edge">
<title>com.android.server.location.provider.MockableLocationProvider.mOwnerLock&#45;&gt;m::com.android.server.location.provider.MockableLocationProvider.setMockProviderAllowed:(Z)V</title>
<path fill="none" stroke="#dc2626" stroke-width="1.6" d="M646.36,-245.89C639.41,-241.14 633.13,-235.24 629,-228 625.54,-221.93 625.51,-214.74 626.96,-207.91"/>
<polygon fill="#dc2626" stroke="#dc2626" stroke-width="1.6" points="629.67,-208.6 629.23,-200.14 624.3,-207.03 629.67,-208.6"/>
<text text-anchor="middle" x="643" y="-220.8" font-family="Helvetica,sans-Serif" font-size="9.00" fill="#dc2626"> holds</text>
</g>
<!-- m::com.android.server.location.provider.MockableLocationProvider.setMockProvider:(Lcom/android/server/location/provider/MockLocationProvider;)V -->
<g id="node5" class="node">
<title>m::com.android.server.location.provider.MockableLocationProvider.setMockProvider:(Lcom/android/server/location/provider/MockLocationProvider;)V</title>
<path fill="#eef2ff" stroke="#a5b4fc" d="M870.5,-627C870.5,-627 639.5,-627 639.5,-627 633.5,-627 627.5,-621 627.5,-615 627.5,-615 627.5,-603 627.5,-603 627.5,-597 633.5,-591 639.5,-591 639.5,-591 870.5,-591 870.5,-591 876.5,-591 882.5,-597 882.5,-603 882.5,-603 882.5,-615 882.5,-615 882.5,-621 876.5,-627 870.5,-627"/>
<text text-anchor="middle" x="755" y="-606.2" font-family="Helvetica,sans-Serif" font-size="11.00">MockableLocationProvider.setMockProvider</text>
</g>
<!-- m::com.android.server.location.provider.LocationProviderManager.setMockProvider:(Lcom/android/server/location/provider/MockLocationProvider;)V&#45;&gt;m::com.android.server.location.provider.MockableLocationProvider.setMockProvider:(Lcom/android/server/location/provider/MockLocationProvider;)V -->
<g id="edge2" class="edge">
<title>m::com.android.server.location.provider.LocationProviderManager.setMockProvider:(Lcom/android/server/location/provider/MockLocationProvider;)V&#45;&gt;m::com.android.server.location.provider.MockableLocationProvider.setMockProvider:(Lcom/android/server/location/provider/MockLocationProvider;)V</title>
<path fill="none" stroke="#64748b" d="M824.73,-663.81C812.41,-654.31 796.97,-642.39 783.75,-632.19"/>
<polygon fill="#64748b" stroke="#64748b" points="785.11,-629.7 777.07,-627.03 781.69,-634.13 785.11,-629.7"/>
</g>
<!-- m::com.android.server.location.provider.MockableLocationProvider.setProviderLocked:(Lcom/android/server/location/provider/AbstractLocationProvider;)V -->
<g id="node6" class="node">
<title>m::com.android.server.location.provider.MockableLocationProvider.setProviderLocked:(Lcom/android/server/location/provider/AbstractLocationProvider;)V</title>
<path fill="#eef2ff" stroke="#a5b4fc" d="M749.5,-554C749.5,-554 508.5,-554 508.5,-554 502.5,-554 496.5,-548 496.5,-542 496.5,-542 496.5,-530 496.5,-530 496.5,-524 502.5,-518 508.5,-518 508.5,-518 749.5,-518 749.5,-518 755.5,-518 761.5,-524 761.5,-530 761.5,-530 761.5,-542 761.5,-542 761.5,-548 755.5,-554 749.5,-554"/>
<text text-anchor="middle" x="629" y="-533.2" font-family="Helvetica,sans-Serif" font-size="11.00">MockableLocationProvider.setProviderLocked</text>
</g>
<!-- m::com.android.server.location.provider.MockableLocationProvider.setMockProvider:(Lcom/android/server/location/provider/MockLocationProvider;)V&#45;&gt;m::com.android.server.location.provider.MockableLocationProvider.setProviderLocked:(Lcom/android/server/location/provider/AbstractLocationProvider;)V -->
<g id="edge3" class="edge">
<title>m::com.android.server.location.provider.MockableLocationProvider.setMockProvider:(Lcom/android/server/location/provider/MockLocationProvider;)V&#45;&gt;m::com.android.server.location.provider.MockableLocationProvider.setProviderLocked:(Lcom/android/server/location/provider/AbstractLocationProvider;)V</title>
<path fill="none" stroke="#64748b" d="M724.82,-590.99C707.34,-581.14 685.18,-568.66 666.57,-558.17"/>
<polygon fill="#64748b" stroke="#64748b" points="667.71,-555.6 659.37,-554.11 664.97,-560.48 667.71,-555.6"/>
</g>
<!-- m::com.android.server.location.provider.AbstractLocationProvider.setState:(Ljava/util/function/UnaryOperator;)V -->
<g id="node7" class="node">
<title>m::com.android.server.location.provider.AbstractLocationProvider.setState:(Ljava/util/function/UnaryOperator;)V</title>
<path fill="#eef2ff" stroke="#a5b4fc" d="M529.5,-446C529.5,-446 348.5,-446 348.5,-446 342.5,-446 336.5,-440 336.5,-434 336.5,-434 336.5,-422 336.5,-422 336.5,-416 342.5,-410 348.5,-410 348.5,-410 529.5,-410 529.5,-410 535.5,-410 541.5,-416 541.5,-422 541.5,-422 541.5,-434 541.5,-434 541.5,-440 535.5,-446 529.5,-446"/>
<text text-anchor="middle" x="439" y="-425.2" font-family="Helvetica,sans-Serif" font-size="11.00">AbstractLocationProvider.setState</text>
</g>
<!-- m::com.android.server.location.provider.MockableLocationProvider.setProviderLocked:(Lcom/android/server/location/provider/AbstractLocationProvider;)V&#45;&gt;m::com.android.server.location.provider.AbstractLocationProvider.setState:(Ljava/util/function/UnaryOperator;)V -->
<g id="edge4" class="edge">
<title>m::com.android.server.location.provider.MockableLocationProvider.setProviderLocked:(Lcom/android/server/location/provider/AbstractLocationProvider;)V&#45;&gt;m::com.android.server.location.provider.AbstractLocationProvider.setState:(Ljava/util/function/UnaryOperator;)V</title>
<path fill="none" stroke="#64748b" d="M598.47,-517.97C565.47,-499.56 512.81,-470.18 477.11,-450.26"/>
<polygon fill="#64748b" stroke="#64748b" points="478.12,-447.62 469.77,-446.16 475.39,-452.51 478.12,-447.62"/>
</g>
<!-- m::com.android.server.location.provider.StationaryThrottlingLocationProvider.onStateChanged:(Lcom/android/server/location/provider/AbstractLocationProvider$State;Lcom/android/server/location/provider/AbstractLocationProvider$State;)V -->
<g id="node8" class="node">
<title>m::com.android.server.location.provider.StationaryThrottlingLocationProvider.onStateChanged:(Lcom/android/server/location/provider/AbstractLocationProvider$State;Lcom/android/server/location/provider/AbstractLocationProvider$State;)V</title>
<path fill="#eef2ff" stroke="#a5b4fc" d="M301.5,-364C301.5,-364 12.5,-364 12.5,-364 6.5,-364 0.5,-358 0.5,-352 0.5,-352 0.5,-340 0.5,-340 0.5,-334 6.5,-328 12.5,-328 12.5,-328 301.5,-328 301.5,-328 307.5,-328 313.5,-334 313.5,-340 313.5,-340 313.5,-352 313.5,-352 313.5,-358 307.5,-364 301.5,-364"/>
<text text-anchor="middle" x="157" y="-343.2" font-family="Helvetica,sans-Serif" font-size="11.00">StationaryThrottlingLocationProvider.onStateChanged</text>
</g>
<!-- m::com.android.server.location.provider.AbstractLocationProvider.setState:(Ljava/util/function/UnaryOperator;)V&#45;&gt;m::com.android.server.location.provider.StationaryThrottlingLocationProvider.onStateChanged:(Lcom/android/server/location/provider/AbstractLocationProvider$State;Lcom/android/server/location/provider/AbstractLocationProvider$State;)V -->
<g id="edge5" class="edge">
<title>m::com.android.server.location.provider.AbstractLocationProvider.setState:(Ljava/util/function/UnaryOperator;)V&#45;&gt;m::com.android.server.location.provider.StationaryThrottlingLocationProvider.onStateChanged:(Lcom/android/server/location/provider/AbstractLocationProvider$State;Lcom/android/server/location/provider/AbstractLocationProvider$State;)V</title>
<path fill="none" stroke="#64748b" d="M371.32,-409.94C324.36,-397.14 262.47,-379.61 217.21,-366.3"/>
<polygon fill="#64748b" stroke="#64748b" points="218,-363.62 209.53,-364.04 216.41,-368.99 218,-363.62"/>
</g>
<!-- m::com.android.server.location.provider.AbstractLocationProvider.setState:(Ljava/util/function/UnaryOperator;)V&#45;&gt;m::com.android.server.location.provider.StationaryThrottlingLocationProvider.onStateChanged:(Lcom/android/server/location/provider/AbstractLocationProvider$State;Lcom/android/server/location/provider/AbstractLocationProvider$State;)V -->
<g id="edge33" class="edge">
<title>m::com.android.server.location.provider.AbstractLocationProvider.setState:(Ljava/util/function/UnaryOperator;)V&#45;&gt;m::com.android.server.location.provider.StationaryThrottlingLocationProvider.onStateChanged:(Lcom/android/server/location/provider/AbstractLocationProvider$State;Lcom/android/server/location/provider/AbstractLocationProvider$State;)V</title>
<path fill="none" stroke="#64748b" d="M387.01,-409.94C343.82,-397.11 281.98,-379.54 233.22,-366.22"/>
<polygon fill="#64748b" stroke="#64748b" points="233.66,-363.44 225.21,-364.04 232.19,-368.84 233.66,-363.44"/>
</g>
<!-- m::com.android.server.location.provider.LocationProviderManager.onStateChanged:(Lcom/android/server/location/provider/AbstractLocationProvider$State;Lcom/android/server/location/provider/AbstractLocationProvider$State;)V -->
<g id="node15" class="node">
<title>m::com.android.server.location.provider.LocationProviderManager.onStateChanged:(Lcom/android/server/location/provider/AbstractLocationProvider$State;Lcom/android/server/location/provider/AbstractLocationProvider$State;)V</title>
<path fill="#eef2ff" stroke="#a5b4fc" d="M1104.5,-364C1104.5,-364 877.5,-364 877.5,-364 871.5,-364 865.5,-358 865.5,-352 865.5,-352 865.5,-340 865.5,-340 865.5,-334 871.5,-328 877.5,-328 877.5,-328 1104.5,-328 1104.5,-328 1110.5,-328 1116.5,-334 1116.5,-340 1116.5,-340 1116.5,-352 1116.5,-352 1116.5,-358 1110.5,-364 1104.5,-364"/>
<text text-anchor="middle" x="991" y="-343.2" font-family="Helvetica,sans-Serif" font-size="11.00">LocationProviderManager.onStateChanged</text>
</g>
<!-- m::com.android.server.location.provider.AbstractLocationProvider.setState:(Ljava/util/function/UnaryOperator;)V&#45;&gt;m::com.android.server.location.provider.LocationProviderManager.onStateChanged:(Lcom/android/server/location/provider/AbstractLocationProvider$State;Lcom/android/server/location/provider/AbstractLocationProvider$State;)V -->
<g id="edge15" class="edge">
<title>m::com.android.server.location.provider.AbstractLocationProvider.setState:(Ljava/util/function/UnaryOperator;)V&#45;&gt;m::com.android.server.location.provider.LocationProviderManager.onStateChanged:(Lcom/android/server/location/provider/AbstractLocationProvider$State;Lcom/android/server/location/provider/AbstractLocationProvider$State;)V</title>
<path fill="none" stroke="#64748b" d="M541.69,-411.05C630.93,-397.82 760.69,-379 857.88,-365.18"/>
<polygon fill="#64748b" stroke="#64748b" points="858.47,-367.92 866,-364.03 857.68,-362.38 858.47,-367.92"/>
</g>
<!-- m::com.android.server.location.provider.AbstractLocationProvider.setState:(Ljava/util/function/UnaryOperator;)V&#45;&gt;m::com.android.server.location.provider.LocationProviderManager.onStateChanged:(Lcom/android/server/location/provider/AbstractLocationProvider$State;Lcom/android/server/location/provider/AbstractLocationProvider$State;)V -->
<g id="edge26" class="edge">
<title>m::com.android.server.location.provider.AbstractLocationProvider.setState:(Ljava/util/function/UnaryOperator;)V&#45;&gt;m::com.android.server.location.provider.LocationProviderManager.onStateChanged:(Lcom/android/server/location/provider/AbstractLocationProvider$State;Lcom/android/server/location/provider/AbstractLocationProvider$State;)V</title>
<path fill="none" stroke="#64748b" d="M541.79,-413.2C635.9,-399.94 774.97,-379.82 873.45,-365.24"/>
<polygon fill="#64748b" stroke="#64748b" points="874.15,-367.97 881.65,-364.03 873.33,-362.43 874.15,-367.97"/>
</g>
<!-- m::com.android.server.location.provider.MockableLocationProvider$ListenerWrapper.onStateChanged:(Lcom/android/server/location/provider/AbstractLocationProvider$State;Lcom/android/server/location/provider/AbstractLocationProvider$State;)V -->
<g id="node17" class="node">
<title>m::com.android.server.location.provider.MockableLocationProvider$ListenerWrapper.onStateChanged:(Lcom/android/server/location/provider/AbstractLocationProvider$State;Lcom/android/server/location/provider/AbstractLocationProvider$State;)V</title>
<path fill="#eef2ff" stroke="#a5b4fc" d="M829,-364C829,-364 501,-364 501,-364 495,-364 489,-358 489,-352 489,-352 489,-340 489,-340 489,-334 495,-328 501,-328 501,-328 829,-328 829,-328 835,-328 841,-334 841,-340 841,-340 841,-352 841,-352 841,-358 835,-364 829,-364"/>
<text text-anchor="middle" x="665" y="-343.2" font-family="Helvetica,sans-Serif" font-size="11.00">MockableLocationProvider$ListenerWrapper.onStateChanged</text>
</g>
<!-- m::com.android.server.location.provider.AbstractLocationProvider.setState:(Ljava/util/function/UnaryOperator;)V&#45;&gt;m::com.android.server.location.provider.MockableLocationProvider$ListenerWrapper.onStateChanged:(Lcom/android/server/location/provider/AbstractLocationProvider$State;Lcom/android/server/location/provider/AbstractLocationProvider$State;)V -->
<g id="edge20" class="edge">
<title>m::com.android.server.location.provider.AbstractLocationProvider.setState:(Ljava/util/function/UnaryOperator;)V&#45;&gt;m::com.android.server.location.provider.MockableLocationProvider$ListenerWrapper.onStateChanged:(Lcom/android/server/location/provider/AbstractLocationProvider$State;Lcom/android/server/location/provider/AbstractLocationProvider$State;)V</title>
<path fill="none" stroke="#64748b" d="M487.21,-409.94C522.91,-397.3 571.65,-380.05 609.06,-366.8"/>
<polygon fill="#64748b" stroke="#64748b" points="610.26,-369.35 616.87,-364.04 608.39,-364.07 610.26,-369.35"/>
</g>
<!-- m::com.android.server.location.provider.DelegateLocationProvider.onStateChanged:(Lcom/android/server/location/provider/AbstractLocationProvider$State;Lcom/android/server/location/provider/AbstractLocationProvider$State;)V -->
<g id="node9" class="node">
<title>m::com.android.server.location.provider.DelegateLocationProvider.onStateChanged:(Lcom/android/server/location/provider/AbstractLocationProvider$State;Lcom/android/server/location/provider/AbstractLocationProvider$State;)V</title>
<path fill="#eef2ff" stroke="#a5b4fc" d="M271,-282C271,-282 43,-282 43,-282 37,-282 31,-276 31,-270 31,-270 31,-258 31,-258 31,-252 37,-246 43,-246 43,-246 271,-246 271,-246 277,-246 283,-252 283,-258 283,-258 283,-270 283,-270 283,-276 277,-282 271,-282"/>
<text text-anchor="middle" x="157" y="-261.2" font-family="Helvetica,sans-Serif" font-size="11.00">DelegateLocationProvider.onStateChanged</text>
</g>
<!-- m::com.android.server.location.provider.StationaryThrottlingLocationProvider.onStateChanged:(Lcom/android/server/location/provider/AbstractLocationProvider$State;Lcom/android/server/location/provider/AbstractLocationProvider$State;)V&#45;&gt;m::com.android.server.location.provider.DelegateLocationProvider.onStateChanged:(Lcom/android/server/location/provider/AbstractLocationProvider$State;Lcom/android/server/location/provider/AbstractLocationProvider$State;)V -->
<g id="edge6" class="edge">
<title>m::com.android.server.location.provider.StationaryThrottlingLocationProvider.onStateChanged:(Lcom/android/server/location/provider/AbstractLocationProvider$State;Lcom/android/server/location/provider/AbstractLocationProvider$State;)V&#45;&gt;m::com.android.server.location.provider.DelegateLocationProvider.onStateChanged:(Lcom/android/server/location/provider/AbstractLocationProvider$State;Lcom/android/server/location/provider/AbstractLocationProvider$State;)V</title>
<path fill="none" stroke="#64748b" d="M149.43,-327.64C147.87,-316.66 147.59,-302.29 148.58,-290.09"/>
<polygon fill="#64748b" stroke="#64748b" points="151.37,-290.31 149.47,-282.05 145.81,-289.69 151.37,-290.31"/>
</g>
<!-- m::com.android.server.location.provider.StationaryThrottlingLocationProvider.onStateChanged:(Lcom/android/server/location/provider/AbstractLocationProvider$State;Lcom/android/server/location/provider/AbstractLocationProvider$State;)V&#45;&gt;m::com.android.server.location.provider.DelegateLocationProvider.onStateChanged:(Lcom/android/server/location/provider/AbstractLocationProvider$State;Lcom/android/server/location/provider/AbstractLocationProvider$State;)V -->
<g id="edge34" class="edge">
<title>m::com.android.server.location.provider.StationaryThrottlingLocationProvider.onStateChanged:(Lcom/android/server/location/provider/AbstractLocationProvider$State;Lcom/android/server/location/provider/AbstractLocationProvider$State;)V&#45;&gt;m::com.android.server.location.provider.DelegateLocationProvider.onStateChanged:(Lcom/android/server/location/provider/AbstractLocationProvider$State;Lcom/android/server/location/provider/AbstractLocationProvider$State;)V</title>
<path fill="none" stroke="#64748b" d="M165.2,-327.64C166.89,-316.66 167.2,-302.29 166.12,-290.09"/>
<polygon fill="#64748b" stroke="#64748b" points="168.89,-289.66 165.15,-282.05 163.33,-290.33 168.89,-289.66"/>
</g>
<!-- m::com.android.server.location.provider.DelegateLocationProvider.waitForInitialization:()V -->
<g id="node10" class="node">
<title>m::com.android.server.location.provider.DelegateLocationProvider.waitForInitialization:()V</title>
<path fill="#eef2ff" stroke="#a5b4fc" d="M279.5,-200C279.5,-200 34.5,-200 34.5,-200 28.5,-200 22.5,-194 22.5,-188 22.5,-188 22.5,-176 22.5,-176 22.5,-170 28.5,-164 34.5,-164 34.5,-164 279.5,-164 279.5,-164 285.5,-164 291.5,-170 291.5,-176 291.5,-176 291.5,-188 291.5,-188 291.5,-194 285.5,-200 279.5,-200"/>
<text text-anchor="middle" x="157" y="-179.2" font-family="Helvetica,sans-Serif" font-size="11.00">DelegateLocationProvider.waitForInitialization</text>
</g>
<!-- m::com.android.server.location.provider.DelegateLocationProvider.onStateChanged:(Lcom/android/server/location/provider/AbstractLocationProvider$State;Lcom/android/server/location/provider/AbstractLocationProvider$State;)V&#45;&gt;m::com.android.server.location.provider.DelegateLocationProvider.waitForInitialization:()V -->
<g id="edge7" class="edge">
<title>m::com.android.server.location.provider.DelegateLocationProvider.onStateChanged:(Lcom/android/server/location/provider/AbstractLocationProvider$State;Lcom/android/server/location/provider/AbstractLocationProvider$State;)V&#45;&gt;m::com.android.server.location.provider.DelegateLocationProvider.waitForInitialization:()V</title>
<path fill="none" stroke="#64748b" d="M149.43,-245.64C147.87,-234.66 147.59,-220.29 148.58,-208.09"/>
<polygon fill="#64748b" stroke="#64748b" points="151.37,-208.31 149.47,-200.05 145.81,-207.69 151.37,-208.31"/>
</g>
<!-- m::com.android.server.location.provider.DelegateLocationProvider.onStateChanged:(Lcom/android/server/location/provider/AbstractLocationProvider$State;Lcom/android/server/location/provider/AbstractLocationProvider$State;)V&#45;&gt;m::com.android.server.location.provider.DelegateLocationProvider.waitForInitialization:()V -->
<g id="edge35" class="edge">
<title>m::com.android.server.location.provider.DelegateLocationProvider.onStateChanged:(Lcom/android/server/location/provider/AbstractLocationProvider$State;Lcom/android/server/location/provider/AbstractLocationProvider$State;)V&#45;&gt;m::com.android.server.location.provider.DelegateLocationProvider.waitForInitialization:()V</title>
<path fill="none" stroke="#64748b" d="M165.2,-245.64C166.89,-234.66 167.2,-220.29 166.12,-208.09"/>
<polygon fill="#64748b" stroke="#64748b" points="168.89,-207.66 165.15,-200.05 163.33,-208.33 168.89,-207.66"/>
</g>
<!-- m::com.android.server.location.provider.DelegateLocationProvider.waitForInitialization:()V&#45;&gt;com.android.server.location.provider.DelegateLocationProvider.mInitializationLock -->
<g id="edge8" class="edge">
<title>m::com.android.server.location.provider.DelegateLocationProvider.waitForInitialization:()V&#45;&gt;com.android.server.location.provider.DelegateLocationProvider.mInitializationLock</title>
<path fill="none" stroke="#dc2626" stroke-width="1.6" d="M130.33,-163.76C121.81,-155.96 115.6,-146.22 120,-136 121.79,-131.84 124.35,-127.94 127.29,-124.37"/>
<polygon fill="#dc2626" stroke="#dc2626" stroke-width="1.6" points="129.54,-126.06 132.93,-118.3 125.43,-122.25 129.54,-126.06"/>
<text text-anchor="middle" x="141" y="-138.8" font-family="Helvetica,sans-Serif" font-size="9.00" fill="#dc2626"> acquires</text>
</g>
<!-- m::com.android.server.location.provider.DelegateLocationProvider.waitForInitialization:()V&#45;&gt;com.android.server.location.provider.DelegateLocationProvider.mInitializationLock -->
<g id="edge36" class="edge">
<title>m::com.android.server.location.provider.DelegateLocationProvider.waitForInitialization:()V&#45;&gt;com.android.server.location.provider.DelegateLocationProvider.mInitializationLock</title>
<path fill="none" stroke="#dc2626" stroke-width="1.6" d="M161.17,-163.66C162.33,-158.06 163.43,-151.8 164,-146 164.65,-139.47 164.14,-132.45 163.16,-125.94"/>
<polygon fill="#dc2626" stroke="#dc2626" stroke-width="1.6" points="165.91,-125.4 161.71,-118.04 160.4,-126.41 165.91,-125.4"/>
<text text-anchor="middle" x="186" y="-138.8" font-family="Helvetica,sans-Serif" font-size="9.00" fill="#dc2626"> acquires</text>
</g>
<!-- m::com.android.server.location.provider.LocationProviderManager.getServiceState:()Ljava/lang/String; -->
<g id="node12" class="node">
<title>m::com.android.server.location.provider.LocationProviderManager.getServiceState:()Ljava/lang/String;</title>
<path fill="#eef2ff" stroke="#a5b4fc" d="M1165,-627C1165,-627 941,-627 941,-627 935,-627 929,-621 929,-615 929,-615 929,-603 929,-603 929,-597 935,-591 941,-591 941,-591 1165,-591 1165,-591 1171,-591 1177,-597 1177,-603 1177,-603 1177,-615 1177,-615 1177,-621 1171,-627 1165,-627"/>
<text text-anchor="middle" x="1053" y="-606.2" font-family="Helvetica,sans-Serif" font-size="11.00">LocationProviderManager.getServiceState</text>
</g>
<!-- m::com.android.server.location.listeners.ListenerMultiplexer.dump:(Ljava/io/FileDescriptor;Ljava/io/PrintWriter;[Ljava/lang/String;)V&#45;&gt;m::com.android.server.location.provider.LocationProviderManager.getServiceState:()Ljava/lang/String; -->
<g id="edge10" class="edge">
<title>m::com.android.server.location.listeners.ListenerMultiplexer.dump:(Ljava/io/FileDescriptor;Ljava/io/PrintWriter;[Ljava/lang/String;)V&#45;&gt;m::com.android.server.location.provider.LocationProviderManager.getServiceState:()Ljava/lang/String;</title>
<path fill="none" stroke="#64748b" d="M1078.77,-663.81C1074.55,-655 1069.34,-644.13 1064.71,-634.46"/>
<polygon fill="#64748b" stroke="#64748b" points="1067.14,-633.03 1061.15,-627.03 1062.08,-635.45 1067.14,-633.03"/>
</g>
<!-- m::com.android.server.location.provider.MockableLocationProvider.getCurrentRequest:()Landroid/location/provider/ProviderRequest; -->
<g id="node13" class="node">
<title>m::com.android.server.location.provider.MockableLocationProvider.getCurrentRequest:()Landroid/location/provider/ProviderRequest;</title>
<path fill="#eef2ff" stroke="#a5b4fc" d="M1180,-500C1180,-500 936,-500 936,-500 930,-500 924,-494 924,-488 924,-488 924,-476 924,-476 924,-470 930,-464 936,-464 936,-464 1180,-464 1180,-464 1186,-464 1192,-470 1192,-476 1192,-476 1192,-488 1192,-488 1192,-494 1186,-500 1180,-500"/>
<text text-anchor="middle" x="1058" y="-479.2" font-family="Helvetica,sans-Serif" font-size="11.00">MockableLocationProvider.getCurrentRequest</text>
</g>
<!-- m::com.android.server.location.provider.LocationProviderManager.getServiceState:()Ljava/lang/String;&#45;&gt;m::com.android.server.location.provider.MockableLocationProvider.getCurrentRequest:()Landroid/location/provider/ProviderRequest; -->
<g id="edge11" class="edge">
<title>m::com.android.server.location.provider.LocationProviderManager.getServiceState:()Ljava/lang/String;&#45;&gt;m::com.android.server.location.provider.MockableLocationProvider.getCurrentRequest:()Landroid/location/provider/ProviderRequest;</title>
<path fill="none" stroke="#64748b" d="M1053.68,-590.88C1054.54,-569.59 1056,-533.05 1056.98,-508.47"/>
<polygon fill="#64748b" stroke="#64748b" points="1059.79,-508.42 1057.31,-500.31 1054.19,-508.19 1059.79,-508.42"/>
</g>
<!-- m::com.android.server.location.provider.MockableLocationProvider.getCurrentRequest:()Landroid/location/provider/ProviderRequest;&#45;&gt;com.android.server.location.provider.MockableLocationProvider.mOwnerLock -->
<g id="edge12" class="edge">
<title>m::com.android.server.location.provider.MockableLocationProvider.getCurrentRequest:()Landroid/location/provider/ProviderRequest;&#45;&gt;com.android.server.location.provider.MockableLocationProvider.mOwnerLock</title>
<path fill="none" stroke="#dc2626" stroke-width="1.6" d="M1077.24,-463.88C1108.99,-433.62 1165.36,-369.92 1129,-328 1091.33,-284.57 948.66,-270.33 835.66,-266.03"/>
<polygon fill="#dc2626" stroke="#dc2626" stroke-width="1.6" points="835.68,-263.23 827.58,-265.74 835.47,-268.83 835.68,-263.23"/>
<text text-anchor="middle" x="1157" y="-384.8" font-family="Helvetica,sans-Serif" font-size="9.00" fill="#dc2626"> acquires</text>
</g>
<!-- m::com.android.server.location.provider.DelegateLocationProvider.initializeDelegate:()V&#45;&gt;m::com.android.server.location.provider.AbstractLocationProvider.setState:(Ljava/util/function/UnaryOperator;)V -->
<g id="edge14" class="edge">
<title>m::com.android.server.location.provider.DelegateLocationProvider.initializeDelegate:()V&#45;&gt;m::com.android.server.location.provider.AbstractLocationProvider.setState:(Ljava/util/function/UnaryOperator;)V</title>
<path fill="none" stroke="#64748b" d="M296.79,-36.09C323.9,-48.31 352,-68.18 352,-99 352,-347 352,-347 352,-347 352,-371.46 370.89,-391.52 391.23,-405.43"/>
<polygon fill="#64748b" stroke="#64748b" points="389.92,-407.92 398.15,-409.91 392.96,-403.22 389.92,-407.92"/>
</g>
<!-- m::com.android.server.location.provider.DelegateLocationProvider.initializeDelegate:()V&#45;&gt;m::com.android.server.location.provider.AbstractLocationProvider.setState:(Ljava/util/function/UnaryOperator;)V -->
<g id="edge19" class="edge">
<title>m::com.android.server.location.provider.DelegateLocationProvider.initializeDelegate:()V&#45;&gt;m::com.android.server.location.provider.AbstractLocationProvider.setState:(Ljava/util/function/UnaryOperator;)V</title>
<path fill="none" stroke="#64748b" d="M318.81,-36.09C348.9,-48.31 377,-68.18 377,-99 377,-347 377,-347 377,-347 377,-371.03 395.24,-390.82 412.17,-404.7"/>
<polygon fill="#64748b" stroke="#64748b" points="410.78,-407.17 418.8,-409.91 414.24,-402.77 410.78,-407.17"/>
</g>
<!-- m::com.android.server.location.listeners.ListenerMultiplexer.updateRegistrations:(Ljava/util/function/Predicate;)V -->
<g id="node16" class="node">
<title>m::com.android.server.location.listeners.ListenerMultiplexer.updateRegistrations:(Ljava/util/function/Predicate;)V</title>
<path fill="#eef2ff" stroke="#a5b4fc" d="M1265,-282C1265,-282 1053,-282 1053,-282 1047,-282 1041,-276 1041,-270 1041,-270 1041,-258 1041,-258 1041,-252 1047,-246 1053,-246 1053,-246 1265,-246 1265,-246 1271,-246 1277,-252 1277,-258 1277,-258 1277,-270 1277,-270 1277,-276 1271,-282 1265,-282"/>
<text text-anchor="middle" x="1159" y="-261.2" font-family="Helvetica,sans-Serif" font-size="11.00">ListenerMultiplexer.updateRegistrations</text>
</g>
<!-- m::com.android.server.location.provider.LocationProviderManager.onStateChanged:(Lcom/android/server/location/provider/AbstractLocationProvider$State;Lcom/android/server/location/provider/AbstractLocationProvider$State;)V&#45;&gt;m::com.android.server.location.listeners.ListenerMultiplexer.updateRegistrations:(Ljava/util/function/Predicate;)V -->
<g id="edge16" class="edge">
<title>m::com.android.server.location.provider.LocationProviderManager.onStateChanged:(Lcom/android/server/location/provider/AbstractLocationProvider$State;Lcom/android/server/location/provider/AbstractLocationProvider$State;)V&#45;&gt;m::com.android.server.location.listeners.ListenerMultiplexer.updateRegistrations:(Ljava/util/function/Predicate;)V</title>
<path fill="none" stroke="#64748b" d="M1019.5,-327.84C1043.73,-315.45 1078.84,-298.66 1107.86,-285.55"/>
<polygon fill="#64748b" stroke="#64748b" points="1109.33,-287.96 1115.48,-282.13 1107.04,-282.85 1109.33,-287.96"/>
</g>
<!-- m::com.android.server.location.provider.LocationProviderManager.onStateChanged:(Lcom/android/server/location/provider/AbstractLocationProvider$State;Lcom/android/server/location/provider/AbstractLocationProvider$State;)V&#45;&gt;m::com.android.server.location.listeners.ListenerMultiplexer.updateRegistrations:(Ljava/util/function/Predicate;)V -->
<g id="edge27" class="edge">
<title>m::com.android.server.location.provider.LocationProviderManager.onStateChanged:(Lcom/android/server/location/provider/AbstractLocationProvider$State;Lcom/android/server/location/provider/AbstractLocationProvider$State;)V&#45;&gt;m::com.android.server.location.listeners.ListenerMultiplexer.updateRegistrations:(Ljava/util/function/Predicate;)V</title>
<path fill="none" stroke="#64748b" d="M1035.21,-327.84C1062.93,-315.55 1097.97,-298.95 1123.82,-285.89"/>
<polygon fill="#64748b" stroke="#64748b" points="1125.33,-288.26 1131.19,-282.13 1122.79,-283.27 1125.33,-288.26"/>
</g>
<!-- m::com.android.server.location.listeners.ListenerMultiplexer.updateRegistrations:(Ljava/util/function/Predicate;)V&#45;&gt;com.android.server.location.listeners.ListenerMultiplexer.mMultiplexerLock -->
<g id="edge17" class="edge">
<title>m::com.android.server.location.listeners.ListenerMultiplexer.updateRegistrations:(Ljava/util/function/Predicate;)V&#45;&gt;com.android.server.location.listeners.ListenerMultiplexer.mMultiplexerLock</title>
<path fill="none" stroke="#dc2626" stroke-width="1.6" d="M1248.51,-282.03C1279.67,-293.58 1307,-312.87 1307,-345 1307,-683 1307,-683 1307,-683 1307,-710.72 1283.86,-729.85 1258.81,-742.42"/>
<polygon fill="#dc2626" stroke="#dc2626" stroke-width="1.6" points="1257.38,-740 1251.36,-745.96 1259.78,-745.06 1257.38,-740"/>
<text text-anchor="middle" x="1328" y="-533.8" font-family="Helvetica,sans-Serif" font-size="9.00" fill="#dc2626"> acquires</text>
</g>
<!-- m::com.android.server.location.listeners.ListenerMultiplexer.updateRegistrations:(Ljava/util/function/Predicate;)V&#45;&gt;com.android.server.location.listeners.ListenerMultiplexer.mMultiplexerLock -->
<g id="edge28" class="edge">
<title>m::com.android.server.location.listeners.ListenerMultiplexer.updateRegistrations:(Ljava/util/function/Predicate;)V&#45;&gt;com.android.server.location.listeners.ListenerMultiplexer.mMultiplexerLock</title>
<path fill="none" stroke="#dc2626" stroke-width="1.6" d="M1180.17,-282.01C1196.03,-296.78 1215,-319.74 1215,-345 1215,-683 1215,-683 1215,-683 1215,-701.79 1210.21,-722.47 1205.58,-738.1"/>
<polygon fill="#dc2626" stroke="#dc2626" stroke-width="1.6" points="1202.89,-737.3 1203.19,-745.77 1208.24,-738.96 1202.89,-737.3"/>
<text text-anchor="middle" x="1236" y="-533.8" font-family="Helvetica,sans-Serif" font-size="9.00" fill="#dc2626"> acquires</text>
</g>
<!-- m::com.android.server.location.provider.MockableLocationProvider$ListenerWrapper.onStateChanged:(Lcom/android/server/location/provider/AbstractLocationProvider$State;Lcom/android/server/location/provider/AbstractLocationProvider$State;)V&#45;&gt;com.android.server.location.provider.MockableLocationProvider.mOwnerLock -->
<g id="edge21" class="edge">
<title>m::com.android.server.location.provider.MockableLocationProvider$ListenerWrapper.onStateChanged:(Lcom/android/server/location/provider/AbstractLocationProvider$State;Lcom/android/server/location/provider/AbstractLocationProvider$State;)V&#45;&gt;com.android.server.location.provider.MockableLocationProvider.mOwnerLock</title>
<path fill="none" stroke="#dc2626" stroke-width="1.6" d="M669.99,-327.64C673.15,-316.66 677.28,-302.29 680.79,-290.09"/>
<polygon fill="#dc2626" stroke="#dc2626" stroke-width="1.6" points="683.58,-290.51 683.1,-282.05 678.2,-288.96 683.58,-290.51"/>
<text text-anchor="middle" x="699" y="-302.8" font-family="Helvetica,sans-Serif" font-size="9.00" fill="#dc2626"> acquires</text>
</g>
<!-- m::com.android.server.location.provider.MockLocationProvider.setProviderAllowed:(Z)V -->
<g id="node19" class="node">
<title>m::com.android.server.location.provider.MockLocationProvider.setProviderAllowed:(Z)V</title>
<path fill="#eef2ff" stroke="#a5b4fc" d="M736,-118C736,-118 514,-118 514,-118 508,-118 502,-112 502,-106 502,-106 502,-94 502,-94 502,-88 508,-82 514,-82 514,-82 736,-82 736,-82 742,-82 748,-88 748,-94 748,-94 748,-106 748,-106 748,-112 742,-118 736,-118"/>
<text text-anchor="middle" x="625" y="-97.2" font-family="Helvetica,sans-Serif" font-size="11.00">MockLocationProvider.setProviderAllowed</text>
</g>
<!-- m::com.android.server.location.provider.MockableLocationProvider.setMockProviderAllowed:(Z)V&#45;&gt;m::com.android.server.location.provider.MockLocationProvider.setProviderAllowed:(Z)V -->
<g id="edge23" class="edge">
<title>m::com.android.server.location.provider.MockableLocationProvider.setMockProviderAllowed:(Z)V&#45;&gt;m::com.android.server.location.provider.MockLocationProvider.setProviderAllowed:(Z)V</title>
<path fill="none" stroke="#64748b" d="M627.61,-163.64C624.26,-152.66 621.65,-138.29 620.66,-126.09"/>
<polygon fill="#64748b" stroke="#64748b" points="623.45,-125.9 620.24,-118.05 617.86,-126.18 623.45,-125.9"/>
</g>
<!-- m::com.android.server.location.provider.MockableLocationProvider.setMockProviderAllowed:(Z)V&#45;&gt;m::com.android.server.location.provider.MockLocationProvider.setProviderAllowed:(Z)V -->
<g id="edge30" class="edge">
<title>m::com.android.server.location.provider.MockableLocationProvider.setMockProviderAllowed:(Z)V&#45;&gt;m::com.android.server.location.provider.MockLocationProvider.setProviderAllowed:(Z)V</title>
<path fill="none" stroke="#64748b" d="M643.38,-163.64C643.29,-152.66 641.26,-138.29 638.2,-126.09"/>
<polygon fill="#64748b" stroke="#64748b" points="640.8,-124.99 635.92,-118.05 635.41,-126.51 640.8,-124.99"/>
</g>
<!-- m::com.android.server.location.provider.AbstractLocationProvider.setAllowed:(Z)V -->
<g id="node20" class="node">
<title>m::com.android.server.location.provider.AbstractLocationProvider.setAllowed:(Z)V</title>
<path fill="#eef2ff" stroke="#a5b4fc" d="M612,-36C612,-36 418,-36 418,-36 412,-36 406,-30 406,-24 406,-24 406,-12 406,-12 406,-6 412,0 418,0 418,0 612,0 612,0 618,0 624,-6 624,-12 624,-12 624,-24 624,-24 624,-30 618,-36 612,-36"/>
<text text-anchor="middle" x="515" y="-15.2" font-family="Helvetica,sans-Serif" font-size="11.00">AbstractLocationProvider.setAllowed</text>
</g>
<!-- m::com.android.server.location.provider.MockLocationProvider.setProviderAllowed:(Z)V&#45;&gt;m::com.android.server.location.provider.AbstractLocationProvider.setAllowed:(Z)V -->
<g id="edge24" class="edge">
<title>m::com.android.server.location.provider.MockLocationProvider.setProviderAllowed:(Z)V&#45;&gt;m::com.android.server.location.provider.AbstractLocationProvider.setAllowed:(Z)V</title>
<path fill="none" stroke="#64748b" d="M593.86,-81.84C575.92,-70.03 553.97,-54.22 537.65,-41.42"/>
<polygon fill="#64748b" stroke="#64748b" points="539.02,-38.93 531.02,-36.13 535.53,-43.31 539.02,-38.93"/>
</g>
<!-- m::com.android.server.location.provider.MockLocationProvider.setProviderAllowed:(Z)V&#45;&gt;m::com.android.server.location.provider.AbstractLocationProvider.setAllowed:(Z)V -->
<g id="edge31" class="edge">
<title>m::com.android.server.location.provider.MockLocationProvider.setProviderAllowed:(Z)V&#45;&gt;m::com.android.server.location.provider.AbstractLocationProvider.setAllowed:(Z)V</title>
<path fill="none" stroke="#64748b" d="M609.33,-81.64C594.64,-69.61 572.68,-53.5 553.51,-40.63"/>
<polygon fill="#64748b" stroke="#64748b" points="554.81,-38.13 546.6,-36.05 551.72,-42.8 554.81,-38.13"/>
</g>
<!-- m::com.android.server.location.provider.AbstractLocationProvider.setAllowed:(Z)V&#45;&gt;m::com.android.server.location.provider.AbstractLocationProvider.setState:(Ljava/util/function/UnaryOperator;)V -->
<g id="edge25" class="edge">
<title>m::com.android.server.location.provider.AbstractLocationProvider.setAllowed:(Z)V&#45;&gt;m::com.android.server.location.provider.AbstractLocationProvider.setState:(Ljava/util/function/UnaryOperator;)V</title>
<path fill="none" stroke="#64748b" d="M473.26,-36.28C450.38,-50.16 427,-71.8 427,-99 427,-347 427,-347 427,-347 427,-365.28 427,-385.91 428.63,-401.64"/>
<polygon fill="#64748b" stroke="#64748b" points="425.89,-402.27 429.72,-409.83 431.44,-401.54 425.89,-402.27"/>
</g>
<!-- m::com.android.server.location.provider.AbstractLocationProvider.setAllowed:(Z)V&#45;&gt;m::com.android.server.location.provider.AbstractLocationProvider.setState:(Ljava/util/function/UnaryOperator;)V -->
<g id="edge32" class="edge">
<title>m::com.android.server.location.provider.AbstractLocationProvider.setAllowed:(Z)V&#45;&gt;m::com.android.server.location.provider.AbstractLocationProvider.setState:(Ljava/util/function/UnaryOperator;)V</title>
<path fill="none" stroke="#64748b" d="M493.99,-36.28C475.38,-50.16 452,-71.8 452,-99 452,-347 452,-347 452,-347 452,-365.28 452,-385.91 450.23,-401.64"/>
<polygon fill="#64748b" stroke="#64748b" points="447.42,-401.52 449.06,-409.83 452.97,-402.31 447.42,-401.52"/>
</g>
</g>
</svg>
