<?xml version="1.0" encoding="UTF-8" standalone="no"?>
<!DOCTYPE svg PUBLIC "-//W3C//DTD SVG 1.1//EN"
 "http://www.w3.org/Graphics/SVG/1.1/DTD/svg11.dtd">
<!-- Generated by graphviz version 2.43.0 (0)
 -->
<!-- Title: cycle Pages: 1 -->
<svg width="645pt" height="509pt"
 viewBox="0.00 0.00 645.00 509.00" xmlns="http://www.w3.org/2000/svg" xmlns:xlink="http://www.w3.org/1999/xlink">
<g id="graph0" class="graph" transform="scale(1 1) rotate(0) translate(4 505)">
<title>cycle</title>
<polygon fill="white" stroke="transparent" points="-4,4 -4,-505 641,-505 641,4 -4,4"/>
<!-- com.android.server.pm.permission.OneTimePermissionUserManager$PackageInactivityListener.mInnerLock -->
<g id="node1" class="node">
<title>com.android.server.pm.permission.OneTimePermissionUserManager$PackageInactivityListener.mInnerLock</title>
<path fill="#fee2e2" stroke="#dc2626" stroke-width="2" d="M625,-501C625,-501 156,-501 156,-501 150,-501 144,-495 144,-489 144,-489 144,-477 144,-477 144,-471 150,-465 156,-465 156,-465 625,-465 625,-465 631,-465 637,-471 637,-477 637,-477 637,-489 637,-489 637,-495 631,-501 625,-501"/>
<text text-anchor="middle" x="390.5" y="-479.6" font-family="Helvetica,sans-Serif" font-size="13.00">OneTimePermissionUserManager$PackageInactivityListener.mInnerLock</text>
</g>
<!-- m::com.android.server.pm.permission.OneTimePermissionUserManager$PackageInactivityListener.lambda$updateUidState$0:()V -->
<g id="node3" class="node">
<title>m::com.android.server.pm.permission.OneTimePermissionUserManager$PackageInactivityListener.lambda$updateUidState$0:()V</title>
<path fill="#eef2ff" stroke="#a5b4fc" d="M483,-419C483,-419 12,-419 12,-419 6,-419 0,-413 0,-407 0,-407 0,-395 0,-395 0,-389 6,-383 12,-383 12,-383 483,-383 483,-383 489,-383 495,-389 495,-395 495,-395 495,-407 495,-407 495,-413 489,-419 483,-419"/>
<text text-anchor="middle" x="247.5" y="-398.2" font-family="Helvetica,sans-Serif" font-size="11.00">OneTimePermissionUserManager$PackageInactivityListener.lambda$updateUidState$0</text>
</g>
<!-- com.android.server.pm.permission.OneTimePermissionUserManager$PackageInactivityListener.mInnerLock&#45;&gt;m::com.android.server.pm.permission.OneTimePermissionUserManager$PackageInactivityListener.lambda$updateUidState$0:()V -->
<g id="edge1" class="edge">
<title>com.android.server.pm.permission.OneTimePermissionUserManager$PackageInactivityListener.mInnerLock&#45;&gt;m::com.android.server.pm.permission.OneTimePermissionUserManager$PackageInactivityListener.lambda$updateUidState$0:()V</title>
<path fill="none" stroke="#dc2626" stroke-width="1.6" d="M359.82,-464.84C337.96,-452.61 308.43,-436.09 285.14,-423.06"/>
<polygon fill="#dc2626" stroke="#dc2626" stroke-width="1.6" points="286.48,-420.6 278.13,-419.13 283.74,-425.48 286.48,-420.6"/>
<text text-anchor="middle" x="345.5" y="-439.8" font-family="Helvetica,sans-Serif" font-size="9.00" fill="#dc2626"> held in</text>
</g>
<!-- com.android.server.pm.permission.OneTimePermissionUserManager.mLock -->
<g id="node2" class="node">
<title>com.android.server.pm.permission.OneTimePermissionUserManager.mLock</title>
<path fill="#fee2e2" stroke="#dc2626" stroke-width="2" d="M383,-264C383,-264 126,-264 126,-264 120,-264 114,-258 114,-252 114,-252 114,-240 114,-240 114,-234 120,-228 126,-228 126,-228 383,-228 383,-228 389,-228 395,-234 395,-240 395,-240 395,-252 395,-252 395,-258 389,-264 383,-264"/>
<text text-anchor="middle" x="254.5" y="-242.6" font-family="Helvetica,sans-Serif" font-size="13.00">OneTimePermissionUserManager.mLock</text>
</g>
<!-- m::com.android.server.pm.permission.OneTimePermissionUserManager$1.onReceive:(Landroid/content/Context;Landroid/content/Intent;)V -->
<g id="node5" class="node">
<title>m::com.android.server.pm.permission.OneTimePermissionUserManager$1.onReceive:(Landroid/content/Context;Landroid/content/Intent;)V</title>
<path fill="#eef2ff" stroke="#a5b4fc" d="M399,-182C399,-182 150,-182 150,-182 144,-182 138,-176 138,-170 138,-170 138,-158 138,-158 138,-152 144,-146 150,-146 150,-146 399,-146 399,-146 405,-146 411,-152 411,-158 411,-158 411,-170 411,-170 411,-176 405,-182 399,-182"/>
<text text-anchor="middle" x="274.5" y="-161.2" font-family="Helvetica,sans-Serif" font-size="11.00">OneTimePermissionUserManager$1.onReceive</text>
</g>
<!-- com.android.server.pm.permission.OneTimePermissionUserManager.mLock&#45;&gt;m::com.android.server.pm.permission.OneTimePermissionUserManager$1.onReceive:(Landroid/content/Context;Landroid/content/Intent;)V -->
<g id="edge4" class="edge">
<title>com.android.server.pm.permission.OneTimePermissionUserManager.mLock&#45;&gt;m::com.android.server.pm.permission.OneTimePermissionUserManager$1.onReceive:(Landroid/content/Context;Landroid/content/Intent;)V</title>
<path fill="none" stroke="#dc2626" stroke-width="1.6" d="M258.84,-227.64C261.58,-216.66 265.18,-202.29 268.23,-190.09"/>
<polygon fill="#dc2626" stroke="#dc2626" stroke-width="1.6" points="271.01,-190.49 270.24,-182.05 265.58,-189.13 271.01,-190.49"/>
<text text-anchor="middle" x="283.5" y="-202.8" font-family="Helvetica,sans-Serif" font-size="9.00" fill="#dc2626"> held in</text>
</g>
<!-- m::com.android.server.pm.permission.OneTimePermissionUserManager$PackageInactivityListener.onPackageInactiveLocked:()V -->
<g id="node4" class="node">
<title>m::com.android.server.pm.permission.OneTimePermissionUserManager$PackageInactivityListener.onPackageInactiveLocked:()V</title>
<path fill="#eef2ff" stroke="#a5b4fc" d="M482,-346C482,-346 17,-346 17,-346 11,-346 5,-340 5,-334 5,-334 5,-322 5,-322 5,-316 11,-310 17,-310 17,-310 482,-310 482,-310 488,-310 494,-316 494,-322 494,-322 494,-334 494,-334 494,-340 488,-346 482,-346"/>
<text text-anchor="middle" x="249.5" y="-325.2" font-family="Helvetica,sans-Serif" font-size="11.00">OneTimePermissionUserManager$PackageInactivityListener.onPackageInactiveLocked</text>
</g>
<!-- m::com.android.server.pm.permission.OneTimePermissionUserManager$PackageInactivityListener.lambda$updateUidState$0:()V&#45;&gt;m::com.android.server.pm.permission.OneTimePermissionUserManager$PackageInactivityListener.onPackageInactiveLocked:()V -->
<g id="edge2" class="edge">
<title>m::com.android.server.pm.permission.OneTimePermissionUserManager$PackageInactivityListener.lambda$updateUidState$0:()V&#45;&gt;m::com.android.server.pm.permission.OneTimePermissionUserManager$PackageInactivityListener.onPackageInactiveLocked:()V</title>
<path fill="none" stroke="#64748b" d="M247.98,-382.81C248.23,-374.18 248.53,-363.56 248.79,-354.03"/>
<polygon fill="#64748b" stroke="#64748b" points="251.59,-354.1 249.02,-346.03 246,-353.95 251.59,-354.1"/>
</g>
<!-- m::com.android.server.pm.permission.OneTimePermissionUserManager$PackageInactivityListener.onPackageInactiveLocked:()V&#45;&gt;com.android.server.pm.permission.OneTimePermissionUserManager.mLock -->
<g id="edge3" class="edge">
<title>m::com.android.server.pm.permission.OneTimePermissionUserManager$PackageInactivityListener.onPackageInactiveLocked:()V&#45;&gt;com.android.server.pm.permission.OneTimePermissionUserManager.mLock</title>
<path fill="none" stroke="#dc2626" stroke-width="1.6" d="M250.58,-309.64C251.27,-298.66 252.17,-284.29 252.93,-272.09"/>
<polygon fill="#dc2626" stroke="#dc2626" stroke-width="1.6" points="255.73,-272.21 253.43,-264.05 250.14,-271.86 255.73,-272.21"/>
<text text-anchor="middle" x="273.5" y="-284.8" font-family="Helvetica,sans-Serif" font-size="9.00" fill="#dc2626"> acquires</text>
</g>
<!-- m::com.android.server.pm.permission.OneTimePermissionUserManager$PackageInactivityListener.&#45;$$Nest$mcancel:(Lcom/android/server/pm/permission/OneTimePermissionUserManager$PackageInactivityListener;)V -->
<g id="node6" class="node">
<title>m::com.android.server.pm.permission.OneTimePermissionUserManager$PackageInactivityListener.&#45;$$Nest$mcancel:(Lcom/android/server/pm/permission/OneTimePermissionUserManager$PackageInactivityListener;)V</title>
<path fill="#eef2ff" stroke="#a5b4fc" d="M482.5,-109C482.5,-109 122.5,-109 122.5,-109 116.5,-109 110.5,-103 110.5,-97 110.5,-97 110.5,-85 110.5,-85 110.5,-79 116.5,-73 122.5,-73 122.5,-73 482.5,-73 482.5,-73 488.5,-73 494.5,-79 494.5,-85 494.5,-85 494.5,-97 494.5,-97 494.5,-103 488.5,-109 482.5,-109"/>
<text text-anchor="middle" x="302.5" y="-88.2" font-family="Helvetica,sans-Serif" font-size="11.00">OneTimePermissionUserManager$PackageInactivityListener.cancel</text>
</g>
<!-- m::com.android.server.pm.permission.OneTimePermissionUserManager$1.onReceive:(Landroid/content/Context;Landroid/content/Intent;)V&#45;&gt;m::com.android.server.pm.permission.OneTimePermissionUserManager$PackageInactivityListener.&#45;$$Nest$mcancel:(Lcom/android/server/pm/permission/OneTimePermissionUserManager$PackageInactivityListener;)V -->
<g id="edge5" class="edge">
<title>m::com.android.server.pm.permission.OneTimePermissionUserManager$1.onReceive:(Landroid/content/Context;Landroid/content/Intent;)V&#45;&gt;m::com.android.server.pm.permission.OneTimePermissionUserManager$PackageInactivityListener.&#45;$$Nest$mcancel:(Lcom/android/server/pm/permission/OneTimePermissionUserManager$PackageInactivityListener;)V</title>
<path fill="none" stroke="#64748b" d="M281.28,-145.81C284.72,-137.09 288.96,-126.34 292.74,-116.75"/>
<polygon fill="#64748b" stroke="#64748b" points="295.45,-117.5 295.78,-109.03 290.24,-115.44 295.45,-117.5"/>
</g>
<!-- m::com.android.server.pm.permission.OneTimePermissionUserManager$PackageInactivityListener.cancel:()V -->
<g id="node7" class="node">
<title>m::com.android.server.pm.permission.OneTimePermissionUserManager$PackageInactivityListener.cancel:()V</title>
<path fill="#eef2ff" stroke="#a5b4fc" d="M597.5,-36C597.5,-36 237.5,-36 237.5,-36 231.5,-36 225.5,-30 225.5,-24 225.5,-24 225.5,-12 225.5,-12 225.5,-6 231.5,0 237.5,0 237.5,0 597.5,0 597.5,0 603.5,0 609.5,-6 609.5,-12 609.5,-12 609.5,-24 609.5,-24 609.5,-30 603.5,-36 597.5,-36"/>
<text text-anchor="middle" x="417.5" y="-15.2" font-family="Helvetica,sans-Serif" font-size="11.00">OneTimePermissionUserManager$PackageInactivityListener.cancel</text>
</g>
<!-- m::com.android.server.pm.permission.OneTimePermissionUserManager$PackageInactivityListener.&#45;$$Nest$mcancel:(Lcom/android/server/pm/permission/OneTimePermissionUserManager$PackageInactivityListener;)V&#45;&gt;m::com.android.server.pm.permission.OneTimePermissionUserManager$PackageInactivityListener.cancel:()V -->
<g id="edge6" class="edge">
<title>m::com.android.server.pm.permission.OneTimePermissionUserManager$PackageInactivityListener.&#45;$$Nest$mcancel:(Lcom/android/server/pm/permission/OneTimePermissionUserManager$PackageInactivityListener;)V&#45;&gt;m::com.android.server.pm.permission.OneTimePermissionUserManager$PackageInactivityListener.cancel:()V</title>
<path fill="none" stroke="#64748b" d="M330.05,-72.99C345.86,-63.23 365.87,-50.88 382.76,-40.45"/>
<polygon fill="#64748b" stroke="#64748b" points="384.44,-42.7 389.78,-36.11 381.5,-37.93 384.44,-42.7"/>
</g>
<!-- m::com.android.server.pm.permission.OneTimePermissionUserManager$PackageInactivityListener.cancel:()V&#45;&gt;com.android.server.pm.permission.OneTimePermissionUserManager$PackageInactivityListener.mInnerLock -->
<g id="edge7" class="edge">
<title>m::com.android.server.pm.permission.OneTimePermissionUserManager$PackageInactivityListener.cancel:()V&#45;&gt;com.android.server.pm.permission.OneTimePermissionUserManager$PackageInactivityListener.mInnerLock</title>
<path fill="none" stroke="#dc2626" stroke-width="1.6" d="M486.32,-36.02C511.3,-46.66 533.5,-63.55 533.5,-90 533.5,-402 533.5,-402 533.5,-402 533.5,-431.38 510.23,-450.07 482.46,-461.92"/>
<polygon fill="#dc2626" stroke="#dc2626" stroke-width="1.6" points="481.31,-459.37 474.92,-464.94 483.39,-464.57 481.31,-459.37"/>
<text text-anchor="middle" x="554.5" y="-243.8" font-family="Helvetica,sans-Serif" font-size="9.00" fill="#dc2626"> acquires</text>
</g>
</g>
</svg>
