<?xml version="1.0" encoding="UTF-8" standalone="no"?>
<!DOCTYPE svg PUBLIC "-//W3C//DTD SVG 1.1//EN"
 "http://www.w3.org/Graphics/SVG/1.1/DTD/svg11.dtd">
<!-- Generated by graphviz version 2.43.0 (0)
 -->
<!-- Title: cycle Pages: 1 -->
<svg width="488pt" height="965pt"
 viewBox="0.00 0.00 488.00 965.00" xmlns="http://www.w3.org/2000/svg" xmlns:xlink="http://www.w3.org/1999/xlink">
<g id="graph0" class="graph" transform="scale(1 1) rotate(0) translate(4 961)">
<title>cycle</title>
<polygon fill="white" stroke="transparent" points="-4,4 -4,-961 484,-961 484,4 -4,4"/>
<!-- com.android.server.am.AppProfiler.mProcessCpuTracker -->
<g id="node1" class="node">
<title>com.android.server.am.AppProfiler.mProcessCpuTracker</title>
<path fill="#fee2e2" stroke="#dc2626" stroke-width="2" d="M468,-957C468,-957 264,-957 264,-957 258,-957 252,-951 252,-945 252,-945 252,-933 252,-933 252,-927 258,-921 264,-921 264,-921 468,-921 468,-921 474,-921 480,-927 480,-933 480,-933 480,-945 480,-945 480,-951 474,-957 468,-957"/>
<text text-anchor="middle" x="366" y="-935.6" font-family="Helvetica,sans-Serif" font-size="13.00">AppProfiler.mProcessCpuTracker</text>
</g>
<!-- m::com.android.server.am.AppProfiler.getAppProfileStatsForDebugging:(JI)Landroid/util/Pair; -->
<g id="node4" class="node">
<title>m::com.android.server.am.AppProfiler.getAppProfileStatsForDebugging:(JI)Landroid/util/Pair;</title>
<path fill="#eef2ff" stroke="#a5b4fc" d="M392.5,-875C392.5,-875 159.5,-875 159.5,-875 153.5,-875 147.5,-869 147.5,-863 147.5,-863 147.5,-851 147.5,-851 147.5,-845 153.5,-839 159.5,-839 159.5,-839 392.5,-839 392.5,-839 398.5,-839 404.5,-845 404.5,-851 404.5,-851 404.5,-863 404.5,-863 404.5,-869 398.5,-875 392.5,-875"/>
<text text-anchor="middle" x="276" y="-854.2" font-family="Helvetica,sans-Serif" font-size="11.00">AppProfiler.getAppProfileStatsForDebugging</text>
</g>
<!-- com.android.server.am.AppProfiler.mProcessCpuTracker&#45;&gt;m::com.android.server.am.AppProfiler.getAppProfileStatsForDebugging:(JI)Landroid/util/Pair; -->
<g id="edge1" class="edge">
<title>com.android.server.am.AppProfiler.mProcessCpuTracker&#45;&gt;m::com.android.server.am.AppProfiler.getAppProfileStatsForDebugging:(JI)Landroid/util/Pair;</title>
<path fill="none" stroke="#dc2626" stroke-width="1.6" d="M346.47,-920.64C333.29,-908.92 315.76,-893.34 301.49,-880.65"/>
<polygon fill="#dc2626" stroke="#dc2626" stroke-width="1.6" points="303.02,-878.27 295.18,-875.05 299.3,-882.46 303.02,-878.27"/>
<text text-anchor="middle" x="344" y="-895.8" font-family="Helvetica,sans-Serif" font-size="9.00" fill="#dc2626"> held in</text>
</g>
<!-- com.android.server.am.BatteryStatsService.mStats -->
<g id="node2" class="node">
<title>com.android.server.am.BatteryStatsService.mStats</title>
<path fill="#fee2e2" stroke="#dc2626" stroke-width="2" d="M339.5,-720C339.5,-720 164.5,-720 164.5,-720 158.5,-720 152.5,-714 152.5,-708 152.5,-708 152.5,-696 152.5,-696 152.5,-690 158.5,-684 164.5,-684 164.5,-684 339.5,-684 339.5,-684 345.5,-684 351.5,-690 351.5,-696 351.5,-696 351.5,-708 351.5,-708 351.5,-714 345.5,-720 339.5,-720"/>
<text text-anchor="middle" x="252" y="-698.6" font-family="Helvetica,sans-Serif" font-size="13.00">BatteryStatsService.mStats</text>
</g>
<!-- m::com.android.server.am.BatteryStatsService.lambda$setBatteryState$95:(ZIIIIIIIIJJJJ)V -->
<g id="node6" class="node">
<title>m::com.android.server.am.BatteryStatsService.lambda$setBatteryState$95:(ZIIIIIIIIJJJJ)V</title>
<path fill="#eef2ff" stroke="#a5b4fc" d="M340,-638C340,-638 78,-638 78,-638 72,-638 66,-632 66,-626 66,-626 66,-614 66,-614 66,-608 72,-602 78,-602 78,-602 340,-602 340,-602 346,-602 352,-608 352,-614 352,-614 352,-626 352,-626 352,-632 346,-638 340,-638"/>
<text text-anchor="middle" x="209" y="-617.2" font-family="Helvetica,sans-Serif" font-size="11.00">BatteryStatsService.lambda$setBatteryState$95</text>
</g>
<!-- com.android.server.am.BatteryStatsService.mStats&#45;&gt;m::com.android.server.am.BatteryStatsService.lambda$setBatteryState$95:(ZIIIIIIIIJJJJ)V -->
<g id="edge4" class="edge">
<title>com.android.server.am.BatteryStatsService.mStats&#45;&gt;m::com.android.server.am.BatteryStatsService.lambda$setBatteryState$95:(ZIIIIIIIIJJJJ)V</title>
<path fill="none" stroke="#dc2626" stroke-width="1.6" d="M242.67,-683.64C236.66,-672.45 228.75,-657.74 222.11,-645.39"/>
<polygon fill="#dc2626" stroke="#dc2626" stroke-width="1.6" points="224.42,-643.77 218.16,-638.05 219.49,-646.42 224.42,-643.77"/>
<text text-anchor="middle" x="251" y="-658.8" font-family="Helvetica,sans-Serif" font-size="9.00" fill="#dc2626"> held in</text>
</g>
<!-- com.android.server.power.stats.BatteryHistoryStepDetailsProvider.mClock -->
<g id="node3" class="node">
<title>com.android.server.power.stats.BatteryHistoryStepDetailsProvider.mClock</title>
<path fill="#fee2e2" stroke="#dc2626" stroke-width="2" d="M340,-410C340,-410 70,-410 70,-410 64,-410 58,-404 58,-398 58,-398 58,-386 58,-386 58,-380 64,-374 70,-374 70,-374 340,-374 340,-374 346,-374 352,-380 352,-386 352,-386 352,-398 352,-398 352,-404 346,-410 340,-410"/>
<text text-anchor="middle" x="205" y="-388.6" font-family="Helvetica,sans-Serif" font-size="13.00">BatteryHistoryStepDetailsProvider.mClock</text>
</g>
<!-- m::com.android.server.power.stats.BatteryHistoryStepDetailsProvider.lambda$requestUpdate$0:()V -->
<g id="node9" class="node">
<title>m::com.android.server.power.stats.BatteryHistoryStepDetailsProvider.lambda$requestUpdate$0:()V</title>
<path fill="#eef2ff" stroke="#a5b4fc" d="M340,-328C340,-328 12,-328 12,-328 6,-328 0,-322 0,-316 0,-316 0,-304 0,-304 0,-298 6,-292 12,-292 12,-292 340,-292 340,-292 346,-292 352,-298 352,-304 352,-304 352,-316 352,-316 352,-322 346,-328 340,-328"/>
<text text-anchor="middle" x="176" y="-307.2" font-family="Helvetica,sans-Serif" font-size="11.00">BatteryHistoryStepDetailsProvider.lambda$requestUpdate$0</text>
</g>
<!-- com.android.server.power.stats.BatteryHistoryStepDetailsProvider.mClock&#45;&gt;m::com.android.server.power.stats.BatteryHistoryStepDetailsProvider.lambda$requestUpdate$0:()V -->
<g id="edge8" class="edge">
<title>com.android.server.power.stats.BatteryHistoryStepDetailsProvider.mClock&#45;&gt;m::com.android.server.power.stats.BatteryHistoryStepDetailsProvider.lambda$requestUpdate$0:()V</title>
<path fill="none" stroke="#dc2626" stroke-width="1.6" d="M173.11,-373.67C167.02,-368.8 161.47,-362.91 158,-356 154.8,-349.62 155.69,-342.53 158.32,-335.9"/>
<polygon fill="#dc2626" stroke="#dc2626" stroke-width="1.6" points="161,-336.8 162.06,-328.4 155.99,-334.31 161,-336.8"/>
<text text-anchor="middle" x="175" y="-348.8" font-family="Helvetica,sans-Serif" font-size="9.00" fill="#dc2626"> held in</text>
</g>
<!-- com.android.server.power.stats.BatteryHistoryStepDetailsProvider.mClock&#45;&gt;m::com.android.server.power.stats.BatteryHistoryStepDetailsProvider.lambda$requestUpdate$0:()V -->
<g id="edge15" class="edge">
<title>com.android.server.power.stats.BatteryHistoryStepDetailsProvider.mClock&#45;&gt;m::com.android.server.power.stats.BatteryHistoryStepDetailsProvider.lambda$requestUpdate$0:()V</title>
<path fill="none" stroke="#dc2626" stroke-width="1.6" d="M201.75,-373.62C199.92,-365.15 197.32,-354.89 194,-346 192.7,-342.52 191.14,-338.94 189.49,-335.46"/>
<polygon fill="#dc2626" stroke="#dc2626" stroke-width="1.6" points="191.88,-333.98 185.8,-328.08 186.88,-336.49 191.88,-333.98"/>
<text text-anchor="middle" x="215" y="-348.8" font-family="Helvetica,sans-Serif" font-size="9.00" fill="#dc2626"> held in</text>
</g>
<!-- m::com.android.server.am.AppProfiler.updateCpuStatsNow:()V -->
<g id="node5" class="node">
<title>m::com.android.server.am.AppProfiler.updateCpuStatsNow:()V</title>
<path fill="#eef2ff" stroke="#a5b4fc" d="M448.5,-802C448.5,-802 281.5,-802 281.5,-802 275.5,-802 269.5,-796 269.5,-790 269.5,-790 269.5,-778 269.5,-778 269.5,-772 275.5,-766 281.5,-766 281.5,-766 448.5,-766 448.5,-766 454.5,-766 460.5,-772 460.5,-778 460.5,-778 460.5,-790 460.5,-790 460.5,-796 454.5,-802 448.5,-802"/>
<text text-anchor="middle" x="365" y="-781.2" font-family="Helvetica,sans-Serif" font-size="11.00">AppProfiler.updateCpuStatsNow</text>
</g>
<!-- m::com.android.server.am.AppProfiler.getAppProfileStatsForDebugging:(JI)Landroid/util/Pair;&#45;&gt;m::com.android.server.am.AppProfiler.updateCpuStatsNow:()V -->
<g id="edge2" class="edge">
<title>m::com.android.server.am.AppProfiler.getAppProfileStatsForDebugging:(JI)Landroid/util/Pair;&#45;&gt;m::com.android.server.am.AppProfiler.updateCpuStatsNow:()V</title>
<path fill="none" stroke="#64748b" d="M297.54,-838.81C309.46,-829.31 324.4,-817.39 337.19,-807.19"/>
<polygon fill="#64748b" stroke="#64748b" points="339.15,-809.21 343.65,-802.03 335.65,-804.83 339.15,-809.21"/>
</g>
<!-- m::com.android.server.am.AppProfiler.updateCpuStatsNow:()V&#45;&gt;com.android.server.am.AppProfiler.mProcessCpuTracker -->
<g id="edge14" class="edge">
<title>m::com.android.server.am.AppProfiler.updateCpuStatsNow:()V&#45;&gt;com.android.server.am.AppProfiler.mProcessCpuTracker</title>
<path fill="none" stroke="#dc2626" stroke-width="1.6" d="M388.22,-802.03C399.17,-811.53 411.11,-824.39 417,-839 422.98,-853.84 422.34,-859.92 417,-875 411.69,-890 401.12,-904.04 390.98,-915.04"/>
<polygon fill="#dc2626" stroke="#dc2626" stroke-width="1.6" points="388.94,-913.11 385.42,-920.82 392.98,-916.99 388.94,-913.11"/>
<text text-anchor="middle" x="443" y="-854.8" font-family="Helvetica,sans-Serif" font-size="9.00" fill="#dc2626"> acquires</text>
</g>
<!-- m::com.android.server.am.AppProfiler.updateCpuStatsNow:()V&#45;&gt;com.android.server.am.BatteryStatsService.mStats -->
<g id="edge3" class="edge">
<title>m::com.android.server.am.AppProfiler.updateCpuStatsNow:()V&#45;&gt;com.android.server.am.BatteryStatsService.mStats</title>
<path fill="none" stroke="#dc2626" stroke-width="1.6" d="M276.38,-765.93C268.19,-761.29 260.81,-755.41 255,-748 250.63,-742.42 248.97,-735.15 248.66,-728.1"/>
<polygon fill="#dc2626" stroke="#dc2626" stroke-width="1.6" points="251.46,-728.08 248.83,-720.02 245.86,-727.96 251.46,-728.08"/>
<text text-anchor="middle" x="276" y="-740.8" font-family="Helvetica,sans-Serif" font-size="9.00" fill="#dc2626"> acquires</text>
</g>
<!-- m::com.android.server.am.AppProfiler.updateCpuStatsNow:()V&#45;&gt;com.android.server.am.BatteryStatsService.mStats -->
<g id="edge21" class="edge">
<title>m::com.android.server.am.AppProfiler.updateCpuStatsNow:()V&#45;&gt;com.android.server.am.BatteryStatsService.mStats</title>
<path fill="none" stroke="#dc2626" stroke-width="1.6" d="M340.76,-765.84C323.93,-753.92 301.35,-737.94 283.18,-725.07"/>
<polygon fill="#dc2626" stroke="#dc2626" stroke-width="1.6" points="284.35,-722.47 276.2,-720.13 281.11,-727.04 284.35,-722.47"/>
<text text-anchor="middle" x="337" y="-740.8" font-family="Helvetica,sans-Serif" font-size="9.00" fill="#dc2626"> acquires</text>
</g>
<!-- m::com.android.server.power.stats.BatteryStatsImpl.setBatteryStateLocked:(IIIIIIIIJJJJ)V -->
<g id="node7" class="node">
<title>m::com.android.server.power.stats.BatteryStatsImpl.setBatteryStateLocked:(IIIIIIIIJJJJ)V</title>
<path fill="#eef2ff" stroke="#a5b4fc" d="M314.5,-565C314.5,-565 99.5,-565 99.5,-565 93.5,-565 87.5,-559 87.5,-553 87.5,-553 87.5,-541 87.5,-541 87.5,-535 93.5,-529 99.5,-529 99.5,-529 314.5,-529 314.5,-529 320.5,-529 326.5,-535 326.5,-541 326.5,-541 326.5,-553 326.5,-553 326.5,-559 320.5,-565 314.5,-565"/>
<text text-anchor="middle" x="207" y="-544.2" font-family="Helvetica,sans-Serif" font-size="11.00">BatteryStatsImpl.setBatteryStateLocked</text>
</g>
<!-- m::com.android.server.am.BatteryStatsService.lambda$setBatteryState$95:(ZIIIIIIIIJJJJ)V&#45;&gt;m::com.android.server.power.stats.BatteryStatsImpl.setBatteryStateLocked:(IIIIIIIIJJJJ)V -->
<g id="edge5" class="edge">
<title>m::com.android.server.am.BatteryStatsService.lambda$setBatteryState$95:(ZIIIIIIIIJJJJ)V&#45;&gt;m::com.android.server.power.stats.BatteryStatsImpl.setBatteryStateLocked:(IIIIIIIIJJJJ)V</title>
<path fill="none" stroke="#64748b" d="M208.52,-601.81C208.27,-593.18 207.97,-582.56 207.71,-573.03"/>
<polygon fill="#64748b" stroke="#64748b" points="210.5,-572.95 207.48,-565.03 204.91,-573.1 210.5,-572.95"/>
</g>
<!-- m::com.android.server.power.stats.BatteryHistoryStepDetailsProvider.requestUpdate:()V -->
<g id="node8" class="node">
<title>m::com.android.server.power.stats.BatteryHistoryStepDetailsProvider.requestUpdate:()V</title>
<path fill="#eef2ff" stroke="#a5b4fc" d="M340.5,-492C340.5,-492 73.5,-492 73.5,-492 67.5,-492 61.5,-486 61.5,-480 61.5,-480 61.5,-468 61.5,-468 61.5,-462 67.5,-456 73.5,-456 73.5,-456 340.5,-456 340.5,-456 346.5,-456 352.5,-462 352.5,-468 352.5,-468 352.5,-480 352.5,-480 352.5,-486 346.5,-492 340.5,-492"/>
<text text-anchor="middle" x="207" y="-471.2" font-family="Helvetica,sans-Serif" font-size="11.00">BatteryHistoryStepDetailsProvider.requestUpdate</text>
</g>
<!-- m::com.android.server.power.stats.BatteryStatsImpl.setBatteryStateLocked:(IIIIIIIIJJJJ)V&#45;&gt;m::com.android.server.power.stats.BatteryHistoryStepDetailsProvider.requestUpdate:()V -->
<g id="edge6" class="edge">
<title>m::com.android.server.power.stats.BatteryStatsImpl.setBatteryStateLocked:(IIIIIIIIJJJJ)V&#45;&gt;m::com.android.server.power.stats.BatteryHistoryStepDetailsProvider.requestUpdate:()V</title>
<path fill="none" stroke="#64748b" d="M207,-528.81C207,-520.18 207,-509.56 207,-500.03"/>
<polygon fill="#64748b" stroke="#64748b" points="209.8,-500.03 207,-492.03 204.2,-500.03 209.8,-500.03"/>
</g>
<!-- m::com.android.server.power.stats.BatteryHistoryStepDetailsProvider.requestUpdate:()V&#45;&gt;com.android.server.power.stats.BatteryHistoryStepDetailsProvider.mClock -->
<g id="edge7" class="edge">
<title>m::com.android.server.power.stats.BatteryHistoryStepDetailsProvider.requestUpdate:()V&#45;&gt;com.android.server.power.stats.BatteryHistoryStepDetailsProvider.mClock</title>
<path fill="none" stroke="#dc2626" stroke-width="1.6" d="M206.57,-455.64C206.29,-444.66 205.93,-430.29 205.63,-418.09"/>
<polygon fill="#dc2626" stroke="#dc2626" stroke-width="1.6" points="208.43,-417.98 205.43,-410.05 202.83,-418.12 208.43,-417.98"/>
<text text-anchor="middle" x="228" y="-430.8" font-family="Helvetica,sans-Serif" font-size="9.00" fill="#dc2626"> acquires</text>
</g>
<!-- m::com.android.server.power.stats.BatteryHistoryStepDetailsProvider.update:(JJ)V -->
<g id="node10" class="node">
<title>m::com.android.server.power.stats.BatteryHistoryStepDetailsProvider.update:(JJ)V</title>
<path fill="#eef2ff" stroke="#a5b4fc" d="M305,-255C305,-255 81,-255 81,-255 75,-255 69,-249 69,-243 69,-243 69,-231 69,-231 69,-225 75,-219 81,-219 81,-219 305,-219 305,-219 311,-219 317,-225 317,-231 317,-231 317,-243 317,-243 317,-249 311,-255 305,-255"/>
<text text-anchor="middle" x="193" y="-234.2" font-family="Helvetica,sans-Serif" font-size="11.00">BatteryHistoryStepDetailsProvider.update</text>
</g>
<!-- m::com.android.server.power.stats.BatteryHistoryStepDetailsProvider.lambda$requestUpdate$0:()V&#45;&gt;m::com.android.server.power.stats.BatteryHistoryStepDetailsProvider.update:(JJ)V -->
<g id="edge9" class="edge">
<title>m::com.android.server.power.stats.BatteryHistoryStepDetailsProvider.lambda$requestUpdate$0:()V&#45;&gt;m::com.android.server.power.stats.BatteryHistoryStepDetailsProvider.update:(JJ)V</title>
<path fill="none" stroke="#64748b" d="M172.28,-291.81C173.15,-283.09 175.46,-272.34 178.45,-262.75"/>
<polygon fill="#64748b" stroke="#64748b" points="181.15,-263.5 181.11,-255.03 175.86,-261.68 181.15,-263.5"/>
</g>
<!-- m::com.android.server.power.stats.BatteryHistoryStepDetailsProvider.lambda$requestUpdate$0:()V&#45;&gt;m::com.android.server.power.stats.BatteryHistoryStepDetailsProvider.update:(JJ)V -->
<g id="edge16" class="edge">
<title>m::com.android.server.power.stats.BatteryHistoryStepDetailsProvider.lambda$requestUpdate$0:()V&#45;&gt;m::com.android.server.power.stats.BatteryHistoryStepDetailsProvider.update:(JJ)V</title>
<path fill="none" stroke="#64748b" d="M188.61,-291.81C191.98,-283.18 194.81,-272.56 196.37,-263.03"/>
<polygon fill="#64748b" stroke="#64748b" points="199.16,-263.32 197.39,-255.03 193.6,-262.61 199.16,-263.32"/>
</g>
<!-- m::com.android.server.power.stats.BatteryStatsImpl.updateCpuDetails:()V -->
<g id="node11" class="node">
<title>m::com.android.server.power.stats.BatteryStatsImpl.updateCpuDetails:()V</title>
<path fill="#eef2ff" stroke="#a5b4fc" d="M298.5,-182C298.5,-182 111.5,-182 111.5,-182 105.5,-182 99.5,-176 99.5,-170 99.5,-170 99.5,-158 99.5,-158 99.5,-152 105.5,-146 111.5,-146 111.5,-146 298.5,-146 298.5,-146 304.5,-146 310.5,-152 310.5,-158 310.5,-158 310.5,-170 310.5,-170 310.5,-176 304.5,-182 298.5,-182"/>
<text text-anchor="middle" x="205" y="-161.2" font-family="Helvetica,sans-Serif" font-size="11.00">BatteryStatsImpl.updateCpuDetails</text>
</g>
<!-- m::com.android.server.power.stats.BatteryHistoryStepDetailsProvider.update:(JJ)V&#45;&gt;m::com.android.server.power.stats.BatteryStatsImpl.updateCpuDetails:()V -->
<g id="edge10" class="edge">
<title>m::com.android.server.power.stats.BatteryHistoryStepDetailsProvider.update:(JJ)V&#45;&gt;m::com.android.server.power.stats.BatteryStatsImpl.updateCpuDetails:()V</title>
<path fill="none" stroke="#64748b" d="M188.07,-218.81C188.32,-210.09 189.88,-199.34 192.2,-189.75"/>
<polygon fill="#64748b" stroke="#64748b" points="194.9,-190.48 194.31,-182.03 189.49,-189.01 194.9,-190.48"/>
</g>
<!-- m::com.android.server.power.stats.BatteryHistoryStepDetailsProvider.update:(JJ)V&#45;&gt;m::com.android.server.power.stats.BatteryStatsImpl.updateCpuDetails:()V -->
<g id="edge17" class="edge">
<title>m::com.android.server.power.stats.BatteryHistoryStepDetailsProvider.update:(JJ)V&#45;&gt;m::com.android.server.power.stats.BatteryStatsImpl.updateCpuDetails:()V</title>
<path fill="none" stroke="#64748b" d="M204.4,-218.81C207.16,-210.18 209.25,-199.56 210.13,-190.03"/>
<polygon fill="#64748b" stroke="#64748b" points="212.93,-190.18 210.59,-182.03 207.34,-189.86 212.93,-190.18"/>
</g>
<!-- m::com.android.server.am.ActivityManagerService.batteryNeedsCpuUpdate:()V -->
<g id="node12" class="node">
<title>m::com.android.server.am.ActivityManagerService.batteryNeedsCpuUpdate:()V</title>
<path fill="#eef2ff" stroke="#a5b4fc" d="M339.5,-109C339.5,-109 76.5,-109 76.5,-109 70.5,-109 64.5,-103 64.5,-97 64.5,-97 64.5,-85 64.5,-85 64.5,-79 70.5,-73 76.5,-73 76.5,-73 339.5,-73 339.5,-73 345.5,-73 351.5,-79 351.5,-85 351.5,-85 351.5,-97 351.5,-97 351.5,-103 345.5,-109 339.5,-109"/>
<text text-anchor="middle" x="208" y="-88.2" font-family="Helvetica,sans-Serif" font-size="11.00">ActivityManagerService.batteryNeedsCpuUpdate</text>
</g>
<!-- m::com.android.server.power.stats.BatteryStatsImpl.updateCpuDetails:()V&#45;&gt;m::com.android.server.am.ActivityManagerService.batteryNeedsCpuUpdate:()V -->
<g id="edge11" class="edge">
<title>m::com.android.server.power.stats.BatteryStatsImpl.updateCpuDetails:()V&#45;&gt;m::com.android.server.am.ActivityManagerService.batteryNeedsCpuUpdate:()V</title>
<path fill="none" stroke="#64748b" d="M197.89,-145.81C197.05,-137.18 197.23,-126.56 198.3,-117.03"/>
<polygon fill="#64748b" stroke="#64748b" points="201.08,-117.35 199.47,-109.03 195.54,-116.54 201.08,-117.35"/>
</g>
<!-- m::com.android.server.power.stats.BatteryStatsImpl.updateCpuDetails:()V&#45;&gt;m::com.android.server.am.ActivityManagerService.batteryNeedsCpuUpdate:()V -->
<g id="edge18" class="edge">
<title>m::com.android.server.power.stats.BatteryStatsImpl.updateCpuDetails:()V&#45;&gt;m::com.android.server.am.ActivityManagerService.batteryNeedsCpuUpdate:()V</title>
<path fill="none" stroke="#64748b" d="M214.22,-145.81C215.89,-137.18 216.63,-126.56 216.31,-117.03"/>
<polygon fill="#64748b" stroke="#64748b" points="219.1,-116.81 215.75,-109.03 213.51,-117.2 219.1,-116.81"/>
</g>
<!-- m::com.android.server.am.ActivityManagerService.updateCpuStatsNow:()V -->
<g id="node13" class="node">
<title>m::com.android.server.am.ActivityManagerService.updateCpuStatsNow:()V</title>
<path fill="#eef2ff" stroke="#a5b4fc" d="M424.5,-36C424.5,-36 185.5,-36 185.5,-36 179.5,-36 173.5,-30 173.5,-24 173.5,-24 173.5,-12 173.5,-12 173.5,-6 179.5,0 185.5,0 185.5,0 424.5,0 424.5,0 430.5,0 436.5,-6 436.5,-12 436.5,-12 436.5,-24 436.5,-24 436.5,-30 430.5,-36 424.5,-36"/>
<text text-anchor="middle" x="305" y="-15.2" font-family="Helvetica,sans-Serif" font-size="11.00">ActivityManagerService.updateCpuStatsNow</text>
</g>
<!-- m::com.android.server.am.ActivityManagerService.batteryNeedsCpuUpdate:()V&#45;&gt;m::com.android.server.am.ActivityManagerService.updateCpuStatsNow:()V -->
<g id="edge12" class="edge">
<title>m::com.android.server.am.ActivityManagerService.batteryNeedsCpuUpdate:()V&#45;&gt;m::com.android.server.am.ActivityManagerService.updateCpuStatsNow:()V</title>
<path fill="none" stroke="#64748b" d="M223.64,-72.81C235.52,-63.13 251.99,-50.95 267.1,-40.63"/>
<polygon fill="#64748b" stroke="#64748b" points="268.85,-42.82 273.92,-36.03 265.72,-38.18 268.85,-42.82"/>
</g>
<!-- m::com.android.server.am.ActivityManagerService.batteryNeedsCpuUpdate:()V&#45;&gt;m::com.android.server.am.ActivityManagerService.updateCpuStatsNow:()V -->
<g id="edge19" class="edge">
<title>m::com.android.server.am.ActivityManagerService.batteryNeedsCpuUpdate:()V&#45;&gt;m::com.android.server.am.ActivityManagerService.updateCpuStatsNow:()V</title>
<path fill="none" stroke="#64748b" d="M239.7,-72.99C254.14,-63.49 270.69,-51.54 283.67,-41.29"/>
<polygon fill="#64748b" stroke="#64748b" points="285.62,-43.31 290.1,-36.11 282.11,-38.95 285.62,-43.31"/>
</g>
<!-- m::com.android.server.am.ActivityManagerService.updateCpuStatsNow:()V&#45;&gt;m::com.android.server.am.AppProfiler.updateCpuStatsNow:()V -->
<g id="edge13" class="edge">
<title>m::com.android.server.am.ActivityManagerService.updateCpuStatsNow:()V&#45;&gt;m::com.android.server.am.AppProfiler.updateCpuStatsNow:()V</title>
<path fill="none" stroke="#64748b" d="M346.21,-36.07C367.97,-47.22 390,-64.54 390,-90 390,-703 390,-703 390,-703 390,-722.94 380.42,-743.3 372.59,-758.5"/>
<polygon fill="#64748b" stroke="#64748b" points="369.92,-757.55 368.71,-765.94 374.89,-760.14 369.92,-757.55"/>
</g>
<!-- m::com.android.server.am.ActivityManagerService.updateCpuStatsNow:()V&#45;&gt;m::com.android.server.am.AppProfiler.updateCpuStatsNow:()V -->
<g id="edge20" class="edge">
<title>m::com.android.server.am.ActivityManagerService.updateCpuStatsNow:()V&#45;&gt;m::com.android.server.am.AppProfiler.updateCpuStatsNow:()V</title>
<path fill="none" stroke="#64748b" d="M368.5,-36.07C392.97,-47.22 415,-64.54 415,-90 415,-703 415,-703 415,-703 415,-723.3 405.06,-744.05 393.68,-759.33"/>
<polygon fill="#64748b" stroke="#64748b" points="391.19,-757.95 388.37,-765.94 395.56,-761.45 391.19,-757.95"/>
</g>
</g>
</svg>
