<?xml version="1.0" encoding="UTF-8" standalone="no"?>
<!DOCTYPE svg PUBLIC "-//W3C//DTD SVG 1.1//EN"
 "http://www.w3.org/Graphics/SVG/1.1/DTD/svg11.dtd">
<!-- Generated by graphviz version 2.43.0 (0)
 -->
<!-- Title: cycle Pages: 1 -->
<svg width="557pt" height="582pt"
 viewBox="0.00 0.00 557.00 582.00" xmlns="http://www.w3.org/2000/svg" xmlns:xlink="http://www.w3.org/1999/xlink">
<g id="graph0" class="graph" transform="scale(1 1) rotate(0) translate(4 578)">
<title>cycle</title>
<polygon fill="white" stroke="transparent" points="-4,4 -4,-578 553,-578 553,4 -4,4"/>
<!-- com.android.server.print.PrintManagerService$PrintManagerImpl.mLock -->
<g id="node1" class="node">
<title>com.android.server.print.PrintManagerService$PrintManagerImpl.mLock</title>
<path fill="#fee2e2" stroke="#dc2626" stroke-width="2" d="M537,-574C537,-574 236,-574 236,-574 230,-574 224,-568 224,-562 224,-562 224,-550 224,-550 224,-544 230,-538 236,-538 236,-538 537,-538 537,-538 543,-538 549,-544 549,-550 549,-550 549,-562 549,-562 549,-568 543,-574 537,-574"/>
<text text-anchor="middle" x="386.5" y="-552.6" font-family="Helvetica,sans-Serif" font-size="13.00">PrintManagerService$PrintManagerImpl.mLock</text>
</g>
<!-- m::com.android.server.print.UserState.dump:(Lcom/android/internal/util/dump/DualDumpOutputStream;)V -->
<g id="node3" class="node">
<title>m::com.android.server.print.UserState.dump:(Lcom/android/internal/util/dump/DualDumpOutputStream;)V</title>
<path fill="#eef2ff" stroke="#a5b4fc" d="M374.5,-492C374.5,-492 292.5,-492 292.5,-492 286.5,-492 280.5,-486 280.5,-480 280.5,-480 280.5,-468 280.5,-468 280.5,-462 286.5,-456 292.5,-456 292.5,-456 374.5,-456 374.5,-456 380.5,-456 386.5,-462 386.5,-468 386.5,-468 386.5,-480 386.5,-480 386.5,-486 380.5,-492 374.5,-492"/>
<text text-anchor="middle" x="333.5" y="-471.2" font-family="Helvetica,sans-Serif" font-size="11.00">UserState.dump</text>
</g>
<!-- com.android.server.print.PrintManagerService$PrintManagerImpl.mLock&#45;&gt;m::com.android.server.print.UserState.dump:(Lcom/android/internal/util/dump/DualDumpOutputStream;)V -->
<g id="edge1" class="edge">
<title>com.android.server.print.PrintManagerService$PrintManagerImpl.mLock&#45;&gt;m::com.android.server.print.UserState.dump:(Lcom/android/internal/util/dump/DualDumpOutputStream;)V</title>
<path fill="none" stroke="#dc2626" stroke-width="1.6" d="M375,-537.64C367.52,-526.35 357.66,-511.46 349.42,-499.04"/>
<polygon fill="#dc2626" stroke="#dc2626" stroke-width="1.6" points="351.55,-497.17 344.8,-492.05 346.88,-500.27 351.55,-497.17"/>
<text text-anchor="middle" x="380.5" y="-512.8" font-family="Helvetica,sans-Serif" font-size="9.00" fill="#dc2626"> held in</text>
</g>
<!-- com.android.server.print.RemotePrintService.mLock -->
<g id="node2" class="node">
<title>com.android.server.print.RemotePrintService.mLock</title>
<path fill="#fee2e2" stroke="#dc2626" stroke-width="2" d="M356.5,-337C356.5,-337 186.5,-337 186.5,-337 180.5,-337 174.5,-331 174.5,-325 174.5,-325 174.5,-313 174.5,-313 174.5,-307 180.5,-301 186.5,-301 186.5,-301 356.5,-301 356.5,-301 362.5,-301 368.5,-307 368.5,-313 368.5,-313 368.5,-325 368.5,-325 368.5,-331 362.5,-337 356.5,-337"/>
<text text-anchor="middle" x="271.5" y="-315.6" font-family="Helvetica,sans-Serif" font-size="13.00">RemotePrintService.mLock</text>
</g>
<!-- m::com.android.server.print.RemotePrintService$RemoteServiceConneciton.onServiceConnected:(Landroid/content/ComponentName;Landroid/os/IBinder;)V -->
<g id="node5" class="node">
<title>m::com.android.server.print.RemotePrintService$RemoteServiceConneciton.onServiceConnected:(Landroid/content/ComponentName;Landroid/os/IBinder;)V</title>
<path fill="#eef2ff" stroke="#a5b4fc" d="M381,-255C381,-255 12,-255 12,-255 6,-255 0,-249 0,-243 0,-243 0,-231 0,-231 0,-225 6,-219 12,-219 12,-219 381,-219 381,-219 387,-219 393,-225 393,-231 393,-231 393,-243 393,-243 393,-249 387,-255 381,-255"/>
<text text-anchor="middle" x="196.5" y="-234.2" font-family="Helvetica,sans-Serif" font-size="11.00">RemotePrintService$RemoteServiceConneciton.onServiceConnected</text>
</g>
<!-- com.android.server.print.RemotePrintService.mLock&#45;&gt;m::com.android.server.print.RemotePrintService$RemoteServiceConneciton.onServiceConnected:(Landroid/content/ComponentName;Landroid/os/IBinder;)V -->
<g id="edge4" class="edge">
<title>com.android.server.print.RemotePrintService.mLock&#45;&gt;m::com.android.server.print.RemotePrintService$RemoteServiceConneciton.onServiceConnected:(Landroid/content/ComponentName;Landroid/os/IBinder;)V</title>
<path fill="none" stroke="#dc2626" stroke-width="1.6" d="M255.23,-300.64C244.34,-289.03 229.9,-273.63 218.06,-261"/>
<polygon fill="#dc2626" stroke="#dc2626" stroke-width="1.6" points="220,-258.97 212.48,-255.05 215.91,-262.8 220,-258.97"/>
<text text-anchor="middle" x="255.5" y="-275.8" font-family="Helvetica,sans-Serif" font-size="9.00" fill="#dc2626"> held in</text>
</g>
<!-- m::com.android.server.print.RemotePrintService.dump:(Lcom/android/internal/util/dump/DualDumpOutputStream;)V -->
<g id="node4" class="node">
<title>m::com.android.server.print.RemotePrintService.dump:(Lcom/android/internal/util/dump/DualDumpOutputStream;)V</title>
<path fill="#eef2ff" stroke="#a5b4fc" d="M377.5,-419C377.5,-419 241.5,-419 241.5,-419 235.5,-419 229.5,-413 229.5,-407 229.5,-407 229.5,-395 229.5,-395 229.5,-389 235.5,-383 241.5,-383 241.5,-383 377.5,-383 377.5,-383 383.5,-383 389.5,-389 389.5,-395 389.5,-395 389.5,-407 389.5,-407 389.5,-413 383.5,-419 377.5,-419"/>
<text text-anchor="middle" x="309.5" y="-398.2" font-family="Helvetica,sans-Serif" font-size="11.00">RemotePrintService.dump</text>
</g>
<!-- m::com.android.server.print.UserState.dump:(Lcom/android/internal/util/dump/DualDumpOutputStream;)V&#45;&gt;m::com.android.server.print.RemotePrintService.dump:(Lcom/android/internal/util/dump/DualDumpOutputStream;)V -->
<g id="edge2" class="edge">
<title>m::com.android.server.print.UserState.dump:(Lcom/android/internal/util/dump/DualDumpOutputStream;)V&#45;&gt;m::com.android.server.print.RemotePrintService.dump:(Lcom/android/internal/util/dump/DualDumpOutputStream;)V</title>
<path fill="none" stroke="#64748b" d="M327.69,-455.81C324.74,-447.09 321.11,-436.34 317.86,-426.75"/>
<polygon fill="#64748b" stroke="#64748b" points="320.47,-425.71 315.26,-419.03 315.17,-427.5 320.47,-425.71"/>
</g>
<!-- m::com.android.server.print.RemotePrintService.dump:(Lcom/android/internal/util/dump/DualDumpOutputStream;)V&#45;&gt;com.android.server.print.RemotePrintService.mLock -->
<g id="edge3" class="edge">
<title>m::com.android.server.print.RemotePrintService.dump:(Lcom/android/internal/util/dump/DualDumpOutputStream;)V&#45;&gt;com.android.server.print.RemotePrintService.mLock</title>
<path fill="none" stroke="#dc2626" stroke-width="1.6" d="M301.25,-382.64C295.94,-371.45 288.95,-356.74 283.08,-344.39"/>
<polygon fill="#dc2626" stroke="#dc2626" stroke-width="1.6" points="285.56,-343.07 279.6,-337.05 280.5,-345.48 285.56,-343.07"/>
<text text-anchor="middle" x="314.5" y="-357.8" font-family="Helvetica,sans-Serif" font-size="9.00" fill="#dc2626"> acquires</text>
</g>
<!-- m::com.android.server.print.RemotePrintService.&#45;$$Nest$mhandleBinderDied:(Lcom/android/server/print/RemotePrintService;)V -->
<g id="node6" class="node">
<title>m::com.android.server.print.RemotePrintService.&#45;$$Nest$mhandleBinderDied:(Lcom/android/server/print/RemotePrintService;)V</title>
<path fill="#eef2ff" stroke="#a5b4fc" d="M368.5,-182C368.5,-182 106.5,-182 106.5,-182 100.5,-182 94.5,-176 94.5,-170 94.5,-170 94.5,-158 94.5,-158 94.5,-152 100.5,-146 106.5,-146 106.5,-146 368.5,-146 368.5,-146 374.5,-146 380.5,-152 380.5,-158 380.5,-158 380.5,-170 380.5,-170 380.5,-176 374.5,-182 368.5,-182"/>
<text text-anchor="middle" x="237.5" y="-161.2" font-family="Helvetica,sans-Serif" font-size="11.00">RemotePrintService.&#45;$$Nest$mhandleBinderDied</text>
</g>
<!-- m::com.android.server.print.RemotePrintService$RemoteServiceConneciton.onServiceConnected:(Landroid/content/ComponentName;Landroid/os/IBinder;)V&#45;&gt;m::com.android.server.print.RemotePrintService.&#45;$$Nest$mhandleBinderDied:(Lcom/android/server/print/RemotePrintService;)V -->
<g id="edge5" class="edge">
<title>m::com.android.server.print.RemotePrintService$RemoteServiceConneciton.onServiceConnected:(Landroid/content/ComponentName;Landroid/os/IBinder;)V&#45;&gt;m::com.android.server.print.RemotePrintService.&#45;$$Nest$mhandleBinderDied:(Lcom/android/server/print/RemotePrintService;)V</title>
<path fill="none" stroke="#64748b" d="M206.42,-218.81C211.56,-209.92 217.92,-198.91 223.54,-189.17"/>
<polygon fill="#64748b" stroke="#64748b" points="226.09,-190.36 227.67,-182.03 221.24,-187.56 226.09,-190.36"/>
</g>
<!-- m::com.android.server.print.RemotePrintService.handleBinderDied:()V -->
<g id="node7" class="node">
<title>m::com.android.server.print.RemotePrintService.handleBinderDied:()V</title>
<path fill="#eef2ff" stroke="#a5b4fc" d="M367.5,-109C367.5,-109 165.5,-109 165.5,-109 159.5,-109 153.5,-103 153.5,-97 153.5,-97 153.5,-85 153.5,-85 153.5,-79 159.5,-73 165.5,-73 165.5,-73 367.5,-73 367.5,-73 373.5,-73 379.5,-79 379.5,-85 379.5,-85 379.5,-97 379.5,-97 379.5,-103 373.5,-109 367.5,-109"/>
<text text-anchor="middle" x="266.5" y="-88.2" font-family="Helvetica,sans-Serif" font-size="11.00">RemotePrintService.handleBinderDied</text>
</g>
<!-- m::com.android.server.print.RemotePrintService.&#45;$$Nest$mhandleBinderDied:(Lcom/android/server/print/RemotePrintService;)V&#45;&gt;m::com.android.server.print.RemotePrintService.handleBinderDied:()V -->
<g id="edge6" class="edge">
<title>m::com.android.server.print.RemotePrintService.&#45;$$Nest$mhandleBinderDied:(Lcom/android/server/print/RemotePrintService;)V&#45;&gt;m::com.android.server.print.RemotePrintService.handleBinderDied:()V</title>
<path fill="none" stroke="#64748b" d="M244.52,-145.81C248.12,-137 252.56,-126.13 256.51,-116.46"/>
<polygon fill="#64748b" stroke="#64748b" points="259.11,-117.49 259.54,-109.03 253.93,-115.38 259.11,-117.49"/>
</g>
<!-- m::com.android.server.print.UserState.onServiceDied:(Lcom/android/server/print/RemotePrintService;)V -->
<g id="node8" class="node">
<title>m::com.android.server.print.UserState.onServiceDied:(Lcom/android/server/print/RemotePrintService;)V</title>
<path fill="#eef2ff" stroke="#a5b4fc" d="M413.5,-36C413.5,-36 283.5,-36 283.5,-36 277.5,-36 271.5,-30 271.5,-24 271.5,-24 271.5,-12 271.5,-12 271.5,-6 277.5,0 283.5,0 283.5,0 413.5,0 413.5,0 419.5,0 425.5,-6 425.5,-12 425.5,-12 425.5,-24 425.5,-24 425.5,-30 419.5,-36 413.5,-36"/>
<text text-anchor="middle" x="348.5" y="-15.2" font-family="Helvetica,sans-Serif" font-size="11.00">UserState.onServiceDied</text>
</g>
<!-- m::com.android.server.print.RemotePrintService.handleBinderDied:()V&#45;&gt;m::com.android.server.print.UserState.onServiceDied:(Lcom/android/server/print/RemotePrintService;)V -->
<g id="edge7" class="edge">
<title>m::com.android.server.print.RemotePrintService.handleBinderDied:()V&#45;&gt;m::com.android.server.print.UserState.onServiceDied:(Lcom/android/server/print/RemotePrintService;)V</title>
<path fill="none" stroke="#64748b" d="M286.35,-72.81C297.23,-63.39 310.84,-51.61 322.55,-41.47"/>
<polygon fill="#64748b" stroke="#64748b" points="324.62,-43.38 328.83,-36.03 320.95,-39.15 324.62,-43.38"/>
</g>
<!-- m::com.android.server.print.UserState.onServiceDied:(Lcom/android/server/print/RemotePrintService;)V&#45;&gt;com.android.server.print.PrintManagerService$PrintManagerImpl.mLock -->
<g id="edge8" class="edge">
<title>m::com.android.server.print.UserState.onServiceDied:(Lcom/android/server/print/RemotePrintService;)V&#45;&gt;com.android.server.print.PrintManagerService$PrintManagerImpl.mLock</title>
<path fill="none" stroke="#dc2626" stroke-width="1.6" d="M389.51,-36.02C410.42,-47.7 431.5,-65.54 431.5,-90 431.5,-475 431.5,-475 431.5,-475 431.5,-495.87 419.73,-516.32 408.22,-531.32"/>
<polygon fill="#dc2626" stroke="#dc2626" stroke-width="1.6" points="405.83,-529.82 403,-537.81 410.2,-533.33 405.83,-529.82"/>
<text text-anchor="middle" x="452.5" y="-275.8" font-family="Helvetica,sans-Serif" font-size="9.00" fill="#dc2626"> acquires</text>
</g>
</g>
</svg>
