<?xml version="1.0" encoding="UTF-8" standalone="no"?>
<!DOCTYPE svg PUBLIC "-//W3C//DTD SVG 1.1//EN"
 "http://www.w3.org/Graphics/SVG/1.1/DTD/svg11.dtd">
<!-- Generated by graphviz version 2.43.0 (0)
 -->
<!-- Title: cycle Pages: 1 -->
<svg width="989pt" height="1047pt"
 viewBox="0.00 0.00 989.00 1047.00" xmlns="http://www.w3.org/2000/svg" xmlns:xlink="http://www.w3.org/1999/xlink">
<g id="graph0" class="graph" transform="scale(1 1) rotate(0) translate(4 1043)">
<title>cycle</title>
<polygon fill="white" stroke="transparent" points="-4,4 -4,-1043 985,-1043 985,4 -4,4"/>
<!-- com.android.server.timezonedetector.location.LocationTimeZoneProvider.mSharedLock -->
<g id="node1" class="node">
<title>com.android.server.timezonedetector.location.LocationTimeZoneProvider.mSharedLock</title>
<path fill="#fee2e2" stroke="#dc2626" stroke-width="2" d="M951,-1039C951,-1039 689,-1039 689,-1039 683,-1039 677,-1033 677,-1027 677,-1027 677,-1015 677,-1015 677,-1009 683,-1003 689,-1003 689,-1003 951,-1003 951,-1003 957,-1003 963,-1009 963,-1015 963,-1015 963,-1027 963,-1027 963,-1033 957,-1039 951,-1039"/>
<text text-anchor="middle" x="820" y="-1017.6" font-family="Helvetica,sans-Serif" font-size="13.00">LocationTimeZoneProvider.mSharedLock</text>
</g>
<!-- m::com.android.server.timezonedetector.location.LocationTimeZoneProvider.destroy:()V -->
<g id="node4" class="node">
<title>m::com.android.server.timezonedetector.location.LocationTimeZoneProvider.destroy:()V</title>
<path fill="#eef2ff" stroke="#a5b4fc" d="M748.5,-957C748.5,-957 563.5,-957 563.5,-957 557.5,-957 551.5,-951 551.5,-945 551.5,-945 551.5,-933 551.5,-933 551.5,-927 557.5,-921 563.5,-921 563.5,-921 748.5,-921 748.5,-921 754.5,-921 760.5,-927 760.5,-933 760.5,-933 760.5,-945 760.5,-945 760.5,-951 754.5,-957 748.5,-957"/>
<text text-anchor="middle" x="656" y="-936.2" font-family="Helvetica,sans-Serif" font-size="11.00">LocationTimeZoneProvider.destroy</text>
</g>
<!-- com.android.server.timezonedetector.location.LocationTimeZoneProvider.mSharedLock&#45;&gt;m::com.android.server.timezonedetector.location.LocationTimeZoneProvider.destroy:()V -->
<g id="edge1" class="edge">
<title>com.android.server.timezonedetector.location.LocationTimeZoneProvider.mSharedLock&#45;&gt;m::com.android.server.timezonedetector.location.LocationTimeZoneProvider.destroy:()V</title>
<path fill="none" stroke="#dc2626" stroke-width="1.6" d="M777.93,-1002.98C765,-997.5 750.81,-991.23 738,-985 722.95,-977.68 706.73,-968.96 692.72,-961.16"/>
<polygon fill="#dc2626" stroke="#dc2626" stroke-width="1.6" points="693.97,-958.65 685.62,-957.17 691.23,-963.53 693.97,-958.65"/>
<text text-anchor="middle" x="752" y="-977.8" font-family="Helvetica,sans-Serif" font-size="9.00" fill="#dc2626"> holds</text>
</g>
<!-- com.android.server.timezonedetector.location.LocationTimeZoneProvider.mSharedLock&#45;&gt;m::com.android.server.timezonedetector.location.LocationTimeZoneProvider.destroy:()V -->
<g id="edge6" class="edge">
<title>com.android.server.timezonedetector.location.LocationTimeZoneProvider.mSharedLock&#45;&gt;m::com.android.server.timezonedetector.location.LocationTimeZoneProvider.destroy:()V</title>
<path fill="none" stroke="#dc2626" stroke-width="1.6" d="M803.56,-1002.63C793.94,-993.33 781.14,-982.32 768,-975 757.42,-969.11 745.7,-964.06 733.96,-959.79"/>
<polygon fill="#dc2626" stroke="#dc2626" stroke-width="1.6" points="734.73,-957.09 726.25,-957.09 732.88,-962.38 734.73,-957.09"/>
<text text-anchor="middle" x="796" y="-977.8" font-family="Helvetica,sans-Serif" font-size="9.00" fill="#dc2626"> holds</text>
</g>
<!-- com.android.server.timezonedetector.location.LocationTimeZoneProviderController.mSharedLock -->
<g id="node2" class="node">
<title>com.android.server.timezonedetector.location.LocationTimeZoneProviderController.mSharedLock</title>
<path fill="#fee2e2" stroke="#dc2626" stroke-width="2" d="M457.5,-191C457.5,-191 130.5,-191 130.5,-191 124.5,-191 118.5,-185 118.5,-179 118.5,-179 118.5,-167 118.5,-167 118.5,-161 124.5,-155 130.5,-155 130.5,-155 457.5,-155 457.5,-155 463.5,-155 469.5,-161 469.5,-167 469.5,-167 469.5,-179 469.5,-179 469.5,-185 463.5,-191 457.5,-191"/>
<text text-anchor="middle" x="294" y="-169.6" font-family="Helvetica,sans-Serif" font-size="13.00">LocationTimeZoneProviderController.mSharedLock</text>
</g>
<!-- m::com.android.server.timezonedetector.location.LocationTimeZoneProviderController.clearRecordedStates:()V -->
<g id="node10" class="node">
<title>m::com.android.server.timezonedetector.location.LocationTimeZoneProviderController.clearRecordedStates:()V</title>
<path fill="#eef2ff" stroke="#a5b4fc" d="M809.5,-109C809.5,-109 498.5,-109 498.5,-109 492.5,-109 486.5,-103 486.5,-97 486.5,-97 486.5,-85 486.5,-85 486.5,-79 492.5,-73 498.5,-73 498.5,-73 809.5,-73 809.5,-73 815.5,-73 821.5,-79 821.5,-85 821.5,-85 821.5,-97 821.5,-97 821.5,-103 815.5,-109 809.5,-109"/>
<text text-anchor="middle" x="654" y="-88.2" font-family="Helvetica,sans-Serif" font-size="11.00">LocationTimeZoneProviderController.clearRecordedStates</text>
</g>
<!-- com.android.server.timezonedetector.location.LocationTimeZoneProviderController.mSharedLock&#45;&gt;m::com.android.server.timezonedetector.location.LocationTimeZoneProviderController.clearRecordedStates:()V -->
<g id="edge10" class="edge">
<title>com.android.server.timezonedetector.location.LocationTimeZoneProviderController.mSharedLock&#45;&gt;m::com.android.server.timezonedetector.location.LocationTimeZoneProviderController.clearRecordedStates:()V</title>
<path fill="none" stroke="#dc2626" stroke-width="1.6" d="M370.79,-154.94C429.09,-141.98 509.21,-124.18 569.35,-110.81"/>
<polygon fill="#dc2626" stroke="#dc2626" stroke-width="1.6" points="570.13,-113.51 577.33,-109.04 568.91,-108.04 570.13,-113.51"/>
<text text-anchor="middle" x="510" y="-129.8" font-family="Helvetica,sans-Serif" font-size="9.00" fill="#dc2626"> holds</text>
</g>
<!-- m::com.android.server.timezonedetector.location.LocationTimeZoneProviderController.destroy:()V -->
<g id="node12" class="node">
<title>m::com.android.server.timezonedetector.location.LocationTimeZoneProviderController.destroy:()V</title>
<path fill="#eef2ff" stroke="#a5b4fc" d="M284.5,-109C284.5,-109 45.5,-109 45.5,-109 39.5,-109 33.5,-103 33.5,-97 33.5,-97 33.5,-85 33.5,-85 33.5,-79 39.5,-73 45.5,-73 45.5,-73 284.5,-73 284.5,-73 290.5,-73 296.5,-79 296.5,-85 296.5,-85 296.5,-97 296.5,-97 296.5,-103 290.5,-109 284.5,-109"/>
<text text-anchor="middle" x="165" y="-88.2" font-family="Helvetica,sans-Serif" font-size="11.00">LocationTimeZoneProviderController.destroy</text>
</g>
<!-- com.android.server.timezonedetector.location.LocationTimeZoneProviderController.mSharedLock&#45;&gt;m::com.android.server.timezonedetector.location.LocationTimeZoneProviderController.destroy:()V -->
<g id="edge13" class="edge">
<title>com.android.server.timezonedetector.location.LocationTimeZoneProviderController.mSharedLock&#45;&gt;m::com.android.server.timezonedetector.location.LocationTimeZoneProviderController.destroy:()V</title>
<path fill="none" stroke="#dc2626" stroke-width="1.6" d="M266.33,-154.84C246.77,-142.71 220.42,-126.37 199.5,-113.39"/>
<polygon fill="#dc2626" stroke="#dc2626" stroke-width="1.6" points="200.9,-110.97 192.63,-109.13 197.95,-115.73 200.9,-110.97"/>
<text text-anchor="middle" x="252" y="-129.8" font-family="Helvetica,sans-Serif" font-size="9.00" fill="#dc2626"> holds</text>
</g>
<!-- com.android.server.timezonedetector.location.LocationTimeZoneProviderProxy.mSharedLock -->
<g id="node3" class="node">
<title>com.android.server.timezonedetector.location.LocationTimeZoneProviderProxy.mSharedLock</title>
<path fill="#fee2e2" stroke="#dc2626" stroke-width="2" d="M758,-729C758,-729 462,-729 462,-729 456,-729 450,-723 450,-717 450,-717 450,-705 450,-705 450,-699 456,-693 462,-693 462,-693 758,-693 758,-693 764,-693 770,-699 770,-705 770,-705 770,-717 770,-717 770,-723 764,-729 758,-729"/>
<text text-anchor="middle" x="610" y="-707.6" font-family="Helvetica,sans-Serif" font-size="13.00">LocationTimeZoneProviderProxy.mSharedLock</text>
</g>
<!-- m::com.android.server.timezonedetector.location.RealLocationTimeZoneProviderProxy.onBind:(Landroid/os/IBinder;Lcom/android/server/servicewatcher/CurrentUserServiceSupplier$BoundServiceInfo;)V -->
<g id="node13" class="node">
<title>m::com.android.server.timezonedetector.location.RealLocationTimeZoneProviderProxy.onBind:(Landroid/os/IBinder;Lcom/android/server/servicewatcher/CurrentUserServiceSupplier$BoundServiceInfo;)V</title>
<path fill="#eef2ff" stroke="#a5b4fc" d="M728.5,-647C728.5,-647 493.5,-647 493.5,-647 487.5,-647 481.5,-641 481.5,-635 481.5,-635 481.5,-623 481.5,-623 481.5,-617 487.5,-611 493.5,-611 493.5,-611 728.5,-611 728.5,-611 734.5,-611 740.5,-617 740.5,-623 740.5,-623 740.5,-635 740.5,-635 740.5,-641 734.5,-647 728.5,-647"/>
<text text-anchor="middle" x="611" y="-626.2" font-family="Helvetica,sans-Serif" font-size="11.00">RealLocationTimeZoneProviderProxy.onBind</text>
</g>
<!-- com.android.server.timezonedetector.location.LocationTimeZoneProviderProxy.mSharedLock&#45;&gt;m::com.android.server.timezonedetector.location.RealLocationTimeZoneProviderProxy.onBind:(Landroid/os/IBinder;Lcom/android/server/servicewatcher/CurrentUserServiceSupplier$BoundServiceInfo;)V -->
<g id="edge18" class="edge">
<title>com.android.server.timezonedetector.location.LocationTimeZoneProviderProxy.mSharedLock&#45;&gt;m::com.android.server.timezonedetector.location.RealLocationTimeZoneProviderProxy.onBind:(Landroid/os/IBinder;Lcom/android/server/servicewatcher/CurrentUserServiceSupplier$BoundServiceInfo;)V</title>
<path fill="none" stroke="#dc2626" stroke-width="1.6" d="M610.22,-692.64C610.35,-681.66 610.53,-667.29 610.69,-655.09"/>
<polygon fill="#dc2626" stroke="#dc2626" stroke-width="1.6" points="613.49,-655.08 610.79,-647.05 607.89,-655.01 613.49,-655.08"/>
<text text-anchor="middle" x="625" y="-667.8" font-family="Helvetica,sans-Serif" font-size="9.00" fill="#dc2626"> holds</text>
</g>
<!-- m::com.android.server.timezonedetector.location.RealLocationTimeZoneProviderProxy.onUnbind:()V -->
<g id="node17" class="node">
<title>m::com.android.server.timezonedetector.location.RealLocationTimeZoneProviderProxy.onUnbind:()V</title>
<path fill="#eef2ff" stroke="#a5b4fc" d="M430.5,-647C430.5,-647 181.5,-647 181.5,-647 175.5,-647 169.5,-641 169.5,-635 169.5,-635 169.5,-623 169.5,-623 169.5,-617 175.5,-611 181.5,-611 181.5,-611 430.5,-611 430.5,-611 436.5,-611 442.5,-617 442.5,-623 442.5,-623 442.5,-635 442.5,-635 442.5,-641 436.5,-647 430.5,-647"/>
<text text-anchor="middle" x="306" y="-626.2" font-family="Helvetica,sans-Serif" font-size="11.00">RealLocationTimeZoneProviderProxy.onUnbind</text>
</g>
<!-- com.android.server.timezonedetector.location.LocationTimeZoneProviderProxy.mSharedLock&#45;&gt;m::com.android.server.timezonedetector.location.RealLocationTimeZoneProviderProxy.onUnbind:()V -->
<g id="edge23" class="edge">
<title>com.android.server.timezonedetector.location.LocationTimeZoneProviderProxy.mSharedLock&#45;&gt;m::com.android.server.timezonedetector.location.RealLocationTimeZoneProviderProxy.onUnbind:()V</title>
<path fill="none" stroke="#dc2626" stroke-width="1.6" d="M545.16,-692.94C496.33,-680.09 429.37,-662.47 378.73,-649.14"/>
<polygon fill="#dc2626" stroke="#dc2626" stroke-width="1.6" points="379.19,-646.37 370.74,-647.04 377.77,-651.78 379.19,-646.37"/>
<text text-anchor="middle" x="491" y="-667.8" font-family="Helvetica,sans-Serif" font-size="9.00" fill="#dc2626"> holds</text>
</g>
<!-- m::com.android.server.timezonedetector.location.LocationTimeZoneProvider.setCurrentState:(Lcom/android/server/timezonedetector/location/LocationTimeZoneProvider$ProviderState;Z)V -->
<g id="node5" class="node">
<title>m::com.android.server.timezonedetector.location.LocationTimeZoneProvider.setCurrentState:(Lcom/android/server/timezonedetector/location/LocationTimeZoneProvider$ProviderState;Z)V</title>
<path fill="#eef2ff" stroke="#a5b4fc" d="M399,-419C399,-419 169,-419 169,-419 163,-419 157,-413 157,-407 157,-407 157,-395 157,-395 157,-389 163,-383 169,-383 169,-383 399,-383 399,-383 405,-383 411,-389 411,-395 411,-395 411,-407 411,-407 411,-413 405,-419 399,-419"/>
<text text-anchor="middle" x="284" y="-398.2" font-family="Helvetica,sans-Serif" font-size="11.00">LocationTimeZoneProvider.setCurrentState</text>
</g>
<!-- m::com.android.server.timezonedetector.location.LocationTimeZoneProvider.destroy:()V&#45;&gt;m::com.android.server.timezonedetector.location.LocationTimeZoneProvider.setCurrentState:(Lcom/android/server/timezonedetector/location/LocationTimeZoneProvider$ProviderState;Z)V -->
<g id="edge2" class="edge">
<title>m::com.android.server.timezonedetector.location.LocationTimeZoneProvider.destroy:()V&#45;&gt;m::com.android.server.timezonedetector.location.LocationTimeZoneProvider.setCurrentState:(Lcom/android/server/timezonedetector/location/LocationTimeZoneProvider$ProviderState;Z)V</title>
<path fill="none" stroke="#64748b" d="M551.36,-935.87C381.61,-930.99 65,-915.41 65,-867 65,-867 65,-867 65,-473 65,-449.19 112.43,-432.17 163.14,-420.77"/>
<polygon fill="#64748b" stroke="#64748b" points="163.75,-423.5 170.97,-419.06 162.56,-418.03 163.75,-423.5"/>
</g>
<!-- m::com.android.server.timezonedetector.location.BinderLocationTimeZoneProvider.onDestroy:()V -->
<g id="node8" class="node">
<title>m::com.android.server.timezonedetector.location.BinderLocationTimeZoneProvider.onDestroy:()V</title>
<path fill="#eef2ff" stroke="#a5b4fc" d="M773.5,-884C773.5,-884 538.5,-884 538.5,-884 532.5,-884 526.5,-878 526.5,-872 526.5,-872 526.5,-860 526.5,-860 526.5,-854 532.5,-848 538.5,-848 538.5,-848 773.5,-848 773.5,-848 779.5,-848 785.5,-854 785.5,-860 785.5,-860 785.5,-872 785.5,-872 785.5,-878 779.5,-884 773.5,-884"/>
<text text-anchor="middle" x="656" y="-863.2" font-family="Helvetica,sans-Serif" font-size="11.00">BinderLocationTimeZoneProvider.onDestroy</text>
</g>
<!-- m::com.android.server.timezonedetector.location.LocationTimeZoneProvider.destroy:()V&#45;&gt;m::com.android.server.timezonedetector.location.BinderLocationTimeZoneProvider.onDestroy:()V -->
<g id="edge7" class="edge">
<title>m::com.android.server.timezonedetector.location.LocationTimeZoneProvider.destroy:()V&#45;&gt;m::com.android.server.timezonedetector.location.BinderLocationTimeZoneProvider.onDestroy:()V</title>
<path fill="none" stroke="#64748b" d="M648.16,-920.81C646.96,-912.18 646.69,-901.56 647.36,-892.03"/>
<polygon fill="#64748b" stroke="#64748b" points="650.15,-892.27 648.18,-884.03 644.58,-891.7 650.15,-892.27"/>
</g>
<!-- m::com.android.server.timezonedetector.location.LocationTimeZoneProvider.destroy:()V&#45;&gt;m::com.android.server.timezonedetector.location.BinderLocationTimeZoneProvider.onDestroy:()V -->
<g id="edge15" class="edge">
<title>m::com.android.server.timezonedetector.location.LocationTimeZoneProvider.destroy:()V&#45;&gt;m::com.android.server.timezonedetector.location.BinderLocationTimeZoneProvider.onDestroy:()V</title>
<path fill="none" stroke="#64748b" d="M664.49,-920.81C665.8,-912.18 666.09,-901.56 665.36,-892.03"/>
<polygon fill="#64748b" stroke="#64748b" points="668.14,-891.67 664.47,-884.03 662.57,-892.29 668.14,-891.67"/>
</g>
<!-- m::com.android.server.timezonedetector.location.LocationTimeZoneProviderController$$ExternalSyntheticLambda0.onProviderStateChange:(Lcom/android/server/timezonedetector/location/LocationTimeZoneProvider$ProviderState;)V -->
<g id="node6" class="node">
<title>m::com.android.server.timezonedetector.location.LocationTimeZoneProviderController$$ExternalSyntheticLambda0.onProviderStateChange:(Lcom/android/server/timezonedetector/location/LocationTimeZoneProvider$ProviderState;)V</title>
<path fill="#eef2ff" stroke="#a5b4fc" d="M538,-346C538,-346 50,-346 50,-346 44,-346 38,-340 38,-334 38,-334 38,-322 38,-322 38,-316 44,-310 50,-310 50,-310 538,-310 538,-310 544,-310 550,-316 550,-322 550,-322 550,-334 550,-334 550,-340 544,-346 538,-346"/>
<text text-anchor="middle" x="294" y="-325.2" font-family="Helvetica,sans-Serif" font-size="11.00">LocationTimeZoneProviderController$$ExternalSyntheticLambda0.onProviderStateChange</text>
</g>
<!-- m::com.android.server.timezonedetector.location.LocationTimeZoneProvider.setCurrentState:(Lcom/android/server/timezonedetector/location/LocationTimeZoneProvider$ProviderState;Z)V&#45;&gt;m::com.android.server.timezonedetector.location.LocationTimeZoneProviderController$$ExternalSyntheticLambda0.onProviderStateChange:(Lcom/android/server/timezonedetector/location/LocationTimeZoneProvider$ProviderState;)V -->
<g id="edge3" class="edge">
<title>m::com.android.server.timezonedetector.location.LocationTimeZoneProvider.setCurrentState:(Lcom/android/server/timezonedetector/location/LocationTimeZoneProvider$ProviderState;Z)V&#45;&gt;m::com.android.server.timezonedetector.location.LocationTimeZoneProviderController$$ExternalSyntheticLambda0.onProviderStateChange:(Lcom/android/server/timezonedetector/location/LocationTimeZoneProvider$ProviderState;)V</title>
<path fill="none" stroke="#64748b" d="M278.58,-382.81C278.59,-374.18 279.82,-363.56 281.83,-354.03"/>
<polygon fill="#64748b" stroke="#64748b" points="284.61,-354.46 283.79,-346.03 279.17,-353.14 284.61,-354.46"/>
</g>
<!-- m::com.android.server.timezonedetector.location.LocationTimeZoneProvider.setCurrentState:(Lcom/android/server/timezonedetector/location/LocationTimeZoneProvider$ProviderState;Z)V&#45;&gt;m::com.android.server.timezonedetector.location.LocationTimeZoneProviderController$$ExternalSyntheticLambda0.onProviderStateChange:(Lcom/android/server/timezonedetector/location/LocationTimeZoneProvider$ProviderState;)V -->
<g id="edge27" class="edge">
<title>m::com.android.server.timezonedetector.location.LocationTimeZoneProvider.setCurrentState:(Lcom/android/server/timezonedetector/location/LocationTimeZoneProvider$ProviderState;Z)V&#45;&gt;m::com.android.server.timezonedetector.location.LocationTimeZoneProviderController$$ExternalSyntheticLambda0.onProviderStateChange:(Lcom/android/server/timezonedetector/location/LocationTimeZoneProvider$ProviderState;)V</title>
<path fill="none" stroke="#64748b" d="M294.91,-382.81C297.43,-374.18 299.22,-363.56 299.84,-354.03"/>
<polygon fill="#64748b" stroke="#64748b" points="302.64,-354.11 300.07,-346.03 297.04,-353.94 302.64,-354.11"/>
</g>
<!-- m::com.android.server.timezonedetector.location.LocationTimeZoneProviderController.onProviderStateChange:(Lcom/android/server/timezonedetector/location/LocationTimeZoneProvider$ProviderState;)V -->
<g id="node7" class="node">
<title>m::com.android.server.timezonedetector.location.LocationTimeZoneProviderController.onProviderStateChange:(Lcom/android/server/timezonedetector/location/LocationTimeZoneProvider$ProviderState;)V</title>
<path fill="#eef2ff" stroke="#a5b4fc" d="M457,-273C457,-273 131,-273 131,-273 125,-273 119,-267 119,-261 119,-261 119,-249 119,-249 119,-243 125,-237 131,-237 131,-237 457,-237 457,-237 463,-237 469,-243 469,-249 469,-249 469,-261 469,-261 469,-267 463,-273 457,-273"/>
<text text-anchor="middle" x="294" y="-252.2" font-family="Helvetica,sans-Serif" font-size="11.00">LocationTimeZoneProviderController.onProviderStateChange</text>
</g>
<!-- m::com.android.server.timezonedetector.location.LocationTimeZoneProviderController$$ExternalSyntheticLambda0.onProviderStateChange:(Lcom/android/server/timezonedetector/location/LocationTimeZoneProvider$ProviderState;)V&#45;&gt;m::com.android.server.timezonedetector.location.LocationTimeZoneProviderController.onProviderStateChange:(Lcom/android/server/timezonedetector/location/LocationTimeZoneProvider$ProviderState;)V -->
<g id="edge4" class="edge">
<title>m::com.android.server.timezonedetector.location.LocationTimeZoneProviderController$$ExternalSyntheticLambda0.onProviderStateChange:(Lcom/android/server/timezonedetector/location/LocationTimeZoneProvider$ProviderState;)V&#45;&gt;m::com.android.server.timezonedetector.location.LocationTimeZoneProviderController.onProviderStateChange:(Lcom/android/server/timezonedetector/location/LocationTimeZoneProvider$ProviderState;)V</title>
<path fill="none" stroke="#64748b" d="M286.16,-309.81C284.96,-301.18 284.69,-290.56 285.36,-281.03"/>
<polygon fill="#64748b" stroke="#64748b" points="288.15,-281.27 286.18,-273.03 282.58,-280.7 288.15,-281.27"/>
</g>
<!-- m::com.android.server.timezonedetector.location.LocationTimeZoneProviderController$$ExternalSyntheticLambda0.onProviderStateChange:(Lcom/android/server/timezonedetector/location/LocationTimeZoneProvider$ProviderState;)V&#45;&gt;m::com.android.server.timezonedetector.location.LocationTimeZoneProviderController.onProviderStateChange:(Lcom/android/server/timezonedetector/location/LocationTimeZoneProvider$ProviderState;)V -->
<g id="edge28" class="edge">
<title>m::com.android.server.timezonedetector.location.LocationTimeZoneProviderController$$ExternalSyntheticLambda0.onProviderStateChange:(Lcom/android/server/timezonedetector/location/LocationTimeZoneProvider$ProviderState;)V&#45;&gt;m::com.android.server.timezonedetector.location.LocationTimeZoneProviderController.onProviderStateChange:(Lcom/android/server/timezonedetector/location/LocationTimeZoneProvider$ProviderState;)V</title>
<path fill="none" stroke="#64748b" d="M302.49,-309.81C303.8,-301.18 304.09,-290.56 303.36,-281.03"/>
<polygon fill="#64748b" stroke="#64748b" points="306.14,-280.67 302.47,-273.03 300.57,-281.29 306.14,-280.67"/>
</g>
<!-- m::com.android.server.timezonedetector.location.LocationTimeZoneProviderController.onProviderStateChange:(Lcom/android/server/timezonedetector/location/LocationTimeZoneProvider$ProviderState;)V&#45;&gt;com.android.server.timezonedetector.location.LocationTimeZoneProviderController.mSharedLock -->
<g id="edge5" class="edge">
<title>m::com.android.server.timezonedetector.location.LocationTimeZoneProviderController.onProviderStateChange:(Lcom/android/server/timezonedetector/location/LocationTimeZoneProvider$ProviderState;)V&#45;&gt;com.android.server.timezonedetector.location.LocationTimeZoneProviderController.mSharedLock</title>
<path fill="none" stroke="#dc2626" stroke-width="1.6" d="M267.33,-236.76C258.81,-228.96 252.6,-219.22 257,-209 258.79,-204.84 261.35,-200.94 264.29,-197.37"/>
<polygon fill="#dc2626" stroke="#dc2626" stroke-width="1.6" points="266.54,-199.06 269.93,-191.3 262.43,-195.25 266.54,-199.06"/>
<text text-anchor="middle" x="278" y="-211.8" font-family="Helvetica,sans-Serif" font-size="9.00" fill="#dc2626"> acquires</text>
</g>
<!-- m::com.android.server.timezonedetector.location.LocationTimeZoneProviderController.onProviderStateChange:(Lcom/android/server/timezonedetector/location/LocationTimeZoneProvider$ProviderState;)V&#45;&gt;com.android.server.timezonedetector.location.LocationTimeZoneProviderController.mSharedLock -->
<g id="edge29" class="edge">
<title>m::com.android.server.timezonedetector.location.LocationTimeZoneProviderController.onProviderStateChange:(Lcom/android/server/timezonedetector/location/LocationTimeZoneProvider$ProviderState;)V&#45;&gt;com.android.server.timezonedetector.location.LocationTimeZoneProviderController.mSharedLock</title>
<path fill="none" stroke="#dc2626" stroke-width="1.6" d="M298.17,-236.66C299.33,-231.06 300.43,-224.8 301,-219 301.65,-212.47 301.14,-205.45 300.16,-198.94"/>
<polygon fill="#dc2626" stroke="#dc2626" stroke-width="1.6" points="302.91,-198.4 298.71,-191.04 297.4,-199.41 302.91,-198.4"/>
<text text-anchor="middle" x="323" y="-211.8" font-family="Helvetica,sans-Serif" font-size="9.00" fill="#dc2626"> acquires</text>
</g>
<!-- m::com.android.server.timezonedetector.location.LocationTimeZoneProviderProxy.destroy:()V -->
<g id="node9" class="node">
<title>m::com.android.server.timezonedetector.location.LocationTimeZoneProviderProxy.destroy:()V</title>
<path fill="#eef2ff" stroke="#a5b4fc" d="M763.5,-811C763.5,-811 548.5,-811 548.5,-811 542.5,-811 536.5,-805 536.5,-799 536.5,-799 536.5,-787 536.5,-787 536.5,-781 542.5,-775 548.5,-775 548.5,-775 763.5,-775 763.5,-775 769.5,-775 775.5,-781 775.5,-787 775.5,-787 775.5,-799 775.5,-799 775.5,-805 769.5,-811 763.5,-811"/>
<text text-anchor="middle" x="656" y="-790.2" font-family="Helvetica,sans-Serif" font-size="11.00">LocationTimeZoneProviderProxy.destroy</text>
</g>
<!-- m::com.android.server.timezonedetector.location.BinderLocationTimeZoneProvider.onDestroy:()V&#45;&gt;m::com.android.server.timezonedetector.location.LocationTimeZoneProviderProxy.destroy:()V -->
<g id="edge8" class="edge">
<title>m::com.android.server.timezonedetector.location.BinderLocationTimeZoneProvider.onDestroy:()V&#45;&gt;m::com.android.server.timezonedetector.location.LocationTimeZoneProviderProxy.destroy:()V</title>
<path fill="none" stroke="#64748b" d="M648.16,-847.81C646.96,-839.18 646.69,-828.56 647.36,-819.03"/>
<polygon fill="#64748b" stroke="#64748b" points="650.15,-819.27 648.18,-811.03 644.58,-818.7 650.15,-819.27"/>
</g>
<!-- m::com.android.server.timezonedetector.location.BinderLocationTimeZoneProvider.onDestroy:()V&#45;&gt;m::com.android.server.timezonedetector.location.LocationTimeZoneProviderProxy.destroy:()V -->
<g id="edge16" class="edge">
<title>m::com.android.server.timezonedetector.location.BinderLocationTimeZoneProvider.onDestroy:()V&#45;&gt;m::com.android.server.timezonedetector.location.LocationTimeZoneProviderProxy.destroy:()V</title>
<path fill="none" stroke="#64748b" d="M664.49,-847.81C665.8,-839.18 666.09,-828.56 665.36,-819.03"/>
<polygon fill="#64748b" stroke="#64748b" points="668.14,-818.67 664.47,-811.03 662.57,-819.29 668.14,-818.67"/>
</g>
<!-- m::com.android.server.timezonedetector.location.LocationTimeZoneProviderProxy.destroy:()V&#45;&gt;com.android.server.timezonedetector.location.LocationTimeZoneProviderProxy.mSharedLock -->
<g id="edge9" class="edge">
<title>m::com.android.server.timezonedetector.location.LocationTimeZoneProviderProxy.destroy:()V&#45;&gt;com.android.server.timezonedetector.location.LocationTimeZoneProviderProxy.mSharedLock</title>
<path fill="none" stroke="#dc2626" stroke-width="1.6" d="M613.36,-774.81C606.41,-770.08 600.14,-764.22 596,-757 592.49,-750.88 592.93,-743.78 595.06,-737.05"/>
<polygon fill="#dc2626" stroke="#dc2626" stroke-width="1.6" points="597.75,-737.86 598.2,-729.4 592.57,-735.73 597.75,-737.86"/>
<text text-anchor="middle" x="617" y="-749.8" font-family="Helvetica,sans-Serif" font-size="9.00" fill="#dc2626"> acquires</text>
</g>
<!-- m::com.android.server.timezonedetector.location.LocationTimeZoneProviderProxy.destroy:()V&#45;&gt;com.android.server.timezonedetector.location.LocationTimeZoneProviderProxy.mSharedLock -->
<g id="edge17" class="edge">
<title>m::com.android.server.timezonedetector.location.LocationTimeZoneProviderProxy.destroy:()V&#45;&gt;com.android.server.timezonedetector.location.LocationTimeZoneProviderProxy.mSharedLock</title>
<path fill="none" stroke="#dc2626" stroke-width="1.6" d="M651.47,-774.68C648.82,-766.04 644.99,-755.61 640,-747 637.74,-743.1 635.03,-739.23 632.17,-735.56"/>
<polygon fill="#dc2626" stroke="#dc2626" stroke-width="1.6" points="634.18,-733.59 626.93,-729.2 629.86,-737.16 634.18,-733.59"/>
<text text-anchor="middle" x="666" y="-749.8" font-family="Helvetica,sans-Serif" font-size="9.00" fill="#dc2626"> acquires</text>
</g>
<!-- m::com.android.server.timezonedetector.location.LocationTimeZoneProvider.clearRecordedStates:()V -->
<g id="node11" class="node">
<title>m::com.android.server.timezonedetector.location.LocationTimeZoneProvider.clearRecordedStates:()V</title>
<path fill="#eef2ff" stroke="#a5b4fc" d="M924.5,-36C924.5,-36 667.5,-36 667.5,-36 661.5,-36 655.5,-30 655.5,-24 655.5,-24 655.5,-12 655.5,-12 655.5,-6 661.5,0 667.5,0 667.5,0 924.5,0 924.5,0 930.5,0 936.5,-6 936.5,-12 936.5,-12 936.5,-24 936.5,-24 936.5,-30 930.5,-36 924.5,-36"/>
<text text-anchor="middle" x="796" y="-15.2" font-family="Helvetica,sans-Serif" font-size="11.00">LocationTimeZoneProvider.clearRecordedStates</text>
</g>
<!-- m::com.android.server.timezonedetector.location.LocationTimeZoneProviderController.clearRecordedStates:()V&#45;&gt;m::com.android.server.timezonedetector.location.LocationTimeZoneProvider.clearRecordedStates:()V -->
<g id="edge11" class="edge">
<title>m::com.android.server.timezonedetector.location.LocationTimeZoneProviderController.clearRecordedStates:()V&#45;&gt;m::com.android.server.timezonedetector.location.LocationTimeZoneProvider.clearRecordedStates:()V</title>
<path fill="none" stroke="#64748b" d="M688.01,-72.99C707.98,-63.01 733.35,-50.32 754.49,-39.76"/>
<polygon fill="#64748b" stroke="#64748b" points="755.87,-42.2 761.77,-36.11 753.37,-37.19 755.87,-42.2"/>
</g>
<!-- m::com.android.server.timezonedetector.location.LocationTimeZoneProvider.clearRecordedStates:()V&#45;&gt;com.android.server.timezonedetector.location.LocationTimeZoneProvider.mSharedLock -->
<g id="edge12" class="edge">
<title>m::com.android.server.timezonedetector.location.LocationTimeZoneProvider.clearRecordedStates:()V&#45;&gt;com.android.server.timezonedetector.location.LocationTimeZoneProvider.mSharedLock</title>
<path fill="none" stroke="#dc2626" stroke-width="1.6" d="M892.97,-36.03C918.47,-46.41 939,-63.11 939,-90 939,-940 939,-940 939,-940 939,-968.33 915.48,-987.28 889.36,-999.59"/>
<polygon fill="#dc2626" stroke="#dc2626" stroke-width="1.6" points="888.11,-997.08 881.94,-1002.89 890.39,-1002.2 888.11,-997.08"/>
<text text-anchor="middle" x="960" y="-512.8" font-family="Helvetica,sans-Serif" font-size="9.00" fill="#dc2626"> acquires</text>
</g>
<!-- m::com.android.server.timezonedetector.location.LocationTimeZoneProviderController.destroy:()V&#45;&gt;m::com.android.server.timezonedetector.location.LocationTimeZoneProvider.destroy:()V -->
<g id="edge14" class="edge">
<title>m::com.android.server.timezonedetector.location.LocationTimeZoneProviderController.destroy:()V&#45;&gt;m::com.android.server.timezonedetector.location.LocationTimeZoneProvider.destroy:()V</title>
<path fill="none" stroke="#64748b" d="M56.78,-109.11C25.68,-120.61 0,-139.85 0,-172 0,-867 0,-867 0,-867 0,-920.97 355.48,-933.96 543.08,-937.05"/>
<polygon fill="#64748b" stroke="#64748b" points="543.29,-939.86 551.33,-937.18 543.38,-934.26 543.29,-939.86"/>
</g>
<!-- m::com.android.server.timezonedetector.location.BinderLocationTimeZoneProvider$1.onProviderBound:()V -->
<g id="node14" class="node">
<title>m::com.android.server.timezonedetector.location.BinderLocationTimeZoneProvider$1.onProviderBound:()V</title>
<path fill="#eef2ff" stroke="#a5b4fc" d="M761,-574C761,-574 475,-574 475,-574 469,-574 463,-568 463,-562 463,-562 463,-550 463,-550 463,-544 469,-538 475,-538 475,-538 761,-538 761,-538 767,-538 773,-544 773,-550 773,-550 773,-562 773,-562 773,-568 767,-574 761,-574"/>
<text text-anchor="middle" x="618" y="-553.2" font-family="Helvetica,sans-Serif" font-size="11.00">BinderLocationTimeZoneProvider$1.onProviderBound</text>
</g>
<!-- m::com.android.server.timezonedetector.location.RealLocationTimeZoneProviderProxy.onBind:(Landroid/os/IBinder;Lcom/android/server/servicewatcher/CurrentUserServiceSupplier$BoundServiceInfo;)V&#45;&gt;m::com.android.server.timezonedetector.location.BinderLocationTimeZoneProvider$1.onProviderBound:()V -->
<g id="edge19" class="edge">
<title>m::com.android.server.timezonedetector.location.RealLocationTimeZoneProviderProxy.onBind:(Landroid/os/IBinder;Lcom/android/server/servicewatcher/CurrentUserServiceSupplier$BoundServiceInfo;)V&#45;&gt;m::com.android.server.timezonedetector.location.BinderLocationTimeZoneProvider$1.onProviderBound:()V</title>
<path fill="none" stroke="#64748b" d="M612.69,-610.81C613.55,-602.18 614.59,-591.56 615.53,-582.03"/>
<polygon fill="#64748b" stroke="#64748b" points="618.32,-582.26 616.32,-574.03 612.75,-581.72 618.32,-582.26"/>
</g>
<!-- m::com.android.server.timezonedetector.location.BinderLocationTimeZoneProvider.&#45;$$Nest$mhandleOnProviderBound:(Lcom/android/server/timezonedetector/location/BinderLocationTimeZoneProvider;)V -->
<g id="node15" class="node">
<title>m::com.android.server.timezonedetector.location.BinderLocationTimeZoneProvider.&#45;$$Nest$mhandleOnProviderBound:(Lcom/android/server/timezonedetector/location/BinderLocationTimeZoneProvider;)V</title>
<path fill="#eef2ff" stroke="#a5b4fc" d="M808.5,-492C808.5,-492 437.5,-492 437.5,-492 431.5,-492 425.5,-486 425.5,-480 425.5,-480 425.5,-468 425.5,-468 425.5,-462 431.5,-456 437.5,-456 437.5,-456 808.5,-456 808.5,-456 814.5,-456 820.5,-462 820.5,-468 820.5,-468 820.5,-480 820.5,-480 820.5,-486 814.5,-492 808.5,-492"/>
<text text-anchor="middle" x="623" y="-471.2" font-family="Helvetica,sans-Serif" font-size="11.00">BinderLocationTimeZoneProvider.&#45;$$Nest$mhandleOnProviderBound</text>
</g>
<!-- m::com.android.server.timezonedetector.location.BinderLocationTimeZoneProvider$1.onProviderBound:()V&#45;&gt;m::com.android.server.timezonedetector.location.BinderLocationTimeZoneProvider.&#45;$$Nest$mhandleOnProviderBound:(Lcom/android/server/timezonedetector/location/BinderLocationTimeZoneProvider;)V -->
<g id="edge20" class="edge">
<title>m::com.android.server.timezonedetector.location.BinderLocationTimeZoneProvider$1.onProviderBound:()V&#45;&gt;m::com.android.server.timezonedetector.location.BinderLocationTimeZoneProvider.&#45;$$Nest$mhandleOnProviderBound:(Lcom/android/server/timezonedetector/location/BinderLocationTimeZoneProvider;)V</title>
<path fill="none" stroke="#64748b" d="M619.08,-537.64C619.77,-526.66 620.67,-512.29 621.43,-500.09"/>
<polygon fill="#64748b" stroke="#64748b" points="624.23,-500.21 621.93,-492.05 618.64,-499.86 624.23,-500.21"/>
</g>
<!-- m::com.android.server.timezonedetector.location.BinderLocationTimeZoneProvider.handleOnProviderBound:()V -->
<g id="node16" class="node">
<title>m::com.android.server.timezonedetector.location.BinderLocationTimeZoneProvider.handleOnProviderBound:()V</title>
<path fill="#eef2ff" stroke="#a5b4fc" d="M836.5,-419C836.5,-419 525.5,-419 525.5,-419 519.5,-419 513.5,-413 513.5,-407 513.5,-407 513.5,-395 513.5,-395 513.5,-389 519.5,-383 525.5,-383 525.5,-383 836.5,-383 836.5,-383 842.5,-383 848.5,-389 848.5,-395 848.5,-395 848.5,-407 848.5,-407 848.5,-413 842.5,-419 836.5,-419"/>
<text text-anchor="middle" x="681" y="-398.2" font-family="Helvetica,sans-Serif" font-size="11.00">BinderLocationTimeZoneProvider.handleOnProviderBound</text>
</g>
<!-- m::com.android.server.timezonedetector.location.BinderLocationTimeZoneProvider.&#45;$$Nest$mhandleOnProviderBound:(Lcom/android/server/timezonedetector/location/BinderLocationTimeZoneProvider;)V&#45;&gt;m::com.android.server.timezonedetector.location.BinderLocationTimeZoneProvider.handleOnProviderBound:()V -->
<g id="edge21" class="edge">
<title>m::com.android.server.timezonedetector.location.BinderLocationTimeZoneProvider.&#45;$$Nest$mhandleOnProviderBound:(Lcom/android/server/timezonedetector/location/BinderLocationTimeZoneProvider;)V&#45;&gt;m::com.android.server.timezonedetector.location.BinderLocationTimeZoneProvider.handleOnProviderBound:()V</title>
<path fill="none" stroke="#64748b" d="M637.04,-455.81C644.52,-446.66 653.83,-435.26 661.95,-425.32"/>
<polygon fill="#64748b" stroke="#64748b" points="664.2,-427 667.09,-419.03 659.86,-423.45 664.2,-427"/>
</g>
<!-- m::com.android.server.timezonedetector.location.BinderLocationTimeZoneProvider.handleOnProviderBound:()V&#45;&gt;com.android.server.timezonedetector.location.LocationTimeZoneProvider.mSharedLock -->
<g id="edge22" class="edge">
<title>m::com.android.server.timezonedetector.location.BinderLocationTimeZoneProvider.handleOnProviderBound:()V&#45;&gt;com.android.server.timezonedetector.location.LocationTimeZoneProvider.mSharedLock</title>
<path fill="none" stroke="#dc2626" stroke-width="1.6" d="M818.61,-419.19C842.05,-429.89 859,-446.72 859,-473 859,-940 859,-940 859,-940 859,-960.37 848.66,-980.97 838.63,-996.17"/>
<polygon fill="#dc2626" stroke="#dc2626" stroke-width="1.6" points="836.33,-994.57 834.08,-1002.75 840.93,-997.76 836.33,-994.57"/>
<text text-anchor="middle" x="880" y="-708.8" font-family="Helvetica,sans-Serif" font-size="9.00" fill="#dc2626"> acquires</text>
</g>
<!-- m::com.android.server.timezonedetector.location.BinderLocationTimeZoneProvider$1.onProviderUnbound:()V -->
<g id="node18" class="node">
<title>m::com.android.server.timezonedetector.location.BinderLocationTimeZoneProvider$1.onProviderUnbound:()V</title>
<path fill="#eef2ff" stroke="#a5b4fc" d="M423,-574C423,-574 123,-574 123,-574 117,-574 111,-568 111,-562 111,-562 111,-550 111,-550 111,-544 117,-538 123,-538 123,-538 423,-538 423,-538 429,-538 435,-544 435,-550 435,-550 435,-562 435,-562 435,-568 429,-574 423,-574"/>
<text text-anchor="middle" x="273" y="-553.2" font-family="Helvetica,sans-Serif" font-size="11.00">BinderLocationTimeZoneProvider$1.onProviderUnbound</text>
</g>
<!-- m::com.android.server.timezonedetector.location.RealLocationTimeZoneProviderProxy.onUnbind:()V&#45;&gt;m::com.android.server.timezonedetector.location.BinderLocationTimeZoneProvider$1.onProviderUnbound:()V -->
<g id="edge24" class="edge">
<title>m::com.android.server.timezonedetector.location.RealLocationTimeZoneProviderProxy.onUnbind:()V&#45;&gt;m::com.android.server.timezonedetector.location.BinderLocationTimeZoneProvider$1.onProviderUnbound:()V</title>
<path fill="none" stroke="#64748b" d="M298.01,-610.81C293.92,-602 288.86,-591.13 284.37,-581.46"/>
<polygon fill="#64748b" stroke="#64748b" points="286.83,-580.1 280.91,-574.03 281.75,-582.46 286.83,-580.1"/>
</g>
<!-- m::com.android.server.timezonedetector.location.LocationTimeZoneProvider.handleTemporaryFailure:(Ljava/lang/String;)V -->
<g id="node19" class="node">
<title>m::com.android.server.timezonedetector.location.LocationTimeZoneProvider.handleTemporaryFailure:(Ljava/lang/String;)V</title>
<path fill="#eef2ff" stroke="#a5b4fc" d="M388.5,-492C388.5,-492 115.5,-492 115.5,-492 109.5,-492 103.5,-486 103.5,-480 103.5,-480 103.5,-468 103.5,-468 103.5,-462 109.5,-456 115.5,-456 115.5,-456 388.5,-456 388.5,-456 394.5,-456 400.5,-462 400.5,-468 400.5,-468 400.5,-480 400.5,-480 400.5,-486 394.5,-492 388.5,-492"/>
<text text-anchor="middle" x="252" y="-471.2" font-family="Helvetica,sans-Serif" font-size="11.00">LocationTimeZoneProvider.handleTemporaryFailure</text>
</g>
<!-- m::com.android.server.timezonedetector.location.BinderLocationTimeZoneProvider$1.onProviderUnbound:()V&#45;&gt;m::com.android.server.timezonedetector.location.LocationTimeZoneProvider.handleTemporaryFailure:(Ljava/lang/String;)V -->
<g id="edge25" class="edge">
<title>m::com.android.server.timezonedetector.location.BinderLocationTimeZoneProvider$1.onProviderUnbound:()V&#45;&gt;m::com.android.server.timezonedetector.location.LocationTimeZoneProvider.handleTemporaryFailure:(Ljava/lang/String;)V</title>
<path fill="none" stroke="#64748b" d="M268.44,-537.64C265.56,-526.66 261.79,-512.29 258.59,-500.09"/>
<polygon fill="#64748b" stroke="#64748b" points="261.22,-499.08 256.48,-492.05 255.8,-500.5 261.22,-499.08"/>
</g>
<!-- m::com.android.server.timezonedetector.location.LocationTimeZoneProvider.handleTemporaryFailure:(Ljava/lang/String;)V&#45;&gt;m::com.android.server.timezonedetector.location.LocationTimeZoneProvider.setCurrentState:(Lcom/android/server/timezonedetector/location/LocationTimeZoneProvider$ProviderState;Z)V -->
<g id="edge26" class="edge">
<title>m::com.android.server.timezonedetector.location.LocationTimeZoneProvider.handleTemporaryFailure:(Ljava/lang/String;)V&#45;&gt;m::com.android.server.timezonedetector.location.LocationTimeZoneProvider.setCurrentState:(Lcom/android/server/timezonedetector/location/LocationTimeZoneProvider$ProviderState;Z)V</title>
<path fill="none" stroke="#64748b" d="M259.75,-455.81C263.72,-447 268.62,-436.13 272.98,-426.46"/>
<polygon fill="#64748b" stroke="#64748b" points="275.59,-427.47 276.33,-419.03 270.49,-425.17 275.59,-427.47"/>
</g>
</g>
</svg>
