<?xml version="1.0" encoding="UTF-8" standalone="no"?>
<!DOCTYPE svg PUBLIC "-//W3C//DTD SVG 1.1//EN"
 "http://www.w3.org/Graphics/SVG/1.1/DTD/svg11.dtd">
<!-- Generated by graphviz version 2.43.0 (0)
 -->
<!-- Title: cycle Pages: 1 -->
<svg width="825pt" height="1257pt"
 viewBox="0.00 0.00 825.00 1257.00" xmlns="http://www.w3.org/2000/svg" xmlns:xlink="http://www.w3.org/1999/xlink">
<g id="graph0" class="graph" transform="scale(1 1) rotate(0) translate(4 1253)">
<title>cycle</title>
<polygon fill="white" stroke="transparent" points="-4,4 -4,-1253 821,-1253 821,4 -4,4"/>
<!-- com.android.server.companion.securechannel.SecureChannel.mHandshakeLock -->
<g id="node1" class="node">
<title>com.android.server.companion.securechannel.SecureChannel.mHandshakeLock</title>
<path fill="#fee2e2" stroke="#dc2626" stroke-width="2" d="M798.5,-1249C798.5,-1249 586.5,-1249 586.5,-1249 580.5,-1249 574.5,-1243 574.5,-1237 574.5,-1237 574.5,-1225 574.5,-1225 574.5,-1219 580.5,-1213 586.5,-1213 586.5,-1213 798.5,-1213 798.5,-1213 804.5,-1213 810.5,-1219 810.5,-1225 810.5,-1225 810.5,-1237 810.5,-1237 810.5,-1243 804.5,-1249 798.5,-1249"/>
<text text-anchor="middle" x="692.5" y="-1227.6" font-family="Helvetica,sans-Serif" font-size="13.00">SecureChannel.mHandshakeLock</text>
</g>
<!-- m::com.android.server.companion.securechannel.SecureChannel.exchangeHandshake:()V -->
<g id="node4" class="node">
<title>m::com.android.server.companion.securechannel.SecureChannel.exchangeHandshake:()V</title>
<path fill="#eef2ff" stroke="#a5b4fc" d="M715,-1167C715,-1167 524,-1167 524,-1167 518,-1167 512,-1161 512,-1155 512,-1155 512,-1143 512,-1143 512,-1137 518,-1131 524,-1131 524,-1131 715,-1131 715,-1131 721,-1131 727,-1137 727,-1143 727,-1143 727,-1155 727,-1155 727,-1161 721,-1167 715,-1167"/>
<text text-anchor="middle" x="619.5" y="-1146.2" font-family="Helvetica,sans-Serif" font-size="11.00">SecureChannel.exchangeHandshake</text>
</g>
<!-- com.android.server.companion.securechannel.SecureChannel.mHandshakeLock&#45;&gt;m::com.android.server.companion.securechannel.SecureChannel.exchangeHandshake:()V -->
<g id="edge1" class="edge">
<title>com.android.server.companion.securechannel.SecureChannel.mHandshakeLock&#45;&gt;m::com.android.server.companion.securechannel.SecureChannel.exchangeHandshake:()V</title>
<path fill="none" stroke="#dc2626" stroke-width="1.6" d="M676.66,-1212.64C666.07,-1201.03 652.01,-1185.63 640.48,-1173"/>
<polygon fill="#dc2626" stroke="#dc2626" stroke-width="1.6" points="642.52,-1171.07 635.06,-1167.05 638.38,-1174.85 642.52,-1171.07"/>
<text text-anchor="middle" x="677.5" y="-1187.8" font-family="Helvetica,sans-Serif" font-size="9.00" fill="#dc2626"> held in</text>
</g>
<!-- com.android.server.companion.transport.CompanionTransportManager.mTransports -->
<g id="node2" class="node">
<title>com.android.server.companion.transport.CompanionTransportManager.mTransports</title>
<path fill="#fee2e2" stroke="#dc2626" stroke-width="2" d="M376.5,-264C376.5,-264 104.5,-264 104.5,-264 98.5,-264 92.5,-258 92.5,-252 92.5,-252 92.5,-240 92.5,-240 92.5,-234 98.5,-228 104.5,-228 104.5,-228 376.5,-228 376.5,-228 382.5,-228 388.5,-234 388.5,-240 388.5,-240 388.5,-252 388.5,-252 388.5,-258 382.5,-264 376.5,-264"/>
<text text-anchor="middle" x="240.5" y="-242.6" font-family="Helvetica,sans-Serif" font-size="13.00">CompanionTransportManager.mTransports</text>
</g>
<!-- m::com.android.server.companion.transport.CompanionTransportManager.sendMessage:(I[B[I)Landroid/util/SparseArray; -->
<g id="node6" class="node">
<title>m::com.android.server.companion.transport.CompanionTransportManager.sendMessage:(I[B[I)Landroid/util/SparseArray;</title>
<path fill="#eef2ff" stroke="#a5b4fc" d="M376.5,-182C376.5,-182 144.5,-182 144.5,-182 138.5,-182 132.5,-176 132.5,-170 132.5,-170 132.5,-158 132.5,-158 132.5,-152 138.5,-146 144.5,-146 144.5,-146 376.5,-146 376.5,-146 382.5,-146 388.5,-152 388.5,-158 388.5,-158 388.5,-170 388.5,-170 388.5,-176 382.5,-182 376.5,-182"/>
<text text-anchor="middle" x="260.5" y="-161.2" font-family="Helvetica,sans-Serif" font-size="11.00">CompanionTransportManager.sendMessage</text>
</g>
<!-- com.android.server.companion.transport.CompanionTransportManager.mTransports&#45;&gt;m::com.android.server.companion.transport.CompanionTransportManager.sendMessage:(I[B[I)Landroid/util/SparseArray; -->
<g id="edge4" class="edge">
<title>com.android.server.companion.transport.CompanionTransportManager.mTransports&#45;&gt;m::com.android.server.companion.transport.CompanionTransportManager.sendMessage:(I[B[I)Landroid/util/SparseArray;</title>
<path fill="none" stroke="#dc2626" stroke-width="1.6" d="M244.84,-227.64C247.58,-216.66 251.18,-202.29 254.23,-190.09"/>
<polygon fill="#dc2626" stroke="#dc2626" stroke-width="1.6" points="257.01,-190.49 256.24,-182.05 251.58,-189.13 257.01,-190.49"/>
<text text-anchor="middle" x="269.5" y="-202.8" font-family="Helvetica,sans-Serif" font-size="9.00" fill="#dc2626"> held in</text>
</g>
<!-- com.android.server.companion.transport.Transport.mRemoteIn -->
<g id="node3" class="node">
<title>com.android.server.companion.transport.Transport.mRemoteIn</title>
<path fill="#fee2e2" stroke="#dc2626" stroke-width="2" d="M685.5,-1012C685.5,-1012 551.5,-1012 551.5,-1012 545.5,-1012 539.5,-1006 539.5,-1000 539.5,-1000 539.5,-988 539.5,-988 539.5,-982 545.5,-976 551.5,-976 551.5,-976 685.5,-976 685.5,-976 691.5,-976 697.5,-982 697.5,-988 697.5,-988 697.5,-1000 697.5,-1000 697.5,-1006 691.5,-1012 685.5,-1012"/>
<text text-anchor="middle" x="618.5" y="-990.6" font-family="Helvetica,sans-Serif" font-size="13.00">Transport.mRemoteIn</text>
</g>
<!-- m::com.android.server.companion.transport.RawTransport.receiveMessage:()V -->
<g id="node13" class="node">
<title>m::com.android.server.companion.transport.RawTransport.receiveMessage:()V</title>
<path fill="#eef2ff" stroke="#a5b4fc" d="M695,-930C695,-930 534,-930 534,-930 528,-930 522,-924 522,-918 522,-918 522,-906 522,-906 522,-900 528,-894 534,-894 534,-894 695,-894 695,-894 701,-894 707,-900 707,-906 707,-906 707,-918 707,-918 707,-924 701,-930 695,-930"/>
<text text-anchor="middle" x="614.5" y="-909.2" font-family="Helvetica,sans-Serif" font-size="11.00">RawTransport.receiveMessage</text>
</g>
<!-- com.android.server.companion.transport.Transport.mRemoteIn&#45;&gt;m::com.android.server.companion.transport.RawTransport.receiveMessage:()V -->
<g id="edge12" class="edge">
<title>com.android.server.companion.transport.Transport.mRemoteIn&#45;&gt;m::com.android.server.companion.transport.RawTransport.receiveMessage:()V</title>
<path fill="none" stroke="#dc2626" stroke-width="1.6" d="M617.63,-975.64C617.08,-964.66 616.36,-950.29 615.75,-938.09"/>
<polygon fill="#dc2626" stroke="#dc2626" stroke-width="1.6" points="618.55,-937.9 615.35,-930.05 612.96,-938.18 618.55,-937.9"/>
<text text-anchor="middle" x="634.5" y="-950.8" font-family="Helvetica,sans-Serif" font-size="9.00" fill="#dc2626"> held in</text>
</g>
<!-- m::com.android.server.companion.securechannel.SecureChannel.readMessage:(Lcom/android/server/companion/securechannel/SecureChannel$MessageType;)[B -->
<g id="node5" class="node">
<title>m::com.android.server.companion.securechannel.SecureChannel.readMessage:(Lcom/android/server/companion/securechannel/SecureChannel$MessageType;)[B</title>
<path fill="#eef2ff" stroke="#a5b4fc" d="M695.5,-1094C695.5,-1094 543.5,-1094 543.5,-1094 537.5,-1094 531.5,-1088 531.5,-1082 531.5,-1082 531.5,-1070 531.5,-1070 531.5,-1064 537.5,-1058 543.5,-1058 543.5,-1058 695.5,-1058 695.5,-1058 701.5,-1058 707.5,-1064 707.5,-1070 707.5,-1070 707.5,-1082 707.5,-1082 707.5,-1088 701.5,-1094 695.5,-1094"/>
<text text-anchor="middle" x="619.5" y="-1073.2" font-family="Helvetica,sans-Serif" font-size="11.00">SecureChannel.readMessage</text>
</g>
<!-- m::com.android.server.companion.securechannel.SecureChannel.exchangeHandshake:()V&#45;&gt;m::com.android.server.companion.securechannel.SecureChannel.readMessage:(Lcom/android/server/companion/securechannel/SecureChannel$MessageType;)[B -->
<g id="edge2" class="edge">
<title>m::com.android.server.companion.securechannel.SecureChannel.exchangeHandshake:()V&#45;&gt;m::com.android.server.companion.securechannel.SecureChannel.readMessage:(Lcom/android/server/companion/securechannel/SecureChannel$MessageType;)[B</title>
<path fill="none" stroke="#64748b" d="M619.5,-1130.81C619.5,-1122.18 619.5,-1111.56 619.5,-1102.03"/>
<polygon fill="#64748b" stroke="#64748b" points="622.3,-1102.03 619.5,-1094.03 616.7,-1102.03 622.3,-1102.03"/>
</g>
<!-- m::com.android.server.companion.securechannel.SecureChannel.readMessage:(Lcom/android/server/companion/securechannel/SecureChannel$MessageType;)[B&#45;&gt;com.android.server.companion.transport.Transport.mRemoteIn -->
<g id="edge3" class="edge">
<title>m::com.android.server.companion.securechannel.SecureChannel.readMessage:(Lcom/android/server/companion/securechannel/SecureChannel$MessageType;)[B&#45;&gt;com.android.server.companion.transport.Transport.mRemoteIn</title>
<path fill="none" stroke="#dc2626" stroke-width="1.6" d="M619.28,-1057.64C619.15,-1046.66 618.97,-1032.29 618.81,-1020.09"/>
<polygon fill="#dc2626" stroke="#dc2626" stroke-width="1.6" points="621.61,-1020.01 618.71,-1012.05 616.01,-1020.08 621.61,-1020.01"/>
<text text-anchor="middle" x="640.5" y="-1032.8" font-family="Helvetica,sans-Serif" font-size="9.00" fill="#dc2626"> acquires</text>
</g>
<!-- m::com.android.server.companion.transport.Transport.sendMessage:(I[B)Ljava/util/concurrent/Future; -->
<g id="node7" class="node">
<title>m::com.android.server.companion.transport.Transport.sendMessage:(I[B)Ljava/util/concurrent/Future;</title>
<path fill="#eef2ff" stroke="#a5b4fc" d="M368,-109C368,-109 245,-109 245,-109 239,-109 233,-103 233,-97 233,-97 233,-85 233,-85 233,-79 239,-73 245,-73 245,-73 368,-73 368,-73 374,-73 380,-79 380,-85 380,-85 380,-97 380,-97 380,-103 374,-109 368,-109"/>
<text text-anchor="middle" x="306.5" y="-88.2" font-family="Helvetica,sans-Serif" font-size="11.00">Transport.sendMessage</text>
</g>
<!-- m::com.android.server.companion.transport.CompanionTransportManager.sendMessage:(I[B[I)Landroid/util/SparseArray;&#45;&gt;m::com.android.server.companion.transport.Transport.sendMessage:(I[B)Ljava/util/concurrent/Future; -->
<g id="edge5" class="edge">
<title>m::com.android.server.companion.transport.CompanionTransportManager.sendMessage:(I[B[I)Landroid/util/SparseArray;&#45;&gt;m::com.android.server.companion.transport.Transport.sendMessage:(I[B)Ljava/util/concurrent/Future;</title>
<path fill="none" stroke="#64748b" d="M271.64,-145.81C277.46,-136.83 284.67,-125.69 291.02,-115.89"/>
<polygon fill="#64748b" stroke="#64748b" points="293.47,-117.27 295.47,-109.03 288.77,-114.22 293.47,-117.27"/>
</g>
<!-- m::com.android.server.companion.transport.Transport.sendAndForget:(I[B)Ljava/util/concurrent/Future; -->
<g id="node8" class="node">
<title>m::com.android.server.companion.transport.Transport.sendAndForget:(I[B)Ljava/util/concurrent/Future;</title>
<path fill="#eef2ff" stroke="#a5b4fc" d="M441,-36C441,-36 310,-36 310,-36 304,-36 298,-30 298,-24 298,-24 298,-12 298,-12 298,-6 304,0 310,0 310,0 441,0 441,0 447,0 453,-6 453,-12 453,-12 453,-24 453,-24 453,-30 447,-36 441,-36"/>
<text text-anchor="middle" x="375.5" y="-15.2" font-family="Helvetica,sans-Serif" font-size="11.00">Transport.sendAndForget</text>
</g>
<!-- m::com.android.server.companion.transport.Transport.sendMessage:(I[B)Ljava/util/concurrent/Future;&#45;&gt;m::com.android.server.companion.transport.Transport.sendAndForget:(I[B)Ljava/util/concurrent/Future; -->
<g id="edge6" class="edge">
<title>m::com.android.server.companion.transport.Transport.sendMessage:(I[B)Ljava/util/concurrent/Future;&#45;&gt;m::com.android.server.companion.transport.Transport.sendAndForget:(I[B)Ljava/util/concurrent/Future;</title>
<path fill="none" stroke="#64748b" d="M323.2,-72.81C332.19,-63.57 343.39,-52.04 353.12,-42.03"/>
<polygon fill="#64748b" stroke="#64748b" points="355.38,-43.72 358.95,-36.03 351.37,-39.81 355.38,-43.72"/>
</g>
<!-- m::com.android.server.companion.transport.SecureTransport.sendMessage:(II[B)V -->
<g id="node9" class="node">
<title>m::com.android.server.companion.transport.SecureTransport.sendMessage:(II[B)V</title>
<path fill="#eef2ff" stroke="#a5b4fc" d="M512,-711C512,-711 351,-711 351,-711 345,-711 339,-705 339,-699 339,-699 339,-687 339,-687 339,-681 345,-675 351,-675 351,-675 512,-675 512,-675 518,-675 524,-681 524,-687 524,-687 524,-699 524,-699 524,-705 518,-711 512,-711"/>
<text text-anchor="middle" x="431.5" y="-690.2" font-family="Helvetica,sans-Serif" font-size="11.00">SecureTransport.sendMessage</text>
</g>
<!-- m::com.android.server.companion.transport.Transport.sendAndForget:(I[B)Ljava/util/concurrent/Future;&#45;&gt;m::com.android.server.companion.transport.SecureTransport.sendMessage:(II[B)V -->
<g id="edge7" class="edge">
<title>m::com.android.server.companion.transport.Transport.sendAndForget:(I[B)Ljava/util/concurrent/Future;&#45;&gt;m::com.android.server.companion.transport.SecureTransport.sendMessage:(II[B)V</title>
<path fill="none" stroke="#64748b" d="M399.9,-36.26C414.99,-49.12 431.5,-68.18 431.5,-90 431.5,-621 431.5,-621 431.5,-621 431.5,-636.07 431.5,-652.93 431.5,-666.44"/>
<polygon fill="#64748b" stroke="#64748b" points="428.7,-666.78 431.5,-674.78 434.3,-666.78 428.7,-666.78"/>
</g>
<!-- m::com.android.server.companion.transport.SecureTransport.establishSecureConnection:()V -->
<g id="node10" class="node">
<title>m::com.android.server.companion.transport.SecureTransport.establishSecureConnection:()V</title>
<path fill="#eef2ff" stroke="#a5b4fc" d="M715.5,-638C715.5,-638 481.5,-638 481.5,-638 475.5,-638 469.5,-632 469.5,-626 469.5,-626 469.5,-614 469.5,-614 469.5,-608 475.5,-602 481.5,-602 481.5,-602 715.5,-602 715.5,-602 721.5,-602 727.5,-608 727.5,-614 727.5,-614 727.5,-626 727.5,-626 727.5,-632 721.5,-638 715.5,-638"/>
<text text-anchor="middle" x="598.5" y="-617.2" font-family="Helvetica,sans-Serif" font-size="11.00">SecureTransport.establishSecureConnection</text>
</g>
<!-- m::com.android.server.companion.transport.SecureTransport.sendMessage:(II[B)V&#45;&gt;m::com.android.server.companion.transport.SecureTransport.establishSecureConnection:()V -->
<g id="edge8" class="edge">
<title>m::com.android.server.companion.transport.SecureTransport.sendMessage:(II[B)V&#45;&gt;m::com.android.server.companion.transport.SecureTransport.establishSecureConnection:()V</title>
<path fill="none" stroke="#64748b" d="M471.5,-674.99C495.29,-664.88 525.61,-651.99 550.66,-641.34"/>
<polygon fill="#64748b" stroke="#64748b" points="551.98,-643.82 558.25,-638.11 549.79,-638.67 551.98,-643.82"/>
</g>
<!-- m::com.android.server.companion.transport.SecureTransport.close:()V -->
<g id="node16" class="node">
<title>m::com.android.server.companion.transport.SecureTransport.close:()V</title>
<path fill="#eef2ff" stroke="#a5b4fc" d="M373.5,-638C373.5,-638 259.5,-638 259.5,-638 253.5,-638 247.5,-632 247.5,-626 247.5,-626 247.5,-614 247.5,-614 247.5,-608 253.5,-602 259.5,-602 259.5,-602 373.5,-602 373.5,-602 379.5,-602 385.5,-608 385.5,-614 385.5,-614 385.5,-626 385.5,-626 385.5,-632 379.5,-638 373.5,-638"/>
<text text-anchor="middle" x="316.5" y="-617.2" font-family="Helvetica,sans-Serif" font-size="11.00">SecureTransport.close</text>
</g>
<!-- m::com.android.server.companion.transport.SecureTransport.sendMessage:(II[B)V&#45;&gt;m::com.android.server.companion.transport.SecureTransport.close:()V -->
<g id="edge16" class="edge">
<title>m::com.android.server.companion.transport.SecureTransport.sendMessage:(II[B)V&#45;&gt;m::com.android.server.companion.transport.SecureTransport.close:()V</title>
<path fill="none" stroke="#64748b" d="M403.95,-674.99C388.14,-665.23 368.13,-652.88 351.24,-642.45"/>
<polygon fill="#64748b" stroke="#64748b" points="352.5,-639.93 344.22,-638.11 349.56,-644.7 352.5,-639.93"/>
</g>
<!-- m::com.android.server.companion.securechannel.SecureChannel.establishSecureConnection:()V -->
<g id="node11" class="node">
<title>m::com.android.server.companion.securechannel.SecureChannel.establishSecureConnection:()V</title>
<path fill="#eef2ff" stroke="#a5b4fc" d="M714,-565C714,-565 487,-565 487,-565 481,-565 475,-559 475,-553 475,-553 475,-541 475,-541 475,-535 481,-529 487,-529 487,-529 714,-529 714,-529 720,-529 726,-535 726,-541 726,-541 726,-553 726,-553 726,-559 720,-565 714,-565"/>
<text text-anchor="middle" x="600.5" y="-544.2" font-family="Helvetica,sans-Serif" font-size="11.00">SecureChannel.establishSecureConnection</text>
</g>
<!-- m::com.android.server.companion.transport.SecureTransport.establishSecureConnection:()V&#45;&gt;m::com.android.server.companion.securechannel.SecureChannel.establishSecureConnection:()V -->
<g id="edge9" class="edge">
<title>m::com.android.server.companion.transport.SecureTransport.establishSecureConnection:()V&#45;&gt;m::com.android.server.companion.securechannel.SecureChannel.establishSecureConnection:()V</title>
<path fill="none" stroke="#64748b" d="M598.98,-601.81C599.23,-593.18 599.53,-582.56 599.79,-573.03"/>
<polygon fill="#64748b" stroke="#64748b" points="602.59,-573.1 600.02,-565.03 597,-572.95 602.59,-573.1"/>
</g>
<!-- m::com.android.server.companion.securechannel.SecureChannel.initiateHandshake:()V -->
<g id="node12" class="node">
<title>m::com.android.server.companion.securechannel.SecureChannel.initiateHandshake:()V</title>
<path fill="#eef2ff" stroke="#a5b4fc" d="M805,-492C805,-492 628,-492 628,-492 622,-492 616,-486 616,-480 616,-480 616,-468 616,-468 616,-462 622,-456 628,-456 628,-456 805,-456 805,-456 811,-456 817,-462 817,-468 817,-468 817,-480 817,-480 817,-486 811,-492 805,-492"/>
<text text-anchor="middle" x="716.5" y="-471.2" font-family="Helvetica,sans-Serif" font-size="11.00">SecureChannel.initiateHandshake</text>
</g>
<!-- m::com.android.server.companion.securechannel.SecureChannel.establishSecureConnection:()V&#45;&gt;m::com.android.server.companion.securechannel.SecureChannel.initiateHandshake:()V -->
<g id="edge10" class="edge">
<title>m::com.android.server.companion.securechannel.SecureChannel.establishSecureConnection:()V&#45;&gt;m::com.android.server.companion.securechannel.SecureChannel.initiateHandshake:()V</title>
<path fill="none" stroke="#64748b" d="M628.28,-528.99C644.24,-519.23 664.42,-506.88 681.45,-496.45"/>
<polygon fill="#64748b" stroke="#64748b" points="683.18,-498.68 688.54,-492.11 680.25,-493.9 683.18,-498.68"/>
</g>
<!-- m::com.android.server.companion.securechannel.SecureChannel.initiateHandshake:()V&#45;&gt;com.android.server.companion.securechannel.SecureChannel.mHandshakeLock -->
<g id="edge11" class="edge">
<title>m::com.android.server.companion.securechannel.SecureChannel.initiateHandshake:()V&#45;&gt;com.android.server.companion.securechannel.SecureChannel.mHandshakeLock</title>
<path fill="none" stroke="#dc2626" stroke-width="1.6" d="M737,-492.05C750.42,-505.21 765.5,-524.73 765.5,-546 765.5,-1150 765.5,-1150 765.5,-1150 765.5,-1173.95 747.43,-1193.87 729.27,-1207.84"/>
<polygon fill="#dc2626" stroke="#dc2626" stroke-width="1.6" points="727.41,-1205.73 722.61,-1212.72 730.72,-1210.25 727.41,-1205.73"/>
<text text-anchor="middle" x="786.5" y="-836.8" font-family="Helvetica,sans-Serif" font-size="9.00" fill="#dc2626"> acquires</text>
</g>
<!-- m::com.android.server.companion.transport.Transport.handleMessage:(II[B)V -->
<g id="node14" class="node">
<title>m::com.android.server.companion.transport.Transport.handleMessage:(II[B)V</title>
<path fill="#eef2ff" stroke="#a5b4fc" d="M663.5,-857C663.5,-857 529.5,-857 529.5,-857 523.5,-857 517.5,-851 517.5,-845 517.5,-845 517.5,-833 517.5,-833 517.5,-827 523.5,-821 529.5,-821 529.5,-821 663.5,-821 663.5,-821 669.5,-821 675.5,-827 675.5,-833 675.5,-833 675.5,-845 675.5,-845 675.5,-851 669.5,-857 663.5,-857"/>
<text text-anchor="middle" x="596.5" y="-836.2" font-family="Helvetica,sans-Serif" font-size="11.00">Transport.handleMessage</text>
</g>
<!-- m::com.android.server.companion.transport.RawTransport.receiveMessage:()V&#45;&gt;m::com.android.server.companion.transport.Transport.handleMessage:(II[B)V -->
<g id="edge13" class="edge">
<title>m::com.android.server.companion.transport.RawTransport.receiveMessage:()V&#45;&gt;m::com.android.server.companion.transport.Transport.handleMessage:(II[B)V</title>
<path fill="none" stroke="#64748b" d="M610.14,-893.81C607.95,-885.18 605.26,-874.56 602.85,-865.03"/>
<polygon fill="#64748b" stroke="#64748b" points="605.5,-864.1 600.82,-857.03 600.07,-865.47 605.5,-864.1"/>
</g>
<!-- m::com.android.server.companion.transport.Transport.processRequest:(II[B)V -->
<g id="node15" class="node">
<title>m::com.android.server.companion.transport.Transport.processRequest:(II[B)V</title>
<path fill="#eef2ff" stroke="#a5b4fc" d="M594.5,-784C594.5,-784 458.5,-784 458.5,-784 452.5,-784 446.5,-778 446.5,-772 446.5,-772 446.5,-760 446.5,-760 446.5,-754 452.5,-748 458.5,-748 458.5,-748 594.5,-748 594.5,-748 600.5,-748 606.5,-754 606.5,-760 606.5,-760 606.5,-772 606.5,-772 606.5,-778 600.5,-784 594.5,-784"/>
<text text-anchor="middle" x="526.5" y="-763.2" font-family="Helvetica,sans-Serif" font-size="11.00">Transport.processRequest</text>
</g>
<!-- m::com.android.server.companion.transport.Transport.handleMessage:(II[B)V&#45;&gt;m::com.android.server.companion.transport.Transport.processRequest:(II[B)V -->
<g id="edge14" class="edge">
<title>m::com.android.server.companion.transport.Transport.handleMessage:(II[B)V&#45;&gt;m::com.android.server.companion.transport.Transport.processRequest:(II[B)V</title>
<path fill="none" stroke="#64748b" d="M579.55,-820.81C570.35,-811.48 558.86,-799.83 548.93,-789.75"/>
<polygon fill="#64748b" stroke="#64748b" points="550.9,-787.76 543.29,-784.03 546.91,-791.69 550.9,-787.76"/>
</g>
<!-- m::com.android.server.companion.transport.Transport.processRequest:(II[B)V&#45;&gt;m::com.android.server.companion.transport.SecureTransport.sendMessage:(II[B)V -->
<g id="edge15" class="edge">
<title>m::com.android.server.companion.transport.Transport.processRequest:(II[B)V&#45;&gt;m::com.android.server.companion.transport.SecureTransport.sendMessage:(II[B)V</title>
<path fill="none" stroke="#64748b" d="M503.5,-747.81C490.67,-738.22 474.54,-726.17 460.81,-715.91"/>
<polygon fill="#64748b" stroke="#64748b" points="462.37,-713.58 454.29,-711.03 459.02,-718.06 462.37,-713.58"/>
</g>
<!-- m::com.android.server.companion.transport.Transport.close:()V -->
<g id="node17" class="node">
<title>m::com.android.server.companion.transport.Transport.close:()V</title>
<path fill="#eef2ff" stroke="#a5b4fc" d="M283,-565C283,-565 206,-565 206,-565 200,-565 194,-559 194,-553 194,-553 194,-541 194,-541 194,-535 200,-529 206,-529 206,-529 283,-529 283,-529 289,-529 295,-535 295,-541 295,-541 295,-553 295,-553 295,-559 289,-565 283,-565"/>
<text text-anchor="middle" x="244.5" y="-544.2" font-family="Helvetica,sans-Serif" font-size="11.00">Transport.close</text>
</g>
<!-- m::com.android.server.companion.transport.SecureTransport.close:()V&#45;&gt;m::com.android.server.companion.transport.Transport.close:()V -->
<g id="edge17" class="edge">
<title>m::com.android.server.companion.transport.SecureTransport.close:()V&#45;&gt;m::com.android.server.companion.transport.Transport.close:()V</title>
<path fill="none" stroke="#64748b" d="M299.07,-601.81C289.61,-592.48 277.79,-580.83 267.57,-570.75"/>
<polygon fill="#64748b" stroke="#64748b" points="269.43,-568.65 261.77,-565.03 265.5,-572.64 269.43,-568.65"/>
</g>
<!-- m::com.android.server.companion.transport.CompanionTransportManager$$ExternalSyntheticLambda2.onClosed:(Lcom/android/server/companion/transport/Transport;)V -->
<g id="node18" class="node">
<title>m::com.android.server.companion.transport.CompanionTransportManager$$ExternalSyntheticLambda2.onClosed:(Lcom/android/server/companion/transport/Transport;)V</title>
<path fill="#eef2ff" stroke="#a5b4fc" d="M381,-492C381,-492 12,-492 12,-492 6,-492 0,-486 0,-480 0,-480 0,-468 0,-468 0,-462 6,-456 12,-456 12,-456 381,-456 381,-456 387,-456 393,-462 393,-468 393,-468 393,-480 393,-480 393,-486 387,-492 381,-492"/>
<text text-anchor="middle" x="196.5" y="-471.2" font-family="Helvetica,sans-Serif" font-size="11.00">CompanionTransportManager$$ExternalSyntheticLambda2.onClosed</text>
</g>
<!-- m::com.android.server.companion.transport.Transport.close:()V&#45;&gt;m::com.android.server.companion.transport.CompanionTransportManager$$ExternalSyntheticLambda2.onClosed:(Lcom/android/server/companion/transport/Transport;)V -->
<g id="edge18" class="edge">
<title>m::com.android.server.companion.transport.Transport.close:()V&#45;&gt;m::com.android.server.companion.transport.CompanionTransportManager$$ExternalSyntheticLambda2.onClosed:(Lcom/android/server/companion/transport/Transport;)V</title>
<path fill="none" stroke="#64748b" d="M232.88,-528.81C226.81,-519.83 219.28,-508.69 212.65,-498.89"/>
<polygon fill="#64748b" stroke="#64748b" points="214.81,-497.09 208.01,-492.03 210.17,-500.22 214.81,-497.09"/>
</g>
<!-- m::com.android.server.companion.transport.CompanionTransportManager.detachSystemDataTransport:(Lcom/android/server/companion/transport/Transport;)V -->
<g id="node19" class="node">
<title>m::com.android.server.companion.transport.CompanionTransportManager.detachSystemDataTransport:(Lcom/android/server/companion/transport/Transport;)V</title>
<path fill="#eef2ff" stroke="#a5b4fc" d="M369.5,-419C369.5,-419 55.5,-419 55.5,-419 49.5,-419 43.5,-413 43.5,-407 43.5,-407 43.5,-395 43.5,-395 43.5,-389 49.5,-383 55.5,-383 55.5,-383 369.5,-383 369.5,-383 375.5,-383 381.5,-389 381.5,-395 381.5,-395 381.5,-407 381.5,-407 381.5,-413 375.5,-419 369.5,-419"/>
<text text-anchor="middle" x="212.5" y="-398.2" font-family="Helvetica,sans-Serif" font-size="11.00">CompanionTransportManager.detachSystemDataTransport</text>
</g>
<!-- m::com.android.server.companion.transport.CompanionTransportManager$$ExternalSyntheticLambda2.onClosed:(Lcom/android/server/companion/transport/Transport;)V&#45;&gt;m::com.android.server.companion.transport.CompanionTransportManager.detachSystemDataTransport:(Lcom/android/server/companion/transport/Transport;)V -->
<g id="edge19" class="edge">
<title>m::com.android.server.companion.transport.CompanionTransportManager$$ExternalSyntheticLambda2.onClosed:(Lcom/android/server/companion/transport/Transport;)V&#45;&gt;m::com.android.server.companion.transport.CompanionTransportManager.detachSystemDataTransport:(Lcom/android/server/companion/transport/Transport;)V</title>
<path fill="none" stroke="#64748b" d="M200.37,-455.81C202.32,-447.18 204.71,-436.56 206.86,-427.03"/>
<polygon fill="#64748b" stroke="#64748b" points="209.64,-427.45 208.66,-419.03 204.17,-426.22 209.64,-427.45"/>
</g>
<!-- m::com.android.server.companion.transport.CompanionTransportManager.detachSystemDataTransport:(I)V -->
<g id="node20" class="node">
<title>m::com.android.server.companion.transport.CompanionTransportManager.detachSystemDataTransport:(I)V</title>
<path fill="#eef2ff" stroke="#a5b4fc" d="M379.5,-346C379.5,-346 65.5,-346 65.5,-346 59.5,-346 53.5,-340 53.5,-334 53.5,-334 53.5,-322 53.5,-322 53.5,-316 59.5,-310 65.5,-310 65.5,-310 379.5,-310 379.5,-310 385.5,-310 391.5,-316 391.5,-322 391.5,-322 391.5,-334 391.5,-334 391.5,-340 385.5,-346 379.5,-346"/>
<text text-anchor="middle" x="222.5" y="-325.2" font-family="Helvetica,sans-Serif" font-size="11.00">CompanionTransportManager.detachSystemDataTransport</text>
</g>
<!-- m::com.android.server.companion.transport.CompanionTransportManager.detachSystemDataTransport:(Lcom/android/server/companion/transport/Transport;)V&#45;&gt;m::com.android.server.companion.transport.CompanionTransportManager.detachSystemDataTransport:(I)V -->
<g id="edge20" class="edge">
<title>m::com.android.server.companion.transport.CompanionTransportManager.detachSystemDataTransport:(Lcom/android/server/companion/transport/Transport;)V&#45;&gt;m::com.android.server.companion.transport.CompanionTransportManager.detachSystemDataTransport:(I)V</title>
<path fill="none" stroke="#64748b" d="M214.92,-382.81C216.14,-374.18 217.63,-363.56 218.97,-354.03"/>
<polygon fill="#64748b" stroke="#64748b" points="221.76,-354.34 220.1,-346.03 216.21,-353.56 221.76,-354.34"/>
</g>
<!-- m::com.android.server.companion.transport.CompanionTransportManager.detachSystemDataTransport:(I)V&#45;&gt;com.android.server.companion.transport.CompanionTransportManager.mTransports -->
<g id="edge21" class="edge">
<title>m::com.android.server.companion.transport.CompanionTransportManager.detachSystemDataTransport:(I)V&#45;&gt;com.android.server.companion.transport.CompanionTransportManager.mTransports</title>
<path fill="none" stroke="#dc2626" stroke-width="1.6" d="M226.41,-309.64C228.88,-298.66 232.11,-284.29 234.86,-272.09"/>
<polygon fill="#dc2626" stroke="#dc2626" stroke-width="1.6" points="237.64,-272.47 236.66,-264.05 232.18,-271.24 237.64,-272.47"/>
<text text-anchor="middle" x="254.5" y="-284.8" font-family="Helvetica,sans-Serif" font-size="9.00" fill="#dc2626"> acquires</text>
</g>
</g>
</svg>
