<?xml version="1.0" encoding="UTF-8" standalone="no"?>
<!DOCTYPE svg PUBLIC "-//W3C//DTD SVG 1.1//EN"
 "http://www.w3.org/Graphics/SVG/1.1/DTD/svg11.dtd">
<!-- Generated by graphviz version 2.43.0 (0)
 -->
<!-- Title: cycle Pages: 1 -->
<svg width="418pt" height="436pt"
 viewBox="0.00 0.00 417.50 436.00" xmlns="http://www.w3.org/2000/svg" xmlns:xlink="http://www.w3.org/1999/xlink">
<g id="graph0" class="graph" transform="scale(1 1) rotate(0) translate(4 432)">
<title>cycle</title>
<polygon fill="white" stroke="transparent" points="-4,4 -4,-432 413.5,-432 413.5,4 -4,4"/>
<!-- com.android.server.companion.datatransfer.continuity.tasks.RemoteTaskStore.mRemoteDeviceTaskLists -->
<g id="node1" class="node">
<title>com.android.server.companion.datatransfer.continuity.tasks.RemoteTaskStore.mRemoteDeviceTaskLists</title>
<path fill="#fee2e2" stroke="#dc2626" stroke-width="2" d="M397.5,-428C397.5,-428 118.5,-428 118.5,-428 112.5,-428 106.5,-422 106.5,-416 106.5,-416 106.5,-404 106.5,-404 106.5,-398 112.5,-392 118.5,-392 118.5,-392 397.5,-392 397.5,-392 403.5,-392 409.5,-398 409.5,-404 409.5,-404 409.5,-416 409.5,-416 409.5,-422 403.5,-428 397.5,-428"/>
<text text-anchor="middle" x="258" y="-406.6" font-family="Helvetica,sans-Serif" font-size="13.00">RemoteTaskStore.mRemoteDeviceTaskLists</text>
</g>
<!-- m::com.android.server.companion.datatransfer.continuity.tasks.RemoteTaskStore.removeDevice:(I)V -->
<g id="node3" class="node">
<title>m::com.android.server.companion.datatransfer.continuity.tasks.RemoteTaskStore.removeDevice:(I)V</title>
<path fill="#eef2ff" stroke="#a5b4fc" d="M276,-346C276,-346 104,-346 104,-346 98,-346 92,-340 92,-334 92,-334 92,-322 92,-322 92,-316 98,-310 104,-310 104,-310 276,-310 276,-310 282,-310 288,-316 288,-322 288,-322 288,-334 288,-334 288,-340 282,-346 276,-346"/>
<text text-anchor="middle" x="190" y="-325.2" font-family="Helvetica,sans-Serif" font-size="11.00">RemoteTaskStore.removeDevice</text>
</g>
<!-- com.android.server.companion.datatransfer.continuity.tasks.RemoteTaskStore.mRemoteDeviceTaskLists&#45;&gt;m::com.android.server.companion.datatransfer.continuity.tasks.RemoteTaskStore.removeDevice:(I)V -->
<g id="edge1" class="edge">
<title>com.android.server.companion.datatransfer.continuity.tasks.RemoteTaskStore.mRemoteDeviceTaskLists&#45;&gt;m::com.android.server.companion.datatransfer.continuity.tasks.RemoteTaskStore.removeDevice:(I)V</title>
<path fill="none" stroke="#dc2626" stroke-width="1.6" d="M243.25,-391.64C233.47,-380.14 220.52,-364.9 209.84,-352.34"/>
<polygon fill="#dc2626" stroke="#dc2626" stroke-width="1.6" points="211.81,-350.33 204.49,-346.05 207.54,-353.96 211.81,-350.33"/>
<text text-anchor="middle" x="243" y="-366.8" font-family="Helvetica,sans-Serif" font-size="9.00" fill="#dc2626"> holds</text>
</g>
<!-- com.android.server.companion.datatransfer.continuity.tasks.RemoteTaskStore.mRemoteTaskListeners -->
<g id="node2" class="node">
<title>com.android.server.companion.datatransfer.continuity.tasks.RemoteTaskStore.mRemoteTaskListeners</title>
<path fill="#fee2e2" stroke="#dc2626" stroke-width="2" d="M276,-191C276,-191 12,-191 12,-191 6,-191 0,-185 0,-179 0,-179 0,-167 0,-167 0,-161 6,-155 12,-155 12,-155 276,-155 276,-155 282,-155 288,-161 288,-167 288,-167 288,-179 288,-179 288,-185 282,-191 276,-191"/>
<text text-anchor="middle" x="144" y="-169.6" font-family="Helvetica,sans-Serif" font-size="13.00">RemoteTaskStore.mRemoteTaskListeners</text>
</g>
<!-- m::com.android.server.companion.datatransfer.continuity.tasks.RemoteTaskStore.addListener:(Landroid/companion/datatransfer/continuity/IRemoteTaskListener;)V -->
<g id="node5" class="node">
<title>m::com.android.server.companion.datatransfer.continuity.tasks.RemoteTaskStore.addListener:(Landroid/companion/datatransfer/continuity/IRemoteTaskListener;)V</title>
<path fill="#eef2ff" stroke="#a5b4fc" d="M262.5,-109C262.5,-109 105.5,-109 105.5,-109 99.5,-109 93.5,-103 93.5,-97 93.5,-97 93.5,-85 93.5,-85 93.5,-79 99.5,-73 105.5,-73 105.5,-73 262.5,-73 262.5,-73 268.5,-73 274.5,-79 274.5,-85 274.5,-85 274.5,-97 274.5,-97 274.5,-103 268.5,-109 262.5,-109"/>
<text text-anchor="middle" x="184" y="-88.2" font-family="Helvetica,sans-Serif" font-size="11.00">RemoteTaskStore.addListener</text>
</g>
<!-- com.android.server.companion.datatransfer.continuity.tasks.RemoteTaskStore.mRemoteTaskListeners&#45;&gt;m::com.android.server.companion.datatransfer.continuity.tasks.RemoteTaskStore.addListener:(Landroid/companion/datatransfer/continuity/IRemoteTaskListener;)V -->
<g id="edge4" class="edge">
<title>com.android.server.companion.datatransfer.continuity.tasks.RemoteTaskStore.mRemoteTaskListeners&#45;&gt;m::com.android.server.companion.datatransfer.continuity.tasks.RemoteTaskStore.addListener:(Landroid/companion/datatransfer/continuity/IRemoteTaskListener;)V</title>
<path fill="none" stroke="#dc2626" stroke-width="1.6" d="M152.68,-154.64C158.27,-143.45 165.63,-128.74 171.81,-116.39"/>
<polygon fill="#dc2626" stroke="#dc2626" stroke-width="1.6" points="174.4,-117.46 175.47,-109.05 169.39,-114.95 174.4,-117.46"/>
<text text-anchor="middle" x="181" y="-129.8" font-family="Helvetica,sans-Serif" font-size="9.00" fill="#dc2626"> holds</text>
</g>
<!-- m::com.android.server.companion.datatransfer.continuity.tasks.RemoteTaskStore.notifyListeners:()V -->
<g id="node4" class="node">
<title>m::com.android.server.companion.datatransfer.continuity.tasks.RemoteTaskStore.notifyListeners:()V</title>
<path fill="#eef2ff" stroke="#a5b4fc" d="M265,-273C265,-273 91,-273 91,-273 85,-273 79,-267 79,-261 79,-261 79,-249 79,-249 79,-243 85,-237 91,-237 91,-237 265,-237 265,-237 271,-237 277,-243 277,-249 277,-249 277,-261 277,-261 277,-267 271,-273 265,-273"/>
<text text-anchor="middle" x="178" y="-252.2" font-family="Helvetica,sans-Serif" font-size="11.00">RemoteTaskStore.notifyListeners</text>
</g>
<!-- m::com.android.server.companion.datatransfer.continuity.tasks.RemoteTaskStore.removeDevice:(I)V&#45;&gt;m::com.android.server.companion.datatransfer.continuity.tasks.RemoteTaskStore.notifyListeners:()V -->
<g id="edge2" class="edge">
<title>m::com.android.server.companion.datatransfer.continuity.tasks.RemoteTaskStore.removeDevice:(I)V&#45;&gt;m::com.android.server.companion.datatransfer.continuity.tasks.RemoteTaskStore.notifyListeners:()V</title>
<path fill="none" stroke="#64748b" d="M187.1,-309.81C185.64,-301.18 183.84,-290.56 182.23,-281.03"/>
<polygon fill="#64748b" stroke="#64748b" points="184.97,-280.45 180.88,-273.03 179.45,-281.38 184.97,-280.45"/>
</g>
<!-- m::com.android.server.companion.datatransfer.continuity.tasks.RemoteTaskStore.notifyListeners:()V&#45;&gt;com.android.server.companion.datatransfer.continuity.tasks.RemoteTaskStore.mRemoteTaskListeners -->
<g id="edge3" class="edge">
<title>m::com.android.server.companion.datatransfer.continuity.tasks.RemoteTaskStore.notifyListeners:()V&#45;&gt;com.android.server.companion.datatransfer.continuity.tasks.RemoteTaskStore.mRemoteTaskListeners</title>
<path fill="none" stroke="#dc2626" stroke-width="1.6" d="M170.62,-236.64C165.91,-225.56 159.73,-211.02 154.51,-198.74"/>
<polygon fill="#dc2626" stroke="#dc2626" stroke-width="1.6" points="156.95,-197.32 151.25,-191.05 151.8,-199.51 156.95,-197.32"/>
<text text-anchor="middle" x="185" y="-211.8" font-family="Helvetica,sans-Serif" font-size="9.00" fill="#dc2626"> acquires</text>
</g>
<!-- m::com.android.server.companion.datatransfer.continuity.tasks.RemoteTaskStore.getMostRecentTasks:()Ljava/util/List; -->
<g id="node6" class="node">
<title>m::com.android.server.companion.datatransfer.continuity.tasks.RemoteTaskStore.getMostRecentTasks:()Ljava/util/List;</title>
<path fill="#eef2ff" stroke="#a5b4fc" d="M358,-36C358,-36 152,-36 152,-36 146,-36 140,-30 140,-24 140,-24 140,-12 140,-12 140,-6 146,0 152,0 152,0 358,0 358,0 364,0 370,-6 370,-12 370,-12 370,-24 370,-24 370,-30 364,-36 358,-36"/>
<text text-anchor="middle" x="255" y="-15.2" font-family="Helvetica,sans-Serif" font-size="11.00">RemoteTaskStore.getMostRecentTasks</text>
</g>
<!-- m::com.android.server.companion.datatransfer.continuity.tasks.RemoteTaskStore.addListener:(Landroid/companion/datatransfer/continuity/IRemoteTaskListener;)V&#45;&gt;m::com.android.server.companion.datatransfer.continuity.tasks.RemoteTaskStore.getMostRecentTasks:()Ljava/util/List; -->
<g id="edge5" class="edge">
<title>m::com.android.server.companion.datatransfer.continuity.tasks.RemoteTaskStore.addListener:(Landroid/companion/datatransfer/continuity/IRemoteTaskListener;)V&#45;&gt;m::com.android.server.companion.datatransfer.continuity.tasks.RemoteTaskStore.getMostRecentTasks:()Ljava/util/List;</title>
<path fill="none" stroke="#64748b" d="M201.19,-72.81C210.52,-63.48 222.17,-51.83 232.25,-41.75"/>
<polygon fill="#64748b" stroke="#64748b" points="234.29,-43.67 237.97,-36.03 230.33,-39.71 234.29,-43.67"/>
</g>
<!-- m::com.android.server.companion.datatransfer.continuity.tasks.RemoteTaskStore.getMostRecentTasks:()Ljava/util/List;&#45;&gt;com.android.server.companion.datatransfer.continuity.tasks.RemoteTaskStore.mRemoteDeviceTaskLists -->
<g id="edge6" class="edge">
<title>m::com.android.server.companion.datatransfer.continuity.tasks.RemoteTaskStore.getMostRecentTasks:()Ljava/util/List;&#45;&gt;com.android.server.companion.datatransfer.continuity.tasks.RemoteTaskStore.mRemoteDeviceTaskLists</title>
<path fill="none" stroke="#dc2626" stroke-width="1.6" d="M288.01,-36.09C306.55,-48.28 326,-66.64 326,-90 326,-329 326,-329 326,-329 326,-352.33 309,-372.33 292,-386.5"/>
<polygon fill="#dc2626" stroke="#dc2626" stroke-width="1.6" points="289.8,-384.67 285.27,-391.83 293.28,-389.06 289.8,-384.67"/>
<text text-anchor="middle" x="347" y="-211.8" font-family="Helvetica,sans-Serif" font-size="9.00" fill="#dc2626"> acquires</text>
</g>
</g>
</svg>
