<?xml version="1.0" encoding="UTF-8" standalone="no"?>
<!DOCTYPE svg PUBLIC "-//W3C//DTD SVG 1.1//EN"
 "http://www.w3.org/Graphics/SVG/1.1/DTD/svg11.dtd">
<!-- Generated by graphviz version 2.43.0 (0)
 -->
<!-- Title: cycle Pages: 1 -->
<svg width="482pt" height="591pt"
 viewBox="0.00 0.00 481.50 591.00" xmlns="http://www.w3.org/2000/svg" xmlns:xlink="http://www.w3.org/1999/xlink">
<g id="graph0" class="graph" transform="scale(1 1) rotate(0) translate(4 587)">
<title>cycle</title>
<polygon fill="white" stroke="transparent" points="-4,4 -4,-587 477.5,-587 477.5,4 -4,4"/>
<!-- com.android.server.print.RemotePrintService.mLock -->
<g id="node1" class="node">
<title>com.android.server.print.RemotePrintService.mLock</title>
<path fill="#fee2e2" stroke="#dc2626" stroke-width="2" d="M399.5,-583C399.5,-583 229.5,-583 229.5,-583 223.5,-583 217.5,-577 217.5,-571 217.5,-571 217.5,-559 217.5,-559 217.5,-553 223.5,-547 229.5,-547 229.5,-547 399.5,-547 399.5,-547 405.5,-547 411.5,-553 411.5,-559 411.5,-559 411.5,-571 411.5,-571 411.5,-577 405.5,-583 399.5,-583"/>
<text text-anchor="middle" x="314.5" y="-561.6" font-family="Helvetica,sans-Serif" font-size="13.00">RemotePrintService.mLock</text>
</g>
<!-- m::com.android.server.print.RemotePrintService$RemoteServiceConneciton.onServiceConnected:(Landroid/content/ComponentName;Landroid/os/IBinder;)V -->
<g id="node3" class="node">
<title>m::com.android.server.print.RemotePrintService$RemoteServiceConneciton.onServiceConnected:(Landroid/content/ComponentName;Landroid/os/IBinder;)V</title>
<path fill="#eef2ff" stroke="#a5b4fc" d="M381,-501C381,-501 12,-501 12,-501 6,-501 0,-495 0,-489 0,-489 0,-477 0,-477 0,-471 6,-465 12,-465 12,-465 381,-465 381,-465 387,-465 393,-471 393,-477 393,-477 393,-489 393,-489 393,-495 387,-501 381,-501"/>
<text text-anchor="middle" x="196.5" y="-480.2" font-family="Helvetica,sans-Serif" font-size="11.00">RemotePrintService$RemoteServiceConneciton.onServiceConnected</text>
</g>
<!-- com.android.server.print.RemotePrintService.mLock&#45;&gt;m::com.android.server.print.RemotePrintService$RemoteServiceConneciton.onServiceConnected:(Landroid/content/ComponentName;Landroid/os/IBinder;)V -->
<g id="edge1" class="edge">
<title>com.android.server.print.RemotePrintService.mLock&#45;&gt;m::com.android.server.print.RemotePrintService$RemoteServiceConneciton.onServiceConnected:(Landroid/content/ComponentName;Landroid/os/IBinder;)V</title>
<path fill="none" stroke="#dc2626" stroke-width="1.6" d="M289.19,-546.84C271.45,-534.82 247.62,-518.66 228.56,-505.73"/>
<polygon fill="#dc2626" stroke="#dc2626" stroke-width="1.6" points="229.97,-503.31 221.77,-501.13 226.82,-507.94 229.97,-503.31"/>
<text text-anchor="middle" x="277.5" y="-521.8" font-family="Helvetica,sans-Serif" font-size="9.00" fill="#dc2626"> holds</text>
</g>
<!-- com.android.server.print.UserState.mLock -->
<g id="node2" class="node">
<title>com.android.server.print.UserState.mLock</title>
<path fill="#fee2e2" stroke="#dc2626" stroke-width="2" d="M370,-191C370,-191 265,-191 265,-191 259,-191 253,-185 253,-179 253,-179 253,-167 253,-167 253,-161 259,-155 265,-155 265,-155 370,-155 370,-155 376,-155 382,-161 382,-167 382,-167 382,-179 382,-179 382,-185 376,-191 370,-191"/>
<text text-anchor="middle" x="317.5" y="-169.6" font-family="Helvetica,sans-Serif" font-size="13.00">UserState.mLock</text>
</g>
<!-- m::com.android.server.print.UserState.dump:(Lcom/android/internal/util/dump/DualDumpOutputStream;)V -->
<g id="node7" class="node">
<title>m::com.android.server.print.UserState.dump:(Lcom/android/internal/util/dump/DualDumpOutputStream;)V</title>
<path fill="#eef2ff" stroke="#a5b4fc" d="M373.5,-109C373.5,-109 291.5,-109 291.5,-109 285.5,-109 279.5,-103 279.5,-97 279.5,-97 279.5,-85 279.5,-85 279.5,-79 285.5,-73 291.5,-73 291.5,-73 373.5,-73 373.5,-73 379.5,-73 385.5,-79 385.5,-85 385.5,-85 385.5,-97 385.5,-97 385.5,-103 379.5,-109 373.5,-109"/>
<text text-anchor="middle" x="332.5" y="-88.2" font-family="Helvetica,sans-Serif" font-size="11.00">UserState.dump</text>
</g>
<!-- com.android.server.print.UserState.mLock&#45;&gt;m::com.android.server.print.UserState.dump:(Lcom/android/internal/util/dump/DualDumpOutputStream;)V -->
<g id="edge6" class="edge">
<title>com.android.server.print.UserState.mLock&#45;&gt;m::com.android.server.print.UserState.dump:(Lcom/android/internal/util/dump/DualDumpOutputStream;)V</title>
<path fill="none" stroke="#dc2626" stroke-width="1.6" d="M320.75,-154.64C322.81,-143.66 325.51,-129.29 327.8,-117.09"/>
<polygon fill="#dc2626" stroke="#dc2626" stroke-width="1.6" points="330.58,-117.43 329.3,-109.05 325.08,-116.4 330.58,-117.43"/>
<text text-anchor="middle" x="340.5" y="-129.8" font-family="Helvetica,sans-Serif" font-size="9.00" fill="#dc2626"> holds</text>
</g>
<!-- m::com.android.server.print.RemotePrintService.&#45;$$Nest$mhandleBinderDied:(Lcom/android/server/print/RemotePrintService;)V -->
<g id="node4" class="node">
<title>m::com.android.server.print.RemotePrintService.&#45;$$Nest$mhandleBinderDied:(Lcom/android/server/print/RemotePrintService;)V</title>
<path fill="#eef2ff" stroke="#a5b4fc" d="M368.5,-428C368.5,-428 106.5,-428 106.5,-428 100.5,-428 94.5,-422 94.5,-416 94.5,-416 94.5,-404 94.5,-404 94.5,-398 100.5,-392 106.5,-392 106.5,-392 368.5,-392 368.5,-392 374.5,-392 380.5,-398 380.5,-404 380.5,-404 380.5,-416 380.5,-416 380.5,-422 374.5,-428 368.5,-428"/>
<text text-anchor="middle" x="237.5" y="-407.2" font-family="Helvetica,sans-Serif" font-size="11.00">RemotePrintService.&#45;$$Nest$mhandleBinderDied</text>
</g>
<!-- m::com.android.server.print.RemotePrintService$RemoteServiceConneciton.onServiceConnected:(Landroid/content/ComponentName;Landroid/os/IBinder;)V&#45;&gt;m::com.android.server.print.RemotePrintService.&#45;$$Nest$mhandleBinderDied:(Lcom/android/server/print/RemotePrintService;)V -->
<g id="edge2" class="edge">
<title>m::com.android.server.print.RemotePrintService$RemoteServiceConneciton.onServiceConnected:(Landroid/content/ComponentName;Landroid/os/IBinder;)V&#45;&gt;m::com.android.server.print.RemotePrintService.&#45;$$Nest$mhandleBinderDied:(Lcom/android/server/print/RemotePrintService;)V</title>
<path fill="none" stroke="#64748b" d="M206.42,-464.81C211.56,-455.92 217.92,-444.91 223.54,-435.17"/>
<polygon fill="#64748b" stroke="#64748b" points="226.09,-436.36 227.67,-428.03 221.24,-433.56 226.09,-436.36"/>
</g>
<!-- m::com.android.server.print.RemotePrintService.handleBinderDied:()V -->
<g id="node5" class="node">
<title>m::com.android.server.print.RemotePrintService.handleBinderDied:()V</title>
<path fill="#eef2ff" stroke="#a5b4fc" d="M367.5,-355C367.5,-355 165.5,-355 165.5,-355 159.5,-355 153.5,-349 153.5,-343 153.5,-343 153.5,-331 153.5,-331 153.5,-325 159.5,-319 165.5,-319 165.5,-319 367.5,-319 367.5,-319 373.5,-319 379.5,-325 379.5,-331 379.5,-331 379.5,-343 379.5,-343 379.5,-349 373.5,-355 367.5,-355"/>
<text text-anchor="middle" x="266.5" y="-334.2" font-family="Helvetica,sans-Serif" font-size="11.00">RemotePrintService.handleBinderDied</text>
</g>
<!-- m::com.android.server.print.RemotePrintService.&#45;$$Nest$mhandleBinderDied:(Lcom/android/server/print/RemotePrintService;)V&#45;&gt;m::com.android.server.print.RemotePrintService.handleBinderDied:()V -->
<g id="edge3" class="edge">
<title>m::com.android.server.print.RemotePrintService.&#45;$$Nest$mhandleBinderDied:(Lcom/android/server/print/RemotePrintService;)V&#45;&gt;m::com.android.server.print.RemotePrintService.handleBinderDied:()V</title>
<path fill="none" stroke="#64748b" d="M244.52,-391.81C248.12,-383 252.56,-372.13 256.51,-362.46"/>
<polygon fill="#64748b" stroke="#64748b" points="259.11,-363.49 259.54,-355.03 253.93,-361.38 259.11,-363.49"/>
</g>
<!-- m::com.android.server.print.UserState.onServiceDied:(Lcom/android/server/print/RemotePrintService;)V -->
<g id="node6" class="node">
<title>m::com.android.server.print.UserState.onServiceDied:(Lcom/android/server/print/RemotePrintService;)V</title>
<path fill="#eef2ff" stroke="#a5b4fc" d="M365.5,-273C365.5,-273 235.5,-273 235.5,-273 229.5,-273 223.5,-267 223.5,-261 223.5,-261 223.5,-249 223.5,-249 223.5,-243 229.5,-237 235.5,-237 235.5,-237 365.5,-237 365.5,-237 371.5,-237 377.5,-243 377.5,-249 377.5,-249 377.5,-261 377.5,-261 377.5,-267 371.5,-273 365.5,-273"/>
<text text-anchor="middle" x="300.5" y="-252.2" font-family="Helvetica,sans-Serif" font-size="11.00">UserState.onServiceDied</text>
</g>
<!-- m::com.android.server.print.RemotePrintService.handleBinderDied:()V&#45;&gt;m::com.android.server.print.UserState.onServiceDied:(Lcom/android/server/print/RemotePrintService;)V -->
<g id="edge4" class="edge">
<title>m::com.android.server.print.RemotePrintService.handleBinderDied:()V&#45;&gt;m::com.android.server.print.UserState.onServiceDied:(Lcom/android/server/print/RemotePrintService;)V</title>
<path fill="none" stroke="#64748b" d="M273.88,-318.64C278.59,-307.56 284.77,-293.02 289.99,-280.74"/>
<polygon fill="#64748b" stroke="#64748b" points="292.7,-281.51 293.25,-273.05 287.55,-279.32 292.7,-281.51"/>
</g>
<!-- m::com.android.server.print.UserState.onServiceDied:(Lcom/android/server/print/RemotePrintService;)V&#45;&gt;com.android.server.print.UserState.mLock -->
<g id="edge5" class="edge">
<title>m::com.android.server.print.UserState.onServiceDied:(Lcom/android/server/print/RemotePrintService;)V&#45;&gt;com.android.server.print.UserState.mLock</title>
<path fill="none" stroke="#dc2626" stroke-width="1.6" d="M304.19,-236.64C306.52,-225.66 309.57,-211.29 312.17,-199.09"/>
<polygon fill="#dc2626" stroke="#dc2626" stroke-width="1.6" points="314.95,-199.46 313.88,-191.05 309.48,-198.29 314.95,-199.46"/>
<text text-anchor="middle" x="331.5" y="-211.8" font-family="Helvetica,sans-Serif" font-size="9.00" fill="#dc2626"> acquires</text>
</g>
<!-- m::com.android.server.print.RemotePrintService.dump:(Lcom/android/internal/util/dump/DualDumpOutputStream;)V -->
<g id="node8" class="node">
<title>m::com.android.server.print.RemotePrintService.dump:(Lcom/android/internal/util/dump/DualDumpOutputStream;)V</title>
<path fill="#eef2ff" stroke="#a5b4fc" d="M449.5,-36C449.5,-36 313.5,-36 313.5,-36 307.5,-36 301.5,-30 301.5,-24 301.5,-24 301.5,-12 301.5,-12 301.5,-6 307.5,0 313.5,0 313.5,0 449.5,0 449.5,0 455.5,0 461.5,-6 461.5,-12 461.5,-12 461.5,-24 461.5,-24 461.5,-30 455.5,-36 449.5,-36"/>
<text text-anchor="middle" x="381.5" y="-15.2" font-family="Helvetica,sans-Serif" font-size="11.00">RemotePrintService.dump</text>
</g>
<!-- m::com.android.server.print.UserState.dump:(Lcom/android/internal/util/dump/DualDumpOutputStream;)V&#45;&gt;m::com.android.server.print.RemotePrintService.dump:(Lcom/android/internal/util/dump/DualDumpOutputStream;)V -->
<g id="edge7" class="edge">
<title>m::com.android.server.print.UserState.dump:(Lcom/android/internal/util/dump/DualDumpOutputStream;)V&#45;&gt;m::com.android.server.print.RemotePrintService.dump:(Lcom/android/internal/util/dump/DualDumpOutputStream;)V</title>
<path fill="none" stroke="#64748b" d="M344.36,-72.81C350.56,-63.83 358.25,-52.69 365.02,-42.89"/>
<polygon fill="#64748b" stroke="#64748b" points="367.51,-44.2 369.75,-36.03 362.9,-41.02 367.51,-44.2"/>
</g>
<!-- m::com.android.server.print.RemotePrintService.dump:(Lcom/android/internal/util/dump/DualDumpOutputStream;)V&#45;&gt;com.android.server.print.RemotePrintService.mLock -->
<g id="edge8" class="edge">
<title>m::com.android.server.print.RemotePrintService.dump:(Lcom/android/internal/util/dump/DualDumpOutputStream;)V&#45;&gt;com.android.server.print.RemotePrintService.mLock</title>
<path fill="none" stroke="#dc2626" stroke-width="1.6" d="M402.7,-36.24C416.33,-49.36 431.5,-68.74 431.5,-90 431.5,-484 431.5,-484 431.5,-484 431.5,-512.23 408.01,-531.22 382.07,-543.59"/>
<polygon fill="#dc2626" stroke="#dc2626" stroke-width="1.6" points="380.86,-541.07 374.71,-546.9 383.16,-546.17 380.86,-541.07"/>
<text text-anchor="middle" x="452.5" y="-293.8" font-family="Helvetica,sans-Serif" font-size="9.00" fill="#dc2626"> acquires</text>
</g>
</g>
</svg>
