<?xml version="1.0" encoding="UTF-8" standalone="no"?>
<!DOCTYPE svg PUBLIC "-//W3C//DTD SVG 1.1//EN"
 "http://www.w3.org/Graphics/SVG/1.1/DTD/svg11.dtd">
<!-- Generated by graphviz version 2.43.0 (0)
 -->
<!-- Title: cycle Pages: 1 -->
<svg width="415pt" height="582pt"
 viewBox="0.00 0.00 414.50 582.00" xmlns="http://www.w3.org/2000/svg" xmlns:xlink="http://www.w3.org/1999/xlink">
<g id="graph0" class="graph" transform="scale(1 1) rotate(0) translate(4 578)">
<title>cycle</title>
<polygon fill="white" stroke="transparent" points="-4,4 -4,-578 410.5,-578 410.5,4 -4,4"/>
<!-- com.android.server.locksettings.LockSettingsService.mSeparateChallengeLock -->
<g id="node1" class="node">
<title>com.android.server.locksettings.LockSettingsService.mSeparateChallengeLock</title>
<path fill="#fee2e2" stroke="#dc2626" stroke-width="2" d="M381,-574C381,-574 82,-574 82,-574 76,-574 70,-568 70,-562 70,-562 70,-550 70,-550 70,-544 76,-538 82,-538 82,-538 381,-538 381,-538 387,-538 393,-544 393,-550 393,-550 393,-562 393,-562 393,-568 387,-574 381,-574"/>
<text text-anchor="middle" x="231.5" y="-552.6" font-family="Helvetica,sans-Serif" font-size="13.00">LockSettingsService.mSeparateChallengeLock</text>
</g>
<!-- m::com.android.server.locksettings.LockSettingsService.setLockCredential:(Lcom/android/internal/widget/LockscreenCredential;Lcom/android/internal/widget/LockscreenCredential;I)Z -->
<g id="node3" class="node">
<title>m::com.android.server.locksettings.LockSettingsService.setLockCredential:(Lcom/android/internal/widget/LockscreenCredential;Lcom/android/internal/widget/LockscreenCredential;I)Z</title>
<path fill="#eef2ff" stroke="#a5b4fc" d="M257,-492C257,-492 52,-492 52,-492 46,-492 40,-486 40,-480 40,-480 40,-468 40,-468 40,-462 46,-456 52,-456 52,-456 257,-456 257,-456 263,-456 269,-462 269,-468 269,-468 269,-480 269,-480 269,-486 263,-492 257,-492"/>
<text text-anchor="middle" x="154.5" y="-471.2" font-family="Helvetica,sans-Serif" font-size="11.00">LockSettingsService.setLockCredential</text>
</g>
<!-- com.android.server.locksettings.LockSettingsService.mSeparateChallengeLock&#45;&gt;m::com.android.server.locksettings.LockSettingsService.setLockCredential:(Lcom/android/internal/widget/LockscreenCredential;Lcom/android/internal/widget/LockscreenCredential;I)Z -->
<g id="edge1" class="edge">
<title>com.android.server.locksettings.LockSettingsService.mSeparateChallengeLock&#45;&gt;m::com.android.server.locksettings.LockSettingsService.setLockCredential:(Lcom/android/internal/widget/LockscreenCredential;Lcom/android/internal/widget/LockscreenCredential;I)Z</title>
<path fill="none" stroke="#dc2626" stroke-width="1.6" d="M214.79,-537.64C203.62,-526.03 188.79,-510.63 176.63,-498"/>
<polygon fill="#dc2626" stroke="#dc2626" stroke-width="1.6" points="178.48,-495.87 170.91,-492.05 174.44,-499.76 178.48,-495.87"/>
<text text-anchor="middle" x="215.5" y="-512.8" font-family="Helvetica,sans-Serif" font-size="9.00" fill="#dc2626"> held in</text>
</g>
<!-- com.android.server.locksettings.LockSettingsService.mSpManager -->
<g id="node2" class="node">
<title>com.android.server.locksettings.LockSettingsService.mSpManager</title>
<path fill="#fee2e2" stroke="#dc2626" stroke-width="2" d="M256,-337C256,-337 39,-337 39,-337 33,-337 27,-331 27,-325 27,-325 27,-313 27,-313 27,-307 33,-301 39,-301 39,-301 256,-301 256,-301 262,-301 268,-307 268,-313 268,-313 268,-325 268,-325 268,-331 262,-337 256,-337"/>
<text text-anchor="middle" x="147.5" y="-315.6" font-family="Helvetica,sans-Serif" font-size="13.00">LockSettingsService.mSpManager</text>
</g>
<!-- m::com.android.server.locksettings.LockSettingsService$1.run:()V -->
<g id="node5" class="node">
<title>m::com.android.server.locksettings.LockSettingsService$1.run:()V</title>
<path fill="#eef2ff" stroke="#a5b4fc" d="M211.5,-255C211.5,-255 73.5,-255 73.5,-255 67.5,-255 61.5,-249 61.5,-243 61.5,-243 61.5,-231 61.5,-231 61.5,-225 67.5,-219 73.5,-219 73.5,-219 211.5,-219 211.5,-219 217.5,-219 223.5,-225 223.5,-231 223.5,-231 223.5,-243 223.5,-243 223.5,-249 217.5,-255 211.5,-255"/>
<text text-anchor="middle" x="142.5" y="-234.2" font-family="Helvetica,sans-Serif" font-size="11.00">LockSettingsService$1.run</text>
</g>
<!-- com.android.server.locksettings.LockSettingsService.mSpManager&#45;&gt;m::com.android.server.locksettings.LockSettingsService$1.run:()V -->
<g id="edge4" class="edge">
<title>com.android.server.locksettings.LockSettingsService.mSpManager&#45;&gt;m::com.android.server.locksettings.LockSettingsService$1.run:()V</title>
<path fill="none" stroke="#dc2626" stroke-width="1.6" d="M146.42,-300.64C145.73,-289.66 144.83,-275.29 144.07,-263.09"/>
<polygon fill="#dc2626" stroke="#dc2626" stroke-width="1.6" points="146.86,-262.86 143.57,-255.05 141.27,-263.21 146.86,-262.86"/>
<text text-anchor="middle" x="162.5" y="-275.8" font-family="Helvetica,sans-Serif" font-size="9.00" fill="#dc2626"> held in</text>
</g>
<!-- m::com.android.server.locksettings.LockSettingsService.doVerifyCredential:(Lcom/android/internal/widget/LockscreenCredential;ILcom/android/internal/widget/ICheckCredentialProgressCallback;I)Lcom/android/internal/widget/VerifyCredentialResponse; -->
<g id="node4" class="node">
<title>m::com.android.server.locksettings.LockSettingsService.doVerifyCredential:(Lcom/android/internal/widget/LockscreenCredential;ILcom/android/internal/widget/ICheckCredentialProgressCallback;I)Lcom/android/internal/widget/VerifyCredentialResponse;</title>
<path fill="#eef2ff" stroke="#a5b4fc" d="M256.5,-419C256.5,-419 48.5,-419 48.5,-419 42.5,-419 36.5,-413 36.5,-407 36.5,-407 36.5,-395 36.5,-395 36.5,-389 42.5,-383 48.5,-383 48.5,-383 256.5,-383 256.5,-383 262.5,-383 268.5,-389 268.5,-395 268.5,-395 268.5,-407 268.5,-407 268.5,-413 262.5,-419 256.5,-419"/>
<text text-anchor="middle" x="152.5" y="-398.2" font-family="Helvetica,sans-Serif" font-size="11.00">LockSettingsService.doVerifyCredential</text>
</g>
<!-- m::com.android.server.locksettings.LockSettingsService.setLockCredential:(Lcom/android/internal/widget/LockscreenCredential;Lcom/android/internal/widget/LockscreenCredential;I)Z&#45;&gt;m::com.android.server.locksettings.LockSettingsService.doVerifyCredential:(Lcom/android/internal/widget/LockscreenCredential;ILcom/android/internal/widget/ICheckCredentialProgressCallback;I)Lcom/android/internal/widget/VerifyCredentialResponse; -->
<g id="edge2" class="edge">
<title>m::com.android.server.locksettings.LockSettingsService.setLockCredential:(Lcom/android/internal/widget/LockscreenCredential;Lcom/android/internal/widget/LockscreenCredential;I)Z&#45;&gt;m::com.android.server.locksettings.LockSettingsService.doVerifyCredential:(Lcom/android/internal/widget/LockscreenCredential;ILcom/android/internal/widget/ICheckCredentialProgressCallback;I)Lcom/android/internal/widget/VerifyCredentialResponse;</title>
<path fill="none" stroke="#64748b" d="M154.02,-455.81C153.77,-447.18 153.47,-436.56 153.21,-427.03"/>
<polygon fill="#64748b" stroke="#64748b" points="156,-426.95 152.98,-419.03 150.41,-427.1 156,-426.95"/>
</g>
<!-- m::com.android.server.locksettings.LockSettingsService.doVerifyCredential:(Lcom/android/internal/widget/LockscreenCredential;ILcom/android/internal/widget/ICheckCredentialProgressCallback;I)Lcom/android/internal/widget/VerifyCredentialResponse;&#45;&gt;com.android.server.locksettings.LockSettingsService.mSpManager -->
<g id="edge3" class="edge">
<title>m::com.android.server.locksettings.LockSettingsService.doVerifyCredential:(Lcom/android/internal/widget/LockscreenCredential;ILcom/android/internal/widget/ICheckCredentialProgressCallback;I)Lcom/android/internal/widget/VerifyCredentialResponse;&#45;&gt;com.android.server.locksettings.LockSettingsService.mSpManager</title>
<path fill="none" stroke="#dc2626" stroke-width="1.6" d="M151.42,-382.64C150.73,-371.66 149.83,-357.29 149.07,-345.09"/>
<polygon fill="#dc2626" stroke="#dc2626" stroke-width="1.6" points="151.86,-344.86 148.57,-337.05 146.27,-345.21 151.86,-344.86"/>
<text text-anchor="middle" x="171.5" y="-357.8" font-family="Helvetica,sans-Serif" font-size="9.00" fill="#dc2626"> acquires</text>
</g>
<!-- m::com.android.server.locksettings.LockSettingsService.&#45;$$Nest$mtieProfileLockIfNecessary:(Lcom/android/server/locksettings/LockSettingsService;ILcom/android/internal/widget/LockscreenCredential;)V -->
<g id="node6" class="node">
<title>m::com.android.server.locksettings.LockSettingsService.&#45;$$Nest$mtieProfileLockIfNecessary:(Lcom/android/server/locksettings/LockSettingsService;ILcom/android/internal/widget/LockscreenCredential;)V</title>
<path fill="#eef2ff" stroke="#a5b4fc" d="M257,-182C257,-182 12,-182 12,-182 6,-182 0,-176 0,-170 0,-170 0,-158 0,-158 0,-152 6,-146 12,-146 12,-146 257,-146 257,-146 263,-146 269,-152 269,-158 269,-158 269,-170 269,-170 269,-176 263,-182 257,-182"/>
<text text-anchor="middle" x="134.5" y="-161.2" font-family="Helvetica,sans-Serif" font-size="11.00">LockSettingsService.tieProfileLockIfNecessary</text>
</g>
<!-- m::com.android.server.locksettings.LockSettingsService$1.run:()V&#45;&gt;m::com.android.server.locksettings.LockSettingsService.&#45;$$Nest$mtieProfileLockIfNecessary:(Lcom/android/server/locksettings/LockSettingsService;ILcom/android/internal/widget/LockscreenCredential;)V -->
<g id="edge5" class="edge">
<title>m::com.android.server.locksettings.LockSettingsService$1.run:()V&#45;&gt;m::com.android.server.locksettings.LockSettingsService.&#45;$$Nest$mtieProfileLockIfNecessary:(Lcom/android/server/locksettings/LockSettingsService;ILcom/android/internal/widget/LockscreenCredential;)V</title>
<path fill="none" stroke="#64748b" d="M140.56,-218.81C139.59,-210.18 138.39,-199.56 137.32,-190.03"/>
<polygon fill="#64748b" stroke="#64748b" points="140.1,-189.66 136.42,-182.03 134.53,-190.29 140.1,-189.66"/>
</g>
<!-- m::com.android.server.locksettings.LockSettingsService.tieProfileLockIfNecessary:(ILcom/android/internal/widget/LockscreenCredential;)V -->
<g id="node7" class="node">
<title>m::com.android.server.locksettings.LockSettingsService.tieProfileLockIfNecessary:(ILcom/android/internal/widget/LockscreenCredential;)V</title>
<path fill="#eef2ff" stroke="#a5b4fc" d="M257,-109C257,-109 12,-109 12,-109 6,-109 0,-103 0,-97 0,-97 0,-85 0,-85 0,-79 6,-73 12,-73 12,-73 257,-73 257,-73 263,-73 269,-79 269,-85 269,-85 269,-97 269,-97 269,-103 263,-109 257,-109"/>
<text text-anchor="middle" x="134.5" y="-88.2" font-family="Helvetica,sans-Serif" font-size="11.00">LockSettingsService.tieProfileLockIfNecessary</text>
</g>
<!-- m::com.android.server.locksettings.LockSettingsService.&#45;$$Nest$mtieProfileLockIfNecessary:(Lcom/android/server/locksettings/LockSettingsService;ILcom/android/internal/widget/LockscreenCredential;)V&#45;&gt;m::com.android.server.locksettings.LockSettingsService.tieProfileLockIfNecessary:(ILcom/android/internal/widget/LockscreenCredential;)V -->
<g id="edge6" class="edge">
<title>m::com.android.server.locksettings.LockSettingsService.&#45;$$Nest$mtieProfileLockIfNecessary:(Lcom/android/server/locksettings/LockSettingsService;ILcom/android/internal/widget/LockscreenCredential;)V&#45;&gt;m::com.android.server.locksettings.LockSettingsService.tieProfileLockIfNecessary:(ILcom/android/internal/widget/LockscreenCredential;)V</title>
<path fill="none" stroke="#64748b" d="M134.5,-145.81C134.5,-137.18 134.5,-126.56 134.5,-117.03"/>
<polygon fill="#64748b" stroke="#64748b" points="137.3,-117.03 134.5,-109.03 131.7,-117.03 137.3,-117.03"/>
</g>
<!-- m::com.android.server.locksettings.LockSettingsService.getSeparateProfileChallengeEnabledInternal:(I)Z -->
<g id="node8" class="node">
<title>m::com.android.server.locksettings.LockSettingsService.getSeparateProfileChallengeEnabledInternal:(I)Z</title>
<path fill="#eef2ff" stroke="#a5b4fc" d="M394.5,-36C394.5,-36 46.5,-36 46.5,-36 40.5,-36 34.5,-30 34.5,-24 34.5,-24 34.5,-12 34.5,-12 34.5,-6 40.5,0 46.5,0 46.5,0 394.5,0 394.5,0 400.5,0 406.5,-6 406.5,-12 406.5,-12 406.5,-24 406.5,-24 406.5,-30 400.5,-36 394.5,-36"/>
<text text-anchor="middle" x="220.5" y="-15.2" font-family="Helvetica,sans-Serif" font-size="11.00">LockSettingsService.getSeparateProfileChallengeEnabledInternal</text>
</g>
<!-- m::com.android.server.locksettings.LockSettingsService.tieProfileLockIfNecessary:(ILcom/android/internal/widget/LockscreenCredential;)V&#45;&gt;m::com.android.server.locksettings.LockSettingsService.getSeparateProfileChallengeEnabledInternal:(I)Z -->
<g id="edge7" class="edge">
<title>m::com.android.server.locksettings.LockSettingsService.tieProfileLockIfNecessary:(ILcom/android/internal/widget/LockscreenCredential;)V&#45;&gt;m::com.android.server.locksettings.LockSettingsService.getSeparateProfileChallengeEnabledInternal:(I)Z</title>
<path fill="none" stroke="#64748b" d="M155.32,-72.81C166.83,-63.31 181.27,-51.39 193.63,-41.19"/>
<polygon fill="#64748b" stroke="#64748b" points="195.49,-43.28 199.87,-36.03 191.92,-38.96 195.49,-43.28"/>
</g>
<!-- m::com.android.server.locksettings.LockSettingsService.getSeparateProfileChallengeEnabledInternal:(I)Z&#45;&gt;com.android.server.locksettings.LockSettingsService.mSeparateChallengeLock -->
<g id="edge8" class="edge">
<title>m::com.android.server.locksettings.LockSettingsService.getSeparateProfileChallengeEnabledInternal:(I)Z&#45;&gt;com.android.server.locksettings.LockSettingsService.mSeparateChallengeLock</title>
<path fill="none" stroke="#dc2626" stroke-width="1.6" d="M264.51,-36.06C286.09,-47.57 307.5,-65.24 307.5,-90 307.5,-475 307.5,-475 307.5,-475 307.5,-499.23 288.95,-519.04 270.18,-532.89"/>
<polygon fill="#dc2626" stroke="#dc2626" stroke-width="1.6" points="268.24,-530.84 263.29,-537.72 271.45,-535.42 268.24,-530.84"/>
<text text-anchor="middle" x="328.5" y="-275.8" font-family="Helvetica,sans-Serif" font-size="9.00" fill="#dc2626"> acquires</text>
</g>
</g>
</svg>
