<?xml version="1.0" encoding="UTF-8" standalone="no"?>
<!DOCTYPE svg PUBLIC "-//W3C//DTD SVG 1.1//EN"
 "http://www.w3.org/Graphics/SVG/1.1/DTD/svg11.dtd">
<!-- Generated by graphviz version 2.43.0 (0)
 -->
<!-- Title: cycle Pages: 1 -->
<svg width="469pt" height="436pt"
 viewBox="0.00 0.00 469.00 436.00" xmlns="http://www.w3.org/2000/svg" xmlns:xlink="http://www.w3.org/1999/xlink">
<g id="graph0" class="graph" transform="scale(1 1) rotate(0) translate(4 432)">
<title>cycle</title>
<polygon fill="white" stroke="transparent" points="-4,4 -4,-432 465,-432 465,4 -4,4"/>
<!-- com.android.server.slice.PinnedSliceState.mLock -->
<g id="node1" class="node">
<title>com.android.server.slice.PinnedSliceState.mLock</title>
<path fill="#fee2e2" stroke="#dc2626" stroke-width="2" d="M414.5,-428C414.5,-428 263.5,-428 263.5,-428 257.5,-428 251.5,-422 251.5,-416 251.5,-416 251.5,-404 251.5,-404 251.5,-398 257.5,-392 263.5,-392 263.5,-392 414.5,-392 414.5,-392 420.5,-392 426.5,-398 426.5,-404 426.5,-404 426.5,-416 426.5,-416 426.5,-422 420.5,-428 414.5,-428"/>
<text text-anchor="middle" x="339" y="-406.6" font-family="Helvetica,sans-Serif" font-size="13.00">PinnedSliceState.mLock</text>
</g>
<!-- m::com.android.server.slice.PinnedSliceState.handleRecheckListeners:()V -->
<g id="node3" class="node">
<title>m::com.android.server.slice.PinnedSliceState.handleRecheckListeners:()V</title>
<path fill="#eef2ff" stroke="#a5b4fc" d="M365.5,-346C365.5,-346 144.5,-346 144.5,-346 138.5,-346 132.5,-340 132.5,-334 132.5,-334 132.5,-322 132.5,-322 132.5,-316 138.5,-310 144.5,-310 144.5,-310 365.5,-310 365.5,-310 371.5,-310 377.5,-316 377.5,-322 377.5,-322 377.5,-334 377.5,-334 377.5,-340 371.5,-346 365.5,-346"/>
<text text-anchor="middle" x="255" y="-325.2" font-family="Helvetica,sans-Serif" font-size="11.00">PinnedSliceState.handleRecheckListeners</text>
</g>
<!-- com.android.server.slice.PinnedSliceState.mLock&#45;&gt;m::com.android.server.slice.PinnedSliceState.handleRecheckListeners:()V -->
<g id="edge1" class="edge">
<title>com.android.server.slice.PinnedSliceState.mLock&#45;&gt;m::com.android.server.slice.PinnedSliceState.handleRecheckListeners:()V</title>
<path fill="none" stroke="#dc2626" stroke-width="1.6" d="M320.77,-391.64C308.47,-379.92 292.11,-364.34 278.79,-351.65"/>
<polygon fill="#dc2626" stroke="#dc2626" stroke-width="1.6" points="280.63,-349.54 272.9,-346.05 276.76,-353.59 280.63,-349.54"/>
<text text-anchor="middle" x="317" y="-366.8" font-family="Helvetica,sans-Serif" font-size="9.00" fill="#dc2626"> holds</text>
</g>
<!-- com.android.server.slice.SliceManagerService.mLock -->
<g id="node2" class="node">
<title>com.android.server.slice.SliceManagerService.mLock</title>
<path fill="#fee2e2" stroke="#dc2626" stroke-width="2" d="M190,-109C190,-109 12,-109 12,-109 6,-109 0,-103 0,-97 0,-97 0,-85 0,-85 0,-79 6,-73 12,-73 12,-73 190,-73 190,-73 196,-73 202,-79 202,-85 202,-85 202,-97 202,-97 202,-103 196,-109 190,-109"/>
<text text-anchor="middle" x="101" y="-87.6" font-family="Helvetica,sans-Serif" font-size="13.00">SliceManagerService.mLock</text>
</g>
<!-- m::com.android.server.slice.SliceManagerService.removePinnedSlice:(Landroid/net/Uri;)V -->
<g id="node5" class="node">
<title>m::com.android.server.slice.SliceManagerService.removePinnedSlice:(Landroid/net/Uri;)V</title>
<path fill="#eef2ff" stroke="#a5b4fc" d="M313.5,-191C313.5,-191 98.5,-191 98.5,-191 92.5,-191 86.5,-185 86.5,-179 86.5,-179 86.5,-167 86.5,-167 86.5,-161 92.5,-155 98.5,-155 98.5,-155 313.5,-155 313.5,-155 319.5,-155 325.5,-161 325.5,-167 325.5,-167 325.5,-179 325.5,-179 325.5,-185 319.5,-191 313.5,-191"/>
<text text-anchor="middle" x="206" y="-170.2" font-family="Helvetica,sans-Serif" font-size="11.00">SliceManagerService.removePinnedSlice</text>
</g>
<!-- com.android.server.slice.SliceManagerService.mLock&#45;&gt;m::com.android.server.slice.SliceManagerService.removePinnedSlice:(Landroid/net/Uri;)V -->
<g id="edge5" class="edge">
<title>com.android.server.slice.SliceManagerService.mLock&#45;&gt;m::com.android.server.slice.SliceManagerService.removePinnedSlice:(Landroid/net/Uri;)V</title>
<path fill="none" stroke="#dc2626" stroke-width="1.6" d="M147.81,-109.02C157.74,-113.91 167.72,-119.88 176,-127 182.73,-132.78 188.58,-140.43 193.28,-147.77"/>
<polygon fill="#dc2626" stroke="#dc2626" stroke-width="1.6" points="191.07,-149.52 197.59,-154.94 195.87,-146.64 191.07,-149.52"/>
<text text-anchor="middle" x="200" y="-129.8" font-family="Helvetica,sans-Serif" font-size="9.00" fill="#dc2626"> holds</text>
</g>
<!-- m::com.android.server.slice.PinnedSliceState.checkSelfRemove:()V -->
<g id="node4" class="node">
<title>m::com.android.server.slice.PinnedSliceState.checkSelfRemove:()V</title>
<path fill="#eef2ff" stroke="#a5b4fc" d="M332.5,-273C332.5,-273 147.5,-273 147.5,-273 141.5,-273 135.5,-267 135.5,-261 135.5,-261 135.5,-249 135.5,-249 135.5,-243 141.5,-237 147.5,-237 147.5,-237 332.5,-237 332.5,-237 338.5,-237 344.5,-243 344.5,-249 344.5,-249 344.5,-261 344.5,-261 344.5,-267 338.5,-273 332.5,-273"/>
<text text-anchor="middle" x="240" y="-252.2" font-family="Helvetica,sans-Serif" font-size="11.00">PinnedSliceState.checkSelfRemove</text>
</g>
<!-- m::com.android.server.slice.PinnedSliceState.handleRecheckListeners:()V&#45;&gt;m::com.android.server.slice.PinnedSliceState.checkSelfRemove:()V -->
<g id="edge2" class="edge">
<title>m::com.android.server.slice.PinnedSliceState.handleRecheckListeners:()V&#45;&gt;m::com.android.server.slice.PinnedSliceState.checkSelfRemove:()V</title>
<path fill="none" stroke="#64748b" d="M251.37,-309.81C249.54,-301.18 247.3,-290.56 245.29,-281.03"/>
<polygon fill="#64748b" stroke="#64748b" points="247.99,-280.28 243.6,-273.03 242.51,-281.43 247.99,-280.28"/>
</g>
<!-- m::com.android.server.slice.PinnedSliceState.checkSelfRemove:()V&#45;&gt;m::com.android.server.slice.SliceManagerService.removePinnedSlice:(Landroid/net/Uri;)V -->
<g id="edge3" class="edge">
<title>m::com.android.server.slice.PinnedSliceState.checkSelfRemove:()V&#45;&gt;m::com.android.server.slice.SliceManagerService.removePinnedSlice:(Landroid/net/Uri;)V</title>
<path fill="none" stroke="#64748b" d="M232.62,-236.64C227.91,-225.56 221.73,-211.02 216.51,-198.74"/>
<polygon fill="#64748b" stroke="#64748b" points="218.95,-197.32 213.25,-191.05 213.8,-199.51 218.95,-197.32"/>
</g>
<!-- m::com.android.server.slice.SliceManagerService.removePinnedSlice:(Landroid/net/Uri;)V&#45;&gt;com.android.server.slice.SliceManagerService.mLock -->
<g id="edge4" class="edge">
<title>m::com.android.server.slice.SliceManagerService.removePinnedSlice:(Landroid/net/Uri;)V&#45;&gt;com.android.server.slice.SliceManagerService.mLock</title>
<path fill="none" stroke="#dc2626" stroke-width="1.6" d="M160.28,-154.99C150.35,-150.08 140.34,-144.09 132,-137 125.17,-131.19 119.16,-123.54 114.29,-116.2"/>
<polygon fill="#dc2626" stroke="#dc2626" stroke-width="1.6" points="116.43,-114.34 109.82,-109.04 111.68,-117.31 116.43,-114.34"/>
<text text-anchor="middle" x="153" y="-129.8" font-family="Helvetica,sans-Serif" font-size="9.00" fill="#dc2626"> acquires</text>
</g>
<!-- m::com.android.server.slice.PinnedSliceState.destroy:()V -->
<g id="node6" class="node">
<title>m::com.android.server.slice.PinnedSliceState.destroy:()V</title>
<path fill="#eef2ff" stroke="#a5b4fc" d="M369,-109C369,-109 239,-109 239,-109 233,-109 227,-103 227,-97 227,-97 227,-85 227,-85 227,-79 233,-73 239,-73 239,-73 369,-73 369,-73 375,-73 381,-79 381,-85 381,-85 381,-97 381,-97 381,-103 375,-109 369,-109"/>
<text text-anchor="middle" x="304" y="-88.2" font-family="Helvetica,sans-Serif" font-size="11.00">PinnedSliceState.destroy</text>
</g>
<!-- m::com.android.server.slice.SliceManagerService.removePinnedSlice:(Landroid/net/Uri;)V&#45;&gt;m::com.android.server.slice.PinnedSliceState.destroy:()V -->
<g id="edge6" class="edge">
<title>m::com.android.server.slice.SliceManagerService.removePinnedSlice:(Landroid/net/Uri;)V&#45;&gt;m::com.android.server.slice.PinnedSliceState.destroy:()V</title>
<path fill="none" stroke="#64748b" d="M227.26,-154.64C241.75,-142.82 261.05,-127.06 276.67,-114.31"/>
<polygon fill="#64748b" stroke="#64748b" points="278.69,-116.28 283.11,-109.05 275.15,-111.94 278.69,-116.28"/>
</g>
<!-- m::com.android.server.slice.PinnedSliceState.setSlicePinned:(Z)V -->
<g id="node7" class="node">
<title>m::com.android.server.slice.PinnedSliceState.setSlicePinned:(Z)V</title>
<path fill="#eef2ff" stroke="#a5b4fc" d="M444.5,-36C444.5,-36 277.5,-36 277.5,-36 271.5,-36 265.5,-30 265.5,-24 265.5,-24 265.5,-12 265.5,-12 265.5,-6 271.5,0 277.5,0 277.5,0 444.5,0 444.5,0 450.5,0 456.5,-6 456.5,-12 456.5,-12 456.5,-24 456.5,-24 456.5,-30 450.5,-36 444.5,-36"/>
<text text-anchor="middle" x="361" y="-15.2" font-family="Helvetica,sans-Serif" font-size="11.00">PinnedSliceState.setSlicePinned</text>
</g>
<!-- m::com.android.server.slice.PinnedSliceState.destroy:()V&#45;&gt;m::com.android.server.slice.PinnedSliceState.setSlicePinned:(Z)V -->
<g id="edge7" class="edge">
<title>m::com.android.server.slice.PinnedSliceState.destroy:()V&#45;&gt;m::com.android.server.slice.PinnedSliceState.setSlicePinned:(Z)V</title>
<path fill="none" stroke="#64748b" d="M317.8,-72.81C325.15,-63.66 334.3,-52.26 342.28,-42.32"/>
<polygon fill="#64748b" stroke="#64748b" points="344.5,-44.02 347.33,-36.03 340.14,-40.51 344.5,-44.02"/>
</g>
<!-- m::com.android.server.slice.PinnedSliceState.setSlicePinned:(Z)V&#45;&gt;com.android.server.slice.PinnedSliceState.mLock -->
<g id="edge8" class="edge">
<title>m::com.android.server.slice.PinnedSliceState.setSlicePinned:(Z)V&#45;&gt;com.android.server.slice.PinnedSliceState.mLock</title>
<path fill="none" stroke="#dc2626" stroke-width="1.6" d="M386.27,-36.07C401.9,-48.85 419,-67.88 419,-90 419,-329 419,-329 419,-329 419,-353.88 399.41,-373.73 379.62,-387.43"/>
<polygon fill="#dc2626" stroke="#dc2626" stroke-width="1.6" points="378.07,-385.1 372.93,-391.84 381.15,-389.78 378.07,-385.1"/>
<text text-anchor="middle" x="440" y="-211.8" font-family="Helvetica,sans-Serif" font-size="9.00" fill="#dc2626"> acquires</text>
</g>
</g>
</svg>
