<?xml version="1.0" encoding="UTF-8" standalone="no"?>
<!DOCTYPE svg PUBLIC "-//W3C//DTD SVG 1.1//EN"
 "http://www.w3.org/Graphics/SVG/1.1/DTD/svg11.dtd">
<!-- Generated by graphviz version 2.43.0 (0)
 -->
<!-- Title: cycle Pages: 1 -->
<svg width="626pt" height="819pt"
 viewBox="0.00 0.00 625.50 819.00" xmlns="http://www.w3.org/2000/svg" xmlns:xlink="http://www.w3.org/1999/xlink">
<g id="graph0" class="graph" transform="scale(1 1) rotate(0) translate(4 815)">
<title>cycle</title>
<polygon fill="white" stroke="transparent" points="-4,4 -4,-815 621.5,-815 621.5,4 -4,4"/>
<!-- com.android.server.audio.AudioService.mHdmiClientLock -->
<g id="node1" class="node">
<title>com.android.server.audio.AudioService.mHdmiClientLock</title>
<path fill="#fee2e2" stroke="#dc2626" stroke-width="2" d="M525.5,-811C525.5,-811 326.5,-811 326.5,-811 320.5,-811 314.5,-805 314.5,-799 314.5,-799 314.5,-787 314.5,-787 314.5,-781 320.5,-775 326.5,-775 326.5,-775 525.5,-775 525.5,-775 531.5,-775 537.5,-781 537.5,-787 537.5,-787 537.5,-799 537.5,-799 537.5,-805 531.5,-811 525.5,-811"/>
<text text-anchor="middle" x="426" y="-789.6" font-family="Helvetica,sans-Serif" font-size="13.00">AudioService.mHdmiClientLock</text>
</g>
<!-- m::com.android.server.audio.AudioService.adjustStreamVolume:(IIILandroid/media/AudioDeviceAttributes;Ljava/lang/String;Ljava/lang/String;IILjava/lang/String;ZI)V -->
<g id="node4" class="node">
<title>m::com.android.server.audio.AudioService.adjustStreamVolume:(IIILandroid/media/AudioDeviceAttributes;Ljava/lang/String;Ljava/lang/String;IILjava/lang/String;ZI)V</title>
<path fill="#eef2ff" stroke="#a5b4fc" d="M440,-729C440,-729 258,-729 258,-729 252,-729 246,-723 246,-717 246,-717 246,-705 246,-705 246,-699 252,-693 258,-693 258,-693 440,-693 440,-693 446,-693 452,-699 452,-705 452,-705 452,-717 452,-717 452,-723 446,-729 440,-729"/>
<text text-anchor="middle" x="349" y="-708.2" font-family="Helvetica,sans-Serif" font-size="11.00">AudioService.adjustStreamVolume</text>
</g>
<!-- com.android.server.audio.AudioService.mHdmiClientLock&#45;&gt;m::com.android.server.audio.AudioService.adjustStreamVolume:(IIILandroid/media/AudioDeviceAttributes;Ljava/lang/String;Ljava/lang/String;IILjava/lang/String;ZI)V -->
<g id="edge1" class="edge">
<title>com.android.server.audio.AudioService.mHdmiClientLock&#45;&gt;m::com.android.server.audio.AudioService.adjustStreamVolume:(IIILandroid/media/AudioDeviceAttributes;Ljava/lang/String;Ljava/lang/String;IILjava/lang/String;ZI)V</title>
<path fill="none" stroke="#dc2626" stroke-width="1.6" d="M409.29,-774.64C398.12,-763.03 383.29,-747.63 371.13,-735"/>
<polygon fill="#dc2626" stroke="#dc2626" stroke-width="1.6" points="372.98,-732.87 365.41,-729.05 368.94,-736.76 372.98,-732.87"/>
<text text-anchor="middle" x="407" y="-749.8" font-family="Helvetica,sans-Serif" font-size="9.00" fill="#dc2626"> holds</text>
</g>
<!-- com.android.server.audio.AudioService.mSettingsLock -->
<g id="node2" class="node">
<title>com.android.server.audio.AudioService.mSettingsLock</title>
<path fill="#fee2e2" stroke="#dc2626" stroke-width="2" d="M483,-337C483,-337 303,-337 303,-337 297,-337 291,-331 291,-325 291,-325 291,-313 291,-313 291,-307 297,-301 303,-301 303,-301 483,-301 483,-301 489,-301 495,-307 495,-313 495,-313 495,-325 495,-325 495,-331 489,-337 483,-337"/>
<text text-anchor="middle" x="393" y="-315.6" font-family="Helvetica,sans-Serif" font-size="13.00">AudioService.mSettingsLock</text>
</g>
<!-- com.android.server.audio.AudioService.mSettingsLock&#45;&gt;com.android.server.audio.AudioService.mHdmiClientLock -->
<g id="edge4" class="edge">
<title>com.android.server.audio.AudioService.mSettingsLock&#45;&gt;com.android.server.audio.AudioService.mHdmiClientLock</title>
<path fill="none" stroke="#dc2626" stroke-width="1.6" stroke-dasharray="5,2" d="M442.09,-337.09C468.62,-349.78 496,-370.11 496,-400 496,-712 496,-712 496,-712 496,-735.67 478.43,-755.7 460.9,-769.8"/>
<polygon fill="#dc2626" stroke="#dc2626" stroke-width="1.6" points="459.12,-767.63 454.47,-774.72 462.53,-772.08 459.12,-767.63"/>
<text text-anchor="middle" x="546.5" y="-553.8" font-family="Helvetica,sans-Serif" font-size="9.00" fill="#dc2626"> holds → acquires [1x]</text>
</g>
<!-- m::com.android.server.audio.AudioService$AudioServiceInternal.updateRingerModeAffectedStreamsInternal:()V -->
<g id="node6" class="node">
<title>m::com.android.server.audio.AudioService$AudioServiceInternal.updateRingerModeAffectedStreamsInternal:()V</title>
<path fill="#eef2ff" stroke="#a5b4fc" d="M605.5,-255C605.5,-255 180.5,-255 180.5,-255 174.5,-255 168.5,-249 168.5,-243 168.5,-243 168.5,-231 168.5,-231 168.5,-225 174.5,-219 180.5,-219 180.5,-219 605.5,-219 605.5,-219 611.5,-219 617.5,-225 617.5,-231 617.5,-231 617.5,-243 617.5,-243 617.5,-249 611.5,-255 605.5,-255"/>
<text text-anchor="middle" x="393" y="-234.2" font-family="Helvetica,sans-Serif" font-size="11.00">AudioService$AudioServiceInternal.updateRingerModeAffectedStreamsInternal</text>
</g>
<!-- com.android.server.audio.AudioService.mSettingsLock&#45;&gt;m::com.android.server.audio.AudioService$AudioServiceInternal.updateRingerModeAffectedStreamsInternal:()V -->
<g id="edge5" class="edge">
<title>com.android.server.audio.AudioService.mSettingsLock&#45;&gt;m::com.android.server.audio.AudioService$AudioServiceInternal.updateRingerModeAffectedStreamsInternal:()V</title>
<path fill="none" stroke="#dc2626" stroke-width="1.6" d="M393,-300.64C393,-289.66 393,-275.29 393,-263.09"/>
<polygon fill="#dc2626" stroke="#dc2626" stroke-width="1.6" points="395.8,-263.05 393,-255.05 390.2,-263.05 395.8,-263.05"/>
<text text-anchor="middle" x="407" y="-275.8" font-family="Helvetica,sans-Serif" font-size="9.00" fill="#dc2626"> holds</text>
</g>
<!-- com.android.server.audio.AudioService.mVolumeStateLock -->
<g id="node3" class="node">
<title>com.android.server.audio.AudioService.mVolumeStateLock</title>
<path fill="#fee2e2" stroke="#dc2626" stroke-width="2" d="M418.5,-574C418.5,-574 207.5,-574 207.5,-574 201.5,-574 195.5,-568 195.5,-562 195.5,-562 195.5,-550 195.5,-550 195.5,-544 201.5,-538 207.5,-538 207.5,-538 418.5,-538 418.5,-538 424.5,-538 430.5,-544 430.5,-550 430.5,-550 430.5,-562 430.5,-562 430.5,-568 424.5,-574 418.5,-574"/>
<text text-anchor="middle" x="313" y="-552.6" font-family="Helvetica,sans-Serif" font-size="13.00">AudioService.mVolumeStateLock</text>
</g>
<!-- m::com.android.server.audio.AudioService$VolumeGroupState.applyAllVolumes:(Z)V -->
<g id="node10" class="node">
<title>m::com.android.server.audio.AudioService$VolumeGroupState.applyAllVolumes:(Z)V</title>
<path fill="#eef2ff" stroke="#a5b4fc" d="M446.5,-492C446.5,-492 179.5,-492 179.5,-492 173.5,-492 167.5,-486 167.5,-480 167.5,-480 167.5,-468 167.5,-468 167.5,-462 173.5,-456 179.5,-456 179.5,-456 446.5,-456 446.5,-456 452.5,-456 458.5,-462 458.5,-468 458.5,-468 458.5,-480 458.5,-480 458.5,-486 452.5,-492 446.5,-492"/>
<text text-anchor="middle" x="313" y="-471.2" font-family="Helvetica,sans-Serif" font-size="11.00">AudioService$VolumeGroupState.applyAllVolumes</text>
</g>
<!-- com.android.server.audio.AudioService.mVolumeStateLock&#45;&gt;m::com.android.server.audio.AudioService$VolumeGroupState.applyAllVolumes:(Z)V -->
<g id="edge10" class="edge">
<title>com.android.server.audio.AudioService.mVolumeStateLock&#45;&gt;m::com.android.server.audio.AudioService$VolumeGroupState.applyAllVolumes:(Z)V</title>
<path fill="none" stroke="#dc2626" stroke-width="1.6" d="M313,-537.64C313,-526.66 313,-512.29 313,-500.09"/>
<polygon fill="#dc2626" stroke="#dc2626" stroke-width="1.6" points="315.8,-500.05 313,-492.05 310.2,-500.05 315.8,-500.05"/>
<text text-anchor="middle" x="327" y="-512.8" font-family="Helvetica,sans-Serif" font-size="9.00" fill="#dc2626"> holds</text>
</g>
<!-- m::com.android.server.audio.AudioService$VolumeStreamState.getIndex:(I)I -->
<g id="node5" class="node">
<title>m::com.android.server.audio.AudioService$VolumeStreamState.getIndex:(I)I</title>
<path fill="#eef2ff" stroke="#a5b4fc" d="M442,-656C442,-656 210,-656 210,-656 204,-656 198,-650 198,-644 198,-644 198,-632 198,-632 198,-626 204,-620 210,-620 210,-620 442,-620 442,-620 448,-620 454,-626 454,-632 454,-632 454,-644 454,-644 454,-650 448,-656 442,-656"/>
<text text-anchor="middle" x="326" y="-635.2" font-family="Helvetica,sans-Serif" font-size="11.00">AudioService$VolumeStreamState.getIndex</text>
</g>
<!-- m::com.android.server.audio.AudioService.adjustStreamVolume:(IIILandroid/media/AudioDeviceAttributes;Ljava/lang/String;Ljava/lang/String;IILjava/lang/String;ZI)V&#45;&gt;m::com.android.server.audio.AudioService$VolumeStreamState.getIndex:(I)I -->
<g id="edge2" class="edge">
<title>m::com.android.server.audio.AudioService.adjustStreamVolume:(IIILandroid/media/AudioDeviceAttributes;Ljava/lang/String;Ljava/lang/String;IILjava/lang/String;ZI)V&#45;&gt;m::com.android.server.audio.AudioService$VolumeStreamState.getIndex:(I)I</title>
<path fill="none" stroke="#64748b" d="M343.43,-692.81C340.61,-684.09 337.12,-673.34 334.02,-663.75"/>
<polygon fill="#64748b" stroke="#64748b" points="336.65,-662.78 331.52,-656.03 331.32,-664.5 336.65,-662.78"/>
</g>
<!-- m::com.android.server.audio.AudioService$VolumeStreamState.getIndex:(I)I&#45;&gt;com.android.server.audio.AudioService.mVolumeStateLock -->
<g id="edge3" class="edge">
<title>m::com.android.server.audio.AudioService$VolumeStreamState.getIndex:(I)I&#45;&gt;com.android.server.audio.AudioService.mVolumeStateLock</title>
<path fill="none" stroke="#dc2626" stroke-width="1.6" d="M323.18,-619.64C321.4,-608.66 319.06,-594.29 317.08,-582.09"/>
<polygon fill="#dc2626" stroke="#dc2626" stroke-width="1.6" points="319.82,-581.5 315.77,-574.05 314.29,-582.4 319.82,-581.5"/>
<text text-anchor="middle" x="342" y="-594.8" font-family="Helvetica,sans-Serif" font-size="9.00" fill="#dc2626"> acquires</text>
</g>
<!-- m::com.android.server.audio.AudioService.&#45;$$Nest$msetRingerModeInt:(Lcom/android/server/audio/AudioService;IZ)V -->
<g id="node7" class="node">
<title>m::com.android.server.audio.AudioService.&#45;$$Nest$msetRingerModeInt:(Lcom/android/server/audio/AudioService;IZ)V</title>
<path fill="#eef2ff" stroke="#a5b4fc" d="M454,-182C454,-182 230,-182 230,-182 224,-182 218,-176 218,-170 218,-170 218,-158 218,-158 218,-152 224,-146 230,-146 230,-146 454,-146 454,-146 460,-146 466,-152 466,-158 466,-158 466,-170 466,-170 466,-176 460,-182 454,-182"/>
<text text-anchor="middle" x="342" y="-161.2" font-family="Helvetica,sans-Serif" font-size="11.00">AudioService.&#45;$$Nest$msetRingerModeInt</text>
</g>
<!-- m::com.android.server.audio.AudioService$AudioServiceInternal.updateRingerModeAffectedStreamsInternal:()V&#45;&gt;m::com.android.server.audio.AudioService.&#45;$$Nest$msetRingerModeInt:(Lcom/android/server/audio/AudioService;IZ)V -->
<g id="edge6" class="edge">
<title>m::com.android.server.audio.AudioService$AudioServiceInternal.updateRingerModeAffectedStreamsInternal:()V&#45;&gt;m::com.android.server.audio.AudioService.&#45;$$Nest$msetRingerModeInt:(Lcom/android/server/audio/AudioService;IZ)V</title>
<path fill="none" stroke="#64748b" d="M380.65,-218.81C374.14,-209.74 366.05,-198.48 358.95,-188.6"/>
<polygon fill="#64748b" stroke="#64748b" points="361.17,-186.89 354.23,-182.03 356.63,-190.16 361.17,-186.89"/>
</g>
<!-- m::com.android.server.audio.AudioService.setRingerModeInt:(IZ)V -->
<g id="node8" class="node">
<title>m::com.android.server.audio.AudioService.setRingerModeInt:(IZ)V</title>
<path fill="#eef2ff" stroke="#a5b4fc" d="M359,-109C359,-109 195,-109 195,-109 189,-109 183,-103 183,-97 183,-97 183,-85 183,-85 183,-79 189,-73 195,-73 195,-73 359,-73 359,-73 365,-73 371,-79 371,-85 371,-85 371,-97 371,-97 371,-103 365,-109 359,-109"/>
<text text-anchor="middle" x="277" y="-88.2" font-family="Helvetica,sans-Serif" font-size="11.00">AudioService.setRingerModeInt</text>
</g>
<!-- m::com.android.server.audio.AudioService.&#45;$$Nest$msetRingerModeInt:(Lcom/android/server/audio/AudioService;IZ)V&#45;&gt;m::com.android.server.audio.AudioService.setRingerModeInt:(IZ)V -->
<g id="edge7" class="edge">
<title>m::com.android.server.audio.AudioService.&#45;$$Nest$msetRingerModeInt:(Lcom/android/server/audio/AudioService;IZ)V&#45;&gt;m::com.android.server.audio.AudioService.setRingerModeInt:(IZ)V</title>
<path fill="none" stroke="#64748b" d="M326.27,-145.81C317.8,-136.57 307.25,-125.04 298.09,-115.03"/>
<polygon fill="#64748b" stroke="#64748b" points="300.06,-113.04 292.59,-109.03 295.93,-116.82 300.06,-113.04"/>
</g>
<!-- m::com.android.server.audio.AudioService.updateStreamMuteFromRingerMode:()V -->
<g id="node9" class="node">
<title>m::com.android.server.audio.AudioService.updateStreamMuteFromRingerMode:()V</title>
<path fill="#eef2ff" stroke="#a5b4fc" d="M278,-36C278,-36 12,-36 12,-36 6,-36 0,-30 0,-24 0,-24 0,-12 0,-12 0,-6 6,0 12,0 12,0 278,0 278,0 284,0 290,-6 290,-12 290,-12 290,-24 290,-24 290,-30 284,-36 278,-36"/>
<text text-anchor="middle" x="145" y="-15.2" font-family="Helvetica,sans-Serif" font-size="11.00">AudioService.updateStreamMuteFromRingerMode</text>
</g>
<!-- m::com.android.server.audio.AudioService.setRingerModeInt:(IZ)V&#45;&gt;m::com.android.server.audio.AudioService.updateStreamMuteFromRingerMode:()V -->
<g id="edge8" class="edge">
<title>m::com.android.server.audio.AudioService.setRingerModeInt:(IZ)V&#45;&gt;m::com.android.server.audio.AudioService.updateStreamMuteFromRingerMode:()V</title>
<path fill="none" stroke="#64748b" d="M245.38,-72.99C226.99,-63.1 203.65,-50.54 184.1,-40.03"/>
<polygon fill="#64748b" stroke="#64748b" points="185.19,-37.44 176.82,-36.11 182.54,-42.37 185.19,-37.44"/>
</g>
<!-- m::com.android.server.audio.AudioService.updateStreamMuteFromRingerMode:()V&#45;&gt;com.android.server.audio.AudioService.mVolumeStateLock -->
<g id="edge9" class="edge">
<title>m::com.android.server.audio.AudioService.updateStreamMuteFromRingerMode:()V&#45;&gt;com.android.server.audio.AudioService.mVolumeStateLock</title>
<path fill="none" stroke="#dc2626" stroke-width="1.6" d="M139.33,-36C135.08,-50.26 130,-71.23 130,-90 130,-475 130,-475 130,-475 130,-508.14 155.51,-527.69 187.49,-539.17"/>
<polygon fill="#dc2626" stroke="#dc2626" stroke-width="1.6" points="186.82,-541.9 195.29,-541.78 188.59,-536.59 186.82,-541.9"/>
<text text-anchor="middle" x="151" y="-275.8" font-family="Helvetica,sans-Serif" font-size="9.00" fill="#dc2626"> acquires</text>
</g>
<!-- m::com.android.server.audio.AudioService$VolumeStreamState.setIndex:(IILjava/lang/String;Z)Z -->
<g id="node11" class="node">
<title>m::com.android.server.audio.AudioService$VolumeStreamState.setIndex:(IILjava/lang/String;Z)Z</title>
<path fill="#eef2ff" stroke="#a5b4fc" d="M437.5,-419C437.5,-419 206.5,-419 206.5,-419 200.5,-419 194.5,-413 194.5,-407 194.5,-407 194.5,-395 194.5,-395 194.5,-389 200.5,-383 206.5,-383 206.5,-383 437.5,-383 437.5,-383 443.5,-383 449.5,-389 449.5,-395 449.5,-395 449.5,-407 449.5,-407 449.5,-413 443.5,-419 437.5,-419"/>
<text text-anchor="middle" x="322" y="-398.2" font-family="Helvetica,sans-Serif" font-size="11.00">AudioService$VolumeStreamState.setIndex</text>
</g>
<!-- m::com.android.server.audio.AudioService$VolumeGroupState.applyAllVolumes:(Z)V&#45;&gt;m::com.android.server.audio.AudioService$VolumeStreamState.setIndex:(IILjava/lang/String;Z)Z -->
<g id="edge11" class="edge">
<title>m::com.android.server.audio.AudioService$VolumeGroupState.applyAllVolumes:(Z)V&#45;&gt;m::com.android.server.audio.AudioService$VolumeStreamState.setIndex:(IILjava/lang/String;Z)Z</title>
<path fill="none" stroke="#64748b" d="M315.18,-455.81C316.27,-447.18 317.62,-436.56 318.83,-427.03"/>
<polygon fill="#64748b" stroke="#64748b" points="321.61,-427.32 319.84,-419.03 316.06,-426.61 321.61,-427.32"/>
</g>
<!-- m::com.android.server.audio.AudioService$VolumeStreamState.setIndex:(IILjava/lang/String;Z)Z&#45;&gt;com.android.server.audio.AudioService.mSettingsLock -->
<g id="edge12" class="edge">
<title>m::com.android.server.audio.AudioService$VolumeStreamState.setIndex:(IILjava/lang/String;Z)Z&#45;&gt;com.android.server.audio.AudioService.mSettingsLock</title>
<path fill="none" stroke="#dc2626" stroke-width="1.6" d="M337.41,-382.64C347.62,-371.14 361.13,-355.9 372.28,-343.34"/>
<polygon fill="#dc2626" stroke="#dc2626" stroke-width="1.6" points="374.65,-344.89 377.87,-337.05 370.46,-341.17 374.65,-344.89"/>
<text text-anchor="middle" x="383" y="-357.8" font-family="Helvetica,sans-Serif" font-size="9.00" fill="#dc2626"> acquires</text>
</g>
</g>
</svg>
