<?xml version="1.0" encoding="UTF-8" standalone="no"?>
<!DOCTYPE svg PUBLIC "-//W3C//DTD SVG 1.1//EN"
 "http://www.w3.org/Graphics/SVG/1.1/DTD/svg11.dtd">
<!-- Generated by graphviz version 2.43.0 (0)
 -->
<!-- Title: cycle Pages: 1 -->
<svg width="785pt" height="1038pt"
 viewBox="0.00 0.00 785.00 1038.00" xmlns="http://www.w3.org/2000/svg" xmlns:xlink="http://www.w3.org/1999/xlink">
<g id="graph0" class="graph" transform="scale(1 1) rotate(0) translate(4 1034)">
<title>cycle</title>
<polygon fill="white" stroke="transparent" points="-4,4 -4,-1034 781,-1034 781,4 -4,4"/>
<!-- com.android.server.power.thermal.ThermalManagerService$TemperatureWatcher.mSamples -->
<g id="node1" class="node">
<title>com.android.server.power.thermal.ThermalManagerService$TemperatureWatcher.mSamples</title>
<path fill="#fee2e2" stroke="#dc2626" stroke-width="2" d="M765,-1030C765,-1030 391,-1030 391,-1030 385,-1030 379,-1024 379,-1018 379,-1018 379,-1006 379,-1006 379,-1000 385,-994 391,-994 391,-994 765,-994 765,-994 771,-994 777,-1000 777,-1006 777,-1006 777,-1018 777,-1018 777,-1024 771,-1030 765,-1030"/>
<text text-anchor="middle" x="578" y="-1008.6" font-family="Helvetica,sans-Serif" font-size="13.00">ThermalManagerService$TemperatureWatcher.mSamples</text>
</g>
<!-- m::com.android.server.power.thermal.ThermalManagerService$1.onThresholdChanged:(Landroid/hardware/thermal/TemperatureThreshold;)V -->
<g id="node4" class="node">
<title>m::com.android.server.power.thermal.ThermalManagerService$1.onThresholdChanged:(Landroid/hardware/thermal/TemperatureThreshold;)V</title>
<path fill="#eef2ff" stroke="#a5b4fc" d="M595.5,-948C595.5,-948 336.5,-948 336.5,-948 330.5,-948 324.5,-942 324.5,-936 324.5,-936 324.5,-924 324.5,-924 324.5,-918 330.5,-912 336.5,-912 336.5,-912 595.5,-912 595.5,-912 601.5,-912 607.5,-918 607.5,-924 607.5,-924 607.5,-936 607.5,-936 607.5,-942 601.5,-948 595.5,-948"/>
<text text-anchor="middle" x="466" y="-927.2" font-family="Helvetica,sans-Serif" font-size="11.00">ThermalManagerService$1.onThresholdChanged</text>
</g>
<!-- com.android.server.power.thermal.ThermalManagerService$TemperatureWatcher.mSamples&#45;&gt;m::com.android.server.power.thermal.ThermalManagerService$1.onThresholdChanged:(Landroid/hardware/thermal/TemperatureThreshold;)V -->
<g id="edge1" class="edge">
<title>com.android.server.power.thermal.ThermalManagerService$TemperatureWatcher.mSamples&#45;&gt;m::com.android.server.power.thermal.ThermalManagerService$1.onThresholdChanged:(Landroid/hardware/thermal/TemperatureThreshold;)V</title>
<path fill="none" stroke="#dc2626" stroke-width="1.6" d="M553.97,-993.84C537.29,-981.92 514.91,-965.94 496.9,-953.07"/>
<polygon fill="#dc2626" stroke="#dc2626" stroke-width="1.6" points="498.12,-950.51 489.99,-948.13 494.87,-955.06 498.12,-950.51"/>
<text text-anchor="middle" x="546" y="-968.8" font-family="Helvetica,sans-Serif" font-size="9.00" fill="#dc2626"> held in</text>
</g>
<!-- com.android.server.power.thermal.ThermalManagerService$ThermalHalWrapper.mHalLock -->
<g id="node2" class="node">
<title>com.android.server.power.thermal.ThermalManagerService$ThermalHalWrapper.mHalLock</title>
<path fill="#fee2e2" stroke="#dc2626" stroke-width="2" d="M581,-647C581,-647 219,-647 219,-647 213,-647 207,-641 207,-635 207,-635 207,-623 207,-623 207,-617 213,-611 219,-611 219,-611 581,-611 581,-611 587,-611 593,-617 593,-623 593,-623 593,-635 593,-635 593,-641 587,-647 581,-647"/>
<text text-anchor="middle" x="400" y="-625.6" font-family="Helvetica,sans-Serif" font-size="13.00">ThermalManagerService$ThermalHalWrapper.mHalLock</text>
</g>
<!-- m::com.android.server.power.thermal.ThermalManagerService$ThermalHalWrapper$DeathRecipient.serviceDied:(J)V -->
<g id="node8" class="node">
<title>m::com.android.server.power.thermal.ThermalManagerService$ThermalHalWrapper$DeathRecipient.serviceDied:(J)V</title>
<path fill="#eef2ff" stroke="#a5b4fc" d="M617.5,-565C617.5,-565 216.5,-565 216.5,-565 210.5,-565 204.5,-559 204.5,-553 204.5,-553 204.5,-541 204.5,-541 204.5,-535 210.5,-529 216.5,-529 216.5,-529 617.5,-529 617.5,-529 623.5,-529 629.5,-535 629.5,-541 629.5,-541 629.5,-553 629.5,-553 629.5,-559 623.5,-565 617.5,-565"/>
<text text-anchor="middle" x="417" y="-544.2" font-family="Helvetica,sans-Serif" font-size="11.00">ThermalManagerService$ThermalHalWrapper$DeathRecipient.serviceDied</text>
</g>
<!-- com.android.server.power.thermal.ThermalManagerService$ThermalHalWrapper.mHalLock&#45;&gt;m::com.android.server.power.thermal.ThermalManagerService$ThermalHalWrapper$DeathRecipient.serviceDied:(J)V -->
<g id="edge6" class="edge">
<title>com.android.server.power.thermal.ThermalManagerService$ThermalHalWrapper.mHalLock&#45;&gt;m::com.android.server.power.thermal.ThermalManagerService$ThermalHalWrapper$DeathRecipient.serviceDied:(J)V</title>
<path fill="none" stroke="#dc2626" stroke-width="1.6" d="M403.69,-610.64C406.02,-599.66 409.07,-585.29 411.67,-573.09"/>
<polygon fill="#dc2626" stroke="#dc2626" stroke-width="1.6" points="414.45,-573.46 413.38,-565.05 408.98,-572.29 414.45,-573.46"/>
<text text-anchor="middle" x="427" y="-585.8" font-family="Helvetica,sans-Serif" font-size="9.00" fill="#dc2626"> held in</text>
</g>
<!-- com.android.server.power.thermal.ThermalManagerService.mLock -->
<g id="node3" class="node">
<title>com.android.server.power.thermal.ThermalManagerService.mLock</title>
<path fill="#fee2e2" stroke="#dc2626" stroke-width="2" d="M504.5,-191C504.5,-191 303.5,-191 303.5,-191 297.5,-191 291.5,-185 291.5,-179 291.5,-179 291.5,-167 291.5,-167 291.5,-161 297.5,-155 303.5,-155 303.5,-155 504.5,-155 504.5,-155 510.5,-155 516.5,-161 516.5,-167 516.5,-167 516.5,-179 516.5,-179 516.5,-185 510.5,-191 504.5,-191"/>
<text text-anchor="middle" x="404" y="-169.6" font-family="Helvetica,sans-Serif" font-size="13.00">ThermalManagerService.mLock</text>
</g>
<!-- m::com.android.server.power.thermal.ThermalManagerService.onActivityManagerReady:()V -->
<g id="node13" class="node">
<title>m::com.android.server.power.thermal.ThermalManagerService.onActivityManagerReady:()V</title>
<path fill="#eef2ff" stroke="#a5b4fc" d="M517,-109C517,-109 249,-109 249,-109 243,-109 237,-103 237,-97 237,-97 237,-85 237,-85 237,-79 243,-73 249,-73 249,-73 517,-73 517,-73 523,-73 529,-79 529,-85 529,-85 529,-97 529,-97 529,-103 523,-109 517,-109"/>
<text text-anchor="middle" x="383" y="-88.2" font-family="Helvetica,sans-Serif" font-size="11.00">ThermalManagerService.onActivityManagerReady</text>
</g>
<!-- com.android.server.power.thermal.ThermalManagerService.mLock&#45;&gt;m::com.android.server.power.thermal.ThermalManagerService.onActivityManagerReady:()V -->
<g id="edge13" class="edge">
<title>com.android.server.power.thermal.ThermalManagerService.mLock&#45;&gt;m::com.android.server.power.thermal.ThermalManagerService.onActivityManagerReady:()V</title>
<path fill="none" stroke="#dc2626" stroke-width="1.6" d="M399.44,-154.64C396.56,-143.66 392.79,-129.29 389.59,-117.09"/>
<polygon fill="#dc2626" stroke="#dc2626" stroke-width="1.6" points="392.22,-116.08 387.48,-109.05 386.8,-117.5 392.22,-116.08"/>
<text text-anchor="middle" x="412" y="-129.8" font-family="Helvetica,sans-Serif" font-size="9.00" fill="#dc2626"> held in</text>
</g>
<!-- m::com.android.server.power.thermal.ThermalManagerService$TemperatureWatcher.getHeadroomCallbackDataLocked:()Lcom/android/server/power/thermal/ThermalManagerService$HeadroomCallbackData; -->
<g id="node5" class="node">
<title>m::com.android.server.power.thermal.ThermalManagerService$TemperatureWatcher.getHeadroomCallbackDataLocked:()Lcom/android/server/power/thermal/ThermalManagerService$HeadroomCallbackData;</title>
<path fill="#eef2ff" stroke="#a5b4fc" d="M618,-875C618,-875 182,-875 182,-875 176,-875 170,-869 170,-863 170,-863 170,-851 170,-851 170,-845 176,-839 182,-839 182,-839 618,-839 618,-839 624,-839 630,-845 630,-851 630,-851 630,-863 630,-863 630,-869 624,-875 618,-875"/>
<text text-anchor="middle" x="400" y="-854.2" font-family="Helvetica,sans-Serif" font-size="11.00">ThermalManagerService$TemperatureWatcher.getHeadroomCallbackDataLocked</text>
</g>
<!-- m::com.android.server.power.thermal.ThermalManagerService$1.onThresholdChanged:(Landroid/hardware/thermal/TemperatureThreshold;)V&#45;&gt;m::com.android.server.power.thermal.ThermalManagerService$TemperatureWatcher.getHeadroomCallbackDataLocked:()Lcom/android/server/power/thermal/ThermalManagerService$HeadroomCallbackData; -->
<g id="edge2" class="edge">
<title>m::com.android.server.power.thermal.ThermalManagerService$1.onThresholdChanged:(Landroid/hardware/thermal/TemperatureThreshold;)V&#45;&gt;m::com.android.server.power.thermal.ThermalManagerService$TemperatureWatcher.getHeadroomCallbackDataLocked:()Lcom/android/server/power/thermal/ThermalManagerService$HeadroomCallbackData;</title>
<path fill="none" stroke="#64748b" d="M450.02,-911.81C441.43,-902.57 430.72,-891.04 421.41,-881.03"/>
<polygon fill="#64748b" stroke="#64748b" points="423.33,-878.98 415.83,-875.03 419.23,-882.79 423.33,-878.98"/>
</g>
<!-- m::com.android.server.power.thermal.ThermalManagerService$TemperatureWatcher.getForecast:(I)F -->
<g id="node6" class="node">
<title>m::com.android.server.power.thermal.ThermalManagerService$TemperatureWatcher.getForecast:(I)F</title>
<path fill="#eef2ff" stroke="#a5b4fc" d="M558,-802C558,-802 242,-802 242,-802 236,-802 230,-796 230,-790 230,-790 230,-778 230,-778 230,-772 236,-766 242,-766 242,-766 558,-766 558,-766 564,-766 570,-772 570,-778 570,-778 570,-790 570,-790 570,-796 564,-802 558,-802"/>
<text text-anchor="middle" x="400" y="-781.2" font-family="Helvetica,sans-Serif" font-size="11.00">ThermalManagerService$TemperatureWatcher.getForecast</text>
</g>
<!-- m::com.android.server.power.thermal.ThermalManagerService$TemperatureWatcher.getHeadroomCallbackDataLocked:()Lcom/android/server/power/thermal/ThermalManagerService$HeadroomCallbackData;&#45;&gt;m::com.android.server.power.thermal.ThermalManagerService$TemperatureWatcher.getForecast:(I)F -->
<g id="edge3" class="edge">
<title>m::com.android.server.power.thermal.ThermalManagerService$TemperatureWatcher.getHeadroomCallbackDataLocked:()Lcom/android/server/power/thermal/ThermalManagerService$HeadroomCallbackData;&#45;&gt;m::com.android.server.power.thermal.ThermalManagerService$TemperatureWatcher.getForecast:(I)F</title>
<path fill="none" stroke="#64748b" d="M400,-838.81C400,-830.18 400,-819.56 400,-810.03"/>
<polygon fill="#64748b" stroke="#64748b" points="402.8,-810.03 400,-802.03 397.2,-810.03 402.8,-810.03"/>
</g>
<!-- m::com.android.server.power.thermal.ThermalManagerService$ThermalHalAidlWrapper.forecastSkinTemperature:(I)F -->
<g id="node7" class="node">
<title>m::com.android.server.power.thermal.ThermalManagerService$ThermalHalAidlWrapper.forecastSkinTemperature:(I)F</title>
<path fill="#eef2ff" stroke="#a5b4fc" d="M601,-729C601,-729 199,-729 199,-729 193,-729 187,-723 187,-717 187,-717 187,-705 187,-705 187,-699 193,-693 199,-693 199,-693 601,-693 601,-693 607,-693 613,-699 613,-705 613,-705 613,-717 613,-717 613,-723 607,-729 601,-729"/>
<text text-anchor="middle" x="400" y="-708.2" font-family="Helvetica,sans-Serif" font-size="11.00">ThermalManagerService$ThermalHalAidlWrapper.forecastSkinTemperature</text>
</g>
<!-- m::com.android.server.power.thermal.ThermalManagerService$TemperatureWatcher.getForecast:(I)F&#45;&gt;m::com.android.server.power.thermal.ThermalManagerService$ThermalHalAidlWrapper.forecastSkinTemperature:(I)F -->
<g id="edge4" class="edge">
<title>m::com.android.server.power.thermal.ThermalManagerService$TemperatureWatcher.getForecast:(I)F&#45;&gt;m::com.android.server.power.thermal.ThermalManagerService$ThermalHalAidlWrapper.forecastSkinTemperature:(I)F</title>
<path fill="none" stroke="#64748b" d="M400,-765.81C400,-757.18 400,-746.56 400,-737.03"/>
<polygon fill="#64748b" stroke="#64748b" points="402.8,-737.03 400,-729.03 397.2,-737.03 402.8,-737.03"/>
</g>
<!-- m::com.android.server.power.thermal.ThermalManagerService$ThermalHalAidlWrapper.forecastSkinTemperature:(I)F&#45;&gt;com.android.server.power.thermal.ThermalManagerService$ThermalHalWrapper.mHalLock -->
<g id="edge5" class="edge">
<title>m::com.android.server.power.thermal.ThermalManagerService$ThermalHalAidlWrapper.forecastSkinTemperature:(I)F&#45;&gt;com.android.server.power.thermal.ThermalManagerService$ThermalHalWrapper.mHalLock</title>
<path fill="none" stroke="#dc2626" stroke-width="1.6" d="M400,-692.64C400,-681.66 400,-667.29 400,-655.09"/>
<polygon fill="#dc2626" stroke="#dc2626" stroke-width="1.6" points="402.8,-655.05 400,-647.05 397.2,-655.05 402.8,-655.05"/>
<text text-anchor="middle" x="421" y="-667.8" font-family="Helvetica,sans-Serif" font-size="9.00" fill="#dc2626"> acquires</text>
</g>
<!-- m::com.android.server.power.thermal.ThermalManagerService$ThermalHalWrapper.resendCurrentTemperatures:()V -->
<g id="node9" class="node">
<title>m::com.android.server.power.thermal.ThermalManagerService$ThermalHalWrapper.resendCurrentTemperatures:()V</title>
<path fill="#eef2ff" stroke="#a5b4fc" d="M616.5,-492C616.5,-492 217.5,-492 217.5,-492 211.5,-492 205.5,-486 205.5,-480 205.5,-480 205.5,-468 205.5,-468 205.5,-462 211.5,-456 217.5,-456 217.5,-456 616.5,-456 616.5,-456 622.5,-456 628.5,-462 628.5,-468 628.5,-468 628.5,-480 628.5,-480 628.5,-486 622.5,-492 616.5,-492"/>
<text text-anchor="middle" x="417" y="-471.2" font-family="Helvetica,sans-Serif" font-size="11.00">ThermalManagerService$ThermalHalWrapper.resendCurrentTemperatures</text>
</g>
<!-- m::com.android.server.power.thermal.ThermalManagerService$ThermalHalWrapper$DeathRecipient.serviceDied:(J)V&#45;&gt;m::com.android.server.power.thermal.ThermalManagerService$ThermalHalWrapper.resendCurrentTemperatures:()V -->
<g id="edge7" class="edge">
<title>m::com.android.server.power.thermal.ThermalManagerService$ThermalHalWrapper$DeathRecipient.serviceDied:(J)V&#45;&gt;m::com.android.server.power.thermal.ThermalManagerService$ThermalHalWrapper.resendCurrentTemperatures:()V</title>
<path fill="none" stroke="#64748b" d="M417,-528.81C417,-520.18 417,-509.56 417,-500.03"/>
<polygon fill="#64748b" stroke="#64748b" points="419.8,-500.03 417,-492.03 414.2,-500.03 419.8,-500.03"/>
</g>
<!-- m::com.android.server.power.thermal.ThermalManagerService$1.onTemperatureChanged:(Landroid/os/Temperature;)V -->
<g id="node10" class="node">
<title>m::com.android.server.power.thermal.ThermalManagerService$1.onTemperatureChanged:(Landroid/os/Temperature;)V</title>
<path fill="#eef2ff" stroke="#a5b4fc" d="M554,-419C554,-419 280,-419 280,-419 274,-419 268,-413 268,-407 268,-407 268,-395 268,-395 268,-389 274,-383 280,-383 280,-383 554,-383 554,-383 560,-383 566,-389 566,-395 566,-395 566,-407 566,-407 566,-413 560,-419 554,-419"/>
<text text-anchor="middle" x="417" y="-398.2" font-family="Helvetica,sans-Serif" font-size="11.00">ThermalManagerService$1.onTemperatureChanged</text>
</g>
<!-- m::com.android.server.power.thermal.ThermalManagerService$ThermalHalWrapper.resendCurrentTemperatures:()V&#45;&gt;m::com.android.server.power.thermal.ThermalManagerService$1.onTemperatureChanged:(Landroid/os/Temperature;)V -->
<g id="edge8" class="edge">
<title>m::com.android.server.power.thermal.ThermalManagerService$ThermalHalWrapper.resendCurrentTemperatures:()V&#45;&gt;m::com.android.server.power.thermal.ThermalManagerService$1.onTemperatureChanged:(Landroid/os/Temperature;)V</title>
<path fill="none" stroke="#64748b" d="M417,-455.81C417,-447.18 417,-436.56 417,-427.03"/>
<polygon fill="#64748b" stroke="#64748b" points="419.8,-427.03 417,-419.03 414.2,-427.03 419.8,-427.03"/>
</g>
<!-- m::com.android.server.power.thermal.ThermalManagerService.&#45;$$Nest$monTemperatureChanged:(Lcom/android/server/power/thermal/ThermalManagerService;Landroid/os/Temperature;Z)V -->
<g id="node11" class="node">
<title>m::com.android.server.power.thermal.ThermalManagerService.&#45;$$Nest$monTemperatureChanged:(Lcom/android/server/power/thermal/ThermalManagerService;Landroid/os/Temperature;Z)V</title>
<path fill="#eef2ff" stroke="#a5b4fc" d="M577,-346C577,-346 257,-346 257,-346 251,-346 245,-340 245,-334 245,-334 245,-322 245,-322 245,-316 251,-310 257,-310 257,-310 577,-310 577,-310 583,-310 589,-316 589,-322 589,-322 589,-334 589,-334 589,-340 583,-346 577,-346"/>
<text text-anchor="middle" x="417" y="-325.2" font-family="Helvetica,sans-Serif" font-size="11.00">ThermalManagerService.&#45;$$Nest$monTemperatureChanged</text>
</g>
<!-- m::com.android.server.power.thermal.ThermalManagerService$1.onTemperatureChanged:(Landroid/os/Temperature;)V&#45;&gt;m::com.android.server.power.thermal.ThermalManagerService.&#45;$$Nest$monTemperatureChanged:(Lcom/android/server/power/thermal/ThermalManagerService;Landroid/os/Temperature;Z)V -->
<g id="edge9" class="edge">
<title>m::com.android.server.power.thermal.ThermalManagerService$1.onTemperatureChanged:(Landroid/os/Temperature;)V&#45;&gt;m::com.android.server.power.thermal.ThermalManagerService.&#45;$$Nest$monTemperatureChanged:(Lcom/android/server/power/thermal/ThermalManagerService;Landroid/os/Temperature;Z)V</title>
<path fill="none" stroke="#64748b" d="M417,-382.81C417,-374.18 417,-363.56 417,-354.03"/>
<polygon fill="#64748b" stroke="#64748b" points="419.8,-354.03 417,-346.03 414.2,-354.03 419.8,-354.03"/>
</g>
<!-- m::com.android.server.power.thermal.ThermalManagerService.onTemperatureChanged:(Landroid/os/Temperature;Z)V -->
<g id="node12" class="node">
<title>m::com.android.server.power.thermal.ThermalManagerService.onTemperatureChanged:(Landroid/os/Temperature;Z)V</title>
<path fill="#eef2ff" stroke="#a5b4fc" d="M547,-273C547,-273 287,-273 287,-273 281,-273 275,-267 275,-261 275,-261 275,-249 275,-249 275,-243 281,-237 287,-237 287,-237 547,-237 547,-237 553,-237 559,-243 559,-249 559,-249 559,-261 559,-261 559,-267 553,-273 547,-273"/>
<text text-anchor="middle" x="417" y="-252.2" font-family="Helvetica,sans-Serif" font-size="11.00">ThermalManagerService.onTemperatureChanged</text>
</g>
<!-- m::com.android.server.power.thermal.ThermalManagerService.&#45;$$Nest$monTemperatureChanged:(Lcom/android/server/power/thermal/ThermalManagerService;Landroid/os/Temperature;Z)V&#45;&gt;m::com.android.server.power.thermal.ThermalManagerService.onTemperatureChanged:(Landroid/os/Temperature;Z)V -->
<g id="edge10" class="edge">
<title>m::com.android.server.power.thermal.ThermalManagerService.&#45;$$Nest$monTemperatureChanged:(Lcom/android/server/power/thermal/ThermalManagerService;Landroid/os/Temperature;Z)V&#45;&gt;m::com.android.server.power.thermal.ThermalManagerService.onTemperatureChanged:(Landroid/os/Temperature;Z)V</title>
<path fill="none" stroke="#64748b" d="M417,-309.81C417,-301.18 417,-290.56 417,-281.03"/>
<polygon fill="#64748b" stroke="#64748b" points="419.8,-281.03 417,-273.03 414.2,-281.03 419.8,-281.03"/>
</g>
<!-- m::com.android.server.power.thermal.ThermalManagerService.onTemperatureChanged:(Landroid/os/Temperature;Z)V&#45;&gt;com.android.server.power.thermal.ThermalManagerService$TemperatureWatcher.mSamples -->
<g id="edge11" class="edge">
<title>m::com.android.server.power.thermal.ThermalManagerService.onTemperatureChanged:(Landroid/os/Temperature;Z)V&#45;&gt;com.android.server.power.thermal.ThermalManagerService$TemperatureWatcher.mSamples</title>
<path fill="none" stroke="#dc2626" stroke-width="1.6" d="M559,-272.7C615.8,-283.47 668,-300.56 668,-327 668,-931 668,-931 668,-931 668,-956.94 646.86,-976.53 625.07,-989.83"/>
<polygon fill="#dc2626" stroke="#dc2626" stroke-width="1.6" points="623.52,-987.49 618,-993.92 626.33,-992.33 623.52,-987.49"/>
<text text-anchor="middle" x="689" y="-626.8" font-family="Helvetica,sans-Serif" font-size="9.00" fill="#dc2626"> acquires</text>
</g>
<!-- m::com.android.server.power.thermal.ThermalManagerService.onTemperatureChanged:(Landroid/os/Temperature;Z)V&#45;&gt;com.android.server.power.thermal.ThermalManagerService.mLock -->
<g id="edge12" class="edge">
<title>m::com.android.server.power.thermal.ThermalManagerService.onTemperatureChanged:(Landroid/os/Temperature;Z)V&#45;&gt;com.android.server.power.thermal.ThermalManagerService.mLock</title>
<path fill="none" stroke="#dc2626" stroke-width="1.6" d="M414.18,-236.64C412.4,-225.66 410.06,-211.29 408.08,-199.09"/>
<polygon fill="#dc2626" stroke="#dc2626" stroke-width="1.6" points="410.82,-198.5 406.77,-191.05 405.29,-199.4 410.82,-198.5"/>
<text text-anchor="middle" x="433" y="-211.8" font-family="Helvetica,sans-Serif" font-size="9.00" fill="#dc2626"> acquires</text>
</g>
<!-- m::com.android.server.power.thermal.ThermalManagerService$ThermalHalAidlWrapper.connectToHal:()Z -->
<g id="node14" class="node">
<title>m::com.android.server.power.thermal.ThermalManagerService$ThermalHalAidlWrapper.connectToHal:()Z</title>
<path fill="#eef2ff" stroke="#a5b4fc" d="M350,-36C350,-36 12,-36 12,-36 6,-36 0,-30 0,-24 0,-24 0,-12 0,-12 0,-6 6,0 12,0 12,0 350,0 350,0 356,0 362,-6 362,-12 362,-12 362,-24 362,-24 362,-30 356,-36 350,-36"/>
<text text-anchor="middle" x="181" y="-15.2" font-family="Helvetica,sans-Serif" font-size="11.00">ThermalManagerService$ThermalHalAidlWrapper.connectToHal</text>
</g>
<!-- m::com.android.server.power.thermal.ThermalManagerService.onActivityManagerReady:()V&#45;&gt;m::com.android.server.power.thermal.ThermalManagerService$ThermalHalAidlWrapper.connectToHal:()Z -->
<g id="edge14" class="edge">
<title>m::com.android.server.power.thermal.ThermalManagerService.onActivityManagerReady:()V&#45;&gt;m::com.android.server.power.thermal.ThermalManagerService$ThermalHalAidlWrapper.connectToHal:()Z</title>
<path fill="none" stroke="#64748b" d="M334.62,-72.99C305.35,-62.71 267.9,-49.55 237.31,-38.79"/>
<polygon fill="#64748b" stroke="#64748b" points="238.17,-36.12 229.69,-36.11 236.31,-41.41 238.17,-36.12"/>
</g>
<!-- m::com.android.server.power.thermal.ThermalManagerService$ThermalHalAidlWrapper.connectToHal:()Z&#45;&gt;com.android.server.power.thermal.ThermalManagerService$ThermalHalWrapper.mHalLock -->
<g id="edge15" class="edge">
<title>m::com.android.server.power.thermal.ThermalManagerService$ThermalHalAidlWrapper.connectToHal:()Z&#45;&gt;com.android.server.power.thermal.ThermalManagerService$ThermalHalWrapper.mHalLock</title>
<path fill="none" stroke="#dc2626" stroke-width="1.6" d="M175.33,-36C171.08,-50.26 166,-71.23 166,-90 166,-548 166,-548 166,-548 166,-575.94 226.49,-596.15 285.96,-609.27"/>
<polygon fill="#dc2626" stroke="#dc2626" stroke-width="1.6" points="285.54,-612.04 293.95,-610.99 286.72,-606.57 285.54,-612.04"/>
<text text-anchor="middle" x="187" y="-325.8" font-family="Helvetica,sans-Serif" font-size="9.00" fill="#dc2626"> acquires</text>
</g>
</g>
</svg>
