<?xml version="1.0" encoding="UTF-8" standalone="no"?>
<!DOCTYPE svg PUBLIC "-//W3C//DTD SVG 1.1//EN"
 "http://www.w3.org/Graphics/SVG/1.1/DTD/svg11.dtd">
<!-- Generated by graphviz version 2.43.0 (0)
 -->
<!-- Title: cycle Pages: 1 -->
<svg width="512pt" height="965pt"
 viewBox="0.00 0.00 512.00 965.00" xmlns="http://www.w3.org/2000/svg" xmlns:xlink="http://www.w3.org/1999/xlink">
<g id="graph0" class="graph" transform="scale(1 1) rotate(0) translate(4 961)">
<title>cycle</title>
<polygon fill="white" stroke="transparent" points="-4,4 -4,-961 508,-961 508,4 -4,4"/>
<!-- com.android.server.am.AppProfiler.mProcessCpuTracker -->
<g id="node1" class="node">
<title>com.android.server.am.AppProfiler.mProcessCpuTracker</title>
<path fill="#fee2e2" stroke="#dc2626" stroke-width="2" d="M492,-957C492,-957 288,-957 288,-957 282,-957 276,-951 276,-945 276,-945 276,-933 276,-933 276,-927 282,-921 288,-921 288,-921 492,-921 492,-921 498,-921 504,-927 504,-933 504,-933 504,-945 504,-945 504,-951 498,-957 492,-957"/>
<text text-anchor="middle" x="390" y="-935.6" font-family="Helvetica,sans-Serif" font-size="13.00">AppProfiler.mProcessCpuTracker</text>
</g>
<!-- m::com.android.server.am.AppProfiler.getAppProfileStatsForDebugging:(JI)Landroid/util/Pair; -->
<g id="node4" class="node">
<title>m::com.android.server.am.AppProfiler.getAppProfileStatsForDebugging:(JI)Landroid/util/Pair;</title>
<path fill="#eef2ff" stroke="#a5b4fc" d="M416.5,-875C416.5,-875 183.5,-875 183.5,-875 177.5,-875 171.5,-869 171.5,-863 171.5,-863 171.5,-851 171.5,-851 171.5,-845 177.5,-839 183.5,-839 183.5,-839 416.5,-839 416.5,-839 422.5,-839 428.5,-845 428.5,-851 428.5,-851 428.5,-863 428.5,-863 428.5,-869 422.5,-875 416.5,-875"/>
<text text-anchor="middle" x="300" y="-854.2" font-family="Helvetica,sans-Serif" font-size="11.00">AppProfiler.getAppProfileStatsForDebugging</text>
</g>
<!-- com.android.server.am.AppProfiler.mProcessCpuTracker&#45;&gt;m::com.android.server.am.AppProfiler.getAppProfileStatsForDebugging:(JI)Landroid/util/Pair; -->
<g id="edge1" class="edge">
<title>com.android.server.am.AppProfiler.mProcessCpuTracker&#45;&gt;m::com.android.server.am.AppProfiler.getAppProfileStatsForDebugging:(JI)Landroid/util/Pair;</title>
<path fill="none" stroke="#dc2626" stroke-width="1.6" d="M370.47,-920.64C357.29,-908.92 339.76,-893.34 325.49,-880.65"/>
<polygon fill="#dc2626" stroke="#dc2626" stroke-width="1.6" points="327.02,-878.27 319.18,-875.05 323.3,-882.46 327.02,-878.27"/>
<text text-anchor="middle" x="368" y="-895.8" font-family="Helvetica,sans-Serif" font-size="9.00" fill="#dc2626"> held in</text>
</g>
<!-- com.android.server.am.BatteryStatsService.mStats -->
<g id="node2" class="node">
<title>com.android.server.am.BatteryStatsService.mStats</title>
<path fill="#fee2e2" stroke="#dc2626" stroke-width="2" d="M316.5,-720C316.5,-720 141.5,-720 141.5,-720 135.5,-720 129.5,-714 129.5,-708 129.5,-708 129.5,-696 129.5,-696 129.5,-690 135.5,-684 141.5,-684 141.5,-684 316.5,-684 316.5,-684 322.5,-684 328.5,-690 328.5,-696 328.5,-696 328.5,-708 328.5,-708 328.5,-714 322.5,-720 316.5,-720"/>
<text text-anchor="middle" x="229" y="-698.6" font-family="Helvetica,sans-Serif" font-size="13.00">BatteryStatsService.mStats</text>
</g>
<!-- m::com.android.server.am.BatteryStatsService.lambda$setBatteryState$95:(ZIIIIIIIIJJJJ)V -->
<g id="node6" class="node">
<title>m::com.android.server.am.BatteryStatsService.lambda$setBatteryState$95:(ZIIIIIIIIJJJJ)V</title>
<path fill="#eef2ff" stroke="#a5b4fc" d="M320,-638C320,-638 58,-638 58,-638 52,-638 46,-632 46,-626 46,-626 46,-614 46,-614 46,-608 52,-602 58,-602 58,-602 320,-602 320,-602 326,-602 332,-608 332,-614 332,-614 332,-626 332,-626 332,-632 326,-638 320,-638"/>
<text text-anchor="middle" x="189" y="-617.2" font-family="Helvetica,sans-Serif" font-size="11.00">BatteryStatsService.lambda$setBatteryState$95</text>
</g>
<!-- com.android.server.am.BatteryStatsService.mStats&#45;&gt;m::com.android.server.am.BatteryStatsService.lambda$setBatteryState$95:(ZIIIIIIIIJJJJ)V -->
<g id="edge4" class="edge">
<title>com.android.server.am.BatteryStatsService.mStats&#45;&gt;m::com.android.server.am.BatteryStatsService.lambda$setBatteryState$95:(ZIIIIIIIIJJJJ)V</title>
<path fill="none" stroke="#dc2626" stroke-width="1.6" d="M220.32,-683.64C214.73,-672.45 207.37,-657.74 201.19,-645.39"/>
<polygon fill="#dc2626" stroke="#dc2626" stroke-width="1.6" points="203.61,-643.95 197.53,-638.05 198.6,-646.46 203.61,-643.95"/>
<text text-anchor="middle" x="229" y="-658.8" font-family="Helvetica,sans-Serif" font-size="9.00" fill="#dc2626"> held in</text>
</g>
<!-- com.android.server.power.stats.BatteryHistoryStepDetailsProvider.mClock -->
<g id="node3" class="node">
<title>com.android.server.power.stats.BatteryHistoryStepDetailsProvider.mClock</title>
<path fill="#fee2e2" stroke="#dc2626" stroke-width="2" d="M311,-410C311,-410 41,-410 41,-410 35,-410 29,-404 29,-398 29,-398 29,-386 29,-386 29,-380 35,-374 41,-374 41,-374 311,-374 311,-374 317,-374 323,-380 323,-386 323,-386 323,-398 323,-398 323,-404 317,-410 311,-410"/>
<text text-anchor="middle" x="176" y="-388.6" font-family="Helvetica,sans-Serif" font-size="13.00">BatteryHistoryStepDetailsProvider.mClock</text>
</g>
<!-- m::com.android.server.power.stats.BatteryHistoryStepDetailsProvider.lambda$requestUpdate$0:()V -->
<g id="node9" class="node">
<title>m::com.android.server.power.stats.BatteryHistoryStepDetailsProvider.lambda$requestUpdate$0:()V</title>
<path fill="#eef2ff" stroke="#a5b4fc" d="M340,-328C340,-328 12,-328 12,-328 6,-328 0,-322 0,-316 0,-316 0,-304 0,-304 0,-298 6,-292 12,-292 12,-292 340,-292 340,-292 346,-292 352,-298 352,-304 352,-304 352,-316 352,-316 352,-322 346,-328 340,-328"/>
<text text-anchor="middle" x="176" y="-307.2" font-family="Helvetica,sans-Serif" font-size="11.00">BatteryHistoryStepDetailsProvider.lambda$requestUpdate$0</text>
</g>
<!-- com.android.server.power.stats.BatteryHistoryStepDetailsProvider.mClock&#45;&gt;m::com.android.server.power.stats.BatteryHistoryStepDetailsProvider.lambda$requestUpdate$0:()V -->
<g id="edge8" class="edge">
<title>com.android.server.power.stats.BatteryHistoryStepDetailsProvider.mClock&#45;&gt;m::com.android.server.power.stats.BatteryHistoryStepDetailsProvider.lambda$requestUpdate$0:()V</title>
<path fill="none" stroke="#dc2626" stroke-width="1.6" d="M176,-373.64C176,-362.66 176,-348.29 176,-336.09"/>
<polygon fill="#dc2626" stroke="#dc2626" stroke-width="1.6" points="178.8,-336.05 176,-328.05 173.2,-336.05 178.8,-336.05"/>
<text text-anchor="middle" x="193" y="-348.8" font-family="Helvetica,sans-Serif" font-size="9.00" fill="#dc2626"> held in</text>
</g>
<!-- m::com.android.server.am.AppProfiler.updateCpuStatsNow:()V -->
<g id="node5" class="node">
<title>m::com.android.server.am.AppProfiler.updateCpuStatsNow:()V</title>
<path fill="#eef2ff" stroke="#a5b4fc" d="M472.5,-802C472.5,-802 305.5,-802 305.5,-802 299.5,-802 293.5,-796 293.5,-790 293.5,-790 293.5,-778 293.5,-778 293.5,-772 299.5,-766 305.5,-766 305.5,-766 472.5,-766 472.5,-766 478.5,-766 484.5,-772 484.5,-778 484.5,-778 484.5,-790 484.5,-790 484.5,-796 478.5,-802 472.5,-802"/>
<text text-anchor="middle" x="389" y="-781.2" font-family="Helvetica,sans-Serif" font-size="11.00">AppProfiler.updateCpuStatsNow</text>
</g>
<!-- m::com.android.server.am.AppProfiler.getAppProfileStatsForDebugging:(JI)Landroid/util/Pair;&#45;&gt;m::com.android.server.am.AppProfiler.updateCpuStatsNow:()V -->
<g id="edge2" class="edge">
<title>m::com.android.server.am.AppProfiler.getAppProfileStatsForDebugging:(JI)Landroid/util/Pair;&#45;&gt;m::com.android.server.am.AppProfiler.updateCpuStatsNow:()V</title>
<path fill="none" stroke="#64748b" d="M321.54,-838.81C333.46,-829.31 348.4,-817.39 361.19,-807.19"/>
<polygon fill="#64748b" stroke="#64748b" points="363.15,-809.21 367.65,-802.03 359.65,-804.83 363.15,-809.21"/>
</g>
<!-- m::com.android.server.am.AppProfiler.updateCpuStatsNow:()V&#45;&gt;com.android.server.am.AppProfiler.mProcessCpuTracker -->
<g id="edge14" class="edge">
<title>m::com.android.server.am.AppProfiler.updateCpuStatsNow:()V&#45;&gt;com.android.server.am.AppProfiler.mProcessCpuTracker</title>
<path fill="none" stroke="#dc2626" stroke-width="1.6" d="M412.22,-802.03C423.17,-811.53 435.11,-824.39 441,-839 446.98,-853.84 446.34,-859.92 441,-875 435.69,-890 425.12,-904.04 414.98,-915.04"/>
<polygon fill="#dc2626" stroke="#dc2626" stroke-width="1.6" points="412.94,-913.11 409.42,-920.82 416.98,-916.99 412.94,-913.11"/>
<text text-anchor="middle" x="467" y="-854.8" font-family="Helvetica,sans-Serif" font-size="9.00" fill="#dc2626"> acquires</text>
</g>
<!-- m::com.android.server.am.AppProfiler.updateCpuStatsNow:()V&#45;&gt;com.android.server.am.BatteryStatsService.mStats -->
<g id="edge3" class="edge">
<title>m::com.android.server.am.AppProfiler.updateCpuStatsNow:()V&#45;&gt;com.android.server.am.BatteryStatsService.mStats</title>
<path fill="none" stroke="#dc2626" stroke-width="1.6" d="M354.68,-765.84C330,-753.5 296.6,-736.8 270.44,-723.72"/>
<polygon fill="#dc2626" stroke="#dc2626" stroke-width="1.6" points="271.67,-721.21 263.27,-720.13 269.17,-726.22 271.67,-721.21"/>
<text text-anchor="middle" x="340" y="-740.8" font-family="Helvetica,sans-Serif" font-size="9.00" fill="#dc2626"> acquires</text>
</g>
<!-- m::com.android.server.power.stats.BatteryStatsImpl.setBatteryStateLocked:(IIIIIIIIJJJJ)V -->
<g id="node7" class="node">
<title>m::com.android.server.power.stats.BatteryStatsImpl.setBatteryStateLocked:(IIIIIIIIJJJJ)V</title>
<path fill="#eef2ff" stroke="#a5b4fc" d="M286.5,-565C286.5,-565 71.5,-565 71.5,-565 65.5,-565 59.5,-559 59.5,-553 59.5,-553 59.5,-541 59.5,-541 59.5,-535 65.5,-529 71.5,-529 71.5,-529 286.5,-529 286.5,-529 292.5,-529 298.5,-535 298.5,-541 298.5,-541 298.5,-553 298.5,-553 298.5,-559 292.5,-565 286.5,-565"/>
<text text-anchor="middle" x="179" y="-544.2" font-family="Helvetica,sans-Serif" font-size="11.00">BatteryStatsImpl.setBatteryStateLocked</text>
</g>
<!-- m::com.android.server.am.BatteryStatsService.lambda$setBatteryState$95:(ZIIIIIIIIJJJJ)V&#45;&gt;m::com.android.server.power.stats.BatteryStatsImpl.setBatteryStateLocked:(IIIIIIIIJJJJ)V -->
<g id="edge5" class="edge">
<title>m::com.android.server.am.BatteryStatsService.lambda$setBatteryState$95:(ZIIIIIIIIJJJJ)V&#45;&gt;m::com.android.server.power.stats.BatteryStatsImpl.setBatteryStateLocked:(IIIIIIIIJJJJ)V</title>
<path fill="none" stroke="#64748b" d="M186.58,-601.81C185.36,-593.18 183.87,-582.56 182.53,-573.03"/>
<polygon fill="#64748b" stroke="#64748b" points="185.29,-572.56 181.4,-565.03 179.74,-573.34 185.29,-572.56"/>
</g>
<!-- m::com.android.server.power.stats.BatteryHistoryStepDetailsProvider.requestUpdate:()V -->
<g id="node8" class="node">
<title>m::com.android.server.power.stats.BatteryHistoryStepDetailsProvider.requestUpdate:()V</title>
<path fill="#eef2ff" stroke="#a5b4fc" d="M309.5,-492C309.5,-492 42.5,-492 42.5,-492 36.5,-492 30.5,-486 30.5,-480 30.5,-480 30.5,-468 30.5,-468 30.5,-462 36.5,-456 42.5,-456 42.5,-456 309.5,-456 309.5,-456 315.5,-456 321.5,-462 321.5,-468 321.5,-468 321.5,-480 321.5,-480 321.5,-486 315.5,-492 309.5,-492"/>
<text text-anchor="middle" x="176" y="-471.2" font-family="Helvetica,sans-Serif" font-size="11.00">BatteryHistoryStepDetailsProvider.requestUpdate</text>
</g>
<!-- m::com.android.server.power.stats.BatteryStatsImpl.setBatteryStateLocked:(IIIIIIIIJJJJ)V&#45;&gt;m::com.android.server.power.stats.BatteryHistoryStepDetailsProvider.requestUpdate:()V -->
<g id="edge6" class="edge">
<title>m::com.android.server.power.stats.BatteryStatsImpl.setBatteryStateLocked:(IIIIIIIIJJJJ)V&#45;&gt;m::com.android.server.power.stats.BatteryHistoryStepDetailsProvider.requestUpdate:()V</title>
<path fill="none" stroke="#64748b" d="M178.27,-528.81C177.91,-520.18 177.46,-509.56 177.06,-500.03"/>
<polygon fill="#64748b" stroke="#64748b" points="179.85,-499.9 176.72,-492.03 174.26,-500.14 179.85,-499.9"/>
</g>
<!-- m::com.android.server.power.stats.BatteryHistoryStepDetailsProvider.requestUpdate:()V&#45;&gt;com.android.server.power.stats.BatteryHistoryStepDetailsProvider.mClock -->
<g id="edge7" class="edge">
<title>m::com.android.server.power.stats.BatteryHistoryStepDetailsProvider.requestUpdate:()V&#45;&gt;com.android.server.power.stats.BatteryHistoryStepDetailsProvider.mClock</title>
<path fill="none" stroke="#dc2626" stroke-width="1.6" d="M176,-455.64C176,-444.66 176,-430.29 176,-418.09"/>
<polygon fill="#dc2626" stroke="#dc2626" stroke-width="1.6" points="178.8,-418.05 176,-410.05 173.2,-418.05 178.8,-418.05"/>
<text text-anchor="middle" x="197" y="-430.8" font-family="Helvetica,sans-Serif" font-size="9.00" fill="#dc2626"> acquires</text>
</g>
<!-- m::com.android.server.power.stats.BatteryHistoryStepDetailsProvider.update:(JJ)V -->
<g id="node10" class="node">
<title>m::com.android.server.power.stats.BatteryHistoryStepDetailsProvider.update:(JJ)V</title>
<path fill="#eef2ff" stroke="#a5b4fc" d="M305,-255C305,-255 81,-255 81,-255 75,-255 69,-249 69,-243 69,-243 69,-231 69,-231 69,-225 75,-219 81,-219 81,-219 305,-219 305,-219 311,-219 317,-225 317,-231 317,-231 317,-243 317,-243 317,-249 311,-255 305,-255"/>
<text text-anchor="middle" x="193" y="-234.2" font-family="Helvetica,sans-Serif" font-size="11.00">BatteryHistoryStepDetailsProvider.update</text>
</g>
<!-- m::com.android.server.power.stats.BatteryHistoryStepDetailsProvider.lambda$requestUpdate$0:()V&#45;&gt;m::com.android.server.power.stats.BatteryHistoryStepDetailsProvider.update:(JJ)V -->
<g id="edge9" class="edge">
<title>m::com.android.server.power.stats.BatteryHistoryStepDetailsProvider.lambda$requestUpdate$0:()V&#45;&gt;m::com.android.server.power.stats.BatteryHistoryStepDetailsProvider.update:(JJ)V</title>
<path fill="none" stroke="#64748b" d="M180.12,-291.81C182.18,-283.18 184.73,-272.56 187.01,-263.03"/>
<polygon fill="#64748b" stroke="#64748b" points="189.78,-263.46 188.92,-255.03 184.34,-262.16 189.78,-263.46"/>
</g>
<!-- m::com.android.server.power.stats.BatteryStatsImpl.updateCpuDetails:()V -->
<g id="node11" class="node">
<title>m::com.android.server.power.stats.BatteryStatsImpl.updateCpuDetails:()V</title>
<path fill="#eef2ff" stroke="#a5b4fc" d="M298.5,-182C298.5,-182 111.5,-182 111.5,-182 105.5,-182 99.5,-176 99.5,-170 99.5,-170 99.5,-158 99.5,-158 99.5,-152 105.5,-146 111.5,-146 111.5,-146 298.5,-146 298.5,-146 304.5,-146 310.5,-152 310.5,-158 310.5,-158 310.5,-170 310.5,-170 310.5,-176 304.5,-182 298.5,-182"/>
<text text-anchor="middle" x="205" y="-161.2" font-family="Helvetica,sans-Serif" font-size="11.00">BatteryStatsImpl.updateCpuDetails</text>
</g>
<!-- m::com.android.server.power.stats.BatteryHistoryStepDetailsProvider.update:(JJ)V&#45;&gt;m::com.android.server.power.stats.BatteryStatsImpl.updateCpuDetails:()V -->
<g id="edge10" class="edge">
<title>m::com.android.server.power.stats.BatteryHistoryStepDetailsProvider.update:(JJ)V&#45;&gt;m::com.android.server.power.stats.BatteryStatsImpl.updateCpuDetails:()V</title>
<path fill="none" stroke="#64748b" d="M195.9,-218.81C197.36,-210.18 199.16,-199.56 200.77,-190.03"/>
<polygon fill="#64748b" stroke="#64748b" points="203.55,-190.38 202.12,-182.03 198.03,-189.45 203.55,-190.38"/>
</g>
<!-- m::com.android.server.am.ActivityManagerService.batteryNeedsCpuUpdate:()V -->
<g id="node12" class="node">
<title>m::com.android.server.am.ActivityManagerService.batteryNeedsCpuUpdate:()V</title>
<path fill="#eef2ff" stroke="#a5b4fc" d="M339.5,-109C339.5,-109 76.5,-109 76.5,-109 70.5,-109 64.5,-103 64.5,-97 64.5,-97 64.5,-85 64.5,-85 64.5,-79 70.5,-73 76.5,-73 76.5,-73 339.5,-73 339.5,-73 345.5,-73 351.5,-79 351.5,-85 351.5,-85 351.5,-97 351.5,-97 351.5,-103 345.5,-109 339.5,-109"/>
<text text-anchor="middle" x="208" y="-88.2" font-family="Helvetica,sans-Serif" font-size="11.00">ActivityManagerService.batteryNeedsCpuUpdate</text>
</g>
<!-- m::com.android.server.power.stats.BatteryStatsImpl.updateCpuDetails:()V&#45;&gt;m::com.android.server.am.ActivityManagerService.batteryNeedsCpuUpdate:()V -->
<g id="edge11" class="edge">
<title>m::com.android.server.power.stats.BatteryStatsImpl.updateCpuDetails:()V&#45;&gt;m::com.android.server.am.ActivityManagerService.batteryNeedsCpuUpdate:()V</title>
<path fill="none" stroke="#64748b" d="M205.73,-145.81C206.09,-137.18 206.54,-126.56 206.94,-117.03"/>
<polygon fill="#64748b" stroke="#64748b" points="209.74,-117.14 207.28,-109.03 204.15,-116.9 209.74,-117.14"/>
</g>
<!-- m::com.android.server.am.ActivityManagerService.updateCpuStatsNow:()V -->
<g id="node13" class="node">
<title>m::com.android.server.am.ActivityManagerService.updateCpuStatsNow:()V</title>
<path fill="#eef2ff" stroke="#a5b4fc" d="M418.5,-36C418.5,-36 179.5,-36 179.5,-36 173.5,-36 167.5,-30 167.5,-24 167.5,-24 167.5,-12 167.5,-12 167.5,-6 173.5,0 179.5,0 179.5,0 418.5,0 418.5,0 424.5,0 430.5,-6 430.5,-12 430.5,-12 430.5,-24 430.5,-24 430.5,-30 424.5,-36 418.5,-36"/>
<text text-anchor="middle" x="299" y="-15.2" font-family="Helvetica,sans-Serif" font-size="11.00">ActivityManagerService.updateCpuStatsNow</text>
</g>
<!-- m::com.android.server.am.ActivityManagerService.batteryNeedsCpuUpdate:()V&#45;&gt;m::com.android.server.am.ActivityManagerService.updateCpuStatsNow:()V -->
<g id="edge12" class="edge">
<title>m::com.android.server.am.ActivityManagerService.batteryNeedsCpuUpdate:()V&#45;&gt;m::com.android.server.am.ActivityManagerService.updateCpuStatsNow:()V</title>
<path fill="none" stroke="#64748b" d="M230.03,-72.81C242.21,-63.31 257.49,-51.39 270.56,-41.19"/>
<polygon fill="#64748b" stroke="#64748b" points="272.59,-43.16 277.17,-36.03 269.14,-38.74 272.59,-43.16"/>
</g>
<!-- m::com.android.server.am.ActivityManagerService.updateCpuStatsNow:()V&#45;&gt;m::com.android.server.am.AppProfiler.updateCpuStatsNow:()V -->
<g id="edge13" class="edge">
<title>m::com.android.server.am.ActivityManagerService.updateCpuStatsNow:()V&#45;&gt;m::com.android.server.am.AppProfiler.updateCpuStatsNow:()V</title>
<path fill="none" stroke="#64748b" d="M346.1,-36.07C368.3,-47.44 390,-64.95 390,-90 390,-703 390,-703 390,-703 390,-721.28 389.74,-741.91 389.48,-757.65"/>
<polygon fill="#64748b" stroke="#64748b" points="386.68,-757.79 389.34,-765.83 392.28,-757.88 386.68,-757.79"/>
</g>
</g>
</svg>
