<?xml version="1.0" encoding="UTF-8" standalone="no"?>
<!DOCTYPE svg PUBLIC "-//W3C//DTD SVG 1.1//EN"
 "http://www.w3.org/Graphics/SVG/1.1/DTD/svg11.dtd">
<!-- Generated by graphviz version 2.43.0 (0)
 -->
<!-- Title: cycle Pages: 1 -->
<svg width="639pt" height="947pt"
 viewBox="0.00 0.00 638.50 947.00" xmlns="http://www.w3.org/2000/svg" xmlns:xlink="http://www.w3.org/1999/xlink">
<g id="graph0" class="graph" transform="scale(1 1) rotate(0) translate(4 943)">
<title>cycle</title>
<polygon fill="white" stroke="transparent" points="-4,4 -4,-943 634.5,-943 634.5,4 -4,4"/>
<!-- com.android.server.input.BatteryController$LocalBluetoothBatteryManager.mBroadcastReceiver -->
<g id="node1" class="node">
<title>com.android.server.input.BatteryController$LocalBluetoothBatteryManager.mBroadcastReceiver</title>
<path fill="#fee2e2" stroke="#dc2626" stroke-width="2" d="M591,-939C591,-939 130,-939 130,-939 124,-939 118,-933 118,-927 118,-927 118,-915 118,-915 118,-909 124,-903 130,-903 130,-903 591,-903 591,-903 597,-903 603,-909 603,-915 603,-915 603,-927 603,-927 603,-933 597,-939 591,-939"/>
<text text-anchor="middle" x="360.5" y="-917.6" font-family="Helvetica,sans-Serif" font-size="13.00">BatteryController$LocalBluetoothBatteryManager.mBroadcastReceiver</text>
</g>
<!-- m::com.android.server.input.BatteryController$LocalBluetoothBatteryManager$1.onReceive:(Landroid/content/Context;Landroid/content/Intent;)V -->
<g id="node3" class="node">
<title>m::com.android.server.input.BatteryController$LocalBluetoothBatteryManager$1.onReceive:(Landroid/content/Context;Landroid/content/Intent;)V</title>
<path fill="#eef2ff" stroke="#a5b4fc" d="M412.5,-857C412.5,-857 72.5,-857 72.5,-857 66.5,-857 60.5,-851 60.5,-845 60.5,-845 60.5,-833 60.5,-833 60.5,-827 66.5,-821 72.5,-821 72.5,-821 412.5,-821 412.5,-821 418.5,-821 424.5,-827 424.5,-833 424.5,-833 424.5,-845 424.5,-845 424.5,-851 418.5,-857 412.5,-857"/>
<text text-anchor="middle" x="242.5" y="-836.2" font-family="Helvetica,sans-Serif" font-size="11.00">BatteryController$LocalBluetoothBatteryManager$1.onReceive</text>
</g>
<!-- com.android.server.input.BatteryController$LocalBluetoothBatteryManager.mBroadcastReceiver&#45;&gt;m::com.android.server.input.BatteryController$LocalBluetoothBatteryManager$1.onReceive:(Landroid/content/Context;Landroid/content/Intent;)V -->
<g id="edge1" class="edge">
<title>com.android.server.input.BatteryController$LocalBluetoothBatteryManager.mBroadcastReceiver&#45;&gt;m::com.android.server.input.BatteryController$LocalBluetoothBatteryManager$1.onReceive:(Landroid/content/Context;Landroid/content/Intent;)V</title>
<path fill="none" stroke="#dc2626" stroke-width="1.6" d="M335.19,-902.84C317.45,-890.82 293.62,-874.66 274.56,-861.73"/>
<polygon fill="#dc2626" stroke="#dc2626" stroke-width="1.6" points="275.97,-859.31 267.77,-857.13 272.82,-863.94 275.97,-859.31"/>
<text text-anchor="middle" x="326.5" y="-877.8" font-family="Helvetica,sans-Serif" font-size="9.00" fill="#dc2626"> held in</text>
</g>
<!-- com.android.server.input.BatteryController.mLock -->
<g id="node2" class="node">
<title>com.android.server.input.BatteryController.mLock</title>
<path fill="#fee2e2" stroke="#dc2626" stroke-width="2" d="M322,-556C322,-556 169,-556 169,-556 163,-556 157,-550 157,-544 157,-544 157,-532 157,-532 157,-526 163,-520 169,-520 169,-520 322,-520 322,-520 328,-520 334,-526 334,-532 334,-532 334,-544 334,-544 334,-550 328,-556 322,-556"/>
<text text-anchor="middle" x="245.5" y="-534.6" font-family="Helvetica,sans-Serif" font-size="13.00">BatteryController.mLock</text>
</g>
<!-- m::com.android.server.input.BatteryController$1.onInputDeviceAdded:(I)V -->
<g id="node7" class="node">
<title>m::com.android.server.input.BatteryController$1.onInputDeviceAdded:(I)V</title>
<path fill="#eef2ff" stroke="#a5b4fc" d="M354.5,-474C354.5,-474 136.5,-474 136.5,-474 130.5,-474 124.5,-468 124.5,-462 124.5,-462 124.5,-450 124.5,-450 124.5,-444 130.5,-438 136.5,-438 136.5,-438 354.5,-438 354.5,-438 360.5,-438 366.5,-444 366.5,-450 366.5,-450 366.5,-462 366.5,-462 366.5,-468 360.5,-474 354.5,-474"/>
<text text-anchor="middle" x="245.5" y="-453.2" font-family="Helvetica,sans-Serif" font-size="11.00">BatteryController$1.onInputDeviceAdded</text>
</g>
<!-- com.android.server.input.BatteryController.mLock&#45;&gt;m::com.android.server.input.BatteryController$1.onInputDeviceAdded:(I)V -->
<g id="edge6" class="edge">
<title>com.android.server.input.BatteryController.mLock&#45;&gt;m::com.android.server.input.BatteryController$1.onInputDeviceAdded:(I)V</title>
<path fill="none" stroke="#dc2626" stroke-width="1.6" d="M245.5,-519.64C245.5,-508.66 245.5,-494.29 245.5,-482.09"/>
<polygon fill="#dc2626" stroke="#dc2626" stroke-width="1.6" points="248.3,-482.05 245.5,-474.05 242.7,-482.05 248.3,-482.05"/>
<text text-anchor="middle" x="262.5" y="-494.8" font-family="Helvetica,sans-Serif" font-size="9.00" fill="#dc2626"> held in</text>
</g>
<!-- m::com.android.server.input.BatteryController$$ExternalSyntheticLambda4.onBluetoothBatteryChanged:(JLjava/lang/String;I)V -->
<g id="node4" class="node">
<title>m::com.android.server.input.BatteryController$$ExternalSyntheticLambda4.onBluetoothBatteryChanged:(JLjava/lang/String;I)V</title>
<path fill="#eef2ff" stroke="#a5b4fc" d="M421,-784C421,-784 12,-784 12,-784 6,-784 0,-778 0,-772 0,-772 0,-760 0,-760 0,-754 6,-748 12,-748 12,-748 421,-748 421,-748 427,-748 433,-754 433,-760 433,-760 433,-772 433,-772 433,-778 427,-784 421,-784"/>
<text text-anchor="middle" x="216.5" y="-763.2" font-family="Helvetica,sans-Serif" font-size="11.00">BatteryController$$ExternalSyntheticLambda4.onBluetoothBatteryChanged</text>
</g>
<!-- m::com.android.server.input.BatteryController$LocalBluetoothBatteryManager$1.onReceive:(Landroid/content/Context;Landroid/content/Intent;)V&#45;&gt;m::com.android.server.input.BatteryController$$ExternalSyntheticLambda4.onBluetoothBatteryChanged:(JLjava/lang/String;I)V -->
<g id="edge2" class="edge">
<title>m::com.android.server.input.BatteryController$LocalBluetoothBatteryManager$1.onReceive:(Landroid/content/Context;Landroid/content/Intent;)V&#45;&gt;m::com.android.server.input.BatteryController$$ExternalSyntheticLambda4.onBluetoothBatteryChanged:(JLjava/lang/String;I)V</title>
<path fill="none" stroke="#64748b" d="M236.21,-820.81C233.01,-812.09 229.08,-801.34 225.56,-791.75"/>
<polygon fill="#64748b" stroke="#64748b" points="228.12,-790.58 222.74,-784.03 222.86,-792.5 228.12,-790.58"/>
</g>
<!-- m::com.android.server.input.BatteryController.$r8$lambda$kHxElP6jGL2CI2h9&#45;PGs0oeXj6g:(Lcom/android/server/input/BatteryController;JLjava/lang/String;I)V -->
<g id="node5" class="node">
<title>m::com.android.server.input.BatteryController.$r8$lambda$kHxElP6jGL2CI2h9&#45;PGs0oeXj6g:(Lcom/android/server/input/BatteryController;JLjava/lang/String;I)V</title>
<path fill="#eef2ff" stroke="#a5b4fc" d="M411,-711C411,-711 80,-711 80,-711 74,-711 68,-705 68,-699 68,-699 68,-687 68,-687 68,-681 74,-675 80,-675 80,-675 411,-675 411,-675 417,-675 423,-681 423,-687 423,-687 423,-699 423,-699 423,-705 417,-711 411,-711"/>
<text text-anchor="middle" x="245.5" y="-690.2" font-family="Helvetica,sans-Serif" font-size="11.00">BatteryController.$r8$lambda$kHxElP6jGL2CI2h9&#45;PGs0oeXj6g</text>
</g>
<!-- m::com.android.server.input.BatteryController$$ExternalSyntheticLambda4.onBluetoothBatteryChanged:(JLjava/lang/String;I)V&#45;&gt;m::com.android.server.input.BatteryController.$r8$lambda$kHxElP6jGL2CI2h9&#45;PGs0oeXj6g:(Lcom/android/server/input/BatteryController;JLjava/lang/String;I)V -->
<g id="edge3" class="edge">
<title>m::com.android.server.input.BatteryController$$ExternalSyntheticLambda4.onBluetoothBatteryChanged:(JLjava/lang/String;I)V&#45;&gt;m::com.android.server.input.BatteryController.$r8$lambda$kHxElP6jGL2CI2h9&#45;PGs0oeXj6g:(Lcom/android/server/input/BatteryController;JLjava/lang/String;I)V</title>
<path fill="none" stroke="#64748b" d="M223.52,-747.81C227.12,-739 231.56,-728.13 235.51,-718.46"/>
<polygon fill="#64748b" stroke="#64748b" points="238.11,-719.49 238.54,-711.03 232.93,-717.38 238.11,-719.49"/>
</g>
<!-- m::com.android.server.input.BatteryController.handleBluetoothBatteryLevelChange:(JLjava/lang/String;I)V -->
<g id="node6" class="node">
<title>m::com.android.server.input.BatteryController.handleBluetoothBatteryLevelChange:(JLjava/lang/String;I)V</title>
<path fill="#eef2ff" stroke="#a5b4fc" d="M392,-638C392,-638 99,-638 99,-638 93,-638 87,-632 87,-626 87,-626 87,-614 87,-614 87,-608 93,-602 99,-602 99,-602 392,-602 392,-602 398,-602 404,-608 404,-614 404,-614 404,-626 404,-626 404,-632 398,-638 392,-638"/>
<text text-anchor="middle" x="245.5" y="-617.2" font-family="Helvetica,sans-Serif" font-size="11.00">BatteryController.handleBluetoothBatteryLevelChange</text>
</g>
<!-- m::com.android.server.input.BatteryController.$r8$lambda$kHxElP6jGL2CI2h9&#45;PGs0oeXj6g:(Lcom/android/server/input/BatteryController;JLjava/lang/String;I)V&#45;&gt;m::com.android.server.input.BatteryController.handleBluetoothBatteryLevelChange:(JLjava/lang/String;I)V -->
<g id="edge4" class="edge">
<title>m::com.android.server.input.BatteryController.$r8$lambda$kHxElP6jGL2CI2h9&#45;PGs0oeXj6g:(Lcom/android/server/input/BatteryController;JLjava/lang/String;I)V&#45;&gt;m::com.android.server.input.BatteryController.handleBluetoothBatteryLevelChange:(JLjava/lang/String;I)V</title>
<path fill="none" stroke="#64748b" d="M245.5,-674.81C245.5,-666.18 245.5,-655.56 245.5,-646.03"/>
<polygon fill="#64748b" stroke="#64748b" points="248.3,-646.03 245.5,-638.03 242.7,-646.03 248.3,-646.03"/>
</g>
<!-- m::com.android.server.input.BatteryController.handleBluetoothBatteryLevelChange:(JLjava/lang/String;I)V&#45;&gt;com.android.server.input.BatteryController.mLock -->
<g id="edge5" class="edge">
<title>m::com.android.server.input.BatteryController.handleBluetoothBatteryLevelChange:(JLjava/lang/String;I)V&#45;&gt;com.android.server.input.BatteryController.mLock</title>
<path fill="none" stroke="#dc2626" stroke-width="1.6" d="M245.5,-601.64C245.5,-590.66 245.5,-576.29 245.5,-564.09"/>
<polygon fill="#dc2626" stroke="#dc2626" stroke-width="1.6" points="248.3,-564.05 245.5,-556.05 242.7,-564.05 248.3,-564.05"/>
<text text-anchor="middle" x="266.5" y="-576.8" font-family="Helvetica,sans-Serif" font-size="9.00" fill="#dc2626"> acquires</text>
</g>
<!-- m::com.android.server.input.BatteryController$UsiDeviceMonitor.&lt;init&gt;:(Lcom/android/server/input/BatteryController;I)V -->
<g id="node8" class="node">
<title>m::com.android.server.input.BatteryController$UsiDeviceMonitor.&lt;init&gt;:(Lcom/android/server/input/BatteryController;I)V</title>
<path fill="#eef2ff" stroke="#a5b4fc" d="M360.5,-401C360.5,-401 130.5,-401 130.5,-401 124.5,-401 118.5,-395 118.5,-389 118.5,-389 118.5,-377 118.5,-377 118.5,-371 124.5,-365 130.5,-365 130.5,-365 360.5,-365 360.5,-365 366.5,-365 372.5,-371 372.5,-377 372.5,-377 372.5,-389 372.5,-389 372.5,-395 366.5,-401 360.5,-401"/>
<text text-anchor="middle" x="245.5" y="-380.2" font-family="Helvetica,sans-Serif" font-size="11.00">BatteryController$UsiDeviceMonitor.&lt;init&gt;</text>
</g>
<!-- m::com.android.server.input.BatteryController$1.onInputDeviceAdded:(I)V&#45;&gt;m::com.android.server.input.BatteryController$UsiDeviceMonitor.&lt;init&gt;:(Lcom/android/server/input/BatteryController;I)V -->
<g id="edge7" class="edge">
<title>m::com.android.server.input.BatteryController$1.onInputDeviceAdded:(I)V&#45;&gt;m::com.android.server.input.BatteryController$UsiDeviceMonitor.&lt;init&gt;:(Lcom/android/server/input/BatteryController;I)V</title>
<path fill="none" stroke="#64748b" d="M245.5,-437.81C245.5,-429.18 245.5,-418.56 245.5,-409.03"/>
<polygon fill="#64748b" stroke="#64748b" points="248.3,-409.03 245.5,-401.03 242.7,-409.03 248.3,-409.03"/>
</g>
<!-- m::com.android.server.input.BatteryController$DeviceMonitor.&lt;init&gt;:(Lcom/android/server/input/BatteryController;I)V -->
<g id="node9" class="node">
<title>m::com.android.server.input.BatteryController$DeviceMonitor.&lt;init&gt;:(Lcom/android/server/input/BatteryController;I)V</title>
<path fill="#eef2ff" stroke="#a5b4fc" d="M351.5,-328C351.5,-328 139.5,-328 139.5,-328 133.5,-328 127.5,-322 127.5,-316 127.5,-316 127.5,-304 127.5,-304 127.5,-298 133.5,-292 139.5,-292 139.5,-292 351.5,-292 351.5,-292 357.5,-292 363.5,-298 363.5,-304 363.5,-304 363.5,-316 363.5,-316 363.5,-322 357.5,-328 351.5,-328"/>
<text text-anchor="middle" x="245.5" y="-307.2" font-family="Helvetica,sans-Serif" font-size="11.00">BatteryController$DeviceMonitor.&lt;init&gt;</text>
</g>
<!-- m::com.android.server.input.BatteryController$UsiDeviceMonitor.&lt;init&gt;:(Lcom/android/server/input/BatteryController;I)V&#45;&gt;m::com.android.server.input.BatteryController$DeviceMonitor.&lt;init&gt;:(Lcom/android/server/input/BatteryController;I)V -->
<g id="edge8" class="edge">
<title>m::com.android.server.input.BatteryController$UsiDeviceMonitor.&lt;init&gt;:(Lcom/android/server/input/BatteryController;I)V&#45;&gt;m::com.android.server.input.BatteryController$DeviceMonitor.&lt;init&gt;:(Lcom/android/server/input/BatteryController;I)V</title>
<path fill="none" stroke="#64748b" d="M245.5,-364.81C245.5,-356.18 245.5,-345.56 245.5,-336.03"/>
<polygon fill="#64748b" stroke="#64748b" points="248.3,-336.03 245.5,-328.03 242.7,-336.03 248.3,-336.03"/>
</g>
<!-- m::com.android.server.input.BatteryController$DeviceMonitor.configureDeviceMonitor:(J)V -->
<g id="node10" class="node">
<title>m::com.android.server.input.BatteryController$DeviceMonitor.configureDeviceMonitor:(J)V</title>
<path fill="#eef2ff" stroke="#a5b4fc" d="M400.5,-255C400.5,-255 92.5,-255 92.5,-255 86.5,-255 80.5,-249 80.5,-243 80.5,-243 80.5,-231 80.5,-231 80.5,-225 86.5,-219 92.5,-219 92.5,-219 400.5,-219 400.5,-219 406.5,-219 412.5,-225 412.5,-231 412.5,-231 412.5,-243 412.5,-243 412.5,-249 406.5,-255 400.5,-255"/>
<text text-anchor="middle" x="246.5" y="-234.2" font-family="Helvetica,sans-Serif" font-size="11.00">BatteryController$DeviceMonitor.configureDeviceMonitor</text>
</g>
<!-- m::com.android.server.input.BatteryController$DeviceMonitor.&lt;init&gt;:(Lcom/android/server/input/BatteryController;I)V&#45;&gt;m::com.android.server.input.BatteryController$DeviceMonitor.configureDeviceMonitor:(J)V -->
<g id="edge9" class="edge">
<title>m::com.android.server.input.BatteryController$DeviceMonitor.&lt;init&gt;:(Lcom/android/server/input/BatteryController;I)V&#45;&gt;m::com.android.server.input.BatteryController$DeviceMonitor.configureDeviceMonitor:(J)V</title>
<path fill="none" stroke="#64748b" d="M245.74,-291.81C245.86,-283.18 246.01,-272.56 246.15,-263.03"/>
<polygon fill="#64748b" stroke="#64748b" points="248.95,-263.07 246.26,-255.03 243.35,-262.99 248.95,-263.07"/>
</g>
<!-- m::com.android.server.input.BatteryController.&#45;$$Nest$mupdateBluetoothBatteryMonitoring:(Lcom/android/server/input/BatteryController;)V -->
<g id="node11" class="node">
<title>m::com.android.server.input.BatteryController.&#45;$$Nest$mupdateBluetoothBatteryMonitoring:(Lcom/android/server/input/BatteryController;)V</title>
<path fill="#eef2ff" stroke="#a5b4fc" d="M392.5,-182C392.5,-182 110.5,-182 110.5,-182 104.5,-182 98.5,-176 98.5,-170 98.5,-170 98.5,-158 98.5,-158 98.5,-152 104.5,-146 110.5,-146 110.5,-146 392.5,-146 392.5,-146 398.5,-146 404.5,-152 404.5,-158 404.5,-158 404.5,-170 404.5,-170 404.5,-176 398.5,-182 392.5,-182"/>
<text text-anchor="middle" x="251.5" y="-161.2" font-family="Helvetica,sans-Serif" font-size="11.00">BatteryController.updateBluetoothBatteryMonitoring</text>
</g>
<!-- m::com.android.server.input.BatteryController$DeviceMonitor.configureDeviceMonitor:(J)V&#45;&gt;m::com.android.server.input.BatteryController.&#45;$$Nest$mupdateBluetoothBatteryMonitoring:(Lcom/android/server/input/BatteryController;)V -->
<g id="edge10" class="edge">
<title>m::com.android.server.input.BatteryController$DeviceMonitor.configureDeviceMonitor:(J)V&#45;&gt;m::com.android.server.input.BatteryController.&#45;$$Nest$mupdateBluetoothBatteryMonitoring:(Lcom/android/server/input/BatteryController;)V</title>
<path fill="none" stroke="#64748b" d="M247.71,-218.81C248.32,-210.18 249.07,-199.56 249.74,-190.03"/>
<polygon fill="#64748b" stroke="#64748b" points="252.53,-190.21 250.3,-182.03 246.95,-189.81 252.53,-190.21"/>
</g>
<!-- m::com.android.server.input.BatteryController.updateBluetoothBatteryMonitoring:()V -->
<g id="node12" class="node">
<title>m::com.android.server.input.BatteryController.updateBluetoothBatteryMonitoring:()V</title>
<path fill="#eef2ff" stroke="#a5b4fc" d="M410.5,-109C410.5,-109 128.5,-109 128.5,-109 122.5,-109 116.5,-103 116.5,-97 116.5,-97 116.5,-85 116.5,-85 116.5,-79 122.5,-73 128.5,-73 128.5,-73 410.5,-73 410.5,-73 416.5,-73 422.5,-79 422.5,-85 422.5,-85 422.5,-97 422.5,-97 422.5,-103 416.5,-109 410.5,-109"/>
<text text-anchor="middle" x="269.5" y="-88.2" font-family="Helvetica,sans-Serif" font-size="11.00">BatteryController.updateBluetoothBatteryMonitoring</text>
</g>
<!-- m::com.android.server.input.BatteryController.&#45;$$Nest$mupdateBluetoothBatteryMonitoring:(Lcom/android/server/input/BatteryController;)V&#45;&gt;m::com.android.server.input.BatteryController.updateBluetoothBatteryMonitoring:()V -->
<g id="edge11" class="edge">
<title>m::com.android.server.input.BatteryController.&#45;$$Nest$mupdateBluetoothBatteryMonitoring:(Lcom/android/server/input/BatteryController;)V&#45;&gt;m::com.android.server.input.BatteryController.updateBluetoothBatteryMonitoring:()V</title>
<path fill="none" stroke="#64748b" d="M255.86,-145.81C258.05,-137.18 260.74,-126.56 263.15,-117.03"/>
<polygon fill="#64748b" stroke="#64748b" points="265.93,-117.47 265.18,-109.03 260.5,-116.1 265.93,-117.47"/>
</g>
<!-- m::com.android.server.input.BatteryController$LocalBluetoothBatteryManager.addBatteryListener:(Lcom/android/server/input/BatteryController$BluetoothBatteryManager$BluetoothBatteryListener;)V -->
<g id="node13" class="node">
<title>m::com.android.server.input.BatteryController$LocalBluetoothBatteryManager.addBatteryListener:(Lcom/android/server/input/BatteryController$BluetoothBatteryManager$BluetoothBatteryListener;)V</title>
<path fill="#eef2ff" stroke="#a5b4fc" d="M618.5,-36C618.5,-36 244.5,-36 244.5,-36 238.5,-36 232.5,-30 232.5,-24 232.5,-24 232.5,-12 232.5,-12 232.5,-6 238.5,0 244.5,0 244.5,0 618.5,0 618.5,0 624.5,0 630.5,-6 630.5,-12 630.5,-12 630.5,-24 630.5,-24 630.5,-30 624.5,-36 618.5,-36"/>
<text text-anchor="middle" x="431.5" y="-15.2" font-family="Helvetica,sans-Serif" font-size="11.00">BatteryController$LocalBluetoothBatteryManager.addBatteryListener</text>
</g>
<!-- m::com.android.server.input.BatteryController.updateBluetoothBatteryMonitoring:()V&#45;&gt;m::com.android.server.input.BatteryController$LocalBluetoothBatteryManager.addBatteryListener:(Lcom/android/server/input/BatteryController$BluetoothBatteryManager$BluetoothBatteryListener;)V -->
<g id="edge12" class="edge">
<title>m::com.android.server.input.BatteryController.updateBluetoothBatteryMonitoring:()V&#45;&gt;m::com.android.server.input.BatteryController$LocalBluetoothBatteryManager.addBatteryListener:(Lcom/android/server/input/BatteryController$BluetoothBatteryManager$BluetoothBatteryListener;)V</title>
<path fill="none" stroke="#64748b" d="M308.3,-72.99C331.38,-62.88 360.79,-49.99 385.09,-39.34"/>
<polygon fill="#64748b" stroke="#64748b" points="386.25,-41.89 392.45,-36.11 384,-36.76 386.25,-41.89"/>
</g>
<!-- m::com.android.server.input.BatteryController$LocalBluetoothBatteryManager.addBatteryListener:(Lcom/android/server/input/BatteryController$BluetoothBatteryManager$BluetoothBatteryListener;)V&#45;&gt;com.android.server.input.BatteryController$LocalBluetoothBatteryManager.mBroadcastReceiver -->
<g id="edge13" class="edge">
<title>m::com.android.server.input.BatteryController$LocalBluetoothBatteryManager.addBatteryListener:(Lcom/android/server/input/BatteryController$BluetoothBatteryManager$BluetoothBatteryListener;)V&#45;&gt;com.android.server.input.BatteryController$LocalBluetoothBatteryManager.mBroadcastReceiver</title>
<path fill="none" stroke="#dc2626" stroke-width="1.6" d="M447.36,-36.25C458.16,-49.82 470.5,-69.75 470.5,-90 470.5,-840 470.5,-840 470.5,-840 470.5,-867.72 447.36,-886.85 422.31,-899.42"/>
<polygon fill="#dc2626" stroke="#dc2626" stroke-width="1.6" points="420.88,-897 414.86,-902.96 423.28,-902.06 420.88,-897"/>
<text text-anchor="middle" x="491.5" y="-453.8" font-family="Helvetica,sans-Serif" font-size="9.00" fill="#dc2626"> acquires</text>
</g>
</g>
</svg>
