<?xml version="1.0" encoding="UTF-8" standalone="no"?>
<!DOCTYPE svg PUBLIC "-//W3C//DTD SVG 1.1//EN"
 "http://www.w3.org/Graphics/SVG/1.1/DTD/svg11.dtd">
<!-- Generated by graphviz version 2.43.0 (0)
 -->
<!-- Title: cycle Pages: 1 -->
<svg width="477pt" height="290pt"
 viewBox="0.00 0.00 476.50 290.00" xmlns="http://www.w3.org/2000/svg" xmlns:xlink="http://www.w3.org/1999/xlink">
<g id="graph0" class="graph" transform="scale(1 1) rotate(0) translate(4 286)">
<title>cycle</title>
<polygon fill="white" stroke="transparent" points="-4,4 -4,-286 472.5,-286 472.5,4 -4,4"/>
<!-- com.android.server.power.hint.HintManagerService.mLock -->
<g id="node1" class="node">
<title>com.android.server.power.hint.HintManagerService.mLock</title>
<path fill="#fee2e2" stroke="#dc2626" stroke-width="2" d="M415.5,-282C415.5,-282 242.5,-282 242.5,-282 236.5,-282 230.5,-276 230.5,-270 230.5,-270 230.5,-258 230.5,-258 230.5,-252 236.5,-246 242.5,-246 242.5,-246 415.5,-246 415.5,-246 421.5,-246 427.5,-252 427.5,-258 427.5,-258 427.5,-270 427.5,-270 427.5,-276 421.5,-282 415.5,-282"/>
<text text-anchor="middle" x="329" y="-260.6" font-family="Helvetica,sans-Serif" font-size="13.00">HintManagerService.mLock</text>
</g>
<!-- m::com.android.server.power.hint.HintManagerService$MyUidObserver.lambda$onUidGone$0:(I)V -->
<g id="node3" class="node">
<title>m::com.android.server.power.hint.HintManagerService$MyUidObserver.lambda$onUidGone$0:(I)V</title>
<path fill="#eef2ff" stroke="#a5b4fc" d="M332,-200C332,-200 12,-200 12,-200 6,-200 0,-194 0,-188 0,-188 0,-176 0,-176 0,-170 6,-164 12,-164 12,-164 332,-164 332,-164 338,-164 344,-170 344,-176 344,-176 344,-188 344,-188 344,-194 338,-200 332,-200"/>
<text text-anchor="middle" x="172" y="-179.2" font-family="Helvetica,sans-Serif" font-size="11.00">HintManagerService$MyUidObserver.lambda$onUidGone$0</text>
</g>
<!-- com.android.server.power.hint.HintManagerService.mLock&#45;&gt;m::com.android.server.power.hint.HintManagerService$MyUidObserver.lambda$onUidGone$0:(I)V -->
<g id="edge1" class="edge">
<title>com.android.server.power.hint.HintManagerService.mLock&#45;&gt;m::com.android.server.power.hint.HintManagerService$MyUidObserver.lambda$onUidGone$0:(I)V</title>
<path fill="none" stroke="#dc2626" stroke-width="1.6" d="M295.32,-245.84C271.21,-233.55 238.62,-216.95 212.99,-203.89"/>
<polygon fill="#dc2626" stroke="#dc2626" stroke-width="1.6" points="214.02,-201.27 205.62,-200.13 211.48,-206.26 214.02,-201.27"/>
<text text-anchor="middle" x="277" y="-220.8" font-family="Helvetica,sans-Serif" font-size="9.00" fill="#dc2626"> held in</text>
</g>
<!-- com.android.server.power.hint.HintManagerService.mSessionSnapshotMapLock -->
<g id="node2" class="node">
<title>com.android.server.power.hint.HintManagerService.mSessionSnapshotMapLock</title>
<path fill="#fee2e2" stroke="#dc2626" stroke-width="2" d="M456.5,-36C456.5,-36 143.5,-36 143.5,-36 137.5,-36 131.5,-30 131.5,-24 131.5,-24 131.5,-12 131.5,-12 131.5,-6 137.5,0 143.5,0 143.5,0 456.5,0 456.5,0 462.5,0 468.5,-6 468.5,-12 468.5,-12 468.5,-24 468.5,-24 468.5,-30 462.5,-36 456.5,-36"/>
<text text-anchor="middle" x="300" y="-14.6" font-family="Helvetica,sans-Serif" font-size="13.00">HintManagerService.mSessionSnapshotMapLock</text>
</g>
<!-- com.android.server.power.hint.HintManagerService.mSessionSnapshotMapLock&#45;&gt;com.android.server.power.hint.HintManagerService.mLock -->
<g id="edge4" class="edge">
<title>com.android.server.power.hint.HintManagerService.mSessionSnapshotMapLock&#45;&gt;com.android.server.power.hint.HintManagerService.mLock</title>
<path fill="none" stroke="#dc2626" stroke-width="1.6" stroke-dasharray="5,2" d="M316.09,-36.02C326.4,-47.95 339.08,-64.78 346,-82 365.64,-130.87 367.93,-148.48 357,-200 354.19,-213.22 348.41,-227.04 342.83,-238.35"/>
<polygon fill="#dc2626" stroke="#dc2626" stroke-width="1.6" points="340.2,-237.35 339.04,-245.75 345.18,-239.91 340.2,-237.35"/>
<text text-anchor="middle" x="411.5" y="-138.8" font-family="Helvetica,sans-Serif" font-size="9.00" fill="#dc2626"> held → acquires [1x]</text>
</g>
<!-- m::com.android.server.power.hint.HintManagerService$AppHintSession.close:()V -->
<g id="node4" class="node">
<title>m::com.android.server.power.hint.HintManagerService$AppHintSession.close:()V</title>
<path fill="#eef2ff" stroke="#a5b4fc" d="M321,-118C321,-118 93,-118 93,-118 87,-118 81,-112 81,-106 81,-106 81,-94 81,-94 81,-88 87,-82 93,-82 93,-82 321,-82 321,-82 327,-82 333,-88 333,-94 333,-94 333,-106 333,-106 333,-112 327,-118 321,-118"/>
<text text-anchor="middle" x="207" y="-97.2" font-family="Helvetica,sans-Serif" font-size="11.00">HintManagerService$AppHintSession.close</text>
</g>
<!-- m::com.android.server.power.hint.HintManagerService$MyUidObserver.lambda$onUidGone$0:(I)V&#45;&gt;m::com.android.server.power.hint.HintManagerService$AppHintSession.close:()V -->
<g id="edge2" class="edge">
<title>m::com.android.server.power.hint.HintManagerService$MyUidObserver.lambda$onUidGone$0:(I)V&#45;&gt;m::com.android.server.power.hint.HintManagerService$AppHintSession.close:()V</title>
<path fill="none" stroke="#64748b" d="M179.59,-163.64C184.49,-152.45 190.93,-137.74 196.33,-125.39"/>
<polygon fill="#64748b" stroke="#64748b" points="198.9,-126.5 199.54,-118.05 193.77,-124.26 198.9,-126.5"/>
</g>
<!-- m::com.android.server.power.hint.HintManagerService$AppHintSession.close:()V&#45;&gt;com.android.server.power.hint.HintManagerService.mSessionSnapshotMapLock -->
<g id="edge3" class="edge">
<title>m::com.android.server.power.hint.HintManagerService$AppHintSession.close:()V&#45;&gt;com.android.server.power.hint.HintManagerService.mSessionSnapshotMapLock</title>
<path fill="none" stroke="#dc2626" stroke-width="1.6" d="M227.18,-81.64C240.92,-69.82 259.24,-54.06 274.06,-41.31"/>
<polygon fill="#dc2626" stroke="#dc2626" stroke-width="1.6" points="275.94,-43.39 280.18,-36.05 272.29,-39.14 275.94,-43.39"/>
<text text-anchor="middle" x="281" y="-56.8" font-family="Helvetica,sans-Serif" font-size="9.00" fill="#dc2626"> acquires</text>
</g>
</g>
</svg>
