<?xml version="1.0" encoding="UTF-8" standalone="no"?>
<!DOCTYPE svg PUBLIC "-//W3C//DTD SVG 1.1//EN"
 "http://www.w3.org/Graphics/SVG/1.1/DTD/svg11.dtd">
<!-- Generated by graphviz version 2.43.0 (0)
 -->
<!-- Title: binder Pages: 1 -->
<svg width="430pt" height="1449pt"
 viewBox="0.00 0.00 430.00 1449.00" xmlns="http://www.w3.org/2000/svg" xmlns:xlink="http://www.w3.org/1999/xlink">
<g id="graph0" class="graph" transform="scale(1 1) rotate(0) translate(4 1445)">
<title>binder</title>
<polygon fill="white" stroke="transparent" points="-4,4 -4,-1445 426,-1445 426,4 -4,4"/>
<!-- m::com.android.server.am.ActivityManagerService.revokeUriPermission:(Landroid/app/IApplicationThread;Ljava/lang/String;Landroid/net/Uri;II)V -->
<g id="node1" class="node">
<title>m::com.android.server.am.ActivityManagerService.revokeUriPermission:(Landroid/app/IApplicationThread;Ljava/lang/String;Landroid/net/Uri;II)V</title>
<path fill="#eef2ff" stroke="#a5b4fc" d="M330.5,-1359C330.5,-1359 91.5,-1359 91.5,-1359 85.5,-1359 79.5,-1353 79.5,-1347 79.5,-1347 79.5,-1335 79.5,-1335 79.5,-1329 85.5,-1323 91.5,-1323 91.5,-1323 330.5,-1323 330.5,-1323 336.5,-1323 342.5,-1329 342.5,-1335 342.5,-1335 342.5,-1347 342.5,-1347 342.5,-1353 336.5,-1359 330.5,-1359"/>
<text text-anchor="middle" x="211" y="-1338.2" font-family="Helvetica,sans-Serif" font-size="11.00">ActivityManagerService.revokeUriPermission</text>
</g>
<!-- m::com.android.server.uri.UriGrantsManagerService$LocalService.revokeUriPermission:(Ljava/lang/String;ILcom/android/server/uri/GrantUri;I)V -->
<g id="node2" class="node">
<title>m::com.android.server.uri.UriGrantsManagerService$LocalService.revokeUriPermission:(Ljava/lang/String;ILcom/android/server/uri/GrantUri;I)V</title>
<path fill="#eef2ff" stroke="#a5b4fc" d="M374,-1286C374,-1286 48,-1286 48,-1286 42,-1286 36,-1280 36,-1274 36,-1274 36,-1262 36,-1262 36,-1256 42,-1250 48,-1250 48,-1250 374,-1250 374,-1250 380,-1250 386,-1256 386,-1262 386,-1262 386,-1274 386,-1274 386,-1280 380,-1286 374,-1286"/>
<text text-anchor="middle" x="211" y="-1265.2" font-family="Helvetica,sans-Serif" font-size="11.00">UriGrantsManagerService$LocalService.revokeUriPermission</text>
</g>
<!-- m::com.android.server.am.ActivityManagerService.revokeUriPermission:(Landroid/app/IApplicationThread;Ljava/lang/String;Landroid/net/Uri;II)V&#45;&gt;m::com.android.server.uri.UriGrantsManagerService$LocalService.revokeUriPermission:(Ljava/lang/String;ILcom/android/server/uri/GrantUri;I)V -->
<g id="edge2" class="edge">
<title>m::com.android.server.am.ActivityManagerService.revokeUriPermission:(Landroid/app/IApplicationThread;Ljava/lang/String;Landroid/net/Uri;II)V&#45;&gt;m::com.android.server.uri.UriGrantsManagerService$LocalService.revokeUriPermission:(Ljava/lang/String;ILcom/android/server/uri/GrantUri;I)V</title>
<path fill="none" stroke="#64748b" d="M211,-1322.81C211,-1314.18 211,-1303.56 211,-1294.03"/>
<polygon fill="#64748b" stroke="#64748b" points="213.8,-1294.03 211,-1286.03 208.2,-1294.03 213.8,-1294.03"/>
</g>
<!-- m::com.android.server.uri.UriGrantsManagerService.&#45;$$Nest$mrevokeUriPermission:(Lcom/android/server/uri/UriGrantsManagerService;Ljava/lang/String;ILcom/android/server/uri/GrantUri;I)V -->
<g id="node3" class="node">
<title>m::com.android.server.uri.UriGrantsManagerService.&#45;$$Nest$mrevokeUriPermission:(Lcom/android/server/uri/UriGrantsManagerService;Ljava/lang/String;ILcom/android/server/uri/GrantUri;I)V</title>
<path fill="#eef2ff" stroke="#a5b4fc" d="M336,-1213C336,-1213 86,-1213 86,-1213 80,-1213 74,-1207 74,-1201 74,-1201 74,-1189 74,-1189 74,-1183 80,-1177 86,-1177 86,-1177 336,-1177 336,-1177 342,-1177 348,-1183 348,-1189 348,-1189 348,-1201 348,-1201 348,-1207 342,-1213 336,-1213"/>
<text text-anchor="middle" x="211" y="-1192.2" font-family="Helvetica,sans-Serif" font-size="11.00">UriGrantsManagerService.revokeUriPermission</text>
</g>
<!-- m::com.android.server.uri.UriGrantsManagerService$LocalService.revokeUriPermission:(Ljava/lang/String;ILcom/android/server/uri/GrantUri;I)V&#45;&gt;m::com.android.server.uri.UriGrantsManagerService.&#45;$$Nest$mrevokeUriPermission:(Lcom/android/server/uri/UriGrantsManagerService;Ljava/lang/String;ILcom/android/server/uri/GrantUri;I)V -->
<g id="edge3" class="edge">
<title>m::com.android.server.uri.UriGrantsManagerService$LocalService.revokeUriPermission:(Ljava/lang/String;ILcom/android/server/uri/GrantUri;I)V&#45;&gt;m::com.android.server.uri.UriGrantsManagerService.&#45;$$Nest$mrevokeUriPermission:(Lcom/android/server/uri/UriGrantsManagerService;Ljava/lang/String;ILcom/android/server/uri/GrantUri;I)V</title>
<path fill="none" stroke="#64748b" d="M211,-1249.81C211,-1241.18 211,-1230.56 211,-1221.03"/>
<polygon fill="#64748b" stroke="#64748b" points="213.8,-1221.03 211,-1213.03 208.2,-1221.03 213.8,-1221.03"/>
</g>
<!-- m::com.android.server.uri.UriGrantsManagerService.revokeUriPermission:(Ljava/lang/String;ILcom/android/server/uri/GrantUri;I)V -->
<g id="node4" class="node">
<title>m::com.android.server.uri.UriGrantsManagerService.revokeUriPermission:(Ljava/lang/String;ILcom/android/server/uri/GrantUri;I)V</title>
<path fill="#eef2ff" stroke="#a5b4fc" d="M336,-1140C336,-1140 86,-1140 86,-1140 80,-1140 74,-1134 74,-1128 74,-1128 74,-1116 74,-1116 74,-1110 80,-1104 86,-1104 86,-1104 336,-1104 336,-1104 342,-1104 348,-1110 348,-1116 348,-1116 348,-1128 348,-1128 348,-1134 342,-1140 336,-1140"/>
<text text-anchor="middle" x="211" y="-1119.2" font-family="Helvetica,sans-Serif" font-size="11.00">UriGrantsManagerService.revokeUriPermission</text>
</g>
<!-- m::com.android.server.uri.UriGrantsManagerService.&#45;$$Nest$mrevokeUriPermission:(Lcom/android/server/uri/UriGrantsManagerService;Ljava/lang/String;ILcom/android/server/uri/GrantUri;I)V&#45;&gt;m::com.android.server.uri.UriGrantsManagerService.revokeUriPermission:(Ljava/lang/String;ILcom/android/server/uri/GrantUri;I)V -->
<g id="edge4" class="edge">
<title>m::com.android.server.uri.UriGrantsManagerService.&#45;$$Nest$mrevokeUriPermission:(Lcom/android/server/uri/UriGrantsManagerService;Ljava/lang/String;ILcom/android/server/uri/GrantUri;I)V&#45;&gt;m::com.android.server.uri.UriGrantsManagerService.revokeUriPermission:(Ljava/lang/String;ILcom/android/server/uri/GrantUri;I)V</title>
<path fill="none" stroke="#64748b" d="M211,-1176.81C211,-1168.18 211,-1157.56 211,-1148.03"/>
<polygon fill="#64748b" stroke="#64748b" points="213.8,-1148.03 211,-1140.03 208.2,-1148.03 213.8,-1148.03"/>
</g>
<!-- m::com.android.server.uri.UriGrantsManagerService.checkHoldingPermissionsUnlocked:(Landroid/content/pm/ProviderInfo;Lcom/android/server/uri/GrantUri;II)Z -->
<g id="node5" class="node">
<title>m::com.android.server.uri.UriGrantsManagerService.checkHoldingPermissionsUnlocked:(Landroid/content/pm/ProviderInfo;Lcom/android/server/uri/GrantUri;II)Z</title>
<path fill="#eef2ff" stroke="#a5b4fc" d="M374,-1067C374,-1067 48,-1067 48,-1067 42,-1067 36,-1061 36,-1055 36,-1055 36,-1043 36,-1043 36,-1037 42,-1031 48,-1031 48,-1031 374,-1031 374,-1031 380,-1031 386,-1037 386,-1043 386,-1043 386,-1055 386,-1055 386,-1061 380,-1067 374,-1067"/>
<text text-anchor="middle" x="211" y="-1046.2" font-family="Helvetica,sans-Serif" font-size="11.00">UriGrantsManagerService.checkHoldingPermissionsUnlocked</text>
</g>
<!-- m::com.android.server.uri.UriGrantsManagerService.revokeUriPermission:(Ljava/lang/String;ILcom/android/server/uri/GrantUri;I)V&#45;&gt;m::com.android.server.uri.UriGrantsManagerService.checkHoldingPermissionsUnlocked:(Landroid/content/pm/ProviderInfo;Lcom/android/server/uri/GrantUri;II)Z -->
<g id="edge5" class="edge">
<title>m::com.android.server.uri.UriGrantsManagerService.revokeUriPermission:(Ljava/lang/String;ILcom/android/server/uri/GrantUri;I)V&#45;&gt;m::com.android.server.uri.UriGrantsManagerService.checkHoldingPermissionsUnlocked:(Landroid/content/pm/ProviderInfo;Lcom/android/server/uri/GrantUri;II)Z</title>
<path fill="none" stroke="#64748b" d="M211,-1103.81C211,-1095.18 211,-1084.56 211,-1075.03"/>
<polygon fill="#64748b" stroke="#64748b" points="213.8,-1075.03 211,-1067.03 208.2,-1075.03 213.8,-1075.03"/>
</g>
<!-- m::com.android.server.uri.UriGrantsManagerService.checkHoldingPermissionsInternalUnlocked:(Landroid/content/pm/ProviderInfo;Lcom/android/server/uri/GrantUri;IIZ)Z -->
<g id="node6" class="node">
<title>m::com.android.server.uri.UriGrantsManagerService.checkHoldingPermissionsInternalUnlocked:(Landroid/content/pm/ProviderInfo;Lcom/android/server/uri/GrantUri;IIZ)Z</title>
<path fill="#eef2ff" stroke="#a5b4fc" d="M395,-994C395,-994 27,-994 27,-994 21,-994 15,-988 15,-982 15,-982 15,-970 15,-970 15,-964 21,-958 27,-958 27,-958 395,-958 395,-958 401,-958 407,-964 407,-970 407,-970 407,-982 407,-982 407,-988 401,-994 395,-994"/>
<text text-anchor="middle" x="211" y="-973.2" font-family="Helvetica,sans-Serif" font-size="11.00">UriGrantsManagerService.checkHoldingPermissionsInternalUnlocked</text>
</g>
<!-- m::com.android.server.uri.UriGrantsManagerService.checkHoldingPermissionsUnlocked:(Landroid/content/pm/ProviderInfo;Lcom/android/server/uri/GrantUri;II)Z&#45;&gt;m::com.android.server.uri.UriGrantsManagerService.checkHoldingPermissionsInternalUnlocked:(Landroid/content/pm/ProviderInfo;Lcom/android/server/uri/GrantUri;IIZ)Z -->
<g id="edge6" class="edge">
<title>m::com.android.server.uri.UriGrantsManagerService.checkHoldingPermissionsUnlocked:(Landroid/content/pm/ProviderInfo;Lcom/android/server/uri/GrantUri;II)Z&#45;&gt;m::com.android.server.uri.UriGrantsManagerService.checkHoldingPermissionsInternalUnlocked:(Landroid/content/pm/ProviderInfo;Lcom/android/server/uri/GrantUri;IIZ)Z</title>
<path fill="none" stroke="#64748b" d="M211,-1030.81C211,-1022.18 211,-1011.56 211,-1002.03"/>
<polygon fill="#64748b" stroke="#64748b" points="213.8,-1002.03 211,-994.03 208.2,-1002.03 213.8,-1002.03"/>
</g>
<!-- m::com.android.server.am.ActivityManagerService$LocalService.checkContentProviderUriPermission:(Landroid/net/Uri;III)I -->
<g id="node7" class="node">
<title>m::com.android.server.am.ActivityManagerService$LocalService.checkContentProviderUriPermission:(Landroid/net/Uri;III)I</title>
<path fill="#eef2ff" stroke="#a5b4fc" d="M410,-921C410,-921 12,-921 12,-921 6,-921 0,-915 0,-909 0,-909 0,-897 0,-897 0,-891 6,-885 12,-885 12,-885 410,-885 410,-885 416,-885 422,-891 422,-897 422,-897 422,-909 422,-909 422,-915 416,-921 410,-921"/>
<text text-anchor="middle" x="211" y="-900.2" font-family="Helvetica,sans-Serif" font-size="11.00">ActivityManagerService$LocalService.checkContentProviderUriPermission</text>
</g>
<!-- m::com.android.server.uri.UriGrantsManagerService.checkHoldingPermissionsInternalUnlocked:(Landroid/content/pm/ProviderInfo;Lcom/android/server/uri/GrantUri;IIZ)Z&#45;&gt;m::com.android.server.am.ActivityManagerService$LocalService.checkContentProviderUriPermission:(Landroid/net/Uri;III)I -->
<g id="edge7" class="edge">
<title>m::com.android.server.uri.UriGrantsManagerService.checkHoldingPermissionsInternalUnlocked:(Landroid/content/pm/ProviderInfo;Lcom/android/server/uri/GrantUri;IIZ)Z&#45;&gt;m::com.android.server.am.ActivityManagerService$LocalService.checkContentProviderUriPermission:(Landroid/net/Uri;III)I</title>
<path fill="none" stroke="#64748b" d="M211,-957.81C211,-949.18 211,-938.56 211,-929.03"/>
<polygon fill="#64748b" stroke="#64748b" points="213.8,-929.03 211,-921.03 208.2,-929.03 213.8,-929.03"/>
</g>
<!-- m::com.android.server.am.ContentProviderHelper.checkContentProviderUriPermission:(Landroid/net/Uri;III)I -->
<g id="node8" class="node">
<title>m::com.android.server.am.ContentProviderHelper.checkContentProviderUriPermission:(Landroid/net/Uri;III)I</title>
<path fill="#eef2ff" stroke="#a5b4fc" d="M369.5,-848C369.5,-848 52.5,-848 52.5,-848 46.5,-848 40.5,-842 40.5,-836 40.5,-836 40.5,-824 40.5,-824 40.5,-818 46.5,-812 52.5,-812 52.5,-812 369.5,-812 369.5,-812 375.5,-812 381.5,-818 381.5,-824 381.5,-824 381.5,-836 381.5,-836 381.5,-842 375.5,-848 369.5,-848"/>
<text text-anchor="middle" x="211" y="-827.2" font-family="Helvetica,sans-Serif" font-size="11.00">ContentProviderHelper.checkContentProviderUriPermission</text>
</g>
<!-- m::com.android.server.am.ActivityManagerService$LocalService.checkContentProviderUriPermission:(Landroid/net/Uri;III)I&#45;&gt;m::com.android.server.am.ContentProviderHelper.checkContentProviderUriPermission:(Landroid/net/Uri;III)I -->
<g id="edge8" class="edge">
<title>m::com.android.server.am.ActivityManagerService$LocalService.checkContentProviderUriPermission:(Landroid/net/Uri;III)I&#45;&gt;m::com.android.server.am.ContentProviderHelper.checkContentProviderUriPermission:(Landroid/net/Uri;III)I</title>
<path fill="none" stroke="#64748b" d="M211,-884.81C211,-876.18 211,-865.56 211,-856.03"/>
<polygon fill="#64748b" stroke="#64748b" points="213.8,-856.03 211,-848.03 208.2,-856.03 213.8,-856.03"/>
</g>
<!-- m::com.android.server.am.ContentProviderHelper.getContentProviderExternalUnchecked:(Ljava/lang/String;Landroid/os/IBinder;ILjava/lang/String;I)Landroid/app/ContentProviderHolder; -->
<g id="node9" class="node">
<title>m::com.android.server.am.ContentProviderHelper.getContentProviderExternalUnchecked:(Ljava/lang/String;Landroid/os/IBinder;ILjava/lang/String;I)Landroid/app/ContentProviderHolder;</title>
<path fill="#eef2ff" stroke="#a5b4fc" d="M378,-775C378,-775 44,-775 44,-775 38,-775 32,-769 32,-763 32,-763 32,-751 32,-751 32,-745 38,-739 44,-739 44,-739 378,-739 378,-739 384,-739 390,-745 390,-751 390,-751 390,-763 390,-763 390,-769 384,-775 378,-775"/>
<text text-anchor="middle" x="211" y="-754.2" font-family="Helvetica,sans-Serif" font-size="11.00">ContentProviderHelper.getContentProviderExternalUnchecked</text>
</g>
<!-- m::com.android.server.am.ContentProviderHelper.checkContentProviderUriPermission:(Landroid/net/Uri;III)I&#45;&gt;m::com.android.server.am.ContentProviderHelper.getContentProviderExternalUnchecked:(Ljava/lang/String;Landroid/os/IBinder;ILjava/lang/String;I)Landroid/app/ContentProviderHolder; -->
<g id="edge9" class="edge">
<title>m::com.android.server.am.ContentProviderHelper.checkContentProviderUriPermission:(Landroid/net/Uri;III)I&#45;&gt;m::com.android.server.am.ContentProviderHelper.getContentProviderExternalUnchecked:(Ljava/lang/String;Landroid/os/IBinder;ILjava/lang/String;I)Landroid/app/ContentProviderHolder;</title>
<path fill="none" stroke="#64748b" d="M211,-811.81C211,-803.18 211,-792.56 211,-783.03"/>
<polygon fill="#64748b" stroke="#64748b" points="213.8,-783.03 211,-775.03 208.2,-783.03 213.8,-783.03"/>
</g>
<!-- m::com.android.server.am.ContentProviderHelper.getContentProviderImpl:(Landroid/app/IApplicationThread;Ljava/lang/String;Landroid/os/IBinder;ILjava/lang/String;Ljava/lang/String;ZI)Landroid/app/ContentProviderHolder; -->
<g id="node10" class="node">
<title>m::com.android.server.am.ContentProviderHelper.getContentProviderImpl:(Landroid/app/IApplicationThread;Ljava/lang/String;Landroid/os/IBinder;ILjava/lang/String;Ljava/lang/String;ZI)Landroid/app/ContentProviderHolder;</title>
<path fill="#eef2ff" stroke="#a5b4fc" d="M336.5,-702C336.5,-702 85.5,-702 85.5,-702 79.5,-702 73.5,-696 73.5,-690 73.5,-690 73.5,-678 73.5,-678 73.5,-672 79.5,-666 85.5,-666 85.5,-666 336.5,-666 336.5,-666 342.5,-666 348.5,-672 348.5,-678 348.5,-678 348.5,-690 348.5,-690 348.5,-696 342.5,-702 336.5,-702"/>
<text text-anchor="middle" x="211" y="-681.2" font-family="Helvetica,sans-Serif" font-size="11.00">ContentProviderHelper.getContentProviderImpl</text>
</g>
<!-- m::com.android.server.am.ContentProviderHelper.getContentProviderExternalUnchecked:(Ljava/lang/String;Landroid/os/IBinder;ILjava/lang/String;I)Landroid/app/ContentProviderHolder;&#45;&gt;m::com.android.server.am.ContentProviderHelper.getContentProviderImpl:(Landroid/app/IApplicationThread;Ljava/lang/String;Landroid/os/IBinder;ILjava/lang/String;Ljava/lang/String;ZI)Landroid/app/ContentProviderHolder; -->
<g id="edge10" class="edge">
<title>m::com.android.server.am.ContentProviderHelper.getContentProviderExternalUnchecked:(Ljava/lang/String;Landroid/os/IBinder;ILjava/lang/String;I)Landroid/app/ContentProviderHolder;&#45;&gt;m::com.android.server.am.ContentProviderHelper.getContentProviderImpl:(Landroid/app/IApplicationThread;Ljava/lang/String;Landroid/os/IBinder;ILjava/lang/String;Ljava/lang/String;ZI)Landroid/app/ContentProviderHolder;</title>
<path fill="none" stroke="#64748b" d="M211,-738.81C211,-730.18 211,-719.56 211,-710.03"/>
<polygon fill="#64748b" stroke="#64748b" points="213.8,-710.03 211,-702.03 208.2,-710.03 213.8,-710.03"/>
</g>
<!-- m::com.android.server.am.ActivityManagerService.startProcessLocked:(Ljava/lang/String;Landroid/content/pm/ApplicationInfo;ZILcom/android/server/am/HostingRecord;IZZ)Lcom/android/server/am/ProcessRecord; -->
<g id="node11" class="node">
<title>m::com.android.server.am.ActivityManagerService.startProcessLocked:(Ljava/lang/String;Landroid/content/pm/ApplicationInfo;ZILcom/android/server/am/HostingRecord;IZZ)Lcom/android/server/am/ProcessRecord;</title>
<path fill="#eef2ff" stroke="#a5b4fc" d="M328,-629C328,-629 94,-629 94,-629 88,-629 82,-623 82,-617 82,-617 82,-605 82,-605 82,-599 88,-593 94,-593 94,-593 328,-593 328,-593 334,-593 340,-599 340,-605 340,-605 340,-617 340,-617 340,-623 334,-629 328,-629"/>
<text text-anchor="middle" x="211" y="-608.2" font-family="Helvetica,sans-Serif" font-size="11.00">ActivityManagerService.startProcessLocked</text>
</g>
<!-- m::com.android.server.am.ContentProviderHelper.getContentProviderImpl:(Landroid/app/IApplicationThread;Ljava/lang/String;Landroid/os/IBinder;ILjava/lang/String;Ljava/lang/String;ZI)Landroid/app/ContentProviderHolder;&#45;&gt;m::com.android.server.am.ActivityManagerService.startProcessLocked:(Ljava/lang/String;Landroid/content/pm/ApplicationInfo;ZILcom/android/server/am/HostingRecord;IZZ)Lcom/android/server/am/ProcessRecord; -->
<g id="edge11" class="edge">
<title>m::com.android.server.am.ContentProviderHelper.getContentProviderImpl:(Landroid/app/IApplicationThread;Ljava/lang/String;Landroid/os/IBinder;ILjava/lang/String;Ljava/lang/String;ZI)Landroid/app/ContentProviderHolder;&#45;&gt;m::com.android.server.am.ActivityManagerService.startProcessLocked:(Ljava/lang/String;Landroid/content/pm/ApplicationInfo;ZILcom/android/server/am/HostingRecord;IZZ)Lcom/android/server/am/ProcessRecord;</title>
<path fill="none" stroke="#64748b" d="M211,-665.81C211,-657.18 211,-646.56 211,-637.03"/>
<polygon fill="#64748b" stroke="#64748b" points="213.8,-637.03 211,-629.03 208.2,-637.03 213.8,-637.03"/>
</g>
<!-- m::com.android.server.am.ProcessList.startProcessLocked:(Ljava/lang/String;Landroid/content/pm/ApplicationInfo;ZILcom/android/server/am/HostingRecord;IZZIZILjava/lang/String;Ljava/lang/String;Ljava/lang/String;[Ljava/lang/String;Ljava/lang/Runnable;)Lcom/android/server/am/ProcessRecord; -->
<g id="node12" class="node">
<title>m::com.android.server.am.ProcessList.startProcessLocked:(Ljava/lang/String;Landroid/content/pm/ApplicationInfo;ZILcom/android/server/am/HostingRecord;IZZIZILjava/lang/String;Ljava/lang/String;Ljava/lang/String;[Ljava/lang/String;Ljava/lang/Runnable;)Lcom/android/server/am/ProcessRecord;</title>
<path fill="#eef2ff" stroke="#a5b4fc" d="M294,-556C294,-556 128,-556 128,-556 122,-556 116,-550 116,-544 116,-544 116,-532 116,-532 116,-526 122,-520 128,-520 128,-520 294,-520 294,-520 300,-520 306,-526 306,-532 306,-532 306,-544 306,-544 306,-550 300,-556 294,-556"/>
<text text-anchor="middle" x="211" y="-535.2" font-family="Helvetica,sans-Serif" font-size="11.00">ProcessList.startProcessLocked</text>
</g>
<!-- m::com.android.server.am.ActivityManagerService.startProcessLocked:(Ljava/lang/String;Landroid/content/pm/ApplicationInfo;ZILcom/android/server/am/HostingRecord;IZZ)Lcom/android/server/am/ProcessRecord;&#45;&gt;m::com.android.server.am.ProcessList.startProcessLocked:(Ljava/lang/String;Landroid/content/pm/ApplicationInfo;ZILcom/android/server/am/HostingRecord;IZZIZILjava/lang/String;Ljava/lang/String;Ljava/lang/String;[Ljava/lang/String;Ljava/lang/Runnable;)Lcom/android/server/am/ProcessRecord; -->
<g id="edge12" class="edge">
<title>m::com.android.server.am.ActivityManagerService.startProcessLocked:(Ljava/lang/String;Landroid/content/pm/ApplicationInfo;ZILcom/android/server/am/HostingRecord;IZZ)Lcom/android/server/am/ProcessRecord;&#45;&gt;m::com.android.server.am.ProcessList.startProcessLocked:(Ljava/lang/String;Landroid/content/pm/ApplicationInfo;ZILcom/android/server/am/HostingRecord;IZZIZILjava/lang/String;Ljava/lang/String;Ljava/lang/String;[Ljava/lang/String;Ljava/lang/Runnable;)Lcom/android/server/am/ProcessRecord;</title>
<path fill="none" stroke="#64748b" d="M211,-592.81C211,-584.18 211,-573.56 211,-564.03"/>
<polygon fill="#64748b" stroke="#64748b" points="213.8,-564.03 211,-556.03 208.2,-564.03 213.8,-564.03"/>
</g>
<!-- m::com.android.server.am.ProcessList.startProcessLocked:(Lcom/android/server/am/ProcessRecord;Lcom/android/server/am/HostingRecord;ILjava/lang/String;)Z -->
<g id="node13" class="node">
<title>m::com.android.server.am.ProcessList.startProcessLocked:(Lcom/android/server/am/ProcessRecord;Lcom/android/server/am/HostingRecord;ILjava/lang/String;)Z</title>
<path fill="#eef2ff" stroke="#a5b4fc" d="M294,-483C294,-483 128,-483 128,-483 122,-483 116,-477 116,-471 116,-471 116,-459 116,-459 116,-453 122,-447 128,-447 128,-447 294,-447 294,-447 300,-447 306,-453 306,-459 306,-459 306,-471 306,-471 306,-477 300,-483 294,-483"/>
<text text-anchor="middle" x="211" y="-462.2" font-family="Helvetica,sans-Serif" font-size="11.00">ProcessList.startProcessLocked</text>
</g>
<!-- m::com.android.server.am.ProcessList.startProcessLocked:(Ljava/lang/String;Landroid/content/pm/ApplicationInfo;ZILcom/android/server/am/HostingRecord;IZZIZILjava/lang/String;Ljava/lang/String;Ljava/lang/String;[Ljava/lang/String;Ljava/lang/Runnable;)Lcom/android/server/am/ProcessRecord;&#45;&gt;m::com.android.server.am.ProcessList.startProcessLocked:(Lcom/android/server/am/ProcessRecord;Lcom/android/server/am/HostingRecord;ILjava/lang/String;)Z -->
<g id="edge13" class="edge">
<title>m::com.android.server.am.ProcessList.startProcessLocked:(Ljava/lang/String;Landroid/content/pm/ApplicationInfo;ZILcom/android/server/am/HostingRecord;IZZIZILjava/lang/String;Ljava/lang/String;Ljava/lang/String;[Ljava/lang/String;Ljava/lang/Runnable;)Lcom/android/server/am/ProcessRecord;&#45;&gt;m::com.android.server.am.ProcessList.startProcessLocked:(Lcom/android/server/am/ProcessRecord;Lcom/android/server/am/HostingRecord;ILjava/lang/String;)Z</title>
<path fill="none" stroke="#64748b" d="M211,-519.81C211,-511.18 211,-500.56 211,-491.03"/>
<polygon fill="#64748b" stroke="#64748b" points="213.8,-491.03 211,-483.03 208.2,-491.03 213.8,-491.03"/>
</g>
<!-- m::com.android.server.am.ProcessList.startProcessLocked:(Lcom/android/server/am/ProcessRecord;Lcom/android/server/am/HostingRecord;IZZLjava/lang/String;)Z -->
<g id="node14" class="node">
<title>m::com.android.server.am.ProcessList.startProcessLocked:(Lcom/android/server/am/ProcessRecord;Lcom/android/server/am/HostingRecord;IZZLjava/lang/String;)Z</title>
<path fill="#eef2ff" stroke="#a5b4fc" d="M294,-410C294,-410 128,-410 128,-410 122,-410 116,-404 116,-398 116,-398 116,-386 116,-386 116,-380 122,-374 128,-374 128,-374 294,-374 294,-374 300,-374 306,-380 306,-386 306,-386 306,-398 306,-398 306,-404 300,-410 294,-410"/>
<text text-anchor="middle" x="211" y="-389.2" font-family="Helvetica,sans-Serif" font-size="11.00">ProcessList.startProcessLocked</text>
</g>
<!-- m::com.android.server.am.ProcessList.startProcessLocked:(Lcom/android/server/am/ProcessRecord;Lcom/android/server/am/HostingRecord;ILjava/lang/String;)Z&#45;&gt;m::com.android.server.am.ProcessList.startProcessLocked:(Lcom/android/server/am/ProcessRecord;Lcom/android/server/am/HostingRecord;IZZLjava/lang/String;)Z -->
<g id="edge14" class="edge">
<title>m::com.android.server.am.ProcessList.startProcessLocked:(Lcom/android/server/am/ProcessRecord;Lcom/android/server/am/HostingRecord;ILjava/lang/String;)Z&#45;&gt;m::com.android.server.am.ProcessList.startProcessLocked:(Lcom/android/server/am/ProcessRecord;Lcom/android/server/am/HostingRecord;IZZLjava/lang/String;)Z</title>
<path fill="none" stroke="#64748b" d="M211,-446.81C211,-438.18 211,-427.56 211,-418.03"/>
<polygon fill="#64748b" stroke="#64748b" points="213.8,-418.03 211,-410.03 208.2,-418.03 213.8,-418.03"/>
</g>
<!-- m::com.android.server.am.ProcessList.startProcessLocked:(Lcom/android/server/am/HostingRecord;Ljava/lang/String;Lcom/android/server/am/ProcessRecord;I[IIIILjava/lang/String;Ljava/lang/String;Ljava/lang/String;Ljava/lang/String;JJ)Z -->
<g id="node15" class="node">
<title>m::com.android.server.am.ProcessList.startProcessLocked:(Lcom/android/server/am/HostingRecord;Ljava/lang/String;Lcom/android/server/am/ProcessRecord;I[IIIILjava/lang/String;Ljava/lang/String;Ljava/lang/String;Ljava/lang/String;JJ)Z</title>
<path fill="#eef2ff" stroke="#a5b4fc" d="M294,-337C294,-337 128,-337 128,-337 122,-337 116,-331 116,-325 116,-325 116,-313 116,-313 116,-307 122,-301 128,-301 128,-301 294,-301 294,-301 300,-301 306,-307 306,-313 306,-313 306,-325 306,-325 306,-331 300,-337 294,-337"/>
<text text-anchor="middle" x="211" y="-316.2" font-family="Helvetica,sans-Serif" font-size="11.00">ProcessList.startProcessLocked</text>
</g>
<!-- m::com.android.server.am.ProcessList.startProcessLocked:(Lcom/android/server/am/ProcessRecord;Lcom/android/server/am/HostingRecord;IZZLjava/lang/String;)Z&#45;&gt;m::com.android.server.am.ProcessList.startProcessLocked:(Lcom/android/server/am/HostingRecord;Ljava/lang/String;Lcom/android/server/am/ProcessRecord;I[IIIILjava/lang/String;Ljava/lang/String;Ljava/lang/String;Ljava/lang/String;JJ)Z -->
<g id="edge15" class="edge">
<title>m::com.android.server.am.ProcessList.startProcessLocked:(Lcom/android/server/am/ProcessRecord;Lcom/android/server/am/HostingRecord;IZZLjava/lang/String;)Z&#45;&gt;m::com.android.server.am.ProcessList.startProcessLocked:(Lcom/android/server/am/HostingRecord;Ljava/lang/String;Lcom/android/server/am/ProcessRecord;I[IIIILjava/lang/String;Ljava/lang/String;Ljava/lang/String;Ljava/lang/String;JJ)Z</title>
<path fill="none" stroke="#64748b" d="M211,-373.81C211,-365.18 211,-354.56 211,-345.03"/>
<polygon fill="#64748b" stroke="#64748b" points="213.8,-345.03 211,-337.03 208.2,-345.03 213.8,-345.03"/>
</g>
<!-- m::com.android.server.am.ProcessList.startProcess:(Lcom/android/server/am/HostingRecord;Ljava/lang/String;Lcom/android/server/am/ProcessRecord;I[IIIILjava/lang/String;Ljava/lang/String;Ljava/lang/String;Ljava/lang/String;J)Landroid/os/Process$ProcessStartResult; -->
<g id="node16" class="node">
<title>m::com.android.server.am.ProcessList.startProcess:(Lcom/android/server/am/HostingRecord;Ljava/lang/String;Lcom/android/server/am/ProcessRecord;I[IIIILjava/lang/String;Ljava/lang/String;Ljava/lang/String;Ljava/lang/String;J)Landroid/os/Process$ProcessStartResult;</title>
<path fill="#eef2ff" stroke="#a5b4fc" d="M275,-264C275,-264 147,-264 147,-264 141,-264 135,-258 135,-252 135,-252 135,-240 135,-240 135,-234 141,-228 147,-228 147,-228 275,-228 275,-228 281,-228 287,-234 287,-240 287,-240 287,-252 287,-252 287,-258 281,-264 275,-264"/>
<text text-anchor="middle" x="211" y="-243.2" font-family="Helvetica,sans-Serif" font-size="11.00">ProcessList.startProcess</text>
</g>
<!-- m::com.android.server.am.ProcessList.startProcessLocked:(Lcom/android/server/am/HostingRecord;Ljava/lang/String;Lcom/android/server/am/ProcessRecord;I[IIIILjava/lang/String;Ljava/lang/String;Ljava/lang/String;Ljava/lang/String;JJ)Z&#45;&gt;m::com.android.server.am.ProcessList.startProcess:(Lcom/android/server/am/HostingRecord;Ljava/lang/String;Lcom/android/server/am/ProcessRecord;I[IIIILjava/lang/String;Ljava/lang/String;Ljava/lang/String;Ljava/lang/String;J)Landroid/os/Process$ProcessStartResult; -->
<g id="edge16" class="edge">
<title>m::com.android.server.am.ProcessList.startProcessLocked:(Lcom/android/server/am/HostingRecord;Ljava/lang/String;Lcom/android/server/am/ProcessRecord;I[IIIILjava/lang/String;Ljava/lang/String;Ljava/lang/String;Ljava/lang/String;JJ)Z&#45;&gt;m::com.android.server.am.ProcessList.startProcess:(Lcom/android/server/am/HostingRecord;Ljava/lang/String;Lcom/android/server/am/ProcessRecord;I[IIIILjava/lang/String;Ljava/lang/String;Ljava/lang/String;Ljava/lang/String;J)Landroid/os/Process$ProcessStartResult;</title>
<path fill="none" stroke="#64748b" d="M211,-300.81C211,-292.18 211,-281.56 211,-272.03"/>
<polygon fill="#64748b" stroke="#64748b" points="213.8,-272.03 211,-264.03 208.2,-272.03 213.8,-272.03"/>
</g>
<!-- m::com.android.server.StorageManagerService$StorageManagerInternalImpl.prepareStorageDirs:(ILjava/util/Set;Ljava/lang/String;)Z -->
<g id="node17" class="node">
<title>m::com.android.server.StorageManagerService$StorageManagerInternalImpl.prepareStorageDirs:(ILjava/util/Set;Ljava/lang/String;)Z</title>
<path fill="#eef2ff" stroke="#a5b4fc" d="M410,-191C410,-191 12,-191 12,-191 6,-191 0,-185 0,-179 0,-179 0,-167 0,-167 0,-161 6,-155 12,-155 12,-155 410,-155 410,-155 416,-155 422,-161 422,-167 422,-167 422,-179 422,-179 422,-185 416,-191 410,-191"/>
<text text-anchor="middle" x="211" y="-170.2" font-family="Helvetica,sans-Serif" font-size="11.00">StorageManagerService$StorageManagerInternalImpl.prepareStorageDirs</text>
</g>
<!-- m::com.android.server.am.ProcessList.startProcess:(Lcom/android/server/am/HostingRecord;Ljava/lang/String;Lcom/android/server/am/ProcessRecord;I[IIIILjava/lang/String;Ljava/lang/String;Ljava/lang/String;Ljava/lang/String;J)Landroid/os/Process$ProcessStartResult;&#45;&gt;m::com.android.server.StorageManagerService$StorageManagerInternalImpl.prepareStorageDirs:(ILjava/util/Set;Ljava/lang/String;)Z -->
<g id="edge17" class="edge">
<title>m::com.android.server.am.ProcessList.startProcess:(Lcom/android/server/am/HostingRecord;Ljava/lang/String;Lcom/android/server/am/ProcessRecord;I[IIIILjava/lang/String;Ljava/lang/String;Ljava/lang/String;Ljava/lang/String;J)Landroid/os/Process$ProcessStartResult;&#45;&gt;m::com.android.server.StorageManagerService$StorageManagerInternalImpl.prepareStorageDirs:(ILjava/util/Set;Ljava/lang/String;)Z</title>
<path fill="none" stroke="#64748b" d="M211,-227.81C211,-219.18 211,-208.56 211,-199.03"/>
<polygon fill="#64748b" stroke="#64748b" points="213.8,-199.03 211,-191.03 208.2,-199.03 213.8,-199.03"/>
</g>
<!-- m::android.os.IVold$Stub$Proxy.ensureAppDirsCreated:([Ljava/lang/String;I)V -->
<g id="node18" class="node">
<title>m::android.os.IVold$Stub$Proxy.ensureAppDirsCreated:([Ljava/lang/String;I)V</title>
<path fill="#eef2ff" stroke="#a5b4fc" d="M318.5,-118C318.5,-118 103.5,-118 103.5,-118 97.5,-118 91.5,-112 91.5,-106 91.5,-106 91.5,-94 91.5,-94 91.5,-88 97.5,-82 103.5,-82 103.5,-82 318.5,-82 318.5,-82 324.5,-82 330.5,-88 330.5,-94 330.5,-94 330.5,-106 330.5,-106 330.5,-112 324.5,-118 318.5,-118"/>
<text text-anchor="middle" x="211" y="-97.2" font-family="Helvetica,sans-Serif" font-size="11.00">IVold$Stub$Proxy.ensureAppDirsCreated</text>
</g>
<!-- m::com.android.server.StorageManagerService$StorageManagerInternalImpl.prepareStorageDirs:(ILjava/util/Set;Ljava/lang/String;)Z&#45;&gt;m::android.os.IVold$Stub$Proxy.ensureAppDirsCreated:([Ljava/lang/String;I)V -->
<g id="edge18" class="edge">
<title>m::com.android.server.StorageManagerService$StorageManagerInternalImpl.prepareStorageDirs:(ILjava/util/Set;Ljava/lang/String;)Z&#45;&gt;m::android.os.IVold$Stub$Proxy.ensureAppDirsCreated:([Ljava/lang/String;I)V</title>
<path fill="none" stroke="#64748b" d="M211,-154.81C211,-146.18 211,-135.56 211,-126.03"/>
<polygon fill="#64748b" stroke="#64748b" points="213.8,-126.03 211,-118.03 208.2,-126.03 213.8,-126.03"/>
</g>
<!-- __ipc__ -->
<g id="node19" class="node">
<title>__ipc__</title>
<path fill="#fde68a" stroke="#d97706" stroke-width="2" d="M255,-36C255,-36 167,-36 167,-36 161,-36 155,-30 155,-24 155,-24 155,-12 155,-12 155,-6 161,0 167,0 167,0 255,0 255,0 261,0 267,-6 267,-12 267,-12 267,-24 267,-24 267,-30 261,-36 255,-36"/>
<text text-anchor="middle" x="211" y="-21.2" font-family="Helvetica,sans-Serif" font-size="11.00">Binder IPC</text>
<text text-anchor="middle" x="211" y="-9.2" font-family="Helvetica,sans-Serif" font-size="11.00">(remote process)</text>
</g>
<!-- m::android.os.IVold$Stub$Proxy.ensureAppDirsCreated:([Ljava/lang/String;I)V&#45;&gt;__ipc__ -->
<g id="edge19" class="edge">
<title>m::android.os.IVold$Stub$Proxy.ensureAppDirsCreated:([Ljava/lang/String;I)V&#45;&gt;__ipc__</title>
<path fill="none" stroke="#d97706" stroke-width="1.6" d="M211,-81.64C211,-70.66 211,-56.29 211,-44.09"/>
<polygon fill="#d97706" stroke="#d97706" stroke-width="1.6" points="213.8,-44.05 211,-36.05 208.2,-44.05 213.8,-44.05"/>
<text text-anchor="middle" x="234" y="-56.8" font-family="Helvetica,sans-Serif" font-size="9.00" fill="#b45309"> transacts</text>
</g>
<!-- com.android.server.am.ActivityManagerService -->
<g id="node20" class="node">
<title>com.android.server.am.ActivityManagerService</title>
<path fill="#fee2e2" stroke="#dc2626" stroke-width="2" d="M283,-1441C283,-1441 139,-1441 139,-1441 133,-1441 127,-1435 127,-1429 127,-1429 127,-1417 127,-1417 127,-1411 133,-1405 139,-1405 139,-1405 283,-1405 283,-1405 289,-1405 295,-1411 295,-1417 295,-1417 295,-1429 295,-1429 295,-1435 289,-1441 283,-1441"/>
<text text-anchor="middle" x="211" y="-1420.2" font-family="Helvetica,sans-Serif" font-size="11.00">am.ActivityManagerService</text>
</g>
<!-- com.android.server.am.ActivityManagerService&#45;&gt;m::com.android.server.am.ActivityManagerService.revokeUriPermission:(Landroid/app/IApplicationThread;Ljava/lang/String;Landroid/net/Uri;II)V -->
<g id="edge1" class="edge">
<title>com.android.server.am.ActivityManagerService&#45;&gt;m::com.android.server.am.ActivityManagerService.revokeUriPermission:(Landroid/app/IApplicationThread;Ljava/lang/String;Landroid/net/Uri;II)V</title>
<path fill="none" stroke="#dc2626" stroke-width="1.6" d="M211,-1404.64C211,-1393.66 211,-1379.29 211,-1367.09"/>
<polygon fill="#dc2626" stroke="#dc2626" stroke-width="1.6" points="213.8,-1367.05 211,-1359.05 208.2,-1367.05 213.8,-1367.05"/>
<text text-anchor="middle" x="228" y="-1379.8" font-family="Helvetica,sans-Serif" font-size="9.00" fill="#dc2626"> held in</text>
</g>
</g>
</svg>
