<?xml version="1.0" encoding="UTF-8" standalone="no"?>
<!DOCTYPE svg PUBLIC "-//W3C//DTD SVG 1.1//EN"
 "http://www.w3.org/Graphics/SVG/1.1/DTD/svg11.dtd">
<!-- Generated by graphviz version 2.43.0 (0)
 -->
<!-- Title: binder Pages: 1 -->
<svg width="240pt" height="208pt"
 viewBox="0.00 0.00 240.00 208.00" xmlns="http://www.w3.org/2000/svg" xmlns:xlink="http://www.w3.org/1999/xlink">
<g id="graph0" class="graph" transform="scale(1 1) rotate(0) translate(4 204)">
<title>binder</title>
<polygon fill="white" stroke="transparent" points="-4,4 -4,-204 236,-204 236,4 -4,4"/>
<!-- m::com.android.server.am.ActivityManagerService.unbindFinished:(Landroid/os/IBinder;Landroid/os/IBinder;)V -->
<g id="node1" class="node">
<title>m::com.android.server.am.ActivityManagerService.unbindFinished:(Landroid/os/IBinder;Landroid/os/IBinder;)V</title>
<path fill="#eef2ff" stroke="#a5b4fc" d="M220,-118C220,-118 12,-118 12,-118 6,-118 0,-112 0,-106 0,-106 0,-94 0,-94 0,-88 6,-82 12,-82 12,-82 220,-82 220,-82 226,-82 232,-88 232,-94 232,-94 232,-106 232,-106 232,-112 226,-118 220,-118"/>
<text text-anchor="middle" x="116" y="-97.2" font-family="Helvetica,sans-Serif" font-size="11.00">ActivityManagerService.unbindFinished</text>
</g>
<!-- __ipc__ -->
<g id="node2" class="node">
<title>__ipc__</title>
<path fill="#fde68a" stroke="#d97706" stroke-width="2" d="M160,-36C160,-36 72,-36 72,-36 66,-36 60,-30 60,-24 60,-24 60,-12 60,-12 60,-6 66,0 72,0 72,0 160,0 160,0 166,0 172,-6 172,-12 172,-12 172,-24 172,-24 172,-30 166,-36 160,-36"/>
<text text-anchor="middle" x="116" y="-21.2" font-family="Helvetica,sans-Serif" font-size="11.00">Binder IPC</text>
<text text-anchor="middle" x="116" y="-9.2" font-family="Helvetica,sans-Serif" font-size="11.00">(remote process)</text>
</g>
<!-- m::com.android.server.am.ActivityManagerService.unbindFinished:(Landroid/os/IBinder;Landroid/os/IBinder;)V&#45;&gt;__ipc__ -->
<g id="edge2" class="edge">
<title>m::com.android.server.am.ActivityManagerService.unbindFinished:(Landroid/os/IBinder;Landroid/os/IBinder;)V&#45;&gt;__ipc__</title>
<path fill="none" stroke="#d97706" stroke-width="1.6" d="M116,-81.64C116,-70.66 116,-56.29 116,-44.09"/>
<polygon fill="#d97706" stroke="#d97706" stroke-width="1.6" points="118.8,-44.05 116,-36.05 113.2,-44.05 118.8,-44.05"/>
<text text-anchor="middle" x="139" y="-56.8" font-family="Helvetica,sans-Serif" font-size="9.00" fill="#b45309"> transacts</text>
</g>
<!-- com.android.server.am.ActivityManagerService -->
<g id="node3" class="node">
<title>com.android.server.am.ActivityManagerService</title>
<path fill="#fee2e2" stroke="#dc2626" stroke-width="2" d="M188,-200C188,-200 44,-200 44,-200 38,-200 32,-194 32,-188 32,-188 32,-176 32,-176 32,-170 38,-164 44,-164 44,-164 188,-164 188,-164 194,-164 200,-170 200,-176 200,-176 200,-188 200,-188 200,-194 194,-200 188,-200"/>
<text text-anchor="middle" x="116" y="-179.2" font-family="Helvetica,sans-Serif" font-size="11.00">am.ActivityManagerService</text>
</g>
<!-- com.android.server.am.ActivityManagerService&#45;&gt;m::com.android.server.am.ActivityManagerService.unbindFinished:(Landroid/os/IBinder;Landroid/os/IBinder;)V -->
<g id="edge1" class="edge">
<title>com.android.server.am.ActivityManagerService&#45;&gt;m::com.android.server.am.ActivityManagerService.unbindFinished:(Landroid/os/IBinder;Landroid/os/IBinder;)V</title>
<path fill="none" stroke="#dc2626" stroke-width="1.6" d="M116,-163.64C116,-152.66 116,-138.29 116,-126.09"/>
<polygon fill="#dc2626" stroke="#dc2626" stroke-width="1.6" points="118.8,-126.05 116,-118.05 113.2,-126.05 118.8,-126.05"/>
<text text-anchor="middle" x="133" y="-138.8" font-family="Helvetica,sans-Serif" font-size="9.00" fill="#dc2626"> held in</text>
</g>
</g>
</svg>
