<?xml version="1.0" encoding="UTF-8" standalone="no"?>
<!DOCTYPE svg PUBLIC "-//W3C//DTD SVG 1.1//EN"
 "http://www.w3.org/Graphics/SVG/1.1/DTD/svg11.dtd">
<!-- Generated by graphviz version 2.43.0 (0)
 -->
<!-- Title: binder Pages: 1 -->
<svg width="254pt" height="208pt"
 viewBox="0.00 0.00 254.00 208.00" xmlns="http://www.w3.org/2000/svg" xmlns:xlink="http://www.w3.org/1999/xlink">
<g id="graph0" class="graph" transform="scale(1 1) rotate(0) translate(4 204)">
<title>binder</title>
<polygon fill="white" stroke="transparent" points="-4,4 -4,-204 250,-204 250,4 -4,4"/>
<!-- m::com.android.server.am.ActivityManagerService.stopServiceToken:(Landroid/content/ComponentName;Landroid/os/IBinder;I)Z -->
<g id="node1" class="node">
<title>m::com.android.server.am.ActivityManagerService.stopServiceToken:(Landroid/content/ComponentName;Landroid/os/IBinder;I)Z</title>
<path fill="#eef2ff" stroke="#a5b4fc" d="M234,-118C234,-118 12,-118 12,-118 6,-118 0,-112 0,-106 0,-106 0,-94 0,-94 0,-88 6,-82 12,-82 12,-82 234,-82 234,-82 240,-82 246,-88 246,-94 246,-94 246,-106 246,-106 246,-112 240,-118 234,-118"/>
<text text-anchor="middle" x="123" y="-97.2" font-family="Helvetica,sans-Serif" font-size="11.00">ActivityManagerService.stopServiceToken</text>
</g>
<!-- __ipc__ -->
<g id="node2" class="node">
<title>__ipc__</title>
<path fill="#fde68a" stroke="#d97706" stroke-width="2" d="M167,-36C167,-36 79,-36 79,-36 73,-36 67,-30 67,-24 67,-24 67,-12 67,-12 67,-6 73,0 79,0 79,0 167,0 167,0 173,0 179,-6 179,-12 179,-12 179,-24 179,-24 179,-30 173,-36 167,-36"/>
<text text-anchor="middle" x="123" y="-21.2" font-family="Helvetica,sans-Serif" font-size="11.00">Binder IPC</text>
<text text-anchor="middle" x="123" y="-9.2" font-family="Helvetica,sans-Serif" font-size="11.00">(remote process)</text>
</g>
<!-- m::com.android.server.am.ActivityManagerService.stopServiceToken:(Landroid/content/ComponentName;Landroid/os/IBinder;I)Z&#45;&gt;__ipc__ -->
<g id="edge2" class="edge">
<title>m::com.android.server.am.ActivityManagerService.stopServiceToken:(Landroid/content/ComponentName;Landroid/os/IBinder;I)Z&#45;&gt;__ipc__</title>
<path fill="none" stroke="#d97706" stroke-width="1.6" d="M123,-81.64C123,-70.66 123,-56.29 123,-44.09"/>
<polygon fill="#d97706" stroke="#d97706" stroke-width="1.6" points="125.8,-44.05 123,-36.05 120.2,-44.05 125.8,-44.05"/>
<text text-anchor="middle" x="146" y="-56.8" font-family="Helvetica,sans-Serif" font-size="9.00" fill="#b45309"> transacts</text>
</g>
<!-- com.android.server.am.ActivityManagerService -->
<g id="node3" class="node">
<title>com.android.server.am.ActivityManagerService</title>
<path fill="#fee2e2" stroke="#dc2626" stroke-width="2" d="M195,-200C195,-200 51,-200 51,-200 45,-200 39,-194 39,-188 39,-188 39,-176 39,-176 39,-170 45,-164 51,-164 51,-164 195,-164 195,-164 201,-164 207,-170 207,-176 207,-176 207,-188 207,-188 207,-194 201,-200 195,-200"/>
<text text-anchor="middle" x="123" y="-179.2" font-family="Helvetica,sans-Serif" font-size="11.00">am.ActivityManagerService</text>
</g>
<!-- com.android.server.am.ActivityManagerService&#45;&gt;m::com.android.server.am.ActivityManagerService.stopServiceToken:(Landroid/content/ComponentName;Landroid/os/IBinder;I)Z -->
<g id="edge1" class="edge">
<title>com.android.server.am.ActivityManagerService&#45;&gt;m::com.android.server.am.ActivityManagerService.stopServiceToken:(Landroid/content/ComponentName;Landroid/os/IBinder;I)Z</title>
<path fill="none" stroke="#dc2626" stroke-width="1.6" d="M123,-163.64C123,-152.66 123,-138.29 123,-126.09"/>
<polygon fill="#dc2626" stroke="#dc2626" stroke-width="1.6" points="125.8,-126.05 123,-118.05 120.2,-126.05 125.8,-126.05"/>
<text text-anchor="middle" x="140" y="-138.8" font-family="Helvetica,sans-Serif" font-size="9.00" fill="#dc2626"> held in</text>
</g>
</g>
</svg>
