<?xml version="1.0" encoding="UTF-8" standalone="no"?>
<!DOCTYPE svg PUBLIC "-//W3C//DTD SVG 1.1//EN"
 "http://www.w3.org/Graphics/SVG/1.1/DTD/svg11.dtd">
<!-- Generated by graphviz version 2.43.0 (0)
 -->
<!-- Title: binder Pages: 1 -->
<svg width="277pt" height="208pt"
 viewBox="0.00 0.00 277.00 208.00" xmlns="http://www.w3.org/2000/svg" xmlns:xlink="http://www.w3.org/1999/xlink">
<g id="graph0" class="graph" transform="scale(1 1) rotate(0) translate(4 204)">
<title>binder</title>
<polygon fill="white" stroke="transparent" points="-4,4 -4,-204 273,-204 273,4 -4,4"/>
<!-- m::com.android.server.am.ActivityManagerService.importanceTokenDied:(Lcom/android/server/am/ActivityManagerService$ImportanceToken;)V -->
<g id="node1" class="node">
<title>m::com.android.server.am.ActivityManagerService.importanceTokenDied:(Lcom/android/server/am/ActivityManagerService$ImportanceToken;)V</title>
<path fill="#eef2ff" stroke="#a5b4fc" d="M257,-118C257,-118 12,-118 12,-118 6,-118 0,-112 0,-106 0,-106 0,-94 0,-94 0,-88 6,-82 12,-82 12,-82 257,-82 257,-82 263,-82 269,-88 269,-94 269,-94 269,-106 269,-106 269,-112 263,-118 257,-118"/>
<text text-anchor="middle" x="134.5" y="-97.2" font-family="Helvetica,sans-Serif" font-size="11.00">ActivityManagerService.importanceTokenDied</text>
</g>
<!-- __ipc__ -->
<g id="node2" class="node">
<title>__ipc__</title>
<path fill="#fde68a" stroke="#d97706" stroke-width="2" d="M178.5,-36C178.5,-36 90.5,-36 90.5,-36 84.5,-36 78.5,-30 78.5,-24 78.5,-24 78.5,-12 78.5,-12 78.5,-6 84.5,0 90.5,0 90.5,0 178.5,0 178.5,0 184.5,0 190.5,-6 190.5,-12 190.5,-12 190.5,-24 190.5,-24 190.5,-30 184.5,-36 178.5,-36"/>
<text text-anchor="middle" x="134.5" y="-21.2" font-family="Helvetica,sans-Serif" font-size="11.00">Binder IPC</text>
<text text-anchor="middle" x="134.5" y="-9.2" font-family="Helvetica,sans-Serif" font-size="11.00">(remote process)</text>
</g>
<!-- m::com.android.server.am.ActivityManagerService.importanceTokenDied:(Lcom/android/server/am/ActivityManagerService$ImportanceToken;)V&#45;&gt;__ipc__ -->
<g id="edge2" class="edge">
<title>m::com.android.server.am.ActivityManagerService.importanceTokenDied:(Lcom/android/server/am/ActivityManagerService$ImportanceToken;)V&#45;&gt;__ipc__</title>
<path fill="none" stroke="#d97706" stroke-width="1.6" d="M134.5,-81.64C134.5,-70.66 134.5,-56.29 134.5,-44.09"/>
<polygon fill="#d97706" stroke="#d97706" stroke-width="1.6" points="137.3,-44.05 134.5,-36.05 131.7,-44.05 137.3,-44.05"/>
<text text-anchor="middle" x="157.5" y="-56.8" font-family="Helvetica,sans-Serif" font-size="9.00" fill="#b45309"> transacts</text>
</g>
<!-- com.android.server.am.ActivityManagerService -->
<g id="node3" class="node">
<title>com.android.server.am.ActivityManagerService</title>
<path fill="#fee2e2" stroke="#dc2626" stroke-width="2" d="M206.5,-200C206.5,-200 62.5,-200 62.5,-200 56.5,-200 50.5,-194 50.5,-188 50.5,-188 50.5,-176 50.5,-176 50.5,-170 56.5,-164 62.5,-164 62.5,-164 206.5,-164 206.5,-164 212.5,-164 218.5,-170 218.5,-176 218.5,-176 218.5,-188 218.5,-188 218.5,-194 212.5,-200 206.5,-200"/>
<text text-anchor="middle" x="134.5" y="-179.2" font-family="Helvetica,sans-Serif" font-size="11.00">am.ActivityManagerService</text>
</g>
<!-- com.android.server.am.ActivityManagerService&#45;&gt;m::com.android.server.am.ActivityManagerService.importanceTokenDied:(Lcom/android/server/am/ActivityManagerService$ImportanceToken;)V -->
<g id="edge1" class="edge">
<title>com.android.server.am.ActivityManagerService&#45;&gt;m::com.android.server.am.ActivityManagerService.importanceTokenDied:(Lcom/android/server/am/ActivityManagerService$ImportanceToken;)V</title>
<path fill="none" stroke="#dc2626" stroke-width="1.6" d="M134.5,-163.64C134.5,-152.66 134.5,-138.29 134.5,-126.09"/>
<polygon fill="#dc2626" stroke="#dc2626" stroke-width="1.6" points="137.3,-126.05 134.5,-118.05 131.7,-126.05 137.3,-126.05"/>
<text text-anchor="middle" x="151.5" y="-138.8" font-family="Helvetica,sans-Serif" font-size="9.00" fill="#dc2626"> held in</text>
</g>
</g>
</svg>
