<?xml version="1.0" encoding="UTF-8" standalone="no"?>
<!DOCTYPE svg PUBLIC "-//W3C//DTD SVG 1.1//EN"
 "http://www.w3.org/Graphics/SVG/1.1/DTD/svg11.dtd">
<!-- Generated by graphviz version 2.43.0 (0)
 -->
<!-- Title: binder Pages: 1 -->
<svg width="398pt" height="208pt"
 viewBox="0.00 0.00 398.00 208.00" xmlns="http://www.w3.org/2000/svg" xmlns:xlink="http://www.w3.org/1999/xlink">
<g id="graph0" class="graph" transform="scale(1 1) rotate(0) translate(4 204)">
<title>binder</title>
<polygon fill="white" stroke="transparent" points="-4,4 -4,-204 394,-204 394,4 -4,4"/>
<!-- m::com.android.server.am.ActivityManagerService$LocalService.killProcessesForRemovedTask:(Ljava/util/ArrayList;)V -->
<g id="node1" class="node">
<title>m::com.android.server.am.ActivityManagerService$LocalService.killProcessesForRemovedTask:(Ljava/util/ArrayList;)V</title>
<path fill="#eef2ff" stroke="#a5b4fc" d="M378,-118C378,-118 12,-118 12,-118 6,-118 0,-112 0,-106 0,-106 0,-94 0,-94 0,-88 6,-82 12,-82 12,-82 378,-82 378,-82 384,-82 390,-88 390,-94 390,-94 390,-106 390,-106 390,-112 384,-118 378,-118"/>
<text text-anchor="middle" x="195" y="-97.2" font-family="Helvetica,sans-Serif" font-size="11.00">ActivityManagerService$LocalService.killProcessesForRemovedTask</text>
</g>
<!-- __ipc__ -->
<g id="node2" class="node">
<title>__ipc__</title>
<path fill="#fde68a" stroke="#d97706" stroke-width="2" d="M239,-36C239,-36 151,-36 151,-36 145,-36 139,-30 139,-24 139,-24 139,-12 139,-12 139,-6 145,0 151,0 151,0 239,0 239,0 245,0 251,-6 251,-12 251,-12 251,-24 251,-24 251,-30 245,-36 239,-36"/>
<text text-anchor="middle" x="195" y="-21.2" font-family="Helvetica,sans-Serif" font-size="11.00">Binder IPC</text>
<text text-anchor="middle" x="195" y="-9.2" font-family="Helvetica,sans-Serif" font-size="11.00">(remote process)</text>
</g>
<!-- m::com.android.server.am.ActivityManagerService$LocalService.killProcessesForRemovedTask:(Ljava/util/ArrayList;)V&#45;&gt;__ipc__ -->
<g id="edge2" class="edge">
<title>m::com.android.server.am.ActivityManagerService$LocalService.killProcessesForRemovedTask:(Ljava/util/ArrayList;)V&#45;&gt;__ipc__</title>
<path fill="none" stroke="#d97706" stroke-width="1.6" d="M195,-81.64C195,-70.66 195,-56.29 195,-44.09"/>
<polygon fill="#d97706" stroke="#d97706" stroke-width="1.6" points="197.8,-44.05 195,-36.05 192.2,-44.05 197.8,-44.05"/>
<text text-anchor="middle" x="218" y="-56.8" font-family="Helvetica,sans-Serif" font-size="9.00" fill="#b45309"> transacts</text>
</g>
<!-- com.android.server.am.ActivityManagerService$LocalService.this$0 -->
<g id="node3" class="node">
<title>com.android.server.am.ActivityManagerService$LocalService.this$0</title>
<path fill="#fee2e2" stroke="#dc2626" stroke-width="2" d="M313,-200C313,-200 77,-200 77,-200 71,-200 65,-194 65,-188 65,-188 65,-176 65,-176 65,-170 71,-164 77,-164 77,-164 313,-164 313,-164 319,-164 325,-170 325,-176 325,-176 325,-188 325,-188 325,-194 319,-200 313,-200"/>
<text text-anchor="middle" x="195" y="-179.2" font-family="Helvetica,sans-Serif" font-size="11.00">ActivityManagerService$LocalService.this$0</text>
</g>
<!-- com.android.server.am.ActivityManagerService$LocalService.this$0&#45;&gt;m::com.android.server.am.ActivityManagerService$LocalService.killProcessesForRemovedTask:(Ljava/util/ArrayList;)V -->
<g id="edge1" class="edge">
<title>com.android.server.am.ActivityManagerService$LocalService.this$0&#45;&gt;m::com.android.server.am.ActivityManagerService$LocalService.killProcessesForRemovedTask:(Ljava/util/ArrayList;)V</title>
<path fill="none" stroke="#dc2626" stroke-width="1.6" d="M195,-163.64C195,-152.66 195,-138.29 195,-126.09"/>
<polygon fill="#dc2626" stroke="#dc2626" stroke-width="1.6" points="197.8,-126.05 195,-118.05 192.2,-126.05 197.8,-126.05"/>
<text text-anchor="middle" x="212" y="-138.8" font-family="Helvetica,sans-Serif" font-size="9.00" fill="#dc2626"> held in</text>
</g>
</g>
</svg>
