<?xml version="1.0" encoding="UTF-8" standalone="no"?>
<!DOCTYPE svg PUBLIC "-//W3C//DTD SVG 1.1//EN"
 "http://www.w3.org/Graphics/SVG/1.1/DTD/svg11.dtd">
<!-- Generated by graphviz version 2.43.0 (0)
 -->
<!-- Title: binder Pages: 1 -->
<svg width="260pt" height="208pt"
 viewBox="0.00 0.00 260.00 208.00" xmlns="http://www.w3.org/2000/svg" xmlns:xlink="http://www.w3.org/1999/xlink">
<g id="graph0" class="graph" transform="scale(1 1) rotate(0) translate(4 204)">
<title>binder</title>
<polygon fill="white" stroke="transparent" points="-4,4 -4,-204 256,-204 256,4 -4,4"/>
<!-- m::com.android.server.am.ActivityManagerService.setSystemProcess:()V -->
<g id="node1" class="node">
<title>m::com.android.server.am.ActivityManagerService.setSystemProcess:()V</title>
<path fill="#eef2ff" stroke="#a5b4fc" d="M240,-118C240,-118 12,-118 12,-118 6,-118 0,-112 0,-106 0,-106 0,-94 0,-94 0,-88 6,-82 12,-82 12,-82 240,-82 240,-82 246,-82 252,-88 252,-94 252,-94 252,-106 252,-106 252,-112 246,-118 240,-118"/>
<text text-anchor="middle" x="126" y="-97.2" font-family="Helvetica,sans-Serif" font-size="11.00">ActivityManagerService.setSystemProcess</text>
</g>
<!-- __ipc__ -->
<g id="node2" class="node">
<title>__ipc__</title>
<path fill="#fde68a" stroke="#d97706" stroke-width="2" d="M170,-36C170,-36 82,-36 82,-36 76,-36 70,-30 70,-24 70,-24 70,-12 70,-12 70,-6 76,0 82,0 82,0 170,0 170,0 176,0 182,-6 182,-12 182,-12 182,-24 182,-24 182,-30 176,-36 170,-36"/>
<text text-anchor="middle" x="126" y="-21.2" font-family="Helvetica,sans-Serif" font-size="11.00">Binder IPC</text>
<text text-anchor="middle" x="126" y="-9.2" font-family="Helvetica,sans-Serif" font-size="11.00">(remote process)</text>
</g>
<!-- m::com.android.server.am.ActivityManagerService.setSystemProcess:()V&#45;&gt;__ipc__ -->
<g id="edge2" class="edge">
<title>m::com.android.server.am.ActivityManagerService.setSystemProcess:()V&#45;&gt;__ipc__</title>
<path fill="none" stroke="#d97706" stroke-width="1.6" d="M126,-81.64C126,-70.66 126,-56.29 126,-44.09"/>
<polygon fill="#d97706" stroke="#d97706" stroke-width="1.6" points="128.8,-44.05 126,-36.05 123.2,-44.05 128.8,-44.05"/>
<text text-anchor="middle" x="149" y="-56.8" font-family="Helvetica,sans-Serif" font-size="9.00" fill="#b45309"> transacts</text>
</g>
<!-- com.android.server.am.ActivityManagerService -->
<g id="node3" class="node">
<title>com.android.server.am.ActivityManagerService</title>
<path fill="#fee2e2" stroke="#dc2626" stroke-width="2" d="M198,-200C198,-200 54,-200 54,-200 48,-200 42,-194 42,-188 42,-188 42,-176 42,-176 42,-170 48,-164 54,-164 54,-164 198,-164 198,-164 204,-164 210,-170 210,-176 210,-176 210,-188 210,-188 210,-194 204,-200 198,-200"/>
<text text-anchor="middle" x="126" y="-179.2" font-family="Helvetica,sans-Serif" font-size="11.00">am.ActivityManagerService</text>
</g>
<!-- com.android.server.am.ActivityManagerService&#45;&gt;m::com.android.server.am.ActivityManagerService.setSystemProcess:()V -->
<g id="edge1" class="edge">
<title>com.android.server.am.ActivityManagerService&#45;&gt;m::com.android.server.am.ActivityManagerService.setSystemProcess:()V</title>
<path fill="none" stroke="#dc2626" stroke-width="1.6" d="M126,-163.64C126,-152.66 126,-138.29 126,-126.09"/>
<polygon fill="#dc2626" stroke="#dc2626" stroke-width="1.6" points="128.8,-126.05 126,-118.05 123.2,-126.05 128.8,-126.05"/>
<text text-anchor="middle" x="143" y="-138.8" font-family="Helvetica,sans-Serif" font-size="9.00" fill="#dc2626"> held in</text>
</g>
</g>
</svg>
