<?xml version="1.0" encoding="UTF-8" standalone="no"?>
<!DOCTYPE svg PUBLIC "-//W3C//DTD SVG 1.1//EN"
 "http://www.w3.org/Graphics/SVG/1.1/DTD/svg11.dtd">
<!-- Generated by graphviz version 2.43.0 (0)
 -->
<!-- Title: binder Pages: 1 -->
<svg width="337pt" height="208pt"
 viewBox="0.00 0.00 337.00 208.00" xmlns="http://www.w3.org/2000/svg" xmlns:xlink="http://www.w3.org/1999/xlink">
<g id="graph0" class="graph" transform="scale(1 1) rotate(0) translate(4 204)">
<title>binder</title>
<polygon fill="white" stroke="transparent" points="-4,4 -4,-204 333,-204 333,4 -4,4"/>
<!-- m::com.android.server.am.ActivityManagerService.scheduleApplicationInfoChanged:(Ljava/util/List;I)V -->
<g id="node1" class="node">
<title>m::com.android.server.am.ActivityManagerService.scheduleApplicationInfoChanged:(Ljava/util/List;I)V</title>
<path fill="#eef2ff" stroke="#a5b4fc" d="M317,-118C317,-118 12,-118 12,-118 6,-118 0,-112 0,-106 0,-106 0,-94 0,-94 0,-88 6,-82 12,-82 12,-82 317,-82 317,-82 323,-82 329,-88 329,-94 329,-94 329,-106 329,-106 329,-112 323,-118 317,-118"/>
<text text-anchor="middle" x="164.5" y="-97.2" font-family="Helvetica,sans-Serif" font-size="11.00">ActivityManagerService.scheduleApplicationInfoChanged</text>
</g>
<!-- __ipc__ -->
<g id="node2" class="node">
<title>__ipc__</title>
<path fill="#fde68a" stroke="#d97706" stroke-width="2" d="M208.5,-36C208.5,-36 120.5,-36 120.5,-36 114.5,-36 108.5,-30 108.5,-24 108.5,-24 108.5,-12 108.5,-12 108.5,-6 114.5,0 120.5,0 120.5,0 208.5,0 208.5,0 214.5,0 220.5,-6 220.5,-12 220.5,-12 220.5,-24 220.5,-24 220.5,-30 214.5,-36 208.5,-36"/>
<text text-anchor="middle" x="164.5" y="-21.2" font-family="Helvetica,sans-Serif" font-size="11.00">Binder IPC</text>
<text text-anchor="middle" x="164.5" y="-9.2" font-family="Helvetica,sans-Serif" font-size="11.00">(remote process)</text>
</g>
<!-- m::com.android.server.am.ActivityManagerService.scheduleApplicationInfoChanged:(Ljava/util/List;I)V&#45;&gt;__ipc__ -->
<g id="edge2" class="edge">
<title>m::com.android.server.am.ActivityManagerService.scheduleApplicationInfoChanged:(Ljava/util/List;I)V&#45;&gt;__ipc__</title>
<path fill="none" stroke="#d97706" stroke-width="1.6" d="M164.5,-81.64C164.5,-70.66 164.5,-56.29 164.5,-44.09"/>
<polygon fill="#d97706" stroke="#d97706" stroke-width="1.6" points="167.3,-44.05 164.5,-36.05 161.7,-44.05 167.3,-44.05"/>
<text text-anchor="middle" x="187.5" y="-56.8" font-family="Helvetica,sans-Serif" font-size="9.00" fill="#b45309"> transacts</text>
</g>
<!-- com.android.server.am.ActivityManagerService.mProcLock -->
<g id="node3" class="node">
<title>com.android.server.am.ActivityManagerService.mProcLock</title>
<path fill="#fee2e2" stroke="#dc2626" stroke-width="2" d="M257.5,-200C257.5,-200 71.5,-200 71.5,-200 65.5,-200 59.5,-194 59.5,-188 59.5,-188 59.5,-176 59.5,-176 59.5,-170 65.5,-164 71.5,-164 71.5,-164 257.5,-164 257.5,-164 263.5,-164 269.5,-170 269.5,-176 269.5,-176 269.5,-188 269.5,-188 269.5,-194 263.5,-200 257.5,-200"/>
<text text-anchor="middle" x="164.5" y="-179.2" font-family="Helvetica,sans-Serif" font-size="11.00">ActivityManagerService.mProcLock</text>
</g>
<!-- com.android.server.am.ActivityManagerService.mProcLock&#45;&gt;m::com.android.server.am.ActivityManagerService.scheduleApplicationInfoChanged:(Ljava/util/List;I)V -->
<g id="edge1" class="edge">
<title>com.android.server.am.ActivityManagerService.mProcLock&#45;&gt;m::com.android.server.am.ActivityManagerService.scheduleApplicationInfoChanged:(Ljava/util/List;I)V</title>
<path fill="none" stroke="#dc2626" stroke-width="1.6" d="M164.5,-163.64C164.5,-152.66 164.5,-138.29 164.5,-126.09"/>
<polygon fill="#dc2626" stroke="#dc2626" stroke-width="1.6" points="167.3,-126.05 164.5,-118.05 161.7,-126.05 167.3,-126.05"/>
<text text-anchor="middle" x="181.5" y="-138.8" font-family="Helvetica,sans-Serif" font-size="9.00" fill="#dc2626"> held in</text>
</g>
</g>
</svg>
