<?xml version="1.0" encoding="UTF-8" standalone="no"?>
<!DOCTYPE svg PUBLIC "-//W3C//DTD SVG 1.1//EN"
 "http://www.w3.org/Graphics/SVG/1.1/DTD/svg11.dtd">
<!-- Generated by graphviz version 2.43.0 (0)
 -->
<!-- Title: binder Pages: 1 -->
<svg width="267pt" height="208pt"
 viewBox="0.00 0.00 267.00 208.00" xmlns="http://www.w3.org/2000/svg" xmlns:xlink="http://www.w3.org/1999/xlink">
<g id="graph0" class="graph" transform="scale(1 1) rotate(0) translate(4 204)">
<title>binder</title>
<polygon fill="white" stroke="transparent" points="-4,4 -4,-204 263,-204 263,4 -4,4"/>
<!-- m::com.android.server.am.ActivityManagerService.setWindowManager:(Lcom/android/server/wm/WindowManagerService;)V -->
<g id="node1" class="node">
<title>m::com.android.server.am.ActivityManagerService.setWindowManager:(Lcom/android/server/wm/WindowManagerService;)V</title>
<path fill="#eef2ff" stroke="#a5b4fc" d="M247,-118C247,-118 12,-118 12,-118 6,-118 0,-112 0,-106 0,-106 0,-94 0,-94 0,-88 6,-82 12,-82 12,-82 247,-82 247,-82 253,-82 259,-88 259,-94 259,-94 259,-106 259,-106 259,-112 253,-118 247,-118"/>
<text text-anchor="middle" x="129.5" y="-97.2" font-family="Helvetica,sans-Serif" font-size="11.00">ActivityManagerService.setWindowManager</text>
</g>
<!-- __ipc__ -->
<g id="node2" class="node">
<title>__ipc__</title>
<path fill="#fde68a" stroke="#d97706" stroke-width="2" d="M173.5,-36C173.5,-36 85.5,-36 85.5,-36 79.5,-36 73.5,-30 73.5,-24 73.5,-24 73.5,-12 73.5,-12 73.5,-6 79.5,0 85.5,0 85.5,0 173.5,0 173.5,0 179.5,0 185.5,-6 185.5,-12 185.5,-12 185.5,-24 185.5,-24 185.5,-30 179.5,-36 173.5,-36"/>
<text text-anchor="middle" x="129.5" y="-21.2" font-family="Helvetica,sans-Serif" font-size="11.00">Binder IPC</text>
<text text-anchor="middle" x="129.5" y="-9.2" font-family="Helvetica,sans-Serif" font-size="11.00">(remote process)</text>
</g>
<!-- m::com.android.server.am.ActivityManagerService.setWindowManager:(Lcom/android/server/wm/WindowManagerService;)V&#45;&gt;__ipc__ -->
<g id="edge2" class="edge">
<title>m::com.android.server.am.ActivityManagerService.setWindowManager:(Lcom/android/server/wm/WindowManagerService;)V&#45;&gt;__ipc__</title>
<path fill="none" stroke="#d97706" stroke-width="1.6" d="M129.5,-81.64C129.5,-70.66 129.5,-56.29 129.5,-44.09"/>
<polygon fill="#d97706" stroke="#d97706" stroke-width="1.6" points="132.3,-44.05 129.5,-36.05 126.7,-44.05 132.3,-44.05"/>
<text text-anchor="middle" x="152.5" y="-56.8" font-family="Helvetica,sans-Serif" font-size="9.00" fill="#b45309"> transacts</text>
</g>
<!-- com.android.server.am.ActivityManagerService -->
<g id="node3" class="node">
<title>com.android.server.am.ActivityManagerService</title>
<path fill="#fee2e2" stroke="#dc2626" stroke-width="2" d="M201.5,-200C201.5,-200 57.5,-200 57.5,-200 51.5,-200 45.5,-194 45.5,-188 45.5,-188 45.5,-176 45.5,-176 45.5,-170 51.5,-164 57.5,-164 57.5,-164 201.5,-164 201.5,-164 207.5,-164 213.5,-170 213.5,-176 213.5,-176 213.5,-188 213.5,-188 213.5,-194 207.5,-200 201.5,-200"/>
<text text-anchor="middle" x="129.5" y="-179.2" font-family="Helvetica,sans-Serif" font-size="11.00">am.ActivityManagerService</text>
</g>
<!-- com.android.server.am.ActivityManagerService&#45;&gt;m::com.android.server.am.ActivityManagerService.setWindowManager:(Lcom/android/server/wm/WindowManagerService;)V -->
<g id="edge1" class="edge">
<title>com.android.server.am.ActivityManagerService&#45;&gt;m::com.android.server.am.ActivityManagerService.setWindowManager:(Lcom/android/server/wm/WindowManagerService;)V</title>
<path fill="none" stroke="#dc2626" stroke-width="1.6" d="M129.5,-163.64C129.5,-152.66 129.5,-138.29 129.5,-126.09"/>
<polygon fill="#dc2626" stroke="#dc2626" stroke-width="1.6" points="132.3,-126.05 129.5,-118.05 126.7,-126.05 132.3,-126.05"/>
<text text-anchor="middle" x="146.5" y="-138.8" font-family="Helvetica,sans-Serif" font-size="9.00" fill="#dc2626"> held in</text>
</g>
</g>
</svg>
