<?xml version="1.0" encoding="UTF-8" standalone="no"?>
<!DOCTYPE svg PUBLIC "-//W3C//DTD SVG 1.1//EN"
 "http://www.w3.org/Graphics/SVG/1.1/DTD/svg11.dtd">
<!-- Generated by graphviz version 2.43.0 (0)
 -->
<!-- Title: binder Pages: 1 -->
<svg width="280pt" height="208pt"
 viewBox="0.00 0.00 280.00 208.00" xmlns="http://www.w3.org/2000/svg" xmlns:xlink="http://www.w3.org/1999/xlink">
<g id="graph0" class="graph" transform="scale(1 1) rotate(0) translate(4 204)">
<title>binder</title>
<polygon fill="white" stroke="transparent" points="-4,4 -4,-204 276,-204 276,4 -4,4"/>
<!-- m::com.android.server.am.ActivityManagerService.serviceDoneExecuting:(Landroid/os/IBinder;III)V -->
<g id="node1" class="node">
<title>m::com.android.server.am.ActivityManagerService.serviceDoneExecuting:(Landroid/os/IBinder;III)V</title>
<path fill="#eef2ff" stroke="#a5b4fc" d="M260,-118C260,-118 12,-118 12,-118 6,-118 0,-112 0,-106 0,-106 0,-94 0,-94 0,-88 6,-82 12,-82 12,-82 260,-82 260,-82 266,-82 272,-88 272,-94 272,-94 272,-106 272,-106 272,-112 266,-118 260,-118"/>
<text text-anchor="middle" x="136" y="-97.2" font-family="Helvetica,sans-Serif" font-size="11.00">ActivityManagerService.serviceDoneExecuting</text>
</g>
<!-- __ipc__ -->
<g id="node2" class="node">
<title>__ipc__</title>
<path fill="#fde68a" stroke="#d97706" stroke-width="2" d="M180,-36C180,-36 92,-36 92,-36 86,-36 80,-30 80,-24 80,-24 80,-12 80,-12 80,-6 86,0 92,0 92,0 180,0 180,0 186,0 192,-6 192,-12 192,-12 192,-24 192,-24 192,-30 186,-36 180,-36"/>
<text text-anchor="middle" x="136" y="-21.2" font-family="Helvetica,sans-Serif" font-size="11.00">Binder IPC</text>
<text text-anchor="middle" x="136" y="-9.2" font-family="Helvetica,sans-Serif" font-size="11.00">(remote process)</text>
</g>
<!-- m::com.android.server.am.ActivityManagerService.serviceDoneExecuting:(Landroid/os/IBinder;III)V&#45;&gt;__ipc__ -->
<g id="edge2" class="edge">
<title>m::com.android.server.am.ActivityManagerService.serviceDoneExecuting:(Landroid/os/IBinder;III)V&#45;&gt;__ipc__</title>
<path fill="none" stroke="#d97706" stroke-width="1.6" d="M136,-81.64C136,-70.66 136,-56.29 136,-44.09"/>
<polygon fill="#d97706" stroke="#d97706" stroke-width="1.6" points="138.8,-44.05 136,-36.05 133.2,-44.05 138.8,-44.05"/>
<text text-anchor="middle" x="159" y="-56.8" font-family="Helvetica,sans-Serif" font-size="9.00" fill="#b45309"> transacts</text>
</g>
<!-- com.android.server.am.ActivityManagerService -->
<g id="node3" class="node">
<title>com.android.server.am.ActivityManagerService</title>
<path fill="#fee2e2" stroke="#dc2626" stroke-width="2" d="M208,-200C208,-200 64,-200 64,-200 58,-200 52,-194 52,-188 52,-188 52,-176 52,-176 52,-170 58,-164 64,-164 64,-164 208,-164 208,-164 214,-164 220,-170 220,-176 220,-176 220,-188 220,-188 220,-194 214,-200 208,-200"/>
<text text-anchor="middle" x="136" y="-179.2" font-family="Helvetica,sans-Serif" font-size="11.00">am.ActivityManagerService</text>
</g>
<!-- com.android.server.am.ActivityManagerService&#45;&gt;m::com.android.server.am.ActivityManagerService.serviceDoneExecuting:(Landroid/os/IBinder;III)V -->
<g id="edge1" class="edge">
<title>com.android.server.am.ActivityManagerService&#45;&gt;m::com.android.server.am.ActivityManagerService.serviceDoneExecuting:(Landroid/os/IBinder;III)V</title>
<path fill="none" stroke="#dc2626" stroke-width="1.6" d="M136,-163.64C136,-152.66 136,-138.29 136,-126.09"/>
<polygon fill="#dc2626" stroke="#dc2626" stroke-width="1.6" points="138.8,-126.05 136,-118.05 133.2,-126.05 138.8,-126.05"/>
<text text-anchor="middle" x="153" y="-138.8" font-family="Helvetica,sans-Serif" font-size="9.00" fill="#dc2626"> held in</text>
</g>
</g>
</svg>
