<?xml version="1.0" encoding="UTF-8" standalone="no"?>
<!DOCTYPE svg PUBLIC "-//W3C//DTD SVG 1.1//EN"
 "http://www.w3.org/Graphics/SVG/1.1/DTD/svg11.dtd">
<!-- Generated by graphviz version 2.43.0 (0)
 -->
<!-- Title: binder Pages: 1 -->
<svg width="445pt" height="1303pt"
 viewBox="0.00 0.00 445.00 1303.00" xmlns="http://www.w3.org/2000/svg" xmlns:xlink="http://www.w3.org/1999/xlink">
<g id="graph0" class="graph" transform="scale(1 1) rotate(0) translate(4 1299)">
<title>binder</title>
<polygon fill="white" stroke="transparent" points="-4,4 -4,-1299 441,-1299 441,4 -4,4"/>
<!-- m::com.android.server.am.ActivityManagerService$LocalService.broadcastGlobalConfigurationChanged:(IZ)V -->
<g id="node1" class="node">
<title>m::com.android.server.am.ActivityManagerService$LocalService.broadcastGlobalConfigurationChanged:(IZ)V</title>
<path fill="#eef2ff" stroke="#a5b4fc" d="M425,-1213C425,-1213 12,-1213 12,-1213 6,-1213 0,-1207 0,-1201 0,-1201 0,-1189 0,-1189 0,-1183 6,-1177 12,-1177 12,-1177 425,-1177 425,-1177 431,-1177 437,-1183 437,-1189 437,-1189 437,-1201 437,-1201 437,-1207 431,-1213 425,-1213"/>
<text text-anchor="middle" x="218.5" y="-1192.2" font-family="Helvetica,sans-Serif" font-size="11.00">ActivityManagerService$LocalService.broadcastGlobalConfigurationChanged</text>
</g>
<!-- m::com.android.server.am.ActivityManagerService.broadcastIntentLocked:(Lcom/android/server/am/ProcessRecord;Ljava/lang/String;Ljava/lang/String;Landroid/content/Intent;Ljava/lang/String;Landroid/content/IIntentReceiver;ILjava/lang/String;Landroid/os/Bundle;[Ljava/lang/String;[Ljava/lang/String;[Ljava/lang/String;ILandroid/os/Bundle;ZZIIIII)I -->
<g id="node2" class="node">
<title>m::com.android.server.am.ActivityManagerService.broadcastIntentLocked:(Lcom/android/server/am/ProcessRecord;Ljava/lang/String;Ljava/lang/String;Landroid/content/Intent;Ljava/lang/String;Landroid/content/IIntentReceiver;ILjava/lang/String;Landroid/os/Bundle;[Ljava/lang/String;[Ljava/lang/String;[Ljava/lang/String;ILandroid/os/Bundle;ZZIIIII)I</title>
<path fill="#eef2ff" stroke="#a5b4fc" d="M344.5,-1140C344.5,-1140 92.5,-1140 92.5,-1140 86.5,-1140 80.5,-1134 80.5,-1128 80.5,-1128 80.5,-1116 80.5,-1116 80.5,-1110 86.5,-1104 92.5,-1104 92.5,-1104 344.5,-1104 344.5,-1104 350.5,-1104 356.5,-1110 356.5,-1116 356.5,-1116 356.5,-1128 356.5,-1128 356.5,-1134 350.5,-1140 344.5,-1140"/>
<text text-anchor="middle" x="218.5" y="-1119.2" font-family="Helvetica,sans-Serif" font-size="11.00">ActivityManagerService.broadcastIntentLocked</text>
</g>
<!-- m::com.android.server.am.ActivityManagerService$LocalService.broadcastGlobalConfigurationChanged:(IZ)V&#45;&gt;m::com.android.server.am.ActivityManagerService.broadcastIntentLocked:(Lcom/android/server/am/ProcessRecord;Ljava/lang/String;Ljava/lang/String;Landroid/content/Intent;Ljava/lang/String;Landroid/content/IIntentReceiver;ILjava/lang/String;Landroid/os/Bundle;[Ljava/lang/String;[Ljava/lang/String;[Ljava/lang/String;ILandroid/os/Bundle;ZZIIIII)I -->
<g id="edge2" class="edge">
<title>m::com.android.server.am.ActivityManagerService$LocalService.broadcastGlobalConfigurationChanged:(IZ)V&#45;&gt;m::com.android.server.am.ActivityManagerService.broadcastIntentLocked:(Lcom/android/server/am/ProcessRecord;Ljava/lang/String;Ljava/lang/String;Landroid/content/Intent;Ljava/lang/String;Landroid/content/IIntentReceiver;ILjava/lang/String;Landroid/os/Bundle;[Ljava/lang/String;[Ljava/lang/String;[Ljava/lang/String;ILandroid/os/Bundle;ZZIIIII)I</title>
<path fill="none" stroke="#64748b" d="M218.5,-1176.81C218.5,-1168.18 218.5,-1157.56 218.5,-1148.03"/>
<polygon fill="#64748b" stroke="#64748b" points="221.3,-1148.03 218.5,-1140.03 215.7,-1148.03 221.3,-1148.03"/>
</g>
<!-- m::com.android.server.am.BroadcastController.broadcastIntentLocked:(Lcom/android/server/am/ProcessRecord;Ljava/lang/String;Ljava/lang/String;Landroid/content/Intent;Ljava/lang/String;Lcom/android/server/am/ProcessRecord;Landroid/content/IIntentReceiver;ILjava/lang/String;Landroid/os/Bundle;[Ljava/lang/String;[Ljava/lang/String;[Ljava/lang/String;ILandroid/os/Bundle;ZZIIIIILandroid/app/BackgroundStartPrivileges;[ILjava/util/function/BiFunction;)I -->
<g id="node3" class="node">
<title>m::com.android.server.am.BroadcastController.broadcastIntentLocked:(Lcom/android/server/am/ProcessRecord;Ljava/lang/String;Ljava/lang/String;Landroid/content/Intent;Ljava/lang/String;Lcom/android/server/am/ProcessRecord;Landroid/content/IIntentReceiver;ILjava/lang/String;Landroid/os/Bundle;[Ljava/lang/String;[Ljava/lang/String;[Ljava/lang/String;ILandroid/os/Bundle;ZZIIIIILandroid/app/BackgroundStartPrivileges;[ILjava/util/function/BiFunction;)I</title>
<path fill="#eef2ff" stroke="#a5b4fc" d="M333.5,-1067C333.5,-1067 103.5,-1067 103.5,-1067 97.5,-1067 91.5,-1061 91.5,-1055 91.5,-1055 91.5,-1043 91.5,-1043 91.5,-1037 97.5,-1031 103.5,-1031 103.5,-1031 333.5,-1031 333.5,-1031 339.5,-1031 345.5,-1037 345.5,-1043 345.5,-1043 345.5,-1055 345.5,-1055 345.5,-1061 339.5,-1067 333.5,-1067"/>
<text text-anchor="middle" x="218.5" y="-1046.2" font-family="Helvetica,sans-Serif" font-size="11.00">BroadcastController.broadcastIntentLocked</text>
</g>
<!-- m::com.android.server.am.ActivityManagerService.broadcastIntentLocked:(Lcom/android/server/am/ProcessRecord;Ljava/lang/String;Ljava/lang/String;Landroid/content/Intent;Ljava/lang/String;Landroid/content/IIntentReceiver;ILjava/lang/String;Landroid/os/Bundle;[Ljava/lang/String;[Ljava/lang/String;[Ljava/lang/String;ILandroid/os/Bundle;ZZIIIII)I&#45;&gt;m::com.android.server.am.BroadcastController.broadcastIntentLocked:(Lcom/android/server/am/ProcessRecord;Ljava/lang/String;Ljava/lang/String;Landroid/content/Intent;Ljava/lang/String;Lcom/android/server/am/ProcessRecord;Landroid/content/IIntentReceiver;ILjava/lang/String;Landroid/os/Bundle;[Ljava/lang/String;[Ljava/lang/String;[Ljava/lang/String;ILandroid/os/Bundle;ZZIIIIILandroid/app/BackgroundStartPrivileges;[ILjava/util/function/BiFunction;)I -->
<g id="edge3" class="edge">
<title>m::com.android.server.am.ActivityManagerService.broadcastIntentLocked:(Lcom/android/server/am/ProcessRecord;Ljava/lang/String;Ljava/lang/String;Landroid/content/Intent;Ljava/lang/String;Landroid/content/IIntentReceiver;ILjava/lang/String;Landroid/os/Bundle;[Ljava/lang/String;[Ljava/lang/String;[Ljava/lang/String;ILandroid/os/Bundle;ZZIIIII)I&#45;&gt;m::com.android.server.am.BroadcastController.broadcastIntentLocked:(Lcom/android/server/am/ProcessRecord;Ljava/lang/String;Ljava/lang/String;Landroid/content/Intent;Ljava/lang/String;Lcom/android/server/am/ProcessRecord;Landroid/content/IIntentReceiver;ILjava/lang/String;Landroid/os/Bundle;[Ljava/lang/String;[Ljava/lang/String;[Ljava/lang/String;ILandroid/os/Bundle;ZZIIIIILandroid/app/BackgroundStartPrivileges;[ILjava/util/function/BiFunction;)I</title>
<path fill="none" stroke="#64748b" d="M218.5,-1103.81C218.5,-1095.18 218.5,-1084.56 218.5,-1075.03"/>
<polygon fill="#64748b" stroke="#64748b" points="221.3,-1075.03 218.5,-1067.03 215.7,-1075.03 221.3,-1075.03"/>
</g>
<!-- m::com.android.server.am.BroadcastController.broadcastIntentLockedTraced:(Lcom/android/server/am/ProcessRecord;Ljava/lang/String;Ljava/lang/String;Landroid/content/Intent;Ljava/lang/String;Lcom/android/server/am/ProcessRecord;Landroid/content/IIntentReceiver;ILjava/lang/String;Landroid/os/Bundle;[Ljava/lang/String;[Ljava/lang/String;[Ljava/lang/String;ILandroid/app/BroadcastOptions;ZZIIIIILandroid/app/BackgroundStartPrivileges;[ILjava/util/function/BiFunction;Lcom/android/server/am/BroadcastSentEventRecord;)I -->
<g id="node4" class="node">
<title>m::com.android.server.am.BroadcastController.broadcastIntentLockedTraced:(Lcom/android/server/am/ProcessRecord;Ljava/lang/String;Ljava/lang/String;Landroid/content/Intent;Ljava/lang/String;Lcom/android/server/am/ProcessRecord;Landroid/content/IIntentReceiver;ILjava/lang/String;Landroid/os/Bundle;[Ljava/lang/String;[Ljava/lang/String;[Ljava/lang/String;ILandroid/app/BroadcastOptions;ZZIIIIILandroid/app/BackgroundStartPrivileges;[ILjava/util/function/BiFunction;Lcom/android/server/am/BroadcastSentEventRecord;)I</title>
<path fill="#eef2ff" stroke="#a5b4fc" d="M351.5,-994C351.5,-994 85.5,-994 85.5,-994 79.5,-994 73.5,-988 73.5,-982 73.5,-982 73.5,-970 73.5,-970 73.5,-964 79.5,-958 85.5,-958 85.5,-958 351.5,-958 351.5,-958 357.5,-958 363.5,-964 363.5,-970 363.5,-970 363.5,-982 363.5,-982 363.5,-988 357.5,-994 351.5,-994"/>
<text text-anchor="middle" x="218.5" y="-973.2" font-family="Helvetica,sans-Serif" font-size="11.00">BroadcastController.broadcastIntentLockedTraced</text>
</g>
<!-- m::com.android.server.am.BroadcastController.broadcastIntentLocked:(Lcom/android/server/am/ProcessRecord;Ljava/lang/String;Ljava/lang/String;Landroid/content/Intent;Ljava/lang/String;Lcom/android/server/am/ProcessRecord;Landroid/content/IIntentReceiver;ILjava/lang/String;Landroid/os/Bundle;[Ljava/lang/String;[Ljava/lang/String;[Ljava/lang/String;ILandroid/os/Bundle;ZZIIIIILandroid/app/BackgroundStartPrivileges;[ILjava/util/function/BiFunction;)I&#45;&gt;m::com.android.server.am.BroadcastController.broadcastIntentLockedTraced:(Lcom/android/server/am/ProcessRecord;Ljava/lang/String;Ljava/lang/String;Landroid/content/Intent;Ljava/lang/String;Lcom/android/server/am/ProcessRecord;Landroid/content/IIntentReceiver;ILjava/lang/String;Landroid/os/Bundle;[Ljava/lang/String;[Ljava/lang/String;[Ljava/lang/String;ILandroid/app/BroadcastOptions;ZZIIIIILandroid/app/BackgroundStartPrivileges;[ILjava/util/function/BiFunction;Lcom/android/server/am/BroadcastSentEventRecord;)I -->
<g id="edge4" class="edge">
<title>m::com.android.server.am.BroadcastController.broadcastIntentLocked:(Lcom/android/server/am/ProcessRecord;Ljava/lang/String;Ljava/lang/String;Landroid/content/Intent;Ljava/lang/String;Lcom/android/server/am/ProcessRecord;Landroid/content/IIntentReceiver;ILjava/lang/String;Landroid/os/Bundle;[Ljava/lang/String;[Ljava/lang/String;[Ljava/lang/String;ILandroid/os/Bundle;ZZIIIIILandroid/app/BackgroundStartPrivileges;[ILjava/util/function/BiFunction;)I&#45;&gt;m::com.android.server.am.BroadcastController.broadcastIntentLockedTraced:(Lcom/android/server/am/ProcessRecord;Ljava/lang/String;Ljava/lang/String;Landroid/content/Intent;Ljava/lang/String;Lcom/android/server/am/ProcessRecord;Landroid/content/IIntentReceiver;ILjava/lang/String;Landroid/os/Bundle;[Ljava/lang/String;[Ljava/lang/String;[Ljava/lang/String;ILandroid/app/BroadcastOptions;ZZIIIIILandroid/app/BackgroundStartPrivileges;[ILjava/util/function/BiFunction;Lcom/android/server/am/BroadcastSentEventRecord;)I</title>
<path fill="none" stroke="#64748b" d="M218.5,-1030.81C218.5,-1022.18 218.5,-1011.56 218.5,-1002.03"/>
<polygon fill="#64748b" stroke="#64748b" points="221.3,-1002.03 218.5,-994.03 215.7,-1002.03 221.3,-1002.03"/>
</g>
<!-- m::com.android.server.am.ProcessList.killPackageProcessesLSP:(Ljava/lang/String;IIIIILjava/lang/String;)Z -->
<g id="node5" class="node">
<title>m::com.android.server.am.ProcessList.killPackageProcessesLSP:(Ljava/lang/String;IIIIILjava/lang/String;)Z</title>
<path fill="#eef2ff" stroke="#a5b4fc" d="M315.5,-921C315.5,-921 121.5,-921 121.5,-921 115.5,-921 109.5,-915 109.5,-909 109.5,-909 109.5,-897 109.5,-897 109.5,-891 115.5,-885 121.5,-885 121.5,-885 315.5,-885 315.5,-885 321.5,-885 327.5,-891 327.5,-897 327.5,-897 327.5,-909 327.5,-909 327.5,-915 321.5,-921 315.5,-921"/>
<text text-anchor="middle" x="218.5" y="-900.2" font-family="Helvetica,sans-Serif" font-size="11.00">ProcessList.killPackageProcessesLSP</text>
</g>
<!-- m::com.android.server.am.BroadcastController.broadcastIntentLockedTraced:(Lcom/android/server/am/ProcessRecord;Ljava/lang/String;Ljava/lang/String;Landroid/content/Intent;Ljava/lang/String;Lcom/android/server/am/ProcessRecord;Landroid/content/IIntentReceiver;ILjava/lang/String;Landroid/os/Bundle;[Ljava/lang/String;[Ljava/lang/String;[Ljava/lang/String;ILandroid/app/BroadcastOptions;ZZIIIIILandroid/app/BackgroundStartPrivileges;[ILjava/util/function/BiFunction;Lcom/android/server/am/BroadcastSentEventRecord;)I&#45;&gt;m::com.android.server.am.ProcessList.killPackageProcessesLSP:(Ljava/lang/String;IIIIILjava/lang/String;)Z -->
<g id="edge5" class="edge">
<title>m::com.android.server.am.BroadcastController.broadcastIntentLockedTraced:(Lcom/android/server/am/ProcessRecord;Ljava/lang/String;Ljava/lang/String;Landroid/content/Intent;Ljava/lang/String;Lcom/android/server/am/ProcessRecord;Landroid/content/IIntentReceiver;ILjava/lang/String;Landroid/os/Bundle;[Ljava/lang/String;[Ljava/lang/String;[Ljava/lang/String;ILandroid/app/BroadcastOptions;ZZIIIIILandroid/app/BackgroundStartPrivileges;[ILjava/util/function/BiFunction;Lcom/android/server/am/BroadcastSentEventRecord;)I&#45;&gt;m::com.android.server.am.ProcessList.killPackageProcessesLSP:(Ljava/lang/String;IIIIILjava/lang/String;)Z</title>
<path fill="none" stroke="#64748b" d="M218.5,-957.81C218.5,-949.18 218.5,-938.56 218.5,-929.03"/>
<polygon fill="#64748b" stroke="#64748b" points="221.3,-929.03 218.5,-921.03 215.7,-929.03 221.3,-929.03"/>
</g>
<!-- m::com.android.server.am.ProcessList.killPackageProcessesLSP:(Ljava/lang/String;IIIZZZZZZIILjava/lang/String;)Z -->
<g id="node6" class="node">
<title>m::com.android.server.am.ProcessList.killPackageProcessesLSP:(Ljava/lang/String;IIIZZZZZZIILjava/lang/String;)Z</title>
<path fill="#eef2ff" stroke="#a5b4fc" d="M315.5,-848C315.5,-848 121.5,-848 121.5,-848 115.5,-848 109.5,-842 109.5,-836 109.5,-836 109.5,-824 109.5,-824 109.5,-818 115.5,-812 121.5,-812 121.5,-812 315.5,-812 315.5,-812 321.5,-812 327.5,-818 327.5,-824 327.5,-824 327.5,-836 327.5,-836 327.5,-842 321.5,-848 315.5,-848"/>
<text text-anchor="middle" x="218.5" y="-827.2" font-family="Helvetica,sans-Serif" font-size="11.00">ProcessList.killPackageProcessesLSP</text>
</g>
<!-- m::com.android.server.am.ProcessList.killPackageProcessesLSP:(Ljava/lang/String;IIIIILjava/lang/String;)Z&#45;&gt;m::com.android.server.am.ProcessList.killPackageProcessesLSP:(Ljava/lang/String;IIIZZZZZZIILjava/lang/String;)Z -->
<g id="edge6" class="edge">
<title>m::com.android.server.am.ProcessList.killPackageProcessesLSP:(Ljava/lang/String;IIIIILjava/lang/String;)Z&#45;&gt;m::com.android.server.am.ProcessList.killPackageProcessesLSP:(Ljava/lang/String;IIIZZZZZZIILjava/lang/String;)Z</title>
<path fill="none" stroke="#64748b" d="M218.5,-884.81C218.5,-876.18 218.5,-865.56 218.5,-856.03"/>
<polygon fill="#64748b" stroke="#64748b" points="221.3,-856.03 218.5,-848.03 215.7,-856.03 221.3,-856.03"/>
</g>
<!-- m::com.android.server.am.ProcessList.removeProcessLocked:(Lcom/android/server/am/ProcessRecord;ZZIILjava/lang/String;Z)Z -->
<g id="node7" class="node">
<title>m::com.android.server.am.ProcessList.removeProcessLocked:(Lcom/android/server/am/ProcessRecord;ZZIILjava/lang/String;Z)Z</title>
<path fill="#eef2ff" stroke="#a5b4fc" d="M309.5,-775C309.5,-775 127.5,-775 127.5,-775 121.5,-775 115.5,-769 115.5,-763 115.5,-763 115.5,-751 115.5,-751 115.5,-745 121.5,-739 127.5,-739 127.5,-739 309.5,-739 309.5,-739 315.5,-739 321.5,-745 321.5,-751 321.5,-751 321.5,-763 321.5,-763 321.5,-769 315.5,-775 309.5,-775"/>
<text text-anchor="middle" x="218.5" y="-754.2" font-family="Helvetica,sans-Serif" font-size="11.00">ProcessList.removeProcessLocked</text>
</g>
<!-- m::com.android.server.am.ProcessList.killPackageProcessesLSP:(Ljava/lang/String;IIIZZZZZZIILjava/lang/String;)Z&#45;&gt;m::com.android.server.am.ProcessList.removeProcessLocked:(Lcom/android/server/am/ProcessRecord;ZZIILjava/lang/String;Z)Z -->
<g id="edge7" class="edge">
<title>m::com.android.server.am.ProcessList.killPackageProcessesLSP:(Ljava/lang/String;IIIZZZZZZIILjava/lang/String;)Z&#45;&gt;m::com.android.server.am.ProcessList.removeProcessLocked:(Lcom/android/server/am/ProcessRecord;ZZIILjava/lang/String;Z)Z</title>
<path fill="none" stroke="#64748b" d="M218.5,-811.81C218.5,-803.18 218.5,-792.56 218.5,-783.03"/>
<polygon fill="#64748b" stroke="#64748b" points="221.3,-783.03 218.5,-775.03 215.7,-783.03 221.3,-783.03"/>
</g>
<!-- m::com.android.server.am.ActivityManagerService.handleAppDiedLocked:(Lcom/android/server/am/ProcessRecord;IZZZ)V -->
<g id="node8" class="node">
<title>m::com.android.server.am.ActivityManagerService.handleAppDiedLocked:(Lcom/android/server/am/ProcessRecord;IZZZ)V</title>
<path fill="#eef2ff" stroke="#a5b4fc" d="M342.5,-702C342.5,-702 94.5,-702 94.5,-702 88.5,-702 82.5,-696 82.5,-690 82.5,-690 82.5,-678 82.5,-678 82.5,-672 88.5,-666 94.5,-666 94.5,-666 342.5,-666 342.5,-666 348.5,-666 354.5,-672 354.5,-678 354.5,-678 354.5,-690 354.5,-690 354.5,-696 348.5,-702 342.5,-702"/>
<text text-anchor="middle" x="218.5" y="-681.2" font-family="Helvetica,sans-Serif" font-size="11.00">ActivityManagerService.handleAppDiedLocked</text>
</g>
<!-- m::com.android.server.am.ProcessList.removeProcessLocked:(Lcom/android/server/am/ProcessRecord;ZZIILjava/lang/String;Z)Z&#45;&gt;m::com.android.server.am.ActivityManagerService.handleAppDiedLocked:(Lcom/android/server/am/ProcessRecord;IZZZ)V -->
<g id="edge8" class="edge">
<title>m::com.android.server.am.ProcessList.removeProcessLocked:(Lcom/android/server/am/ProcessRecord;ZZIILjava/lang/String;Z)Z&#45;&gt;m::com.android.server.am.ActivityManagerService.handleAppDiedLocked:(Lcom/android/server/am/ProcessRecord;IZZZ)V</title>
<path fill="none" stroke="#64748b" d="M218.5,-738.81C218.5,-730.18 218.5,-719.56 218.5,-710.03"/>
<polygon fill="#64748b" stroke="#64748b" points="221.3,-710.03 218.5,-702.03 215.7,-710.03 221.3,-710.03"/>
</g>
<!-- m::com.android.server.am.ActivityManagerService.cleanUpApplicationRecordLocked:(Lcom/android/server/am/ProcessRecord;IZZIZZ)Z -->
<g id="node9" class="node">
<title>m::com.android.server.am.ActivityManagerService.cleanUpApplicationRecordLocked:(Lcom/android/server/am/ProcessRecord;IZZIZZ)Z</title>
<path fill="#eef2ff" stroke="#a5b4fc" d="M372.5,-629C372.5,-629 64.5,-629 64.5,-629 58.5,-629 52.5,-623 52.5,-617 52.5,-617 52.5,-605 52.5,-605 52.5,-599 58.5,-593 64.5,-593 64.5,-593 372.5,-593 372.5,-593 378.5,-593 384.5,-599 384.5,-605 384.5,-605 384.5,-617 384.5,-617 384.5,-623 378.5,-629 372.5,-629"/>
<text text-anchor="middle" x="218.5" y="-608.2" font-family="Helvetica,sans-Serif" font-size="11.00">ActivityManagerService.cleanUpApplicationRecordLocked</text>
</g>
<!-- m::com.android.server.am.ActivityManagerService.handleAppDiedLocked:(Lcom/android/server/am/ProcessRecord;IZZZ)V&#45;&gt;m::com.android.server.am.ActivityManagerService.cleanUpApplicationRecordLocked:(Lcom/android/server/am/ProcessRecord;IZZIZZ)Z -->
<g id="edge9" class="edge">
<title>m::com.android.server.am.ActivityManagerService.handleAppDiedLocked:(Lcom/android/server/am/ProcessRecord;IZZZ)V&#45;&gt;m::com.android.server.am.ActivityManagerService.cleanUpApplicationRecordLocked:(Lcom/android/server/am/ProcessRecord;IZZIZZ)Z</title>
<path fill="none" stroke="#64748b" d="M218.5,-665.81C218.5,-657.18 218.5,-646.56 218.5,-637.03"/>
<polygon fill="#64748b" stroke="#64748b" points="221.3,-637.03 218.5,-629.03 215.7,-637.03 221.3,-637.03"/>
</g>
<!-- m::com.android.server.am.ProcessList.startProcessLocked:(Lcom/android/server/am/ProcessRecord;Lcom/android/server/am/HostingRecord;I)V -->
<g id="node10" class="node">
<title>m::com.android.server.am.ProcessList.startProcessLocked:(Lcom/android/server/am/ProcessRecord;Lcom/android/server/am/HostingRecord;I)V</title>
<path fill="#eef2ff" stroke="#a5b4fc" d="M301.5,-556C301.5,-556 135.5,-556 135.5,-556 129.5,-556 123.5,-550 123.5,-544 123.5,-544 123.5,-532 123.5,-532 123.5,-526 129.5,-520 135.5,-520 135.5,-520 301.5,-520 301.5,-520 307.5,-520 313.5,-526 313.5,-532 313.5,-532 313.5,-544 313.5,-544 313.5,-550 307.5,-556 301.5,-556"/>
<text text-anchor="middle" x="218.5" y="-535.2" font-family="Helvetica,sans-Serif" font-size="11.00">ProcessList.startProcessLocked</text>
</g>
<!-- m::com.android.server.am.ActivityManagerService.cleanUpApplicationRecordLocked:(Lcom/android/server/am/ProcessRecord;IZZIZZ)Z&#45;&gt;m::com.android.server.am.ProcessList.startProcessLocked:(Lcom/android/server/am/ProcessRecord;Lcom/android/server/am/HostingRecord;I)V -->
<g id="edge10" class="edge">
<title>m::com.android.server.am.ActivityManagerService.cleanUpApplicationRecordLocked:(Lcom/android/server/am/ProcessRecord;IZZIZZ)Z&#45;&gt;m::com.android.server.am.ProcessList.startProcessLocked:(Lcom/android/server/am/ProcessRecord;Lcom/android/server/am/HostingRecord;I)V</title>
<path fill="none" stroke="#64748b" d="M218.5,-592.81C218.5,-584.18 218.5,-573.56 218.5,-564.03"/>
<polygon fill="#64748b" stroke="#64748b" points="221.3,-564.03 218.5,-556.03 215.7,-564.03 221.3,-564.03"/>
</g>
<!-- m::com.android.server.am.ProcessList.startProcessLocked:(Lcom/android/server/am/ProcessRecord;Lcom/android/server/am/HostingRecord;ILjava/lang/String;)Z -->
<g id="node11" class="node">
<title>m::com.android.server.am.ProcessList.startProcessLocked:(Lcom/android/server/am/ProcessRecord;Lcom/android/server/am/HostingRecord;ILjava/lang/String;)Z</title>
<path fill="#eef2ff" stroke="#a5b4fc" d="M301.5,-483C301.5,-483 135.5,-483 135.5,-483 129.5,-483 123.5,-477 123.5,-471 123.5,-471 123.5,-459 123.5,-459 123.5,-453 129.5,-447 135.5,-447 135.5,-447 301.5,-447 301.5,-447 307.5,-447 313.5,-453 313.5,-459 313.5,-459 313.5,-471 313.5,-471 313.5,-477 307.5,-483 301.5,-483"/>
<text text-anchor="middle" x="218.5" y="-462.2" font-family="Helvetica,sans-Serif" font-size="11.00">ProcessList.startProcessLocked</text>
</g>
<!-- m::com.android.server.am.ProcessList.startProcessLocked:(Lcom/android/server/am/ProcessRecord;Lcom/android/server/am/HostingRecord;I)V&#45;&gt;m::com.android.server.am.ProcessList.startProcessLocked:(Lcom/android/server/am/ProcessRecord;Lcom/android/server/am/HostingRecord;ILjava/lang/String;)Z -->
<g id="edge11" class="edge">
<title>m::com.android.server.am.ProcessList.startProcessLocked:(Lcom/android/server/am/ProcessRecord;Lcom/android/server/am/HostingRecord;I)V&#45;&gt;m::com.android.server.am.ProcessList.startProcessLocked:(Lcom/android/server/am/ProcessRecord;Lcom/android/server/am/HostingRecord;ILjava/lang/String;)Z</title>
<path fill="none" stroke="#64748b" d="M218.5,-519.81C218.5,-511.18 218.5,-500.56 218.5,-491.03"/>
<polygon fill="#64748b" stroke="#64748b" points="221.3,-491.03 218.5,-483.03 215.7,-491.03 221.3,-491.03"/>
</g>
<!-- m::com.android.server.am.ProcessList.startProcessLocked:(Lcom/android/server/am/ProcessRecord;Lcom/android/server/am/HostingRecord;IZZLjava/lang/String;)Z -->
<g id="node12" class="node">
<title>m::com.android.server.am.ProcessList.startProcessLocked:(Lcom/android/server/am/ProcessRecord;Lcom/android/server/am/HostingRecord;IZZLjava/lang/String;)Z</title>
<path fill="#eef2ff" stroke="#a5b4fc" d="M301.5,-410C301.5,-410 135.5,-410 135.5,-410 129.5,-410 123.5,-404 123.5,-398 123.5,-398 123.5,-386 123.5,-386 123.5,-380 129.5,-374 135.5,-374 135.5,-374 301.5,-374 301.5,-374 307.5,-374 313.5,-380 313.5,-386 313.5,-386 313.5,-398 313.5,-398 313.5,-404 307.5,-410 301.5,-410"/>
<text text-anchor="middle" x="218.5" y="-389.2" font-family="Helvetica,sans-Serif" font-size="11.00">ProcessList.startProcessLocked</text>
</g>
<!-- m::com.android.server.am.ProcessList.startProcessLocked:(Lcom/android/server/am/ProcessRecord;Lcom/android/server/am/HostingRecord;ILjava/lang/String;)Z&#45;&gt;m::com.android.server.am.ProcessList.startProcessLocked:(Lcom/android/server/am/ProcessRecord;Lcom/android/server/am/HostingRecord;IZZLjava/lang/String;)Z -->
<g id="edge12" class="edge">
<title>m::com.android.server.am.ProcessList.startProcessLocked:(Lcom/android/server/am/ProcessRecord;Lcom/android/server/am/HostingRecord;ILjava/lang/String;)Z&#45;&gt;m::com.android.server.am.ProcessList.startProcessLocked:(Lcom/android/server/am/ProcessRecord;Lcom/android/server/am/HostingRecord;IZZLjava/lang/String;)Z</title>
<path fill="none" stroke="#64748b" d="M218.5,-446.81C218.5,-438.18 218.5,-427.56 218.5,-418.03"/>
<polygon fill="#64748b" stroke="#64748b" points="221.3,-418.03 218.5,-410.03 215.7,-418.03 221.3,-418.03"/>
</g>
<!-- m::com.android.server.am.ProcessList.startProcessLocked:(Lcom/android/server/am/HostingRecord;Ljava/lang/String;Lcom/android/server/am/ProcessRecord;I[IIIILjava/lang/String;Ljava/lang/String;Ljava/lang/String;Ljava/lang/String;JJ)Z -->
<g id="node13" class="node">
<title>m::com.android.server.am.ProcessList.startProcessLocked:(Lcom/android/server/am/HostingRecord;Ljava/lang/String;Lcom/android/server/am/ProcessRecord;I[IIIILjava/lang/String;Ljava/lang/String;Ljava/lang/String;Ljava/lang/String;JJ)Z</title>
<path fill="#eef2ff" stroke="#a5b4fc" d="M301.5,-337C301.5,-337 135.5,-337 135.5,-337 129.5,-337 123.5,-331 123.5,-325 123.5,-325 123.5,-313 123.5,-313 123.5,-307 129.5,-301 135.5,-301 135.5,-301 301.5,-301 301.5,-301 307.5,-301 313.5,-307 313.5,-313 313.5,-313 313.5,-325 313.5,-325 313.5,-331 307.5,-337 301.5,-337"/>
<text text-anchor="middle" x="218.5" y="-316.2" font-family="Helvetica,sans-Serif" font-size="11.00">ProcessList.startProcessLocked</text>
</g>
<!-- m::com.android.server.am.ProcessList.startProcessLocked:(Lcom/android/server/am/ProcessRecord;Lcom/android/server/am/HostingRecord;IZZLjava/lang/String;)Z&#45;&gt;m::com.android.server.am.ProcessList.startProcessLocked:(Lcom/android/server/am/HostingRecord;Ljava/lang/String;Lcom/android/server/am/ProcessRecord;I[IIIILjava/lang/String;Ljava/lang/String;Ljava/lang/String;Ljava/lang/String;JJ)Z -->
<g id="edge13" class="edge">
<title>m::com.android.server.am.ProcessList.startProcessLocked:(Lcom/android/server/am/ProcessRecord;Lcom/android/server/am/HostingRecord;IZZLjava/lang/String;)Z&#45;&gt;m::com.android.server.am.ProcessList.startProcessLocked:(Lcom/android/server/am/HostingRecord;Ljava/lang/String;Lcom/android/server/am/ProcessRecord;I[IIIILjava/lang/String;Ljava/lang/String;Ljava/lang/String;Ljava/lang/String;JJ)Z</title>
<path fill="none" stroke="#64748b" d="M218.5,-373.81C218.5,-365.18 218.5,-354.56 218.5,-345.03"/>
<polygon fill="#64748b" stroke="#64748b" points="221.3,-345.03 218.5,-337.03 215.7,-345.03 221.3,-345.03"/>
</g>
<!-- m::com.android.server.am.ProcessList.startProcess:(Lcom/android/server/am/HostingRecord;Ljava/lang/String;Lcom/android/server/am/ProcessRecord;I[IIIILjava/lang/String;Ljava/lang/String;Ljava/lang/String;Ljava/lang/String;J)Landroid/os/Process$ProcessStartResult; -->
<g id="node14" class="node">
<title>m::com.android.server.am.ProcessList.startProcess:(Lcom/android/server/am/HostingRecord;Ljava/lang/String;Lcom/android/server/am/ProcessRecord;I[IIIILjava/lang/String;Ljava/lang/String;Ljava/lang/String;Ljava/lang/String;J)Landroid/os/Process$ProcessStartResult;</title>
<path fill="#eef2ff" stroke="#a5b4fc" d="M282.5,-264C282.5,-264 154.5,-264 154.5,-264 148.5,-264 142.5,-258 142.5,-252 142.5,-252 142.5,-240 142.5,-240 142.5,-234 148.5,-228 154.5,-228 154.5,-228 282.5,-228 282.5,-228 288.5,-228 294.5,-234 294.5,-240 294.5,-240 294.5,-252 294.5,-252 294.5,-258 288.5,-264 282.5,-264"/>
<text text-anchor="middle" x="218.5" y="-243.2" font-family="Helvetica,sans-Serif" font-size="11.00">ProcessList.startProcess</text>
</g>
<!-- m::com.android.server.am.ProcessList.startProcessLocked:(Lcom/android/server/am/HostingRecord;Ljava/lang/String;Lcom/android/server/am/ProcessRecord;I[IIIILjava/lang/String;Ljava/lang/String;Ljava/lang/String;Ljava/lang/String;JJ)Z&#45;&gt;m::com.android.server.am.ProcessList.startProcess:(Lcom/android/server/am/HostingRecord;Ljava/lang/String;Lcom/android/server/am/ProcessRecord;I[IIIILjava/lang/String;Ljava/lang/String;Ljava/lang/String;Ljava/lang/String;J)Landroid/os/Process$ProcessStartResult; -->
<g id="edge14" class="edge">
<title>m::com.android.server.am.ProcessList.startProcessLocked:(Lcom/android/server/am/HostingRecord;Ljava/lang/String;Lcom/android/server/am/ProcessRecord;I[IIIILjava/lang/String;Ljava/lang/String;Ljava/lang/String;Ljava/lang/String;JJ)Z&#45;&gt;m::com.android.server.am.ProcessList.startProcess:(Lcom/android/server/am/HostingRecord;Ljava/lang/String;Lcom/android/server/am/ProcessRecord;I[IIIILjava/lang/String;Ljava/lang/String;Ljava/lang/String;Ljava/lang/String;J)Landroid/os/Process$ProcessStartResult;</title>
<path fill="none" stroke="#64748b" d="M218.5,-300.81C218.5,-292.18 218.5,-281.56 218.5,-272.03"/>
<polygon fill="#64748b" stroke="#64748b" points="221.3,-272.03 218.5,-264.03 215.7,-272.03 221.3,-272.03"/>
</g>
<!-- m::com.android.server.StorageManagerService$StorageManagerInternalImpl.prepareStorageDirs:(ILjava/util/Set;Ljava/lang/String;)Z -->
<g id="node15" class="node">
<title>m::com.android.server.StorageManagerService$StorageManagerInternalImpl.prepareStorageDirs:(ILjava/util/Set;Ljava/lang/String;)Z</title>
<path fill="#eef2ff" stroke="#a5b4fc" d="M417.5,-191C417.5,-191 19.5,-191 19.5,-191 13.5,-191 7.5,-185 7.5,-179 7.5,-179 7.5,-167 7.5,-167 7.5,-161 13.5,-155 19.5,-155 19.5,-155 417.5,-155 417.5,-155 423.5,-155 429.5,-161 429.5,-167 429.5,-167 429.5,-179 429.5,-179 429.5,-185 423.5,-191 417.5,-191"/>
<text text-anchor="middle" x="218.5" y="-170.2" font-family="Helvetica,sans-Serif" font-size="11.00">StorageManagerService$StorageManagerInternalImpl.prepareStorageDirs</text>
</g>
<!-- m::com.android.server.am.ProcessList.startProcess:(Lcom/android/server/am/HostingRecord;Ljava/lang/String;Lcom/android/server/am/ProcessRecord;I[IIIILjava/lang/String;Ljava/lang/String;Ljava/lang/String;Ljava/lang/String;J)Landroid/os/Process$ProcessStartResult;&#45;&gt;m::com.android.server.StorageManagerService$StorageManagerInternalImpl.prepareStorageDirs:(ILjava/util/Set;Ljava/lang/String;)Z -->
<g id="edge15" class="edge">
<title>m::com.android.server.am.ProcessList.startProcess:(Lcom/android/server/am/HostingRecord;Ljava/lang/String;Lcom/android/server/am/ProcessRecord;I[IIIILjava/lang/String;Ljava/lang/String;Ljava/lang/String;Ljava/lang/String;J)Landroid/os/Process$ProcessStartResult;&#45;&gt;m::com.android.server.StorageManagerService$StorageManagerInternalImpl.prepareStorageDirs:(ILjava/util/Set;Ljava/lang/String;)Z</title>
<path fill="none" stroke="#64748b" d="M218.5,-227.81C218.5,-219.18 218.5,-208.56 218.5,-199.03"/>
<polygon fill="#64748b" stroke="#64748b" points="221.3,-199.03 218.5,-191.03 215.7,-199.03 221.3,-199.03"/>
</g>
<!-- m::android.os.IVold$Stub$Proxy.ensureAppDirsCreated:([Ljava/lang/String;I)V -->
<g id="node16" class="node">
<title>m::android.os.IVold$Stub$Proxy.ensureAppDirsCreated:([Ljava/lang/String;I)V</title>
<path fill="#eef2ff" stroke="#a5b4fc" d="M326,-118C326,-118 111,-118 111,-118 105,-118 99,-112 99,-106 99,-106 99,-94 99,-94 99,-88 105,-82 111,-82 111,-82 326,-82 326,-82 332,-82 338,-88 338,-94 338,-94 338,-106 338,-106 338,-112 332,-118 326,-118"/>
<text text-anchor="middle" x="218.5" y="-97.2" font-family="Helvetica,sans-Serif" font-size="11.00">IVold$Stub$Proxy.ensureAppDirsCreated</text>
</g>
<!-- m::com.android.server.StorageManagerService$StorageManagerInternalImpl.prepareStorageDirs:(ILjava/util/Set;Ljava/lang/String;)Z&#45;&gt;m::android.os.IVold$Stub$Proxy.ensureAppDirsCreated:([Ljava/lang/String;I)V -->
<g id="edge16" class="edge">
<title>m::com.android.server.StorageManagerService$StorageManagerInternalImpl.prepareStorageDirs:(ILjava/util/Set;Ljava/lang/String;)Z&#45;&gt;m::android.os.IVold$Stub$Proxy.ensureAppDirsCreated:([Ljava/lang/String;I)V</title>
<path fill="none" stroke="#64748b" d="M218.5,-154.81C218.5,-146.18 218.5,-135.56 218.5,-126.03"/>
<polygon fill="#64748b" stroke="#64748b" points="221.3,-126.03 218.5,-118.03 215.7,-126.03 221.3,-126.03"/>
</g>
<!-- __ipc__ -->
<g id="node17" class="node">
<title>__ipc__</title>
<path fill="#fde68a" stroke="#d97706" stroke-width="2" d="M262.5,-36C262.5,-36 174.5,-36 174.5,-36 168.5,-36 162.5,-30 162.5,-24 162.5,-24 162.5,-12 162.5,-12 162.5,-6 168.5,0 174.5,0 174.5,0 262.5,0 262.5,0 268.5,0 274.5,-6 274.5,-12 274.5,-12 274.5,-24 274.5,-24 274.5,-30 268.5,-36 262.5,-36"/>
<text text-anchor="middle" x="218.5" y="-21.2" font-family="Helvetica,sans-Serif" font-size="11.00">Binder IPC</text>
<text text-anchor="middle" x="218.5" y="-9.2" font-family="Helvetica,sans-Serif" font-size="11.00">(remote process)</text>
</g>
<!-- m::android.os.IVold$Stub$Proxy.ensureAppDirsCreated:([Ljava/lang/String;I)V&#45;&gt;__ipc__ -->
<g id="edge17" class="edge">
<title>m::android.os.IVold$Stub$Proxy.ensureAppDirsCreated:([Ljava/lang/String;I)V&#45;&gt;__ipc__</title>
<path fill="none" stroke="#d97706" stroke-width="1.6" d="M218.5,-81.64C218.5,-70.66 218.5,-56.29 218.5,-44.09"/>
<polygon fill="#d97706" stroke="#d97706" stroke-width="1.6" points="221.3,-44.05 218.5,-36.05 215.7,-44.05 221.3,-44.05"/>
<text text-anchor="middle" x="241.5" y="-56.8" font-family="Helvetica,sans-Serif" font-size="9.00" fill="#b45309"> transacts</text>
</g>
<!-- com.android.server.am.ActivityManagerService$LocalService.this$0 -->
<g id="node18" class="node">
<title>com.android.server.am.ActivityManagerService$LocalService.this$0</title>
<path fill="#fee2e2" stroke="#dc2626" stroke-width="2" d="M336.5,-1295C336.5,-1295 100.5,-1295 100.5,-1295 94.5,-1295 88.5,-1289 88.5,-1283 88.5,-1283 88.5,-1271 88.5,-1271 88.5,-1265 94.5,-1259 100.5,-1259 100.5,-1259 336.5,-1259 336.5,-1259 342.5,-1259 348.5,-1265 348.5,-1271 348.5,-1271 348.5,-1283 348.5,-1283 348.5,-1289 342.5,-1295 336.5,-1295"/>
<text text-anchor="middle" x="218.5" y="-1274.2" font-family="Helvetica,sans-Serif" font-size="11.00">ActivityManagerService$LocalService.this$0</text>
</g>
<!-- com.android.server.am.ActivityManagerService$LocalService.this$0&#45;&gt;m::com.android.server.am.ActivityManagerService$LocalService.broadcastGlobalConfigurationChanged:(IZ)V -->
<g id="edge1" class="edge">
<title>com.android.server.am.ActivityManagerService$LocalService.this$0&#45;&gt;m::com.android.server.am.ActivityManagerService$LocalService.broadcastGlobalConfigurationChanged:(IZ)V</title>
<path fill="none" stroke="#dc2626" stroke-width="1.6" d="M218.5,-1258.64C218.5,-1247.66 218.5,-1233.29 218.5,-1221.09"/>
<polygon fill="#dc2626" stroke="#dc2626" stroke-width="1.6" points="221.3,-1221.05 218.5,-1213.05 215.7,-1221.05 221.3,-1221.05"/>
<text text-anchor="middle" x="235.5" y="-1233.8" font-family="Helvetica,sans-Serif" font-size="9.00" fill="#dc2626"> held in</text>
</g>
</g>
</svg>
