<?xml version="1.0" encoding="UTF-8" standalone="no"?>
<!DOCTYPE svg PUBLIC "-//W3C//DTD SVG 1.1//EN"
 "http://www.w3.org/Graphics/SVG/1.1/DTD/svg11.dtd">
<!-- Generated by graphviz version 2.43.0 (0)
 -->
<!-- Title: binder Pages: 1 -->
<svg width="411pt" height="208pt"
 viewBox="0.00 0.00 411.00 208.00" xmlns="http://www.w3.org/2000/svg" xmlns:xlink="http://www.w3.org/1999/xlink">
<g id="graph0" class="graph" transform="scale(1 1) rotate(0) translate(4 204)">
<title>binder</title>
<polygon fill="white" stroke="transparent" points="-4,4 -4,-204 407,-204 407,4 -4,4"/>
<!-- m::com.android.server.am.ActivityManagerService.updateForceBackgroundCheck:(Z)V -->
<g id="node1" class="node">
<title>m::com.android.server.am.ActivityManagerService.updateForceBackgroundCheck:(Z)V</title>
<path fill="#eef2ff" stroke="#a5b4fc" d="M337.5,-118C337.5,-118 44.5,-118 44.5,-118 38.5,-118 32.5,-112 32.5,-106 32.5,-106 32.5,-94 32.5,-94 32.5,-88 38.5,-82 44.5,-82 44.5,-82 337.5,-82 337.5,-82 343.5,-82 349.5,-88 349.5,-94 349.5,-94 349.5,-106 349.5,-106 349.5,-112 343.5,-118 337.5,-118"/>
<text text-anchor="middle" x="191" y="-97.2" font-family="Helvetica,sans-Serif" font-size="11.00">ActivityManagerService.updateForceBackgroundCheck</text>
</g>
<!-- __ipc__ -->
<g id="node2" class="node">
<title>__ipc__</title>
<path fill="#fde68a" stroke="#d97706" stroke-width="2" d="M235,-36C235,-36 147,-36 147,-36 141,-36 135,-30 135,-24 135,-24 135,-12 135,-12 135,-6 141,0 147,0 147,0 235,0 235,0 241,0 247,-6 247,-12 247,-12 247,-24 247,-24 247,-30 241,-36 235,-36"/>
<text text-anchor="middle" x="191" y="-21.2" font-family="Helvetica,sans-Serif" font-size="11.00">Binder IPC</text>
<text text-anchor="middle" x="191" y="-9.2" font-family="Helvetica,sans-Serif" font-size="11.00">(remote process)</text>
</g>
<!-- m::com.android.server.am.ActivityManagerService.updateForceBackgroundCheck:(Z)V&#45;&gt;__ipc__ -->
<g id="edge3" class="edge">
<title>m::com.android.server.am.ActivityManagerService.updateForceBackgroundCheck:(Z)V&#45;&gt;__ipc__</title>
<path fill="none" stroke="#d97706" stroke-width="1.6" d="M191,-81.64C191,-70.66 191,-56.29 191,-44.09"/>
<polygon fill="#d97706" stroke="#d97706" stroke-width="1.6" points="193.8,-44.05 191,-36.05 188.2,-44.05 193.8,-44.05"/>
<text text-anchor="middle" x="214" y="-56.8" font-family="Helvetica,sans-Serif" font-size="9.00" fill="#b45309"> transacts</text>
</g>
<!-- com.android.server.am.ActivityManagerService -->
<g id="node3" class="node">
<title>com.android.server.am.ActivityManagerService</title>
<path fill="#fee2e2" stroke="#dc2626" stroke-width="2" d="M156,-200C156,-200 12,-200 12,-200 6,-200 0,-194 0,-188 0,-188 0,-176 0,-176 0,-170 6,-164 12,-164 12,-164 156,-164 156,-164 162,-164 168,-170 168,-176 168,-176 168,-188 168,-188 168,-194 162,-200 156,-200"/>
<text text-anchor="middle" x="84" y="-179.2" font-family="Helvetica,sans-Serif" font-size="11.00">am.ActivityManagerService</text>
</g>
<!-- com.android.server.am.ActivityManagerService&#45;&gt;m::com.android.server.am.ActivityManagerService.updateForceBackgroundCheck:(Z)V -->
<g id="edge1" class="edge">
<title>com.android.server.am.ActivityManagerService&#45;&gt;m::com.android.server.am.ActivityManagerService.updateForceBackgroundCheck:(Z)V</title>
<path fill="none" stroke="#dc2626" stroke-width="1.6" d="M106.95,-163.84C122.89,-151.92 144.27,-135.94 161.47,-123.07"/>
<polygon fill="#dc2626" stroke="#dc2626" stroke-width="1.6" points="163.35,-125.17 168.08,-118.13 160,-120.68 163.35,-125.17"/>
<text text-anchor="middle" x="161" y="-138.8" font-family="Helvetica,sans-Serif" font-size="9.00" fill="#dc2626"> held in</text>
</g>
<!-- com.android.server.am.ActivityManagerService.mProcLock -->
<g id="node4" class="node">
<title>com.android.server.am.ActivityManagerService.mProcLock</title>
<path fill="#fee2e2" stroke="#dc2626" stroke-width="2" d="M391,-200C391,-200 205,-200 205,-200 199,-200 193,-194 193,-188 193,-188 193,-176 193,-176 193,-170 199,-164 205,-164 205,-164 391,-164 391,-164 397,-164 403,-170 403,-176 403,-176 403,-188 403,-188 403,-194 397,-200 391,-200"/>
<text text-anchor="middle" x="298" y="-179.2" font-family="Helvetica,sans-Serif" font-size="11.00">ActivityManagerService.mProcLock</text>
</g>
<!-- com.android.server.am.ActivityManagerService.mProcLock&#45;&gt;m::com.android.server.am.ActivityManagerService.updateForceBackgroundCheck:(Z)V -->
<g id="edge2" class="edge">
<title>com.android.server.am.ActivityManagerService.mProcLock&#45;&gt;m::com.android.server.am.ActivityManagerService.updateForceBackgroundCheck:(Z)V</title>
<path fill="none" stroke="#dc2626" stroke-width="1.6" d="M275.05,-163.84C259.11,-151.92 237.73,-135.94 220.53,-123.07"/>
<polygon fill="#dc2626" stroke="#dc2626" stroke-width="1.6" points="222,-120.68 213.92,-118.13 218.65,-125.17 222,-120.68"/>
<text text-anchor="middle" x="267" y="-138.8" font-family="Helvetica,sans-Serif" font-size="9.00" fill="#dc2626"> held in</text>
</g>
</g>
</svg>
