<?xml version="1.0" encoding="UTF-8" standalone="no"?>
<!DOCTYPE svg PUBLIC "-//W3C//DTD SVG 1.1//EN"
 "http://www.w3.org/Graphics/SVG/1.1/DTD/svg11.dtd">
<!-- Generated by graphviz version 2.43.0 (0)
 -->
<!-- Title: binder Pages: 1 -->
<svg width="430pt" height="865pt"
 viewBox="0.00 0.00 430.00 865.00" xmlns="http://www.w3.org/2000/svg" xmlns:xlink="http://www.w3.org/1999/xlink">
<g id="graph0" class="graph" transform="scale(1 1) rotate(0) translate(4 861)">
<title>binder</title>
<polygon fill="white" stroke="transparent" points="-4,4 -4,-861 426,-861 426,4 -4,4"/>
<!-- m::com.android.server.am.ActivityManagerService.startPersistentApps:(I)V -->
<g id="node1" class="node">
<title>m::com.android.server.am.ActivityManagerService.startPersistentApps:(I)V</title>
<path fill="#eef2ff" stroke="#a5b4fc" d="M328.5,-775C328.5,-775 93.5,-775 93.5,-775 87.5,-775 81.5,-769 81.5,-763 81.5,-763 81.5,-751 81.5,-751 81.5,-745 87.5,-739 93.5,-739 93.5,-739 328.5,-739 328.5,-739 334.5,-739 340.5,-745 340.5,-751 340.5,-751 340.5,-763 340.5,-763 340.5,-769 334.5,-775 328.5,-775"/>
<text text-anchor="middle" x="211" y="-754.2" font-family="Helvetica,sans-Serif" font-size="11.00">ActivityManagerService.startPersistentApps</text>
</g>
<!-- m::com.android.server.am.ActivityManagerService.addAppLocked:(Landroid/content/pm/ApplicationInfo;Ljava/lang/String;ZLjava/lang/String;I)Lcom/android/server/am/ProcessRecord; -->
<g id="node2" class="node">
<title>m::com.android.server.am.ActivityManagerService.addAppLocked:(Landroid/content/pm/ApplicationInfo;Ljava/lang/String;ZLjava/lang/String;I)Lcom/android/server/am/ProcessRecord;</title>
<path fill="#eef2ff" stroke="#a5b4fc" d="M314,-702C314,-702 108,-702 108,-702 102,-702 96,-696 96,-690 96,-690 96,-678 96,-678 96,-672 102,-666 108,-666 108,-666 314,-666 314,-666 320,-666 326,-672 326,-678 326,-678 326,-690 326,-690 326,-696 320,-702 314,-702"/>
<text text-anchor="middle" x="211" y="-681.2" font-family="Helvetica,sans-Serif" font-size="11.00">ActivityManagerService.addAppLocked</text>
</g>
<!-- m::com.android.server.am.ActivityManagerService.startPersistentApps:(I)V&#45;&gt;m::com.android.server.am.ActivityManagerService.addAppLocked:(Landroid/content/pm/ApplicationInfo;Ljava/lang/String;ZLjava/lang/String;I)Lcom/android/server/am/ProcessRecord; -->
<g id="edge2" class="edge">
<title>m::com.android.server.am.ActivityManagerService.startPersistentApps:(I)V&#45;&gt;m::com.android.server.am.ActivityManagerService.addAppLocked:(Landroid/content/pm/ApplicationInfo;Ljava/lang/String;ZLjava/lang/String;I)Lcom/android/server/am/ProcessRecord;</title>
<path fill="none" stroke="#64748b" d="M211,-738.81C211,-730.18 211,-719.56 211,-710.03"/>
<polygon fill="#64748b" stroke="#64748b" points="213.8,-710.03 211,-702.03 208.2,-710.03 213.8,-710.03"/>
</g>
<!-- m::com.android.server.am.ActivityManagerService.addAppLocked:(Landroid/content/pm/ApplicationInfo;Ljava/lang/String;ZZLjava/lang/String;I)Lcom/android/server/am/ProcessRecord; -->
<g id="node3" class="node">
<title>m::com.android.server.am.ActivityManagerService.addAppLocked:(Landroid/content/pm/ApplicationInfo;Ljava/lang/String;ZZLjava/lang/String;I)Lcom/android/server/am/ProcessRecord;</title>
<path fill="#eef2ff" stroke="#a5b4fc" d="M314,-629C314,-629 108,-629 108,-629 102,-629 96,-623 96,-617 96,-617 96,-605 96,-605 96,-599 102,-593 108,-593 108,-593 314,-593 314,-593 320,-593 326,-599 326,-605 326,-605 326,-617 326,-617 326,-623 320,-629 314,-629"/>
<text text-anchor="middle" x="211" y="-608.2" font-family="Helvetica,sans-Serif" font-size="11.00">ActivityManagerService.addAppLocked</text>
</g>
<!-- m::com.android.server.am.ActivityManagerService.addAppLocked:(Landroid/content/pm/ApplicationInfo;Ljava/lang/String;ZLjava/lang/String;I)Lcom/android/server/am/ProcessRecord;&#45;&gt;m::com.android.server.am.ActivityManagerService.addAppLocked:(Landroid/content/pm/ApplicationInfo;Ljava/lang/String;ZZLjava/lang/String;I)Lcom/android/server/am/ProcessRecord; -->
<g id="edge3" class="edge">
<title>m::com.android.server.am.ActivityManagerService.addAppLocked:(Landroid/content/pm/ApplicationInfo;Ljava/lang/String;ZLjava/lang/String;I)Lcom/android/server/am/ProcessRecord;&#45;&gt;m::com.android.server.am.ActivityManagerService.addAppLocked:(Landroid/content/pm/ApplicationInfo;Ljava/lang/String;ZZLjava/lang/String;I)Lcom/android/server/am/ProcessRecord;</title>
<path fill="none" stroke="#64748b" d="M211,-665.81C211,-657.18 211,-646.56 211,-637.03"/>
<polygon fill="#64748b" stroke="#64748b" points="213.8,-637.03 211,-629.03 208.2,-637.03 213.8,-637.03"/>
</g>
<!-- m::com.android.server.am.ActivityManagerService.addAppLocked:(Landroid/content/pm/ApplicationInfo;Ljava/lang/String;ZZZLjava/lang/String;I)Lcom/android/server/am/ProcessRecord; -->
<g id="node4" class="node">
<title>m::com.android.server.am.ActivityManagerService.addAppLocked:(Landroid/content/pm/ApplicationInfo;Ljava/lang/String;ZZZLjava/lang/String;I)Lcom/android/server/am/ProcessRecord;</title>
<path fill="#eef2ff" stroke="#a5b4fc" d="M314,-556C314,-556 108,-556 108,-556 102,-556 96,-550 96,-544 96,-544 96,-532 96,-532 96,-526 102,-520 108,-520 108,-520 314,-520 314,-520 320,-520 326,-526 326,-532 326,-532 326,-544 326,-544 326,-550 320,-556 314,-556"/>
<text text-anchor="middle" x="211" y="-535.2" font-family="Helvetica,sans-Serif" font-size="11.00">ActivityManagerService.addAppLocked</text>
</g>
<!-- m::com.android.server.am.ActivityManagerService.addAppLocked:(Landroid/content/pm/ApplicationInfo;Ljava/lang/String;ZZLjava/lang/String;I)Lcom/android/server/am/ProcessRecord;&#45;&gt;m::com.android.server.am.ActivityManagerService.addAppLocked:(Landroid/content/pm/ApplicationInfo;Ljava/lang/String;ZZZLjava/lang/String;I)Lcom/android/server/am/ProcessRecord; -->
<g id="edge4" class="edge">
<title>m::com.android.server.am.ActivityManagerService.addAppLocked:(Landroid/content/pm/ApplicationInfo;Ljava/lang/String;ZZLjava/lang/String;I)Lcom/android/server/am/ProcessRecord;&#45;&gt;m::com.android.server.am.ActivityManagerService.addAppLocked:(Landroid/content/pm/ApplicationInfo;Ljava/lang/String;ZZZLjava/lang/String;I)Lcom/android/server/am/ProcessRecord;</title>
<path fill="none" stroke="#64748b" d="M211,-592.81C211,-584.18 211,-573.56 211,-564.03"/>
<polygon fill="#64748b" stroke="#64748b" points="213.8,-564.03 211,-556.03 208.2,-564.03 213.8,-564.03"/>
</g>
<!-- m::com.android.server.am.ActivityManagerService.addAppLocked:(Landroid/content/pm/ApplicationInfo;Ljava/lang/String;ZZILjava/lang/String;ZZLjava/lang/String;I)Lcom/android/server/am/ProcessRecord; -->
<g id="node5" class="node">
<title>m::com.android.server.am.ActivityManagerService.addAppLocked:(Landroid/content/pm/ApplicationInfo;Ljava/lang/String;ZZILjava/lang/String;ZZLjava/lang/String;I)Lcom/android/server/am/ProcessRecord;</title>
<path fill="#eef2ff" stroke="#a5b4fc" d="M314,-483C314,-483 108,-483 108,-483 102,-483 96,-477 96,-471 96,-471 96,-459 96,-459 96,-453 102,-447 108,-447 108,-447 314,-447 314,-447 320,-447 326,-453 326,-459 326,-459 326,-471 326,-471 326,-477 320,-483 314,-483"/>
<text text-anchor="middle" x="211" y="-462.2" font-family="Helvetica,sans-Serif" font-size="11.00">ActivityManagerService.addAppLocked</text>
</g>
<!-- m::com.android.server.am.ActivityManagerService.addAppLocked:(Landroid/content/pm/ApplicationInfo;Ljava/lang/String;ZZZLjava/lang/String;I)Lcom/android/server/am/ProcessRecord;&#45;&gt;m::com.android.server.am.ActivityManagerService.addAppLocked:(Landroid/content/pm/ApplicationInfo;Ljava/lang/String;ZZILjava/lang/String;ZZLjava/lang/String;I)Lcom/android/server/am/ProcessRecord; -->
<g id="edge5" class="edge">
<title>m::com.android.server.am.ActivityManagerService.addAppLocked:(Landroid/content/pm/ApplicationInfo;Ljava/lang/String;ZZZLjava/lang/String;I)Lcom/android/server/am/ProcessRecord;&#45;&gt;m::com.android.server.am.ActivityManagerService.addAppLocked:(Landroid/content/pm/ApplicationInfo;Ljava/lang/String;ZZILjava/lang/String;ZZLjava/lang/String;I)Lcom/android/server/am/ProcessRecord;</title>
<path fill="none" stroke="#64748b" d="M211,-519.81C211,-511.18 211,-500.56 211,-491.03"/>
<polygon fill="#64748b" stroke="#64748b" points="213.8,-491.03 211,-483.03 208.2,-491.03 213.8,-491.03"/>
</g>
<!-- m::com.android.server.am.ProcessList.startProcessLocked:(Lcom/android/server/am/ProcessRecord;Lcom/android/server/am/HostingRecord;IZZLjava/lang/String;)Z -->
<g id="node6" class="node">
<title>m::com.android.server.am.ProcessList.startProcessLocked:(Lcom/android/server/am/ProcessRecord;Lcom/android/server/am/HostingRecord;IZZLjava/lang/String;)Z</title>
<path fill="#eef2ff" stroke="#a5b4fc" d="M294,-410C294,-410 128,-410 128,-410 122,-410 116,-404 116,-398 116,-398 116,-386 116,-386 116,-380 122,-374 128,-374 128,-374 294,-374 294,-374 300,-374 306,-380 306,-386 306,-386 306,-398 306,-398 306,-404 300,-410 294,-410"/>
<text text-anchor="middle" x="211" y="-389.2" font-family="Helvetica,sans-Serif" font-size="11.00">ProcessList.startProcessLocked</text>
</g>
<!-- m::com.android.server.am.ActivityManagerService.addAppLocked:(Landroid/content/pm/ApplicationInfo;Ljava/lang/String;ZZILjava/lang/String;ZZLjava/lang/String;I)Lcom/android/server/am/ProcessRecord;&#45;&gt;m::com.android.server.am.ProcessList.startProcessLocked:(Lcom/android/server/am/ProcessRecord;Lcom/android/server/am/HostingRecord;IZZLjava/lang/String;)Z -->
<g id="edge6" class="edge">
<title>m::com.android.server.am.ActivityManagerService.addAppLocked:(Landroid/content/pm/ApplicationInfo;Ljava/lang/String;ZZILjava/lang/String;ZZLjava/lang/String;I)Lcom/android/server/am/ProcessRecord;&#45;&gt;m::com.android.server.am.ProcessList.startProcessLocked:(Lcom/android/server/am/ProcessRecord;Lcom/android/server/am/HostingRecord;IZZLjava/lang/String;)Z</title>
<path fill="none" stroke="#64748b" d="M211,-446.81C211,-438.18 211,-427.56 211,-418.03"/>
<polygon fill="#64748b" stroke="#64748b" points="213.8,-418.03 211,-410.03 208.2,-418.03 213.8,-418.03"/>
</g>
<!-- m::com.android.server.am.ProcessList.startProcessLocked:(Lcom/android/server/am/HostingRecord;Ljava/lang/String;Lcom/android/server/am/ProcessRecord;I[IIIILjava/lang/String;Ljava/lang/String;Ljava/lang/String;Ljava/lang/String;JJ)Z -->
<g id="node7" class="node">
<title>m::com.android.server.am.ProcessList.startProcessLocked:(Lcom/android/server/am/HostingRecord;Ljava/lang/String;Lcom/android/server/am/ProcessRecord;I[IIIILjava/lang/String;Ljava/lang/String;Ljava/lang/String;Ljava/lang/String;JJ)Z</title>
<path fill="#eef2ff" stroke="#a5b4fc" d="M294,-337C294,-337 128,-337 128,-337 122,-337 116,-331 116,-325 116,-325 116,-313 116,-313 116,-307 122,-301 128,-301 128,-301 294,-301 294,-301 300,-301 306,-307 306,-313 306,-313 306,-325 306,-325 306,-331 300,-337 294,-337"/>
<text text-anchor="middle" x="211" y="-316.2" font-family="Helvetica,sans-Serif" font-size="11.00">ProcessList.startProcessLocked</text>
</g>
<!-- m::com.android.server.am.ProcessList.startProcessLocked:(Lcom/android/server/am/ProcessRecord;Lcom/android/server/am/HostingRecord;IZZLjava/lang/String;)Z&#45;&gt;m::com.android.server.am.ProcessList.startProcessLocked:(Lcom/android/server/am/HostingRecord;Ljava/lang/String;Lcom/android/server/am/ProcessRecord;I[IIIILjava/lang/String;Ljava/lang/String;Ljava/lang/String;Ljava/lang/String;JJ)Z -->
<g id="edge7" class="edge">
<title>m::com.android.server.am.ProcessList.startProcessLocked:(Lcom/android/server/am/ProcessRecord;Lcom/android/server/am/HostingRecord;IZZLjava/lang/String;)Z&#45;&gt;m::com.android.server.am.ProcessList.startProcessLocked:(Lcom/android/server/am/HostingRecord;Ljava/lang/String;Lcom/android/server/am/ProcessRecord;I[IIIILjava/lang/String;Ljava/lang/String;Ljava/lang/String;Ljava/lang/String;JJ)Z</title>
<path fill="none" stroke="#64748b" d="M211,-373.81C211,-365.18 211,-354.56 211,-345.03"/>
<polygon fill="#64748b" stroke="#64748b" points="213.8,-345.03 211,-337.03 208.2,-345.03 213.8,-345.03"/>
</g>
<!-- m::com.android.server.am.ProcessList.startProcess:(Lcom/android/server/am/HostingRecord;Ljava/lang/String;Lcom/android/server/am/ProcessRecord;I[IIIILjava/lang/String;Ljava/lang/String;Ljava/lang/String;Ljava/lang/String;J)Landroid/os/Process$ProcessStartResult; -->
<g id="node8" class="node">
<title>m::com.android.server.am.ProcessList.startProcess:(Lcom/android/server/am/HostingRecord;Ljava/lang/String;Lcom/android/server/am/ProcessRecord;I[IIIILjava/lang/String;Ljava/lang/String;Ljava/lang/String;Ljava/lang/String;J)Landroid/os/Process$ProcessStartResult;</title>
<path fill="#eef2ff" stroke="#a5b4fc" d="M275,-264C275,-264 147,-264 147,-264 141,-264 135,-258 135,-252 135,-252 135,-240 135,-240 135,-234 141,-228 147,-228 147,-228 275,-228 275,-228 281,-228 287,-234 287,-240 287,-240 287,-252 287,-252 287,-258 281,-264 275,-264"/>
<text text-anchor="middle" x="211" y="-243.2" font-family="Helvetica,sans-Serif" font-size="11.00">ProcessList.startProcess</text>
</g>
<!-- m::com.android.server.am.ProcessList.startProcessLocked:(Lcom/android/server/am/HostingRecord;Ljava/lang/String;Lcom/android/server/am/ProcessRecord;I[IIIILjava/lang/String;Ljava/lang/String;Ljava/lang/String;Ljava/lang/String;JJ)Z&#45;&gt;m::com.android.server.am.ProcessList.startProcess:(Lcom/android/server/am/HostingRecord;Ljava/lang/String;Lcom/android/server/am/ProcessRecord;I[IIIILjava/lang/String;Ljava/lang/String;Ljava/lang/String;Ljava/lang/String;J)Landroid/os/Process$ProcessStartResult; -->
<g id="edge8" class="edge">
<title>m::com.android.server.am.ProcessList.startProcessLocked:(Lcom/android/server/am/HostingRecord;Ljava/lang/String;Lcom/android/server/am/ProcessRecord;I[IIIILjava/lang/String;Ljava/lang/String;Ljava/lang/String;Ljava/lang/String;JJ)Z&#45;&gt;m::com.android.server.am.ProcessList.startProcess:(Lcom/android/server/am/HostingRecord;Ljava/lang/String;Lcom/android/server/am/ProcessRecord;I[IIIILjava/lang/String;Ljava/lang/String;Ljava/lang/String;Ljava/lang/String;J)Landroid/os/Process$ProcessStartResult;</title>
<path fill="none" stroke="#64748b" d="M211,-300.81C211,-292.18 211,-281.56 211,-272.03"/>
<polygon fill="#64748b" stroke="#64748b" points="213.8,-272.03 211,-264.03 208.2,-272.03 213.8,-272.03"/>
</g>
<!-- m::com.android.server.StorageManagerService$StorageManagerInternalImpl.prepareStorageDirs:(ILjava/util/Set;Ljava/lang/String;)Z -->
<g id="node9" class="node">
<title>m::com.android.server.StorageManagerService$StorageManagerInternalImpl.prepareStorageDirs:(ILjava/util/Set;Ljava/lang/String;)Z</title>
<path fill="#eef2ff" stroke="#a5b4fc" d="M410,-191C410,-191 12,-191 12,-191 6,-191 0,-185 0,-179 0,-179 0,-167 0,-167 0,-161 6,-155 12,-155 12,-155 410,-155 410,-155 416,-155 422,-161 422,-167 422,-167 422,-179 422,-179 422,-185 416,-191 410,-191"/>
<text text-anchor="middle" x="211" y="-170.2" font-family="Helvetica,sans-Serif" font-size="11.00">StorageManagerService$StorageManagerInternalImpl.prepareStorageDirs</text>
</g>
<!-- m::com.android.server.am.ProcessList.startProcess:(Lcom/android/server/am/HostingRecord;Ljava/lang/String;Lcom/android/server/am/ProcessRecord;I[IIIILjava/lang/String;Ljava/lang/String;Ljava/lang/String;Ljava/lang/String;J)Landroid/os/Process$ProcessStartResult;&#45;&gt;m::com.android.server.StorageManagerService$StorageManagerInternalImpl.prepareStorageDirs:(ILjava/util/Set;Ljava/lang/String;)Z -->
<g id="edge9" class="edge">
<title>m::com.android.server.am.ProcessList.startProcess:(Lcom/android/server/am/HostingRecord;Ljava/lang/String;Lcom/android/server/am/ProcessRecord;I[IIIILjava/lang/String;Ljava/lang/String;Ljava/lang/String;Ljava/lang/String;J)Landroid/os/Process$ProcessStartResult;&#45;&gt;m::com.android.server.StorageManagerService$StorageManagerInternalImpl.prepareStorageDirs:(ILjava/util/Set;Ljava/lang/String;)Z</title>
<path fill="none" stroke="#64748b" d="M211,-227.81C211,-219.18 211,-208.56 211,-199.03"/>
<polygon fill="#64748b" stroke="#64748b" points="213.8,-199.03 211,-191.03 208.2,-199.03 213.8,-199.03"/>
</g>
<!-- m::android.os.IVold$Stub$Proxy.ensureAppDirsCreated:([Ljava/lang/String;I)V -->
<g id="node10" class="node">
<title>m::android.os.IVold$Stub$Proxy.ensureAppDirsCreated:([Ljava/lang/String;I)V</title>
<path fill="#eef2ff" stroke="#a5b4fc" d="M318.5,-118C318.5,-118 103.5,-118 103.5,-118 97.5,-118 91.5,-112 91.5,-106 91.5,-106 91.5,-94 91.5,-94 91.5,-88 97.5,-82 103.5,-82 103.5,-82 318.5,-82 318.5,-82 324.5,-82 330.5,-88 330.5,-94 330.5,-94 330.5,-106 330.5,-106 330.5,-112 324.5,-118 318.5,-118"/>
<text text-anchor="middle" x="211" y="-97.2" font-family="Helvetica,sans-Serif" font-size="11.00">IVold$Stub$Proxy.ensureAppDirsCreated</text>
</g>
<!-- m::com.android.server.StorageManagerService$StorageManagerInternalImpl.prepareStorageDirs:(ILjava/util/Set;Ljava/lang/String;)Z&#45;&gt;m::android.os.IVold$Stub$Proxy.ensureAppDirsCreated:([Ljava/lang/String;I)V -->
<g id="edge10" class="edge">
<title>m::com.android.server.StorageManagerService$StorageManagerInternalImpl.prepareStorageDirs:(ILjava/util/Set;Ljava/lang/String;)Z&#45;&gt;m::android.os.IVold$Stub$Proxy.ensureAppDirsCreated:([Ljava/lang/String;I)V</title>
<path fill="none" stroke="#64748b" d="M211,-154.81C211,-146.18 211,-135.56 211,-126.03"/>
<polygon fill="#64748b" stroke="#64748b" points="213.8,-126.03 211,-118.03 208.2,-126.03 213.8,-126.03"/>
</g>
<!-- __ipc__ -->
<g id="node11" class="node">
<title>__ipc__</title>
<path fill="#fde68a" stroke="#d97706" stroke-width="2" d="M255,-36C255,-36 167,-36 167,-36 161,-36 155,-30 155,-24 155,-24 155,-12 155,-12 155,-6 161,0 167,0 167,0 255,0 255,0 261,0 267,-6 267,-12 267,-12 267,-24 267,-24 267,-30 261,-36 255,-36"/>
<text text-anchor="middle" x="211" y="-21.2" font-family="Helvetica,sans-Serif" font-size="11.00">Binder IPC</text>
<text text-anchor="middle" x="211" y="-9.2" font-family="Helvetica,sans-Serif" font-size="11.00">(remote process)</text>
</g>
<!-- m::android.os.IVold$Stub$Proxy.ensureAppDirsCreated:([Ljava/lang/String;I)V&#45;&gt;__ipc__ -->
<g id="edge11" class="edge">
<title>m::android.os.IVold$Stub$Proxy.ensureAppDirsCreated:([Ljava/lang/String;I)V&#45;&gt;__ipc__</title>
<path fill="none" stroke="#d97706" stroke-width="1.6" d="M211,-81.64C211,-70.66 211,-56.29 211,-44.09"/>
<polygon fill="#d97706" stroke="#d97706" stroke-width="1.6" points="213.8,-44.05 211,-36.05 208.2,-44.05 213.8,-44.05"/>
<text text-anchor="middle" x="234" y="-56.8" font-family="Helvetica,sans-Serif" font-size="9.00" fill="#b45309"> transacts</text>
</g>
<!-- com.android.server.am.ActivityManagerService -->
<g id="node12" class="node">
<title>com.android.server.am.ActivityManagerService</title>
<path fill="#fee2e2" stroke="#dc2626" stroke-width="2" d="M283,-857C283,-857 139,-857 139,-857 133,-857 127,-851 127,-845 127,-845 127,-833 127,-833 127,-827 133,-821 139,-821 139,-821 283,-821 283,-821 289,-821 295,-827 295,-833 295,-833 295,-845 295,-845 295,-851 289,-857 283,-857"/>
<text text-anchor="middle" x="211" y="-836.2" font-family="Helvetica,sans-Serif" font-size="11.00">am.ActivityManagerService</text>
</g>
<!-- com.android.server.am.ActivityManagerService&#45;&gt;m::com.android.server.am.ActivityManagerService.startPersistentApps:(I)V -->
<g id="edge1" class="edge">
<title>com.android.server.am.ActivityManagerService&#45;&gt;m::com.android.server.am.ActivityManagerService.startPersistentApps:(I)V</title>
<path fill="none" stroke="#dc2626" stroke-width="1.6" d="M211,-820.64C211,-809.66 211,-795.29 211,-783.09"/>
<polygon fill="#dc2626" stroke="#dc2626" stroke-width="1.6" points="213.8,-783.05 211,-775.05 208.2,-783.05 213.8,-783.05"/>
<text text-anchor="middle" x="228" y="-795.8" font-family="Helvetica,sans-Serif" font-size="9.00" fill="#dc2626"> held in</text>
</g>
</g>
</svg>
