<?xml version="1.0" encoding="UTF-8" standalone="no"?>
<!DOCTYPE svg PUBLIC "-//W3C//DTD SVG 1.1//EN"
 "http://www.w3.org/Graphics/SVG/1.1/DTD/svg11.dtd">
<!-- Generated by graphviz version 2.43.0 (0)
 -->
<!-- Title: binder Pages: 1 -->
<svg width="306pt" height="208pt"
 viewBox="0.00 0.00 306.00 208.00" xmlns="http://www.w3.org/2000/svg" xmlns:xlink="http://www.w3.org/1999/xlink">
<g id="graph0" class="graph" transform="scale(1 1) rotate(0) translate(4 204)">
<title>binder</title>
<polygon fill="white" stroke="transparent" points="-4,4 -4,-204 302,-204 302,4 -4,4"/>
<!-- m::com.android.server.am.CachedAppOptimizer$FreezeHandler.freezeProcess:(Lcom/android/server/am/ProcessRecord;)V -->
<g id="node1" class="node">
<title>m::com.android.server.am.CachedAppOptimizer$FreezeHandler.freezeProcess:(Lcom/android/server/am/ProcessRecord;)V</title>
<path fill="#eef2ff" stroke="#a5b4fc" d="M286,-118C286,-118 12,-118 12,-118 6,-118 0,-112 0,-106 0,-106 0,-94 0,-94 0,-88 6,-82 12,-82 12,-82 286,-82 286,-82 292,-82 298,-88 298,-94 298,-94 298,-106 298,-106 298,-112 292,-118 286,-118"/>
<text text-anchor="middle" x="149" y="-97.2" font-family="Helvetica,sans-Serif" font-size="11.00">CachedAppOptimizer$FreezeHandler.freezeProcess</text>
</g>
<!-- __ipc__ -->
<g id="node2" class="node">
<title>__ipc__</title>
<path fill="#fde68a" stroke="#d97706" stroke-width="2" d="M193,-36C193,-36 105,-36 105,-36 99,-36 93,-30 93,-24 93,-24 93,-12 93,-12 93,-6 99,0 105,0 105,0 193,0 193,0 199,0 205,-6 205,-12 205,-12 205,-24 205,-24 205,-30 199,-36 193,-36"/>
<text text-anchor="middle" x="149" y="-21.2" font-family="Helvetica,sans-Serif" font-size="11.00">Binder IPC</text>
<text text-anchor="middle" x="149" y="-9.2" font-family="Helvetica,sans-Serif" font-size="11.00">(remote process)</text>
</g>
<!-- m::com.android.server.am.CachedAppOptimizer$FreezeHandler.freezeProcess:(Lcom/android/server/am/ProcessRecord;)V&#45;&gt;__ipc__ -->
<g id="edge2" class="edge">
<title>m::com.android.server.am.CachedAppOptimizer$FreezeHandler.freezeProcess:(Lcom/android/server/am/ProcessRecord;)V&#45;&gt;__ipc__</title>
<path fill="none" stroke="#d97706" stroke-width="1.6" d="M149,-81.64C149,-70.66 149,-56.29 149,-44.09"/>
<polygon fill="#d97706" stroke="#d97706" stroke-width="1.6" points="151.8,-44.05 149,-36.05 146.2,-44.05 151.8,-44.05"/>
<text text-anchor="middle" x="172" y="-56.8" font-family="Helvetica,sans-Serif" font-size="9.00" fill="#b45309"> transacts</text>
</g>
<!-- com.android.server.am.ActivityManagerService.mProcLock -->
<g id="node3" class="node">
<title>com.android.server.am.ActivityManagerService.mProcLock</title>
<path fill="#fee2e2" stroke="#dc2626" stroke-width="2" d="M242,-200C242,-200 56,-200 56,-200 50,-200 44,-194 44,-188 44,-188 44,-176 44,-176 44,-170 50,-164 56,-164 56,-164 242,-164 242,-164 248,-164 254,-170 254,-176 254,-176 254,-188 254,-188 254,-194 248,-200 242,-200"/>
<text text-anchor="middle" x="149" y="-179.2" font-family="Helvetica,sans-Serif" font-size="11.00">ActivityManagerService.mProcLock</text>
</g>
<!-- com.android.server.am.ActivityManagerService.mProcLock&#45;&gt;m::com.android.server.am.CachedAppOptimizer$FreezeHandler.freezeProcess:(Lcom/android/server/am/ProcessRecord;)V -->
<g id="edge1" class="edge">
<title>com.android.server.am.ActivityManagerService.mProcLock&#45;&gt;m::com.android.server.am.CachedAppOptimizer$FreezeHandler.freezeProcess:(Lcom/android/server/am/ProcessRecord;)V</title>
<path fill="none" stroke="#dc2626" stroke-width="1.6" d="M149,-163.64C149,-152.66 149,-138.29 149,-126.09"/>
<polygon fill="#dc2626" stroke="#dc2626" stroke-width="1.6" points="151.8,-126.05 149,-118.05 146.2,-126.05 151.8,-126.05"/>
<text text-anchor="middle" x="166" y="-138.8" font-family="Helvetica,sans-Serif" font-size="9.00" fill="#dc2626"> held in</text>
</g>
</g>
</svg>
