<?xml version="1.0" encoding="UTF-8" standalone="no"?>
<!DOCTYPE svg PUBLIC "-//W3C//DTD SVG 1.1//EN"
 "http://www.w3.org/Graphics/SVG/1.1/DTD/svg11.dtd">
<!-- Generated by graphviz version 2.43.0 (0)
 -->
<!-- Title: binder Pages: 1 -->
<svg width="273pt" height="208pt"
 viewBox="0.00 0.00 273.00 208.00" xmlns="http://www.w3.org/2000/svg" xmlns:xlink="http://www.w3.org/1999/xlink">
<g id="graph0" class="graph" transform="scale(1 1) rotate(0) translate(4 204)">
<title>binder</title>
<polygon fill="white" stroke="transparent" points="-4,4 -4,-204 269,-204 269,4 -4,4"/>
<!-- m::com.android.server.am.ActivityManagerService.setProcessImportant:(Landroid/os/IBinder;IZLjava/lang/String;)V -->
<g id="node1" class="node">
<title>m::com.android.server.am.ActivityManagerService.setProcessImportant:(Landroid/os/IBinder;IZLjava/lang/String;)V</title>
<path fill="#eef2ff" stroke="#a5b4fc" d="M253,-118C253,-118 12,-118 12,-118 6,-118 0,-112 0,-106 0,-106 0,-94 0,-94 0,-88 6,-82 12,-82 12,-82 253,-82 253,-82 259,-82 265,-88 265,-94 265,-94 265,-106 265,-106 265,-112 259,-118 253,-118"/>
<text text-anchor="middle" x="132.5" y="-97.2" font-family="Helvetica,sans-Serif" font-size="11.00">ActivityManagerService.setProcessImportant</text>
</g>
<!-- __ipc__ -->
<g id="node2" class="node">
<title>__ipc__</title>
<path fill="#fde68a" stroke="#d97706" stroke-width="2" d="M176.5,-36C176.5,-36 88.5,-36 88.5,-36 82.5,-36 76.5,-30 76.5,-24 76.5,-24 76.5,-12 76.5,-12 76.5,-6 82.5,0 88.5,0 88.5,0 176.5,0 176.5,0 182.5,0 188.5,-6 188.5,-12 188.5,-12 188.5,-24 188.5,-24 188.5,-30 182.5,-36 176.5,-36"/>
<text text-anchor="middle" x="132.5" y="-21.2" font-family="Helvetica,sans-Serif" font-size="11.00">Binder IPC</text>
<text text-anchor="middle" x="132.5" y="-9.2" font-family="Helvetica,sans-Serif" font-size="11.00">(remote process)</text>
</g>
<!-- m::com.android.server.am.ActivityManagerService.setProcessImportant:(Landroid/os/IBinder;IZLjava/lang/String;)V&#45;&gt;__ipc__ -->
<g id="edge2" class="edge">
<title>m::com.android.server.am.ActivityManagerService.setProcessImportant:(Landroid/os/IBinder;IZLjava/lang/String;)V&#45;&gt;__ipc__</title>
<path fill="none" stroke="#d97706" stroke-width="1.6" d="M132.5,-81.64C132.5,-70.66 132.5,-56.29 132.5,-44.09"/>
<polygon fill="#d97706" stroke="#d97706" stroke-width="1.6" points="135.3,-44.05 132.5,-36.05 129.7,-44.05 135.3,-44.05"/>
<text text-anchor="middle" x="155.5" y="-56.8" font-family="Helvetica,sans-Serif" font-size="9.00" fill="#b45309"> transacts</text>
</g>
<!-- com.android.server.am.ActivityManagerService -->
<g id="node3" class="node">
<title>com.android.server.am.ActivityManagerService</title>
<path fill="#fee2e2" stroke="#dc2626" stroke-width="2" d="M204.5,-200C204.5,-200 60.5,-200 60.5,-200 54.5,-200 48.5,-194 48.5,-188 48.5,-188 48.5,-176 48.5,-176 48.5,-170 54.5,-164 60.5,-164 60.5,-164 204.5,-164 204.5,-164 210.5,-164 216.5,-170 216.5,-176 216.5,-176 216.5,-188 216.5,-188 216.5,-194 210.5,-200 204.5,-200"/>
<text text-anchor="middle" x="132.5" y="-179.2" font-family="Helvetica,sans-Serif" font-size="11.00">am.ActivityManagerService</text>
</g>
<!-- com.android.server.am.ActivityManagerService&#45;&gt;m::com.android.server.am.ActivityManagerService.setProcessImportant:(Landroid/os/IBinder;IZLjava/lang/String;)V -->
<g id="edge1" class="edge">
<title>com.android.server.am.ActivityManagerService&#45;&gt;m::com.android.server.am.ActivityManagerService.setProcessImportant:(Landroid/os/IBinder;IZLjava/lang/String;)V</title>
<path fill="none" stroke="#dc2626" stroke-width="1.6" d="M132.5,-163.64C132.5,-152.66 132.5,-138.29 132.5,-126.09"/>
<polygon fill="#dc2626" stroke="#dc2626" stroke-width="1.6" points="135.3,-126.05 132.5,-118.05 129.7,-126.05 135.3,-126.05"/>
<text text-anchor="middle" x="149.5" y="-138.8" font-family="Helvetica,sans-Serif" font-size="9.00" fill="#dc2626"> held in</text>
</g>
</g>
</svg>
