<?xml version="1.0" encoding="UTF-8" standalone="no"?>
<!DOCTYPE svg PUBLIC "-//W3C//DTD SVG 1.1//EN"
 "http://www.w3.org/Graphics/SVG/1.1/DTD/svg11.dtd">
<!-- Generated by graphviz version 2.43.0 (0)
 -->
<!-- Title: binder Pages: 1 -->
<svg width="421pt" height="208pt"
 viewBox="0.00 0.00 421.00 208.00" xmlns="http://www.w3.org/2000/svg" xmlns:xlink="http://www.w3.org/1999/xlink">
<g id="graph0" class="graph" transform="scale(1 1) rotate(0) translate(4 204)">
<title>binder</title>
<polygon fill="white" stroke="transparent" points="-4,4 -4,-204 417,-204 417,4 -4,4"/>
<!-- m::com.android.server.am.ActivityManagerService.lambda$updatePhantomProcessCpuTimeLPr$23:(Lcom/android/server/am/ProcessRecord;Lcom/android/server/am/PhantomProcessRecord;JJJI)V -->
<g id="node1" class="node">
<title>m::com.android.server.am.ActivityManagerService.lambda$updatePhantomProcessCpuTimeLPr$23:(Lcom/android/server/am/ProcessRecord;Lcom/android/server/am/PhantomProcessRecord;JJJI)V</title>
<path fill="#eef2ff" stroke="#a5b4fc" d="M401,-118C401,-118 12,-118 12,-118 6,-118 0,-112 0,-106 0,-106 0,-94 0,-94 0,-88 6,-82 12,-82 12,-82 401,-82 401,-82 407,-82 413,-88 413,-94 413,-94 413,-106 413,-106 413,-112 407,-118 401,-118"/>
<text text-anchor="middle" x="206.5" y="-97.2" font-family="Helvetica,sans-Serif" font-size="11.00">ActivityManagerService.lambda$updatePhantomProcessCpuTimeLPr$23</text>
</g>
<!-- __ipc__ -->
<g id="node2" class="node">
<title>__ipc__</title>
<path fill="#fde68a" stroke="#d97706" stroke-width="2" d="M250.5,-36C250.5,-36 162.5,-36 162.5,-36 156.5,-36 150.5,-30 150.5,-24 150.5,-24 150.5,-12 150.5,-12 150.5,-6 156.5,0 162.5,0 162.5,0 250.5,0 250.5,0 256.5,0 262.5,-6 262.5,-12 262.5,-12 262.5,-24 262.5,-24 262.5,-30 256.5,-36 250.5,-36"/>
<text text-anchor="middle" x="206.5" y="-21.2" font-family="Helvetica,sans-Serif" font-size="11.00">Binder IPC</text>
<text text-anchor="middle" x="206.5" y="-9.2" font-family="Helvetica,sans-Serif" font-size="11.00">(remote process)</text>
</g>
<!-- m::com.android.server.am.ActivityManagerService.lambda$updatePhantomProcessCpuTimeLPr$23:(Lcom/android/server/am/ProcessRecord;Lcom/android/server/am/PhantomProcessRecord;JJJI)V&#45;&gt;__ipc__ -->
<g id="edge2" class="edge">
<title>m::com.android.server.am.ActivityManagerService.lambda$updatePhantomProcessCpuTimeLPr$23:(Lcom/android/server/am/ProcessRecord;Lcom/android/server/am/PhantomProcessRecord;JJJI)V&#45;&gt;__ipc__</title>
<path fill="none" stroke="#d97706" stroke-width="1.6" d="M206.5,-81.64C206.5,-70.66 206.5,-56.29 206.5,-44.09"/>
<polygon fill="#d97706" stroke="#d97706" stroke-width="1.6" points="209.3,-44.05 206.5,-36.05 203.7,-44.05 209.3,-44.05"/>
<text text-anchor="middle" x="229.5" y="-56.8" font-family="Helvetica,sans-Serif" font-size="9.00" fill="#b45309"> transacts</text>
</g>
<!-- com.android.server.am.ActivityManagerService -->
<g id="node3" class="node">
<title>com.android.server.am.ActivityManagerService</title>
<path fill="#fee2e2" stroke="#dc2626" stroke-width="2" d="M278.5,-200C278.5,-200 134.5,-200 134.5,-200 128.5,-200 122.5,-194 122.5,-188 122.5,-188 122.5,-176 122.5,-176 122.5,-170 128.5,-164 134.5,-164 134.5,-164 278.5,-164 278.5,-164 284.5,-164 290.5,-170 290.5,-176 290.5,-176 290.5,-188 290.5,-188 290.5,-194 284.5,-200 278.5,-200"/>
<text text-anchor="middle" x="206.5" y="-179.2" font-family="Helvetica,sans-Serif" font-size="11.00">am.ActivityManagerService</text>
</g>
<!-- com.android.server.am.ActivityManagerService&#45;&gt;m::com.android.server.am.ActivityManagerService.lambda$updatePhantomProcessCpuTimeLPr$23:(Lcom/android/server/am/ProcessRecord;Lcom/android/server/am/PhantomProcessRecord;JJJI)V -->
<g id="edge1" class="edge">
<title>com.android.server.am.ActivityManagerService&#45;&gt;m::com.android.server.am.ActivityManagerService.lambda$updatePhantomProcessCpuTimeLPr$23:(Lcom/android/server/am/ProcessRecord;Lcom/android/server/am/PhantomProcessRecord;JJJI)V</title>
<path fill="none" stroke="#dc2626" stroke-width="1.6" d="M206.5,-163.64C206.5,-152.66 206.5,-138.29 206.5,-126.09"/>
<polygon fill="#dc2626" stroke="#dc2626" stroke-width="1.6" points="209.3,-126.05 206.5,-118.05 203.7,-126.05 209.3,-126.05"/>
<text text-anchor="middle" x="223.5" y="-138.8" font-family="Helvetica,sans-Serif" font-size="9.00" fill="#dc2626"> held in</text>
</g>
</g>
</svg>
