<?xml version="1.0" encoding="UTF-8" standalone="no"?>
<!DOCTYPE svg PUBLIC "-//W3C//DTD SVG 1.1//EN"
 "http://www.w3.org/Graphics/SVG/1.1/DTD/svg11.dtd">
<!-- Generated by graphviz version 2.43.0 (0)
 -->
<!-- Title: binder Pages: 1 -->
<svg width="430pt" height="1230pt"
 viewBox="0.00 0.00 430.00 1230.00" xmlns="http://www.w3.org/2000/svg" xmlns:xlink="http://www.w3.org/1999/xlink">
<g id="graph0" class="graph" transform="scale(1 1) rotate(0) translate(4 1226)">
<title>binder</title>
<polygon fill="white" stroke="transparent" points="-4,4 -4,-1226 426,-1226 426,4 -4,4"/>
<!-- m::com.android.server.am.ActivityManagerService.forceStopPackage:(Ljava/lang/String;IILjava/lang/String;)V -->
<g id="node1" class="node">
<title>m::com.android.server.am.ActivityManagerService.forceStopPackage:(Ljava/lang/String;IILjava/lang/String;)V</title>
<path fill="#eef2ff" stroke="#a5b4fc" d="M323,-1140C323,-1140 99,-1140 99,-1140 93,-1140 87,-1134 87,-1128 87,-1128 87,-1116 87,-1116 87,-1110 93,-1104 99,-1104 99,-1104 323,-1104 323,-1104 329,-1104 335,-1110 335,-1116 335,-1116 335,-1128 335,-1128 335,-1134 329,-1140 323,-1140"/>
<text text-anchor="middle" x="211" y="-1119.2" font-family="Helvetica,sans-Serif" font-size="11.00">ActivityManagerService.forceStopPackage</text>
</g>
<!-- m::com.android.server.am.ActivityManagerService.forceStopPackageLocked:(Ljava/lang/String;IZZZZZZILjava/lang/String;)Z -->
<g id="node2" class="node">
<title>m::com.android.server.am.ActivityManagerService.forceStopPackageLocked:(Ljava/lang/String;IZZZZZZILjava/lang/String;)Z</title>
<path fill="#eef2ff" stroke="#a5b4fc" d="M342.5,-1067C342.5,-1067 79.5,-1067 79.5,-1067 73.5,-1067 67.5,-1061 67.5,-1055 67.5,-1055 67.5,-1043 67.5,-1043 67.5,-1037 73.5,-1031 79.5,-1031 79.5,-1031 342.5,-1031 342.5,-1031 348.5,-1031 354.5,-1037 354.5,-1043 354.5,-1043 354.5,-1055 354.5,-1055 354.5,-1061 348.5,-1067 342.5,-1067"/>
<text text-anchor="middle" x="211" y="-1046.2" font-family="Helvetica,sans-Serif" font-size="11.00">ActivityManagerService.forceStopPackageLocked</text>
</g>
<!-- m::com.android.server.am.ActivityManagerService.forceStopPackage:(Ljava/lang/String;IILjava/lang/String;)V&#45;&gt;m::com.android.server.am.ActivityManagerService.forceStopPackageLocked:(Ljava/lang/String;IZZZZZZILjava/lang/String;)Z -->
<g id="edge2" class="edge">
<title>m::com.android.server.am.ActivityManagerService.forceStopPackage:(Ljava/lang/String;IILjava/lang/String;)V&#45;&gt;m::com.android.server.am.ActivityManagerService.forceStopPackageLocked:(Ljava/lang/String;IZZZZZZILjava/lang/String;)Z</title>
<path fill="none" stroke="#64748b" d="M211,-1103.81C211,-1095.18 211,-1084.56 211,-1075.03"/>
<polygon fill="#64748b" stroke="#64748b" points="213.8,-1075.03 211,-1067.03 208.2,-1075.03 213.8,-1075.03"/>
</g>
<!-- m::com.android.server.am.ActivityManagerService.forceStopPackageLocked:(Ljava/lang/String;IZZZZZZILjava/lang/String;I)Z -->
<g id="node3" class="node">
<title>m::com.android.server.am.ActivityManagerService.forceStopPackageLocked:(Ljava/lang/String;IZZZZZZILjava/lang/String;I)Z</title>
<path fill="#eef2ff" stroke="#a5b4fc" d="M342.5,-994C342.5,-994 79.5,-994 79.5,-994 73.5,-994 67.5,-988 67.5,-982 67.5,-982 67.5,-970 67.5,-970 67.5,-964 73.5,-958 79.5,-958 79.5,-958 342.5,-958 342.5,-958 348.5,-958 354.5,-964 354.5,-970 354.5,-970 354.5,-982 354.5,-982 354.5,-988 348.5,-994 342.5,-994"/>
<text text-anchor="middle" x="211" y="-973.2" font-family="Helvetica,sans-Serif" font-size="11.00">ActivityManagerService.forceStopPackageLocked</text>
</g>
<!-- m::com.android.server.am.ActivityManagerService.forceStopPackageLocked:(Ljava/lang/String;IZZZZZZILjava/lang/String;)Z&#45;&gt;m::com.android.server.am.ActivityManagerService.forceStopPackageLocked:(Ljava/lang/String;IZZZZZZILjava/lang/String;I)Z -->
<g id="edge3" class="edge">
<title>m::com.android.server.am.ActivityManagerService.forceStopPackageLocked:(Ljava/lang/String;IZZZZZZILjava/lang/String;)Z&#45;&gt;m::com.android.server.am.ActivityManagerService.forceStopPackageLocked:(Ljava/lang/String;IZZZZZZILjava/lang/String;I)Z</title>
<path fill="none" stroke="#64748b" d="M211,-1030.81C211,-1022.18 211,-1011.56 211,-1002.03"/>
<polygon fill="#64748b" stroke="#64748b" points="213.8,-1002.03 211,-994.03 208.2,-1002.03 213.8,-1002.03"/>
</g>
<!-- m::com.android.server.am.ActivityManagerService.forceStopPackageInternalLocked:(Ljava/lang/String;IZZZZZZILjava/lang/String;II)Z -->
<g id="node4" class="node">
<title>m::com.android.server.am.ActivityManagerService.forceStopPackageInternalLocked:(Ljava/lang/String;IZZZZZZILjava/lang/String;II)Z</title>
<path fill="#eef2ff" stroke="#a5b4fc" d="M363.5,-921C363.5,-921 58.5,-921 58.5,-921 52.5,-921 46.5,-915 46.5,-909 46.5,-909 46.5,-897 46.5,-897 46.5,-891 52.5,-885 58.5,-885 58.5,-885 363.5,-885 363.5,-885 369.5,-885 375.5,-891 375.5,-897 375.5,-897 375.5,-909 375.5,-909 375.5,-915 369.5,-921 363.5,-921"/>
<text text-anchor="middle" x="211" y="-900.2" font-family="Helvetica,sans-Serif" font-size="11.00">ActivityManagerService.forceStopPackageInternalLocked</text>
</g>
<!-- m::com.android.server.am.ActivityManagerService.forceStopPackageLocked:(Ljava/lang/String;IZZZZZZILjava/lang/String;I)Z&#45;&gt;m::com.android.server.am.ActivityManagerService.forceStopPackageInternalLocked:(Ljava/lang/String;IZZZZZZILjava/lang/String;II)Z -->
<g id="edge4" class="edge">
<title>m::com.android.server.am.ActivityManagerService.forceStopPackageLocked:(Ljava/lang/String;IZZZZZZILjava/lang/String;I)Z&#45;&gt;m::com.android.server.am.ActivityManagerService.forceStopPackageInternalLocked:(Ljava/lang/String;IZZZZZZILjava/lang/String;II)Z</title>
<path fill="none" stroke="#64748b" d="M211,-957.81C211,-949.18 211,-938.56 211,-929.03"/>
<polygon fill="#64748b" stroke="#64748b" points="213.8,-929.03 211,-921.03 208.2,-929.03 213.8,-929.03"/>
</g>
<!-- m::com.android.server.am.ProcessList.killPackageProcessesLSP:(Ljava/lang/String;IIIZZZZZZIILjava/lang/String;)Z -->
<g id="node5" class="node">
<title>m::com.android.server.am.ProcessList.killPackageProcessesLSP:(Ljava/lang/String;IIIZZZZZZIILjava/lang/String;)Z</title>
<path fill="#eef2ff" stroke="#a5b4fc" d="M308,-848C308,-848 114,-848 114,-848 108,-848 102,-842 102,-836 102,-836 102,-824 102,-824 102,-818 108,-812 114,-812 114,-812 308,-812 308,-812 314,-812 320,-818 320,-824 320,-824 320,-836 320,-836 320,-842 314,-848 308,-848"/>
<text text-anchor="middle" x="211" y="-827.2" font-family="Helvetica,sans-Serif" font-size="11.00">ProcessList.killPackageProcessesLSP</text>
</g>
<!-- m::com.android.server.am.ActivityManagerService.forceStopPackageInternalLocked:(Ljava/lang/String;IZZZZZZILjava/lang/String;II)Z&#45;&gt;m::com.android.server.am.ProcessList.killPackageProcessesLSP:(Ljava/lang/String;IIIZZZZZZIILjava/lang/String;)Z -->
<g id="edge5" class="edge">
<title>m::com.android.server.am.ActivityManagerService.forceStopPackageInternalLocked:(Ljava/lang/String;IZZZZZZILjava/lang/String;II)Z&#45;&gt;m::com.android.server.am.ProcessList.killPackageProcessesLSP:(Ljava/lang/String;IIIZZZZZZIILjava/lang/String;)Z</title>
<path fill="none" stroke="#64748b" d="M211,-884.81C211,-876.18 211,-865.56 211,-856.03"/>
<polygon fill="#64748b" stroke="#64748b" points="213.8,-856.03 211,-848.03 208.2,-856.03 213.8,-856.03"/>
</g>
<!-- m::com.android.server.am.ProcessList.removeProcessLocked:(Lcom/android/server/am/ProcessRecord;ZZIILjava/lang/String;Z)Z -->
<g id="node6" class="node">
<title>m::com.android.server.am.ProcessList.removeProcessLocked:(Lcom/android/server/am/ProcessRecord;ZZIILjava/lang/String;Z)Z</title>
<path fill="#eef2ff" stroke="#a5b4fc" d="M302,-775C302,-775 120,-775 120,-775 114,-775 108,-769 108,-763 108,-763 108,-751 108,-751 108,-745 114,-739 120,-739 120,-739 302,-739 302,-739 308,-739 314,-745 314,-751 314,-751 314,-763 314,-763 314,-769 308,-775 302,-775"/>
<text text-anchor="middle" x="211" y="-754.2" font-family="Helvetica,sans-Serif" font-size="11.00">ProcessList.removeProcessLocked</text>
</g>
<!-- m::com.android.server.am.ProcessList.killPackageProcessesLSP:(Ljava/lang/String;IIIZZZZZZIILjava/lang/String;)Z&#45;&gt;m::com.android.server.am.ProcessList.removeProcessLocked:(Lcom/android/server/am/ProcessRecord;ZZIILjava/lang/String;Z)Z -->
<g id="edge6" class="edge">
<title>m::com.android.server.am.ProcessList.killPackageProcessesLSP:(Ljava/lang/String;IIIZZZZZZIILjava/lang/String;)Z&#45;&gt;m::com.android.server.am.ProcessList.removeProcessLocked:(Lcom/android/server/am/ProcessRecord;ZZIILjava/lang/String;Z)Z</title>
<path fill="none" stroke="#64748b" d="M211,-811.81C211,-803.18 211,-792.56 211,-783.03"/>
<polygon fill="#64748b" stroke="#64748b" points="213.8,-783.03 211,-775.03 208.2,-783.03 213.8,-783.03"/>
</g>
<!-- m::com.android.server.am.ActivityManagerService.handleAppDiedLocked:(Lcom/android/server/am/ProcessRecord;IZZZ)V -->
<g id="node7" class="node">
<title>m::com.android.server.am.ActivityManagerService.handleAppDiedLocked:(Lcom/android/server/am/ProcessRecord;IZZZ)V</title>
<path fill="#eef2ff" stroke="#a5b4fc" d="M335,-702C335,-702 87,-702 87,-702 81,-702 75,-696 75,-690 75,-690 75,-678 75,-678 75,-672 81,-666 87,-666 87,-666 335,-666 335,-666 341,-666 347,-672 347,-678 347,-678 347,-690 347,-690 347,-696 341,-702 335,-702"/>
<text text-anchor="middle" x="211" y="-681.2" font-family="Helvetica,sans-Serif" font-size="11.00">ActivityManagerService.handleAppDiedLocked</text>
</g>
<!-- m::com.android.server.am.ProcessList.removeProcessLocked:(Lcom/android/server/am/ProcessRecord;ZZIILjava/lang/String;Z)Z&#45;&gt;m::com.android.server.am.ActivityManagerService.handleAppDiedLocked:(Lcom/android/server/am/ProcessRecord;IZZZ)V -->
<g id="edge7" class="edge">
<title>m::com.android.server.am.ProcessList.removeProcessLocked:(Lcom/android/server/am/ProcessRecord;ZZIILjava/lang/String;Z)Z&#45;&gt;m::com.android.server.am.ActivityManagerService.handleAppDiedLocked:(Lcom/android/server/am/ProcessRecord;IZZZ)V</title>
<path fill="none" stroke="#64748b" d="M211,-738.81C211,-730.18 211,-719.56 211,-710.03"/>
<polygon fill="#64748b" stroke="#64748b" points="213.8,-710.03 211,-702.03 208.2,-710.03 213.8,-710.03"/>
</g>
<!-- m::com.android.server.am.ActivityManagerService.cleanUpApplicationRecordLocked:(Lcom/android/server/am/ProcessRecord;IZZIZZ)Z -->
<g id="node8" class="node">
<title>m::com.android.server.am.ActivityManagerService.cleanUpApplicationRecordLocked:(Lcom/android/server/am/ProcessRecord;IZZIZZ)Z</title>
<path fill="#eef2ff" stroke="#a5b4fc" d="M365,-629C365,-629 57,-629 57,-629 51,-629 45,-623 45,-617 45,-617 45,-605 45,-605 45,-599 51,-593 57,-593 57,-593 365,-593 365,-593 371,-593 377,-599 377,-605 377,-605 377,-617 377,-617 377,-623 371,-629 365,-629"/>
<text text-anchor="middle" x="211" y="-608.2" font-family="Helvetica,sans-Serif" font-size="11.00">ActivityManagerService.cleanUpApplicationRecordLocked</text>
</g>
<!-- m::com.android.server.am.ActivityManagerService.handleAppDiedLocked:(Lcom/android/server/am/ProcessRecord;IZZZ)V&#45;&gt;m::com.android.server.am.ActivityManagerService.cleanUpApplicationRecordLocked:(Lcom/android/server/am/ProcessRecord;IZZIZZ)Z -->
<g id="edge8" class="edge">
<title>m::com.android.server.am.ActivityManagerService.handleAppDiedLocked:(Lcom/android/server/am/ProcessRecord;IZZZ)V&#45;&gt;m::com.android.server.am.ActivityManagerService.cleanUpApplicationRecordLocked:(Lcom/android/server/am/ProcessRecord;IZZIZZ)Z</title>
<path fill="none" stroke="#64748b" d="M211,-665.81C211,-657.18 211,-646.56 211,-637.03"/>
<polygon fill="#64748b" stroke="#64748b" points="213.8,-637.03 211,-629.03 208.2,-637.03 213.8,-637.03"/>
</g>
<!-- m::com.android.server.am.ProcessList.startProcessLocked:(Lcom/android/server/am/ProcessRecord;Lcom/android/server/am/HostingRecord;I)V -->
<g id="node9" class="node">
<title>m::com.android.server.am.ProcessList.startProcessLocked:(Lcom/android/server/am/ProcessRecord;Lcom/android/server/am/HostingRecord;I)V</title>
<path fill="#eef2ff" stroke="#a5b4fc" d="M294,-556C294,-556 128,-556 128,-556 122,-556 116,-550 116,-544 116,-544 116,-532 116,-532 116,-526 122,-520 128,-520 128,-520 294,-520 294,-520 300,-520 306,-526 306,-532 306,-532 306,-544 306,-544 306,-550 300,-556 294,-556"/>
<text text-anchor="middle" x="211" y="-535.2" font-family="Helvetica,sans-Serif" font-size="11.00">ProcessList.startProcessLocked</text>
</g>
<!-- m::com.android.server.am.ActivityManagerService.cleanUpApplicationRecordLocked:(Lcom/android/server/am/ProcessRecord;IZZIZZ)Z&#45;&gt;m::com.android.server.am.ProcessList.startProcessLocked:(Lcom/android/server/am/ProcessRecord;Lcom/android/server/am/HostingRecord;I)V -->
<g id="edge9" class="edge">
<title>m::com.android.server.am.ActivityManagerService.cleanUpApplicationRecordLocked:(Lcom/android/server/am/ProcessRecord;IZZIZZ)Z&#45;&gt;m::com.android.server.am.ProcessList.startProcessLocked:(Lcom/android/server/am/ProcessRecord;Lcom/android/server/am/HostingRecord;I)V</title>
<path fill="none" stroke="#64748b" d="M211,-592.81C211,-584.18 211,-573.56 211,-564.03"/>
<polygon fill="#64748b" stroke="#64748b" points="213.8,-564.03 211,-556.03 208.2,-564.03 213.8,-564.03"/>
</g>
<!-- m::com.android.server.am.ProcessList.startProcessLocked:(Lcom/android/server/am/ProcessRecord;Lcom/android/server/am/HostingRecord;ILjava/lang/String;)Z -->
<g id="node10" class="node">
<title>m::com.android.server.am.ProcessList.startProcessLocked:(Lcom/android/server/am/ProcessRecord;Lcom/android/server/am/HostingRecord;ILjava/lang/String;)Z</title>
<path fill="#eef2ff" stroke="#a5b4fc" d="M294,-483C294,-483 128,-483 128,-483 122,-483 116,-477 116,-471 116,-471 116,-459 116,-459 116,-453 122,-447 128,-447 128,-447 294,-447 294,-447 300,-447 306,-453 306,-459 306,-459 306,-471 306,-471 306,-477 300,-483 294,-483"/>
<text text-anchor="middle" x="211" y="-462.2" font-family="Helvetica,sans-Serif" font-size="11.00">ProcessList.startProcessLocked</text>
</g>
<!-- m::com.android.server.am.ProcessList.startProcessLocked:(Lcom/android/server/am/ProcessRecord;Lcom/android/server/am/HostingRecord;I)V&#45;&gt;m::com.android.server.am.ProcessList.startProcessLocked:(Lcom/android/server/am/ProcessRecord;Lcom/android/server/am/HostingRecord;ILjava/lang/String;)Z -->
<g id="edge10" class="edge">
<title>m::com.android.server.am.ProcessList.startProcessLocked:(Lcom/android/server/am/ProcessRecord;Lcom/android/server/am/HostingRecord;I)V&#45;&gt;m::com.android.server.am.ProcessList.startProcessLocked:(Lcom/android/server/am/ProcessRecord;Lcom/android/server/am/HostingRecord;ILjava/lang/String;)Z</title>
<path fill="none" stroke="#64748b" d="M211,-519.81C211,-511.18 211,-500.56 211,-491.03"/>
<polygon fill="#64748b" stroke="#64748b" points="213.8,-491.03 211,-483.03 208.2,-491.03 213.8,-491.03"/>
</g>
<!-- m::com.android.server.am.ProcessList.startProcessLocked:(Lcom/android/server/am/ProcessRecord;Lcom/android/server/am/HostingRecord;IZZLjava/lang/String;)Z -->
<g id="node11" class="node">
<title>m::com.android.server.am.ProcessList.startProcessLocked:(Lcom/android/server/am/ProcessRecord;Lcom/android/server/am/HostingRecord;IZZLjava/lang/String;)Z</title>
<path fill="#eef2ff" stroke="#a5b4fc" d="M294,-410C294,-410 128,-410 128,-410 122,-410 116,-404 116,-398 116,-398 116,-386 116,-386 116,-380 122,-374 128,-374 128,-374 294,-374 294,-374 300,-374 306,-380 306,-386 306,-386 306,-398 306,-398 306,-404 300,-410 294,-410"/>
<text text-anchor="middle" x="211" y="-389.2" font-family="Helvetica,sans-Serif" font-size="11.00">ProcessList.startProcessLocked</text>
</g>
<!-- m::com.android.server.am.ProcessList.startProcessLocked:(Lcom/android/server/am/ProcessRecord;Lcom/android/server/am/HostingRecord;ILjava/lang/String;)Z&#45;&gt;m::com.android.server.am.ProcessList.startProcessLocked:(Lcom/android/server/am/ProcessRecord;Lcom/android/server/am/HostingRecord;IZZLjava/lang/String;)Z -->
<g id="edge11" class="edge">
<title>m::com.android.server.am.ProcessList.startProcessLocked:(Lcom/android/server/am/ProcessRecord;Lcom/android/server/am/HostingRecord;ILjava/lang/String;)Z&#45;&gt;m::com.android.server.am.ProcessList.startProcessLocked:(Lcom/android/server/am/ProcessRecord;Lcom/android/server/am/HostingRecord;IZZLjava/lang/String;)Z</title>
<path fill="none" stroke="#64748b" d="M211,-446.81C211,-438.18 211,-427.56 211,-418.03"/>
<polygon fill="#64748b" stroke="#64748b" points="213.8,-418.03 211,-410.03 208.2,-418.03 213.8,-418.03"/>
</g>
<!-- m::com.android.server.am.ProcessList.startProcessLocked:(Lcom/android/server/am/HostingRecord;Ljava/lang/String;Lcom/android/server/am/ProcessRecord;I[IIIILjava/lang/String;Ljava/lang/String;Ljava/lang/String;Ljava/lang/String;JJ)Z -->
<g id="node12" class="node">
<title>m::com.android.server.am.ProcessList.startProcessLocked:(Lcom/android/server/am/HostingRecord;Ljava/lang/String;Lcom/android/server/am/ProcessRecord;I[IIIILjava/lang/String;Ljava/lang/String;Ljava/lang/String;Ljava/lang/String;JJ)Z</title>
<path fill="#eef2ff" stroke="#a5b4fc" d="M294,-337C294,-337 128,-337 128,-337 122,-337 116,-331 116,-325 116,-325 116,-313 116,-313 116,-307 122,-301 128,-301 128,-301 294,-301 294,-301 300,-301 306,-307 306,-313 306,-313 306,-325 306,-325 306,-331 300,-337 294,-337"/>
<text text-anchor="middle" x="211" y="-316.2" font-family="Helvetica,sans-Serif" font-size="11.00">ProcessList.startProcessLocked</text>
</g>
<!-- m::com.android.server.am.ProcessList.startProcessLocked:(Lcom/android/server/am/ProcessRecord;Lcom/android/server/am/HostingRecord;IZZLjava/lang/String;)Z&#45;&gt;m::com.android.server.am.ProcessList.startProcessLocked:(Lcom/android/server/am/HostingRecord;Ljava/lang/String;Lcom/android/server/am/ProcessRecord;I[IIIILjava/lang/String;Ljava/lang/String;Ljava/lang/String;Ljava/lang/String;JJ)Z -->
<g id="edge12" class="edge">
<title>m::com.android.server.am.ProcessList.startProcessLocked:(Lcom/android/server/am/ProcessRecord;Lcom/android/server/am/HostingRecord;IZZLjava/lang/String;)Z&#45;&gt;m::com.android.server.am.ProcessList.startProcessLocked:(Lcom/android/server/am/HostingRecord;Ljava/lang/String;Lcom/android/server/am/ProcessRecord;I[IIIILjava/lang/String;Ljava/lang/String;Ljava/lang/String;Ljava/lang/String;JJ)Z</title>
<path fill="none" stroke="#64748b" d="M211,-373.81C211,-365.18 211,-354.56 211,-345.03"/>
<polygon fill="#64748b" stroke="#64748b" points="213.8,-345.03 211,-337.03 208.2,-345.03 213.8,-345.03"/>
</g>
<!-- m::com.android.server.am.ProcessList.startProcess:(Lcom/android/server/am/HostingRecord;Ljava/lang/String;Lcom/android/server/am/ProcessRecord;I[IIIILjava/lang/String;Ljava/lang/String;Ljava/lang/String;Ljava/lang/String;J)Landroid/os/Process$ProcessStartResult; -->
<g id="node13" class="node">
<title>m::com.android.server.am.ProcessList.startProcess:(Lcom/android/server/am/HostingRecord;Ljava/lang/String;Lcom/android/server/am/ProcessRecord;I[IIIILjava/lang/String;Ljava/lang/String;Ljava/lang/String;Ljava/lang/String;J)Landroid/os/Process$ProcessStartResult;</title>
<path fill="#eef2ff" stroke="#a5b4fc" d="M275,-264C275,-264 147,-264 147,-264 141,-264 135,-258 135,-252 135,-252 135,-240 135,-240 135,-234 141,-228 147,-228 147,-228 275,-228 275,-228 281,-228 287,-234 287,-240 287,-240 287,-252 287,-252 287,-258 281,-264 275,-264"/>
<text text-anchor="middle" x="211" y="-243.2" font-family="Helvetica,sans-Serif" font-size="11.00">ProcessList.startProcess</text>
</g>
<!-- m::com.android.server.am.ProcessList.startProcessLocked:(Lcom/android/server/am/HostingRecord;Ljava/lang/String;Lcom/android/server/am/ProcessRecord;I[IIIILjava/lang/String;Ljava/lang/String;Ljava/lang/String;Ljava/lang/String;JJ)Z&#45;&gt;m::com.android.server.am.ProcessList.startProcess:(Lcom/android/server/am/HostingRecord;Ljava/lang/String;Lcom/android/server/am/ProcessRecord;I[IIIILjava/lang/String;Ljava/lang/String;Ljava/lang/String;Ljava/lang/String;J)Landroid/os/Process$ProcessStartResult; -->
<g id="edge13" class="edge">
<title>m::com.android.server.am.ProcessList.startProcessLocked:(Lcom/android/server/am/HostingRecord;Ljava/lang/String;Lcom/android/server/am/ProcessRecord;I[IIIILjava/lang/String;Ljava/lang/String;Ljava/lang/String;Ljava/lang/String;JJ)Z&#45;&gt;m::com.android.server.am.ProcessList.startProcess:(Lcom/android/server/am/HostingRecord;Ljava/lang/String;Lcom/android/server/am/ProcessRecord;I[IIIILjava/lang/String;Ljava/lang/String;Ljava/lang/String;Ljava/lang/String;J)Landroid/os/Process$ProcessStartResult;</title>
<path fill="none" stroke="#64748b" d="M211,-300.81C211,-292.18 211,-281.56 211,-272.03"/>
<polygon fill="#64748b" stroke="#64748b" points="213.8,-272.03 211,-264.03 208.2,-272.03 213.8,-272.03"/>
</g>
<!-- m::com.android.server.StorageManagerService$StorageManagerInternalImpl.prepareStorageDirs:(ILjava/util/Set;Ljava/lang/String;)Z -->
<g id="node14" class="node">
<title>m::com.android.server.StorageManagerService$StorageManagerInternalImpl.prepareStorageDirs:(ILjava/util/Set;Ljava/lang/String;)Z</title>
<path fill="#eef2ff" stroke="#a5b4fc" d="M410,-191C410,-191 12,-191 12,-191 6,-191 0,-185 0,-179 0,-179 0,-167 0,-167 0,-161 6,-155 12,-155 12,-155 410,-155 410,-155 416,-155 422,-161 422,-167 422,-167 422,-179 422,-179 422,-185 416,-191 410,-191"/>
<text text-anchor="middle" x="211" y="-170.2" font-family="Helvetica,sans-Serif" font-size="11.00">StorageManagerService$StorageManagerInternalImpl.prepareStorageDirs</text>
</g>
<!-- m::com.android.server.am.ProcessList.startProcess:(Lcom/android/server/am/HostingRecord;Ljava/lang/String;Lcom/android/server/am/ProcessRecord;I[IIIILjava/lang/String;Ljava/lang/String;Ljava/lang/String;Ljava/lang/String;J)Landroid/os/Process$ProcessStartResult;&#45;&gt;m::com.android.server.StorageManagerService$StorageManagerInternalImpl.prepareStorageDirs:(ILjava/util/Set;Ljava/lang/String;)Z -->
<g id="edge14" class="edge">
<title>m::com.android.server.am.ProcessList.startProcess:(Lcom/android/server/am/HostingRecord;Ljava/lang/String;Lcom/android/server/am/ProcessRecord;I[IIIILjava/lang/String;Ljava/lang/String;Ljava/lang/String;Ljava/lang/String;J)Landroid/os/Process$ProcessStartResult;&#45;&gt;m::com.android.server.StorageManagerService$StorageManagerInternalImpl.prepareStorageDirs:(ILjava/util/Set;Ljava/lang/String;)Z</title>
<path fill="none" stroke="#64748b" d="M211,-227.81C211,-219.18 211,-208.56 211,-199.03"/>
<polygon fill="#64748b" stroke="#64748b" points="213.8,-199.03 211,-191.03 208.2,-199.03 213.8,-199.03"/>
</g>
<!-- m::android.os.IVold$Stub$Proxy.ensureAppDirsCreated:([Ljava/lang/String;I)V -->
<g id="node15" class="node">
<title>m::android.os.IVold$Stub$Proxy.ensureAppDirsCreated:([Ljava/lang/String;I)V</title>
<path fill="#eef2ff" stroke="#a5b4fc" d="M318.5,-118C318.5,-118 103.5,-118 103.5,-118 97.5,-118 91.5,-112 91.5,-106 91.5,-106 91.5,-94 91.5,-94 91.5,-88 97.5,-82 103.5,-82 103.5,-82 318.5,-82 318.5,-82 324.5,-82 330.5,-88 330.5,-94 330.5,-94 330.5,-106 330.5,-106 330.5,-112 324.5,-118 318.5,-118"/>
<text text-anchor="middle" x="211" y="-97.2" font-family="Helvetica,sans-Serif" font-size="11.00">IVold$Stub$Proxy.ensureAppDirsCreated</text>
</g>
<!-- m::com.android.server.StorageManagerService$StorageManagerInternalImpl.prepareStorageDirs:(ILjava/util/Set;Ljava/lang/String;)Z&#45;&gt;m::android.os.IVold$Stub$Proxy.ensureAppDirsCreated:([Ljava/lang/String;I)V -->
<g id="edge15" class="edge">
<title>m::com.android.server.StorageManagerService$StorageManagerInternalImpl.prepareStorageDirs:(ILjava/util/Set;Ljava/lang/String;)Z&#45;&gt;m::android.os.IVold$Stub$Proxy.ensureAppDirsCreated:([Ljava/lang/String;I)V</title>
<path fill="none" stroke="#64748b" d="M211,-154.81C211,-146.18 211,-135.56 211,-126.03"/>
<polygon fill="#64748b" stroke="#64748b" points="213.8,-126.03 211,-118.03 208.2,-126.03 213.8,-126.03"/>
</g>
<!-- __ipc__ -->
<g id="node16" class="node">
<title>__ipc__</title>
<path fill="#fde68a" stroke="#d97706" stroke-width="2" d="M255,-36C255,-36 167,-36 167,-36 161,-36 155,-30 155,-24 155,-24 155,-12 155,-12 155,-6 161,0 167,0 167,0 255,0 255,0 261,0 267,-6 267,-12 267,-12 267,-24 267,-24 267,-30 261,-36 255,-36"/>
<text text-anchor="middle" x="211" y="-21.2" font-family="Helvetica,sans-Serif" font-size="11.00">Binder IPC</text>
<text text-anchor="middle" x="211" y="-9.2" font-family="Helvetica,sans-Serif" font-size="11.00">(remote process)</text>
</g>
<!-- m::android.os.IVold$Stub$Proxy.ensureAppDirsCreated:([Ljava/lang/String;I)V&#45;&gt;__ipc__ -->
<g id="edge16" class="edge">
<title>m::android.os.IVold$Stub$Proxy.ensureAppDirsCreated:([Ljava/lang/String;I)V&#45;&gt;__ipc__</title>
<path fill="none" stroke="#d97706" stroke-width="1.6" d="M211,-81.64C211,-70.66 211,-56.29 211,-44.09"/>
<polygon fill="#d97706" stroke="#d97706" stroke-width="1.6" points="213.8,-44.05 211,-36.05 208.2,-44.05 213.8,-44.05"/>
<text text-anchor="middle" x="234" y="-56.8" font-family="Helvetica,sans-Serif" font-size="9.00" fill="#b45309"> transacts</text>
</g>
<!-- com.android.server.am.ActivityManagerService -->
<g id="node17" class="node">
<title>com.android.server.am.ActivityManagerService</title>
<path fill="#fee2e2" stroke="#dc2626" stroke-width="2" d="M283,-1222C283,-1222 139,-1222 139,-1222 133,-1222 127,-1216 127,-1210 127,-1210 127,-1198 127,-1198 127,-1192 133,-1186 139,-1186 139,-1186 283,-1186 283,-1186 289,-1186 295,-1192 295,-1198 295,-1198 295,-1210 295,-1210 295,-1216 289,-1222 283,-1222"/>
<text text-anchor="middle" x="211" y="-1201.2" font-family="Helvetica,sans-Serif" font-size="11.00">am.ActivityManagerService</text>
</g>
<!-- com.android.server.am.ActivityManagerService&#45;&gt;m::com.android.server.am.ActivityManagerService.forceStopPackage:(Ljava/lang/String;IILjava/lang/String;)V -->
<g id="edge1" class="edge">
<title>com.android.server.am.ActivityManagerService&#45;&gt;m::com.android.server.am.ActivityManagerService.forceStopPackage:(Ljava/lang/String;IILjava/lang/String;)V</title>
<path fill="none" stroke="#dc2626" stroke-width="1.6" d="M211,-1185.64C211,-1174.66 211,-1160.29 211,-1148.09"/>
<polygon fill="#dc2626" stroke="#dc2626" stroke-width="1.6" points="213.8,-1148.05 211,-1140.05 208.2,-1148.05 213.8,-1148.05"/>
<text text-anchor="middle" x="228" y="-1160.8" font-family="Helvetica,sans-Serif" font-size="9.00" fill="#dc2626"> held in</text>
</g>
</g>
</svg>
