<?xml version="1.0" encoding="UTF-8" standalone="no"?>
<!DOCTYPE svg PUBLIC "-//W3C//DTD SVG 1.1//EN"
 "http://www.w3.org/Graphics/SVG/1.1/DTD/svg11.dtd">
<!-- Generated by graphviz version 2.43.0 (0)
 -->
<!-- Title: binder Pages: 1 -->
<svg width="430pt" height="865pt"
 viewBox="0.00 0.00 430.00 865.00" xmlns="http://www.w3.org/2000/svg" xmlns:xlink="http://www.w3.org/1999/xlink">
<g id="graph0" class="graph" transform="scale(1 1) rotate(0) translate(4 861)">
<title>binder</title>
<polygon fill="white" stroke="transparent" points="-4,4 -4,-861 426,-861 426,4 -4,4"/>
<!-- m::com.android.server.am.ActivityManagerService.finishAttachApplicationInner:(JII)V -->
<g id="node1" class="node">
<title>m::com.android.server.am.ActivityManagerService.finishAttachApplicationInner:(JII)V</title>
<path fill="#eef2ff" stroke="#a5b4fc" d="M351.5,-775C351.5,-775 70.5,-775 70.5,-775 64.5,-775 58.5,-769 58.5,-763 58.5,-763 58.5,-751 58.5,-751 58.5,-745 64.5,-739 70.5,-739 70.5,-739 351.5,-739 351.5,-739 357.5,-739 363.5,-745 363.5,-751 363.5,-751 363.5,-763 363.5,-763 363.5,-769 357.5,-775 351.5,-775"/>
<text text-anchor="middle" x="211" y="-754.2" font-family="Helvetica,sans-Serif" font-size="11.00">ActivityManagerService.finishAttachApplicationInner</text>
</g>
<!-- m::com.android.server.am.ActivityManagerService.handleAppDiedLocked:(Lcom/android/server/am/ProcessRecord;IZZZ)V -->
<g id="node2" class="node">
<title>m::com.android.server.am.ActivityManagerService.handleAppDiedLocked:(Lcom/android/server/am/ProcessRecord;IZZZ)V</title>
<path fill="#eef2ff" stroke="#a5b4fc" d="M335,-702C335,-702 87,-702 87,-702 81,-702 75,-696 75,-690 75,-690 75,-678 75,-678 75,-672 81,-666 87,-666 87,-666 335,-666 335,-666 341,-666 347,-672 347,-678 347,-678 347,-690 347,-690 347,-696 341,-702 335,-702"/>
<text text-anchor="middle" x="211" y="-681.2" font-family="Helvetica,sans-Serif" font-size="11.00">ActivityManagerService.handleAppDiedLocked</text>
</g>
<!-- m::com.android.server.am.ActivityManagerService.finishAttachApplicationInner:(JII)V&#45;&gt;m::com.android.server.am.ActivityManagerService.handleAppDiedLocked:(Lcom/android/server/am/ProcessRecord;IZZZ)V -->
<g id="edge2" class="edge">
<title>m::com.android.server.am.ActivityManagerService.finishAttachApplicationInner:(JII)V&#45;&gt;m::com.android.server.am.ActivityManagerService.handleAppDiedLocked:(Lcom/android/server/am/ProcessRecord;IZZZ)V</title>
<path fill="none" stroke="#64748b" d="M211,-738.81C211,-730.18 211,-719.56 211,-710.03"/>
<polygon fill="#64748b" stroke="#64748b" points="213.8,-710.03 211,-702.03 208.2,-710.03 213.8,-710.03"/>
</g>
<!-- m::com.android.server.am.ActivityManagerService.cleanUpApplicationRecordLocked:(Lcom/android/server/am/ProcessRecord;IZZIZZ)Z -->
<g id="node3" class="node">
<title>m::com.android.server.am.ActivityManagerService.cleanUpApplicationRecordLocked:(Lcom/android/server/am/ProcessRecord;IZZIZZ)Z</title>
<path fill="#eef2ff" stroke="#a5b4fc" d="M365,-629C365,-629 57,-629 57,-629 51,-629 45,-623 45,-617 45,-617 45,-605 45,-605 45,-599 51,-593 57,-593 57,-593 365,-593 365,-593 371,-593 377,-599 377,-605 377,-605 377,-617 377,-617 377,-623 371,-629 365,-629"/>
<text text-anchor="middle" x="211" y="-608.2" font-family="Helvetica,sans-Serif" font-size="11.00">ActivityManagerService.cleanUpApplicationRecordLocked</text>
</g>
<!-- m::com.android.server.am.ActivityManagerService.handleAppDiedLocked:(Lcom/android/server/am/ProcessRecord;IZZZ)V&#45;&gt;m::com.android.server.am.ActivityManagerService.cleanUpApplicationRecordLocked:(Lcom/android/server/am/ProcessRecord;IZZIZZ)Z -->
<g id="edge3" class="edge">
<title>m::com.android.server.am.ActivityManagerService.handleAppDiedLocked:(Lcom/android/server/am/ProcessRecord;IZZZ)V&#45;&gt;m::com.android.server.am.ActivityManagerService.cleanUpApplicationRecordLocked:(Lcom/android/server/am/ProcessRecord;IZZIZZ)Z</title>
<path fill="none" stroke="#64748b" d="M211,-665.81C211,-657.18 211,-646.56 211,-637.03"/>
<polygon fill="#64748b" stroke="#64748b" points="213.8,-637.03 211,-629.03 208.2,-637.03 213.8,-637.03"/>
</g>
<!-- m::com.android.server.am.ProcessList.startProcessLocked:(Lcom/android/server/am/ProcessRecord;Lcom/android/server/am/HostingRecord;I)V -->
<g id="node4" class="node">
<title>m::com.android.server.am.ProcessList.startProcessLocked:(Lcom/android/server/am/ProcessRecord;Lcom/android/server/am/HostingRecord;I)V</title>
<path fill="#eef2ff" stroke="#a5b4fc" d="M294,-556C294,-556 128,-556 128,-556 122,-556 116,-550 116,-544 116,-544 116,-532 116,-532 116,-526 122,-520 128,-520 128,-520 294,-520 294,-520 300,-520 306,-526 306,-532 306,-532 306,-544 306,-544 306,-550 300,-556 294,-556"/>
<text text-anchor="middle" x="211" y="-535.2" font-family="Helvetica,sans-Serif" font-size="11.00">ProcessList.startProcessLocked</text>
</g>
<!-- m::com.android.server.am.ActivityManagerService.cleanUpApplicationRecordLocked:(Lcom/android/server/am/ProcessRecord;IZZIZZ)Z&#45;&gt;m::com.android.server.am.ProcessList.startProcessLocked:(Lcom/android/server/am/ProcessRecord;Lcom/android/server/am/HostingRecord;I)V -->
<g id="edge4" class="edge">
<title>m::com.android.server.am.ActivityManagerService.cleanUpApplicationRecordLocked:(Lcom/android/server/am/ProcessRecord;IZZIZZ)Z&#45;&gt;m::com.android.server.am.ProcessList.startProcessLocked:(Lcom/android/server/am/ProcessRecord;Lcom/android/server/am/HostingRecord;I)V</title>
<path fill="none" stroke="#64748b" d="M211,-592.81C211,-584.18 211,-573.56 211,-564.03"/>
<polygon fill="#64748b" stroke="#64748b" points="213.8,-564.03 211,-556.03 208.2,-564.03 213.8,-564.03"/>
</g>
<!-- m::com.android.server.am.ProcessList.startProcessLocked:(Lcom/android/server/am/ProcessRecord;Lcom/android/server/am/HostingRecord;ILjava/lang/String;)Z -->
<g id="node5" class="node">
<title>m::com.android.server.am.ProcessList.startProcessLocked:(Lcom/android/server/am/ProcessRecord;Lcom/android/server/am/HostingRecord;ILjava/lang/String;)Z</title>
<path fill="#eef2ff" stroke="#a5b4fc" d="M294,-483C294,-483 128,-483 128,-483 122,-483 116,-477 116,-471 116,-471 116,-459 116,-459 116,-453 122,-447 128,-447 128,-447 294,-447 294,-447 300,-447 306,-453 306,-459 306,-459 306,-471 306,-471 306,-477 300,-483 294,-483"/>
<text text-anchor="middle" x="211" y="-462.2" font-family="Helvetica,sans-Serif" font-size="11.00">ProcessList.startProcessLocked</text>
</g>
<!-- m::com.android.server.am.ProcessList.startProcessLocked:(Lcom/android/server/am/ProcessRecord;Lcom/android/server/am/HostingRecord;I)V&#45;&gt;m::com.android.server.am.ProcessList.startProcessLocked:(Lcom/android/server/am/ProcessRecord;Lcom/android/server/am/HostingRecord;ILjava/lang/String;)Z -->
<g id="edge5" class="edge">
<title>m::com.android.server.am.ProcessList.startProcessLocked:(Lcom/android/server/am/ProcessRecord;Lcom/android/server/am/HostingRecord;I)V&#45;&gt;m::com.android.server.am.ProcessList.startProcessLocked:(Lcom/android/server/am/ProcessRecord;Lcom/android/server/am/HostingRecord;ILjava/lang/String;)Z</title>
<path fill="none" stroke="#64748b" d="M211,-519.81C211,-511.18 211,-500.56 211,-491.03"/>
<polygon fill="#64748b" stroke="#64748b" points="213.8,-491.03 211,-483.03 208.2,-491.03 213.8,-491.03"/>
</g>
<!-- m::com.android.server.am.ProcessList.startProcessLocked:(Lcom/android/server/am/ProcessRecord;Lcom/android/server/am/HostingRecord;IZZLjava/lang/String;)Z -->
<g id="node6" class="node">
<title>m::com.android.server.am.ProcessList.startProcessLocked:(Lcom/android/server/am/ProcessRecord;Lcom/android/server/am/HostingRecord;IZZLjava/lang/String;)Z</title>
<path fill="#eef2ff" stroke="#a5b4fc" d="M294,-410C294,-410 128,-410 128,-410 122,-410 116,-404 116,-398 116,-398 116,-386 116,-386 116,-380 122,-374 128,-374 128,-374 294,-374 294,-374 300,-374 306,-380 306,-386 306,-386 306,-398 306,-398 306,-404 300,-410 294,-410"/>
<text text-anchor="middle" x="211" y="-389.2" font-family="Helvetica,sans-Serif" font-size="11.00">ProcessList.startProcessLocked</text>
</g>
<!-- m::com.android.server.am.ProcessList.startProcessLocked:(Lcom/android/server/am/ProcessRecord;Lcom/android/server/am/HostingRecord;ILjava/lang/String;)Z&#45;&gt;m::com.android.server.am.ProcessList.startProcessLocked:(Lcom/android/server/am/ProcessRecord;Lcom/android/server/am/HostingRecord;IZZLjava/lang/String;)Z -->
<g id="edge6" class="edge">
<title>m::com.android.server.am.ProcessList.startProcessLocked:(Lcom/android/server/am/ProcessRecord;Lcom/android/server/am/HostingRecord;ILjava/lang/String;)Z&#45;&gt;m::com.android.server.am.ProcessList.startProcessLocked:(Lcom/android/server/am/ProcessRecord;Lcom/android/server/am/HostingRecord;IZZLjava/lang/String;)Z</title>
<path fill="none" stroke="#64748b" d="M211,-446.81C211,-438.18 211,-427.56 211,-418.03"/>
<polygon fill="#64748b" stroke="#64748b" points="213.8,-418.03 211,-410.03 208.2,-418.03 213.8,-418.03"/>
</g>
<!-- m::com.android.server.am.ProcessList.startProcessLocked:(Lcom/android/server/am/HostingRecord;Ljava/lang/String;Lcom/android/server/am/ProcessRecord;I[IIIILjava/lang/String;Ljava/lang/String;Ljava/lang/String;Ljava/lang/String;JJ)Z -->
<g id="node7" class="node">
<title>m::com.android.server.am.ProcessList.startProcessLocked:(Lcom/android/server/am/HostingRecord;Ljava/lang/String;Lcom/android/server/am/ProcessRecord;I[IIIILjava/lang/String;Ljava/lang/String;Ljava/lang/String;Ljava/lang/String;JJ)Z</title>
<path fill="#eef2ff" stroke="#a5b4fc" d="M294,-337C294,-337 128,-337 128,-337 122,-337 116,-331 116,-325 116,-325 116,-313 116,-313 116,-307 122,-301 128,-301 128,-301 294,-301 294,-301 300,-301 306,-307 306,-313 306,-313 306,-325 306,-325 306,-331 300,-337 294,-337"/>
<text text-anchor="middle" x="211" y="-316.2" font-family="Helvetica,sans-Serif" font-size="11.00">ProcessList.startProcessLocked</text>
</g>
<!-- m::com.android.server.am.ProcessList.startProcessLocked:(Lcom/android/server/am/ProcessRecord;Lcom/android/server/am/HostingRecord;IZZLjava/lang/String;)Z&#45;&gt;m::com.android.server.am.ProcessList.startProcessLocked:(Lcom/android/server/am/HostingRecord;Ljava/lang/String;Lcom/android/server/am/ProcessRecord;I[IIIILjava/lang/String;Ljava/lang/String;Ljava/lang/String;Ljava/lang/String;JJ)Z -->
<g id="edge7" class="edge">
<title>m::com.android.server.am.ProcessList.startProcessLocked:(Lcom/android/server/am/ProcessRecord;Lcom/android/server/am/HostingRecord;IZZLjava/lang/String;)Z&#45;&gt;m::com.android.server.am.ProcessList.startProcessLocked:(Lcom/android/server/am/HostingRecord;Ljava/lang/String;Lcom/android/server/am/ProcessRecord;I[IIIILjava/lang/String;Ljava/lang/String;Ljava/lang/String;Ljava/lang/String;JJ)Z</title>
<path fill="none" stroke="#64748b" d="M211,-373.81C211,-365.18 211,-354.56 211,-345.03"/>
<polygon fill="#64748b" stroke="#64748b" points="213.8,-345.03 211,-337.03 208.2,-345.03 213.8,-345.03"/>
</g>
<!-- m::com.android.server.am.ProcessList.startProcess:(Lcom/android/server/am/HostingRecord;Ljava/lang/String;Lcom/android/server/am/ProcessRecord;I[IIIILjava/lang/String;Ljava/lang/String;Ljava/lang/String;Ljava/lang/String;J)Landroid/os/Process$ProcessStartResult; -->
<g id="node8" class="node">
<title>m::com.android.server.am.ProcessList.startProcess:(Lcom/android/server/am/HostingRecord;Ljava/lang/String;Lcom/android/server/am/ProcessRecord;I[IIIILjava/lang/String;Ljava/lang/String;Ljava/lang/String;Ljava/lang/String;J)Landroid/os/Process$ProcessStartResult;</title>
<path fill="#eef2ff" stroke="#a5b4fc" d="M275,-264C275,-264 147,-264 147,-264 141,-264 135,-258 135,-252 135,-252 135,-240 135,-240 135,-234 141,-228 147,-228 147,-228 275,-228 275,-228 281,-228 287,-234 287,-240 287,-240 287,-252 287,-252 287,-258 281,-264 275,-264"/>
<text text-anchor="middle" x="211" y="-243.2" font-family="Helvetica,sans-Serif" font-size="11.00">ProcessList.startProcess</text>
</g>
<!-- m::com.android.server.am.ProcessList.startProcessLocked:(Lcom/android/server/am/HostingRecord;Ljava/lang/String;Lcom/android/server/am/ProcessRecord;I[IIIILjava/lang/String;Ljava/lang/String;Ljava/lang/String;Ljava/lang/String;JJ)Z&#45;&gt;m::com.android.server.am.ProcessList.startProcess:(Lcom/android/server/am/HostingRecord;Ljava/lang/String;Lcom/android/server/am/ProcessRecord;I[IIIILjava/lang/String;Ljava/lang/String;Ljava/lang/String;Ljava/lang/String;J)Landroid/os/Process$ProcessStartResult; -->
<g id="edge8" class="edge">
<title>m::com.android.server.am.ProcessList.startProcessLocked:(Lcom/android/server/am/HostingRecord;Ljava/lang/String;Lcom/android/server/am/ProcessRecord;I[IIIILjava/lang/String;Ljava/lang/String;Ljava/lang/String;Ljava/lang/String;JJ)Z&#45;&gt;m::com.android.server.am.ProcessList.startProcess:(Lcom/android/server/am/HostingRecord;Ljava/lang/String;Lcom/android/server/am/ProcessRecord;I[IIIILjava/lang/String;Ljava/lang/String;Ljava/lang/String;Ljava/lang/String;J)Landroid/os/Process$ProcessStartResult;</title>
<path fill="none" stroke="#64748b" d="M211,-300.81C211,-292.18 211,-281.56 211,-272.03"/>
<polygon fill="#64748b" stroke="#64748b" points="213.8,-272.03 211,-264.03 208.2,-272.03 213.8,-272.03"/>
</g>
<!-- m::com.android.server.StorageManagerService$StorageManagerInternalImpl.prepareStorageDirs:(ILjava/util/Set;Ljava/lang/String;)Z -->
<g id="node9" class="node">
<title>m::com.android.server.StorageManagerService$StorageManagerInternalImpl.prepareStorageDirs:(ILjava/util/Set;Ljava/lang/String;)Z</title>
<path fill="#eef2ff" stroke="#a5b4fc" d="M410,-191C410,-191 12,-191 12,-191 6,-191 0,-185 0,-179 0,-179 0,-167 0,-167 0,-161 6,-155 12,-155 12,-155 410,-155 410,-155 416,-155 422,-161 422,-167 422,-167 422,-179 422,-179 422,-185 416,-191 410,-191"/>
<text text-anchor="middle" x="211" y="-170.2" font-family="Helvetica,sans-Serif" font-size="11.00">StorageManagerService$StorageManagerInternalImpl.prepareStorageDirs</text>
</g>
<!-- m::com.android.server.am.ProcessList.startProcess:(Lcom/android/server/am/HostingRecord;Ljava/lang/String;Lcom/android/server/am/ProcessRecord;I[IIIILjava/lang/String;Ljava/lang/String;Ljava/lang/String;Ljava/lang/String;J)Landroid/os/Process$ProcessStartResult;&#45;&gt;m::com.android.server.StorageManagerService$StorageManagerInternalImpl.prepareStorageDirs:(ILjava/util/Set;Ljava/lang/String;)Z -->
<g id="edge9" class="edge">
<title>m::com.android.server.am.ProcessList.startProcess:(Lcom/android/server/am/HostingRecord;Ljava/lang/String;Lcom/android/server/am/ProcessRecord;I[IIIILjava/lang/String;Ljava/lang/String;Ljava/lang/String;Ljava/lang/String;J)Landroid/os/Process$ProcessStartResult;&#45;&gt;m::com.android.server.StorageManagerService$StorageManagerInternalImpl.prepareStorageDirs:(ILjava/util/Set;Ljava/lang/String;)Z</title>
<path fill="none" stroke="#64748b" d="M211,-227.81C211,-219.18 211,-208.56 211,-199.03"/>
<polygon fill="#64748b" stroke="#64748b" points="213.8,-199.03 211,-191.03 208.2,-199.03 213.8,-199.03"/>
</g>
<!-- m::android.os.IVold$Stub$Proxy.ensureAppDirsCreated:([Ljava/lang/String;I)V -->
<g id="node10" class="node">
<title>m::android.os.IVold$Stub$Proxy.ensureAppDirsCreated:([Ljava/lang/String;I)V</title>
<path fill="#eef2ff" stroke="#a5b4fc" d="M318.5,-118C318.5,-118 103.5,-118 103.5,-118 97.5,-118 91.5,-112 91.5,-106 91.5,-106 91.5,-94 91.5,-94 91.5,-88 97.5,-82 103.5,-82 103.5,-82 318.5,-82 318.5,-82 324.5,-82 330.5,-88 330.5,-94 330.5,-94 330.5,-106 330.5,-106 330.5,-112 324.5,-118 318.5,-118"/>
<text text-anchor="middle" x="211" y="-97.2" font-family="Helvetica,sans-Serif" font-size="11.00">IVold$Stub$Proxy.ensureAppDirsCreated</text>
</g>
<!-- m::com.android.server.StorageManagerService$StorageManagerInternalImpl.prepareStorageDirs:(ILjava/util/Set;Ljava/lang/String;)Z&#45;&gt;m::android.os.IVold$Stub$Proxy.ensureAppDirsCreated:([Ljava/lang/String;I)V -->
<g id="edge10" class="edge">
<title>m::com.android.server.StorageManagerService$StorageManagerInternalImpl.prepareStorageDirs:(ILjava/util/Set;Ljava/lang/String;)Z&#45;&gt;m::android.os.IVold$Stub$Proxy.ensureAppDirsCreated:([Ljava/lang/String;I)V</title>
<path fill="none" stroke="#64748b" d="M211,-154.81C211,-146.18 211,-135.56 211,-126.03"/>
<polygon fill="#64748b" stroke="#64748b" points="213.8,-126.03 211,-118.03 208.2,-126.03 213.8,-126.03"/>
</g>
<!-- __ipc__ -->
<g id="node11" class="node">
<title>__ipc__</title>
<path fill="#fde68a" stroke="#d97706" stroke-width="2" d="M255,-36C255,-36 167,-36 167,-36 161,-36 155,-30 155,-24 155,-24 155,-12 155,-12 155,-6 161,0 167,0 167,0 255,0 255,0 261,0 267,-6 267,-12 267,-12 267,-24 267,-24 267,-30 261,-36 255,-36"/>
<text text-anchor="middle" x="211" y="-21.2" font-family="Helvetica,sans-Serif" font-size="11.00">Binder IPC</text>
<text text-anchor="middle" x="211" y="-9.2" font-family="Helvetica,sans-Serif" font-size="11.00">(remote process)</text>
</g>
<!-- m::android.os.IVold$Stub$Proxy.ensureAppDirsCreated:([Ljava/lang/String;I)V&#45;&gt;__ipc__ -->
<g id="edge11" class="edge">
<title>m::android.os.IVold$Stub$Proxy.ensureAppDirsCreated:([Ljava/lang/String;I)V&#45;&gt;__ipc__</title>
<path fill="none" stroke="#d97706" stroke-width="1.6" d="M211,-81.64C211,-70.66 211,-56.29 211,-44.09"/>
<polygon fill="#d97706" stroke="#d97706" stroke-width="1.6" points="213.8,-44.05 211,-36.05 208.2,-44.05 213.8,-44.05"/>
<text text-anchor="middle" x="234" y="-56.8" font-family="Helvetica,sans-Serif" font-size="9.00" fill="#b45309"> transacts</text>
</g>
<!-- com.android.server.am.ActivityManagerService -->
<g id="node12" class="node">
<title>com.android.server.am.ActivityManagerService</title>
<path fill="#fee2e2" stroke="#dc2626" stroke-width="2" d="M283,-857C283,-857 139,-857 139,-857 133,-857 127,-851 127,-845 127,-845 127,-833 127,-833 127,-827 133,-821 139,-821 139,-821 283,-821 283,-821 289,-821 295,-827 295,-833 295,-833 295,-845 295,-845 295,-851 289,-857 283,-857"/>
<text text-anchor="middle" x="211" y="-836.2" font-family="Helvetica,sans-Serif" font-size="11.00">am.ActivityManagerService</text>
</g>
<!-- com.android.server.am.ActivityManagerService&#45;&gt;m::com.android.server.am.ActivityManagerService.finishAttachApplicationInner:(JII)V -->
<g id="edge1" class="edge">
<title>com.android.server.am.ActivityManagerService&#45;&gt;m::com.android.server.am.ActivityManagerService.finishAttachApplicationInner:(JII)V</title>
<path fill="none" stroke="#dc2626" stroke-width="1.6" d="M211,-820.64C211,-809.66 211,-795.29 211,-783.09"/>
<polygon fill="#dc2626" stroke="#dc2626" stroke-width="1.6" points="213.8,-783.05 211,-775.05 208.2,-783.05 213.8,-783.05"/>
<text text-anchor="middle" x="228" y="-795.8" font-family="Helvetica,sans-Serif" font-size="9.00" fill="#dc2626"> held in</text>
</g>
</g>
</svg>
