<?xml version="1.0" encoding="UTF-8" standalone="no"?>
<!DOCTYPE svg PUBLIC "-//W3C//DTD SVG 1.1//EN"
 "http://www.w3.org/Graphics/SVG/1.1/DTD/svg11.dtd">
<!-- Generated by graphviz version 2.43.0 (0)
 -->
<!-- Title: binder Pages: 1 -->
<svg width="430pt" height="1230pt"
 viewBox="0.00 0.00 430.00 1230.00" xmlns="http://www.w3.org/2000/svg" xmlns:xlink="http://www.w3.org/1999/xlink">
<g id="graph0" class="graph" transform="scale(1 1) rotate(0) translate(4 1226)">
<title>binder</title>
<polygon fill="white" stroke="transparent" points="-4,4 -4,-1226 426,-1226 426,4 -4,4"/>
<!-- m::com.android.server.am.ActivityManagerService.startService:(Landroid/app/IApplicationThread;Landroid/content/Intent;Ljava/lang/String;ZLjava/lang/String;Ljava/lang/String;IZILjava/lang/String;Ljava/lang/String;)Landroid/content/ComponentName; -->
<g id="node1" class="node">
<title>m::com.android.server.am.ActivityManagerService.startService:(Landroid/app/IApplicationThread;Landroid/content/Intent;Ljava/lang/String;ZLjava/lang/String;Ljava/lang/String;IZILjava/lang/String;Ljava/lang/String;)Landroid/content/ComponentName;</title>
<path fill="#eef2ff" stroke="#a5b4fc" d="M308,-1140C308,-1140 114,-1140 114,-1140 108,-1140 102,-1134 102,-1128 102,-1128 102,-1116 102,-1116 102,-1110 108,-1104 114,-1104 114,-1104 308,-1104 308,-1104 314,-1104 320,-1110 320,-1116 320,-1116 320,-1128 320,-1128 320,-1134 314,-1140 308,-1140"/>
<text text-anchor="middle" x="211" y="-1119.2" font-family="Helvetica,sans-Serif" font-size="11.00">ActivityManagerService.startService</text>
</g>
<!-- m::com.android.server.am.ActiveServices.startServiceLocked:(Landroid/app/IApplicationThread;Landroid/content/Intent;Ljava/lang/String;IIZLjava/lang/String;Ljava/lang/String;IZILjava/lang/String;Ljava/lang/String;)Landroid/content/ComponentName; -->
<g id="node2" class="node">
<title>m::com.android.server.am.ActiveServices.startServiceLocked:(Landroid/app/IApplicationThread;Landroid/content/Intent;Ljava/lang/String;IIZLjava/lang/String;Ljava/lang/String;IZILjava/lang/String;Ljava/lang/String;)Landroid/content/ComponentName;</title>
<path fill="#eef2ff" stroke="#a5b4fc" d="M302,-1067C302,-1067 120,-1067 120,-1067 114,-1067 108,-1061 108,-1055 108,-1055 108,-1043 108,-1043 108,-1037 114,-1031 120,-1031 120,-1031 302,-1031 302,-1031 308,-1031 314,-1037 314,-1043 314,-1043 314,-1055 314,-1055 314,-1061 308,-1067 302,-1067"/>
<text text-anchor="middle" x="211" y="-1046.2" font-family="Helvetica,sans-Serif" font-size="11.00">ActiveServices.startServiceLocked</text>
</g>
<!-- m::com.android.server.am.ActivityManagerService.startService:(Landroid/app/IApplicationThread;Landroid/content/Intent;Ljava/lang/String;ZLjava/lang/String;Ljava/lang/String;IZILjava/lang/String;Ljava/lang/String;)Landroid/content/ComponentName;&#45;&gt;m::com.android.server.am.ActiveServices.startServiceLocked:(Landroid/app/IApplicationThread;Landroid/content/Intent;Ljava/lang/String;IIZLjava/lang/String;Ljava/lang/String;IZILjava/lang/String;Ljava/lang/String;)Landroid/content/ComponentName; -->
<g id="edge2" class="edge">
<title>m::com.android.server.am.ActivityManagerService.startService:(Landroid/app/IApplicationThread;Landroid/content/Intent;Ljava/lang/String;ZLjava/lang/String;Ljava/lang/String;IZILjava/lang/String;Ljava/lang/String;)Landroid/content/ComponentName;&#45;&gt;m::com.android.server.am.ActiveServices.startServiceLocked:(Landroid/app/IApplicationThread;Landroid/content/Intent;Ljava/lang/String;IIZLjava/lang/String;Ljava/lang/String;IZILjava/lang/String;Ljava/lang/String;)Landroid/content/ComponentName;</title>
<path fill="none" stroke="#64748b" d="M211,-1103.81C211,-1095.18 211,-1084.56 211,-1075.03"/>
<polygon fill="#64748b" stroke="#64748b" points="213.8,-1075.03 211,-1067.03 208.2,-1075.03 213.8,-1075.03"/>
</g>
<!-- m::com.android.server.am.ActiveServices.startServiceLocked:(Landroid/app/IApplicationThread;Landroid/content/Intent;Ljava/lang/String;IIZLjava/lang/String;Ljava/lang/String;ILandroid/app/BackgroundStartPrivileges;ZILjava/lang/String;Ljava/lang/String;)Landroid/content/ComponentName; -->
<g id="node3" class="node">
<title>m::com.android.server.am.ActiveServices.startServiceLocked:(Landroid/app/IApplicationThread;Landroid/content/Intent;Ljava/lang/String;IIZLjava/lang/String;Ljava/lang/String;ILandroid/app/BackgroundStartPrivileges;ZILjava/lang/String;Ljava/lang/String;)Landroid/content/ComponentName;</title>
<path fill="#eef2ff" stroke="#a5b4fc" d="M302,-994C302,-994 120,-994 120,-994 114,-994 108,-988 108,-982 108,-982 108,-970 108,-970 108,-964 114,-958 120,-958 120,-958 302,-958 302,-958 308,-958 314,-964 314,-970 314,-970 314,-982 314,-982 314,-988 308,-994 302,-994"/>
<text text-anchor="middle" x="211" y="-973.2" font-family="Helvetica,sans-Serif" font-size="11.00">ActiveServices.startServiceLocked</text>
</g>
<!-- m::com.android.server.am.ActiveServices.startServiceLocked:(Landroid/app/IApplicationThread;Landroid/content/Intent;Ljava/lang/String;IIZLjava/lang/String;Ljava/lang/String;IZILjava/lang/String;Ljava/lang/String;)Landroid/content/ComponentName;&#45;&gt;m::com.android.server.am.ActiveServices.startServiceLocked:(Landroid/app/IApplicationThread;Landroid/content/Intent;Ljava/lang/String;IIZLjava/lang/String;Ljava/lang/String;ILandroid/app/BackgroundStartPrivileges;ZILjava/lang/String;Ljava/lang/String;)Landroid/content/ComponentName; -->
<g id="edge3" class="edge">
<title>m::com.android.server.am.ActiveServices.startServiceLocked:(Landroid/app/IApplicationThread;Landroid/content/Intent;Ljava/lang/String;IIZLjava/lang/String;Ljava/lang/String;IZILjava/lang/String;Ljava/lang/String;)Landroid/content/ComponentName;&#45;&gt;m::com.android.server.am.ActiveServices.startServiceLocked:(Landroid/app/IApplicationThread;Landroid/content/Intent;Ljava/lang/String;IIZLjava/lang/String;Ljava/lang/String;ILandroid/app/BackgroundStartPrivileges;ZILjava/lang/String;Ljava/lang/String;)Landroid/content/ComponentName;</title>
<path fill="none" stroke="#64748b" d="M211,-1030.81C211,-1022.18 211,-1011.56 211,-1002.03"/>
<polygon fill="#64748b" stroke="#64748b" points="213.8,-1002.03 211,-994.03 208.2,-1002.03 213.8,-1002.03"/>
</g>
<!-- m::com.android.server.am.ActiveServices.startServiceInnerLocked:(Lcom/android/server/am/ServiceRecord;Landroid/content/Intent;IILjava/lang/String;IZZLandroid/app/BackgroundStartPrivileges;Ljava/lang/String;)Landroid/content/ComponentName; -->
<g id="node4" class="node">
<title>m::com.android.server.am.ActiveServices.startServiceInnerLocked:(Lcom/android/server/am/ServiceRecord;Landroid/content/Intent;IILjava/lang/String;IZZLandroid/app/BackgroundStartPrivileges;Ljava/lang/String;)Landroid/content/ComponentName;</title>
<path fill="#eef2ff" stroke="#a5b4fc" d="M316,-921C316,-921 106,-921 106,-921 100,-921 94,-915 94,-909 94,-909 94,-897 94,-897 94,-891 100,-885 106,-885 106,-885 316,-885 316,-885 322,-885 328,-891 328,-897 328,-897 328,-909 328,-909 328,-915 322,-921 316,-921"/>
<text text-anchor="middle" x="211" y="-900.2" font-family="Helvetica,sans-Serif" font-size="11.00">ActiveServices.startServiceInnerLocked</text>
</g>
<!-- m::com.android.server.am.ActiveServices.startServiceLocked:(Landroid/app/IApplicationThread;Landroid/content/Intent;Ljava/lang/String;IIZLjava/lang/String;Ljava/lang/String;ILandroid/app/BackgroundStartPrivileges;ZILjava/lang/String;Ljava/lang/String;)Landroid/content/ComponentName;&#45;&gt;m::com.android.server.am.ActiveServices.startServiceInnerLocked:(Lcom/android/server/am/ServiceRecord;Landroid/content/Intent;IILjava/lang/String;IZZLandroid/app/BackgroundStartPrivileges;Ljava/lang/String;)Landroid/content/ComponentName; -->
<g id="edge4" class="edge">
<title>m::com.android.server.am.ActiveServices.startServiceLocked:(Landroid/app/IApplicationThread;Landroid/content/Intent;Ljava/lang/String;IIZLjava/lang/String;Ljava/lang/String;ILandroid/app/BackgroundStartPrivileges;ZILjava/lang/String;Ljava/lang/String;)Landroid/content/ComponentName;&#45;&gt;m::com.android.server.am.ActiveServices.startServiceInnerLocked:(Lcom/android/server/am/ServiceRecord;Landroid/content/Intent;IILjava/lang/String;IZZLandroid/app/BackgroundStartPrivileges;Ljava/lang/String;)Landroid/content/ComponentName;</title>
<path fill="none" stroke="#64748b" d="M211,-957.81C211,-949.18 211,-938.56 211,-929.03"/>
<polygon fill="#64748b" stroke="#64748b" points="213.8,-929.03 211,-921.03 208.2,-929.03 213.8,-929.03"/>
</g>
<!-- m::com.android.server.am.ActiveServices.startServiceInnerLocked:(Lcom/android/server/am/ActiveServices$ServiceMap;Landroid/content/Intent;Lcom/android/server/am/ServiceRecord;ZZILjava/lang/String;IZLjava/lang/String;)Landroid/content/ComponentName; -->
<g id="node5" class="node">
<title>m::com.android.server.am.ActiveServices.startServiceInnerLocked:(Lcom/android/server/am/ActiveServices$ServiceMap;Landroid/content/Intent;Lcom/android/server/am/ServiceRecord;ZZILjava/lang/String;IZLjava/lang/String;)Landroid/content/ComponentName;</title>
<path fill="#eef2ff" stroke="#a5b4fc" d="M316,-848C316,-848 106,-848 106,-848 100,-848 94,-842 94,-836 94,-836 94,-824 94,-824 94,-818 100,-812 106,-812 106,-812 316,-812 316,-812 322,-812 328,-818 328,-824 328,-824 328,-836 328,-836 328,-842 322,-848 316,-848"/>
<text text-anchor="middle" x="211" y="-827.2" font-family="Helvetica,sans-Serif" font-size="11.00">ActiveServices.startServiceInnerLocked</text>
</g>
<!-- m::com.android.server.am.ActiveServices.startServiceInnerLocked:(Lcom/android/server/am/ServiceRecord;Landroid/content/Intent;IILjava/lang/String;IZZLandroid/app/BackgroundStartPrivileges;Ljava/lang/String;)Landroid/content/ComponentName;&#45;&gt;m::com.android.server.am.ActiveServices.startServiceInnerLocked:(Lcom/android/server/am/ActiveServices$ServiceMap;Landroid/content/Intent;Lcom/android/server/am/ServiceRecord;ZZILjava/lang/String;IZLjava/lang/String;)Landroid/content/ComponentName; -->
<g id="edge5" class="edge">
<title>m::com.android.server.am.ActiveServices.startServiceInnerLocked:(Lcom/android/server/am/ServiceRecord;Landroid/content/Intent;IILjava/lang/String;IZZLandroid/app/BackgroundStartPrivileges;Ljava/lang/String;)Landroid/content/ComponentName;&#45;&gt;m::com.android.server.am.ActiveServices.startServiceInnerLocked:(Lcom/android/server/am/ActiveServices$ServiceMap;Landroid/content/Intent;Lcom/android/server/am/ServiceRecord;ZZILjava/lang/String;IZLjava/lang/String;)Landroid/content/ComponentName;</title>
<path fill="none" stroke="#64748b" d="M211,-884.81C211,-876.18 211,-865.56 211,-856.03"/>
<polygon fill="#64748b" stroke="#64748b" points="213.8,-856.03 211,-848.03 208.2,-856.03 213.8,-856.03"/>
</g>
<!-- m::com.android.server.am.ActiveServices.bringUpServiceLocked:(Lcom/android/server/am/ServiceRecord;IZZZZZI)Ljava/lang/String; -->
<g id="node6" class="node">
<title>m::com.android.server.am.ActiveServices.bringUpServiceLocked:(Lcom/android/server/am/ServiceRecord;IZZZZZI)Ljava/lang/String;</title>
<path fill="#eef2ff" stroke="#a5b4fc" d="M310.5,-775C310.5,-775 111.5,-775 111.5,-775 105.5,-775 99.5,-769 99.5,-763 99.5,-763 99.5,-751 99.5,-751 99.5,-745 105.5,-739 111.5,-739 111.5,-739 310.5,-739 310.5,-739 316.5,-739 322.5,-745 322.5,-751 322.5,-751 322.5,-763 322.5,-763 322.5,-769 316.5,-775 310.5,-775"/>
<text text-anchor="middle" x="211" y="-754.2" font-family="Helvetica,sans-Serif" font-size="11.00">ActiveServices.bringUpServiceLocked</text>
</g>
<!-- m::com.android.server.am.ActiveServices.startServiceInnerLocked:(Lcom/android/server/am/ActiveServices$ServiceMap;Landroid/content/Intent;Lcom/android/server/am/ServiceRecord;ZZILjava/lang/String;IZLjava/lang/String;)Landroid/content/ComponentName;&#45;&gt;m::com.android.server.am.ActiveServices.bringUpServiceLocked:(Lcom/android/server/am/ServiceRecord;IZZZZZI)Ljava/lang/String; -->
<g id="edge6" class="edge">
<title>m::com.android.server.am.ActiveServices.startServiceInnerLocked:(Lcom/android/server/am/ActiveServices$ServiceMap;Landroid/content/Intent;Lcom/android/server/am/ServiceRecord;ZZILjava/lang/String;IZLjava/lang/String;)Landroid/content/ComponentName;&#45;&gt;m::com.android.server.am.ActiveServices.bringUpServiceLocked:(Lcom/android/server/am/ServiceRecord;IZZZZZI)Ljava/lang/String;</title>
<path fill="none" stroke="#64748b" d="M211,-811.81C211,-803.18 211,-792.56 211,-783.03"/>
<polygon fill="#64748b" stroke="#64748b" points="213.8,-783.03 211,-775.03 208.2,-783.03 213.8,-783.03"/>
</g>
<!-- m::com.android.server.am.ActiveServices.bringUpServiceInnerLocked:(Lcom/android/server/am/ServiceRecord;IZZZZZI)Ljava/lang/String; -->
<g id="node7" class="node">
<title>m::com.android.server.am.ActiveServices.bringUpServiceInnerLocked:(Lcom/android/server/am/ServiceRecord;IZZZZZI)Ljava/lang/String;</title>
<path fill="#eef2ff" stroke="#a5b4fc" d="M324.5,-702C324.5,-702 97.5,-702 97.5,-702 91.5,-702 85.5,-696 85.5,-690 85.5,-690 85.5,-678 85.5,-678 85.5,-672 91.5,-666 97.5,-666 97.5,-666 324.5,-666 324.5,-666 330.5,-666 336.5,-672 336.5,-678 336.5,-678 336.5,-690 336.5,-690 336.5,-696 330.5,-702 324.5,-702"/>
<text text-anchor="middle" x="211" y="-681.2" font-family="Helvetica,sans-Serif" font-size="11.00">ActiveServices.bringUpServiceInnerLocked</text>
</g>
<!-- m::com.android.server.am.ActiveServices.bringUpServiceLocked:(Lcom/android/server/am/ServiceRecord;IZZZZZI)Ljava/lang/String;&#45;&gt;m::com.android.server.am.ActiveServices.bringUpServiceInnerLocked:(Lcom/android/server/am/ServiceRecord;IZZZZZI)Ljava/lang/String; -->
<g id="edge7" class="edge">
<title>m::com.android.server.am.ActiveServices.bringUpServiceLocked:(Lcom/android/server/am/ServiceRecord;IZZZZZI)Ljava/lang/String;&#45;&gt;m::com.android.server.am.ActiveServices.bringUpServiceInnerLocked:(Lcom/android/server/am/ServiceRecord;IZZZZZI)Ljava/lang/String;</title>
<path fill="none" stroke="#64748b" d="M211,-738.81C211,-730.18 211,-719.56 211,-710.03"/>
<polygon fill="#64748b" stroke="#64748b" points="213.8,-710.03 211,-702.03 208.2,-710.03 213.8,-710.03"/>
</g>
<!-- m::com.android.server.am.ActivityManagerService.startSdkSandboxProcessLocked:(Ljava/lang/String;Landroid/content/pm/ApplicationInfo;ZILcom/android/server/am/HostingRecord;IILjava/lang/String;)Lcom/android/server/am/ProcessRecord; -->
<g id="node8" class="node">
<title>m::com.android.server.am.ActivityManagerService.startSdkSandboxProcessLocked:(Ljava/lang/String;Landroid/content/pm/ApplicationInfo;ZILcom/android/server/am/HostingRecord;IILjava/lang/String;)Lcom/android/server/am/ProcessRecord;</title>
<path fill="#eef2ff" stroke="#a5b4fc" d="M361.5,-629C361.5,-629 60.5,-629 60.5,-629 54.5,-629 48.5,-623 48.5,-617 48.5,-617 48.5,-605 48.5,-605 48.5,-599 54.5,-593 60.5,-593 60.5,-593 361.5,-593 361.5,-593 367.5,-593 373.5,-599 373.5,-605 373.5,-605 373.5,-617 373.5,-617 373.5,-623 367.5,-629 361.5,-629"/>
<text text-anchor="middle" x="211" y="-608.2" font-family="Helvetica,sans-Serif" font-size="11.00">ActivityManagerService.startSdkSandboxProcessLocked</text>
</g>
<!-- m::com.android.server.am.ActiveServices.bringUpServiceInnerLocked:(Lcom/android/server/am/ServiceRecord;IZZZZZI)Ljava/lang/String;&#45;&gt;m::com.android.server.am.ActivityManagerService.startSdkSandboxProcessLocked:(Ljava/lang/String;Landroid/content/pm/ApplicationInfo;ZILcom/android/server/am/HostingRecord;IILjava/lang/String;)Lcom/android/server/am/ProcessRecord; -->
<g id="edge8" class="edge">
<title>m::com.android.server.am.ActiveServices.bringUpServiceInnerLocked:(Lcom/android/server/am/ServiceRecord;IZZZZZI)Ljava/lang/String;&#45;&gt;m::com.android.server.am.ActivityManagerService.startSdkSandboxProcessLocked:(Ljava/lang/String;Landroid/content/pm/ApplicationInfo;ZILcom/android/server/am/HostingRecord;IILjava/lang/String;)Lcom/android/server/am/ProcessRecord;</title>
<path fill="none" stroke="#64748b" d="M211,-665.81C211,-657.18 211,-646.56 211,-637.03"/>
<polygon fill="#64748b" stroke="#64748b" points="213.8,-637.03 211,-629.03 208.2,-637.03 213.8,-637.03"/>
</g>
<!-- m::com.android.server.am.ProcessList.startProcessLocked:(Ljava/lang/String;Landroid/content/pm/ApplicationInfo;ZILcom/android/server/am/HostingRecord;IZZIZILjava/lang/String;Ljava/lang/String;Ljava/lang/String;[Ljava/lang/String;Ljava/lang/Runnable;)Lcom/android/server/am/ProcessRecord; -->
<g id="node9" class="node">
<title>m::com.android.server.am.ProcessList.startProcessLocked:(Ljava/lang/String;Landroid/content/pm/ApplicationInfo;ZILcom/android/server/am/HostingRecord;IZZIZILjava/lang/String;Ljava/lang/String;Ljava/lang/String;[Ljava/lang/String;Ljava/lang/Runnable;)Lcom/android/server/am/ProcessRecord;</title>
<path fill="#eef2ff" stroke="#a5b4fc" d="M294,-556C294,-556 128,-556 128,-556 122,-556 116,-550 116,-544 116,-544 116,-532 116,-532 116,-526 122,-520 128,-520 128,-520 294,-520 294,-520 300,-520 306,-526 306,-532 306,-532 306,-544 306,-544 306,-550 300,-556 294,-556"/>
<text text-anchor="middle" x="211" y="-535.2" font-family="Helvetica,sans-Serif" font-size="11.00">ProcessList.startProcessLocked</text>
</g>
<!-- m::com.android.server.am.ActivityManagerService.startSdkSandboxProcessLocked:(Ljava/lang/String;Landroid/content/pm/ApplicationInfo;ZILcom/android/server/am/HostingRecord;IILjava/lang/String;)Lcom/android/server/am/ProcessRecord;&#45;&gt;m::com.android.server.am.ProcessList.startProcessLocked:(Ljava/lang/String;Landroid/content/pm/ApplicationInfo;ZILcom/android/server/am/HostingRecord;IZZIZILjava/lang/String;Ljava/lang/String;Ljava/lang/String;[Ljava/lang/String;Ljava/lang/Runnable;)Lcom/android/server/am/ProcessRecord; -->
<g id="edge9" class="edge">
<title>m::com.android.server.am.ActivityManagerService.startSdkSandboxProcessLocked:(Ljava/lang/String;Landroid/content/pm/ApplicationInfo;ZILcom/android/server/am/HostingRecord;IILjava/lang/String;)Lcom/android/server/am/ProcessRecord;&#45;&gt;m::com.android.server.am.ProcessList.startProcessLocked:(Ljava/lang/String;Landroid/content/pm/ApplicationInfo;ZILcom/android/server/am/HostingRecord;IZZIZILjava/lang/String;Ljava/lang/String;Ljava/lang/String;[Ljava/lang/String;Ljava/lang/Runnable;)Lcom/android/server/am/ProcessRecord;</title>
<path fill="none" stroke="#64748b" d="M211,-592.81C211,-584.18 211,-573.56 211,-564.03"/>
<polygon fill="#64748b" stroke="#64748b" points="213.8,-564.03 211,-556.03 208.2,-564.03 213.8,-564.03"/>
</g>
<!-- m::com.android.server.am.ProcessList.startProcessLocked:(Lcom/android/server/am/ProcessRecord;Lcom/android/server/am/HostingRecord;ILjava/lang/String;)Z -->
<g id="node10" class="node">
<title>m::com.android.server.am.ProcessList.startProcessLocked:(Lcom/android/server/am/ProcessRecord;Lcom/android/server/am/HostingRecord;ILjava/lang/String;)Z</title>
<path fill="#eef2ff" stroke="#a5b4fc" d="M294,-483C294,-483 128,-483 128,-483 122,-483 116,-477 116,-471 116,-471 116,-459 116,-459 116,-453 122,-447 128,-447 128,-447 294,-447 294,-447 300,-447 306,-453 306,-459 306,-459 306,-471 306,-471 306,-477 300,-483 294,-483"/>
<text text-anchor="middle" x="211" y="-462.2" font-family="Helvetica,sans-Serif" font-size="11.00">ProcessList.startProcessLocked</text>
</g>
<!-- m::com.android.server.am.ProcessList.startProcessLocked:(Ljava/lang/String;Landroid/content/pm/ApplicationInfo;ZILcom/android/server/am/HostingRecord;IZZIZILjava/lang/String;Ljava/lang/String;Ljava/lang/String;[Ljava/lang/String;Ljava/lang/Runnable;)Lcom/android/server/am/ProcessRecord;&#45;&gt;m::com.android.server.am.ProcessList.startProcessLocked:(Lcom/android/server/am/ProcessRecord;Lcom/android/server/am/HostingRecord;ILjava/lang/String;)Z -->
<g id="edge10" class="edge">
<title>m::com.android.server.am.ProcessList.startProcessLocked:(Ljava/lang/String;Landroid/content/pm/ApplicationInfo;ZILcom/android/server/am/HostingRecord;IZZIZILjava/lang/String;Ljava/lang/String;Ljava/lang/String;[Ljava/lang/String;Ljava/lang/Runnable;)Lcom/android/server/am/ProcessRecord;&#45;&gt;m::com.android.server.am.ProcessList.startProcessLocked:(Lcom/android/server/am/ProcessRecord;Lcom/android/server/am/HostingRecord;ILjava/lang/String;)Z</title>
<path fill="none" stroke="#64748b" d="M211,-519.81C211,-511.18 211,-500.56 211,-491.03"/>
<polygon fill="#64748b" stroke="#64748b" points="213.8,-491.03 211,-483.03 208.2,-491.03 213.8,-491.03"/>
</g>
<!-- m::com.android.server.am.ProcessList.startProcessLocked:(Lcom/android/server/am/ProcessRecord;Lcom/android/server/am/HostingRecord;IZZLjava/lang/String;)Z -->
<g id="node11" class="node">
<title>m::com.android.server.am.ProcessList.startProcessLocked:(Lcom/android/server/am/ProcessRecord;Lcom/android/server/am/HostingRecord;IZZLjava/lang/String;)Z</title>
<path fill="#eef2ff" stroke="#a5b4fc" d="M294,-410C294,-410 128,-410 128,-410 122,-410 116,-404 116,-398 116,-398 116,-386 116,-386 116,-380 122,-374 128,-374 128,-374 294,-374 294,-374 300,-374 306,-380 306,-386 306,-386 306,-398 306,-398 306,-404 300,-410 294,-410"/>
<text text-anchor="middle" x="211" y="-389.2" font-family="Helvetica,sans-Serif" font-size="11.00">ProcessList.startProcessLocked</text>
</g>
<!-- m::com.android.server.am.ProcessList.startProcessLocked:(Lcom/android/server/am/ProcessRecord;Lcom/android/server/am/HostingRecord;ILjava/lang/String;)Z&#45;&gt;m::com.android.server.am.ProcessList.startProcessLocked:(Lcom/android/server/am/ProcessRecord;Lcom/android/server/am/HostingRecord;IZZLjava/lang/String;)Z -->
<g id="edge11" class="edge">
<title>m::com.android.server.am.ProcessList.startProcessLocked:(Lcom/android/server/am/ProcessRecord;Lcom/android/server/am/HostingRecord;ILjava/lang/String;)Z&#45;&gt;m::com.android.server.am.ProcessList.startProcessLocked:(Lcom/android/server/am/ProcessRecord;Lcom/android/server/am/HostingRecord;IZZLjava/lang/String;)Z</title>
<path fill="none" stroke="#64748b" d="M211,-446.81C211,-438.18 211,-427.56 211,-418.03"/>
<polygon fill="#64748b" stroke="#64748b" points="213.8,-418.03 211,-410.03 208.2,-418.03 213.8,-418.03"/>
</g>
<!-- m::com.android.server.am.ProcessList.startProcessLocked:(Lcom/android/server/am/HostingRecord;Ljava/lang/String;Lcom/android/server/am/ProcessRecord;I[IIIILjava/lang/String;Ljava/lang/String;Ljava/lang/String;Ljava/lang/String;JJ)Z -->
<g id="node12" class="node">
<title>m::com.android.server.am.ProcessList.startProcessLocked:(Lcom/android/server/am/HostingRecord;Ljava/lang/String;Lcom/android/server/am/ProcessRecord;I[IIIILjava/lang/String;Ljava/lang/String;Ljava/lang/String;Ljava/lang/String;JJ)Z</title>
<path fill="#eef2ff" stroke="#a5b4fc" d="M294,-337C294,-337 128,-337 128,-337 122,-337 116,-331 116,-325 116,-325 116,-313 116,-313 116,-307 122,-301 128,-301 128,-301 294,-301 294,-301 300,-301 306,-307 306,-313 306,-313 306,-325 306,-325 306,-331 300,-337 294,-337"/>
<text text-anchor="middle" x="211" y="-316.2" font-family="Helvetica,sans-Serif" font-size="11.00">ProcessList.startProcessLocked</text>
</g>
<!-- m::com.android.server.am.ProcessList.startProcessLocked:(Lcom/android/server/am/ProcessRecord;Lcom/android/server/am/HostingRecord;IZZLjava/lang/String;)Z&#45;&gt;m::com.android.server.am.ProcessList.startProcessLocked:(Lcom/android/server/am/HostingRecord;Ljava/lang/String;Lcom/android/server/am/ProcessRecord;I[IIIILjava/lang/String;Ljava/lang/String;Ljava/lang/String;Ljava/lang/String;JJ)Z -->
<g id="edge12" class="edge">
<title>m::com.android.server.am.ProcessList.startProcessLocked:(Lcom/android/server/am/ProcessRecord;Lcom/android/server/am/HostingRecord;IZZLjava/lang/String;)Z&#45;&gt;m::com.android.server.am.ProcessList.startProcessLocked:(Lcom/android/server/am/HostingRecord;Ljava/lang/String;Lcom/android/server/am/ProcessRecord;I[IIIILjava/lang/String;Ljava/lang/String;Ljava/lang/String;Ljava/lang/String;JJ)Z</title>
<path fill="none" stroke="#64748b" d="M211,-373.81C211,-365.18 211,-354.56 211,-345.03"/>
<polygon fill="#64748b" stroke="#64748b" points="213.8,-345.03 211,-337.03 208.2,-345.03 213.8,-345.03"/>
</g>
<!-- m::com.android.server.am.ProcessList.startProcess:(Lcom/android/server/am/HostingRecord;Ljava/lang/String;Lcom/android/server/am/ProcessRecord;I[IIIILjava/lang/String;Ljava/lang/String;Ljava/lang/String;Ljava/lang/String;J)Landroid/os/Process$ProcessStartResult; -->
<g id="node13" class="node">
<title>m::com.android.server.am.ProcessList.startProcess:(Lcom/android/server/am/HostingRecord;Ljava/lang/String;Lcom/android/server/am/ProcessRecord;I[IIIILjava/lang/String;Ljava/lang/String;Ljava/lang/String;Ljava/lang/String;J)Landroid/os/Process$ProcessStartResult;</title>
<path fill="#eef2ff" stroke="#a5b4fc" d="M275,-264C275,-264 147,-264 147,-264 141,-264 135,-258 135,-252 135,-252 135,-240 135,-240 135,-234 141,-228 147,-228 147,-228 275,-228 275,-228 281,-228 287,-234 287,-240 287,-240 287,-252 287,-252 287,-258 281,-264 275,-264"/>
<text text-anchor="middle" x="211" y="-243.2" font-family="Helvetica,sans-Serif" font-size="11.00">ProcessList.startProcess</text>
</g>
<!-- m::com.android.server.am.ProcessList.startProcessLocked:(Lcom/android/server/am/HostingRecord;Ljava/lang/String;Lcom/android/server/am/ProcessRecord;I[IIIILjava/lang/String;Ljava/lang/String;Ljava/lang/String;Ljava/lang/String;JJ)Z&#45;&gt;m::com.android.server.am.ProcessList.startProcess:(Lcom/android/server/am/HostingRecord;Ljava/lang/String;Lcom/android/server/am/ProcessRecord;I[IIIILjava/lang/String;Ljava/lang/String;Ljava/lang/String;Ljava/lang/String;J)Landroid/os/Process$ProcessStartResult; -->
<g id="edge13" class="edge">
<title>m::com.android.server.am.ProcessList.startProcessLocked:(Lcom/android/server/am/HostingRecord;Ljava/lang/String;Lcom/android/server/am/ProcessRecord;I[IIIILjava/lang/String;Ljava/lang/String;Ljava/lang/String;Ljava/lang/String;JJ)Z&#45;&gt;m::com.android.server.am.ProcessList.startProcess:(Lcom/android/server/am/HostingRecord;Ljava/lang/String;Lcom/android/server/am/ProcessRecord;I[IIIILjava/lang/String;Ljava/lang/String;Ljava/lang/String;Ljava/lang/String;J)Landroid/os/Process$ProcessStartResult;</title>
<path fill="none" stroke="#64748b" d="M211,-300.81C211,-292.18 211,-281.56 211,-272.03"/>
<polygon fill="#64748b" stroke="#64748b" points="213.8,-272.03 211,-264.03 208.2,-272.03 213.8,-272.03"/>
</g>
<!-- m::com.android.server.StorageManagerService$StorageManagerInternalImpl.prepareStorageDirs:(ILjava/util/Set;Ljava/lang/String;)Z -->
<g id="node14" class="node">
<title>m::com.android.server.StorageManagerService$StorageManagerInternalImpl.prepareStorageDirs:(ILjava/util/Set;Ljava/lang/String;)Z</title>
<path fill="#eef2ff" stroke="#a5b4fc" d="M410,-191C410,-191 12,-191 12,-191 6,-191 0,-185 0,-179 0,-179 0,-167 0,-167 0,-161 6,-155 12,-155 12,-155 410,-155 410,-155 416,-155 422,-161 422,-167 422,-167 422,-179 422,-179 422,-185 416,-191 410,-191"/>
<text text-anchor="middle" x="211" y="-170.2" font-family="Helvetica,sans-Serif" font-size="11.00">StorageManagerService$StorageManagerInternalImpl.prepareStorageDirs</text>
</g>
<!-- m::com.android.server.am.ProcessList.startProcess:(Lcom/android/server/am/HostingRecord;Ljava/lang/String;Lcom/android/server/am/ProcessRecord;I[IIIILjava/lang/String;Ljava/lang/String;Ljava/lang/String;Ljava/lang/String;J)Landroid/os/Process$ProcessStartResult;&#45;&gt;m::com.android.server.StorageManagerService$StorageManagerInternalImpl.prepareStorageDirs:(ILjava/util/Set;Ljava/lang/String;)Z -->
<g id="edge14" class="edge">
<title>m::com.android.server.am.ProcessList.startProcess:(Lcom/android/server/am/HostingRecord;Ljava/lang/String;Lcom/android/server/am/ProcessRecord;I[IIIILjava/lang/String;Ljava/lang/String;Ljava/lang/String;Ljava/lang/String;J)Landroid/os/Process$ProcessStartResult;&#45;&gt;m::com.android.server.StorageManagerService$StorageManagerInternalImpl.prepareStorageDirs:(ILjava/util/Set;Ljava/lang/String;)Z</title>
<path fill="none" stroke="#64748b" d="M211,-227.81C211,-219.18 211,-208.56 211,-199.03"/>
<polygon fill="#64748b" stroke="#64748b" points="213.8,-199.03 211,-191.03 208.2,-199.03 213.8,-199.03"/>
</g>
<!-- m::android.os.IVold$Stub$Proxy.ensureAppDirsCreated:([Ljava/lang/String;I)V -->
<g id="node15" class="node">
<title>m::android.os.IVold$Stub$Proxy.ensureAppDirsCreated:([Ljava/lang/String;I)V</title>
<path fill="#eef2ff" stroke="#a5b4fc" d="M318.5,-118C318.5,-118 103.5,-118 103.5,-118 97.5,-118 91.5,-112 91.5,-106 91.5,-106 91.5,-94 91.5,-94 91.5,-88 97.5,-82 103.5,-82 103.5,-82 318.5,-82 318.5,-82 324.5,-82 330.5,-88 330.5,-94 330.5,-94 330.5,-106 330.5,-106 330.5,-112 324.5,-118 318.5,-118"/>
<text text-anchor="middle" x="211" y="-97.2" font-family="Helvetica,sans-Serif" font-size="11.00">IVold$Stub$Proxy.ensureAppDirsCreated</text>
</g>
<!-- m::com.android.server.StorageManagerService$StorageManagerInternalImpl.prepareStorageDirs:(ILjava/util/Set;Ljava/lang/String;)Z&#45;&gt;m::android.os.IVold$Stub$Proxy.ensureAppDirsCreated:([Ljava/lang/String;I)V -->
<g id="edge15" class="edge">
<title>m::com.android.server.StorageManagerService$StorageManagerInternalImpl.prepareStorageDirs:(ILjava/util/Set;Ljava/lang/String;)Z&#45;&gt;m::android.os.IVold$Stub$Proxy.ensureAppDirsCreated:([Ljava/lang/String;I)V</title>
<path fill="none" stroke="#64748b" d="M211,-154.81C211,-146.18 211,-135.56 211,-126.03"/>
<polygon fill="#64748b" stroke="#64748b" points="213.8,-126.03 211,-118.03 208.2,-126.03 213.8,-126.03"/>
</g>
<!-- __ipc__ -->
<g id="node16" class="node">
<title>__ipc__</title>
<path fill="#fde68a" stroke="#d97706" stroke-width="2" d="M255,-36C255,-36 167,-36 167,-36 161,-36 155,-30 155,-24 155,-24 155,-12 155,-12 155,-6 161,0 167,0 167,0 255,0 255,0 261,0 267,-6 267,-12 267,-12 267,-24 267,-24 267,-30 261,-36 255,-36"/>
<text text-anchor="middle" x="211" y="-21.2" font-family="Helvetica,sans-Serif" font-size="11.00">Binder IPC</text>
<text text-anchor="middle" x="211" y="-9.2" font-family="Helvetica,sans-Serif" font-size="11.00">(remote process)</text>
</g>
<!-- m::android.os.IVold$Stub$Proxy.ensureAppDirsCreated:([Ljava/lang/String;I)V&#45;&gt;__ipc__ -->
<g id="edge16" class="edge">
<title>m::android.os.IVold$Stub$Proxy.ensureAppDirsCreated:([Ljava/lang/String;I)V&#45;&gt;__ipc__</title>
<path fill="none" stroke="#d97706" stroke-width="1.6" d="M211,-81.64C211,-70.66 211,-56.29 211,-44.09"/>
<polygon fill="#d97706" stroke="#d97706" stroke-width="1.6" points="213.8,-44.05 211,-36.05 208.2,-44.05 213.8,-44.05"/>
<text text-anchor="middle" x="234" y="-56.8" font-family="Helvetica,sans-Serif" font-size="9.00" fill="#b45309"> transacts</text>
</g>
<!-- com.android.server.am.ActivityManagerService -->
<g id="node17" class="node">
<title>com.android.server.am.ActivityManagerService</title>
<path fill="#fee2e2" stroke="#dc2626" stroke-width="2" d="M283,-1222C283,-1222 139,-1222 139,-1222 133,-1222 127,-1216 127,-1210 127,-1210 127,-1198 127,-1198 127,-1192 133,-1186 139,-1186 139,-1186 283,-1186 283,-1186 289,-1186 295,-1192 295,-1198 295,-1198 295,-1210 295,-1210 295,-1216 289,-1222 283,-1222"/>
<text text-anchor="middle" x="211" y="-1201.2" font-family="Helvetica,sans-Serif" font-size="11.00">am.ActivityManagerService</text>
</g>
<!-- com.android.server.am.ActivityManagerService&#45;&gt;m::com.android.server.am.ActivityManagerService.startService:(Landroid/app/IApplicationThread;Landroid/content/Intent;Ljava/lang/String;ZLjava/lang/String;Ljava/lang/String;IZILjava/lang/String;Ljava/lang/String;)Landroid/content/ComponentName; -->
<g id="edge1" class="edge">
<title>com.android.server.am.ActivityManagerService&#45;&gt;m::com.android.server.am.ActivityManagerService.startService:(Landroid/app/IApplicationThread;Landroid/content/Intent;Ljava/lang/String;ZLjava/lang/String;Ljava/lang/String;IZILjava/lang/String;Ljava/lang/String;)Landroid/content/ComponentName;</title>
<path fill="none" stroke="#dc2626" stroke-width="1.6" d="M211,-1185.64C211,-1174.66 211,-1160.29 211,-1148.09"/>
<polygon fill="#dc2626" stroke="#dc2626" stroke-width="1.6" points="213.8,-1148.05 211,-1140.05 208.2,-1148.05 213.8,-1148.05"/>
<text text-anchor="middle" x="228" y="-1160.8" font-family="Helvetica,sans-Serif" font-size="9.00" fill="#dc2626"> held in</text>
</g>
</g>
</svg>
