<?xml version="1.0" encoding="UTF-8" standalone="no"?>
<!DOCTYPE svg PUBLIC "-//W3C//DTD SVG 1.1//EN"
 "http://www.w3.org/Graphics/SVG/1.1/DTD/svg11.dtd">
<!-- Generated by graphviz version 2.43.0 (0)
 -->
<!-- Title: binder Pages: 1 -->
<svg width="257pt" height="208pt"
 viewBox="0.00 0.00 257.00 208.00" xmlns="http://www.w3.org/2000/svg" xmlns:xlink="http://www.w3.org/1999/xlink">
<g id="graph0" class="graph" transform="scale(1 1) rotate(0) translate(4 204)">
<title>binder</title>
<polygon fill="white" stroke="transparent" points="-4,4 -4,-204 253,-204 253,4 -4,4"/>
<!-- m::com.android.server.am.ActivityManagerService.lambda$killPids$7:(Ljava/util/ArrayList;Ljava/lang/String;)V -->
<g id="node1" class="node">
<title>m::com.android.server.am.ActivityManagerService.lambda$killPids$7:(Ljava/util/ArrayList;Ljava/lang/String;)V</title>
<path fill="#eef2ff" stroke="#a5b4fc" d="M237,-118C237,-118 12,-118 12,-118 6,-118 0,-112 0,-106 0,-106 0,-94 0,-94 0,-88 6,-82 12,-82 12,-82 237,-82 237,-82 243,-82 249,-88 249,-94 249,-94 249,-106 249,-106 249,-112 243,-118 237,-118"/>
<text text-anchor="middle" x="124.5" y="-97.2" font-family="Helvetica,sans-Serif" font-size="11.00">ActivityManagerService.lambda$killPids$7</text>
</g>
<!-- __ipc__ -->
<g id="node2" class="node">
<title>__ipc__</title>
<path fill="#fde68a" stroke="#d97706" stroke-width="2" d="M168.5,-36C168.5,-36 80.5,-36 80.5,-36 74.5,-36 68.5,-30 68.5,-24 68.5,-24 68.5,-12 68.5,-12 68.5,-6 74.5,0 80.5,0 80.5,0 168.5,0 168.5,0 174.5,0 180.5,-6 180.5,-12 180.5,-12 180.5,-24 180.5,-24 180.5,-30 174.5,-36 168.5,-36"/>
<text text-anchor="middle" x="124.5" y="-21.2" font-family="Helvetica,sans-Serif" font-size="11.00">Binder IPC</text>
<text text-anchor="middle" x="124.5" y="-9.2" font-family="Helvetica,sans-Serif" font-size="11.00">(remote process)</text>
</g>
<!-- m::com.android.server.am.ActivityManagerService.lambda$killPids$7:(Ljava/util/ArrayList;Ljava/lang/String;)V&#45;&gt;__ipc__ -->
<g id="edge2" class="edge">
<title>m::com.android.server.am.ActivityManagerService.lambda$killPids$7:(Ljava/util/ArrayList;Ljava/lang/String;)V&#45;&gt;__ipc__</title>
<path fill="none" stroke="#d97706" stroke-width="1.6" d="M124.5,-81.64C124.5,-70.66 124.5,-56.29 124.5,-44.09"/>
<polygon fill="#d97706" stroke="#d97706" stroke-width="1.6" points="127.3,-44.05 124.5,-36.05 121.7,-44.05 127.3,-44.05"/>
<text text-anchor="middle" x="147.5" y="-56.8" font-family="Helvetica,sans-Serif" font-size="9.00" fill="#b45309"> transacts</text>
</g>
<!-- com.android.server.am.ActivityManagerService -->
<g id="node3" class="node">
<title>com.android.server.am.ActivityManagerService</title>
<path fill="#fee2e2" stroke="#dc2626" stroke-width="2" d="M196.5,-200C196.5,-200 52.5,-200 52.5,-200 46.5,-200 40.5,-194 40.5,-188 40.5,-188 40.5,-176 40.5,-176 40.5,-170 46.5,-164 52.5,-164 52.5,-164 196.5,-164 196.5,-164 202.5,-164 208.5,-170 208.5,-176 208.5,-176 208.5,-188 208.5,-188 208.5,-194 202.5,-200 196.5,-200"/>
<text text-anchor="middle" x="124.5" y="-179.2" font-family="Helvetica,sans-Serif" font-size="11.00">am.ActivityManagerService</text>
</g>
<!-- com.android.server.am.ActivityManagerService&#45;&gt;m::com.android.server.am.ActivityManagerService.lambda$killPids$7:(Ljava/util/ArrayList;Ljava/lang/String;)V -->
<g id="edge1" class="edge">
<title>com.android.server.am.ActivityManagerService&#45;&gt;m::com.android.server.am.ActivityManagerService.lambda$killPids$7:(Ljava/util/ArrayList;Ljava/lang/String;)V</title>
<path fill="none" stroke="#dc2626" stroke-width="1.6" d="M124.5,-163.64C124.5,-152.66 124.5,-138.29 124.5,-126.09"/>
<polygon fill="#dc2626" stroke="#dc2626" stroke-width="1.6" points="127.3,-126.05 124.5,-118.05 121.7,-126.05 127.3,-126.05"/>
<text text-anchor="middle" x="141.5" y="-138.8" font-family="Helvetica,sans-Serif" font-size="9.00" fill="#dc2626"> held in</text>
</g>
</g>
</svg>
