<?xml version="1.0" encoding="UTF-8" standalone="no"?>
<!DOCTYPE svg PUBLIC "-//W3C//DTD SVG 1.1//EN"
 "http://www.w3.org/Graphics/SVG/1.1/DTD/svg11.dtd">
<!-- Generated by graphviz version 2.43.0 (0)
 -->
<!-- Title: binder Pages: 1 -->
<svg width="238pt" height="208pt"
 viewBox="0.00 0.00 238.00 208.00" xmlns="http://www.w3.org/2000/svg" xmlns:xlink="http://www.w3.org/1999/xlink">
<g id="graph0" class="graph" transform="scale(1 1) rotate(0) translate(4 204)">
<title>binder</title>
<polygon fill="white" stroke="transparent" points="-4,4 -4,-204 234,-204 234,4 -4,4"/>
<!-- m::com.android.server.am.ActivityManagerService.publishService:(Landroid/os/IBinder;Landroid/os/IBinder;Landroid/os/IBinder;)V -->
<g id="node1" class="node">
<title>m::com.android.server.am.ActivityManagerService.publishService:(Landroid/os/IBinder;Landroid/os/IBinder;Landroid/os/IBinder;)V</title>
<path fill="#eef2ff" stroke="#a5b4fc" d="M218,-118C218,-118 12,-118 12,-118 6,-118 0,-112 0,-106 0,-106 0,-94 0,-94 0,-88 6,-82 12,-82 12,-82 218,-82 218,-82 224,-82 230,-88 230,-94 230,-94 230,-106 230,-106 230,-112 224,-118 218,-118"/>
<text text-anchor="middle" x="115" y="-97.2" font-family="Helvetica,sans-Serif" font-size="11.00">ActivityManagerService.publishService</text>
</g>
<!-- __ipc__ -->
<g id="node2" class="node">
<title>__ipc__</title>
<path fill="#fde68a" stroke="#d97706" stroke-width="2" d="M159,-36C159,-36 71,-36 71,-36 65,-36 59,-30 59,-24 59,-24 59,-12 59,-12 59,-6 65,0 71,0 71,0 159,0 159,0 165,0 171,-6 171,-12 171,-12 171,-24 171,-24 171,-30 165,-36 159,-36"/>
<text text-anchor="middle" x="115" y="-21.2" font-family="Helvetica,sans-Serif" font-size="11.00">Binder IPC</text>
<text text-anchor="middle" x="115" y="-9.2" font-family="Helvetica,sans-Serif" font-size="11.00">(remote process)</text>
</g>
<!-- m::com.android.server.am.ActivityManagerService.publishService:(Landroid/os/IBinder;Landroid/os/IBinder;Landroid/os/IBinder;)V&#45;&gt;__ipc__ -->
<g id="edge2" class="edge">
<title>m::com.android.server.am.ActivityManagerService.publishService:(Landroid/os/IBinder;Landroid/os/IBinder;Landroid/os/IBinder;)V&#45;&gt;__ipc__</title>
<path fill="none" stroke="#d97706" stroke-width="1.6" d="M115,-81.64C115,-70.66 115,-56.29 115,-44.09"/>
<polygon fill="#d97706" stroke="#d97706" stroke-width="1.6" points="117.8,-44.05 115,-36.05 112.2,-44.05 117.8,-44.05"/>
<text text-anchor="middle" x="138" y="-56.8" font-family="Helvetica,sans-Serif" font-size="9.00" fill="#b45309"> transacts</text>
</g>
<!-- com.android.server.am.ActivityManagerService -->
<g id="node3" class="node">
<title>com.android.server.am.ActivityManagerService</title>
<path fill="#fee2e2" stroke="#dc2626" stroke-width="2" d="M187,-200C187,-200 43,-200 43,-200 37,-200 31,-194 31,-188 31,-188 31,-176 31,-176 31,-170 37,-164 43,-164 43,-164 187,-164 187,-164 193,-164 199,-170 199,-176 199,-176 199,-188 199,-188 199,-194 193,-200 187,-200"/>
<text text-anchor="middle" x="115" y="-179.2" font-family="Helvetica,sans-Serif" font-size="11.00">am.ActivityManagerService</text>
</g>
<!-- com.android.server.am.ActivityManagerService&#45;&gt;m::com.android.server.am.ActivityManagerService.publishService:(Landroid/os/IBinder;Landroid/os/IBinder;Landroid/os/IBinder;)V -->
<g id="edge1" class="edge">
<title>com.android.server.am.ActivityManagerService&#45;&gt;m::com.android.server.am.ActivityManagerService.publishService:(Landroid/os/IBinder;Landroid/os/IBinder;Landroid/os/IBinder;)V</title>
<path fill="none" stroke="#dc2626" stroke-width="1.6" d="M115,-163.64C115,-152.66 115,-138.29 115,-126.09"/>
<polygon fill="#dc2626" stroke="#dc2626" stroke-width="1.6" points="117.8,-126.05 115,-118.05 112.2,-126.05 117.8,-126.05"/>
<text text-anchor="middle" x="132" y="-138.8" font-family="Helvetica,sans-Serif" font-size="9.00" fill="#dc2626"> held in</text>
</g>
</g>
</svg>
