<?xml version="1.0" encoding="UTF-8" standalone="no"?>
<!DOCTYPE svg PUBLIC "-//W3C//DTD SVG 1.1//EN"
 "http://www.w3.org/Graphics/SVG/1.1/DTD/svg11.dtd">
<!-- Generated by graphviz version 2.43.0 (0)
 -->
<!-- Title: binder Pages: 1 -->
<svg width="289pt" height="208pt"
 viewBox="0.00 0.00 289.00 208.00" xmlns="http://www.w3.org/2000/svg" xmlns:xlink="http://www.w3.org/1999/xlink">
<g id="graph0" class="graph" transform="scale(1 1) rotate(0) translate(4 204)">
<title>binder</title>
<polygon fill="white" stroke="transparent" points="-4,4 -4,-204 285,-204 285,4 -4,4"/>
<!-- m::com.android.server.am.ActivityManagerService.tempAllowlistUidLocked:(IJILjava/lang/String;II)V -->
<g id="node1" class="node">
<title>m::com.android.server.am.ActivityManagerService.tempAllowlistUidLocked:(IJILjava/lang/String;II)V</title>
<path fill="#eef2ff" stroke="#a5b4fc" d="M269,-118C269,-118 12,-118 12,-118 6,-118 0,-112 0,-106 0,-106 0,-94 0,-94 0,-88 6,-82 12,-82 12,-82 269,-82 269,-82 275,-82 281,-88 281,-94 281,-94 281,-106 281,-106 281,-112 275,-118 269,-118"/>
<text text-anchor="middle" x="140.5" y="-97.2" font-family="Helvetica,sans-Serif" font-size="11.00">ActivityManagerService.tempAllowlistUidLocked</text>
</g>
<!-- __ipc__ -->
<g id="node2" class="node">
<title>__ipc__</title>
<path fill="#fde68a" stroke="#d97706" stroke-width="2" d="M184.5,-36C184.5,-36 96.5,-36 96.5,-36 90.5,-36 84.5,-30 84.5,-24 84.5,-24 84.5,-12 84.5,-12 84.5,-6 90.5,0 96.5,0 96.5,0 184.5,0 184.5,0 190.5,0 196.5,-6 196.5,-12 196.5,-12 196.5,-24 196.5,-24 196.5,-30 190.5,-36 184.5,-36"/>
<text text-anchor="middle" x="140.5" y="-21.2" font-family="Helvetica,sans-Serif" font-size="11.00">Binder IPC</text>
<text text-anchor="middle" x="140.5" y="-9.2" font-family="Helvetica,sans-Serif" font-size="11.00">(remote process)</text>
</g>
<!-- m::com.android.server.am.ActivityManagerService.tempAllowlistUidLocked:(IJILjava/lang/String;II)V&#45;&gt;__ipc__ -->
<g id="edge2" class="edge">
<title>m::com.android.server.am.ActivityManagerService.tempAllowlistUidLocked:(IJILjava/lang/String;II)V&#45;&gt;__ipc__</title>
<path fill="none" stroke="#d97706" stroke-width="1.6" d="M140.5,-81.64C140.5,-70.66 140.5,-56.29 140.5,-44.09"/>
<polygon fill="#d97706" stroke="#d97706" stroke-width="1.6" points="143.3,-44.05 140.5,-36.05 137.7,-44.05 143.3,-44.05"/>
<text text-anchor="middle" x="163.5" y="-56.8" font-family="Helvetica,sans-Serif" font-size="9.00" fill="#b45309"> transacts</text>
</g>
<!-- com.android.server.am.ActivityManagerService.mProcLock -->
<g id="node3" class="node">
<title>com.android.server.am.ActivityManagerService.mProcLock</title>
<path fill="#fee2e2" stroke="#dc2626" stroke-width="2" d="M233.5,-200C233.5,-200 47.5,-200 47.5,-200 41.5,-200 35.5,-194 35.5,-188 35.5,-188 35.5,-176 35.5,-176 35.5,-170 41.5,-164 47.5,-164 47.5,-164 233.5,-164 233.5,-164 239.5,-164 245.5,-170 245.5,-176 245.5,-176 245.5,-188 245.5,-188 245.5,-194 239.5,-200 233.5,-200"/>
<text text-anchor="middle" x="140.5" y="-179.2" font-family="Helvetica,sans-Serif" font-size="11.00">ActivityManagerService.mProcLock</text>
</g>
<!-- com.android.server.am.ActivityManagerService.mProcLock&#45;&gt;m::com.android.server.am.ActivityManagerService.tempAllowlistUidLocked:(IJILjava/lang/String;II)V -->
<g id="edge1" class="edge">
<title>com.android.server.am.ActivityManagerService.mProcLock&#45;&gt;m::com.android.server.am.ActivityManagerService.tempAllowlistUidLocked:(IJILjava/lang/String;II)V</title>
<path fill="none" stroke="#dc2626" stroke-width="1.6" d="M140.5,-163.64C140.5,-152.66 140.5,-138.29 140.5,-126.09"/>
<polygon fill="#dc2626" stroke="#dc2626" stroke-width="1.6" points="143.3,-126.05 140.5,-118.05 137.7,-126.05 143.3,-126.05"/>
<text text-anchor="middle" x="157.5" y="-138.8" font-family="Helvetica,sans-Serif" font-size="9.00" fill="#dc2626"> held in</text>
</g>
</g>
</svg>
