<?xml version="1.0" encoding="UTF-8" standalone="no"?>
<!DOCTYPE svg PUBLIC "-//W3C//DTD SVG 1.1//EN"
 "http://www.w3.org/Graphics/SVG/1.1/DTD/svg11.dtd">
<!-- Generated by graphviz version 2.43.0 (0)
 -->
<!-- Title: binder Pages: 1 -->
<svg width="360pt" height="208pt"
 viewBox="0.00 0.00 360.00 208.00" xmlns="http://www.w3.org/2000/svg" xmlns:xlink="http://www.w3.org/1999/xlink">
<g id="graph0" class="graph" transform="scale(1 1) rotate(0) translate(4 204)">
<title>binder</title>
<polygon fill="white" stroke="transparent" points="-4,4 -4,-204 356,-204 356,4 -4,4"/>
<!-- m::com.android.server.am.ActivityManagerService.crashApplicationWithTypeWithExtras:(IILjava/lang/String;ILjava/lang/String;ZILandroid/os/Bundle;)V -->
<g id="node1" class="node">
<title>m::com.android.server.am.ActivityManagerService.crashApplicationWithTypeWithExtras:(IILjava/lang/String;ILjava/lang/String;ZILandroid/os/Bundle;)V</title>
<path fill="#eef2ff" stroke="#a5b4fc" d="M340,-118C340,-118 12,-118 12,-118 6,-118 0,-112 0,-106 0,-106 0,-94 0,-94 0,-88 6,-82 12,-82 12,-82 340,-82 340,-82 346,-82 352,-88 352,-94 352,-94 352,-106 352,-106 352,-112 346,-118 340,-118"/>
<text text-anchor="middle" x="176" y="-97.2" font-family="Helvetica,sans-Serif" font-size="11.00">ActivityManagerService.crashApplicationWithTypeWithExtras</text>
</g>
<!-- __ipc__ -->
<g id="node2" class="node">
<title>__ipc__</title>
<path fill="#fde68a" stroke="#d97706" stroke-width="2" d="M220,-36C220,-36 132,-36 132,-36 126,-36 120,-30 120,-24 120,-24 120,-12 120,-12 120,-6 126,0 132,0 132,0 220,0 220,0 226,0 232,-6 232,-12 232,-12 232,-24 232,-24 232,-30 226,-36 220,-36"/>
<text text-anchor="middle" x="176" y="-21.2" font-family="Helvetica,sans-Serif" font-size="11.00">Binder IPC</text>
<text text-anchor="middle" x="176" y="-9.2" font-family="Helvetica,sans-Serif" font-size="11.00">(remote process)</text>
</g>
<!-- m::com.android.server.am.ActivityManagerService.crashApplicationWithTypeWithExtras:(IILjava/lang/String;ILjava/lang/String;ZILandroid/os/Bundle;)V&#45;&gt;__ipc__ -->
<g id="edge2" class="edge">
<title>m::com.android.server.am.ActivityManagerService.crashApplicationWithTypeWithExtras:(IILjava/lang/String;ILjava/lang/String;ZILandroid/os/Bundle;)V&#45;&gt;__ipc__</title>
<path fill="none" stroke="#d97706" stroke-width="1.6" d="M176,-81.64C176,-70.66 176,-56.29 176,-44.09"/>
<polygon fill="#d97706" stroke="#d97706" stroke-width="1.6" points="178.8,-44.05 176,-36.05 173.2,-44.05 178.8,-44.05"/>
<text text-anchor="middle" x="199" y="-56.8" font-family="Helvetica,sans-Serif" font-size="9.00" fill="#b45309"> transacts</text>
</g>
<!-- com.android.server.am.ActivityManagerService -->
<g id="node3" class="node">
<title>com.android.server.am.ActivityManagerService</title>
<path fill="#fee2e2" stroke="#dc2626" stroke-width="2" d="M248,-200C248,-200 104,-200 104,-200 98,-200 92,-194 92,-188 92,-188 92,-176 92,-176 92,-170 98,-164 104,-164 104,-164 248,-164 248,-164 254,-164 260,-170 260,-176 260,-176 260,-188 260,-188 260,-194 254,-200 248,-200"/>
<text text-anchor="middle" x="176" y="-179.2" font-family="Helvetica,sans-Serif" font-size="11.00">am.ActivityManagerService</text>
</g>
<!-- com.android.server.am.ActivityManagerService&#45;&gt;m::com.android.server.am.ActivityManagerService.crashApplicationWithTypeWithExtras:(IILjava/lang/String;ILjava/lang/String;ZILandroid/os/Bundle;)V -->
<g id="edge1" class="edge">
<title>com.android.server.am.ActivityManagerService&#45;&gt;m::com.android.server.am.ActivityManagerService.crashApplicationWithTypeWithExtras:(IILjava/lang/String;ILjava/lang/String;ZILandroid/os/Bundle;)V</title>
<path fill="none" stroke="#dc2626" stroke-width="1.6" d="M176,-163.64C176,-152.66 176,-138.29 176,-126.09"/>
<polygon fill="#dc2626" stroke="#dc2626" stroke-width="1.6" points="178.8,-126.05 176,-118.05 173.2,-126.05 178.8,-126.05"/>
<text text-anchor="middle" x="193" y="-138.8" font-family="Helvetica,sans-Serif" font-size="9.00" fill="#dc2626"> held in</text>
</g>
</g>
</svg>
