<?xml version="1.0" encoding="UTF-8" standalone="no"?>
<!DOCTYPE svg PUBLIC "-//W3C//DTD SVG 1.1//EN"
 "http://www.w3.org/Graphics/SVG/1.1/DTD/svg11.dtd">
<!-- Generated by graphviz version 2.43.0 (0)
 -->
<!-- Title: binder Pages: 1 -->
<svg width="357pt" height="208pt"
 viewBox="0.00 0.00 357.00 208.00" xmlns="http://www.w3.org/2000/svg" xmlns:xlink="http://www.w3.org/1999/xlink">
<g id="graph0" class="graph" transform="scale(1 1) rotate(0) translate(4 204)">
<title>binder</title>
<polygon fill="white" stroke="transparent" points="-4,4 -4,-204 353,-204 353,4 -4,4"/>
<!-- m::com.android.server.am.ActivityManagerService.handleFollowUpOomAdjusterUpdate:()V -->
<g id="node1" class="node">
<title>m::com.android.server.am.ActivityManagerService.handleFollowUpOomAdjusterUpdate:()V</title>
<path fill="#eef2ff" stroke="#a5b4fc" d="M337,-118C337,-118 12,-118 12,-118 6,-118 0,-112 0,-106 0,-106 0,-94 0,-94 0,-88 6,-82 12,-82 12,-82 337,-82 337,-82 343,-82 349,-88 349,-94 349,-94 349,-106 349,-106 349,-112 343,-118 337,-118"/>
<text text-anchor="middle" x="174.5" y="-97.2" font-family="Helvetica,sans-Serif" font-size="11.00">ActivityManagerService.handleFollowUpOomAdjusterUpdate</text>
</g>
<!-- __ipc__ -->
<g id="node2" class="node">
<title>__ipc__</title>
<path fill="#fde68a" stroke="#d97706" stroke-width="2" d="M218.5,-36C218.5,-36 130.5,-36 130.5,-36 124.5,-36 118.5,-30 118.5,-24 118.5,-24 118.5,-12 118.5,-12 118.5,-6 124.5,0 130.5,0 130.5,0 218.5,0 218.5,0 224.5,0 230.5,-6 230.5,-12 230.5,-12 230.5,-24 230.5,-24 230.5,-30 224.5,-36 218.5,-36"/>
<text text-anchor="middle" x="174.5" y="-21.2" font-family="Helvetica,sans-Serif" font-size="11.00">Binder IPC</text>
<text text-anchor="middle" x="174.5" y="-9.2" font-family="Helvetica,sans-Serif" font-size="11.00">(remote process)</text>
</g>
<!-- m::com.android.server.am.ActivityManagerService.handleFollowUpOomAdjusterUpdate:()V&#45;&gt;__ipc__ -->
<g id="edge2" class="edge">
<title>m::com.android.server.am.ActivityManagerService.handleFollowUpOomAdjusterUpdate:()V&#45;&gt;__ipc__</title>
<path fill="none" stroke="#d97706" stroke-width="1.6" d="M174.5,-81.64C174.5,-70.66 174.5,-56.29 174.5,-44.09"/>
<polygon fill="#d97706" stroke="#d97706" stroke-width="1.6" points="177.3,-44.05 174.5,-36.05 171.7,-44.05 177.3,-44.05"/>
<text text-anchor="middle" x="197.5" y="-56.8" font-family="Helvetica,sans-Serif" font-size="9.00" fill="#b45309"> transacts</text>
</g>
<!-- com.android.server.am.ActivityManagerService -->
<g id="node3" class="node">
<title>com.android.server.am.ActivityManagerService</title>
<path fill="#fee2e2" stroke="#dc2626" stroke-width="2" d="M246.5,-200C246.5,-200 102.5,-200 102.5,-200 96.5,-200 90.5,-194 90.5,-188 90.5,-188 90.5,-176 90.5,-176 90.5,-170 96.5,-164 102.5,-164 102.5,-164 246.5,-164 246.5,-164 252.5,-164 258.5,-170 258.5,-176 258.5,-176 258.5,-188 258.5,-188 258.5,-194 252.5,-200 246.5,-200"/>
<text text-anchor="middle" x="174.5" y="-179.2" font-family="Helvetica,sans-Serif" font-size="11.00">am.ActivityManagerService</text>
</g>
<!-- com.android.server.am.ActivityManagerService&#45;&gt;m::com.android.server.am.ActivityManagerService.handleFollowUpOomAdjusterUpdate:()V -->
<g id="edge1" class="edge">
<title>com.android.server.am.ActivityManagerService&#45;&gt;m::com.android.server.am.ActivityManagerService.handleFollowUpOomAdjusterUpdate:()V</title>
<path fill="none" stroke="#dc2626" stroke-width="1.6" d="M174.5,-163.64C174.5,-152.66 174.5,-138.29 174.5,-126.09"/>
<polygon fill="#dc2626" stroke="#dc2626" stroke-width="1.6" points="177.3,-126.05 174.5,-118.05 171.7,-126.05 177.3,-126.05"/>
<text text-anchor="middle" x="191.5" y="-138.8" font-family="Helvetica,sans-Serif" font-size="9.00" fill="#dc2626"> held in</text>
</g>
</g>
</svg>
