<?xml version="1.0" encoding="UTF-8" standalone="no"?>
<!DOCTYPE svg PUBLIC "-//W3C//DTD SVG 1.1//EN"
 "http://www.w3.org/Graphics/SVG/1.1/DTD/svg11.dtd">
<!-- Generated by graphviz version 2.43.0 (0)
 -->
<!-- Title: binder Pages: 1 -->
<svg width="268pt" height="208pt"
 viewBox="0.00 0.00 268.00 208.00" xmlns="http://www.w3.org/2000/svg" xmlns:xlink="http://www.w3.org/1999/xlink">
<g id="graph0" class="graph" transform="scale(1 1) rotate(0) translate(4 204)">
<title>binder</title>
<polygon fill="white" stroke="transparent" points="-4,4 -4,-204 264,-204 264,4 -4,4"/>
<!-- m::com.android.server.am.ActivityManagerService.clearPendingBackup:(I)V -->
<g id="node1" class="node">
<title>m::com.android.server.am.ActivityManagerService.clearPendingBackup:(I)V</title>
<path fill="#eef2ff" stroke="#a5b4fc" d="M248,-118C248,-118 12,-118 12,-118 6,-118 0,-112 0,-106 0,-106 0,-94 0,-94 0,-88 6,-82 12,-82 12,-82 248,-82 248,-82 254,-82 260,-88 260,-94 260,-94 260,-106 260,-106 260,-112 254,-118 248,-118"/>
<text text-anchor="middle" x="130" y="-97.2" font-family="Helvetica,sans-Serif" font-size="11.00">ActivityManagerService.clearPendingBackup</text>
</g>
<!-- __ipc__ -->
<g id="node2" class="node">
<title>__ipc__</title>
<path fill="#fde68a" stroke="#d97706" stroke-width="2" d="M174,-36C174,-36 86,-36 86,-36 80,-36 74,-30 74,-24 74,-24 74,-12 74,-12 74,-6 80,0 86,0 86,0 174,0 174,0 180,0 186,-6 186,-12 186,-12 186,-24 186,-24 186,-30 180,-36 174,-36"/>
<text text-anchor="middle" x="130" y="-21.2" font-family="Helvetica,sans-Serif" font-size="11.00">Binder IPC</text>
<text text-anchor="middle" x="130" y="-9.2" font-family="Helvetica,sans-Serif" font-size="11.00">(remote process)</text>
</g>
<!-- m::com.android.server.am.ActivityManagerService.clearPendingBackup:(I)V&#45;&gt;__ipc__ -->
<g id="edge2" class="edge">
<title>m::com.android.server.am.ActivityManagerService.clearPendingBackup:(I)V&#45;&gt;__ipc__</title>
<path fill="none" stroke="#d97706" stroke-width="1.6" d="M130,-81.64C130,-70.66 130,-56.29 130,-44.09"/>
<polygon fill="#d97706" stroke="#d97706" stroke-width="1.6" points="132.8,-44.05 130,-36.05 127.2,-44.05 132.8,-44.05"/>
<text text-anchor="middle" x="153" y="-56.8" font-family="Helvetica,sans-Serif" font-size="9.00" fill="#b45309"> transacts</text>
</g>
<!-- com.android.server.am.ActivityManagerService -->
<g id="node3" class="node">
<title>com.android.server.am.ActivityManagerService</title>
<path fill="#fee2e2" stroke="#dc2626" stroke-width="2" d="M202,-200C202,-200 58,-200 58,-200 52,-200 46,-194 46,-188 46,-188 46,-176 46,-176 46,-170 52,-164 58,-164 58,-164 202,-164 202,-164 208,-164 214,-170 214,-176 214,-176 214,-188 214,-188 214,-194 208,-200 202,-200"/>
<text text-anchor="middle" x="130" y="-179.2" font-family="Helvetica,sans-Serif" font-size="11.00">am.ActivityManagerService</text>
</g>
<!-- com.android.server.am.ActivityManagerService&#45;&gt;m::com.android.server.am.ActivityManagerService.clearPendingBackup:(I)V -->
<g id="edge1" class="edge">
<title>com.android.server.am.ActivityManagerService&#45;&gt;m::com.android.server.am.ActivityManagerService.clearPendingBackup:(I)V</title>
<path fill="none" stroke="#dc2626" stroke-width="1.6" d="M130,-163.64C130,-152.66 130,-138.29 130,-126.09"/>
<polygon fill="#dc2626" stroke="#dc2626" stroke-width="1.6" points="132.8,-126.05 130,-118.05 127.2,-126.05 132.8,-126.05"/>
<text text-anchor="middle" x="147" y="-138.8" font-family="Helvetica,sans-Serif" font-size="9.00" fill="#dc2626"> held in</text>
</g>
</g>
</svg>
