<?xml version="1.0" encoding="UTF-8" standalone="no"?>
<!DOCTYPE svg PUBLIC "-//W3C//DTD SVG 1.1//EN"
 "http://www.w3.org/Graphics/SVG/1.1/DTD/svg11.dtd">
<!-- Generated by graphviz version 2.43.0 (0)
 -->
<!-- Title: binder Pages: 1 -->
<svg width="485pt" height="1522pt"
 viewBox="0.00 0.00 485.00 1522.00" xmlns="http://www.w3.org/2000/svg" xmlns:xlink="http://www.w3.org/1999/xlink">
<g id="graph0" class="graph" transform="scale(1 1) rotate(0) translate(4 1518)">
<title>binder</title>
<polygon fill="white" stroke="transparent" points="-4,4 -4,-1518 481,-1518 481,4 -4,4"/>
<!-- m::com.android.server.am.ActivityManagerService.grantUriPermission:(Landroid/app/IApplicationThread;Ljava/lang/String;Landroid/net/Uri;II)V -->
<g id="node1" class="node">
<title>m::com.android.server.am.ActivityManagerService.grantUriPermission:(Landroid/app/IApplicationThread;Ljava/lang/String;Landroid/net/Uri;II)V</title>
<path fill="#eef2ff" stroke="#a5b4fc" d="M354,-1432C354,-1432 123,-1432 123,-1432 117,-1432 111,-1426 111,-1420 111,-1420 111,-1408 111,-1408 111,-1402 117,-1396 123,-1396 123,-1396 354,-1396 354,-1396 360,-1396 366,-1402 366,-1408 366,-1408 366,-1420 366,-1420 366,-1426 360,-1432 354,-1432"/>
<text text-anchor="middle" x="238.5" y="-1411.2" font-family="Helvetica,sans-Serif" font-size="11.00">ActivityManagerService.grantUriPermission</text>
</g>
<!-- m::com.android.server.uri.UriGrantsManagerService$LocalService.checkGrantUriPermissionFromIntent:(Landroid/content/Intent;ILjava/lang/String;I)Lcom/android/server/uri/NeededUriGrants; -->
<g id="node2" class="node">
<title>m::com.android.server.uri.UriGrantsManagerService$LocalService.checkGrantUriPermissionFromIntent:(Landroid/content/Intent;ILjava/lang/String;I)Lcom/android/server/uri/NeededUriGrants;</title>
<path fill="#eef2ff" stroke="#a5b4fc" d="M443.5,-1359C443.5,-1359 33.5,-1359 33.5,-1359 27.5,-1359 21.5,-1353 21.5,-1347 21.5,-1347 21.5,-1335 21.5,-1335 21.5,-1329 27.5,-1323 33.5,-1323 33.5,-1323 443.5,-1323 443.5,-1323 449.5,-1323 455.5,-1329 455.5,-1335 455.5,-1335 455.5,-1347 455.5,-1347 455.5,-1353 449.5,-1359 443.5,-1359"/>
<text text-anchor="middle" x="238.5" y="-1338.2" font-family="Helvetica,sans-Serif" font-size="11.00">UriGrantsManagerService$LocalService.checkGrantUriPermissionFromIntent</text>
</g>
<!-- m::com.android.server.am.ActivityManagerService.grantUriPermission:(Landroid/app/IApplicationThread;Ljava/lang/String;Landroid/net/Uri;II)V&#45;&gt;m::com.android.server.uri.UriGrantsManagerService$LocalService.checkGrantUriPermissionFromIntent:(Landroid/content/Intent;ILjava/lang/String;I)Lcom/android/server/uri/NeededUriGrants; -->
<g id="edge2" class="edge">
<title>m::com.android.server.am.ActivityManagerService.grantUriPermission:(Landroid/app/IApplicationThread;Ljava/lang/String;Landroid/net/Uri;II)V&#45;&gt;m::com.android.server.uri.UriGrantsManagerService$LocalService.checkGrantUriPermissionFromIntent:(Landroid/content/Intent;ILjava/lang/String;I)Lcom/android/server/uri/NeededUriGrants;</title>
<path fill="none" stroke="#64748b" d="M238.5,-1395.81C238.5,-1387.18 238.5,-1376.56 238.5,-1367.03"/>
<polygon fill="#64748b" stroke="#64748b" points="241.3,-1367.03 238.5,-1359.03 235.7,-1367.03 241.3,-1367.03"/>
</g>
<!-- m::com.android.server.uri.UriGrantsManagerService$LocalService.internalCheckGrantUriPermissionFromIntent:(Landroid/content/Intent;ILjava/lang/String;ILjava/lang/Integer;Ljava/lang/Integer;)Lcom/android/server/uri/NeededUriGrants; -->
<g id="node3" class="node">
<title>m::com.android.server.uri.UriGrantsManagerService$LocalService.internalCheckGrantUriPermissionFromIntent:(Landroid/content/Intent;ILjava/lang/String;ILjava/lang/Integer;Ljava/lang/Integer;)Lcom/android/server/uri/NeededUriGrants;</title>
<path fill="#eef2ff" stroke="#a5b4fc" d="M465,-1286C465,-1286 12,-1286 12,-1286 6,-1286 0,-1280 0,-1274 0,-1274 0,-1262 0,-1262 0,-1256 6,-1250 12,-1250 12,-1250 465,-1250 465,-1250 471,-1250 477,-1256 477,-1262 477,-1262 477,-1274 477,-1274 477,-1280 471,-1286 465,-1286"/>
<text text-anchor="middle" x="238.5" y="-1265.2" font-family="Helvetica,sans-Serif" font-size="11.00">UriGrantsManagerService$LocalService.internalCheckGrantUriPermissionFromIntent</text>
</g>
<!-- m::com.android.server.uri.UriGrantsManagerService$LocalService.checkGrantUriPermissionFromIntent:(Landroid/content/Intent;ILjava/lang/String;I)Lcom/android/server/uri/NeededUriGrants;&#45;&gt;m::com.android.server.uri.UriGrantsManagerService$LocalService.internalCheckGrantUriPermissionFromIntent:(Landroid/content/Intent;ILjava/lang/String;ILjava/lang/Integer;Ljava/lang/Integer;)Lcom/android/server/uri/NeededUriGrants; -->
<g id="edge3" class="edge">
<title>m::com.android.server.uri.UriGrantsManagerService$LocalService.checkGrantUriPermissionFromIntent:(Landroid/content/Intent;ILjava/lang/String;I)Lcom/android/server/uri/NeededUriGrants;&#45;&gt;m::com.android.server.uri.UriGrantsManagerService$LocalService.internalCheckGrantUriPermissionFromIntent:(Landroid/content/Intent;ILjava/lang/String;ILjava/lang/Integer;Ljava/lang/Integer;)Lcom/android/server/uri/NeededUriGrants;</title>
<path fill="none" stroke="#64748b" d="M238.5,-1322.81C238.5,-1314.18 238.5,-1303.56 238.5,-1294.03"/>
<polygon fill="#64748b" stroke="#64748b" points="241.3,-1294.03 238.5,-1286.03 235.7,-1294.03 241.3,-1294.03"/>
</g>
<!-- m::com.android.server.uri.UriGrantsManagerService.&#45;$$Nest$mcheckGrantUriPermissionFromIntentUnlocked:(Lcom/android/server/uri/UriGrantsManagerService;ILjava/lang/String;Landroid/content/Intent;ILcom/android/server/uri/NeededUriGrants;ILjava/lang/Integer;Ljava/lang/Integer;)Lcom/android/server/uri/NeededUriGrants; -->
<g id="node4" class="node">
<title>m::com.android.server.uri.UriGrantsManagerService.&#45;$$Nest$mcheckGrantUriPermissionFromIntentUnlocked:(Lcom/android/server/uri/UriGrantsManagerService;ILjava/lang/String;Landroid/content/Intent;ILcom/android/server/uri/NeededUriGrants;ILjava/lang/Integer;Ljava/lang/Integer;)Lcom/android/server/uri/NeededUriGrants;</title>
<path fill="#eef2ff" stroke="#a5b4fc" d="M430.5,-1213C430.5,-1213 46.5,-1213 46.5,-1213 40.5,-1213 34.5,-1207 34.5,-1201 34.5,-1201 34.5,-1189 34.5,-1189 34.5,-1183 40.5,-1177 46.5,-1177 46.5,-1177 430.5,-1177 430.5,-1177 436.5,-1177 442.5,-1183 442.5,-1189 442.5,-1189 442.5,-1201 442.5,-1201 442.5,-1207 436.5,-1213 430.5,-1213"/>
<text text-anchor="middle" x="238.5" y="-1192.2" font-family="Helvetica,sans-Serif" font-size="11.00">UriGrantsManagerService.checkGrantUriPermissionFromIntentUnlocked</text>
</g>
<!-- m::com.android.server.uri.UriGrantsManagerService$LocalService.internalCheckGrantUriPermissionFromIntent:(Landroid/content/Intent;ILjava/lang/String;ILjava/lang/Integer;Ljava/lang/Integer;)Lcom/android/server/uri/NeededUriGrants;&#45;&gt;m::com.android.server.uri.UriGrantsManagerService.&#45;$$Nest$mcheckGrantUriPermissionFromIntentUnlocked:(Lcom/android/server/uri/UriGrantsManagerService;ILjava/lang/String;Landroid/content/Intent;ILcom/android/server/uri/NeededUriGrants;ILjava/lang/Integer;Ljava/lang/Integer;)Lcom/android/server/uri/NeededUriGrants; -->
<g id="edge4" class="edge">
<title>m::com.android.server.uri.UriGrantsManagerService$LocalService.internalCheckGrantUriPermissionFromIntent:(Landroid/content/Intent;ILjava/lang/String;ILjava/lang/Integer;Ljava/lang/Integer;)Lcom/android/server/uri/NeededUriGrants;&#45;&gt;m::com.android.server.uri.UriGrantsManagerService.&#45;$$Nest$mcheckGrantUriPermissionFromIntentUnlocked:(Lcom/android/server/uri/UriGrantsManagerService;ILjava/lang/String;Landroid/content/Intent;ILcom/android/server/uri/NeededUriGrants;ILjava/lang/Integer;Ljava/lang/Integer;)Lcom/android/server/uri/NeededUriGrants;</title>
<path fill="none" stroke="#64748b" d="M238.5,-1249.81C238.5,-1241.18 238.5,-1230.56 238.5,-1221.03"/>
<polygon fill="#64748b" stroke="#64748b" points="241.3,-1221.03 238.5,-1213.03 235.7,-1221.03 241.3,-1221.03"/>
</g>
<!-- m::com.android.server.uri.UriGrantsManagerService.checkGrantUriPermissionFromIntentUnlocked:(ILjava/lang/String;Landroid/content/Intent;ILcom/android/server/uri/NeededUriGrants;ILjava/lang/Integer;Ljava/lang/Integer;)Lcom/android/server/uri/NeededUriGrants; -->
<g id="node5" class="node">
<title>m::com.android.server.uri.UriGrantsManagerService.checkGrantUriPermissionFromIntentUnlocked:(ILjava/lang/String;Landroid/content/Intent;ILcom/android/server/uri/NeededUriGrants;ILjava/lang/Integer;Ljava/lang/Integer;)Lcom/android/server/uri/NeededUriGrants;</title>
<path fill="#eef2ff" stroke="#a5b4fc" d="M430.5,-1140C430.5,-1140 46.5,-1140 46.5,-1140 40.5,-1140 34.5,-1134 34.5,-1128 34.5,-1128 34.5,-1116 34.5,-1116 34.5,-1110 40.5,-1104 46.5,-1104 46.5,-1104 430.5,-1104 430.5,-1104 436.5,-1104 442.5,-1110 442.5,-1116 442.5,-1116 442.5,-1128 442.5,-1128 442.5,-1134 436.5,-1140 430.5,-1140"/>
<text text-anchor="middle" x="238.5" y="-1119.2" font-family="Helvetica,sans-Serif" font-size="11.00">UriGrantsManagerService.checkGrantUriPermissionFromIntentUnlocked</text>
</g>
<!-- m::com.android.server.uri.UriGrantsManagerService.&#45;$$Nest$mcheckGrantUriPermissionFromIntentUnlocked:(Lcom/android/server/uri/UriGrantsManagerService;ILjava/lang/String;Landroid/content/Intent;ILcom/android/server/uri/NeededUriGrants;ILjava/lang/Integer;Ljava/lang/Integer;)Lcom/android/server/uri/NeededUriGrants;&#45;&gt;m::com.android.server.uri.UriGrantsManagerService.checkGrantUriPermissionFromIntentUnlocked:(ILjava/lang/String;Landroid/content/Intent;ILcom/android/server/uri/NeededUriGrants;ILjava/lang/Integer;Ljava/lang/Integer;)Lcom/android/server/uri/NeededUriGrants; -->
<g id="edge5" class="edge">
<title>m::com.android.server.uri.UriGrantsManagerService.&#45;$$Nest$mcheckGrantUriPermissionFromIntentUnlocked:(Lcom/android/server/uri/UriGrantsManagerService;ILjava/lang/String;Landroid/content/Intent;ILcom/android/server/uri/NeededUriGrants;ILjava/lang/Integer;Ljava/lang/Integer;)Lcom/android/server/uri/NeededUriGrants;&#45;&gt;m::com.android.server.uri.UriGrantsManagerService.checkGrantUriPermissionFromIntentUnlocked:(ILjava/lang/String;Landroid/content/Intent;ILcom/android/server/uri/NeededUriGrants;ILjava/lang/Integer;Ljava/lang/Integer;)Lcom/android/server/uri/NeededUriGrants;</title>
<path fill="none" stroke="#64748b" d="M238.5,-1176.81C238.5,-1168.18 238.5,-1157.56 238.5,-1148.03"/>
<polygon fill="#64748b" stroke="#64748b" points="241.3,-1148.03 238.5,-1140.03 235.7,-1148.03 241.3,-1148.03"/>
</g>
<!-- m::com.android.server.uri.UriGrantsManagerService.checkGrantUriPermissionUnlocked:(ILjava/lang/String;Lcom/android/server/uri/GrantUri;II)I -->
<g id="node6" class="node">
<title>m::com.android.server.uri.UriGrantsManagerService.checkGrantUriPermissionUnlocked:(ILjava/lang/String;Lcom/android/server/uri/GrantUri;II)I</title>
<path fill="#eef2ff" stroke="#a5b4fc" d="M401,-1067C401,-1067 76,-1067 76,-1067 70,-1067 64,-1061 64,-1055 64,-1055 64,-1043 64,-1043 64,-1037 70,-1031 76,-1031 76,-1031 401,-1031 401,-1031 407,-1031 413,-1037 413,-1043 413,-1043 413,-1055 413,-1055 413,-1061 407,-1067 401,-1067"/>
<text text-anchor="middle" x="238.5" y="-1046.2" font-family="Helvetica,sans-Serif" font-size="11.00">UriGrantsManagerService.checkGrantUriPermissionUnlocked</text>
</g>
<!-- m::com.android.server.uri.UriGrantsManagerService.checkGrantUriPermissionFromIntentUnlocked:(ILjava/lang/String;Landroid/content/Intent;ILcom/android/server/uri/NeededUriGrants;ILjava/lang/Integer;Ljava/lang/Integer;)Lcom/android/server/uri/NeededUriGrants;&#45;&gt;m::com.android.server.uri.UriGrantsManagerService.checkGrantUriPermissionUnlocked:(ILjava/lang/String;Lcom/android/server/uri/GrantUri;II)I -->
<g id="edge6" class="edge">
<title>m::com.android.server.uri.UriGrantsManagerService.checkGrantUriPermissionFromIntentUnlocked:(ILjava/lang/String;Landroid/content/Intent;ILcom/android/server/uri/NeededUriGrants;ILjava/lang/Integer;Ljava/lang/Integer;)Lcom/android/server/uri/NeededUriGrants;&#45;&gt;m::com.android.server.uri.UriGrantsManagerService.checkGrantUriPermissionUnlocked:(ILjava/lang/String;Lcom/android/server/uri/GrantUri;II)I</title>
<path fill="none" stroke="#64748b" d="M238.5,-1103.81C238.5,-1095.18 238.5,-1084.56 238.5,-1075.03"/>
<polygon fill="#64748b" stroke="#64748b" points="241.3,-1075.03 238.5,-1067.03 235.7,-1075.03 241.3,-1075.03"/>
</g>
<!-- m::com.android.server.uri.UriGrantsManagerService.checkHoldingPermissionsInternalUnlocked:(Landroid/content/pm/ProviderInfo;Lcom/android/server/uri/GrantUri;IIZ)Z -->
<g id="node7" class="node">
<title>m::com.android.server.uri.UriGrantsManagerService.checkHoldingPermissionsInternalUnlocked:(Landroid/content/pm/ProviderInfo;Lcom/android/server/uri/GrantUri;IIZ)Z</title>
<path fill="#eef2ff" stroke="#a5b4fc" d="M422.5,-994C422.5,-994 54.5,-994 54.5,-994 48.5,-994 42.5,-988 42.5,-982 42.5,-982 42.5,-970 42.5,-970 42.5,-964 48.5,-958 54.5,-958 54.5,-958 422.5,-958 422.5,-958 428.5,-958 434.5,-964 434.5,-970 434.5,-970 434.5,-982 434.5,-982 434.5,-988 428.5,-994 422.5,-994"/>
<text text-anchor="middle" x="238.5" y="-973.2" font-family="Helvetica,sans-Serif" font-size="11.00">UriGrantsManagerService.checkHoldingPermissionsInternalUnlocked</text>
</g>
<!-- m::com.android.server.uri.UriGrantsManagerService.checkGrantUriPermissionUnlocked:(ILjava/lang/String;Lcom/android/server/uri/GrantUri;II)I&#45;&gt;m::com.android.server.uri.UriGrantsManagerService.checkHoldingPermissionsInternalUnlocked:(Landroid/content/pm/ProviderInfo;Lcom/android/server/uri/GrantUri;IIZ)Z -->
<g id="edge7" class="edge">
<title>m::com.android.server.uri.UriGrantsManagerService.checkGrantUriPermissionUnlocked:(ILjava/lang/String;Lcom/android/server/uri/GrantUri;II)I&#45;&gt;m::com.android.server.uri.UriGrantsManagerService.checkHoldingPermissionsInternalUnlocked:(Landroid/content/pm/ProviderInfo;Lcom/android/server/uri/GrantUri;IIZ)Z</title>
<path fill="none" stroke="#64748b" d="M238.5,-1030.81C238.5,-1022.18 238.5,-1011.56 238.5,-1002.03"/>
<polygon fill="#64748b" stroke="#64748b" points="241.3,-1002.03 238.5,-994.03 235.7,-1002.03 241.3,-1002.03"/>
</g>
<!-- m::com.android.server.am.ActivityManagerService$LocalService.checkContentProviderUriPermission:(Landroid/net/Uri;III)I -->
<g id="node8" class="node">
<title>m::com.android.server.am.ActivityManagerService$LocalService.checkContentProviderUriPermission:(Landroid/net/Uri;III)I</title>
<path fill="#eef2ff" stroke="#a5b4fc" d="M437.5,-921C437.5,-921 39.5,-921 39.5,-921 33.5,-921 27.5,-915 27.5,-909 27.5,-909 27.5,-897 27.5,-897 27.5,-891 33.5,-885 39.5,-885 39.5,-885 437.5,-885 437.5,-885 443.5,-885 449.5,-891 449.5,-897 449.5,-897 449.5,-909 449.5,-909 449.5,-915 443.5,-921 437.5,-921"/>
<text text-anchor="middle" x="238.5" y="-900.2" font-family="Helvetica,sans-Serif" font-size="11.00">ActivityManagerService$LocalService.checkContentProviderUriPermission</text>
</g>
<!-- m::com.android.server.uri.UriGrantsManagerService.checkHoldingPermissionsInternalUnlocked:(Landroid/content/pm/ProviderInfo;Lcom/android/server/uri/GrantUri;IIZ)Z&#45;&gt;m::com.android.server.am.ActivityManagerService$LocalService.checkContentProviderUriPermission:(Landroid/net/Uri;III)I -->
<g id="edge8" class="edge">
<title>m::com.android.server.uri.UriGrantsManagerService.checkHoldingPermissionsInternalUnlocked:(Landroid/content/pm/ProviderInfo;Lcom/android/server/uri/GrantUri;IIZ)Z&#45;&gt;m::com.android.server.am.ActivityManagerService$LocalService.checkContentProviderUriPermission:(Landroid/net/Uri;III)I</title>
<path fill="none" stroke="#64748b" d="M238.5,-957.81C238.5,-949.18 238.5,-938.56 238.5,-929.03"/>
<polygon fill="#64748b" stroke="#64748b" points="241.3,-929.03 238.5,-921.03 235.7,-929.03 241.3,-929.03"/>
</g>
<!-- m::com.android.server.am.ContentProviderHelper.checkContentProviderUriPermission:(Landroid/net/Uri;III)I -->
<g id="node9" class="node">
<title>m::com.android.server.am.ContentProviderHelper.checkContentProviderUriPermission:(Landroid/net/Uri;III)I</title>
<path fill="#eef2ff" stroke="#a5b4fc" d="M397,-848C397,-848 80,-848 80,-848 74,-848 68,-842 68,-836 68,-836 68,-824 68,-824 68,-818 74,-812 80,-812 80,-812 397,-812 397,-812 403,-812 409,-818 409,-824 409,-824 409,-836 409,-836 409,-842 403,-848 397,-848"/>
<text text-anchor="middle" x="238.5" y="-827.2" font-family="Helvetica,sans-Serif" font-size="11.00">ContentProviderHelper.checkContentProviderUriPermission</text>
</g>
<!-- m::com.android.server.am.ActivityManagerService$LocalService.checkContentProviderUriPermission:(Landroid/net/Uri;III)I&#45;&gt;m::com.android.server.am.ContentProviderHelper.checkContentProviderUriPermission:(Landroid/net/Uri;III)I -->
<g id="edge9" class="edge">
<title>m::com.android.server.am.ActivityManagerService$LocalService.checkContentProviderUriPermission:(Landroid/net/Uri;III)I&#45;&gt;m::com.android.server.am.ContentProviderHelper.checkContentProviderUriPermission:(Landroid/net/Uri;III)I</title>
<path fill="none" stroke="#64748b" d="M238.5,-884.81C238.5,-876.18 238.5,-865.56 238.5,-856.03"/>
<polygon fill="#64748b" stroke="#64748b" points="241.3,-856.03 238.5,-848.03 235.7,-856.03 241.3,-856.03"/>
</g>
<!-- m::com.android.server.am.ContentProviderHelper.getContentProviderExternalUnchecked:(Ljava/lang/String;Landroid/os/IBinder;ILjava/lang/String;I)Landroid/app/ContentProviderHolder; -->
<g id="node10" class="node">
<title>m::com.android.server.am.ContentProviderHelper.getContentProviderExternalUnchecked:(Ljava/lang/String;Landroid/os/IBinder;ILjava/lang/String;I)Landroid/app/ContentProviderHolder;</title>
<path fill="#eef2ff" stroke="#a5b4fc" d="M405.5,-775C405.5,-775 71.5,-775 71.5,-775 65.5,-775 59.5,-769 59.5,-763 59.5,-763 59.5,-751 59.5,-751 59.5,-745 65.5,-739 71.5,-739 71.5,-739 405.5,-739 405.5,-739 411.5,-739 417.5,-745 417.5,-751 417.5,-751 417.5,-763 417.5,-763 417.5,-769 411.5,-775 405.5,-775"/>
<text text-anchor="middle" x="238.5" y="-754.2" font-family="Helvetica,sans-Serif" font-size="11.00">ContentProviderHelper.getContentProviderExternalUnchecked</text>
</g>
<!-- m::com.android.server.am.ContentProviderHelper.checkContentProviderUriPermission:(Landroid/net/Uri;III)I&#45;&gt;m::com.android.server.am.ContentProviderHelper.getContentProviderExternalUnchecked:(Ljava/lang/String;Landroid/os/IBinder;ILjava/lang/String;I)Landroid/app/ContentProviderHolder; -->
<g id="edge10" class="edge">
<title>m::com.android.server.am.ContentProviderHelper.checkContentProviderUriPermission:(Landroid/net/Uri;III)I&#45;&gt;m::com.android.server.am.ContentProviderHelper.getContentProviderExternalUnchecked:(Ljava/lang/String;Landroid/os/IBinder;ILjava/lang/String;I)Landroid/app/ContentProviderHolder;</title>
<path fill="none" stroke="#64748b" d="M238.5,-811.81C238.5,-803.18 238.5,-792.56 238.5,-783.03"/>
<polygon fill="#64748b" stroke="#64748b" points="241.3,-783.03 238.5,-775.03 235.7,-783.03 241.3,-783.03"/>
</g>
<!-- m::com.android.server.am.ContentProviderHelper.getContentProviderImpl:(Landroid/app/IApplicationThread;Ljava/lang/String;Landroid/os/IBinder;ILjava/lang/String;Ljava/lang/String;ZI)Landroid/app/ContentProviderHolder; -->
<g id="node11" class="node">
<title>m::com.android.server.am.ContentProviderHelper.getContentProviderImpl:(Landroid/app/IApplicationThread;Ljava/lang/String;Landroid/os/IBinder;ILjava/lang/String;Ljava/lang/String;ZI)Landroid/app/ContentProviderHolder;</title>
<path fill="#eef2ff" stroke="#a5b4fc" d="M364,-702C364,-702 113,-702 113,-702 107,-702 101,-696 101,-690 101,-690 101,-678 101,-678 101,-672 107,-666 113,-666 113,-666 364,-666 364,-666 370,-666 376,-672 376,-678 376,-678 376,-690 376,-690 376,-696 370,-702 364,-702"/>
<text text-anchor="middle" x="238.5" y="-681.2" font-family="Helvetica,sans-Serif" font-size="11.00">ContentProviderHelper.getContentProviderImpl</text>
</g>
<!-- m::com.android.server.am.ContentProviderHelper.getContentProviderExternalUnchecked:(Ljava/lang/String;Landroid/os/IBinder;ILjava/lang/String;I)Landroid/app/ContentProviderHolder;&#45;&gt;m::com.android.server.am.ContentProviderHelper.getContentProviderImpl:(Landroid/app/IApplicationThread;Ljava/lang/String;Landroid/os/IBinder;ILjava/lang/String;Ljava/lang/String;ZI)Landroid/app/ContentProviderHolder; -->
<g id="edge11" class="edge">
<title>m::com.android.server.am.ContentProviderHelper.getContentProviderExternalUnchecked:(Ljava/lang/String;Landroid/os/IBinder;ILjava/lang/String;I)Landroid/app/ContentProviderHolder;&#45;&gt;m::com.android.server.am.ContentProviderHelper.getContentProviderImpl:(Landroid/app/IApplicationThread;Ljava/lang/String;Landroid/os/IBinder;ILjava/lang/String;Ljava/lang/String;ZI)Landroid/app/ContentProviderHolder;</title>
<path fill="none" stroke="#64748b" d="M238.5,-738.81C238.5,-730.18 238.5,-719.56 238.5,-710.03"/>
<polygon fill="#64748b" stroke="#64748b" points="241.3,-710.03 238.5,-702.03 235.7,-710.03 241.3,-710.03"/>
</g>
<!-- m::com.android.server.am.ActivityManagerService.startProcessLocked:(Ljava/lang/String;Landroid/content/pm/ApplicationInfo;ZILcom/android/server/am/HostingRecord;IZZ)Lcom/android/server/am/ProcessRecord; -->
<g id="node12" class="node">
<title>m::com.android.server.am.ActivityManagerService.startProcessLocked:(Ljava/lang/String;Landroid/content/pm/ApplicationInfo;ZILcom/android/server/am/HostingRecord;IZZ)Lcom/android/server/am/ProcessRecord;</title>
<path fill="#eef2ff" stroke="#a5b4fc" d="M355.5,-629C355.5,-629 121.5,-629 121.5,-629 115.5,-629 109.5,-623 109.5,-617 109.5,-617 109.5,-605 109.5,-605 109.5,-599 115.5,-593 121.5,-593 121.5,-593 355.5,-593 355.5,-593 361.5,-593 367.5,-599 367.5,-605 367.5,-605 367.5,-617 367.5,-617 367.5,-623 361.5,-629 355.5,-629"/>
<text text-anchor="middle" x="238.5" y="-608.2" font-family="Helvetica,sans-Serif" font-size="11.00">ActivityManagerService.startProcessLocked</text>
</g>
<!-- m::com.android.server.am.ContentProviderHelper.getContentProviderImpl:(Landroid/app/IApplicationThread;Ljava/lang/String;Landroid/os/IBinder;ILjava/lang/String;Ljava/lang/String;ZI)Landroid/app/ContentProviderHolder;&#45;&gt;m::com.android.server.am.ActivityManagerService.startProcessLocked:(Ljava/lang/String;Landroid/content/pm/ApplicationInfo;ZILcom/android/server/am/HostingRecord;IZZ)Lcom/android/server/am/ProcessRecord; -->
<g id="edge12" class="edge">
<title>m::com.android.server.am.ContentProviderHelper.getContentProviderImpl:(Landroid/app/IApplicationThread;Ljava/lang/String;Landroid/os/IBinder;ILjava/lang/String;Ljava/lang/String;ZI)Landroid/app/ContentProviderHolder;&#45;&gt;m::com.android.server.am.ActivityManagerService.startProcessLocked:(Ljava/lang/String;Landroid/content/pm/ApplicationInfo;ZILcom/android/server/am/HostingRecord;IZZ)Lcom/android/server/am/ProcessRecord;</title>
<path fill="none" stroke="#64748b" d="M238.5,-665.81C238.5,-657.18 238.5,-646.56 238.5,-637.03"/>
<polygon fill="#64748b" stroke="#64748b" points="241.3,-637.03 238.5,-629.03 235.7,-637.03 241.3,-637.03"/>
</g>
<!-- m::com.android.server.am.ProcessList.startProcessLocked:(Ljava/lang/String;Landroid/content/pm/ApplicationInfo;ZILcom/android/server/am/HostingRecord;IZZIZILjava/lang/String;Ljava/lang/String;Ljava/lang/String;[Ljava/lang/String;Ljava/lang/Runnable;)Lcom/android/server/am/ProcessRecord; -->
<g id="node13" class="node">
<title>m::com.android.server.am.ProcessList.startProcessLocked:(Ljava/lang/String;Landroid/content/pm/ApplicationInfo;ZILcom/android/server/am/HostingRecord;IZZIZILjava/lang/String;Ljava/lang/String;Ljava/lang/String;[Ljava/lang/String;Ljava/lang/Runnable;)Lcom/android/server/am/ProcessRecord;</title>
<path fill="#eef2ff" stroke="#a5b4fc" d="M321.5,-556C321.5,-556 155.5,-556 155.5,-556 149.5,-556 143.5,-550 143.5,-544 143.5,-544 143.5,-532 143.5,-532 143.5,-526 149.5,-520 155.5,-520 155.5,-520 321.5,-520 321.5,-520 327.5,-520 333.5,-526 333.5,-532 333.5,-532 333.5,-544 333.5,-544 333.5,-550 327.5,-556 321.5,-556"/>
<text text-anchor="middle" x="238.5" y="-535.2" font-family="Helvetica,sans-Serif" font-size="11.00">ProcessList.startProcessLocked</text>
</g>
<!-- m::com.android.server.am.ActivityManagerService.startProcessLocked:(Ljava/lang/String;Landroid/content/pm/ApplicationInfo;ZILcom/android/server/am/HostingRecord;IZZ)Lcom/android/server/am/ProcessRecord;&#45;&gt;m::com.android.server.am.ProcessList.startProcessLocked:(Ljava/lang/String;Landroid/content/pm/ApplicationInfo;ZILcom/android/server/am/HostingRecord;IZZIZILjava/lang/String;Ljava/lang/String;Ljava/lang/String;[Ljava/lang/String;Ljava/lang/Runnable;)Lcom/android/server/am/ProcessRecord; -->
<g id="edge13" class="edge">
<title>m::com.android.server.am.ActivityManagerService.startProcessLocked:(Ljava/lang/String;Landroid/content/pm/ApplicationInfo;ZILcom/android/server/am/HostingRecord;IZZ)Lcom/android/server/am/ProcessRecord;&#45;&gt;m::com.android.server.am.ProcessList.startProcessLocked:(Ljava/lang/String;Landroid/content/pm/ApplicationInfo;ZILcom/android/server/am/HostingRecord;IZZIZILjava/lang/String;Ljava/lang/String;Ljava/lang/String;[Ljava/lang/String;Ljava/lang/Runnable;)Lcom/android/server/am/ProcessRecord;</title>
<path fill="none" stroke="#64748b" d="M238.5,-592.81C238.5,-584.18 238.5,-573.56 238.5,-564.03"/>
<polygon fill="#64748b" stroke="#64748b" points="241.3,-564.03 238.5,-556.03 235.7,-564.03 241.3,-564.03"/>
</g>
<!-- m::com.android.server.am.ProcessList.startProcessLocked:(Lcom/android/server/am/ProcessRecord;Lcom/android/server/am/HostingRecord;ILjava/lang/String;)Z -->
<g id="node14" class="node">
<title>m::com.android.server.am.ProcessList.startProcessLocked:(Lcom/android/server/am/ProcessRecord;Lcom/android/server/am/HostingRecord;ILjava/lang/String;)Z</title>
<path fill="#eef2ff" stroke="#a5b4fc" d="M321.5,-483C321.5,-483 155.5,-483 155.5,-483 149.5,-483 143.5,-477 143.5,-471 143.5,-471 143.5,-459 143.5,-459 143.5,-453 149.5,-447 155.5,-447 155.5,-447 321.5,-447 321.5,-447 327.5,-447 333.5,-453 333.5,-459 333.5,-459 333.5,-471 333.5,-471 333.5,-477 327.5,-483 321.5,-483"/>
<text text-anchor="middle" x="238.5" y="-462.2" font-family="Helvetica,sans-Serif" font-size="11.00">ProcessList.startProcessLocked</text>
</g>
<!-- m::com.android.server.am.ProcessList.startProcessLocked:(Ljava/lang/String;Landroid/content/pm/ApplicationInfo;ZILcom/android/server/am/HostingRecord;IZZIZILjava/lang/String;Ljava/lang/String;Ljava/lang/String;[Ljava/lang/String;Ljava/lang/Runnable;)Lcom/android/server/am/ProcessRecord;&#45;&gt;m::com.android.server.am.ProcessList.startProcessLocked:(Lcom/android/server/am/ProcessRecord;Lcom/android/server/am/HostingRecord;ILjava/lang/String;)Z -->
<g id="edge14" class="edge">
<title>m::com.android.server.am.ProcessList.startProcessLocked:(Ljava/lang/String;Landroid/content/pm/ApplicationInfo;ZILcom/android/server/am/HostingRecord;IZZIZILjava/lang/String;Ljava/lang/String;Ljava/lang/String;[Ljava/lang/String;Ljava/lang/Runnable;)Lcom/android/server/am/ProcessRecord;&#45;&gt;m::com.android.server.am.ProcessList.startProcessLocked:(Lcom/android/server/am/ProcessRecord;Lcom/android/server/am/HostingRecord;ILjava/lang/String;)Z</title>
<path fill="none" stroke="#64748b" d="M238.5,-519.81C238.5,-511.18 238.5,-500.56 238.5,-491.03"/>
<polygon fill="#64748b" stroke="#64748b" points="241.3,-491.03 238.5,-483.03 235.7,-491.03 241.3,-491.03"/>
</g>
<!-- m::com.android.server.am.ProcessList.startProcessLocked:(Lcom/android/server/am/ProcessRecord;Lcom/android/server/am/HostingRecord;IZZLjava/lang/String;)Z -->
<g id="node15" class="node">
<title>m::com.android.server.am.ProcessList.startProcessLocked:(Lcom/android/server/am/ProcessRecord;Lcom/android/server/am/HostingRecord;IZZLjava/lang/String;)Z</title>
<path fill="#eef2ff" stroke="#a5b4fc" d="M321.5,-410C321.5,-410 155.5,-410 155.5,-410 149.5,-410 143.5,-404 143.5,-398 143.5,-398 143.5,-386 143.5,-386 143.5,-380 149.5,-374 155.5,-374 155.5,-374 321.5,-374 321.5,-374 327.5,-374 333.5,-380 333.5,-386 333.5,-386 333.5,-398 333.5,-398 333.5,-404 327.5,-410 321.5,-410"/>
<text text-anchor="middle" x="238.5" y="-389.2" font-family="Helvetica,sans-Serif" font-size="11.00">ProcessList.startProcessLocked</text>
</g>
<!-- m::com.android.server.am.ProcessList.startProcessLocked:(Lcom/android/server/am/ProcessRecord;Lcom/android/server/am/HostingRecord;ILjava/lang/String;)Z&#45;&gt;m::com.android.server.am.ProcessList.startProcessLocked:(Lcom/android/server/am/ProcessRecord;Lcom/android/server/am/HostingRecord;IZZLjava/lang/String;)Z -->
<g id="edge15" class="edge">
<title>m::com.android.server.am.ProcessList.startProcessLocked:(Lcom/android/server/am/ProcessRecord;Lcom/android/server/am/HostingRecord;ILjava/lang/String;)Z&#45;&gt;m::com.android.server.am.ProcessList.startProcessLocked:(Lcom/android/server/am/ProcessRecord;Lcom/android/server/am/HostingRecord;IZZLjava/lang/String;)Z</title>
<path fill="none" stroke="#64748b" d="M238.5,-446.81C238.5,-438.18 238.5,-427.56 238.5,-418.03"/>
<polygon fill="#64748b" stroke="#64748b" points="241.3,-418.03 238.5,-410.03 235.7,-418.03 241.3,-418.03"/>
</g>
<!-- m::com.android.server.am.ProcessList.startProcessLocked:(Lcom/android/server/am/HostingRecord;Ljava/lang/String;Lcom/android/server/am/ProcessRecord;I[IIIILjava/lang/String;Ljava/lang/String;Ljava/lang/String;Ljava/lang/String;JJ)Z -->
<g id="node16" class="node">
<title>m::com.android.server.am.ProcessList.startProcessLocked:(Lcom/android/server/am/HostingRecord;Ljava/lang/String;Lcom/android/server/am/ProcessRecord;I[IIIILjava/lang/String;Ljava/lang/String;Ljava/lang/String;Ljava/lang/String;JJ)Z</title>
<path fill="#eef2ff" stroke="#a5b4fc" d="M321.5,-337C321.5,-337 155.5,-337 155.5,-337 149.5,-337 143.5,-331 143.5,-325 143.5,-325 143.5,-313 143.5,-313 143.5,-307 149.5,-301 155.5,-301 155.5,-301 321.5,-301 321.5,-301 327.5,-301 333.5,-307 333.5,-313 333.5,-313 333.5,-325 333.5,-325 333.5,-331 327.5,-337 321.5,-337"/>
<text text-anchor="middle" x="238.5" y="-316.2" font-family="Helvetica,sans-Serif" font-size="11.00">ProcessList.startProcessLocked</text>
</g>
<!-- m::com.android.server.am.ProcessList.startProcessLocked:(Lcom/android/server/am/ProcessRecord;Lcom/android/server/am/HostingRecord;IZZLjava/lang/String;)Z&#45;&gt;m::com.android.server.am.ProcessList.startProcessLocked:(Lcom/android/server/am/HostingRecord;Ljava/lang/String;Lcom/android/server/am/ProcessRecord;I[IIIILjava/lang/String;Ljava/lang/String;Ljava/lang/String;Ljava/lang/String;JJ)Z -->
<g id="edge16" class="edge">
<title>m::com.android.server.am.ProcessList.startProcessLocked:(Lcom/android/server/am/ProcessRecord;Lcom/android/server/am/HostingRecord;IZZLjava/lang/String;)Z&#45;&gt;m::com.android.server.am.ProcessList.startProcessLocked:(Lcom/android/server/am/HostingRecord;Ljava/lang/String;Lcom/android/server/am/ProcessRecord;I[IIIILjava/lang/String;Ljava/lang/String;Ljava/lang/String;Ljava/lang/String;JJ)Z</title>
<path fill="none" stroke="#64748b" d="M238.5,-373.81C238.5,-365.18 238.5,-354.56 238.5,-345.03"/>
<polygon fill="#64748b" stroke="#64748b" points="241.3,-345.03 238.5,-337.03 235.7,-345.03 241.3,-345.03"/>
</g>
<!-- m::com.android.server.am.ProcessList.startProcess:(Lcom/android/server/am/HostingRecord;Ljava/lang/String;Lcom/android/server/am/ProcessRecord;I[IIIILjava/lang/String;Ljava/lang/String;Ljava/lang/String;Ljava/lang/String;J)Landroid/os/Process$ProcessStartResult; -->
<g id="node17" class="node">
<title>m::com.android.server.am.ProcessList.startProcess:(Lcom/android/server/am/HostingRecord;Ljava/lang/String;Lcom/android/server/am/ProcessRecord;I[IIIILjava/lang/String;Ljava/lang/String;Ljava/lang/String;Ljava/lang/String;J)Landroid/os/Process$ProcessStartResult;</title>
<path fill="#eef2ff" stroke="#a5b4fc" d="M302.5,-264C302.5,-264 174.5,-264 174.5,-264 168.5,-264 162.5,-258 162.5,-252 162.5,-252 162.5,-240 162.5,-240 162.5,-234 168.5,-228 174.5,-228 174.5,-228 302.5,-228 302.5,-228 308.5,-228 314.5,-234 314.5,-240 314.5,-240 314.5,-252 314.5,-252 314.5,-258 308.5,-264 302.5,-264"/>
<text text-anchor="middle" x="238.5" y="-243.2" font-family="Helvetica,sans-Serif" font-size="11.00">ProcessList.startProcess</text>
</g>
<!-- m::com.android.server.am.ProcessList.startProcessLocked:(Lcom/android/server/am/HostingRecord;Ljava/lang/String;Lcom/android/server/am/ProcessRecord;I[IIIILjava/lang/String;Ljava/lang/String;Ljava/lang/String;Ljava/lang/String;JJ)Z&#45;&gt;m::com.android.server.am.ProcessList.startProcess:(Lcom/android/server/am/HostingRecord;Ljava/lang/String;Lcom/android/server/am/ProcessRecord;I[IIIILjava/lang/String;Ljava/lang/String;Ljava/lang/String;Ljava/lang/String;J)Landroid/os/Process$ProcessStartResult; -->
<g id="edge17" class="edge">
<title>m::com.android.server.am.ProcessList.startProcessLocked:(Lcom/android/server/am/HostingRecord;Ljava/lang/String;Lcom/android/server/am/ProcessRecord;I[IIIILjava/lang/String;Ljava/lang/String;Ljava/lang/String;Ljava/lang/String;JJ)Z&#45;&gt;m::com.android.server.am.ProcessList.startProcess:(Lcom/android/server/am/HostingRecord;Ljava/lang/String;Lcom/android/server/am/ProcessRecord;I[IIIILjava/lang/String;Ljava/lang/String;Ljava/lang/String;Ljava/lang/String;J)Landroid/os/Process$ProcessStartResult;</title>
<path fill="none" stroke="#64748b" d="M238.5,-300.81C238.5,-292.18 238.5,-281.56 238.5,-272.03"/>
<polygon fill="#64748b" stroke="#64748b" points="241.3,-272.03 238.5,-264.03 235.7,-272.03 241.3,-272.03"/>
</g>
<!-- m::com.android.server.StorageManagerService$StorageManagerInternalImpl.prepareStorageDirs:(ILjava/util/Set;Ljava/lang/String;)Z -->
<g id="node18" class="node">
<title>m::com.android.server.StorageManagerService$StorageManagerInternalImpl.prepareStorageDirs:(ILjava/util/Set;Ljava/lang/String;)Z</title>
<path fill="#eef2ff" stroke="#a5b4fc" d="M437.5,-191C437.5,-191 39.5,-191 39.5,-191 33.5,-191 27.5,-185 27.5,-179 27.5,-179 27.5,-167 27.5,-167 27.5,-161 33.5,-155 39.5,-155 39.5,-155 437.5,-155 437.5,-155 443.5,-155 449.5,-161 449.5,-167 449.5,-167 449.5,-179 449.5,-179 449.5,-185 443.5,-191 437.5,-191"/>
<text text-anchor="middle" x="238.5" y="-170.2" font-family="Helvetica,sans-Serif" font-size="11.00">StorageManagerService$StorageManagerInternalImpl.prepareStorageDirs</text>
</g>
<!-- m::com.android.server.am.ProcessList.startProcess:(Lcom/android/server/am/HostingRecord;Ljava/lang/String;Lcom/android/server/am/ProcessRecord;I[IIIILjava/lang/String;Ljava/lang/String;Ljava/lang/String;Ljava/lang/String;J)Landroid/os/Process$ProcessStartResult;&#45;&gt;m::com.android.server.StorageManagerService$StorageManagerInternalImpl.prepareStorageDirs:(ILjava/util/Set;Ljava/lang/String;)Z -->
<g id="edge18" class="edge">
<title>m::com.android.server.am.ProcessList.startProcess:(Lcom/android/server/am/HostingRecord;Ljava/lang/String;Lcom/android/server/am/ProcessRecord;I[IIIILjava/lang/String;Ljava/lang/String;Ljava/lang/String;Ljava/lang/String;J)Landroid/os/Process$ProcessStartResult;&#45;&gt;m::com.android.server.StorageManagerService$StorageManagerInternalImpl.prepareStorageDirs:(ILjava/util/Set;Ljava/lang/String;)Z</title>
<path fill="none" stroke="#64748b" d="M238.5,-227.81C238.5,-219.18 238.5,-208.56 238.5,-199.03"/>
<polygon fill="#64748b" stroke="#64748b" points="241.3,-199.03 238.5,-191.03 235.7,-199.03 241.3,-199.03"/>
</g>
<!-- m::android.os.IVold$Stub$Proxy.ensureAppDirsCreated:([Ljava/lang/String;I)V -->
<g id="node19" class="node">
<title>m::android.os.IVold$Stub$Proxy.ensureAppDirsCreated:([Ljava/lang/String;I)V</title>
<path fill="#eef2ff" stroke="#a5b4fc" d="M346,-118C346,-118 131,-118 131,-118 125,-118 119,-112 119,-106 119,-106 119,-94 119,-94 119,-88 125,-82 131,-82 131,-82 346,-82 346,-82 352,-82 358,-88 358,-94 358,-94 358,-106 358,-106 358,-112 352,-118 346,-118"/>
<text text-anchor="middle" x="238.5" y="-97.2" font-family="Helvetica,sans-Serif" font-size="11.00">IVold$Stub$Proxy.ensureAppDirsCreated</text>
</g>
<!-- m::com.android.server.StorageManagerService$StorageManagerInternalImpl.prepareStorageDirs:(ILjava/util/Set;Ljava/lang/String;)Z&#45;&gt;m::android.os.IVold$Stub$Proxy.ensureAppDirsCreated:([Ljava/lang/String;I)V -->
<g id="edge19" class="edge">
<title>m::com.android.server.StorageManagerService$StorageManagerInternalImpl.prepareStorageDirs:(ILjava/util/Set;Ljava/lang/String;)Z&#45;&gt;m::android.os.IVold$Stub$Proxy.ensureAppDirsCreated:([Ljava/lang/String;I)V</title>
<path fill="none" stroke="#64748b" d="M238.5,-154.81C238.5,-146.18 238.5,-135.56 238.5,-126.03"/>
<polygon fill="#64748b" stroke="#64748b" points="241.3,-126.03 238.5,-118.03 235.7,-126.03 241.3,-126.03"/>
</g>
<!-- __ipc__ -->
<g id="node20" class="node">
<title>__ipc__</title>
<path fill="#fde68a" stroke="#d97706" stroke-width="2" d="M282.5,-36C282.5,-36 194.5,-36 194.5,-36 188.5,-36 182.5,-30 182.5,-24 182.5,-24 182.5,-12 182.5,-12 182.5,-6 188.5,0 194.5,0 194.5,0 282.5,0 282.5,0 288.5,0 294.5,-6 294.5,-12 294.5,-12 294.5,-24 294.5,-24 294.5,-30 288.5,-36 282.5,-36"/>
<text text-anchor="middle" x="238.5" y="-21.2" font-family="Helvetica,sans-Serif" font-size="11.00">Binder IPC</text>
<text text-anchor="middle" x="238.5" y="-9.2" font-family="Helvetica,sans-Serif" font-size="11.00">(remote process)</text>
</g>
<!-- m::android.os.IVold$Stub$Proxy.ensureAppDirsCreated:([Ljava/lang/String;I)V&#45;&gt;__ipc__ -->
<g id="edge20" class="edge">
<title>m::android.os.IVold$Stub$Proxy.ensureAppDirsCreated:([Ljava/lang/String;I)V&#45;&gt;__ipc__</title>
<path fill="none" stroke="#d97706" stroke-width="1.6" d="M238.5,-81.64C238.5,-70.66 238.5,-56.29 238.5,-44.09"/>
<polygon fill="#d97706" stroke="#d97706" stroke-width="1.6" points="241.3,-44.05 238.5,-36.05 235.7,-44.05 241.3,-44.05"/>
<text text-anchor="middle" x="261.5" y="-56.8" font-family="Helvetica,sans-Serif" font-size="9.00" fill="#b45309"> transacts</text>
</g>
<!-- com.android.server.am.ActivityManagerService -->
<g id="node21" class="node">
<title>com.android.server.am.ActivityManagerService</title>
<path fill="#fee2e2" stroke="#dc2626" stroke-width="2" d="M310.5,-1514C310.5,-1514 166.5,-1514 166.5,-1514 160.5,-1514 154.5,-1508 154.5,-1502 154.5,-1502 154.5,-1490 154.5,-1490 154.5,-1484 160.5,-1478 166.5,-1478 166.5,-1478 310.5,-1478 310.5,-1478 316.5,-1478 322.5,-1484 322.5,-1490 322.5,-1490 322.5,-1502 322.5,-1502 322.5,-1508 316.5,-1514 310.5,-1514"/>
<text text-anchor="middle" x="238.5" y="-1493.2" font-family="Helvetica,sans-Serif" font-size="11.00">am.ActivityManagerService</text>
</g>
<!-- com.android.server.am.ActivityManagerService&#45;&gt;m::com.android.server.am.ActivityManagerService.grantUriPermission:(Landroid/app/IApplicationThread;Ljava/lang/String;Landroid/net/Uri;II)V -->
<g id="edge1" class="edge">
<title>com.android.server.am.ActivityManagerService&#45;&gt;m::com.android.server.am.ActivityManagerService.grantUriPermission:(Landroid/app/IApplicationThread;Ljava/lang/String;Landroid/net/Uri;II)V</title>
<path fill="none" stroke="#dc2626" stroke-width="1.6" d="M238.5,-1477.64C238.5,-1466.66 238.5,-1452.29 238.5,-1440.09"/>
<polygon fill="#dc2626" stroke="#dc2626" stroke-width="1.6" points="241.3,-1440.05 238.5,-1432.05 235.7,-1440.05 241.3,-1440.05"/>
<text text-anchor="middle" x="255.5" y="-1452.8" font-family="Helvetica,sans-Serif" font-size="9.00" fill="#dc2626"> held in</text>
</g>
</g>
</svg>
