<?xml version="1.0" encoding="UTF-8" standalone="no"?>
<!DOCTYPE svg PUBLIC "-//W3C//DTD SVG 1.1//EN"
 "http://www.w3.org/Graphics/SVG/1.1/DTD/svg11.dtd">
<!-- Generated by graphviz version 2.43.0 (0)
 -->
<!-- Title: binder Pages: 1 -->
<svg width="678pt" height="208pt"
 viewBox="0.00 0.00 678.00 208.00" xmlns="http://www.w3.org/2000/svg" xmlns:xlink="http://www.w3.org/1999/xlink">
<g id="graph0" class="graph" transform="scale(1 1) rotate(0) translate(4 204)">
<title>binder</title>
<polygon fill="white" stroke="transparent" points="-4,4 -4,-204 674,-204 674,4 -4,4"/>
<!-- m::com.android.server.am.ActivityManagerService.killProcessesBelowAdj:(ILjava/lang/String;)Z -->
<g id="node1" class="node">
<title>m::com.android.server.am.ActivityManagerService.killProcessesBelowAdj:(ILjava/lang/String;)Z</title>
<path fill="#eef2ff" stroke="#a5b4fc" d="M438,-118C438,-118 190,-118 190,-118 184,-118 178,-112 178,-106 178,-106 178,-94 178,-94 178,-88 184,-82 190,-82 190,-82 438,-82 438,-82 444,-82 450,-88 450,-94 450,-94 450,-106 450,-106 450,-112 444,-118 438,-118"/>
<text text-anchor="middle" x="314" y="-97.2" font-family="Helvetica,sans-Serif" font-size="11.00">ActivityManagerService.killProcessesBelowAdj</text>
</g>
<!-- __ipc__ -->
<g id="node2" class="node">
<title>__ipc__</title>
<path fill="#fde68a" stroke="#d97706" stroke-width="2" d="M358,-36C358,-36 270,-36 270,-36 264,-36 258,-30 258,-24 258,-24 258,-12 258,-12 258,-6 264,0 270,0 270,0 358,0 358,0 364,0 370,-6 370,-12 370,-12 370,-24 370,-24 370,-30 364,-36 358,-36"/>
<text text-anchor="middle" x="314" y="-21.2" font-family="Helvetica,sans-Serif" font-size="11.00">Binder IPC</text>
<text text-anchor="middle" x="314" y="-9.2" font-family="Helvetica,sans-Serif" font-size="11.00">(remote process)</text>
</g>
<!-- m::com.android.server.am.ActivityManagerService.killProcessesBelowAdj:(ILjava/lang/String;)Z&#45;&gt;__ipc__ -->
<g id="edge4" class="edge">
<title>m::com.android.server.am.ActivityManagerService.killProcessesBelowAdj:(ILjava/lang/String;)Z&#45;&gt;__ipc__</title>
<path fill="none" stroke="#d97706" stroke-width="1.6" d="M314,-81.64C314,-70.66 314,-56.29 314,-44.09"/>
<polygon fill="#d97706" stroke="#d97706" stroke-width="1.6" points="316.8,-44.05 314,-36.05 311.2,-44.05 316.8,-44.05"/>
<text text-anchor="middle" x="337" y="-56.8" font-family="Helvetica,sans-Serif" font-size="9.00" fill="#b45309"> transacts</text>
</g>
<!-- com.android.server.am.ActivityManagerService -->
<g id="node3" class="node">
<title>com.android.server.am.ActivityManagerService</title>
<path fill="#fee2e2" stroke="#dc2626" stroke-width="2" d="M156,-200C156,-200 12,-200 12,-200 6,-200 0,-194 0,-188 0,-188 0,-176 0,-176 0,-170 6,-164 12,-164 12,-164 156,-164 156,-164 162,-164 168,-170 168,-176 168,-176 168,-188 168,-188 168,-194 162,-200 156,-200"/>
<text text-anchor="middle" x="84" y="-179.2" font-family="Helvetica,sans-Serif" font-size="11.00">am.ActivityManagerService</text>
</g>
<!-- com.android.server.am.ActivityManagerService&#45;&gt;m::com.android.server.am.ActivityManagerService.killProcessesBelowAdj:(ILjava/lang/String;)Z -->
<g id="edge1" class="edge">
<title>com.android.server.am.ActivityManagerService&#45;&gt;m::com.android.server.am.ActivityManagerService.killProcessesBelowAdj:(ILjava/lang/String;)Z</title>
<path fill="none" stroke="#dc2626" stroke-width="1.6" d="M133.06,-163.94C169.39,-151.3 218.99,-134.05 257.07,-120.8"/>
<polygon fill="#dc2626" stroke="#dc2626" stroke-width="1.6" points="258.38,-123.31 265.02,-118.04 256.54,-118.02 258.38,-123.31"/>
<text text-anchor="middle" x="230" y="-138.8" font-family="Helvetica,sans-Serif" font-size="9.00" fill="#dc2626"> held in</text>
</g>
<!-- com.android.server.am.ActivityManagerService.mPidsSelfLocked -->
<g id="node4" class="node">
<title>com.android.server.am.ActivityManagerService.mPidsSelfLocked</title>
<path fill="#fee2e2" stroke="#dc2626" stroke-width="2" d="M423,-200C423,-200 205,-200 205,-200 199,-200 193,-194 193,-188 193,-188 193,-176 193,-176 193,-170 199,-164 205,-164 205,-164 423,-164 423,-164 429,-164 435,-170 435,-176 435,-176 435,-188 435,-188 435,-194 429,-200 423,-200"/>
<text text-anchor="middle" x="314" y="-179.2" font-family="Helvetica,sans-Serif" font-size="11.00">ActivityManagerService.mPidsSelfLocked</text>
</g>
<!-- com.android.server.am.ActivityManagerService.mPidsSelfLocked&#45;&gt;m::com.android.server.am.ActivityManagerService.killProcessesBelowAdj:(ILjava/lang/String;)Z -->
<g id="edge2" class="edge">
<title>com.android.server.am.ActivityManagerService.mPidsSelfLocked&#45;&gt;m::com.android.server.am.ActivityManagerService.killProcessesBelowAdj:(ILjava/lang/String;)Z</title>
<path fill="none" stroke="#dc2626" stroke-width="1.6" d="M314,-163.64C314,-152.66 314,-138.29 314,-126.09"/>
<polygon fill="#dc2626" stroke="#dc2626" stroke-width="1.6" points="316.8,-126.05 314,-118.05 311.2,-126.05 316.8,-126.05"/>
<text text-anchor="middle" x="331" y="-138.8" font-family="Helvetica,sans-Serif" font-size="9.00" fill="#dc2626"> held in</text>
</g>
<!-- com.android.server.am.ActivityManagerService.mProcLock -->
<g id="node5" class="node">
<title>com.android.server.am.ActivityManagerService.mProcLock</title>
<path fill="#fee2e2" stroke="#dc2626" stroke-width="2" d="M658,-200C658,-200 472,-200 472,-200 466,-200 460,-194 460,-188 460,-188 460,-176 460,-176 460,-170 466,-164 472,-164 472,-164 658,-164 658,-164 664,-164 670,-170 670,-176 670,-176 670,-188 670,-188 670,-194 664,-200 658,-200"/>
<text text-anchor="middle" x="565" y="-179.2" font-family="Helvetica,sans-Serif" font-size="11.00">ActivityManagerService.mProcLock</text>
</g>
<!-- com.android.server.am.ActivityManagerService.mProcLock&#45;&gt;m::com.android.server.am.ActivityManagerService.killProcessesBelowAdj:(ILjava/lang/String;)Z -->
<g id="edge3" class="edge">
<title>com.android.server.am.ActivityManagerService.mProcLock&#45;&gt;m::com.android.server.am.ActivityManagerService.killProcessesBelowAdj:(ILjava/lang/String;)Z</title>
<path fill="none" stroke="#dc2626" stroke-width="1.6" d="M511.46,-163.94C471.48,-151.19 416.77,-133.76 375.08,-120.47"/>
<polygon fill="#dc2626" stroke="#dc2626" stroke-width="1.6" points="375.93,-117.8 367.46,-118.04 374.23,-123.13 375.93,-117.8"/>
<text text-anchor="middle" x="471" y="-138.8" font-family="Helvetica,sans-Serif" font-size="9.00" fill="#dc2626"> held in</text>
</g>
</g>
</svg>
