<?xml version="1.0" encoding="UTF-8" standalone="no"?>
<!DOCTYPE svg PUBLIC "-//W3C//DTD SVG 1.1//EN"
 "http://www.w3.org/Graphics/SVG/1.1/DTD/svg11.dtd">
<!-- Generated by graphviz version 2.43.0 (0)
 -->
<!-- Title: binder Pages: 1 -->
<svg width="236pt" height="208pt"
 viewBox="0.00 0.00 236.00 208.00" xmlns="http://www.w3.org/2000/svg" xmlns:xlink="http://www.w3.org/1999/xlink">
<g id="graph0" class="graph" transform="scale(1 1) rotate(0) translate(4 204)">
<title>binder</title>
<polygon fill="white" stroke="transparent" points="-4,4 -4,-204 232,-204 232,4 -4,4"/>
<!-- m::com.android.server.am.ActivityManagerService.unbindService:(Landroid/app/IServiceConnection;)Z -->
<g id="node1" class="node">
<title>m::com.android.server.am.ActivityManagerService.unbindService:(Landroid/app/IServiceConnection;)Z</title>
<path fill="#eef2ff" stroke="#a5b4fc" d="M216,-118C216,-118 12,-118 12,-118 6,-118 0,-112 0,-106 0,-106 0,-94 0,-94 0,-88 6,-82 12,-82 12,-82 216,-82 216,-82 222,-82 228,-88 228,-94 228,-94 228,-106 228,-106 228,-112 222,-118 216,-118"/>
<text text-anchor="middle" x="114" y="-97.2" font-family="Helvetica,sans-Serif" font-size="11.00">ActivityManagerService.unbindService</text>
</g>
<!-- __ipc__ -->
<g id="node2" class="node">
<title>__ipc__</title>
<path fill="#fde68a" stroke="#d97706" stroke-width="2" d="M158,-36C158,-36 70,-36 70,-36 64,-36 58,-30 58,-24 58,-24 58,-12 58,-12 58,-6 64,0 70,0 70,0 158,0 158,0 164,0 170,-6 170,-12 170,-12 170,-24 170,-24 170,-30 164,-36 158,-36"/>
<text text-anchor="middle" x="114" y="-21.2" font-family="Helvetica,sans-Serif" font-size="11.00">Binder IPC</text>
<text text-anchor="middle" x="114" y="-9.2" font-family="Helvetica,sans-Serif" font-size="11.00">(remote process)</text>
</g>
<!-- m::com.android.server.am.ActivityManagerService.unbindService:(Landroid/app/IServiceConnection;)Z&#45;&gt;__ipc__ -->
<g id="edge2" class="edge">
<title>m::com.android.server.am.ActivityManagerService.unbindService:(Landroid/app/IServiceConnection;)Z&#45;&gt;__ipc__</title>
<path fill="none" stroke="#d97706" stroke-width="1.6" d="M114,-81.64C114,-70.66 114,-56.29 114,-44.09"/>
<polygon fill="#d97706" stroke="#d97706" stroke-width="1.6" points="116.8,-44.05 114,-36.05 111.2,-44.05 116.8,-44.05"/>
<text text-anchor="middle" x="137" y="-56.8" font-family="Helvetica,sans-Serif" font-size="9.00" fill="#b45309"> transacts</text>
</g>
<!-- com.android.server.am.ActivityManagerService -->
<g id="node3" class="node">
<title>com.android.server.am.ActivityManagerService</title>
<path fill="#fee2e2" stroke="#dc2626" stroke-width="2" d="M186,-200C186,-200 42,-200 42,-200 36,-200 30,-194 30,-188 30,-188 30,-176 30,-176 30,-170 36,-164 42,-164 42,-164 186,-164 186,-164 192,-164 198,-170 198,-176 198,-176 198,-188 198,-188 198,-194 192,-200 186,-200"/>
<text text-anchor="middle" x="114" y="-179.2" font-family="Helvetica,sans-Serif" font-size="11.00">am.ActivityManagerService</text>
</g>
<!-- com.android.server.am.ActivityManagerService&#45;&gt;m::com.android.server.am.ActivityManagerService.unbindService:(Landroid/app/IServiceConnection;)Z -->
<g id="edge1" class="edge">
<title>com.android.server.am.ActivityManagerService&#45;&gt;m::com.android.server.am.ActivityManagerService.unbindService:(Landroid/app/IServiceConnection;)Z</title>
<path fill="none" stroke="#dc2626" stroke-width="1.6" d="M114,-163.64C114,-152.66 114,-138.29 114,-126.09"/>
<polygon fill="#dc2626" stroke="#dc2626" stroke-width="1.6" points="116.8,-126.05 114,-118.05 111.2,-126.05 116.8,-126.05"/>
<text text-anchor="middle" x="131" y="-138.8" font-family="Helvetica,sans-Serif" font-size="9.00" fill="#dc2626"> held in</text>
</g>
</g>
</svg>
