<?xml version="1.0" encoding="UTF-8" standalone="no"?>
<!DOCTYPE svg PUBLIC "-//W3C//DTD SVG 1.1//EN"
 "http://www.w3.org/Graphics/SVG/1.1/DTD/svg11.dtd">
<!-- Generated by graphviz version 2.43.0 (0)
 -->
<!-- Title: binder Pages: 1 -->
<svg width="325pt" height="208pt"
 viewBox="0.00 0.00 325.00 208.00" xmlns="http://www.w3.org/2000/svg" xmlns:xlink="http://www.w3.org/1999/xlink">
<g id="graph0" class="graph" transform="scale(1 1) rotate(0) translate(4 204)">
<title>binder</title>
<polygon fill="white" stroke="transparent" points="-4,4 -4,-204 321,-204 321,4 -4,4"/>
<!-- m::com.android.server.am.ActivityManagerService$LocalService.cleanUpServices:(ILandroid/content/ComponentName;Landroid/content/Intent;)V -->
<g id="node1" class="node">
<title>m::com.android.server.am.ActivityManagerService$LocalService.cleanUpServices:(ILandroid/content/ComponentName;Landroid/content/Intent;)V</title>
<path fill="#eef2ff" stroke="#a5b4fc" d="M305,-118C305,-118 12,-118 12,-118 6,-118 0,-112 0,-106 0,-106 0,-94 0,-94 0,-88 6,-82 12,-82 12,-82 305,-82 305,-82 311,-82 317,-88 317,-94 317,-94 317,-106 317,-106 317,-112 311,-118 305,-118"/>
<text text-anchor="middle" x="158.5" y="-97.2" font-family="Helvetica,sans-Serif" font-size="11.00">ActivityManagerService$LocalService.cleanUpServices</text>
</g>
<!-- __ipc__ -->
<g id="node2" class="node">
<title>__ipc__</title>
<path fill="#fde68a" stroke="#d97706" stroke-width="2" d="M202.5,-36C202.5,-36 114.5,-36 114.5,-36 108.5,-36 102.5,-30 102.5,-24 102.5,-24 102.5,-12 102.5,-12 102.5,-6 108.5,0 114.5,0 114.5,0 202.5,0 202.5,0 208.5,0 214.5,-6 214.5,-12 214.5,-12 214.5,-24 214.5,-24 214.5,-30 208.5,-36 202.5,-36"/>
<text text-anchor="middle" x="158.5" y="-21.2" font-family="Helvetica,sans-Serif" font-size="11.00">Binder IPC</text>
<text text-anchor="middle" x="158.5" y="-9.2" font-family="Helvetica,sans-Serif" font-size="11.00">(remote process)</text>
</g>
<!-- m::com.android.server.am.ActivityManagerService$LocalService.cleanUpServices:(ILandroid/content/ComponentName;Landroid/content/Intent;)V&#45;&gt;__ipc__ -->
<g id="edge2" class="edge">
<title>m::com.android.server.am.ActivityManagerService$LocalService.cleanUpServices:(ILandroid/content/ComponentName;Landroid/content/Intent;)V&#45;&gt;__ipc__</title>
<path fill="none" stroke="#d97706" stroke-width="1.6" d="M158.5,-81.64C158.5,-70.66 158.5,-56.29 158.5,-44.09"/>
<polygon fill="#d97706" stroke="#d97706" stroke-width="1.6" points="161.3,-44.05 158.5,-36.05 155.7,-44.05 161.3,-44.05"/>
<text text-anchor="middle" x="181.5" y="-56.8" font-family="Helvetica,sans-Serif" font-size="9.00" fill="#b45309"> transacts</text>
</g>
<!-- com.android.server.am.ActivityManagerService$LocalService.this$0 -->
<g id="node3" class="node">
<title>com.android.server.am.ActivityManagerService$LocalService.this$0</title>
<path fill="#fee2e2" stroke="#dc2626" stroke-width="2" d="M276.5,-200C276.5,-200 40.5,-200 40.5,-200 34.5,-200 28.5,-194 28.5,-188 28.5,-188 28.5,-176 28.5,-176 28.5,-170 34.5,-164 40.5,-164 40.5,-164 276.5,-164 276.5,-164 282.5,-164 288.5,-170 288.5,-176 288.5,-176 288.5,-188 288.5,-188 288.5,-194 282.5,-200 276.5,-200"/>
<text text-anchor="middle" x="158.5" y="-179.2" font-family="Helvetica,sans-Serif" font-size="11.00">ActivityManagerService$LocalService.this$0</text>
</g>
<!-- com.android.server.am.ActivityManagerService$LocalService.this$0&#45;&gt;m::com.android.server.am.ActivityManagerService$LocalService.cleanUpServices:(ILandroid/content/ComponentName;Landroid/content/Intent;)V -->
<g id="edge1" class="edge">
<title>com.android.server.am.ActivityManagerService$LocalService.this$0&#45;&gt;m::com.android.server.am.ActivityManagerService$LocalService.cleanUpServices:(ILandroid/content/ComponentName;Landroid/content/Intent;)V</title>
<path fill="none" stroke="#dc2626" stroke-width="1.6" d="M158.5,-163.64C158.5,-152.66 158.5,-138.29 158.5,-126.09"/>
<polygon fill="#dc2626" stroke="#dc2626" stroke-width="1.6" points="161.3,-126.05 158.5,-118.05 155.7,-126.05 161.3,-126.05"/>
<text text-anchor="middle" x="175.5" y="-138.8" font-family="Helvetica,sans-Serif" font-size="9.00" fill="#dc2626"> held in</text>
</g>
</g>
</svg>
