<?xml version="1.0" encoding="UTF-8" standalone="no"?>
<!DOCTYPE svg PUBLIC "-//W3C//DTD SVG 1.1//EN"
 "http://www.w3.org/Graphics/SVG/1.1/DTD/svg11.dtd">
<!-- Generated by graphviz version 2.43.0 (0)
 -->
<!-- Title: binder Pages: 1 -->
<svg width="412pt" height="208pt"
 viewBox="0.00 0.00 412.00 208.00" xmlns="http://www.w3.org/2000/svg" xmlns:xlink="http://www.w3.org/1999/xlink">
<g id="graph0" class="graph" transform="scale(1 1) rotate(0) translate(4 204)">
<title>binder</title>
<polygon fill="white" stroke="transparent" points="-4,4 -4,-204 408,-204 408,4 -4,4"/>
<!-- m::com.android.server.am.ActivityManagerService$LocalService.killSdkSandboxClientAppProcess:(Landroid/os/IBinder;)V -->
<g id="node1" class="node">
<title>m::com.android.server.am.ActivityManagerService$LocalService.killSdkSandboxClientAppProcess:(Landroid/os/IBinder;)V</title>
<path fill="#eef2ff" stroke="#a5b4fc" d="M392,-118C392,-118 12,-118 12,-118 6,-118 0,-112 0,-106 0,-106 0,-94 0,-94 0,-88 6,-82 12,-82 12,-82 392,-82 392,-82 398,-82 404,-88 404,-94 404,-94 404,-106 404,-106 404,-112 398,-118 392,-118"/>
<text text-anchor="middle" x="202" y="-97.2" font-family="Helvetica,sans-Serif" font-size="11.00">ActivityManagerService$LocalService.killSdkSandboxClientAppProcess</text>
</g>
<!-- __ipc__ -->
<g id="node2" class="node">
<title>__ipc__</title>
<path fill="#fde68a" stroke="#d97706" stroke-width="2" d="M246,-36C246,-36 158,-36 158,-36 152,-36 146,-30 146,-24 146,-24 146,-12 146,-12 146,-6 152,0 158,0 158,0 246,0 246,0 252,0 258,-6 258,-12 258,-12 258,-24 258,-24 258,-30 252,-36 246,-36"/>
<text text-anchor="middle" x="202" y="-21.2" font-family="Helvetica,sans-Serif" font-size="11.00">Binder IPC</text>
<text text-anchor="middle" x="202" y="-9.2" font-family="Helvetica,sans-Serif" font-size="11.00">(remote process)</text>
</g>
<!-- m::com.android.server.am.ActivityManagerService$LocalService.killSdkSandboxClientAppProcess:(Landroid/os/IBinder;)V&#45;&gt;__ipc__ -->
<g id="edge2" class="edge">
<title>m::com.android.server.am.ActivityManagerService$LocalService.killSdkSandboxClientAppProcess:(Landroid/os/IBinder;)V&#45;&gt;__ipc__</title>
<path fill="none" stroke="#d97706" stroke-width="1.6" d="M202,-81.64C202,-70.66 202,-56.29 202,-44.09"/>
<polygon fill="#d97706" stroke="#d97706" stroke-width="1.6" points="204.8,-44.05 202,-36.05 199.2,-44.05 204.8,-44.05"/>
<text text-anchor="middle" x="225" y="-56.8" font-family="Helvetica,sans-Serif" font-size="9.00" fill="#b45309"> transacts</text>
</g>
<!-- com.android.server.am.ActivityManagerService$LocalService.this$0 -->
<g id="node3" class="node">
<title>com.android.server.am.ActivityManagerService$LocalService.this$0</title>
<path fill="#fee2e2" stroke="#dc2626" stroke-width="2" d="M320,-200C320,-200 84,-200 84,-200 78,-200 72,-194 72,-188 72,-188 72,-176 72,-176 72,-170 78,-164 84,-164 84,-164 320,-164 320,-164 326,-164 332,-170 332,-176 332,-176 332,-188 332,-188 332,-194 326,-200 320,-200"/>
<text text-anchor="middle" x="202" y="-179.2" font-family="Helvetica,sans-Serif" font-size="11.00">ActivityManagerService$LocalService.this$0</text>
</g>
<!-- com.android.server.am.ActivityManagerService$LocalService.this$0&#45;&gt;m::com.android.server.am.ActivityManagerService$LocalService.killSdkSandboxClientAppProcess:(Landroid/os/IBinder;)V -->
<g id="edge1" class="edge">
<title>com.android.server.am.ActivityManagerService$LocalService.this$0&#45;&gt;m::com.android.server.am.ActivityManagerService$LocalService.killSdkSandboxClientAppProcess:(Landroid/os/IBinder;)V</title>
<path fill="none" stroke="#dc2626" stroke-width="1.6" d="M202,-163.64C202,-152.66 202,-138.29 202,-126.09"/>
<polygon fill="#dc2626" stroke="#dc2626" stroke-width="1.6" points="204.8,-126.05 202,-118.05 199.2,-126.05 204.8,-126.05"/>
<text text-anchor="middle" x="219" y="-138.8" font-family="Helvetica,sans-Serif" font-size="9.00" fill="#dc2626"> held in</text>
</g>
</g>
</svg>
