<?xml version="1.0" encoding="UTF-8" standalone="no"?>
<!DOCTYPE svg PUBLIC "-//W3C//DTD SVG 1.1//EN"
 "http://www.w3.org/Graphics/SVG/1.1/DTD/svg11.dtd">
<!-- Generated by graphviz version 2.43.0 (0)
 -->
<!-- Title: binder Pages: 1 -->
<svg width="503pt" height="208pt"
 viewBox="0.00 0.00 503.00 208.00" xmlns="http://www.w3.org/2000/svg" xmlns:xlink="http://www.w3.org/1999/xlink">
<g id="graph0" class="graph" transform="scale(1 1) rotate(0) translate(4 204)">
<title>binder</title>
<polygon fill="white" stroke="transparent" points="-4,4 -4,-204 499,-204 499,4 -4,4"/>
<!-- m::com.android.server.am.ActivityManagerService$LocalService.updateDeviceIdleTempAllowlist:([IIZJIILjava/lang/String;I)V -->
<g id="node1" class="node">
<title>m::com.android.server.am.ActivityManagerService$LocalService.updateDeviceIdleTempAllowlist:([IIZJIILjava/lang/String;I)V</title>
<path fill="#eef2ff" stroke="#a5b4fc" d="M446,-118C446,-118 74,-118 74,-118 68,-118 62,-112 62,-106 62,-106 62,-94 62,-94 62,-88 68,-82 74,-82 74,-82 446,-82 446,-82 452,-82 458,-88 458,-94 458,-94 458,-106 458,-106 458,-112 452,-118 446,-118"/>
<text text-anchor="middle" x="260" y="-97.2" font-family="Helvetica,sans-Serif" font-size="11.00">ActivityManagerService$LocalService.updateDeviceIdleTempAllowlist</text>
</g>
<!-- __ipc__ -->
<g id="node2" class="node">
<title>__ipc__</title>
<path fill="#fde68a" stroke="#d97706" stroke-width="2" d="M304,-36C304,-36 216,-36 216,-36 210,-36 204,-30 204,-24 204,-24 204,-12 204,-12 204,-6 210,0 216,0 216,0 304,0 304,0 310,0 316,-6 316,-12 316,-12 316,-24 316,-24 316,-30 310,-36 304,-36"/>
<text text-anchor="middle" x="260" y="-21.2" font-family="Helvetica,sans-Serif" font-size="11.00">Binder IPC</text>
<text text-anchor="middle" x="260" y="-9.2" font-family="Helvetica,sans-Serif" font-size="11.00">(remote process)</text>
</g>
<!-- m::com.android.server.am.ActivityManagerService$LocalService.updateDeviceIdleTempAllowlist:([IIZJIILjava/lang/String;I)V&#45;&gt;__ipc__ -->
<g id="edge3" class="edge">
<title>m::com.android.server.am.ActivityManagerService$LocalService.updateDeviceIdleTempAllowlist:([IIZJIILjava/lang/String;I)V&#45;&gt;__ipc__</title>
<path fill="none" stroke="#d97706" stroke-width="1.6" d="M260,-81.64C260,-70.66 260,-56.29 260,-44.09"/>
<polygon fill="#d97706" stroke="#d97706" stroke-width="1.6" points="262.8,-44.05 260,-36.05 257.2,-44.05 262.8,-44.05"/>
<text text-anchor="middle" x="283" y="-56.8" font-family="Helvetica,sans-Serif" font-size="9.00" fill="#b45309"> transacts</text>
</g>
<!-- com.android.server.am.ActivityManagerService$LocalService.this$0 -->
<g id="node3" class="node">
<title>com.android.server.am.ActivityManagerService$LocalService.this$0</title>
<path fill="#fee2e2" stroke="#dc2626" stroke-width="2" d="M248,-200C248,-200 12,-200 12,-200 6,-200 0,-194 0,-188 0,-188 0,-176 0,-176 0,-170 6,-164 12,-164 12,-164 248,-164 248,-164 254,-164 260,-170 260,-176 260,-176 260,-188 260,-188 260,-194 254,-200 248,-200"/>
<text text-anchor="middle" x="130" y="-179.2" font-family="Helvetica,sans-Serif" font-size="11.00">ActivityManagerService$LocalService.this$0</text>
</g>
<!-- com.android.server.am.ActivityManagerService$LocalService.this$0&#45;&gt;m::com.android.server.am.ActivityManagerService$LocalService.updateDeviceIdleTempAllowlist:([IIZJIILjava/lang/String;I)V -->
<g id="edge1" class="edge">
<title>com.android.server.am.ActivityManagerService$LocalService.this$0&#45;&gt;m::com.android.server.am.ActivityManagerService$LocalService.updateDeviceIdleTempAllowlist:([IIZJIILjava/lang/String;I)V</title>
<path fill="none" stroke="#dc2626" stroke-width="1.6" d="M157.89,-163.84C177.59,-151.71 204.15,-135.37 225.23,-122.39"/>
<polygon fill="#dc2626" stroke="#dc2626" stroke-width="1.6" points="226.81,-124.71 232.16,-118.13 223.88,-119.94 226.81,-124.71"/>
<text text-anchor="middle" x="220" y="-138.8" font-family="Helvetica,sans-Serif" font-size="9.00" fill="#dc2626"> held in</text>
</g>
<!-- com.android.server.am.ActivityManagerService.mProcLock -->
<g id="node4" class="node">
<title>com.android.server.am.ActivityManagerService.mProcLock</title>
<path fill="#fee2e2" stroke="#dc2626" stroke-width="2" d="M483,-200C483,-200 297,-200 297,-200 291,-200 285,-194 285,-188 285,-188 285,-176 285,-176 285,-170 291,-164 297,-164 297,-164 483,-164 483,-164 489,-164 495,-170 495,-176 495,-176 495,-188 495,-188 495,-194 489,-200 483,-200"/>
<text text-anchor="middle" x="390" y="-179.2" font-family="Helvetica,sans-Serif" font-size="11.00">ActivityManagerService.mProcLock</text>
</g>
<!-- com.android.server.am.ActivityManagerService.mProcLock&#45;&gt;m::com.android.server.am.ActivityManagerService$LocalService.updateDeviceIdleTempAllowlist:([IIZJIILjava/lang/String;I)V -->
<g id="edge2" class="edge">
<title>com.android.server.am.ActivityManagerService.mProcLock&#45;&gt;m::com.android.server.am.ActivityManagerService$LocalService.updateDeviceIdleTempAllowlist:([IIZJIILjava/lang/String;I)V</title>
<path fill="none" stroke="#dc2626" stroke-width="1.6" d="M362.11,-163.84C342.41,-151.71 315.85,-135.37 294.77,-122.39"/>
<polygon fill="#dc2626" stroke="#dc2626" stroke-width="1.6" points="296.12,-119.94 287.84,-118.13 293.19,-124.71 296.12,-119.94"/>
<text text-anchor="middle" x="349" y="-138.8" font-family="Helvetica,sans-Serif" font-size="9.00" fill="#dc2626"> held in</text>
</g>
</g>
</svg>
