<?xml version="1.0" encoding="UTF-8" standalone="no"?>
<!DOCTYPE svg PUBLIC "-//W3C//DTD SVG 1.1//EN"
 "http://www.w3.org/Graphics/SVG/1.1/DTD/svg11.dtd">
<!-- Generated by graphviz version 2.43.0 (0)
 -->
<!-- Title: binder Pages: 1 -->
<svg width="436pt" height="208pt"
 viewBox="0.00 0.00 436.00 208.00" xmlns="http://www.w3.org/2000/svg" xmlns:xlink="http://www.w3.org/1999/xlink">
<g id="graph0" class="graph" transform="scale(1 1) rotate(0) translate(4 204)">
<title>binder</title>
<polygon fill="white" stroke="transparent" points="-4,4 -4,-204 432,-204 432,4 -4,4"/>
<!-- m::com.android.server.am.ActivityManagerService$LocalService.notifyActiveMediaForegroundService:(Ljava/lang/String;II)V -->
<g id="node1" class="node">
<title>m::com.android.server.am.ActivityManagerService$LocalService.notifyActiveMediaForegroundService:(Ljava/lang/String;II)V</title>
<path fill="#eef2ff" stroke="#a5b4fc" d="M416,-118C416,-118 12,-118 12,-118 6,-118 0,-112 0,-106 0,-106 0,-94 0,-94 0,-88 6,-82 12,-82 12,-82 416,-82 416,-82 422,-82 428,-88 428,-94 428,-94 428,-106 428,-106 428,-112 422,-118 416,-118"/>
<text text-anchor="middle" x="214" y="-97.2" font-family="Helvetica,sans-Serif" font-size="11.00">ActivityManagerService$LocalService.notifyActiveMediaForegroundService</text>
</g>
<!-- __ipc__ -->
<g id="node2" class="node">
<title>__ipc__</title>
<path fill="#fde68a" stroke="#d97706" stroke-width="2" d="M258,-36C258,-36 170,-36 170,-36 164,-36 158,-30 158,-24 158,-24 158,-12 158,-12 158,-6 164,0 170,0 170,0 258,0 258,0 264,0 270,-6 270,-12 270,-12 270,-24 270,-24 270,-30 264,-36 258,-36"/>
<text text-anchor="middle" x="214" y="-21.2" font-family="Helvetica,sans-Serif" font-size="11.00">Binder IPC</text>
<text text-anchor="middle" x="214" y="-9.2" font-family="Helvetica,sans-Serif" font-size="11.00">(remote process)</text>
</g>
<!-- m::com.android.server.am.ActivityManagerService$LocalService.notifyActiveMediaForegroundService:(Ljava/lang/String;II)V&#45;&gt;__ipc__ -->
<g id="edge2" class="edge">
<title>m::com.android.server.am.ActivityManagerService$LocalService.notifyActiveMediaForegroundService:(Ljava/lang/String;II)V&#45;&gt;__ipc__</title>
<path fill="none" stroke="#d97706" stroke-width="1.6" d="M214,-81.64C214,-70.66 214,-56.29 214,-44.09"/>
<polygon fill="#d97706" stroke="#d97706" stroke-width="1.6" points="216.8,-44.05 214,-36.05 211.2,-44.05 216.8,-44.05"/>
<text text-anchor="middle" x="237" y="-56.8" font-family="Helvetica,sans-Serif" font-size="9.00" fill="#b45309"> transacts</text>
</g>
<!-- com.android.server.am.ActivityManagerService$LocalService.this$0 -->
<g id="node3" class="node">
<title>com.android.server.am.ActivityManagerService$LocalService.this$0</title>
<path fill="#fee2e2" stroke="#dc2626" stroke-width="2" d="M332,-200C332,-200 96,-200 96,-200 90,-200 84,-194 84,-188 84,-188 84,-176 84,-176 84,-170 90,-164 96,-164 96,-164 332,-164 332,-164 338,-164 344,-170 344,-176 344,-176 344,-188 344,-188 344,-194 338,-200 332,-200"/>
<text text-anchor="middle" x="214" y="-179.2" font-family="Helvetica,sans-Serif" font-size="11.00">ActivityManagerService$LocalService.this$0</text>
</g>
<!-- com.android.server.am.ActivityManagerService$LocalService.this$0&#45;&gt;m::com.android.server.am.ActivityManagerService$LocalService.notifyActiveMediaForegroundService:(Ljava/lang/String;II)V -->
<g id="edge1" class="edge">
<title>com.android.server.am.ActivityManagerService$LocalService.this$0&#45;&gt;m::com.android.server.am.ActivityManagerService$LocalService.notifyActiveMediaForegroundService:(Ljava/lang/String;II)V</title>
<path fill="none" stroke="#dc2626" stroke-width="1.6" d="M214,-163.64C214,-152.66 214,-138.29 214,-126.09"/>
<polygon fill="#dc2626" stroke="#dc2626" stroke-width="1.6" points="216.8,-126.05 214,-118.05 211.2,-126.05 216.8,-126.05"/>
<text text-anchor="middle" x="231" y="-138.8" font-family="Helvetica,sans-Serif" font-size="9.00" fill="#dc2626"> held in</text>
</g>
</g>
</svg>
