<?xml version="1.0" encoding="UTF-8" standalone="no"?>
<!DOCTYPE svg PUBLIC "-//W3C//DTD SVG 1.1//EN"
 "http://www.w3.org/Graphics/SVG/1.1/DTD/svg11.dtd">
<!-- Generated by graphviz version 2.43.0 (0)
 -->
<!-- Title: binder Pages: 1 -->
<svg width="298pt" height="208pt"
 viewBox="0.00 0.00 298.00 208.00" xmlns="http://www.w3.org/2000/svg" xmlns:xlink="http://www.w3.org/1999/xlink">
<g id="graph0" class="graph" transform="scale(1 1) rotate(0) translate(4 204)">
<title>binder</title>
<polygon fill="white" stroke="transparent" points="-4,4 -4,-204 294,-204 294,4 -4,4"/>
<!-- m::com.android.server.am.ActivityManagerService.runInBackgroundDisabled:(I)V -->
<g id="node1" class="node">
<title>m::com.android.server.am.ActivityManagerService.runInBackgroundDisabled:(I)V</title>
<path fill="#eef2ff" stroke="#a5b4fc" d="M278,-118C278,-118 12,-118 12,-118 6,-118 0,-112 0,-106 0,-106 0,-94 0,-94 0,-88 6,-82 12,-82 12,-82 278,-82 278,-82 284,-82 290,-88 290,-94 290,-94 290,-106 290,-106 290,-112 284,-118 278,-118"/>
<text text-anchor="middle" x="145" y="-97.2" font-family="Helvetica,sans-Serif" font-size="11.00">ActivityManagerService.runInBackgroundDisabled</text>
</g>
<!-- __ipc__ -->
<g id="node2" class="node">
<title>__ipc__</title>
<path fill="#fde68a" stroke="#d97706" stroke-width="2" d="M189,-36C189,-36 101,-36 101,-36 95,-36 89,-30 89,-24 89,-24 89,-12 89,-12 89,-6 95,0 101,0 101,0 189,0 189,0 195,0 201,-6 201,-12 201,-12 201,-24 201,-24 201,-30 195,-36 189,-36"/>
<text text-anchor="middle" x="145" y="-21.2" font-family="Helvetica,sans-Serif" font-size="11.00">Binder IPC</text>
<text text-anchor="middle" x="145" y="-9.2" font-family="Helvetica,sans-Serif" font-size="11.00">(remote process)</text>
</g>
<!-- m::com.android.server.am.ActivityManagerService.runInBackgroundDisabled:(I)V&#45;&gt;__ipc__ -->
<g id="edge2" class="edge">
<title>m::com.android.server.am.ActivityManagerService.runInBackgroundDisabled:(I)V&#45;&gt;__ipc__</title>
<path fill="none" stroke="#d97706" stroke-width="1.6" d="M145,-81.64C145,-70.66 145,-56.29 145,-44.09"/>
<polygon fill="#d97706" stroke="#d97706" stroke-width="1.6" points="147.8,-44.05 145,-36.05 142.2,-44.05 147.8,-44.05"/>
<text text-anchor="middle" x="168" y="-56.8" font-family="Helvetica,sans-Serif" font-size="9.00" fill="#b45309"> transacts</text>
</g>
<!-- com.android.server.am.ActivityManagerService -->
<g id="node3" class="node">
<title>com.android.server.am.ActivityManagerService</title>
<path fill="#fee2e2" stroke="#dc2626" stroke-width="2" d="M217,-200C217,-200 73,-200 73,-200 67,-200 61,-194 61,-188 61,-188 61,-176 61,-176 61,-170 67,-164 73,-164 73,-164 217,-164 217,-164 223,-164 229,-170 229,-176 229,-176 229,-188 229,-188 229,-194 223,-200 217,-200"/>
<text text-anchor="middle" x="145" y="-179.2" font-family="Helvetica,sans-Serif" font-size="11.00">am.ActivityManagerService</text>
</g>
<!-- com.android.server.am.ActivityManagerService&#45;&gt;m::com.android.server.am.ActivityManagerService.runInBackgroundDisabled:(I)V -->
<g id="edge1" class="edge">
<title>com.android.server.am.ActivityManagerService&#45;&gt;m::com.android.server.am.ActivityManagerService.runInBackgroundDisabled:(I)V</title>
<path fill="none" stroke="#dc2626" stroke-width="1.6" d="M145,-163.64C145,-152.66 145,-138.29 145,-126.09"/>
<polygon fill="#dc2626" stroke="#dc2626" stroke-width="1.6" points="147.8,-126.05 145,-118.05 142.2,-126.05 147.8,-126.05"/>
<text text-anchor="middle" x="162" y="-138.8" font-family="Helvetica,sans-Serif" font-size="9.00" fill="#dc2626"> held in</text>
</g>
</g>
</svg>
