<?xml version="1.0" encoding="UTF-8" standalone="no"?>
<!DOCTYPE svg PUBLIC "-//W3C//DTD SVG 1.1//EN"
 "http://www.w3.org/Graphics/SVG/1.1/DTD/svg11.dtd">
<!-- Generated by graphviz version 2.43.0 (0)
 -->
<!-- Title: binder Pages: 1 -->
<svg width="226pt" height="208pt"
 viewBox="0.00 0.00 226.00 208.00" xmlns="http://www.w3.org/2000/svg" xmlns:xlink="http://www.w3.org/1999/xlink">
<g id="graph0" class="graph" transform="scale(1 1) rotate(0) translate(4 204)">
<title>binder</title>
<polygon fill="white" stroke="transparent" points="-4,4 -4,-204 222,-204 222,4 -4,4"/>
<!-- m::com.android.server.am.ActivityManagerService.setHasTopUi:(Z)V -->
<g id="node1" class="node">
<title>m::com.android.server.am.ActivityManagerService.setHasTopUi:(Z)V</title>
<path fill="#eef2ff" stroke="#a5b4fc" d="M206,-118C206,-118 12,-118 12,-118 6,-118 0,-112 0,-106 0,-106 0,-94 0,-94 0,-88 6,-82 12,-82 12,-82 206,-82 206,-82 212,-82 218,-88 218,-94 218,-94 218,-106 218,-106 218,-112 212,-118 206,-118"/>
<text text-anchor="middle" x="109" y="-97.2" font-family="Helvetica,sans-Serif" font-size="11.00">ActivityManagerService.setHasTopUi</text>
</g>
<!-- __ipc__ -->
<g id="node2" class="node">
<title>__ipc__</title>
<path fill="#fde68a" stroke="#d97706" stroke-width="2" d="M153,-36C153,-36 65,-36 65,-36 59,-36 53,-30 53,-24 53,-24 53,-12 53,-12 53,-6 59,0 65,0 65,0 153,0 153,0 159,0 165,-6 165,-12 165,-12 165,-24 165,-24 165,-30 159,-36 153,-36"/>
<text text-anchor="middle" x="109" y="-21.2" font-family="Helvetica,sans-Serif" font-size="11.00">Binder IPC</text>
<text text-anchor="middle" x="109" y="-9.2" font-family="Helvetica,sans-Serif" font-size="11.00">(remote process)</text>
</g>
<!-- m::com.android.server.am.ActivityManagerService.setHasTopUi:(Z)V&#45;&gt;__ipc__ -->
<g id="edge2" class="edge">
<title>m::com.android.server.am.ActivityManagerService.setHasTopUi:(Z)V&#45;&gt;__ipc__</title>
<path fill="none" stroke="#d97706" stroke-width="1.6" d="M109,-81.64C109,-70.66 109,-56.29 109,-44.09"/>
<polygon fill="#d97706" stroke="#d97706" stroke-width="1.6" points="111.8,-44.05 109,-36.05 106.2,-44.05 111.8,-44.05"/>
<text text-anchor="middle" x="132" y="-56.8" font-family="Helvetica,sans-Serif" font-size="9.00" fill="#b45309"> transacts</text>
</g>
<!-- com.android.server.am.ActivityManagerService -->
<g id="node3" class="node">
<title>com.android.server.am.ActivityManagerService</title>
<path fill="#fee2e2" stroke="#dc2626" stroke-width="2" d="M181,-200C181,-200 37,-200 37,-200 31,-200 25,-194 25,-188 25,-188 25,-176 25,-176 25,-170 31,-164 37,-164 37,-164 181,-164 181,-164 187,-164 193,-170 193,-176 193,-176 193,-188 193,-188 193,-194 187,-200 181,-200"/>
<text text-anchor="middle" x="109" y="-179.2" font-family="Helvetica,sans-Serif" font-size="11.00">am.ActivityManagerService</text>
</g>
<!-- com.android.server.am.ActivityManagerService&#45;&gt;m::com.android.server.am.ActivityManagerService.setHasTopUi:(Z)V -->
<g id="edge1" class="edge">
<title>com.android.server.am.ActivityManagerService&#45;&gt;m::com.android.server.am.ActivityManagerService.setHasTopUi:(Z)V</title>
<path fill="none" stroke="#dc2626" stroke-width="1.6" d="M109,-163.64C109,-152.66 109,-138.29 109,-126.09"/>
<polygon fill="#dc2626" stroke="#dc2626" stroke-width="1.6" points="111.8,-126.05 109,-118.05 106.2,-126.05 111.8,-126.05"/>
<text text-anchor="middle" x="126" y="-138.8" font-family="Helvetica,sans-Serif" font-size="9.00" fill="#dc2626"> held in</text>
</g>
</g>
</svg>
