<?xml version="1.0" encoding="UTF-8" standalone="no"?>
<!DOCTYPE svg PUBLIC "-//W3C//DTD SVG 1.1//EN"
 "http://www.w3.org/Graphics/SVG/1.1/DTD/svg11.dtd">
<!-- Generated by graphviz version 2.43.0 (0)
 -->
<!-- Title: binder Pages: 1 -->
<svg width="279pt" height="208pt"
 viewBox="0.00 0.00 279.00 208.00" xmlns="http://www.w3.org/2000/svg" xmlns:xlink="http://www.w3.org/1999/xlink">
<g id="graph0" class="graph" transform="scale(1 1) rotate(0) translate(4 204)">
<title>binder</title>
<polygon fill="white" stroke="transparent" points="-4,4 -4,-204 275,-204 275,4 -4,4"/>
<!-- m::com.android.server.am.ActivityManagerService.setServiceForeground:(Landroid/content/ComponentName;Landroid/os/IBinder;ILandroid/app/Notification;II)V -->
<g id="node1" class="node">
<title>m::com.android.server.am.ActivityManagerService.setServiceForeground:(Landroid/content/ComponentName;Landroid/os/IBinder;ILandroid/app/Notification;II)V</title>
<path fill="#eef2ff" stroke="#a5b4fc" d="M259,-118C259,-118 12,-118 12,-118 6,-118 0,-112 0,-106 0,-106 0,-94 0,-94 0,-88 6,-82 12,-82 12,-82 259,-82 259,-82 265,-82 271,-88 271,-94 271,-94 271,-106 271,-106 271,-112 265,-118 259,-118"/>
<text text-anchor="middle" x="135.5" y="-97.2" font-family="Helvetica,sans-Serif" font-size="11.00">ActivityManagerService.setServiceForeground</text>
</g>
<!-- __ipc__ -->
<g id="node2" class="node">
<title>__ipc__</title>
<path fill="#fde68a" stroke="#d97706" stroke-width="2" d="M179.5,-36C179.5,-36 91.5,-36 91.5,-36 85.5,-36 79.5,-30 79.5,-24 79.5,-24 79.5,-12 79.5,-12 79.5,-6 85.5,0 91.5,0 91.5,0 179.5,0 179.5,0 185.5,0 191.5,-6 191.5,-12 191.5,-12 191.5,-24 191.5,-24 191.5,-30 185.5,-36 179.5,-36"/>
<text text-anchor="middle" x="135.5" y="-21.2" font-family="Helvetica,sans-Serif" font-size="11.00">Binder IPC</text>
<text text-anchor="middle" x="135.5" y="-9.2" font-family="Helvetica,sans-Serif" font-size="11.00">(remote process)</text>
</g>
<!-- m::com.android.server.am.ActivityManagerService.setServiceForeground:(Landroid/content/ComponentName;Landroid/os/IBinder;ILandroid/app/Notification;II)V&#45;&gt;__ipc__ -->
<g id="edge2" class="edge">
<title>m::com.android.server.am.ActivityManagerService.setServiceForeground:(Landroid/content/ComponentName;Landroid/os/IBinder;ILandroid/app/Notification;II)V&#45;&gt;__ipc__</title>
<path fill="none" stroke="#d97706" stroke-width="1.6" d="M135.5,-81.64C135.5,-70.66 135.5,-56.29 135.5,-44.09"/>
<polygon fill="#d97706" stroke="#d97706" stroke-width="1.6" points="138.3,-44.05 135.5,-36.05 132.7,-44.05 138.3,-44.05"/>
<text text-anchor="middle" x="158.5" y="-56.8" font-family="Helvetica,sans-Serif" font-size="9.00" fill="#b45309"> transacts</text>
</g>
<!-- com.android.server.am.ActivityManagerService -->
<g id="node3" class="node">
<title>com.android.server.am.ActivityManagerService</title>
<path fill="#fee2e2" stroke="#dc2626" stroke-width="2" d="M207.5,-200C207.5,-200 63.5,-200 63.5,-200 57.5,-200 51.5,-194 51.5,-188 51.5,-188 51.5,-176 51.5,-176 51.5,-170 57.5,-164 63.5,-164 63.5,-164 207.5,-164 207.5,-164 213.5,-164 219.5,-170 219.5,-176 219.5,-176 219.5,-188 219.5,-188 219.5,-194 213.5,-200 207.5,-200"/>
<text text-anchor="middle" x="135.5" y="-179.2" font-family="Helvetica,sans-Serif" font-size="11.00">am.ActivityManagerService</text>
</g>
<!-- com.android.server.am.ActivityManagerService&#45;&gt;m::com.android.server.am.ActivityManagerService.setServiceForeground:(Landroid/content/ComponentName;Landroid/os/IBinder;ILandroid/app/Notification;II)V -->
<g id="edge1" class="edge">
<title>com.android.server.am.ActivityManagerService&#45;&gt;m::com.android.server.am.ActivityManagerService.setServiceForeground:(Landroid/content/ComponentName;Landroid/os/IBinder;ILandroid/app/Notification;II)V</title>
<path fill="none" stroke="#dc2626" stroke-width="1.6" d="M135.5,-163.64C135.5,-152.66 135.5,-138.29 135.5,-126.09"/>
<polygon fill="#dc2626" stroke="#dc2626" stroke-width="1.6" points="138.3,-126.05 135.5,-118.05 132.7,-126.05 138.3,-126.05"/>
<text text-anchor="middle" x="152.5" y="-138.8" font-family="Helvetica,sans-Serif" font-size="9.00" fill="#dc2626"> held in</text>
</g>
</g>
</svg>
