<?xml version="1.0" encoding="UTF-8" standalone="no"?>
<!DOCTYPE svg PUBLIC "-//W3C//DTD SVG 1.1//EN"
 "http://www.w3.org/Graphics/SVG/1.1/DTD/svg11.dtd">
<!-- Generated by graphviz version 2.43.0 (0)
 -->
<!-- Title: binder Pages: 1 -->
<svg width="394pt" height="208pt"
 viewBox="0.00 0.00 394.00 208.00" xmlns="http://www.w3.org/2000/svg" xmlns:xlink="http://www.w3.org/1999/xlink">
<g id="graph0" class="graph" transform="scale(1 1) rotate(0) translate(4 204)">
<title>binder</title>
<polygon fill="white" stroke="transparent" points="-4,4 -4,-204 390,-204 390,4 -4,4"/>
<!-- m::com.android.server.am.ActivityManagerService.lambda$updateAppProcessCpuTimeLPr$22:(Lcom/android/server/am/ProcessRecord;JJJI)V -->
<g id="node1" class="node">
<title>m::com.android.server.am.ActivityManagerService.lambda$updateAppProcessCpuTimeLPr$22:(Lcom/android/server/am/ProcessRecord;JJJI)V</title>
<path fill="#eef2ff" stroke="#a5b4fc" d="M374,-118C374,-118 12,-118 12,-118 6,-118 0,-112 0,-106 0,-106 0,-94 0,-94 0,-88 6,-82 12,-82 12,-82 374,-82 374,-82 380,-82 386,-88 386,-94 386,-94 386,-106 386,-106 386,-112 380,-118 374,-118"/>
<text text-anchor="middle" x="193" y="-97.2" font-family="Helvetica,sans-Serif" font-size="11.00">ActivityManagerService.lambda$updateAppProcessCpuTimeLPr$22</text>
</g>
<!-- __ipc__ -->
<g id="node2" class="node">
<title>__ipc__</title>
<path fill="#fde68a" stroke="#d97706" stroke-width="2" d="M237,-36C237,-36 149,-36 149,-36 143,-36 137,-30 137,-24 137,-24 137,-12 137,-12 137,-6 143,0 149,0 149,0 237,0 237,0 243,0 249,-6 249,-12 249,-12 249,-24 249,-24 249,-30 243,-36 237,-36"/>
<text text-anchor="middle" x="193" y="-21.2" font-family="Helvetica,sans-Serif" font-size="11.00">Binder IPC</text>
<text text-anchor="middle" x="193" y="-9.2" font-family="Helvetica,sans-Serif" font-size="11.00">(remote process)</text>
</g>
<!-- m::com.android.server.am.ActivityManagerService.lambda$updateAppProcessCpuTimeLPr$22:(Lcom/android/server/am/ProcessRecord;JJJI)V&#45;&gt;__ipc__ -->
<g id="edge2" class="edge">
<title>m::com.android.server.am.ActivityManagerService.lambda$updateAppProcessCpuTimeLPr$22:(Lcom/android/server/am/ProcessRecord;JJJI)V&#45;&gt;__ipc__</title>
<path fill="none" stroke="#d97706" stroke-width="1.6" d="M193,-81.64C193,-70.66 193,-56.29 193,-44.09"/>
<polygon fill="#d97706" stroke="#d97706" stroke-width="1.6" points="195.8,-44.05 193,-36.05 190.2,-44.05 195.8,-44.05"/>
<text text-anchor="middle" x="216" y="-56.8" font-family="Helvetica,sans-Serif" font-size="9.00" fill="#b45309"> transacts</text>
</g>
<!-- com.android.server.am.ActivityManagerService -->
<g id="node3" class="node">
<title>com.android.server.am.ActivityManagerService</title>
<path fill="#fee2e2" stroke="#dc2626" stroke-width="2" d="M265,-200C265,-200 121,-200 121,-200 115,-200 109,-194 109,-188 109,-188 109,-176 109,-176 109,-170 115,-164 121,-164 121,-164 265,-164 265,-164 271,-164 277,-170 277,-176 277,-176 277,-188 277,-188 277,-194 271,-200 265,-200"/>
<text text-anchor="middle" x="193" y="-179.2" font-family="Helvetica,sans-Serif" font-size="11.00">am.ActivityManagerService</text>
</g>
<!-- com.android.server.am.ActivityManagerService&#45;&gt;m::com.android.server.am.ActivityManagerService.lambda$updateAppProcessCpuTimeLPr$22:(Lcom/android/server/am/ProcessRecord;JJJI)V -->
<g id="edge1" class="edge">
<title>com.android.server.am.ActivityManagerService&#45;&gt;m::com.android.server.am.ActivityManagerService.lambda$updateAppProcessCpuTimeLPr$22:(Lcom/android/server/am/ProcessRecord;JJJI)V</title>
<path fill="none" stroke="#dc2626" stroke-width="1.6" d="M193,-163.64C193,-152.66 193,-138.29 193,-126.09"/>
<polygon fill="#dc2626" stroke="#dc2626" stroke-width="1.6" points="195.8,-126.05 193,-118.05 190.2,-126.05 195.8,-126.05"/>
<text text-anchor="middle" x="210" y="-138.8" font-family="Helvetica,sans-Serif" font-size="9.00" fill="#dc2626"> held in</text>
</g>
</g>
</svg>
