<?xml version="1.0" encoding="UTF-8" standalone="no"?>
<!DOCTYPE svg PUBLIC "-//W3C//DTD SVG 1.1//EN"
 "http://www.w3.org/Graphics/SVG/1.1/DTD/svg11.dtd">
<!-- Generated by graphviz version 2.43.0 (0)
 -->
<!-- Title: binder Pages: 1 -->
<svg width="202pt" height="208pt"
 viewBox="0.00 0.00 202.00 208.00" xmlns="http://www.w3.org/2000/svg" xmlns:xlink="http://www.w3.org/1999/xlink">
<g id="graph0" class="graph" transform="scale(1 1) rotate(0) translate(4 204)">
<title>binder</title>
<polygon fill="white" stroke="transparent" points="-4,4 -4,-204 198,-204 198,4 -4,4"/>
<!-- m::com.android.server.am.ActivityManagerService.idleUids:()V -->
<g id="node1" class="node">
<title>m::com.android.server.am.ActivityManagerService.idleUids:()V</title>
<path fill="#eef2ff" stroke="#a5b4fc" d="M182,-118C182,-118 12,-118 12,-118 6,-118 0,-112 0,-106 0,-106 0,-94 0,-94 0,-88 6,-82 12,-82 12,-82 182,-82 182,-82 188,-82 194,-88 194,-94 194,-94 194,-106 194,-106 194,-112 188,-118 182,-118"/>
<text text-anchor="middle" x="97" y="-97.2" font-family="Helvetica,sans-Serif" font-size="11.00">ActivityManagerService.idleUids</text>
</g>
<!-- __ipc__ -->
<g id="node2" class="node">
<title>__ipc__</title>
<path fill="#fde68a" stroke="#d97706" stroke-width="2" d="M141,-36C141,-36 53,-36 53,-36 47,-36 41,-30 41,-24 41,-24 41,-12 41,-12 41,-6 47,0 53,0 53,0 141,0 141,0 147,0 153,-6 153,-12 153,-12 153,-24 153,-24 153,-30 147,-36 141,-36"/>
<text text-anchor="middle" x="97" y="-21.2" font-family="Helvetica,sans-Serif" font-size="11.00">Binder IPC</text>
<text text-anchor="middle" x="97" y="-9.2" font-family="Helvetica,sans-Serif" font-size="11.00">(remote process)</text>
</g>
<!-- m::com.android.server.am.ActivityManagerService.idleUids:()V&#45;&gt;__ipc__ -->
<g id="edge2" class="edge">
<title>m::com.android.server.am.ActivityManagerService.idleUids:()V&#45;&gt;__ipc__</title>
<path fill="none" stroke="#d97706" stroke-width="1.6" d="M97,-81.64C97,-70.66 97,-56.29 97,-44.09"/>
<polygon fill="#d97706" stroke="#d97706" stroke-width="1.6" points="99.8,-44.05 97,-36.05 94.2,-44.05 99.8,-44.05"/>
<text text-anchor="middle" x="120" y="-56.8" font-family="Helvetica,sans-Serif" font-size="9.00" fill="#b45309"> transacts</text>
</g>
<!-- com.android.server.am.ActivityManagerService -->
<g id="node3" class="node">
<title>com.android.server.am.ActivityManagerService</title>
<path fill="#fee2e2" stroke="#dc2626" stroke-width="2" d="M169,-200C169,-200 25,-200 25,-200 19,-200 13,-194 13,-188 13,-188 13,-176 13,-176 13,-170 19,-164 25,-164 25,-164 169,-164 169,-164 175,-164 181,-170 181,-176 181,-176 181,-188 181,-188 181,-194 175,-200 169,-200"/>
<text text-anchor="middle" x="97" y="-179.2" font-family="Helvetica,sans-Serif" font-size="11.00">am.ActivityManagerService</text>
</g>
<!-- com.android.server.am.ActivityManagerService&#45;&gt;m::com.android.server.am.ActivityManagerService.idleUids:()V -->
<g id="edge1" class="edge">
<title>com.android.server.am.ActivityManagerService&#45;&gt;m::com.android.server.am.ActivityManagerService.idleUids:()V</title>
<path fill="none" stroke="#dc2626" stroke-width="1.6" d="M97,-163.64C97,-152.66 97,-138.29 97,-126.09"/>
<polygon fill="#dc2626" stroke="#dc2626" stroke-width="1.6" points="99.8,-126.05 97,-118.05 94.2,-126.05 99.8,-126.05"/>
<text text-anchor="middle" x="114" y="-138.8" font-family="Helvetica,sans-Serif" font-size="9.00" fill="#dc2626"> held in</text>
</g>
</g>
</svg>
