<?xml version="1.0" encoding="UTF-8" standalone="no"?>
<!DOCTYPE svg PUBLIC "-//W3C//DTD SVG 1.1//EN"
 "http://www.w3.org/Graphics/SVG/1.1/DTD/svg11.dtd">
<!-- Generated by graphviz version 2.43.0 (0)
 -->
<!-- Title: binder Pages: 1 -->
<svg width="432pt" height="1084pt"
 viewBox="0.00 0.00 432.00 1084.00" xmlns="http://www.w3.org/2000/svg" xmlns:xlink="http://www.w3.org/1999/xlink">
<g id="graph0" class="graph" transform="scale(1 1) rotate(0) translate(4 1080)">
<title>binder</title>
<polygon fill="white" stroke="transparent" points="-4,4 -4,-1080 428,-1080 428,4 -4,4"/>
<!-- m::com.android.server.am.AppErrors.makeAppCrashingLocked:(Lcom/android/server/am/ProcessRecord;Ljava/lang/String;Ljava/lang/String;Ljava/lang/String;Lcom/android/server/am/AppErrorDialog$Data;)Z -->
<g id="node1" class="node">
<title>m::com.android.server.am.AppErrors.makeAppCrashingLocked:(Lcom/android/server/am/ProcessRecord;Ljava/lang/String;Ljava/lang/String;Ljava/lang/String;Lcom/android/server/am/AppErrorDialog$Data;)Z</title>
<path fill="#eef2ff" stroke="#a5b4fc" d="M307,-994C307,-994 119,-994 119,-994 113,-994 107,-988 107,-982 107,-982 107,-970 107,-970 107,-964 113,-958 119,-958 119,-958 307,-958 307,-958 313,-958 319,-964 319,-970 319,-970 319,-982 319,-982 319,-988 313,-994 307,-994"/>
<text text-anchor="middle" x="213" y="-973.2" font-family="Helvetica,sans-Serif" font-size="11.00">AppErrors.makeAppCrashingLocked</text>
</g>
<!-- m::com.android.server.am.AppErrors.handleAppCrashLSPB:(Lcom/android/server/am/ProcessRecord;Ljava/lang/String;Ljava/lang/String;Ljava/lang/String;Ljava/lang/String;Lcom/android/server/am/AppErrorDialog$Data;)Z -->
<g id="node2" class="node">
<title>m::com.android.server.am.AppErrors.handleAppCrashLSPB:(Lcom/android/server/am/ProcessRecord;Ljava/lang/String;Ljava/lang/String;Ljava/lang/String;Ljava/lang/String;Lcom/android/server/am/AppErrorDialog$Data;)Z</title>
<path fill="#eef2ff" stroke="#a5b4fc" d="M296.5,-921C296.5,-921 129.5,-921 129.5,-921 123.5,-921 117.5,-915 117.5,-909 117.5,-909 117.5,-897 117.5,-897 117.5,-891 123.5,-885 129.5,-885 129.5,-885 296.5,-885 296.5,-885 302.5,-885 308.5,-891 308.5,-897 308.5,-897 308.5,-909 308.5,-909 308.5,-915 302.5,-921 296.5,-921"/>
<text text-anchor="middle" x="213" y="-900.2" font-family="Helvetica,sans-Serif" font-size="11.00">AppErrors.handleAppCrashLSPB</text>
</g>
<!-- m::com.android.server.am.AppErrors.makeAppCrashingLocked:(Lcom/android/server/am/ProcessRecord;Ljava/lang/String;Ljava/lang/String;Ljava/lang/String;Lcom/android/server/am/AppErrorDialog$Data;)Z&#45;&gt;m::com.android.server.am.AppErrors.handleAppCrashLSPB:(Lcom/android/server/am/ProcessRecord;Ljava/lang/String;Ljava/lang/String;Ljava/lang/String;Ljava/lang/String;Lcom/android/server/am/AppErrorDialog$Data;)Z -->
<g id="edge3" class="edge">
<title>m::com.android.server.am.AppErrors.makeAppCrashingLocked:(Lcom/android/server/am/ProcessRecord;Ljava/lang/String;Ljava/lang/String;Ljava/lang/String;Lcom/android/server/am/AppErrorDialog$Data;)Z&#45;&gt;m::com.android.server.am.AppErrors.handleAppCrashLSPB:(Lcom/android/server/am/ProcessRecord;Ljava/lang/String;Ljava/lang/String;Ljava/lang/String;Ljava/lang/String;Lcom/android/server/am/AppErrorDialog$Data;)Z</title>
<path fill="none" stroke="#64748b" d="M213,-957.81C213,-949.18 213,-938.56 213,-929.03"/>
<polygon fill="#64748b" stroke="#64748b" points="215.8,-929.03 213,-921.03 210.2,-929.03 215.8,-929.03"/>
</g>
<!-- m::com.android.server.am.ProcessList.removeProcessLocked:(Lcom/android/server/am/ProcessRecord;ZZILjava/lang/String;)Z -->
<g id="node3" class="node">
<title>m::com.android.server.am.ProcessList.removeProcessLocked:(Lcom/android/server/am/ProcessRecord;ZZILjava/lang/String;)Z</title>
<path fill="#eef2ff" stroke="#a5b4fc" d="M304,-848C304,-848 122,-848 122,-848 116,-848 110,-842 110,-836 110,-836 110,-824 110,-824 110,-818 116,-812 122,-812 122,-812 304,-812 304,-812 310,-812 316,-818 316,-824 316,-824 316,-836 316,-836 316,-842 310,-848 304,-848"/>
<text text-anchor="middle" x="213" y="-827.2" font-family="Helvetica,sans-Serif" font-size="11.00">ProcessList.removeProcessLocked</text>
</g>
<!-- m::com.android.server.am.AppErrors.handleAppCrashLSPB:(Lcom/android/server/am/ProcessRecord;Ljava/lang/String;Ljava/lang/String;Ljava/lang/String;Ljava/lang/String;Lcom/android/server/am/AppErrorDialog$Data;)Z&#45;&gt;m::com.android.server.am.ProcessList.removeProcessLocked:(Lcom/android/server/am/ProcessRecord;ZZILjava/lang/String;)Z -->
<g id="edge4" class="edge">
<title>m::com.android.server.am.AppErrors.handleAppCrashLSPB:(Lcom/android/server/am/ProcessRecord;Ljava/lang/String;Ljava/lang/String;Ljava/lang/String;Ljava/lang/String;Lcom/android/server/am/AppErrorDialog$Data;)Z&#45;&gt;m::com.android.server.am.ProcessList.removeProcessLocked:(Lcom/android/server/am/ProcessRecord;ZZILjava/lang/String;)Z</title>
<path fill="none" stroke="#64748b" d="M213,-884.81C213,-876.18 213,-865.56 213,-856.03"/>
<polygon fill="#64748b" stroke="#64748b" points="215.8,-856.03 213,-848.03 210.2,-856.03 215.8,-856.03"/>
</g>
<!-- m::com.android.server.am.ProcessList.removeProcessLocked:(Lcom/android/server/am/ProcessRecord;ZZIILjava/lang/String;Z)Z -->
<g id="node4" class="node">
<title>m::com.android.server.am.ProcessList.removeProcessLocked:(Lcom/android/server/am/ProcessRecord;ZZIILjava/lang/String;Z)Z</title>
<path fill="#eef2ff" stroke="#a5b4fc" d="M304,-775C304,-775 122,-775 122,-775 116,-775 110,-769 110,-763 110,-763 110,-751 110,-751 110,-745 116,-739 122,-739 122,-739 304,-739 304,-739 310,-739 316,-745 316,-751 316,-751 316,-763 316,-763 316,-769 310,-775 304,-775"/>
<text text-anchor="middle" x="213" y="-754.2" font-family="Helvetica,sans-Serif" font-size="11.00">ProcessList.removeProcessLocked</text>
</g>
<!-- m::com.android.server.am.ProcessList.removeProcessLocked:(Lcom/android/server/am/ProcessRecord;ZZILjava/lang/String;)Z&#45;&gt;m::com.android.server.am.ProcessList.removeProcessLocked:(Lcom/android/server/am/ProcessRecord;ZZIILjava/lang/String;Z)Z -->
<g id="edge5" class="edge">
<title>m::com.android.server.am.ProcessList.removeProcessLocked:(Lcom/android/server/am/ProcessRecord;ZZILjava/lang/String;)Z&#45;&gt;m::com.android.server.am.ProcessList.removeProcessLocked:(Lcom/android/server/am/ProcessRecord;ZZIILjava/lang/String;Z)Z</title>
<path fill="none" stroke="#64748b" d="M213,-811.81C213,-803.18 213,-792.56 213,-783.03"/>
<polygon fill="#64748b" stroke="#64748b" points="215.8,-783.03 213,-775.03 210.2,-783.03 215.8,-783.03"/>
</g>
<!-- m::com.android.server.am.ActivityManagerService.handleAppDiedLocked:(Lcom/android/server/am/ProcessRecord;IZZZ)V -->
<g id="node5" class="node">
<title>m::com.android.server.am.ActivityManagerService.handleAppDiedLocked:(Lcom/android/server/am/ProcessRecord;IZZZ)V</title>
<path fill="#eef2ff" stroke="#a5b4fc" d="M337,-702C337,-702 89,-702 89,-702 83,-702 77,-696 77,-690 77,-690 77,-678 77,-678 77,-672 83,-666 89,-666 89,-666 337,-666 337,-666 343,-666 349,-672 349,-678 349,-678 349,-690 349,-690 349,-696 343,-702 337,-702"/>
<text text-anchor="middle" x="213" y="-681.2" font-family="Helvetica,sans-Serif" font-size="11.00">ActivityManagerService.handleAppDiedLocked</text>
</g>
<!-- m::com.android.server.am.ProcessList.removeProcessLocked:(Lcom/android/server/am/ProcessRecord;ZZIILjava/lang/String;Z)Z&#45;&gt;m::com.android.server.am.ActivityManagerService.handleAppDiedLocked:(Lcom/android/server/am/ProcessRecord;IZZZ)V -->
<g id="edge6" class="edge">
<title>m::com.android.server.am.ProcessList.removeProcessLocked:(Lcom/android/server/am/ProcessRecord;ZZIILjava/lang/String;Z)Z&#45;&gt;m::com.android.server.am.ActivityManagerService.handleAppDiedLocked:(Lcom/android/server/am/ProcessRecord;IZZZ)V</title>
<path fill="none" stroke="#64748b" d="M213,-738.81C213,-730.18 213,-719.56 213,-710.03"/>
<polygon fill="#64748b" stroke="#64748b" points="215.8,-710.03 213,-702.03 210.2,-710.03 215.8,-710.03"/>
</g>
<!-- m::com.android.server.am.ActivityManagerService.cleanUpApplicationRecordLocked:(Lcom/android/server/am/ProcessRecord;IZZIZZ)Z -->
<g id="node6" class="node">
<title>m::com.android.server.am.ActivityManagerService.cleanUpApplicationRecordLocked:(Lcom/android/server/am/ProcessRecord;IZZIZZ)Z</title>
<path fill="#eef2ff" stroke="#a5b4fc" d="M367,-629C367,-629 59,-629 59,-629 53,-629 47,-623 47,-617 47,-617 47,-605 47,-605 47,-599 53,-593 59,-593 59,-593 367,-593 367,-593 373,-593 379,-599 379,-605 379,-605 379,-617 379,-617 379,-623 373,-629 367,-629"/>
<text text-anchor="middle" x="213" y="-608.2" font-family="Helvetica,sans-Serif" font-size="11.00">ActivityManagerService.cleanUpApplicationRecordLocked</text>
</g>
<!-- m::com.android.server.am.ActivityManagerService.handleAppDiedLocked:(Lcom/android/server/am/ProcessRecord;IZZZ)V&#45;&gt;m::com.android.server.am.ActivityManagerService.cleanUpApplicationRecordLocked:(Lcom/android/server/am/ProcessRecord;IZZIZZ)Z -->
<g id="edge7" class="edge">
<title>m::com.android.server.am.ActivityManagerService.handleAppDiedLocked:(Lcom/android/server/am/ProcessRecord;IZZZ)V&#45;&gt;m::com.android.server.am.ActivityManagerService.cleanUpApplicationRecordLocked:(Lcom/android/server/am/ProcessRecord;IZZIZZ)Z</title>
<path fill="none" stroke="#64748b" d="M213,-665.81C213,-657.18 213,-646.56 213,-637.03"/>
<polygon fill="#64748b" stroke="#64748b" points="215.8,-637.03 213,-629.03 210.2,-637.03 215.8,-637.03"/>
</g>
<!-- m::com.android.server.am.ProcessList.startProcessLocked:(Lcom/android/server/am/ProcessRecord;Lcom/android/server/am/HostingRecord;I)V -->
<g id="node7" class="node">
<title>m::com.android.server.am.ProcessList.startProcessLocked:(Lcom/android/server/am/ProcessRecord;Lcom/android/server/am/HostingRecord;I)V</title>
<path fill="#eef2ff" stroke="#a5b4fc" d="M296,-556C296,-556 130,-556 130,-556 124,-556 118,-550 118,-544 118,-544 118,-532 118,-532 118,-526 124,-520 130,-520 130,-520 296,-520 296,-520 302,-520 308,-526 308,-532 308,-532 308,-544 308,-544 308,-550 302,-556 296,-556"/>
<text text-anchor="middle" x="213" y="-535.2" font-family="Helvetica,sans-Serif" font-size="11.00">ProcessList.startProcessLocked</text>
</g>
<!-- m::com.android.server.am.ActivityManagerService.cleanUpApplicationRecordLocked:(Lcom/android/server/am/ProcessRecord;IZZIZZ)Z&#45;&gt;m::com.android.server.am.ProcessList.startProcessLocked:(Lcom/android/server/am/ProcessRecord;Lcom/android/server/am/HostingRecord;I)V -->
<g id="edge8" class="edge">
<title>m::com.android.server.am.ActivityManagerService.cleanUpApplicationRecordLocked:(Lcom/android/server/am/ProcessRecord;IZZIZZ)Z&#45;&gt;m::com.android.server.am.ProcessList.startProcessLocked:(Lcom/android/server/am/ProcessRecord;Lcom/android/server/am/HostingRecord;I)V</title>
<path fill="none" stroke="#64748b" d="M213,-592.81C213,-584.18 213,-573.56 213,-564.03"/>
<polygon fill="#64748b" stroke="#64748b" points="215.8,-564.03 213,-556.03 210.2,-564.03 215.8,-564.03"/>
</g>
<!-- m::com.android.server.am.ProcessList.startProcessLocked:(Lcom/android/server/am/ProcessRecord;Lcom/android/server/am/HostingRecord;ILjava/lang/String;)Z -->
<g id="node8" class="node">
<title>m::com.android.server.am.ProcessList.startProcessLocked:(Lcom/android/server/am/ProcessRecord;Lcom/android/server/am/HostingRecord;ILjava/lang/String;)Z</title>
<path fill="#eef2ff" stroke="#a5b4fc" d="M296,-483C296,-483 130,-483 130,-483 124,-483 118,-477 118,-471 118,-471 118,-459 118,-459 118,-453 124,-447 130,-447 130,-447 296,-447 296,-447 302,-447 308,-453 308,-459 308,-459 308,-471 308,-471 308,-477 302,-483 296,-483"/>
<text text-anchor="middle" x="213" y="-462.2" font-family="Helvetica,sans-Serif" font-size="11.00">ProcessList.startProcessLocked</text>
</g>
<!-- m::com.android.server.am.ProcessList.startProcessLocked:(Lcom/android/server/am/ProcessRecord;Lcom/android/server/am/HostingRecord;I)V&#45;&gt;m::com.android.server.am.ProcessList.startProcessLocked:(Lcom/android/server/am/ProcessRecord;Lcom/android/server/am/HostingRecord;ILjava/lang/String;)Z -->
<g id="edge9" class="edge">
<title>m::com.android.server.am.ProcessList.startProcessLocked:(Lcom/android/server/am/ProcessRecord;Lcom/android/server/am/HostingRecord;I)V&#45;&gt;m::com.android.server.am.ProcessList.startProcessLocked:(Lcom/android/server/am/ProcessRecord;Lcom/android/server/am/HostingRecord;ILjava/lang/String;)Z</title>
<path fill="none" stroke="#64748b" d="M213,-519.81C213,-511.18 213,-500.56 213,-491.03"/>
<polygon fill="#64748b" stroke="#64748b" points="215.8,-491.03 213,-483.03 210.2,-491.03 215.8,-491.03"/>
</g>
<!-- m::com.android.server.am.ProcessList.startProcessLocked:(Lcom/android/server/am/ProcessRecord;Lcom/android/server/am/HostingRecord;IZZLjava/lang/String;)Z -->
<g id="node9" class="node">
<title>m::com.android.server.am.ProcessList.startProcessLocked:(Lcom/android/server/am/ProcessRecord;Lcom/android/server/am/HostingRecord;IZZLjava/lang/String;)Z</title>
<path fill="#eef2ff" stroke="#a5b4fc" d="M296,-410C296,-410 130,-410 130,-410 124,-410 118,-404 118,-398 118,-398 118,-386 118,-386 118,-380 124,-374 130,-374 130,-374 296,-374 296,-374 302,-374 308,-380 308,-386 308,-386 308,-398 308,-398 308,-404 302,-410 296,-410"/>
<text text-anchor="middle" x="213" y="-389.2" font-family="Helvetica,sans-Serif" font-size="11.00">ProcessList.startProcessLocked</text>
</g>
<!-- m::com.android.server.am.ProcessList.startProcessLocked:(Lcom/android/server/am/ProcessRecord;Lcom/android/server/am/HostingRecord;ILjava/lang/String;)Z&#45;&gt;m::com.android.server.am.ProcessList.startProcessLocked:(Lcom/android/server/am/ProcessRecord;Lcom/android/server/am/HostingRecord;IZZLjava/lang/String;)Z -->
<g id="edge10" class="edge">
<title>m::com.android.server.am.ProcessList.startProcessLocked:(Lcom/android/server/am/ProcessRecord;Lcom/android/server/am/HostingRecord;ILjava/lang/String;)Z&#45;&gt;m::com.android.server.am.ProcessList.startProcessLocked:(Lcom/android/server/am/ProcessRecord;Lcom/android/server/am/HostingRecord;IZZLjava/lang/String;)Z</title>
<path fill="none" stroke="#64748b" d="M213,-446.81C213,-438.18 213,-427.56 213,-418.03"/>
<polygon fill="#64748b" stroke="#64748b" points="215.8,-418.03 213,-410.03 210.2,-418.03 215.8,-418.03"/>
</g>
<!-- m::com.android.server.am.ProcessList.startProcessLocked:(Lcom/android/server/am/HostingRecord;Ljava/lang/String;Lcom/android/server/am/ProcessRecord;I[IIIILjava/lang/String;Ljava/lang/String;Ljava/lang/String;Ljava/lang/String;JJ)Z -->
<g id="node10" class="node">
<title>m::com.android.server.am.ProcessList.startProcessLocked:(Lcom/android/server/am/HostingRecord;Ljava/lang/String;Lcom/android/server/am/ProcessRecord;I[IIIILjava/lang/String;Ljava/lang/String;Ljava/lang/String;Ljava/lang/String;JJ)Z</title>
<path fill="#eef2ff" stroke="#a5b4fc" d="M296,-337C296,-337 130,-337 130,-337 124,-337 118,-331 118,-325 118,-325 118,-313 118,-313 118,-307 124,-301 130,-301 130,-301 296,-301 296,-301 302,-301 308,-307 308,-313 308,-313 308,-325 308,-325 308,-331 302,-337 296,-337"/>
<text text-anchor="middle" x="213" y="-316.2" font-family="Helvetica,sans-Serif" font-size="11.00">ProcessList.startProcessLocked</text>
</g>
<!-- m::com.android.server.am.ProcessList.startProcessLocked:(Lcom/android/server/am/ProcessRecord;Lcom/android/server/am/HostingRecord;IZZLjava/lang/String;)Z&#45;&gt;m::com.android.server.am.ProcessList.startProcessLocked:(Lcom/android/server/am/HostingRecord;Ljava/lang/String;Lcom/android/server/am/ProcessRecord;I[IIIILjava/lang/String;Ljava/lang/String;Ljava/lang/String;Ljava/lang/String;JJ)Z -->
<g id="edge11" class="edge">
<title>m::com.android.server.am.ProcessList.startProcessLocked:(Lcom/android/server/am/ProcessRecord;Lcom/android/server/am/HostingRecord;IZZLjava/lang/String;)Z&#45;&gt;m::com.android.server.am.ProcessList.startProcessLocked:(Lcom/android/server/am/HostingRecord;Ljava/lang/String;Lcom/android/server/am/ProcessRecord;I[IIIILjava/lang/String;Ljava/lang/String;Ljava/lang/String;Ljava/lang/String;JJ)Z</title>
<path fill="none" stroke="#64748b" d="M213,-373.81C213,-365.18 213,-354.56 213,-345.03"/>
<polygon fill="#64748b" stroke="#64748b" points="215.8,-345.03 213,-337.03 210.2,-345.03 215.8,-345.03"/>
</g>
<!-- m::com.android.server.am.ProcessList.startProcess:(Lcom/android/server/am/HostingRecord;Ljava/lang/String;Lcom/android/server/am/ProcessRecord;I[IIIILjava/lang/String;Ljava/lang/String;Ljava/lang/String;Ljava/lang/String;J)Landroid/os/Process$ProcessStartResult; -->
<g id="node11" class="node">
<title>m::com.android.server.am.ProcessList.startProcess:(Lcom/android/server/am/HostingRecord;Ljava/lang/String;Lcom/android/server/am/ProcessRecord;I[IIIILjava/lang/String;Ljava/lang/String;Ljava/lang/String;Ljava/lang/String;J)Landroid/os/Process$ProcessStartResult;</title>
<path fill="#eef2ff" stroke="#a5b4fc" d="M277,-264C277,-264 149,-264 149,-264 143,-264 137,-258 137,-252 137,-252 137,-240 137,-240 137,-234 143,-228 149,-228 149,-228 277,-228 277,-228 283,-228 289,-234 289,-240 289,-240 289,-252 289,-252 289,-258 283,-264 277,-264"/>
<text text-anchor="middle" x="213" y="-243.2" font-family="Helvetica,sans-Serif" font-size="11.00">ProcessList.startProcess</text>
</g>
<!-- m::com.android.server.am.ProcessList.startProcessLocked:(Lcom/android/server/am/HostingRecord;Ljava/lang/String;Lcom/android/server/am/ProcessRecord;I[IIIILjava/lang/String;Ljava/lang/String;Ljava/lang/String;Ljava/lang/String;JJ)Z&#45;&gt;m::com.android.server.am.ProcessList.startProcess:(Lcom/android/server/am/HostingRecord;Ljava/lang/String;Lcom/android/server/am/ProcessRecord;I[IIIILjava/lang/String;Ljava/lang/String;Ljava/lang/String;Ljava/lang/String;J)Landroid/os/Process$ProcessStartResult; -->
<g id="edge12" class="edge">
<title>m::com.android.server.am.ProcessList.startProcessLocked:(Lcom/android/server/am/HostingRecord;Ljava/lang/String;Lcom/android/server/am/ProcessRecord;I[IIIILjava/lang/String;Ljava/lang/String;Ljava/lang/String;Ljava/lang/String;JJ)Z&#45;&gt;m::com.android.server.am.ProcessList.startProcess:(Lcom/android/server/am/HostingRecord;Ljava/lang/String;Lcom/android/server/am/ProcessRecord;I[IIIILjava/lang/String;Ljava/lang/String;Ljava/lang/String;Ljava/lang/String;J)Landroid/os/Process$ProcessStartResult;</title>
<path fill="none" stroke="#64748b" d="M213,-300.81C213,-292.18 213,-281.56 213,-272.03"/>
<polygon fill="#64748b" stroke="#64748b" points="215.8,-272.03 213,-264.03 210.2,-272.03 215.8,-272.03"/>
</g>
<!-- m::com.android.server.StorageManagerService$StorageManagerInternalImpl.prepareStorageDirs:(ILjava/util/Set;Ljava/lang/String;)Z -->
<g id="node12" class="node">
<title>m::com.android.server.StorageManagerService$StorageManagerInternalImpl.prepareStorageDirs:(ILjava/util/Set;Ljava/lang/String;)Z</title>
<path fill="#eef2ff" stroke="#a5b4fc" d="M412,-191C412,-191 14,-191 14,-191 8,-191 2,-185 2,-179 2,-179 2,-167 2,-167 2,-161 8,-155 14,-155 14,-155 412,-155 412,-155 418,-155 424,-161 424,-167 424,-167 424,-179 424,-179 424,-185 418,-191 412,-191"/>
<text text-anchor="middle" x="213" y="-170.2" font-family="Helvetica,sans-Serif" font-size="11.00">StorageManagerService$StorageManagerInternalImpl.prepareStorageDirs</text>
</g>
<!-- m::com.android.server.am.ProcessList.startProcess:(Lcom/android/server/am/HostingRecord;Ljava/lang/String;Lcom/android/server/am/ProcessRecord;I[IIIILjava/lang/String;Ljava/lang/String;Ljava/lang/String;Ljava/lang/String;J)Landroid/os/Process$ProcessStartResult;&#45;&gt;m::com.android.server.StorageManagerService$StorageManagerInternalImpl.prepareStorageDirs:(ILjava/util/Set;Ljava/lang/String;)Z -->
<g id="edge13" class="edge">
<title>m::com.android.server.am.ProcessList.startProcess:(Lcom/android/server/am/HostingRecord;Ljava/lang/String;Lcom/android/server/am/ProcessRecord;I[IIIILjava/lang/String;Ljava/lang/String;Ljava/lang/String;Ljava/lang/String;J)Landroid/os/Process$ProcessStartResult;&#45;&gt;m::com.android.server.StorageManagerService$StorageManagerInternalImpl.prepareStorageDirs:(ILjava/util/Set;Ljava/lang/String;)Z</title>
<path fill="none" stroke="#64748b" d="M213,-227.81C213,-219.18 213,-208.56 213,-199.03"/>
<polygon fill="#64748b" stroke="#64748b" points="215.8,-199.03 213,-191.03 210.2,-199.03 215.8,-199.03"/>
</g>
<!-- m::android.os.IVold$Stub$Proxy.ensureAppDirsCreated:([Ljava/lang/String;I)V -->
<g id="node13" class="node">
<title>m::android.os.IVold$Stub$Proxy.ensureAppDirsCreated:([Ljava/lang/String;I)V</title>
<path fill="#eef2ff" stroke="#a5b4fc" d="M320.5,-118C320.5,-118 105.5,-118 105.5,-118 99.5,-118 93.5,-112 93.5,-106 93.5,-106 93.5,-94 93.5,-94 93.5,-88 99.5,-82 105.5,-82 105.5,-82 320.5,-82 320.5,-82 326.5,-82 332.5,-88 332.5,-94 332.5,-94 332.5,-106 332.5,-106 332.5,-112 326.5,-118 320.5,-118"/>
<text text-anchor="middle" x="213" y="-97.2" font-family="Helvetica,sans-Serif" font-size="11.00">IVold$Stub$Proxy.ensureAppDirsCreated</text>
</g>
<!-- m::com.android.server.StorageManagerService$StorageManagerInternalImpl.prepareStorageDirs:(ILjava/util/Set;Ljava/lang/String;)Z&#45;&gt;m::android.os.IVold$Stub$Proxy.ensureAppDirsCreated:([Ljava/lang/String;I)V -->
<g id="edge14" class="edge">
<title>m::com.android.server.StorageManagerService$StorageManagerInternalImpl.prepareStorageDirs:(ILjava/util/Set;Ljava/lang/String;)Z&#45;&gt;m::android.os.IVold$Stub$Proxy.ensureAppDirsCreated:([Ljava/lang/String;I)V</title>
<path fill="none" stroke="#64748b" d="M213,-154.81C213,-146.18 213,-135.56 213,-126.03"/>
<polygon fill="#64748b" stroke="#64748b" points="215.8,-126.03 213,-118.03 210.2,-126.03 215.8,-126.03"/>
</g>
<!-- __ipc__ -->
<g id="node14" class="node">
<title>__ipc__</title>
<path fill="#fde68a" stroke="#d97706" stroke-width="2" d="M257,-36C257,-36 169,-36 169,-36 163,-36 157,-30 157,-24 157,-24 157,-12 157,-12 157,-6 163,0 169,0 169,0 257,0 257,0 263,0 269,-6 269,-12 269,-12 269,-24 269,-24 269,-30 263,-36 257,-36"/>
<text text-anchor="middle" x="213" y="-21.2" font-family="Helvetica,sans-Serif" font-size="11.00">Binder IPC</text>
<text text-anchor="middle" x="213" y="-9.2" font-family="Helvetica,sans-Serif" font-size="11.00">(remote process)</text>
</g>
<!-- m::android.os.IVold$Stub$Proxy.ensureAppDirsCreated:([Ljava/lang/String;I)V&#45;&gt;__ipc__ -->
<g id="edge15" class="edge">
<title>m::android.os.IVold$Stub$Proxy.ensureAppDirsCreated:([Ljava/lang/String;I)V&#45;&gt;__ipc__</title>
<path fill="none" stroke="#d97706" stroke-width="1.6" d="M213,-81.64C213,-70.66 213,-56.29 213,-44.09"/>
<polygon fill="#d97706" stroke="#d97706" stroke-width="1.6" points="215.8,-44.05 213,-36.05 210.2,-44.05 215.8,-44.05"/>
<text text-anchor="middle" x="236" y="-56.8" font-family="Helvetica,sans-Serif" font-size="9.00" fill="#b45309"> transacts</text>
</g>
<!-- com.android.server.am.ActivityManagerService.mProcLock -->
<g id="node15" class="node">
<title>com.android.server.am.ActivityManagerService.mProcLock</title>
<path fill="#fee2e2" stroke="#dc2626" stroke-width="2" d="M198,-1076C198,-1076 12,-1076 12,-1076 6,-1076 0,-1070 0,-1064 0,-1064 0,-1052 0,-1052 0,-1046 6,-1040 12,-1040 12,-1040 198,-1040 198,-1040 204,-1040 210,-1046 210,-1052 210,-1052 210,-1064 210,-1064 210,-1070 204,-1076 198,-1076"/>
<text text-anchor="middle" x="105" y="-1055.2" font-family="Helvetica,sans-Serif" font-size="11.00">ActivityManagerService.mProcLock</text>
</g>
<!-- com.android.server.am.ActivityManagerService.mProcLock&#45;&gt;m::com.android.server.am.AppErrors.makeAppCrashingLocked:(Lcom/android/server/am/ProcessRecord;Ljava/lang/String;Ljava/lang/String;Ljava/lang/String;Lcom/android/server/am/AppErrorDialog$Data;)Z -->
<g id="edge1" class="edge">
<title>com.android.server.am.ActivityManagerService.mProcLock&#45;&gt;m::com.android.server.am.AppErrors.makeAppCrashingLocked:(Lcom/android/server/am/ProcessRecord;Ljava/lang/String;Ljava/lang/String;Ljava/lang/String;Lcom/android/server/am/AppErrorDialog$Data;)Z</title>
<path fill="none" stroke="#dc2626" stroke-width="1.6" d="M128.17,-1039.84C144.26,-1027.92 165.83,-1011.94 183.2,-999.07"/>
<polygon fill="#dc2626" stroke="#dc2626" stroke-width="1.6" points="185.11,-1001.15 189.87,-994.13 181.77,-996.65 185.11,-1001.15"/>
<text text-anchor="middle" x="183" y="-1014.8" font-family="Helvetica,sans-Serif" font-size="9.00" fill="#dc2626"> held in</text>
</g>
<!-- com.android.server.am.AppErrors.mBadProcessLock -->
<g id="node16" class="node">
<title>com.android.server.am.AppErrors.mBadProcessLock</title>
<path fill="#fee2e2" stroke="#dc2626" stroke-width="2" d="M396.5,-1076C396.5,-1076 247.5,-1076 247.5,-1076 241.5,-1076 235.5,-1070 235.5,-1064 235.5,-1064 235.5,-1052 235.5,-1052 235.5,-1046 241.5,-1040 247.5,-1040 247.5,-1040 396.5,-1040 396.5,-1040 402.5,-1040 408.5,-1046 408.5,-1052 408.5,-1052 408.5,-1064 408.5,-1064 408.5,-1070 402.5,-1076 396.5,-1076"/>
<text text-anchor="middle" x="322" y="-1055.2" font-family="Helvetica,sans-Serif" font-size="11.00">AppErrors.mBadProcessLock</text>
</g>
<!-- com.android.server.am.AppErrors.mBadProcessLock&#45;&gt;m::com.android.server.am.AppErrors.makeAppCrashingLocked:(Lcom/android/server/am/ProcessRecord;Ljava/lang/String;Ljava/lang/String;Ljava/lang/String;Lcom/android/server/am/AppErrorDialog$Data;)Z -->
<g id="edge2" class="edge">
<title>com.android.server.am.AppErrors.mBadProcessLock&#45;&gt;m::com.android.server.am.AppErrors.makeAppCrashingLocked:(Lcom/android/server/am/ProcessRecord;Ljava/lang/String;Ljava/lang/String;Ljava/lang/String;Lcom/android/server/am/AppErrorDialog$Data;)Z</title>
<path fill="none" stroke="#dc2626" stroke-width="1.6" d="M298.62,-1039.84C282.38,-1027.92 260.6,-1011.94 243.08,-999.07"/>
<polygon fill="#dc2626" stroke="#dc2626" stroke-width="1.6" points="244.45,-996.61 236.34,-994.13 241.14,-1001.12 244.45,-996.61"/>
<text text-anchor="middle" x="291" y="-1014.8" font-family="Helvetica,sans-Serif" font-size="9.00" fill="#dc2626"> held in</text>
</g>
</g>
</svg>
