<?xml version="1.0" encoding="UTF-8" standalone="no"?>
<!DOCTYPE svg PUBLIC "-//W3C//DTD SVG 1.1//EN"
 "http://www.w3.org/Graphics/SVG/1.1/DTD/svg11.dtd">
<!-- Generated by graphviz version 2.43.0 (0)
 -->
<!-- Title: binder Pages: 1 -->
<svg width="407pt" height="208pt"
 viewBox="0.00 0.00 407.00 208.00" xmlns="http://www.w3.org/2000/svg" xmlns:xlink="http://www.w3.org/1999/xlink">
<g id="graph0" class="graph" transform="scale(1 1) rotate(0) translate(4 204)">
<title>binder</title>
<polygon fill="white" stroke="transparent" points="-4,4 -4,-204 403,-204 403,4 -4,4"/>
<!-- m::com.android.server.am.CachedAppOptimizer.lambda$killProcess$2:(ILjava/lang/String;II)V -->
<g id="node1" class="node">
<title>m::com.android.server.am.CachedAppOptimizer.lambda$killProcess$2:(ILjava/lang/String;II)V</title>
<path fill="#eef2ff" stroke="#a5b4fc" d="M326,-118C326,-118 96,-118 96,-118 90,-118 84,-112 84,-106 84,-106 84,-94 84,-94 84,-88 90,-82 96,-82 96,-82 326,-82 326,-82 332,-82 338,-88 338,-94 338,-94 338,-106 338,-106 338,-112 332,-118 326,-118"/>
<text text-anchor="middle" x="211" y="-97.2" font-family="Helvetica,sans-Serif" font-size="11.00">CachedAppOptimizer.lambda$killProcess$2</text>
</g>
<!-- __ipc__ -->
<g id="node2" class="node">
<title>__ipc__</title>
<path fill="#fde68a" stroke="#d97706" stroke-width="2" d="M255,-36C255,-36 167,-36 167,-36 161,-36 155,-30 155,-24 155,-24 155,-12 155,-12 155,-6 161,0 167,0 167,0 255,0 255,0 261,0 267,-6 267,-12 267,-12 267,-24 267,-24 267,-30 261,-36 255,-36"/>
<text text-anchor="middle" x="211" y="-21.2" font-family="Helvetica,sans-Serif" font-size="11.00">Binder IPC</text>
<text text-anchor="middle" x="211" y="-9.2" font-family="Helvetica,sans-Serif" font-size="11.00">(remote process)</text>
</g>
<!-- m::com.android.server.am.CachedAppOptimizer.lambda$killProcess$2:(ILjava/lang/String;II)V&#45;&gt;__ipc__ -->
<g id="edge3" class="edge">
<title>m::com.android.server.am.CachedAppOptimizer.lambda$killProcess$2:(ILjava/lang/String;II)V&#45;&gt;__ipc__</title>
<path fill="none" stroke="#d97706" stroke-width="1.6" d="M211,-81.64C211,-70.66 211,-56.29 211,-44.09"/>
<polygon fill="#d97706" stroke="#d97706" stroke-width="1.6" points="213.8,-44.05 211,-36.05 208.2,-44.05 213.8,-44.05"/>
<text text-anchor="middle" x="234" y="-56.8" font-family="Helvetica,sans-Serif" font-size="9.00" fill="#b45309"> transacts</text>
</g>
<!-- com.android.server.am.ActivityManagerService.mProcLock -->
<g id="node3" class="node">
<title>com.android.server.am.ActivityManagerService.mProcLock</title>
<path fill="#fee2e2" stroke="#dc2626" stroke-width="2" d="M198,-200C198,-200 12,-200 12,-200 6,-200 0,-194 0,-188 0,-188 0,-176 0,-176 0,-170 6,-164 12,-164 12,-164 198,-164 198,-164 204,-164 210,-170 210,-176 210,-176 210,-188 210,-188 210,-194 204,-200 198,-200"/>
<text text-anchor="middle" x="105" y="-179.2" font-family="Helvetica,sans-Serif" font-size="11.00">ActivityManagerService.mProcLock</text>
</g>
<!-- com.android.server.am.ActivityManagerService.mProcLock&#45;&gt;m::com.android.server.am.CachedAppOptimizer.lambda$killProcess$2:(ILjava/lang/String;II)V -->
<g id="edge1" class="edge">
<title>com.android.server.am.ActivityManagerService.mProcLock&#45;&gt;m::com.android.server.am.CachedAppOptimizer.lambda$killProcess$2:(ILjava/lang/String;II)V</title>
<path fill="none" stroke="#dc2626" stroke-width="1.6" d="M127.74,-163.84C143.53,-151.92 164.71,-135.94 181.75,-123.07"/>
<polygon fill="#dc2626" stroke="#dc2626" stroke-width="1.6" points="183.6,-125.19 188.3,-118.13 180.23,-120.72 183.6,-125.19"/>
<text text-anchor="middle" x="182" y="-138.8" font-family="Helvetica,sans-Serif" font-size="9.00" fill="#dc2626"> held in</text>
</g>
<!-- com.android.server.am.CachedAppOptimizer.mAm -->
<g id="node4" class="node">
<title>com.android.server.am.CachedAppOptimizer.mAm</title>
<path fill="#fee2e2" stroke="#dc2626" stroke-width="2" d="M387,-200C387,-200 247,-200 247,-200 241,-200 235,-194 235,-188 235,-188 235,-176 235,-176 235,-170 241,-164 247,-164 247,-164 387,-164 387,-164 393,-164 399,-170 399,-176 399,-176 399,-188 399,-188 399,-194 393,-200 387,-200"/>
<text text-anchor="middle" x="317" y="-179.2" font-family="Helvetica,sans-Serif" font-size="11.00">CachedAppOptimizer.mAm</text>
</g>
<!-- com.android.server.am.CachedAppOptimizer.mAm&#45;&gt;m::com.android.server.am.CachedAppOptimizer.lambda$killProcess$2:(ILjava/lang/String;II)V -->
<g id="edge2" class="edge">
<title>com.android.server.am.CachedAppOptimizer.mAm&#45;&gt;m::com.android.server.am.CachedAppOptimizer.lambda$killProcess$2:(ILjava/lang/String;II)V</title>
<path fill="none" stroke="#dc2626" stroke-width="1.6" d="M294.26,-163.84C278.47,-151.92 257.29,-135.94 240.25,-123.07"/>
<polygon fill="#dc2626" stroke="#dc2626" stroke-width="1.6" points="241.77,-120.72 233.7,-118.13 238.4,-125.19 241.77,-120.72"/>
<text text-anchor="middle" x="287" y="-138.8" font-family="Helvetica,sans-Serif" font-size="9.00" fill="#dc2626"> held in</text>
</g>
</g>
</svg>
