<?xml version="1.0" encoding="UTF-8" standalone="no"?>
<!DOCTYPE svg PUBLIC "-//W3C//DTD SVG 1.1//EN"
 "http://www.w3.org/Graphics/SVG/1.1/DTD/svg11.dtd">
<!-- Generated by graphviz version 2.43.0 (0)
 -->
<!-- Title: binder Pages: 1 -->
<svg width="372pt" height="208pt"
 viewBox="0.00 0.00 372.00 208.00" xmlns="http://www.w3.org/2000/svg" xmlns:xlink="http://www.w3.org/1999/xlink">
<g id="graph0" class="graph" transform="scale(1 1) rotate(0) translate(4 204)">
<title>binder</title>
<polygon fill="white" stroke="transparent" points="-4,4 -4,-204 368,-204 368,4 -4,4"/>
<!-- m::com.android.server.am.OomAdjusterImpl.performUpdateOomAdjPendingTargetsLocked:(I)V -->
<g id="node1" class="node">
<title>m::com.android.server.am.OomAdjusterImpl.performUpdateOomAdjPendingTargetsLocked:(I)V</title>
<path fill="#eef2ff" stroke="#a5b4fc" d="M352,-118C352,-118 12,-118 12,-118 6,-118 0,-112 0,-106 0,-106 0,-94 0,-94 0,-88 6,-82 12,-82 12,-82 352,-82 352,-82 358,-82 364,-88 364,-94 364,-94 364,-106 364,-106 364,-112 358,-118 352,-118"/>
<text text-anchor="middle" x="182" y="-97.2" font-family="Helvetica,sans-Serif" font-size="11.00">OomAdjusterImpl.performUpdateOomAdjPendingTargetsLocked</text>
</g>
<!-- __ipc__ -->
<g id="node2" class="node">
<title>__ipc__</title>
<path fill="#fde68a" stroke="#d97706" stroke-width="2" d="M226,-36C226,-36 138,-36 138,-36 132,-36 126,-30 126,-24 126,-24 126,-12 126,-12 126,-6 132,0 138,0 138,0 226,0 226,0 232,0 238,-6 238,-12 238,-12 238,-24 238,-24 238,-30 232,-36 226,-36"/>
<text text-anchor="middle" x="182" y="-21.2" font-family="Helvetica,sans-Serif" font-size="11.00">Binder IPC</text>
<text text-anchor="middle" x="182" y="-9.2" font-family="Helvetica,sans-Serif" font-size="11.00">(remote process)</text>
</g>
<!-- m::com.android.server.am.OomAdjusterImpl.performUpdateOomAdjPendingTargetsLocked:(I)V&#45;&gt;__ipc__ -->
<g id="edge2" class="edge">
<title>m::com.android.server.am.OomAdjusterImpl.performUpdateOomAdjPendingTargetsLocked:(I)V&#45;&gt;__ipc__</title>
<path fill="none" stroke="#d97706" stroke-width="1.6" d="M182,-81.64C182,-70.66 182,-56.29 182,-44.09"/>
<polygon fill="#d97706" stroke="#d97706" stroke-width="1.6" points="184.8,-44.05 182,-36.05 179.2,-44.05 184.8,-44.05"/>
<text text-anchor="middle" x="205" y="-56.8" font-family="Helvetica,sans-Serif" font-size="9.00" fill="#b45309"> transacts</text>
</g>
<!-- com.android.server.am.ActivityManagerService.mProcLock -->
<g id="node3" class="node">
<title>com.android.server.am.ActivityManagerService.mProcLock</title>
<path fill="#fee2e2" stroke="#dc2626" stroke-width="2" d="M275,-200C275,-200 89,-200 89,-200 83,-200 77,-194 77,-188 77,-188 77,-176 77,-176 77,-170 83,-164 89,-164 89,-164 275,-164 275,-164 281,-164 287,-170 287,-176 287,-176 287,-188 287,-188 287,-194 281,-200 275,-200"/>
<text text-anchor="middle" x="182" y="-179.2" font-family="Helvetica,sans-Serif" font-size="11.00">ActivityManagerService.mProcLock</text>
</g>
<!-- com.android.server.am.ActivityManagerService.mProcLock&#45;&gt;m::com.android.server.am.OomAdjusterImpl.performUpdateOomAdjPendingTargetsLocked:(I)V -->
<g id="edge1" class="edge">
<title>com.android.server.am.ActivityManagerService.mProcLock&#45;&gt;m::com.android.server.am.OomAdjusterImpl.performUpdateOomAdjPendingTargetsLocked:(I)V</title>
<path fill="none" stroke="#dc2626" stroke-width="1.6" d="M182,-163.64C182,-152.66 182,-138.29 182,-126.09"/>
<polygon fill="#dc2626" stroke="#dc2626" stroke-width="1.6" points="184.8,-126.05 182,-118.05 179.2,-126.05 184.8,-126.05"/>
<text text-anchor="middle" x="199" y="-138.8" font-family="Helvetica,sans-Serif" font-size="9.00" fill="#dc2626"> held in</text>
</g>
</g>
</svg>
