<?xml version="1.0" encoding="UTF-8" standalone="no"?>
<!DOCTYPE svg PUBLIC "-//W3C//DTD SVG 1.1//EN"
 "http://www.w3.org/Graphics/SVG/1.1/DTD/svg11.dtd">
<!-- Generated by graphviz version 2.43.0 (0)
 -->
<!-- Title: binder Pages: 1 -->
<svg width="417pt" height="208pt"
 viewBox="0.00 0.00 416.50 208.00" xmlns="http://www.w3.org/2000/svg" xmlns:xlink="http://www.w3.org/1999/xlink">
<g id="graph0" class="graph" transform="scale(1 1) rotate(0) translate(4 204)">
<title>binder</title>
<polygon fill="white" stroke="transparent" points="-4,4 -4,-204 412.5,-204 412.5,4 -4,4"/>
<!-- m::com.android.server.am.AppErrors.handleShowAppErrorUi:(Landroid/os/Message;)V -->
<g id="node1" class="node">
<title>m::com.android.server.am.AppErrors.handleShowAppErrorUi:(Landroid/os/Message;)V</title>
<path fill="#eef2ff" stroke="#a5b4fc" d="M301,-118C301,-118 125,-118 125,-118 119,-118 113,-112 113,-106 113,-106 113,-94 113,-94 113,-88 119,-82 125,-82 125,-82 301,-82 301,-82 307,-82 313,-88 313,-94 313,-94 313,-106 313,-106 313,-112 307,-118 301,-118"/>
<text text-anchor="middle" x="213" y="-97.2" font-family="Helvetica,sans-Serif" font-size="11.00">AppErrors.handleShowAppErrorUi</text>
</g>
<!-- __ipc__ -->
<g id="node2" class="node">
<title>__ipc__</title>
<path fill="#fde68a" stroke="#d97706" stroke-width="2" d="M257,-36C257,-36 169,-36 169,-36 163,-36 157,-30 157,-24 157,-24 157,-12 157,-12 157,-6 163,0 169,0 169,0 257,0 257,0 263,0 269,-6 269,-12 269,-12 269,-24 269,-24 269,-30 263,-36 257,-36"/>
<text text-anchor="middle" x="213" y="-21.2" font-family="Helvetica,sans-Serif" font-size="11.00">Binder IPC</text>
<text text-anchor="middle" x="213" y="-9.2" font-family="Helvetica,sans-Serif" font-size="11.00">(remote process)</text>
</g>
<!-- m::com.android.server.am.AppErrors.handleShowAppErrorUi:(Landroid/os/Message;)V&#45;&gt;__ipc__ -->
<g id="edge3" class="edge">
<title>m::com.android.server.am.AppErrors.handleShowAppErrorUi:(Landroid/os/Message;)V&#45;&gt;__ipc__</title>
<path fill="none" stroke="#d97706" stroke-width="1.6" d="M213,-81.64C213,-70.66 213,-56.29 213,-44.09"/>
<polygon fill="#d97706" stroke="#d97706" stroke-width="1.6" points="215.8,-44.05 213,-36.05 210.2,-44.05 215.8,-44.05"/>
<text text-anchor="middle" x="236" y="-56.8" font-family="Helvetica,sans-Serif" font-size="9.00" fill="#b45309"> transacts</text>
</g>
<!-- com.android.server.am.ActivityManagerService.mProcLock -->
<g id="node3" class="node">
<title>com.android.server.am.ActivityManagerService.mProcLock</title>
<path fill="#fee2e2" stroke="#dc2626" stroke-width="2" d="M198,-200C198,-200 12,-200 12,-200 6,-200 0,-194 0,-188 0,-188 0,-176 0,-176 0,-170 6,-164 12,-164 12,-164 198,-164 198,-164 204,-164 210,-170 210,-176 210,-176 210,-188 210,-188 210,-194 204,-200 198,-200"/>
<text text-anchor="middle" x="105" y="-179.2" font-family="Helvetica,sans-Serif" font-size="11.00">ActivityManagerService.mProcLock</text>
</g>
<!-- com.android.server.am.ActivityManagerService.mProcLock&#45;&gt;m::com.android.server.am.AppErrors.handleShowAppErrorUi:(Landroid/os/Message;)V -->
<g id="edge1" class="edge">
<title>com.android.server.am.ActivityManagerService.mProcLock&#45;&gt;m::com.android.server.am.AppErrors.handleShowAppErrorUi:(Landroid/os/Message;)V</title>
<path fill="none" stroke="#dc2626" stroke-width="1.6" d="M128.17,-163.84C144.26,-151.92 165.83,-135.94 183.2,-123.07"/>
<polygon fill="#dc2626" stroke="#dc2626" stroke-width="1.6" points="185.11,-125.15 189.87,-118.13 181.77,-120.65 185.11,-125.15"/>
<text text-anchor="middle" x="183" y="-138.8" font-family="Helvetica,sans-Serif" font-size="9.00" fill="#dc2626"> held in</text>
</g>
<!-- com.android.server.am.AppErrors.mBadProcessLock -->
<g id="node4" class="node">
<title>com.android.server.am.AppErrors.mBadProcessLock</title>
<path fill="#fee2e2" stroke="#dc2626" stroke-width="2" d="M396.5,-200C396.5,-200 247.5,-200 247.5,-200 241.5,-200 235.5,-194 235.5,-188 235.5,-188 235.5,-176 235.5,-176 235.5,-170 241.5,-164 247.5,-164 247.5,-164 396.5,-164 396.5,-164 402.5,-164 408.5,-170 408.5,-176 408.5,-176 408.5,-188 408.5,-188 408.5,-194 402.5,-200 396.5,-200"/>
<text text-anchor="middle" x="322" y="-179.2" font-family="Helvetica,sans-Serif" font-size="11.00">AppErrors.mBadProcessLock</text>
</g>
<!-- com.android.server.am.AppErrors.mBadProcessLock&#45;&gt;m::com.android.server.am.AppErrors.handleShowAppErrorUi:(Landroid/os/Message;)V -->
<g id="edge2" class="edge">
<title>com.android.server.am.AppErrors.mBadProcessLock&#45;&gt;m::com.android.server.am.AppErrors.handleShowAppErrorUi:(Landroid/os/Message;)V</title>
<path fill="none" stroke="#dc2626" stroke-width="1.6" d="M298.62,-163.84C282.38,-151.92 260.6,-135.94 243.08,-123.07"/>
<polygon fill="#dc2626" stroke="#dc2626" stroke-width="1.6" points="244.45,-120.61 236.34,-118.13 241.14,-125.12 244.45,-120.61"/>
<text text-anchor="middle" x="291" y="-138.8" font-family="Helvetica,sans-Serif" font-size="9.00" fill="#dc2626"> held in</text>
</g>
</g>
</svg>
