<?xml version="1.0" encoding="UTF-8" standalone="no"?>
<!DOCTYPE svg PUBLIC "-//W3C//DTD SVG 1.1//EN"
 "http://www.w3.org/Graphics/SVG/1.1/DTD/svg11.dtd">
<!-- Generated by graphviz version 2.43.0 (0)
 -->
<!-- Title: binder Pages: 1 -->
<svg width="220pt" height="208pt"
 viewBox="0.00 0.00 220.00 208.00" xmlns="http://www.w3.org/2000/svg" xmlns:xlink="http://www.w3.org/1999/xlink">
<g id="graph0" class="graph" transform="scale(1 1) rotate(0) translate(4 204)">
<title>binder</title>
<polygon fill="white" stroke="transparent" points="-4,4 -4,-204 216,-204 216,4 -4,4"/>
<!-- m::com.android.server.am.OomAdjuster.updateOomAdjLocked:(Lcom/android/server/am/ProcessRecord;I)Z -->
<g id="node1" class="node">
<title>m::com.android.server.am.OomAdjuster.updateOomAdjLocked:(Lcom/android/server/am/ProcessRecord;I)Z</title>
<path fill="#eef2ff" stroke="#a5b4fc" d="M200,-118C200,-118 12,-118 12,-118 6,-118 0,-112 0,-106 0,-106 0,-94 0,-94 0,-88 6,-82 12,-82 12,-82 200,-82 200,-82 206,-82 212,-88 212,-94 212,-94 212,-106 212,-106 212,-112 206,-118 200,-118"/>
<text text-anchor="middle" x="106" y="-97.2" font-family="Helvetica,sans-Serif" font-size="11.00">OomAdjuster.updateOomAdjLocked</text>
</g>
<!-- __ipc__ -->
<g id="node2" class="node">
<title>__ipc__</title>
<path fill="#fde68a" stroke="#d97706" stroke-width="2" d="M150,-36C150,-36 62,-36 62,-36 56,-36 50,-30 50,-24 50,-24 50,-12 50,-12 50,-6 56,0 62,0 62,0 150,0 150,0 156,0 162,-6 162,-12 162,-12 162,-24 162,-24 162,-30 156,-36 150,-36"/>
<text text-anchor="middle" x="106" y="-21.2" font-family="Helvetica,sans-Serif" font-size="11.00">Binder IPC</text>
<text text-anchor="middle" x="106" y="-9.2" font-family="Helvetica,sans-Serif" font-size="11.00">(remote process)</text>
</g>
<!-- m::com.android.server.am.OomAdjuster.updateOomAdjLocked:(Lcom/android/server/am/ProcessRecord;I)Z&#45;&gt;__ipc__ -->
<g id="edge2" class="edge">
<title>m::com.android.server.am.OomAdjuster.updateOomAdjLocked:(Lcom/android/server/am/ProcessRecord;I)Z&#45;&gt;__ipc__</title>
<path fill="none" stroke="#d97706" stroke-width="1.6" d="M106,-81.64C106,-70.66 106,-56.29 106,-44.09"/>
<polygon fill="#d97706" stroke="#d97706" stroke-width="1.6" points="108.8,-44.05 106,-36.05 103.2,-44.05 108.8,-44.05"/>
<text text-anchor="middle" x="129" y="-56.8" font-family="Helvetica,sans-Serif" font-size="9.00" fill="#b45309"> transacts</text>
</g>
<!-- com.android.server.am.ActivityManagerService.mProcLock -->
<g id="node3" class="node">
<title>com.android.server.am.ActivityManagerService.mProcLock</title>
<path fill="#fee2e2" stroke="#dc2626" stroke-width="2" d="M199,-200C199,-200 13,-200 13,-200 7,-200 1,-194 1,-188 1,-188 1,-176 1,-176 1,-170 7,-164 13,-164 13,-164 199,-164 199,-164 205,-164 211,-170 211,-176 211,-176 211,-188 211,-188 211,-194 205,-200 199,-200"/>
<text text-anchor="middle" x="106" y="-179.2" font-family="Helvetica,sans-Serif" font-size="11.00">ActivityManagerService.mProcLock</text>
</g>
<!-- com.android.server.am.ActivityManagerService.mProcLock&#45;&gt;m::com.android.server.am.OomAdjuster.updateOomAdjLocked:(Lcom/android/server/am/ProcessRecord;I)Z -->
<g id="edge1" class="edge">
<title>com.android.server.am.ActivityManagerService.mProcLock&#45;&gt;m::com.android.server.am.OomAdjuster.updateOomAdjLocked:(Lcom/android/server/am/ProcessRecord;I)Z</title>
<path fill="none" stroke="#dc2626" stroke-width="1.6" d="M106,-163.64C106,-152.66 106,-138.29 106,-126.09"/>
<polygon fill="#dc2626" stroke="#dc2626" stroke-width="1.6" points="108.8,-126.05 106,-118.05 103.2,-126.05 108.8,-126.05"/>
<text text-anchor="middle" x="123" y="-138.8" font-family="Helvetica,sans-Serif" font-size="9.00" fill="#dc2626"> held in</text>
</g>
</g>
</svg>
