<?xml version="1.0" encoding="UTF-8" standalone="no"?>
<!DOCTYPE svg PUBLIC "-//W3C//DTD SVG 1.1//EN"
 "http://www.w3.org/Graphics/SVG/1.1/DTD/svg11.dtd">
<!-- Generated by graphviz version 2.43.0 (0)
 -->
<!-- Title: binder Pages: 1 -->
<svg width="489pt" height="208pt"
 viewBox="0.00 0.00 488.50 208.00" xmlns="http://www.w3.org/2000/svg" xmlns:xlink="http://www.w3.org/1999/xlink">
<g id="graph0" class="graph" transform="scale(1 1) rotate(0) translate(4 204)">
<title>binder</title>
<polygon fill="white" stroke="transparent" points="-4,4 -4,-204 484.5,-204 484.5,4 -4,4"/>
<!-- m::com.android.server.am.ActivityManagerShellCommand.runFreeze:(Ljava/io/PrintWriter;Z)I -->
<g id="node1" class="node">
<title>m::com.android.server.am.ActivityManagerShellCommand.runFreeze:(Ljava/io/PrintWriter;Z)I</title>
<path fill="#eef2ff" stroke="#a5b4fc" d="M342,-118C342,-118 120,-118 120,-118 114,-118 108,-112 108,-106 108,-106 108,-94 108,-94 108,-88 114,-82 120,-82 120,-82 342,-82 342,-82 348,-82 354,-88 354,-94 354,-94 354,-106 354,-106 354,-112 348,-118 342,-118"/>
<text text-anchor="middle" x="231" y="-97.2" font-family="Helvetica,sans-Serif" font-size="11.00">ActivityManagerShellCommand.runFreeze</text>
</g>
<!-- __ipc__ -->
<g id="node2" class="node">
<title>__ipc__</title>
<path fill="#fde68a" stroke="#d97706" stroke-width="2" d="M275,-36C275,-36 187,-36 187,-36 181,-36 175,-30 175,-24 175,-24 175,-12 175,-12 175,-6 181,0 187,0 187,0 275,0 275,0 281,0 287,-6 287,-12 287,-12 287,-24 287,-24 287,-30 281,-36 275,-36"/>
<text text-anchor="middle" x="231" y="-21.2" font-family="Helvetica,sans-Serif" font-size="11.00">Binder IPC</text>
<text text-anchor="middle" x="231" y="-9.2" font-family="Helvetica,sans-Serif" font-size="11.00">(remote process)</text>
</g>
<!-- m::com.android.server.am.ActivityManagerShellCommand.runFreeze:(Ljava/io/PrintWriter;Z)I&#45;&gt;__ipc__ -->
<g id="edge3" class="edge">
<title>m::com.android.server.am.ActivityManagerShellCommand.runFreeze:(Ljava/io/PrintWriter;Z)I&#45;&gt;__ipc__</title>
<path fill="none" stroke="#d97706" stroke-width="1.6" d="M231,-81.64C231,-70.66 231,-56.29 231,-44.09"/>
<polygon fill="#d97706" stroke="#d97706" stroke-width="1.6" points="233.8,-44.05 231,-36.05 228.2,-44.05 233.8,-44.05"/>
<text text-anchor="middle" x="254" y="-56.8" font-family="Helvetica,sans-Serif" font-size="9.00" fill="#b45309"> transacts</text>
</g>
<!-- com.android.server.am.ActivityManagerService.mProcLock -->
<g id="node3" class="node">
<title>com.android.server.am.ActivityManagerService.mProcLock</title>
<path fill="#fee2e2" stroke="#dc2626" stroke-width="2" d="M198,-200C198,-200 12,-200 12,-200 6,-200 0,-194 0,-188 0,-188 0,-176 0,-176 0,-170 6,-164 12,-164 12,-164 198,-164 198,-164 204,-164 210,-170 210,-176 210,-176 210,-188 210,-188 210,-194 204,-200 198,-200"/>
<text text-anchor="middle" x="105" y="-179.2" font-family="Helvetica,sans-Serif" font-size="11.00">ActivityManagerService.mProcLock</text>
</g>
<!-- com.android.server.am.ActivityManagerService.mProcLock&#45;&gt;m::com.android.server.am.ActivityManagerShellCommand.runFreeze:(Ljava/io/PrintWriter;Z)I -->
<g id="edge1" class="edge">
<title>com.android.server.am.ActivityManagerService.mProcLock&#45;&gt;m::com.android.server.am.ActivityManagerShellCommand.runFreeze:(Ljava/io/PrintWriter;Z)I</title>
<path fill="none" stroke="#dc2626" stroke-width="1.6" d="M132.03,-163.84C151.05,-151.76 176.64,-135.51 197.04,-122.56"/>
<polygon fill="#dc2626" stroke="#dc2626" stroke-width="1.6" points="198.76,-124.79 204.01,-118.13 195.76,-120.06 198.76,-124.79"/>
<text text-anchor="middle" x="193" y="-138.8" font-family="Helvetica,sans-Serif" font-size="9.00" fill="#dc2626"> held in</text>
</g>
<!-- com.android.server.am.ActivityManagerShellCommand.mInternal -->
<g id="node4" class="node">
<title>com.android.server.am.ActivityManagerShellCommand.mInternal</title>
<path fill="#fee2e2" stroke="#dc2626" stroke-width="2" d="M468.5,-200C468.5,-200 247.5,-200 247.5,-200 241.5,-200 235.5,-194 235.5,-188 235.5,-188 235.5,-176 235.5,-176 235.5,-170 241.5,-164 247.5,-164 247.5,-164 468.5,-164 468.5,-164 474.5,-164 480.5,-170 480.5,-176 480.5,-176 480.5,-188 480.5,-188 480.5,-194 474.5,-200 468.5,-200"/>
<text text-anchor="middle" x="358" y="-179.2" font-family="Helvetica,sans-Serif" font-size="11.00">ActivityManagerShellCommand.mInternal</text>
</g>
<!-- com.android.server.am.ActivityManagerShellCommand.mInternal&#45;&gt;m::com.android.server.am.ActivityManagerShellCommand.runFreeze:(Ljava/io/PrintWriter;Z)I -->
<g id="edge2" class="edge">
<title>com.android.server.am.ActivityManagerShellCommand.mInternal&#45;&gt;m::com.android.server.am.ActivityManagerShellCommand.runFreeze:(Ljava/io/PrintWriter;Z)I</title>
<path fill="none" stroke="#dc2626" stroke-width="1.6" d="M330.76,-163.84C311.59,-151.76 285.79,-135.51 265.23,-122.56"/>
<polygon fill="#dc2626" stroke="#dc2626" stroke-width="1.6" points="266.46,-120.03 258.2,-118.13 263.48,-124.77 266.46,-120.03"/>
<text text-anchor="middle" x="319" y="-138.8" font-family="Helvetica,sans-Serif" font-size="9.00" fill="#dc2626"> held in</text>
</g>
</g>
</svg>
