<?xml version="1.0" encoding="UTF-8" standalone="no"?>
<!DOCTYPE svg PUBLIC "-//W3C//DTD SVG 1.1//EN"
 "http://www.w3.org/Graphics/SVG/1.1/DTD/svg11.dtd">
<!-- Generated by graphviz version 2.43.0 (0)
 -->
<!-- Title: binder Pages: 1 -->
<svg width="328pt" height="208pt"
 viewBox="0.00 0.00 328.00 208.00" xmlns="http://www.w3.org/2000/svg" xmlns:xlink="http://www.w3.org/1999/xlink">
<g id="graph0" class="graph" transform="scale(1 1) rotate(0) translate(4 204)">
<title>binder</title>
<polygon fill="white" stroke="transparent" points="-4,4 -4,-204 324,-204 324,4 -4,4"/>
<!-- m::com.android.server.am.ActivityManagerService$LocalService.setHasOverlayUi:(IZ)V -->
<g id="node1" class="node">
<title>m::com.android.server.am.ActivityManagerService$LocalService.setHasOverlayUi:(IZ)V</title>
<path fill="#eef2ff" stroke="#a5b4fc" d="M308,-118C308,-118 12,-118 12,-118 6,-118 0,-112 0,-106 0,-106 0,-94 0,-94 0,-88 6,-82 12,-82 12,-82 308,-82 308,-82 314,-82 320,-88 320,-94 320,-94 320,-106 320,-106 320,-112 314,-118 308,-118"/>
<text text-anchor="middle" x="160" y="-97.2" font-family="Helvetica,sans-Serif" font-size="11.00">ActivityManagerService$LocalService.setHasOverlayUi</text>
</g>
<!-- __ipc__ -->
<g id="node2" class="node">
<title>__ipc__</title>
<path fill="#fde68a" stroke="#d97706" stroke-width="2" d="M204,-36C204,-36 116,-36 116,-36 110,-36 104,-30 104,-24 104,-24 104,-12 104,-12 104,-6 110,0 116,0 116,0 204,0 204,0 210,0 216,-6 216,-12 216,-12 216,-24 216,-24 216,-30 210,-36 204,-36"/>
<text text-anchor="middle" x="160" y="-21.2" font-family="Helvetica,sans-Serif" font-size="11.00">Binder IPC</text>
<text text-anchor="middle" x="160" y="-9.2" font-family="Helvetica,sans-Serif" font-size="11.00">(remote process)</text>
</g>
<!-- m::com.android.server.am.ActivityManagerService$LocalService.setHasOverlayUi:(IZ)V&#45;&gt;__ipc__ -->
<g id="edge2" class="edge">
<title>m::com.android.server.am.ActivityManagerService$LocalService.setHasOverlayUi:(IZ)V&#45;&gt;__ipc__</title>
<path fill="none" stroke="#d97706" stroke-width="1.6" d="M160,-81.64C160,-70.66 160,-56.29 160,-44.09"/>
<polygon fill="#d97706" stroke="#d97706" stroke-width="1.6" points="162.8,-44.05 160,-36.05 157.2,-44.05 162.8,-44.05"/>
<text text-anchor="middle" x="183" y="-56.8" font-family="Helvetica,sans-Serif" font-size="9.00" fill="#b45309"> transacts</text>
</g>
<!-- com.android.server.am.ActivityManagerService$LocalService.this$0 -->
<g id="node3" class="node">
<title>com.android.server.am.ActivityManagerService$LocalService.this$0</title>
<path fill="#fee2e2" stroke="#dc2626" stroke-width="2" d="M278,-200C278,-200 42,-200 42,-200 36,-200 30,-194 30,-188 30,-188 30,-176 30,-176 30,-170 36,-164 42,-164 42,-164 278,-164 278,-164 284,-164 290,-170 290,-176 290,-176 290,-188 290,-188 290,-194 284,-200 278,-200"/>
<text text-anchor="middle" x="160" y="-179.2" font-family="Helvetica,sans-Serif" font-size="11.00">ActivityManagerService$LocalService.this$0</text>
</g>
<!-- com.android.server.am.ActivityManagerService$LocalService.this$0&#45;&gt;m::com.android.server.am.ActivityManagerService$LocalService.setHasOverlayUi:(IZ)V -->
<g id="edge1" class="edge">
<title>com.android.server.am.ActivityManagerService$LocalService.this$0&#45;&gt;m::com.android.server.am.ActivityManagerService$LocalService.setHasOverlayUi:(IZ)V</title>
<path fill="none" stroke="#dc2626" stroke-width="1.6" d="M160,-163.64C160,-152.66 160,-138.29 160,-126.09"/>
<polygon fill="#dc2626" stroke="#dc2626" stroke-width="1.6" points="162.8,-126.05 160,-118.05 157.2,-126.05 162.8,-126.05"/>
<text text-anchor="middle" x="177" y="-138.8" font-family="Helvetica,sans-Serif" font-size="9.00" fill="#dc2626"> held in</text>
</g>
</g>
</svg>
