<?xml version="1.0" encoding="UTF-8" standalone="no"?>
<!DOCTYPE svg PUBLIC "-//W3C//DTD SVG 1.1//EN"
 "http://www.w3.org/Graphics/SVG/1.1/DTD/svg11.dtd">
<!-- Generated by graphviz version 2.43.0 (0)
 -->
<!-- Title: binder Pages: 1 -->
<svg width="377pt" height="208pt"
 viewBox="0.00 0.00 377.00 208.00" xmlns="http://www.w3.org/2000/svg" xmlns:xlink="http://www.w3.org/1999/xlink">
<g id="graph0" class="graph" transform="scale(1 1) rotate(0) translate(4 204)">
<title>binder</title>
<polygon fill="white" stroke="transparent" points="-4,4 -4,-204 373,-204 373,4 -4,4"/>
<!-- m::com.android.server.am.ProcessErrorStateRecord.appNotResponding:(Ljava/lang/String;Landroid/content/pm/ApplicationInfo;Ljava/lang/String;Lcom/android/server/wm/WindowProcessController;ZLcom/android/internal/os/TimeoutRecord;Ljava/util/concurrent/ExecutorService;ZZLjava/util/concurrent/Future;)V -->
<g id="node1" class="node">
<title>m::com.android.server.am.ProcessErrorStateRecord.appNotResponding:(Ljava/lang/String;Landroid/content/pm/ApplicationInfo;Ljava/lang/String;Lcom/android/server/wm/WindowProcessController;ZLcom/android/internal/os/TimeoutRecord;Ljava/util/concurrent/ExecutorService;ZZLjava/util/concurrent/Future;)V</title>
<path fill="#eef2ff" stroke="#a5b4fc" d="M321.5,-118C321.5,-118 84.5,-118 84.5,-118 78.5,-118 72.5,-112 72.5,-106 72.5,-106 72.5,-94 72.5,-94 72.5,-88 78.5,-82 84.5,-82 84.5,-82 321.5,-82 321.5,-82 327.5,-82 333.5,-88 333.5,-94 333.5,-94 333.5,-106 333.5,-106 333.5,-112 327.5,-118 321.5,-118"/>
<text text-anchor="middle" x="203" y="-97.2" font-family="Helvetica,sans-Serif" font-size="11.00">ProcessErrorStateRecord.appNotResponding</text>
</g>
<!-- __ipc__ -->
<g id="node2" class="node">
<title>__ipc__</title>
<path fill="#fde68a" stroke="#d97706" stroke-width="2" d="M247,-36C247,-36 159,-36 159,-36 153,-36 147,-30 147,-24 147,-24 147,-12 147,-12 147,-6 153,0 159,0 159,0 247,0 247,0 253,0 259,-6 259,-12 259,-12 259,-24 259,-24 259,-30 253,-36 247,-36"/>
<text text-anchor="middle" x="203" y="-21.2" font-family="Helvetica,sans-Serif" font-size="11.00">Binder IPC</text>
<text text-anchor="middle" x="203" y="-9.2" font-family="Helvetica,sans-Serif" font-size="11.00">(remote process)</text>
</g>
<!-- m::com.android.server.am.ProcessErrorStateRecord.appNotResponding:(Ljava/lang/String;Landroid/content/pm/ApplicationInfo;Ljava/lang/String;Lcom/android/server/wm/WindowProcessController;ZLcom/android/internal/os/TimeoutRecord;Ljava/util/concurrent/ExecutorService;ZZLjava/util/concurrent/Future;)V&#45;&gt;__ipc__ -->
<g id="edge3" class="edge">
<title>m::com.android.server.am.ProcessErrorStateRecord.appNotResponding:(Ljava/lang/String;Landroid/content/pm/ApplicationInfo;Ljava/lang/String;Lcom/android/server/wm/WindowProcessController;ZLcom/android/internal/os/TimeoutRecord;Ljava/util/concurrent/ExecutorService;ZZLjava/util/concurrent/Future;)V&#45;&gt;__ipc__</title>
<path fill="none" stroke="#d97706" stroke-width="1.6" d="M203,-81.64C203,-70.66 203,-56.29 203,-44.09"/>
<polygon fill="#d97706" stroke="#d97706" stroke-width="1.6" points="205.8,-44.05 203,-36.05 200.2,-44.05 205.8,-44.05"/>
<text text-anchor="middle" x="226" y="-56.8" font-family="Helvetica,sans-Serif" font-size="9.00" fill="#b45309"> transacts</text>
</g>
<!-- com.android.server.am.ActivityManagerService.mProcLock -->
<g id="node3" class="node">
<title>com.android.server.am.ActivityManagerService.mProcLock</title>
<path fill="#fee2e2" stroke="#dc2626" stroke-width="2" d="M198,-200C198,-200 12,-200 12,-200 6,-200 0,-194 0,-188 0,-188 0,-176 0,-176 0,-170 6,-164 12,-164 12,-164 198,-164 198,-164 204,-164 210,-170 210,-176 210,-176 210,-188 210,-188 210,-194 204,-200 198,-200"/>
<text text-anchor="middle" x="105" y="-179.2" font-family="Helvetica,sans-Serif" font-size="11.00">ActivityManagerService.mProcLock</text>
</g>
<!-- com.android.server.am.ActivityManagerService.mProcLock&#45;&gt;m::com.android.server.am.ProcessErrorStateRecord.appNotResponding:(Ljava/lang/String;Landroid/content/pm/ApplicationInfo;Ljava/lang/String;Lcom/android/server/wm/WindowProcessController;ZLcom/android/internal/os/TimeoutRecord;Ljava/util/concurrent/ExecutorService;ZZLjava/util/concurrent/Future;)V -->
<g id="edge1" class="edge">
<title>com.android.server.am.ActivityManagerService.mProcLock&#45;&gt;m::com.android.server.am.ProcessErrorStateRecord.appNotResponding:(Ljava/lang/String;Landroid/content/pm/ApplicationInfo;Ljava/lang/String;Lcom/android/server/wm/WindowProcessController;ZLcom/android/internal/os/TimeoutRecord;Ljava/util/concurrent/ExecutorService;ZZLjava/util/concurrent/Future;)V</title>
<path fill="none" stroke="#dc2626" stroke-width="1.6" d="M126.26,-163.64C140.75,-151.82 160.05,-136.06 175.67,-123.31"/>
<polygon fill="#dc2626" stroke="#dc2626" stroke-width="1.6" points="177.69,-125.28 182.11,-118.05 174.15,-120.94 177.69,-125.28"/>
<text text-anchor="middle" x="177" y="-138.8" font-family="Helvetica,sans-Serif" font-size="9.00" fill="#dc2626"> held in</text>
</g>
<!-- com.android.server.am.ProcessList.mService -->
<g id="node4" class="node">
<title>com.android.server.am.ProcessList.mService</title>
<path fill="#fee2e2" stroke="#dc2626" stroke-width="2" d="M357,-200C357,-200 247,-200 247,-200 241,-200 235,-194 235,-188 235,-188 235,-176 235,-176 235,-170 241,-164 247,-164 247,-164 357,-164 357,-164 363,-164 369,-170 369,-176 369,-176 369,-188 369,-188 369,-194 363,-200 357,-200"/>
<text text-anchor="middle" x="302" y="-179.2" font-family="Helvetica,sans-Serif" font-size="11.00">ProcessList.mService</text>
</g>
<!-- com.android.server.am.ProcessList.mService&#45;&gt;m::com.android.server.am.ProcessErrorStateRecord.appNotResponding:(Ljava/lang/String;Landroid/content/pm/ApplicationInfo;Ljava/lang/String;Lcom/android/server/wm/WindowProcessController;ZLcom/android/internal/os/TimeoutRecord;Ljava/util/concurrent/ExecutorService;ZZLjava/util/concurrent/Future;)V -->
<g id="edge2" class="edge">
<title>com.android.server.am.ProcessList.mService&#45;&gt;m::com.android.server.am.ProcessErrorStateRecord.appNotResponding:(Ljava/lang/String;Landroid/content/pm/ApplicationInfo;Ljava/lang/String;Lcom/android/server/wm/WindowProcessController;ZLcom/android/internal/os/TimeoutRecord;Ljava/util/concurrent/ExecutorService;ZZLjava/util/concurrent/Future;)V</title>
<path fill="none" stroke="#dc2626" stroke-width="1.6" d="M280.52,-163.64C265.89,-151.82 246.39,-136.06 230.61,-123.31"/>
<polygon fill="#dc2626" stroke="#dc2626" stroke-width="1.6" points="232.08,-120.9 224.1,-118.05 228.56,-125.26 232.08,-120.9"/>
<text text-anchor="middle" x="275" y="-138.8" font-family="Helvetica,sans-Serif" font-size="9.00" fill="#dc2626"> held in</text>
</g>
</g>
</svg>
