<?xml version="1.0" encoding="UTF-8" standalone="no"?>
<!DOCTYPE svg PUBLIC "-//W3C//DTD SVG 1.1//EN"
 "http://www.w3.org/Graphics/SVG/1.1/DTD/svg11.dtd">
<!-- Generated by graphviz version 2.43.0 (0)
 -->
<!-- Title: binder Pages: 1 -->
<svg width="730pt" height="354pt"
 viewBox="0.00 0.00 730.00 354.00" xmlns="http://www.w3.org/2000/svg" xmlns:xlink="http://www.w3.org/1999/xlink">
<g id="graph0" class="graph" transform="scale(1 1) rotate(0) translate(4 350)">
<title>binder</title>
<polygon fill="white" stroke="transparent" points="-4,4 -4,-350 726,-350 726,4 -4,4"/>
<!-- m::com.android.server.os.BugreportManagerServiceImpl$DumpstateListener.binderDied:()V -->
<g id="node1" class="node">
<title>m::com.android.server.os.BugreportManagerServiceImpl$DumpstateListener.binderDied:()V</title>
<path fill="#eef2ff" stroke="#a5b4fc" stroke-width="2" d="M582.5,-346C582.5,-346 249.5,-346 249.5,-346 243.5,-346 237.5,-340 237.5,-334 237.5,-334 237.5,-322 237.5,-322 237.5,-316 243.5,-310 249.5,-310 249.5,-310 582.5,-310 582.5,-310 588.5,-310 594.5,-316 594.5,-322 594.5,-322 594.5,-334 594.5,-334 594.5,-340 588.5,-346 582.5,-346"/>
<text text-anchor="middle" x="416" y="-325.2" font-family="Helvetica,sans-Serif" font-size="11.00">BugreportManagerServiceImpl$DumpstateListener.binderDied</text>
</g>
<!-- com.android.server.os.BugreportManagerServiceImpl.mLock -->
<g id="node2" class="node">
<title>com.android.server.os.BugreportManagerServiceImpl.mLock</title>
<path fill="#fee2e2" stroke="#dc2626" stroke-width="2" d="M210,-264C210,-264 12,-264 12,-264 6,-264 0,-258 0,-252 0,-252 0,-240 0,-240 0,-234 6,-228 12,-228 12,-228 210,-228 210,-228 216,-228 222,-234 222,-240 222,-240 222,-252 222,-252 222,-258 216,-264 210,-264"/>
<text text-anchor="middle" x="111" y="-243.2" font-family="Helvetica,sans-Serif" font-size="11.00">BugreportManagerServiceImpl.mLock</text>
</g>
<!-- m::com.android.server.os.BugreportManagerServiceImpl$DumpstateListener.binderDied:()V&#45;&gt;com.android.server.os.BugreportManagerServiceImpl.mLock -->
<g id="edge1" class="edge">
<title>m::com.android.server.os.BugreportManagerServiceImpl$DumpstateListener.binderDied:()V&#45;&gt;com.android.server.os.BugreportManagerServiceImpl.mLock</title>
<path fill="none" stroke="#dc2626" stroke-width="1.6" d="M350.94,-309.94C301.95,-297.09 234.78,-279.47 183.97,-266.14"/>
<polygon fill="#dc2626" stroke="#dc2626" stroke-width="1.6" points="184.4,-263.36 175.96,-264.04 182.98,-268.78 184.4,-263.36"/>
<text text-anchor="middle" x="303" y="-284.8" font-family="Helvetica,sans-Serif" font-size="9.00" fill="#dc2626"> acquires</text>
</g>
<!-- m::com.android.server.os.BugreportManagerServiceImpl$DumpstateListener.onError:(I)V -->
<g id="node3" class="node">
<title>m::com.android.server.os.BugreportManagerServiceImpl$DumpstateListener.onError:(I)V</title>
<path fill="#eef2ff" stroke="#a5b4fc" d="M573,-264C573,-264 259,-264 259,-264 253,-264 247,-258 247,-252 247,-252 247,-240 247,-240 247,-234 253,-228 259,-228 259,-228 573,-228 573,-228 579,-228 585,-234 585,-240 585,-240 585,-252 585,-252 585,-258 579,-264 573,-264"/>
<text text-anchor="middle" x="416" y="-243.2" font-family="Helvetica,sans-Serif" font-size="11.00">BugreportManagerServiceImpl$DumpstateListener.onError</text>
</g>
<!-- m::com.android.server.os.BugreportManagerServiceImpl$DumpstateListener.binderDied:()V&#45;&gt;m::com.android.server.os.BugreportManagerServiceImpl$DumpstateListener.onError:(I)V -->
<g id="edge2" class="edge">
<title>m::com.android.server.os.BugreportManagerServiceImpl$DumpstateListener.binderDied:()V&#45;&gt;m::com.android.server.os.BugreportManagerServiceImpl$DumpstateListener.onError:(I)V</title>
<path fill="none" stroke="#64748b" d="M416,-309.64C416,-298.66 416,-284.29 416,-272.09"/>
<polygon fill="#64748b" stroke="#64748b" points="418.8,-272.05 416,-264.05 413.2,-272.05 418.8,-272.05"/>
</g>
<!-- __ipc__ -->
<g id="node7" class="node">
<title>__ipc__</title>
<path fill="#fde68a" stroke="#d97706" stroke-width="2" d="M710,-264C710,-264 622,-264 622,-264 616,-264 610,-258 610,-252 610,-252 610,-240 610,-240 610,-234 616,-228 622,-228 622,-228 710,-228 710,-228 716,-228 722,-234 722,-240 722,-240 722,-252 722,-252 722,-258 716,-264 710,-264"/>
<text text-anchor="middle" x="666" y="-249.2" font-family="Helvetica,sans-Serif" font-size="11.00">Binder IPC</text>
<text text-anchor="middle" x="666" y="-237.2" font-family="Helvetica,sans-Serif" font-size="11.00">(remote process)</text>
</g>
<!-- m::com.android.server.os.BugreportManagerServiceImpl$DumpstateListener.binderDied:()V&#45;&gt;__ipc__ -->
<g id="edge6" class="edge">
<title>m::com.android.server.os.BugreportManagerServiceImpl$DumpstateListener.binderDied:()V&#45;&gt;__ipc__</title>
<path fill="none" stroke="#d97706" stroke-width="1.6" stroke-dasharray="5,2" d="M469.32,-309.94C509.07,-297.22 563.41,-279.83 604.9,-266.55"/>
<polygon fill="#d97706" stroke="#d97706" stroke-width="1.6" points="605.99,-269.14 612.76,-264.04 604.28,-263.81 605.99,-269.14"/>
<text text-anchor="middle" x="610.5" y="-284.8" font-family="Helvetica,sans-Serif" font-size="9.00" fill="#b45309"> transacts while holding</text>
</g>
<!-- m::com.android.server.utils.Slogf.e:(Ljava/lang/String;Ljava/lang/String;[Ljava/lang/Object;)V -->
<g id="node4" class="node">
<title>m::com.android.server.utils.Slogf.e:(Ljava/lang/String;Ljava/lang/String;[Ljava/lang/Object;)V</title>
<path fill="#eef2ff" stroke="#a5b4fc" d="M431,-191C431,-191 401,-191 401,-191 395,-191 389,-185 389,-179 389,-179 389,-167 389,-167 389,-161 395,-155 401,-155 401,-155 431,-155 431,-155 437,-155 443,-161 443,-167 443,-167 443,-179 443,-179 443,-185 437,-191 431,-191"/>
<text text-anchor="middle" x="416" y="-170.2" font-family="Helvetica,sans-Serif" font-size="11.00">Slogf.e</text>
</g>
<!-- m::com.android.server.os.BugreportManagerServiceImpl$DumpstateListener.onError:(I)V&#45;&gt;m::com.android.server.utils.Slogf.e:(Ljava/lang/String;Ljava/lang/String;[Ljava/lang/Object;)V -->
<g id="edge3" class="edge">
<title>m::com.android.server.os.BugreportManagerServiceImpl$DumpstateListener.onError:(I)V&#45;&gt;m::com.android.server.utils.Slogf.e:(Ljava/lang/String;Ljava/lang/String;[Ljava/lang/Object;)V</title>
<path fill="none" stroke="#64748b" d="M416,-227.81C416,-219.18 416,-208.56 416,-199.03"/>
<polygon fill="#64748b" stroke="#64748b" points="418.8,-199.03 416,-191.03 413.2,-199.03 418.8,-199.03"/>
</g>
<!-- m::com.android.server.utils.Slogf.getMessage:(Ljava/lang/String;[Ljava/lang/Object;)Ljava/lang/String; -->
<g id="node5" class="node">
<title>m::com.android.server.utils.Slogf.getMessage:(Ljava/lang/String;[Ljava/lang/Object;)Ljava/lang/String;</title>
<path fill="#eef2ff" stroke="#a5b4fc" d="M460.5,-118C460.5,-118 371.5,-118 371.5,-118 365.5,-118 359.5,-112 359.5,-106 359.5,-106 359.5,-94 359.5,-94 359.5,-88 365.5,-82 371.5,-82 371.5,-82 460.5,-82 460.5,-82 466.5,-82 472.5,-88 472.5,-94 472.5,-94 472.5,-106 472.5,-106 472.5,-112 466.5,-118 460.5,-118"/>
<text text-anchor="middle" x="416" y="-97.2" font-family="Helvetica,sans-Serif" font-size="11.00">Slogf.getMessage</text>
</g>
<!-- m::com.android.server.utils.Slogf.e:(Ljava/lang/String;Ljava/lang/String;[Ljava/lang/Object;)V&#45;&gt;m::com.android.server.utils.Slogf.getMessage:(Ljava/lang/String;[Ljava/lang/Object;)Ljava/lang/String; -->
<g id="edge4" class="edge">
<title>m::com.android.server.utils.Slogf.e:(Ljava/lang/String;Ljava/lang/String;[Ljava/lang/Object;)V&#45;&gt;m::com.android.server.utils.Slogf.getMessage:(Ljava/lang/String;[Ljava/lang/Object;)Ljava/lang/String;</title>
<path fill="none" stroke="#64748b" d="M416,-154.81C416,-146.18 416,-135.56 416,-126.03"/>
<polygon fill="#64748b" stroke="#64748b" points="418.8,-126.03 416,-118.03 413.2,-126.03 418.8,-126.03"/>
</g>
<!-- com.android.server.utils.Slogf.sMessageBuilder -->
<g id="node6" class="node">
<title>com.android.server.utils.Slogf.sMessageBuilder</title>
<path fill="#fee2e2" stroke="#dc2626" stroke-width="2" d="M474,-36C474,-36 358,-36 358,-36 352,-36 346,-30 346,-24 346,-24 346,-12 346,-12 346,-6 352,0 358,0 358,0 474,0 474,0 480,0 486,-6 486,-12 486,-12 486,-24 486,-24 486,-30 480,-36 474,-36"/>
<text text-anchor="middle" x="416" y="-15.2" font-family="Helvetica,sans-Serif" font-size="11.00">Slogf.sMessageBuilder</text>
</g>
<!-- m::com.android.server.utils.Slogf.getMessage:(Ljava/lang/String;[Ljava/lang/Object;)Ljava/lang/String;&#45;&gt;com.android.server.utils.Slogf.sMessageBuilder -->
<g id="edge5" class="edge">
<title>m::com.android.server.utils.Slogf.getMessage:(Ljava/lang/String;[Ljava/lang/Object;)Ljava/lang/String;&#45;&gt;com.android.server.utils.Slogf.sMessageBuilder</title>
<path fill="none" stroke="#dc2626" stroke-width="1.6" d="M416,-81.64C416,-70.66 416,-56.29 416,-44.09"/>
<polygon fill="#dc2626" stroke="#dc2626" stroke-width="1.6" points="418.8,-44.05 416,-36.05 413.2,-44.05 418.8,-44.05"/>
<text text-anchor="middle" x="437" y="-56.8" font-family="Helvetica,sans-Serif" font-size="9.00" fill="#dc2626"> acquires</text>
</g>
</g>
</svg>
