<?xml version="1.0" encoding="UTF-8" standalone="no"?>
<!DOCTYPE svg PUBLIC "-//W3C//DTD SVG 1.1//EN"
 "http://www.w3.org/Graphics/SVG/1.1/DTD/svg11.dtd">
<!-- Generated by graphviz version 2.43.0 (0)
 -->
<!-- Title: binder Pages: 1 -->
<svg width="452pt" height="281pt"
 viewBox="0.00 0.00 452.00 281.00" xmlns="http://www.w3.org/2000/svg" xmlns:xlink="http://www.w3.org/1999/xlink">
<g id="graph0" class="graph" transform="scale(1 1) rotate(0) translate(4 277)">
<title>binder</title>
<polygon fill="white" stroke="transparent" points="-4,4 -4,-277 448,-277 448,4 -4,4"/>
<!-- m::com.android.server.os.BugreportManagerServiceImpl.cancelBugreport:(ILjava/lang/String;)V -->
<g id="node1" class="node">
<title>m::com.android.server.os.BugreportManagerServiceImpl.cancelBugreport:(ILjava/lang/String;)V</title>
<path fill="#eef2ff" stroke="#a5b4fc" stroke-width="2" d="M400.5,-273C400.5,-273 147.5,-273 147.5,-273 141.5,-273 135.5,-267 135.5,-261 135.5,-261 135.5,-249 135.5,-249 135.5,-243 141.5,-237 147.5,-237 147.5,-237 400.5,-237 400.5,-237 406.5,-237 412.5,-243 412.5,-249 412.5,-249 412.5,-261 412.5,-261 412.5,-267 406.5,-273 400.5,-273"/>
<text text-anchor="middle" x="274" y="-252.2" font-family="Helvetica,sans-Serif" font-size="11.00">BugreportManagerServiceImpl.cancelBugreport</text>
</g>
<!-- com.android.server.os.BugreportManagerServiceImpl.mLock -->
<g id="node2" class="node">
<title>com.android.server.os.BugreportManagerServiceImpl.mLock</title>
<path fill="#fee2e2" stroke="#dc2626" stroke-width="2" d="M210,-191C210,-191 12,-191 12,-191 6,-191 0,-185 0,-179 0,-179 0,-167 0,-167 0,-161 6,-155 12,-155 12,-155 210,-155 210,-155 216,-155 222,-161 222,-167 222,-167 222,-179 222,-179 222,-185 216,-191 210,-191"/>
<text text-anchor="middle" x="111" y="-170.2" font-family="Helvetica,sans-Serif" font-size="11.00">BugreportManagerServiceImpl.mLock</text>
</g>
<!-- m::com.android.server.os.BugreportManagerServiceImpl.cancelBugreport:(ILjava/lang/String;)V&#45;&gt;com.android.server.os.BugreportManagerServiceImpl.mLock -->
<g id="edge1" class="edge">
<title>m::com.android.server.os.BugreportManagerServiceImpl.cancelBugreport:(ILjava/lang/String;)V&#45;&gt;com.android.server.os.BugreportManagerServiceImpl.mLock</title>
<path fill="none" stroke="#dc2626" stroke-width="1.6" d="M239.03,-236.84C213.89,-224.5 179.87,-207.8 153.22,-194.72"/>
<polygon fill="#dc2626" stroke="#dc2626" stroke-width="1.6" points="154.33,-192.14 145.91,-191.13 151.86,-197.17 154.33,-192.14"/>
<text text-anchor="middle" x="224" y="-211.8" font-family="Helvetica,sans-Serif" font-size="9.00" fill="#dc2626"> acquires</text>
</g>
<!-- m::com.android.server.utils.Slogf.i:(Ljava/lang/String;Ljava/lang/String;[Ljava/lang/Object;)V -->
<g id="node3" class="node">
<title>m::com.android.server.utils.Slogf.i:(Ljava/lang/String;Ljava/lang/String;[Ljava/lang/Object;)V</title>
<path fill="#eef2ff" stroke="#a5b4fc" d="M289,-191C289,-191 259,-191 259,-191 253,-191 247,-185 247,-179 247,-179 247,-167 247,-167 247,-161 253,-155 259,-155 259,-155 289,-155 289,-155 295,-155 301,-161 301,-167 301,-167 301,-179 301,-179 301,-185 295,-191 289,-191"/>
<text text-anchor="middle" x="274" y="-170.2" font-family="Helvetica,sans-Serif" font-size="11.00">Slogf.i</text>
</g>
<!-- m::com.android.server.os.BugreportManagerServiceImpl.cancelBugreport:(ILjava/lang/String;)V&#45;&gt;m::com.android.server.utils.Slogf.i:(Ljava/lang/String;Ljava/lang/String;[Ljava/lang/Object;)V -->
<g id="edge2" class="edge">
<title>m::com.android.server.os.BugreportManagerServiceImpl.cancelBugreport:(ILjava/lang/String;)V&#45;&gt;m::com.android.server.utils.Slogf.i:(Ljava/lang/String;Ljava/lang/String;[Ljava/lang/Object;)V</title>
<path fill="none" stroke="#64748b" d="M274,-236.64C274,-225.66 274,-211.29 274,-199.09"/>
<polygon fill="#64748b" stroke="#64748b" points="276.8,-199.05 274,-191.05 271.2,-199.05 276.8,-199.05"/>
</g>
<!-- __ipc__ -->
<g id="node6" class="node">
<title>__ipc__</title>
<path fill="#fde68a" stroke="#d97706" stroke-width="2" d="M426,-191C426,-191 338,-191 338,-191 332,-191 326,-185 326,-179 326,-179 326,-167 326,-167 326,-161 332,-155 338,-155 338,-155 426,-155 426,-155 432,-155 438,-161 438,-167 438,-167 438,-179 438,-179 438,-185 432,-191 426,-191"/>
<text text-anchor="middle" x="382" y="-176.2" font-family="Helvetica,sans-Serif" font-size="11.00">Binder IPC</text>
<text text-anchor="middle" x="382" y="-164.2" font-family="Helvetica,sans-Serif" font-size="11.00">(remote process)</text>
</g>
<!-- m::com.android.server.os.BugreportManagerServiceImpl.cancelBugreport:(ILjava/lang/String;)V&#45;&gt;__ipc__ -->
<g id="edge5" class="edge">
<title>m::com.android.server.os.BugreportManagerServiceImpl.cancelBugreport:(ILjava/lang/String;)V&#45;&gt;__ipc__</title>
<path fill="none" stroke="#d97706" stroke-width="1.6" stroke-dasharray="5,2" d="M297.17,-236.84C313.26,-224.92 334.83,-208.94 352.2,-196.07"/>
<polygon fill="#d97706" stroke="#d97706" stroke-width="1.6" points="354.11,-198.15 358.87,-191.13 350.77,-193.65 354.11,-198.15"/>
<text text-anchor="middle" x="389.5" y="-211.8" font-family="Helvetica,sans-Serif" font-size="9.00" fill="#b45309"> transacts while holding</text>
</g>
<!-- m::com.android.server.utils.Slogf.getMessage:(Ljava/lang/String;[Ljava/lang/Object;)Ljava/lang/String; -->
<g id="node4" class="node">
<title>m::com.android.server.utils.Slogf.getMessage:(Ljava/lang/String;[Ljava/lang/Object;)Ljava/lang/String;</title>
<path fill="#eef2ff" stroke="#a5b4fc" d="M318.5,-118C318.5,-118 229.5,-118 229.5,-118 223.5,-118 217.5,-112 217.5,-106 217.5,-106 217.5,-94 217.5,-94 217.5,-88 223.5,-82 229.5,-82 229.5,-82 318.5,-82 318.5,-82 324.5,-82 330.5,-88 330.5,-94 330.5,-94 330.5,-106 330.5,-106 330.5,-112 324.5,-118 318.5,-118"/>
<text text-anchor="middle" x="274" y="-97.2" font-family="Helvetica,sans-Serif" font-size="11.00">Slogf.getMessage</text>
</g>
<!-- m::com.android.server.utils.Slogf.i:(Ljava/lang/String;Ljava/lang/String;[Ljava/lang/Object;)V&#45;&gt;m::com.android.server.utils.Slogf.getMessage:(Ljava/lang/String;[Ljava/lang/Object;)Ljava/lang/String; -->
<g id="edge3" class="edge">
<title>m::com.android.server.utils.Slogf.i:(Ljava/lang/String;Ljava/lang/String;[Ljava/lang/Object;)V&#45;&gt;m::com.android.server.utils.Slogf.getMessage:(Ljava/lang/String;[Ljava/lang/Object;)Ljava/lang/String;</title>
<path fill="none" stroke="#64748b" d="M274,-154.81C274,-146.18 274,-135.56 274,-126.03"/>
<polygon fill="#64748b" stroke="#64748b" points="276.8,-126.03 274,-118.03 271.2,-126.03 276.8,-126.03"/>
</g>
<!-- com.android.server.utils.Slogf.sMessageBuilder -->
<g id="node5" class="node">
<title>com.android.server.utils.Slogf.sMessageBuilder</title>
<path fill="#fee2e2" stroke="#dc2626" stroke-width="2" d="M332,-36C332,-36 216,-36 216,-36 210,-36 204,-30 204,-24 204,-24 204,-12 204,-12 204,-6 210,0 216,0 216,0 332,0 332,0 338,0 344,-6 344,-12 344,-12 344,-24 344,-24 344,-30 338,-36 332,-36"/>
<text text-anchor="middle" x="274" y="-15.2" font-family="Helvetica,sans-Serif" font-size="11.00">Slogf.sMessageBuilder</text>
</g>
<!-- m::com.android.server.utils.Slogf.getMessage:(Ljava/lang/String;[Ljava/lang/Object;)Ljava/lang/String;&#45;&gt;com.android.server.utils.Slogf.sMessageBuilder -->
<g id="edge4" class="edge">
<title>m::com.android.server.utils.Slogf.getMessage:(Ljava/lang/String;[Ljava/lang/Object;)Ljava/lang/String;&#45;&gt;com.android.server.utils.Slogf.sMessageBuilder</title>
<path fill="none" stroke="#dc2626" stroke-width="1.6" d="M274,-81.64C274,-70.66 274,-56.29 274,-44.09"/>
<polygon fill="#dc2626" stroke="#dc2626" stroke-width="1.6" points="276.8,-44.05 274,-36.05 271.2,-44.05 276.8,-44.05"/>
<text text-anchor="middle" x="295" y="-56.8" font-family="Helvetica,sans-Serif" font-size="9.00" fill="#dc2626"> acquires</text>
</g>
</g>
</svg>
