<?xml version="1.0" encoding="UTF-8" standalone="no"?>
<!DOCTYPE svg PUBLIC "-//W3C//DTD SVG 1.1//EN"
 "http://www.w3.org/Graphics/SVG/1.1/DTD/svg11.dtd">
<!-- Generated by graphviz version 2.43.0 (0)
 -->
<!-- Title: binder Pages: 1 -->
<svg width="377pt" height="126pt"
 viewBox="0.00 0.00 377.00 126.00" xmlns="http://www.w3.org/2000/svg" xmlns:xlink="http://www.w3.org/1999/xlink">
<g id="graph0" class="graph" transform="scale(1 1) rotate(0) translate(4 122)">
<title>binder</title>
<polygon fill="white" stroke="transparent" points="-4,4 -4,-122 373,-122 373,4 -4,4"/>
<!-- m::com.android.server.os.BugreportManagerServiceImpl.preDumpUiData:(Ljava/lang/String;)V -->
<g id="node1" class="node">
<title>m::com.android.server.os.BugreportManagerServiceImpl.preDumpUiData:(Ljava/lang/String;)V</title>
<path fill="#eef2ff" stroke="#a5b4fc" stroke-width="2" d="M332.5,-118C332.5,-118 81.5,-118 81.5,-118 75.5,-118 69.5,-112 69.5,-106 69.5,-106 69.5,-94 69.5,-94 69.5,-88 75.5,-82 81.5,-82 81.5,-82 332.5,-82 332.5,-82 338.5,-82 344.5,-88 344.5,-94 344.5,-94 344.5,-106 344.5,-106 344.5,-112 338.5,-118 332.5,-118"/>
<text text-anchor="middle" x="207" y="-97.2" font-family="Helvetica,sans-Serif" font-size="11.00">BugreportManagerServiceImpl.preDumpUiData</text>
</g>
<!-- com.android.server.os.BugreportManagerServiceImpl.mLock -->
<g id="node2" class="node">
<title>com.android.server.os.BugreportManagerServiceImpl.mLock</title>
<path fill="#fee2e2" stroke="#dc2626" stroke-width="2" d="M210,-36C210,-36 12,-36 12,-36 6,-36 0,-30 0,-24 0,-24 0,-12 0,-12 0,-6 6,0 12,0 12,0 210,0 210,0 216,0 222,-6 222,-12 222,-12 222,-24 222,-24 222,-30 216,-36 210,-36"/>
<text text-anchor="middle" x="111" y="-15.2" font-family="Helvetica,sans-Serif" font-size="11.00">BugreportManagerServiceImpl.mLock</text>
</g>
<!-- m::com.android.server.os.BugreportManagerServiceImpl.preDumpUiData:(Ljava/lang/String;)V&#45;&gt;com.android.server.os.BugreportManagerServiceImpl.mLock -->
<g id="edge1" class="edge">
<title>m::com.android.server.os.BugreportManagerServiceImpl.preDumpUiData:(Ljava/lang/String;)V&#45;&gt;com.android.server.os.BugreportManagerServiceImpl.mLock</title>
<path fill="none" stroke="#dc2626" stroke-width="1.6" d="M186.17,-81.64C171.98,-69.82 153.08,-54.06 137.77,-41.31"/>
<polygon fill="#dc2626" stroke="#dc2626" stroke-width="1.6" points="139.4,-39.02 131.46,-36.05 135.81,-43.32 139.4,-39.02"/>
<text text-anchor="middle" x="186" y="-56.8" font-family="Helvetica,sans-Serif" font-size="9.00" fill="#dc2626"> acquires</text>
</g>
<!-- __ipc__ -->
<g id="node3" class="node">
<title>__ipc__</title>
<path fill="#fde68a" stroke="#d97706" stroke-width="2" d="M347,-36C347,-36 259,-36 259,-36 253,-36 247,-30 247,-24 247,-24 247,-12 247,-12 247,-6 253,0 259,0 259,0 347,0 347,0 353,0 359,-6 359,-12 359,-12 359,-24 359,-24 359,-30 353,-36 347,-36"/>
<text text-anchor="middle" x="303" y="-21.2" font-family="Helvetica,sans-Serif" font-size="11.00">Binder IPC</text>
<text text-anchor="middle" x="303" y="-9.2" font-family="Helvetica,sans-Serif" font-size="11.00">(remote process)</text>
</g>
<!-- m::com.android.server.os.BugreportManagerServiceImpl.preDumpUiData:(Ljava/lang/String;)V&#45;&gt;__ipc__ -->
<g id="edge2" class="edge">
<title>m::com.android.server.os.BugreportManagerServiceImpl.preDumpUiData:(Ljava/lang/String;)V&#45;&gt;__ipc__</title>
<path fill="none" stroke="#d97706" stroke-width="1.6" stroke-dasharray="5,2" d="M227.83,-81.64C242.02,-69.82 260.92,-54.06 276.23,-41.31"/>
<polygon fill="#d97706" stroke="#d97706" stroke-width="1.6" points="278.19,-43.32 282.54,-36.05 274.6,-39.02 278.19,-43.32"/>
<text text-anchor="middle" x="314.5" y="-56.8" font-family="Helvetica,sans-Serif" font-size="9.00" fill="#b45309"> transacts while holding</text>
</g>
</g>
</svg>
