<?xml version="1.0" encoding="UTF-8" standalone="no"?>
<!DOCTYPE svg PUBLIC "-//W3C//DTD SVG 1.1//EN"
 "http://www.w3.org/Graphics/SVG/1.1/DTD/svg11.dtd">
<!-- Generated by graphviz version 2.43.0 (0)
 -->
<!-- Title: binder Pages: 1 -->
<svg width="1450pt" height="445pt"
 viewBox="0.00 0.00 1449.50 445.00" xmlns="http://www.w3.org/2000/svg" xmlns:xlink="http://www.w3.org/1999/xlink">
<g id="graph0" class="graph" transform="scale(1 1) rotate(0) translate(4 441)">
<title>binder</title>
<polygon fill="white" stroke="transparent" points="-4,4 -4,-441 1445.5,-441 1445.5,4 -4,4"/>
<!-- m::com.android.server.os.BugreportManagerServiceImpl.retrieveBugreport:(ILjava/lang/String;ILjava/io/FileDescriptor;Ljava/lang/String;ZZLandroid/os/IDumpstateListener;)V -->
<g id="node1" class="node">
<title>m::com.android.server.os.BugreportManagerServiceImpl.retrieveBugreport:(ILjava/lang/String;ILjava/io/FileDescriptor;Ljava/lang/String;ZZLandroid/os/IDumpstateListener;)V</title>
<path fill="#eef2ff" stroke="#a5b4fc" stroke-width="2" d="M945,-437C945,-437 684,-437 684,-437 678,-437 672,-431 672,-425 672,-425 672,-413 672,-413 672,-407 678,-401 684,-401 684,-401 945,-401 945,-401 951,-401 957,-407 957,-413 957,-413 957,-425 957,-425 957,-431 951,-437 945,-437"/>
<text text-anchor="middle" x="814.5" y="-416.2" font-family="Helvetica,sans-Serif" font-size="11.00">BugreportManagerServiceImpl.retrieveBugreport</text>
</g>
<!-- m::com.android.server.os.BugreportManagerServiceImpl$BugreportFileManager.ensureCallerPreviouslyGeneratedFile:(Landroid/content/Context;Landroid/content/pm/PackageManager;Landroid/util/Pair;ILjava/lang/String;Z)V -->
<g id="node2" class="node">
<title>m::com.android.server.os.BugreportManagerServiceImpl$BugreportFileManager.ensureCallerPreviouslyGeneratedFile:(Landroid/content/Context;Landroid/content/pm/PackageManager;Landroid/util/Pair;ILjava/lang/String;Z)V</title>
<path fill="#eef2ff" stroke="#a5b4fc" d="M503,-355C503,-355 12,-355 12,-355 6,-355 0,-349 0,-343 0,-343 0,-331 0,-331 0,-325 6,-319 12,-319 12,-319 503,-319 503,-319 509,-319 515,-325 515,-331 515,-331 515,-343 515,-343 515,-349 509,-355 503,-355"/>
<text text-anchor="middle" x="257.5" y="-334.2" font-family="Helvetica,sans-Serif" font-size="11.00">BugreportManagerServiceImpl$BugreportFileManager.ensureCallerPreviouslyGeneratedFile</text>
</g>
<!-- m::com.android.server.os.BugreportManagerServiceImpl.retrieveBugreport:(ILjava/lang/String;ILjava/io/FileDescriptor;Ljava/lang/String;ZZLandroid/os/IDumpstateListener;)V&#45;&gt;m::com.android.server.os.BugreportManagerServiceImpl$BugreportFileManager.ensureCallerPreviouslyGeneratedFile:(Landroid/content/Context;Landroid/content/pm/PackageManager;Landroid/util/Pair;ILjava/lang/String;Z)V -->
<g id="edge1" class="edge">
<title>m::com.android.server.os.BugreportManagerServiceImpl.retrieveBugreport:(ILjava/lang/String;ILjava/io/FileDescriptor;Ljava/lang/String;ZZLandroid/os/IDumpstateListener;)V&#45;&gt;m::com.android.server.os.BugreportManagerServiceImpl$BugreportFileManager.ensureCallerPreviouslyGeneratedFile:(Landroid/content/Context;Landroid/content/pm/PackageManager;Landroid/util/Pair;ILjava/lang/String;Z)V</title>
<path fill="none" stroke="#64748b" d="M696.03,-400.99C604.47,-387.83 477.98,-369.67 384.37,-356.22"/>
<polygon fill="#64748b" stroke="#64748b" points="384.59,-353.42 376.27,-355.06 383.79,-358.97 384.59,-353.42"/>
</g>
<!-- com.android.server.os.BugreportManagerServiceImpl.mLock -->
<g id="node4" class="node">
<title>com.android.server.os.BugreportManagerServiceImpl.mLock</title>
<path fill="#fee2e2" stroke="#dc2626" stroke-width="2" d="M750.5,-355C750.5,-355 552.5,-355 552.5,-355 546.5,-355 540.5,-349 540.5,-343 540.5,-343 540.5,-331 540.5,-331 540.5,-325 546.5,-319 552.5,-319 552.5,-319 750.5,-319 750.5,-319 756.5,-319 762.5,-325 762.5,-331 762.5,-331 762.5,-343 762.5,-343 762.5,-349 756.5,-355 750.5,-355"/>
<text text-anchor="middle" x="651.5" y="-334.2" font-family="Helvetica,sans-Serif" font-size="11.00">BugreportManagerServiceImpl.mLock</text>
</g>
<!-- m::com.android.server.os.BugreportManagerServiceImpl.retrieveBugreport:(ILjava/lang/String;ILjava/io/FileDescriptor;Ljava/lang/String;ZZLandroid/os/IDumpstateListener;)V&#45;&gt;com.android.server.os.BugreportManagerServiceImpl.mLock -->
<g id="edge3" class="edge">
<title>m::com.android.server.os.BugreportManagerServiceImpl.retrieveBugreport:(ILjava/lang/String;ILjava/io/FileDescriptor;Ljava/lang/String;ZZLandroid/os/IDumpstateListener;)V&#45;&gt;com.android.server.os.BugreportManagerServiceImpl.mLock</title>
<path fill="none" stroke="#dc2626" stroke-width="1.6" d="M779.53,-400.84C754.39,-388.5 720.37,-371.8 693.72,-358.72"/>
<polygon fill="#dc2626" stroke="#dc2626" stroke-width="1.6" points="694.83,-356.14 686.41,-355.13 692.36,-361.17 694.83,-356.14"/>
<text text-anchor="middle" x="764.5" y="-375.8" font-family="Helvetica,sans-Serif" font-size="9.00" fill="#dc2626"> acquires</text>
</g>
<!-- m::com.android.server.utils.Slogf.i:(Ljava/lang/String;Ljava/lang/String;[Ljava/lang/Object;)V -->
<g id="node5" class="node">
<title>m::com.android.server.utils.Slogf.i:(Ljava/lang/String;Ljava/lang/String;[Ljava/lang/Object;)V</title>
<path fill="#eef2ff" stroke="#a5b4fc" d="M829.5,-355C829.5,-355 799.5,-355 799.5,-355 793.5,-355 787.5,-349 787.5,-343 787.5,-343 787.5,-331 787.5,-331 787.5,-325 793.5,-319 799.5,-319 799.5,-319 829.5,-319 829.5,-319 835.5,-319 841.5,-325 841.5,-331 841.5,-331 841.5,-343 841.5,-343 841.5,-349 835.5,-355 829.5,-355"/>
<text text-anchor="middle" x="814.5" y="-334.2" font-family="Helvetica,sans-Serif" font-size="11.00">Slogf.i</text>
</g>
<!-- m::com.android.server.os.BugreportManagerServiceImpl.retrieveBugreport:(ILjava/lang/String;ILjava/io/FileDescriptor;Ljava/lang/String;ZZLandroid/os/IDumpstateListener;)V&#45;&gt;m::com.android.server.utils.Slogf.i:(Ljava/lang/String;Ljava/lang/String;[Ljava/lang/Object;)V -->
<g id="edge4" class="edge">
<title>m::com.android.server.os.BugreportManagerServiceImpl.retrieveBugreport:(ILjava/lang/String;ILjava/io/FileDescriptor;Ljava/lang/String;ZZLandroid/os/IDumpstateListener;)V&#45;&gt;m::com.android.server.utils.Slogf.i:(Ljava/lang/String;Ljava/lang/String;[Ljava/lang/Object;)V</title>
<path fill="none" stroke="#64748b" d="M814.5,-400.64C814.5,-389.66 814.5,-375.29 814.5,-363.09"/>
<polygon fill="#64748b" stroke="#64748b" points="817.3,-363.05 814.5,-355.05 811.7,-363.05 817.3,-363.05"/>
</g>
<!-- m::com.android.server.os.BugreportManagerServiceImpl$BugreportFileManager.canSkipConsentScreen:(Ljava/lang/String;Z)Z -->
<g id="node8" class="node">
<title>m::com.android.server.os.BugreportManagerServiceImpl$BugreportFileManager.canSkipConsentScreen:(Ljava/lang/String;Z)Z</title>
<path fill="#eef2ff" stroke="#a5b4fc" d="M1292.5,-355C1292.5,-355 878.5,-355 878.5,-355 872.5,-355 866.5,-349 866.5,-343 866.5,-343 866.5,-331 866.5,-331 866.5,-325 872.5,-319 878.5,-319 878.5,-319 1292.5,-319 1292.5,-319 1298.5,-319 1304.5,-325 1304.5,-331 1304.5,-331 1304.5,-343 1304.5,-343 1304.5,-349 1298.5,-355 1292.5,-355"/>
<text text-anchor="middle" x="1085.5" y="-334.2" font-family="Helvetica,sans-Serif" font-size="11.00">BugreportManagerServiceImpl$BugreportFileManager.canSkipConsentScreen</text>
</g>
<!-- m::com.android.server.os.BugreportManagerServiceImpl.retrieveBugreport:(ILjava/lang/String;ILjava/io/FileDescriptor;Ljava/lang/String;ZZLandroid/os/IDumpstateListener;)V&#45;&gt;m::com.android.server.os.BugreportManagerServiceImpl$BugreportFileManager.canSkipConsentScreen:(Ljava/lang/String;Z)Z -->
<g id="edge7" class="edge">
<title>m::com.android.server.os.BugreportManagerServiceImpl.retrieveBugreport:(ILjava/lang/String;ILjava/io/FileDescriptor;Ljava/lang/String;ZZLandroid/os/IDumpstateListener;)V&#45;&gt;m::com.android.server.os.BugreportManagerServiceImpl$BugreportFileManager.canSkipConsentScreen:(Ljava/lang/String;Z)Z</title>
<path fill="none" stroke="#64748b" d="M872.3,-400.94C915.65,-388.14 975.03,-370.61 1020.11,-357.3"/>
<polygon fill="#64748b" stroke="#64748b" points="1020.91,-359.99 1027.78,-355.04 1019.32,-354.62 1020.91,-359.99"/>
</g>
<!-- __ipc__ -->
<g id="node13" class="node">
<title>__ipc__</title>
<path fill="#fde68a" stroke="#d97706" stroke-width="2" d="M1429.5,-355C1429.5,-355 1341.5,-355 1341.5,-355 1335.5,-355 1329.5,-349 1329.5,-343 1329.5,-343 1329.5,-331 1329.5,-331 1329.5,-325 1335.5,-319 1341.5,-319 1341.5,-319 1429.5,-319 1429.5,-319 1435.5,-319 1441.5,-325 1441.5,-331 1441.5,-331 1441.5,-343 1441.5,-343 1441.5,-349 1435.5,-355 1429.5,-355"/>
<text text-anchor="middle" x="1385.5" y="-340.2" font-family="Helvetica,sans-Serif" font-size="11.00">Binder IPC</text>
<text text-anchor="middle" x="1385.5" y="-328.2" font-family="Helvetica,sans-Serif" font-size="11.00">(remote process)</text>
</g>
<!-- m::com.android.server.os.BugreportManagerServiceImpl.retrieveBugreport:(ILjava/lang/String;ILjava/io/FileDescriptor;Ljava/lang/String;ZZLandroid/os/IDumpstateListener;)V&#45;&gt;__ipc__ -->
<g id="edge12" class="edge">
<title>m::com.android.server.os.BugreportManagerServiceImpl.retrieveBugreport:(ILjava/lang/String;ILjava/io/FileDescriptor;Ljava/lang/String;ZZLandroid/os/IDumpstateListener;)V&#45;&gt;__ipc__</title>
<path fill="none" stroke="#d97706" stroke-width="1.6" stroke-dasharray="5,2" d="M957.18,-404.57C1058.03,-393.99 1196.13,-377.3 1316.5,-355 1318.05,-354.71 1319.61,-354.41 1321.19,-354.1"/>
<polygon fill="#d97706" stroke="#d97706" stroke-width="1.6" points="1321.87,-356.82 1329.13,-352.46 1320.73,-351.34 1321.87,-356.82"/>
<text text-anchor="middle" x="1262" y="-375.8" font-family="Helvetica,sans-Serif" font-size="9.00" fill="#b45309"> transacts while holding</text>
</g>
<!-- com.android.server.os.BugreportManagerServiceImpl$BugreportFileManager.mLock -->
<g id="node3" class="node">
<title>com.android.server.os.BugreportManagerServiceImpl$BugreportFileManager.mLock</title>
<path fill="#fee2e2" stroke="#dc2626" stroke-width="2" d="M420,-273C420,-273 95,-273 95,-273 89,-273 83,-267 83,-261 83,-261 83,-249 83,-249 83,-243 89,-237 95,-237 95,-237 420,-237 420,-237 426,-237 432,-243 432,-249 432,-249 432,-261 432,-261 432,-267 426,-273 420,-273"/>
<text text-anchor="middle" x="257.5" y="-252.2" font-family="Helvetica,sans-Serif" font-size="11.00">BugreportManagerServiceImpl$BugreportFileManager.mLock</text>
</g>
<!-- m::com.android.server.os.BugreportManagerServiceImpl$BugreportFileManager.ensureCallerPreviouslyGeneratedFile:(Landroid/content/Context;Landroid/content/pm/PackageManager;Landroid/util/Pair;ILjava/lang/String;Z)V&#45;&gt;com.android.server.os.BugreportManagerServiceImpl$BugreportFileManager.mLock -->
<g id="edge2" class="edge">
<title>m::com.android.server.os.BugreportManagerServiceImpl$BugreportFileManager.ensureCallerPreviouslyGeneratedFile:(Landroid/content/Context;Landroid/content/pm/PackageManager;Landroid/util/Pair;ILjava/lang/String;Z)V&#45;&gt;com.android.server.os.BugreportManagerServiceImpl$BugreportFileManager.mLock</title>
<path fill="none" stroke="#dc2626" stroke-width="1.6" d="M257.5,-318.64C257.5,-307.66 257.5,-293.29 257.5,-281.09"/>
<polygon fill="#dc2626" stroke="#dc2626" stroke-width="1.6" points="260.3,-281.05 257.5,-273.05 254.7,-281.05 260.3,-281.05"/>
<text text-anchor="middle" x="278.5" y="-293.8" font-family="Helvetica,sans-Serif" font-size="9.00" fill="#dc2626"> acquires</text>
</g>
<!-- m::com.android.server.utils.Slogf.getMessage:(Ljava/lang/String;[Ljava/lang/Object;)Ljava/lang/String; -->
<g id="node6" class="node">
<title>m::com.android.server.utils.Slogf.getMessage:(Ljava/lang/String;[Ljava/lang/Object;)Ljava/lang/String;</title>
<path fill="#eef2ff" stroke="#a5b4fc" d="M859,-273C859,-273 770,-273 770,-273 764,-273 758,-267 758,-261 758,-261 758,-249 758,-249 758,-243 764,-237 770,-237 770,-237 859,-237 859,-237 865,-237 871,-243 871,-249 871,-249 871,-261 871,-261 871,-267 865,-273 859,-273"/>
<text text-anchor="middle" x="814.5" y="-252.2" font-family="Helvetica,sans-Serif" font-size="11.00">Slogf.getMessage</text>
</g>
<!-- m::com.android.server.utils.Slogf.i:(Ljava/lang/String;Ljava/lang/String;[Ljava/lang/Object;)V&#45;&gt;m::com.android.server.utils.Slogf.getMessage:(Ljava/lang/String;[Ljava/lang/Object;)Ljava/lang/String; -->
<g id="edge5" class="edge">
<title>m::com.android.server.utils.Slogf.i:(Ljava/lang/String;Ljava/lang/String;[Ljava/lang/Object;)V&#45;&gt;m::com.android.server.utils.Slogf.getMessage:(Ljava/lang/String;[Ljava/lang/Object;)Ljava/lang/String;</title>
<path fill="none" stroke="#64748b" d="M814.5,-318.64C814.5,-307.66 814.5,-293.29 814.5,-281.09"/>
<polygon fill="#64748b" stroke="#64748b" points="817.3,-281.05 814.5,-273.05 811.7,-281.05 817.3,-281.05"/>
</g>
<!-- com.android.server.utils.Slogf.sMessageBuilder -->
<g id="node7" class="node">
<title>com.android.server.utils.Slogf.sMessageBuilder</title>
<path fill="#fee2e2" stroke="#dc2626" stroke-width="2" d="M872.5,-191C872.5,-191 756.5,-191 756.5,-191 750.5,-191 744.5,-185 744.5,-179 744.5,-179 744.5,-167 744.5,-167 744.5,-161 750.5,-155 756.5,-155 756.5,-155 872.5,-155 872.5,-155 878.5,-155 884.5,-161 884.5,-167 884.5,-167 884.5,-179 884.5,-179 884.5,-185 878.5,-191 872.5,-191"/>
<text text-anchor="middle" x="814.5" y="-170.2" font-family="Helvetica,sans-Serif" font-size="11.00">Slogf.sMessageBuilder</text>
</g>
<!-- m::com.android.server.utils.Slogf.getMessage:(Ljava/lang/String;[Ljava/lang/Object;)Ljava/lang/String;&#45;&gt;com.android.server.utils.Slogf.sMessageBuilder -->
<g id="edge6" class="edge">
<title>m::com.android.server.utils.Slogf.getMessage:(Ljava/lang/String;[Ljava/lang/Object;)Ljava/lang/String;&#45;&gt;com.android.server.utils.Slogf.sMessageBuilder</title>
<path fill="none" stroke="#dc2626" stroke-width="1.6" d="M814.5,-236.64C814.5,-225.66 814.5,-211.29 814.5,-199.09"/>
<polygon fill="#dc2626" stroke="#dc2626" stroke-width="1.6" points="817.3,-199.05 814.5,-191.05 811.7,-199.05 817.3,-199.05"/>
<text text-anchor="middle" x="835.5" y="-211.8" font-family="Helvetica,sans-Serif" font-size="9.00" fill="#dc2626"> acquires</text>
</g>
<!-- m::com.android.server.utils.WatchedArrayMap.remove:(Ljava/lang/Object;)Ljava/lang/Object; -->
<g id="node9" class="node">
<title>m::com.android.server.utils.WatchedArrayMap.remove:(Ljava/lang/Object;)Ljava/lang/Object;</title>
<path fill="#eef2ff" stroke="#a5b4fc" d="M1155.5,-273C1155.5,-273 1015.5,-273 1015.5,-273 1009.5,-273 1003.5,-267 1003.5,-261 1003.5,-261 1003.5,-249 1003.5,-249 1003.5,-243 1009.5,-237 1015.5,-237 1015.5,-237 1155.5,-237 1155.5,-237 1161.5,-237 1167.5,-243 1167.5,-249 1167.5,-249 1167.5,-261 1167.5,-261 1167.5,-267 1161.5,-273 1155.5,-273"/>
<text text-anchor="middle" x="1085.5" y="-252.2" font-family="Helvetica,sans-Serif" font-size="11.00">WatchedArrayMap.remove</text>
</g>
<!-- m::com.android.server.os.BugreportManagerServiceImpl$BugreportFileManager.canSkipConsentScreen:(Ljava/lang/String;Z)Z&#45;&gt;m::com.android.server.utils.WatchedArrayMap.remove:(Ljava/lang/Object;)Ljava/lang/Object; -->
<g id="edge8" class="edge">
<title>m::com.android.server.os.BugreportManagerServiceImpl$BugreportFileManager.canSkipConsentScreen:(Ljava/lang/String;Z)Z&#45;&gt;m::com.android.server.utils.WatchedArrayMap.remove:(Ljava/lang/Object;)Ljava/lang/Object;</title>
<path fill="none" stroke="#64748b" d="M1085.5,-318.64C1085.5,-307.66 1085.5,-293.29 1085.5,-281.09"/>
<polygon fill="#64748b" stroke="#64748b" points="1088.3,-281.05 1085.5,-273.05 1082.7,-281.05 1088.3,-281.05"/>
</g>
<!-- m::com.android.server.utils.WatchedArrayMap.onChanged:()V -->
<g id="node10" class="node">
<title>m::com.android.server.utils.WatchedArrayMap.onChanged:()V</title>
<path fill="#eef2ff" stroke="#a5b4fc" d="M1165,-191C1165,-191 1006,-191 1006,-191 1000,-191 994,-185 994,-179 994,-179 994,-167 994,-167 994,-161 1000,-155 1006,-155 1006,-155 1165,-155 1165,-155 1171,-155 1177,-161 1177,-167 1177,-167 1177,-179 1177,-179 1177,-185 1171,-191 1165,-191"/>
<text text-anchor="middle" x="1085.5" y="-170.2" font-family="Helvetica,sans-Serif" font-size="11.00">WatchedArrayMap.onChanged</text>
</g>
<!-- m::com.android.server.utils.WatchedArrayMap.remove:(Ljava/lang/Object;)Ljava/lang/Object;&#45;&gt;m::com.android.server.utils.WatchedArrayMap.onChanged:()V -->
<g id="edge9" class="edge">
<title>m::com.android.server.utils.WatchedArrayMap.remove:(Ljava/lang/Object;)Ljava/lang/Object;&#45;&gt;m::com.android.server.utils.WatchedArrayMap.onChanged:()V</title>
<path fill="none" stroke="#64748b" d="M1085.5,-236.64C1085.5,-225.66 1085.5,-211.29 1085.5,-199.09"/>
<polygon fill="#64748b" stroke="#64748b" points="1088.3,-199.05 1085.5,-191.05 1082.7,-199.05 1088.3,-199.05"/>
</g>
<!-- m::com.android.server.utils.WatchableImpl.dispatchChange:(Lcom/android/server/utils/Watchable;)V -->
<g id="node11" class="node">
<title>m::com.android.server.utils.WatchableImpl.dispatchChange:(Lcom/android/server/utils/Watchable;)V</title>
<path fill="#eef2ff" stroke="#a5b4fc" d="M1168,-118C1168,-118 1003,-118 1003,-118 997,-118 991,-112 991,-106 991,-106 991,-94 991,-94 991,-88 997,-82 1003,-82 1003,-82 1168,-82 1168,-82 1174,-82 1180,-88 1180,-94 1180,-94 1180,-106 1180,-106 1180,-112 1174,-118 1168,-118"/>
<text text-anchor="middle" x="1085.5" y="-97.2" font-family="Helvetica,sans-Serif" font-size="11.00">WatchableImpl.dispatchChange</text>
</g>
<!-- m::com.android.server.utils.WatchedArrayMap.onChanged:()V&#45;&gt;m::com.android.server.utils.WatchableImpl.dispatchChange:(Lcom/android/server/utils/Watchable;)V -->
<g id="edge10" class="edge">
<title>m::com.android.server.utils.WatchedArrayMap.onChanged:()V&#45;&gt;m::com.android.server.utils.WatchableImpl.dispatchChange:(Lcom/android/server/utils/Watchable;)V</title>
<path fill="none" stroke="#64748b" d="M1085.5,-154.81C1085.5,-146.18 1085.5,-135.56 1085.5,-126.03"/>
<polygon fill="#64748b" stroke="#64748b" points="1088.3,-126.03 1085.5,-118.03 1082.7,-126.03 1088.3,-126.03"/>
</g>
<!-- com.android.server.utils.WatchableImpl.mObservers -->
<g id="node12" class="node">
<title>com.android.server.utils.WatchableImpl.mObservers</title>
<path fill="#fee2e2" stroke="#dc2626" stroke-width="2" d="M1158,-36C1158,-36 1013,-36 1013,-36 1007,-36 1001,-30 1001,-24 1001,-24 1001,-12 1001,-12 1001,-6 1007,0 1013,0 1013,0 1158,0 1158,0 1164,0 1170,-6 1170,-12 1170,-12 1170,-24 1170,-24 1170,-30 1164,-36 1158,-36"/>
<text text-anchor="middle" x="1085.5" y="-15.2" font-family="Helvetica,sans-Serif" font-size="11.00">WatchableImpl.mObservers</text>
</g>
<!-- m::com.android.server.utils.WatchableImpl.dispatchChange:(Lcom/android/server/utils/Watchable;)V&#45;&gt;com.android.server.utils.WatchableImpl.mObservers -->
<g id="edge11" class="edge">
<title>m::com.android.server.utils.WatchableImpl.dispatchChange:(Lcom/android/server/utils/Watchable;)V&#45;&gt;com.android.server.utils.WatchableImpl.mObservers</title>
<path fill="none" stroke="#dc2626" stroke-width="1.6" d="M1085.5,-81.64C1085.5,-70.66 1085.5,-56.29 1085.5,-44.09"/>
<polygon fill="#dc2626" stroke="#dc2626" stroke-width="1.6" points="1088.3,-44.05 1085.5,-36.05 1082.7,-44.05 1088.3,-44.05"/>
<text text-anchor="middle" x="1106.5" y="-56.8" font-family="Helvetica,sans-Serif" font-size="9.00" fill="#dc2626"> acquires</text>
</g>
</g>
</svg>
