<?xml version="1.0" encoding="UTF-8" standalone="no"?>
<!DOCTYPE svg PUBLIC "-//W3C//DTD SVG 1.1//EN"
 "http://www.w3.org/Graphics/SVG/1.1/DTD/svg11.dtd">
<!-- Generated by graphviz version 2.43.0 (0)
 -->
<!-- Title: binder Pages: 1 -->
<svg width="888pt" height="509pt"
 viewBox="0.00 0.00 887.50 509.00" xmlns="http://www.w3.org/2000/svg" xmlns:xlink="http://www.w3.org/1999/xlink">
<g id="graph0" class="graph" transform="scale(1 1) rotate(0) translate(4 505)">
<title>binder</title>
<polygon fill="white" stroke="transparent" points="-4,4 -4,-505 883.5,-505 883.5,4 -4,4"/>
<!-- m::com.android.server.os.BugreportManagerServiceImpl.startBugreport:(ILjava/lang/String;Ljava/io/FileDescriptor;Ljava/io/FileDescriptor;IILandroid/os/IDumpstateListener;ZZ)V -->
<g id="node1" class="node">
<title>m::com.android.server.os.BugreportManagerServiceImpl.startBugreport:(ILjava/lang/String;Ljava/io/FileDescriptor;Ljava/io/FileDescriptor;IILandroid/os/IDumpstateListener;ZZ)V</title>
<path fill="#eef2ff" stroke="#a5b4fc" stroke-width="2" d="M674.5,-501C674.5,-501 430.5,-501 430.5,-501 424.5,-501 418.5,-495 418.5,-489 418.5,-489 418.5,-477 418.5,-477 418.5,-471 424.5,-465 430.5,-465 430.5,-465 674.5,-465 674.5,-465 680.5,-465 686.5,-471 686.5,-477 686.5,-477 686.5,-489 686.5,-489 686.5,-495 680.5,-501 674.5,-501"/>
<text text-anchor="middle" x="552.5" y="-480.2" font-family="Helvetica,sans-Serif" font-size="11.00">BugreportManagerServiceImpl.startBugreport</text>
</g>
<!-- m::com.android.server.os.BugreportManagerServiceImpl.startBugreportLocked:(ILjava/lang/String;Ljava/io/FileDescriptor;Ljava/io/FileDescriptor;IILandroid/os/IDumpstateListener;Z)V -->
<g id="node2" class="node">
<title>m::com.android.server.os.BugreportManagerServiceImpl.startBugreportLocked:(ILjava/lang/String;Ljava/io/FileDescriptor;Ljava/io/FileDescriptor;IILandroid/os/IDumpstateListener;Z)V</title>
<path fill="#eef2ff" stroke="#a5b4fc" d="M404.5,-419C404.5,-419 122.5,-419 122.5,-419 116.5,-419 110.5,-413 110.5,-407 110.5,-407 110.5,-395 110.5,-395 110.5,-389 116.5,-383 122.5,-383 122.5,-383 404.5,-383 404.5,-383 410.5,-383 416.5,-389 416.5,-395 416.5,-395 416.5,-407 416.5,-407 416.5,-413 410.5,-419 404.5,-419"/>
<text text-anchor="middle" x="263.5" y="-398.2" font-family="Helvetica,sans-Serif" font-size="11.00">BugreportManagerServiceImpl.startBugreportLocked</text>
</g>
<!-- m::com.android.server.os.BugreportManagerServiceImpl.startBugreport:(ILjava/lang/String;Ljava/io/FileDescriptor;Ljava/io/FileDescriptor;IILandroid/os/IDumpstateListener;ZZ)V&#45;&gt;m::com.android.server.os.BugreportManagerServiceImpl.startBugreportLocked:(ILjava/lang/String;Ljava/io/FileDescriptor;Ljava/io/FileDescriptor;IILandroid/os/IDumpstateListener;Z)V -->
<g id="edge1" class="edge">
<title>m::com.android.server.os.BugreportManagerServiceImpl.startBugreport:(ILjava/lang/String;Ljava/io/FileDescriptor;Ljava/io/FileDescriptor;IILandroid/os/IDumpstateListener;ZZ)V&#45;&gt;m::com.android.server.os.BugreportManagerServiceImpl.startBugreportLocked:(ILjava/lang/String;Ljava/io/FileDescriptor;Ljava/io/FileDescriptor;IILandroid/os/IDumpstateListener;Z)V</title>
<path fill="none" stroke="#64748b" d="M483.33,-464.94C435.24,-452.14 371.83,-434.61 325.4,-421.3"/>
<polygon fill="#64748b" stroke="#64748b" points="325.99,-418.56 317.52,-419.04 324.44,-423.94 325.99,-418.56"/>
</g>
<!-- m::com.android.server.os.BugreportManagerServiceImpl.startBugreport:(ILjava/lang/String;Ljava/io/FileDescriptor;Ljava/io/FileDescriptor;IILandroid/os/IDumpstateListener;ZZ)V&#45;&gt;m::com.android.server.os.BugreportManagerServiceImpl.startBugreportLocked:(ILjava/lang/String;Ljava/io/FileDescriptor;Ljava/io/FileDescriptor;IILandroid/os/IDumpstateListener;Z)V -->
<g id="edge8" class="edge">
<title>m::com.android.server.os.BugreportManagerServiceImpl.startBugreport:(ILjava/lang/String;Ljava/io/FileDescriptor;Ljava/io/FileDescriptor;IILandroid/os/IDumpstateListener;ZZ)V&#45;&gt;m::com.android.server.os.BugreportManagerServiceImpl.startBugreportLocked:(ILjava/lang/String;Ljava/io/FileDescriptor;Ljava/io/FileDescriptor;IILandroid/os/IDumpstateListener;Z)V</title>
<path fill="none" stroke="#64748b" d="M499.01,-464.94C454.61,-452.09 391.06,-434.47 341.1,-421.14"/>
<polygon fill="#64748b" stroke="#64748b" points="341.65,-418.39 333.2,-419.04 340.21,-423.8 341.65,-418.39"/>
</g>
<!-- com.android.server.os.BugreportManagerServiceImpl.mLock -->
<g id="node5" class="node">
<title>com.android.server.os.BugreportManagerServiceImpl.mLock</title>
<path fill="#fee2e2" stroke="#dc2626" stroke-width="2" d="M651.5,-419C651.5,-419 453.5,-419 453.5,-419 447.5,-419 441.5,-413 441.5,-407 441.5,-407 441.5,-395 441.5,-395 441.5,-389 447.5,-383 453.5,-383 453.5,-383 651.5,-383 651.5,-383 657.5,-383 663.5,-389 663.5,-395 663.5,-395 663.5,-407 663.5,-407 663.5,-413 657.5,-419 651.5,-419"/>
<text text-anchor="middle" x="552.5" y="-398.2" font-family="Helvetica,sans-Serif" font-size="11.00">BugreportManagerServiceImpl.mLock</text>
</g>
<!-- m::com.android.server.os.BugreportManagerServiceImpl.startBugreport:(ILjava/lang/String;Ljava/io/FileDescriptor;Ljava/io/FileDescriptor;IILandroid/os/IDumpstateListener;ZZ)V&#45;&gt;com.android.server.os.BugreportManagerServiceImpl.mLock -->
<g id="edge4" class="edge">
<title>m::com.android.server.os.BugreportManagerServiceImpl.startBugreport:(ILjava/lang/String;Ljava/io/FileDescriptor;Ljava/io/FileDescriptor;IILandroid/os/IDumpstateListener;ZZ)V&#45;&gt;com.android.server.os.BugreportManagerServiceImpl.mLock</title>
<path fill="none" stroke="#dc2626" stroke-width="1.6" d="M552.5,-464.64C552.5,-453.66 552.5,-439.29 552.5,-427.09"/>
<polygon fill="#dc2626" stroke="#dc2626" stroke-width="1.6" points="555.3,-427.05 552.5,-419.05 549.7,-427.05 555.3,-427.05"/>
<text text-anchor="middle" x="573.5" y="-439.8" font-family="Helvetica,sans-Serif" font-size="9.00" fill="#dc2626"> acquires</text>
</g>
<!-- m::com.android.server.utils.Slogf.i:(Ljava/lang/String;Ljava/lang/String;[Ljava/lang/Object;)V -->
<g id="node6" class="node">
<title>m::com.android.server.utils.Slogf.i:(Ljava/lang/String;Ljava/lang/String;[Ljava/lang/Object;)V</title>
<path fill="#eef2ff" stroke="#a5b4fc" d="M730.5,-419C730.5,-419 700.5,-419 700.5,-419 694.5,-419 688.5,-413 688.5,-407 688.5,-407 688.5,-395 688.5,-395 688.5,-389 694.5,-383 700.5,-383 700.5,-383 730.5,-383 730.5,-383 736.5,-383 742.5,-389 742.5,-395 742.5,-395 742.5,-407 742.5,-407 742.5,-413 736.5,-419 730.5,-419"/>
<text text-anchor="middle" x="715.5" y="-398.2" font-family="Helvetica,sans-Serif" font-size="11.00">Slogf.i</text>
</g>
<!-- m::com.android.server.os.BugreportManagerServiceImpl.startBugreport:(ILjava/lang/String;Ljava/io/FileDescriptor;Ljava/io/FileDescriptor;IILandroid/os/IDumpstateListener;ZZ)V&#45;&gt;m::com.android.server.utils.Slogf.i:(Ljava/lang/String;Ljava/lang/String;[Ljava/lang/Object;)V -->
<g id="edge5" class="edge">
<title>m::com.android.server.os.BugreportManagerServiceImpl.startBugreport:(ILjava/lang/String;Ljava/io/FileDescriptor;Ljava/io/FileDescriptor;IILandroid/os/IDumpstateListener;ZZ)V&#45;&gt;m::com.android.server.utils.Slogf.i:(Ljava/lang/String;Ljava/lang/String;[Ljava/lang/Object;)V</title>
<path fill="none" stroke="#64748b" d="M587.47,-464.84C615.09,-451.28 653.43,-432.47 680.94,-418.96"/>
<polygon fill="#64748b" stroke="#64748b" points="682.45,-421.34 688.39,-415.3 679.98,-416.32 682.45,-421.34"/>
</g>
<!-- __ipc__ -->
<g id="node13" class="node">
<title>__ipc__</title>
<path fill="#fde68a" stroke="#d97706" stroke-width="2" d="M867.5,-419C867.5,-419 779.5,-419 779.5,-419 773.5,-419 767.5,-413 767.5,-407 767.5,-407 767.5,-395 767.5,-395 767.5,-389 773.5,-383 779.5,-383 779.5,-383 867.5,-383 867.5,-383 873.5,-383 879.5,-389 879.5,-395 879.5,-395 879.5,-407 879.5,-407 879.5,-413 873.5,-419 867.5,-419"/>
<text text-anchor="middle" x="823.5" y="-404.2" font-family="Helvetica,sans-Serif" font-size="11.00">Binder IPC</text>
<text text-anchor="middle" x="823.5" y="-392.2" font-family="Helvetica,sans-Serif" font-size="11.00">(remote process)</text>
</g>
<!-- m::com.android.server.os.BugreportManagerServiceImpl.startBugreport:(ILjava/lang/String;Ljava/io/FileDescriptor;Ljava/io/FileDescriptor;IILandroid/os/IDumpstateListener;ZZ)V&#45;&gt;__ipc__ -->
<g id="edge14" class="edge">
<title>m::com.android.server.os.BugreportManagerServiceImpl.startBugreport:(ILjava/lang/String;Ljava/io/FileDescriptor;Ljava/io/FileDescriptor;IILandroid/os/IDumpstateListener;ZZ)V&#45;&gt;__ipc__</title>
<path fill="none" stroke="#d97706" stroke-width="1.6" stroke-dasharray="5,2" d="M610.3,-464.94C654.09,-452.01 714.24,-434.25 759.48,-420.9"/>
<polygon fill="#d97706" stroke="#d97706" stroke-width="1.6" points="760.3,-423.58 767.18,-418.63 758.71,-418.21 760.3,-423.58"/>
<text text-anchor="middle" x="759" y="-439.8" font-family="Helvetica,sans-Serif" font-size="9.00" fill="#b45309"> transacts while holding</text>
</g>
<!-- m::com.android.server.os.BugreportManagerServiceImpl$BugreportFileManager.canSkipConsentScreen:(Ljava/lang/String;Z)Z -->
<g id="node3" class="node">
<title>m::com.android.server.os.BugreportManagerServiceImpl$BugreportFileManager.canSkipConsentScreen:(Ljava/lang/String;Z)Z</title>
<path fill="#eef2ff" stroke="#a5b4fc" d="M470.5,-346C470.5,-346 56.5,-346 56.5,-346 50.5,-346 44.5,-340 44.5,-334 44.5,-334 44.5,-322 44.5,-322 44.5,-316 50.5,-310 56.5,-310 56.5,-310 470.5,-310 470.5,-310 476.5,-310 482.5,-316 482.5,-322 482.5,-322 482.5,-334 482.5,-334 482.5,-340 476.5,-346 470.5,-346"/>
<text text-anchor="middle" x="263.5" y="-325.2" font-family="Helvetica,sans-Serif" font-size="11.00">BugreportManagerServiceImpl$BugreportFileManager.canSkipConsentScreen</text>
</g>
<!-- m::com.android.server.os.BugreportManagerServiceImpl.startBugreportLocked:(ILjava/lang/String;Ljava/io/FileDescriptor;Ljava/io/FileDescriptor;IILandroid/os/IDumpstateListener;Z)V&#45;&gt;m::com.android.server.os.BugreportManagerServiceImpl$BugreportFileManager.canSkipConsentScreen:(Ljava/lang/String;Z)Z -->
<g id="edge2" class="edge">
<title>m::com.android.server.os.BugreportManagerServiceImpl.startBugreportLocked:(ILjava/lang/String;Ljava/io/FileDescriptor;Ljava/io/FileDescriptor;IILandroid/os/IDumpstateListener;Z)V&#45;&gt;m::com.android.server.os.BugreportManagerServiceImpl$BugreportFileManager.canSkipConsentScreen:(Ljava/lang/String;Z)Z</title>
<path fill="none" stroke="#64748b" d="M255.66,-382.81C254.46,-374.18 254.19,-363.56 254.86,-354.03"/>
<polygon fill="#64748b" stroke="#64748b" points="257.65,-354.27 255.68,-346.03 252.08,-353.7 257.65,-354.27"/>
</g>
<!-- m::com.android.server.os.BugreportManagerServiceImpl.startBugreportLocked:(ILjava/lang/String;Ljava/io/FileDescriptor;Ljava/io/FileDescriptor;IILandroid/os/IDumpstateListener;Z)V&#45;&gt;m::com.android.server.os.BugreportManagerServiceImpl$BugreportFileManager.canSkipConsentScreen:(Ljava/lang/String;Z)Z -->
<g id="edge9" class="edge">
<title>m::com.android.server.os.BugreportManagerServiceImpl.startBugreportLocked:(ILjava/lang/String;Ljava/io/FileDescriptor;Ljava/io/FileDescriptor;IILandroid/os/IDumpstateListener;Z)V&#45;&gt;m::com.android.server.os.BugreportManagerServiceImpl$BugreportFileManager.canSkipConsentScreen:(Ljava/lang/String;Z)Z</title>
<path fill="none" stroke="#64748b" d="M271.99,-382.81C273.3,-374.18 273.59,-363.56 272.86,-354.03"/>
<polygon fill="#64748b" stroke="#64748b" points="275.64,-353.67 271.97,-346.03 270.07,-354.29 275.64,-353.67"/>
</g>
<!-- com.android.server.os.BugreportManagerServiceImpl$BugreportFileManager.mLock -->
<g id="node4" class="node">
<title>com.android.server.os.BugreportManagerServiceImpl$BugreportFileManager.mLock</title>
<path fill="#fee2e2" stroke="#dc2626" stroke-width="2" d="M337,-264C337,-264 12,-264 12,-264 6,-264 0,-258 0,-252 0,-252 0,-240 0,-240 0,-234 6,-228 12,-228 12,-228 337,-228 337,-228 343,-228 349,-234 349,-240 349,-240 349,-252 349,-252 349,-258 343,-264 337,-264"/>
<text text-anchor="middle" x="174.5" y="-243.2" font-family="Helvetica,sans-Serif" font-size="11.00">BugreportManagerServiceImpl$BugreportFileManager.mLock</text>
</g>
<!-- m::com.android.server.os.BugreportManagerServiceImpl$BugreportFileManager.canSkipConsentScreen:(Ljava/lang/String;Z)Z&#45;&gt;com.android.server.os.BugreportManagerServiceImpl$BugreportFileManager.mLock -->
<g id="edge3" class="edge">
<title>m::com.android.server.os.BugreportManagerServiceImpl$BugreportFileManager.canSkipConsentScreen:(Ljava/lang/String;Z)Z&#45;&gt;com.android.server.os.BugreportManagerServiceImpl$BugreportFileManager.mLock</title>
<path fill="none" stroke="#dc2626" stroke-width="1.6" d="M244.19,-309.64C231.15,-297.92 213.82,-282.34 199.7,-269.65"/>
<polygon fill="#dc2626" stroke="#dc2626" stroke-width="1.6" points="201.29,-267.32 193.47,-264.05 197.55,-271.48 201.29,-267.32"/>
<text text-anchor="middle" x="245.5" y="-284.8" font-family="Helvetica,sans-Serif" font-size="9.00" fill="#dc2626"> acquires</text>
</g>
<!-- m::com.android.server.utils.WatchedArrayMap.remove:(Ljava/lang/Object;)Ljava/lang/Object; -->
<g id="node9" class="node">
<title>m::com.android.server.utils.WatchedArrayMap.remove:(Ljava/lang/Object;)Ljava/lang/Object;</title>
<path fill="#eef2ff" stroke="#a5b4fc" d="M526.5,-264C526.5,-264 386.5,-264 386.5,-264 380.5,-264 374.5,-258 374.5,-252 374.5,-252 374.5,-240 374.5,-240 374.5,-234 380.5,-228 386.5,-228 386.5,-228 526.5,-228 526.5,-228 532.5,-228 538.5,-234 538.5,-240 538.5,-240 538.5,-252 538.5,-252 538.5,-258 532.5,-264 526.5,-264"/>
<text text-anchor="middle" x="456.5" y="-243.2" font-family="Helvetica,sans-Serif" font-size="11.00">WatchedArrayMap.remove</text>
</g>
<!-- m::com.android.server.os.BugreportManagerServiceImpl$BugreportFileManager.canSkipConsentScreen:(Ljava/lang/String;Z)Z&#45;&gt;m::com.android.server.utils.WatchedArrayMap.remove:(Ljava/lang/Object;)Ljava/lang/Object; -->
<g id="edge10" class="edge">
<title>m::com.android.server.os.BugreportManagerServiceImpl$BugreportFileManager.canSkipConsentScreen:(Ljava/lang/String;Z)Z&#45;&gt;m::com.android.server.utils.WatchedArrayMap.remove:(Ljava/lang/Object;)Ljava/lang/Object;</title>
<path fill="none" stroke="#64748b" d="M304.9,-309.84C335.05,-297.34 375.99,-280.37 407.72,-267.22"/>
<polygon fill="#64748b" stroke="#64748b" points="408.85,-269.78 415.17,-264.13 406.7,-264.61 408.85,-269.78"/>
</g>
<!-- m::com.android.server.utils.Slogf.getMessage:(Ljava/lang/String;[Ljava/lang/Object;)Ljava/lang/String; -->
<g id="node7" class="node">
<title>m::com.android.server.utils.Slogf.getMessage:(Ljava/lang/String;[Ljava/lang/Object;)Ljava/lang/String;</title>
<path fill="#eef2ff" stroke="#a5b4fc" d="M760,-346C760,-346 671,-346 671,-346 665,-346 659,-340 659,-334 659,-334 659,-322 659,-322 659,-316 665,-310 671,-310 671,-310 760,-310 760,-310 766,-310 772,-316 772,-322 772,-322 772,-334 772,-334 772,-340 766,-346 760,-346"/>
<text text-anchor="middle" x="715.5" y="-325.2" font-family="Helvetica,sans-Serif" font-size="11.00">Slogf.getMessage</text>
</g>
<!-- m::com.android.server.utils.Slogf.i:(Ljava/lang/String;Ljava/lang/String;[Ljava/lang/Object;)V&#45;&gt;m::com.android.server.utils.Slogf.getMessage:(Ljava/lang/String;[Ljava/lang/Object;)Ljava/lang/String; -->
<g id="edge6" class="edge">
<title>m::com.android.server.utils.Slogf.i:(Ljava/lang/String;Ljava/lang/String;[Ljava/lang/Object;)V&#45;&gt;m::com.android.server.utils.Slogf.getMessage:(Ljava/lang/String;[Ljava/lang/Object;)Ljava/lang/String;</title>
<path fill="none" stroke="#64748b" d="M715.5,-382.81C715.5,-374.18 715.5,-363.56 715.5,-354.03"/>
<polygon fill="#64748b" stroke="#64748b" points="718.3,-354.03 715.5,-346.03 712.7,-354.03 718.3,-354.03"/>
</g>
<!-- com.android.server.utils.Slogf.sMessageBuilder -->
<g id="node8" class="node">
<title>com.android.server.utils.Slogf.sMessageBuilder</title>
<path fill="#fee2e2" stroke="#dc2626" stroke-width="2" d="M773.5,-264C773.5,-264 657.5,-264 657.5,-264 651.5,-264 645.5,-258 645.5,-252 645.5,-252 645.5,-240 645.5,-240 645.5,-234 651.5,-228 657.5,-228 657.5,-228 773.5,-228 773.5,-228 779.5,-228 785.5,-234 785.5,-240 785.5,-240 785.5,-252 785.5,-252 785.5,-258 779.5,-264 773.5,-264"/>
<text text-anchor="middle" x="715.5" y="-243.2" font-family="Helvetica,sans-Serif" font-size="11.00">Slogf.sMessageBuilder</text>
</g>
<!-- m::com.android.server.utils.Slogf.getMessage:(Ljava/lang/String;[Ljava/lang/Object;)Ljava/lang/String;&#45;&gt;com.android.server.utils.Slogf.sMessageBuilder -->
<g id="edge7" class="edge">
<title>m::com.android.server.utils.Slogf.getMessage:(Ljava/lang/String;[Ljava/lang/Object;)Ljava/lang/String;&#45;&gt;com.android.server.utils.Slogf.sMessageBuilder</title>
<path fill="none" stroke="#dc2626" stroke-width="1.6" d="M715.5,-309.64C715.5,-298.66 715.5,-284.29 715.5,-272.09"/>
<polygon fill="#dc2626" stroke="#dc2626" stroke-width="1.6" points="718.3,-272.05 715.5,-264.05 712.7,-272.05 718.3,-272.05"/>
<text text-anchor="middle" x="736.5" y="-284.8" font-family="Helvetica,sans-Serif" font-size="9.00" fill="#dc2626"> acquires</text>
</g>
<!-- m::com.android.server.utils.WatchedArrayMap.onChanged:()V -->
<g id="node10" class="node">
<title>m::com.android.server.utils.WatchedArrayMap.onChanged:()V</title>
<path fill="#eef2ff" stroke="#a5b4fc" d="M536,-191C536,-191 377,-191 377,-191 371,-191 365,-185 365,-179 365,-179 365,-167 365,-167 365,-161 371,-155 377,-155 377,-155 536,-155 536,-155 542,-155 548,-161 548,-167 548,-167 548,-179 548,-179 548,-185 542,-191 536,-191"/>
<text text-anchor="middle" x="456.5" y="-170.2" font-family="Helvetica,sans-Serif" font-size="11.00">WatchedArrayMap.onChanged</text>
</g>
<!-- m::com.android.server.utils.WatchedArrayMap.remove:(Ljava/lang/Object;)Ljava/lang/Object;&#45;&gt;m::com.android.server.utils.WatchedArrayMap.onChanged:()V -->
<g id="edge11" class="edge">
<title>m::com.android.server.utils.WatchedArrayMap.remove:(Ljava/lang/Object;)Ljava/lang/Object;&#45;&gt;m::com.android.server.utils.WatchedArrayMap.onChanged:()V</title>
<path fill="none" stroke="#64748b" d="M456.5,-227.81C456.5,-219.18 456.5,-208.56 456.5,-199.03"/>
<polygon fill="#64748b" stroke="#64748b" points="459.3,-199.03 456.5,-191.03 453.7,-199.03 459.3,-199.03"/>
</g>
<!-- m::com.android.server.utils.WatchableImpl.dispatchChange:(Lcom/android/server/utils/Watchable;)V -->
<g id="node11" class="node">
<title>m::com.android.server.utils.WatchableImpl.dispatchChange:(Lcom/android/server/utils/Watchable;)V</title>
<path fill="#eef2ff" stroke="#a5b4fc" d="M539,-118C539,-118 374,-118 374,-118 368,-118 362,-112 362,-106 362,-106 362,-94 362,-94 362,-88 368,-82 374,-82 374,-82 539,-82 539,-82 545,-82 551,-88 551,-94 551,-94 551,-106 551,-106 551,-112 545,-118 539,-118"/>
<text text-anchor="middle" x="456.5" y="-97.2" font-family="Helvetica,sans-Serif" font-size="11.00">WatchableImpl.dispatchChange</text>
</g>
<!-- m::com.android.server.utils.WatchedArrayMap.onChanged:()V&#45;&gt;m::com.android.server.utils.WatchableImpl.dispatchChange:(Lcom/android/server/utils/Watchable;)V -->
<g id="edge12" class="edge">
<title>m::com.android.server.utils.WatchedArrayMap.onChanged:()V&#45;&gt;m::com.android.server.utils.WatchableImpl.dispatchChange:(Lcom/android/server/utils/Watchable;)V</title>
<path fill="none" stroke="#64748b" d="M456.5,-154.81C456.5,-146.18 456.5,-135.56 456.5,-126.03"/>
<polygon fill="#64748b" stroke="#64748b" points="459.3,-126.03 456.5,-118.03 453.7,-126.03 459.3,-126.03"/>
</g>
<!-- com.android.server.utils.WatchableImpl.mObservers -->
<g id="node12" class="node">
<title>com.android.server.utils.WatchableImpl.mObservers</title>
<path fill="#fee2e2" stroke="#dc2626" stroke-width="2" d="M529,-36C529,-36 384,-36 384,-36 378,-36 372,-30 372,-24 372,-24 372,-12 372,-12 372,-6 378,0 384,0 384,0 529,0 529,0 535,0 541,-6 541,-12 541,-12 541,-24 541,-24 541,-30 535,-36 529,-36"/>
<text text-anchor="middle" x="456.5" y="-15.2" font-family="Helvetica,sans-Serif" font-size="11.00">WatchableImpl.mObservers</text>
</g>
<!-- m::com.android.server.utils.WatchableImpl.dispatchChange:(Lcom/android/server/utils/Watchable;)V&#45;&gt;com.android.server.utils.WatchableImpl.mObservers -->
<g id="edge13" class="edge">
<title>m::com.android.server.utils.WatchableImpl.dispatchChange:(Lcom/android/server/utils/Watchable;)V&#45;&gt;com.android.server.utils.WatchableImpl.mObservers</title>
<path fill="none" stroke="#dc2626" stroke-width="1.6" d="M456.5,-81.64C456.5,-70.66 456.5,-56.29 456.5,-44.09"/>
<polygon fill="#dc2626" stroke="#dc2626" stroke-width="1.6" points="459.3,-44.05 456.5,-36.05 453.7,-44.05 459.3,-44.05"/>
<text text-anchor="middle" x="477.5" y="-56.8" font-family="Helvetica,sans-Serif" font-size="9.00" fill="#dc2626"> acquires</text>
</g>
</g>
</svg>
