<?xml version="1.0" encoding="UTF-8" standalone="no"?>
<!DOCTYPE svg PUBLIC "-//W3C//DTD SVG 1.1//EN"
 "http://www.w3.org/Graphics/SVG/1.1/DTD/svg11.dtd">
<!-- Generated by graphviz version 2.43.0 (0)
 -->
<!-- Title: binder Pages: 1 -->
<svg width="342pt" height="126pt"
 viewBox="0.00 0.00 341.50 126.00" xmlns="http://www.w3.org/2000/svg" xmlns:xlink="http://www.w3.org/1999/xlink">
<g id="graph0" class="graph" transform="scale(1 1) rotate(0) translate(4 122)">
<title>binder</title>
<polygon fill="white" stroke="transparent" points="-4,4 -4,-122 337.5,-122 337.5,4 -4,4"/>
<!-- m::com.android.server.vibrator.VibratorControlService.triggerVibrationParamsRequest:(III)Ljava/util/concurrent/CompletableFuture; -->
<g id="node1" class="node">
<title>m::com.android.server.vibrator.VibratorControlService.triggerVibrationParamsRequest:(III)Ljava/util/concurrent/CompletableFuture;</title>
<path fill="#eef2ff" stroke="#a5b4fc" stroke-width="2" d="M321.5,-118C321.5,-118 28.5,-118 28.5,-118 22.5,-118 16.5,-112 16.5,-106 16.5,-106 16.5,-94 16.5,-94 16.5,-88 22.5,-82 28.5,-82 28.5,-82 321.5,-82 321.5,-82 327.5,-82 333.5,-88 333.5,-94 333.5,-94 333.5,-106 333.5,-106 333.5,-112 327.5,-118 321.5,-118"/>
<text text-anchor="middle" x="175" y="-97.2" font-family="Helvetica,sans-Serif" font-size="11.00">VibratorControlService.triggerVibrationParamsRequest</text>
</g>
<!-- com.android.server.vibrator.VibratorControlService.mLock -->
<g id="node2" class="node">
<title>com.android.server.vibrator.VibratorControlService.mLock</title>
<path fill="#fee2e2" stroke="#dc2626" stroke-width="2" d="M168,-36C168,-36 12,-36 12,-36 6,-36 0,-30 0,-24 0,-24 0,-12 0,-12 0,-6 6,0 12,0 12,0 168,0 168,0 174,0 180,-6 180,-12 180,-12 180,-24 180,-24 180,-30 174,-36 168,-36"/>
<text text-anchor="middle" x="90" y="-15.2" font-family="Helvetica,sans-Serif" font-size="11.00">VibratorControlService.mLock</text>
</g>
<!-- m::com.android.server.vibrator.VibratorControlService.triggerVibrationParamsRequest:(III)Ljava/util/concurrent/CompletableFuture;&#45;&gt;com.android.server.vibrator.VibratorControlService.mLock -->
<g id="edge1" class="edge">
<title>m::com.android.server.vibrator.VibratorControlService.triggerVibrationParamsRequest:(III)Ljava/util/concurrent/CompletableFuture;&#45;&gt;com.android.server.vibrator.VibratorControlService.mLock</title>
<path fill="none" stroke="#dc2626" stroke-width="1.6" d="M156.56,-81.64C144.11,-69.92 127.55,-54.34 114.07,-41.65"/>
<polygon fill="#dc2626" stroke="#dc2626" stroke-width="1.6" points="115.86,-39.49 108.12,-36.05 112.02,-43.57 115.86,-39.49"/>
<text text-anchor="middle" x="159" y="-56.8" font-family="Helvetica,sans-Serif" font-size="9.00" fill="#dc2626"> acquires</text>
</g>
<!-- __ipc__ -->
<g id="node3" class="node">
<title>__ipc__</title>
<path fill="#fde68a" stroke="#d97706" stroke-width="2" d="M305,-36C305,-36 217,-36 217,-36 211,-36 205,-30 205,-24 205,-24 205,-12 205,-12 205,-6 211,0 217,0 217,0 305,0 305,0 311,0 317,-6 317,-12 317,-12 317,-24 317,-24 317,-30 311,-36 305,-36"/>
<text text-anchor="middle" x="261" y="-21.2" font-family="Helvetica,sans-Serif" font-size="11.00">Binder IPC</text>
<text text-anchor="middle" x="261" y="-9.2" font-family="Helvetica,sans-Serif" font-size="11.00">(remote process)</text>
</g>
<!-- m::com.android.server.vibrator.VibratorControlService.triggerVibrationParamsRequest:(III)Ljava/util/concurrent/CompletableFuture;&#45;&gt;__ipc__ -->
<g id="edge2" class="edge">
<title>m::com.android.server.vibrator.VibratorControlService.triggerVibrationParamsRequest:(III)Ljava/util/concurrent/CompletableFuture;&#45;&gt;__ipc__</title>
<path fill="none" stroke="#d97706" stroke-width="1.6" stroke-dasharray="5,2" d="M193.66,-81.64C206.26,-69.92 223,-54.34 236.65,-41.65"/>
<polygon fill="#d97706" stroke="#d97706" stroke-width="1.6" points="238.72,-43.55 242.67,-36.05 234.91,-39.45 238.72,-43.55"/>
<text text-anchor="middle" x="277.5" y="-56.8" font-family="Helvetica,sans-Serif" font-size="9.00" fill="#b45309"> transacts while holding</text>
</g>
</g>
</svg>
