<?xml version="1.0" encoding="UTF-8" standalone="no"?>
<!DOCTYPE svg PUBLIC "-//W3C//DTD SVG 1.1//EN"
 "http://www.w3.org/Graphics/SVG/1.1/DTD/svg11.dtd">
<!-- Generated by graphviz version 2.43.0 (0)
 -->
<!-- Title: binder Pages: 1 -->
<svg width="223pt" height="272pt"
 viewBox="0.00 0.00 223.00 272.00" xmlns="http://www.w3.org/2000/svg" xmlns:xlink="http://www.w3.org/1999/xlink">
<g id="graph0" class="graph" transform="scale(1 1) rotate(0) translate(4 268)">
<title>binder</title>
<polygon fill="white" stroke="transparent" points="-4,4 -4,-268 219,-268 219,4 -4,4"/>
<!-- m::com.android.server.BatteryService$BinderService.dump:(Ljava/io/FileDescriptor;Ljava/io/PrintWriter;[Ljava/lang/String;)V -->
<g id="node1" class="node">
<title>m::com.android.server.BatteryService$BinderService.dump:(Ljava/io/FileDescriptor;Ljava/io/PrintWriter;[Ljava/lang/String;)V</title>
<path fill="#eef2ff" stroke="#a5b4fc" stroke-width="2" d="M203,-264C203,-264 12,-264 12,-264 6,-264 0,-258 0,-252 0,-252 0,-240 0,-240 0,-234 6,-228 12,-228 12,-228 203,-228 203,-228 209,-228 215,-234 215,-240 215,-240 215,-252 215,-252 215,-258 209,-264 203,-264"/>
<text text-anchor="middle" x="107.5" y="-243.2" font-family="Helvetica,sans-Serif" font-size="11.00">BatteryService$BinderService.dump</text>
</g>
<!-- m::com.android.server.BatteryService.&#45;$$Nest$mdumpProto:(Lcom/android/server/BatteryService;Ljava/io/FileDescriptor;)V -->
<g id="node2" class="node">
<title>m::com.android.server.BatteryService.&#45;$$Nest$mdumpProto:(Lcom/android/server/BatteryService;Ljava/io/FileDescriptor;)V</title>
<path fill="#eef2ff" stroke="#a5b4fc" d="M176.5,-191C176.5,-191 38.5,-191 38.5,-191 32.5,-191 26.5,-185 26.5,-179 26.5,-179 26.5,-167 26.5,-167 26.5,-161 32.5,-155 38.5,-155 38.5,-155 176.5,-155 176.5,-155 182.5,-155 188.5,-161 188.5,-167 188.5,-167 188.5,-179 188.5,-179 188.5,-185 182.5,-191 176.5,-191"/>
<text text-anchor="middle" x="107.5" y="-170.2" font-family="Helvetica,sans-Serif" font-size="11.00">BatteryService.dumpProto</text>
</g>
<!-- m::com.android.server.BatteryService$BinderService.dump:(Ljava/io/FileDescriptor;Ljava/io/PrintWriter;[Ljava/lang/String;)V&#45;&gt;m::com.android.server.BatteryService.&#45;$$Nest$mdumpProto:(Lcom/android/server/BatteryService;Ljava/io/FileDescriptor;)V -->
<g id="edge1" class="edge">
<title>m::com.android.server.BatteryService$BinderService.dump:(Ljava/io/FileDescriptor;Ljava/io/PrintWriter;[Ljava/lang/String;)V&#45;&gt;m::com.android.server.BatteryService.&#45;$$Nest$mdumpProto:(Lcom/android/server/BatteryService;Ljava/io/FileDescriptor;)V</title>
<path fill="none" stroke="#64748b" d="M107.5,-227.81C107.5,-219.18 107.5,-208.56 107.5,-199.03"/>
<polygon fill="#64748b" stroke="#64748b" points="110.3,-199.03 107.5,-191.03 104.7,-199.03 110.3,-199.03"/>
</g>
<!-- m::com.android.server.BatteryService.dumpProto:(Ljava/io/FileDescriptor;)V -->
<g id="node3" class="node">
<title>m::com.android.server.BatteryService.dumpProto:(Ljava/io/FileDescriptor;)V</title>
<path fill="#eef2ff" stroke="#a5b4fc" d="M176.5,-118C176.5,-118 38.5,-118 38.5,-118 32.5,-118 26.5,-112 26.5,-106 26.5,-106 26.5,-94 26.5,-94 26.5,-88 32.5,-82 38.5,-82 38.5,-82 176.5,-82 176.5,-82 182.5,-82 188.5,-88 188.5,-94 188.5,-94 188.5,-106 188.5,-106 188.5,-112 182.5,-118 176.5,-118"/>
<text text-anchor="middle" x="107.5" y="-97.2" font-family="Helvetica,sans-Serif" font-size="11.00">BatteryService.dumpProto</text>
</g>
<!-- m::com.android.server.BatteryService.&#45;$$Nest$mdumpProto:(Lcom/android/server/BatteryService;Ljava/io/FileDescriptor;)V&#45;&gt;m::com.android.server.BatteryService.dumpProto:(Ljava/io/FileDescriptor;)V -->
<g id="edge2" class="edge">
<title>m::com.android.server.BatteryService.&#45;$$Nest$mdumpProto:(Lcom/android/server/BatteryService;Ljava/io/FileDescriptor;)V&#45;&gt;m::com.android.server.BatteryService.dumpProto:(Ljava/io/FileDescriptor;)V</title>
<path fill="none" stroke="#64748b" d="M107.5,-154.81C107.5,-146.18 107.5,-135.56 107.5,-126.03"/>
<polygon fill="#64748b" stroke="#64748b" points="110.3,-126.03 107.5,-118.03 104.7,-126.03 110.3,-126.03"/>
</g>
<!-- com.android.server.BatteryService.mLock -->
<g id="node4" class="node">
<title>com.android.server.BatteryService.mLock</title>
<path fill="#fee2e2" stroke="#dc2626" stroke-width="2" d="M164,-36C164,-36 51,-36 51,-36 45,-36 39,-30 39,-24 39,-24 39,-12 39,-12 39,-6 45,0 51,0 51,0 164,0 164,0 170,0 176,-6 176,-12 176,-12 176,-24 176,-24 176,-30 170,-36 164,-36"/>
<text text-anchor="middle" x="107.5" y="-15.2" font-family="Helvetica,sans-Serif" font-size="11.00">BatteryService.mLock</text>
</g>
<!-- m::com.android.server.BatteryService.dumpProto:(Ljava/io/FileDescriptor;)V&#45;&gt;com.android.server.BatteryService.mLock -->
<g id="edge3" class="edge">
<title>m::com.android.server.BatteryService.dumpProto:(Ljava/io/FileDescriptor;)V&#45;&gt;com.android.server.BatteryService.mLock</title>
<path fill="none" stroke="#dc2626" stroke-width="1.6" d="M107.5,-81.64C107.5,-70.66 107.5,-56.29 107.5,-44.09"/>
<polygon fill="#dc2626" stroke="#dc2626" stroke-width="1.6" points="110.3,-44.05 107.5,-36.05 104.7,-44.05 110.3,-44.05"/>
<text text-anchor="middle" x="128.5" y="-56.8" font-family="Helvetica,sans-Serif" font-size="9.00" fill="#dc2626"> acquires</text>
</g>
</g>
</svg>
