<?xml version="1.0" encoding="UTF-8" standalone="no"?>
<!DOCTYPE svg PUBLIC "-//W3C//DTD SVG 1.1//EN"
 "http://www.w3.org/Graphics/SVG/1.1/DTD/svg11.dtd">
<!-- Generated by graphviz version 2.43.0 (0)
 -->
<!-- Title: binder Pages: 1 -->
<svg width="231pt" height="199pt"
 viewBox="0.00 0.00 231.00 199.00" xmlns="http://www.w3.org/2000/svg" xmlns:xlink="http://www.w3.org/1999/xlink">
<g id="graph0" class="graph" transform="scale(1 1) rotate(0) translate(4 195)">
<title>binder</title>
<polygon fill="white" stroke="transparent" points="-4,4 -4,-195 227,-195 227,4 -4,4"/>
<!-- m::com.android.server.DiskStatsService.reportCachedValues:(Ljava/io/PrintWriter;)V -->
<g id="node1" class="node">
<title>m::com.android.server.DiskStatsService.reportCachedValues:(Ljava/io/PrintWriter;)V</title>
<path fill="#eef2ff" stroke="#a5b4fc" stroke-width="2" d="M211,-191C211,-191 12,-191 12,-191 6,-191 0,-185 0,-179 0,-179 0,-167 0,-167 0,-161 6,-155 12,-155 12,-155 211,-155 211,-155 217,-155 223,-161 223,-167 223,-167 223,-179 223,-179 223,-185 217,-191 211,-191"/>
<text text-anchor="middle" x="111.5" y="-170.2" font-family="Helvetica,sans-Serif" font-size="11.00">DiskStatsService.reportCachedValues</text>
</g>
<!-- m::com.android.internal.util.jobs.FastPrintWriter.print:(Ljava/lang/String;)V -->
<g id="node2" class="node">
<title>m::com.android.internal.util.jobs.FastPrintWriter.print:(Ljava/lang/String;)V</title>
<path fill="#eef2ff" stroke="#a5b4fc" d="M163,-118C163,-118 60,-118 60,-118 54,-118 48,-112 48,-106 48,-106 48,-94 48,-94 48,-88 54,-82 60,-82 60,-82 163,-82 163,-82 169,-82 175,-88 175,-94 175,-94 175,-106 175,-106 175,-112 169,-118 163,-118"/>
<text text-anchor="middle" x="111.5" y="-97.2" font-family="Helvetica,sans-Serif" font-size="11.00">FastPrintWriter.print</text>
</g>
<!-- m::com.android.server.DiskStatsService.reportCachedValues:(Ljava/io/PrintWriter;)V&#45;&gt;m::com.android.internal.util.jobs.FastPrintWriter.print:(Ljava/lang/String;)V -->
<g id="edge1" class="edge">
<title>m::com.android.server.DiskStatsService.reportCachedValues:(Ljava/io/PrintWriter;)V&#45;&gt;m::com.android.internal.util.jobs.FastPrintWriter.print:(Ljava/lang/String;)V</title>
<path fill="none" stroke="#64748b" d="M111.5,-154.81C111.5,-146.18 111.5,-135.56 111.5,-126.03"/>
<polygon fill="#64748b" stroke="#64748b" points="114.3,-126.03 111.5,-118.03 108.7,-126.03 114.3,-126.03"/>
</g>
<!-- java.io.PrintWriter.lock -->
<g id="node3" class="node">
<title>java.io.PrintWriter.lock</title>
<path fill="#fee2e2" stroke="#dc2626" stroke-width="2" d="M150,-36C150,-36 73,-36 73,-36 67,-36 61,-30 61,-24 61,-24 61,-12 61,-12 61,-6 67,0 73,0 73,0 150,0 150,0 156,0 162,-6 162,-12 162,-12 162,-24 162,-24 162,-30 156,-36 150,-36"/>
<text text-anchor="middle" x="111.5" y="-15.2" font-family="Helvetica,sans-Serif" font-size="11.00">PrintWriter.lock</text>
</g>
<!-- m::com.android.internal.util.jobs.FastPrintWriter.print:(Ljava/lang/String;)V&#45;&gt;java.io.PrintWriter.lock -->
<g id="edge2" class="edge">
<title>m::com.android.internal.util.jobs.FastPrintWriter.print:(Ljava/lang/String;)V&#45;&gt;java.io.PrintWriter.lock</title>
<path fill="none" stroke="#dc2626" stroke-width="1.6" d="M111.5,-81.64C111.5,-70.66 111.5,-56.29 111.5,-44.09"/>
<polygon fill="#dc2626" stroke="#dc2626" stroke-width="1.6" points="114.3,-44.05 111.5,-36.05 108.7,-44.05 114.3,-44.05"/>
<text text-anchor="middle" x="132.5" y="-56.8" font-family="Helvetica,sans-Serif" font-size="9.00" fill="#dc2626"> acquires</text>
</g>
</g>
</svg>
