<?xml version="1.0" encoding="UTF-8" standalone="no"?>
<!DOCTYPE svg PUBLIC "-//W3C//DTD SVG 1.1//EN"
 "http://www.w3.org/Graphics/SVG/1.1/DTD/svg11.dtd">
<!-- Generated by graphviz version 2.43.0 (0)
 -->
<!-- Title: binder Pages: 1 -->
<svg width="241pt" height="199pt"
 viewBox="0.00 0.00 241.00 199.00" xmlns="http://www.w3.org/2000/svg" xmlns:xlink="http://www.w3.org/1999/xlink">
<g id="graph0" class="graph" transform="scale(1 1) rotate(0) translate(4 195)">
<title>binder</title>
<polygon fill="white" stroke="transparent" points="-4,4 -4,-195 237,-195 237,4 -4,4"/>
<!-- m::com.android.server.DiskStatsService.reportDiskWriteSpeed:(Ljava/io/PrintWriter;)V -->
<g id="node1" class="node">
<title>m::com.android.server.DiskStatsService.reportDiskWriteSpeed:(Ljava/io/PrintWriter;)V</title>
<path fill="#eef2ff" stroke="#a5b4fc" stroke-width="2" d="M221,-191C221,-191 12,-191 12,-191 6,-191 0,-185 0,-179 0,-179 0,-167 0,-167 0,-161 6,-155 12,-155 12,-155 221,-155 221,-155 227,-155 233,-161 233,-167 233,-167 233,-179 233,-179 233,-185 227,-191 221,-191"/>
<text text-anchor="middle" x="116.5" y="-170.2" font-family="Helvetica,sans-Serif" font-size="11.00">DiskStatsService.reportDiskWriteSpeed</text>
</g>
<!-- m::com.android.internal.util.jobs.FastPrintWriter.print:(Ljava/lang/String;)V -->
<g id="node2" class="node">
<title>m::com.android.internal.util.jobs.FastPrintWriter.print:(Ljava/lang/String;)V</title>
<path fill="#eef2ff" stroke="#a5b4fc" d="M168,-118C168,-118 65,-118 65,-118 59,-118 53,-112 53,-106 53,-106 53,-94 53,-94 53,-88 59,-82 65,-82 65,-82 168,-82 168,-82 174,-82 180,-88 180,-94 180,-94 180,-106 180,-106 180,-112 174,-118 168,-118"/>
<text text-anchor="middle" x="116.5" y="-97.2" font-family="Helvetica,sans-Serif" font-size="11.00">FastPrintWriter.print</text>
</g>
<!-- m::com.android.server.DiskStatsService.reportDiskWriteSpeed:(Ljava/io/PrintWriter;)V&#45;&gt;m::com.android.internal.util.jobs.FastPrintWriter.print:(Ljava/lang/String;)V -->
<g id="edge1" class="edge">
<title>m::com.android.server.DiskStatsService.reportDiskWriteSpeed:(Ljava/io/PrintWriter;)V&#45;&gt;m::com.android.internal.util.jobs.FastPrintWriter.print:(Ljava/lang/String;)V</title>
<path fill="none" stroke="#64748b" d="M116.5,-154.81C116.5,-146.18 116.5,-135.56 116.5,-126.03"/>
<polygon fill="#64748b" stroke="#64748b" points="119.3,-126.03 116.5,-118.03 113.7,-126.03 119.3,-126.03"/>
</g>
<!-- java.io.PrintWriter.lock -->
<g id="node3" class="node">
<title>java.io.PrintWriter.lock</title>
<path fill="#fee2e2" stroke="#dc2626" stroke-width="2" d="M155,-36C155,-36 78,-36 78,-36 72,-36 66,-30 66,-24 66,-24 66,-12 66,-12 66,-6 72,0 78,0 78,0 155,0 155,0 161,0 167,-6 167,-12 167,-12 167,-24 167,-24 167,-30 161,-36 155,-36"/>
<text text-anchor="middle" x="116.5" y="-15.2" font-family="Helvetica,sans-Serif" font-size="11.00">PrintWriter.lock</text>
</g>
<!-- m::com.android.internal.util.jobs.FastPrintWriter.print:(Ljava/lang/String;)V&#45;&gt;java.io.PrintWriter.lock -->
<g id="edge2" class="edge">
<title>m::com.android.internal.util.jobs.FastPrintWriter.print:(Ljava/lang/String;)V&#45;&gt;java.io.PrintWriter.lock</title>
<path fill="none" stroke="#dc2626" stroke-width="1.6" d="M116.5,-81.64C116.5,-70.66 116.5,-56.29 116.5,-44.09"/>
<polygon fill="#dc2626" stroke="#dc2626" stroke-width="1.6" points="119.3,-44.05 116.5,-36.05 113.7,-44.05 119.3,-44.05"/>
<text text-anchor="middle" x="137.5" y="-56.8" font-family="Helvetica,sans-Serif" font-size="9.00" fill="#dc2626"> acquires</text>
</g>
</g>
</svg>
