<?xml version="1.0" encoding="UTF-8" standalone="no"?>
<!DOCTYPE svg PUBLIC "-//W3C//DTD SVG 1.1//EN"
 "http://www.w3.org/Graphics/SVG/1.1/DTD/svg11.dtd">
<!-- Generated by graphviz version 2.43.0 (0)
 -->
<!-- Title: binder Pages: 1 -->
<svg width="211pt" height="199pt"
 viewBox="0.00 0.00 211.00 199.00" xmlns="http://www.w3.org/2000/svg" xmlns:xlink="http://www.w3.org/1999/xlink">
<g id="graph0" class="graph" transform="scale(1 1) rotate(0) translate(4 195)">
<title>binder</title>
<polygon fill="white" stroke="transparent" points="-4,4 -4,-195 207,-195 207,4 -4,4"/>
<!-- m::com.android.server.DiskStatsService.reportFreeSpace:(Ljava/io/File;Ljava/lang/String;Ljava/io/PrintWriter;Landroid/util/proto/ProtoOutputStream;I)V -->
<g id="node1" class="node">
<title>m::com.android.server.DiskStatsService.reportFreeSpace:(Ljava/io/File;Ljava/lang/String;Ljava/io/PrintWriter;Landroid/util/proto/ProtoOutputStream;I)V</title>
<path fill="#eef2ff" stroke="#a5b4fc" stroke-width="2" d="M191,-191C191,-191 12,-191 12,-191 6,-191 0,-185 0,-179 0,-179 0,-167 0,-167 0,-161 6,-155 12,-155 12,-155 191,-155 191,-155 197,-155 203,-161 203,-167 203,-167 203,-179 203,-179 203,-185 197,-191 191,-191"/>
<text text-anchor="middle" x="101.5" y="-170.2" font-family="Helvetica,sans-Serif" font-size="11.00">DiskStatsService.reportFreeSpace</text>
</g>
<!-- m::com.android.internal.util.jobs.FastPrintWriter.print:(Ljava/lang/String;)V -->
<g id="node2" class="node">
<title>m::com.android.internal.util.jobs.FastPrintWriter.print:(Ljava/lang/String;)V</title>
<path fill="#eef2ff" stroke="#a5b4fc" d="M153,-118C153,-118 50,-118 50,-118 44,-118 38,-112 38,-106 38,-106 38,-94 38,-94 38,-88 44,-82 50,-82 50,-82 153,-82 153,-82 159,-82 165,-88 165,-94 165,-94 165,-106 165,-106 165,-112 159,-118 153,-118"/>
<text text-anchor="middle" x="101.5" y="-97.2" font-family="Helvetica,sans-Serif" font-size="11.00">FastPrintWriter.print</text>
</g>
<!-- m::com.android.server.DiskStatsService.reportFreeSpace:(Ljava/io/File;Ljava/lang/String;Ljava/io/PrintWriter;Landroid/util/proto/ProtoOutputStream;I)V&#45;&gt;m::com.android.internal.util.jobs.FastPrintWriter.print:(Ljava/lang/String;)V -->
<g id="edge1" class="edge">
<title>m::com.android.server.DiskStatsService.reportFreeSpace:(Ljava/io/File;Ljava/lang/String;Ljava/io/PrintWriter;Landroid/util/proto/ProtoOutputStream;I)V&#45;&gt;m::com.android.internal.util.jobs.FastPrintWriter.print:(Ljava/lang/String;)V</title>
<path fill="none" stroke="#64748b" d="M101.5,-154.81C101.5,-146.18 101.5,-135.56 101.5,-126.03"/>
<polygon fill="#64748b" stroke="#64748b" points="104.3,-126.03 101.5,-118.03 98.7,-126.03 104.3,-126.03"/>
</g>
<!-- java.io.PrintWriter.lock -->
<g id="node3" class="node">
<title>java.io.PrintWriter.lock</title>
<path fill="#fee2e2" stroke="#dc2626" stroke-width="2" d="M140,-36C140,-36 63,-36 63,-36 57,-36 51,-30 51,-24 51,-24 51,-12 51,-12 51,-6 57,0 63,0 63,0 140,0 140,0 146,0 152,-6 152,-12 152,-12 152,-24 152,-24 152,-30 146,-36 140,-36"/>
<text text-anchor="middle" x="101.5" y="-15.2" font-family="Helvetica,sans-Serif" font-size="11.00">PrintWriter.lock</text>
</g>
<!-- m::com.android.internal.util.jobs.FastPrintWriter.print:(Ljava/lang/String;)V&#45;&gt;java.io.PrintWriter.lock -->
<g id="edge2" class="edge">
<title>m::com.android.internal.util.jobs.FastPrintWriter.print:(Ljava/lang/String;)V&#45;&gt;java.io.PrintWriter.lock</title>
<path fill="none" stroke="#dc2626" stroke-width="1.6" d="M101.5,-81.64C101.5,-70.66 101.5,-56.29 101.5,-44.09"/>
<polygon fill="#dc2626" stroke="#dc2626" stroke-width="1.6" points="104.3,-44.05 101.5,-36.05 98.7,-44.05 104.3,-44.05"/>
<text text-anchor="middle" x="122.5" y="-56.8" font-family="Helvetica,sans-Serif" font-size="9.00" fill="#dc2626"> acquires</text>
</g>
</g>
</svg>
