<?xml version="1.0" encoding="UTF-8" standalone="no"?>
<!DOCTYPE svg PUBLIC "-//W3C//DTD SVG 1.1//EN"
 "http://www.w3.org/Graphics/SVG/1.1/DTD/svg11.dtd">
<!-- Generated by graphviz version 2.43.0 (0)
 -->
<!-- Title: binder Pages: 1 -->
<svg width="220pt" height="126pt"
 viewBox="0.00 0.00 220.00 126.00" xmlns="http://www.w3.org/2000/svg" xmlns:xlink="http://www.w3.org/1999/xlink">
<g id="graph0" class="graph" transform="scale(1 1) rotate(0) translate(4 122)">
<title>binder</title>
<polygon fill="white" stroke="transparent" points="-4,4 -4,-122 216,-122 216,4 -4,4"/>
<!-- m::com.android.server.DockObserver$BinderService.dump:(Ljava/io/FileDescriptor;Ljava/io/PrintWriter;[Ljava/lang/String;)V -->
<g id="node1" class="node">
<title>m::com.android.server.DockObserver$BinderService.dump:(Ljava/io/FileDescriptor;Ljava/io/PrintWriter;[Ljava/lang/String;)V</title>
<path fill="#eef2ff" stroke="#a5b4fc" stroke-width="2" d="M200,-118C200,-118 12,-118 12,-118 6,-118 0,-112 0,-106 0,-106 0,-94 0,-94 0,-88 6,-82 12,-82 12,-82 200,-82 200,-82 206,-82 212,-88 212,-94 212,-94 212,-106 212,-106 212,-112 206,-118 200,-118"/>
<text text-anchor="middle" x="106" y="-97.2" font-family="Helvetica,sans-Serif" font-size="11.00">DockObserver$BinderService.dump</text>
</g>
<!-- com.android.server.DockObserver.mLock -->
<g id="node2" class="node">
<title>com.android.server.DockObserver.mLock</title>
<path fill="#fee2e2" stroke="#dc2626" stroke-width="2" d="M160.5,-36C160.5,-36 51.5,-36 51.5,-36 45.5,-36 39.5,-30 39.5,-24 39.5,-24 39.5,-12 39.5,-12 39.5,-6 45.5,0 51.5,0 51.5,0 160.5,0 160.5,0 166.5,0 172.5,-6 172.5,-12 172.5,-12 172.5,-24 172.5,-24 172.5,-30 166.5,-36 160.5,-36"/>
<text text-anchor="middle" x="106" y="-15.2" font-family="Helvetica,sans-Serif" font-size="11.00">DockObserver.mLock</text>
</g>
<!-- m::com.android.server.DockObserver$BinderService.dump:(Ljava/io/FileDescriptor;Ljava/io/PrintWriter;[Ljava/lang/String;)V&#45;&gt;com.android.server.DockObserver.mLock -->
<g id="edge1" class="edge">
<title>m::com.android.server.DockObserver$BinderService.dump:(Ljava/io/FileDescriptor;Ljava/io/PrintWriter;[Ljava/lang/String;)V&#45;&gt;com.android.server.DockObserver.mLock</title>
<path fill="none" stroke="#dc2626" stroke-width="1.6" d="M106,-81.64C106,-70.66 106,-56.29 106,-44.09"/>
<polygon fill="#dc2626" stroke="#dc2626" stroke-width="1.6" points="108.8,-44.05 106,-36.05 103.2,-44.05 108.8,-44.05"/>
<text text-anchor="middle" x="127" y="-56.8" font-family="Helvetica,sans-Serif" font-size="9.00" fill="#dc2626"> acquires</text>
</g>
</g>
</svg>
