<?xml version="1.0" encoding="UTF-8" standalone="no"?>
<!DOCTYPE svg PUBLIC "-//W3C//DTD SVG 1.1//EN"
 "http://www.w3.org/Graphics/SVG/1.1/DTD/svg11.dtd">
<!-- Generated by graphviz version 2.43.0 (0)
 -->
<!-- Title: binder Pages: 1 -->
<svg width="316pt" height="126pt"
 viewBox="0.00 0.00 316.00 126.00" xmlns="http://www.w3.org/2000/svg" xmlns:xlink="http://www.w3.org/1999/xlink">
<g id="graph0" class="graph" transform="scale(1 1) rotate(0) translate(4 122)">
<title>binder</title>
<polygon fill="white" stroke="transparent" points="-4,4 -4,-122 312,-122 312,4 -4,4"/>
<!-- m::com.android.server.DynamicSystemService$GsiServiceCallback.onResult:(I)V -->
<g id="node1" class="node">
<title>m::com.android.server.DynamicSystemService$GsiServiceCallback.onResult:(I)V</title>
<path fill="#eef2ff" stroke="#a5b4fc" stroke-width="2" d="M296,-118C296,-118 12,-118 12,-118 6,-118 0,-112 0,-106 0,-106 0,-94 0,-94 0,-88 6,-82 12,-82 12,-82 296,-82 296,-82 302,-82 308,-88 308,-94 308,-94 308,-106 308,-106 308,-112 302,-118 296,-118"/>
<text text-anchor="middle" x="154" y="-97.2" font-family="Helvetica,sans-Serif" font-size="11.00">DynamicSystemService$GsiServiceCallback.onResult</text>
</g>
<!-- this -->
<g id="node2" class="node">
<title>this</title>
<path fill="#fee2e2" stroke="#dc2626" stroke-width="2" d="M169,-36C169,-36 139,-36 139,-36 133,-36 127,-30 127,-24 127,-24 127,-12 127,-12 127,-6 133,0 139,0 139,0 169,0 169,0 175,0 181,-6 181,-12 181,-12 181,-24 181,-24 181,-30 175,-36 169,-36"/>
<text text-anchor="middle" x="154" y="-15.2" font-family="Helvetica,sans-Serif" font-size="11.00">this</text>
</g>
<!-- m::com.android.server.DynamicSystemService$GsiServiceCallback.onResult:(I)V&#45;&gt;this -->
<g id="edge1" class="edge">
<title>m::com.android.server.DynamicSystemService$GsiServiceCallback.onResult:(I)V&#45;&gt;this</title>
<path fill="none" stroke="#dc2626" stroke-width="1.6" d="M154,-81.64C154,-70.66 154,-56.29 154,-44.09"/>
<polygon fill="#dc2626" stroke="#dc2626" stroke-width="1.6" points="156.8,-44.05 154,-36.05 151.2,-44.05 156.8,-44.05"/>
<text text-anchor="middle" x="175" y="-56.8" font-family="Helvetica,sans-Serif" font-size="9.00" fill="#dc2626"> acquires</text>
</g>
</g>
</svg>
