<?xml version="1.0" encoding="UTF-8" standalone="no"?>
<!DOCTYPE svg PUBLIC "-//W3C//DTD SVG 1.1//EN"
 "http://www.w3.org/Graphics/SVG/1.1/DTD/svg11.dtd">
<!-- Generated by graphviz version 2.43.0 (0)
 -->
<!-- Title: binder Pages: 1 -->
<svg width="166pt" height="199pt"
 viewBox="0.00 0.00 166.00 199.00" xmlns="http://www.w3.org/2000/svg" xmlns:xlink="http://www.w3.org/1999/xlink">
<g id="graph0" class="graph" transform="scale(1 1) rotate(0) translate(4 195)">
<title>binder</title>
<polygon fill="white" stroke="transparent" points="-4,4 -4,-195 162,-195 162,4 -4,4"/>
<!-- m::com.android.server.LooperStatsService.dump:(Ljava/io/FileDescriptor;Ljava/io/PrintWriter;[Ljava/lang/String;)V -->
<g id="node1" class="node">
<title>m::com.android.server.LooperStatsService.dump:(Ljava/io/FileDescriptor;Ljava/io/PrintWriter;[Ljava/lang/String;)V</title>
<path fill="#eef2ff" stroke="#a5b4fc" stroke-width="2" d="M146,-191C146,-191 12,-191 12,-191 6,-191 0,-185 0,-179 0,-179 0,-167 0,-167 0,-161 6,-155 12,-155 12,-155 146,-155 146,-155 152,-155 158,-161 158,-167 158,-167 158,-179 158,-179 158,-185 152,-191 146,-191"/>
<text text-anchor="middle" x="79" y="-170.2" font-family="Helvetica,sans-Serif" font-size="11.00">LooperStatsService.dump</text>
</g>
<!-- m::com.android.internal.util.jobs.FastPrintWriter.print:(Ljava/lang/String;)V -->
<g id="node2" class="node">
<title>m::com.android.internal.util.jobs.FastPrintWriter.print:(Ljava/lang/String;)V</title>
<path fill="#eef2ff" stroke="#a5b4fc" d="M130.5,-118C130.5,-118 27.5,-118 27.5,-118 21.5,-118 15.5,-112 15.5,-106 15.5,-106 15.5,-94 15.5,-94 15.5,-88 21.5,-82 27.5,-82 27.5,-82 130.5,-82 130.5,-82 136.5,-82 142.5,-88 142.5,-94 142.5,-94 142.5,-106 142.5,-106 142.5,-112 136.5,-118 130.5,-118"/>
<text text-anchor="middle" x="79" y="-97.2" font-family="Helvetica,sans-Serif" font-size="11.00">FastPrintWriter.print</text>
</g>
<!-- m::com.android.server.LooperStatsService.dump:(Ljava/io/FileDescriptor;Ljava/io/PrintWriter;[Ljava/lang/String;)V&#45;&gt;m::com.android.internal.util.jobs.FastPrintWriter.print:(Ljava/lang/String;)V -->
<g id="edge1" class="edge">
<title>m::com.android.server.LooperStatsService.dump:(Ljava/io/FileDescriptor;Ljava/io/PrintWriter;[Ljava/lang/String;)V&#45;&gt;m::com.android.internal.util.jobs.FastPrintWriter.print:(Ljava/lang/String;)V</title>
<path fill="none" stroke="#64748b" d="M79,-154.81C79,-146.18 79,-135.56 79,-126.03"/>
<polygon fill="#64748b" stroke="#64748b" points="81.8,-126.03 79,-118.03 76.2,-126.03 81.8,-126.03"/>
</g>
<!-- java.io.PrintWriter.lock -->
<g id="node3" class="node">
<title>java.io.PrintWriter.lock</title>
<path fill="#fee2e2" stroke="#dc2626" stroke-width="2" d="M117.5,-36C117.5,-36 40.5,-36 40.5,-36 34.5,-36 28.5,-30 28.5,-24 28.5,-24 28.5,-12 28.5,-12 28.5,-6 34.5,0 40.5,0 40.5,0 117.5,0 117.5,0 123.5,0 129.5,-6 129.5,-12 129.5,-12 129.5,-24 129.5,-24 129.5,-30 123.5,-36 117.5,-36"/>
<text text-anchor="middle" x="79" y="-15.2" font-family="Helvetica,sans-Serif" font-size="11.00">PrintWriter.lock</text>
</g>
<!-- m::com.android.internal.util.jobs.FastPrintWriter.print:(Ljava/lang/String;)V&#45;&gt;java.io.PrintWriter.lock -->
<g id="edge2" class="edge">
<title>m::com.android.internal.util.jobs.FastPrintWriter.print:(Ljava/lang/String;)V&#45;&gt;java.io.PrintWriter.lock</title>
<path fill="none" stroke="#dc2626" stroke-width="1.6" d="M79,-81.64C79,-70.66 79,-56.29 79,-44.09"/>
<polygon fill="#dc2626" stroke="#dc2626" stroke-width="1.6" points="81.8,-44.05 79,-36.05 76.2,-44.05 81.8,-44.05"/>
<text text-anchor="middle" x="100" y="-56.8" font-family="Helvetica,sans-Serif" font-size="9.00" fill="#dc2626"> acquires</text>
</g>
</g>
</svg>
