<?xml version="1.0" encoding="UTF-8" standalone="no"?>
<!DOCTYPE svg PUBLIC "-//W3C//DTD SVG 1.1//EN"
 "http://www.w3.org/Graphics/SVG/1.1/DTD/svg11.dtd">
<!-- Generated by graphviz version 2.43.0 (0)
 -->
<!-- Title: binder Pages: 1 -->
<svg width="223pt" height="272pt"
 viewBox="0.00 0.00 223.00 272.00" xmlns="http://www.w3.org/2000/svg" xmlns:xlink="http://www.w3.org/1999/xlink">
<g id="graph0" class="graph" transform="scale(1 1) rotate(0) translate(4 268)">
<title>binder</title>
<polygon fill="white" stroke="transparent" points="-4,4 -4,-268 219,-268 219,4 -4,4"/>
<!-- m::com.android.server.RuntimeService.dump:(Ljava/io/FileDescriptor;Ljava/io/PrintWriter;[Ljava/lang/String;)V -->
<g id="node1" class="node">
<title>m::com.android.server.RuntimeService.dump:(Ljava/io/FileDescriptor;Ljava/io/PrintWriter;[Ljava/lang/String;)V</title>
<path fill="#eef2ff" stroke="#a5b4fc" stroke-width="2" d="M164,-264C164,-264 51,-264 51,-264 45,-264 39,-258 39,-252 39,-252 39,-240 39,-240 39,-234 45,-228 51,-228 51,-228 164,-228 164,-228 170,-228 176,-234 176,-240 176,-240 176,-252 176,-252 176,-258 170,-264 164,-264"/>
<text text-anchor="middle" x="107.5" y="-243.2" font-family="Helvetica,sans-Serif" font-size="11.00">RuntimeService.dump</text>
</g>
<!-- m::com.android.server.RuntimeService.reportTimeZoneInfo:(Lcom/android/i18n/timezone/DebugInfo;Ljava/io/PrintWriter;)V -->
<g id="node2" class="node">
<title>m::com.android.server.RuntimeService.reportTimeZoneInfo:(Lcom/android/i18n/timezone/DebugInfo;Ljava/io/PrintWriter;)V</title>
<path fill="#eef2ff" stroke="#a5b4fc" d="M203,-191C203,-191 12,-191 12,-191 6,-191 0,-185 0,-179 0,-179 0,-167 0,-167 0,-161 6,-155 12,-155 12,-155 203,-155 203,-155 209,-155 215,-161 215,-167 215,-167 215,-179 215,-179 215,-185 209,-191 203,-191"/>
<text text-anchor="middle" x="107.5" y="-170.2" font-family="Helvetica,sans-Serif" font-size="11.00">RuntimeService.reportTimeZoneInfo</text>
</g>
<!-- m::com.android.server.RuntimeService.dump:(Ljava/io/FileDescriptor;Ljava/io/PrintWriter;[Ljava/lang/String;)V&#45;&gt;m::com.android.server.RuntimeService.reportTimeZoneInfo:(Lcom/android/i18n/timezone/DebugInfo;Ljava/io/PrintWriter;)V -->
<g id="edge1" class="edge">
<title>m::com.android.server.RuntimeService.dump:(Ljava/io/FileDescriptor;Ljava/io/PrintWriter;[Ljava/lang/String;)V&#45;&gt;m::com.android.server.RuntimeService.reportTimeZoneInfo:(Lcom/android/i18n/timezone/DebugInfo;Ljava/io/PrintWriter;)V</title>
<path fill="none" stroke="#64748b" d="M107.5,-227.81C107.5,-219.18 107.5,-208.56 107.5,-199.03"/>
<polygon fill="#64748b" stroke="#64748b" points="110.3,-199.03 107.5,-191.03 104.7,-199.03 110.3,-199.03"/>
</g>
<!-- m::com.android.internal.util.jobs.FastPrintWriter.print:(Ljava/lang/String;)V -->
<g id="node3" class="node">
<title>m::com.android.internal.util.jobs.FastPrintWriter.print:(Ljava/lang/String;)V</title>
<path fill="#eef2ff" stroke="#a5b4fc" d="M159,-118C159,-118 56,-118 56,-118 50,-118 44,-112 44,-106 44,-106 44,-94 44,-94 44,-88 50,-82 56,-82 56,-82 159,-82 159,-82 165,-82 171,-88 171,-94 171,-94 171,-106 171,-106 171,-112 165,-118 159,-118"/>
<text text-anchor="middle" x="107.5" y="-97.2" font-family="Helvetica,sans-Serif" font-size="11.00">FastPrintWriter.print</text>
</g>
<!-- m::com.android.server.RuntimeService.reportTimeZoneInfo:(Lcom/android/i18n/timezone/DebugInfo;Ljava/io/PrintWriter;)V&#45;&gt;m::com.android.internal.util.jobs.FastPrintWriter.print:(Ljava/lang/String;)V -->
<g id="edge2" class="edge">
<title>m::com.android.server.RuntimeService.reportTimeZoneInfo:(Lcom/android/i18n/timezone/DebugInfo;Ljava/io/PrintWriter;)V&#45;&gt;m::com.android.internal.util.jobs.FastPrintWriter.print:(Ljava/lang/String;)V</title>
<path fill="none" stroke="#64748b" d="M107.5,-154.81C107.5,-146.18 107.5,-135.56 107.5,-126.03"/>
<polygon fill="#64748b" stroke="#64748b" points="110.3,-126.03 107.5,-118.03 104.7,-126.03 110.3,-126.03"/>
</g>
<!-- java.io.PrintWriter.lock -->
<g id="node4" class="node">
<title>java.io.PrintWriter.lock</title>
<path fill="#fee2e2" stroke="#dc2626" stroke-width="2" d="M146,-36C146,-36 69,-36 69,-36 63,-36 57,-30 57,-24 57,-24 57,-12 57,-12 57,-6 63,0 69,0 69,0 146,0 146,0 152,0 158,-6 158,-12 158,-12 158,-24 158,-24 158,-30 152,-36 146,-36"/>
<text text-anchor="middle" x="107.5" y="-15.2" font-family="Helvetica,sans-Serif" font-size="11.00">PrintWriter.lock</text>
</g>
<!-- m::com.android.internal.util.jobs.FastPrintWriter.print:(Ljava/lang/String;)V&#45;&gt;java.io.PrintWriter.lock -->
<g id="edge3" class="edge">
<title>m::com.android.internal.util.jobs.FastPrintWriter.print:(Ljava/lang/String;)V&#45;&gt;java.io.PrintWriter.lock</title>
<path fill="none" stroke="#dc2626" stroke-width="1.6" d="M107.5,-81.64C107.5,-70.66 107.5,-56.29 107.5,-44.09"/>
<polygon fill="#dc2626" stroke="#dc2626" stroke-width="1.6" points="110.3,-44.05 107.5,-36.05 104.7,-44.05 110.3,-44.05"/>
<text text-anchor="middle" x="128.5" y="-56.8" font-family="Helvetica,sans-Serif" font-size="9.00" fill="#dc2626"> acquires</text>
</g>
</g>
</svg>
