<?xml version="1.0" encoding="UTF-8" standalone="no"?>
<!DOCTYPE svg PUBLIC "-//W3C//DTD SVG 1.1//EN"
 "http://www.w3.org/Graphics/SVG/1.1/DTD/svg11.dtd">
<!-- Generated by graphviz version 2.43.0 (0)
 -->
<!-- Title: binder Pages: 1 -->
<svg width="229pt" height="126pt"
 viewBox="0.00 0.00 229.00 126.00" xmlns="http://www.w3.org/2000/svg" xmlns:xlink="http://www.w3.org/1999/xlink">
<g id="graph0" class="graph" transform="scale(1 1) rotate(0) translate(4 122)">
<title>binder</title>
<polygon fill="white" stroke="transparent" points="-4,4 -4,-122 225,-122 225,4 -4,4"/>
<!-- m::com.android.server.StorageManagerService$10.onStatus:(ILandroid/os/PersistableBundle;)V -->
<g id="node1" class="node">
<title>m::com.android.server.StorageManagerService$10.onStatus:(ILandroid/os/PersistableBundle;)V</title>
<path fill="#eef2ff" stroke="#a5b4fc" stroke-width="2" d="M209,-118C209,-118 12,-118 12,-118 6,-118 0,-112 0,-106 0,-106 0,-94 0,-94 0,-88 6,-82 12,-82 12,-82 209,-82 209,-82 215,-82 221,-88 221,-94 221,-94 221,-106 221,-106 221,-112 215,-118 209,-118"/>
<text text-anchor="middle" x="110.5" y="-97.2" font-family="Helvetica,sans-Serif" font-size="11.00">StorageManagerService$10.onStatus</text>
</g>
<!-- com.android.server.StorageManagerService.mLock -->
<g id="node2" class="node">
<title>com.android.server.StorageManagerService.mLock</title>
<path fill="#fee2e2" stroke="#dc2626" stroke-width="2" d="M192,-36C192,-36 29,-36 29,-36 23,-36 17,-30 17,-24 17,-24 17,-12 17,-12 17,-6 23,0 29,0 29,0 192,0 192,0 198,0 204,-6 204,-12 204,-12 204,-24 204,-24 204,-30 198,-36 192,-36"/>
<text text-anchor="middle" x="110.5" y="-15.2" font-family="Helvetica,sans-Serif" font-size="11.00">StorageManagerService.mLock</text>
</g>
<!-- m::com.android.server.StorageManagerService$10.onStatus:(ILandroid/os/PersistableBundle;)V&#45;&gt;com.android.server.StorageManagerService.mLock -->
<g id="edge1" class="edge">
<title>m::com.android.server.StorageManagerService$10.onStatus:(ILandroid/os/PersistableBundle;)V&#45;&gt;com.android.server.StorageManagerService.mLock</title>
<path fill="none" stroke="#dc2626" stroke-width="1.6" d="M110.5,-81.64C110.5,-70.66 110.5,-56.29 110.5,-44.09"/>
<polygon fill="#dc2626" stroke="#dc2626" stroke-width="1.6" points="113.3,-44.05 110.5,-36.05 107.7,-44.05 113.3,-44.05"/>
<text text-anchor="middle" x="131.5" y="-56.8" font-family="Helvetica,sans-Serif" font-size="9.00" fill="#dc2626"> acquires</text>
</g>
</g>
</svg>
