<?xml version="1.0" encoding="UTF-8" standalone="no"?>
<!DOCTYPE svg PUBLIC "-//W3C//DTD SVG 1.1//EN"
 "http://www.w3.org/Graphics/SVG/1.1/DTD/svg11.dtd">
<!-- Generated by graphviz version 2.43.0 (0)
 -->
<!-- Title: binder Pages: 1 -->
<svg width="253pt" height="126pt"
 viewBox="0.00 0.00 253.00 126.00" xmlns="http://www.w3.org/2000/svg" xmlns:xlink="http://www.w3.org/1999/xlink">
<g id="graph0" class="graph" transform="scale(1 1) rotate(0) translate(4 122)">
<title>binder</title>
<polygon fill="white" stroke="transparent" points="-4,4 -4,-122 249,-122 249,4 -4,4"/>
<!-- m::com.android.server.StorageManagerService$3.onDiskCreated:(Ljava/lang/String;I)V -->
<g id="node1" class="node">
<title>m::com.android.server.StorageManagerService$3.onDiskCreated:(Ljava/lang/String;I)V</title>
<path fill="#eef2ff" stroke="#a5b4fc" stroke-width="2" d="M233,-118C233,-118 12,-118 12,-118 6,-118 0,-112 0,-106 0,-106 0,-94 0,-94 0,-88 6,-82 12,-82 12,-82 233,-82 233,-82 239,-82 245,-88 245,-94 245,-94 245,-106 245,-106 245,-112 239,-118 233,-118"/>
<text text-anchor="middle" x="122.5" y="-97.2" font-family="Helvetica,sans-Serif" font-size="11.00">StorageManagerService$3.onDiskCreated</text>
</g>
<!-- com.android.server.StorageManagerService.mLock -->
<g id="node2" class="node">
<title>com.android.server.StorageManagerService.mLock</title>
<path fill="#fee2e2" stroke="#dc2626" stroke-width="2" d="M204,-36C204,-36 41,-36 41,-36 35,-36 29,-30 29,-24 29,-24 29,-12 29,-12 29,-6 35,0 41,0 41,0 204,0 204,0 210,0 216,-6 216,-12 216,-12 216,-24 216,-24 216,-30 210,-36 204,-36"/>
<text text-anchor="middle" x="122.5" y="-15.2" font-family="Helvetica,sans-Serif" font-size="11.00">StorageManagerService.mLock</text>
</g>
<!-- m::com.android.server.StorageManagerService$3.onDiskCreated:(Ljava/lang/String;I)V&#45;&gt;com.android.server.StorageManagerService.mLock -->
<g id="edge1" class="edge">
<title>m::com.android.server.StorageManagerService$3.onDiskCreated:(Ljava/lang/String;I)V&#45;&gt;com.android.server.StorageManagerService.mLock</title>
<path fill="none" stroke="#dc2626" stroke-width="1.6" d="M122.5,-81.64C122.5,-70.66 122.5,-56.29 122.5,-44.09"/>
<polygon fill="#dc2626" stroke="#dc2626" stroke-width="1.6" points="125.3,-44.05 122.5,-36.05 119.7,-44.05 125.3,-44.05"/>
<text text-anchor="middle" x="143.5" y="-56.8" font-family="Helvetica,sans-Serif" font-size="9.00" fill="#dc2626"> acquires</text>
</g>
</g>
</svg>
