<?xml version="1.0" encoding="UTF-8" standalone="no"?>
<!DOCTYPE svg PUBLIC "-//W3C//DTD SVG 1.1//EN"
 "http://www.w3.org/Graphics/SVG/1.1/DTD/svg11.dtd">
<!-- Generated by graphviz version 2.43.0 (0)
 -->
<!-- Title: binder Pages: 1 -->
<svg width="267pt" height="126pt"
 viewBox="0.00 0.00 267.00 126.00" xmlns="http://www.w3.org/2000/svg" xmlns:xlink="http://www.w3.org/1999/xlink">
<g id="graph0" class="graph" transform="scale(1 1) rotate(0) translate(4 122)">
<title>binder</title>
<polygon fill="white" stroke="transparent" points="-4,4 -4,-122 263,-122 263,4 -4,4"/>
<!-- m::com.android.server.StorageManagerService$3.onDiskDestroyed:(Ljava/lang/String;)V -->
<g id="node1" class="node">
<title>m::com.android.server.StorageManagerService$3.onDiskDestroyed:(Ljava/lang/String;)V</title>
<path fill="#eef2ff" stroke="#a5b4fc" stroke-width="2" d="M247,-118C247,-118 12,-118 12,-118 6,-118 0,-112 0,-106 0,-106 0,-94 0,-94 0,-88 6,-82 12,-82 12,-82 247,-82 247,-82 253,-82 259,-88 259,-94 259,-94 259,-106 259,-106 259,-112 253,-118 247,-118"/>
<text text-anchor="middle" x="129.5" y="-97.2" font-family="Helvetica,sans-Serif" font-size="11.00">StorageManagerService$3.onDiskDestroyed</text>
</g>
<!-- com.android.server.StorageManagerService.mLock -->
<g id="node2" class="node">
<title>com.android.server.StorageManagerService.mLock</title>
<path fill="#fee2e2" stroke="#dc2626" stroke-width="2" d="M211,-36C211,-36 48,-36 48,-36 42,-36 36,-30 36,-24 36,-24 36,-12 36,-12 36,-6 42,0 48,0 48,0 211,0 211,0 217,0 223,-6 223,-12 223,-12 223,-24 223,-24 223,-30 217,-36 211,-36"/>
<text text-anchor="middle" x="129.5" y="-15.2" font-family="Helvetica,sans-Serif" font-size="11.00">StorageManagerService.mLock</text>
</g>
<!-- m::com.android.server.StorageManagerService$3.onDiskDestroyed:(Ljava/lang/String;)V&#45;&gt;com.android.server.StorageManagerService.mLock -->
<g id="edge1" class="edge">
<title>m::com.android.server.StorageManagerService$3.onDiskDestroyed:(Ljava/lang/String;)V&#45;&gt;com.android.server.StorageManagerService.mLock</title>
<path fill="none" stroke="#dc2626" stroke-width="1.6" d="M129.5,-81.64C129.5,-70.66 129.5,-56.29 129.5,-44.09"/>
<polygon fill="#dc2626" stroke="#dc2626" stroke-width="1.6" points="132.3,-44.05 129.5,-36.05 126.7,-44.05 132.3,-44.05"/>
<text text-anchor="middle" x="150.5" y="-56.8" font-family="Helvetica,sans-Serif" font-size="9.00" fill="#dc2626"> acquires</text>
</g>
</g>
</svg>
