<?xml version="1.0" encoding="UTF-8" standalone="no"?>
<!DOCTYPE svg PUBLIC "-//W3C//DTD SVG 1.1//EN"
 "http://www.w3.org/Graphics/SVG/1.1/DTD/svg11.dtd">
<!-- Generated by graphviz version 2.43.0 (0)
 -->
<!-- Title: binder Pages: 1 -->
<svg width="310pt" height="126pt"
 viewBox="0.00 0.00 310.00 126.00" xmlns="http://www.w3.org/2000/svg" xmlns:xlink="http://www.w3.org/1999/xlink">
<g id="graph0" class="graph" transform="scale(1 1) rotate(0) translate(4 122)">
<title>binder</title>
<polygon fill="white" stroke="transparent" points="-4,4 -4,-122 306,-122 306,4 -4,4"/>
<!-- m::com.android.server.StorageManagerService$3.onDiskMetadataChanged:(Ljava/lang/String;JLjava/lang/String;Ljava/lang/String;)V -->
<g id="node1" class="node">
<title>m::com.android.server.StorageManagerService$3.onDiskMetadataChanged:(Ljava/lang/String;JLjava/lang/String;Ljava/lang/String;)V</title>
<path fill="#eef2ff" stroke="#a5b4fc" stroke-width="2" d="M290,-118C290,-118 12,-118 12,-118 6,-118 0,-112 0,-106 0,-106 0,-94 0,-94 0,-88 6,-82 12,-82 12,-82 290,-82 290,-82 296,-82 302,-88 302,-94 302,-94 302,-106 302,-106 302,-112 296,-118 290,-118"/>
<text text-anchor="middle" x="151" y="-97.2" font-family="Helvetica,sans-Serif" font-size="11.00">StorageManagerService$3.onDiskMetadataChanged</text>
</g>
<!-- com.android.server.StorageManagerService.mLock -->
<g id="node2" class="node">
<title>com.android.server.StorageManagerService.mLock</title>
<path fill="#fee2e2" stroke="#dc2626" stroke-width="2" d="M232.5,-36C232.5,-36 69.5,-36 69.5,-36 63.5,-36 57.5,-30 57.5,-24 57.5,-24 57.5,-12 57.5,-12 57.5,-6 63.5,0 69.5,0 69.5,0 232.5,0 232.5,0 238.5,0 244.5,-6 244.5,-12 244.5,-12 244.5,-24 244.5,-24 244.5,-30 238.5,-36 232.5,-36"/>
<text text-anchor="middle" x="151" y="-15.2" font-family="Helvetica,sans-Serif" font-size="11.00">StorageManagerService.mLock</text>
</g>
<!-- m::com.android.server.StorageManagerService$3.onDiskMetadataChanged:(Ljava/lang/String;JLjava/lang/String;Ljava/lang/String;)V&#45;&gt;com.android.server.StorageManagerService.mLock -->
<g id="edge1" class="edge">
<title>m::com.android.server.StorageManagerService$3.onDiskMetadataChanged:(Ljava/lang/String;JLjava/lang/String;Ljava/lang/String;)V&#45;&gt;com.android.server.StorageManagerService.mLock</title>
<path fill="none" stroke="#dc2626" stroke-width="1.6" d="M151,-81.64C151,-70.66 151,-56.29 151,-44.09"/>
<polygon fill="#dc2626" stroke="#dc2626" stroke-width="1.6" points="153.8,-44.05 151,-36.05 148.2,-44.05 153.8,-44.05"/>
<text text-anchor="middle" x="172" y="-56.8" font-family="Helvetica,sans-Serif" font-size="9.00" fill="#dc2626"> acquires</text>
</g>
</g>
</svg>
