<?xml version="1.0" encoding="UTF-8" standalone="no"?>
<!DOCTYPE svg PUBLIC "-//W3C//DTD SVG 1.1//EN"
 "http://www.w3.org/Graphics/SVG/1.1/DTD/svg11.dtd">
<!-- Generated by graphviz version 2.43.0 (0)
 -->
<!-- Title: binder Pages: 1 -->
<svg width="256pt" height="126pt"
 viewBox="0.00 0.00 256.00 126.00" xmlns="http://www.w3.org/2000/svg" xmlns:xlink="http://www.w3.org/1999/xlink">
<g id="graph0" class="graph" transform="scale(1 1) rotate(0) translate(4 122)">
<title>binder</title>
<polygon fill="white" stroke="transparent" points="-4,4 -4,-122 252,-122 252,4 -4,4"/>
<!-- m::com.android.server.StorageManagerService$3.onDiskScanned:(Ljava/lang/String;)V -->
<g id="node1" class="node">
<title>m::com.android.server.StorageManagerService$3.onDiskScanned:(Ljava/lang/String;)V</title>
<path fill="#eef2ff" stroke="#a5b4fc" stroke-width="2" d="M236,-118C236,-118 12,-118 12,-118 6,-118 0,-112 0,-106 0,-106 0,-94 0,-94 0,-88 6,-82 12,-82 12,-82 236,-82 236,-82 242,-82 248,-88 248,-94 248,-94 248,-106 248,-106 248,-112 242,-118 236,-118"/>
<text text-anchor="middle" x="124" y="-97.2" font-family="Helvetica,sans-Serif" font-size="11.00">StorageManagerService$3.onDiskScanned</text>
</g>
<!-- com.android.server.StorageManagerService.mLock -->
<g id="node2" class="node">
<title>com.android.server.StorageManagerService.mLock</title>
<path fill="#fee2e2" stroke="#dc2626" stroke-width="2" d="M205.5,-36C205.5,-36 42.5,-36 42.5,-36 36.5,-36 30.5,-30 30.5,-24 30.5,-24 30.5,-12 30.5,-12 30.5,-6 36.5,0 42.5,0 42.5,0 205.5,0 205.5,0 211.5,0 217.5,-6 217.5,-12 217.5,-12 217.5,-24 217.5,-24 217.5,-30 211.5,-36 205.5,-36"/>
<text text-anchor="middle" x="124" y="-15.2" font-family="Helvetica,sans-Serif" font-size="11.00">StorageManagerService.mLock</text>
</g>
<!-- m::com.android.server.StorageManagerService$3.onDiskScanned:(Ljava/lang/String;)V&#45;&gt;com.android.server.StorageManagerService.mLock -->
<g id="edge1" class="edge">
<title>m::com.android.server.StorageManagerService$3.onDiskScanned:(Ljava/lang/String;)V&#45;&gt;com.android.server.StorageManagerService.mLock</title>
<path fill="none" stroke="#dc2626" stroke-width="1.6" d="M124,-81.64C124,-70.66 124,-56.29 124,-44.09"/>
<polygon fill="#dc2626" stroke="#dc2626" stroke-width="1.6" points="126.8,-44.05 124,-36.05 121.2,-44.05 126.8,-44.05"/>
<text text-anchor="middle" x="145" y="-56.8" font-family="Helvetica,sans-Serif" font-size="9.00" fill="#dc2626"> acquires</text>
</g>
</g>
</svg>
