<?xml version="1.0" encoding="UTF-8" standalone="no"?>
<!DOCTYPE svg PUBLIC "-//W3C//DTD SVG 1.1//EN"
 "http://www.w3.org/Graphics/SVG/1.1/DTD/svg11.dtd">
<!-- Generated by graphviz version 2.43.0 (0)
 -->
<!-- Title: binder Pages: 1 -->
<svg width="708pt" height="509pt"
 viewBox="0.00 0.00 708.00 509.00" xmlns="http://www.w3.org/2000/svg" xmlns:xlink="http://www.w3.org/1999/xlink">
<g id="graph0" class="graph" transform="scale(1 1) rotate(0) translate(4 505)">
<title>binder</title>
<polygon fill="white" stroke="transparent" points="-4,4 -4,-505 704,-505 704,4 -4,4"/>
<!-- m::com.android.server.StorageManagerService$3.onVolumeCreated:(Ljava/lang/String;ILjava/lang/String;Ljava/lang/String;I)V -->
<g id="node1" class="node">
<title>m::com.android.server.StorageManagerService$3.onVolumeCreated:(Ljava/lang/String;ILjava/lang/String;Ljava/lang/String;I)V</title>
<path fill="#eef2ff" stroke="#a5b4fc" stroke-width="2" d="M475,-501C475,-501 236,-501 236,-501 230,-501 224,-495 224,-489 224,-489 224,-477 224,-477 224,-471 230,-465 236,-465 236,-465 475,-465 475,-465 481,-465 487,-471 487,-477 487,-477 487,-489 487,-489 487,-495 481,-501 475,-501"/>
<text text-anchor="middle" x="355.5" y="-480.2" font-family="Helvetica,sans-Serif" font-size="11.00">StorageManagerService$3.onVolumeCreated</text>
</g>
<!-- com.android.server.StorageManagerService.mLock -->
<g id="node2" class="node">
<title>com.android.server.StorageManagerService.mLock</title>
<path fill="#fee2e2" stroke="#dc2626" stroke-width="2" d="M175,-419C175,-419 12,-419 12,-419 6,-419 0,-413 0,-407 0,-407 0,-395 0,-395 0,-389 6,-383 12,-383 12,-383 175,-383 175,-383 181,-383 187,-389 187,-395 187,-395 187,-407 187,-407 187,-413 181,-419 175,-419"/>
<text text-anchor="middle" x="93.5" y="-398.2" font-family="Helvetica,sans-Serif" font-size="11.00">StorageManagerService.mLock</text>
</g>
<!-- m::com.android.server.StorageManagerService$3.onVolumeCreated:(Ljava/lang/String;ILjava/lang/String;Ljava/lang/String;I)V&#45;&gt;com.android.server.StorageManagerService.mLock -->
<g id="edge1" class="edge">
<title>m::com.android.server.StorageManagerService$3.onVolumeCreated:(Ljava/lang/String;ILjava/lang/String;Ljava/lang/String;I)V&#45;&gt;com.android.server.StorageManagerService.mLock</title>
<path fill="none" stroke="#dc2626" stroke-width="1.6" d="M299.62,-464.94C257.79,-452.17 200.54,-434.68 156.99,-421.39"/>
<polygon fill="#dc2626" stroke="#dc2626" stroke-width="1.6" points="157.77,-418.7 149.3,-419.04 156.13,-424.05 157.77,-418.7"/>
<text text-anchor="middle" x="261.5" y="-439.8" font-family="Helvetica,sans-Serif" font-size="9.00" fill="#dc2626"> acquires</text>
</g>
<!-- m::com.android.server.StorageManagerService.&#45;$$Nest$monVolumeCreatedLocked:(Lcom/android/server/StorageManagerService;Lcom/android/server/storage/WatchedVolumeInfo;)V -->
<g id="node3" class="node">
<title>m::com.android.server.StorageManagerService.&#45;$$Nest$monVolumeCreatedLocked:(Lcom/android/server/StorageManagerService;Lcom/android/server/storage/WatchedVolumeInfo;)V</title>
<path fill="#eef2ff" stroke="#a5b4fc" d="M487,-419C487,-419 224,-419 224,-419 218,-419 212,-413 212,-407 212,-407 212,-395 212,-395 212,-389 218,-383 224,-383 224,-383 487,-383 487,-383 493,-383 499,-389 499,-395 499,-395 499,-407 499,-407 499,-413 493,-419 487,-419"/>
<text text-anchor="middle" x="355.5" y="-398.2" font-family="Helvetica,sans-Serif" font-size="11.00">StorageManagerService.onVolumeCreatedLocked</text>
</g>
<!-- m::com.android.server.StorageManagerService$3.onVolumeCreated:(Ljava/lang/String;ILjava/lang/String;Ljava/lang/String;I)V&#45;&gt;m::com.android.server.StorageManagerService.&#45;$$Nest$monVolumeCreatedLocked:(Lcom/android/server/StorageManagerService;Lcom/android/server/storage/WatchedVolumeInfo;)V -->
<g id="edge2" class="edge">
<title>m::com.android.server.StorageManagerService$3.onVolumeCreated:(Ljava/lang/String;ILjava/lang/String;Ljava/lang/String;I)V&#45;&gt;m::com.android.server.StorageManagerService.&#45;$$Nest$monVolumeCreatedLocked:(Lcom/android/server/StorageManagerService;Lcom/android/server/storage/WatchedVolumeInfo;)V</title>
<path fill="none" stroke="#64748b" d="M355.5,-464.64C355.5,-453.66 355.5,-439.29 355.5,-427.09"/>
<polygon fill="#64748b" stroke="#64748b" points="358.3,-427.05 355.5,-419.05 352.7,-427.05 358.3,-427.05"/>
</g>
<!-- m::com.android.server.utils.WatchedArrayMap.put:(Ljava/lang/Object;Ljava/lang/Object;)Ljava/lang/Object; -->
<g id="node9" class="node">
<title>m::com.android.server.utils.WatchedArrayMap.put:(Ljava/lang/Object;Ljava/lang/Object;)Ljava/lang/Object;</title>
<path fill="#eef2ff" stroke="#a5b4fc" d="M658.5,-419C658.5,-419 542.5,-419 542.5,-419 536.5,-419 530.5,-413 530.5,-407 530.5,-407 530.5,-395 530.5,-395 530.5,-389 536.5,-383 542.5,-383 542.5,-383 658.5,-383 658.5,-383 664.5,-383 670.5,-389 670.5,-395 670.5,-395 670.5,-407 670.5,-407 670.5,-413 664.5,-419 658.5,-419"/>
<text text-anchor="middle" x="600.5" y="-398.2" font-family="Helvetica,sans-Serif" font-size="11.00">WatchedArrayMap.put</text>
</g>
<!-- m::com.android.server.StorageManagerService$3.onVolumeCreated:(Ljava/lang/String;ILjava/lang/String;Ljava/lang/String;I)V&#45;&gt;m::com.android.server.utils.WatchedArrayMap.put:(Ljava/lang/Object;Ljava/lang/Object;)Ljava/lang/Object; -->
<g id="edge8" class="edge">
<title>m::com.android.server.StorageManagerService$3.onVolumeCreated:(Ljava/lang/String;ILjava/lang/String;Ljava/lang/String;I)V&#45;&gt;m::com.android.server.utils.WatchedArrayMap.put:(Ljava/lang/Object;Ljava/lang/Object;)Ljava/lang/Object;</title>
<path fill="none" stroke="#64748b" d="M407.76,-464.94C446.71,-452.22 499.96,-434.83 540.62,-421.55"/>
<polygon fill="#64748b" stroke="#64748b" points="541.59,-424.18 548.32,-419.04 539.85,-418.86 541.59,-424.18"/>
</g>
<!-- m::com.android.server.StorageManagerService.onVolumeCreatedLocked:(Lcom/android/server/storage/WatchedVolumeInfo;)V -->
<g id="node4" class="node">
<title>m::com.android.server.StorageManagerService.onVolumeCreatedLocked:(Lcom/android/server/storage/WatchedVolumeInfo;)V</title>
<path fill="#eef2ff" stroke="#a5b4fc" d="M474,-346C474,-346 211,-346 211,-346 205,-346 199,-340 199,-334 199,-334 199,-322 199,-322 199,-316 205,-310 211,-310 211,-310 474,-310 474,-310 480,-310 486,-316 486,-322 486,-322 486,-334 486,-334 486,-340 480,-346 474,-346"/>
<text text-anchor="middle" x="342.5" y="-325.2" font-family="Helvetica,sans-Serif" font-size="11.00">StorageManagerService.onVolumeCreatedLocked</text>
</g>
<!-- m::com.android.server.StorageManagerService.&#45;$$Nest$monVolumeCreatedLocked:(Lcom/android/server/StorageManagerService;Lcom/android/server/storage/WatchedVolumeInfo;)V&#45;&gt;m::com.android.server.StorageManagerService.onVolumeCreatedLocked:(Lcom/android/server/storage/WatchedVolumeInfo;)V -->
<g id="edge3" class="edge">
<title>m::com.android.server.StorageManagerService.&#45;$$Nest$monVolumeCreatedLocked:(Lcom/android/server/StorageManagerService;Lcom/android/server/storage/WatchedVolumeInfo;)V&#45;&gt;m::com.android.server.StorageManagerService.onVolumeCreatedLocked:(Lcom/android/server/storage/WatchedVolumeInfo;)V</title>
<path fill="none" stroke="#64748b" d="M352.35,-382.81C350.77,-374.18 348.83,-363.56 347.08,-354.03"/>
<polygon fill="#64748b" stroke="#64748b" points="349.81,-353.39 345.62,-346.03 344.3,-354.4 349.81,-353.39"/>
</g>
<!-- m::com.android.server.am.ActivityManagerService$LocalService.isUserRunning:(II)Z -->
<g id="node5" class="node">
<title>m::com.android.server.am.ActivityManagerService$LocalService.isUserRunning:(II)Z</title>
<path fill="#eef2ff" stroke="#a5b4fc" d="M474,-273C474,-273 193,-273 193,-273 187,-273 181,-267 181,-261 181,-261 181,-249 181,-249 181,-243 187,-237 193,-237 193,-237 474,-237 474,-237 480,-237 486,-243 486,-249 486,-249 486,-261 486,-261 486,-267 480,-273 474,-273"/>
<text text-anchor="middle" x="333.5" y="-252.2" font-family="Helvetica,sans-Serif" font-size="11.00">ActivityManagerService$LocalService.isUserRunning</text>
</g>
<!-- m::com.android.server.StorageManagerService.onVolumeCreatedLocked:(Lcom/android/server/storage/WatchedVolumeInfo;)V&#45;&gt;m::com.android.server.am.ActivityManagerService$LocalService.isUserRunning:(II)Z -->
<g id="edge4" class="edge">
<title>m::com.android.server.StorageManagerService.onVolumeCreatedLocked:(Lcom/android/server/storage/WatchedVolumeInfo;)V&#45;&gt;m::com.android.server.am.ActivityManagerService$LocalService.isUserRunning:(II)Z</title>
<path fill="none" stroke="#64748b" d="M340.32,-309.81C339.23,-301.18 337.88,-290.56 336.67,-281.03"/>
<polygon fill="#64748b" stroke="#64748b" points="339.44,-280.61 335.66,-273.03 333.89,-281.32 339.44,-280.61"/>
</g>
<!-- m::com.android.server.am.UserController.isUserRunning:(II)Z -->
<g id="node6" class="node">
<title>m::com.android.server.am.UserController.isUserRunning:(II)Z</title>
<path fill="#eef2ff" stroke="#a5b4fc" d="M410.5,-191C410.5,-191 256.5,-191 256.5,-191 250.5,-191 244.5,-185 244.5,-179 244.5,-179 244.5,-167 244.5,-167 244.5,-161 250.5,-155 256.5,-155 256.5,-155 410.5,-155 410.5,-155 416.5,-155 422.5,-161 422.5,-167 422.5,-167 422.5,-179 422.5,-179 422.5,-185 416.5,-191 410.5,-191"/>
<text text-anchor="middle" x="333.5" y="-170.2" font-family="Helvetica,sans-Serif" font-size="11.00">UserController.isUserRunning</text>
</g>
<!-- m::com.android.server.am.ActivityManagerService$LocalService.isUserRunning:(II)Z&#45;&gt;m::com.android.server.am.UserController.isUserRunning:(II)Z -->
<g id="edge5" class="edge">
<title>m::com.android.server.am.ActivityManagerService$LocalService.isUserRunning:(II)Z&#45;&gt;m::com.android.server.am.UserController.isUserRunning:(II)Z</title>
<path fill="none" stroke="#64748b" d="M333.5,-236.64C333.5,-225.66 333.5,-211.29 333.5,-199.09"/>
<polygon fill="#64748b" stroke="#64748b" points="336.3,-199.05 333.5,-191.05 330.7,-199.05 336.3,-199.05"/>
</g>
<!-- m::com.android.server.am.UserController.getStartedUserState:(I)Lcom/android/server/am/UserState; -->
<g id="node7" class="node">
<title>m::com.android.server.am.UserController.getStartedUserState:(I)Lcom/android/server/am/UserState;</title>
<path fill="#eef2ff" stroke="#a5b4fc" d="M427.5,-118C427.5,-118 239.5,-118 239.5,-118 233.5,-118 227.5,-112 227.5,-106 227.5,-106 227.5,-94 227.5,-94 227.5,-88 233.5,-82 239.5,-82 239.5,-82 427.5,-82 427.5,-82 433.5,-82 439.5,-88 439.5,-94 439.5,-94 439.5,-106 439.5,-106 439.5,-112 433.5,-118 427.5,-118"/>
<text text-anchor="middle" x="333.5" y="-97.2" font-family="Helvetica,sans-Serif" font-size="11.00">UserController.getStartedUserState</text>
</g>
<!-- m::com.android.server.am.UserController.isUserRunning:(II)Z&#45;&gt;m::com.android.server.am.UserController.getStartedUserState:(I)Lcom/android/server/am/UserState; -->
<g id="edge6" class="edge">
<title>m::com.android.server.am.UserController.isUserRunning:(II)Z&#45;&gt;m::com.android.server.am.UserController.getStartedUserState:(I)Lcom/android/server/am/UserState;</title>
<path fill="none" stroke="#64748b" d="M333.5,-154.81C333.5,-146.18 333.5,-135.56 333.5,-126.03"/>
<polygon fill="#64748b" stroke="#64748b" points="336.3,-126.03 333.5,-118.03 330.7,-126.03 336.3,-126.03"/>
</g>
<!-- com.android.server.am.UserController.mLock -->
<g id="node8" class="node">
<title>com.android.server.am.UserController.mLock</title>
<path fill="#fee2e2" stroke="#dc2626" stroke-width="2" d="M388.5,-36C388.5,-36 278.5,-36 278.5,-36 272.5,-36 266.5,-30 266.5,-24 266.5,-24 266.5,-12 266.5,-12 266.5,-6 272.5,0 278.5,0 278.5,0 388.5,0 388.5,0 394.5,0 400.5,-6 400.5,-12 400.5,-12 400.5,-24 400.5,-24 400.5,-30 394.5,-36 388.5,-36"/>
<text text-anchor="middle" x="333.5" y="-15.2" font-family="Helvetica,sans-Serif" font-size="11.00">UserController.mLock</text>
</g>
<!-- m::com.android.server.am.UserController.getStartedUserState:(I)Lcom/android/server/am/UserState;&#45;&gt;com.android.server.am.UserController.mLock -->
<g id="edge7" class="edge">
<title>m::com.android.server.am.UserController.getStartedUserState:(I)Lcom/android/server/am/UserState;&#45;&gt;com.android.server.am.UserController.mLock</title>
<path fill="none" stroke="#dc2626" stroke-width="1.6" d="M333.5,-81.64C333.5,-70.66 333.5,-56.29 333.5,-44.09"/>
<polygon fill="#dc2626" stroke="#dc2626" stroke-width="1.6" points="336.3,-44.05 333.5,-36.05 330.7,-44.05 336.3,-44.05"/>
<text text-anchor="middle" x="354.5" y="-56.8" font-family="Helvetica,sans-Serif" font-size="9.00" fill="#dc2626"> acquires</text>
</g>
<!-- m::com.android.server.utils.WatchedArrayMap.onChanged:()V -->
<g id="node10" class="node">
<title>m::com.android.server.utils.WatchedArrayMap.onChanged:()V</title>
<path fill="#eef2ff" stroke="#a5b4fc" d="M683,-346C683,-346 524,-346 524,-346 518,-346 512,-340 512,-334 512,-334 512,-322 512,-322 512,-316 518,-310 524,-310 524,-310 683,-310 683,-310 689,-310 695,-316 695,-322 695,-322 695,-334 695,-334 695,-340 689,-346 683,-346"/>
<text text-anchor="middle" x="603.5" y="-325.2" font-family="Helvetica,sans-Serif" font-size="11.00">WatchedArrayMap.onChanged</text>
</g>
<!-- m::com.android.server.utils.WatchedArrayMap.put:(Ljava/lang/Object;Ljava/lang/Object;)Ljava/lang/Object;&#45;&gt;m::com.android.server.utils.WatchedArrayMap.onChanged:()V -->
<g id="edge9" class="edge">
<title>m::com.android.server.utils.WatchedArrayMap.put:(Ljava/lang/Object;Ljava/lang/Object;)Ljava/lang/Object;&#45;&gt;m::com.android.server.utils.WatchedArrayMap.onChanged:()V</title>
<path fill="none" stroke="#64748b" d="M601.23,-382.81C601.59,-374.18 602.04,-363.56 602.44,-354.03"/>
<polygon fill="#64748b" stroke="#64748b" points="605.24,-354.14 602.78,-346.03 599.65,-353.9 605.24,-354.14"/>
</g>
<!-- m::com.android.server.utils.WatchableImpl.dispatchChange:(Lcom/android/server/utils/Watchable;)V -->
<g id="node11" class="node">
<title>m::com.android.server.utils.WatchableImpl.dispatchChange:(Lcom/android/server/utils/Watchable;)V</title>
<path fill="#eef2ff" stroke="#a5b4fc" d="M688,-273C688,-273 523,-273 523,-273 517,-273 511,-267 511,-261 511,-261 511,-249 511,-249 511,-243 517,-237 523,-237 523,-237 688,-237 688,-237 694,-237 700,-243 700,-249 700,-249 700,-261 700,-261 700,-267 694,-273 688,-273"/>
<text text-anchor="middle" x="605.5" y="-252.2" font-family="Helvetica,sans-Serif" font-size="11.00">WatchableImpl.dispatchChange</text>
</g>
<!-- m::com.android.server.utils.WatchedArrayMap.onChanged:()V&#45;&gt;m::com.android.server.utils.WatchableImpl.dispatchChange:(Lcom/android/server/utils/Watchable;)V -->
<g id="edge10" class="edge">
<title>m::com.android.server.utils.WatchedArrayMap.onChanged:()V&#45;&gt;m::com.android.server.utils.WatchableImpl.dispatchChange:(Lcom/android/server/utils/Watchable;)V</title>
<path fill="none" stroke="#64748b" d="M603.98,-309.81C604.23,-301.18 604.53,-290.56 604.79,-281.03"/>
<polygon fill="#64748b" stroke="#64748b" points="607.59,-281.1 605.02,-273.03 602,-280.95 607.59,-281.1"/>
</g>
<!-- com.android.server.utils.WatchableImpl.mObservers -->
<g id="node12" class="node">
<title>com.android.server.utils.WatchableImpl.mObservers</title>
<path fill="#fee2e2" stroke="#dc2626" stroke-width="2" d="M678,-191C678,-191 533,-191 533,-191 527,-191 521,-185 521,-179 521,-179 521,-167 521,-167 521,-161 527,-155 533,-155 533,-155 678,-155 678,-155 684,-155 690,-161 690,-167 690,-167 690,-179 690,-179 690,-185 684,-191 678,-191"/>
<text text-anchor="middle" x="605.5" y="-170.2" font-family="Helvetica,sans-Serif" font-size="11.00">WatchableImpl.mObservers</text>
</g>
<!-- m::com.android.server.utils.WatchableImpl.dispatchChange:(Lcom/android/server/utils/Watchable;)V&#45;&gt;com.android.server.utils.WatchableImpl.mObservers -->
<g id="edge11" class="edge">
<title>m::com.android.server.utils.WatchableImpl.dispatchChange:(Lcom/android/server/utils/Watchable;)V&#45;&gt;com.android.server.utils.WatchableImpl.mObservers</title>
<path fill="none" stroke="#dc2626" stroke-width="1.6" d="M605.5,-236.64C605.5,-225.66 605.5,-211.29 605.5,-199.09"/>
<polygon fill="#dc2626" stroke="#dc2626" stroke-width="1.6" points="608.3,-199.05 605.5,-191.05 602.7,-199.05 608.3,-199.05"/>
<text text-anchor="middle" x="626.5" y="-211.8" font-family="Helvetica,sans-Serif" font-size="9.00" fill="#dc2626"> acquires</text>
</g>
</g>
</svg>
