<?xml version="1.0" encoding="UTF-8" standalone="no"?>
<!DOCTYPE svg PUBLIC "-//W3C//DTD SVG 1.1//EN"
 "http://www.w3.org/Graphics/SVG/1.1/DTD/svg11.dtd">
<!-- Generated by graphviz version 2.43.0 (0)
 -->
<!-- Title: binder Pages: 1 -->
<svg width="679pt" height="372pt"
 viewBox="0.00 0.00 679.00 372.00" xmlns="http://www.w3.org/2000/svg" xmlns:xlink="http://www.w3.org/1999/xlink">
<g id="graph0" class="graph" transform="scale(1 1) rotate(0) translate(4 368)">
<title>binder</title>
<polygon fill="white" stroke="transparent" points="-4,4 -4,-368 675,-368 675,4 -4,4"/>
<!-- m::com.android.server.StorageManagerService$3.onVolumeDestroyed:(Ljava/lang/String;)V -->
<g id="node1" class="node">
<title>m::com.android.server.StorageManagerService$3.onVolumeDestroyed:(Ljava/lang/String;)V</title>
<path fill="#eef2ff" stroke="#a5b4fc" stroke-width="2" d="M466.5,-364C466.5,-364 214.5,-364 214.5,-364 208.5,-364 202.5,-358 202.5,-352 202.5,-352 202.5,-340 202.5,-340 202.5,-334 208.5,-328 214.5,-328 214.5,-328 466.5,-328 466.5,-328 472.5,-328 478.5,-334 478.5,-340 478.5,-340 478.5,-352 478.5,-352 478.5,-358 472.5,-364 466.5,-364"/>
<text text-anchor="middle" x="340.5" y="-343.2" font-family="Helvetica,sans-Serif" font-size="11.00">StorageManagerService$3.onVolumeDestroyed</text>
</g>
<!-- com.android.server.StorageManagerService.mLock -->
<g id="node2" class="node">
<title>com.android.server.StorageManagerService.mLock</title>
<path fill="#fee2e2" stroke="#dc2626" stroke-width="2" d="M175,-282C175,-282 12,-282 12,-282 6,-282 0,-276 0,-270 0,-270 0,-258 0,-258 0,-252 6,-246 12,-246 12,-246 175,-246 175,-246 181,-246 187,-252 187,-258 187,-258 187,-270 187,-270 187,-276 181,-282 175,-282"/>
<text text-anchor="middle" x="93.5" y="-261.2" font-family="Helvetica,sans-Serif" font-size="11.00">StorageManagerService.mLock</text>
</g>
<!-- m::com.android.server.StorageManagerService$3.onVolumeDestroyed:(Ljava/lang/String;)V&#45;&gt;com.android.server.StorageManagerService.mLock -->
<g id="edge1" class="edge">
<title>m::com.android.server.StorageManagerService$3.onVolumeDestroyed:(Ljava/lang/String;)V&#45;&gt;com.android.server.StorageManagerService.mLock</title>
<path fill="none" stroke="#dc2626" stroke-width="1.6" d="M287.82,-327.94C248.55,-315.22 194.86,-297.83 153.86,-284.55"/>
<polygon fill="#dc2626" stroke="#dc2626" stroke-width="1.6" points="154.58,-281.84 146.1,-282.04 152.85,-287.17 154.58,-281.84"/>
<text text-anchor="middle" x="253.5" y="-302.8" font-family="Helvetica,sans-Serif" font-size="9.00" fill="#dc2626"> acquires</text>
</g>
<!-- m::com.android.server.storage.StorageSessionController.onVolumeRemove:(Lcom/android/server/storage/ImmutableVolumeInfo;)Lcom/android/server/storage/StorageUserConnection; -->
<g id="node3" class="node">
<title>m::com.android.server.storage.StorageSessionController.onVolumeRemove:(Lcom/android/server/storage/ImmutableVolumeInfo;)Lcom/android/server/storage/StorageUserConnection;</title>
<path fill="#eef2ff" stroke="#a5b4fc" d="M457,-282C457,-282 224,-282 224,-282 218,-282 212,-276 212,-270 212,-270 212,-258 212,-258 212,-252 218,-246 224,-246 224,-246 457,-246 457,-246 463,-246 469,-252 469,-258 469,-258 469,-270 469,-270 469,-276 463,-282 457,-282"/>
<text text-anchor="middle" x="340.5" y="-261.2" font-family="Helvetica,sans-Serif" font-size="11.00">StorageSessionController.onVolumeRemove</text>
</g>
<!-- m::com.android.server.StorageManagerService$3.onVolumeDestroyed:(Ljava/lang/String;)V&#45;&gt;m::com.android.server.storage.StorageSessionController.onVolumeRemove:(Lcom/android/server/storage/ImmutableVolumeInfo;)Lcom/android/server/storage/StorageUserConnection; -->
<g id="edge2" class="edge">
<title>m::com.android.server.StorageManagerService$3.onVolumeDestroyed:(Ljava/lang/String;)V&#45;&gt;m::com.android.server.storage.StorageSessionController.onVolumeRemove:(Lcom/android/server/storage/ImmutableVolumeInfo;)Lcom/android/server/storage/StorageUserConnection;</title>
<path fill="none" stroke="#64748b" d="M332.93,-327.64C331.37,-316.66 331.09,-302.29 332.08,-290.09"/>
<polygon fill="#64748b" stroke="#64748b" points="334.87,-290.31 332.97,-282.05 329.31,-289.69 334.87,-290.31"/>
</g>
<!-- m::com.android.server.StorageManagerService$3.onVolumeDestroyed:(Ljava/lang/String;)V&#45;&gt;m::com.android.server.storage.StorageSessionController.onVolumeRemove:(Lcom/android/server/storage/ImmutableVolumeInfo;)Lcom/android/server/storage/StorageUserConnection; -->
<g id="edge4" class="edge">
<title>m::com.android.server.StorageManagerService$3.onVolumeDestroyed:(Ljava/lang/String;)V&#45;&gt;m::com.android.server.storage.StorageSessionController.onVolumeRemove:(Lcom/android/server/storage/ImmutableVolumeInfo;)Lcom/android/server/storage/StorageUserConnection;</title>
<path fill="none" stroke="#64748b" d="M348.7,-327.64C350.39,-316.66 350.7,-302.29 349.62,-290.09"/>
<polygon fill="#64748b" stroke="#64748b" points="352.39,-289.66 348.65,-282.05 346.83,-290.33 352.39,-289.66"/>
</g>
<!-- m::com.android.server.utils.WatchedArrayMap.remove:(Ljava/lang/Object;)Ljava/lang/Object; -->
<g id="node7" class="node">
<title>m::com.android.server.utils.WatchedArrayMap.remove:(Ljava/lang/Object;)Ljava/lang/Object;</title>
<path fill="#eef2ff" stroke="#a5b4fc" d="M646.5,-282C646.5,-282 506.5,-282 506.5,-282 500.5,-282 494.5,-276 494.5,-270 494.5,-270 494.5,-258 494.5,-258 494.5,-252 500.5,-246 506.5,-246 506.5,-246 646.5,-246 646.5,-246 652.5,-246 658.5,-252 658.5,-258 658.5,-258 658.5,-270 658.5,-270 658.5,-276 652.5,-282 646.5,-282"/>
<text text-anchor="middle" x="576.5" y="-261.2" font-family="Helvetica,sans-Serif" font-size="11.00">WatchedArrayMap.remove</text>
</g>
<!-- m::com.android.server.StorageManagerService$3.onVolumeDestroyed:(Ljava/lang/String;)V&#45;&gt;m::com.android.server.utils.WatchedArrayMap.remove:(Ljava/lang/Object;)Ljava/lang/Object; -->
<g id="edge7" class="edge">
<title>m::com.android.server.StorageManagerService$3.onVolumeDestroyed:(Ljava/lang/String;)V&#45;&gt;m::com.android.server.utils.WatchedArrayMap.remove:(Ljava/lang/Object;)Ljava/lang/Object;</title>
<path fill="none" stroke="#64748b" d="M390.84,-327.94C428.28,-315.24 479.44,-297.9 518.58,-284.63"/>
<polygon fill="#64748b" stroke="#64748b" points="519.56,-287.26 526.24,-282.04 517.76,-281.95 519.56,-287.26"/>
</g>
<!-- com.android.server.storage.StorageSessionController.mLock -->
<g id="node4" class="node">
<title>com.android.server.storage.StorageSessionController.mLock</title>
<path fill="#fee2e2" stroke="#dc2626" stroke-width="2" d="M186.5,-200C186.5,-200 16.5,-200 16.5,-200 10.5,-200 4.5,-194 4.5,-188 4.5,-188 4.5,-176 4.5,-176 4.5,-170 10.5,-164 16.5,-164 16.5,-164 186.5,-164 186.5,-164 192.5,-164 198.5,-170 198.5,-176 198.5,-176 198.5,-188 198.5,-188 198.5,-194 192.5,-200 186.5,-200"/>
<text text-anchor="middle" x="101.5" y="-179.2" font-family="Helvetica,sans-Serif" font-size="11.00">StorageSessionController.mLock</text>
</g>
<!-- m::com.android.server.storage.StorageSessionController.onVolumeRemove:(Lcom/android/server/storage/ImmutableVolumeInfo;)Lcom/android/server/storage/StorageUserConnection;&#45;&gt;com.android.server.storage.StorageSessionController.mLock -->
<g id="edge3" class="edge">
<title>m::com.android.server.storage.StorageSessionController.onVolumeRemove:(Lcom/android/server/storage/ImmutableVolumeInfo;)Lcom/android/server/storage/StorageUserConnection;&#45;&gt;com.android.server.storage.StorageSessionController.mLock</title>
<path fill="none" stroke="#dc2626" stroke-width="1.6" d="M289.52,-245.94C251.61,-233.24 199.79,-215.9 160.16,-202.63"/>
<polygon fill="#dc2626" stroke="#dc2626" stroke-width="1.6" points="160.88,-199.92 152.4,-200.04 159.1,-205.23 160.88,-199.92"/>
<text text-anchor="middle" x="256.5" y="-220.8" font-family="Helvetica,sans-Serif" font-size="9.00" fill="#dc2626"> acquires</text>
</g>
<!-- m::com.android.server.storage.StorageUserConnection.removeSession:(Ljava/lang/String;)Lcom/android/server/storage/StorageUserConnection$Session; -->
<g id="node5" class="node">
<title>m::com.android.server.storage.StorageUserConnection.removeSession:(Ljava/lang/String;)Lcom/android/server/storage/StorageUserConnection$Session;</title>
<path fill="#eef2ff" stroke="#a5b4fc" d="M445.5,-200C445.5,-200 235.5,-200 235.5,-200 229.5,-200 223.5,-194 223.5,-188 223.5,-188 223.5,-176 223.5,-176 223.5,-170 229.5,-164 235.5,-164 235.5,-164 445.5,-164 445.5,-164 451.5,-164 457.5,-170 457.5,-176 457.5,-176 457.5,-188 457.5,-188 457.5,-194 451.5,-200 445.5,-200"/>
<text text-anchor="middle" x="340.5" y="-179.2" font-family="Helvetica,sans-Serif" font-size="11.00">StorageUserConnection.removeSession</text>
</g>
<!-- m::com.android.server.storage.StorageSessionController.onVolumeRemove:(Lcom/android/server/storage/ImmutableVolumeInfo;)Lcom/android/server/storage/StorageUserConnection;&#45;&gt;m::com.android.server.storage.StorageUserConnection.removeSession:(Ljava/lang/String;)Lcom/android/server/storage/StorageUserConnection$Session; -->
<g id="edge5" class="edge">
<title>m::com.android.server.storage.StorageSessionController.onVolumeRemove:(Lcom/android/server/storage/ImmutableVolumeInfo;)Lcom/android/server/storage/StorageUserConnection;&#45;&gt;m::com.android.server.storage.StorageUserConnection.removeSession:(Ljava/lang/String;)Lcom/android/server/storage/StorageUserConnection$Session;</title>
<path fill="none" stroke="#64748b" d="M340.5,-245.64C340.5,-234.66 340.5,-220.29 340.5,-208.09"/>
<polygon fill="#64748b" stroke="#64748b" points="343.3,-208.05 340.5,-200.05 337.7,-208.05 343.3,-208.05"/>
</g>
<!-- com.android.server.storage.StorageUserConnection.mSessionsLock -->
<g id="node6" class="node">
<title>com.android.server.storage.StorageUserConnection.mSessionsLock</title>
<path fill="#fee2e2" stroke="#dc2626" stroke-width="2" d="M445,-118C445,-118 236,-118 236,-118 230,-118 224,-112 224,-106 224,-106 224,-94 224,-94 224,-88 230,-82 236,-82 236,-82 445,-82 445,-82 451,-82 457,-88 457,-94 457,-94 457,-106 457,-106 457,-112 451,-118 445,-118"/>
<text text-anchor="middle" x="340.5" y="-97.2" font-family="Helvetica,sans-Serif" font-size="11.00">StorageUserConnection.mSessionsLock</text>
</g>
<!-- m::com.android.server.storage.StorageUserConnection.removeSession:(Ljava/lang/String;)Lcom/android/server/storage/StorageUserConnection$Session;&#45;&gt;com.android.server.storage.StorageUserConnection.mSessionsLock -->
<g id="edge6" class="edge">
<title>m::com.android.server.storage.StorageUserConnection.removeSession:(Ljava/lang/String;)Lcom/android/server/storage/StorageUserConnection$Session;&#45;&gt;com.android.server.storage.StorageUserConnection.mSessionsLock</title>
<path fill="none" stroke="#dc2626" stroke-width="1.6" d="M340.5,-163.64C340.5,-152.66 340.5,-138.29 340.5,-126.09"/>
<polygon fill="#dc2626" stroke="#dc2626" stroke-width="1.6" points="343.3,-126.05 340.5,-118.05 337.7,-126.05 343.3,-126.05"/>
<text text-anchor="middle" x="361.5" y="-138.8" font-family="Helvetica,sans-Serif" font-size="9.00" fill="#dc2626"> acquires</text>
</g>
<!-- m::com.android.server.utils.WatchedArrayMap.onChanged:()V -->
<g id="node8" class="node">
<title>m::com.android.server.utils.WatchedArrayMap.onChanged:()V</title>
<path fill="#eef2ff" stroke="#a5b4fc" d="M656,-200C656,-200 497,-200 497,-200 491,-200 485,-194 485,-188 485,-188 485,-176 485,-176 485,-170 491,-164 497,-164 497,-164 656,-164 656,-164 662,-164 668,-170 668,-176 668,-176 668,-188 668,-188 668,-194 662,-200 656,-200"/>
<text text-anchor="middle" x="576.5" y="-179.2" font-family="Helvetica,sans-Serif" font-size="11.00">WatchedArrayMap.onChanged</text>
</g>
<!-- m::com.android.server.utils.WatchedArrayMap.remove:(Ljava/lang/Object;)Ljava/lang/Object;&#45;&gt;m::com.android.server.utils.WatchedArrayMap.onChanged:()V -->
<g id="edge8" class="edge">
<title>m::com.android.server.utils.WatchedArrayMap.remove:(Ljava/lang/Object;)Ljava/lang/Object;&#45;&gt;m::com.android.server.utils.WatchedArrayMap.onChanged:()V</title>
<path fill="none" stroke="#64748b" d="M576.5,-245.64C576.5,-234.66 576.5,-220.29 576.5,-208.09"/>
<polygon fill="#64748b" stroke="#64748b" points="579.3,-208.05 576.5,-200.05 573.7,-208.05 579.3,-208.05"/>
</g>
<!-- m::com.android.server.utils.WatchableImpl.dispatchChange:(Lcom/android/server/utils/Watchable;)V -->
<g id="node9" class="node">
<title>m::com.android.server.utils.WatchableImpl.dispatchChange:(Lcom/android/server/utils/Watchable;)V</title>
<path fill="#eef2ff" stroke="#a5b4fc" d="M659,-118C659,-118 494,-118 494,-118 488,-118 482,-112 482,-106 482,-106 482,-94 482,-94 482,-88 488,-82 494,-82 494,-82 659,-82 659,-82 665,-82 671,-88 671,-94 671,-94 671,-106 671,-106 671,-112 665,-118 659,-118"/>
<text text-anchor="middle" x="576.5" y="-97.2" font-family="Helvetica,sans-Serif" font-size="11.00">WatchableImpl.dispatchChange</text>
</g>
<!-- m::com.android.server.utils.WatchedArrayMap.onChanged:()V&#45;&gt;m::com.android.server.utils.WatchableImpl.dispatchChange:(Lcom/android/server/utils/Watchable;)V -->
<g id="edge9" class="edge">
<title>m::com.android.server.utils.WatchedArrayMap.onChanged:()V&#45;&gt;m::com.android.server.utils.WatchableImpl.dispatchChange:(Lcom/android/server/utils/Watchable;)V</title>
<path fill="none" stroke="#64748b" d="M576.5,-163.64C576.5,-152.66 576.5,-138.29 576.5,-126.09"/>
<polygon fill="#64748b" stroke="#64748b" points="579.3,-126.05 576.5,-118.05 573.7,-126.05 579.3,-126.05"/>
</g>
<!-- com.android.server.utils.WatchableImpl.mObservers -->
<g id="node10" class="node">
<title>com.android.server.utils.WatchableImpl.mObservers</title>
<path fill="#fee2e2" stroke="#dc2626" stroke-width="2" d="M649,-36C649,-36 504,-36 504,-36 498,-36 492,-30 492,-24 492,-24 492,-12 492,-12 492,-6 498,0 504,0 504,0 649,0 649,0 655,0 661,-6 661,-12 661,-12 661,-24 661,-24 661,-30 655,-36 649,-36"/>
<text text-anchor="middle" x="576.5" y="-15.2" font-family="Helvetica,sans-Serif" font-size="11.00">WatchableImpl.mObservers</text>
</g>
<!-- m::com.android.server.utils.WatchableImpl.dispatchChange:(Lcom/android/server/utils/Watchable;)V&#45;&gt;com.android.server.utils.WatchableImpl.mObservers -->
<g id="edge10" class="edge">
<title>m::com.android.server.utils.WatchableImpl.dispatchChange:(Lcom/android/server/utils/Watchable;)V&#45;&gt;com.android.server.utils.WatchableImpl.mObservers</title>
<path fill="none" stroke="#dc2626" stroke-width="1.6" d="M576.5,-81.64C576.5,-70.66 576.5,-56.29 576.5,-44.09"/>
<polygon fill="#dc2626" stroke="#dc2626" stroke-width="1.6" points="579.3,-44.05 576.5,-36.05 573.7,-44.05 579.3,-44.05"/>
<text text-anchor="middle" x="597.5" y="-56.8" font-family="Helvetica,sans-Serif" font-size="9.00" fill="#dc2626"> acquires</text>
</g>
</g>
</svg>
