<?xml version="1.0" encoding="UTF-8" standalone="no"?>
<!DOCTYPE svg PUBLIC "-//W3C//DTD SVG 1.1//EN"
 "http://www.w3.org/Graphics/SVG/1.1/DTD/svg11.dtd">
<!-- Generated by graphviz version 2.43.0 (0)
 -->
<!-- Title: binder Pages: 1 -->
<svg width="434pt" height="281pt"
 viewBox="0.00 0.00 433.50 281.00" xmlns="http://www.w3.org/2000/svg" xmlns:xlink="http://www.w3.org/1999/xlink">
<g id="graph0" class="graph" transform="scale(1 1) rotate(0) translate(4 277)">
<title>binder</title>
<polygon fill="white" stroke="transparent" points="-4,4 -4,-277 429.5,-277 429.5,4 -4,4"/>
<!-- m::com.android.server.StorageManagerService$3.onVolumeInternalPathChanged:(Ljava/lang/String;Ljava/lang/String;)V -->
<g id="node1" class="node">
<title>m::com.android.server.StorageManagerService$3.onVolumeInternalPathChanged:(Ljava/lang/String;Ljava/lang/String;)V</title>
<path fill="#eef2ff" stroke="#a5b4fc" stroke-width="2" d="M321,-273C321,-273 12,-273 12,-273 6,-273 0,-267 0,-261 0,-261 0,-249 0,-249 0,-243 6,-237 12,-237 12,-237 321,-237 321,-237 327,-237 333,-243 333,-249 333,-249 333,-261 333,-261 333,-267 327,-273 321,-273"/>
<text text-anchor="middle" x="166.5" y="-252.2" font-family="Helvetica,sans-Serif" font-size="11.00">StorageManagerService$3.onVolumeInternalPathChanged</text>
</g>
<!-- com.android.server.StorageManagerService.mLock -->
<g id="node2" class="node">
<title>com.android.server.StorageManagerService.mLock</title>
<path fill="#fee2e2" stroke="#dc2626" stroke-width="2" d="M177,-191C177,-191 14,-191 14,-191 8,-191 2,-185 2,-179 2,-179 2,-167 2,-167 2,-161 8,-155 14,-155 14,-155 177,-155 177,-155 183,-155 189,-161 189,-167 189,-167 189,-179 189,-179 189,-185 183,-191 177,-191"/>
<text text-anchor="middle" x="95.5" y="-170.2" font-family="Helvetica,sans-Serif" font-size="11.00">StorageManagerService.mLock</text>
</g>
<!-- m::com.android.server.StorageManagerService$3.onVolumeInternalPathChanged:(Ljava/lang/String;Ljava/lang/String;)V&#45;&gt;com.android.server.StorageManagerService.mLock -->
<g id="edge1" class="edge">
<title>m::com.android.server.StorageManagerService$3.onVolumeInternalPathChanged:(Ljava/lang/String;Ljava/lang/String;)V&#45;&gt;com.android.server.StorageManagerService.mLock</title>
<path fill="none" stroke="#dc2626" stroke-width="1.6" d="M151.09,-236.64C140.88,-225.14 127.37,-209.9 116.22,-197.34"/>
<polygon fill="#dc2626" stroke="#dc2626" stroke-width="1.6" points="118.04,-195.17 110.63,-191.05 113.85,-198.89 118.04,-195.17"/>
<text text-anchor="middle" x="155.5" y="-211.8" font-family="Helvetica,sans-Serif" font-size="9.00" fill="#dc2626"> acquires</text>
</g>
<!-- m::com.android.server.storage.WatchedVolumeInfo.setInternalPath:(Ljava/lang/String;)V -->
<g id="node3" class="node">
<title>m::com.android.server.storage.WatchedVolumeInfo.setInternalPath:(Ljava/lang/String;)V</title>
<path fill="#eef2ff" stroke="#a5b4fc" d="M413.5,-191C413.5,-191 225.5,-191 225.5,-191 219.5,-191 213.5,-185 213.5,-179 213.5,-179 213.5,-167 213.5,-167 213.5,-161 219.5,-155 225.5,-155 225.5,-155 413.5,-155 413.5,-155 419.5,-155 425.5,-161 425.5,-167 425.5,-167 425.5,-179 425.5,-179 425.5,-185 419.5,-191 413.5,-191"/>
<text text-anchor="middle" x="319.5" y="-170.2" font-family="Helvetica,sans-Serif" font-size="11.00">WatchedVolumeInfo.setInternalPath</text>
</g>
<!-- m::com.android.server.StorageManagerService$3.onVolumeInternalPathChanged:(Ljava/lang/String;Ljava/lang/String;)V&#45;&gt;m::com.android.server.storage.WatchedVolumeInfo.setInternalPath:(Ljava/lang/String;)V -->
<g id="edge2" class="edge">
<title>m::com.android.server.StorageManagerService$3.onVolumeInternalPathChanged:(Ljava/lang/String;Ljava/lang/String;)V&#45;&gt;m::com.android.server.storage.WatchedVolumeInfo.setInternalPath:(Ljava/lang/String;)V</title>
<path fill="none" stroke="#64748b" d="M199.32,-236.84C222.82,-224.55 254.58,-207.95 279.55,-194.89"/>
<polygon fill="#64748b" stroke="#64748b" points="280.94,-197.32 286.73,-191.13 278.35,-192.36 280.94,-197.32"/>
</g>
<!-- m::com.android.server.utils.WatchableImpl.dispatchChange:(Lcom/android/server/utils/Watchable;)V -->
<g id="node4" class="node">
<title>m::com.android.server.utils.WatchableImpl.dispatchChange:(Lcom/android/server/utils/Watchable;)V</title>
<path fill="#eef2ff" stroke="#a5b4fc" d="M402,-118C402,-118 237,-118 237,-118 231,-118 225,-112 225,-106 225,-106 225,-94 225,-94 225,-88 231,-82 237,-82 237,-82 402,-82 402,-82 408,-82 414,-88 414,-94 414,-94 414,-106 414,-106 414,-112 408,-118 402,-118"/>
<text text-anchor="middle" x="319.5" y="-97.2" font-family="Helvetica,sans-Serif" font-size="11.00">WatchableImpl.dispatchChange</text>
</g>
<!-- m::com.android.server.storage.WatchedVolumeInfo.setInternalPath:(Ljava/lang/String;)V&#45;&gt;m::com.android.server.utils.WatchableImpl.dispatchChange:(Lcom/android/server/utils/Watchable;)V -->
<g id="edge3" class="edge">
<title>m::com.android.server.storage.WatchedVolumeInfo.setInternalPath:(Ljava/lang/String;)V&#45;&gt;m::com.android.server.utils.WatchableImpl.dispatchChange:(Lcom/android/server/utils/Watchable;)V</title>
<path fill="none" stroke="#64748b" d="M319.5,-154.81C319.5,-146.18 319.5,-135.56 319.5,-126.03"/>
<polygon fill="#64748b" stroke="#64748b" points="322.3,-126.03 319.5,-118.03 316.7,-126.03 322.3,-126.03"/>
</g>
<!-- com.android.server.utils.WatchableImpl.mObservers -->
<g id="node5" class="node">
<title>com.android.server.utils.WatchableImpl.mObservers</title>
<path fill="#fee2e2" stroke="#dc2626" stroke-width="2" d="M392,-36C392,-36 247,-36 247,-36 241,-36 235,-30 235,-24 235,-24 235,-12 235,-12 235,-6 241,0 247,0 247,0 392,0 392,0 398,0 404,-6 404,-12 404,-12 404,-24 404,-24 404,-30 398,-36 392,-36"/>
<text text-anchor="middle" x="319.5" y="-15.2" font-family="Helvetica,sans-Serif" font-size="11.00">WatchableImpl.mObservers</text>
</g>
<!-- m::com.android.server.utils.WatchableImpl.dispatchChange:(Lcom/android/server/utils/Watchable;)V&#45;&gt;com.android.server.utils.WatchableImpl.mObservers -->
<g id="edge4" class="edge">
<title>m::com.android.server.utils.WatchableImpl.dispatchChange:(Lcom/android/server/utils/Watchable;)V&#45;&gt;com.android.server.utils.WatchableImpl.mObservers</title>
<path fill="none" stroke="#dc2626" stroke-width="1.6" d="M319.5,-81.64C319.5,-70.66 319.5,-56.29 319.5,-44.09"/>
<polygon fill="#dc2626" stroke="#dc2626" stroke-width="1.6" points="322.3,-44.05 319.5,-36.05 316.7,-44.05 322.3,-44.05"/>
<text text-anchor="middle" x="340.5" y="-56.8" font-family="Helvetica,sans-Serif" font-size="9.00" fill="#dc2626"> acquires</text>
</g>
</g>
</svg>
