<?xml version="1.0" encoding="UTF-8" standalone="no"?>
<!DOCTYPE svg PUBLIC "-//W3C//DTD SVG 1.1//EN"
 "http://www.w3.org/Graphics/SVG/1.1/DTD/svg11.dtd">
<!-- Generated by graphviz version 2.43.0 (0)
 -->
<!-- Title: binder Pages: 1 -->
<svg width="444pt" height="281pt"
 viewBox="0.00 0.00 443.50 281.00" xmlns="http://www.w3.org/2000/svg" xmlns:xlink="http://www.w3.org/1999/xlink">
<g id="graph0" class="graph" transform="scale(1 1) rotate(0) translate(4 277)">
<title>binder</title>
<polygon fill="white" stroke="transparent" points="-4,4 -4,-277 439.5,-277 439.5,4 -4,4"/>
<!-- m::com.android.server.StorageManagerService$3.onVolumeMetadataChanged:(Ljava/lang/String;Ljava/lang/String;Ljava/lang/String;Ljava/lang/String;)V -->
<g id="node1" class="node">
<title>m::com.android.server.StorageManagerService$3.onVolumeMetadataChanged:(Ljava/lang/String;Ljava/lang/String;Ljava/lang/String;Ljava/lang/String;)V</title>
<path fill="#eef2ff" stroke="#a5b4fc" stroke-width="2" d="M308,-273C308,-273 12,-273 12,-273 6,-273 0,-267 0,-261 0,-261 0,-249 0,-249 0,-243 6,-237 12,-237 12,-237 308,-237 308,-237 314,-237 320,-243 320,-249 320,-249 320,-261 320,-261 320,-267 314,-273 308,-273"/>
<text text-anchor="middle" x="160" y="-252.2" font-family="Helvetica,sans-Serif" font-size="11.00">StorageManagerService$3.onVolumeMetadataChanged</text>
</g>
<!-- com.android.server.StorageManagerService.mLock -->
<g id="node2" class="node">
<title>com.android.server.StorageManagerService.mLock</title>
<path fill="#fee2e2" stroke="#dc2626" stroke-width="2" d="M211.5,-191C211.5,-191 48.5,-191 48.5,-191 42.5,-191 36.5,-185 36.5,-179 36.5,-179 36.5,-167 36.5,-167 36.5,-161 42.5,-155 48.5,-155 48.5,-155 211.5,-155 211.5,-155 217.5,-155 223.5,-161 223.5,-167 223.5,-167 223.5,-179 223.5,-179 223.5,-185 217.5,-191 211.5,-191"/>
<text text-anchor="middle" x="130" y="-170.2" font-family="Helvetica,sans-Serif" font-size="11.00">StorageManagerService.mLock</text>
</g>
<!-- m::com.android.server.StorageManagerService$3.onVolumeMetadataChanged:(Ljava/lang/String;Ljava/lang/String;Ljava/lang/String;Ljava/lang/String;)V&#45;&gt;com.android.server.StorageManagerService.mLock -->
<g id="edge1" class="edge">
<title>m::com.android.server.StorageManagerService$3.onVolumeMetadataChanged:(Ljava/lang/String;Ljava/lang/String;Ljava/lang/String;Ljava/lang/String;)V&#45;&gt;com.android.server.StorageManagerService.mLock</title>
<path fill="none" stroke="#dc2626" stroke-width="1.6" d="M153.49,-236.64C149.33,-225.56 143.88,-211.02 139.28,-198.74"/>
<polygon fill="#dc2626" stroke="#dc2626" stroke-width="1.6" points="141.82,-197.56 136.39,-191.05 136.58,-199.52 141.82,-197.56"/>
<text text-anchor="middle" x="168" y="-211.8" font-family="Helvetica,sans-Serif" font-size="9.00" fill="#dc2626"> acquires</text>
</g>
<!-- m::com.android.server.storage.WatchedVolumeInfo.setFsType:(Ljava/lang/String;)V -->
<g id="node3" class="node">
<title>m::com.android.server.storage.WatchedVolumeInfo.setFsType:(Ljava/lang/String;)V</title>
<path fill="#eef2ff" stroke="#a5b4fc" d="M421,-191C421,-191 261,-191 261,-191 255,-191 249,-185 249,-179 249,-179 249,-167 249,-167 249,-161 255,-155 261,-155 261,-155 421,-155 421,-155 427,-155 433,-161 433,-167 433,-167 433,-179 433,-179 433,-185 427,-191 421,-191"/>
<text text-anchor="middle" x="341" y="-170.2" font-family="Helvetica,sans-Serif" font-size="11.00">WatchedVolumeInfo.setFsType</text>
</g>
<!-- m::com.android.server.StorageManagerService$3.onVolumeMetadataChanged:(Ljava/lang/String;Ljava/lang/String;Ljava/lang/String;Ljava/lang/String;)V&#45;&gt;m::com.android.server.storage.WatchedVolumeInfo.setFsType:(Ljava/lang/String;)V -->
<g id="edge2" class="edge">
<title>m::com.android.server.StorageManagerService$3.onVolumeMetadataChanged:(Ljava/lang/String;Ljava/lang/String;Ljava/lang/String;Ljava/lang/String;)V&#45;&gt;m::com.android.server.storage.WatchedVolumeInfo.setFsType:(Ljava/lang/String;)V</title>
<path fill="none" stroke="#64748b" d="M198.83,-236.84C226.98,-224.39 265.17,-207.52 294.88,-194.39"/>
<polygon fill="#64748b" stroke="#64748b" points="296.05,-196.93 302.24,-191.13 293.79,-191.81 296.05,-196.93"/>
</g>
<!-- m::com.android.server.utils.WatchableImpl.dispatchChange:(Lcom/android/server/utils/Watchable;)V -->
<g id="node4" class="node">
<title>m::com.android.server.utils.WatchableImpl.dispatchChange:(Lcom/android/server/utils/Watchable;)V</title>
<path fill="#eef2ff" stroke="#a5b4fc" d="M423.5,-118C423.5,-118 258.5,-118 258.5,-118 252.5,-118 246.5,-112 246.5,-106 246.5,-106 246.5,-94 246.5,-94 246.5,-88 252.5,-82 258.5,-82 258.5,-82 423.5,-82 423.5,-82 429.5,-82 435.5,-88 435.5,-94 435.5,-94 435.5,-106 435.5,-106 435.5,-112 429.5,-118 423.5,-118"/>
<text text-anchor="middle" x="341" y="-97.2" font-family="Helvetica,sans-Serif" font-size="11.00">WatchableImpl.dispatchChange</text>
</g>
<!-- m::com.android.server.storage.WatchedVolumeInfo.setFsType:(Ljava/lang/String;)V&#45;&gt;m::com.android.server.utils.WatchableImpl.dispatchChange:(Lcom/android/server/utils/Watchable;)V -->
<g id="edge3" class="edge">
<title>m::com.android.server.storage.WatchedVolumeInfo.setFsType:(Ljava/lang/String;)V&#45;&gt;m::com.android.server.utils.WatchableImpl.dispatchChange:(Lcom/android/server/utils/Watchable;)V</title>
<path fill="none" stroke="#64748b" d="M341,-154.81C341,-146.18 341,-135.56 341,-126.03"/>
<polygon fill="#64748b" stroke="#64748b" points="343.8,-126.03 341,-118.03 338.2,-126.03 343.8,-126.03"/>
</g>
<!-- com.android.server.utils.WatchableImpl.mObservers -->
<g id="node5" class="node">
<title>com.android.server.utils.WatchableImpl.mObservers</title>
<path fill="#fee2e2" stroke="#dc2626" stroke-width="2" d="M413.5,-36C413.5,-36 268.5,-36 268.5,-36 262.5,-36 256.5,-30 256.5,-24 256.5,-24 256.5,-12 256.5,-12 256.5,-6 262.5,0 268.5,0 268.5,0 413.5,0 413.5,0 419.5,0 425.5,-6 425.5,-12 425.5,-12 425.5,-24 425.5,-24 425.5,-30 419.5,-36 413.5,-36"/>
<text text-anchor="middle" x="341" y="-15.2" font-family="Helvetica,sans-Serif" font-size="11.00">WatchableImpl.mObservers</text>
</g>
<!-- m::com.android.server.utils.WatchableImpl.dispatchChange:(Lcom/android/server/utils/Watchable;)V&#45;&gt;com.android.server.utils.WatchableImpl.mObservers -->
<g id="edge4" class="edge">
<title>m::com.android.server.utils.WatchableImpl.dispatchChange:(Lcom/android/server/utils/Watchable;)V&#45;&gt;com.android.server.utils.WatchableImpl.mObservers</title>
<path fill="none" stroke="#dc2626" stroke-width="1.6" d="M341,-81.64C341,-70.66 341,-56.29 341,-44.09"/>
<polygon fill="#dc2626" stroke="#dc2626" stroke-width="1.6" points="343.8,-44.05 341,-36.05 338.2,-44.05 343.8,-44.05"/>
<text text-anchor="middle" x="362" y="-56.8" font-family="Helvetica,sans-Serif" font-size="9.00" fill="#dc2626"> acquires</text>
</g>
</g>
</svg>
