<?xml version="1.0" encoding="UTF-8" standalone="no"?>
<!DOCTYPE svg PUBLIC "-//W3C//DTD SVG 1.1//EN"
 "http://www.w3.org/Graphics/SVG/1.1/DTD/svg11.dtd">
<!-- Generated by graphviz version 2.43.0 (0)
 -->
<!-- Title: binder Pages: 1 -->
<svg width="428pt" height="281pt"
 viewBox="0.00 0.00 428.00 281.00" xmlns="http://www.w3.org/2000/svg" xmlns:xlink="http://www.w3.org/1999/xlink">
<g id="graph0" class="graph" transform="scale(1 1) rotate(0) translate(4 277)">
<title>binder</title>
<polygon fill="white" stroke="transparent" points="-4,4 -4,-277 424,-277 424,4 -4,4"/>
<!-- m::com.android.server.StorageManagerService$3.onVolumePathChanged:(Ljava/lang/String;Ljava/lang/String;)V -->
<g id="node1" class="node">
<title>m::com.android.server.StorageManagerService$3.onVolumePathChanged:(Ljava/lang/String;Ljava/lang/String;)V</title>
<path fill="#eef2ff" stroke="#a5b4fc" stroke-width="2" d="M279,-273C279,-273 12,-273 12,-273 6,-273 0,-267 0,-261 0,-261 0,-249 0,-249 0,-243 6,-237 12,-237 12,-237 279,-237 279,-237 285,-237 291,-243 291,-249 291,-249 291,-261 291,-261 291,-267 285,-273 279,-273"/>
<text text-anchor="middle" x="145.5" y="-252.2" font-family="Helvetica,sans-Serif" font-size="11.00">StorageManagerService$3.onVolumePathChanged</text>
</g>
<!-- com.android.server.StorageManagerService.mLock -->
<g id="node2" class="node">
<title>com.android.server.StorageManagerService.mLock</title>
<path fill="#fee2e2" stroke="#dc2626" stroke-width="2" d="M197,-191C197,-191 34,-191 34,-191 28,-191 22,-185 22,-179 22,-179 22,-167 22,-167 22,-161 28,-155 34,-155 34,-155 197,-155 197,-155 203,-155 209,-161 209,-167 209,-167 209,-179 209,-179 209,-185 203,-191 197,-191"/>
<text text-anchor="middle" x="115.5" y="-170.2" font-family="Helvetica,sans-Serif" font-size="11.00">StorageManagerService.mLock</text>
</g>
<!-- m::com.android.server.StorageManagerService$3.onVolumePathChanged:(Ljava/lang/String;Ljava/lang/String;)V&#45;&gt;com.android.server.StorageManagerService.mLock -->
<g id="edge1" class="edge">
<title>m::com.android.server.StorageManagerService$3.onVolumePathChanged:(Ljava/lang/String;Ljava/lang/String;)V&#45;&gt;com.android.server.StorageManagerService.mLock</title>
<path fill="none" stroke="#dc2626" stroke-width="1.6" d="M138.99,-236.64C134.83,-225.56 129.38,-211.02 124.78,-198.74"/>
<polygon fill="#dc2626" stroke="#dc2626" stroke-width="1.6" points="127.32,-197.56 121.89,-191.05 122.08,-199.52 127.32,-197.56"/>
<text text-anchor="middle" x="153.5" y="-211.8" font-family="Helvetica,sans-Serif" font-size="9.00" fill="#dc2626"> acquires</text>
</g>
<!-- m::com.android.server.storage.WatchedVolumeInfo.setFsPath:(Ljava/lang/String;)V -->
<g id="node3" class="node">
<title>m::com.android.server.storage.WatchedVolumeInfo.setFsPath:(Ljava/lang/String;)V</title>
<path fill="#eef2ff" stroke="#a5b4fc" d="M404.5,-191C404.5,-191 246.5,-191 246.5,-191 240.5,-191 234.5,-185 234.5,-179 234.5,-179 234.5,-167 234.5,-167 234.5,-161 240.5,-155 246.5,-155 246.5,-155 404.5,-155 404.5,-155 410.5,-155 416.5,-161 416.5,-167 416.5,-167 416.5,-179 416.5,-179 416.5,-185 410.5,-191 404.5,-191"/>
<text text-anchor="middle" x="325.5" y="-170.2" font-family="Helvetica,sans-Serif" font-size="11.00">WatchedVolumeInfo.setFsPath</text>
</g>
<!-- m::com.android.server.StorageManagerService$3.onVolumePathChanged:(Ljava/lang/String;Ljava/lang/String;)V&#45;&gt;m::com.android.server.storage.WatchedVolumeInfo.setFsPath:(Ljava/lang/String;)V -->
<g id="edge2" class="edge">
<title>m::com.android.server.StorageManagerService$3.onVolumePathChanged:(Ljava/lang/String;Ljava/lang/String;)V&#45;&gt;m::com.android.server.storage.WatchedVolumeInfo.setFsPath:(Ljava/lang/String;)V</title>
<path fill="none" stroke="#64748b" d="M184.11,-236.84C212.11,-224.39 250.09,-207.52 279.63,-194.39"/>
<polygon fill="#64748b" stroke="#64748b" points="280.78,-196.94 286.95,-191.13 278.5,-191.82 280.78,-196.94"/>
</g>
<!-- m::com.android.server.utils.WatchableImpl.dispatchChange:(Lcom/android/server/utils/Watchable;)V -->
<g id="node4" class="node">
<title>m::com.android.server.utils.WatchableImpl.dispatchChange:(Lcom/android/server/utils/Watchable;)V</title>
<path fill="#eef2ff" stroke="#a5b4fc" d="M408,-118C408,-118 243,-118 243,-118 237,-118 231,-112 231,-106 231,-106 231,-94 231,-94 231,-88 237,-82 243,-82 243,-82 408,-82 408,-82 414,-82 420,-88 420,-94 420,-94 420,-106 420,-106 420,-112 414,-118 408,-118"/>
<text text-anchor="middle" x="325.5" y="-97.2" font-family="Helvetica,sans-Serif" font-size="11.00">WatchableImpl.dispatchChange</text>
</g>
<!-- m::com.android.server.storage.WatchedVolumeInfo.setFsPath:(Ljava/lang/String;)V&#45;&gt;m::com.android.server.utils.WatchableImpl.dispatchChange:(Lcom/android/server/utils/Watchable;)V -->
<g id="edge3" class="edge">
<title>m::com.android.server.storage.WatchedVolumeInfo.setFsPath:(Ljava/lang/String;)V&#45;&gt;m::com.android.server.utils.WatchableImpl.dispatchChange:(Lcom/android/server/utils/Watchable;)V</title>
<path fill="none" stroke="#64748b" d="M325.5,-154.81C325.5,-146.18 325.5,-135.56 325.5,-126.03"/>
<polygon fill="#64748b" stroke="#64748b" points="328.3,-126.03 325.5,-118.03 322.7,-126.03 328.3,-126.03"/>
</g>
<!-- com.android.server.utils.WatchableImpl.mObservers -->
<g id="node5" class="node">
<title>com.android.server.utils.WatchableImpl.mObservers</title>
<path fill="#fee2e2" stroke="#dc2626" stroke-width="2" d="M398,-36C398,-36 253,-36 253,-36 247,-36 241,-30 241,-24 241,-24 241,-12 241,-12 241,-6 247,0 253,0 253,0 398,0 398,0 404,0 410,-6 410,-12 410,-12 410,-24 410,-24 410,-30 404,-36 398,-36"/>
<text text-anchor="middle" x="325.5" y="-15.2" font-family="Helvetica,sans-Serif" font-size="11.00">WatchableImpl.mObservers</text>
</g>
<!-- m::com.android.server.utils.WatchableImpl.dispatchChange:(Lcom/android/server/utils/Watchable;)V&#45;&gt;com.android.server.utils.WatchableImpl.mObservers -->
<g id="edge4" class="edge">
<title>m::com.android.server.utils.WatchableImpl.dispatchChange:(Lcom/android/server/utils/Watchable;)V&#45;&gt;com.android.server.utils.WatchableImpl.mObservers</title>
<path fill="none" stroke="#dc2626" stroke-width="1.6" d="M325.5,-81.64C325.5,-70.66 325.5,-56.29 325.5,-44.09"/>
<polygon fill="#dc2626" stroke="#dc2626" stroke-width="1.6" points="328.3,-44.05 325.5,-36.05 322.7,-44.05 328.3,-44.05"/>
<text text-anchor="middle" x="346.5" y="-56.8" font-family="Helvetica,sans-Serif" font-size="9.00" fill="#dc2626"> acquires</text>
</g>
</g>
</svg>
