<?xml version="1.0" encoding="UTF-8" standalone="no"?>
<!DOCTYPE svg PUBLIC "-//W3C//DTD SVG 1.1//EN"
 "http://www.w3.org/Graphics/SVG/1.1/DTD/svg11.dtd">
<!-- Generated by graphviz version 2.43.0 (0)
 -->
<!-- Title: binder Pages: 1 -->
<svg width="402pt" height="281pt"
 viewBox="0.00 0.00 402.00 281.00" xmlns="http://www.w3.org/2000/svg" xmlns:xlink="http://www.w3.org/1999/xlink">
<g id="graph0" class="graph" transform="scale(1 1) rotate(0) translate(4 277)">
<title>binder</title>
<polygon fill="white" stroke="transparent" points="-4,4 -4,-277 398,-277 398,4 -4,4"/>
<!-- m::com.android.server.StorageManagerService$3.onVolumeStateChanged:(Ljava/lang/String;II)V -->
<g id="node1" class="node">
<title>m::com.android.server.StorageManagerService$3.onVolumeStateChanged:(Ljava/lang/String;II)V</title>
<path fill="#eef2ff" stroke="#a5b4fc" stroke-width="2" d="M295.5,-273C295.5,-273 23.5,-273 23.5,-273 17.5,-273 11.5,-267 11.5,-261 11.5,-261 11.5,-249 11.5,-249 11.5,-243 17.5,-237 23.5,-237 23.5,-237 295.5,-237 295.5,-237 301.5,-237 307.5,-243 307.5,-249 307.5,-249 307.5,-261 307.5,-261 307.5,-267 301.5,-273 295.5,-273"/>
<text text-anchor="middle" x="159.5" y="-252.2" font-family="Helvetica,sans-Serif" font-size="11.00">StorageManagerService$3.onVolumeStateChanged</text>
</g>
<!-- com.android.server.StorageManagerService.mLock -->
<g id="node2" class="node">
<title>com.android.server.StorageManagerService.mLock</title>
<path fill="#fee2e2" stroke="#dc2626" stroke-width="2" d="M175,-191C175,-191 12,-191 12,-191 6,-191 0,-185 0,-179 0,-179 0,-167 0,-167 0,-161 6,-155 12,-155 12,-155 175,-155 175,-155 181,-155 187,-161 187,-167 187,-167 187,-179 187,-179 187,-185 181,-191 175,-191"/>
<text text-anchor="middle" x="93.5" y="-170.2" font-family="Helvetica,sans-Serif" font-size="11.00">StorageManagerService.mLock</text>
</g>
<!-- m::com.android.server.StorageManagerService$3.onVolumeStateChanged:(Ljava/lang/String;II)V&#45;&gt;com.android.server.StorageManagerService.mLock -->
<g id="edge1" class="edge">
<title>m::com.android.server.StorageManagerService$3.onVolumeStateChanged:(Ljava/lang/String;II)V&#45;&gt;com.android.server.StorageManagerService.mLock</title>
<path fill="none" stroke="#dc2626" stroke-width="1.6" d="M145.18,-236.64C135.69,-225.14 123.12,-209.9 112.76,-197.34"/>
<polygon fill="#dc2626" stroke="#dc2626" stroke-width="1.6" points="114.82,-195.44 107.57,-191.05 110.5,-199 114.82,-195.44"/>
<text text-anchor="middle" x="150.5" y="-211.8" font-family="Helvetica,sans-Serif" font-size="9.00" fill="#dc2626"> acquires</text>
</g>
<!-- m::com.android.server.storage.WatchedVolumeInfo.setState:(I)V -->
<g id="node3" class="node">
<title>m::com.android.server.storage.WatchedVolumeInfo.setState:(I)V</title>
<path fill="#eef2ff" stroke="#a5b4fc" d="M375.5,-191C375.5,-191 223.5,-191 223.5,-191 217.5,-191 211.5,-185 211.5,-179 211.5,-179 211.5,-167 211.5,-167 211.5,-161 217.5,-155 223.5,-155 223.5,-155 375.5,-155 375.5,-155 381.5,-155 387.5,-161 387.5,-167 387.5,-167 387.5,-179 387.5,-179 387.5,-185 381.5,-191 375.5,-191"/>
<text text-anchor="middle" x="299.5" y="-170.2" font-family="Helvetica,sans-Serif" font-size="11.00">WatchedVolumeInfo.setState</text>
</g>
<!-- m::com.android.server.StorageManagerService$3.onVolumeStateChanged:(Ljava/lang/String;II)V&#45;&gt;m::com.android.server.storage.WatchedVolumeInfo.setState:(I)V -->
<g id="edge2" class="edge">
<title>m::com.android.server.StorageManagerService$3.onVolumeStateChanged:(Ljava/lang/String;II)V&#45;&gt;m::com.android.server.storage.WatchedVolumeInfo.setState:(I)V</title>
<path fill="none" stroke="#64748b" d="M189.53,-236.84C210.85,-224.66 239.6,-208.23 262.35,-195.23"/>
<polygon fill="#64748b" stroke="#64748b" points="263.96,-197.53 269.52,-191.13 261.18,-192.67 263.96,-197.53"/>
</g>
<!-- m::com.android.server.utils.WatchableImpl.dispatchChange:(Lcom/android/server/utils/Watchable;)V -->
<g id="node4" class="node">
<title>m::com.android.server.utils.WatchableImpl.dispatchChange:(Lcom/android/server/utils/Watchable;)V</title>
<path fill="#eef2ff" stroke="#a5b4fc" d="M382,-118C382,-118 217,-118 217,-118 211,-118 205,-112 205,-106 205,-106 205,-94 205,-94 205,-88 211,-82 217,-82 217,-82 382,-82 382,-82 388,-82 394,-88 394,-94 394,-94 394,-106 394,-106 394,-112 388,-118 382,-118"/>
<text text-anchor="middle" x="299.5" y="-97.2" font-family="Helvetica,sans-Serif" font-size="11.00">WatchableImpl.dispatchChange</text>
</g>
<!-- m::com.android.server.storage.WatchedVolumeInfo.setState:(I)V&#45;&gt;m::com.android.server.utils.WatchableImpl.dispatchChange:(Lcom/android/server/utils/Watchable;)V -->
<g id="edge3" class="edge">
<title>m::com.android.server.storage.WatchedVolumeInfo.setState:(I)V&#45;&gt;m::com.android.server.utils.WatchableImpl.dispatchChange:(Lcom/android/server/utils/Watchable;)V</title>
<path fill="none" stroke="#64748b" d="M299.5,-154.81C299.5,-146.18 299.5,-135.56 299.5,-126.03"/>
<polygon fill="#64748b" stroke="#64748b" points="302.3,-126.03 299.5,-118.03 296.7,-126.03 302.3,-126.03"/>
</g>
<!-- com.android.server.utils.WatchableImpl.mObservers -->
<g id="node5" class="node">
<title>com.android.server.utils.WatchableImpl.mObservers</title>
<path fill="#fee2e2" stroke="#dc2626" stroke-width="2" d="M372,-36C372,-36 227,-36 227,-36 221,-36 215,-30 215,-24 215,-24 215,-12 215,-12 215,-6 221,0 227,0 227,0 372,0 372,0 378,0 384,-6 384,-12 384,-12 384,-24 384,-24 384,-30 378,-36 372,-36"/>
<text text-anchor="middle" x="299.5" y="-15.2" font-family="Helvetica,sans-Serif" font-size="11.00">WatchableImpl.mObservers</text>
</g>
<!-- m::com.android.server.utils.WatchableImpl.dispatchChange:(Lcom/android/server/utils/Watchable;)V&#45;&gt;com.android.server.utils.WatchableImpl.mObservers -->
<g id="edge4" class="edge">
<title>m::com.android.server.utils.WatchableImpl.dispatchChange:(Lcom/android/server/utils/Watchable;)V&#45;&gt;com.android.server.utils.WatchableImpl.mObservers</title>
<path fill="none" stroke="#dc2626" stroke-width="1.6" d="M299.5,-81.64C299.5,-70.66 299.5,-56.29 299.5,-44.09"/>
<polygon fill="#dc2626" stroke="#dc2626" stroke-width="1.6" points="302.3,-44.05 299.5,-36.05 296.7,-44.05 302.3,-44.05"/>
<text text-anchor="middle" x="320.5" y="-56.8" font-family="Helvetica,sans-Serif" font-size="9.00" fill="#dc2626"> acquires</text>
</g>
</g>
</svg>
