<?xml version="1.0" encoding="UTF-8" standalone="no"?>
<!DOCTYPE svg PUBLIC "-//W3C//DTD SVG 1.1//EN"
 "http://www.w3.org/Graphics/SVG/1.1/DTD/svg11.dtd">
<!-- Generated by graphviz version 2.43.0 (0)
 -->
<!-- Title: binder Pages: 1 -->
<svg width="813pt" height="582pt"
 viewBox="0.00 0.00 812.50 582.00" xmlns="http://www.w3.org/2000/svg" xmlns:xlink="http://www.w3.org/1999/xlink">
<g id="graph0" class="graph" transform="scale(1 1) rotate(0) translate(4 578)">
<title>binder</title>
<polygon fill="white" stroke="transparent" points="-4,4 -4,-578 808.5,-578 808.5,4 -4,4"/>
<!-- m::com.android.server.StorageManagerService$8.onVolumeChecking:(Ljava/io/FileDescriptor;Ljava/lang/String;Ljava/lang/String;)Z -->
<g id="node1" class="node">
<title>m::com.android.server.StorageManagerService$8.onVolumeChecking:(Ljava/io/FileDescriptor;Ljava/lang/String;Ljava/lang/String;)Z</title>
<path fill="#eef2ff" stroke="#a5b4fc" stroke-width="2" d="M592.5,-574C592.5,-574 347.5,-574 347.5,-574 341.5,-574 335.5,-568 335.5,-562 335.5,-562 335.5,-550 335.5,-550 335.5,-544 341.5,-538 347.5,-538 347.5,-538 592.5,-538 592.5,-538 598.5,-538 604.5,-544 604.5,-550 604.5,-550 604.5,-562 604.5,-562 604.5,-568 598.5,-574 592.5,-574"/>
<text text-anchor="middle" x="470" y="-553.2" font-family="Helvetica,sans-Serif" font-size="11.00">StorageManagerService$8.onVolumeChecking</text>
</g>
<!-- m::com.android.server.storage.StorageSessionController.onVolumeMount:(Landroid/os/ParcelFileDescriptor;Lcom/android/server/storage/ImmutableVolumeInfo;)V -->
<g id="node2" class="node">
<title>m::com.android.server.storage.StorageSessionController.onVolumeMount:(Landroid/os/ParcelFileDescriptor;Lcom/android/server/storage/ImmutableVolumeInfo;)V</title>
<path fill="#eef2ff" stroke="#a5b4fc" d="M581.5,-501C581.5,-501 358.5,-501 358.5,-501 352.5,-501 346.5,-495 346.5,-489 346.5,-489 346.5,-477 346.5,-477 346.5,-471 352.5,-465 358.5,-465 358.5,-465 581.5,-465 581.5,-465 587.5,-465 593.5,-471 593.5,-477 593.5,-477 593.5,-489 593.5,-489 593.5,-495 587.5,-501 581.5,-501"/>
<text text-anchor="middle" x="470" y="-480.2" font-family="Helvetica,sans-Serif" font-size="11.00">StorageSessionController.onVolumeMount</text>
</g>
<!-- m::com.android.server.StorageManagerService$8.onVolumeChecking:(Ljava/io/FileDescriptor;Ljava/lang/String;Ljava/lang/String;)Z&#45;&gt;m::com.android.server.storage.StorageSessionController.onVolumeMount:(Landroid/os/ParcelFileDescriptor;Lcom/android/server/storage/ImmutableVolumeInfo;)V -->
<g id="edge1" class="edge">
<title>m::com.android.server.StorageManagerService$8.onVolumeChecking:(Ljava/io/FileDescriptor;Ljava/lang/String;Ljava/lang/String;)Z&#45;&gt;m::com.android.server.storage.StorageSessionController.onVolumeMount:(Landroid/os/ParcelFileDescriptor;Lcom/android/server/storage/ImmutableVolumeInfo;)V</title>
<path fill="none" stroke="#64748b" d="M453.67,-537.81C451.16,-529.18 450.6,-518.56 451.99,-509.03"/>
<polygon fill="#64748b" stroke="#64748b" points="454.77,-509.44 453.72,-501.03 449.3,-508.26 454.77,-509.44"/>
</g>
<!-- m::com.android.server.StorageManagerService$8.onVolumeChecking:(Ljava/io/FileDescriptor;Ljava/lang/String;Ljava/lang/String;)Z&#45;&gt;m::com.android.server.storage.StorageSessionController.onVolumeMount:(Landroid/os/ParcelFileDescriptor;Lcom/android/server/storage/ImmutableVolumeInfo;)V -->
<g id="edge3" class="edge">
<title>m::com.android.server.StorageManagerService$8.onVolumeChecking:(Ljava/io/FileDescriptor;Ljava/lang/String;Ljava/lang/String;)Z&#45;&gt;m::com.android.server.storage.StorageSessionController.onVolumeMount:(Landroid/os/ParcelFileDescriptor;Lcom/android/server/storage/ImmutableVolumeInfo;)V</title>
<path fill="none" stroke="#64748b" d="M470,-537.81C470,-529.18 470,-518.56 470,-509.03"/>
<polygon fill="#64748b" stroke="#64748b" points="472.8,-509.03 470,-501.03 467.2,-509.03 472.8,-509.03"/>
</g>
<!-- m::com.android.server.StorageManagerService$8.onVolumeChecking:(Ljava/io/FileDescriptor;Ljava/lang/String;Ljava/lang/String;)Z&#45;&gt;m::com.android.server.storage.StorageSessionController.onVolumeMount:(Landroid/os/ParcelFileDescriptor;Lcom/android/server/storage/ImmutableVolumeInfo;)V -->
<g id="edge10" class="edge">
<title>m::com.android.server.StorageManagerService$8.onVolumeChecking:(Ljava/io/FileDescriptor;Ljava/lang/String;Ljava/lang/String;)Z&#45;&gt;m::com.android.server.storage.StorageSessionController.onVolumeMount:(Landroid/os/ParcelFileDescriptor;Lcom/android/server/storage/ImmutableVolumeInfo;)V</title>
<path fill="none" stroke="#64748b" d="M486.33,-537.81C488.84,-529.18 489.4,-518.56 488.01,-509.03"/>
<polygon fill="#64748b" stroke="#64748b" points="490.7,-508.26 486.28,-501.03 485.23,-509.44 490.7,-508.26"/>
</g>
<!-- m::com.android.server.storage.WatchedVolumeInfo.setFsPath:(Ljava/lang/String;)V -->
<g id="node11" class="node">
<title>m::com.android.server.storage.WatchedVolumeInfo.setFsPath:(Ljava/lang/String;)V</title>
<path fill="#eef2ff" stroke="#a5b4fc" d="M789,-501C789,-501 631,-501 631,-501 625,-501 619,-495 619,-489 619,-489 619,-477 619,-477 619,-471 625,-465 631,-465 631,-465 789,-465 789,-465 795,-465 801,-471 801,-477 801,-477 801,-489 801,-489 801,-495 795,-501 789,-501"/>
<text text-anchor="middle" x="710" y="-480.2" font-family="Helvetica,sans-Serif" font-size="11.00">WatchedVolumeInfo.setFsPath</text>
</g>
<!-- m::com.android.server.StorageManagerService$8.onVolumeChecking:(Ljava/io/FileDescriptor;Ljava/lang/String;Ljava/lang/String;)Z&#45;&gt;m::com.android.server.storage.WatchedVolumeInfo.setFsPath:(Ljava/lang/String;)V -->
<g id="edge13" class="edge">
<title>m::com.android.server.StorageManagerService$8.onVolumeChecking:(Ljava/io/FileDescriptor;Ljava/lang/String;Ljava/lang/String;)Z&#45;&gt;m::com.android.server.storage.WatchedVolumeInfo.setFsPath:(Ljava/lang/String;)V</title>
<path fill="none" stroke="#64748b" d="M527.49,-537.99C562.7,-527.58 607.88,-514.21 644.48,-503.38"/>
<polygon fill="#64748b" stroke="#64748b" points="645.27,-506.07 652.15,-501.11 643.69,-500.7 645.27,-506.07"/>
</g>
<!-- com.android.server.storage.StorageSessionController.mLock -->
<g id="node3" class="node">
<title>com.android.server.storage.StorageSessionController.mLock</title>
<path fill="#fee2e2" stroke="#dc2626" stroke-width="2" d="M324,-419C324,-419 154,-419 154,-419 148,-419 142,-413 142,-407 142,-407 142,-395 142,-395 142,-389 148,-383 154,-383 154,-383 324,-383 324,-383 330,-383 336,-389 336,-395 336,-395 336,-407 336,-407 336,-413 330,-419 324,-419"/>
<text text-anchor="middle" x="239" y="-398.2" font-family="Helvetica,sans-Serif" font-size="11.00">StorageSessionController.mLock</text>
</g>
<!-- m::com.android.server.storage.StorageSessionController.onVolumeMount:(Landroid/os/ParcelFileDescriptor;Lcom/android/server/storage/ImmutableVolumeInfo;)V&#45;&gt;com.android.server.storage.StorageSessionController.mLock -->
<g id="edge2" class="edge">
<title>m::com.android.server.storage.StorageSessionController.onVolumeMount:(Landroid/os/ParcelFileDescriptor;Lcom/android/server/storage/ImmutableVolumeInfo;)V&#45;&gt;com.android.server.storage.StorageSessionController.mLock</title>
<path fill="none" stroke="#dc2626" stroke-width="1.6" d="M420.73,-464.94C384.24,-452.3 334.42,-435.05 296.17,-421.8"/>
<polygon fill="#dc2626" stroke="#dc2626" stroke-width="1.6" points="296.67,-419.01 288.2,-419.04 294.84,-424.3 296.67,-419.01"/>
<text text-anchor="middle" x="390" y="-439.8" font-family="Helvetica,sans-Serif" font-size="9.00" fill="#dc2626"> acquires</text>
</g>
<!-- m::com.android.server.storage.StorageUserConnection.startSession:(Ljava/lang/String;Landroid/os/ParcelFileDescriptor;Ljava/lang/String;Ljava/lang/String;)V -->
<g id="node4" class="node">
<title>m::com.android.server.storage.StorageUserConnection.startSession:(Ljava/lang/String;Landroid/os/ParcelFileDescriptor;Ljava/lang/String;Ljava/lang/String;)V</title>
<path fill="#eef2ff" stroke="#a5b4fc" d="M567,-419C567,-419 373,-419 373,-419 367,-419 361,-413 361,-407 361,-407 361,-395 361,-395 361,-389 367,-383 373,-383 373,-383 567,-383 567,-383 573,-383 579,-389 579,-395 579,-395 579,-407 579,-407 579,-413 573,-419 567,-419"/>
<text text-anchor="middle" x="470" y="-398.2" font-family="Helvetica,sans-Serif" font-size="11.00">StorageUserConnection.startSession</text>
</g>
<!-- m::com.android.server.storage.StorageSessionController.onVolumeMount:(Landroid/os/ParcelFileDescriptor;Lcom/android/server/storage/ImmutableVolumeInfo;)V&#45;&gt;m::com.android.server.storage.StorageUserConnection.startSession:(Ljava/lang/String;Landroid/os/ParcelFileDescriptor;Ljava/lang/String;Ljava/lang/String;)V -->
<g id="edge4" class="edge">
<title>m::com.android.server.storage.StorageSessionController.onVolumeMount:(Landroid/os/ParcelFileDescriptor;Lcom/android/server/storage/ImmutableVolumeInfo;)V&#45;&gt;m::com.android.server.storage.StorageUserConnection.startSession:(Ljava/lang/String;Landroid/os/ParcelFileDescriptor;Ljava/lang/String;Ljava/lang/String;)V</title>
<path fill="none" stroke="#64748b" d="M462.43,-464.64C460.87,-453.66 460.59,-439.29 461.58,-427.09"/>
<polygon fill="#64748b" stroke="#64748b" points="464.37,-427.31 462.47,-419.05 458.81,-426.69 464.37,-427.31"/>
</g>
<!-- m::com.android.server.storage.StorageSessionController.onVolumeMount:(Landroid/os/ParcelFileDescriptor;Lcom/android/server/storage/ImmutableVolumeInfo;)V&#45;&gt;m::com.android.server.storage.StorageUserConnection.startSession:(Ljava/lang/String;Landroid/os/ParcelFileDescriptor;Ljava/lang/String;Ljava/lang/String;)V -->
<g id="edge11" class="edge">
<title>m::com.android.server.storage.StorageSessionController.onVolumeMount:(Landroid/os/ParcelFileDescriptor;Lcom/android/server/storage/ImmutableVolumeInfo;)V&#45;&gt;m::com.android.server.storage.StorageUserConnection.startSession:(Ljava/lang/String;Landroid/os/ParcelFileDescriptor;Ljava/lang/String;Ljava/lang/String;)V</title>
<path fill="none" stroke="#64748b" d="M478.2,-464.64C479.89,-453.66 480.2,-439.29 479.12,-427.09"/>
<polygon fill="#64748b" stroke="#64748b" points="481.89,-426.66 478.15,-419.05 476.33,-427.33 481.89,-426.66"/>
</g>
<!-- m::com.android.server.storage.StorageUserConnection$ActiveConnection.startSession:(Lcom/android/server/storage/StorageUserConnection$Session;Landroid/os/ParcelFileDescriptor;)V -->
<g id="node5" class="node">
<title>m::com.android.server.storage.StorageUserConnection$ActiveConnection.startSession:(Lcom/android/server/storage/StorageUserConnection$Session;Landroid/os/ParcelFileDescriptor;)V</title>
<path fill="#eef2ff" stroke="#a5b4fc" d="M323.5,-337C323.5,-337 26.5,-337 26.5,-337 20.5,-337 14.5,-331 14.5,-325 14.5,-325 14.5,-313 14.5,-313 14.5,-307 20.5,-301 26.5,-301 26.5,-301 323.5,-301 323.5,-301 329.5,-301 335.5,-307 335.5,-313 335.5,-313 335.5,-325 335.5,-325 335.5,-331 329.5,-337 323.5,-337"/>
<text text-anchor="middle" x="175" y="-316.2" font-family="Helvetica,sans-Serif" font-size="11.00">StorageUserConnection$ActiveConnection.startSession</text>
</g>
<!-- m::com.android.server.storage.StorageUserConnection.startSession:(Ljava/lang/String;Landroid/os/ParcelFileDescriptor;Ljava/lang/String;Ljava/lang/String;)V&#45;&gt;m::com.android.server.storage.StorageUserConnection$ActiveConnection.startSession:(Lcom/android/server/storage/StorageUserConnection$Session;Landroid/os/ParcelFileDescriptor;)V -->
<g id="edge5" class="edge">
<title>m::com.android.server.storage.StorageUserConnection.startSession:(Ljava/lang/String;Landroid/os/ParcelFileDescriptor;Ljava/lang/String;Ljava/lang/String;)V&#45;&gt;m::com.android.server.storage.StorageUserConnection$ActiveConnection.startSession:(Lcom/android/server/storage/StorageUserConnection$Session;Landroid/os/ParcelFileDescriptor;)V</title>
<path fill="none" stroke="#64748b" d="M407.08,-382.94C359.69,-370.09 294.72,-352.47 245.57,-339.14"/>
<polygon fill="#64748b" stroke="#64748b" points="246.28,-336.43 237.83,-337.04 244.81,-341.83 246.28,-336.43"/>
</g>
<!-- com.android.server.storage.StorageUserConnection.mSessionsLock -->
<g id="node10" class="node">
<title>com.android.server.storage.StorageUserConnection.mSessionsLock</title>
<path fill="#fee2e2" stroke="#dc2626" stroke-width="2" d="M581.5,-337C581.5,-337 372.5,-337 372.5,-337 366.5,-337 360.5,-331 360.5,-325 360.5,-325 360.5,-313 360.5,-313 360.5,-307 366.5,-301 372.5,-301 372.5,-301 581.5,-301 581.5,-301 587.5,-301 593.5,-307 593.5,-313 593.5,-313 593.5,-325 593.5,-325 593.5,-331 587.5,-337 581.5,-337"/>
<text text-anchor="middle" x="477" y="-316.2" font-family="Helvetica,sans-Serif" font-size="11.00">StorageUserConnection.mSessionsLock</text>
</g>
<!-- m::com.android.server.storage.StorageUserConnection.startSession:(Ljava/lang/String;Landroid/os/ParcelFileDescriptor;Ljava/lang/String;Ljava/lang/String;)V&#45;&gt;com.android.server.storage.StorageUserConnection.mSessionsLock -->
<g id="edge12" class="edge">
<title>m::com.android.server.storage.StorageUserConnection.startSession:(Ljava/lang/String;Landroid/os/ParcelFileDescriptor;Ljava/lang/String;Ljava/lang/String;)V&#45;&gt;com.android.server.storage.StorageUserConnection.mSessionsLock</title>
<path fill="none" stroke="#dc2626" stroke-width="1.6" d="M471.52,-382.64C472.48,-371.66 473.74,-357.29 474.8,-345.09"/>
<polygon fill="#dc2626" stroke="#dc2626" stroke-width="1.6" points="477.6,-345.26 475.51,-337.05 472.02,-344.78 477.6,-345.26"/>
<text text-anchor="middle" x="495" y="-357.8" font-family="Helvetica,sans-Serif" font-size="9.00" fill="#dc2626"> acquires</text>
</g>
<!-- m::com.android.server.storage.StorageUserConnection$ActiveConnection.waitForAsyncVoid:(Lcom/android/server/storage/StorageUserConnection$AsyncStorageServiceCall;)V -->
<g id="node6" class="node">
<title>m::com.android.server.storage.StorageUserConnection$ActiveConnection.waitForAsyncVoid:(Lcom/android/server/storage/StorageUserConnection$AsyncStorageServiceCall;)V</title>
<path fill="#eef2ff" stroke="#a5b4fc" d="M338,-264C338,-264 12,-264 12,-264 6,-264 0,-258 0,-252 0,-252 0,-240 0,-240 0,-234 6,-228 12,-228 12,-228 338,-228 338,-228 344,-228 350,-234 350,-240 350,-240 350,-252 350,-252 350,-258 344,-264 338,-264"/>
<text text-anchor="middle" x="175" y="-243.2" font-family="Helvetica,sans-Serif" font-size="11.00">StorageUserConnection$ActiveConnection.waitForAsyncVoid</text>
</g>
<!-- m::com.android.server.storage.StorageUserConnection$ActiveConnection.startSession:(Lcom/android/server/storage/StorageUserConnection$Session;Landroid/os/ParcelFileDescriptor;)V&#45;&gt;m::com.android.server.storage.StorageUserConnection$ActiveConnection.waitForAsyncVoid:(Lcom/android/server/storage/StorageUserConnection$AsyncStorageServiceCall;)V -->
<g id="edge6" class="edge">
<title>m::com.android.server.storage.StorageUserConnection$ActiveConnection.startSession:(Lcom/android/server/storage/StorageUserConnection$Session;Landroid/os/ParcelFileDescriptor;)V&#45;&gt;m::com.android.server.storage.StorageUserConnection$ActiveConnection.waitForAsyncVoid:(Lcom/android/server/storage/StorageUserConnection$AsyncStorageServiceCall;)V</title>
<path fill="none" stroke="#64748b" d="M175,-300.81C175,-292.18 175,-281.56 175,-272.03"/>
<polygon fill="#64748b" stroke="#64748b" points="177.8,-272.03 175,-264.03 172.2,-272.03 177.8,-272.03"/>
</g>
<!-- m::com.android.server.storage.StorageUserConnection$ActiveConnection.waitForAsyncVoid:(Lcom/android/server/storage/StorageUserConnection$AsyncStorageServiceCall;ZI)V -->
<g id="node7" class="node">
<title>m::com.android.server.storage.StorageUserConnection$ActiveConnection.waitForAsyncVoid:(Lcom/android/server/storage/StorageUserConnection$AsyncStorageServiceCall;ZI)V</title>
<path fill="#eef2ff" stroke="#a5b4fc" d="M338,-191C338,-191 12,-191 12,-191 6,-191 0,-185 0,-179 0,-179 0,-167 0,-167 0,-161 6,-155 12,-155 12,-155 338,-155 338,-155 344,-155 350,-161 350,-167 350,-167 350,-179 350,-179 350,-185 344,-191 338,-191"/>
<text text-anchor="middle" x="175" y="-170.2" font-family="Helvetica,sans-Serif" font-size="11.00">StorageUserConnection$ActiveConnection.waitForAsyncVoid</text>
</g>
<!-- m::com.android.server.storage.StorageUserConnection$ActiveConnection.waitForAsyncVoid:(Lcom/android/server/storage/StorageUserConnection$AsyncStorageServiceCall;)V&#45;&gt;m::com.android.server.storage.StorageUserConnection$ActiveConnection.waitForAsyncVoid:(Lcom/android/server/storage/StorageUserConnection$AsyncStorageServiceCall;ZI)V -->
<g id="edge7" class="edge">
<title>m::com.android.server.storage.StorageUserConnection$ActiveConnection.waitForAsyncVoid:(Lcom/android/server/storage/StorageUserConnection$AsyncStorageServiceCall;)V&#45;&gt;m::com.android.server.storage.StorageUserConnection$ActiveConnection.waitForAsyncVoid:(Lcom/android/server/storage/StorageUserConnection$AsyncStorageServiceCall;ZI)V</title>
<path fill="none" stroke="#64748b" d="M175,-227.81C175,-219.18 175,-208.56 175,-199.03"/>
<polygon fill="#64748b" stroke="#64748b" points="177.8,-199.03 175,-191.03 172.2,-199.03 177.8,-199.03"/>
</g>
<!-- m::com.android.server.storage.StorageUserConnection$ActiveConnection.waitForAsync:(Lcom/android/server/storage/StorageUserConnection$AsyncStorageServiceCall;Landroid/os/RemoteCallback;Ljava/util/concurrent/CompletableFuture;Ljava/util/ArrayList;ZJ)Ljava/lang/Object; -->
<g id="node8" class="node">
<title>m::com.android.server.storage.StorageUserConnection$ActiveConnection.waitForAsync:(Lcom/android/server/storage/StorageUserConnection$AsyncStorageServiceCall;Landroid/os/RemoteCallback;Ljava/util/concurrent/CompletableFuture;Ljava/util/ArrayList;ZJ)Ljava/lang/Object;</title>
<path fill="#eef2ff" stroke="#a5b4fc" d="M326,-118C326,-118 24,-118 24,-118 18,-118 12,-112 12,-106 12,-106 12,-94 12,-94 12,-88 18,-82 24,-82 24,-82 326,-82 326,-82 332,-82 338,-88 338,-94 338,-94 338,-106 338,-106 338,-112 332,-118 326,-118"/>
<text text-anchor="middle" x="175" y="-97.2" font-family="Helvetica,sans-Serif" font-size="11.00">StorageUserConnection$ActiveConnection.waitForAsync</text>
</g>
<!-- m::com.android.server.storage.StorageUserConnection$ActiveConnection.waitForAsyncVoid:(Lcom/android/server/storage/StorageUserConnection$AsyncStorageServiceCall;ZI)V&#45;&gt;m::com.android.server.storage.StorageUserConnection$ActiveConnection.waitForAsync:(Lcom/android/server/storage/StorageUserConnection$AsyncStorageServiceCall;Landroid/os/RemoteCallback;Ljava/util/concurrent/CompletableFuture;Ljava/util/ArrayList;ZJ)Ljava/lang/Object; -->
<g id="edge8" class="edge">
<title>m::com.android.server.storage.StorageUserConnection$ActiveConnection.waitForAsyncVoid:(Lcom/android/server/storage/StorageUserConnection$AsyncStorageServiceCall;ZI)V&#45;&gt;m::com.android.server.storage.StorageUserConnection$ActiveConnection.waitForAsync:(Lcom/android/server/storage/StorageUserConnection$AsyncStorageServiceCall;Landroid/os/RemoteCallback;Ljava/util/concurrent/CompletableFuture;Ljava/util/ArrayList;ZJ)Ljava/lang/Object;</title>
<path fill="none" stroke="#64748b" d="M175,-154.81C175,-146.18 175,-135.56 175,-126.03"/>
<polygon fill="#64748b" stroke="#64748b" points="177.8,-126.03 175,-118.03 172.2,-126.03 177.8,-126.03"/>
</g>
<!-- com.android.server.storage.StorageUserConnection$ActiveConnection.mLock -->
<g id="node9" class="node">
<title>com.android.server.storage.StorageUserConnection$ActiveConnection.mLock</title>
<path fill="#fee2e2" stroke="#dc2626" stroke-width="2" d="M307,-36C307,-36 43,-36 43,-36 37,-36 31,-30 31,-24 31,-24 31,-12 31,-12 31,-6 37,0 43,0 43,0 307,0 307,0 313,0 319,-6 319,-12 319,-12 319,-24 319,-24 319,-30 313,-36 307,-36"/>
<text text-anchor="middle" x="175" y="-15.2" font-family="Helvetica,sans-Serif" font-size="11.00">StorageUserConnection$ActiveConnection.mLock</text>
</g>
<!-- m::com.android.server.storage.StorageUserConnection$ActiveConnection.waitForAsync:(Lcom/android/server/storage/StorageUserConnection$AsyncStorageServiceCall;Landroid/os/RemoteCallback;Ljava/util/concurrent/CompletableFuture;Ljava/util/ArrayList;ZJ)Ljava/lang/Object;&#45;&gt;com.android.server.storage.StorageUserConnection$ActiveConnection.mLock -->
<g id="edge9" class="edge">
<title>m::com.android.server.storage.StorageUserConnection$ActiveConnection.waitForAsync:(Lcom/android/server/storage/StorageUserConnection$AsyncStorageServiceCall;Landroid/os/RemoteCallback;Ljava/util/concurrent/CompletableFuture;Ljava/util/ArrayList;ZJ)Ljava/lang/Object;&#45;&gt;com.android.server.storage.StorageUserConnection$ActiveConnection.mLock</title>
<path fill="none" stroke="#dc2626" stroke-width="1.6" d="M175,-81.64C175,-70.66 175,-56.29 175,-44.09"/>
<polygon fill="#dc2626" stroke="#dc2626" stroke-width="1.6" points="177.8,-44.05 175,-36.05 172.2,-44.05 177.8,-44.05"/>
<text text-anchor="middle" x="196" y="-56.8" font-family="Helvetica,sans-Serif" font-size="9.00" fill="#dc2626"> acquires</text>
</g>
<!-- m::com.android.server.utils.WatchableImpl.dispatchChange:(Lcom/android/server/utils/Watchable;)V -->
<g id="node12" class="node">
<title>m::com.android.server.utils.WatchableImpl.dispatchChange:(Lcom/android/server/utils/Watchable;)V</title>
<path fill="#eef2ff" stroke="#a5b4fc" d="M792.5,-419C792.5,-419 627.5,-419 627.5,-419 621.5,-419 615.5,-413 615.5,-407 615.5,-407 615.5,-395 615.5,-395 615.5,-389 621.5,-383 627.5,-383 627.5,-383 792.5,-383 792.5,-383 798.5,-383 804.5,-389 804.5,-395 804.5,-395 804.5,-407 804.5,-407 804.5,-413 798.5,-419 792.5,-419"/>
<text text-anchor="middle" x="710" y="-398.2" font-family="Helvetica,sans-Serif" font-size="11.00">WatchableImpl.dispatchChange</text>
</g>
<!-- m::com.android.server.storage.WatchedVolumeInfo.setFsPath:(Ljava/lang/String;)V&#45;&gt;m::com.android.server.utils.WatchableImpl.dispatchChange:(Lcom/android/server/utils/Watchable;)V -->
<g id="edge14" class="edge">
<title>m::com.android.server.storage.WatchedVolumeInfo.setFsPath:(Ljava/lang/String;)V&#45;&gt;m::com.android.server.utils.WatchableImpl.dispatchChange:(Lcom/android/server/utils/Watchable;)V</title>
<path fill="none" stroke="#64748b" d="M710,-464.64C710,-453.66 710,-439.29 710,-427.09"/>
<polygon fill="#64748b" stroke="#64748b" points="712.8,-427.05 710,-419.05 707.2,-427.05 712.8,-427.05"/>
</g>
<!-- com.android.server.utils.WatchableImpl.mObservers -->
<g id="node13" class="node">
<title>com.android.server.utils.WatchableImpl.mObservers</title>
<path fill="#fee2e2" stroke="#dc2626" stroke-width="2" d="M782.5,-337C782.5,-337 637.5,-337 637.5,-337 631.5,-337 625.5,-331 625.5,-325 625.5,-325 625.5,-313 625.5,-313 625.5,-307 631.5,-301 637.5,-301 637.5,-301 782.5,-301 782.5,-301 788.5,-301 794.5,-307 794.5,-313 794.5,-313 794.5,-325 794.5,-325 794.5,-331 788.5,-337 782.5,-337"/>
<text text-anchor="middle" x="710" y="-316.2" font-family="Helvetica,sans-Serif" font-size="11.00">WatchableImpl.mObservers</text>
</g>
<!-- m::com.android.server.utils.WatchableImpl.dispatchChange:(Lcom/android/server/utils/Watchable;)V&#45;&gt;com.android.server.utils.WatchableImpl.mObservers -->
<g id="edge15" class="edge">
<title>m::com.android.server.utils.WatchableImpl.dispatchChange:(Lcom/android/server/utils/Watchable;)V&#45;&gt;com.android.server.utils.WatchableImpl.mObservers</title>
<path fill="none" stroke="#dc2626" stroke-width="1.6" d="M710,-382.64C710,-371.66 710,-357.29 710,-345.09"/>
<polygon fill="#dc2626" stroke="#dc2626" stroke-width="1.6" points="712.8,-345.05 710,-337.05 707.2,-345.05 712.8,-345.05"/>
<text text-anchor="middle" x="731" y="-357.8" font-family="Helvetica,sans-Serif" font-size="9.00" fill="#dc2626"> acquires</text>
</g>
</g>
</svg>
