<?xml version="1.0" encoding="UTF-8" standalone="no"?>
<!DOCTYPE svg PUBLIC "-//W3C//DTD SVG 1.1//EN"
 "http://www.w3.org/Graphics/SVG/1.1/DTD/svg11.dtd">
<!-- Generated by graphviz version 2.43.0 (0)
 -->
<!-- Title: binder Pages: 1 -->
<svg width="231pt" height="126pt"
 viewBox="0.00 0.00 231.00 126.00" xmlns="http://www.w3.org/2000/svg" xmlns:xlink="http://www.w3.org/1999/xlink">
<g id="graph0" class="graph" transform="scale(1 1) rotate(0) translate(4 122)">
<title>binder</title>
<polygon fill="white" stroke="transparent" points="-4,4 -4,-122 227,-122 227,4 -4,4"/>
<!-- m::com.android.server.StorageManagerService$9.onFinished:(ILandroid/os/PersistableBundle;)V -->
<g id="node1" class="node">
<title>m::com.android.server.StorageManagerService$9.onFinished:(ILandroid/os/PersistableBundle;)V</title>
<path fill="#eef2ff" stroke="#a5b4fc" stroke-width="2" d="M211,-118C211,-118 12,-118 12,-118 6,-118 0,-112 0,-106 0,-106 0,-94 0,-94 0,-88 6,-82 12,-82 12,-82 211,-82 211,-82 217,-82 223,-88 223,-94 223,-94 223,-106 223,-106 223,-112 217,-118 211,-118"/>
<text text-anchor="middle" x="111.5" y="-97.2" font-family="Helvetica,sans-Serif" font-size="11.00">StorageManagerService$9.onFinished</text>
</g>
<!-- com.android.server.StorageManagerService.mLock -->
<g id="node2" class="node">
<title>com.android.server.StorageManagerService.mLock</title>
<path fill="#fee2e2" stroke="#dc2626" stroke-width="2" d="M193,-36C193,-36 30,-36 30,-36 24,-36 18,-30 18,-24 18,-24 18,-12 18,-12 18,-6 24,0 30,0 30,0 193,0 193,0 199,0 205,-6 205,-12 205,-12 205,-24 205,-24 205,-30 199,-36 193,-36"/>
<text text-anchor="middle" x="111.5" y="-15.2" font-family="Helvetica,sans-Serif" font-size="11.00">StorageManagerService.mLock</text>
</g>
<!-- m::com.android.server.StorageManagerService$9.onFinished:(ILandroid/os/PersistableBundle;)V&#45;&gt;com.android.server.StorageManagerService.mLock -->
<g id="edge1" class="edge">
<title>m::com.android.server.StorageManagerService$9.onFinished:(ILandroid/os/PersistableBundle;)V&#45;&gt;com.android.server.StorageManagerService.mLock</title>
<path fill="none" stroke="#dc2626" stroke-width="1.6" d="M111.5,-81.64C111.5,-70.66 111.5,-56.29 111.5,-44.09"/>
<polygon fill="#dc2626" stroke="#dc2626" stroke-width="1.6" points="114.3,-44.05 111.5,-36.05 108.7,-44.05 114.3,-44.05"/>
<text text-anchor="middle" x="132.5" y="-56.8" font-family="Helvetica,sans-Serif" font-size="9.00" fill="#dc2626"> acquires</text>
</g>
</g>
</svg>
