<?xml version="1.0" encoding="UTF-8" standalone="no"?>
<!DOCTYPE svg PUBLIC "-//W3C//DTD SVG 1.1//EN"
 "http://www.w3.org/Graphics/SVG/1.1/DTD/svg11.dtd">
<!-- Generated by graphviz version 2.43.0 (0)
 -->
<!-- Title: binder Pages: 1 -->
<svg width="308pt" height="126pt"
 viewBox="0.00 0.00 308.00 126.00" xmlns="http://www.w3.org/2000/svg" xmlns:xlink="http://www.w3.org/1999/xlink">
<g id="graph0" class="graph" transform="scale(1 1) rotate(0) translate(4 122)">
<title>binder</title>
<polygon fill="white" stroke="transparent" points="-4,4 -4,-122 304,-122 304,4 -4,4"/>
<!-- m::com.android.server.SystemServer$SystemServerDumper.addDumpable:(Landroid/util/Dumpable;)V -->
<g id="node1" class="node">
<title>m::com.android.server.SystemServer$SystemServerDumper.addDumpable:(Landroid/util/Dumpable;)V</title>
<path fill="#eef2ff" stroke="#a5b4fc" stroke-width="2" d="M288,-118C288,-118 12,-118 12,-118 6,-118 0,-112 0,-106 0,-106 0,-94 0,-94 0,-88 6,-82 12,-82 12,-82 288,-82 288,-82 294,-82 300,-88 300,-94 300,-94 300,-106 300,-106 300,-112 294,-118 288,-118"/>
<text text-anchor="middle" x="150" y="-97.2" font-family="Helvetica,sans-Serif" font-size="11.00">SystemServer$SystemServerDumper.addDumpable</text>
</g>
<!-- com.android.server.SystemServer$SystemServerDumper.mDumpables -->
<g id="node2" class="node">
<title>com.android.server.SystemServer$SystemServerDumper.mDumpables</title>
<path fill="#fee2e2" stroke="#dc2626" stroke-width="2" d="M286,-36C286,-36 14,-36 14,-36 8,-36 2,-30 2,-24 2,-24 2,-12 2,-12 2,-6 8,0 14,0 14,0 286,0 286,0 292,0 298,-6 298,-12 298,-12 298,-24 298,-24 298,-30 292,-36 286,-36"/>
<text text-anchor="middle" x="150" y="-15.2" font-family="Helvetica,sans-Serif" font-size="11.00">SystemServer$SystemServerDumper.mDumpables</text>
</g>
<!-- m::com.android.server.SystemServer$SystemServerDumper.addDumpable:(Landroid/util/Dumpable;)V&#45;&gt;com.android.server.SystemServer$SystemServerDumper.mDumpables -->
<g id="edge1" class="edge">
<title>m::com.android.server.SystemServer$SystemServerDumper.addDumpable:(Landroid/util/Dumpable;)V&#45;&gt;com.android.server.SystemServer$SystemServerDumper.mDumpables</title>
<path fill="none" stroke="#dc2626" stroke-width="1.6" d="M150,-81.64C150,-70.66 150,-56.29 150,-44.09"/>
<polygon fill="#dc2626" stroke="#dc2626" stroke-width="1.6" points="152.8,-44.05 150,-36.05 147.2,-44.05 152.8,-44.05"/>
<text text-anchor="middle" x="171" y="-56.8" font-family="Helvetica,sans-Serif" font-size="9.00" fill="#dc2626"> acquires</text>
</g>
</g>
</svg>
