<?xml version="1.0" encoding="UTF-8" standalone="no"?>
<!DOCTYPE svg PUBLIC "-//W3C//DTD SVG 1.1//EN"
 "http://www.w3.org/Graphics/SVG/1.1/DTD/svg11.dtd">
<!-- Generated by graphviz version 2.43.0 (0)
 -->
<!-- Title: binder Pages: 1 -->
<svg width="304pt" height="126pt"
 viewBox="0.00 0.00 304.00 126.00" xmlns="http://www.w3.org/2000/svg" xmlns:xlink="http://www.w3.org/1999/xlink">
<g id="graph0" class="graph" transform="scale(1 1) rotate(0) translate(4 122)">
<title>binder</title>
<polygon fill="white" stroke="transparent" points="-4,4 -4,-122 300,-122 300,4 -4,4"/>
<!-- m::com.android.server.SystemServer$SystemServerDumper.dump:(Ljava/io/FileDescriptor;Ljava/io/PrintWriter;[Ljava/lang/String;)V -->
<g id="node1" class="node">
<title>m::com.android.server.SystemServer$SystemServerDumper.dump:(Ljava/io/FileDescriptor;Ljava/io/PrintWriter;[Ljava/lang/String;)V</title>
<path fill="#eef2ff" stroke="#a5b4fc" stroke-width="2" d="M263.5,-118C263.5,-118 32.5,-118 32.5,-118 26.5,-118 20.5,-112 20.5,-106 20.5,-106 20.5,-94 20.5,-94 20.5,-88 26.5,-82 32.5,-82 32.5,-82 263.5,-82 263.5,-82 269.5,-82 275.5,-88 275.5,-94 275.5,-94 275.5,-106 275.5,-106 275.5,-112 269.5,-118 263.5,-118"/>
<text text-anchor="middle" x="148" y="-97.2" font-family="Helvetica,sans-Serif" font-size="11.00">SystemServer$SystemServerDumper.dump</text>
</g>
<!-- com.android.server.SystemServer$SystemServerDumper.mDumpables -->
<g id="node2" class="node">
<title>com.android.server.SystemServer$SystemServerDumper.mDumpables</title>
<path fill="#fee2e2" stroke="#dc2626" stroke-width="2" d="M284,-36C284,-36 12,-36 12,-36 6,-36 0,-30 0,-24 0,-24 0,-12 0,-12 0,-6 6,0 12,0 12,0 284,0 284,0 290,0 296,-6 296,-12 296,-12 296,-24 296,-24 296,-30 290,-36 284,-36"/>
<text text-anchor="middle" x="148" y="-15.2" font-family="Helvetica,sans-Serif" font-size="11.00">SystemServer$SystemServerDumper.mDumpables</text>
</g>
<!-- m::com.android.server.SystemServer$SystemServerDumper.dump:(Ljava/io/FileDescriptor;Ljava/io/PrintWriter;[Ljava/lang/String;)V&#45;&gt;com.android.server.SystemServer$SystemServerDumper.mDumpables -->
<g id="edge1" class="edge">
<title>m::com.android.server.SystemServer$SystemServerDumper.dump:(Ljava/io/FileDescriptor;Ljava/io/PrintWriter;[Ljava/lang/String;)V&#45;&gt;com.android.server.SystemServer$SystemServerDumper.mDumpables</title>
<path fill="none" stroke="#dc2626" stroke-width="1.6" d="M148,-81.64C148,-70.66 148,-56.29 148,-44.09"/>
<polygon fill="#dc2626" stroke="#dc2626" stroke-width="1.6" points="150.8,-44.05 148,-36.05 145.2,-44.05 150.8,-44.05"/>
<text text-anchor="middle" x="169" y="-56.8" font-family="Helvetica,sans-Serif" font-size="9.00" fill="#dc2626"> acquires</text>
</g>
</g>
</svg>
