<?xml version="1.0" encoding="UTF-8" standalone="no"?>
<!DOCTYPE svg PUBLIC "-//W3C//DTD SVG 1.1//EN"
 "http://www.w3.org/Graphics/SVG/1.1/DTD/svg11.dtd">
<!-- Generated by graphviz version 2.43.0 (0)
 -->
<!-- Title: binder Pages: 1 -->
<svg width="1006pt" height="436pt"
 viewBox="0.00 0.00 1006.00 436.00" xmlns="http://www.w3.org/2000/svg" xmlns:xlink="http://www.w3.org/1999/xlink">
<g id="graph0" class="graph" transform="scale(1 1) rotate(0) translate(4 432)">
<title>binder</title>
<polygon fill="white" stroke="transparent" points="-4,4 -4,-432 1002,-432 1002,4 -4,4"/>
<!-- m::com.android.server.am.ActivityManagerService$CacheBinder.dump:(Ljava/io/FileDescriptor;Ljava/io/PrintWriter;[Ljava/lang/String;)V -->
<g id="node1" class="node">
<title>m::com.android.server.am.ActivityManagerService$CacheBinder.dump:(Ljava/io/FileDescriptor;Ljava/io/PrintWriter;[Ljava/lang/String;)V</title>
<path fill="#eef2ff" stroke="#a5b4fc" stroke-width="2" d="M559.5,-428C559.5,-428 326.5,-428 326.5,-428 320.5,-428 314.5,-422 314.5,-416 314.5,-416 314.5,-404 314.5,-404 314.5,-398 320.5,-392 326.5,-392 326.5,-392 559.5,-392 559.5,-392 565.5,-392 571.5,-398 571.5,-404 571.5,-404 571.5,-416 571.5,-416 571.5,-422 565.5,-428 559.5,-428"/>
<text text-anchor="middle" x="443" y="-407.2" font-family="Helvetica,sans-Serif" font-size="11.00">ActivityManagerService$CacheBinder.dump</text>
</g>
<!-- m::com.android.server.am.CachedAppOptimizer.enableFreezer:(Z)Z -->
<g id="node2" class="node">
<title>m::com.android.server.am.CachedAppOptimizer.enableFreezer:(Z)Z</title>
<path fill="#eef2ff" stroke="#a5b4fc" d="M537,-355C537,-355 349,-355 349,-355 343,-355 337,-349 337,-343 337,-343 337,-331 337,-331 337,-325 343,-319 349,-319 349,-319 537,-319 537,-319 543,-319 549,-325 549,-331 549,-331 549,-343 549,-343 549,-349 543,-355 537,-355"/>
<text text-anchor="middle" x="443" y="-334.2" font-family="Helvetica,sans-Serif" font-size="11.00">CachedAppOptimizer.enableFreezer</text>
</g>
<!-- m::com.android.server.am.ActivityManagerService$CacheBinder.dump:(Ljava/io/FileDescriptor;Ljava/io/PrintWriter;[Ljava/lang/String;)V&#45;&gt;m::com.android.server.am.CachedAppOptimizer.enableFreezer:(Z)Z -->
<g id="edge1" class="edge">
<title>m::com.android.server.am.ActivityManagerService$CacheBinder.dump:(Ljava/io/FileDescriptor;Ljava/io/PrintWriter;[Ljava/lang/String;)V&#45;&gt;m::com.android.server.am.CachedAppOptimizer.enableFreezer:(Z)Z</title>
<path fill="none" stroke="#64748b" d="M426.67,-391.81C424.16,-383.18 423.6,-372.56 424.99,-363.03"/>
<polygon fill="#64748b" stroke="#64748b" points="427.77,-363.44 426.72,-355.03 422.3,-362.26 427.77,-363.44"/>
</g>
<!-- m::com.android.server.am.ActivityManagerService$CacheBinder.dump:(Ljava/io/FileDescriptor;Ljava/io/PrintWriter;[Ljava/lang/String;)V&#45;&gt;m::com.android.server.am.CachedAppOptimizer.enableFreezer:(Z)Z -->
<g id="edge3" class="edge">
<title>m::com.android.server.am.ActivityManagerService$CacheBinder.dump:(Ljava/io/FileDescriptor;Ljava/io/PrintWriter;[Ljava/lang/String;)V&#45;&gt;m::com.android.server.am.CachedAppOptimizer.enableFreezer:(Z)Z</title>
<path fill="none" stroke="#64748b" d="M443,-391.81C443,-383.18 443,-372.56 443,-363.03"/>
<polygon fill="#64748b" stroke="#64748b" points="445.8,-363.03 443,-355.03 440.2,-363.03 445.8,-363.03"/>
</g>
<!-- m::com.android.server.am.ActivityManagerService$CacheBinder.dump:(Ljava/io/FileDescriptor;Ljava/io/PrintWriter;[Ljava/lang/String;)V&#45;&gt;m::com.android.server.am.CachedAppOptimizer.enableFreezer:(Z)Z -->
<g id="edge5" class="edge">
<title>m::com.android.server.am.ActivityManagerService$CacheBinder.dump:(Ljava/io/FileDescriptor;Ljava/io/PrintWriter;[Ljava/lang/String;)V&#45;&gt;m::com.android.server.am.CachedAppOptimizer.enableFreezer:(Z)Z</title>
<path fill="none" stroke="#64748b" d="M459.33,-391.81C461.84,-383.18 462.4,-372.56 461.01,-363.03"/>
<polygon fill="#64748b" stroke="#64748b" points="463.7,-362.26 459.28,-355.03 458.23,-363.44 463.7,-362.26"/>
</g>
<!-- m::com.android.server.am.ActivityManagerService.dumpBinderCacheContents:(Ljava/io/FileDescriptor;Ljava/io/PrintWriter;[Ljava/lang/String;)V -->
<g id="node6" class="node">
<title>m::com.android.server.am.ActivityManagerService.dumpBinderCacheContents:(Ljava/io/FileDescriptor;Ljava/io/PrintWriter;[Ljava/lang/String;)V</title>
<path fill="#eef2ff" stroke="#a5b4fc" d="M862,-355C862,-355 586,-355 586,-355 580,-355 574,-349 574,-343 574,-343 574,-331 574,-331 574,-325 580,-319 586,-319 586,-319 862,-319 862,-319 868,-319 874,-325 874,-331 874,-331 874,-343 874,-343 874,-349 868,-355 862,-355"/>
<text text-anchor="middle" x="724" y="-334.2" font-family="Helvetica,sans-Serif" font-size="11.00">ActivityManagerService.dumpBinderCacheContents</text>
</g>
<!-- m::com.android.server.am.ActivityManagerService$CacheBinder.dump:(Ljava/io/FileDescriptor;Ljava/io/PrintWriter;[Ljava/lang/String;)V&#45;&gt;m::com.android.server.am.ActivityManagerService.dumpBinderCacheContents:(Ljava/io/FileDescriptor;Ljava/io/PrintWriter;[Ljava/lang/String;)V -->
<g id="edge7" class="edge">
<title>m::com.android.server.am.ActivityManagerService$CacheBinder.dump:(Ljava/io/FileDescriptor;Ljava/io/PrintWriter;[Ljava/lang/String;)V&#45;&gt;m::com.android.server.am.ActivityManagerService.dumpBinderCacheContents:(Ljava/io/FileDescriptor;Ljava/io/PrintWriter;[Ljava/lang/String;)V</title>
<path fill="none" stroke="#64748b" d="M502.49,-391.99C542.74,-381.45 596.35,-367.88 640.79,-356.98"/>
<polygon fill="#64748b" stroke="#64748b" points="641.59,-359.67 648.69,-355.05 640.26,-354.23 641.59,-359.67"/>
</g>
<!-- m::com.android.server.am.ActivityManagerService$CacheBinder.dump:(Ljava/io/FileDescriptor;Ljava/io/PrintWriter;[Ljava/lang/String;)V&#45;&gt;m::com.android.server.am.ActivityManagerService.dumpBinderCacheContents:(Ljava/io/FileDescriptor;Ljava/io/PrintWriter;[Ljava/lang/String;)V -->
<g id="edge12" class="edge">
<title>m::com.android.server.am.ActivityManagerService$CacheBinder.dump:(Ljava/io/FileDescriptor;Ljava/io/PrintWriter;[Ljava/lang/String;)V&#45;&gt;m::com.android.server.am.ActivityManagerService.dumpBinderCacheContents:(Ljava/io/FileDescriptor;Ljava/io/PrintWriter;[Ljava/lang/String;)V</title>
<path fill="none" stroke="#64748b" d="M518.77,-391.99C561.87,-381.51 615.27,-368.04 656.86,-357.18"/>
<polygon fill="#64748b" stroke="#64748b" points="657.72,-359.85 664.75,-355.11 656.3,-354.43 657.72,-359.85"/>
</g>
<!-- com.android.server.am.ActivityManagerService.mProcLock -->
<g id="node3" class="node">
<title>com.android.server.am.ActivityManagerService.mProcLock</title>
<path fill="#fee2e2" stroke="#dc2626" stroke-width="2" d="M198,-273C198,-273 12,-273 12,-273 6,-273 0,-267 0,-261 0,-261 0,-249 0,-249 0,-243 6,-237 12,-237 12,-237 198,-237 198,-237 204,-237 210,-243 210,-249 210,-249 210,-261 210,-261 210,-267 204,-273 198,-273"/>
<text text-anchor="middle" x="105" y="-252.2" font-family="Helvetica,sans-Serif" font-size="11.00">ActivityManagerService.mProcLock</text>
</g>
<!-- m::com.android.server.am.CachedAppOptimizer.enableFreezer:(Z)Z&#45;&gt;com.android.server.am.ActivityManagerService.mProcLock -->
<g id="edge2" class="edge">
<title>m::com.android.server.am.CachedAppOptimizer.enableFreezer:(Z)Z&#45;&gt;com.android.server.am.ActivityManagerService.mProcLock</title>
<path fill="none" stroke="#dc2626" stroke-width="1.6" d="M370.91,-318.94C316.28,-306.01 241.25,-288.25 184.82,-274.89"/>
<polygon fill="#dc2626" stroke="#dc2626" stroke-width="1.6" points="185.41,-272.16 176.98,-273.04 184.12,-277.61 185.41,-272.16"/>
<text text-anchor="middle" x="316" y="-293.8" font-family="Helvetica,sans-Serif" font-size="9.00" fill="#dc2626"> acquires</text>
</g>
<!-- com.android.server.am.CachedAppOptimizer -->
<g id="node4" class="node">
<title>com.android.server.am.CachedAppOptimizer</title>
<path fill="#fee2e2" stroke="#dc2626" stroke-width="2" d="M376.5,-273C376.5,-273 247.5,-273 247.5,-273 241.5,-273 235.5,-267 235.5,-261 235.5,-261 235.5,-249 235.5,-249 235.5,-243 241.5,-237 247.5,-237 247.5,-237 376.5,-237 376.5,-237 382.5,-237 388.5,-243 388.5,-249 388.5,-249 388.5,-261 388.5,-261 388.5,-267 382.5,-273 376.5,-273"/>
<text text-anchor="middle" x="312" y="-252.2" font-family="Helvetica,sans-Serif" font-size="11.00">am.CachedAppOptimizer</text>
</g>
<!-- m::com.android.server.am.CachedAppOptimizer.enableFreezer:(Z)Z&#45;&gt;com.android.server.am.CachedAppOptimizer -->
<g id="edge4" class="edge">
<title>m::com.android.server.am.CachedAppOptimizer.enableFreezer:(Z)Z&#45;&gt;com.android.server.am.CachedAppOptimizer</title>
<path fill="none" stroke="#dc2626" stroke-width="1.6" d="M414.9,-318.84C395.04,-306.71 368.28,-290.37 347.03,-277.39"/>
<polygon fill="#dc2626" stroke="#dc2626" stroke-width="1.6" points="348.34,-274.91 340.06,-273.13 345.42,-279.69 348.34,-274.91"/>
<text text-anchor="middle" x="407" y="-293.8" font-family="Helvetica,sans-Serif" font-size="9.00" fill="#dc2626"> acquires</text>
</g>
<!-- com.android.server.am.CachedAppOptimizer.mAm -->
<g id="node5" class="node">
<title>com.android.server.am.CachedAppOptimizer.mAm</title>
<path fill="#fee2e2" stroke="#dc2626" stroke-width="2" d="M566,-273C566,-273 426,-273 426,-273 420,-273 414,-267 414,-261 414,-261 414,-249 414,-249 414,-243 420,-237 426,-237 426,-237 566,-237 566,-237 572,-237 578,-243 578,-249 578,-249 578,-261 578,-261 578,-267 572,-273 566,-273"/>
<text text-anchor="middle" x="496" y="-252.2" font-family="Helvetica,sans-Serif" font-size="11.00">CachedAppOptimizer.mAm</text>
</g>
<!-- m::com.android.server.am.CachedAppOptimizer.enableFreezer:(Z)Z&#45;&gt;com.android.server.am.CachedAppOptimizer.mAm -->
<g id="edge6" class="edge">
<title>m::com.android.server.am.CachedAppOptimizer.enableFreezer:(Z)Z&#45;&gt;com.android.server.am.CachedAppOptimizer.mAm</title>
<path fill="none" stroke="#dc2626" stroke-width="1.6" d="M454.5,-318.64C461.98,-307.35 471.84,-292.46 480.08,-280.04"/>
<polygon fill="#dc2626" stroke="#dc2626" stroke-width="1.6" points="482.62,-281.27 484.7,-273.05 477.95,-278.17 482.62,-281.27"/>
<text text-anchor="middle" x="494" y="-293.8" font-family="Helvetica,sans-Serif" font-size="9.00" fill="#dc2626"> acquires</text>
</g>
<!-- m::com.android.server.am.ActivityManagerService.collectProcesses:(Ljava/io/PrintWriter;IZ[Ljava/lang/String;)Ljava/util/ArrayList; -->
<g id="node7" class="node">
<title>m::com.android.server.am.ActivityManagerService.collectProcesses:(Ljava/io/PrintWriter;IZ[Ljava/lang/String;)Ljava/util/ArrayList;</title>
<path fill="#eef2ff" stroke="#a5b4fc" d="M833,-273C833,-273 615,-273 615,-273 609,-273 603,-267 603,-261 603,-261 603,-249 603,-249 603,-243 609,-237 615,-237 615,-237 833,-237 833,-237 839,-237 845,-243 845,-249 845,-249 845,-261 845,-261 845,-267 839,-273 833,-273"/>
<text text-anchor="middle" x="724" y="-252.2" font-family="Helvetica,sans-Serif" font-size="11.00">ActivityManagerService.collectProcesses</text>
</g>
<!-- m::com.android.server.am.ActivityManagerService.dumpBinderCacheContents:(Ljava/io/FileDescriptor;Ljava/io/PrintWriter;[Ljava/lang/String;)V&#45;&gt;m::com.android.server.am.ActivityManagerService.collectProcesses:(Ljava/io/PrintWriter;IZ[Ljava/lang/String;)Ljava/util/ArrayList; -->
<g id="edge8" class="edge">
<title>m::com.android.server.am.ActivityManagerService.dumpBinderCacheContents:(Ljava/io/FileDescriptor;Ljava/io/PrintWriter;[Ljava/lang/String;)V&#45;&gt;m::com.android.server.am.ActivityManagerService.collectProcesses:(Ljava/io/PrintWriter;IZ[Ljava/lang/String;)Ljava/util/ArrayList;</title>
<path fill="none" stroke="#64748b" d="M724,-318.64C724,-307.66 724,-293.29 724,-281.09"/>
<polygon fill="#64748b" stroke="#64748b" points="726.8,-281.05 724,-273.05 721.2,-281.05 726.8,-281.05"/>
</g>
<!-- m::com.android.internal.util.jobs.FastPrintWriter.flush:()V -->
<g id="node11" class="node">
<title>m::com.android.internal.util.jobs.FastPrintWriter.flush:()V</title>
<path fill="#eef2ff" stroke="#a5b4fc" d="M986,-273C986,-273 882,-273 882,-273 876,-273 870,-267 870,-261 870,-261 870,-249 870,-249 870,-243 876,-237 882,-237 882,-237 986,-237 986,-237 992,-237 998,-243 998,-249 998,-249 998,-261 998,-261 998,-267 992,-273 986,-273"/>
<text text-anchor="middle" x="934" y="-252.2" font-family="Helvetica,sans-Serif" font-size="11.00">FastPrintWriter.flush</text>
</g>
<!-- m::com.android.server.am.ActivityManagerService.dumpBinderCacheContents:(Ljava/io/FileDescriptor;Ljava/io/PrintWriter;[Ljava/lang/String;)V&#45;&gt;m::com.android.internal.util.jobs.FastPrintWriter.flush:()V -->
<g id="edge13" class="edge">
<title>m::com.android.server.am.ActivityManagerService.dumpBinderCacheContents:(Ljava/io/FileDescriptor;Ljava/io/PrintWriter;[Ljava/lang/String;)V&#45;&gt;m::com.android.internal.util.jobs.FastPrintWriter.flush:()V</title>
<path fill="none" stroke="#64748b" d="M768.79,-318.94C801.83,-306.35 846.88,-289.19 881.59,-275.97"/>
<polygon fill="#64748b" stroke="#64748b" points="882.8,-278.5 889.28,-273.04 880.8,-273.27 882.8,-278.5"/>
</g>
<!-- m::com.android.server.am.ProcessList.collectProcessesLOSP:(IZ[Ljava/lang/String;)Ljava/util/ArrayList; -->
<g id="node8" class="node">
<title>m::com.android.server.am.ProcessList.collectProcessesLOSP:(IZ[Ljava/lang/String;)Ljava/util/ArrayList;</title>
<path fill="#eef2ff" stroke="#a5b4fc" d="M813.5,-191C813.5,-191 634.5,-191 634.5,-191 628.5,-191 622.5,-185 622.5,-179 622.5,-179 622.5,-167 622.5,-167 622.5,-161 628.5,-155 634.5,-155 634.5,-155 813.5,-155 813.5,-155 819.5,-155 825.5,-161 825.5,-167 825.5,-167 825.5,-179 825.5,-179 825.5,-185 819.5,-191 813.5,-191"/>
<text text-anchor="middle" x="724" y="-170.2" font-family="Helvetica,sans-Serif" font-size="11.00">ProcessList.collectProcessesLOSP</text>
</g>
<!-- m::com.android.server.am.ActivityManagerService.collectProcesses:(Ljava/io/PrintWriter;IZ[Ljava/lang/String;)Ljava/util/ArrayList;&#45;&gt;m::com.android.server.am.ProcessList.collectProcessesLOSP:(IZ[Ljava/lang/String;)Ljava/util/ArrayList; -->
<g id="edge9" class="edge">
<title>m::com.android.server.am.ActivityManagerService.collectProcesses:(Ljava/io/PrintWriter;IZ[Ljava/lang/String;)Ljava/util/ArrayList;&#45;&gt;m::com.android.server.am.ProcessList.collectProcessesLOSP:(IZ[Ljava/lang/String;)Ljava/util/ArrayList;</title>
<path fill="none" stroke="#64748b" d="M724,-236.64C724,-225.66 724,-211.29 724,-199.09"/>
<polygon fill="#64748b" stroke="#64748b" points="726.8,-199.05 724,-191.05 721.2,-199.05 726.8,-199.05"/>
</g>
<!-- m::com.android.server.am.PackageList.containsKey:(Ljava/lang/Object;)Z -->
<g id="node9" class="node">
<title>m::com.android.server.am.PackageList.containsKey:(Ljava/lang/Object;)Z</title>
<path fill="#eef2ff" stroke="#a5b4fc" d="M788,-118C788,-118 660,-118 660,-118 654,-118 648,-112 648,-106 648,-106 648,-94 648,-94 648,-88 654,-82 660,-82 660,-82 788,-82 788,-82 794,-82 800,-88 800,-94 800,-94 800,-106 800,-106 800,-112 794,-118 788,-118"/>
<text text-anchor="middle" x="724" y="-97.2" font-family="Helvetica,sans-Serif" font-size="11.00">PackageList.containsKey</text>
</g>
<!-- m::com.android.server.am.ProcessList.collectProcessesLOSP:(IZ[Ljava/lang/String;)Ljava/util/ArrayList;&#45;&gt;m::com.android.server.am.PackageList.containsKey:(Ljava/lang/Object;)Z -->
<g id="edge10" class="edge">
<title>m::com.android.server.am.ProcessList.collectProcessesLOSP:(IZ[Ljava/lang/String;)Ljava/util/ArrayList;&#45;&gt;m::com.android.server.am.PackageList.containsKey:(Ljava/lang/Object;)Z</title>
<path fill="none" stroke="#64748b" d="M724,-154.81C724,-146.18 724,-135.56 724,-126.03"/>
<polygon fill="#64748b" stroke="#64748b" points="726.8,-126.03 724,-118.03 721.2,-126.03 726.8,-126.03"/>
</g>
<!-- com.android.server.am.PackageList -->
<g id="node10" class="node">
<title>com.android.server.am.PackageList</title>
<path fill="#fee2e2" stroke="#dc2626" stroke-width="2" d="M763,-36C763,-36 685,-36 685,-36 679,-36 673,-30 673,-24 673,-24 673,-12 673,-12 673,-6 679,0 685,0 685,0 763,0 763,0 769,0 775,-6 775,-12 775,-12 775,-24 775,-24 775,-30 769,-36 763,-36"/>
<text text-anchor="middle" x="724" y="-15.2" font-family="Helvetica,sans-Serif" font-size="11.00">am.PackageList</text>
</g>
<!-- m::com.android.server.am.PackageList.containsKey:(Ljava/lang/Object;)Z&#45;&gt;com.android.server.am.PackageList -->
<g id="edge11" class="edge">
<title>m::com.android.server.am.PackageList.containsKey:(Ljava/lang/Object;)Z&#45;&gt;com.android.server.am.PackageList</title>
<path fill="none" stroke="#dc2626" stroke-width="1.6" d="M724,-81.64C724,-70.66 724,-56.29 724,-44.09"/>
<polygon fill="#dc2626" stroke="#dc2626" stroke-width="1.6" points="726.8,-44.05 724,-36.05 721.2,-44.05 726.8,-44.05"/>
<text text-anchor="middle" x="745" y="-56.8" font-family="Helvetica,sans-Serif" font-size="9.00" fill="#dc2626"> acquires</text>
</g>
<!-- java.io.PrintWriter.lock -->
<g id="node12" class="node">
<title>java.io.PrintWriter.lock</title>
<path fill="#fee2e2" stroke="#dc2626" stroke-width="2" d="M972.5,-191C972.5,-191 895.5,-191 895.5,-191 889.5,-191 883.5,-185 883.5,-179 883.5,-179 883.5,-167 883.5,-167 883.5,-161 889.5,-155 895.5,-155 895.5,-155 972.5,-155 972.5,-155 978.5,-155 984.5,-161 984.5,-167 984.5,-167 984.5,-179 984.5,-179 984.5,-185 978.5,-191 972.5,-191"/>
<text text-anchor="middle" x="934" y="-170.2" font-family="Helvetica,sans-Serif" font-size="11.00">PrintWriter.lock</text>
</g>
<!-- m::com.android.internal.util.jobs.FastPrintWriter.flush:()V&#45;&gt;java.io.PrintWriter.lock -->
<g id="edge14" class="edge">
<title>m::com.android.internal.util.jobs.FastPrintWriter.flush:()V&#45;&gt;java.io.PrintWriter.lock</title>
<path fill="none" stroke="#dc2626" stroke-width="1.6" d="M934,-236.64C934,-225.66 934,-211.29 934,-199.09"/>
<polygon fill="#dc2626" stroke="#dc2626" stroke-width="1.6" points="936.8,-199.05 934,-191.05 931.2,-199.05 936.8,-199.05"/>
<text text-anchor="middle" x="955" y="-211.8" font-family="Helvetica,sans-Serif" font-size="9.00" fill="#dc2626"> acquires</text>
</g>
</g>
</svg>
