<?xml version="1.0" encoding="UTF-8" standalone="no"?>
<!DOCTYPE svg PUBLIC "-//W3C//DTD SVG 1.1//EN"
 "http://www.w3.org/Graphics/SVG/1.1/DTD/svg11.dtd">
<!-- Generated by graphviz version 2.43.0 (0)
 -->
<!-- Title: binder Pages: 1 -->
<svg width="1006pt" height="436pt"
 viewBox="0.00 0.00 1006.00 436.00" xmlns="http://www.w3.org/2000/svg" xmlns:xlink="http://www.w3.org/1999/xlink">
<g id="graph0" class="graph" transform="scale(1 1) rotate(0) translate(4 432)">
<title>binder</title>
<polygon fill="white" stroke="transparent" points="-4,4 -4,-432 1002,-432 1002,4 -4,4"/>
<!-- m::com.android.server.am.ActivityManagerService$DbBinder.dump:(Ljava/io/FileDescriptor;Ljava/io/PrintWriter;[Ljava/lang/String;)V -->
<g id="node1" class="node">
<title>m::com.android.server.am.ActivityManagerService$DbBinder.dump:(Ljava/io/FileDescriptor;Ljava/io/PrintWriter;[Ljava/lang/String;)V</title>
<path fill="#eef2ff" stroke="#a5b4fc" stroke-width="2" d="M591,-428C591,-428 377,-428 377,-428 371,-428 365,-422 365,-416 365,-416 365,-404 365,-404 365,-398 371,-392 377,-392 377,-392 591,-392 591,-392 597,-392 603,-398 603,-404 603,-404 603,-416 603,-416 603,-422 597,-428 591,-428"/>
<text text-anchor="middle" x="484" y="-407.2" font-family="Helvetica,sans-Serif" font-size="11.00">ActivityManagerService$DbBinder.dump</text>
</g>
<!-- m::com.android.server.am.CachedAppOptimizer.enableFreezer:(Z)Z -->
<g id="node2" class="node">
<title>m::com.android.server.am.CachedAppOptimizer.enableFreezer:(Z)Z</title>
<path fill="#eef2ff" stroke="#a5b4fc" d="M578,-355C578,-355 390,-355 390,-355 384,-355 378,-349 378,-343 378,-343 378,-331 378,-331 378,-325 384,-319 390,-319 390,-319 578,-319 578,-319 584,-319 590,-325 590,-331 590,-331 590,-343 590,-343 590,-349 584,-355 578,-355"/>
<text text-anchor="middle" x="484" y="-334.2" font-family="Helvetica,sans-Serif" font-size="11.00">CachedAppOptimizer.enableFreezer</text>
</g>
<!-- m::com.android.server.am.ActivityManagerService$DbBinder.dump:(Ljava/io/FileDescriptor;Ljava/io/PrintWriter;[Ljava/lang/String;)V&#45;&gt;m::com.android.server.am.CachedAppOptimizer.enableFreezer:(Z)Z -->
<g id="edge1" class="edge">
<title>m::com.android.server.am.ActivityManagerService$DbBinder.dump:(Ljava/io/FileDescriptor;Ljava/io/PrintWriter;[Ljava/lang/String;)V&#45;&gt;m::com.android.server.am.CachedAppOptimizer.enableFreezer:(Z)Z</title>
<path fill="none" stroke="#64748b" d="M467.67,-391.81C465.16,-383.18 464.6,-372.56 465.99,-363.03"/>
<polygon fill="#64748b" stroke="#64748b" points="468.77,-363.44 467.72,-355.03 463.3,-362.26 468.77,-363.44"/>
</g>
<!-- m::com.android.server.am.ActivityManagerService$DbBinder.dump:(Ljava/io/FileDescriptor;Ljava/io/PrintWriter;[Ljava/lang/String;)V&#45;&gt;m::com.android.server.am.CachedAppOptimizer.enableFreezer:(Z)Z -->
<g id="edge3" class="edge">
<title>m::com.android.server.am.ActivityManagerService$DbBinder.dump:(Ljava/io/FileDescriptor;Ljava/io/PrintWriter;[Ljava/lang/String;)V&#45;&gt;m::com.android.server.am.CachedAppOptimizer.enableFreezer:(Z)Z</title>
<path fill="none" stroke="#64748b" d="M484,-391.81C484,-383.18 484,-372.56 484,-363.03"/>
<polygon fill="#64748b" stroke="#64748b" points="486.8,-363.03 484,-355.03 481.2,-363.03 486.8,-363.03"/>
</g>
<!-- m::com.android.server.am.ActivityManagerService$DbBinder.dump:(Ljava/io/FileDescriptor;Ljava/io/PrintWriter;[Ljava/lang/String;)V&#45;&gt;m::com.android.server.am.CachedAppOptimizer.enableFreezer:(Z)Z -->
<g id="edge5" class="edge">
<title>m::com.android.server.am.ActivityManagerService$DbBinder.dump:(Ljava/io/FileDescriptor;Ljava/io/PrintWriter;[Ljava/lang/String;)V&#45;&gt;m::com.android.server.am.CachedAppOptimizer.enableFreezer:(Z)Z</title>
<path fill="none" stroke="#64748b" d="M500.33,-391.81C502.84,-383.18 503.4,-372.56 502.01,-363.03"/>
<polygon fill="#64748b" stroke="#64748b" points="504.7,-362.26 500.28,-355.03 499.23,-363.44 504.7,-362.26"/>
</g>
<!-- m::com.android.server.am.ActivityManagerService.dumpDbInfo:(Ljava/io/FileDescriptor;Ljava/io/PrintWriter;[Ljava/lang/String;)V -->
<g id="node6" class="node">
<title>m::com.android.server.am.ActivityManagerService.dumpDbInfo:(Ljava/io/FileDescriptor;Ljava/io/PrintWriter;[Ljava/lang/String;)V</title>
<path fill="#eef2ff" stroke="#a5b4fc" d="M820.5,-355C820.5,-355 627.5,-355 627.5,-355 621.5,-355 615.5,-349 615.5,-343 615.5,-343 615.5,-331 615.5,-331 615.5,-325 621.5,-319 627.5,-319 627.5,-319 820.5,-319 820.5,-319 826.5,-319 832.5,-325 832.5,-331 832.5,-331 832.5,-343 832.5,-343 832.5,-349 826.5,-355 820.5,-355"/>
<text text-anchor="middle" x="724" y="-334.2" font-family="Helvetica,sans-Serif" font-size="11.00">ActivityManagerService.dumpDbInfo</text>
</g>
<!-- m::com.android.server.am.ActivityManagerService$DbBinder.dump:(Ljava/io/FileDescriptor;Ljava/io/PrintWriter;[Ljava/lang/String;)V&#45;&gt;m::com.android.server.am.ActivityManagerService.dumpDbInfo:(Ljava/io/FileDescriptor;Ljava/io/PrintWriter;[Ljava/lang/String;)V -->
<g id="edge7" class="edge">
<title>m::com.android.server.am.ActivityManagerService$DbBinder.dump:(Ljava/io/FileDescriptor;Ljava/io/PrintWriter;[Ljava/lang/String;)V&#45;&gt;m::com.android.server.am.ActivityManagerService.dumpDbInfo:(Ljava/io/FileDescriptor;Ljava/io/PrintWriter;[Ljava/lang/String;)V</title>
<path fill="none" stroke="#64748b" d="M533.67,-391.99C567.41,-381.58 612.49,-368.21 650.36,-357.38"/>
<polygon fill="#64748b" stroke="#64748b" points="651.4,-360 658.32,-355.11 649.86,-354.61 651.4,-360"/>
</g>
<!-- m::com.android.server.am.ActivityManagerService$DbBinder.dump:(Ljava/io/FileDescriptor;Ljava/io/PrintWriter;[Ljava/lang/String;)V&#45;&gt;m::com.android.server.am.ActivityManagerService.dumpDbInfo:(Ljava/io/FileDescriptor;Ljava/io/PrintWriter;[Ljava/lang/String;)V -->
<g id="edge12" class="edge">
<title>m::com.android.server.am.ActivityManagerService$DbBinder.dump:(Ljava/io/FileDescriptor;Ljava/io/PrintWriter;[Ljava/lang/String;)V&#45;&gt;m::com.android.server.am.ActivityManagerService.dumpDbInfo:(Ljava/io/FileDescriptor;Ljava/io/PrintWriter;[Ljava/lang/String;)V</title>
<path fill="none" stroke="#64748b" d="M549.95,-391.99C586.61,-381.62 631.67,-368.32 666.83,-357.52"/>
<polygon fill="#64748b" stroke="#64748b" points="667.81,-360.15 674.63,-355.11 666.16,-354.8 667.81,-360.15"/>
</g>
<!-- com.android.server.am.ActivityManagerService.mProcLock -->
<g id="node3" class="node">
<title>com.android.server.am.ActivityManagerService.mProcLock</title>
<path fill="#fee2e2" stroke="#dc2626" stroke-width="2" d="M198,-273C198,-273 12,-273 12,-273 6,-273 0,-267 0,-261 0,-261 0,-249 0,-249 0,-243 6,-237 12,-237 12,-237 198,-237 198,-237 204,-237 210,-243 210,-249 210,-249 210,-261 210,-261 210,-267 204,-273 198,-273"/>
<text text-anchor="middle" x="105" y="-252.2" font-family="Helvetica,sans-Serif" font-size="11.00">ActivityManagerService.mProcLock</text>
</g>
<!-- m::com.android.server.am.CachedAppOptimizer.enableFreezer:(Z)Z&#45;&gt;com.android.server.am.ActivityManagerService.mProcLock -->
<g id="edge2" class="edge">
<title>m::com.android.server.am.CachedAppOptimizer.enableFreezer:(Z)Z&#45;&gt;com.android.server.am.ActivityManagerService.mProcLock</title>
<path fill="none" stroke="#dc2626" stroke-width="1.6" d="M403.16,-318.94C341.66,-305.95 257.09,-288.1 193.73,-274.73"/>
<polygon fill="#dc2626" stroke="#dc2626" stroke-width="1.6" points="194.12,-271.95 185.72,-273.04 192.97,-277.43 194.12,-271.95"/>
<text text-anchor="middle" x="339" y="-293.8" font-family="Helvetica,sans-Serif" font-size="9.00" fill="#dc2626"> acquires</text>
</g>
<!-- com.android.server.am.CachedAppOptimizer -->
<g id="node4" class="node">
<title>com.android.server.am.CachedAppOptimizer</title>
<path fill="#fee2e2" stroke="#dc2626" stroke-width="2" d="M376.5,-273C376.5,-273 247.5,-273 247.5,-273 241.5,-273 235.5,-267 235.5,-261 235.5,-261 235.5,-249 235.5,-249 235.5,-243 241.5,-237 247.5,-237 247.5,-237 376.5,-237 376.5,-237 382.5,-237 388.5,-243 388.5,-249 388.5,-249 388.5,-261 388.5,-261 388.5,-267 382.5,-273 376.5,-273"/>
<text text-anchor="middle" x="312" y="-252.2" font-family="Helvetica,sans-Serif" font-size="11.00">am.CachedAppOptimizer</text>
</g>
<!-- m::com.android.server.am.CachedAppOptimizer.enableFreezer:(Z)Z&#45;&gt;com.android.server.am.CachedAppOptimizer -->
<g id="edge4" class="edge">
<title>m::com.android.server.am.CachedAppOptimizer.enableFreezer:(Z)Z&#45;&gt;com.android.server.am.CachedAppOptimizer</title>
<path fill="none" stroke="#dc2626" stroke-width="1.6" d="M447.1,-318.84C420.46,-306.45 384.37,-289.66 356.19,-276.55"/>
<polygon fill="#dc2626" stroke="#dc2626" stroke-width="1.6" points="357.27,-273.97 348.84,-273.13 354.91,-279.05 357.27,-273.97"/>
<text text-anchor="middle" x="430" y="-293.8" font-family="Helvetica,sans-Serif" font-size="9.00" fill="#dc2626"> acquires</text>
</g>
<!-- com.android.server.am.CachedAppOptimizer.mAm -->
<g id="node5" class="node">
<title>com.android.server.am.CachedAppOptimizer.mAm</title>
<path fill="#fee2e2" stroke="#dc2626" stroke-width="2" d="M566,-273C566,-273 426,-273 426,-273 420,-273 414,-267 414,-261 414,-261 414,-249 414,-249 414,-243 420,-237 426,-237 426,-237 566,-237 566,-237 572,-237 578,-243 578,-249 578,-249 578,-261 578,-261 578,-267 572,-273 566,-273"/>
<text text-anchor="middle" x="496" y="-252.2" font-family="Helvetica,sans-Serif" font-size="11.00">CachedAppOptimizer.mAm</text>
</g>
<!-- m::com.android.server.am.CachedAppOptimizer.enableFreezer:(Z)Z&#45;&gt;com.android.server.am.CachedAppOptimizer.mAm -->
<g id="edge6" class="edge">
<title>m::com.android.server.am.CachedAppOptimizer.enableFreezer:(Z)Z&#45;&gt;com.android.server.am.CachedAppOptimizer.mAm</title>
<path fill="none" stroke="#dc2626" stroke-width="1.6" d="M486.6,-318.64C488.25,-307.66 490.41,-293.29 492.24,-281.09"/>
<polygon fill="#dc2626" stroke="#dc2626" stroke-width="1.6" points="495.02,-281.38 493.44,-273.05 489.49,-280.55 495.02,-281.38"/>
<text text-anchor="middle" x="512" y="-293.8" font-family="Helvetica,sans-Serif" font-size="9.00" fill="#dc2626"> acquires</text>
</g>
<!-- m::com.android.server.am.ActivityManagerService.collectProcesses:(Ljava/io/PrintWriter;IZ[Ljava/lang/String;)Ljava/util/ArrayList; -->
<g id="node7" class="node">
<title>m::com.android.server.am.ActivityManagerService.collectProcesses:(Ljava/io/PrintWriter;IZ[Ljava/lang/String;)Ljava/util/ArrayList;</title>
<path fill="#eef2ff" stroke="#a5b4fc" d="M833,-273C833,-273 615,-273 615,-273 609,-273 603,-267 603,-261 603,-261 603,-249 603,-249 603,-243 609,-237 615,-237 615,-237 833,-237 833,-237 839,-237 845,-243 845,-249 845,-249 845,-261 845,-261 845,-267 839,-273 833,-273"/>
<text text-anchor="middle" x="724" y="-252.2" font-family="Helvetica,sans-Serif" font-size="11.00">ActivityManagerService.collectProcesses</text>
</g>
<!-- m::com.android.server.am.ActivityManagerService.dumpDbInfo:(Ljava/io/FileDescriptor;Ljava/io/PrintWriter;[Ljava/lang/String;)V&#45;&gt;m::com.android.server.am.ActivityManagerService.collectProcesses:(Ljava/io/PrintWriter;IZ[Ljava/lang/String;)Ljava/util/ArrayList; -->
<g id="edge8" class="edge">
<title>m::com.android.server.am.ActivityManagerService.dumpDbInfo:(Ljava/io/FileDescriptor;Ljava/io/PrintWriter;[Ljava/lang/String;)V&#45;&gt;m::com.android.server.am.ActivityManagerService.collectProcesses:(Ljava/io/PrintWriter;IZ[Ljava/lang/String;)Ljava/util/ArrayList;</title>
<path fill="none" stroke="#64748b" d="M724,-318.64C724,-307.66 724,-293.29 724,-281.09"/>
<polygon fill="#64748b" stroke="#64748b" points="726.8,-281.05 724,-273.05 721.2,-281.05 726.8,-281.05"/>
</g>
<!-- m::com.android.internal.util.jobs.FastPrintWriter.flush:()V -->
<g id="node11" class="node">
<title>m::com.android.internal.util.jobs.FastPrintWriter.flush:()V</title>
<path fill="#eef2ff" stroke="#a5b4fc" d="M986,-273C986,-273 882,-273 882,-273 876,-273 870,-267 870,-261 870,-261 870,-249 870,-249 870,-243 876,-237 882,-237 882,-237 986,-237 986,-237 992,-237 998,-243 998,-249 998,-249 998,-261 998,-261 998,-267 992,-273 986,-273"/>
<text text-anchor="middle" x="934" y="-252.2" font-family="Helvetica,sans-Serif" font-size="11.00">FastPrintWriter.flush</text>
</g>
<!-- m::com.android.server.am.ActivityManagerService.dumpDbInfo:(Ljava/io/FileDescriptor;Ljava/io/PrintWriter;[Ljava/lang/String;)V&#45;&gt;m::com.android.internal.util.jobs.FastPrintWriter.flush:()V -->
<g id="edge13" class="edge">
<title>m::com.android.server.am.ActivityManagerService.dumpDbInfo:(Ljava/io/FileDescriptor;Ljava/io/PrintWriter;[Ljava/lang/String;)V&#45;&gt;m::com.android.internal.util.jobs.FastPrintWriter.flush:()V</title>
<path fill="none" stroke="#64748b" d="M768.79,-318.94C801.83,-306.35 846.88,-289.19 881.59,-275.97"/>
<polygon fill="#64748b" stroke="#64748b" points="882.8,-278.5 889.28,-273.04 880.8,-273.27 882.8,-278.5"/>
</g>
<!-- m::com.android.server.am.ProcessList.collectProcessesLOSP:(IZ[Ljava/lang/String;)Ljava/util/ArrayList; -->
<g id="node8" class="node">
<title>m::com.android.server.am.ProcessList.collectProcessesLOSP:(IZ[Ljava/lang/String;)Ljava/util/ArrayList;</title>
<path fill="#eef2ff" stroke="#a5b4fc" d="M813.5,-191C813.5,-191 634.5,-191 634.5,-191 628.5,-191 622.5,-185 622.5,-179 622.5,-179 622.5,-167 622.5,-167 622.5,-161 628.5,-155 634.5,-155 634.5,-155 813.5,-155 813.5,-155 819.5,-155 825.5,-161 825.5,-167 825.5,-167 825.5,-179 825.5,-179 825.5,-185 819.5,-191 813.5,-191"/>
<text text-anchor="middle" x="724" y="-170.2" font-family="Helvetica,sans-Serif" font-size="11.00">ProcessList.collectProcessesLOSP</text>
</g>
<!-- m::com.android.server.am.ActivityManagerService.collectProcesses:(Ljava/io/PrintWriter;IZ[Ljava/lang/String;)Ljava/util/ArrayList;&#45;&gt;m::com.android.server.am.ProcessList.collectProcessesLOSP:(IZ[Ljava/lang/String;)Ljava/util/ArrayList; -->
<g id="edge9" class="edge">
<title>m::com.android.server.am.ActivityManagerService.collectProcesses:(Ljava/io/PrintWriter;IZ[Ljava/lang/String;)Ljava/util/ArrayList;&#45;&gt;m::com.android.server.am.ProcessList.collectProcessesLOSP:(IZ[Ljava/lang/String;)Ljava/util/ArrayList;</title>
<path fill="none" stroke="#64748b" d="M724,-236.64C724,-225.66 724,-211.29 724,-199.09"/>
<polygon fill="#64748b" stroke="#64748b" points="726.8,-199.05 724,-191.05 721.2,-199.05 726.8,-199.05"/>
</g>
<!-- m::com.android.server.am.PackageList.containsKey:(Ljava/lang/Object;)Z -->
<g id="node9" class="node">
<title>m::com.android.server.am.PackageList.containsKey:(Ljava/lang/Object;)Z</title>
<path fill="#eef2ff" stroke="#a5b4fc" d="M788,-118C788,-118 660,-118 660,-118 654,-118 648,-112 648,-106 648,-106 648,-94 648,-94 648,-88 654,-82 660,-82 660,-82 788,-82 788,-82 794,-82 800,-88 800,-94 800,-94 800,-106 800,-106 800,-112 794,-118 788,-118"/>
<text text-anchor="middle" x="724" y="-97.2" font-family="Helvetica,sans-Serif" font-size="11.00">PackageList.containsKey</text>
</g>
<!-- m::com.android.server.am.ProcessList.collectProcessesLOSP:(IZ[Ljava/lang/String;)Ljava/util/ArrayList;&#45;&gt;m::com.android.server.am.PackageList.containsKey:(Ljava/lang/Object;)Z -->
<g id="edge10" class="edge">
<title>m::com.android.server.am.ProcessList.collectProcessesLOSP:(IZ[Ljava/lang/String;)Ljava/util/ArrayList;&#45;&gt;m::com.android.server.am.PackageList.containsKey:(Ljava/lang/Object;)Z</title>
<path fill="none" stroke="#64748b" d="M724,-154.81C724,-146.18 724,-135.56 724,-126.03"/>
<polygon fill="#64748b" stroke="#64748b" points="726.8,-126.03 724,-118.03 721.2,-126.03 726.8,-126.03"/>
</g>
<!-- com.android.server.am.PackageList -->
<g id="node10" class="node">
<title>com.android.server.am.PackageList</title>
<path fill="#fee2e2" stroke="#dc2626" stroke-width="2" d="M763,-36C763,-36 685,-36 685,-36 679,-36 673,-30 673,-24 673,-24 673,-12 673,-12 673,-6 679,0 685,0 685,0 763,0 763,0 769,0 775,-6 775,-12 775,-12 775,-24 775,-24 775,-30 769,-36 763,-36"/>
<text text-anchor="middle" x="724" y="-15.2" font-family="Helvetica,sans-Serif" font-size="11.00">am.PackageList</text>
</g>
<!-- m::com.android.server.am.PackageList.containsKey:(Ljava/lang/Object;)Z&#45;&gt;com.android.server.am.PackageList -->
<g id="edge11" class="edge">
<title>m::com.android.server.am.PackageList.containsKey:(Ljava/lang/Object;)Z&#45;&gt;com.android.server.am.PackageList</title>
<path fill="none" stroke="#dc2626" stroke-width="1.6" d="M724,-81.64C724,-70.66 724,-56.29 724,-44.09"/>
<polygon fill="#dc2626" stroke="#dc2626" stroke-width="1.6" points="726.8,-44.05 724,-36.05 721.2,-44.05 726.8,-44.05"/>
<text text-anchor="middle" x="745" y="-56.8" font-family="Helvetica,sans-Serif" font-size="9.00" fill="#dc2626"> acquires</text>
</g>
<!-- java.io.PrintWriter.lock -->
<g id="node12" class="node">
<title>java.io.PrintWriter.lock</title>
<path fill="#fee2e2" stroke="#dc2626" stroke-width="2" d="M972.5,-191C972.5,-191 895.5,-191 895.5,-191 889.5,-191 883.5,-185 883.5,-179 883.5,-179 883.5,-167 883.5,-167 883.5,-161 889.5,-155 895.5,-155 895.5,-155 972.5,-155 972.5,-155 978.5,-155 984.5,-161 984.5,-167 984.5,-167 984.5,-179 984.5,-179 984.5,-185 978.5,-191 972.5,-191"/>
<text text-anchor="middle" x="934" y="-170.2" font-family="Helvetica,sans-Serif" font-size="11.00">PrintWriter.lock</text>
</g>
<!-- m::com.android.internal.util.jobs.FastPrintWriter.flush:()V&#45;&gt;java.io.PrintWriter.lock -->
<g id="edge14" class="edge">
<title>m::com.android.internal.util.jobs.FastPrintWriter.flush:()V&#45;&gt;java.io.PrintWriter.lock</title>
<path fill="none" stroke="#dc2626" stroke-width="1.6" d="M934,-236.64C934,-225.66 934,-211.29 934,-199.09"/>
<polygon fill="#dc2626" stroke="#dc2626" stroke-width="1.6" points="936.8,-199.05 934,-191.05 931.2,-199.05 936.8,-199.05"/>
<text text-anchor="middle" x="955" y="-211.8" font-family="Helvetica,sans-Serif" font-size="9.00" fill="#dc2626"> acquires</text>
</g>
</g>
</svg>
