<?xml version="1.0" encoding="UTF-8" standalone="no"?>
<!DOCTYPE svg PUBLIC "-//W3C//DTD SVG 1.1//EN"
 "http://www.w3.org/Graphics/SVG/1.1/DTD/svg11.dtd">
<!-- Generated by graphviz version 2.43.0 (0)
 -->
<!-- Title: binder Pages: 1 -->
<svg width="1006pt" height="436pt"
 viewBox="0.00 0.00 1006.00 436.00" xmlns="http://www.w3.org/2000/svg" xmlns:xlink="http://www.w3.org/1999/xlink">
<g id="graph0" class="graph" transform="scale(1 1) rotate(0) translate(4 432)">
<title>binder</title>
<polygon fill="white" stroke="transparent" points="-4,4 -4,-432 1002,-432 1002,4 -4,4"/>
<!-- m::com.android.server.am.ActivityManagerService$GraphicsBinder.dump:(Ljava/io/FileDescriptor;Ljava/io/PrintWriter;[Ljava/lang/String;)V -->
<g id="node1" class="node">
<title>m::com.android.server.am.ActivityManagerService$GraphicsBinder.dump:(Ljava/io/FileDescriptor;Ljava/io/PrintWriter;[Ljava/lang/String;)V</title>
<path fill="#eef2ff" stroke="#a5b4fc" stroke-width="2" d="M557.5,-428C557.5,-428 310.5,-428 310.5,-428 304.5,-428 298.5,-422 298.5,-416 298.5,-416 298.5,-404 298.5,-404 298.5,-398 304.5,-392 310.5,-392 310.5,-392 557.5,-392 557.5,-392 563.5,-392 569.5,-398 569.5,-404 569.5,-404 569.5,-416 569.5,-416 569.5,-422 563.5,-428 557.5,-428"/>
<text text-anchor="middle" x="434" y="-407.2" font-family="Helvetica,sans-Serif" font-size="11.00">ActivityManagerService$GraphicsBinder.dump</text>
</g>
<!-- m::com.android.server.am.CachedAppOptimizer.enableFreezer:(Z)Z -->
<g id="node2" class="node">
<title>m::com.android.server.am.CachedAppOptimizer.enableFreezer:(Z)Z</title>
<path fill="#eef2ff" stroke="#a5b4fc" d="M528,-355C528,-355 340,-355 340,-355 334,-355 328,-349 328,-343 328,-343 328,-331 328,-331 328,-325 334,-319 340,-319 340,-319 528,-319 528,-319 534,-319 540,-325 540,-331 540,-331 540,-343 540,-343 540,-349 534,-355 528,-355"/>
<text text-anchor="middle" x="434" y="-334.2" font-family="Helvetica,sans-Serif" font-size="11.00">CachedAppOptimizer.enableFreezer</text>
</g>
<!-- m::com.android.server.am.ActivityManagerService$GraphicsBinder.dump:(Ljava/io/FileDescriptor;Ljava/io/PrintWriter;[Ljava/lang/String;)V&#45;&gt;m::com.android.server.am.CachedAppOptimizer.enableFreezer:(Z)Z -->
<g id="edge1" class="edge">
<title>m::com.android.server.am.ActivityManagerService$GraphicsBinder.dump:(Ljava/io/FileDescriptor;Ljava/io/PrintWriter;[Ljava/lang/String;)V&#45;&gt;m::com.android.server.am.CachedAppOptimizer.enableFreezer:(Z)Z</title>
<path fill="none" stroke="#64748b" d="M417.67,-391.81C415.16,-383.18 414.6,-372.56 415.99,-363.03"/>
<polygon fill="#64748b" stroke="#64748b" points="418.77,-363.44 417.72,-355.03 413.3,-362.26 418.77,-363.44"/>
</g>
<!-- m::com.android.server.am.ActivityManagerService$GraphicsBinder.dump:(Ljava/io/FileDescriptor;Ljava/io/PrintWriter;[Ljava/lang/String;)V&#45;&gt;m::com.android.server.am.CachedAppOptimizer.enableFreezer:(Z)Z -->
<g id="edge3" class="edge">
<title>m::com.android.server.am.ActivityManagerService$GraphicsBinder.dump:(Ljava/io/FileDescriptor;Ljava/io/PrintWriter;[Ljava/lang/String;)V&#45;&gt;m::com.android.server.am.CachedAppOptimizer.enableFreezer:(Z)Z</title>
<path fill="none" stroke="#64748b" d="M434,-391.81C434,-383.18 434,-372.56 434,-363.03"/>
<polygon fill="#64748b" stroke="#64748b" points="436.8,-363.03 434,-355.03 431.2,-363.03 436.8,-363.03"/>
</g>
<!-- m::com.android.server.am.ActivityManagerService$GraphicsBinder.dump:(Ljava/io/FileDescriptor;Ljava/io/PrintWriter;[Ljava/lang/String;)V&#45;&gt;m::com.android.server.am.CachedAppOptimizer.enableFreezer:(Z)Z -->
<g id="edge5" class="edge">
<title>m::com.android.server.am.ActivityManagerService$GraphicsBinder.dump:(Ljava/io/FileDescriptor;Ljava/io/PrintWriter;[Ljava/lang/String;)V&#45;&gt;m::com.android.server.am.CachedAppOptimizer.enableFreezer:(Z)Z</title>
<path fill="none" stroke="#64748b" d="M450.33,-391.81C452.84,-383.18 453.4,-372.56 452.01,-363.03"/>
<polygon fill="#64748b" stroke="#64748b" points="454.7,-362.26 450.28,-355.03 449.23,-363.44 454.7,-362.26"/>
</g>
<!-- m::com.android.server.am.ActivityManagerService.dumpGraphicsHardwareUsage:(Ljava/io/FileDescriptor;Ljava/io/PrintWriter;[Ljava/lang/String;)V -->
<g id="node6" class="node">
<title>m::com.android.server.am.ActivityManagerService.dumpGraphicsHardwareUsage:(Ljava/io/FileDescriptor;Ljava/io/PrintWriter;[Ljava/lang/String;)V</title>
<path fill="#eef2ff" stroke="#a5b4fc" d="M870.5,-355C870.5,-355 577.5,-355 577.5,-355 571.5,-355 565.5,-349 565.5,-343 565.5,-343 565.5,-331 565.5,-331 565.5,-325 571.5,-319 577.5,-319 577.5,-319 870.5,-319 870.5,-319 876.5,-319 882.5,-325 882.5,-331 882.5,-331 882.5,-343 882.5,-343 882.5,-349 876.5,-355 870.5,-355"/>
<text text-anchor="middle" x="724" y="-334.2" font-family="Helvetica,sans-Serif" font-size="11.00">ActivityManagerService.dumpGraphicsHardwareUsage</text>
</g>
<!-- m::com.android.server.am.ActivityManagerService$GraphicsBinder.dump:(Ljava/io/FileDescriptor;Ljava/io/PrintWriter;[Ljava/lang/String;)V&#45;&gt;m::com.android.server.am.ActivityManagerService.dumpGraphicsHardwareUsage:(Ljava/io/FileDescriptor;Ljava/io/PrintWriter;[Ljava/lang/String;)V -->
<g id="edge7" class="edge">
<title>m::com.android.server.am.ActivityManagerService$GraphicsBinder.dump:(Ljava/io/FileDescriptor;Ljava/io/PrintWriter;[Ljava/lang/String;)V&#45;&gt;m::com.android.server.am.ActivityManagerService.dumpGraphicsHardwareUsage:(Ljava/io/FileDescriptor;Ljava/io/PrintWriter;[Ljava/lang/String;)V</title>
<path fill="none" stroke="#64748b" d="M495.65,-391.99C537.32,-381.43 592.79,-367.82 638.67,-356.92"/>
<polygon fill="#64748b" stroke="#64748b" points="639.39,-359.62 646.53,-355.05 638.1,-354.17 639.39,-359.62"/>
</g>
<!-- m::com.android.server.am.ActivityManagerService$GraphicsBinder.dump:(Ljava/io/FileDescriptor;Ljava/io/PrintWriter;[Ljava/lang/String;)V&#45;&gt;m::com.android.server.am.ActivityManagerService.dumpGraphicsHardwareUsage:(Ljava/io/FileDescriptor;Ljava/io/PrintWriter;[Ljava/lang/String;)V -->
<g id="edge12" class="edge">
<title>m::com.android.server.am.ActivityManagerService$GraphicsBinder.dump:(Ljava/io/FileDescriptor;Ljava/io/PrintWriter;[Ljava/lang/String;)V&#45;&gt;m::com.android.server.am.ActivityManagerService.dumpGraphicsHardwareUsage:(Ljava/io/FileDescriptor;Ljava/io/PrintWriter;[Ljava/lang/String;)V</title>
<path fill="none" stroke="#64748b" d="M511.93,-391.99C556.44,-381.49 611.69,-367.99 654.7,-357.11"/>
<polygon fill="#64748b" stroke="#64748b" points="655.51,-359.79 662.58,-355.11 654.14,-354.37 655.51,-359.79"/>
</g>
<!-- com.android.server.am.ActivityManagerService.mProcLock -->
<g id="node3" class="node">
<title>com.android.server.am.ActivityManagerService.mProcLock</title>
<path fill="#fee2e2" stroke="#dc2626" stroke-width="2" d="M198,-273C198,-273 12,-273 12,-273 6,-273 0,-267 0,-261 0,-261 0,-249 0,-249 0,-243 6,-237 12,-237 12,-237 198,-237 198,-237 204,-237 210,-243 210,-249 210,-249 210,-261 210,-261 210,-267 204,-273 198,-273"/>
<text text-anchor="middle" x="105" y="-252.2" font-family="Helvetica,sans-Serif" font-size="11.00">ActivityManagerService.mProcLock</text>
</g>
<!-- m::com.android.server.am.CachedAppOptimizer.enableFreezer:(Z)Z&#45;&gt;com.android.server.am.ActivityManagerService.mProcLock -->
<g id="edge2" class="edge">
<title>m::com.android.server.am.CachedAppOptimizer.enableFreezer:(Z)Z&#45;&gt;com.android.server.am.ActivityManagerService.mProcLock</title>
<path fill="none" stroke="#dc2626" stroke-width="1.6" d="M363.82,-318.94C310.76,-306.03 237.92,-288.32 183.03,-274.97"/>
<polygon fill="#dc2626" stroke="#dc2626" stroke-width="1.6" points="183.5,-272.21 175.07,-273.04 182.18,-277.65 183.5,-272.21"/>
<text text-anchor="middle" x="311" y="-293.8" font-family="Helvetica,sans-Serif" font-size="9.00" fill="#dc2626"> acquires</text>
</g>
<!-- com.android.server.am.CachedAppOptimizer -->
<g id="node4" class="node">
<title>com.android.server.am.CachedAppOptimizer</title>
<path fill="#fee2e2" stroke="#dc2626" stroke-width="2" d="M376.5,-273C376.5,-273 247.5,-273 247.5,-273 241.5,-273 235.5,-267 235.5,-261 235.5,-261 235.5,-249 235.5,-249 235.5,-243 241.5,-237 247.5,-237 247.5,-237 376.5,-237 376.5,-237 382.5,-237 388.5,-243 388.5,-249 388.5,-249 388.5,-261 388.5,-261 388.5,-267 382.5,-273 376.5,-273"/>
<text text-anchor="middle" x="312" y="-252.2" font-family="Helvetica,sans-Serif" font-size="11.00">am.CachedAppOptimizer</text>
</g>
<!-- m::com.android.server.am.CachedAppOptimizer.enableFreezer:(Z)Z&#45;&gt;com.android.server.am.CachedAppOptimizer -->
<g id="edge4" class="edge">
<title>m::com.android.server.am.CachedAppOptimizer.enableFreezer:(Z)Z&#45;&gt;com.android.server.am.CachedAppOptimizer</title>
<path fill="none" stroke="#dc2626" stroke-width="1.6" d="M407.83,-318.84C389.41,-306.76 364.63,-290.51 344.89,-277.56"/>
<polygon fill="#dc2626" stroke="#dc2626" stroke-width="1.6" points="346.35,-275.18 338.13,-273.13 343.28,-279.86 346.35,-275.18"/>
<text text-anchor="middle" x="402" y="-293.8" font-family="Helvetica,sans-Serif" font-size="9.00" fill="#dc2626"> acquires</text>
</g>
<!-- com.android.server.am.CachedAppOptimizer.mAm -->
<g id="node5" class="node">
<title>com.android.server.am.CachedAppOptimizer.mAm</title>
<path fill="#fee2e2" stroke="#dc2626" stroke-width="2" d="M566,-273C566,-273 426,-273 426,-273 420,-273 414,-267 414,-261 414,-261 414,-249 414,-249 414,-243 420,-237 426,-237 426,-237 566,-237 566,-237 572,-237 578,-243 578,-249 578,-249 578,-261 578,-261 578,-267 572,-273 566,-273"/>
<text text-anchor="middle" x="496" y="-252.2" font-family="Helvetica,sans-Serif" font-size="11.00">CachedAppOptimizer.mAm</text>
</g>
<!-- m::com.android.server.am.CachedAppOptimizer.enableFreezer:(Z)Z&#45;&gt;com.android.server.am.CachedAppOptimizer.mAm -->
<g id="edge6" class="edge">
<title>m::com.android.server.am.CachedAppOptimizer.enableFreezer:(Z)Z&#45;&gt;com.android.server.am.CachedAppOptimizer.mAm</title>
<path fill="none" stroke="#dc2626" stroke-width="1.6" d="M447.45,-318.64C456.29,-307.24 467.96,-292.18 477.64,-279.69"/>
<polygon fill="#dc2626" stroke="#dc2626" stroke-width="1.6" points="480.1,-281.09 482.79,-273.05 475.67,-277.66 480.1,-281.09"/>
<text text-anchor="middle" x="490" y="-293.8" font-family="Helvetica,sans-Serif" font-size="9.00" fill="#dc2626"> acquires</text>
</g>
<!-- m::com.android.server.am.ActivityManagerService.collectProcesses:(Ljava/io/PrintWriter;IZ[Ljava/lang/String;)Ljava/util/ArrayList; -->
<g id="node7" class="node">
<title>m::com.android.server.am.ActivityManagerService.collectProcesses:(Ljava/io/PrintWriter;IZ[Ljava/lang/String;)Ljava/util/ArrayList;</title>
<path fill="#eef2ff" stroke="#a5b4fc" d="M833,-273C833,-273 615,-273 615,-273 609,-273 603,-267 603,-261 603,-261 603,-249 603,-249 603,-243 609,-237 615,-237 615,-237 833,-237 833,-237 839,-237 845,-243 845,-249 845,-249 845,-261 845,-261 845,-267 839,-273 833,-273"/>
<text text-anchor="middle" x="724" y="-252.2" font-family="Helvetica,sans-Serif" font-size="11.00">ActivityManagerService.collectProcesses</text>
</g>
<!-- m::com.android.server.am.ActivityManagerService.dumpGraphicsHardwareUsage:(Ljava/io/FileDescriptor;Ljava/io/PrintWriter;[Ljava/lang/String;)V&#45;&gt;m::com.android.server.am.ActivityManagerService.collectProcesses:(Ljava/io/PrintWriter;IZ[Ljava/lang/String;)Ljava/util/ArrayList; -->
<g id="edge8" class="edge">
<title>m::com.android.server.am.ActivityManagerService.dumpGraphicsHardwareUsage:(Ljava/io/FileDescriptor;Ljava/io/PrintWriter;[Ljava/lang/String;)V&#45;&gt;m::com.android.server.am.ActivityManagerService.collectProcesses:(Ljava/io/PrintWriter;IZ[Ljava/lang/String;)Ljava/util/ArrayList;</title>
<path fill="none" stroke="#64748b" d="M724,-318.64C724,-307.66 724,-293.29 724,-281.09"/>
<polygon fill="#64748b" stroke="#64748b" points="726.8,-281.05 724,-273.05 721.2,-281.05 726.8,-281.05"/>
</g>
<!-- m::com.android.internal.util.jobs.FastPrintWriter.flush:()V -->
<g id="node11" class="node">
<title>m::com.android.internal.util.jobs.FastPrintWriter.flush:()V</title>
<path fill="#eef2ff" stroke="#a5b4fc" d="M986,-273C986,-273 882,-273 882,-273 876,-273 870,-267 870,-261 870,-261 870,-249 870,-249 870,-243 876,-237 882,-237 882,-237 986,-237 986,-237 992,-237 998,-243 998,-249 998,-249 998,-261 998,-261 998,-267 992,-273 986,-273"/>
<text text-anchor="middle" x="934" y="-252.2" font-family="Helvetica,sans-Serif" font-size="11.00">FastPrintWriter.flush</text>
</g>
<!-- m::com.android.server.am.ActivityManagerService.dumpGraphicsHardwareUsage:(Ljava/io/FileDescriptor;Ljava/io/PrintWriter;[Ljava/lang/String;)V&#45;&gt;m::com.android.internal.util.jobs.FastPrintWriter.flush:()V -->
<g id="edge13" class="edge">
<title>m::com.android.server.am.ActivityManagerService.dumpGraphicsHardwareUsage:(Ljava/io/FileDescriptor;Ljava/io/PrintWriter;[Ljava/lang/String;)V&#45;&gt;m::com.android.internal.util.jobs.FastPrintWriter.flush:()V</title>
<path fill="none" stroke="#64748b" d="M768.79,-318.94C801.83,-306.35 846.88,-289.19 881.59,-275.97"/>
<polygon fill="#64748b" stroke="#64748b" points="882.8,-278.5 889.28,-273.04 880.8,-273.27 882.8,-278.5"/>
</g>
<!-- m::com.android.server.am.ProcessList.collectProcessesLOSP:(IZ[Ljava/lang/String;)Ljava/util/ArrayList; -->
<g id="node8" class="node">
<title>m::com.android.server.am.ProcessList.collectProcessesLOSP:(IZ[Ljava/lang/String;)Ljava/util/ArrayList;</title>
<path fill="#eef2ff" stroke="#a5b4fc" d="M813.5,-191C813.5,-191 634.5,-191 634.5,-191 628.5,-191 622.5,-185 622.5,-179 622.5,-179 622.5,-167 622.5,-167 622.5,-161 628.5,-155 634.5,-155 634.5,-155 813.5,-155 813.5,-155 819.5,-155 825.5,-161 825.5,-167 825.5,-167 825.5,-179 825.5,-179 825.5,-185 819.5,-191 813.5,-191"/>
<text text-anchor="middle" x="724" y="-170.2" font-family="Helvetica,sans-Serif" font-size="11.00">ProcessList.collectProcessesLOSP</text>
</g>
<!-- m::com.android.server.am.ActivityManagerService.collectProcesses:(Ljava/io/PrintWriter;IZ[Ljava/lang/String;)Ljava/util/ArrayList;&#45;&gt;m::com.android.server.am.ProcessList.collectProcessesLOSP:(IZ[Ljava/lang/String;)Ljava/util/ArrayList; -->
<g id="edge9" class="edge">
<title>m::com.android.server.am.ActivityManagerService.collectProcesses:(Ljava/io/PrintWriter;IZ[Ljava/lang/String;)Ljava/util/ArrayList;&#45;&gt;m::com.android.server.am.ProcessList.collectProcessesLOSP:(IZ[Ljava/lang/String;)Ljava/util/ArrayList;</title>
<path fill="none" stroke="#64748b" d="M724,-236.64C724,-225.66 724,-211.29 724,-199.09"/>
<polygon fill="#64748b" stroke="#64748b" points="726.8,-199.05 724,-191.05 721.2,-199.05 726.8,-199.05"/>
</g>
<!-- m::com.android.server.am.PackageList.containsKey:(Ljava/lang/Object;)Z -->
<g id="node9" class="node">
<title>m::com.android.server.am.PackageList.containsKey:(Ljava/lang/Object;)Z</title>
<path fill="#eef2ff" stroke="#a5b4fc" d="M788,-118C788,-118 660,-118 660,-118 654,-118 648,-112 648,-106 648,-106 648,-94 648,-94 648,-88 654,-82 660,-82 660,-82 788,-82 788,-82 794,-82 800,-88 800,-94 800,-94 800,-106 800,-106 800,-112 794,-118 788,-118"/>
<text text-anchor="middle" x="724" y="-97.2" font-family="Helvetica,sans-Serif" font-size="11.00">PackageList.containsKey</text>
</g>
<!-- m::com.android.server.am.ProcessList.collectProcessesLOSP:(IZ[Ljava/lang/String;)Ljava/util/ArrayList;&#45;&gt;m::com.android.server.am.PackageList.containsKey:(Ljava/lang/Object;)Z -->
<g id="edge10" class="edge">
<title>m::com.android.server.am.ProcessList.collectProcessesLOSP:(IZ[Ljava/lang/String;)Ljava/util/ArrayList;&#45;&gt;m::com.android.server.am.PackageList.containsKey:(Ljava/lang/Object;)Z</title>
<path fill="none" stroke="#64748b" d="M724,-154.81C724,-146.18 724,-135.56 724,-126.03"/>
<polygon fill="#64748b" stroke="#64748b" points="726.8,-126.03 724,-118.03 721.2,-126.03 726.8,-126.03"/>
</g>
<!-- com.android.server.am.PackageList -->
<g id="node10" class="node">
<title>com.android.server.am.PackageList</title>
<path fill="#fee2e2" stroke="#dc2626" stroke-width="2" d="M763,-36C763,-36 685,-36 685,-36 679,-36 673,-30 673,-24 673,-24 673,-12 673,-12 673,-6 679,0 685,0 685,0 763,0 763,0 769,0 775,-6 775,-12 775,-12 775,-24 775,-24 775,-30 769,-36 763,-36"/>
<text text-anchor="middle" x="724" y="-15.2" font-family="Helvetica,sans-Serif" font-size="11.00">am.PackageList</text>
</g>
<!-- m::com.android.server.am.PackageList.containsKey:(Ljava/lang/Object;)Z&#45;&gt;com.android.server.am.PackageList -->
<g id="edge11" class="edge">
<title>m::com.android.server.am.PackageList.containsKey:(Ljava/lang/Object;)Z&#45;&gt;com.android.server.am.PackageList</title>
<path fill="none" stroke="#dc2626" stroke-width="1.6" d="M724,-81.64C724,-70.66 724,-56.29 724,-44.09"/>
<polygon fill="#dc2626" stroke="#dc2626" stroke-width="1.6" points="726.8,-44.05 724,-36.05 721.2,-44.05 726.8,-44.05"/>
<text text-anchor="middle" x="745" y="-56.8" font-family="Helvetica,sans-Serif" font-size="9.00" fill="#dc2626"> acquires</text>
</g>
<!-- java.io.PrintWriter.lock -->
<g id="node12" class="node">
<title>java.io.PrintWriter.lock</title>
<path fill="#fee2e2" stroke="#dc2626" stroke-width="2" d="M972.5,-191C972.5,-191 895.5,-191 895.5,-191 889.5,-191 883.5,-185 883.5,-179 883.5,-179 883.5,-167 883.5,-167 883.5,-161 889.5,-155 895.5,-155 895.5,-155 972.5,-155 972.5,-155 978.5,-155 984.5,-161 984.5,-167 984.5,-167 984.5,-179 984.5,-179 984.5,-185 978.5,-191 972.5,-191"/>
<text text-anchor="middle" x="934" y="-170.2" font-family="Helvetica,sans-Serif" font-size="11.00">PrintWriter.lock</text>
</g>
<!-- m::com.android.internal.util.jobs.FastPrintWriter.flush:()V&#45;&gt;java.io.PrintWriter.lock -->
<g id="edge14" class="edge">
<title>m::com.android.internal.util.jobs.FastPrintWriter.flush:()V&#45;&gt;java.io.PrintWriter.lock</title>
<path fill="none" stroke="#dc2626" stroke-width="1.6" d="M934,-236.64C934,-225.66 934,-211.29 934,-199.09"/>
<polygon fill="#dc2626" stroke="#dc2626" stroke-width="1.6" points="936.8,-199.05 934,-191.05 931.2,-199.05 936.8,-199.05"/>
<text text-anchor="middle" x="955" y="-211.8" font-family="Helvetica,sans-Serif" font-size="9.00" fill="#dc2626"> acquires</text>
</g>
</g>
</svg>
