<?xml version="1.0" encoding="UTF-8" standalone="no"?>
<!DOCTYPE svg PUBLIC "-//W3C//DTD SVG 1.1//EN"
 "http://www.w3.org/Graphics/SVG/1.1/DTD/svg11.dtd">
<!-- Generated by graphviz version 2.43.0 (0)
 -->
<!-- Title: binder Pages: 1 -->
<svg width="505pt" height="354pt"
 viewBox="0.00 0.00 505.00 354.00" xmlns="http://www.w3.org/2000/svg" xmlns:xlink="http://www.w3.org/1999/xlink">
<g id="graph0" class="graph" transform="scale(1 1) rotate(0) translate(4 350)">
<title>binder</title>
<polygon fill="white" stroke="transparent" points="-4,4 -4,-350 501,-350 501,4 -4,4"/>
<!-- m::com.android.server.am.ActivityManagerService$IntentCreatorToken.completeFinalize:()V -->
<g id="node1" class="node">
<title>m::com.android.server.am.ActivityManagerService$IntentCreatorToken.completeFinalize:()V</title>
<path fill="#eef2ff" stroke="#a5b4fc" stroke-width="2" d="M342,-346C342,-346 13,-346 13,-346 7,-346 1,-340 1,-334 1,-334 1,-322 1,-322 1,-316 7,-310 13,-310 13,-310 342,-310 342,-310 348,-310 354,-316 354,-322 354,-322 354,-334 354,-334 354,-340 348,-346 342,-346"/>
<text text-anchor="middle" x="177.5" y="-325.2" font-family="Helvetica,sans-Serif" font-size="11.00">ActivityManagerService$IntentCreatorToken.completeFinalize</text>
</g>
<!-- com.android.server.am.ActivityManagerService.sIntentCreatorTokenCache -->
<g id="node2" class="node">
<title>com.android.server.am.ActivityManagerService.sIntentCreatorTokenCache</title>
<path fill="#fee2e2" stroke="#dc2626" stroke-width="2" d="M283,-264C283,-264 12,-264 12,-264 6,-264 0,-258 0,-252 0,-252 0,-240 0,-240 0,-234 6,-228 12,-228 12,-228 283,-228 283,-228 289,-228 295,-234 295,-240 295,-240 295,-252 295,-252 295,-258 289,-264 283,-264"/>
<text text-anchor="middle" x="147.5" y="-243.2" font-family="Helvetica,sans-Serif" font-size="11.00">ActivityManagerService.sIntentCreatorTokenCache</text>
</g>
<!-- m::com.android.server.am.ActivityManagerService$IntentCreatorToken.completeFinalize:()V&#45;&gt;com.android.server.am.ActivityManagerService.sIntentCreatorTokenCache -->
<g id="edge1" class="edge">
<title>m::com.android.server.am.ActivityManagerService$IntentCreatorToken.completeFinalize:()V&#45;&gt;com.android.server.am.ActivityManagerService.sIntentCreatorTokenCache</title>
<path fill="none" stroke="#dc2626" stroke-width="1.6" d="M170.99,-309.64C166.83,-298.56 161.38,-284.02 156.78,-271.74"/>
<polygon fill="#dc2626" stroke="#dc2626" stroke-width="1.6" points="159.32,-270.56 153.89,-264.05 154.08,-272.52 159.32,-270.56"/>
<text text-anchor="middle" x="185.5" y="-284.8" font-family="Helvetica,sans-Serif" font-size="9.00" fill="#dc2626"> acquires</text>
</g>
<!-- m::com.android.server.utils.WatchedArrayMap.remove:(Ljava/lang/Object;)Ljava/lang/Object; -->
<g id="node3" class="node">
<title>m::com.android.server.utils.WatchedArrayMap.remove:(Ljava/lang/Object;)Ljava/lang/Object;</title>
<path fill="#eef2ff" stroke="#a5b4fc" d="M472.5,-264C472.5,-264 332.5,-264 332.5,-264 326.5,-264 320.5,-258 320.5,-252 320.5,-252 320.5,-240 320.5,-240 320.5,-234 326.5,-228 332.5,-228 332.5,-228 472.5,-228 472.5,-228 478.5,-228 484.5,-234 484.5,-240 484.5,-240 484.5,-252 484.5,-252 484.5,-258 478.5,-264 472.5,-264"/>
<text text-anchor="middle" x="402.5" y="-243.2" font-family="Helvetica,sans-Serif" font-size="11.00">WatchedArrayMap.remove</text>
</g>
<!-- m::com.android.server.am.ActivityManagerService$IntentCreatorToken.completeFinalize:()V&#45;&gt;m::com.android.server.utils.WatchedArrayMap.remove:(Ljava/lang/Object;)Ljava/lang/Object; -->
<g id="edge2" class="edge">
<title>m::com.android.server.am.ActivityManagerService$IntentCreatorToken.completeFinalize:()V&#45;&gt;m::com.android.server.utils.WatchedArrayMap.remove:(Ljava/lang/Object;)Ljava/lang/Object;</title>
<path fill="none" stroke="#64748b" d="M225.49,-309.94C261.04,-297.3 309.56,-280.05 346.81,-266.8"/>
<polygon fill="#64748b" stroke="#64748b" points="347.98,-269.36 354.58,-264.04 346.11,-264.08 347.98,-269.36"/>
</g>
<!-- m::com.android.server.utils.WatchedArrayMap.onChanged:()V -->
<g id="node4" class="node">
<title>m::com.android.server.utils.WatchedArrayMap.onChanged:()V</title>
<path fill="#eef2ff" stroke="#a5b4fc" d="M482,-191C482,-191 323,-191 323,-191 317,-191 311,-185 311,-179 311,-179 311,-167 311,-167 311,-161 317,-155 323,-155 323,-155 482,-155 482,-155 488,-155 494,-161 494,-167 494,-167 494,-179 494,-179 494,-185 488,-191 482,-191"/>
<text text-anchor="middle" x="402.5" y="-170.2" font-family="Helvetica,sans-Serif" font-size="11.00">WatchedArrayMap.onChanged</text>
</g>
<!-- m::com.android.server.utils.WatchedArrayMap.remove:(Ljava/lang/Object;)Ljava/lang/Object;&#45;&gt;m::com.android.server.utils.WatchedArrayMap.onChanged:()V -->
<g id="edge3" class="edge">
<title>m::com.android.server.utils.WatchedArrayMap.remove:(Ljava/lang/Object;)Ljava/lang/Object;&#45;&gt;m::com.android.server.utils.WatchedArrayMap.onChanged:()V</title>
<path fill="none" stroke="#64748b" d="M402.5,-227.81C402.5,-219.18 402.5,-208.56 402.5,-199.03"/>
<polygon fill="#64748b" stroke="#64748b" points="405.3,-199.03 402.5,-191.03 399.7,-199.03 405.3,-199.03"/>
</g>
<!-- m::com.android.server.utils.WatchableImpl.dispatchChange:(Lcom/android/server/utils/Watchable;)V -->
<g id="node5" class="node">
<title>m::com.android.server.utils.WatchableImpl.dispatchChange:(Lcom/android/server/utils/Watchable;)V</title>
<path fill="#eef2ff" stroke="#a5b4fc" d="M485,-118C485,-118 320,-118 320,-118 314,-118 308,-112 308,-106 308,-106 308,-94 308,-94 308,-88 314,-82 320,-82 320,-82 485,-82 485,-82 491,-82 497,-88 497,-94 497,-94 497,-106 497,-106 497,-112 491,-118 485,-118"/>
<text text-anchor="middle" x="402.5" y="-97.2" font-family="Helvetica,sans-Serif" font-size="11.00">WatchableImpl.dispatchChange</text>
</g>
<!-- m::com.android.server.utils.WatchedArrayMap.onChanged:()V&#45;&gt;m::com.android.server.utils.WatchableImpl.dispatchChange:(Lcom/android/server/utils/Watchable;)V -->
<g id="edge4" class="edge">
<title>m::com.android.server.utils.WatchedArrayMap.onChanged:()V&#45;&gt;m::com.android.server.utils.WatchableImpl.dispatchChange:(Lcom/android/server/utils/Watchable;)V</title>
<path fill="none" stroke="#64748b" d="M402.5,-154.81C402.5,-146.18 402.5,-135.56 402.5,-126.03"/>
<polygon fill="#64748b" stroke="#64748b" points="405.3,-126.03 402.5,-118.03 399.7,-126.03 405.3,-126.03"/>
</g>
<!-- com.android.server.utils.WatchableImpl.mObservers -->
<g id="node6" class="node">
<title>com.android.server.utils.WatchableImpl.mObservers</title>
<path fill="#fee2e2" stroke="#dc2626" stroke-width="2" d="M475,-36C475,-36 330,-36 330,-36 324,-36 318,-30 318,-24 318,-24 318,-12 318,-12 318,-6 324,0 330,0 330,0 475,0 475,0 481,0 487,-6 487,-12 487,-12 487,-24 487,-24 487,-30 481,-36 475,-36"/>
<text text-anchor="middle" x="402.5" y="-15.2" font-family="Helvetica,sans-Serif" font-size="11.00">WatchableImpl.mObservers</text>
</g>
<!-- m::com.android.server.utils.WatchableImpl.dispatchChange:(Lcom/android/server/utils/Watchable;)V&#45;&gt;com.android.server.utils.WatchableImpl.mObservers -->
<g id="edge5" class="edge">
<title>m::com.android.server.utils.WatchableImpl.dispatchChange:(Lcom/android/server/utils/Watchable;)V&#45;&gt;com.android.server.utils.WatchableImpl.mObservers</title>
<path fill="none" stroke="#dc2626" stroke-width="1.6" d="M402.5,-81.64C402.5,-70.66 402.5,-56.29 402.5,-44.09"/>
<polygon fill="#dc2626" stroke="#dc2626" stroke-width="1.6" points="405.3,-44.05 402.5,-36.05 399.7,-44.05 405.3,-44.05"/>
<text text-anchor="middle" x="423.5" y="-56.8" font-family="Helvetica,sans-Serif" font-size="9.00" fill="#dc2626"> acquires</text>
</g>
</g>
</svg>
