<?xml version="1.0" encoding="UTF-8" standalone="no"?>
<!DOCTYPE svg PUBLIC "-//W3C//DTD SVG 1.1//EN"
 "http://www.w3.org/Graphics/SVG/1.1/DTD/svg11.dtd">
<!-- Generated by graphviz version 2.43.0 (0)
 -->
<!-- Title: binder Pages: 1 -->
<svg width="153pt" height="199pt"
 viewBox="0.00 0.00 153.00 199.00" xmlns="http://www.w3.org/2000/svg" xmlns:xlink="http://www.w3.org/1999/xlink">
<g id="graph0" class="graph" transform="scale(1 1) rotate(0) translate(4 195)">
<title>binder</title>
<polygon fill="white" stroke="transparent" points="-4,4 -4,-195 149,-195 149,4 -4,4"/>
<!-- m::com.android.server.am.BroadcastRecord.dump:(Ljava/io/PrintWriter;Ljava/lang/String;Ljava/text/SimpleDateFormat;)V -->
<g id="node1" class="node">
<title>m::com.android.server.am.BroadcastRecord.dump:(Ljava/io/PrintWriter;Ljava/lang/String;Ljava/text/SimpleDateFormat;)V</title>
<path fill="#eef2ff" stroke="#a5b4fc" stroke-width="2" d="M133,-191C133,-191 12,-191 12,-191 6,-191 0,-185 0,-179 0,-179 0,-167 0,-167 0,-161 6,-155 12,-155 12,-155 133,-155 133,-155 139,-155 145,-161 145,-167 145,-167 145,-179 145,-179 145,-185 139,-191 133,-191"/>
<text text-anchor="middle" x="72.5" y="-170.2" font-family="Helvetica,sans-Serif" font-size="11.00">BroadcastRecord.dump</text>
</g>
<!-- m::com.android.internal.util.jobs.FastPrintWriter.print:(Ljava/lang/String;)V -->
<g id="node2" class="node">
<title>m::com.android.internal.util.jobs.FastPrintWriter.print:(Ljava/lang/String;)V</title>
<path fill="#eef2ff" stroke="#a5b4fc" d="M124,-118C124,-118 21,-118 21,-118 15,-118 9,-112 9,-106 9,-106 9,-94 9,-94 9,-88 15,-82 21,-82 21,-82 124,-82 124,-82 130,-82 136,-88 136,-94 136,-94 136,-106 136,-106 136,-112 130,-118 124,-118"/>
<text text-anchor="middle" x="72.5" y="-97.2" font-family="Helvetica,sans-Serif" font-size="11.00">FastPrintWriter.print</text>
</g>
<!-- m::com.android.server.am.BroadcastRecord.dump:(Ljava/io/PrintWriter;Ljava/lang/String;Ljava/text/SimpleDateFormat;)V&#45;&gt;m::com.android.internal.util.jobs.FastPrintWriter.print:(Ljava/lang/String;)V -->
<g id="edge1" class="edge">
<title>m::com.android.server.am.BroadcastRecord.dump:(Ljava/io/PrintWriter;Ljava/lang/String;Ljava/text/SimpleDateFormat;)V&#45;&gt;m::com.android.internal.util.jobs.FastPrintWriter.print:(Ljava/lang/String;)V</title>
<path fill="none" stroke="#64748b" d="M72.5,-154.81C72.5,-146.18 72.5,-135.56 72.5,-126.03"/>
<polygon fill="#64748b" stroke="#64748b" points="75.3,-126.03 72.5,-118.03 69.7,-126.03 75.3,-126.03"/>
</g>
<!-- java.io.PrintWriter.lock -->
<g id="node3" class="node">
<title>java.io.PrintWriter.lock</title>
<path fill="#fee2e2" stroke="#dc2626" stroke-width="2" d="M111,-36C111,-36 34,-36 34,-36 28,-36 22,-30 22,-24 22,-24 22,-12 22,-12 22,-6 28,0 34,0 34,0 111,0 111,0 117,0 123,-6 123,-12 123,-12 123,-24 123,-24 123,-30 117,-36 111,-36"/>
<text text-anchor="middle" x="72.5" y="-15.2" font-family="Helvetica,sans-Serif" font-size="11.00">PrintWriter.lock</text>
</g>
<!-- m::com.android.internal.util.jobs.FastPrintWriter.print:(Ljava/lang/String;)V&#45;&gt;java.io.PrintWriter.lock -->
<g id="edge2" class="edge">
<title>m::com.android.internal.util.jobs.FastPrintWriter.print:(Ljava/lang/String;)V&#45;&gt;java.io.PrintWriter.lock</title>
<path fill="none" stroke="#dc2626" stroke-width="1.6" d="M72.5,-81.64C72.5,-70.66 72.5,-56.29 72.5,-44.09"/>
<polygon fill="#dc2626" stroke="#dc2626" stroke-width="1.6" points="75.3,-44.05 72.5,-36.05 69.7,-44.05 75.3,-44.05"/>
<text text-anchor="middle" x="93.5" y="-56.8" font-family="Helvetica,sans-Serif" font-size="9.00" fill="#dc2626"> acquires</text>
</g>
</g>
</svg>
