<?xml version="1.0" encoding="UTF-8" standalone="no"?>
<!DOCTYPE svg PUBLIC "-//W3C//DTD SVG 1.1//EN"
 "http://www.w3.org/Graphics/SVG/1.1/DTD/svg11.dtd">
<!-- Generated by graphviz version 2.43.0 (0)
 -->
<!-- Title: binder Pages: 1 -->
<svg width="251pt" height="126pt"
 viewBox="0.00 0.00 251.00 126.00" xmlns="http://www.w3.org/2000/svg" xmlns:xlink="http://www.w3.org/1999/xlink">
<g id="graph0" class="graph" transform="scale(1 1) rotate(0) translate(4 122)">
<title>binder</title>
<polygon fill="white" stroke="transparent" points="-4,4 -4,-122 247,-122 247,4 -4,4"/>
<!-- m::com.android.server.am.ContentProviderConnection.adjustCounts:(II)V -->
<g id="node1" class="node">
<title>m::com.android.server.am.ContentProviderConnection.adjustCounts:(II)V</title>
<path fill="#eef2ff" stroke="#a5b4fc" stroke-width="2" d="M231,-118C231,-118 12,-118 12,-118 6,-118 0,-112 0,-106 0,-106 0,-94 0,-94 0,-88 6,-82 12,-82 12,-82 231,-82 231,-82 237,-82 243,-88 243,-94 243,-94 243,-106 243,-106 243,-112 237,-118 231,-118"/>
<text text-anchor="middle" x="121.5" y="-97.2" font-family="Helvetica,sans-Serif" font-size="11.00">ContentProviderConnection.adjustCounts</text>
</g>
<!-- com.android.server.am.ContentProviderConnection.mLock -->
<g id="node2" class="node">
<title>com.android.server.am.ContentProviderConnection.mLock</title>
<path fill="#fee2e2" stroke="#dc2626" stroke-width="2" d="M212.5,-36C212.5,-36 30.5,-36 30.5,-36 24.5,-36 18.5,-30 18.5,-24 18.5,-24 18.5,-12 18.5,-12 18.5,-6 24.5,0 30.5,0 30.5,0 212.5,0 212.5,0 218.5,0 224.5,-6 224.5,-12 224.5,-12 224.5,-24 224.5,-24 224.5,-30 218.5,-36 212.5,-36"/>
<text text-anchor="middle" x="121.5" y="-15.2" font-family="Helvetica,sans-Serif" font-size="11.00">ContentProviderConnection.mLock</text>
</g>
<!-- m::com.android.server.am.ContentProviderConnection.adjustCounts:(II)V&#45;&gt;com.android.server.am.ContentProviderConnection.mLock -->
<g id="edge1" class="edge">
<title>m::com.android.server.am.ContentProviderConnection.adjustCounts:(II)V&#45;&gt;com.android.server.am.ContentProviderConnection.mLock</title>
<path fill="none" stroke="#dc2626" stroke-width="1.6" d="M121.5,-81.64C121.5,-70.66 121.5,-56.29 121.5,-44.09"/>
<polygon fill="#dc2626" stroke="#dc2626" stroke-width="1.6" points="124.3,-44.05 121.5,-36.05 118.7,-44.05 124.3,-44.05"/>
<text text-anchor="middle" x="142.5" y="-56.8" font-family="Helvetica,sans-Serif" font-size="9.00" fill="#dc2626"> acquires</text>
</g>
</g>
</svg>
