<?xml version="1.0" encoding="UTF-8" standalone="no"?>
<!DOCTYPE svg PUBLIC "-//W3C//DTD SVG 1.1//EN"
 "http://www.w3.org/Graphics/SVG/1.1/DTD/svg11.dtd">
<!-- Generated by graphviz version 2.43.0 (0)
 -->
<!-- Title: binder Pages: 1 -->
<svg width="271pt" height="126pt"
 viewBox="0.00 0.00 271.00 126.00" xmlns="http://www.w3.org/2000/svg" xmlns:xlink="http://www.w3.org/1999/xlink">
<g id="graph0" class="graph" transform="scale(1 1) rotate(0) translate(4 122)">
<title>binder</title>
<polygon fill="white" stroke="transparent" points="-4,4 -4,-122 267,-122 267,4 -4,4"/>
<!-- m::com.android.server.am.ContentProviderConnection.decrementCount:(Z)I -->
<g id="node1" class="node">
<title>m::com.android.server.am.ContentProviderConnection.decrementCount:(Z)I</title>
<path fill="#eef2ff" stroke="#a5b4fc" stroke-width="2" d="M251,-118C251,-118 12,-118 12,-118 6,-118 0,-112 0,-106 0,-106 0,-94 0,-94 0,-88 6,-82 12,-82 12,-82 251,-82 251,-82 257,-82 263,-88 263,-94 263,-94 263,-106 263,-106 263,-112 257,-118 251,-118"/>
<text text-anchor="middle" x="131.5" y="-97.2" font-family="Helvetica,sans-Serif" font-size="11.00">ContentProviderConnection.decrementCount</text>
</g>
<!-- com.android.server.am.ContentProviderConnection.mLock -->
<g id="node2" class="node">
<title>com.android.server.am.ContentProviderConnection.mLock</title>
<path fill="#fee2e2" stroke="#dc2626" stroke-width="2" d="M222.5,-36C222.5,-36 40.5,-36 40.5,-36 34.5,-36 28.5,-30 28.5,-24 28.5,-24 28.5,-12 28.5,-12 28.5,-6 34.5,0 40.5,0 40.5,0 222.5,0 222.5,0 228.5,0 234.5,-6 234.5,-12 234.5,-12 234.5,-24 234.5,-24 234.5,-30 228.5,-36 222.5,-36"/>
<text text-anchor="middle" x="131.5" y="-15.2" font-family="Helvetica,sans-Serif" font-size="11.00">ContentProviderConnection.mLock</text>
</g>
<!-- m::com.android.server.am.ContentProviderConnection.decrementCount:(Z)I&#45;&gt;com.android.server.am.ContentProviderConnection.mLock -->
<g id="edge1" class="edge">
<title>m::com.android.server.am.ContentProviderConnection.decrementCount:(Z)I&#45;&gt;com.android.server.am.ContentProviderConnection.mLock</title>
<path fill="none" stroke="#dc2626" stroke-width="1.6" d="M131.5,-81.64C131.5,-70.66 131.5,-56.29 131.5,-44.09"/>
<polygon fill="#dc2626" stroke="#dc2626" stroke-width="1.6" points="134.3,-44.05 131.5,-36.05 128.7,-44.05 134.3,-44.05"/>
<text text-anchor="middle" x="152.5" y="-56.8" font-family="Helvetica,sans-Serif" font-size="9.00" fill="#dc2626"> acquires</text>
</g>
</g>
</svg>
