<?xml version="1.0" encoding="UTF-8" standalone="no"?>
<!DOCTYPE svg PUBLIC "-//W3C//DTD SVG 1.1//EN"
 "http://www.w3.org/Graphics/SVG/1.1/DTD/svg11.dtd">
<!-- Generated by graphviz version 2.43.0 (0)
 -->
<!-- Title: binder Pages: 1 -->
<svg width="257pt" height="126pt"
 viewBox="0.00 0.00 257.00 126.00" xmlns="http://www.w3.org/2000/svg" xmlns:xlink="http://www.w3.org/1999/xlink">
<g id="graph0" class="graph" transform="scale(1 1) rotate(0) translate(4 122)">
<title>binder</title>
<polygon fill="white" stroke="transparent" points="-4,4 -4,-122 253,-122 253,4 -4,4"/>
<!-- m::com.android.server.am.ContentProviderConnection.initializeCount:(Z)V -->
<g id="node1" class="node">
<title>m::com.android.server.am.ContentProviderConnection.initializeCount:(Z)V</title>
<path fill="#eef2ff" stroke="#a5b4fc" stroke-width="2" d="M237,-118C237,-118 12,-118 12,-118 6,-118 0,-112 0,-106 0,-106 0,-94 0,-94 0,-88 6,-82 12,-82 12,-82 237,-82 237,-82 243,-82 249,-88 249,-94 249,-94 249,-106 249,-106 249,-112 243,-118 237,-118"/>
<text text-anchor="middle" x="124.5" y="-97.2" font-family="Helvetica,sans-Serif" font-size="11.00">ContentProviderConnection.initializeCount</text>
</g>
<!-- com.android.server.am.ContentProviderConnection.mLock -->
<g id="node2" class="node">
<title>com.android.server.am.ContentProviderConnection.mLock</title>
<path fill="#fee2e2" stroke="#dc2626" stroke-width="2" d="M215.5,-36C215.5,-36 33.5,-36 33.5,-36 27.5,-36 21.5,-30 21.5,-24 21.5,-24 21.5,-12 21.5,-12 21.5,-6 27.5,0 33.5,0 33.5,0 215.5,0 215.5,0 221.5,0 227.5,-6 227.5,-12 227.5,-12 227.5,-24 227.5,-24 227.5,-30 221.5,-36 215.5,-36"/>
<text text-anchor="middle" x="124.5" y="-15.2" font-family="Helvetica,sans-Serif" font-size="11.00">ContentProviderConnection.mLock</text>
</g>
<!-- m::com.android.server.am.ContentProviderConnection.initializeCount:(Z)V&#45;&gt;com.android.server.am.ContentProviderConnection.mLock -->
<g id="edge1" class="edge">
<title>m::com.android.server.am.ContentProviderConnection.initializeCount:(Z)V&#45;&gt;com.android.server.am.ContentProviderConnection.mLock</title>
<path fill="none" stroke="#dc2626" stroke-width="1.6" d="M124.5,-81.64C124.5,-70.66 124.5,-56.29 124.5,-44.09"/>
<polygon fill="#dc2626" stroke="#dc2626" stroke-width="1.6" points="127.3,-44.05 124.5,-36.05 121.7,-44.05 127.3,-44.05"/>
<text text-anchor="middle" x="145.5" y="-56.8" font-family="Helvetica,sans-Serif" font-size="9.00" fill="#dc2626"> acquires</text>
</g>
</g>
</svg>
