<?xml version="1.0" encoding="UTF-8" standalone="no"?>
<!DOCTYPE svg PUBLIC "-//W3C//DTD SVG 1.1//EN"
 "http://www.w3.org/Graphics/SVG/1.1/DTD/svg11.dtd">
<!-- Generated by graphviz version 2.43.0 (0)
 -->
<!-- Title: binder Pages: 1 -->
<svg width="245pt" height="126pt"
 viewBox="0.00 0.00 245.00 126.00" xmlns="http://www.w3.org/2000/svg" xmlns:xlink="http://www.w3.org/1999/xlink">
<g id="graph0" class="graph" transform="scale(1 1) rotate(0) translate(4 122)">
<title>binder</title>
<polygon fill="white" stroke="transparent" points="-4,4 -4,-122 241,-122 241,4 -4,4"/>
<!-- m::com.android.server.am.ContentProviderConnection.stableCount:()I -->
<g id="node1" class="node">
<title>m::com.android.server.am.ContentProviderConnection.stableCount:()I</title>
<path fill="#eef2ff" stroke="#a5b4fc" stroke-width="2" d="M225,-118C225,-118 12,-118 12,-118 6,-118 0,-112 0,-106 0,-106 0,-94 0,-94 0,-88 6,-82 12,-82 12,-82 225,-82 225,-82 231,-82 237,-88 237,-94 237,-94 237,-106 237,-106 237,-112 231,-118 225,-118"/>
<text text-anchor="middle" x="118.5" y="-97.2" font-family="Helvetica,sans-Serif" font-size="11.00">ContentProviderConnection.stableCount</text>
</g>
<!-- com.android.server.am.ContentProviderConnection.mLock -->
<g id="node2" class="node">
<title>com.android.server.am.ContentProviderConnection.mLock</title>
<path fill="#fee2e2" stroke="#dc2626" stroke-width="2" d="M209.5,-36C209.5,-36 27.5,-36 27.5,-36 21.5,-36 15.5,-30 15.5,-24 15.5,-24 15.5,-12 15.5,-12 15.5,-6 21.5,0 27.5,0 27.5,0 209.5,0 209.5,0 215.5,0 221.5,-6 221.5,-12 221.5,-12 221.5,-24 221.5,-24 221.5,-30 215.5,-36 209.5,-36"/>
<text text-anchor="middle" x="118.5" y="-15.2" font-family="Helvetica,sans-Serif" font-size="11.00">ContentProviderConnection.mLock</text>
</g>
<!-- m::com.android.server.am.ContentProviderConnection.stableCount:()I&#45;&gt;com.android.server.am.ContentProviderConnection.mLock -->
<g id="edge1" class="edge">
<title>m::com.android.server.am.ContentProviderConnection.stableCount:()I&#45;&gt;com.android.server.am.ContentProviderConnection.mLock</title>
<path fill="none" stroke="#dc2626" stroke-width="1.6" d="M118.5,-81.64C118.5,-70.66 118.5,-56.29 118.5,-44.09"/>
<polygon fill="#dc2626" stroke="#dc2626" stroke-width="1.6" points="121.3,-44.05 118.5,-36.05 115.7,-44.05 121.3,-44.05"/>
<text text-anchor="middle" x="139.5" y="-56.8" font-family="Helvetica,sans-Serif" font-size="9.00" fill="#dc2626"> acquires</text>
</g>
</g>
</svg>
