<?xml version="1.0" encoding="UTF-8" standalone="no"?>
<!DOCTYPE svg PUBLIC "-//W3C//DTD SVG 1.1//EN"
 "http://www.w3.org/Graphics/SVG/1.1/DTD/svg11.dtd">
<!-- Generated by graphviz version 2.43.0 (0)
 -->
<!-- Title: binder Pages: 1 -->
<svg width="395pt" height="208pt"
 viewBox="0.00 0.00 395.00 208.00" xmlns="http://www.w3.org/2000/svg" xmlns:xlink="http://www.w3.org/1999/xlink">
<g id="graph0" class="graph" transform="scale(1 1) rotate(0) translate(4 204)">
<title>binder</title>
<polygon fill="white" stroke="transparent" points="-4,4 -4,-204 391,-204 391,4 -4,4"/>
<!-- m::com.android.server.am.ContentProviderConnection.startAssociationIfNeeded:()V -->
<g id="node1" class="node">
<title>m::com.android.server.am.ContentProviderConnection.startAssociationIfNeeded:()V</title>
<path fill="#eef2ff" stroke="#a5b4fc" stroke-width="2" d="M338,-200C338,-200 53,-200 53,-200 47,-200 41,-194 41,-188 41,-188 41,-176 41,-176 41,-170 47,-164 53,-164 53,-164 338,-164 338,-164 344,-164 350,-170 350,-176 350,-176 350,-188 350,-188 350,-194 344,-200 338,-200"/>
<text text-anchor="middle" x="195.5" y="-179.2" font-family="Helvetica,sans-Serif" font-size="11.00">ContentProviderConnection.startAssociationIfNeeded</text>
</g>
<!-- com.android.server.am.ContentProviderConnection.mProcStatsLock -->
<g id="node2" class="node">
<title>com.android.server.am.ContentProviderConnection.mProcStatsLock</title>
<path fill="#fee2e2" stroke="#dc2626" stroke-width="2" d="M247,-118C247,-118 12,-118 12,-118 6,-118 0,-112 0,-106 0,-106 0,-94 0,-94 0,-88 6,-82 12,-82 12,-82 247,-82 247,-82 253,-82 259,-88 259,-94 259,-94 259,-106 259,-106 259,-112 253,-118 247,-118"/>
<text text-anchor="middle" x="129.5" y="-97.2" font-family="Helvetica,sans-Serif" font-size="11.00">ContentProviderConnection.mProcStatsLock</text>
</g>
<!-- m::com.android.server.am.ContentProviderConnection.startAssociationIfNeeded:()V&#45;&gt;com.android.server.am.ContentProviderConnection.mProcStatsLock -->
<g id="edge1" class="edge">
<title>m::com.android.server.am.ContentProviderConnection.startAssociationIfNeeded:()V&#45;&gt;com.android.server.am.ContentProviderConnection.mProcStatsLock</title>
<path fill="none" stroke="#dc2626" stroke-width="1.6" d="M181.18,-163.64C171.69,-152.14 159.12,-136.9 148.76,-124.34"/>
<polygon fill="#dc2626" stroke="#dc2626" stroke-width="1.6" points="150.82,-122.44 143.57,-118.05 146.5,-126 150.82,-122.44"/>
<text text-anchor="middle" x="186.5" y="-138.8" font-family="Helvetica,sans-Serif" font-size="9.00" fill="#dc2626"> acquires</text>
</g>
<!-- m::com.android.server.am.PackageList.get:(Ljava/lang/String;)Lcom/android/internal/app/procstats/ProcessStats$ProcessStateHolder; -->
<g id="node3" class="node">
<title>m::com.android.server.am.PackageList.get:(Ljava/lang/String;)Lcom/android/internal/app/procstats/ProcessStats$ProcessStateHolder;</title>
<path fill="#eef2ff" stroke="#a5b4fc" d="M375,-118C375,-118 296,-118 296,-118 290,-118 284,-112 284,-106 284,-106 284,-94 284,-94 284,-88 290,-82 296,-82 296,-82 375,-82 375,-82 381,-82 387,-88 387,-94 387,-94 387,-106 387,-106 387,-112 381,-118 375,-118"/>
<text text-anchor="middle" x="335.5" y="-97.2" font-family="Helvetica,sans-Serif" font-size="11.00">PackageList.get</text>
</g>
<!-- m::com.android.server.am.ContentProviderConnection.startAssociationIfNeeded:()V&#45;&gt;m::com.android.server.am.PackageList.get:(Ljava/lang/String;)Lcom/android/internal/app/procstats/ProcessStats$ProcessStateHolder; -->
<g id="edge2" class="edge">
<title>m::com.android.server.am.ContentProviderConnection.startAssociationIfNeeded:()V&#45;&gt;m::com.android.server.am.PackageList.get:(Ljava/lang/String;)Lcom/android/internal/app/procstats/ProcessStats$ProcessStateHolder;</title>
<path fill="none" stroke="#64748b" d="M225.53,-163.84C246.85,-151.66 275.6,-135.23 298.35,-122.23"/>
<polygon fill="#64748b" stroke="#64748b" points="299.96,-124.53 305.52,-118.13 297.18,-119.67 299.96,-124.53"/>
</g>
<!-- com.android.server.am.PackageList -->
<g id="node4" class="node">
<title>com.android.server.am.PackageList</title>
<path fill="#fee2e2" stroke="#dc2626" stroke-width="2" d="M374.5,-36C374.5,-36 296.5,-36 296.5,-36 290.5,-36 284.5,-30 284.5,-24 284.5,-24 284.5,-12 284.5,-12 284.5,-6 290.5,0 296.5,0 296.5,0 374.5,0 374.5,0 380.5,0 386.5,-6 386.5,-12 386.5,-12 386.5,-24 386.5,-24 386.5,-30 380.5,-36 374.5,-36"/>
<text text-anchor="middle" x="335.5" y="-15.2" font-family="Helvetica,sans-Serif" font-size="11.00">am.PackageList</text>
</g>
<!-- m::com.android.server.am.PackageList.get:(Ljava/lang/String;)Lcom/android/internal/app/procstats/ProcessStats$ProcessStateHolder;&#45;&gt;com.android.server.am.PackageList -->
<g id="edge3" class="edge">
<title>m::com.android.server.am.PackageList.get:(Ljava/lang/String;)Lcom/android/internal/app/procstats/ProcessStats$ProcessStateHolder;&#45;&gt;com.android.server.am.PackageList</title>
<path fill="none" stroke="#dc2626" stroke-width="1.6" d="M335.5,-81.64C335.5,-70.66 335.5,-56.29 335.5,-44.09"/>
<polygon fill="#dc2626" stroke="#dc2626" stroke-width="1.6" points="338.3,-44.05 335.5,-36.05 332.7,-44.05 338.3,-44.05"/>
<text text-anchor="middle" x="356.5" y="-56.8" font-family="Helvetica,sans-Serif" font-size="9.00" fill="#dc2626"> acquires</text>
</g>
</g>
</svg>
