<?xml version="1.0" encoding="UTF-8" standalone="no"?>
<!DOCTYPE svg PUBLIC "-//W3C//DTD SVG 1.1//EN"
 "http://www.w3.org/Graphics/SVG/1.1/DTD/svg11.dtd">
<!-- Generated by graphviz version 2.43.0 (0)
 -->
<!-- Title: binder Pages: 1 -->
<svg width="267pt" height="126pt"
 viewBox="0.00 0.00 267.00 126.00" xmlns="http://www.w3.org/2000/svg" xmlns:xlink="http://www.w3.org/1999/xlink">
<g id="graph0" class="graph" transform="scale(1 1) rotate(0) translate(4 122)">
<title>binder</title>
<polygon fill="white" stroke="transparent" points="-4,4 -4,-122 263,-122 263,4 -4,4"/>
<!-- m::com.android.server.am.ContentProviderConnection.stopAssociation:()V -->
<g id="node1" class="node">
<title>m::com.android.server.am.ContentProviderConnection.stopAssociation:()V</title>
<path fill="#eef2ff" stroke="#a5b4fc" stroke-width="2" d="M246.5,-118C246.5,-118 12.5,-118 12.5,-118 6.5,-118 0.5,-112 0.5,-106 0.5,-106 0.5,-94 0.5,-94 0.5,-88 6.5,-82 12.5,-82 12.5,-82 246.5,-82 246.5,-82 252.5,-82 258.5,-88 258.5,-94 258.5,-94 258.5,-106 258.5,-106 258.5,-112 252.5,-118 246.5,-118"/>
<text text-anchor="middle" x="129.5" y="-97.2" font-family="Helvetica,sans-Serif" font-size="11.00">ContentProviderConnection.stopAssociation</text>
</g>
<!-- com.android.server.am.ContentProviderConnection.mProcStatsLock -->
<g id="node2" class="node">
<title>com.android.server.am.ContentProviderConnection.mProcStatsLock</title>
<path fill="#fee2e2" stroke="#dc2626" stroke-width="2" d="M247,-36C247,-36 12,-36 12,-36 6,-36 0,-30 0,-24 0,-24 0,-12 0,-12 0,-6 6,0 12,0 12,0 247,0 247,0 253,0 259,-6 259,-12 259,-12 259,-24 259,-24 259,-30 253,-36 247,-36"/>
<text text-anchor="middle" x="129.5" y="-15.2" font-family="Helvetica,sans-Serif" font-size="11.00">ContentProviderConnection.mProcStatsLock</text>
</g>
<!-- m::com.android.server.am.ContentProviderConnection.stopAssociation:()V&#45;&gt;com.android.server.am.ContentProviderConnection.mProcStatsLock -->
<g id="edge1" class="edge">
<title>m::com.android.server.am.ContentProviderConnection.stopAssociation:()V&#45;&gt;com.android.server.am.ContentProviderConnection.mProcStatsLock</title>
<path fill="none" stroke="#dc2626" stroke-width="1.6" d="M129.5,-81.64C129.5,-70.66 129.5,-56.29 129.5,-44.09"/>
<polygon fill="#dc2626" stroke="#dc2626" stroke-width="1.6" points="132.3,-44.05 129.5,-36.05 126.7,-44.05 132.3,-44.05"/>
<text text-anchor="middle" x="150.5" y="-56.8" font-family="Helvetica,sans-Serif" font-size="9.00" fill="#dc2626"> acquires</text>
</g>
</g>
</svg>
