<?xml version="1.0" encoding="UTF-8" standalone="no"?>
<!DOCTYPE svg PUBLIC "-//W3C//DTD SVG 1.1//EN"
 "http://www.w3.org/Graphics/SVG/1.1/DTD/svg11.dtd">
<!-- Generated by graphviz version 2.43.0 (0)
 -->
<!-- Title: binder Pages: 1 -->
<svg width="254pt" height="199pt"
 viewBox="0.00 0.00 254.00 199.00" xmlns="http://www.w3.org/2000/svg" xmlns:xlink="http://www.w3.org/1999/xlink">
<g id="graph0" class="graph" transform="scale(1 1) rotate(0) translate(4 195)">
<title>binder</title>
<polygon fill="white" stroke="transparent" points="-4,4 -4,-195 250,-195 250,4 -4,4"/>
<!-- m::com.android.server.am.ContentProviderConnection.toClientString:()Ljava/lang/String; -->
<g id="node1" class="node">
<title>m::com.android.server.am.ContentProviderConnection.toClientString:()Ljava/lang/String;</title>
<path fill="#eef2ff" stroke="#a5b4fc" stroke-width="2" d="M234,-191C234,-191 12,-191 12,-191 6,-191 0,-185 0,-179 0,-179 0,-167 0,-167 0,-161 6,-155 12,-155 12,-155 234,-155 234,-155 240,-155 246,-161 246,-167 246,-167 246,-179 246,-179 246,-185 240,-191 234,-191"/>
<text text-anchor="middle" x="123" y="-170.2" font-family="Helvetica,sans-Serif" font-size="11.00">ContentProviderConnection.toClientString</text>
</g>
<!-- m::com.android.server.am.ContentProviderConnection.toClientString:(Ljava/lang/StringBuilder;)V -->
<g id="node2" class="node">
<title>m::com.android.server.am.ContentProviderConnection.toClientString:(Ljava/lang/StringBuilder;)V</title>
<path fill="#eef2ff" stroke="#a5b4fc" d="M234,-118C234,-118 12,-118 12,-118 6,-118 0,-112 0,-106 0,-106 0,-94 0,-94 0,-88 6,-82 12,-82 12,-82 234,-82 234,-82 240,-82 246,-88 246,-94 246,-94 246,-106 246,-106 246,-112 240,-118 234,-118"/>
<text text-anchor="middle" x="123" y="-97.2" font-family="Helvetica,sans-Serif" font-size="11.00">ContentProviderConnection.toClientString</text>
</g>
<!-- m::com.android.server.am.ContentProviderConnection.toClientString:()Ljava/lang/String;&#45;&gt;m::com.android.server.am.ContentProviderConnection.toClientString:(Ljava/lang/StringBuilder;)V -->
<g id="edge1" class="edge">
<title>m::com.android.server.am.ContentProviderConnection.toClientString:()Ljava/lang/String;&#45;&gt;m::com.android.server.am.ContentProviderConnection.toClientString:(Ljava/lang/StringBuilder;)V</title>
<path fill="none" stroke="#64748b" d="M123,-154.81C123,-146.18 123,-135.56 123,-126.03"/>
<polygon fill="#64748b" stroke="#64748b" points="125.8,-126.03 123,-118.03 120.2,-126.03 125.8,-126.03"/>
</g>
<!-- com.android.server.am.ContentProviderConnection.mLock -->
<g id="node3" class="node">
<title>com.android.server.am.ContentProviderConnection.mLock</title>
<path fill="#fee2e2" stroke="#dc2626" stroke-width="2" d="M214,-36C214,-36 32,-36 32,-36 26,-36 20,-30 20,-24 20,-24 20,-12 20,-12 20,-6 26,0 32,0 32,0 214,0 214,0 220,0 226,-6 226,-12 226,-12 226,-24 226,-24 226,-30 220,-36 214,-36"/>
<text text-anchor="middle" x="123" y="-15.2" font-family="Helvetica,sans-Serif" font-size="11.00">ContentProviderConnection.mLock</text>
</g>
<!-- m::com.android.server.am.ContentProviderConnection.toClientString:(Ljava/lang/StringBuilder;)V&#45;&gt;com.android.server.am.ContentProviderConnection.mLock -->
<g id="edge2" class="edge">
<title>m::com.android.server.am.ContentProviderConnection.toClientString:(Ljava/lang/StringBuilder;)V&#45;&gt;com.android.server.am.ContentProviderConnection.mLock</title>
<path fill="none" stroke="#dc2626" stroke-width="1.6" d="M123,-81.64C123,-70.66 123,-56.29 123,-44.09"/>
<polygon fill="#dc2626" stroke="#dc2626" stroke-width="1.6" points="125.8,-44.05 123,-36.05 120.2,-44.05 125.8,-44.05"/>
<text text-anchor="middle" x="144" y="-56.8" font-family="Helvetica,sans-Serif" font-size="9.00" fill="#dc2626"> acquires</text>
</g>
</g>
</svg>
