<?xml version="1.0" encoding="UTF-8" standalone="no"?>
<!DOCTYPE svg PUBLIC "-//W3C//DTD SVG 1.1//EN"
 "http://www.w3.org/Graphics/SVG/1.1/DTD/svg11.dtd">
<!-- Generated by graphviz version 2.43.0 (0)
 -->
<!-- Title: binder Pages: 1 -->
<svg width="254pt" height="272pt"
 viewBox="0.00 0.00 254.00 272.00" xmlns="http://www.w3.org/2000/svg" xmlns:xlink="http://www.w3.org/1999/xlink">
<g id="graph0" class="graph" transform="scale(1 1) rotate(0) translate(4 268)">
<title>binder</title>
<polygon fill="white" stroke="transparent" points="-4,4 -4,-268 250,-268 250,4 -4,4"/>
<!-- m::com.android.server.am.ContentProviderConnection.toString:()Ljava/lang/String; -->
<g id="node1" class="node">
<title>m::com.android.server.am.ContentProviderConnection.toString:()Ljava/lang/String;</title>
<path fill="#eef2ff" stroke="#a5b4fc" stroke-width="2" d="M218.5,-264C218.5,-264 27.5,-264 27.5,-264 21.5,-264 15.5,-258 15.5,-252 15.5,-252 15.5,-240 15.5,-240 15.5,-234 21.5,-228 27.5,-228 27.5,-228 218.5,-228 218.5,-228 224.5,-228 230.5,-234 230.5,-240 230.5,-240 230.5,-252 230.5,-252 230.5,-258 224.5,-264 218.5,-264"/>
<text text-anchor="middle" x="123" y="-243.2" font-family="Helvetica,sans-Serif" font-size="11.00">ContentProviderConnection.toString</text>
</g>
<!-- m::com.android.server.am.ContentProviderConnection.toShortString:(Ljava/lang/StringBuilder;)V -->
<g id="node2" class="node">
<title>m::com.android.server.am.ContentProviderConnection.toShortString:(Ljava/lang/StringBuilder;)V</title>
<path fill="#eef2ff" stroke="#a5b4fc" d="M233,-191C233,-191 13,-191 13,-191 7,-191 1,-185 1,-179 1,-179 1,-167 1,-167 1,-161 7,-155 13,-155 13,-155 233,-155 233,-155 239,-155 245,-161 245,-167 245,-167 245,-179 245,-179 245,-185 239,-191 233,-191"/>
<text text-anchor="middle" x="123" y="-170.2" font-family="Helvetica,sans-Serif" font-size="11.00">ContentProviderConnection.toShortString</text>
</g>
<!-- m::com.android.server.am.ContentProviderConnection.toString:()Ljava/lang/String;&#45;&gt;m::com.android.server.am.ContentProviderConnection.toShortString:(Ljava/lang/StringBuilder;)V -->
<g id="edge1" class="edge">
<title>m::com.android.server.am.ContentProviderConnection.toString:()Ljava/lang/String;&#45;&gt;m::com.android.server.am.ContentProviderConnection.toShortString:(Ljava/lang/StringBuilder;)V</title>
<path fill="none" stroke="#64748b" d="M123,-227.81C123,-219.18 123,-208.56 123,-199.03"/>
<polygon fill="#64748b" stroke="#64748b" points="125.8,-199.03 123,-191.03 120.2,-199.03 125.8,-199.03"/>
</g>
<!-- m::com.android.server.am.ContentProviderConnection.toClientString:(Ljava/lang/StringBuilder;)V -->
<g id="node3" class="node">
<title>m::com.android.server.am.ContentProviderConnection.toClientString:(Ljava/lang/StringBuilder;)V</title>
<path fill="#eef2ff" stroke="#a5b4fc" d="M234,-118C234,-118 12,-118 12,-118 6,-118 0,-112 0,-106 0,-106 0,-94 0,-94 0,-88 6,-82 12,-82 12,-82 234,-82 234,-82 240,-82 246,-88 246,-94 246,-94 246,-106 246,-106 246,-112 240,-118 234,-118"/>
<text text-anchor="middle" x="123" y="-97.2" font-family="Helvetica,sans-Serif" font-size="11.00">ContentProviderConnection.toClientString</text>
</g>
<!-- m::com.android.server.am.ContentProviderConnection.toShortString:(Ljava/lang/StringBuilder;)V&#45;&gt;m::com.android.server.am.ContentProviderConnection.toClientString:(Ljava/lang/StringBuilder;)V -->
<g id="edge2" class="edge">
<title>m::com.android.server.am.ContentProviderConnection.toShortString:(Ljava/lang/StringBuilder;)V&#45;&gt;m::com.android.server.am.ContentProviderConnection.toClientString:(Ljava/lang/StringBuilder;)V</title>
<path fill="none" stroke="#64748b" d="M123,-154.81C123,-146.18 123,-135.56 123,-126.03"/>
<polygon fill="#64748b" stroke="#64748b" points="125.8,-126.03 123,-118.03 120.2,-126.03 125.8,-126.03"/>
</g>
<!-- com.android.server.am.ContentProviderConnection.mLock -->
<g id="node4" class="node">
<title>com.android.server.am.ContentProviderConnection.mLock</title>
<path fill="#fee2e2" stroke="#dc2626" stroke-width="2" d="M214,-36C214,-36 32,-36 32,-36 26,-36 20,-30 20,-24 20,-24 20,-12 20,-12 20,-6 26,0 32,0 32,0 214,0 214,0 220,0 226,-6 226,-12 226,-12 226,-24 226,-24 226,-30 220,-36 214,-36"/>
<text text-anchor="middle" x="123" y="-15.2" font-family="Helvetica,sans-Serif" font-size="11.00">ContentProviderConnection.mLock</text>
</g>
<!-- m::com.android.server.am.ContentProviderConnection.toClientString:(Ljava/lang/StringBuilder;)V&#45;&gt;com.android.server.am.ContentProviderConnection.mLock -->
<g id="edge3" class="edge">
<title>m::com.android.server.am.ContentProviderConnection.toClientString:(Ljava/lang/StringBuilder;)V&#45;&gt;com.android.server.am.ContentProviderConnection.mLock</title>
<path fill="none" stroke="#dc2626" stroke-width="1.6" d="M123,-81.64C123,-70.66 123,-56.29 123,-44.09"/>
<polygon fill="#dc2626" stroke="#dc2626" stroke-width="1.6" points="125.8,-44.05 123,-36.05 120.2,-44.05 125.8,-44.05"/>
<text text-anchor="middle" x="144" y="-56.8" font-family="Helvetica,sans-Serif" font-size="9.00" fill="#dc2626"> acquires</text>
</g>
</g>
</svg>
