<?xml version="1.0" encoding="UTF-8" standalone="no"?>
<!DOCTYPE svg PUBLIC "-//W3C//DTD SVG 1.1//EN"
 "http://www.w3.org/Graphics/SVG/1.1/DTD/svg11.dtd">
<!-- Generated by graphviz version 2.43.0 (0)
 -->
<!-- Title: binder Pages: 1 -->
<svg width="253pt" height="208pt"
 viewBox="0.00 0.00 253.00 208.00" xmlns="http://www.w3.org/2000/svg" xmlns:xlink="http://www.w3.org/1999/xlink">
<g id="graph0" class="graph" transform="scale(1 1) rotate(0) translate(4 204)">
<title>binder</title>
<polygon fill="white" stroke="transparent" points="-4,4 -4,-204 249,-204 249,4 -4,4"/>
<!-- m::com.android.server.wm.ActivityClientController.activityIdle:(Landroid/os/IBinder;Landroid/content/res/Configuration;Z)V -->
<g id="node1" class="node">
<title>m::com.android.server.wm.ActivityClientController.activityIdle:(Landroid/os/IBinder;Landroid/content/res/Configuration;Z)V</title>
<path fill="#eef2ff" stroke="#a5b4fc" d="M214.5,-118C214.5,-118 30.5,-118 30.5,-118 24.5,-118 18.5,-112 18.5,-106 18.5,-106 18.5,-94 18.5,-94 18.5,-88 24.5,-82 30.5,-82 30.5,-82 214.5,-82 214.5,-82 220.5,-82 226.5,-88 226.5,-94 226.5,-94 226.5,-106 226.5,-106 226.5,-112 220.5,-118 214.5,-118"/>
<text text-anchor="middle" x="122.5" y="-97.2" font-family="Helvetica,sans-Serif" font-size="11.00">ActivityClientController.activityIdle</text>
</g>
<!-- __ipc__ -->
<g id="node2" class="node">
<title>__ipc__</title>
<path fill="#fde68a" stroke="#d97706" stroke-width="2" d="M166.5,-36C166.5,-36 78.5,-36 78.5,-36 72.5,-36 66.5,-30 66.5,-24 66.5,-24 66.5,-12 66.5,-12 66.5,-6 72.5,0 78.5,0 78.5,0 166.5,0 166.5,0 172.5,0 178.5,-6 178.5,-12 178.5,-12 178.5,-24 178.5,-24 178.5,-30 172.5,-36 166.5,-36"/>
<text text-anchor="middle" x="122.5" y="-21.2" font-family="Helvetica,sans-Serif" font-size="11.00">Binder IPC</text>
<text text-anchor="middle" x="122.5" y="-9.2" font-family="Helvetica,sans-Serif" font-size="11.00">(remote process)</text>
</g>
<!-- m::com.android.server.wm.ActivityClientController.activityIdle:(Landroid/os/IBinder;Landroid/content/res/Configuration;Z)V&#45;&gt;__ipc__ -->
<g id="edge2" class="edge">
<title>m::com.android.server.wm.ActivityClientController.activityIdle:(Landroid/os/IBinder;Landroid/content/res/Configuration;Z)V&#45;&gt;__ipc__</title>
<path fill="none" stroke="#d97706" stroke-width="1.6" d="M122.5,-81.64C122.5,-70.66 122.5,-56.29 122.5,-44.09"/>
<polygon fill="#d97706" stroke="#d97706" stroke-width="1.6" points="125.3,-44.05 122.5,-36.05 119.7,-44.05 125.3,-44.05"/>
<text text-anchor="middle" x="145.5" y="-56.8" font-family="Helvetica,sans-Serif" font-size="9.00" fill="#b45309"> transacts</text>
</g>
<!-- com.android.server.wm.ActivityTaskManagerService.mGlobalLock -->
<g id="node3" class="node">
<title>com.android.server.wm.ActivityTaskManagerService.mGlobalLock</title>
<path fill="#fee2e2" stroke="#dc2626" stroke-width="2" d="M233,-200C233,-200 12,-200 12,-200 6,-200 0,-194 0,-188 0,-188 0,-176 0,-176 0,-170 6,-164 12,-164 12,-164 233,-164 233,-164 239,-164 245,-170 245,-176 245,-176 245,-188 245,-188 245,-194 239,-200 233,-200"/>
<text text-anchor="middle" x="122.5" y="-179.2" font-family="Helvetica,sans-Serif" font-size="11.00">ActivityTaskManagerService.mGlobalLock</text>
</g>
<!-- com.android.server.wm.ActivityTaskManagerService.mGlobalLock&#45;&gt;m::com.android.server.wm.ActivityClientController.activityIdle:(Landroid/os/IBinder;Landroid/content/res/Configuration;Z)V -->
<g id="edge1" class="edge">
<title>com.android.server.wm.ActivityTaskManagerService.mGlobalLock&#45;&gt;m::com.android.server.wm.ActivityClientController.activityIdle:(Landroid/os/IBinder;Landroid/content/res/Configuration;Z)V</title>
<path fill="none" stroke="#dc2626" stroke-width="1.6" d="M122.5,-163.64C122.5,-152.66 122.5,-138.29 122.5,-126.09"/>
<polygon fill="#dc2626" stroke="#dc2626" stroke-width="1.6" points="125.3,-126.05 122.5,-118.05 119.7,-126.05 125.3,-126.05"/>
<text text-anchor="middle" x="139.5" y="-138.8" font-family="Helvetica,sans-Serif" font-size="9.00" fill="#dc2626"> held in</text>
</g>
</g>
</svg>
