<?xml version="1.0" encoding="UTF-8" standalone="no"?>
<!DOCTYPE svg PUBLIC "-//W3C//DTD SVG 1.1//EN"
 "http://www.w3.org/Graphics/SVG/1.1/DTD/svg11.dtd">
<!-- Generated by graphviz version 2.43.0 (0)
 -->
<!-- Title: binder Pages: 1 -->
<svg width="388pt" height="208pt"
 viewBox="0.00 0.00 388.00 208.00" xmlns="http://www.w3.org/2000/svg" xmlns:xlink="http://www.w3.org/1999/xlink">
<g id="graph0" class="graph" transform="scale(1 1) rotate(0) translate(4 204)">
<title>binder</title>
<polygon fill="white" stroke="transparent" points="-4,4 -4,-204 384,-204 384,4 -4,4"/>
<!-- m::com.android.server.wallpaper.WallpaperManagerService$MyPackageMonitor.onHandleForceStop:(Landroid/content/Intent;[Ljava/lang/String;IZ)Z -->
<g id="node1" class="node">
<title>m::com.android.server.wallpaper.WallpaperManagerService$MyPackageMonitor.onHandleForceStop:(Landroid/content/Intent;[Ljava/lang/String;IZ)Z</title>
<path fill="#eef2ff" stroke="#a5b4fc" d="M368,-118C368,-118 12,-118 12,-118 6,-118 0,-112 0,-106 0,-106 0,-94 0,-94 0,-88 6,-82 12,-82 12,-82 368,-82 368,-82 374,-82 380,-88 380,-94 380,-94 380,-106 380,-106 380,-112 374,-118 368,-118"/>
<text text-anchor="middle" x="190" y="-97.2" font-family="Helvetica,sans-Serif" font-size="11.00">WallpaperManagerService$MyPackageMonitor.onHandleForceStop</text>
</g>
<!-- __ipc__ -->
<g id="node2" class="node">
<title>__ipc__</title>
<path fill="#fde68a" stroke="#d97706" stroke-width="2" d="M234,-36C234,-36 146,-36 146,-36 140,-36 134,-30 134,-24 134,-24 134,-12 134,-12 134,-6 140,0 146,0 146,0 234,0 234,0 240,0 246,-6 246,-12 246,-12 246,-24 246,-24 246,-30 240,-36 234,-36"/>
<text text-anchor="middle" x="190" y="-21.2" font-family="Helvetica,sans-Serif" font-size="11.00">Binder IPC</text>
<text text-anchor="middle" x="190" y="-9.2" font-family="Helvetica,sans-Serif" font-size="11.00">(remote process)</text>
</g>
<!-- m::com.android.server.wallpaper.WallpaperManagerService$MyPackageMonitor.onHandleForceStop:(Landroid/content/Intent;[Ljava/lang/String;IZ)Z&#45;&gt;__ipc__ -->
<g id="edge2" class="edge">
<title>m::com.android.server.wallpaper.WallpaperManagerService$MyPackageMonitor.onHandleForceStop:(Landroid/content/Intent;[Ljava/lang/String;IZ)Z&#45;&gt;__ipc__</title>
<path fill="none" stroke="#d97706" stroke-width="1.6" d="M190,-81.64C190,-70.66 190,-56.29 190,-44.09"/>
<polygon fill="#d97706" stroke="#d97706" stroke-width="1.6" points="192.8,-44.05 190,-36.05 187.2,-44.05 192.8,-44.05"/>
<text text-anchor="middle" x="213" y="-56.8" font-family="Helvetica,sans-Serif" font-size="9.00" fill="#b45309"> transacts</text>
</g>
<!-- com.android.server.wallpaper.WallpaperManagerService.mLock -->
<g id="node3" class="node">
<title>com.android.server.wallpaper.WallpaperManagerService.mLock</title>
<path fill="#fee2e2" stroke="#dc2626" stroke-width="2" d="M277.5,-200C277.5,-200 102.5,-200 102.5,-200 96.5,-200 90.5,-194 90.5,-188 90.5,-188 90.5,-176 90.5,-176 90.5,-170 96.5,-164 102.5,-164 102.5,-164 277.5,-164 277.5,-164 283.5,-164 289.5,-170 289.5,-176 289.5,-176 289.5,-188 289.5,-188 289.5,-194 283.5,-200 277.5,-200"/>
<text text-anchor="middle" x="190" y="-179.2" font-family="Helvetica,sans-Serif" font-size="11.00">WallpaperManagerService.mLock</text>
</g>
<!-- com.android.server.wallpaper.WallpaperManagerService.mLock&#45;&gt;m::com.android.server.wallpaper.WallpaperManagerService$MyPackageMonitor.onHandleForceStop:(Landroid/content/Intent;[Ljava/lang/String;IZ)Z -->
<g id="edge1" class="edge">
<title>com.android.server.wallpaper.WallpaperManagerService.mLock&#45;&gt;m::com.android.server.wallpaper.WallpaperManagerService$MyPackageMonitor.onHandleForceStop:(Landroid/content/Intent;[Ljava/lang/String;IZ)Z</title>
<path fill="none" stroke="#dc2626" stroke-width="1.6" d="M190,-163.64C190,-152.66 190,-138.29 190,-126.09"/>
<polygon fill="#dc2626" stroke="#dc2626" stroke-width="1.6" points="192.8,-126.05 190,-118.05 187.2,-126.05 192.8,-126.05"/>
<text text-anchor="middle" x="207" y="-138.8" font-family="Helvetica,sans-Serif" font-size="9.00" fill="#dc2626"> held in</text>
</g>
</g>
</svg>
