<?xml version="1.0" encoding="UTF-8" standalone="no"?>
<!DOCTYPE svg PUBLIC "-//W3C//DTD SVG 1.1//EN"
 "http://www.w3.org/Graphics/SVG/1.1/DTD/svg11.dtd">
<!-- Generated by graphviz version 2.43.0 (0)
 -->
<!-- Title: binder Pages: 1 -->
<svg width="430pt" height="719pt"
 viewBox="0.00 0.00 430.00 719.00" xmlns="http://www.w3.org/2000/svg" xmlns:xlink="http://www.w3.org/1999/xlink">
<g id="graph0" class="graph" transform="scale(1 1) rotate(0) translate(4 715)">
<title>binder</title>
<polygon fill="white" stroke="transparent" points="-4,4 -4,-715 426,-715 426,4 -4,4"/>
<!-- m::com.android.server.am.ActivityManagerService.attachApplicationLocked:(Landroid/app/IApplicationThread;IIJ)V -->
<g id="node1" class="node">
<title>m::com.android.server.am.ActivityManagerService.attachApplicationLocked:(Landroid/app/IApplicationThread;IIJ)V</title>
<path fill="#eef2ff" stroke="#a5b4fc" d="M341.5,-629C341.5,-629 80.5,-629 80.5,-629 74.5,-629 68.5,-623 68.5,-617 68.5,-617 68.5,-605 68.5,-605 68.5,-599 74.5,-593 80.5,-593 80.5,-593 341.5,-593 341.5,-593 347.5,-593 353.5,-599 353.5,-605 353.5,-605 353.5,-617 353.5,-617 353.5,-623 347.5,-629 341.5,-629"/>
<text text-anchor="middle" x="211" y="-608.2" font-family="Helvetica,sans-Serif" font-size="11.00">ActivityManagerService.attachApplicationLocked</text>
</g>
<!-- m::com.android.server.am.ProcessList.startProcessLocked:(Lcom/android/server/am/ProcessRecord;Lcom/android/server/am/HostingRecord;I)V -->
<g id="node2" class="node">
<title>m::com.android.server.am.ProcessList.startProcessLocked:(Lcom/android/server/am/ProcessRecord;Lcom/android/server/am/HostingRecord;I)V</title>
<path fill="#eef2ff" stroke="#a5b4fc" d="M294,-556C294,-556 128,-556 128,-556 122,-556 116,-550 116,-544 116,-544 116,-532 116,-532 116,-526 122,-520 128,-520 128,-520 294,-520 294,-520 300,-520 306,-526 306,-532 306,-532 306,-544 306,-544 306,-550 300,-556 294,-556"/>
<text text-anchor="middle" x="211" y="-535.2" font-family="Helvetica,sans-Serif" font-size="11.00">ProcessList.startProcessLocked</text>
</g>
<!-- m::com.android.server.am.ActivityManagerService.attachApplicationLocked:(Landroid/app/IApplicationThread;IIJ)V&#45;&gt;m::com.android.server.am.ProcessList.startProcessLocked:(Lcom/android/server/am/ProcessRecord;Lcom/android/server/am/HostingRecord;I)V -->
<g id="edge2" class="edge">
<title>m::com.android.server.am.ActivityManagerService.attachApplicationLocked:(Landroid/app/IApplicationThread;IIJ)V&#45;&gt;m::com.android.server.am.ProcessList.startProcessLocked:(Lcom/android/server/am/ProcessRecord;Lcom/android/server/am/HostingRecord;I)V</title>
<path fill="none" stroke="#64748b" d="M211,-592.81C211,-584.18 211,-573.56 211,-564.03"/>
<polygon fill="#64748b" stroke="#64748b" points="213.8,-564.03 211,-556.03 208.2,-564.03 213.8,-564.03"/>
</g>
<!-- m::com.android.server.am.ProcessList.startProcessLocked:(Lcom/android/server/am/ProcessRecord;Lcom/android/server/am/HostingRecord;ILjava/lang/String;)Z -->
<g id="node3" class="node">
<title>m::com.android.server.am.ProcessList.startProcessLocked:(Lcom/android/server/am/ProcessRecord;Lcom/android/server/am/HostingRecord;ILjava/lang/String;)Z</title>
<path fill="#eef2ff" stroke="#a5b4fc" d="M294,-483C294,-483 128,-483 128,-483 122,-483 116,-477 116,-471 116,-471 116,-459 116,-459 116,-453 122,-447 128,-447 128,-447 294,-447 294,-447 300,-447 306,-453 306,-459 306,-459 306,-471 306,-471 306,-477 300,-483 294,-483"/>
<text text-anchor="middle" x="211" y="-462.2" font-family="Helvetica,sans-Serif" font-size="11.00">ProcessList.startProcessLocked</text>
</g>
<!-- m::com.android.server.am.ProcessList.startProcessLocked:(Lcom/android/server/am/ProcessRecord;Lcom/android/server/am/HostingRecord;I)V&#45;&gt;m::com.android.server.am.ProcessList.startProcessLocked:(Lcom/android/server/am/ProcessRecord;Lcom/android/server/am/HostingRecord;ILjava/lang/String;)Z -->
<g id="edge3" class="edge">
<title>m::com.android.server.am.ProcessList.startProcessLocked:(Lcom/android/server/am/ProcessRecord;Lcom/android/server/am/HostingRecord;I)V&#45;&gt;m::com.android.server.am.ProcessList.startProcessLocked:(Lcom/android/server/am/ProcessRecord;Lcom/android/server/am/HostingRecord;ILjava/lang/String;)Z</title>
<path fill="none" stroke="#64748b" d="M211,-519.81C211,-511.18 211,-500.56 211,-491.03"/>
<polygon fill="#64748b" stroke="#64748b" points="213.8,-491.03 211,-483.03 208.2,-491.03 213.8,-491.03"/>
</g>
<!-- m::com.android.server.am.ProcessList.startProcessLocked:(Lcom/android/server/am/ProcessRecord;Lcom/android/server/am/HostingRecord;IZZLjava/lang/String;)Z -->
<g id="node4" class="node">
<title>m::com.android.server.am.ProcessList.startProcessLocked:(Lcom/android/server/am/ProcessRecord;Lcom/android/server/am/HostingRecord;IZZLjava/lang/String;)Z</title>
<path fill="#eef2ff" stroke="#a5b4fc" d="M294,-410C294,-410 128,-410 128,-410 122,-410 116,-404 116,-398 116,-398 116,-386 116,-386 116,-380 122,-374 128,-374 128,-374 294,-374 294,-374 300,-374 306,-380 306,-386 306,-386 306,-398 306,-398 306,-404 300,-410 294,-410"/>
<text text-anchor="middle" x="211" y="-389.2" font-family="Helvetica,sans-Serif" font-size="11.00">ProcessList.startProcessLocked</text>
</g>
<!-- m::com.android.server.am.ProcessList.startProcessLocked:(Lcom/android/server/am/ProcessRecord;Lcom/android/server/am/HostingRecord;ILjava/lang/String;)Z&#45;&gt;m::com.android.server.am.ProcessList.startProcessLocked:(Lcom/android/server/am/ProcessRecord;Lcom/android/server/am/HostingRecord;IZZLjava/lang/String;)Z -->
<g id="edge4" class="edge">
<title>m::com.android.server.am.ProcessList.startProcessLocked:(Lcom/android/server/am/ProcessRecord;Lcom/android/server/am/HostingRecord;ILjava/lang/String;)Z&#45;&gt;m::com.android.server.am.ProcessList.startProcessLocked:(Lcom/android/server/am/ProcessRecord;Lcom/android/server/am/HostingRecord;IZZLjava/lang/String;)Z</title>
<path fill="none" stroke="#64748b" d="M211,-446.81C211,-438.18 211,-427.56 211,-418.03"/>
<polygon fill="#64748b" stroke="#64748b" points="213.8,-418.03 211,-410.03 208.2,-418.03 213.8,-418.03"/>
</g>
<!-- m::com.android.server.am.ProcessList.startProcessLocked:(Lcom/android/server/am/HostingRecord;Ljava/lang/String;Lcom/android/server/am/ProcessRecord;I[IIIILjava/lang/String;Ljava/lang/String;Ljava/lang/String;Ljava/lang/String;JJ)Z -->
<g id="node5" class="node">
<title>m::com.android.server.am.ProcessList.startProcessLocked:(Lcom/android/server/am/HostingRecord;Ljava/lang/String;Lcom/android/server/am/ProcessRecord;I[IIIILjava/lang/String;Ljava/lang/String;Ljava/lang/String;Ljava/lang/String;JJ)Z</title>
<path fill="#eef2ff" stroke="#a5b4fc" d="M294,-337C294,-337 128,-337 128,-337 122,-337 116,-331 116,-325 116,-325 116,-313 116,-313 116,-307 122,-301 128,-301 128,-301 294,-301 294,-301 300,-301 306,-307 306,-313 306,-313 306,-325 306,-325 306,-331 300,-337 294,-337"/>
<text text-anchor="middle" x="211" y="-316.2" font-family="Helvetica,sans-Serif" font-size="11.00">ProcessList.startProcessLocked</text>
</g>
<!-- m::com.android.server.am.ProcessList.startProcessLocked:(Lcom/android/server/am/ProcessRecord;Lcom/android/server/am/HostingRecord;IZZLjava/lang/String;)Z&#45;&gt;m::com.android.server.am.ProcessList.startProcessLocked:(Lcom/android/server/am/HostingRecord;Ljava/lang/String;Lcom/android/server/am/ProcessRecord;I[IIIILjava/lang/String;Ljava/lang/String;Ljava/lang/String;Ljava/lang/String;JJ)Z -->
<g id="edge5" class="edge">
<title>m::com.android.server.am.ProcessList.startProcessLocked:(Lcom/android/server/am/ProcessRecord;Lcom/android/server/am/HostingRecord;IZZLjava/lang/String;)Z&#45;&gt;m::com.android.server.am.ProcessList.startProcessLocked:(Lcom/android/server/am/HostingRecord;Ljava/lang/String;Lcom/android/server/am/ProcessRecord;I[IIIILjava/lang/String;Ljava/lang/String;Ljava/lang/String;Ljava/lang/String;JJ)Z</title>
<path fill="none" stroke="#64748b" d="M211,-373.81C211,-365.18 211,-354.56 211,-345.03"/>
<polygon fill="#64748b" stroke="#64748b" points="213.8,-345.03 211,-337.03 208.2,-345.03 213.8,-345.03"/>
</g>
<!-- m::com.android.server.am.ProcessList.startProcess:(Lcom/android/server/am/HostingRecord;Ljava/lang/String;Lcom/android/server/am/ProcessRecord;I[IIIILjava/lang/String;Ljava/lang/String;Ljava/lang/String;Ljava/lang/String;J)Landroid/os/Process$ProcessStartResult; -->
<g id="node6" class="node">
<title>m::com.android.server.am.ProcessList.startProcess:(Lcom/android/server/am/HostingRecord;Ljava/lang/String;Lcom/android/server/am/ProcessRecord;I[IIIILjava/lang/String;Ljava/lang/String;Ljava/lang/String;Ljava/lang/String;J)Landroid/os/Process$ProcessStartResult;</title>
<path fill="#eef2ff" stroke="#a5b4fc" d="M275,-264C275,-264 147,-264 147,-264 141,-264 135,-258 135,-252 135,-252 135,-240 135,-240 135,-234 141,-228 147,-228 147,-228 275,-228 275,-228 281,-228 287,-234 287,-240 287,-240 287,-252 287,-252 287,-258 281,-264 275,-264"/>
<text text-anchor="middle" x="211" y="-243.2" font-family="Helvetica,sans-Serif" font-size="11.00">ProcessList.startProcess</text>
</g>
<!-- m::com.android.server.am.ProcessList.startProcessLocked:(Lcom/android/server/am/HostingRecord;Ljava/lang/String;Lcom/android/server/am/ProcessRecord;I[IIIILjava/lang/String;Ljava/lang/String;Ljava/lang/String;Ljava/lang/String;JJ)Z&#45;&gt;m::com.android.server.am.ProcessList.startProcess:(Lcom/android/server/am/HostingRecord;Ljava/lang/String;Lcom/android/server/am/ProcessRecord;I[IIIILjava/lang/String;Ljava/lang/String;Ljava/lang/String;Ljava/lang/String;J)Landroid/os/Process$ProcessStartResult; -->
<g id="edge6" class="edge">
<title>m::com.android.server.am.ProcessList.startProcessLocked:(Lcom/android/server/am/HostingRecord;Ljava/lang/String;Lcom/android/server/am/ProcessRecord;I[IIIILjava/lang/String;Ljava/lang/String;Ljava/lang/String;Ljava/lang/String;JJ)Z&#45;&gt;m::com.android.server.am.ProcessList.startProcess:(Lcom/android/server/am/HostingRecord;Ljava/lang/String;Lcom/android/server/am/ProcessRecord;I[IIIILjava/lang/String;Ljava/lang/String;Ljava/lang/String;Ljava/lang/String;J)Landroid/os/Process$ProcessStartResult;</title>
<path fill="none" stroke="#64748b" d="M211,-300.81C211,-292.18 211,-281.56 211,-272.03"/>
<polygon fill="#64748b" stroke="#64748b" points="213.8,-272.03 211,-264.03 208.2,-272.03 213.8,-272.03"/>
</g>
<!-- m::com.android.server.StorageManagerService$StorageManagerInternalImpl.prepareStorageDirs:(ILjava/util/Set;Ljava/lang/String;)Z -->
<g id="node7" class="node">
<title>m::com.android.server.StorageManagerService$StorageManagerInternalImpl.prepareStorageDirs:(ILjava/util/Set;Ljava/lang/String;)Z</title>
<path fill="#eef2ff" stroke="#a5b4fc" d="M410,-191C410,-191 12,-191 12,-191 6,-191 0,-185 0,-179 0,-179 0,-167 0,-167 0,-161 6,-155 12,-155 12,-155 410,-155 410,-155 416,-155 422,-161 422,-167 422,-167 422,-179 422,-179 422,-185 416,-191 410,-191"/>
<text text-anchor="middle" x="211" y="-170.2" font-family="Helvetica,sans-Serif" font-size="11.00">StorageManagerService$StorageManagerInternalImpl.prepareStorageDirs</text>
</g>
<!-- m::com.android.server.am.ProcessList.startProcess:(Lcom/android/server/am/HostingRecord;Ljava/lang/String;Lcom/android/server/am/ProcessRecord;I[IIIILjava/lang/String;Ljava/lang/String;Ljava/lang/String;Ljava/lang/String;J)Landroid/os/Process$ProcessStartResult;&#45;&gt;m::com.android.server.StorageManagerService$StorageManagerInternalImpl.prepareStorageDirs:(ILjava/util/Set;Ljava/lang/String;)Z -->
<g id="edge7" class="edge">
<title>m::com.android.server.am.ProcessList.startProcess:(Lcom/android/server/am/HostingRecord;Ljava/lang/String;Lcom/android/server/am/ProcessRecord;I[IIIILjava/lang/String;Ljava/lang/String;Ljava/lang/String;Ljava/lang/String;J)Landroid/os/Process$ProcessStartResult;&#45;&gt;m::com.android.server.StorageManagerService$StorageManagerInternalImpl.prepareStorageDirs:(ILjava/util/Set;Ljava/lang/String;)Z</title>
<path fill="none" stroke="#64748b" d="M211,-227.81C211,-219.18 211,-208.56 211,-199.03"/>
<polygon fill="#64748b" stroke="#64748b" points="213.8,-199.03 211,-191.03 208.2,-199.03 213.8,-199.03"/>
</g>
<!-- m::android.os.IVold$Stub$Proxy.ensureAppDirsCreated:([Ljava/lang/String;I)V -->
<g id="node8" class="node">
<title>m::android.os.IVold$Stub$Proxy.ensureAppDirsCreated:([Ljava/lang/String;I)V</title>
<path fill="#eef2ff" stroke="#a5b4fc" d="M318.5,-118C318.5,-118 103.5,-118 103.5,-118 97.5,-118 91.5,-112 91.5,-106 91.5,-106 91.5,-94 91.5,-94 91.5,-88 97.5,-82 103.5,-82 103.5,-82 318.5,-82 318.5,-82 324.5,-82 330.5,-88 330.5,-94 330.5,-94 330.5,-106 330.5,-106 330.5,-112 324.5,-118 318.5,-118"/>
<text text-anchor="middle" x="211" y="-97.2" font-family="Helvetica,sans-Serif" font-size="11.00">IVold$Stub$Proxy.ensureAppDirsCreated</text>
</g>
<!-- m::com.android.server.StorageManagerService$StorageManagerInternalImpl.prepareStorageDirs:(ILjava/util/Set;Ljava/lang/String;)Z&#45;&gt;m::android.os.IVold$Stub$Proxy.ensureAppDirsCreated:([Ljava/lang/String;I)V -->
<g id="edge8" class="edge">
<title>m::com.android.server.StorageManagerService$StorageManagerInternalImpl.prepareStorageDirs:(ILjava/util/Set;Ljava/lang/String;)Z&#45;&gt;m::android.os.IVold$Stub$Proxy.ensureAppDirsCreated:([Ljava/lang/String;I)V</title>
<path fill="none" stroke="#64748b" d="M211,-154.81C211,-146.18 211,-135.56 211,-126.03"/>
<polygon fill="#64748b" stroke="#64748b" points="213.8,-126.03 211,-118.03 208.2,-126.03 213.8,-126.03"/>
</g>
<!-- __ipc__ -->
<g id="node9" class="node">
<title>__ipc__</title>
<path fill="#fde68a" stroke="#d97706" stroke-width="2" d="M255,-36C255,-36 167,-36 167,-36 161,-36 155,-30 155,-24 155,-24 155,-12 155,-12 155,-6 161,0 167,0 167,0 255,0 255,0 261,0 267,-6 267,-12 267,-12 267,-24 267,-24 267,-30 261,-36 255,-36"/>
<text text-anchor="middle" x="211" y="-21.2" font-family="Helvetica,sans-Serif" font-size="11.00">Binder IPC</text>
<text text-anchor="middle" x="211" y="-9.2" font-family="Helvetica,sans-Serif" font-size="11.00">(remote process)</text>
</g>
<!-- m::android.os.IVold$Stub$Proxy.ensureAppDirsCreated:([Ljava/lang/String;I)V&#45;&gt;__ipc__ -->
<g id="edge9" class="edge">
<title>m::android.os.IVold$Stub$Proxy.ensureAppDirsCreated:([Ljava/lang/String;I)V&#45;&gt;__ipc__</title>
<path fill="none" stroke="#d97706" stroke-width="1.6" d="M211,-81.64C211,-70.66 211,-56.29 211,-44.09"/>
<polygon fill="#d97706" stroke="#d97706" stroke-width="1.6" points="213.8,-44.05 211,-36.05 208.2,-44.05 213.8,-44.05"/>
<text text-anchor="middle" x="234" y="-56.8" font-family="Helvetica,sans-Serif" font-size="9.00" fill="#b45309"> transacts</text>
</g>
<!-- com.android.server.am.ActivityManagerService.mProcLock -->
<g id="node10" class="node">
<title>com.android.server.am.ActivityManagerService.mProcLock</title>
<path fill="#fee2e2" stroke="#dc2626" stroke-width="2" d="M304,-711C304,-711 118,-711 118,-711 112,-711 106,-705 106,-699 106,-699 106,-687 106,-687 106,-681 112,-675 118,-675 118,-675 304,-675 304,-675 310,-675 316,-681 316,-687 316,-687 316,-699 316,-699 316,-705 310,-711 304,-711"/>
<text text-anchor="middle" x="211" y="-690.2" font-family="Helvetica,sans-Serif" font-size="11.00">ActivityManagerService.mProcLock</text>
</g>
<!-- com.android.server.am.ActivityManagerService.mProcLock&#45;&gt;m::com.android.server.am.ActivityManagerService.attachApplicationLocked:(Landroid/app/IApplicationThread;IIJ)V -->
<g id="edge1" class="edge">
<title>com.android.server.am.ActivityManagerService.mProcLock&#45;&gt;m::com.android.server.am.ActivityManagerService.attachApplicationLocked:(Landroid/app/IApplicationThread;IIJ)V</title>
<path fill="none" stroke="#dc2626" stroke-width="1.6" d="M211,-674.64C211,-663.66 211,-649.29 211,-637.09"/>
<polygon fill="#dc2626" stroke="#dc2626" stroke-width="1.6" points="213.8,-637.05 211,-629.05 208.2,-637.05 213.8,-637.05"/>
<text text-anchor="middle" x="228" y="-649.8" font-family="Helvetica,sans-Serif" font-size="9.00" fill="#dc2626"> held in</text>
</g>
</g>
</svg>
