<?xml version="1.0" encoding="UTF-8" standalone="no"?>
<!DOCTYPE svg PUBLIC "-//W3C//DTD SVG 1.1//EN"
 "http://www.w3.org/Graphics/SVG/1.1/DTD/svg11.dtd">
<!-- Generated by graphviz version 2.43.0 (0)
 -->
<!-- Title: binder Pages: 1 -->
<svg width="386pt" height="208pt"
 viewBox="0.00 0.00 386.00 208.00" xmlns="http://www.w3.org/2000/svg" xmlns:xlink="http://www.w3.org/1999/xlink">
<g id="graph0" class="graph" transform="scale(1 1) rotate(0) translate(4 204)">
<title>binder</title>
<polygon fill="white" stroke="transparent" points="-4,4 -4,-204 382,-204 382,4 -4,4"/>
<!-- m::com.android.server.wallpaper.WallpaperManagerService$MyPackageMonitor.onPackageModified:(Ljava/lang/String;)V -->
<g id="node1" class="node">
<title>m::com.android.server.wallpaper.WallpaperManagerService$MyPackageMonitor.onPackageModified:(Ljava/lang/String;)V</title>
<path fill="#eef2ff" stroke="#a5b4fc" d="M366,-118C366,-118 12,-118 12,-118 6,-118 0,-112 0,-106 0,-106 0,-94 0,-94 0,-88 6,-82 12,-82 12,-82 366,-82 366,-82 372,-82 378,-88 378,-94 378,-94 378,-106 378,-106 378,-112 372,-118 366,-118"/>
<text text-anchor="middle" x="189" y="-97.2" font-family="Helvetica,sans-Serif" font-size="11.00">WallpaperManagerService$MyPackageMonitor.onPackageModified</text>
</g>
<!-- __ipc__ -->
<g id="node2" class="node">
<title>__ipc__</title>
<path fill="#fde68a" stroke="#d97706" stroke-width="2" d="M233,-36C233,-36 145,-36 145,-36 139,-36 133,-30 133,-24 133,-24 133,-12 133,-12 133,-6 139,0 145,0 145,0 233,0 233,0 239,0 245,-6 245,-12 245,-12 245,-24 245,-24 245,-30 239,-36 233,-36"/>
<text text-anchor="middle" x="189" y="-21.2" font-family="Helvetica,sans-Serif" font-size="11.00">Binder IPC</text>
<text text-anchor="middle" x="189" y="-9.2" font-family="Helvetica,sans-Serif" font-size="11.00">(remote process)</text>
</g>
<!-- m::com.android.server.wallpaper.WallpaperManagerService$MyPackageMonitor.onPackageModified:(Ljava/lang/String;)V&#45;&gt;__ipc__ -->
<g id="edge2" class="edge">
<title>m::com.android.server.wallpaper.WallpaperManagerService$MyPackageMonitor.onPackageModified:(Ljava/lang/String;)V&#45;&gt;__ipc__</title>
<path fill="none" stroke="#d97706" stroke-width="1.6" d="M189,-81.64C189,-70.66 189,-56.29 189,-44.09"/>
<polygon fill="#d97706" stroke="#d97706" stroke-width="1.6" points="191.8,-44.05 189,-36.05 186.2,-44.05 191.8,-44.05"/>
<text text-anchor="middle" x="212" y="-56.8" font-family="Helvetica,sans-Serif" font-size="9.00" fill="#b45309"> transacts</text>
</g>
<!-- com.android.server.wallpaper.WallpaperManagerService.mLock -->
<g id="node3" class="node">
<title>com.android.server.wallpaper.WallpaperManagerService.mLock</title>
<path fill="#fee2e2" stroke="#dc2626" stroke-width="2" d="M276.5,-200C276.5,-200 101.5,-200 101.5,-200 95.5,-200 89.5,-194 89.5,-188 89.5,-188 89.5,-176 89.5,-176 89.5,-170 95.5,-164 101.5,-164 101.5,-164 276.5,-164 276.5,-164 282.5,-164 288.5,-170 288.5,-176 288.5,-176 288.5,-188 288.5,-188 288.5,-194 282.5,-200 276.5,-200"/>
<text text-anchor="middle" x="189" y="-179.2" font-family="Helvetica,sans-Serif" font-size="11.00">WallpaperManagerService.mLock</text>
</g>
<!-- com.android.server.wallpaper.WallpaperManagerService.mLock&#45;&gt;m::com.android.server.wallpaper.WallpaperManagerService$MyPackageMonitor.onPackageModified:(Ljava/lang/String;)V -->
<g id="edge1" class="edge">
<title>com.android.server.wallpaper.WallpaperManagerService.mLock&#45;&gt;m::com.android.server.wallpaper.WallpaperManagerService$MyPackageMonitor.onPackageModified:(Ljava/lang/String;)V</title>
<path fill="none" stroke="#dc2626" stroke-width="1.6" d="M189,-163.64C189,-152.66 189,-138.29 189,-126.09"/>
<polygon fill="#dc2626" stroke="#dc2626" stroke-width="1.6" points="191.8,-126.05 189,-118.05 186.2,-126.05 191.8,-126.05"/>
<text text-anchor="middle" x="206" y="-138.8" font-family="Helvetica,sans-Serif" font-size="9.00" fill="#dc2626"> held in</text>
</g>
</g>
</svg>
