<?xml version="1.0" encoding="UTF-8" standalone="no"?>
<!DOCTYPE svg PUBLIC "-//W3C//DTD SVG 1.1//EN"
 "http://www.w3.org/Graphics/SVG/1.1/DTD/svg11.dtd">
<!-- Generated by graphviz version 2.43.0 (0)
 -->
<!-- Title: binder Pages: 1 -->
<svg width="318pt" height="208pt"
 viewBox="0.00 0.00 318.00 208.00" xmlns="http://www.w3.org/2000/svg" xmlns:xlink="http://www.w3.org/1999/xlink">
<g id="graph0" class="graph" transform="scale(1 1) rotate(0) translate(4 204)">
<title>binder</title>
<polygon fill="white" stroke="transparent" points="-4,4 -4,-204 314,-204 314,4 -4,4"/>
<!-- m::com.android.server.inputmethod.InputMethodBindingController$2.onServiceConnected:(Landroid/content/ComponentName;Landroid/os/IBinder;)V -->
<g id="node1" class="node">
<title>m::com.android.server.inputmethod.InputMethodBindingController$2.onServiceConnected:(Landroid/content/ComponentName;Landroid/os/IBinder;)V</title>
<path fill="#eef2ff" stroke="#a5b4fc" d="M298,-118C298,-118 12,-118 12,-118 6,-118 0,-112 0,-106 0,-106 0,-94 0,-94 0,-88 6,-82 12,-82 12,-82 298,-82 298,-82 304,-82 310,-88 310,-94 310,-94 310,-106 310,-106 310,-112 304,-118 298,-118"/>
<text text-anchor="middle" x="155" y="-97.2" font-family="Helvetica,sans-Serif" font-size="11.00">InputMethodBindingController$2.onServiceConnected</text>
</g>
<!-- __ipc__ -->
<g id="node2" class="node">
<title>__ipc__</title>
<path fill="#fde68a" stroke="#d97706" stroke-width="2" d="M199,-36C199,-36 111,-36 111,-36 105,-36 99,-30 99,-24 99,-24 99,-12 99,-12 99,-6 105,0 111,0 111,0 199,0 199,0 205,0 211,-6 211,-12 211,-12 211,-24 211,-24 211,-30 205,-36 199,-36"/>
<text text-anchor="middle" x="155" y="-21.2" font-family="Helvetica,sans-Serif" font-size="11.00">Binder IPC</text>
<text text-anchor="middle" x="155" y="-9.2" font-family="Helvetica,sans-Serif" font-size="11.00">(remote process)</text>
</g>
<!-- m::com.android.server.inputmethod.InputMethodBindingController$2.onServiceConnected:(Landroid/content/ComponentName;Landroid/os/IBinder;)V&#45;&gt;__ipc__ -->
<g id="edge2" class="edge">
<title>m::com.android.server.inputmethod.InputMethodBindingController$2.onServiceConnected:(Landroid/content/ComponentName;Landroid/os/IBinder;)V&#45;&gt;__ipc__</title>
<path fill="none" stroke="#d97706" stroke-width="1.6" d="M155,-81.64C155,-70.66 155,-56.29 155,-44.09"/>
<polygon fill="#d97706" stroke="#d97706" stroke-width="1.6" points="157.8,-44.05 155,-36.05 152.2,-44.05 157.8,-44.05"/>
<text text-anchor="middle" x="178" y="-56.8" font-family="Helvetica,sans-Serif" font-size="9.00" fill="#b45309"> transacts</text>
</g>
<!-- com.android.server.inputmethod.ImfLock.class -->
<g id="node3" class="node">
<title>com.android.server.inputmethod.ImfLock.class</title>
<path fill="#fee2e2" stroke="#dc2626" stroke-width="2" d="M188,-200C188,-200 122,-200 122,-200 116,-200 110,-194 110,-188 110,-188 110,-176 110,-176 110,-170 116,-164 122,-164 122,-164 188,-164 188,-164 194,-164 200,-170 200,-176 200,-176 200,-188 200,-188 200,-194 194,-200 188,-200"/>
<text text-anchor="middle" x="155" y="-179.2" font-family="Helvetica,sans-Serif" font-size="11.00">ImfLock.class</text>
</g>
<!-- com.android.server.inputmethod.ImfLock.class&#45;&gt;m::com.android.server.inputmethod.InputMethodBindingController$2.onServiceConnected:(Landroid/content/ComponentName;Landroid/os/IBinder;)V -->
<g id="edge1" class="edge">
<title>com.android.server.inputmethod.ImfLock.class&#45;&gt;m::com.android.server.inputmethod.InputMethodBindingController$2.onServiceConnected:(Landroid/content/ComponentName;Landroid/os/IBinder;)V</title>
<path fill="none" stroke="#dc2626" stroke-width="1.6" d="M155,-163.64C155,-152.66 155,-138.29 155,-126.09"/>
<polygon fill="#dc2626" stroke="#dc2626" stroke-width="1.6" points="157.8,-126.05 155,-118.05 152.2,-126.05 157.8,-126.05"/>
<text text-anchor="middle" x="172" y="-138.8" font-family="Helvetica,sans-Serif" font-size="9.00" fill="#dc2626"> held in</text>
</g>
</g>
</svg>
