<?xml version="1.0" encoding="UTF-8" standalone="no"?>
<!DOCTYPE svg PUBLIC "-//W3C//DTD SVG 1.1//EN"
 "http://www.w3.org/Graphics/SVG/1.1/DTD/svg11.dtd">
<!-- Generated by graphviz version 2.43.0 (0)
 -->
<!-- Title: binder Pages: 1 -->
<svg width="378pt" height="208pt"
 viewBox="0.00 0.00 378.00 208.00" xmlns="http://www.w3.org/2000/svg" xmlns:xlink="http://www.w3.org/1999/xlink">
<g id="graph0" class="graph" transform="scale(1 1) rotate(0) translate(4 204)">
<title>binder</title>
<polygon fill="white" stroke="transparent" points="-4,4 -4,-204 374,-204 374,4 -4,4"/>
<!-- m::com.android.server.wallpaper.WallpaperManagerService$WallpaperConnection.lambda$new$0:()V -->
<g id="node1" class="node">
<title>m::com.android.server.wallpaper.WallpaperManagerService$WallpaperConnection.lambda$new$0:()V</title>
<path fill="#eef2ff" stroke="#a5b4fc" d="M358,-118C358,-118 12,-118 12,-118 6,-118 0,-112 0,-106 0,-106 0,-94 0,-94 0,-88 6,-82 12,-82 12,-82 358,-82 358,-82 364,-82 370,-88 370,-94 370,-94 370,-106 370,-106 370,-112 364,-118 358,-118"/>
<text text-anchor="middle" x="185" y="-97.2" font-family="Helvetica,sans-Serif" font-size="11.00">WallpaperManagerService$WallpaperConnection.lambda$new$0</text>
</g>
<!-- __ipc__ -->
<g id="node2" class="node">
<title>__ipc__</title>
<path fill="#fde68a" stroke="#d97706" stroke-width="2" d="M229,-36C229,-36 141,-36 141,-36 135,-36 129,-30 129,-24 129,-24 129,-12 129,-12 129,-6 135,0 141,0 141,0 229,0 229,0 235,0 241,-6 241,-12 241,-12 241,-24 241,-24 241,-30 235,-36 229,-36"/>
<text text-anchor="middle" x="185" y="-21.2" font-family="Helvetica,sans-Serif" font-size="11.00">Binder IPC</text>
<text text-anchor="middle" x="185" y="-9.2" font-family="Helvetica,sans-Serif" font-size="11.00">(remote process)</text>
</g>
<!-- m::com.android.server.wallpaper.WallpaperManagerService$WallpaperConnection.lambda$new$0:()V&#45;&gt;__ipc__ -->
<g id="edge2" class="edge">
<title>m::com.android.server.wallpaper.WallpaperManagerService$WallpaperConnection.lambda$new$0:()V&#45;&gt;__ipc__</title>
<path fill="none" stroke="#d97706" stroke-width="1.6" d="M185,-81.64C185,-70.66 185,-56.29 185,-44.09"/>
<polygon fill="#d97706" stroke="#d97706" stroke-width="1.6" points="187.8,-44.05 185,-36.05 182.2,-44.05 187.8,-44.05"/>
<text text-anchor="middle" x="208" y="-56.8" font-family="Helvetica,sans-Serif" font-size="9.00" fill="#b45309"> transacts</text>
</g>
<!-- com.android.server.wallpaper.WallpaperManagerService.mLock -->
<g id="node3" class="node">
<title>com.android.server.wallpaper.WallpaperManagerService.mLock</title>
<path fill="#fee2e2" stroke="#dc2626" stroke-width="2" d="M272.5,-200C272.5,-200 97.5,-200 97.5,-200 91.5,-200 85.5,-194 85.5,-188 85.5,-188 85.5,-176 85.5,-176 85.5,-170 91.5,-164 97.5,-164 97.5,-164 272.5,-164 272.5,-164 278.5,-164 284.5,-170 284.5,-176 284.5,-176 284.5,-188 284.5,-188 284.5,-194 278.5,-200 272.5,-200"/>
<text text-anchor="middle" x="185" y="-179.2" font-family="Helvetica,sans-Serif" font-size="11.00">WallpaperManagerService.mLock</text>
</g>
<!-- com.android.server.wallpaper.WallpaperManagerService.mLock&#45;&gt;m::com.android.server.wallpaper.WallpaperManagerService$WallpaperConnection.lambda$new$0:()V -->
<g id="edge1" class="edge">
<title>com.android.server.wallpaper.WallpaperManagerService.mLock&#45;&gt;m::com.android.server.wallpaper.WallpaperManagerService$WallpaperConnection.lambda$new$0:()V</title>
<path fill="none" stroke="#dc2626" stroke-width="1.6" d="M185,-163.64C185,-152.66 185,-138.29 185,-126.09"/>
<polygon fill="#dc2626" stroke="#dc2626" stroke-width="1.6" points="187.8,-126.05 185,-118.05 182.2,-126.05 187.8,-126.05"/>
<text text-anchor="middle" x="202" y="-138.8" font-family="Helvetica,sans-Serif" font-size="9.00" fill="#dc2626"> held in</text>
</g>
</g>
</svg>
