<?xml version="1.0" encoding="UTF-8" standalone="no"?>
<!DOCTYPE svg PUBLIC "-//W3C//DTD SVG 1.1//EN"
 "http://www.w3.org/Graphics/SVG/1.1/DTD/svg11.dtd">
<!-- Generated by graphviz version 2.43.0 (0)
 -->
<!-- Title: binder Pages: 1 -->
<svg width="486pt" height="208pt"
 viewBox="0.00 0.00 486.00 208.00" xmlns="http://www.w3.org/2000/svg" xmlns:xlink="http://www.w3.org/1999/xlink">
<g id="graph0" class="graph" transform="scale(1 1) rotate(0) translate(4 204)">
<title>binder</title>
<polygon fill="white" stroke="transparent" points="-4,4 -4,-204 482,-204 482,4 -4,4"/>
<!-- m::com.android.server.inputmethod.InputMethodManagerService$InputMethodPrivilegedOperationsImpl.setInputMethod:(Ljava/lang/String;Lcom/android/internal/infra/AndroidFuture;)V -->
<g id="node1" class="node">
<title>m::com.android.server.inputmethod.InputMethodManagerService$InputMethodPrivilegedOperationsImpl.setInputMethod:(Ljava/lang/String;Lcom/android/internal/infra/AndroidFuture;)V</title>
<path fill="#eef2ff" stroke="#a5b4fc" d="M466,-118C466,-118 12,-118 12,-118 6,-118 0,-112 0,-106 0,-106 0,-94 0,-94 0,-88 6,-82 12,-82 12,-82 466,-82 466,-82 472,-82 478,-88 478,-94 478,-94 478,-106 478,-106 478,-112 472,-118 466,-118"/>
<text text-anchor="middle" x="239" y="-97.2" font-family="Helvetica,sans-Serif" font-size="11.00">InputMethodManagerService$InputMethodPrivilegedOperationsImpl.setInputMethod</text>
</g>
<!-- __ipc__ -->
<g id="node2" class="node">
<title>__ipc__</title>
<path fill="#fde68a" stroke="#d97706" stroke-width="2" d="M283,-36C283,-36 195,-36 195,-36 189,-36 183,-30 183,-24 183,-24 183,-12 183,-12 183,-6 189,0 195,0 195,0 283,0 283,0 289,0 295,-6 295,-12 295,-12 295,-24 295,-24 295,-30 289,-36 283,-36"/>
<text text-anchor="middle" x="239" y="-21.2" font-family="Helvetica,sans-Serif" font-size="11.00">Binder IPC</text>
<text text-anchor="middle" x="239" y="-9.2" font-family="Helvetica,sans-Serif" font-size="11.00">(remote process)</text>
</g>
<!-- m::com.android.server.inputmethod.InputMethodManagerService$InputMethodPrivilegedOperationsImpl.setInputMethod:(Ljava/lang/String;Lcom/android/internal/infra/AndroidFuture;)V&#45;&gt;__ipc__ -->
<g id="edge2" class="edge">
<title>m::com.android.server.inputmethod.InputMethodManagerService$InputMethodPrivilegedOperationsImpl.setInputMethod:(Ljava/lang/String;Lcom/android/internal/infra/AndroidFuture;)V&#45;&gt;__ipc__</title>
<path fill="none" stroke="#d97706" stroke-width="1.6" d="M239,-81.64C239,-70.66 239,-56.29 239,-44.09"/>
<polygon fill="#d97706" stroke="#d97706" stroke-width="1.6" points="241.8,-44.05 239,-36.05 236.2,-44.05 241.8,-44.05"/>
<text text-anchor="middle" x="262" y="-56.8" font-family="Helvetica,sans-Serif" font-size="9.00" fill="#b45309"> transacts</text>
</g>
<!-- com.android.server.inputmethod.ImfLock.class -->
<g id="node3" class="node">
<title>com.android.server.inputmethod.ImfLock.class</title>
<path fill="#fee2e2" stroke="#dc2626" stroke-width="2" d="M272,-200C272,-200 206,-200 206,-200 200,-200 194,-194 194,-188 194,-188 194,-176 194,-176 194,-170 200,-164 206,-164 206,-164 272,-164 272,-164 278,-164 284,-170 284,-176 284,-176 284,-188 284,-188 284,-194 278,-200 272,-200"/>
<text text-anchor="middle" x="239" y="-179.2" font-family="Helvetica,sans-Serif" font-size="11.00">ImfLock.class</text>
</g>
<!-- com.android.server.inputmethod.ImfLock.class&#45;&gt;m::com.android.server.inputmethod.InputMethodManagerService$InputMethodPrivilegedOperationsImpl.setInputMethod:(Ljava/lang/String;Lcom/android/internal/infra/AndroidFuture;)V -->
<g id="edge1" class="edge">
<title>com.android.server.inputmethod.ImfLock.class&#45;&gt;m::com.android.server.inputmethod.InputMethodManagerService$InputMethodPrivilegedOperationsImpl.setInputMethod:(Ljava/lang/String;Lcom/android/internal/infra/AndroidFuture;)V</title>
<path fill="none" stroke="#dc2626" stroke-width="1.6" d="M239,-163.64C239,-152.66 239,-138.29 239,-126.09"/>
<polygon fill="#dc2626" stroke="#dc2626" stroke-width="1.6" points="241.8,-126.05 239,-118.05 236.2,-126.05 241.8,-126.05"/>
<text text-anchor="middle" x="256" y="-138.8" font-family="Helvetica,sans-Serif" font-size="9.00" fill="#dc2626"> held in</text>
</g>
</g>
</svg>
