<?xml version="1.0" encoding="UTF-8" standalone="no"?>
<!DOCTYPE svg PUBLIC "-//W3C//DTD SVG 1.1//EN"
 "http://www.w3.org/Graphics/SVG/1.1/DTD/svg11.dtd">
<!-- Generated by graphviz version 2.43.0 (0)
 -->
<!-- Title: binder Pages: 1 -->
<svg width="521pt" height="208pt"
 viewBox="0.00 0.00 521.00 208.00" xmlns="http://www.w3.org/2000/svg" xmlns:xlink="http://www.w3.org/1999/xlink">
<g id="graph0" class="graph" transform="scale(1 1) rotate(0) translate(4 204)">
<title>binder</title>
<polygon fill="white" stroke="transparent" points="-4,4 -4,-204 517,-204 517,4 -4,4"/>
<!-- m::com.android.server.inputmethod.InputMethodManagerService$InputMethodPrivilegedOperationsImpl.reportStartInputAsync:(Landroid/os/IBinder;)V -->
<g id="node1" class="node">
<title>m::com.android.server.inputmethod.InputMethodManagerService$InputMethodPrivilegedOperationsImpl.reportStartInputAsync:(Landroid/os/IBinder;)V</title>
<path fill="#eef2ff" stroke="#a5b4fc" d="M501,-118C501,-118 12,-118 12,-118 6,-118 0,-112 0,-106 0,-106 0,-94 0,-94 0,-88 6,-82 12,-82 12,-82 501,-82 501,-82 507,-82 513,-88 513,-94 513,-94 513,-106 513,-106 513,-112 507,-118 501,-118"/>
<text text-anchor="middle" x="256.5" y="-97.2" font-family="Helvetica,sans-Serif" font-size="11.00">InputMethodManagerService$InputMethodPrivilegedOperationsImpl.reportStartInputAsync</text>
</g>
<!-- __ipc__ -->
<g id="node2" class="node">
<title>__ipc__</title>
<path fill="#fde68a" stroke="#d97706" stroke-width="2" d="M300.5,-36C300.5,-36 212.5,-36 212.5,-36 206.5,-36 200.5,-30 200.5,-24 200.5,-24 200.5,-12 200.5,-12 200.5,-6 206.5,0 212.5,0 212.5,0 300.5,0 300.5,0 306.5,0 312.5,-6 312.5,-12 312.5,-12 312.5,-24 312.5,-24 312.5,-30 306.5,-36 300.5,-36"/>
<text text-anchor="middle" x="256.5" y="-21.2" font-family="Helvetica,sans-Serif" font-size="11.00">Binder IPC</text>
<text text-anchor="middle" x="256.5" y="-9.2" font-family="Helvetica,sans-Serif" font-size="11.00">(remote process)</text>
</g>
<!-- m::com.android.server.inputmethod.InputMethodManagerService$InputMethodPrivilegedOperationsImpl.reportStartInputAsync:(Landroid/os/IBinder;)V&#45;&gt;__ipc__ -->
<g id="edge2" class="edge">
<title>m::com.android.server.inputmethod.InputMethodManagerService$InputMethodPrivilegedOperationsImpl.reportStartInputAsync:(Landroid/os/IBinder;)V&#45;&gt;__ipc__</title>
<path fill="none" stroke="#d97706" stroke-width="1.6" d="M256.5,-81.64C256.5,-70.66 256.5,-56.29 256.5,-44.09"/>
<polygon fill="#d97706" stroke="#d97706" stroke-width="1.6" points="259.3,-44.05 256.5,-36.05 253.7,-44.05 259.3,-44.05"/>
<text text-anchor="middle" x="279.5" y="-56.8" font-family="Helvetica,sans-Serif" font-size="9.00" fill="#b45309"> transacts</text>
</g>
<!-- com.android.server.inputmethod.ImfLock.class -->
<g id="node3" class="node">
<title>com.android.server.inputmethod.ImfLock.class</title>
<path fill="#fee2e2" stroke="#dc2626" stroke-width="2" d="M289.5,-200C289.5,-200 223.5,-200 223.5,-200 217.5,-200 211.5,-194 211.5,-188 211.5,-188 211.5,-176 211.5,-176 211.5,-170 217.5,-164 223.5,-164 223.5,-164 289.5,-164 289.5,-164 295.5,-164 301.5,-170 301.5,-176 301.5,-176 301.5,-188 301.5,-188 301.5,-194 295.5,-200 289.5,-200"/>
<text text-anchor="middle" x="256.5" y="-179.2" font-family="Helvetica,sans-Serif" font-size="11.00">ImfLock.class</text>
</g>
<!-- com.android.server.inputmethod.ImfLock.class&#45;&gt;m::com.android.server.inputmethod.InputMethodManagerService$InputMethodPrivilegedOperationsImpl.reportStartInputAsync:(Landroid/os/IBinder;)V -->
<g id="edge1" class="edge">
<title>com.android.server.inputmethod.ImfLock.class&#45;&gt;m::com.android.server.inputmethod.InputMethodManagerService$InputMethodPrivilegedOperationsImpl.reportStartInputAsync:(Landroid/os/IBinder;)V</title>
<path fill="none" stroke="#dc2626" stroke-width="1.6" d="M256.5,-163.64C256.5,-152.66 256.5,-138.29 256.5,-126.09"/>
<polygon fill="#dc2626" stroke="#dc2626" stroke-width="1.6" points="259.3,-126.05 256.5,-118.05 253.7,-126.05 259.3,-126.05"/>
<text text-anchor="middle" x="273.5" y="-138.8" font-family="Helvetica,sans-Serif" font-size="9.00" fill="#dc2626"> held in</text>
</g>
</g>
</svg>
