<?xml version="1.0" encoding="UTF-8" standalone="no"?>
<!DOCTYPE svg PUBLIC "-//W3C//DTD SVG 1.1//EN"
 "http://www.w3.org/Graphics/SVG/1.1/DTD/svg11.dtd">
<!-- Generated by graphviz version 2.43.0 (0)
 -->
<!-- Title: binder Pages: 1 -->
<svg width="284pt" height="208pt"
 viewBox="0.00 0.00 284.00 208.00" xmlns="http://www.w3.org/2000/svg" xmlns:xlink="http://www.w3.org/1999/xlink">
<g id="graph0" class="graph" transform="scale(1 1) rotate(0) translate(4 204)">
<title>binder</title>
<polygon fill="white" stroke="transparent" points="-4,4 -4,-204 280,-204 280,4 -4,4"/>
<!-- m::com.android.server.inputmethod.InputMethodBindingController$2.onBindingDied:(Landroid/content/ComponentName;)V -->
<g id="node1" class="node">
<title>m::com.android.server.inputmethod.InputMethodBindingController$2.onBindingDied:(Landroid/content/ComponentName;)V</title>
<path fill="#eef2ff" stroke="#a5b4fc" d="M264,-118C264,-118 12,-118 12,-118 6,-118 0,-112 0,-106 0,-106 0,-94 0,-94 0,-88 6,-82 12,-82 12,-82 264,-82 264,-82 270,-82 276,-88 276,-94 276,-94 276,-106 276,-106 276,-112 270,-118 264,-118"/>
<text text-anchor="middle" x="138" y="-97.2" font-family="Helvetica,sans-Serif" font-size="11.00">InputMethodBindingController$2.onBindingDied</text>
</g>
<!-- __ipc__ -->
<g id="node2" class="node">
<title>__ipc__</title>
<path fill="#fde68a" stroke="#d97706" stroke-width="2" d="M182,-36C182,-36 94,-36 94,-36 88,-36 82,-30 82,-24 82,-24 82,-12 82,-12 82,-6 88,0 94,0 94,0 182,0 182,0 188,0 194,-6 194,-12 194,-12 194,-24 194,-24 194,-30 188,-36 182,-36"/>
<text text-anchor="middle" x="138" y="-21.2" font-family="Helvetica,sans-Serif" font-size="11.00">Binder IPC</text>
<text text-anchor="middle" x="138" y="-9.2" font-family="Helvetica,sans-Serif" font-size="11.00">(remote process)</text>
</g>
<!-- m::com.android.server.inputmethod.InputMethodBindingController$2.onBindingDied:(Landroid/content/ComponentName;)V&#45;&gt;__ipc__ -->
<g id="edge2" class="edge">
<title>m::com.android.server.inputmethod.InputMethodBindingController$2.onBindingDied:(Landroid/content/ComponentName;)V&#45;&gt;__ipc__</title>
<path fill="none" stroke="#d97706" stroke-width="1.6" d="M138,-81.64C138,-70.66 138,-56.29 138,-44.09"/>
<polygon fill="#d97706" stroke="#d97706" stroke-width="1.6" points="140.8,-44.05 138,-36.05 135.2,-44.05 140.8,-44.05"/>
<text text-anchor="middle" x="161" y="-56.8" font-family="Helvetica,sans-Serif" font-size="9.00" fill="#b45309"> transacts</text>
</g>
<!-- com.android.server.inputmethod.ImfLock.class -->
<g id="node3" class="node">
<title>com.android.server.inputmethod.ImfLock.class</title>
<path fill="#fee2e2" stroke="#dc2626" stroke-width="2" d="M171,-200C171,-200 105,-200 105,-200 99,-200 93,-194 93,-188 93,-188 93,-176 93,-176 93,-170 99,-164 105,-164 105,-164 171,-164 171,-164 177,-164 183,-170 183,-176 183,-176 183,-188 183,-188 183,-194 177,-200 171,-200"/>
<text text-anchor="middle" x="138" y="-179.2" font-family="Helvetica,sans-Serif" font-size="11.00">ImfLock.class</text>
</g>
<!-- com.android.server.inputmethod.ImfLock.class&#45;&gt;m::com.android.server.inputmethod.InputMethodBindingController$2.onBindingDied:(Landroid/content/ComponentName;)V -->
<g id="edge1" class="edge">
<title>com.android.server.inputmethod.ImfLock.class&#45;&gt;m::com.android.server.inputmethod.InputMethodBindingController$2.onBindingDied:(Landroid/content/ComponentName;)V</title>
<path fill="none" stroke="#dc2626" stroke-width="1.6" d="M138,-163.64C138,-152.66 138,-138.29 138,-126.09"/>
<polygon fill="#dc2626" stroke="#dc2626" stroke-width="1.6" points="140.8,-126.05 138,-118.05 135.2,-126.05 140.8,-126.05"/>
<text text-anchor="middle" x="155" y="-138.8" font-family="Helvetica,sans-Serif" font-size="9.00" fill="#dc2626"> held in</text>
</g>
</g>
</svg>
