<?xml version="1.0" encoding="UTF-8" standalone="no"?>
<!DOCTYPE svg PUBLIC "-//W3C//DTD SVG 1.1//EN"
 "http://www.w3.org/Graphics/SVG/1.1/DTD/svg11.dtd">
<!-- Generated by graphviz version 2.43.0 (0)
 -->
<!-- Title: binder Pages: 1 -->
<svg width="590pt" height="208pt"
 viewBox="0.00 0.00 590.00 208.00" xmlns="http://www.w3.org/2000/svg" xmlns:xlink="http://www.w3.org/1999/xlink">
<g id="graph0" class="graph" transform="scale(1 1) rotate(0) translate(4 204)">
<title>binder</title>
<polygon fill="white" stroke="transparent" points="-4,4 -4,-204 586,-204 586,4 -4,4"/>
<!-- m::com.android.server.inputmethod.InputMethodManagerService$InputMethodPrivilegedOperationsImpl.onImeSwitchButtonClickFromClient:(I)V -->
<g id="node1" class="node">
<title>m::com.android.server.inputmethod.InputMethodManagerService$InputMethodPrivilegedOperationsImpl.onImeSwitchButtonClickFromClient:(I)V</title>
<path fill="#eef2ff" stroke="#a5b4fc" d="M570,-118C570,-118 12,-118 12,-118 6,-118 0,-112 0,-106 0,-106 0,-94 0,-94 0,-88 6,-82 12,-82 12,-82 570,-82 570,-82 576,-82 582,-88 582,-94 582,-94 582,-106 582,-106 582,-112 576,-118 570,-118"/>
<text text-anchor="middle" x="291" y="-97.2" font-family="Helvetica,sans-Serif" font-size="11.00">InputMethodManagerService$InputMethodPrivilegedOperationsImpl.onImeSwitchButtonClickFromClient</text>
</g>
<!-- __ipc__ -->
<g id="node2" class="node">
<title>__ipc__</title>
<path fill="#fde68a" stroke="#d97706" stroke-width="2" d="M335,-36C335,-36 247,-36 247,-36 241,-36 235,-30 235,-24 235,-24 235,-12 235,-12 235,-6 241,0 247,0 247,0 335,0 335,0 341,0 347,-6 347,-12 347,-12 347,-24 347,-24 347,-30 341,-36 335,-36"/>
<text text-anchor="middle" x="291" y="-21.2" font-family="Helvetica,sans-Serif" font-size="11.00">Binder IPC</text>
<text text-anchor="middle" x="291" y="-9.2" font-family="Helvetica,sans-Serif" font-size="11.00">(remote process)</text>
</g>
<!-- m::com.android.server.inputmethod.InputMethodManagerService$InputMethodPrivilegedOperationsImpl.onImeSwitchButtonClickFromClient:(I)V&#45;&gt;__ipc__ -->
<g id="edge2" class="edge">
<title>m::com.android.server.inputmethod.InputMethodManagerService$InputMethodPrivilegedOperationsImpl.onImeSwitchButtonClickFromClient:(I)V&#45;&gt;__ipc__</title>
<path fill="none" stroke="#d97706" stroke-width="1.6" d="M291,-81.64C291,-70.66 291,-56.29 291,-44.09"/>
<polygon fill="#d97706" stroke="#d97706" stroke-width="1.6" points="293.8,-44.05 291,-36.05 288.2,-44.05 293.8,-44.05"/>
<text text-anchor="middle" x="314" y="-56.8" font-family="Helvetica,sans-Serif" font-size="9.00" fill="#b45309"> transacts</text>
</g>
<!-- com.android.server.inputmethod.ImfLock.class -->
<g id="node3" class="node">
<title>com.android.server.inputmethod.ImfLock.class</title>
<path fill="#fee2e2" stroke="#dc2626" stroke-width="2" d="M324,-200C324,-200 258,-200 258,-200 252,-200 246,-194 246,-188 246,-188 246,-176 246,-176 246,-170 252,-164 258,-164 258,-164 324,-164 324,-164 330,-164 336,-170 336,-176 336,-176 336,-188 336,-188 336,-194 330,-200 324,-200"/>
<text text-anchor="middle" x="291" y="-179.2" font-family="Helvetica,sans-Serif" font-size="11.00">ImfLock.class</text>
</g>
<!-- com.android.server.inputmethod.ImfLock.class&#45;&gt;m::com.android.server.inputmethod.InputMethodManagerService$InputMethodPrivilegedOperationsImpl.onImeSwitchButtonClickFromClient:(I)V -->
<g id="edge1" class="edge">
<title>com.android.server.inputmethod.ImfLock.class&#45;&gt;m::com.android.server.inputmethod.InputMethodManagerService$InputMethodPrivilegedOperationsImpl.onImeSwitchButtonClickFromClient:(I)V</title>
<path fill="none" stroke="#dc2626" stroke-width="1.6" d="M291,-163.64C291,-152.66 291,-138.29 291,-126.09"/>
<polygon fill="#dc2626" stroke="#dc2626" stroke-width="1.6" points="293.8,-126.05 291,-118.05 288.2,-126.05 293.8,-126.05"/>
<text text-anchor="middle" x="308" y="-138.8" font-family="Helvetica,sans-Serif" font-size="9.00" fill="#dc2626"> held in</text>
</g>
</g>
</svg>
