<?xml version="1.0" encoding="UTF-8" standalone="no"?>
<!DOCTYPE svg PUBLIC "-//W3C//DTD SVG 1.1//EN"
 "http://www.w3.org/Graphics/SVG/1.1/DTD/svg11.dtd">
<!-- Generated by graphviz version 2.43.0 (0)
 -->
<!-- Title: binder Pages: 1 -->
<svg width="424pt" height="208pt"
 viewBox="0.00 0.00 424.00 208.00" xmlns="http://www.w3.org/2000/svg" xmlns:xlink="http://www.w3.org/1999/xlink">
<g id="graph0" class="graph" transform="scale(1 1) rotate(0) translate(4 204)">
<title>binder</title>
<polygon fill="white" stroke="transparent" points="-4,4 -4,-204 420,-204 420,4 -4,4"/>
<!-- m::com.android.server.wallpaper.WallpaperManagerService$MyPackageMonitor.onPackageUpdateFinished:(Ljava/lang/String;I)V -->
<g id="node1" class="node">
<title>m::com.android.server.wallpaper.WallpaperManagerService$MyPackageMonitor.onPackageUpdateFinished:(Ljava/lang/String;I)V</title>
<path fill="#eef2ff" stroke="#a5b4fc" d="M404,-118C404,-118 12,-118 12,-118 6,-118 0,-112 0,-106 0,-106 0,-94 0,-94 0,-88 6,-82 12,-82 12,-82 404,-82 404,-82 410,-82 416,-88 416,-94 416,-94 416,-106 416,-106 416,-112 410,-118 404,-118"/>
<text text-anchor="middle" x="208" y="-97.2" font-family="Helvetica,sans-Serif" font-size="11.00">WallpaperManagerService$MyPackageMonitor.onPackageUpdateFinished</text>
</g>
<!-- __ipc__ -->
<g id="node2" class="node">
<title>__ipc__</title>
<path fill="#fde68a" stroke="#d97706" stroke-width="2" d="M252,-36C252,-36 164,-36 164,-36 158,-36 152,-30 152,-24 152,-24 152,-12 152,-12 152,-6 158,0 164,0 164,0 252,0 252,0 258,0 264,-6 264,-12 264,-12 264,-24 264,-24 264,-30 258,-36 252,-36"/>
<text text-anchor="middle" x="208" y="-21.2" font-family="Helvetica,sans-Serif" font-size="11.00">Binder IPC</text>
<text text-anchor="middle" x="208" y="-9.2" font-family="Helvetica,sans-Serif" font-size="11.00">(remote process)</text>
</g>
<!-- m::com.android.server.wallpaper.WallpaperManagerService$MyPackageMonitor.onPackageUpdateFinished:(Ljava/lang/String;I)V&#45;&gt;__ipc__ -->
<g id="edge2" class="edge">
<title>m::com.android.server.wallpaper.WallpaperManagerService$MyPackageMonitor.onPackageUpdateFinished:(Ljava/lang/String;I)V&#45;&gt;__ipc__</title>
<path fill="none" stroke="#d97706" stroke-width="1.6" d="M208,-81.64C208,-70.66 208,-56.29 208,-44.09"/>
<polygon fill="#d97706" stroke="#d97706" stroke-width="1.6" points="210.8,-44.05 208,-36.05 205.2,-44.05 210.8,-44.05"/>
<text text-anchor="middle" x="231" y="-56.8" font-family="Helvetica,sans-Serif" font-size="9.00" fill="#b45309"> transacts</text>
</g>
<!-- com.android.server.wallpaper.WallpaperManagerService.mLock -->
<g id="node3" class="node">
<title>com.android.server.wallpaper.WallpaperManagerService.mLock</title>
<path fill="#fee2e2" stroke="#dc2626" stroke-width="2" d="M295.5,-200C295.5,-200 120.5,-200 120.5,-200 114.5,-200 108.5,-194 108.5,-188 108.5,-188 108.5,-176 108.5,-176 108.5,-170 114.5,-164 120.5,-164 120.5,-164 295.5,-164 295.5,-164 301.5,-164 307.5,-170 307.5,-176 307.5,-176 307.5,-188 307.5,-188 307.5,-194 301.5,-200 295.5,-200"/>
<text text-anchor="middle" x="208" y="-179.2" font-family="Helvetica,sans-Serif" font-size="11.00">WallpaperManagerService.mLock</text>
</g>
<!-- com.android.server.wallpaper.WallpaperManagerService.mLock&#45;&gt;m::com.android.server.wallpaper.WallpaperManagerService$MyPackageMonitor.onPackageUpdateFinished:(Ljava/lang/String;I)V -->
<g id="edge1" class="edge">
<title>com.android.server.wallpaper.WallpaperManagerService.mLock&#45;&gt;m::com.android.server.wallpaper.WallpaperManagerService$MyPackageMonitor.onPackageUpdateFinished:(Ljava/lang/String;I)V</title>
<path fill="none" stroke="#dc2626" stroke-width="1.6" d="M208,-163.64C208,-152.66 208,-138.29 208,-126.09"/>
<polygon fill="#dc2626" stroke="#dc2626" stroke-width="1.6" points="210.8,-126.05 208,-118.05 205.2,-126.05 210.8,-126.05"/>
<text text-anchor="middle" x="225" y="-138.8" font-family="Helvetica,sans-Serif" font-size="9.00" fill="#dc2626"> held in</text>
</g>
</g>
</svg>
