<?xml version="1.0" encoding="UTF-8" standalone="no"?>
<!DOCTYPE svg PUBLIC "-//W3C//DTD SVG 1.1//EN"
 "http://www.w3.org/Graphics/SVG/1.1/DTD/svg11.dtd">
<!-- Generated by graphviz version 2.43.0 (0)
 -->
<!-- Title: binder Pages: 1 -->
<svg width="409pt" height="208pt"
 viewBox="0.00 0.00 409.00 208.00" xmlns="http://www.w3.org/2000/svg" xmlns:xlink="http://www.w3.org/1999/xlink">
<g id="graph0" class="graph" transform="scale(1 1) rotate(0) translate(4 204)">
<title>binder</title>
<polygon fill="white" stroke="transparent" points="-4,4 -4,-204 405,-204 405,4 -4,4"/>
<!-- m::com.android.server.accessibility.AccessibilityManagerService$AccessibilityContentObserver.onChange:(ZLandroid/net/Uri;)V -->
<g id="node1" class="node">
<title>m::com.android.server.accessibility.AccessibilityManagerService$AccessibilityContentObserver.onChange:(ZLandroid/net/Uri;)V</title>
<path fill="#eef2ff" stroke="#a5b4fc" d="M389,-118C389,-118 12,-118 12,-118 6,-118 0,-112 0,-106 0,-106 0,-94 0,-94 0,-88 6,-82 12,-82 12,-82 389,-82 389,-82 395,-82 401,-88 401,-94 401,-94 401,-106 401,-106 401,-112 395,-118 389,-118"/>
<text text-anchor="middle" x="200.5" y="-97.2" font-family="Helvetica,sans-Serif" font-size="11.00">AccessibilityManagerService$AccessibilityContentObserver.onChange</text>
</g>
<!-- __ipc__ -->
<g id="node2" class="node">
<title>__ipc__</title>
<path fill="#fde68a" stroke="#d97706" stroke-width="2" d="M244.5,-36C244.5,-36 156.5,-36 156.5,-36 150.5,-36 144.5,-30 144.5,-24 144.5,-24 144.5,-12 144.5,-12 144.5,-6 150.5,0 156.5,0 156.5,0 244.5,0 244.5,0 250.5,0 256.5,-6 256.5,-12 256.5,-12 256.5,-24 256.5,-24 256.5,-30 250.5,-36 244.5,-36"/>
<text text-anchor="middle" x="200.5" y="-21.2" font-family="Helvetica,sans-Serif" font-size="11.00">Binder IPC</text>
<text text-anchor="middle" x="200.5" y="-9.2" font-family="Helvetica,sans-Serif" font-size="11.00">(remote process)</text>
</g>
<!-- m::com.android.server.accessibility.AccessibilityManagerService$AccessibilityContentObserver.onChange:(ZLandroid/net/Uri;)V&#45;&gt;__ipc__ -->
<g id="edge2" class="edge">
<title>m::com.android.server.accessibility.AccessibilityManagerService$AccessibilityContentObserver.onChange:(ZLandroid/net/Uri;)V&#45;&gt;__ipc__</title>
<path fill="none" stroke="#d97706" stroke-width="1.6" d="M200.5,-81.64C200.5,-70.66 200.5,-56.29 200.5,-44.09"/>
<polygon fill="#d97706" stroke="#d97706" stroke-width="1.6" points="203.3,-44.05 200.5,-36.05 197.7,-44.05 203.3,-44.05"/>
<text text-anchor="middle" x="223.5" y="-56.8" font-family="Helvetica,sans-Serif" font-size="9.00" fill="#b45309"> transacts</text>
</g>
<!-- com.android.server.accessibility.AccessibilityManagerService.mLock -->
<g id="node3" class="node">
<title>com.android.server.accessibility.AccessibilityManagerService.mLock</title>
<path fill="#fee2e2" stroke="#dc2626" stroke-width="2" d="M294.5,-200C294.5,-200 106.5,-200 106.5,-200 100.5,-200 94.5,-194 94.5,-188 94.5,-188 94.5,-176 94.5,-176 94.5,-170 100.5,-164 106.5,-164 106.5,-164 294.5,-164 294.5,-164 300.5,-164 306.5,-170 306.5,-176 306.5,-176 306.5,-188 306.5,-188 306.5,-194 300.5,-200 294.5,-200"/>
<text text-anchor="middle" x="200.5" y="-179.2" font-family="Helvetica,sans-Serif" font-size="11.00">AccessibilityManagerService.mLock</text>
</g>
<!-- com.android.server.accessibility.AccessibilityManagerService.mLock&#45;&gt;m::com.android.server.accessibility.AccessibilityManagerService$AccessibilityContentObserver.onChange:(ZLandroid/net/Uri;)V -->
<g id="edge1" class="edge">
<title>com.android.server.accessibility.AccessibilityManagerService.mLock&#45;&gt;m::com.android.server.accessibility.AccessibilityManagerService$AccessibilityContentObserver.onChange:(ZLandroid/net/Uri;)V</title>
<path fill="none" stroke="#dc2626" stroke-width="1.6" d="M200.5,-163.64C200.5,-152.66 200.5,-138.29 200.5,-126.09"/>
<polygon fill="#dc2626" stroke="#dc2626" stroke-width="1.6" points="203.3,-126.05 200.5,-118.05 197.7,-126.05 203.3,-126.05"/>
<text text-anchor="middle" x="217.5" y="-138.8" font-family="Helvetica,sans-Serif" font-size="9.00" fill="#dc2626"> held in</text>
</g>
</g>
</svg>
