<?xml version="1.0" encoding="UTF-8" standalone="no"?>
<!DOCTYPE svg PUBLIC "-//W3C//DTD SVG 1.1//EN"
 "http://www.w3.org/Graphics/SVG/1.1/DTD/svg11.dtd">
<!-- Generated by graphviz version 2.43.0 (0)
 -->
<!-- Title: binder Pages: 1 -->
<svg width="552pt" height="208pt"
 viewBox="0.00 0.00 552.00 208.00" xmlns="http://www.w3.org/2000/svg" xmlns:xlink="http://www.w3.org/1999/xlink">
<g id="graph0" class="graph" transform="scale(1 1) rotate(0) translate(4 204)">
<title>binder</title>
<polygon fill="white" stroke="transparent" points="-4,4 -4,-204 548,-204 548,4 -4,4"/>
<!-- m::com.android.server.inputmethod.InputMethodManagerService$InputMethodPrivilegedOperationsImpl.setInputMethodAndSubtype:(Ljava/lang/String;Landroid/view/inputmethod/InputMethodSubtype;Lcom/android/internal/infra/AndroidFuture;)V -->
<g id="node1" class="node">
<title>m::com.android.server.inputmethod.InputMethodManagerService$InputMethodPrivilegedOperationsImpl.setInputMethodAndSubtype:(Ljava/lang/String;Landroid/view/inputmethod/InputMethodSubtype;Lcom/android/internal/infra/AndroidFuture;)V</title>
<path fill="#eef2ff" stroke="#a5b4fc" d="M532,-118C532,-118 12,-118 12,-118 6,-118 0,-112 0,-106 0,-106 0,-94 0,-94 0,-88 6,-82 12,-82 12,-82 532,-82 532,-82 538,-82 544,-88 544,-94 544,-94 544,-106 544,-106 544,-112 538,-118 532,-118"/>
<text text-anchor="middle" x="272" y="-97.2" font-family="Helvetica,sans-Serif" font-size="11.00">InputMethodManagerService$InputMethodPrivilegedOperationsImpl.setInputMethodAndSubtype</text>
</g>
<!-- __ipc__ -->
<g id="node2" class="node">
<title>__ipc__</title>
<path fill="#fde68a" stroke="#d97706" stroke-width="2" d="M316,-36C316,-36 228,-36 228,-36 222,-36 216,-30 216,-24 216,-24 216,-12 216,-12 216,-6 222,0 228,0 228,0 316,0 316,0 322,0 328,-6 328,-12 328,-12 328,-24 328,-24 328,-30 322,-36 316,-36"/>
<text text-anchor="middle" x="272" y="-21.2" font-family="Helvetica,sans-Serif" font-size="11.00">Binder IPC</text>
<text text-anchor="middle" x="272" y="-9.2" font-family="Helvetica,sans-Serif" font-size="11.00">(remote process)</text>
</g>
<!-- m::com.android.server.inputmethod.InputMethodManagerService$InputMethodPrivilegedOperationsImpl.setInputMethodAndSubtype:(Ljava/lang/String;Landroid/view/inputmethod/InputMethodSubtype;Lcom/android/internal/infra/AndroidFuture;)V&#45;&gt;__ipc__ -->
<g id="edge2" class="edge">
<title>m::com.android.server.inputmethod.InputMethodManagerService$InputMethodPrivilegedOperationsImpl.setInputMethodAndSubtype:(Ljava/lang/String;Landroid/view/inputmethod/InputMethodSubtype;Lcom/android/internal/infra/AndroidFuture;)V&#45;&gt;__ipc__</title>
<path fill="none" stroke="#d97706" stroke-width="1.6" d="M272,-81.64C272,-70.66 272,-56.29 272,-44.09"/>
<polygon fill="#d97706" stroke="#d97706" stroke-width="1.6" points="274.8,-44.05 272,-36.05 269.2,-44.05 274.8,-44.05"/>
<text text-anchor="middle" x="295" y="-56.8" font-family="Helvetica,sans-Serif" font-size="9.00" fill="#b45309"> transacts</text>
</g>
<!-- com.android.server.inputmethod.ImfLock.class -->
<g id="node3" class="node">
<title>com.android.server.inputmethod.ImfLock.class</title>
<path fill="#fee2e2" stroke="#dc2626" stroke-width="2" d="M305,-200C305,-200 239,-200 239,-200 233,-200 227,-194 227,-188 227,-188 227,-176 227,-176 227,-170 233,-164 239,-164 239,-164 305,-164 305,-164 311,-164 317,-170 317,-176 317,-176 317,-188 317,-188 317,-194 311,-200 305,-200"/>
<text text-anchor="middle" x="272" y="-179.2" font-family="Helvetica,sans-Serif" font-size="11.00">ImfLock.class</text>
</g>
<!-- com.android.server.inputmethod.ImfLock.class&#45;&gt;m::com.android.server.inputmethod.InputMethodManagerService$InputMethodPrivilegedOperationsImpl.setInputMethodAndSubtype:(Ljava/lang/String;Landroid/view/inputmethod/InputMethodSubtype;Lcom/android/internal/infra/AndroidFuture;)V -->
<g id="edge1" class="edge">
<title>com.android.server.inputmethod.ImfLock.class&#45;&gt;m::com.android.server.inputmethod.InputMethodManagerService$InputMethodPrivilegedOperationsImpl.setInputMethodAndSubtype:(Ljava/lang/String;Landroid/view/inputmethod/InputMethodSubtype;Lcom/android/internal/infra/AndroidFuture;)V</title>
<path fill="none" stroke="#dc2626" stroke-width="1.6" d="M272,-163.64C272,-152.66 272,-138.29 272,-126.09"/>
<polygon fill="#dc2626" stroke="#dc2626" stroke-width="1.6" points="274.8,-126.05 272,-118.05 269.2,-126.05 274.8,-126.05"/>
<text text-anchor="middle" x="289" y="-138.8" font-family="Helvetica,sans-Serif" font-size="9.00" fill="#dc2626"> held in</text>
</g>
</g>
</svg>
