<?xml version="1.0" encoding="UTF-8" standalone="no"?>
<!DOCTYPE svg PUBLIC "-//W3C//DTD SVG 1.1//EN"
 "http://www.w3.org/Graphics/SVG/1.1/DTD/svg11.dtd">
<!-- Generated by graphviz version 2.43.0 (0)
 -->
<!-- Title: binder Pages: 1 -->
<svg width="293pt" height="719pt"
 viewBox="0.00 0.00 293.00 719.00" xmlns="http://www.w3.org/2000/svg" xmlns:xlink="http://www.w3.org/1999/xlink">
<g id="graph0" class="graph" transform="scale(1 1) rotate(0) translate(4 715)">
<title>binder</title>
<polygon fill="white" stroke="transparent" points="-4,4 -4,-715 289,-715 289,4 -4,4"/>
<!-- m::com.android.server.notification.NotificationManagerService$1.clearEffects:()V -->
<g id="node1" class="node">
<title>m::com.android.server.notification.NotificationManagerService$1.clearEffects:()V</title>
<path fill="#eef2ff" stroke="#a5b4fc" d="M255.5,-629C255.5,-629 29.5,-629 29.5,-629 23.5,-629 17.5,-623 17.5,-617 17.5,-617 17.5,-605 17.5,-605 17.5,-599 23.5,-593 29.5,-593 29.5,-593 255.5,-593 255.5,-593 261.5,-593 267.5,-599 267.5,-605 267.5,-605 267.5,-617 267.5,-617 267.5,-623 261.5,-629 255.5,-629"/>
<text text-anchor="middle" x="142.5" y="-608.2" font-family="Helvetica,sans-Serif" font-size="11.00">NotificationManagerService$1.clearEffects</text>
</g>
<!-- m::com.android.server.notification.NotificationAttentionHelper.clearAttentionEffects:()V -->
<g id="node2" class="node">
<title>m::com.android.server.notification.NotificationAttentionHelper.clearAttentionEffects:()V</title>
<path fill="#eef2ff" stroke="#a5b4fc" d="M273,-556C273,-556 12,-556 12,-556 6,-556 0,-550 0,-544 0,-544 0,-532 0,-532 0,-526 6,-520 12,-520 12,-520 273,-520 273,-520 279,-520 285,-526 285,-532 285,-532 285,-544 285,-544 285,-550 279,-556 273,-556"/>
<text text-anchor="middle" x="142.5" y="-535.2" font-family="Helvetica,sans-Serif" font-size="11.00">NotificationAttentionHelper.clearAttentionEffects</text>
</g>
<!-- m::com.android.server.notification.NotificationManagerService$1.clearEffects:()V&#45;&gt;m::com.android.server.notification.NotificationAttentionHelper.clearAttentionEffects:()V -->
<g id="edge2" class="edge">
<title>m::com.android.server.notification.NotificationManagerService$1.clearEffects:()V&#45;&gt;m::com.android.server.notification.NotificationAttentionHelper.clearAttentionEffects:()V</title>
<path fill="none" stroke="#64748b" d="M142.5,-592.81C142.5,-584.18 142.5,-573.56 142.5,-564.03"/>
<polygon fill="#64748b" stroke="#64748b" points="145.3,-564.03 142.5,-556.03 139.7,-564.03 145.3,-564.03"/>
</g>
<!-- m::com.android.server.notification.NotificationAttentionHelper.clearLightsLocked:()V -->
<g id="node3" class="node">
<title>m::com.android.server.notification.NotificationAttentionHelper.clearLightsLocked:()V</title>
<path fill="#eef2ff" stroke="#a5b4fc" d="M264.5,-483C264.5,-483 20.5,-483 20.5,-483 14.5,-483 8.5,-477 8.5,-471 8.5,-471 8.5,-459 8.5,-459 8.5,-453 14.5,-447 20.5,-447 20.5,-447 264.5,-447 264.5,-447 270.5,-447 276.5,-453 276.5,-459 276.5,-459 276.5,-471 276.5,-471 276.5,-477 270.5,-483 264.5,-483"/>
<text text-anchor="middle" x="142.5" y="-462.2" font-family="Helvetica,sans-Serif" font-size="11.00">NotificationAttentionHelper.clearLightsLocked</text>
</g>
<!-- m::com.android.server.notification.NotificationAttentionHelper.clearAttentionEffects:()V&#45;&gt;m::com.android.server.notification.NotificationAttentionHelper.clearLightsLocked:()V -->
<g id="edge3" class="edge">
<title>m::com.android.server.notification.NotificationAttentionHelper.clearAttentionEffects:()V&#45;&gt;m::com.android.server.notification.NotificationAttentionHelper.clearLightsLocked:()V</title>
<path fill="none" stroke="#64748b" d="M142.5,-519.81C142.5,-511.18 142.5,-500.56 142.5,-491.03"/>
<polygon fill="#64748b" stroke="#64748b" points="145.3,-491.03 142.5,-483.03 139.7,-491.03 145.3,-491.03"/>
</g>
<!-- m::com.android.server.notification.NotificationAttentionHelper.updateLightsLocked:()V -->
<g id="node4" class="node">
<title>m::com.android.server.notification.NotificationAttentionHelper.updateLightsLocked:()V</title>
<path fill="#eef2ff" stroke="#a5b4fc" d="M270,-410C270,-410 15,-410 15,-410 9,-410 3,-404 3,-398 3,-398 3,-386 3,-386 3,-380 9,-374 15,-374 15,-374 270,-374 270,-374 276,-374 282,-380 282,-386 282,-386 282,-398 282,-398 282,-404 276,-410 270,-410"/>
<text text-anchor="middle" x="142.5" y="-389.2" font-family="Helvetica,sans-Serif" font-size="11.00">NotificationAttentionHelper.updateLightsLocked</text>
</g>
<!-- m::com.android.server.notification.NotificationAttentionHelper.clearLightsLocked:()V&#45;&gt;m::com.android.server.notification.NotificationAttentionHelper.updateLightsLocked:()V -->
<g id="edge4" class="edge">
<title>m::com.android.server.notification.NotificationAttentionHelper.clearLightsLocked:()V&#45;&gt;m::com.android.server.notification.NotificationAttentionHelper.updateLightsLocked:()V</title>
<path fill="none" stroke="#64748b" d="M142.5,-446.81C142.5,-438.18 142.5,-427.56 142.5,-418.03"/>
<polygon fill="#64748b" stroke="#64748b" points="145.3,-418.03 142.5,-410.03 139.7,-418.03 145.3,-418.03"/>
</g>
<!-- m::com.android.server.lights.LightsService$LightImpl.setFlashing:(IIII)V -->
<g id="node5" class="node">
<title>m::com.android.server.lights.LightsService$LightImpl.setFlashing:(IIII)V</title>
<path fill="#eef2ff" stroke="#a5b4fc" d="M237,-337C237,-337 48,-337 48,-337 42,-337 36,-331 36,-325 36,-325 36,-313 36,-313 36,-307 42,-301 48,-301 48,-301 237,-301 237,-301 243,-301 249,-307 249,-313 249,-313 249,-325 249,-325 249,-331 243,-337 237,-337"/>
<text text-anchor="middle" x="142.5" y="-316.2" font-family="Helvetica,sans-Serif" font-size="11.00">LightsService$LightImpl.setFlashing</text>
</g>
<!-- m::com.android.server.notification.NotificationAttentionHelper.updateLightsLocked:()V&#45;&gt;m::com.android.server.lights.LightsService$LightImpl.setFlashing:(IIII)V -->
<g id="edge5" class="edge">
<title>m::com.android.server.notification.NotificationAttentionHelper.updateLightsLocked:()V&#45;&gt;m::com.android.server.lights.LightsService$LightImpl.setFlashing:(IIII)V</title>
<path fill="none" stroke="#64748b" d="M142.5,-373.81C142.5,-365.18 142.5,-354.56 142.5,-345.03"/>
<polygon fill="#64748b" stroke="#64748b" points="145.3,-345.03 142.5,-337.03 139.7,-345.03 145.3,-345.03"/>
</g>
<!-- m::com.android.server.lights.LightsService$LightImpl.setLightLocked:(IIIII)V -->
<g id="node6" class="node">
<title>m::com.android.server.lights.LightsService$LightImpl.setLightLocked:(IIIII)V</title>
<path fill="#eef2ff" stroke="#a5b4fc" d="M247,-264C247,-264 38,-264 38,-264 32,-264 26,-258 26,-252 26,-252 26,-240 26,-240 26,-234 32,-228 38,-228 38,-228 247,-228 247,-228 253,-228 259,-234 259,-240 259,-240 259,-252 259,-252 259,-258 253,-264 247,-264"/>
<text text-anchor="middle" x="142.5" y="-243.2" font-family="Helvetica,sans-Serif" font-size="11.00">LightsService$LightImpl.setLightLocked</text>
</g>
<!-- m::com.android.server.lights.LightsService$LightImpl.setFlashing:(IIII)V&#45;&gt;m::com.android.server.lights.LightsService$LightImpl.setLightLocked:(IIIII)V -->
<g id="edge6" class="edge">
<title>m::com.android.server.lights.LightsService$LightImpl.setFlashing:(IIII)V&#45;&gt;m::com.android.server.lights.LightsService$LightImpl.setLightLocked:(IIIII)V</title>
<path fill="none" stroke="#64748b" d="M142.5,-300.81C142.5,-292.18 142.5,-281.56 142.5,-272.03"/>
<polygon fill="#64748b" stroke="#64748b" points="145.3,-272.03 142.5,-264.03 139.7,-272.03 145.3,-272.03"/>
</g>
<!-- m::com.android.server.lights.LightsService$LightImpl.setLightUnchecked:(IIIII)V -->
<g id="node7" class="node">
<title>m::com.android.server.lights.LightsService$LightImpl.setLightUnchecked:(IIIII)V</title>
<path fill="#eef2ff" stroke="#a5b4fc" d="M258,-191C258,-191 27,-191 27,-191 21,-191 15,-185 15,-179 15,-179 15,-167 15,-167 15,-161 21,-155 27,-155 27,-155 258,-155 258,-155 264,-155 270,-161 270,-167 270,-167 270,-179 270,-179 270,-185 264,-191 258,-191"/>
<text text-anchor="middle" x="142.5" y="-170.2" font-family="Helvetica,sans-Serif" font-size="11.00">LightsService$LightImpl.setLightUnchecked</text>
</g>
<!-- m::com.android.server.lights.LightsService$LightImpl.setLightLocked:(IIIII)V&#45;&gt;m::com.android.server.lights.LightsService$LightImpl.setLightUnchecked:(IIIII)V -->
<g id="edge7" class="edge">
<title>m::com.android.server.lights.LightsService$LightImpl.setLightLocked:(IIIII)V&#45;&gt;m::com.android.server.lights.LightsService$LightImpl.setLightUnchecked:(IIIII)V</title>
<path fill="none" stroke="#64748b" d="M142.5,-227.81C142.5,-219.18 142.5,-208.56 142.5,-199.03"/>
<polygon fill="#64748b" stroke="#64748b" points="145.3,-199.03 142.5,-191.03 139.7,-199.03 145.3,-199.03"/>
</g>
<!-- m::android.hardware.light.ILights$Stub$Proxy.setLightState:(ILandroid/hardware/light/HwLightState;)V -->
<g id="node8" class="node">
<title>m::android.hardware.light.ILights$Stub$Proxy.setLightState:(ILandroid/hardware/light/HwLightState;)V</title>
<path fill="#eef2ff" stroke="#a5b4fc" d="M229.5,-118C229.5,-118 55.5,-118 55.5,-118 49.5,-118 43.5,-112 43.5,-106 43.5,-106 43.5,-94 43.5,-94 43.5,-88 49.5,-82 55.5,-82 55.5,-82 229.5,-82 229.5,-82 235.5,-82 241.5,-88 241.5,-94 241.5,-94 241.5,-106 241.5,-106 241.5,-112 235.5,-118 229.5,-118"/>
<text text-anchor="middle" x="142.5" y="-97.2" font-family="Helvetica,sans-Serif" font-size="11.00">ILights$Stub$Proxy.setLightState</text>
</g>
<!-- m::com.android.server.lights.LightsService$LightImpl.setLightUnchecked:(IIIII)V&#45;&gt;m::android.hardware.light.ILights$Stub$Proxy.setLightState:(ILandroid/hardware/light/HwLightState;)V -->
<g id="edge8" class="edge">
<title>m::com.android.server.lights.LightsService$LightImpl.setLightUnchecked:(IIIII)V&#45;&gt;m::android.hardware.light.ILights$Stub$Proxy.setLightState:(ILandroid/hardware/light/HwLightState;)V</title>
<path fill="none" stroke="#64748b" d="M142.5,-154.81C142.5,-146.18 142.5,-135.56 142.5,-126.03"/>
<polygon fill="#64748b" stroke="#64748b" points="145.3,-126.03 142.5,-118.03 139.7,-126.03 145.3,-126.03"/>
</g>
<!-- __ipc__ -->
<g id="node9" class="node">
<title>__ipc__</title>
<path fill="#fde68a" stroke="#d97706" stroke-width="2" d="M186.5,-36C186.5,-36 98.5,-36 98.5,-36 92.5,-36 86.5,-30 86.5,-24 86.5,-24 86.5,-12 86.5,-12 86.5,-6 92.5,0 98.5,0 98.5,0 186.5,0 186.5,0 192.5,0 198.5,-6 198.5,-12 198.5,-12 198.5,-24 198.5,-24 198.5,-30 192.5,-36 186.5,-36"/>
<text text-anchor="middle" x="142.5" y="-21.2" font-family="Helvetica,sans-Serif" font-size="11.00">Binder IPC</text>
<text text-anchor="middle" x="142.5" y="-9.2" font-family="Helvetica,sans-Serif" font-size="11.00">(remote process)</text>
</g>
<!-- m::android.hardware.light.ILights$Stub$Proxy.setLightState:(ILandroid/hardware/light/HwLightState;)V&#45;&gt;__ipc__ -->
<g id="edge9" class="edge">
<title>m::android.hardware.light.ILights$Stub$Proxy.setLightState:(ILandroid/hardware/light/HwLightState;)V&#45;&gt;__ipc__</title>
<path fill="none" stroke="#d97706" stroke-width="1.6" d="M142.5,-81.64C142.5,-70.66 142.5,-56.29 142.5,-44.09"/>
<polygon fill="#d97706" stroke="#d97706" stroke-width="1.6" points="145.3,-44.05 142.5,-36.05 139.7,-44.05 145.3,-44.05"/>
<text text-anchor="middle" x="165.5" y="-56.8" font-family="Helvetica,sans-Serif" font-size="9.00" fill="#b45309"> transacts</text>
</g>
<!-- com.android.server.notification.NotificationManagerService.mNotificationLock -->
<g id="node10" class="node">
<title>com.android.server.notification.NotificationManagerService.mNotificationLock</title>
<path fill="#fee2e2" stroke="#dc2626" stroke-width="2" d="M265.5,-711C265.5,-711 19.5,-711 19.5,-711 13.5,-711 7.5,-705 7.5,-699 7.5,-699 7.5,-687 7.5,-687 7.5,-681 13.5,-675 19.5,-675 19.5,-675 265.5,-675 265.5,-675 271.5,-675 277.5,-681 277.5,-687 277.5,-687 277.5,-699 277.5,-699 277.5,-705 271.5,-711 265.5,-711"/>
<text text-anchor="middle" x="142.5" y="-690.2" font-family="Helvetica,sans-Serif" font-size="11.00">NotificationManagerService.mNotificationLock</text>
</g>
<!-- com.android.server.notification.NotificationManagerService.mNotificationLock&#45;&gt;m::com.android.server.notification.NotificationManagerService$1.clearEffects:()V -->
<g id="edge1" class="edge">
<title>com.android.server.notification.NotificationManagerService.mNotificationLock&#45;&gt;m::com.android.server.notification.NotificationManagerService$1.clearEffects:()V</title>
<path fill="none" stroke="#dc2626" stroke-width="1.6" d="M142.5,-674.64C142.5,-663.66 142.5,-649.29 142.5,-637.09"/>
<polygon fill="#dc2626" stroke="#dc2626" stroke-width="1.6" points="145.3,-637.05 142.5,-629.05 139.7,-637.05 145.3,-637.05"/>
<text text-anchor="middle" x="159.5" y="-649.8" font-family="Helvetica,sans-Serif" font-size="9.00" fill="#dc2626"> held in</text>
</g>
</g>
</svg>
