<?xml version="1.0" encoding="UTF-8" standalone="no"?>
<!DOCTYPE svg PUBLIC "-//W3C//DTD SVG 1.1//EN"
 "http://www.w3.org/Graphics/SVG/1.1/DTD/svg11.dtd">
<!-- Generated by graphviz version 2.43.0 (0)
 -->
<!-- Title: binder Pages: 1 -->
<svg width="335pt" height="573pt"
 viewBox="0.00 0.00 335.00 573.00" xmlns="http://www.w3.org/2000/svg" xmlns:xlink="http://www.w3.org/1999/xlink">
<g id="graph0" class="graph" transform="scale(1 1) rotate(0) translate(4 569)">
<title>binder</title>
<polygon fill="white" stroke="transparent" points="-4,4 -4,-569 331,-569 331,4 -4,4"/>
<!-- m::com.android.server.notification.NotificationAttentionHelper$SettingsObserver.onChange:(ZLandroid/net/Uri;)V -->
<g id="node1" class="node">
<title>m::com.android.server.notification.NotificationAttentionHelper$SettingsObserver.onChange:(ZLandroid/net/Uri;)V</title>
<path fill="#eef2ff" stroke="#a5b4fc" d="M315,-483C315,-483 12,-483 12,-483 6,-483 0,-477 0,-471 0,-471 0,-459 0,-459 0,-453 6,-447 12,-447 12,-447 315,-447 315,-447 321,-447 327,-453 327,-459 327,-459 327,-471 327,-471 327,-477 321,-483 315,-483"/>
<text text-anchor="middle" x="163.5" y="-462.2" font-family="Helvetica,sans-Serif" font-size="11.00">NotificationAttentionHelper$SettingsObserver.onChange</text>
</g>
<!-- m::com.android.server.notification.NotificationAttentionHelper.updateLightsLocked:()V -->
<g id="node2" class="node">
<title>m::com.android.server.notification.NotificationAttentionHelper.updateLightsLocked:()V</title>
<path fill="#eef2ff" stroke="#a5b4fc" d="M291,-410C291,-410 36,-410 36,-410 30,-410 24,-404 24,-398 24,-398 24,-386 24,-386 24,-380 30,-374 36,-374 36,-374 291,-374 291,-374 297,-374 303,-380 303,-386 303,-386 303,-398 303,-398 303,-404 297,-410 291,-410"/>
<text text-anchor="middle" x="163.5" y="-389.2" font-family="Helvetica,sans-Serif" font-size="11.00">NotificationAttentionHelper.updateLightsLocked</text>
</g>
<!-- m::com.android.server.notification.NotificationAttentionHelper$SettingsObserver.onChange:(ZLandroid/net/Uri;)V&#45;&gt;m::com.android.server.notification.NotificationAttentionHelper.updateLightsLocked:()V -->
<g id="edge2" class="edge">
<title>m::com.android.server.notification.NotificationAttentionHelper$SettingsObserver.onChange:(ZLandroid/net/Uri;)V&#45;&gt;m::com.android.server.notification.NotificationAttentionHelper.updateLightsLocked:()V</title>
<path fill="none" stroke="#64748b" d="M163.5,-446.81C163.5,-438.18 163.5,-427.56 163.5,-418.03"/>
<polygon fill="#64748b" stroke="#64748b" points="166.3,-418.03 163.5,-410.03 160.7,-418.03 166.3,-418.03"/>
</g>
<!-- m::com.android.server.lights.LightsService$LightImpl.setFlashing:(IIII)V -->
<g id="node3" class="node">
<title>m::com.android.server.lights.LightsService$LightImpl.setFlashing:(IIII)V</title>
<path fill="#eef2ff" stroke="#a5b4fc" d="M258,-337C258,-337 69,-337 69,-337 63,-337 57,-331 57,-325 57,-325 57,-313 57,-313 57,-307 63,-301 69,-301 69,-301 258,-301 258,-301 264,-301 270,-307 270,-313 270,-313 270,-325 270,-325 270,-331 264,-337 258,-337"/>
<text text-anchor="middle" x="163.5" y="-316.2" font-family="Helvetica,sans-Serif" font-size="11.00">LightsService$LightImpl.setFlashing</text>
</g>
<!-- m::com.android.server.notification.NotificationAttentionHelper.updateLightsLocked:()V&#45;&gt;m::com.android.server.lights.LightsService$LightImpl.setFlashing:(IIII)V -->
<g id="edge3" class="edge">
<title>m::com.android.server.notification.NotificationAttentionHelper.updateLightsLocked:()V&#45;&gt;m::com.android.server.lights.LightsService$LightImpl.setFlashing:(IIII)V</title>
<path fill="none" stroke="#64748b" d="M163.5,-373.81C163.5,-365.18 163.5,-354.56 163.5,-345.03"/>
<polygon fill="#64748b" stroke="#64748b" points="166.3,-345.03 163.5,-337.03 160.7,-345.03 166.3,-345.03"/>
</g>
<!-- m::com.android.server.lights.LightsService$LightImpl.setLightLocked:(IIIII)V -->
<g id="node4" class="node">
<title>m::com.android.server.lights.LightsService$LightImpl.setLightLocked:(IIIII)V</title>
<path fill="#eef2ff" stroke="#a5b4fc" d="M268,-264C268,-264 59,-264 59,-264 53,-264 47,-258 47,-252 47,-252 47,-240 47,-240 47,-234 53,-228 59,-228 59,-228 268,-228 268,-228 274,-228 280,-234 280,-240 280,-240 280,-252 280,-252 280,-258 274,-264 268,-264"/>
<text text-anchor="middle" x="163.5" y="-243.2" font-family="Helvetica,sans-Serif" font-size="11.00">LightsService$LightImpl.setLightLocked</text>
</g>
<!-- m::com.android.server.lights.LightsService$LightImpl.setFlashing:(IIII)V&#45;&gt;m::com.android.server.lights.LightsService$LightImpl.setLightLocked:(IIIII)V -->
<g id="edge4" class="edge">
<title>m::com.android.server.lights.LightsService$LightImpl.setFlashing:(IIII)V&#45;&gt;m::com.android.server.lights.LightsService$LightImpl.setLightLocked:(IIIII)V</title>
<path fill="none" stroke="#64748b" d="M163.5,-300.81C163.5,-292.18 163.5,-281.56 163.5,-272.03"/>
<polygon fill="#64748b" stroke="#64748b" points="166.3,-272.03 163.5,-264.03 160.7,-272.03 166.3,-272.03"/>
</g>
<!-- m::com.android.server.lights.LightsService$LightImpl.setLightUnchecked:(IIIII)V -->
<g id="node5" class="node">
<title>m::com.android.server.lights.LightsService$LightImpl.setLightUnchecked:(IIIII)V</title>
<path fill="#eef2ff" stroke="#a5b4fc" d="M279,-191C279,-191 48,-191 48,-191 42,-191 36,-185 36,-179 36,-179 36,-167 36,-167 36,-161 42,-155 48,-155 48,-155 279,-155 279,-155 285,-155 291,-161 291,-167 291,-167 291,-179 291,-179 291,-185 285,-191 279,-191"/>
<text text-anchor="middle" x="163.5" y="-170.2" font-family="Helvetica,sans-Serif" font-size="11.00">LightsService$LightImpl.setLightUnchecked</text>
</g>
<!-- m::com.android.server.lights.LightsService$LightImpl.setLightLocked:(IIIII)V&#45;&gt;m::com.android.server.lights.LightsService$LightImpl.setLightUnchecked:(IIIII)V -->
<g id="edge5" class="edge">
<title>m::com.android.server.lights.LightsService$LightImpl.setLightLocked:(IIIII)V&#45;&gt;m::com.android.server.lights.LightsService$LightImpl.setLightUnchecked:(IIIII)V</title>
<path fill="none" stroke="#64748b" d="M163.5,-227.81C163.5,-219.18 163.5,-208.56 163.5,-199.03"/>
<polygon fill="#64748b" stroke="#64748b" points="166.3,-199.03 163.5,-191.03 160.7,-199.03 166.3,-199.03"/>
</g>
<!-- m::android.hardware.light.ILights$Stub$Proxy.setLightState:(ILandroid/hardware/light/HwLightState;)V -->
<g id="node6" class="node">
<title>m::android.hardware.light.ILights$Stub$Proxy.setLightState:(ILandroid/hardware/light/HwLightState;)V</title>
<path fill="#eef2ff" stroke="#a5b4fc" d="M250.5,-118C250.5,-118 76.5,-118 76.5,-118 70.5,-118 64.5,-112 64.5,-106 64.5,-106 64.5,-94 64.5,-94 64.5,-88 70.5,-82 76.5,-82 76.5,-82 250.5,-82 250.5,-82 256.5,-82 262.5,-88 262.5,-94 262.5,-94 262.5,-106 262.5,-106 262.5,-112 256.5,-118 250.5,-118"/>
<text text-anchor="middle" x="163.5" y="-97.2" font-family="Helvetica,sans-Serif" font-size="11.00">ILights$Stub$Proxy.setLightState</text>
</g>
<!-- m::com.android.server.lights.LightsService$LightImpl.setLightUnchecked:(IIIII)V&#45;&gt;m::android.hardware.light.ILights$Stub$Proxy.setLightState:(ILandroid/hardware/light/HwLightState;)V -->
<g id="edge6" class="edge">
<title>m::com.android.server.lights.LightsService$LightImpl.setLightUnchecked:(IIIII)V&#45;&gt;m::android.hardware.light.ILights$Stub$Proxy.setLightState:(ILandroid/hardware/light/HwLightState;)V</title>
<path fill="none" stroke="#64748b" d="M163.5,-154.81C163.5,-146.18 163.5,-135.56 163.5,-126.03"/>
<polygon fill="#64748b" stroke="#64748b" points="166.3,-126.03 163.5,-118.03 160.7,-126.03 166.3,-126.03"/>
</g>
<!-- __ipc__ -->
<g id="node7" class="node">
<title>__ipc__</title>
<path fill="#fde68a" stroke="#d97706" stroke-width="2" d="M207.5,-36C207.5,-36 119.5,-36 119.5,-36 113.5,-36 107.5,-30 107.5,-24 107.5,-24 107.5,-12 107.5,-12 107.5,-6 113.5,0 119.5,0 119.5,0 207.5,0 207.5,0 213.5,0 219.5,-6 219.5,-12 219.5,-12 219.5,-24 219.5,-24 219.5,-30 213.5,-36 207.5,-36"/>
<text text-anchor="middle" x="163.5" y="-21.2" font-family="Helvetica,sans-Serif" font-size="11.00">Binder IPC</text>
<text text-anchor="middle" x="163.5" y="-9.2" font-family="Helvetica,sans-Serif" font-size="11.00">(remote process)</text>
</g>
<!-- m::android.hardware.light.ILights$Stub$Proxy.setLightState:(ILandroid/hardware/light/HwLightState;)V&#45;&gt;__ipc__ -->
<g id="edge7" class="edge">
<title>m::android.hardware.light.ILights$Stub$Proxy.setLightState:(ILandroid/hardware/light/HwLightState;)V&#45;&gt;__ipc__</title>
<path fill="none" stroke="#d97706" stroke-width="1.6" d="M163.5,-81.64C163.5,-70.66 163.5,-56.29 163.5,-44.09"/>
<polygon fill="#d97706" stroke="#d97706" stroke-width="1.6" points="166.3,-44.05 163.5,-36.05 160.7,-44.05 166.3,-44.05"/>
<text text-anchor="middle" x="186.5" y="-56.8" font-family="Helvetica,sans-Serif" font-size="9.00" fill="#b45309"> transacts</text>
</g>
<!-- com.android.server.notification.NotificationManagerService.mNotificationLock -->
<g id="node8" class="node">
<title>com.android.server.notification.NotificationManagerService.mNotificationLock</title>
<path fill="#fee2e2" stroke="#dc2626" stroke-width="2" d="M286.5,-565C286.5,-565 40.5,-565 40.5,-565 34.5,-565 28.5,-559 28.5,-553 28.5,-553 28.5,-541 28.5,-541 28.5,-535 34.5,-529 40.5,-529 40.5,-529 286.5,-529 286.5,-529 292.5,-529 298.5,-535 298.5,-541 298.5,-541 298.5,-553 298.5,-553 298.5,-559 292.5,-565 286.5,-565"/>
<text text-anchor="middle" x="163.5" y="-544.2" font-family="Helvetica,sans-Serif" font-size="11.00">NotificationManagerService.mNotificationLock</text>
</g>
<!-- com.android.server.notification.NotificationManagerService.mNotificationLock&#45;&gt;m::com.android.server.notification.NotificationAttentionHelper$SettingsObserver.onChange:(ZLandroid/net/Uri;)V -->
<g id="edge1" class="edge">
<title>com.android.server.notification.NotificationManagerService.mNotificationLock&#45;&gt;m::com.android.server.notification.NotificationAttentionHelper$SettingsObserver.onChange:(ZLandroid/net/Uri;)V</title>
<path fill="none" stroke="#dc2626" stroke-width="1.6" d="M163.5,-528.64C163.5,-517.66 163.5,-503.29 163.5,-491.09"/>
<polygon fill="#dc2626" stroke="#dc2626" stroke-width="1.6" points="166.3,-491.05 163.5,-483.05 160.7,-491.05 166.3,-491.05"/>
<text text-anchor="middle" x="180.5" y="-503.8" font-family="Helvetica,sans-Serif" font-size="9.00" fill="#dc2626"> held in</text>
</g>
</g>
</svg>
