<?xml version="1.0" encoding="UTF-8" standalone="no"?>
<!DOCTYPE svg PUBLIC "-//W3C//DTD SVG 1.1//EN"
 "http://www.w3.org/Graphics/SVG/1.1/DTD/svg11.dtd">
<!-- Generated by graphviz version 2.43.0 (0)
 -->
<!-- Title: binder Pages: 1 -->
<svg width="474pt" height="938pt"
 viewBox="0.00 0.00 474.00 938.00" xmlns="http://www.w3.org/2000/svg" xmlns:xlink="http://www.w3.org/1999/xlink">
<g id="graph0" class="graph" transform="scale(1 1) rotate(0) translate(4 934)">
<title>binder</title>
<polygon fill="white" stroke="transparent" points="-4,4 -4,-934 470,-934 470,4 -4,4"/>
<!-- m::com.android.server.vibrator.VibratorManagerService$ExternalVibratorService.onExternalVibrationStart:(Landroid/os/ExternalVibration;)Landroid/os/ExternalVibrationScale; -->
<g id="node1" class="node">
<title>m::com.android.server.vibrator.VibratorManagerService$ExternalVibratorService.onExternalVibrationStart:(Landroid/os/ExternalVibration;)Landroid/os/ExternalVibrationScale;</title>
<path fill="#eef2ff" stroke="#a5b4fc" d="M434,-848C434,-848 32,-848 32,-848 26,-848 20,-842 20,-836 20,-836 20,-824 20,-824 20,-818 26,-812 32,-812 32,-812 434,-812 434,-812 440,-812 446,-818 446,-824 446,-824 446,-836 446,-836 446,-842 440,-848 434,-848"/>
<text text-anchor="middle" x="233" y="-827.2" font-family="Helvetica,sans-Serif" font-size="11.00">VibratorManagerService$ExternalVibratorService.onExternalVibrationStart</text>
</g>
<!-- m::com.android.server.vibrator.ExternalVibrationSession.requestEnd:(Lcom/android/server/vibrator/VibrationSession$Status;Lcom/android/server/vibrator/VibrationSession$CallerInfo;Z)V -->
<g id="node2" class="node">
<title>m::com.android.server.vibrator.ExternalVibrationSession.requestEnd:(Lcom/android/server/vibrator/VibrationSession$Status;Lcom/android/server/vibrator/VibrationSession$CallerInfo;Z)V</title>
<path fill="#eef2ff" stroke="#a5b4fc" d="M331,-775C331,-775 135,-775 135,-775 129,-775 123,-769 123,-763 123,-763 123,-751 123,-751 123,-745 129,-739 135,-739 135,-739 331,-739 331,-739 337,-739 343,-745 343,-751 343,-751 343,-763 343,-763 343,-769 337,-775 331,-775"/>
<text text-anchor="middle" x="233" y="-754.2" font-family="Helvetica,sans-Serif" font-size="11.00">ExternalVibrationSession.requestEnd</text>
</g>
<!-- m::com.android.server.vibrator.VibratorManagerService$ExternalVibratorService.onExternalVibrationStart:(Landroid/os/ExternalVibration;)Landroid/os/ExternalVibrationScale;&#45;&gt;m::com.android.server.vibrator.ExternalVibrationSession.requestEnd:(Lcom/android/server/vibrator/VibrationSession$Status;Lcom/android/server/vibrator/VibrationSession$CallerInfo;Z)V -->
<g id="edge2" class="edge">
<title>m::com.android.server.vibrator.VibratorManagerService$ExternalVibratorService.onExternalVibrationStart:(Landroid/os/ExternalVibration;)Landroid/os/ExternalVibrationScale;&#45;&gt;m::com.android.server.vibrator.ExternalVibrationSession.requestEnd:(Lcom/android/server/vibrator/VibrationSession$Status;Lcom/android/server/vibrator/VibrationSession$CallerInfo;Z)V</title>
<path fill="none" stroke="#64748b" d="M233,-811.81C233,-803.18 233,-792.56 233,-783.03"/>
<polygon fill="#64748b" stroke="#64748b" points="235.8,-783.03 233,-775.03 230.2,-783.03 235.8,-783.03"/>
</g>
<!-- m::com.android.server.vibrator.ExternalVibrationSession.end:(Lcom/android/server/vibrator/Vibration$EndInfo;)V -->
<g id="node3" class="node">
<title>m::com.android.server.vibrator.ExternalVibrationSession.end:(Lcom/android/server/vibrator/Vibration$EndInfo;)V</title>
<path fill="#eef2ff" stroke="#a5b4fc" d="M310,-702C310,-702 156,-702 156,-702 150,-702 144,-696 144,-690 144,-690 144,-678 144,-678 144,-672 150,-666 156,-666 156,-666 310,-666 310,-666 316,-666 322,-672 322,-678 322,-678 322,-690 322,-690 322,-696 316,-702 310,-702"/>
<text text-anchor="middle" x="233" y="-681.2" font-family="Helvetica,sans-Serif" font-size="11.00">ExternalVibrationSession.end</text>
</g>
<!-- m::com.android.server.vibrator.ExternalVibrationSession.requestEnd:(Lcom/android/server/vibrator/VibrationSession$Status;Lcom/android/server/vibrator/VibrationSession$CallerInfo;Z)V&#45;&gt;m::com.android.server.vibrator.ExternalVibrationSession.end:(Lcom/android/server/vibrator/Vibration$EndInfo;)V -->
<g id="edge3" class="edge">
<title>m::com.android.server.vibrator.ExternalVibrationSession.requestEnd:(Lcom/android/server/vibrator/VibrationSession$Status;Lcom/android/server/vibrator/VibrationSession$CallerInfo;Z)V&#45;&gt;m::com.android.server.vibrator.ExternalVibrationSession.end:(Lcom/android/server/vibrator/Vibration$EndInfo;)V</title>
<path fill="none" stroke="#64748b" d="M233,-738.81C233,-730.18 233,-719.56 233,-710.03"/>
<polygon fill="#64748b" stroke="#64748b" points="235.8,-710.03 233,-702.03 230.2,-710.03 235.8,-710.03"/>
</g>
<!-- m::com.android.server.vibrator.VibratorManagerService$ExternalVibrationCallbacks.onExternalVibrationReleased:(J)V -->
<g id="node4" class="node">
<title>m::com.android.server.vibrator.VibratorManagerService$ExternalVibrationCallbacks.onExternalVibrationReleased:(J)V</title>
<path fill="#eef2ff" stroke="#a5b4fc" d="M454,-629C454,-629 12,-629 12,-629 6,-629 0,-623 0,-617 0,-617 0,-605 0,-605 0,-599 6,-593 12,-593 12,-593 454,-593 454,-593 460,-593 466,-599 466,-605 466,-605 466,-617 466,-617 466,-623 460,-629 454,-629"/>
<text text-anchor="middle" x="233" y="-608.2" font-family="Helvetica,sans-Serif" font-size="11.00">VibratorManagerService$ExternalVibrationCallbacks.onExternalVibrationReleased</text>
</g>
<!-- m::com.android.server.vibrator.ExternalVibrationSession.end:(Lcom/android/server/vibrator/Vibration$EndInfo;)V&#45;&gt;m::com.android.server.vibrator.VibratorManagerService$ExternalVibrationCallbacks.onExternalVibrationReleased:(J)V -->
<g id="edge4" class="edge">
<title>m::com.android.server.vibrator.ExternalVibrationSession.end:(Lcom/android/server/vibrator/Vibration$EndInfo;)V&#45;&gt;m::com.android.server.vibrator.VibratorManagerService$ExternalVibrationCallbacks.onExternalVibrationReleased:(J)V</title>
<path fill="none" stroke="#64748b" d="M233,-665.81C233,-657.18 233,-646.56 233,-637.03"/>
<polygon fill="#64748b" stroke="#64748b" points="235.8,-637.03 233,-629.03 230.2,-637.03 235.8,-637.03"/>
</g>
<!-- m::com.android.server.vibrator.VibratorManagerService.&#45;$$Nest$mmaybeStartNextSessionLocked:(Lcom/android/server/vibrator/VibratorManagerService;)V -->
<g id="node5" class="node">
<title>m::com.android.server.vibrator.VibratorManagerService.&#45;$$Nest$mmaybeStartNextSessionLocked:(Lcom/android/server/vibrator/VibratorManagerService;)V</title>
<path fill="#eef2ff" stroke="#a5b4fc" d="M383,-556C383,-556 83,-556 83,-556 77,-556 71,-550 71,-544 71,-544 71,-532 71,-532 71,-526 77,-520 83,-520 83,-520 383,-520 383,-520 389,-520 395,-526 395,-532 395,-532 395,-544 395,-544 395,-550 389,-556 383,-556"/>
<text text-anchor="middle" x="233" y="-535.2" font-family="Helvetica,sans-Serif" font-size="11.00">VibratorManagerService.maybeStartNextSessionLocked</text>
</g>
<!-- m::com.android.server.vibrator.VibratorManagerService$ExternalVibrationCallbacks.onExternalVibrationReleased:(J)V&#45;&gt;m::com.android.server.vibrator.VibratorManagerService.&#45;$$Nest$mmaybeStartNextSessionLocked:(Lcom/android/server/vibrator/VibratorManagerService;)V -->
<g id="edge5" class="edge">
<title>m::com.android.server.vibrator.VibratorManagerService$ExternalVibrationCallbacks.onExternalVibrationReleased:(J)V&#45;&gt;m::com.android.server.vibrator.VibratorManagerService.&#45;$$Nest$mmaybeStartNextSessionLocked:(Lcom/android/server/vibrator/VibratorManagerService;)V</title>
<path fill="none" stroke="#64748b" d="M233,-592.81C233,-584.18 233,-573.56 233,-564.03"/>
<polygon fill="#64748b" stroke="#64748b" points="235.8,-564.03 233,-556.03 230.2,-564.03 235.8,-564.03"/>
</g>
<!-- m::com.android.server.vibrator.VibratorManagerService.maybeStartNextSessionLocked:()V -->
<g id="node6" class="node">
<title>m::com.android.server.vibrator.VibratorManagerService.maybeStartNextSessionLocked:()V</title>
<path fill="#eef2ff" stroke="#a5b4fc" d="M383,-483C383,-483 83,-483 83,-483 77,-483 71,-477 71,-471 71,-471 71,-459 71,-459 71,-453 77,-447 83,-447 83,-447 383,-447 383,-447 389,-447 395,-453 395,-459 395,-459 395,-471 395,-471 395,-477 389,-483 383,-483"/>
<text text-anchor="middle" x="233" y="-462.2" font-family="Helvetica,sans-Serif" font-size="11.00">VibratorManagerService.maybeStartNextSessionLocked</text>
</g>
<!-- m::com.android.server.vibrator.VibratorManagerService.&#45;$$Nest$mmaybeStartNextSessionLocked:(Lcom/android/server/vibrator/VibratorManagerService;)V&#45;&gt;m::com.android.server.vibrator.VibratorManagerService.maybeStartNextSessionLocked:()V -->
<g id="edge6" class="edge">
<title>m::com.android.server.vibrator.VibratorManagerService.&#45;$$Nest$mmaybeStartNextSessionLocked:(Lcom/android/server/vibrator/VibratorManagerService;)V&#45;&gt;m::com.android.server.vibrator.VibratorManagerService.maybeStartNextSessionLocked:()V</title>
<path fill="none" stroke="#64748b" d="M233,-519.81C233,-511.18 233,-500.56 233,-491.03"/>
<polygon fill="#64748b" stroke="#64748b" points="235.8,-491.03 233,-483.03 230.2,-491.03 235.8,-491.03"/>
</g>
<!-- m::com.android.server.vibrator.VibratorManagerService.startVibrationOnThreadLocked:(Lcom/android/server/vibrator/SingleVibrationSession;)Lcom/android/server/vibrator/VibrationSession$Status; -->
<g id="node7" class="node">
<title>m::com.android.server.vibrator.VibratorManagerService.startVibrationOnThreadLocked:(Lcom/android/server/vibrator/SingleVibrationSession;)Lcom/android/server/vibrator/VibrationSession$Status;</title>
<path fill="#eef2ff" stroke="#a5b4fc" d="M381.5,-410C381.5,-410 84.5,-410 84.5,-410 78.5,-410 72.5,-404 72.5,-398 72.5,-398 72.5,-386 72.5,-386 72.5,-380 78.5,-374 84.5,-374 84.5,-374 381.5,-374 381.5,-374 387.5,-374 393.5,-380 393.5,-386 393.5,-386 393.5,-398 393.5,-398 393.5,-404 387.5,-410 381.5,-410"/>
<text text-anchor="middle" x="233" y="-389.2" font-family="Helvetica,sans-Serif" font-size="11.00">VibratorManagerService.startVibrationOnThreadLocked</text>
</g>
<!-- m::com.android.server.vibrator.VibratorManagerService.maybeStartNextSessionLocked:()V&#45;&gt;m::com.android.server.vibrator.VibratorManagerService.startVibrationOnThreadLocked:(Lcom/android/server/vibrator/SingleVibrationSession;)Lcom/android/server/vibrator/VibrationSession$Status; -->
<g id="edge7" class="edge">
<title>m::com.android.server.vibrator.VibratorManagerService.maybeStartNextSessionLocked:()V&#45;&gt;m::com.android.server.vibrator.VibratorManagerService.startVibrationOnThreadLocked:(Lcom/android/server/vibrator/SingleVibrationSession;)Lcom/android/server/vibrator/VibrationSession$Status;</title>
<path fill="none" stroke="#64748b" d="M233,-446.81C233,-438.18 233,-427.56 233,-418.03"/>
<polygon fill="#64748b" stroke="#64748b" points="235.8,-418.03 233,-410.03 230.2,-418.03 235.8,-418.03"/>
</g>
<!-- m::com.android.server.vibrator.VibratorManagerService.createVibrationStepConductor:(Lcom/android/server/vibrator/HalVibration;)Lcom/android/server/vibrator/VibrationStepConductor; -->
<g id="node8" class="node">
<title>m::com.android.server.vibrator.VibratorManagerService.createVibrationStepConductor:(Lcom/android/server/vibrator/HalVibration;)Lcom/android/server/vibrator/VibrationStepConductor;</title>
<path fill="#eef2ff" stroke="#a5b4fc" d="M380.5,-337C380.5,-337 85.5,-337 85.5,-337 79.5,-337 73.5,-331 73.5,-325 73.5,-325 73.5,-313 73.5,-313 73.5,-307 79.5,-301 85.5,-301 85.5,-301 380.5,-301 380.5,-301 386.5,-301 392.5,-307 392.5,-313 392.5,-313 392.5,-325 392.5,-325 392.5,-331 386.5,-337 380.5,-337"/>
<text text-anchor="middle" x="233" y="-316.2" font-family="Helvetica,sans-Serif" font-size="11.00">VibratorManagerService.createVibrationStepConductor</text>
</g>
<!-- m::com.android.server.vibrator.VibratorManagerService.startVibrationOnThreadLocked:(Lcom/android/server/vibrator/SingleVibrationSession;)Lcom/android/server/vibrator/VibrationSession$Status;&#45;&gt;m::com.android.server.vibrator.VibratorManagerService.createVibrationStepConductor:(Lcom/android/server/vibrator/HalVibration;)Lcom/android/server/vibrator/VibrationStepConductor; -->
<g id="edge8" class="edge">
<title>m::com.android.server.vibrator.VibratorManagerService.startVibrationOnThreadLocked:(Lcom/android/server/vibrator/SingleVibrationSession;)Lcom/android/server/vibrator/VibrationSession$Status;&#45;&gt;m::com.android.server.vibrator.VibratorManagerService.createVibrationStepConductor:(Lcom/android/server/vibrator/HalVibration;)Lcom/android/server/vibrator/VibrationStepConductor;</title>
<path fill="none" stroke="#64748b" d="M233,-373.81C233,-365.18 233,-354.56 233,-345.03"/>
<polygon fill="#64748b" stroke="#64748b" points="235.8,-345.03 233,-337.03 230.2,-345.03 235.8,-345.03"/>
</g>
<!-- m::com.android.server.vibrator.VibratorManagerService.createVibrationStepConductor:(Lcom/android/server/vibrator/HalVibration;Lcom/android/server/vibrator/DeviceAdapter;Z)Lcom/android/server/vibrator/VibrationStepConductor; -->
<g id="node9" class="node">
<title>m::com.android.server.vibrator.VibratorManagerService.createVibrationStepConductor:(Lcom/android/server/vibrator/HalVibration;Lcom/android/server/vibrator/DeviceAdapter;Z)Lcom/android/server/vibrator/VibrationStepConductor;</title>
<path fill="#eef2ff" stroke="#a5b4fc" d="M380.5,-264C380.5,-264 85.5,-264 85.5,-264 79.5,-264 73.5,-258 73.5,-252 73.5,-252 73.5,-240 73.5,-240 73.5,-234 79.5,-228 85.5,-228 85.5,-228 380.5,-228 380.5,-228 386.5,-228 392.5,-234 392.5,-240 392.5,-240 392.5,-252 392.5,-252 392.5,-258 386.5,-264 380.5,-264"/>
<text text-anchor="middle" x="233" y="-243.2" font-family="Helvetica,sans-Serif" font-size="11.00">VibratorManagerService.createVibrationStepConductor</text>
</g>
<!-- m::com.android.server.vibrator.VibratorManagerService.createVibrationStepConductor:(Lcom/android/server/vibrator/HalVibration;)Lcom/android/server/vibrator/VibrationStepConductor;&#45;&gt;m::com.android.server.vibrator.VibratorManagerService.createVibrationStepConductor:(Lcom/android/server/vibrator/HalVibration;Lcom/android/server/vibrator/DeviceAdapter;Z)Lcom/android/server/vibrator/VibrationStepConductor; -->
<g id="edge9" class="edge">
<title>m::com.android.server.vibrator.VibratorManagerService.createVibrationStepConductor:(Lcom/android/server/vibrator/HalVibration;)Lcom/android/server/vibrator/VibrationStepConductor;&#45;&gt;m::com.android.server.vibrator.VibratorManagerService.createVibrationStepConductor:(Lcom/android/server/vibrator/HalVibration;Lcom/android/server/vibrator/DeviceAdapter;Z)Lcom/android/server/vibrator/VibrationStepConductor;</title>
<path fill="none" stroke="#64748b" d="M233,-300.81C233,-292.18 233,-281.56 233,-272.03"/>
<polygon fill="#64748b" stroke="#64748b" points="235.8,-272.03 233,-264.03 230.2,-272.03 235.8,-272.03"/>
</g>
<!-- m::com.android.server.vibrator.VibratorControlService.triggerVibrationParamsRequest:(III)Ljava/util/concurrent/CompletableFuture; -->
<g id="node10" class="node">
<title>m::com.android.server.vibrator.VibratorControlService.triggerVibrationParamsRequest:(III)Ljava/util/concurrent/CompletableFuture;</title>
<path fill="#eef2ff" stroke="#a5b4fc" d="M379.5,-191C379.5,-191 86.5,-191 86.5,-191 80.5,-191 74.5,-185 74.5,-179 74.5,-179 74.5,-167 74.5,-167 74.5,-161 80.5,-155 86.5,-155 86.5,-155 379.5,-155 379.5,-155 385.5,-155 391.5,-161 391.5,-167 391.5,-167 391.5,-179 391.5,-179 391.5,-185 385.5,-191 379.5,-191"/>
<text text-anchor="middle" x="233" y="-170.2" font-family="Helvetica,sans-Serif" font-size="11.00">VibratorControlService.triggerVibrationParamsRequest</text>
</g>
<!-- m::com.android.server.vibrator.VibratorManagerService.createVibrationStepConductor:(Lcom/android/server/vibrator/HalVibration;Lcom/android/server/vibrator/DeviceAdapter;Z)Lcom/android/server/vibrator/VibrationStepConductor;&#45;&gt;m::com.android.server.vibrator.VibratorControlService.triggerVibrationParamsRequest:(III)Ljava/util/concurrent/CompletableFuture; -->
<g id="edge10" class="edge">
<title>m::com.android.server.vibrator.VibratorManagerService.createVibrationStepConductor:(Lcom/android/server/vibrator/HalVibration;Lcom/android/server/vibrator/DeviceAdapter;Z)Lcom/android/server/vibrator/VibrationStepConductor;&#45;&gt;m::com.android.server.vibrator.VibratorControlService.triggerVibrationParamsRequest:(III)Ljava/util/concurrent/CompletableFuture;</title>
<path fill="none" stroke="#64748b" d="M233,-227.81C233,-219.18 233,-208.56 233,-199.03"/>
<polygon fill="#64748b" stroke="#64748b" points="235.8,-199.03 233,-191.03 230.2,-199.03 235.8,-199.03"/>
</g>
<!-- m::android.frameworks.vibrator.IVibratorController$Stub$Proxy.requestVibrationParams:(IJLandroid/os/IBinder;)V -->
<g id="node11" class="node">
<title>m::android.frameworks.vibrator.IVibratorController$Stub$Proxy.requestVibrationParams:(IJLandroid/os/IBinder;)V</title>
<path fill="#eef2ff" stroke="#a5b4fc" d="M382,-118C382,-118 84,-118 84,-118 78,-118 72,-112 72,-106 72,-106 72,-94 72,-94 72,-88 78,-82 84,-82 84,-82 382,-82 382,-82 388,-82 394,-88 394,-94 394,-94 394,-106 394,-106 394,-112 388,-118 382,-118"/>
<text text-anchor="middle" x="233" y="-97.2" font-family="Helvetica,sans-Serif" font-size="11.00">IVibratorController$Stub$Proxy.requestVibrationParams</text>
</g>
<!-- m::com.android.server.vibrator.VibratorControlService.triggerVibrationParamsRequest:(III)Ljava/util/concurrent/CompletableFuture;&#45;&gt;m::android.frameworks.vibrator.IVibratorController$Stub$Proxy.requestVibrationParams:(IJLandroid/os/IBinder;)V -->
<g id="edge11" class="edge">
<title>m::com.android.server.vibrator.VibratorControlService.triggerVibrationParamsRequest:(III)Ljava/util/concurrent/CompletableFuture;&#45;&gt;m::android.frameworks.vibrator.IVibratorController$Stub$Proxy.requestVibrationParams:(IJLandroid/os/IBinder;)V</title>
<path fill="none" stroke="#64748b" d="M233,-154.81C233,-146.18 233,-135.56 233,-126.03"/>
<polygon fill="#64748b" stroke="#64748b" points="235.8,-126.03 233,-118.03 230.2,-126.03 235.8,-126.03"/>
</g>
<!-- __ipc__ -->
<g id="node12" class="node">
<title>__ipc__</title>
<path fill="#fde68a" stroke="#d97706" stroke-width="2" d="M277,-36C277,-36 189,-36 189,-36 183,-36 177,-30 177,-24 177,-24 177,-12 177,-12 177,-6 183,0 189,0 189,0 277,0 277,0 283,0 289,-6 289,-12 289,-12 289,-24 289,-24 289,-30 283,-36 277,-36"/>
<text text-anchor="middle" x="233" y="-21.2" font-family="Helvetica,sans-Serif" font-size="11.00">Binder IPC</text>
<text text-anchor="middle" x="233" y="-9.2" font-family="Helvetica,sans-Serif" font-size="11.00">(remote process)</text>
</g>
<!-- m::android.frameworks.vibrator.IVibratorController$Stub$Proxy.requestVibrationParams:(IJLandroid/os/IBinder;)V&#45;&gt;__ipc__ -->
<g id="edge12" class="edge">
<title>m::android.frameworks.vibrator.IVibratorController$Stub$Proxy.requestVibrationParams:(IJLandroid/os/IBinder;)V&#45;&gt;__ipc__</title>
<path fill="none" stroke="#d97706" stroke-width="1.6" d="M233,-81.64C233,-70.66 233,-56.29 233,-44.09"/>
<polygon fill="#d97706" stroke="#d97706" stroke-width="1.6" points="235.8,-44.05 233,-36.05 230.2,-44.05 235.8,-44.05"/>
<text text-anchor="middle" x="256" y="-56.8" font-family="Helvetica,sans-Serif" font-size="9.00" fill="#b45309"> transacts</text>
</g>
<!-- com.android.server.vibrator.VibratorManagerService.mLock -->
<g id="node13" class="node">
<title>com.android.server.vibrator.VibratorManagerService.mLock</title>
<path fill="#fee2e2" stroke="#dc2626" stroke-width="2" d="M315,-930C315,-930 151,-930 151,-930 145,-930 139,-924 139,-918 139,-918 139,-906 139,-906 139,-900 145,-894 151,-894 151,-894 315,-894 315,-894 321,-894 327,-900 327,-906 327,-906 327,-918 327,-918 327,-924 321,-930 315,-930"/>
<text text-anchor="middle" x="233" y="-909.2" font-family="Helvetica,sans-Serif" font-size="11.00">VibratorManagerService.mLock</text>
</g>
<!-- com.android.server.vibrator.VibratorManagerService.mLock&#45;&gt;m::com.android.server.vibrator.VibratorManagerService$ExternalVibratorService.onExternalVibrationStart:(Landroid/os/ExternalVibration;)Landroid/os/ExternalVibrationScale; -->
<g id="edge1" class="edge">
<title>com.android.server.vibrator.VibratorManagerService.mLock&#45;&gt;m::com.android.server.vibrator.VibratorManagerService$ExternalVibratorService.onExternalVibrationStart:(Landroid/os/ExternalVibration;)Landroid/os/ExternalVibrationScale;</title>
<path fill="none" stroke="#dc2626" stroke-width="1.6" d="M233,-893.64C233,-882.66 233,-868.29 233,-856.09"/>
<polygon fill="#dc2626" stroke="#dc2626" stroke-width="1.6" points="235.8,-856.05 233,-848.05 230.2,-856.05 235.8,-856.05"/>
<text text-anchor="middle" x="250" y="-868.8" font-family="Helvetica,sans-Serif" font-size="9.00" fill="#dc2626"> held in</text>
</g>
</g>
</svg>
