<?xml version="1.0" encoding="UTF-8" standalone="no"?>
<!DOCTYPE svg PUBLIC "-//W3C//DTD SVG 1.1//EN"
 "http://www.w3.org/Graphics/SVG/1.1/DTD/svg11.dtd">
<!-- Generated by graphviz version 2.43.0 (0)
 -->
<!-- Title: binder Pages: 1 -->
<svg width="287pt" height="573pt"
 viewBox="0.00 0.00 287.00 573.00" xmlns="http://www.w3.org/2000/svg" xmlns:xlink="http://www.w3.org/1999/xlink">
<g id="graph0" class="graph" transform="scale(1 1) rotate(0) translate(4 569)">
<title>binder</title>
<polygon fill="white" stroke="transparent" points="-4,4 -4,-569 283,-569 283,4 -4,4"/>
<!-- m::com.android.server.notification.NotificationAttentionHelper.loadUserSettings:()V -->
<g id="node1" class="node">
<title>m::com.android.server.notification.NotificationAttentionHelper.loadUserSettings:()V</title>
<path fill="#eef2ff" stroke="#a5b4fc" d="M259,-483C259,-483 20,-483 20,-483 14,-483 8,-477 8,-471 8,-471 8,-459 8,-459 8,-453 14,-447 20,-447 20,-447 259,-447 259,-447 265,-447 271,-453 271,-459 271,-459 271,-471 271,-471 271,-477 265,-483 259,-483"/>
<text text-anchor="middle" x="139.5" y="-462.2" font-family="Helvetica,sans-Serif" font-size="11.00">NotificationAttentionHelper.loadUserSettings</text>
</g>
<!-- m::com.android.server.notification.NotificationAttentionHelper.updateLightsLocked:()V -->
<g id="node2" class="node">
<title>m::com.android.server.notification.NotificationAttentionHelper.updateLightsLocked:()V</title>
<path fill="#eef2ff" stroke="#a5b4fc" d="M267,-410C267,-410 12,-410 12,-410 6,-410 0,-404 0,-398 0,-398 0,-386 0,-386 0,-380 6,-374 12,-374 12,-374 267,-374 267,-374 273,-374 279,-380 279,-386 279,-386 279,-398 279,-398 279,-404 273,-410 267,-410"/>
<text text-anchor="middle" x="139.5" y="-389.2" font-family="Helvetica,sans-Serif" font-size="11.00">NotificationAttentionHelper.updateLightsLocked</text>
</g>
<!-- m::com.android.server.notification.NotificationAttentionHelper.loadUserSettings:()V&#45;&gt;m::com.android.server.notification.NotificationAttentionHelper.updateLightsLocked:()V -->
<g id="edge2" class="edge">
<title>m::com.android.server.notification.NotificationAttentionHelper.loadUserSettings:()V&#45;&gt;m::com.android.server.notification.NotificationAttentionHelper.updateLightsLocked:()V</title>
<path fill="none" stroke="#64748b" d="M139.5,-446.81C139.5,-438.18 139.5,-427.56 139.5,-418.03"/>
<polygon fill="#64748b" stroke="#64748b" points="142.3,-418.03 139.5,-410.03 136.7,-418.03 142.3,-418.03"/>
</g>
<!-- m::com.android.server.lights.LightsService$LightImpl.setFlashing:(IIII)V -->
<g id="node3" class="node">
<title>m::com.android.server.lights.LightsService$LightImpl.setFlashing:(IIII)V</title>
<path fill="#eef2ff" stroke="#a5b4fc" d="M234,-337C234,-337 45,-337 45,-337 39,-337 33,-331 33,-325 33,-325 33,-313 33,-313 33,-307 39,-301 45,-301 45,-301 234,-301 234,-301 240,-301 246,-307 246,-313 246,-313 246,-325 246,-325 246,-331 240,-337 234,-337"/>
<text text-anchor="middle" x="139.5" y="-316.2" font-family="Helvetica,sans-Serif" font-size="11.00">LightsService$LightImpl.setFlashing</text>
</g>
<!-- m::com.android.server.notification.NotificationAttentionHelper.updateLightsLocked:()V&#45;&gt;m::com.android.server.lights.LightsService$LightImpl.setFlashing:(IIII)V -->
<g id="edge3" class="edge">
<title>m::com.android.server.notification.NotificationAttentionHelper.updateLightsLocked:()V&#45;&gt;m::com.android.server.lights.LightsService$LightImpl.setFlashing:(IIII)V</title>
<path fill="none" stroke="#64748b" d="M139.5,-373.81C139.5,-365.18 139.5,-354.56 139.5,-345.03"/>
<polygon fill="#64748b" stroke="#64748b" points="142.3,-345.03 139.5,-337.03 136.7,-345.03 142.3,-345.03"/>
</g>
<!-- m::com.android.server.lights.LightsService$LightImpl.setLightLocked:(IIIII)V -->
<g id="node4" class="node">
<title>m::com.android.server.lights.LightsService$LightImpl.setLightLocked:(IIIII)V</title>
<path fill="#eef2ff" stroke="#a5b4fc" d="M244,-264C244,-264 35,-264 35,-264 29,-264 23,-258 23,-252 23,-252 23,-240 23,-240 23,-234 29,-228 35,-228 35,-228 244,-228 244,-228 250,-228 256,-234 256,-240 256,-240 256,-252 256,-252 256,-258 250,-264 244,-264"/>
<text text-anchor="middle" x="139.5" y="-243.2" font-family="Helvetica,sans-Serif" font-size="11.00">LightsService$LightImpl.setLightLocked</text>
</g>
<!-- m::com.android.server.lights.LightsService$LightImpl.setFlashing:(IIII)V&#45;&gt;m::com.android.server.lights.LightsService$LightImpl.setLightLocked:(IIIII)V -->
<g id="edge4" class="edge">
<title>m::com.android.server.lights.LightsService$LightImpl.setFlashing:(IIII)V&#45;&gt;m::com.android.server.lights.LightsService$LightImpl.setLightLocked:(IIIII)V</title>
<path fill="none" stroke="#64748b" d="M139.5,-300.81C139.5,-292.18 139.5,-281.56 139.5,-272.03"/>
<polygon fill="#64748b" stroke="#64748b" points="142.3,-272.03 139.5,-264.03 136.7,-272.03 142.3,-272.03"/>
</g>
<!-- m::com.android.server.lights.LightsService$LightImpl.setLightUnchecked:(IIIII)V -->
<g id="node5" class="node">
<title>m::com.android.server.lights.LightsService$LightImpl.setLightUnchecked:(IIIII)V</title>
<path fill="#eef2ff" stroke="#a5b4fc" d="M255,-191C255,-191 24,-191 24,-191 18,-191 12,-185 12,-179 12,-179 12,-167 12,-167 12,-161 18,-155 24,-155 24,-155 255,-155 255,-155 261,-155 267,-161 267,-167 267,-167 267,-179 267,-179 267,-185 261,-191 255,-191"/>
<text text-anchor="middle" x="139.5" y="-170.2" font-family="Helvetica,sans-Serif" font-size="11.00">LightsService$LightImpl.setLightUnchecked</text>
</g>
<!-- m::com.android.server.lights.LightsService$LightImpl.setLightLocked:(IIIII)V&#45;&gt;m::com.android.server.lights.LightsService$LightImpl.setLightUnchecked:(IIIII)V -->
<g id="edge5" class="edge">
<title>m::com.android.server.lights.LightsService$LightImpl.setLightLocked:(IIIII)V&#45;&gt;m::com.android.server.lights.LightsService$LightImpl.setLightUnchecked:(IIIII)V</title>
<path fill="none" stroke="#64748b" d="M139.5,-227.81C139.5,-219.18 139.5,-208.56 139.5,-199.03"/>
<polygon fill="#64748b" stroke="#64748b" points="142.3,-199.03 139.5,-191.03 136.7,-199.03 142.3,-199.03"/>
</g>
<!-- m::android.hardware.light.ILights$Stub$Proxy.setLightState:(ILandroid/hardware/light/HwLightState;)V -->
<g id="node6" class="node">
<title>m::android.hardware.light.ILights$Stub$Proxy.setLightState:(ILandroid/hardware/light/HwLightState;)V</title>
<path fill="#eef2ff" stroke="#a5b4fc" d="M226.5,-118C226.5,-118 52.5,-118 52.5,-118 46.5,-118 40.5,-112 40.5,-106 40.5,-106 40.5,-94 40.5,-94 40.5,-88 46.5,-82 52.5,-82 52.5,-82 226.5,-82 226.5,-82 232.5,-82 238.5,-88 238.5,-94 238.5,-94 238.5,-106 238.5,-106 238.5,-112 232.5,-118 226.5,-118"/>
<text text-anchor="middle" x="139.5" y="-97.2" font-family="Helvetica,sans-Serif" font-size="11.00">ILights$Stub$Proxy.setLightState</text>
</g>
<!-- m::com.android.server.lights.LightsService$LightImpl.setLightUnchecked:(IIIII)V&#45;&gt;m::android.hardware.light.ILights$Stub$Proxy.setLightState:(ILandroid/hardware/light/HwLightState;)V -->
<g id="edge6" class="edge">
<title>m::com.android.server.lights.LightsService$LightImpl.setLightUnchecked:(IIIII)V&#45;&gt;m::android.hardware.light.ILights$Stub$Proxy.setLightState:(ILandroid/hardware/light/HwLightState;)V</title>
<path fill="none" stroke="#64748b" d="M139.5,-154.81C139.5,-146.18 139.5,-135.56 139.5,-126.03"/>
<polygon fill="#64748b" stroke="#64748b" points="142.3,-126.03 139.5,-118.03 136.7,-126.03 142.3,-126.03"/>
</g>
<!-- __ipc__ -->
<g id="node7" class="node">
<title>__ipc__</title>
<path fill="#fde68a" stroke="#d97706" stroke-width="2" d="M183.5,-36C183.5,-36 95.5,-36 95.5,-36 89.5,-36 83.5,-30 83.5,-24 83.5,-24 83.5,-12 83.5,-12 83.5,-6 89.5,0 95.5,0 95.5,0 183.5,0 183.5,0 189.5,0 195.5,-6 195.5,-12 195.5,-12 195.5,-24 195.5,-24 195.5,-30 189.5,-36 183.5,-36"/>
<text text-anchor="middle" x="139.5" y="-21.2" font-family="Helvetica,sans-Serif" font-size="11.00">Binder IPC</text>
<text text-anchor="middle" x="139.5" y="-9.2" font-family="Helvetica,sans-Serif" font-size="11.00">(remote process)</text>
</g>
<!-- m::android.hardware.light.ILights$Stub$Proxy.setLightState:(ILandroid/hardware/light/HwLightState;)V&#45;&gt;__ipc__ -->
<g id="edge7" class="edge">
<title>m::android.hardware.light.ILights$Stub$Proxy.setLightState:(ILandroid/hardware/light/HwLightState;)V&#45;&gt;__ipc__</title>
<path fill="none" stroke="#d97706" stroke-width="1.6" d="M139.5,-81.64C139.5,-70.66 139.5,-56.29 139.5,-44.09"/>
<polygon fill="#d97706" stroke="#d97706" stroke-width="1.6" points="142.3,-44.05 139.5,-36.05 136.7,-44.05 142.3,-44.05"/>
<text text-anchor="middle" x="162.5" y="-56.8" font-family="Helvetica,sans-Serif" font-size="9.00" fill="#b45309"> transacts</text>
</g>
<!-- com.android.server.notification.NotificationManagerService.mNotificationLock -->
<g id="node8" class="node">
<title>com.android.server.notification.NotificationManagerService.mNotificationLock</title>
<path fill="#fee2e2" stroke="#dc2626" stroke-width="2" d="M262.5,-565C262.5,-565 16.5,-565 16.5,-565 10.5,-565 4.5,-559 4.5,-553 4.5,-553 4.5,-541 4.5,-541 4.5,-535 10.5,-529 16.5,-529 16.5,-529 262.5,-529 262.5,-529 268.5,-529 274.5,-535 274.5,-541 274.5,-541 274.5,-553 274.5,-553 274.5,-559 268.5,-565 262.5,-565"/>
<text text-anchor="middle" x="139.5" y="-544.2" font-family="Helvetica,sans-Serif" font-size="11.00">NotificationManagerService.mNotificationLock</text>
</g>
<!-- com.android.server.notification.NotificationManagerService.mNotificationLock&#45;&gt;m::com.android.server.notification.NotificationAttentionHelper.loadUserSettings:()V -->
<g id="edge1" class="edge">
<title>com.android.server.notification.NotificationManagerService.mNotificationLock&#45;&gt;m::com.android.server.notification.NotificationAttentionHelper.loadUserSettings:()V</title>
<path fill="none" stroke="#dc2626" stroke-width="1.6" d="M139.5,-528.64C139.5,-517.66 139.5,-503.29 139.5,-491.09"/>
<polygon fill="#dc2626" stroke="#dc2626" stroke-width="1.6" points="142.3,-491.05 139.5,-483.05 136.7,-491.05 142.3,-491.05"/>
<text text-anchor="middle" x="156.5" y="-503.8" font-family="Helvetica,sans-Serif" font-size="9.00" fill="#dc2626"> held in</text>
</g>
</g>
</svg>
