<?xml version="1.0" encoding="UTF-8" standalone="no"?>
<!DOCTYPE svg PUBLIC "-//W3C//DTD SVG 1.1//EN"
 "http://www.w3.org/Graphics/SVG/1.1/DTD/svg11.dtd">
<!-- Generated by graphviz version 2.43.0 (0)
 -->
<!-- Title: binder Pages: 1 -->
<svg width="278pt" height="500pt"
 viewBox="0.00 0.00 278.00 500.00" xmlns="http://www.w3.org/2000/svg" xmlns:xlink="http://www.w3.org/1999/xlink">
<g id="graph0" class="graph" transform="scale(1 1) rotate(0) translate(4 496)">
<title>binder</title>
<polygon fill="white" stroke="transparent" points="-4,4 -4,-496 274,-496 274,4 -4,4"/>
<!-- m::com.android.server.notification.NotificationAttentionHelper$3.onReceive:(Landroid/content/Context;Landroid/content/Intent;)V -->
<g id="node1" class="node">
<title>m::com.android.server.notification.NotificationAttentionHelper$3.onReceive:(Landroid/content/Context;Landroid/content/Intent;)V</title>
<path fill="#eef2ff" stroke="#a5b4fc" d="M243.5,-410C243.5,-410 26.5,-410 26.5,-410 20.5,-410 14.5,-404 14.5,-398 14.5,-398 14.5,-386 14.5,-386 14.5,-380 20.5,-374 26.5,-374 26.5,-374 243.5,-374 243.5,-374 249.5,-374 255.5,-380 255.5,-386 255.5,-386 255.5,-398 255.5,-398 255.5,-404 249.5,-410 243.5,-410"/>
<text text-anchor="middle" x="135" y="-389.2" font-family="Helvetica,sans-Serif" font-size="11.00">NotificationAttentionHelper$3.onReceive</text>
</g>
<!-- m::com.android.server.lights.LightsService$LightImpl.turnOff:()V -->
<g id="node2" class="node">
<title>m::com.android.server.lights.LightsService$LightImpl.turnOff:()V</title>
<path fill="#eef2ff" stroke="#a5b4fc" d="M218,-337C218,-337 52,-337 52,-337 46,-337 40,-331 40,-325 40,-325 40,-313 40,-313 40,-307 46,-301 52,-301 52,-301 218,-301 218,-301 224,-301 230,-307 230,-313 230,-313 230,-325 230,-325 230,-331 224,-337 218,-337"/>
<text text-anchor="middle" x="135" y="-316.2" font-family="Helvetica,sans-Serif" font-size="11.00">LightsService$LightImpl.turnOff</text>
</g>
<!-- m::com.android.server.notification.NotificationAttentionHelper$3.onReceive:(Landroid/content/Context;Landroid/content/Intent;)V&#45;&gt;m::com.android.server.lights.LightsService$LightImpl.turnOff:()V -->
<g id="edge2" class="edge">
<title>m::com.android.server.notification.NotificationAttentionHelper$3.onReceive:(Landroid/content/Context;Landroid/content/Intent;)V&#45;&gt;m::com.android.server.lights.LightsService$LightImpl.turnOff:()V</title>
<path fill="none" stroke="#64748b" d="M135,-373.81C135,-365.18 135,-354.56 135,-345.03"/>
<polygon fill="#64748b" stroke="#64748b" points="137.8,-345.03 135,-337.03 132.2,-345.03 137.8,-345.03"/>
</g>
<!-- m::com.android.server.lights.LightsService$LightImpl.setLightLocked:(IIIII)V -->
<g id="node3" class="node">
<title>m::com.android.server.lights.LightsService$LightImpl.setLightLocked:(IIIII)V</title>
<path fill="#eef2ff" stroke="#a5b4fc" d="M239.5,-264C239.5,-264 30.5,-264 30.5,-264 24.5,-264 18.5,-258 18.5,-252 18.5,-252 18.5,-240 18.5,-240 18.5,-234 24.5,-228 30.5,-228 30.5,-228 239.5,-228 239.5,-228 245.5,-228 251.5,-234 251.5,-240 251.5,-240 251.5,-252 251.5,-252 251.5,-258 245.5,-264 239.5,-264"/>
<text text-anchor="middle" x="135" y="-243.2" font-family="Helvetica,sans-Serif" font-size="11.00">LightsService$LightImpl.setLightLocked</text>
</g>
<!-- m::com.android.server.lights.LightsService$LightImpl.turnOff:()V&#45;&gt;m::com.android.server.lights.LightsService$LightImpl.setLightLocked:(IIIII)V -->
<g id="edge3" class="edge">
<title>m::com.android.server.lights.LightsService$LightImpl.turnOff:()V&#45;&gt;m::com.android.server.lights.LightsService$LightImpl.setLightLocked:(IIIII)V</title>
<path fill="none" stroke="#64748b" d="M135,-300.81C135,-292.18 135,-281.56 135,-272.03"/>
<polygon fill="#64748b" stroke="#64748b" points="137.8,-272.03 135,-264.03 132.2,-272.03 137.8,-272.03"/>
</g>
<!-- m::com.android.server.lights.LightsService$LightImpl.setLightUnchecked:(IIIII)V -->
<g id="node4" class="node">
<title>m::com.android.server.lights.LightsService$LightImpl.setLightUnchecked:(IIIII)V</title>
<path fill="#eef2ff" stroke="#a5b4fc" d="M250.5,-191C250.5,-191 19.5,-191 19.5,-191 13.5,-191 7.5,-185 7.5,-179 7.5,-179 7.5,-167 7.5,-167 7.5,-161 13.5,-155 19.5,-155 19.5,-155 250.5,-155 250.5,-155 256.5,-155 262.5,-161 262.5,-167 262.5,-167 262.5,-179 262.5,-179 262.5,-185 256.5,-191 250.5,-191"/>
<text text-anchor="middle" x="135" y="-170.2" font-family="Helvetica,sans-Serif" font-size="11.00">LightsService$LightImpl.setLightUnchecked</text>
</g>
<!-- m::com.android.server.lights.LightsService$LightImpl.setLightLocked:(IIIII)V&#45;&gt;m::com.android.server.lights.LightsService$LightImpl.setLightUnchecked:(IIIII)V -->
<g id="edge4" class="edge">
<title>m::com.android.server.lights.LightsService$LightImpl.setLightLocked:(IIIII)V&#45;&gt;m::com.android.server.lights.LightsService$LightImpl.setLightUnchecked:(IIIII)V</title>
<path fill="none" stroke="#64748b" d="M135,-227.81C135,-219.18 135,-208.56 135,-199.03"/>
<polygon fill="#64748b" stroke="#64748b" points="137.8,-199.03 135,-191.03 132.2,-199.03 137.8,-199.03"/>
</g>
<!-- m::android.hardware.light.ILights$Stub$Proxy.setLightState:(ILandroid/hardware/light/HwLightState;)V -->
<g id="node5" class="node">
<title>m::android.hardware.light.ILights$Stub$Proxy.setLightState:(ILandroid/hardware/light/HwLightState;)V</title>
<path fill="#eef2ff" stroke="#a5b4fc" d="M222,-118C222,-118 48,-118 48,-118 42,-118 36,-112 36,-106 36,-106 36,-94 36,-94 36,-88 42,-82 48,-82 48,-82 222,-82 222,-82 228,-82 234,-88 234,-94 234,-94 234,-106 234,-106 234,-112 228,-118 222,-118"/>
<text text-anchor="middle" x="135" y="-97.2" font-family="Helvetica,sans-Serif" font-size="11.00">ILights$Stub$Proxy.setLightState</text>
</g>
<!-- m::com.android.server.lights.LightsService$LightImpl.setLightUnchecked:(IIIII)V&#45;&gt;m::android.hardware.light.ILights$Stub$Proxy.setLightState:(ILandroid/hardware/light/HwLightState;)V -->
<g id="edge5" class="edge">
<title>m::com.android.server.lights.LightsService$LightImpl.setLightUnchecked:(IIIII)V&#45;&gt;m::android.hardware.light.ILights$Stub$Proxy.setLightState:(ILandroid/hardware/light/HwLightState;)V</title>
<path fill="none" stroke="#64748b" d="M135,-154.81C135,-146.18 135,-135.56 135,-126.03"/>
<polygon fill="#64748b" stroke="#64748b" points="137.8,-126.03 135,-118.03 132.2,-126.03 137.8,-126.03"/>
</g>
<!-- __ipc__ -->
<g id="node6" class="node">
<title>__ipc__</title>
<path fill="#fde68a" stroke="#d97706" stroke-width="2" d="M179,-36C179,-36 91,-36 91,-36 85,-36 79,-30 79,-24 79,-24 79,-12 79,-12 79,-6 85,0 91,0 91,0 179,0 179,0 185,0 191,-6 191,-12 191,-12 191,-24 191,-24 191,-30 185,-36 179,-36"/>
<text text-anchor="middle" x="135" y="-21.2" font-family="Helvetica,sans-Serif" font-size="11.00">Binder IPC</text>
<text text-anchor="middle" x="135" y="-9.2" font-family="Helvetica,sans-Serif" font-size="11.00">(remote process)</text>
</g>
<!-- m::android.hardware.light.ILights$Stub$Proxy.setLightState:(ILandroid/hardware/light/HwLightState;)V&#45;&gt;__ipc__ -->
<g id="edge6" class="edge">
<title>m::android.hardware.light.ILights$Stub$Proxy.setLightState:(ILandroid/hardware/light/HwLightState;)V&#45;&gt;__ipc__</title>
<path fill="none" stroke="#d97706" stroke-width="1.6" d="M135,-81.64C135,-70.66 135,-56.29 135,-44.09"/>
<polygon fill="#d97706" stroke="#d97706" stroke-width="1.6" points="137.8,-44.05 135,-36.05 132.2,-44.05 137.8,-44.05"/>
<text text-anchor="middle" x="158" y="-56.8" font-family="Helvetica,sans-Serif" font-size="9.00" fill="#b45309"> transacts</text>
</g>
<!-- com.android.server.notification.NotificationManagerService.mNotificationLock -->
<g id="node7" class="node">
<title>com.android.server.notification.NotificationManagerService.mNotificationLock</title>
<path fill="#fee2e2" stroke="#dc2626" stroke-width="2" d="M258,-492C258,-492 12,-492 12,-492 6,-492 0,-486 0,-480 0,-480 0,-468 0,-468 0,-462 6,-456 12,-456 12,-456 258,-456 258,-456 264,-456 270,-462 270,-468 270,-468 270,-480 270,-480 270,-486 264,-492 258,-492"/>
<text text-anchor="middle" x="135" y="-471.2" font-family="Helvetica,sans-Serif" font-size="11.00">NotificationManagerService.mNotificationLock</text>
</g>
<!-- com.android.server.notification.NotificationManagerService.mNotificationLock&#45;&gt;m::com.android.server.notification.NotificationAttentionHelper$3.onReceive:(Landroid/content/Context;Landroid/content/Intent;)V -->
<g id="edge1" class="edge">
<title>com.android.server.notification.NotificationManagerService.mNotificationLock&#45;&gt;m::com.android.server.notification.NotificationAttentionHelper$3.onReceive:(Landroid/content/Context;Landroid/content/Intent;)V</title>
<path fill="none" stroke="#dc2626" stroke-width="1.6" d="M135,-455.64C135,-444.66 135,-430.29 135,-418.09"/>
<polygon fill="#dc2626" stroke="#dc2626" stroke-width="1.6" points="137.8,-418.05 135,-410.05 132.2,-418.05 137.8,-418.05"/>
<text text-anchor="middle" x="152" y="-430.8" font-family="Helvetica,sans-Serif" font-size="9.00" fill="#dc2626"> held in</text>
</g>
</g>
</svg>
