<?xml version="1.0" encoding="UTF-8" standalone="no"?>
<!DOCTYPE svg PUBLIC "-//W3C//DTD SVG 1.1//EN"
 "http://www.w3.org/Graphics/SVG/1.1/DTD/svg11.dtd">
<!-- Generated by graphviz version 2.43.0 (0)
 -->
<!-- Title: race Pages: 1 -->
<svg width="782pt" height="192pt"
 viewBox="0.00 0.00 782.00 192.00" xmlns="http://www.w3.org/2000/svg" xmlns:xlink="http://www.w3.org/1999/xlink">
<g id="graph0" class="graph" transform="scale(1 1) rotate(0) translate(4 188)">
<title>race</title>
<polygon fill="white" stroke="transparent" points="-4,4 -4,-188 778,-188 778,4 -4,4"/>
<!-- __field__ -->
<g id="node1" class="node">
<title>__field__</title>
<path fill="#fef9c3" stroke="#ca8a04" stroke-width="2" d="M762,-110C762,-110 475,-110 475,-110 469,-110 463,-104 463,-98 463,-98 463,-86 463,-86 463,-80 469,-74 475,-74 475,-74 762,-74 762,-74 768,-74 774,-80 774,-86 774,-86 774,-98 774,-98 774,-104 768,-110 762,-110"/>
<text text-anchor="middle" x="618.5" y="-89.2" font-family="Helvetica,sans-Serif" font-size="11.00">BatteryStatsImpl.mDischargeScreenDozeUnplugLevel</text>
</g>
<!-- __guard__ -->
<g id="node2" class="node">
<title>__guard__</title>
<path fill="#dcfce7" stroke="#16a34a" stroke-width="2" d="M226,-184C226,-184 109,-184 109,-184 103,-184 97,-178 97,-172 97,-172 97,-160 97,-160 97,-154 103,-148 109,-148 109,-148 226,-148 226,-148 232,-148 238,-154 238,-160 238,-160 238,-172 238,-172 238,-178 232,-184 226,-184"/>
<text text-anchor="middle" x="167.5" y="-163.2" font-family="Helvetica,sans-Serif" font-size="11.00">stats.BatteryStatsImpl</text>
</g>
<!-- __guard__&#45;&gt;__field__ -->
<g id="edge1" class="edge">
<title>__guard__&#45;&gt;__field__</title>
<path fill="none" stroke="#16a34a" stroke-width="1.6" d="M238.16,-154.52C308.08,-143 417.06,-125.03 500.3,-111.32"/>
<polygon fill="#16a34a" stroke="#16a34a" stroke-width="1.6" points="500.84,-114.06 508.28,-110 499.93,-108.54 500.84,-114.06"/>
<text text-anchor="middle" x="399" y="-135.8" font-family="Helvetica,sans-Serif" font-size="9.00" fill="#15803d"> guards 6/9</text>
</g>
<!-- m::com.android.server.power.stats.BatteryStatsImpl.updateNewDischargeScreenLevelLocked:(I)V -->
<g id="node3" class="node">
<title>m::com.android.server.power.stats.BatteryStatsImpl.updateNewDischargeScreenLevelLocked:(I)V</title>
<path fill="#fee2e2" stroke="#dc2626" d="M323,-110C323,-110 12,-110 12,-110 6,-110 0,-104 0,-98 0,-98 0,-86 0,-86 0,-80 6,-74 12,-74 12,-74 323,-74 323,-74 329,-74 335,-80 335,-86 335,-86 335,-98 335,-98 335,-104 329,-110 323,-110"/>
<text text-anchor="middle" x="167.5" y="-89.2" font-family="Helvetica,sans-Serif" font-size="11.00">BatteryStatsImpl.updateNewDischargeScreenLevelLocked</text>
</g>
<!-- m::com.android.server.power.stats.BatteryStatsImpl.updateNewDischargeScreenLevelLocked:(I)V&#45;&gt;__field__ -->
<g id="edge2" class="edge">
<title>m::com.android.server.power.stats.BatteryStatsImpl.updateNewDischargeScreenLevelLocked:(I)V&#45;&gt;__field__</title>
<path fill="none" stroke="#dc2626" d="M335.29,-102.51C370.21,-103.65 406.81,-104.06 441,-103 445.41,-102.86 449.88,-102.71 454.4,-102.53"/>
<polygon fill="#dc2626" stroke="#dc2626" points="454.68,-105.32 462.56,-102.2 454.45,-99.73 454.68,-105.32"/>
<text text-anchor="middle" x="399" y="-105.8" font-family="Helvetica,sans-Serif" font-size="9.00" fill="#dc2626"> writes unguarded</text>
</g>
<!-- m::com.android.server.power.stats.BatteryStatsImpl.updateNewDischargeScreenLevelLocked:(I)V&#45;&gt;__field__ -->
<g id="edge3" class="edge">
<title>m::com.android.server.power.stats.BatteryStatsImpl.updateNewDischargeScreenLevelLocked:(I)V&#45;&gt;__field__</title>
<path fill="none" stroke="#dc2626" d="M335.05,-92C374.08,-92 415.62,-92 454.49,-92"/>
<polygon fill="#dc2626" stroke="#dc2626" points="454.74,-94.8 462.74,-92 454.74,-89.2 454.74,-94.8"/>
<text text-anchor="middle" x="399" y="-94.8" font-family="Helvetica,sans-Serif" font-size="9.00" fill="#dc2626"> writes unguarded</text>
</g>
<!-- m::com.android.server.power.stats.BatteryStatsImpl.updateNewDischargeScreenLevelLocked:(I)V&#45;&gt;__field__ -->
<g id="edge4" class="edge">
<title>m::com.android.server.power.stats.BatteryStatsImpl.updateNewDischargeScreenLevelLocked:(I)V&#45;&gt;__field__</title>
<path fill="none" stroke="#dc2626" d="M335.27,-77.67C370.2,-76.11 406.8,-75.55 441,-77 445.42,-77.19 449.89,-77.4 454.41,-77.64"/>
<polygon fill="#dc2626" stroke="#dc2626" points="454.44,-80.44 462.58,-78.09 454.75,-74.85 454.44,-80.44"/>
<text text-anchor="middle" x="399" y="-79.8" font-family="Helvetica,sans-Serif" font-size="9.00" fill="#dc2626"> writes unguarded</text>
</g>
<!-- m::com.android.server.power.stats.BatteryStatsImpl.updateOldDischargeScreenLevelLocked:(I)V -->
<g id="node4" class="node">
<title>m::com.android.server.power.stats.BatteryStatsImpl.updateOldDischargeScreenLevelLocked:(I)V</title>
<path fill="#fee2e2" stroke="#dc2626" d="M320.5,-36C320.5,-36 14.5,-36 14.5,-36 8.5,-36 2.5,-30 2.5,-24 2.5,-24 2.5,-12 2.5,-12 2.5,-6 8.5,0 14.5,0 14.5,0 320.5,0 320.5,0 326.5,0 332.5,-6 332.5,-12 332.5,-12 332.5,-24 332.5,-24 332.5,-30 326.5,-36 320.5,-36"/>
<text text-anchor="middle" x="167.5" y="-15.2" font-family="Helvetica,sans-Serif" font-size="11.00">BatteryStatsImpl.updateOldDischargeScreenLevelLocked</text>
</g>
<!-- m::com.android.server.power.stats.BatteryStatsImpl.updateOldDischargeScreenLevelLocked:(I)V&#45;&gt;__field__ -->
<g id="edge5" class="edge">
<title>m::com.android.server.power.stats.BatteryStatsImpl.updateOldDischargeScreenLevelLocked:(I)V&#45;&gt;__field__</title>
<path fill="none" stroke="#dc2626" d="M285.6,-36.02C333.77,-43.55 390.1,-52.51 441,-61 462.96,-64.66 486.44,-68.7 508.86,-72.61"/>
<polygon fill="#dc2626" stroke="#dc2626" points="508.39,-75.37 516.75,-73.99 509.35,-69.86 508.39,-75.37"/>
<text text-anchor="middle" x="399" y="-63.8" font-family="Helvetica,sans-Serif" font-size="9.00" fill="#dc2626"> reads unguarded</text>
</g>
</g>
</svg>
