<?xml version="1.0" encoding="UTF-8" standalone="no"?>
<!DOCTYPE svg PUBLIC "-//W3C//DTD SVG 1.1//EN"
 "http://www.w3.org/Graphics/SVG/1.1/DTD/svg11.dtd">
<!-- Generated by graphviz version 2.43.0 (0)
 -->
<!-- Title: race Pages: 1 -->
<svg width="617pt" height="110pt"
 viewBox="0.00 0.00 617.00 110.00" xmlns="http://www.w3.org/2000/svg" xmlns:xlink="http://www.w3.org/1999/xlink">
<g id="graph0" class="graph" transform="scale(1 1) rotate(0) translate(4 106)">
<title>race</title>
<polygon fill="white" stroke="transparent" points="-4,4 -4,-106 613,-106 613,4 -4,4"/>
<!-- __field__ -->
<g id="node1" class="node">
<title>__field__</title>
<path fill="#fef9c3" stroke="#ca8a04" stroke-width="2" d="M597,-65C597,-65 364,-65 364,-65 358,-65 352,-59 352,-53 352,-53 352,-41 352,-41 352,-35 358,-29 364,-29 364,-29 597,-29 597,-29 603,-29 609,-35 609,-41 609,-41 609,-53 609,-53 609,-59 603,-65 597,-65"/>
<text text-anchor="middle" x="480.5" y="-44.2" font-family="Helvetica,sans-Serif" font-size="11.00">ActivityManagerService.mWaitForDebugger</text>
</g>
<!-- __guard__ -->
<g id="node2" class="node">
<title>__guard__</title>
<path fill="#dcfce7" stroke="#16a34a" stroke-width="2" d="M184,-102C184,-102 40,-102 40,-102 34,-102 28,-96 28,-90 28,-90 28,-78 28,-78 28,-72 34,-66 40,-66 40,-66 184,-66 184,-66 190,-66 196,-72 196,-78 196,-78 196,-90 196,-90 196,-96 190,-102 184,-102"/>
<text text-anchor="middle" x="112" y="-81.2" font-family="Helvetica,sans-Serif" font-size="11.00">am.ActivityManagerService</text>
</g>
<!-- __guard__&#45;&gt;__field__ -->
<g id="edge1" class="edge">
<title>__guard__&#45;&gt;__field__</title>
<path fill="none" stroke="#16a34a" stroke-width="1.6" d="M196.16,-75.6C239.68,-71.21 294.05,-65.72 343.5,-60.73"/>
<polygon fill="#16a34a" stroke="#16a34a" stroke-width="1.6" points="344.03,-63.49 351.71,-59.9 343.47,-57.92 344.03,-63.49"/>
<text text-anchor="middle" x="288" y="-71.8" font-family="Helvetica,sans-Serif" font-size="9.00" fill="#15803d"> guards 2/3</text>
</g>
<!-- m::com.android.server.am.ActivityManagerService.setDebugApp:(Ljava/lang/String;ZZZ)V -->
<g id="node3" class="node">
<title>m::com.android.server.am.ActivityManagerService.setDebugApp:(Ljava/lang/String;ZZZ)V</title>
<path fill="#fee2e2" stroke="#dc2626" d="M212,-36C212,-36 12,-36 12,-36 6,-36 0,-30 0,-24 0,-24 0,-12 0,-12 0,-6 6,0 12,0 12,0 212,0 212,0 218,0 224,-6 224,-12 224,-12 224,-24 224,-24 224,-30 218,-36 212,-36"/>
<text text-anchor="middle" x="112" y="-15.2" font-family="Helvetica,sans-Serif" font-size="11.00">ActivityManagerService.setDebugApp</text>
</g>
<!-- m::com.android.server.am.ActivityManagerService.setDebugApp:(Ljava/lang/String;ZZZ)V&#45;&gt;__field__ -->
<g id="edge2" class="edge">
<title>m::com.android.server.am.ActivityManagerService.setDebugApp:(Ljava/lang/String;ZZZ)V&#45;&gt;__field__</title>
<path fill="none" stroke="#dc2626" d="M224.45,-26.82C262.01,-29.79 304.34,-33.14 343.57,-36.24"/>
<polygon fill="#dc2626" stroke="#dc2626" points="343.69,-39.06 351.89,-36.9 344.13,-33.48 343.69,-39.06"/>
<text text-anchor="middle" x="288" y="-37.8" font-family="Helvetica,sans-Serif" font-size="9.00" fill="#dc2626"> writes unguarded</text>
</g>
<!-- m::com.android.server.am.ActivityManagerService.setDebugApp:(Ljava/lang/String;ZZZ)V&#45;&gt;__field__ -->
<g id="edge3" class="edge">
<title>m::com.android.server.am.ActivityManagerService.setDebugApp:(Ljava/lang/String;ZZZ)V&#45;&gt;__field__</title>
<path fill="none" stroke="#dc2626" d="M224.03,-14.41C231.46,-14.25 238.84,-14.11 246,-14 283.33,-13.44 292.89,-9.95 330,-14 354.57,-16.68 381.02,-21.77 404.73,-27.16"/>
<polygon fill="#dc2626" stroke="#dc2626" points="404.24,-29.92 412.66,-29 405.5,-24.46 404.24,-29.92"/>
<text text-anchor="middle" x="288" y="-16.8" font-family="Helvetica,sans-Serif" font-size="9.00" fill="#dc2626"> reads unguarded</text>
</g>
</g>
</svg>
