<?xml version="1.0" encoding="UTF-8" standalone="no"?>
<!DOCTYPE svg PUBLIC "-//W3C//DTD SVG 1.1//EN"
 "http://www.w3.org/Graphics/SVG/1.1/DTD/svg11.dtd">
<!-- Generated by graphviz version 2.43.0 (0)
 -->
<!-- Title: race Pages: 1 -->
<svg width="526pt" height="160pt"
 viewBox="0.00 0.00 526.00 160.00" xmlns="http://www.w3.org/2000/svg" xmlns:xlink="http://www.w3.org/1999/xlink">
<g id="graph0" class="graph" transform="scale(1 1) rotate(0) translate(4 156)">
<title>race</title>
<polygon fill="white" stroke="transparent" points="-4,4 -4,-156 522,-156 522,4 -4,4"/>
<!-- __field__ -->
<g id="node1" class="node">
<title>__field__</title>
<path fill="#fef9c3" stroke="#ca8a04" stroke-width="2" d="M506,-94C506,-94 385,-94 385,-94 379,-94 373,-88 373,-82 373,-82 373,-70 373,-70 373,-64 379,-58 385,-58 385,-58 506,-58 506,-58 512,-58 518,-64 518,-70 518,-70 518,-82 518,-82 518,-88 512,-94 506,-94"/>
<text text-anchor="middle" x="445.5" y="-73.2" font-family="Helvetica,sans-Serif" font-size="11.00">ActivityInfo.taskAffinity</text>
</g>
<!-- __guard__ -->
<g id="node2" class="node">
<title>__guard__</title>
<path fill="#dcfce7" stroke="#16a34a" stroke-width="2" d="M233,-152C233,-152 12,-152 12,-152 6,-152 0,-146 0,-140 0,-140 0,-128 0,-128 0,-122 6,-116 12,-116 12,-116 233,-116 233,-116 239,-116 245,-122 245,-128 245,-128 245,-140 245,-140 245,-146 239,-152 233,-152"/>
<text text-anchor="middle" x="122.5" y="-131.2" font-family="Helvetica,sans-Serif" font-size="11.00">ActivityTaskManagerService.mGlobalLock</text>
</g>
<!-- __guard__&#45;&gt;__field__ -->
<g id="edge1" class="edge">
<title>__guard__&#45;&gt;__field__</title>
<path fill="none" stroke="#16a34a" stroke-width="1.6" d="M223.31,-115.97C268.78,-107.75 321.87,-98.16 364.65,-90.43"/>
<polygon fill="#16a34a" stroke="#16a34a" stroke-width="1.6" points="365.41,-93.14 372.78,-88.96 364.41,-87.63 365.41,-93.14"/>
<text text-anchor="middle" x="309" y="-108.8" font-family="Helvetica,sans-Serif" font-size="9.00" fill="#15803d"> guards 2/3</text>
</g>
<!-- m::com.android.server.pm.parsing.PackageInfoUtils.generateActivityInfo:(Lcom/android/server/pm/pkg/AndroidPackage;Lcom/android/internal/pm/pkg/component/ParsedActivity;JLcom/android/server/pm/pkg/PackageUserStateInternal;Landroid/content/pm/ApplicationInfo;ILcom/android/server/pm/pkg/PackageStateInternal;)Landroid/content/pm/ActivityInfo; -->
<g id="node3" class="node">
<title>m::com.android.server.pm.parsing.PackageInfoUtils.generateActivityInfo:(Lcom/android/server/pm/pkg/AndroidPackage;Lcom/android/internal/pm/pkg/component/ParsedActivity;JLcom/android/server/pm/pkg/PackageUserStateInternal;Landroid/content/pm/ApplicationInfo;ILcom/android/server/pm/pkg/PackageStateInternal;)Landroid/content/pm/ActivityInfo;</title>
<path fill="#fee2e2" stroke="#dc2626" d="M221.5,-94C221.5,-94 23.5,-94 23.5,-94 17.5,-94 11.5,-88 11.5,-82 11.5,-82 11.5,-70 11.5,-70 11.5,-64 17.5,-58 23.5,-58 23.5,-58 221.5,-58 221.5,-58 227.5,-58 233.5,-64 233.5,-70 233.5,-70 233.5,-82 233.5,-82 233.5,-88 227.5,-94 221.5,-94"/>
<text text-anchor="middle" x="122.5" y="-73.2" font-family="Helvetica,sans-Serif" font-size="11.00">PackageInfoUtils.generateActivityInfo</text>
</g>
<!-- m::com.android.server.pm.parsing.PackageInfoUtils.generateActivityInfo:(Lcom/android/server/pm/pkg/AndroidPackage;Lcom/android/internal/pm/pkg/component/ParsedActivity;JLcom/android/server/pm/pkg/PackageUserStateInternal;Landroid/content/pm/ApplicationInfo;ILcom/android/server/pm/pkg/PackageStateInternal;)Landroid/content/pm/ActivityInfo;&#45;&gt;__field__ -->
<g id="edge2" class="edge">
<title>m::com.android.server.pm.parsing.PackageInfoUtils.generateActivityInfo:(Lcom/android/server/pm/pkg/AndroidPackage;Lcom/android/internal/pm/pkg/component/ParsedActivity;JLcom/android/server/pm/pkg/PackageUserStateInternal;Landroid/content/pm/ApplicationInfo;ILcom/android/server/pm/pkg/PackageStateInternal;)Landroid/content/pm/ActivityInfo;&#45;&gt;__field__</title>
<path fill="none" stroke="#dc2626" d="M233.52,-76C276.56,-76 324.99,-76 364.58,-76"/>
<polygon fill="#dc2626" stroke="#dc2626" points="364.89,-78.8 372.89,-76 364.89,-73.2 364.89,-78.8"/>
<text text-anchor="middle" x="309" y="-78.8" font-family="Helvetica,sans-Serif" font-size="9.00" fill="#dc2626"> writes unguarded</text>
</g>
<!-- m::com.android.server.wm.Task.setIntent:(Landroid/content/Intent;Landroid/content/pm/ActivityInfo;)V -->
<g id="node4" class="node">
<title>m::com.android.server.wm.Task.setIntent:(Landroid/content/Intent;Landroid/content/pm/ActivityInfo;)V</title>
<path fill="#fee2e2" stroke="#dc2626" d="M157.5,-36C157.5,-36 87.5,-36 87.5,-36 81.5,-36 75.5,-30 75.5,-24 75.5,-24 75.5,-12 75.5,-12 75.5,-6 81.5,0 87.5,0 87.5,0 157.5,0 157.5,0 163.5,0 169.5,-6 169.5,-12 169.5,-12 169.5,-24 169.5,-24 169.5,-30 163.5,-36 157.5,-36"/>
<text text-anchor="middle" x="122.5" y="-15.2" font-family="Helvetica,sans-Serif" font-size="11.00">Task.setIntent</text>
</g>
<!-- m::com.android.server.wm.Task.setIntent:(Landroid/content/Intent;Landroid/content/pm/ActivityInfo;)V&#45;&gt;__field__ -->
<g id="edge3" class="edge">
<title>m::com.android.server.wm.Task.setIntent:(Landroid/content/Intent;Landroid/content/pm/ActivityInfo;)V&#45;&gt;__field__</title>
<path fill="none" stroke="#dc2626" d="M169.83,-26.37C220.76,-35.57 303.49,-50.52 364.86,-61.61"/>
<polygon fill="#dc2626" stroke="#dc2626" points="364.62,-64.41 372.99,-63.08 365.62,-58.9 364.62,-64.41"/>
<text text-anchor="middle" x="309" y="-60.8" font-family="Helvetica,sans-Serif" font-size="9.00" fill="#dc2626"> reads unguarded</text>
</g>
</g>
</svg>
