<?xml version="1.0" encoding="UTF-8" standalone="no"?>
<!DOCTYPE svg PUBLIC "-//W3C//DTD SVG 1.1//EN"
 "http://www.w3.org/Graphics/SVG/1.1/DTD/svg11.dtd">
<!-- Generated by graphviz version 2.43.0 (0)
 -->
<!-- Title: race Pages: 1 -->
<svg width="720pt" height="160pt"
 viewBox="0.00 0.00 720.00 160.00" xmlns="http://www.w3.org/2000/svg" xmlns:xlink="http://www.w3.org/1999/xlink">
<g id="graph0" class="graph" transform="scale(1 1) rotate(0) translate(4 156)">
<title>race</title>
<polygon fill="white" stroke="transparent" points="-4,4 -4,-156 716,-156 716,4 -4,4"/>
<!-- __field__ -->
<g id="node1" class="node">
<title>__field__</title>
<path fill="#fef9c3" stroke="#ca8a04" stroke-width="2" d="M700,-94C700,-94 449,-94 449,-94 443,-94 437,-88 437,-82 437,-82 437,-70 437,-70 437,-64 443,-58 449,-58 449,-58 700,-58 700,-58 706,-58 712,-64 712,-70 712,-70 712,-82 712,-82 712,-88 706,-94 700,-94"/>
<text text-anchor="middle" x="574.5" y="-73.2" font-family="Helvetica,sans-Serif" font-size="11.00">SyncStorageEngine$AuthorityInfo.backoffDelay</text>
</g>
<!-- __guard__ -->
<g id="node2" class="node">
<title>__guard__</title>
<path fill="#dcfce7" stroke="#16a34a" stroke-width="2" d="M241,-152C241,-152 68,-152 68,-152 62,-152 56,-146 56,-140 56,-140 56,-128 56,-128 56,-122 62,-116 68,-116 68,-116 241,-116 241,-116 247,-116 253,-122 253,-128 253,-128 253,-140 253,-140 253,-146 247,-152 241,-152"/>
<text text-anchor="middle" x="154.5" y="-131.2" font-family="Helvetica,sans-Serif" font-size="11.00">SyncStorageEngine.mAuthorities</text>
</g>
<!-- __guard__&#45;&gt;__field__ -->
<g id="edge1" class="edge">
<title>__guard__&#45;&gt;__field__</title>
<path fill="none" stroke="#16a34a" stroke-width="1.6" d="M253.24,-120.44C307.5,-112.91 375.89,-103.42 435.52,-95.15"/>
<polygon fill="#16a34a" stroke="#16a34a" stroke-width="1.6" points="435.96,-97.91 443.5,-94.04 435.19,-92.36 435.96,-97.91"/>
<text text-anchor="middle" x="373" y="-110.8" font-family="Helvetica,sans-Serif" font-size="9.00" fill="#15803d"> guards 3/4</text>
</g>
<!-- m::com.android.server.content.SyncStorageEngine$AuthorityInfo.defaultInitialisation:()V -->
<g id="node3" class="node">
<title>m::com.android.server.content.SyncStorageEngine$AuthorityInfo.defaultInitialisation:()V</title>
<path fill="#fee2e2" stroke="#dc2626" d="M297,-94C297,-94 12,-94 12,-94 6,-94 0,-88 0,-82 0,-82 0,-70 0,-70 0,-64 6,-58 12,-58 12,-58 297,-58 297,-58 303,-58 309,-64 309,-70 309,-70 309,-82 309,-82 309,-88 303,-94 297,-94"/>
<text text-anchor="middle" x="154.5" y="-73.2" font-family="Helvetica,sans-Serif" font-size="11.00">SyncStorageEngine$AuthorityInfo.defaultInitialisation</text>
</g>
<!-- m::com.android.server.content.SyncStorageEngine$AuthorityInfo.defaultInitialisation:()V&#45;&gt;__field__ -->
<g id="edge2" class="edge">
<title>m::com.android.server.content.SyncStorageEngine$AuthorityInfo.defaultInitialisation:()V&#45;&gt;__field__</title>
<path fill="none" stroke="#dc2626" d="M309.07,-76C348.1,-76 389.91,-76 428.49,-76"/>
<polygon fill="#dc2626" stroke="#dc2626" points="428.68,-78.8 436.68,-76 428.68,-73.2 428.68,-78.8"/>
<text text-anchor="middle" x="373" y="-78.8" font-family="Helvetica,sans-Serif" font-size="9.00" fill="#dc2626"> writes unguarded</text>
</g>
<!-- m::com.android.server.content.SyncManager.dumpSyncState:(Ljava/io/PrintWriter;Lcom/android/server/content/SyncAdapterStateFetcher;)V -->
<g id="node4" class="node">
<title>m::com.android.server.content.SyncManager.dumpSyncState:(Ljava/io/PrintWriter;Lcom/android/server/content/SyncAdapterStateFetcher;)V</title>
<path fill="#fee2e2" stroke="#dc2626" d="M232.5,-36C232.5,-36 76.5,-36 76.5,-36 70.5,-36 64.5,-30 64.5,-24 64.5,-24 64.5,-12 64.5,-12 64.5,-6 70.5,0 76.5,0 76.5,0 232.5,0 232.5,0 238.5,0 244.5,-6 244.5,-12 244.5,-12 244.5,-24 244.5,-24 244.5,-30 238.5,-36 232.5,-36"/>
<text text-anchor="middle" x="154.5" y="-15.2" font-family="Helvetica,sans-Serif" font-size="11.00">SyncManager.dumpSyncState</text>
</g>
<!-- m::com.android.server.content.SyncManager.dumpSyncState:(Ljava/io/PrintWriter;Lcom/android/server/content/SyncAdapterStateFetcher;)V&#45;&gt;__field__ -->
<g id="edge3" class="edge">
<title>m::com.android.server.content.SyncManager.dumpSyncState:(Ljava/io/PrintWriter;Lcom/android/server/content/SyncAdapterStateFetcher;)V&#45;&gt;__field__</title>
<path fill="none" stroke="#dc2626" d="M244.66,-30.37C300.19,-38.08 372.76,-48.15 435.6,-56.87"/>
<polygon fill="#dc2626" stroke="#dc2626" points="435.3,-59.65 443.61,-57.98 436.07,-54.1 435.3,-59.65"/>
<text text-anchor="middle" x="373" y="-55.8" font-family="Helvetica,sans-Serif" font-size="9.00" fill="#dc2626"> reads unguarded</text>
</g>
</g>
</svg>
