<?xml version="1.0" encoding="UTF-8" standalone="no"?>
<!DOCTYPE svg PUBLIC "-//W3C//DTD SVG 1.1//EN"
 "http://www.w3.org/Graphics/SVG/1.1/DTD/svg11.dtd">
<!-- Generated by graphviz version 2.43.0 (0)
 -->
<!-- Title: race Pages: 1 -->
<svg width="750pt" height="121pt"
 viewBox="0.00 0.00 750.00 121.49" xmlns="http://www.w3.org/2000/svg" xmlns:xlink="http://www.w3.org/1999/xlink">
<g id="graph0" class="graph" transform="scale(1 1) rotate(0) translate(4 117.49)">
<title>race</title>
<polygon fill="white" stroke="transparent" points="-4,4 -4,-117.49 746,-117.49 746,4 -4,4"/>
<!-- __field__ -->
<g id="node1" class="node">
<title>__field__</title>
<path fill="#fef9c3" stroke="#ca8a04" stroke-width="2" d="M730,-57.49C730,-57.49 476,-57.49 476,-57.49 470,-57.49 464,-51.49 464,-45.49 464,-45.49 464,-33.49 464,-33.49 464,-27.49 470,-21.49 476,-21.49 476,-21.49 730,-21.49 730,-21.49 736,-21.49 742,-27.49 742,-33.49 742,-33.49 742,-45.49 742,-45.49 742,-51.49 736,-57.49 730,-57.49"/>
<text text-anchor="middle" x="603" y="-36.69" font-family="Helvetica,sans-Serif" font-size="11.00">FadeConfigurations.mActiveFadeManagerConfig</text>
</g>
<!-- __guard__ -->
<g id="node2" class="node">
<title>__guard__</title>
<path fill="#dcfce7" stroke="#16a34a" stroke-width="2" d="M236.5,-113.49C236.5,-113.49 99.5,-113.49 99.5,-113.49 93.5,-113.49 87.5,-107.49 87.5,-101.49 87.5,-101.49 87.5,-89.49 87.5,-89.49 87.5,-83.49 93.5,-77.49 99.5,-77.49 99.5,-77.49 236.5,-77.49 236.5,-77.49 242.5,-77.49 248.5,-83.49 248.5,-89.49 248.5,-89.49 248.5,-101.49 248.5,-101.49 248.5,-107.49 242.5,-113.49 236.5,-113.49"/>
<text text-anchor="middle" x="168" y="-92.69" font-family="Helvetica,sans-Serif" font-size="11.00">FadeConfigurations.mLock</text>
</g>
<!-- __guard__&#45;&gt;__field__ -->
<g id="edge1" class="edge">
<title>__guard__&#45;&gt;__field__</title>
<path fill="none" stroke="#16a34a" stroke-width="1.6" d="M248.67,-85.19C306.53,-77.71 386.48,-67.37 455.69,-58.41"/>
<polygon fill="#16a34a" stroke="#16a34a" stroke-width="1.6" points="456.07,-61.19 463.64,-57.39 455.35,-55.64 456.07,-61.19"/>
<text text-anchor="middle" x="400" y="-73.29" font-family="Helvetica,sans-Serif" font-size="9.00" fill="#15803d"> guards 4/5</text>
</g>
<!-- m::com.android.server.audio.FadeConfigurations.getUpdatedFadeManagerConfigLocked:()Landroid/media/FadeManagerConfiguration; -->
<g id="node3" class="node">
<title>m::com.android.server.audio.FadeConfigurations.getUpdatedFadeManagerConfigLocked:()Landroid/media/FadeManagerConfiguration;</title>
<path fill="#fee2e2" stroke="#dc2626" d="M324,-39.49C324,-39.49 12,-39.49 12,-39.49 6,-39.49 0,-33.49 0,-27.49 0,-27.49 0,-15.49 0,-15.49 0,-9.49 6,-3.49 12,-3.49 12,-3.49 324,-3.49 324,-3.49 330,-3.49 336,-9.49 336,-15.49 336,-15.49 336,-27.49 336,-27.49 336,-33.49 330,-39.49 324,-39.49"/>
<text text-anchor="middle" x="168" y="-18.69" font-family="Helvetica,sans-Serif" font-size="11.00">FadeConfigurations.getUpdatedFadeManagerConfigLocked</text>
</g>
<!-- m::com.android.server.audio.FadeConfigurations.getUpdatedFadeManagerConfigLocked:()Landroid/media/FadeManagerConfiguration;&#45;&gt;__field__ -->
<g id="edge2" class="edge">
<title>m::com.android.server.audio.FadeConfigurations.getUpdatedFadeManagerConfigLocked:()Landroid/media/FadeManagerConfiguration;&#45;&gt;__field__</title>
<path fill="none" stroke="#dc2626" d="M336.2,-31.49C343.57,-31.85 350.86,-32.18 358,-32.49 389.62,-33.87 423.55,-35.03 455.75,-36"/>
<polygon fill="#dc2626" stroke="#dc2626" points="455.82,-38.8 463.9,-36.24 455.99,-33.2 455.82,-38.8"/>
<text text-anchor="middle" x="400" y="-37.29" font-family="Helvetica,sans-Serif" font-size="9.00" fill="#dc2626"> writes unguarded</text>
</g>
<!-- m::com.android.server.audio.FadeConfigurations.getUpdatedFadeManagerConfigLocked:()Landroid/media/FadeManagerConfiguration;&#45;&gt;__field__ -->
<g id="edge3" class="edge">
<title>m::com.android.server.audio.FadeConfigurations.getUpdatedFadeManagerConfigLocked:()Landroid/media/FadeManagerConfiguration;&#45;&gt;__field__</title>
<path fill="none" stroke="#dc2626" d="M336.2,-18.53C371.17,-18.74 407.81,-19.58 442,-21.49 446.45,-21.74 450.96,-22.03 455.52,-22.35"/>
<polygon fill="#dc2626" stroke="#dc2626" points="455.57,-25.16 463.76,-22.96 455.98,-19.58 455.57,-25.16"/>
<text text-anchor="middle" x="400" y="-24.29" font-family="Helvetica,sans-Serif" font-size="9.00" fill="#dc2626"> reads unguarded</text>
</g>
<!-- m::com.android.server.audio.FadeConfigurations.getUpdatedFadeManagerConfigLocked:()Landroid/media/FadeManagerConfiguration;&#45;&gt;__field__ -->
<g id="edge4" class="edge">
<title>m::com.android.server.audio.FadeConfigurations.getUpdatedFadeManagerConfigLocked:()Landroid/media/FadeManagerConfiguration;&#45;&gt;__field__</title>
<path fill="none" stroke="#dc2626" d="M300.09,-3.48C345.15,0.22 395.85,1.63 442,-3.49 470.85,-6.7 502.09,-13.06 529.25,-19.55"/>
<polygon fill="#dc2626" stroke="#dc2626" points="528.73,-22.31 537.16,-21.48 530.05,-16.87 528.73,-22.31"/>
<text text-anchor="middle" x="400" y="-6.29" font-family="Helvetica,sans-Serif" font-size="9.00" fill="#dc2626"> reads unguarded</text>
</g>
</g>
</svg>
