<?xml version="1.0" encoding="UTF-8" standalone="no"?>
<!DOCTYPE svg PUBLIC "-//W3C//DTD SVG 1.1//EN"
 "http://www.w3.org/Graphics/SVG/1.1/DTD/svg11.dtd">
<!-- Generated by graphviz version 2.43.0 (0)
 -->
<!-- Title: race Pages: 1 -->
<svg width="823pt" height="102pt"
 viewBox="0.00 0.00 823.00 102.00" xmlns="http://www.w3.org/2000/svg" xmlns:xlink="http://www.w3.org/1999/xlink">
<g id="graph0" class="graph" transform="scale(1 1) rotate(0) translate(4 98)">
<title>race</title>
<polygon fill="white" stroke="transparent" points="-4,4 -4,-98 819,-98 819,4 -4,4"/>
<!-- __field__ -->
<g id="node1" class="node">
<title>__field__</title>
<path fill="#fef9c3" stroke="#ca8a04" stroke-width="2" d="M803,-65C803,-65 471,-65 471,-65 465,-65 459,-59 459,-53 459,-53 459,-41 459,-41 459,-35 465,-29 471,-29 471,-29 803,-29 803,-29 809,-29 815,-35 815,-41 815,-41 815,-53 815,-53 815,-59 809,-65 803,-65"/>
<text text-anchor="middle" x="637" y="-44.2" font-family="Helvetica,sans-Serif" font-size="11.00">AttentionManagerService$ProximityUpdate.mStartedUpdates</text>
</g>
<!-- __guard__ -->
<g id="node2" class="node">
<title>__guard__</title>
<path fill="#dcfce7" stroke="#16a34a" stroke-width="2" d="M251,-94C251,-94 80,-94 80,-94 74,-94 68,-88 68,-82 68,-82 68,-70 68,-70 68,-64 74,-58 80,-58 80,-58 251,-58 251,-58 257,-58 263,-64 263,-70 263,-70 263,-82 263,-82 263,-88 257,-94 251,-94"/>
<text text-anchor="middle" x="165.5" y="-73.2" font-family="Helvetica,sans-Serif" font-size="11.00">AttentionManagerService.mLock</text>
</g>
<!-- __guard__&#45;&gt;__field__ -->
<g id="edge1" class="edge">
<title>__guard__&#45;&gt;__field__</title>
<path fill="none" stroke="#16a34a" stroke-width="1.6" d="M263.21,-70.03C317.27,-66.69 386.48,-62.41 450.55,-58.45"/>
<polygon fill="#16a34a" stroke="#16a34a" stroke-width="1.6" points="450.93,-61.24 458.75,-57.95 450.59,-55.65 450.93,-61.24"/>
<text text-anchor="middle" x="395" y="-66.8" font-family="Helvetica,sans-Serif" font-size="9.00" fill="#15803d"> guards 2/3</text>
</g>
<!-- m::com.android.server.attention.AttentionManagerService$ProximityUpdate.startUpdates:()Z -->
<g id="node3" class="node">
<title>m::com.android.server.attention.AttentionManagerService$ProximityUpdate.startUpdates:()Z</title>
<path fill="#fee2e2" stroke="#dc2626" d="M319,-36C319,-36 12,-36 12,-36 6,-36 0,-30 0,-24 0,-24 0,-12 0,-12 0,-6 6,0 12,0 12,0 319,0 319,0 325,0 331,-6 331,-12 331,-12 331,-24 331,-24 331,-30 325,-36 319,-36"/>
<text text-anchor="middle" x="165.5" y="-15.2" font-family="Helvetica,sans-Serif" font-size="11.00">AttentionManagerService$ProximityUpdate.startUpdates</text>
</g>
<!-- m::com.android.server.attention.AttentionManagerService$ProximityUpdate.startUpdates:()Z&#45;&gt;__field__ -->
<g id="edge2" class="edge">
<title>m::com.android.server.attention.AttentionManagerService$ProximityUpdate.startUpdates:()Z&#45;&gt;__field__</title>
<path fill="none" stroke="#dc2626" d="M331.04,-28.16C369.66,-30.55 411.07,-33.11 450.54,-35.54"/>
<polygon fill="#dc2626" stroke="#dc2626" points="450.77,-38.36 458.93,-36.06 451.12,-32.77 450.77,-38.36"/>
<text text-anchor="middle" x="395" y="-36.8" font-family="Helvetica,sans-Serif" font-size="9.00" fill="#dc2626"> writes unguarded</text>
</g>
</g>
</svg>
