<?xml version="1.0" encoding="UTF-8" standalone="no"?>
<!DOCTYPE svg PUBLIC "-//W3C//DTD SVG 1.1//EN"
 "http://www.w3.org/Graphics/SVG/1.1/DTD/svg11.dtd">
<!-- Generated by graphviz version 2.43.0 (0)
 -->
<!-- Title: race Pages: 1 -->
<svg width="641pt" height="334pt"
 viewBox="0.00 0.00 641.00 334.00" xmlns="http://www.w3.org/2000/svg" xmlns:xlink="http://www.w3.org/1999/xlink">
<g id="graph0" class="graph" transform="scale(1 1) rotate(0) translate(4 330)">
<title>race</title>
<polygon fill="white" stroke="transparent" points="-4,4 -4,-330 637,-330 637,4 -4,4"/>
<!-- __field__ -->
<g id="node1" class="node">
<title>__field__</title>
<path fill="#fef9c3" stroke="#ca8a04" stroke-width="2" d="M621,-181C621,-181 397,-181 397,-181 391,-181 385,-175 385,-169 385,-169 385,-157 385,-157 385,-151 391,-145 397,-145 397,-145 621,-145 621,-145 627,-145 633,-151 633,-157 633,-157 633,-169 633,-169 633,-175 627,-181 621,-181"/>
<text text-anchor="middle" x="509" y="-160.2" font-family="Helvetica,sans-Serif" font-size="11.00">SyncStorageEngine$AuthorityInfo.enabled</text>
</g>
<!-- __guard__ -->
<g id="node2" class="node">
<title>__guard__</title>
<path fill="#dcfce7" stroke="#16a34a" stroke-width="2" d="M223.5,-326C223.5,-326 33.5,-326 33.5,-326 27.5,-326 21.5,-320 21.5,-314 21.5,-314 21.5,-302 21.5,-302 21.5,-296 27.5,-290 33.5,-290 33.5,-290 223.5,-290 223.5,-290 229.5,-290 235.5,-296 235.5,-302 235.5,-302 235.5,-314 235.5,-314 235.5,-320 229.5,-326 223.5,-326"/>
<text text-anchor="middle" x="128.5" y="-305.2" font-family="Helvetica,sans-Serif" font-size="11.00">ContentService.mSyncManagerLock</text>
</g>
<!-- __guard__&#45;&gt;__field__ -->
<g id="edge1" class="edge">
<title>__guard__&#45;&gt;__field__</title>
<path fill="none" stroke="#16a34a" stroke-width="1.6" d="M235.79,-294.42C276.6,-286.97 322.97,-275.73 363,-259 407.1,-240.57 452.11,-208.22 480.03,-186.22"/>
<polygon fill="#16a34a" stroke="#16a34a" stroke-width="1.6" points="481.9,-188.31 486.41,-181.14 478.41,-183.93 481.9,-188.31"/>
<text text-anchor="middle" x="321" y="-286.8" font-family="Helvetica,sans-Serif" font-size="9.00" fill="#15803d"> guards 2/3</text>
</g>
<!-- m::com.android.server.content.SyncStorageEngine.setSyncAutomatically:(Landroid/accounts/Account;ILjava/lang/String;ZIII)V -->
<g id="node3" class="node">
<title>m::com.android.server.content.SyncStorageEngine.setSyncAutomatically:(Landroid/accounts/Account;ILjava/lang/String;ZIII)V</title>
<path fill="#fee2e2" stroke="#dc2626" d="M239,-268C239,-268 18,-268 18,-268 12,-268 6,-262 6,-256 6,-256 6,-244 6,-244 6,-238 12,-232 18,-232 18,-232 239,-232 239,-232 245,-232 251,-238 251,-244 251,-244 251,-256 251,-256 251,-262 245,-268 239,-268"/>
<text text-anchor="middle" x="128.5" y="-247.2" font-family="Helvetica,sans-Serif" font-size="11.00">SyncStorageEngine.setSyncAutomatically</text>
</g>
<!-- m::com.android.server.content.SyncStorageEngine.setSyncAutomatically:(Landroid/accounts/Account;ILjava/lang/String;ZIII)V&#45;&gt;__field__ -->
<g id="edge2" class="edge">
<title>m::com.android.server.content.SyncStorageEngine.setSyncAutomatically:(Landroid/accounts/Account;ILjava/lang/String;ZIII)V&#45;&gt;__field__</title>
<path fill="none" stroke="#dc2626" d="M251.16,-247.59C287.58,-244.73 327.31,-239.46 363,-230 401.02,-219.92 441.41,-200.45 469.89,-185.08"/>
<polygon fill="#dc2626" stroke="#dc2626" points="471.55,-187.36 477.22,-181.07 468.86,-182.45 471.55,-187.36"/>
<text text-anchor="middle" x="321" y="-246.8" font-family="Helvetica,sans-Serif" font-size="9.00" fill="#dc2626"> writes unguarded</text>
</g>
<!-- m::com.android.server.content.SyncStorageEngine.setSyncAutomatically:(Landroid/accounts/Account;ILjava/lang/String;ZIII)V&#45;&gt;__field__ -->
<g id="edge7" class="edge">
<title>m::com.android.server.content.SyncStorageEngine.setSyncAutomatically:(Landroid/accounts/Account;ILjava/lang/String;ZIII)V&#45;&gt;__field__</title>
<path fill="none" stroke="#dc2626" d="M209.09,-231.94C224.96,-228.33 241.51,-224.55 257,-221 312.03,-208.38 373.81,-194.11 422.31,-182.88"/>
<polygon fill="#dc2626" stroke="#dc2626" points="423.12,-185.56 430.28,-181.03 421.86,-180.11 423.12,-185.56"/>
<text text-anchor="middle" x="321" y="-216.8" font-family="Helvetica,sans-Serif" font-size="9.00" fill="#dc2626"> reads unguarded</text>
</g>
<!-- m::com.android.server.content.SyncManager.dumpSyncState:(Ljava/io/PrintWriter;Lcom/android/server/content/SyncAdapterStateFetcher;)V -->
<g id="node4" class="node">
<title>m::com.android.server.content.SyncManager.dumpSyncState:(Ljava/io/PrintWriter;Lcom/android/server/content/SyncAdapterStateFetcher;)V</title>
<path fill="#fee2e2" stroke="#dc2626" d="M206.5,-210C206.5,-210 50.5,-210 50.5,-210 44.5,-210 38.5,-204 38.5,-198 38.5,-198 38.5,-186 38.5,-186 38.5,-180 44.5,-174 50.5,-174 50.5,-174 206.5,-174 206.5,-174 212.5,-174 218.5,-180 218.5,-186 218.5,-186 218.5,-198 218.5,-198 218.5,-204 212.5,-210 206.5,-210"/>
<text text-anchor="middle" x="128.5" y="-189.2" font-family="Helvetica,sans-Serif" font-size="11.00">SyncManager.dumpSyncState</text>
</g>
<!-- m::com.android.server.content.SyncManager.dumpSyncState:(Ljava/io/PrintWriter;Lcom/android/server/content/SyncAdapterStateFetcher;)V&#45;&gt;__field__ -->
<g id="edge3" class="edge">
<title>m::com.android.server.content.SyncManager.dumpSyncState:(Ljava/io/PrintWriter;Lcom/android/server/content/SyncAdapterStateFetcher;)V&#45;&gt;__field__</title>
<path fill="none" stroke="#dc2626" d="M218.72,-185.16C265.81,-181.56 324.49,-177.06 376.66,-173.06"/>
<polygon fill="#dc2626" stroke="#dc2626" points="376.88,-175.85 384.65,-172.45 376.46,-170.27 376.88,-175.85"/>
<text text-anchor="middle" x="321" y="-182.8" font-family="Helvetica,sans-Serif" font-size="9.00" fill="#dc2626"> reads unguarded</text>
</g>
<!-- m::com.android.server.content.SyncStorageEngine$AuthorityInfo.toString:()Ljava/lang/String; -->
<g id="node5" class="node">
<title>m::com.android.server.content.SyncStorageEngine$AuthorityInfo.toString:()Ljava/lang/String;</title>
<path fill="#fee2e2" stroke="#dc2626" d="M240.5,-152C240.5,-152 16.5,-152 16.5,-152 10.5,-152 4.5,-146 4.5,-140 4.5,-140 4.5,-128 4.5,-128 4.5,-122 10.5,-116 16.5,-116 16.5,-116 240.5,-116 240.5,-116 246.5,-116 252.5,-122 252.5,-128 252.5,-128 252.5,-140 252.5,-140 252.5,-146 246.5,-152 240.5,-152"/>
<text text-anchor="middle" x="128.5" y="-131.2" font-family="Helvetica,sans-Serif" font-size="11.00">SyncStorageEngine$AuthorityInfo.toString</text>
</g>
<!-- m::com.android.server.content.SyncStorageEngine$AuthorityInfo.toString:()Ljava/lang/String;&#45;&gt;__field__ -->
<g id="edge4" class="edge">
<title>m::com.android.server.content.SyncStorageEngine$AuthorityInfo.toString:()Ljava/lang/String;&#45;&gt;__field__</title>
<path fill="none" stroke="#dc2626" d="M252.65,-143.44C292.4,-146.48 336.61,-149.87 376.91,-152.96"/>
<polygon fill="#dc2626" stroke="#dc2626" points="376.73,-155.75 384.92,-153.57 377.16,-150.17 376.73,-155.75"/>
<text text-anchor="middle" x="321" y="-153.8" font-family="Helvetica,sans-Serif" font-size="9.00" fill="#dc2626"> reads unguarded</text>
</g>
<!-- m::com.android.server.content.SyncStorageEngine.getSyncAutomatically:(Landroid/accounts/Account;ILjava/lang/String;)Z -->
<g id="node6" class="node">
<title>m::com.android.server.content.SyncStorageEngine.getSyncAutomatically:(Landroid/accounts/Account;ILjava/lang/String;)Z</title>
<path fill="#fee2e2" stroke="#dc2626" d="M239.5,-94C239.5,-94 17.5,-94 17.5,-94 11.5,-94 5.5,-88 5.5,-82 5.5,-82 5.5,-70 5.5,-70 5.5,-64 11.5,-58 17.5,-58 17.5,-58 239.5,-58 239.5,-58 245.5,-58 251.5,-64 251.5,-70 251.5,-70 251.5,-82 251.5,-82 251.5,-88 245.5,-94 239.5,-94"/>
<text text-anchor="middle" x="128.5" y="-73.2" font-family="Helvetica,sans-Serif" font-size="11.00">SyncStorageEngine.getSyncAutomatically</text>
</g>
<!-- m::com.android.server.content.SyncStorageEngine.getSyncAutomatically:(Landroid/accounts/Account;ILjava/lang/String;)Z&#45;&gt;__field__ -->
<g id="edge5" class="edge">
<title>m::com.android.server.content.SyncStorageEngine.getSyncAutomatically:(Landroid/accounts/Account;ILjava/lang/String;)Z&#45;&gt;__field__</title>
<path fill="none" stroke="#dc2626" d="M209.09,-94.06C224.96,-97.67 241.51,-101.45 257,-105 312.03,-117.62 373.81,-131.89 422.31,-143.12"/>
<polygon fill="#dc2626" stroke="#dc2626" points="421.86,-145.89 430.28,-144.97 423.12,-140.44 421.86,-145.89"/>
<text text-anchor="middle" x="321" y="-130.8" font-family="Helvetica,sans-Serif" font-size="9.00" fill="#dc2626"> reads unguarded</text>
</g>
<!-- m::com.android.server.content.SyncStorageEngine.getSyncAutomatically:(Landroid/accounts/Account;ILjava/lang/String;)Z&#45;&gt;__field__ -->
<g id="edge6" class="edge">
<title>m::com.android.server.content.SyncStorageEngine.getSyncAutomatically:(Landroid/accounts/Account;ILjava/lang/String;)Z&#45;&gt;__field__</title>
<path fill="none" stroke="#dc2626" d="M251.76,-78.46C288.02,-81.33 327.51,-86.59 363,-96 401.02,-106.08 441.41,-125.55 469.89,-140.92"/>
<polygon fill="#dc2626" stroke="#dc2626" points="468.86,-143.55 477.22,-144.93 471.55,-138.64 468.86,-143.55"/>
<text text-anchor="middle" x="321" y="-98.8" font-family="Helvetica,sans-Serif" font-size="9.00" fill="#dc2626"> reads unguarded</text>
</g>
<!-- m::com.android.server.content.SyncStorageEngine.writeAccountInfoLocked:()V -->
<g id="node7" class="node">
<title>m::com.android.server.content.SyncStorageEngine.writeAccountInfoLocked:()V</title>
<path fill="#fee2e2" stroke="#dc2626" d="M245,-36C245,-36 12,-36 12,-36 6,-36 0,-30 0,-24 0,-24 0,-12 0,-12 0,-6 6,0 12,0 12,0 245,0 245,0 251,0 257,-6 257,-12 257,-12 257,-24 257,-24 257,-30 251,-36 245,-36"/>
<text text-anchor="middle" x="128.5" y="-15.2" font-family="Helvetica,sans-Serif" font-size="11.00">SyncStorageEngine.writeAccountInfoLocked</text>
</g>
<!-- m::com.android.server.content.SyncStorageEngine.writeAccountInfoLocked:()V&#45;&gt;__field__ -->
<g id="edge8" class="edge">
<title>m::com.android.server.content.SyncStorageEngine.writeAccountInfoLocked:()V&#45;&gt;__field__</title>
<path fill="none" stroke="#dc2626" d="M257.3,-35.03C292.39,-42.17 329.88,-52.15 363,-66 407.23,-84.5 452.21,-117.21 480.09,-139.49"/>
<polygon fill="#dc2626" stroke="#dc2626" points="478.48,-141.78 486.46,-144.63 482,-137.43 478.48,-141.78"/>
<text text-anchor="middle" x="321" y="-68.8" font-family="Helvetica,sans-Serif" font-size="9.00" fill="#dc2626"> reads unguarded</text>
</g>
</g>
</svg>
