<?xml version="1.0" encoding="UTF-8" standalone="no"?>
<!DOCTYPE svg PUBLIC "-//W3C//DTD SVG 1.1//EN"
 "http://www.w3.org/Graphics/SVG/1.1/DTD/svg11.dtd">
<!-- Generated by graphviz version 2.43.0 (0)
 -->
<!-- Title: race Pages: 1 -->
<svg width="1031pt" height="276pt"
 viewBox="0.00 0.00 1031.00 276.00" xmlns="http://www.w3.org/2000/svg" xmlns:xlink="http://www.w3.org/1999/xlink">
<g id="graph0" class="graph" transform="scale(1 1) rotate(0) translate(4 272)">
<title>race</title>
<polygon fill="white" stroke="transparent" points="-4,4 -4,-272 1027,-272 1027,4 -4,4"/>
<!-- __field__ -->
<g id="node1" class="node">
<title>__field__</title>
<path fill="#fef9c3" stroke="#ca8a04" stroke-width="2" d="M1011,-152C1011,-152 613,-152 613,-152 607,-152 601,-146 601,-140 601,-140 601,-128 601,-128 601,-122 607,-116 613,-116 613,-116 1011,-116 1011,-116 1017,-116 1023,-122 1023,-128 1023,-128 1023,-140 1023,-140 1023,-146 1017,-152 1011,-152"/>
<text text-anchor="middle" x="812" y="-131.2" font-family="Helvetica,sans-Serif" font-size="11.00">GameManagerService$GamePackageConfiguration.mPerfModeOverridden</text>
</g>
<!-- __guard__ -->
<g id="node2" class="node">
<title>__guard__</title>
<path fill="#dcfce7" stroke="#16a34a" stroke-width="2" d="M348.5,-268C348.5,-268 124.5,-268 124.5,-268 118.5,-268 112.5,-262 112.5,-256 112.5,-256 112.5,-244 112.5,-244 112.5,-238 118.5,-232 124.5,-232 124.5,-232 348.5,-232 348.5,-232 354.5,-232 360.5,-238 360.5,-244 360.5,-244 360.5,-256 360.5,-256 360.5,-262 354.5,-268 348.5,-268"/>
<text text-anchor="middle" x="236.5" y="-247.2" font-family="Helvetica,sans-Serif" font-size="11.00">GameManagerService.mDeviceConfigLock</text>
</g>
<!-- __guard__&#45;&gt;__field__ -->
<g id="edge1" class="edge">
<title>__guard__&#45;&gt;__field__</title>
<path fill="none" stroke="#16a34a" stroke-width="1.6" d="M360.58,-238.96C425.98,-231.71 507.43,-220.46 579,-204 638.11,-190.41 704.21,-169.93 750.69,-154.62"/>
<polygon fill="#16a34a" stroke="#16a34a" stroke-width="1.6" points="751.84,-157.19 758.56,-152.02 750.08,-151.88 751.84,-157.19"/>
<text text-anchor="middle" x="537" y="-222.8" font-family="Helvetica,sans-Serif" font-size="9.00" fill="#15803d"> guards 2/3</text>
</g>
<!-- m::com.android.server.app.GameManagerService$GamePackageConfiguration.copyAndApplyOverride:(Lcom/android/server/app/GameManagerService$GamePackageConfiguration;)Lcom/android/server/app/GameManagerService$GamePackageConfiguration; -->
<g id="node3" class="node">
<title>m::com.android.server.app.GameManagerService$GamePackageConfiguration.copyAndApplyOverride:(Lcom/android/server/app/GameManagerService$GamePackageConfiguration;)Lcom/android/server/app/GameManagerService$GamePackageConfiguration;</title>
<path fill="#fee2e2" stroke="#dc2626" d="M437,-210C437,-210 36,-210 36,-210 30,-210 24,-204 24,-198 24,-198 24,-186 24,-186 24,-180 30,-174 36,-174 36,-174 437,-174 437,-174 443,-174 449,-180 449,-186 449,-186 449,-198 449,-198 449,-204 443,-210 437,-210"/>
<text text-anchor="middle" x="236.5" y="-189.2" font-family="Helvetica,sans-Serif" font-size="11.00">GameManagerService$GamePackageConfiguration.copyAndApplyOverride</text>
</g>
<!-- m::com.android.server.app.GameManagerService$GamePackageConfiguration.copyAndApplyOverride:(Lcom/android/server/app/GameManagerService$GamePackageConfiguration;)Lcom/android/server/app/GameManagerService$GamePackageConfiguration;&#45;&gt;__field__ -->
<g id="edge2" class="edge">
<title>m::com.android.server.app.GameManagerService$GamePackageConfiguration.copyAndApplyOverride:(Lcom/android/server/app/GameManagerService$GamePackageConfiguration;)Lcom/android/server/app/GameManagerService$GamePackageConfiguration;&#45;&gt;__field__</title>
<path fill="none" stroke="#dc2626" d="M449.24,-191.56C492.28,-189.85 537.17,-186.9 579,-182 630.54,-175.96 687.64,-164.21 732.29,-153.85"/>
<polygon fill="#dc2626" stroke="#dc2626" points="733.04,-156.55 740.19,-152 731.76,-151.1 733.04,-156.55"/>
<text text-anchor="middle" x="537" y="-191.8" font-family="Helvetica,sans-Serif" font-size="9.00" fill="#dc2626"> writes unguarded</text>
</g>
<!-- m::com.android.server.app.GameManagerService$GamePackageConfiguration.copyAndApplyOverride:(Lcom/android/server/app/GameManagerService$GamePackageConfiguration;)Lcom/android/server/app/GameManagerService$GamePackageConfiguration;&#45;&gt;__field__ -->
<g id="edge3" class="edge">
<title>m::com.android.server.app.GameManagerService$GamePackageConfiguration.copyAndApplyOverride:(Lcom/android/server/app/GameManagerService$GamePackageConfiguration;)Lcom/android/server/app/GameManagerService$GamePackageConfiguration;&#45;&gt;__field__</title>
<path fill="none" stroke="#dc2626" d="M415.82,-173.97C482.17,-167.26 557.61,-159.63 624.66,-152.85"/>
<polygon fill="#dc2626" stroke="#dc2626" points="625.12,-155.61 632.79,-152.02 624.55,-150.04 625.12,-155.61"/>
<text text-anchor="middle" x="537" y="-166.8" font-family="Helvetica,sans-Serif" font-size="9.00" fill="#dc2626"> reads unguarded</text>
</g>
<!-- m::com.android.server.app.GameManagerService$GamePackageConfiguration.getAvailableGameModesBitfield:()I -->
<g id="node4" class="node">
<title>m::com.android.server.app.GameManagerService$GamePackageConfiguration.getAvailableGameModesBitfield:()I</title>
<path fill="#fee2e2" stroke="#dc2626" d="M461,-152C461,-152 12,-152 12,-152 6,-152 0,-146 0,-140 0,-140 0,-128 0,-128 0,-122 6,-116 12,-116 12,-116 461,-116 461,-116 467,-116 473,-122 473,-128 473,-128 473,-140 473,-140 473,-146 467,-152 461,-152"/>
<text text-anchor="middle" x="236.5" y="-131.2" font-family="Helvetica,sans-Serif" font-size="11.00">GameManagerService$GamePackageConfiguration.getAvailableGameModesBitfield</text>
</g>
<!-- m::com.android.server.app.GameManagerService$GamePackageConfiguration.getAvailableGameModesBitfield:()I&#45;&gt;__field__ -->
<g id="edge4" class="edge">
<title>m::com.android.server.app.GameManagerService$GamePackageConfiguration.getAvailableGameModesBitfield:()I&#45;&gt;__field__</title>
<path fill="none" stroke="#dc2626" d="M473.25,-134C512.76,-134 553.61,-134 592.66,-134"/>
<polygon fill="#dc2626" stroke="#dc2626" points="592.97,-136.8 600.97,-134 592.97,-131.2 592.97,-136.8"/>
<text text-anchor="middle" x="537" y="-136.8" font-family="Helvetica,sans-Serif" font-size="9.00" fill="#dc2626"> reads unguarded</text>
</g>
<!-- m::com.android.server.app.GameManagerService$GamePackageConfiguration.getOverriddenGameModes:()[I -->
<g id="node5" class="node">
<title>m::com.android.server.app.GameManagerService$GamePackageConfiguration.getOverriddenGameModes:()[I</title>
<path fill="#fee2e2" stroke="#dc2626" d="M447.5,-94C447.5,-94 25.5,-94 25.5,-94 19.5,-94 13.5,-88 13.5,-82 13.5,-82 13.5,-70 13.5,-70 13.5,-64 19.5,-58 25.5,-58 25.5,-58 447.5,-58 447.5,-58 453.5,-58 459.5,-64 459.5,-70 459.5,-70 459.5,-82 459.5,-82 459.5,-88 453.5,-94 447.5,-94"/>
<text text-anchor="middle" x="236.5" y="-73.2" font-family="Helvetica,sans-Serif" font-size="11.00">GameManagerService$GamePackageConfiguration.getOverriddenGameModes</text>
</g>
<!-- m::com.android.server.app.GameManagerService$GamePackageConfiguration.getOverriddenGameModes:()[I&#45;&gt;__field__ -->
<g id="edge5" class="edge">
<title>m::com.android.server.app.GameManagerService$GamePackageConfiguration.getOverriddenGameModes:()[I&#45;&gt;__field__</title>
<path fill="none" stroke="#dc2626" d="M415.82,-94.03C482.17,-100.74 557.61,-108.37 624.66,-115.15"/>
<polygon fill="#dc2626" stroke="#dc2626" points="624.55,-117.96 632.79,-115.98 625.12,-112.39 624.55,-117.96"/>
<text text-anchor="middle" x="537" y="-112.8" font-family="Helvetica,sans-Serif" font-size="9.00" fill="#dc2626"> reads unguarded</text>
</g>
<!-- m::com.android.server.app.GameManagerService$GamePackageConfiguration.getOverriddenGameModes:()[I&#45;&gt;__field__ -->
<g id="edge6" class="edge">
<title>m::com.android.server.app.GameManagerService$GamePackageConfiguration.getOverriddenGameModes:()[I&#45;&gt;__field__</title>
<path fill="none" stroke="#dc2626" d="M459.71,-78.63C499.51,-80.58 540.55,-83.54 579,-88 628.82,-93.78 683.92,-104.51 727.91,-114.16"/>
<polygon fill="#dc2626" stroke="#dc2626" points="727.58,-116.96 735.99,-115.95 728.79,-111.49 727.58,-116.96"/>
<text text-anchor="middle" x="537" y="-90.8" font-family="Helvetica,sans-Serif" font-size="9.00" fill="#dc2626"> reads unguarded</text>
</g>
<!-- m::com.android.server.app.GameManagerService$GamePackageConfiguration.willGamePerformOptimizations:(I)Z -->
<g id="node6" class="node">
<title>m::com.android.server.app.GameManagerService$GamePackageConfiguration.willGamePerformOptimizations:(I)Z</title>
<path fill="#fee2e2" stroke="#dc2626" d="M458.5,-36C458.5,-36 14.5,-36 14.5,-36 8.5,-36 2.5,-30 2.5,-24 2.5,-24 2.5,-12 2.5,-12 2.5,-6 8.5,0 14.5,0 14.5,0 458.5,0 458.5,0 464.5,0 470.5,-6 470.5,-12 470.5,-12 470.5,-24 470.5,-24 470.5,-30 464.5,-36 458.5,-36"/>
<text text-anchor="middle" x="236.5" y="-15.2" font-family="Helvetica,sans-Serif" font-size="11.00">GameManagerService$GamePackageConfiguration.willGamePerformOptimizations</text>
</g>
<!-- m::com.android.server.app.GameManagerService$GamePackageConfiguration.willGamePerformOptimizations:(I)Z&#45;&gt;__field__ -->
<g id="edge7" class="edge">
<title>m::com.android.server.app.GameManagerService$GamePackageConfiguration.willGamePerformOptimizations:(I)Z&#45;&gt;__field__</title>
<path fill="none" stroke="#dc2626" d="M414.12,-36.02C467.47,-43.15 525.96,-52.66 579,-65 637.42,-78.6 702.82,-98.48 749.26,-113.42"/>
<polygon fill="#dc2626" stroke="#dc2626" points="748.65,-116.16 757.12,-115.96 750.37,-110.83 748.65,-116.16"/>
<text text-anchor="middle" x="537" y="-67.8" font-family="Helvetica,sans-Serif" font-size="9.00" fill="#dc2626"> reads unguarded</text>
</g>
</g>
</svg>
