<?xml version="1.0" encoding="UTF-8" standalone="no"?>
<!DOCTYPE svg PUBLIC "-//W3C//DTD SVG 1.1//EN"
 "http://www.w3.org/Graphics/SVG/1.1/DTD/svg11.dtd">
<!-- Generated by graphviz version 2.43.0 (0)
 -->
<!-- Title: race Pages: 1 -->
<svg width="665pt" height="199pt"
 viewBox="0.00 0.00 665.00 198.90" xmlns="http://www.w3.org/2000/svg" xmlns:xlink="http://www.w3.org/1999/xlink">
<g id="graph0" class="graph" transform="scale(1 1) rotate(0) translate(4 194.9)">
<title>race</title>
<polygon fill="white" stroke="transparent" points="-4,4 -4,-194.9 661,-194.9 661,4 -4,4"/>
<!-- __field__ -->
<g id="node1" class="node">
<title>__field__</title>
<path fill="#fef9c3" stroke="#ca8a04" stroke-width="2" d="M645,-97.9C645,-97.9 436,-97.9 436,-97.9 430,-97.9 424,-91.9 424,-85.9 424,-85.9 424,-73.9 424,-73.9 424,-67.9 430,-61.9 436,-61.9 436,-61.9 645,-61.9 645,-61.9 651,-61.9 657,-67.9 657,-73.9 657,-73.9 657,-85.9 657,-85.9 657,-91.9 651,-97.9 645,-97.9"/>
<text text-anchor="middle" x="540.5" y="-77.1" font-family="Helvetica,sans-Serif" font-size="11.00">PendingIntentRecord.mCancelCallbacks</text>
</g>
<!-- __guard__ -->
<g id="node2" class="node">
<title>__guard__</title>
<path fill="#dcfce7" stroke="#16a34a" stroke-width="2" d="M228,-190.9C228,-190.9 68,-190.9 68,-190.9 62,-190.9 56,-184.9 56,-178.9 56,-178.9 56,-166.9 56,-166.9 56,-160.9 62,-154.9 68,-154.9 68,-154.9 228,-154.9 228,-154.9 234,-154.9 240,-160.9 240,-166.9 240,-166.9 240,-178.9 240,-178.9 240,-184.9 234,-190.9 228,-190.9"/>
<text text-anchor="middle" x="148" y="-170.1" font-family="Helvetica,sans-Serif" font-size="11.00">PendingIntentController.mLock</text>
</g>
<!-- __guard__&#45;&gt;__field__ -->
<g id="edge1" class="edge">
<title>__guard__&#45;&gt;__field__</title>
<path fill="none" stroke="#16a34a" stroke-width="1.6" d="M240.26,-160.86C288.74,-153.51 349.08,-142.82 402,-128.9 430.65,-121.36 461.81,-110.49 487.21,-100.9"/>
<polygon fill="#16a34a" stroke="#16a34a" stroke-width="1.6" points="488.42,-103.44 494.9,-97.97 486.43,-98.2 488.42,-103.44"/>
<text text-anchor="middle" x="360" y="-149.7" font-family="Helvetica,sans-Serif" font-size="9.00" fill="#15803d"> guards 2/3</text>
</g>
<!-- m::com.android.server.am.PendingIntentRecord.detachCancelListenersLocked:()Landroid/os/RemoteCallbackList; -->
<g id="node3" class="node">
<title>m::com.android.server.am.PendingIntentRecord.detachCancelListenersLocked:()Landroid/os/RemoteCallbackList;</title>
<path fill="#fee2e2" stroke="#dc2626" d="M284,-124.9C284,-124.9 12,-124.9 12,-124.9 6,-124.9 0,-118.9 0,-112.9 0,-112.9 0,-100.9 0,-100.9 0,-94.9 6,-88.9 12,-88.9 12,-88.9 284,-88.9 284,-88.9 290,-88.9 296,-94.9 296,-100.9 296,-100.9 296,-112.9 296,-112.9 296,-118.9 290,-124.9 284,-124.9"/>
<text text-anchor="middle" x="148" y="-104.1" font-family="Helvetica,sans-Serif" font-size="11.00">PendingIntentRecord.detachCancelListenersLocked</text>
</g>
<!-- m::com.android.server.am.PendingIntentRecord.detachCancelListenersLocked:()Landroid/os/RemoteCallbackList;&#45;&gt;__field__ -->
<g id="edge2" class="edge">
<title>m::com.android.server.am.PendingIntentRecord.detachCancelListenersLocked:()Landroid/os/RemoteCallbackList;&#45;&gt;__field__</title>
<path fill="none" stroke="#dc2626" d="M296.11,-114.56C330.9,-114.74 367.83,-113.58 402,-109.9 421.86,-107.76 443.05,-103.93 462.7,-99.7"/>
<polygon fill="#dc2626" stroke="#dc2626" points="463.52,-102.39 470.73,-97.94 462.32,-96.92 463.52,-102.39"/>
<text text-anchor="middle" x="360" y="-116.7" font-family="Helvetica,sans-Serif" font-size="9.00" fill="#dc2626"> writes unguarded</text>
</g>
<!-- m::com.android.server.am.PendingIntentRecord.detachCancelListenersLocked:()Landroid/os/RemoteCallbackList;&#45;&gt;__field__ -->
<g id="edge3" class="edge">
<title>m::com.android.server.am.PendingIntentRecord.detachCancelListenersLocked:()Landroid/os/RemoteCallbackList;&#45;&gt;__field__</title>
<path fill="none" stroke="#dc2626" d="M296.07,-96.73C335.54,-94 377.8,-91.08 415.85,-88.45"/>
<polygon fill="#dc2626" stroke="#dc2626" points="416.11,-91.24 423.9,-87.89 415.72,-85.65 416.11,-91.24"/>
<text text-anchor="middle" x="360" y="-97.7" font-family="Helvetica,sans-Serif" font-size="9.00" fill="#dc2626"> reads unguarded</text>
</g>
<!-- m::com.android.server.am.PendingIntentRecord.dump:(Ljava/io/PrintWriter;Ljava/lang/String;)V -->
<g id="node4" class="node">
<title>m::com.android.server.am.PendingIntentRecord.dump:(Ljava/io/PrintWriter;Ljava/lang/String;)V</title>
<path fill="#fee2e2" stroke="#dc2626" d="M218,-42.9C218,-42.9 78,-42.9 78,-42.9 72,-42.9 66,-36.9 66,-30.9 66,-30.9 66,-18.9 66,-18.9 66,-12.9 72,-6.9 78,-6.9 78,-6.9 218,-6.9 218,-6.9 224,-6.9 230,-12.9 230,-18.9 230,-18.9 230,-30.9 230,-30.9 230,-36.9 224,-42.9 218,-42.9"/>
<text text-anchor="middle" x="148" y="-22.1" font-family="Helvetica,sans-Serif" font-size="11.00">PendingIntentRecord.dump</text>
</g>
<!-- m::com.android.server.am.PendingIntentRecord.dump:(Ljava/io/PrintWriter;Ljava/lang/String;)V&#45;&gt;__field__ -->
<g id="edge4" class="edge">
<title>m::com.android.server.am.PendingIntentRecord.dump:(Ljava/io/PrintWriter;Ljava/lang/String;)V&#45;&gt;__field__</title>
<path fill="none" stroke="#dc2626" d="M230.39,-36.36C283.97,-43.91 355.15,-53.93 415.69,-62.46"/>
<polygon fill="#dc2626" stroke="#dc2626" points="415.47,-65.26 423.78,-63.6 416.25,-59.71 415.47,-65.26"/>
<text text-anchor="middle" x="360" y="-61.7" font-family="Helvetica,sans-Serif" font-size="9.00" fill="#dc2626"> reads unguarded</text>
</g>
<!-- m::com.android.server.am.PendingIntentRecord.dump:(Ljava/io/PrintWriter;Ljava/lang/String;)V&#45;&gt;__field__ -->
<g id="edge5" class="edge">
<title>m::com.android.server.am.PendingIntentRecord.dump:(Ljava/io/PrintWriter;Ljava/lang/String;)V&#45;&gt;__field__</title>
<path fill="none" stroke="#dc2626" d="M230.25,-21.9C280.18,-21.51 345.24,-23.62 402,-33.9 431.29,-39.21 462.87,-49.43 488.36,-58.89"/>
<polygon fill="#dc2626" stroke="#dc2626" points="487.6,-61.59 496.07,-61.79 489.57,-56.35 487.6,-61.59"/>
<text text-anchor="middle" x="360" y="-36.7" font-family="Helvetica,sans-Serif" font-size="9.00" fill="#dc2626"> reads unguarded</text>
</g>
<!-- m::com.android.server.am.PendingIntentRecord.dump:(Ljava/io/PrintWriter;Ljava/lang/String;)V&#45;&gt;__field__ -->
<g id="edge6" class="edge">
<title>m::com.android.server.am.PendingIntentRecord.dump:(Ljava/io/PrintWriter;Ljava/lang/String;)V&#45;&gt;__field__</title>
<path fill="none" stroke="#dc2626" d="M230.12,-7.58C280.29,0.15 345.65,4.79 402,-8.9 440.34,-18.22 479.95,-40.21 506.75,-57.27"/>
<polygon fill="#dc2626" stroke="#dc2626" points="505.38,-59.72 513.62,-61.72 508.42,-55.02 505.38,-59.72"/>
<text text-anchor="middle" x="360" y="-11.7" font-family="Helvetica,sans-Serif" font-size="9.00" fill="#dc2626"> reads unguarded</text>
</g>
</g>
</svg>
