<?xml version="1.0" encoding="UTF-8" standalone="no"?>
<!DOCTYPE svg PUBLIC "-//W3C//DTD SVG 1.1//EN"
 "http://www.w3.org/Graphics/SVG/1.1/DTD/svg11.dtd">
<!-- Generated by graphviz version 2.43.0 (0)
 -->
<!-- Title: race Pages: 1 -->
<svg width="743pt" height="645pt"
 viewBox="0.00 0.00 743.00 644.63" xmlns="http://www.w3.org/2000/svg" xmlns:xlink="http://www.w3.org/1999/xlink">
<g id="graph0" class="graph" transform="scale(1 1) rotate(0) translate(4 640.63)">
<title>race</title>
<polygon fill="white" stroke="transparent" points="-4,4 -4,-640.63 739,-640.63 739,4 -4,4"/>
<!-- __field__ -->
<g id="node1" class="node">
<title>__field__</title>
<path fill="#fef9c3" stroke="#ca8a04" stroke-width="2" d="M723,-325.63C723,-325.63 556,-325.63 556,-325.63 550,-325.63 544,-319.63 544,-313.63 544,-313.63 544,-301.63 544,-301.63 544,-295.63 550,-289.63 556,-289.63 556,-289.63 723,-289.63 723,-289.63 729,-289.63 735,-295.63 735,-301.63 735,-301.63 735,-313.63 735,-313.63 735,-319.63 729,-325.63 723,-325.63"/>
<text text-anchor="middle" x="639.5" y="-304.83" font-family="Helvetica,sans-Serif" font-size="11.00">DeviceIdleController.mForceIdle</text>
</g>
<!-- __guard__ -->
<g id="node2" class="node">
<title>__guard__</title>
<path fill="#dcfce7" stroke="#16a34a" stroke-width="2" d="M279,-636.63C279,-636.63 137,-636.63 137,-636.63 131,-636.63 125,-630.63 125,-624.63 125,-624.63 125,-612.63 125,-612.63 125,-606.63 131,-600.63 137,-600.63 137,-600.63 279,-600.63 279,-600.63 285,-600.63 291,-606.63 291,-612.63 291,-612.63 291,-624.63 291,-624.63 291,-630.63 285,-636.63 279,-636.63"/>
<text text-anchor="middle" x="208" y="-615.83" font-family="Helvetica,sans-Serif" font-size="11.00">server.DeviceIdleController</text>
</g>
<!-- __guard__&#45;&gt;__field__ -->
<g id="edge1" class="edge">
<title>__guard__&#45;&gt;__field__</title>
<path fill="none" stroke="#16a34a" stroke-width="1.6" d="M291.09,-630.13C359.51,-635.13 456.1,-631.03 522,-581.63 604.03,-520.15 628.88,-389.49 635.92,-333.73"/>
<polygon fill="#16a34a" stroke="#16a34a" stroke-width="1.6" points="638.7,-334.03 636.86,-325.76 633.14,-333.37 638.7,-334.03"/>
<text text-anchor="middle" x="480" y="-622.43" font-family="Helvetica,sans-Serif" font-size="9.00" fill="#15803d"> guards 4/6</text>
</g>
<!-- m::com.android.server.DeviceIdleController.exitForceIdleLocked:()V -->
<g id="node3" class="node">
<title>m::com.android.server.DeviceIdleController.exitForceIdleLocked:()V</title>
<path fill="#fee2e2" stroke="#dc2626" d="M315.5,-578.63C315.5,-578.63 100.5,-578.63 100.5,-578.63 94.5,-578.63 88.5,-572.63 88.5,-566.63 88.5,-566.63 88.5,-554.63 88.5,-554.63 88.5,-548.63 94.5,-542.63 100.5,-542.63 100.5,-542.63 315.5,-542.63 315.5,-542.63 321.5,-542.63 327.5,-548.63 327.5,-554.63 327.5,-554.63 327.5,-566.63 327.5,-566.63 327.5,-572.63 321.5,-578.63 315.5,-578.63"/>
<text text-anchor="middle" x="208" y="-557.83" font-family="Helvetica,sans-Serif" font-size="11.00">DeviceIdleController.exitForceIdleLocked</text>
</g>
<!-- m::com.android.server.DeviceIdleController.exitForceIdleLocked:()V&#45;&gt;__field__ -->
<g id="edge2" class="edge">
<title>m::com.android.server.DeviceIdleController.exitForceIdleLocked:()V&#45;&gt;__field__</title>
<path fill="none" stroke="#dc2626" d="M327.64,-577C390.31,-579.54 465.69,-572.31 522,-534.63 592.99,-487.13 623.14,-382.38 633.69,-333.59"/>
<polygon fill="#dc2626" stroke="#dc2626" points="636.44,-334.11 635.33,-325.71 630.96,-332.97 636.44,-334.11"/>
<text text-anchor="middle" x="480" y="-569.43" font-family="Helvetica,sans-Serif" font-size="9.00" fill="#dc2626"> writes unguarded</text>
</g>
<!-- m::com.android.server.DeviceIdleController.exitForceIdleLocked:()V&#45;&gt;__field__ -->
<g id="edge7" class="edge">
<title>m::com.android.server.DeviceIdleController.exitForceIdleLocked:()V&#45;&gt;__field__</title>
<path fill="none" stroke="#dc2626" d="M327.5,-548.38C356.67,-544.18 387.65,-538.69 416,-531.63 426.1,-529.12 428.19,-527.11 438,-523.63 475.23,-510.44 491.12,-519.25 522,-494.63 577.1,-450.71 613.23,-373.17 629.15,-333.14"/>
<polygon fill="#dc2626" stroke="#dc2626" points="631.77,-334.12 632.07,-325.65 626.56,-332.09 631.77,-334.12"/>
<text text-anchor="middle" x="480" y="-526.43" font-family="Helvetica,sans-Serif" font-size="9.00" fill="#dc2626"> reads unguarded</text>
</g>
<!-- m::com.android.server.DeviceIdleController.onShellCommand:(Lcom/android/server/DeviceIdleController$Shell;Ljava/lang/String;)I -->
<g id="node4" class="node">
<title>m::com.android.server.DeviceIdleController.onShellCommand:(Lcom/android/server/DeviceIdleController$Shell;Ljava/lang/String;)I</title>
<path fill="#fee2e2" stroke="#dc2626" d="M309,-520.63C309,-520.63 107,-520.63 107,-520.63 101,-520.63 95,-514.63 95,-508.63 95,-508.63 95,-496.63 95,-496.63 95,-490.63 101,-484.63 107,-484.63 107,-484.63 309,-484.63 309,-484.63 315,-484.63 321,-490.63 321,-496.63 321,-496.63 321,-508.63 321,-508.63 321,-514.63 315,-520.63 309,-520.63"/>
<text text-anchor="middle" x="208" y="-499.83" font-family="Helvetica,sans-Serif" font-size="11.00">DeviceIdleController.onShellCommand</text>
</g>
<!-- m::com.android.server.DeviceIdleController.onShellCommand:(Lcom/android/server/DeviceIdleController$Shell;Ljava/lang/String;)I&#45;&gt;__field__ -->
<g id="edge3" class="edge">
<title>m::com.android.server.DeviceIdleController.onShellCommand:(Lcom/android/server/DeviceIdleController$Shell;Ljava/lang/String;)I&#45;&gt;__field__</title>
<path fill="none" stroke="#dc2626" d="M321.12,-495.43C396.72,-488.91 488.55,-477.24 522,-457.63 572.38,-428.11 608.81,-367.64 626.48,-333.18"/>
<polygon fill="#dc2626" stroke="#dc2626" points="629.08,-334.24 630.17,-325.83 624.08,-331.73 629.08,-334.24"/>
<text text-anchor="middle" x="480" y="-482.43" font-family="Helvetica,sans-Serif" font-size="9.00" fill="#dc2626"> writes unguarded</text>
</g>
<!-- m::com.android.server.DeviceIdleController.becomeInactiveIfAppropriateLocked:()V -->
<g id="node5" class="node">
<title>m::com.android.server.DeviceIdleController.becomeInactiveIfAppropriateLocked:()V</title>
<path fill="#fee2e2" stroke="#dc2626" d="M359.5,-462.63C359.5,-462.63 56.5,-462.63 56.5,-462.63 50.5,-462.63 44.5,-456.63 44.5,-450.63 44.5,-450.63 44.5,-438.63 44.5,-438.63 44.5,-432.63 50.5,-426.63 56.5,-426.63 56.5,-426.63 359.5,-426.63 359.5,-426.63 365.5,-426.63 371.5,-432.63 371.5,-438.63 371.5,-438.63 371.5,-450.63 371.5,-450.63 371.5,-456.63 365.5,-462.63 359.5,-462.63"/>
<text text-anchor="middle" x="208" y="-441.83" font-family="Helvetica,sans-Serif" font-size="11.00">DeviceIdleController.becomeInactiveIfAppropriateLocked</text>
</g>
<!-- m::com.android.server.DeviceIdleController.becomeInactiveIfAppropriateLocked:()V&#45;&gt;__field__ -->
<g id="edge4" class="edge">
<title>m::com.android.server.DeviceIdleController.becomeInactiveIfAppropriateLocked:()V&#45;&gt;__field__</title>
<path fill="none" stroke="#dc2626" d="M371.83,-451.7C421.78,-448.52 475.74,-439.41 522,-418.63 564.29,-399.65 600.7,-358.64 621.09,-332.13"/>
<polygon fill="#dc2626" stroke="#dc2626" points="623.34,-333.8 625.92,-325.73 618.87,-330.43 623.34,-333.8"/>
<text text-anchor="middle" x="480" y="-445.43" font-family="Helvetica,sans-Serif" font-size="9.00" fill="#dc2626"> reads unguarded</text>
</g>
<!-- m::com.android.server.DeviceIdleController.becomeInactiveIfAppropriateLocked:()V&#45;&gt;__field__ -->
<g id="edge5" class="edge">
<title>m::com.android.server.DeviceIdleController.becomeInactiveIfAppropriateLocked:()V&#45;&gt;__field__</title>
<path fill="none" stroke="#dc2626" d="M370.43,-426.62C385.95,-423.51 401.36,-419.88 416,-415.63 440.84,-408.43 498.72,-378.89 522,-367.63 547.21,-355.44 575.11,-341.11 597.28,-329.5"/>
<polygon fill="#dc2626" stroke="#dc2626" points="598.79,-331.88 604.57,-325.68 596.19,-326.92 598.79,-331.88"/>
<text text-anchor="middle" x="480" y="-409.43" font-family="Helvetica,sans-Serif" font-size="9.00" fill="#dc2626"> reads unguarded</text>
</g>
<!-- m::com.android.server.DeviceIdleController.dump:(Ljava/io/FileDescriptor;Ljava/io/PrintWriter;[Ljava/lang/String;)V -->
<g id="node6" class="node">
<title>m::com.android.server.DeviceIdleController.dump:(Ljava/io/FileDescriptor;Ljava/io/PrintWriter;[Ljava/lang/String;)V</title>
<path fill="#fee2e2" stroke="#dc2626" d="M276.5,-404.63C276.5,-404.63 139.5,-404.63 139.5,-404.63 133.5,-404.63 127.5,-398.63 127.5,-392.63 127.5,-392.63 127.5,-380.63 127.5,-380.63 127.5,-374.63 133.5,-368.63 139.5,-368.63 139.5,-368.63 276.5,-368.63 276.5,-368.63 282.5,-368.63 288.5,-374.63 288.5,-380.63 288.5,-380.63 288.5,-392.63 288.5,-392.63 288.5,-398.63 282.5,-404.63 276.5,-404.63"/>
<text text-anchor="middle" x="208" y="-383.83" font-family="Helvetica,sans-Serif" font-size="11.00">DeviceIdleController.dump</text>
</g>
<!-- m::com.android.server.DeviceIdleController.dump:(Ljava/io/FileDescriptor;Ljava/io/PrintWriter;[Ljava/lang/String;)V&#45;&gt;__field__ -->
<g id="edge6" class="edge">
<title>m::com.android.server.DeviceIdleController.dump:(Ljava/io/FileDescriptor;Ljava/io/PrintWriter;[Ljava/lang/String;)V&#45;&gt;__field__</title>
<path fill="none" stroke="#dc2626" d="M288.87,-377C327.4,-371.95 374.23,-365.24 416,-357.63 463.11,-349.06 515.38,-337.42 557.41,-327.53"/>
<polygon fill="#dc2626" stroke="#dc2626" points="558.26,-330.21 565.4,-325.65 556.97,-324.76 558.26,-330.21"/>
<text text-anchor="middle" x="480" y="-355.43" font-family="Helvetica,sans-Serif" font-size="9.00" fill="#dc2626"> reads unguarded</text>
</g>
<!-- m::com.android.server.DeviceIdleController.keyguardShowingLocked:(Z)V -->
<g id="node7" class="node">
<title>m::com.android.server.DeviceIdleController.keyguardShowingLocked:(Z)V</title>
<path fill="#fee2e2" stroke="#dc2626" d="M329,-346.63C329,-346.63 87,-346.63 87,-346.63 81,-346.63 75,-340.63 75,-334.63 75,-334.63 75,-322.63 75,-322.63 75,-316.63 81,-310.63 87,-310.63 87,-310.63 329,-310.63 329,-310.63 335,-310.63 341,-316.63 341,-322.63 341,-322.63 341,-334.63 341,-334.63 341,-340.63 335,-346.63 329,-346.63"/>
<text text-anchor="middle" x="208" y="-325.83" font-family="Helvetica,sans-Serif" font-size="11.00">DeviceIdleController.keyguardShowingLocked</text>
</g>
<!-- m::com.android.server.DeviceIdleController.keyguardShowingLocked:(Z)V&#45;&gt;__field__ -->
<g id="edge8" class="edge">
<title>m::com.android.server.DeviceIdleController.keyguardShowingLocked:(Z)V&#45;&gt;__field__</title>
<path fill="none" stroke="#dc2626" d="M341.08,-322.18C403.71,-319.11 477.41,-315.51 535.78,-312.66"/>
<polygon fill="#dc2626" stroke="#dc2626" points="536.06,-315.45 543.91,-312.26 535.79,-309.85 536.06,-315.45"/>
<text text-anchor="middle" x="480" y="-319.43" font-family="Helvetica,sans-Serif" font-size="9.00" fill="#dc2626"> reads unguarded</text>
</g>
<!-- m::com.android.server.DeviceIdleController.maybeBecomeActiveOnModeManagerEventsLocked:()V -->
<g id="node8" class="node">
<title>m::com.android.server.DeviceIdleController.maybeBecomeActiveOnModeManagerEventsLocked:()V</title>
<path fill="#fee2e2" stroke="#dc2626" d="M404,-288.63C404,-288.63 12,-288.63 12,-288.63 6,-288.63 0,-282.63 0,-276.63 0,-276.63 0,-264.63 0,-264.63 0,-258.63 6,-252.63 12,-252.63 12,-252.63 404,-252.63 404,-252.63 410,-252.63 416,-258.63 416,-264.63 416,-264.63 416,-276.63 416,-276.63 416,-282.63 410,-288.63 404,-288.63"/>
<text text-anchor="middle" x="208" y="-267.83" font-family="Helvetica,sans-Serif" font-size="11.00">DeviceIdleController.maybeBecomeActiveOnModeManagerEventsLocked</text>
</g>
<!-- m::com.android.server.DeviceIdleController.maybeBecomeActiveOnModeManagerEventsLocked:()V&#45;&gt;__field__ -->
<g id="edge9" class="edge">
<title>m::com.android.server.DeviceIdleController.maybeBecomeActiveOnModeManagerEventsLocked:()V&#45;&gt;__field__</title>
<path fill="none" stroke="#dc2626" d="M416.2,-288.48C457.78,-292.07 499.74,-295.68 535.83,-298.79"/>
<polygon fill="#dc2626" stroke="#dc2626" points="535.71,-301.59 543.92,-299.49 536.19,-296.01 535.71,-301.59"/>
<text text-anchor="middle" x="480" y="-299.43" font-family="Helvetica,sans-Serif" font-size="9.00" fill="#dc2626"> reads unguarded</text>
</g>
<!-- m::com.android.server.DeviceIdleController.stepIdleStateLocked:(Ljava/lang/String;)V -->
<g id="node9" class="node">
<title>m::com.android.server.DeviceIdleController.stepIdleStateLocked:(Ljava/lang/String;)V</title>
<path fill="#fee2e2" stroke="#dc2626" d="M317,-230.63C317,-230.63 99,-230.63 99,-230.63 93,-230.63 87,-224.63 87,-218.63 87,-218.63 87,-206.63 87,-206.63 87,-200.63 93,-194.63 99,-194.63 99,-194.63 317,-194.63 317,-194.63 323,-194.63 329,-200.63 329,-206.63 329,-206.63 329,-218.63 329,-218.63 329,-224.63 323,-230.63 317,-230.63"/>
<text text-anchor="middle" x="208" y="-209.83" font-family="Helvetica,sans-Serif" font-size="11.00">DeviceIdleController.stepIdleStateLocked</text>
</g>
<!-- m::com.android.server.DeviceIdleController.stepIdleStateLocked:(Ljava/lang/String;)V&#45;&gt;__field__ -->
<g id="edge10" class="edge">
<title>m::com.android.server.DeviceIdleController.stepIdleStateLocked:(Ljava/lang/String;)V&#45;&gt;__field__</title>
<path fill="none" stroke="#dc2626" d="M329.12,-226.37C357.74,-230.5 388.07,-235.57 416,-241.63 471.53,-253.69 533.41,-272.49 577.78,-286.95"/>
<polygon fill="#dc2626" stroke="#dc2626" points="577.11,-289.68 585.58,-289.51 578.85,-284.35 577.11,-289.68"/>
<text text-anchor="middle" x="480" y="-271.43" font-family="Helvetica,sans-Serif" font-size="9.00" fill="#dc2626"> reads unguarded</text>
</g>
<!-- m::com.android.server.DeviceIdleController.updateChargingLocked:(Z)V -->
<g id="node10" class="node">
<title>m::com.android.server.DeviceIdleController.updateChargingLocked:(Z)V</title>
<path fill="#fee2e2" stroke="#dc2626" d="M324,-172.63C324,-172.63 92,-172.63 92,-172.63 86,-172.63 80,-166.63 80,-160.63 80,-160.63 80,-148.63 80,-148.63 80,-142.63 86,-136.63 92,-136.63 92,-136.63 324,-136.63 324,-136.63 330,-136.63 336,-142.63 336,-148.63 336,-148.63 336,-160.63 336,-160.63 336,-166.63 330,-172.63 324,-172.63"/>
<text text-anchor="middle" x="208" y="-151.83" font-family="Helvetica,sans-Serif" font-size="11.00">DeviceIdleController.updateChargingLocked</text>
</g>
<!-- m::com.android.server.DeviceIdleController.updateChargingLocked:(Z)V&#45;&gt;__field__ -->
<g id="edge11" class="edge">
<title>m::com.android.server.DeviceIdleController.updateChargingLocked:(Z)V&#45;&gt;__field__</title>
<path fill="none" stroke="#dc2626" d="M336.1,-166.6C362.79,-170.73 390.56,-176.26 416,-183.63 465.67,-198.04 476.65,-206.77 522,-231.63 551.55,-247.84 583.51,-268.96 606.46,-284.83"/>
<polygon fill="#dc2626" stroke="#dc2626" points="605.12,-287.3 613.28,-289.57 608.31,-282.7 605.12,-287.3"/>
<text text-anchor="middle" x="480" y="-234.43" font-family="Helvetica,sans-Serif" font-size="9.00" fill="#dc2626"> reads unguarded</text>
</g>
<!-- m::com.android.server.DeviceIdleController.updateChargingLocked:(Z)V&#45;&gt;__field__ -->
<g id="edge12" class="edge">
<title>m::com.android.server.DeviceIdleController.updateChargingLocked:(Z)V&#45;&gt;__field__</title>
<path fill="none" stroke="#dc2626" d="M336.29,-153.49C408.16,-154.71 489.87,-159.82 522,-175.63 569.48,-199 606.02,-251.13 624.7,-282.43"/>
<polygon fill="#dc2626" stroke="#dc2626" points="622.4,-284.04 628.85,-289.54 627.23,-281.22 622.4,-284.04"/>
<text text-anchor="middle" x="480" y="-178.43" font-family="Helvetica,sans-Serif" font-size="9.00" fill="#dc2626"> reads unguarded</text>
</g>
<!-- m::com.android.server.DeviceIdleController.updateInteractivityLocked:()V -->
<g id="node11" class="node">
<title>m::com.android.server.DeviceIdleController.updateInteractivityLocked:()V</title>
<path fill="#fee2e2" stroke="#dc2626" d="M333,-114.63C333,-114.63 83,-114.63 83,-114.63 77,-114.63 71,-108.63 71,-102.63 71,-102.63 71,-90.63 71,-90.63 71,-84.63 77,-78.63 83,-78.63 83,-78.63 333,-78.63 333,-78.63 339,-78.63 345,-84.63 345,-90.63 345,-90.63 345,-102.63 345,-102.63 345,-108.63 339,-114.63 333,-114.63"/>
<text text-anchor="middle" x="208" y="-93.83" font-family="Helvetica,sans-Serif" font-size="11.00">DeviceIdleController.updateInteractivityLocked</text>
</g>
<!-- m::com.android.server.DeviceIdleController.updateInteractivityLocked:()V&#45;&gt;__field__ -->
<g id="edge13" class="edge">
<title>m::com.android.server.DeviceIdleController.updateInteractivityLocked:()V&#45;&gt;__field__</title>
<path fill="none" stroke="#dc2626" d="M345.24,-106.32C415.49,-113.41 492.51,-125.12 522,-143.63 575.43,-177.18 611.47,-245.05 628.05,-282.09"/>
<polygon fill="#dc2626" stroke="#dc2626" points="625.52,-283.3 631.29,-289.51 630.65,-281.06 625.52,-283.3"/>
<text text-anchor="middle" x="480" y="-146.43" font-family="Helvetica,sans-Serif" font-size="9.00" fill="#dc2626"> reads unguarded</text>
</g>
<!-- m::com.android.server.DeviceIdleController.updateInteractivityLocked:()V&#45;&gt;__field__ -->
<g id="edge14" class="edge">
<title>m::com.android.server.DeviceIdleController.updateInteractivityLocked:()V&#45;&gt;__field__</title>
<path fill="none" stroke="#dc2626" d="M345.17,-87.2C415.39,-84.86 492.41,-86.99 522,-104.63 588.04,-144.01 620.1,-236.09 632.34,-281.44"/>
<polygon fill="#dc2626" stroke="#dc2626" points="629.67,-282.31 634.39,-289.34 635.09,-280.9 629.67,-282.31"/>
<text text-anchor="middle" x="480" y="-107.43" font-family="Helvetica,sans-Serif" font-size="9.00" fill="#dc2626"> reads unguarded</text>
</g>
<!-- m::com.android.server.DeviceIdleController.updateQuickDozeFlagLocked:(Z)V -->
<g id="node12" class="node">
<title>m::com.android.server.DeviceIdleController.updateQuickDozeFlagLocked:(Z)V</title>
<path fill="#fee2e2" stroke="#dc2626" d="M340,-53.63C340,-53.63 76,-53.63 76,-53.63 70,-53.63 64,-47.63 64,-41.63 64,-41.63 64,-29.63 64,-29.63 64,-23.63 70,-17.63 76,-17.63 76,-17.63 340,-17.63 340,-17.63 346,-17.63 352,-23.63 352,-29.63 352,-29.63 352,-41.63 352,-41.63 352,-47.63 346,-53.63 340,-53.63"/>
<text text-anchor="middle" x="208" y="-32.83" font-family="Helvetica,sans-Serif" font-size="11.00">DeviceIdleController.updateQuickDozeFlagLocked</text>
</g>
<!-- m::com.android.server.DeviceIdleController.updateQuickDozeFlagLocked:(Z)V&#45;&gt;__field__ -->
<g id="edge15" class="edge">
<title>m::com.android.server.DeviceIdleController.updateQuickDozeFlagLocked:(Z)V&#45;&gt;__field__</title>
<path fill="none" stroke="#dc2626" d="M352.39,-39.52C421.17,-43.94 494.5,-53.24 522,-72.63 593.95,-123.36 623.67,-231.48 633.91,-281.39"/>
<polygon fill="#dc2626" stroke="#dc2626" points="631.2,-282.14 635.49,-289.44 636.69,-281.05 631.2,-282.14"/>
<text text-anchor="middle" x="480" y="-75.43" font-family="Helvetica,sans-Serif" font-size="9.00" fill="#dc2626"> reads unguarded</text>
</g>
<!-- m::com.android.server.DeviceIdleController.updateQuickDozeFlagLocked:(Z)V&#45;&gt;__field__ -->
<g id="edge16" class="edge">
<title>m::com.android.server.DeviceIdleController.updateQuickDozeFlagLocked:(Z)V&#45;&gt;__field__</title>
<path fill="none" stroke="#dc2626" d="M266.04,-17.62C333.2,-0.12 445.29,17.11 522,-33.63 607.71,-90.33 630.55,-224.2 636.49,-281.2"/>
<polygon fill="#dc2626" stroke="#dc2626" points="633.72,-281.65 637.27,-289.35 639.29,-281.11 633.72,-281.65"/>
<text text-anchor="middle" x="480" y="-36.43" font-family="Helvetica,sans-Serif" font-size="9.00" fill="#dc2626"> reads unguarded</text>
</g>
</g>
</svg>
