<?xml version="1.0" encoding="UTF-8" standalone="no"?>
<!DOCTYPE svg PUBLIC "-//W3C//DTD SVG 1.1//EN"
 "http://www.w3.org/Graphics/SVG/1.1/DTD/svg11.dtd">
<!-- Generated by graphviz version 2.43.0 (0)
 -->
<!-- Title: race Pages: 1 -->
<svg width="906pt" height="392pt"
 viewBox="0.00 0.00 906.00 392.00" xmlns="http://www.w3.org/2000/svg" xmlns:xlink="http://www.w3.org/1999/xlink">
<g id="graph0" class="graph" transform="scale(1 1) rotate(0) translate(4 388)">
<title>race</title>
<polygon fill="white" stroke="transparent" points="-4,4 -4,-388 902,-388 902,4 -4,4"/>
<!-- __field__ -->
<g id="node1" class="node">
<title>__field__</title>
<path fill="#fef9c3" stroke="#ca8a04" stroke-width="2" d="M886,-231C886,-231 589,-231 589,-231 583,-231 577,-225 577,-219 577,-219 577,-207 577,-207 577,-201 583,-195 589,-195 589,-195 886,-195 886,-195 892,-195 898,-201 898,-207 898,-207 898,-219 898,-219 898,-225 892,-231 886,-231"/>
<text text-anchor="middle" x="737.5" y="-210.2" font-family="Helvetica,sans-Serif" font-size="11.00">MagnificationConnectionManager.mConnectionWrapper</text>
</g>
<!-- __guard__ -->
<g id="node2" class="node">
<title>__guard__</title>
<path fill="#dcfce7" stroke="#16a34a" stroke-width="2" d="M303.5,-384C303.5,-384 145.5,-384 145.5,-384 139.5,-384 133.5,-378 133.5,-372 133.5,-372 133.5,-360 133.5,-360 133.5,-354 139.5,-348 145.5,-348 145.5,-348 303.5,-348 303.5,-348 309.5,-348 315.5,-354 315.5,-360 315.5,-360 315.5,-372 315.5,-372 315.5,-378 309.5,-384 303.5,-384"/>
<text text-anchor="middle" x="224.5" y="-363.2" font-family="Helvetica,sans-Serif" font-size="11.00">MagnificationController.mLock</text>
</g>
<!-- __guard__&#45;&gt;__field__ -->
<g id="edge1" class="edge">
<title>__guard__&#45;&gt;__field__</title>
<path fill="none" stroke="#16a34a" stroke-width="1.6" d="M315.85,-360.48C383.57,-354.02 477.51,-340.07 555,-310 608.09,-289.4 665.42,-256.86 701.14,-235.22"/>
<polygon fill="#16a34a" stroke="#16a34a" stroke-width="1.6" points="702.61,-237.6 707.98,-231.05 699.7,-232.82 702.61,-237.6"/>
<text text-anchor="middle" x="513" y="-336.8" font-family="Helvetica,sans-Serif" font-size="9.00" fill="#15803d"> guards 3/4</text>
</g>
<!-- m::com.android.server.accessibility.magnification.MagnificationConnectionManager$ConnectionCallback.binderDied:()V -->
<g id="node3" class="node">
<title>m::com.android.server.accessibility.magnification.MagnificationConnectionManager$ConnectionCallback.binderDied:()V</title>
<path fill="#fee2e2" stroke="#dc2626" d="M401,-326C401,-326 48,-326 48,-326 42,-326 36,-320 36,-314 36,-314 36,-302 36,-302 36,-296 42,-290 48,-290 48,-290 401,-290 401,-290 407,-290 413,-296 413,-302 413,-302 413,-314 413,-314 413,-320 407,-326 401,-326"/>
<text text-anchor="middle" x="224.5" y="-305.2" font-family="Helvetica,sans-Serif" font-size="11.00">MagnificationConnectionManager$ConnectionCallback.binderDied</text>
</g>
<!-- m::com.android.server.accessibility.magnification.MagnificationConnectionManager$ConnectionCallback.binderDied:()V&#45;&gt;__field__ -->
<g id="edge2" class="edge">
<title>m::com.android.server.accessibility.magnification.MagnificationConnectionManager$ConnectionCallback.binderDied:()V&#45;&gt;__field__</title>
<path fill="none" stroke="#dc2626" d="M413.34,-302.45C460.01,-298.53 509.65,-292.19 555,-282 602.9,-271.24 655.04,-250.39 691.1,-234.41"/>
<polygon fill="#dc2626" stroke="#dc2626" points="692.38,-236.91 698.54,-231.08 690.09,-231.79 692.38,-236.91"/>
<text text-anchor="middle" x="513" y="-297.8" font-family="Helvetica,sans-Serif" font-size="9.00" fill="#dc2626"> writes unguarded</text>
</g>
<!-- m::com.android.server.accessibility.magnification.MagnificationConnectionManager$ConnectionCallback.binderDied:()V&#45;&gt;__field__ -->
<g id="edge3" class="edge">
<title>m::com.android.server.accessibility.magnification.MagnificationConnectionManager$ConnectionCallback.binderDied:()V&#45;&gt;__field__</title>
<path fill="none" stroke="#dc2626" d="M395.24,-289.97C413.49,-286.84 431.7,-283.21 449,-279 459.11,-276.54 461.01,-273.89 471,-271 523.16,-255.89 582.08,-242.65 631.14,-232.64"/>
<polygon fill="#dc2626" stroke="#dc2626" points="631.96,-235.33 639.24,-231 630.85,-229.84 631.96,-235.33"/>
<text text-anchor="middle" x="513" y="-273.8" font-family="Helvetica,sans-Serif" font-size="9.00" fill="#dc2626"> reads unguarded</text>
</g>
<!-- m::com.android.server.accessibility.magnification.MagnificationConnectionManager.disableWindowMagnificationInternal:(ILandroid/view/accessibility/MagnificationAnimationCallback;)Z -->
<g id="node4" class="node">
<title>m::com.android.server.accessibility.magnification.MagnificationConnectionManager.disableWindowMagnificationInternal:(ILandroid/view/accessibility/MagnificationAnimationCallback;)Z</title>
<path fill="#fee2e2" stroke="#dc2626" d="M412.5,-268C412.5,-268 36.5,-268 36.5,-268 30.5,-268 24.5,-262 24.5,-256 24.5,-256 24.5,-244 24.5,-244 24.5,-238 30.5,-232 36.5,-232 36.5,-232 412.5,-232 412.5,-232 418.5,-232 424.5,-238 424.5,-244 424.5,-244 424.5,-256 424.5,-256 424.5,-262 418.5,-268 412.5,-268"/>
<text text-anchor="middle" x="224.5" y="-247.2" font-family="Helvetica,sans-Serif" font-size="11.00">MagnificationConnectionManager.disableWindowMagnificationInternal</text>
</g>
<!-- m::com.android.server.accessibility.magnification.MagnificationConnectionManager.disableWindowMagnificationInternal:(ILandroid/view/accessibility/MagnificationAnimationCallback;)Z&#45;&gt;__field__ -->
<g id="edge4" class="edge">
<title>m::com.android.server.accessibility.magnification.MagnificationConnectionManager.disableWindowMagnificationInternal:(ILandroid/view/accessibility/MagnificationAnimationCallback;)Z&#45;&gt;__field__</title>
<path fill="none" stroke="#dc2626" d="M424.53,-235.59C472.11,-232.14 522.45,-228.5 568.48,-225.17"/>
<polygon fill="#dc2626" stroke="#dc2626" points="568.94,-227.94 576.72,-224.57 568.54,-222.35 568.94,-227.94"/>
<text text-anchor="middle" x="513" y="-233.8" font-family="Helvetica,sans-Serif" font-size="9.00" fill="#dc2626"> reads unguarded</text>
</g>
<!-- m::com.android.server.accessibility.magnification.MagnificationConnectionManager.moveWindowMagnifierInternal:(IFF)Z -->
<g id="node5" class="node">
<title>m::com.android.server.accessibility.magnification.MagnificationConnectionManager.moveWindowMagnifierInternal:(IFF)Z</title>
<path fill="#fee2e2" stroke="#dc2626" d="M397,-210C397,-210 52,-210 52,-210 46,-210 40,-204 40,-198 40,-198 40,-186 40,-186 40,-180 46,-174 52,-174 52,-174 397,-174 397,-174 403,-174 409,-180 409,-186 409,-186 409,-198 409,-198 409,-204 403,-210 397,-210"/>
<text text-anchor="middle" x="224.5" y="-189.2" font-family="Helvetica,sans-Serif" font-size="11.00">MagnificationConnectionManager.moveWindowMagnifierInternal</text>
</g>
<!-- m::com.android.server.accessibility.magnification.MagnificationConnectionManager.moveWindowMagnifierInternal:(IFF)Z&#45;&gt;__field__ -->
<g id="edge5" class="edge">
<title>m::com.android.server.accessibility.magnification.MagnificationConnectionManager.moveWindowMagnifierInternal:(IFF)Z&#45;&gt;__field__</title>
<path fill="none" stroke="#dc2626" d="M409.01,-192.42C456.58,-193.18 507.72,-194.56 555,-197 559.44,-197.23 563.94,-197.48 568.49,-197.75"/>
<polygon fill="#dc2626" stroke="#dc2626" points="568.54,-200.56 576.7,-198.26 568.89,-194.97 568.54,-200.56"/>
<text text-anchor="middle" x="513" y="-199.8" font-family="Helvetica,sans-Serif" font-size="9.00" fill="#dc2626"> reads unguarded</text>
</g>
<!-- m::com.android.server.accessibility.magnification.MagnificationConnectionManager.moveWindowMagnifierToPositionInternal:(IFFLandroid/view/accessibility/MagnificationAnimationCallback;)Z -->
<g id="node6" class="node">
<title>m::com.android.server.accessibility.magnification.MagnificationConnectionManager.moveWindowMagnifierToPositionInternal:(IFFLandroid/view/accessibility/MagnificationAnimationCallback;)Z</title>
<path fill="#fee2e2" stroke="#dc2626" d="M424,-152C424,-152 25,-152 25,-152 19,-152 13,-146 13,-140 13,-140 13,-128 13,-128 13,-122 19,-116 25,-116 25,-116 424,-116 424,-116 430,-116 436,-122 436,-128 436,-128 436,-140 436,-140 436,-146 430,-152 424,-152"/>
<text text-anchor="middle" x="224.5" y="-131.2" font-family="Helvetica,sans-Serif" font-size="11.00">MagnificationConnectionManager.moveWindowMagnifierToPositionInternal</text>
</g>
<!-- m::com.android.server.accessibility.magnification.MagnificationConnectionManager.moveWindowMagnifierToPositionInternal:(IFFLandroid/view/accessibility/MagnificationAnimationCallback;)Z&#45;&gt;__field__ -->
<g id="edge6" class="edge">
<title>m::com.android.server.accessibility.magnification.MagnificationConnectionManager.moveWindowMagnifierToPositionInternal:(IFFLandroid/view/accessibility/MagnificationAnimationCallback;)Z&#45;&gt;__field__</title>
<path fill="none" stroke="#dc2626" d="M376.31,-152.03C432.52,-159.3 496.8,-168.28 555,-178 582.51,-182.6 612.27,-188.11 639.57,-193.38"/>
<polygon fill="#dc2626" stroke="#dc2626" points="639.19,-196.16 647.57,-194.93 640.25,-190.66 639.19,-196.16"/>
<text text-anchor="middle" x="513" y="-180.8" font-family="Helvetica,sans-Serif" font-size="9.00" fill="#dc2626"> reads unguarded</text>
</g>
<!-- m::com.android.server.accessibility.magnification.MagnificationConnectionManager.onFullscreenMagnificationActivationChanged:(IZ)Z -->
<g id="node7" class="node">
<title>m::com.android.server.accessibility.magnification.MagnificationConnectionManager.onFullscreenMagnificationActivationChanged:(IZ)Z</title>
<path fill="#fee2e2" stroke="#dc2626" d="M437,-94C437,-94 12,-94 12,-94 6,-94 0,-88 0,-82 0,-82 0,-70 0,-70 0,-64 6,-58 12,-58 12,-58 437,-58 437,-58 443,-58 449,-64 449,-70 449,-70 449,-82 449,-82 449,-88 443,-94 437,-94"/>
<text text-anchor="middle" x="224.5" y="-73.2" font-family="Helvetica,sans-Serif" font-size="11.00">MagnificationConnectionManager.onFullscreenMagnificationActivationChanged</text>
</g>
<!-- m::com.android.server.accessibility.magnification.MagnificationConnectionManager.onFullscreenMagnificationActivationChanged:(IZ)Z&#45;&gt;__field__ -->
<g id="edge7" class="edge">
<title>m::com.android.server.accessibility.magnification.MagnificationConnectionManager.onFullscreenMagnificationActivationChanged:(IZ)Z&#45;&gt;__field__</title>
<path fill="none" stroke="#dc2626" d="M396.19,-94C414.13,-97.13 432.01,-100.77 449,-105 536.21,-126.73 633.23,-166.67 689.32,-191.42"/>
<polygon fill="#dc2626" stroke="#dc2626" points="688.51,-194.12 696.96,-194.81 690.78,-189 688.51,-194.12"/>
<text text-anchor="middle" x="513" y="-139.8" font-family="Helvetica,sans-Serif" font-size="9.00" fill="#dc2626"> reads unguarded</text>
</g>
<!-- m::com.android.server.accessibility.magnification.MagnificationConnectionManager.setScaleForWindowMagnificationInternal:(IF)Z -->
<g id="node8" class="node">
<title>m::com.android.server.accessibility.magnification.MagnificationConnectionManager.setScaleForWindowMagnificationInternal:(IF)Z</title>
<path fill="#fee2e2" stroke="#dc2626" d="M425,-36C425,-36 24,-36 24,-36 18,-36 12,-30 12,-24 12,-24 12,-12 12,-12 12,-6 18,0 24,0 24,0 425,0 425,0 431,0 437,-6 437,-12 437,-12 437,-24 437,-24 437,-30 431,-36 425,-36"/>
<text text-anchor="middle" x="224.5" y="-15.2" font-family="Helvetica,sans-Serif" font-size="11.00">MagnificationConnectionManager.setScaleForWindowMagnificationInternal</text>
</g>
<!-- m::com.android.server.accessibility.magnification.MagnificationConnectionManager.setScaleForWindowMagnificationInternal:(IF)Z&#45;&gt;__field__ -->
<g id="edge8" class="edge">
<title>m::com.android.server.accessibility.magnification.MagnificationConnectionManager.setScaleForWindowMagnificationInternal:(IF)Z&#45;&gt;__field__</title>
<path fill="none" stroke="#dc2626" d="M403.12,-36C418.76,-39.11 434.24,-42.74 449,-47 552.39,-76.85 657.91,-151.46 707.44,-189.66"/>
<polygon fill="#dc2626" stroke="#dc2626" points="706.02,-192.1 714.06,-194.8 709.46,-187.68 706.02,-192.1"/>
<text text-anchor="middle" x="513" y="-90.8" font-family="Helvetica,sans-Serif" font-size="9.00" fill="#dc2626"> reads unguarded</text>
</g>
</g>
</svg>
