<?xml version="1.0" encoding="UTF-8" standalone="no"?>
<!DOCTYPE svg PUBLIC "-//W3C//DTD SVG 1.1//EN"
 "http://www.w3.org/Graphics/SVG/1.1/DTD/svg11.dtd">
<!-- Generated by graphviz version 2.43.0 (0)
 -->
<!-- Title: race Pages: 1 -->
<svg width="654pt" height="168pt"
 viewBox="0.00 0.00 654.00 168.00" xmlns="http://www.w3.org/2000/svg" xmlns:xlink="http://www.w3.org/1999/xlink">
<g id="graph0" class="graph" transform="scale(1 1) rotate(0) translate(4 164)">
<title>race</title>
<polygon fill="white" stroke="transparent" points="-4,4 -4,-164 650,-164 650,4 -4,4"/>
<!-- __field__ -->
<g id="node1" class="node">
<title>__field__</title>
<path fill="#fef9c3" stroke="#ca8a04" stroke-width="2" d="M634,-83C634,-83 447,-83 447,-83 441,-83 435,-77 435,-71 435,-71 435,-59 435,-59 435,-53 441,-47 447,-47 447,-47 634,-47 634,-47 640,-47 646,-53 646,-59 646,-59 646,-71 646,-71 646,-77 640,-83 634,-83"/>
<text text-anchor="middle" x="540.5" y="-62.2" font-family="Helvetica,sans-Serif" font-size="11.00">ActiveAdmin.mEnrollmentSpecificId</text>
</g>
<!-- __guard__ -->
<g id="node2" class="node">
<title>__guard__</title>
<path fill="#dcfce7" stroke="#16a34a" stroke-width="2" d="M295,-160C295,-160 12,-160 12,-160 6,-160 0,-154 0,-148 0,-148 0,-136 0,-136 0,-130 6,-124 12,-124 12,-124 295,-124 295,-124 301,-124 307,-130 307,-136 307,-136 307,-148 307,-148 307,-154 301,-160 295,-160"/>
<text text-anchor="middle" x="153.5" y="-139.2" font-family="Helvetica,sans-Serif" font-size="11.00">DevicePolicyManagerService.mLockDoNoUseDirectly</text>
</g>
<!-- __guard__&#45;&gt;__field__ -->
<g id="edge1" class="edge">
<title>__guard__&#45;&gt;__field__</title>
<path fill="none" stroke="#16a34a" stroke-width="1.6" d="M250.54,-123.97C269.27,-120.39 288.76,-116.62 307,-113 352.67,-103.94 403.31,-93.53 445.64,-84.73"/>
<polygon fill="#16a34a" stroke="#16a34a" stroke-width="1.6" points="446.45,-87.42 453.72,-83.04 445.31,-81.93 446.45,-87.42"/>
<text text-anchor="middle" x="371" y="-109.8" font-family="Helvetica,sans-Serif" font-size="9.00" fill="#15803d"> guards 2/3</text>
</g>
<!-- m::com.android.server.devicepolicy.ActiveAdmin.readFromXml:(Lcom/android/modules/utils/TypedXmlPullParser;Z)V -->
<g id="node3" class="node">
<title>m::com.android.server.devicepolicy.ActiveAdmin.readFromXml:(Lcom/android/modules/utils/TypedXmlPullParser;Z)V</title>
<path fill="#fee2e2" stroke="#dc2626" d="M222.5,-102C222.5,-102 84.5,-102 84.5,-102 78.5,-102 72.5,-96 72.5,-90 72.5,-90 72.5,-78 72.5,-78 72.5,-72 78.5,-66 84.5,-66 84.5,-66 222.5,-66 222.5,-66 228.5,-66 234.5,-72 234.5,-78 234.5,-78 234.5,-90 234.5,-90 234.5,-96 228.5,-102 222.5,-102"/>
<text text-anchor="middle" x="153.5" y="-81.2" font-family="Helvetica,sans-Serif" font-size="11.00">ActiveAdmin.readFromXml</text>
</g>
<!-- m::com.android.server.devicepolicy.ActiveAdmin.readFromXml:(Lcom/android/modules/utils/TypedXmlPullParser;Z)V&#45;&gt;__field__ -->
<g id="edge2" class="edge">
<title>m::com.android.server.devicepolicy.ActiveAdmin.readFromXml:(Lcom/android/modules/utils/TypedXmlPullParser;Z)V&#45;&gt;__field__</title>
<path fill="none" stroke="#dc2626" d="M234.74,-80.04C290.31,-77.3 365.08,-73.61 426.64,-70.57"/>
<polygon fill="#dc2626" stroke="#dc2626" points="427,-73.36 434.85,-70.16 426.72,-67.76 427,-73.36"/>
<text text-anchor="middle" x="371" y="-77.8" font-family="Helvetica,sans-Serif" font-size="9.00" fill="#dc2626"> writes unguarded</text>
</g>
<!-- m::com.android.server.devicepolicy.ActiveAdmin.writeToXml:(Lcom/android/modules/utils/TypedXmlSerializer;)V -->
<g id="node4" class="node">
<title>m::com.android.server.devicepolicy.ActiveAdmin.writeToXml:(Lcom/android/modules/utils/TypedXmlSerializer;)V</title>
<path fill="#fee2e2" stroke="#dc2626" d="M216,-36C216,-36 91,-36 91,-36 85,-36 79,-30 79,-24 79,-24 79,-12 79,-12 79,-6 85,0 91,0 91,0 216,0 216,0 222,0 228,-6 228,-12 228,-12 228,-24 228,-24 228,-30 222,-36 216,-36"/>
<text text-anchor="middle" x="153.5" y="-15.2" font-family="Helvetica,sans-Serif" font-size="11.00">ActiveAdmin.writeToXml</text>
</g>
<!-- m::com.android.server.devicepolicy.ActiveAdmin.writeToXml:(Lcom/android/modules/utils/TypedXmlSerializer;)V&#45;&gt;__field__ -->
<g id="edge3" class="edge">
<title>m::com.android.server.devicepolicy.ActiveAdmin.writeToXml:(Lcom/android/modules/utils/TypedXmlSerializer;)V&#45;&gt;__field__</title>
<path fill="none" stroke="#dc2626" d="M228.28,-27.01C284.39,-33.86 362.59,-43.4 426.56,-51.21"/>
<polygon fill="#dc2626" stroke="#dc2626" points="426.41,-54.01 434.69,-52.21 427.09,-48.46 426.41,-54.01"/>
<text text-anchor="middle" x="371" y="-50.8" font-family="Helvetica,sans-Serif" font-size="9.00" fill="#dc2626"> reads unguarded</text>
</g>
<!-- m::com.android.server.devicepolicy.ActiveAdmin.writeToXml:(Lcom/android/modules/utils/TypedXmlSerializer;)V&#45;&gt;__field__ -->
<g id="edge4" class="edge">
<title>m::com.android.server.devicepolicy.ActiveAdmin.writeToXml:(Lcom/android/modules/utils/TypedXmlSerializer;)V&#45;&gt;__field__</title>
<path fill="none" stroke="#dc2626" d="M228.01,-14.57C280.03,-13.47 351.24,-14.61 413,-25 437.28,-29.08 463.34,-36.73 485.46,-44.26"/>
<polygon fill="#dc2626" stroke="#dc2626" points="484.63,-46.93 493.11,-46.91 486.47,-41.64 484.63,-46.93"/>
<text text-anchor="middle" x="371" y="-27.8" font-family="Helvetica,sans-Serif" font-size="9.00" fill="#dc2626"> reads unguarded</text>
</g>
</g>
</svg>
