<?xml version="1.0" encoding="UTF-8" standalone="no"?>
<!DOCTYPE svg PUBLIC "-//W3C//DTD SVG 1.1//EN"
 "http://www.w3.org/Graphics/SVG/1.1/DTD/svg11.dtd">
<!-- Generated by graphviz version 2.43.0 (0)
 -->
<!-- Title: race Pages: 1 -->
<svg width="692pt" height="160pt"
 viewBox="0.00 0.00 692.00 160.00" xmlns="http://www.w3.org/2000/svg" xmlns:xlink="http://www.w3.org/1999/xlink">
<g id="graph0" class="graph" transform="scale(1 1) rotate(0) translate(4 156)">
<title>race</title>
<polygon fill="white" stroke="transparent" points="-4,4 -4,-156 688,-156 688,4 -4,4"/>
<!-- __field__ -->
<g id="node1" class="node">
<title>__field__</title>
<path fill="#fef9c3" stroke="#ca8a04" stroke-width="2" d="M672,-94C672,-94 442,-94 442,-94 436,-94 430,-88 430,-82 430,-82 430,-70 430,-70 430,-64 436,-58 442,-58 442,-58 672,-58 672,-58 678,-58 684,-64 684,-70 684,-70 684,-82 684,-82 684,-88 678,-94 672,-94"/>
<text text-anchor="middle" x="557" y="-73.2" font-family="Helvetica,sans-Serif" font-size="11.00">AlarmManagerService.mNextWakeFromIdle</text>
</g>
<!-- __guard__ -->
<g id="node2" class="node">
<title>__guard__</title>
<path fill="#dcfce7" stroke="#16a34a" stroke-width="2" d="M227,-152C227,-152 75,-152 75,-152 69,-152 63,-146 63,-140 63,-140 63,-128 63,-128 63,-122 69,-116 75,-116 75,-116 227,-116 227,-116 233,-116 239,-122 239,-128 239,-128 239,-140 239,-140 239,-146 233,-152 227,-152"/>
<text text-anchor="middle" x="151" y="-131.2" font-family="Helvetica,sans-Serif" font-size="11.00">AlarmManagerService.mLock</text>
</g>
<!-- __guard__&#45;&gt;__field__ -->
<g id="edge1" class="edge">
<title>__guard__&#45;&gt;__field__</title>
<path fill="none" stroke="#16a34a" stroke-width="1.6" d="M239.16,-121.49C292.55,-113.82 361.97,-103.86 422.22,-95.21"/>
<polygon fill="#16a34a" stroke="#16a34a" stroke-width="1.6" points="422.75,-97.96 430.27,-94.05 421.96,-92.42 422.75,-97.96"/>
<text text-anchor="middle" x="366" y="-110.8" font-family="Helvetica,sans-Serif" font-size="9.00" fill="#15803d"> guards 2/3</text>
</g>
<!-- m::com.android.server.alarm.AlarmManagerService.removeAlarmsInternalLocked:(Ljava/util/function/Predicate;I)V -->
<g id="node3" class="node">
<title>m::com.android.server.alarm.AlarmManagerService.removeAlarmsInternalLocked:(Ljava/util/function/Predicate;I)V</title>
<path fill="#fee2e2" stroke="#dc2626" d="M290,-94C290,-94 12,-94 12,-94 6,-94 0,-88 0,-82 0,-82 0,-70 0,-70 0,-64 6,-58 12,-58 12,-58 290,-58 290,-58 296,-58 302,-64 302,-70 302,-70 302,-82 302,-82 302,-88 296,-94 290,-94"/>
<text text-anchor="middle" x="151" y="-73.2" font-family="Helvetica,sans-Serif" font-size="11.00">AlarmManagerService.removeAlarmsInternalLocked</text>
</g>
<!-- m::com.android.server.alarm.AlarmManagerService.removeAlarmsInternalLocked:(Ljava/util/function/Predicate;I)V&#45;&gt;__field__ -->
<g id="edge2" class="edge">
<title>m::com.android.server.alarm.AlarmManagerService.removeAlarmsInternalLocked:(Ljava/util/function/Predicate;I)V&#45;&gt;__field__</title>
<path fill="none" stroke="#dc2626" d="M302.15,-76C341.33,-76 383.31,-76 421.62,-76"/>
<polygon fill="#dc2626" stroke="#dc2626" points="421.74,-78.8 429.74,-76 421.74,-73.2 421.74,-78.8"/>
<text text-anchor="middle" x="366" y="-78.8" font-family="Helvetica,sans-Serif" font-size="9.00" fill="#dc2626"> writes unguarded</text>
</g>
<!-- m::com.android.server.alarm.AlarmManagerService.removeAlarmsInternalLocked:(Ljava/util/function/Predicate;I)V&#45;&gt;__field__ -->
<g id="edge4" class="edge">
<title>m::com.android.server.alarm.AlarmManagerService.removeAlarmsInternalLocked:(Ljava/util/function/Predicate;I)V&#45;&gt;__field__</title>
<path fill="none" stroke="#dc2626" d="M302.24,-61.72C336.96,-59.94 373.76,-59.27 408,-61 412.43,-61.22 416.94,-61.49 421.49,-61.78"/>
<polygon fill="#dc2626" stroke="#dc2626" points="421.54,-64.59 429.71,-62.34 421.92,-59 421.54,-64.59"/>
<text text-anchor="middle" x="366" y="-63.8" font-family="Helvetica,sans-Serif" font-size="9.00" fill="#dc2626"> reads unguarded</text>
</g>
<!-- m::com.android.server.alarm.AlarmManagerService.adjustIdleUntilTime:(Lcom/android/server/alarm/Alarm;)Z -->
<g id="node4" class="node">
<title>m::com.android.server.alarm.AlarmManagerService.adjustIdleUntilTime:(Lcom/android/server/alarm/Alarm;)Z</title>
<path fill="#fee2e2" stroke="#dc2626" d="M262.5,-36C262.5,-36 39.5,-36 39.5,-36 33.5,-36 27.5,-30 27.5,-24 27.5,-24 27.5,-12 27.5,-12 27.5,-6 33.5,0 39.5,0 39.5,0 262.5,0 262.5,0 268.5,0 274.5,-6 274.5,-12 274.5,-12 274.5,-24 274.5,-24 274.5,-30 268.5,-36 262.5,-36"/>
<text text-anchor="middle" x="151" y="-15.2" font-family="Helvetica,sans-Serif" font-size="11.00">AlarmManagerService.adjustIdleUntilTime</text>
</g>
<!-- m::com.android.server.alarm.AlarmManagerService.adjustIdleUntilTime:(Lcom/android/server/alarm/Alarm;)Z&#45;&gt;__field__ -->
<g id="edge3" class="edge">
<title>m::com.android.server.alarm.AlarmManagerService.adjustIdleUntilTime:(Lcom/android/server/alarm/Alarm;)Z&#45;&gt;__field__</title>
<path fill="none" stroke="#dc2626" d="M274.76,-27.66C317.11,-31.74 364.76,-37.15 408,-44 428.95,-47.32 451.4,-51.72 472.32,-56.2"/>
<polygon fill="#dc2626" stroke="#dc2626" points="471.84,-58.96 480.25,-57.92 473.03,-53.49 471.84,-58.96"/>
<text text-anchor="middle" x="366" y="-46.8" font-family="Helvetica,sans-Serif" font-size="9.00" fill="#dc2626"> reads unguarded</text>
</g>
</g>
</svg>
