<?xml version="1.0" encoding="UTF-8" standalone="no"?>
<!DOCTYPE svg PUBLIC "-//W3C//DTD SVG 1.1//EN"
 "http://www.w3.org/Graphics/SVG/1.1/DTD/svg11.dtd">
<!-- Generated by graphviz version 2.43.0 (0)
 -->
<!-- Title: race Pages: 1 -->
<svg width="530pt" height="218pt"
 viewBox="0.00 0.00 530.00 218.00" xmlns="http://www.w3.org/2000/svg" xmlns:xlink="http://www.w3.org/1999/xlink">
<g id="graph0" class="graph" transform="scale(1 1) rotate(0) translate(4 214)">
<title>race</title>
<polygon fill="white" stroke="transparent" points="-4,4 -4,-214 526,-214 526,4 -4,4"/>
<!-- __field__ -->
<g id="node1" class="node">
<title>__field__</title>
<path fill="#fef9c3" stroke="#ca8a04" stroke-width="2" d="M510,-123C510,-123 388,-123 388,-123 382,-123 376,-117 376,-111 376,-111 376,-99 376,-99 376,-93 382,-87 388,-87 388,-87 510,-87 510,-87 516,-87 522,-93 522,-99 522,-99 522,-111 522,-111 522,-117 516,-123 510,-123"/>
<text text-anchor="middle" x="449" y="-102.2" font-family="Helvetica,sans-Serif" font-size="11.00">SyncStatusInfo.pending</text>
</g>
<!-- __guard__ -->
<g id="node2" class="node">
<title>__guard__</title>
<path fill="#dcfce7" stroke="#16a34a" stroke-width="2" d="M219,-210C219,-210 29,-210 29,-210 23,-210 17,-204 17,-198 17,-198 17,-186 17,-186 17,-180 23,-174 29,-174 29,-174 219,-174 219,-174 225,-174 231,-180 231,-186 231,-186 231,-198 231,-198 231,-204 225,-210 219,-210"/>
<text text-anchor="middle" x="124" y="-189.2" font-family="Helvetica,sans-Serif" font-size="11.00">ContentService.mSyncManagerLock</text>
</g>
<!-- __guard__&#45;&gt;__field__ -->
<g id="edge1" class="edge">
<title>__guard__&#45;&gt;__field__</title>
<path fill="none" stroke="#16a34a" stroke-width="1.6" d="M204.11,-173.94C248.41,-163.42 304.54,-149.42 354,-135 364.09,-132.06 374.75,-128.8 385.11,-125.56"/>
<polygon fill="#16a34a" stroke="#16a34a" stroke-width="1.6" points="386.18,-128.15 392.97,-123.08 384.5,-122.81 386.18,-128.15"/>
<text text-anchor="middle" x="312" y="-159.8" font-family="Helvetica,sans-Serif" font-size="9.00" fill="#15803d"> guards 3/4</text>
</g>
<!-- m::com.android.server.content.SyncStorageEngine.markPending:(Lcom/android/server/content/SyncStorageEngine$EndPoint;Z)V -->
<g id="node3" class="node">
<title>m::com.android.server.content.SyncStorageEngine.markPending:(Lcom/android/server/content/SyncStorageEngine$EndPoint;Z)V</title>
<path fill="#fee2e2" stroke="#dc2626" d="M210.5,-152C210.5,-152 37.5,-152 37.5,-152 31.5,-152 25.5,-146 25.5,-140 25.5,-140 25.5,-128 25.5,-128 25.5,-122 31.5,-116 37.5,-116 37.5,-116 210.5,-116 210.5,-116 216.5,-116 222.5,-122 222.5,-128 222.5,-128 222.5,-140 222.5,-140 222.5,-146 216.5,-152 210.5,-152"/>
<text text-anchor="middle" x="124" y="-131.2" font-family="Helvetica,sans-Serif" font-size="11.00">SyncStorageEngine.markPending</text>
</g>
<!-- m::com.android.server.content.SyncStorageEngine.markPending:(Lcom/android/server/content/SyncStorageEngine$EndPoint;Z)V&#45;&gt;__field__ -->
<g id="edge2" class="edge">
<title>m::com.android.server.content.SyncStorageEngine.markPending:(Lcom/android/server/content/SyncStorageEngine$EndPoint;Z)V&#45;&gt;__field__</title>
<path fill="none" stroke="#dc2626" d="M222.79,-125.22C269.2,-121.05 323.96,-116.14 367.87,-112.19"/>
<polygon fill="#dc2626" stroke="#dc2626" points="368.22,-114.97 375.94,-111.47 367.72,-109.4 368.22,-114.97"/>
<text text-anchor="middle" x="312" y="-122.8" font-family="Helvetica,sans-Serif" font-size="9.00" fill="#dc2626"> writes unguarded</text>
</g>
<!-- m::com.android.server.content.SyncStorageEngine.isSyncPending:(Lcom/android/server/content/SyncStorageEngine$EndPoint;)Z -->
<g id="node4" class="node">
<title>m::com.android.server.content.SyncStorageEngine.isSyncPending:(Lcom/android/server/content/SyncStorageEngine$EndPoint;)Z</title>
<path fill="#fee2e2" stroke="#dc2626" d="M214,-94C214,-94 34,-94 34,-94 28,-94 22,-88 22,-82 22,-82 22,-70 22,-70 22,-64 28,-58 34,-58 34,-58 214,-58 214,-58 220,-58 226,-64 226,-70 226,-70 226,-82 226,-82 226,-88 220,-94 214,-94"/>
<text text-anchor="middle" x="124" y="-73.2" font-family="Helvetica,sans-Serif" font-size="11.00">SyncStorageEngine.isSyncPending</text>
</g>
<!-- m::com.android.server.content.SyncStorageEngine.isSyncPending:(Lcom/android/server/content/SyncStorageEngine$EndPoint;)Z&#45;&gt;__field__ -->
<g id="edge3" class="edge">
<title>m::com.android.server.content.SyncStorageEngine.isSyncPending:(Lcom/android/server/content/SyncStorageEngine$EndPoint;)Z&#45;&gt;__field__</title>
<path fill="none" stroke="#dc2626" d="M226.31,-85.1C271.94,-89.19 325.04,-93.96 367.83,-97.8"/>
<polygon fill="#dc2626" stroke="#dc2626" points="367.76,-100.61 375.97,-98.53 368.26,-95.03 367.76,-100.61"/>
<text text-anchor="middle" x="312" y="-98.8" font-family="Helvetica,sans-Serif" font-size="9.00" fill="#dc2626"> reads unguarded</text>
</g>
<!-- m::com.android.server.content.SyncStorageEngine.writeStatusInfoLocked:(Ljava/io/OutputStream;)V -->
<g id="node5" class="node">
<title>m::com.android.server.content.SyncStorageEngine.writeStatusInfoLocked:(Ljava/io/OutputStream;)V</title>
<path fill="#fee2e2" stroke="#dc2626" d="M236,-36C236,-36 12,-36 12,-36 6,-36 0,-30 0,-24 0,-24 0,-12 0,-12 0,-6 6,0 12,0 12,0 236,0 236,0 242,0 248,-6 248,-12 248,-12 248,-24 248,-24 248,-30 242,-36 236,-36"/>
<text text-anchor="middle" x="124" y="-15.2" font-family="Helvetica,sans-Serif" font-size="11.00">SyncStorageEngine.writeStatusInfoLocked</text>
</g>
<!-- m::com.android.server.content.SyncStorageEngine.writeStatusInfoLocked:(Ljava/io/OutputStream;)V&#45;&gt;__field__ -->
<g id="edge4" class="edge">
<title>m::com.android.server.content.SyncStorageEngine.writeStatusInfoLocked:(Ljava/io/OutputStream;)V&#45;&gt;__field__</title>
<path fill="none" stroke="#dc2626" d="M206.27,-36.03C250.25,-46.25 305.38,-59.81 354,-74 364.99,-77.21 376.63,-80.85 387.83,-84.47"/>
<polygon fill="#dc2626" stroke="#dc2626" points="387.03,-87.16 395.5,-86.98 388.76,-81.83 387.03,-87.16"/>
<text text-anchor="middle" x="312" y="-76.8" font-family="Helvetica,sans-Serif" font-size="9.00" fill="#dc2626"> reads unguarded</text>
</g>
</g>
</svg>
