<?xml version="1.0" encoding="UTF-8" standalone="no"?>
<!DOCTYPE svg PUBLIC "-//W3C//DTD SVG 1.1//EN"
 "http://www.w3.org/Graphics/SVG/1.1/DTD/svg11.dtd">
<!-- Generated by graphviz version 2.43.0 (0)
 -->
<!-- Title: race Pages: 1 -->
<svg width="432pt" height="192pt"
 viewBox="0.00 0.00 432.00 192.00" xmlns="http://www.w3.org/2000/svg" xmlns:xlink="http://www.w3.org/1999/xlink">
<g id="graph0" class="graph" transform="scale(1 1) rotate(0) translate(4 188)">
<title>race</title>
<polygon fill="white" stroke="transparent" points="-4,4 -4,-188 428,-188 428,4 -4,4"/>
<!-- __field__ -->
<g id="node1" class="node">
<title>__field__</title>
<path fill="#fef9c3" stroke="#ca8a04" stroke-width="2" d="M412,-110C412,-110 310,-110 310,-110 304,-110 298,-104 298,-98 298,-98 298,-86 298,-86 298,-80 304,-74 310,-74 310,-74 412,-74 412,-74 418,-74 424,-80 424,-86 424,-86 424,-98 424,-98 424,-104 418,-110 412,-110"/>
<text text-anchor="middle" x="361" y="-89.2" font-family="Helvetica,sans-Serif" font-size="11.00">VoteSummary.width</text>
</g>
<!-- __guard__ -->
<g id="node2" class="node">
<title>__guard__</title>
<path fill="#dcfce7" stroke="#16a34a" stroke-width="2" d="M158,-184C158,-184 12,-184 12,-184 6,-184 0,-178 0,-172 0,-172 0,-160 0,-160 0,-154 6,-148 12,-148 12,-148 158,-148 158,-148 164,-148 170,-154 170,-160 170,-160 170,-172 170,-172 170,-178 164,-184 158,-184"/>
<text text-anchor="middle" x="85" y="-163.2" font-family="Helvetica,sans-Serif" font-size="11.00">DisplayModeDirector.mLock</text>
</g>
<!-- __guard__&#45;&gt;__field__ -->
<g id="edge1" class="edge">
<title>__guard__&#45;&gt;__field__</title>
<path fill="none" stroke="#16a34a" stroke-width="1.6" d="M163.97,-147.99C198.45,-139.69 239.39,-129.4 276,-119 283.03,-117 290.37,-114.81 297.64,-112.57"/>
<polygon fill="#16a34a" stroke="#16a34a" stroke-width="1.6" points="298.69,-115.17 305.49,-110.12 297.02,-109.83 298.69,-115.17"/>
<text text-anchor="middle" x="234" y="-142.8" font-family="Helvetica,sans-Serif" font-size="9.00" fill="#15803d"> guards 4/6</text>
</g>
<!-- m::com.android.server.display.mode.SizeVote.updateSummary:(Lcom/android/server/display/mode/VoteSummary;)V -->
<g id="node3" class="node">
<title>m::com.android.server.display.mode.SizeVote.updateSummary:(Lcom/android/server/display/mode/VoteSummary;)V</title>
<path fill="#fee2e2" stroke="#dc2626" d="M152,-110C152,-110 18,-110 18,-110 12,-110 6,-104 6,-98 6,-98 6,-86 6,-86 6,-80 12,-74 18,-74 18,-74 152,-74 152,-74 158,-74 164,-80 164,-86 164,-86 164,-98 164,-98 164,-104 158,-110 152,-110"/>
<text text-anchor="middle" x="85" y="-89.2" font-family="Helvetica,sans-Serif" font-size="11.00">SizeVote.updateSummary</text>
</g>
<!-- m::com.android.server.display.mode.SizeVote.updateSummary:(Lcom/android/server/display/mode/VoteSummary;)V&#45;&gt;__field__ -->
<g id="edge2" class="edge">
<title>m::com.android.server.display.mode.SizeVote.updateSummary:(Lcom/android/server/display/mode/VoteSummary;)V&#45;&gt;__field__</title>
<path fill="none" stroke="#dc2626" d="M164.08,-101.03C173.48,-101.84 182.95,-102.53 192,-103 229.28,-104.93 238.75,-105.43 276,-103 280.4,-102.71 284.93,-102.34 289.48,-101.91"/>
<polygon fill="#dc2626" stroke="#dc2626" points="290.03,-104.67 297.7,-101.08 289.46,-99.1 290.03,-104.67"/>
<text text-anchor="middle" x="234" y="-106.8" font-family="Helvetica,sans-Serif" font-size="9.00" fill="#dc2626"> writes unguarded</text>
</g>
<!-- m::com.android.server.display.mode.SizeVote.updateSummary:(Lcom/android/server/display/mode/VoteSummary;)V&#45;&gt;__field__ -->
<g id="edge3" class="edge">
<title>m::com.android.server.display.mode.SizeVote.updateSummary:(Lcom/android/server/display/mode/VoteSummary;)V&#45;&gt;__field__</title>
<path fill="none" stroke="#dc2626" d="M164.15,-92C203.73,-92 251.39,-92 289.79,-92"/>
<polygon fill="#dc2626" stroke="#dc2626" points="289.84,-94.8 297.84,-92 289.84,-89.2 289.84,-94.8"/>
<text text-anchor="middle" x="234" y="-94.8" font-family="Helvetica,sans-Serif" font-size="9.00" fill="#dc2626"> writes unguarded</text>
</g>
<!-- m::com.android.server.display.mode.SizeVote.updateSummary:(Lcom/android/server/display/mode/VoteSummary;)V&#45;&gt;__field__ -->
<g id="edge4" class="edge">
<title>m::com.android.server.display.mode.SizeVote.updateSummary:(Lcom/android/server/display/mode/VoteSummary;)V&#45;&gt;__field__</title>
<path fill="none" stroke="#dc2626" d="M164.02,-79.69C173.42,-78.58 182.92,-77.64 192,-77 229.24,-74.38 238.81,-73.71 276,-77 280.43,-77.39 284.97,-77.9 289.54,-78.49"/>
<polygon fill="#dc2626" stroke="#dc2626" points="289.47,-81.3 297.78,-79.63 290.24,-75.76 289.47,-81.3"/>
<text text-anchor="middle" x="234" y="-79.8" font-family="Helvetica,sans-Serif" font-size="9.00" fill="#dc2626"> reads unguarded</text>
</g>
<!-- m::com.android.server.display.mode.VoteSummary.toString:()Ljava/lang/String; -->
<g id="node4" class="node">
<title>m::com.android.server.display.mode.VoteSummary.toString:()Ljava/lang/String;</title>
<path fill="#fee2e2" stroke="#dc2626" d="M143,-36C143,-36 27,-36 27,-36 21,-36 15,-30 15,-24 15,-24 15,-12 15,-12 15,-6 21,0 27,0 27,0 143,0 143,0 149,0 155,-6 155,-12 155,-12 155,-24 155,-24 155,-30 149,-36 143,-36"/>
<text text-anchor="middle" x="85" y="-15.2" font-family="Helvetica,sans-Serif" font-size="11.00">VoteSummary.toString</text>
</g>
<!-- m::com.android.server.display.mode.VoteSummary.toString:()Ljava/lang/String;&#45;&gt;__field__ -->
<g id="edge5" class="edge">
<title>m::com.android.server.display.mode.VoteSummary.toString:()Ljava/lang/String;&#45;&gt;__field__</title>
<path fill="none" stroke="#dc2626" d="M155.28,-30.15C191.59,-37.22 236.59,-47.09 276,-59 287.21,-62.39 299.04,-66.61 310.16,-70.89"/>
<polygon fill="#dc2626" stroke="#dc2626" points="309.27,-73.55 317.74,-73.86 311.31,-68.33 309.27,-73.55"/>
<text text-anchor="middle" x="234" y="-61.8" font-family="Helvetica,sans-Serif" font-size="9.00" fill="#dc2626"> reads unguarded</text>
</g>
</g>
</svg>
