<?xml version="1.0" encoding="UTF-8" standalone="no"?>
<!DOCTYPE svg PUBLIC "-//W3C//DTD SVG 1.1//EN"
 "http://www.w3.org/Graphics/SVG/1.1/DTD/svg11.dtd">
<!-- Generated by graphviz version 2.43.0 (0)
 -->
<!-- Title: race Pages: 1 -->
<svg width="902pt" height="160pt"
 viewBox="0.00 0.00 902.00 160.00" xmlns="http://www.w3.org/2000/svg" xmlns:xlink="http://www.w3.org/1999/xlink">
<g id="graph0" class="graph" transform="scale(1 1) rotate(0) translate(4 156)">
<title>race</title>
<polygon fill="white" stroke="transparent" points="-4,4 -4,-156 898,-156 898,4 -4,4"/>
<!-- __field__ -->
<g id="node1" class="node">
<title>__field__</title>
<path fill="#fef9c3" stroke="#ca8a04" stroke-width="2" d="M882,-94C882,-94 539,-94 539,-94 533,-94 527,-88 527,-82 527,-82 527,-70 527,-70 527,-64 533,-58 539,-58 539,-58 882,-58 882,-58 888,-58 894,-64 894,-70 894,-70 894,-82 894,-82 894,-88 888,-94 882,-94"/>
<text text-anchor="middle" x="710.5" y="-73.2" font-family="Helvetica,sans-Serif" font-size="11.00">DeviceIdleController.mPowerSaveWhitelistExceptIdleAppIdArray</text>
</g>
<!-- __guard__ -->
<g id="node2" class="node">
<title>__guard__</title>
<path fill="#dcfce7" stroke="#16a34a" stroke-width="2" d="M270.5,-152C270.5,-152 128.5,-152 128.5,-152 122.5,-152 116.5,-146 116.5,-140 116.5,-140 116.5,-128 116.5,-128 116.5,-122 122.5,-116 128.5,-116 128.5,-116 270.5,-116 270.5,-116 276.5,-116 282.5,-122 282.5,-128 282.5,-128 282.5,-140 282.5,-140 282.5,-146 276.5,-152 270.5,-152"/>
<text text-anchor="middle" x="199.5" y="-131.2" font-family="Helvetica,sans-Serif" font-size="11.00">server.DeviceIdleController</text>
</g>
<!-- __guard__&#45;&gt;__field__ -->
<g id="edge1" class="edge">
<title>__guard__&#45;&gt;__field__</title>
<path fill="none" stroke="#16a34a" stroke-width="1.6" d="M282.56,-124.65C352.71,-116.66 455.85,-104.9 543.19,-94.95"/>
<polygon fill="#16a34a" stroke="#16a34a" stroke-width="1.6" points="543.69,-97.71 551.32,-94.02 543.05,-92.15 543.69,-97.71"/>
<text text-anchor="middle" x="463" y="-110.8" font-family="Helvetica,sans-Serif" font-size="9.00" fill="#15803d"> guards 2/3</text>
</g>
<!-- m::com.android.server.DeviceIdleController.updateWhitelistAppIdsLocked:()V -->
<g id="node3" class="node">
<title>m::com.android.server.DeviceIdleController.updateWhitelistAppIdsLocked:()V</title>
<path fill="#fee2e2" stroke="#dc2626" d="M334,-94C334,-94 65,-94 65,-94 59,-94 53,-88 53,-82 53,-82 53,-70 53,-70 53,-64 59,-58 65,-58 65,-58 334,-58 334,-58 340,-58 346,-64 346,-70 346,-70 346,-82 346,-82 346,-88 340,-94 334,-94"/>
<text text-anchor="middle" x="199.5" y="-73.2" font-family="Helvetica,sans-Serif" font-size="11.00">DeviceIdleController.updateWhitelistAppIdsLocked</text>
</g>
<!-- m::com.android.server.DeviceIdleController.updateWhitelistAppIdsLocked:()V&#45;&gt;__field__ -->
<g id="edge2" class="edge">
<title>m::com.android.server.DeviceIdleController.updateWhitelistAppIdsLocked:()V&#45;&gt;__field__</title>
<path fill="none" stroke="#dc2626" d="M346.02,-76C399.75,-76 461.48,-76 518.63,-76"/>
<polygon fill="#dc2626" stroke="#dc2626" points="518.67,-78.8 526.67,-76 518.67,-73.2 518.67,-78.8"/>
<text text-anchor="middle" x="463" y="-78.8" font-family="Helvetica,sans-Serif" font-size="9.00" fill="#dc2626"> writes unguarded</text>
</g>
<!-- m::com.android.server.DeviceIdleController.updateWhitelistAppIdsLocked:()V&#45;&gt;__field__ -->
<g id="edge4" class="edge">
<title>m::com.android.server.DeviceIdleController.updateWhitelistAppIdsLocked:()V&#45;&gt;__field__</title>
<path fill="none" stroke="#dc2626" d="M346.06,-63.74C396.39,-60.85 453.16,-59.1 505,-61 509.5,-61.16 514.06,-61.35 518.65,-61.55"/>
<polygon fill="#dc2626" stroke="#dc2626" points="518.84,-64.37 526.96,-61.94 519.1,-58.77 518.84,-64.37"/>
<text text-anchor="middle" x="463" y="-63.8" font-family="Helvetica,sans-Serif" font-size="9.00" fill="#dc2626"> reads unguarded</text>
</g>
<!-- m::com.android.server.DeviceIdleController.passWhiteListsToForceAppStandbyTrackerLocked:()V -->
<g id="node4" class="node">
<title>m::com.android.server.DeviceIdleController.passWhiteListsToForceAppStandbyTrackerLocked:()V</title>
<path fill="#fee2e2" stroke="#dc2626" d="M387,-36C387,-36 12,-36 12,-36 6,-36 0,-30 0,-24 0,-24 0,-12 0,-12 0,-6 6,0 12,0 12,0 387,0 387,0 393,0 399,-6 399,-12 399,-12 399,-24 399,-24 399,-30 393,-36 387,-36"/>
<text text-anchor="middle" x="199.5" y="-15.2" font-family="Helvetica,sans-Serif" font-size="11.00">DeviceIdleController.passWhiteListsToForceAppStandbyTrackerLocked</text>
</g>
<!-- m::com.android.server.DeviceIdleController.passWhiteListsToForceAppStandbyTrackerLocked:()V&#45;&gt;__field__ -->
<g id="edge3" class="edge">
<title>m::com.android.server.DeviceIdleController.passWhiteListsToForceAppStandbyTrackerLocked:()V&#45;&gt;__field__</title>
<path fill="none" stroke="#dc2626" d="M399.29,-33.84C434.54,-37.15 470.88,-40.91 505,-45 532.83,-48.34 562.69,-52.52 590.77,-56.73"/>
<polygon fill="#dc2626" stroke="#dc2626" points="590.7,-59.55 599.03,-57.97 591.53,-54.01 590.7,-59.55"/>
<text text-anchor="middle" x="463" y="-47.8" font-family="Helvetica,sans-Serif" font-size="9.00" fill="#dc2626"> reads unguarded</text>
</g>
</g>
</svg>
