<?xml version="1.0" encoding="UTF-8" standalone="no"?>
<!DOCTYPE svg PUBLIC "-//W3C//DTD SVG 1.1//EN"
 "http://www.w3.org/Graphics/SVG/1.1/DTD/svg11.dtd">
<!-- Generated by graphviz version 2.43.0 (0)
 -->
<!-- Title: race Pages: 1 -->
<svg width="436pt" height="303pt"
 viewBox="0.00 0.00 436.00 303.00" xmlns="http://www.w3.org/2000/svg" xmlns:xlink="http://www.w3.org/1999/xlink">
<g id="graph0" class="graph" transform="scale(1 1) rotate(0) translate(4 299)">
<title>race</title>
<polygon fill="white" stroke="transparent" points="-4,4 -4,-299 432,-299 432,4 -4,4"/>
<!-- __field__ -->
<g id="node1" class="node">
<title>__field__</title>
<path fill="#fef9c3" stroke="#ca8a04" stroke-width="2" d="M416,-165C416,-165 340,-165 340,-165 334,-165 328,-159 328,-153 328,-153 328,-141 328,-141 328,-135 334,-129 340,-129 340,-129 416,-129 416,-129 422,-129 428,-135 428,-141 428,-141 428,-153 428,-153 428,-159 422,-165 416,-165"/>
<text text-anchor="middle" x="378" y="-144.2" font-family="Helvetica,sans-Serif" font-size="11.00">VpnConfig.user</text>
</g>
<!-- __guard__ -->
<g id="node2" class="node">
<title>__guard__</title>
<path fill="#dcfce7" stroke="#16a34a" stroke-width="2" d="M141.5,-295C141.5,-295 58.5,-295 58.5,-295 52.5,-295 46.5,-289 46.5,-283 46.5,-283 46.5,-271 46.5,-271 46.5,-265 52.5,-259 58.5,-259 58.5,-259 141.5,-259 141.5,-259 147.5,-259 153.5,-265 153.5,-271 153.5,-271 153.5,-283 153.5,-283 153.5,-289 147.5,-295 141.5,-295"/>
<text text-anchor="middle" x="100" y="-274.2" font-family="Helvetica,sans-Serif" font-size="11.00">connectivity.Vpn</text>
</g>
<!-- __guard__&#45;&gt;__field__ -->
<g id="edge1" class="edge">
<title>__guard__&#45;&gt;__field__</title>
<path fill="none" stroke="#16a34a" stroke-width="1.6" d="M153.86,-276.28C197.54,-273.48 259.67,-264.24 306,-236 331.25,-220.61 351.24,-192.8 363.49,-172.36"/>
<polygon fill="#16a34a" stroke="#16a34a" stroke-width="1.6" points="366.06,-173.52 367.65,-165.19 361.21,-170.71 366.06,-173.52"/>
<text text-anchor="middle" x="264" y="-268.8" font-family="Helvetica,sans-Serif" font-size="9.00" fill="#15803d"> guards 2/3</text>
</g>
<!-- m::com.android.server.connectivity.Vpn.establish:(Lcom/android/internal/net/VpnConfig;)Landroid/os/ParcelFileDescriptor; -->
<g id="node3" class="node">
<title>m::com.android.server.connectivity.Vpn.establish:(Lcom/android/internal/net/VpnConfig;)Landroid/os/ParcelFileDescriptor;</title>
<path fill="#fee2e2" stroke="#dc2626" d="M133.5,-166C133.5,-166 66.5,-166 66.5,-166 60.5,-166 54.5,-160 54.5,-154 54.5,-154 54.5,-142 54.5,-142 54.5,-136 60.5,-130 66.5,-130 66.5,-130 133.5,-130 133.5,-130 139.5,-130 145.5,-136 145.5,-142 145.5,-142 145.5,-154 145.5,-154 145.5,-160 139.5,-166 133.5,-166"/>
<text text-anchor="middle" x="100" y="-145.2" font-family="Helvetica,sans-Serif" font-size="11.00">Vpn.establish</text>
</g>
<!-- m::com.android.server.connectivity.Vpn.establish:(Lcom/android/internal/net/VpnConfig;)Landroid/os/ParcelFileDescriptor;&#45;&gt;__field__ -->
<g id="edge2" class="edge">
<title>m::com.android.server.connectivity.Vpn.establish:(Lcom/android/internal/net/VpnConfig;)Landroid/os/ParcelFileDescriptor;&#45;&gt;__field__</title>
<path fill="none" stroke="#dc2626" d="M124.41,-166.09C162.86,-193.45 241.54,-239.61 306,-214 327.5,-205.46 346.26,-186.98 359.09,-171.58"/>
<polygon fill="#dc2626" stroke="#dc2626" points="361.38,-173.2 364.21,-165.21 357.01,-169.69 361.38,-173.2"/>
<text text-anchor="middle" x="264" y="-223.8" font-family="Helvetica,sans-Serif" font-size="9.00" fill="#dc2626"> writes unguarded</text>
</g>
<!-- m::com.android.server.connectivity.Vpn.establish:(Lcom/android/internal/net/VpnConfig;)Landroid/os/ParcelFileDescriptor;&#45;&gt;__field__ -->
<g id="edge4" class="edge">
<title>m::com.android.server.connectivity.Vpn.establish:(Lcom/android/internal/net/VpnConfig;)Landroid/os/ParcelFileDescriptor;&#45;&gt;__field__</title>
<path fill="none" stroke="#dc2626" d="M145.65,-163.03C187.35,-175.01 251.22,-188.1 306,-177 315.43,-175.09 325.16,-171.89 334.28,-168.27"/>
<polygon fill="#dc2626" stroke="#dc2626" points="335.46,-170.81 341.77,-165.15 333.31,-165.64 335.46,-170.81"/>
<text text-anchor="middle" x="264" y="-183.8" font-family="Helvetica,sans-Serif" font-size="9.00" fill="#dc2626"> reads unguarded</text>
</g>
<!-- m::com.android.server.connectivity.Vpn.establish:(Lcom/android/internal/net/VpnConfig;)Landroid/os/ParcelFileDescriptor;&#45;&gt;__field__ -->
<g id="edge5" class="edge">
<title>m::com.android.server.connectivity.Vpn.establish:(Lcom/android/internal/net/VpnConfig;)Landroid/os/ParcelFileDescriptor;&#45;&gt;__field__</title>
<path fill="none" stroke="#dc2626" d="M145.65,-147.84C193.01,-147.67 267.97,-147.4 319.67,-147.21"/>
<polygon fill="#dc2626" stroke="#dc2626" points="319.76,-150.01 327.75,-147.18 319.74,-144.41 319.76,-150.01"/>
<text text-anchor="middle" x="264" y="-149.8" font-family="Helvetica,sans-Serif" font-size="9.00" fill="#dc2626"> reads unguarded</text>
</g>
<!-- m::com.android.server.connectivity.Vpn.establish:(Lcom/android/internal/net/VpnConfig;)Landroid/os/ParcelFileDescriptor;&#45;&gt;__field__ -->
<g id="edge6" class="edge">
<title>m::com.android.server.connectivity.Vpn.establish:(Lcom/android/internal/net/VpnConfig;)Landroid/os/ParcelFileDescriptor;&#45;&gt;__field__</title>
<path fill="none" stroke="#dc2626" d="M145.85,-139.81C187.42,-133.33 250.97,-126.25 306,-132 310.58,-132.48 315.29,-133.12 320.01,-133.88"/>
<polygon fill="#dc2626" stroke="#dc2626" points="319.58,-136.65 327.94,-135.25 320.53,-131.13 319.58,-136.65"/>
<text text-anchor="middle" x="264" y="-134.8" font-family="Helvetica,sans-Serif" font-size="9.00" fill="#dc2626"> reads unguarded</text>
</g>
<!-- m::com.android.server.connectivity.Vpn.establish:(Lcom/android/internal/net/VpnConfig;)Landroid/os/ParcelFileDescriptor;&#45;&gt;__field__ -->
<g id="edge7" class="edge">
<title>m::com.android.server.connectivity.Vpn.establish:(Lcom/android/internal/net/VpnConfig;)Landroid/os/ParcelFileDescriptor;&#45;&gt;__field__</title>
<path fill="none" stroke="#dc2626" d="M145.65,-130.8C187.35,-117.04 251.22,-101.89 306,-114 317,-116.43 328.32,-120.75 338.6,-125.47"/>
<polygon fill="#dc2626" stroke="#dc2626" points="337.46,-128.03 345.88,-128.97 339.88,-122.98 337.46,-128.03"/>
<text text-anchor="middle" x="264" y="-116.8" font-family="Helvetica,sans-Serif" font-size="9.00" fill="#dc2626"> reads unguarded</text>
</g>
<!-- m::com.android.server.connectivity.Vpn.establish:(Lcom/android/internal/net/VpnConfig;)Landroid/os/ParcelFileDescriptor;&#45;&gt;__field__ -->
<g id="edge8" class="edge">
<title>m::com.android.server.connectivity.Vpn.establish:(Lcom/android/internal/net/VpnConfig;)Landroid/os/ParcelFileDescriptor;&#45;&gt;__field__</title>
<path fill="none" stroke="#dc2626" d="M129.86,-129.88C169.84,-107.14 244.18,-73.47 306,-94 323.81,-99.92 340.78,-112.23 353.65,-123.51"/>
<polygon fill="#dc2626" stroke="#dc2626" points="351.82,-125.63 359.63,-128.93 355.59,-121.48 351.82,-125.63"/>
<text text-anchor="middle" x="264" y="-96.8" font-family="Helvetica,sans-Serif" font-size="9.00" fill="#dc2626"> reads unguarded</text>
</g>
<!-- m::com.android.server.VpnManagerService.factoryReset:()V -->
<g id="node4" class="node">
<title>m::com.android.server.VpnManagerService.factoryReset:()V</title>
<path fill="#fee2e2" stroke="#dc2626" d="M188,-36C188,-36 12,-36 12,-36 6,-36 0,-30 0,-24 0,-24 0,-12 0,-12 0,-6 6,0 12,0 12,0 188,0 188,0 194,0 200,-6 200,-12 200,-12 200,-24 200,-24 200,-30 194,-36 188,-36"/>
<text text-anchor="middle" x="100" y="-15.2" font-family="Helvetica,sans-Serif" font-size="11.00">VpnManagerService.factoryReset</text>
</g>
<!-- m::com.android.server.VpnManagerService.factoryReset:()V&#45;&gt;__field__ -->
<g id="edge3" class="edge">
<title>m::com.android.server.VpnManagerService.factoryReset:()V&#45;&gt;__field__</title>
<path fill="none" stroke="#dc2626" d="M200.02,-32.51C235.18,-40.58 273.95,-53 306,-72 327.32,-84.64 346.32,-105.5 359.29,-122.02"/>
<polygon fill="#dc2626" stroke="#dc2626" points="357.38,-124.14 364.47,-128.79 361.83,-120.74 357.38,-124.14"/>
<text text-anchor="middle" x="264" y="-74.8" font-family="Helvetica,sans-Serif" font-size="9.00" fill="#dc2626"> reads unguarded</text>
</g>
</g>
</svg>
