<?xml version="1.0" encoding="UTF-8" standalone="no"?>
<!DOCTYPE svg PUBLIC "-//W3C//DTD SVG 1.1//EN"
 "http://www.w3.org/Graphics/SVG/1.1/DTD/svg11.dtd">
<!-- Generated by graphviz version 2.43.0 (0)
 -->
<!-- Title: race Pages: 1 -->
<svg width="727pt" height="218pt"
 viewBox="0.00 0.00 727.00 218.00" xmlns="http://www.w3.org/2000/svg" xmlns:xlink="http://www.w3.org/1999/xlink">
<g id="graph0" class="graph" transform="scale(1 1) rotate(0) translate(4 214)">
<title>race</title>
<polygon fill="white" stroke="transparent" points="-4,4 -4,-214 723,-214 723,4 -4,4"/>
<!-- __field__ -->
<g id="node1" class="node">
<title>__field__</title>
<path fill="#fef9c3" stroke="#ca8a04" stroke-width="2" d="M707,-123C707,-123 532,-123 532,-123 526,-123 520,-117 520,-111 520,-111 520,-99 520,-99 520,-93 526,-87 532,-87 532,-87 707,-87 707,-87 713,-87 719,-93 719,-99 719,-99 719,-111 719,-111 719,-117 713,-123 707,-123"/>
<text text-anchor="middle" x="619.5" y="-102.2" font-family="Helvetica,sans-Serif" font-size="11.00">ActiveAdmin.mProfileOffDeadline</text>
</g>
<!-- __guard__ -->
<g id="node2" class="node">
<title>__guard__</title>
<path fill="#dcfce7" stroke="#16a34a" stroke-width="2" d="M337.5,-210C337.5,-210 54.5,-210 54.5,-210 48.5,-210 42.5,-204 42.5,-198 42.5,-198 42.5,-186 42.5,-186 42.5,-180 48.5,-174 54.5,-174 54.5,-174 337.5,-174 337.5,-174 343.5,-174 349.5,-180 349.5,-186 349.5,-186 349.5,-198 349.5,-198 349.5,-204 343.5,-210 337.5,-210"/>
<text text-anchor="middle" x="196" y="-189.2" font-family="Helvetica,sans-Serif" font-size="11.00">DevicePolicyManagerService.mLockDoNoUseDirectly</text>
</g>
<!-- __guard__&#45;&gt;__field__ -->
<g id="edge1" class="edge">
<title>__guard__&#45;&gt;__field__</title>
<path fill="none" stroke="#16a34a" stroke-width="1.6" d="M330.8,-173.97C351.36,-170.66 372.29,-166.98 392,-163 444.55,-152.39 503.16,-137.29 547.6,-125.16"/>
<polygon fill="#16a34a" stroke="#16a34a" stroke-width="1.6" points="548.47,-127.82 555.44,-123.01 546.99,-122.42 548.47,-127.82"/>
<text text-anchor="middle" x="456" y="-159.8" font-family="Helvetica,sans-Serif" font-size="9.00" fill="#15803d"> guards 6/7</text>
</g>
<!-- m::com.android.server.devicepolicy.ActiveAdmin.readFromXml:(Lcom/android/modules/utils/TypedXmlPullParser;Z)V -->
<g id="node3" class="node">
<title>m::com.android.server.devicepolicy.ActiveAdmin.readFromXml:(Lcom/android/modules/utils/TypedXmlPullParser;Z)V</title>
<path fill="#fee2e2" stroke="#dc2626" d="M265,-152C265,-152 127,-152 127,-152 121,-152 115,-146 115,-140 115,-140 115,-128 115,-128 115,-122 121,-116 127,-116 127,-116 265,-116 265,-116 271,-116 277,-122 277,-128 277,-128 277,-140 277,-140 277,-146 271,-152 265,-152"/>
<text text-anchor="middle" x="196" y="-131.2" font-family="Helvetica,sans-Serif" font-size="11.00">ActiveAdmin.readFromXml</text>
</g>
<!-- m::com.android.server.devicepolicy.ActiveAdmin.readFromXml:(Lcom/android/modules/utils/TypedXmlPullParser;Z)V&#45;&gt;__field__ -->
<g id="edge2" class="edge">
<title>m::com.android.server.devicepolicy.ActiveAdmin.readFromXml:(Lcom/android/modules/utils/TypedXmlPullParser;Z)V&#45;&gt;__field__</title>
<path fill="none" stroke="#dc2626" d="M277.27,-128.48C343.74,-123.9 438.76,-117.37 511.65,-112.35"/>
<polygon fill="#dc2626" stroke="#dc2626" points="512.19,-115.12 519.98,-111.78 511.81,-109.53 512.19,-115.12"/>
<text text-anchor="middle" x="456" y="-120.8" font-family="Helvetica,sans-Serif" font-size="9.00" fill="#dc2626"> writes unguarded</text>
</g>
<!-- m::com.android.server.devicepolicy.ActiveAdmin.writeToXml:(Lcom/android/modules/utils/TypedXmlSerializer;)V -->
<g id="node4" class="node">
<title>m::com.android.server.devicepolicy.ActiveAdmin.writeToXml:(Lcom/android/modules/utils/TypedXmlSerializer;)V</title>
<path fill="#fee2e2" stroke="#dc2626" d="M258.5,-94C258.5,-94 133.5,-94 133.5,-94 127.5,-94 121.5,-88 121.5,-82 121.5,-82 121.5,-70 121.5,-70 121.5,-64 127.5,-58 133.5,-58 133.5,-58 258.5,-58 258.5,-58 264.5,-58 270.5,-64 270.5,-70 270.5,-70 270.5,-82 270.5,-82 270.5,-88 264.5,-94 258.5,-94"/>
<text text-anchor="middle" x="196" y="-73.2" font-family="Helvetica,sans-Serif" font-size="11.00">ActiveAdmin.writeToXml</text>
</g>
<!-- m::com.android.server.devicepolicy.ActiveAdmin.writeToXml:(Lcom/android/modules/utils/TypedXmlSerializer;)V&#45;&gt;__field__ -->
<g id="edge3" class="edge">
<title>m::com.android.server.devicepolicy.ActiveAdmin.writeToXml:(Lcom/android/modules/utils/TypedXmlSerializer;)V&#45;&gt;__field__</title>
<path fill="none" stroke="#dc2626" d="M270.9,-81.08C337.53,-85.67 436.32,-92.47 511.57,-97.64"/>
<polygon fill="#dc2626" stroke="#dc2626" points="511.52,-100.45 519.7,-98.2 511.91,-94.86 511.52,-100.45"/>
<text text-anchor="middle" x="456" y="-98.8" font-family="Helvetica,sans-Serif" font-size="9.00" fill="#dc2626"> reads unguarded</text>
</g>
<!-- m::com.android.server.devicepolicy.DevicePolicyManagerService.triggerPolicyComplianceCheckIfNeeded:(IZ)V -->
<g id="node5" class="node">
<title>m::com.android.server.devicepolicy.DevicePolicyManagerService.triggerPolicyComplianceCheckIfNeeded:(IZ)V</title>
<path fill="#fee2e2" stroke="#dc2626" d="M380,-36C380,-36 12,-36 12,-36 6,-36 0,-30 0,-24 0,-24 0,-12 0,-12 0,-6 6,0 12,0 12,0 380,0 380,0 386,0 392,-6 392,-12 392,-12 392,-24 392,-24 392,-30 386,-36 380,-36"/>
<text text-anchor="middle" x="196" y="-15.2" font-family="Helvetica,sans-Serif" font-size="11.00">DevicePolicyManagerService.triggerPolicyComplianceCheckIfNeeded</text>
</g>
<!-- m::com.android.server.devicepolicy.DevicePolicyManagerService.triggerPolicyComplianceCheckIfNeeded:(IZ)V&#45;&gt;__field__ -->
<g id="edge4" class="edge">
<title>m::com.android.server.devicepolicy.DevicePolicyManagerService.triggerPolicyComplianceCheckIfNeeded:(IZ)V&#45;&gt;__field__</title>
<path fill="none" stroke="#dc2626" d="M330.8,-36.03C351.36,-39.34 372.29,-43.02 392,-47 444.55,-57.61 503.16,-72.71 547.6,-84.84"/>
<polygon fill="#dc2626" stroke="#dc2626" points="546.99,-87.58 555.44,-86.99 548.47,-82.18 546.99,-87.58"/>
<text text-anchor="middle" x="456" y="-72.8" font-family="Helvetica,sans-Serif" font-size="9.00" fill="#dc2626"> reads unguarded</text>
</g>
</g>
</svg>
