<?xml version="1.0" encoding="UTF-8" standalone="no"?>
<!DOCTYPE svg PUBLIC "-//W3C//DTD SVG 1.1//EN"
 "http://www.w3.org/Graphics/SVG/1.1/DTD/svg11.dtd">
<!-- Generated by graphviz version 2.43.0 (0)
 -->
<!-- Title: race Pages: 1 -->
<svg width="801pt" height="168pt"
 viewBox="0.00 0.00 801.00 168.00" xmlns="http://www.w3.org/2000/svg" xmlns:xlink="http://www.w3.org/1999/xlink">
<g id="graph0" class="graph" transform="scale(1 1) rotate(0) translate(4 164)">
<title>race</title>
<polygon fill="white" stroke="transparent" points="-4,4 -4,-164 797,-164 797,4 -4,4"/>
<!-- __field__ -->
<g id="node1" class="node">
<title>__field__</title>
<path fill="#fef9c3" stroke="#ca8a04" stroke-width="2" d="M781,-83C781,-83 507,-83 507,-83 501,-83 495,-77 495,-71 495,-71 495,-59 495,-59 495,-53 501,-47 507,-47 507,-47 781,-47 781,-47 787,-47 793,-53 793,-59 793,-59 793,-71 793,-71 793,-77 787,-83 781,-83"/>
<text text-anchor="middle" x="644" y="-62.2" font-family="Helvetica,sans-Serif" font-size="11.00">VpnConnectivityMetrics.mUnderlyingNetworkTypes</text>
</g>
<!-- __guard__ -->
<g id="node2" class="node">
<title>__guard__</title>
<path fill="#dcfce7" stroke="#16a34a" stroke-width="2" d="M225,-160C225,-160 142,-160 142,-160 136,-160 130,-154 130,-148 130,-148 130,-136 130,-136 130,-130 136,-124 142,-124 142,-124 225,-124 225,-124 231,-124 237,-130 237,-136 237,-136 237,-148 237,-148 237,-154 231,-160 225,-160"/>
<text text-anchor="middle" x="183.5" y="-139.2" font-family="Helvetica,sans-Serif" font-size="11.00">connectivity.Vpn</text>
</g>
<!-- __guard__&#45;&gt;__field__ -->
<g id="edge1" class="edge">
<title>__guard__&#45;&gt;__field__</title>
<path fill="none" stroke="#16a34a" stroke-width="1.6" d="M237.24,-133.83C273.71,-128.13 323.33,-120.27 367,-113 421.88,-103.87 482.81,-93.31 533.44,-84.43"/>
<polygon fill="#16a34a" stroke="#16a34a" stroke-width="1.6" points="534.08,-87.16 541.47,-83.02 533.11,-81.65 534.08,-87.16"/>
<text text-anchor="middle" x="431" y="-111.8" font-family="Helvetica,sans-Serif" font-size="9.00" fill="#15803d"> guards 2/3</text>
</g>
<!-- m::com.android.server.connectivity.VpnConnectivityMetrics.resetMetrics:()V -->
<g id="node3" class="node">
<title>m::com.android.server.connectivity.VpnConnectivityMetrics.resetMetrics:()V</title>
<path fill="#fee2e2" stroke="#dc2626" d="M281.5,-102C281.5,-102 85.5,-102 85.5,-102 79.5,-102 73.5,-96 73.5,-90 73.5,-90 73.5,-78 73.5,-78 73.5,-72 79.5,-66 85.5,-66 85.5,-66 281.5,-66 281.5,-66 287.5,-66 293.5,-72 293.5,-78 293.5,-78 293.5,-90 293.5,-90 293.5,-96 287.5,-102 281.5,-102"/>
<text text-anchor="middle" x="183.5" y="-81.2" font-family="Helvetica,sans-Serif" font-size="11.00">VpnConnectivityMetrics.resetMetrics</text>
</g>
<!-- m::com.android.server.connectivity.VpnConnectivityMetrics.resetMetrics:()V&#45;&gt;__field__ -->
<g id="edge2" class="edge">
<title>m::com.android.server.connectivity.VpnConnectivityMetrics.resetMetrics:()V&#45;&gt;__field__</title>
<path fill="none" stroke="#dc2626" d="M293.74,-79.47C351.4,-77.08 423.17,-74.11 486.62,-71.48"/>
<polygon fill="#dc2626" stroke="#dc2626" points="486.84,-74.27 494.71,-71.14 486.6,-68.68 486.84,-74.27"/>
<text text-anchor="middle" x="431" y="-77.8" font-family="Helvetica,sans-Serif" font-size="9.00" fill="#dc2626"> writes unguarded</text>
</g>
<!-- m::com.android.server.connectivity.VpnConnectivityMetrics.validateAndReportVpnConnectionEvent:(Z)V -->
<g id="node4" class="node">
<title>m::com.android.server.connectivity.VpnConnectivityMetrics.validateAndReportVpnConnectionEvent:(Z)V</title>
<path fill="#fee2e2" stroke="#dc2626" d="M355,-36C355,-36 12,-36 12,-36 6,-36 0,-30 0,-24 0,-24 0,-12 0,-12 0,-6 6,0 12,0 12,0 355,0 355,0 361,0 367,-6 367,-12 367,-12 367,-24 367,-24 367,-30 361,-36 355,-36"/>
<text text-anchor="middle" x="183.5" y="-15.2" font-family="Helvetica,sans-Serif" font-size="11.00">VpnConnectivityMetrics.validateAndReportVpnConnectionEvent</text>
</g>
<!-- m::com.android.server.connectivity.VpnConnectivityMetrics.validateAndReportVpnConnectionEvent:(Z)V&#45;&gt;__field__ -->
<g id="edge3" class="edge">
<title>m::com.android.server.connectivity.VpnConnectivityMetrics.validateAndReportVpnConnectionEvent:(Z)V&#45;&gt;__field__</title>
<path fill="none" stroke="#dc2626" d="M360.13,-36C401.82,-40.28 446.02,-44.81 486.78,-48.99"/>
<polygon fill="#dc2626" stroke="#dc2626" points="486.64,-51.79 494.88,-49.82 487.21,-46.22 486.64,-51.79"/>
<text text-anchor="middle" x="431" y="-49.8" font-family="Helvetica,sans-Serif" font-size="9.00" fill="#dc2626"> reads unguarded</text>
</g>
<!-- m::com.android.server.connectivity.VpnConnectivityMetrics.validateAndReportVpnConnectionEvent:(Z)V&#45;&gt;__field__ -->
<g id="edge4" class="edge">
<title>m::com.android.server.connectivity.VpnConnectivityMetrics.validateAndReportVpnConnectionEvent:(Z)V&#45;&gt;__field__</title>
<path fill="none" stroke="#dc2626" d="M367.3,-16.73C402.48,-18.1 438.96,-20.63 473,-25 505.99,-29.23 541.92,-37.19 572.22,-44.89"/>
<polygon fill="#dc2626" stroke="#dc2626" points="571.75,-47.66 580.2,-46.95 573.15,-42.24 571.75,-47.66"/>
<text text-anchor="middle" x="431" y="-27.8" font-family="Helvetica,sans-Serif" font-size="9.00" fill="#dc2626"> reads unguarded</text>
</g>
</g>
</svg>
