<?xml version="1.0" encoding="UTF-8" standalone="no"?>
<!DOCTYPE svg PUBLIC "-//W3C//DTD SVG 1.1//EN"
 "http://www.w3.org/Graphics/SVG/1.1/DTD/svg11.dtd">
<!-- Generated by graphviz version 2.43.0 (0)
 -->
<!-- Title: race Pages: 1 -->
<svg width="731pt" height="972pt"
 viewBox="0.00 0.00 731.00 972.00" xmlns="http://www.w3.org/2000/svg" xmlns:xlink="http://www.w3.org/1999/xlink">
<g id="graph0" class="graph" transform="scale(1 1) rotate(0) translate(4 968)">
<title>race</title>
<polygon fill="white" stroke="transparent" points="-4,4 -4,-968 727,-968 727,4 -4,4"/>
<!-- __field__ -->
<g id="node1" class="node">
<title>__field__</title>
<path fill="#fef9c3" stroke="#ca8a04" stroke-width="2" d="M711,-500C711,-500 629,-500 629,-500 623,-500 617,-494 617,-488 617,-488 617,-476 617,-476 617,-470 623,-464 629,-464 629,-464 711,-464 711,-464 717,-464 723,-470 723,-476 723,-476 723,-488 723,-488 723,-494 717,-500 711,-500"/>
<text text-anchor="middle" x="670" y="-479.2" font-family="Helvetica,sans-Serif" font-size="11.00">DisplayInfo.type</text>
</g>
<!-- __guard__ -->
<g id="node2" class="node">
<title>__guard__</title>
<path fill="#dcfce7" stroke="#16a34a" stroke-width="2" d="M355,-964C355,-964 134,-964 134,-964 128,-964 122,-958 122,-952 122,-952 122,-940 122,-940 122,-934 128,-928 134,-928 134,-928 355,-928 355,-928 361,-928 367,-934 367,-940 367,-940 367,-952 367,-952 367,-958 361,-964 355,-964"/>
<text text-anchor="middle" x="244.5" y="-943.2" font-family="Helvetica,sans-Serif" font-size="11.00">ActivityTaskManagerService.mGlobalLock</text>
</g>
<!-- __guard__&#45;&gt;__field__ -->
<g id="edge1" class="edge">
<title>__guard__&#45;&gt;__field__</title>
<path fill="none" stroke="#16a34a" stroke-width="1.6" d="M367.24,-962.35C443.23,-965.27 537.27,-954.33 595,-895 649.04,-839.46 664.37,-591 668,-508.63"/>
<polygon fill="#16a34a" stroke="#16a34a" stroke-width="1.6" points="670.82,-508.41 668.36,-500.3 665.22,-508.18 670.82,-508.41"/>
<text text-anchor="middle" x="553" y="-945.8" font-family="Helvetica,sans-Serif" font-size="9.00" fill="#15803d"> guards 3/4</text>
</g>
<!-- m::com.android.server.display.LogicalDisplay.updateLocked:(Lcom/android/server/display/DisplayDeviceRepository;Lcom/android/server/display/mode/SyntheticModeManager;)V -->
<g id="node3" class="node">
<title>m::com.android.server.display.LogicalDisplay.updateLocked:(Lcom/android/server/display/DisplayDeviceRepository;Lcom/android/server/display/mode/SyntheticModeManager;)V</title>
<path fill="#fee2e2" stroke="#dc2626" d="M319.5,-906C319.5,-906 169.5,-906 169.5,-906 163.5,-906 157.5,-900 157.5,-894 157.5,-894 157.5,-882 157.5,-882 157.5,-876 163.5,-870 169.5,-870 169.5,-870 319.5,-870 319.5,-870 325.5,-870 331.5,-876 331.5,-882 331.5,-882 331.5,-894 331.5,-894 331.5,-900 325.5,-906 319.5,-906"/>
<text text-anchor="middle" x="244.5" y="-885.2" font-family="Helvetica,sans-Serif" font-size="11.00">LogicalDisplay.updateLocked</text>
</g>
<!-- m::com.android.server.display.LogicalDisplay.updateLocked:(Lcom/android/server/display/DisplayDeviceRepository;Lcom/android/server/display/mode/SyntheticModeManager;)V&#45;&gt;__field__ -->
<g id="edge2" class="edge">
<title>m::com.android.server.display.LogicalDisplay.updateLocked:(Lcom/android/server/display/DisplayDeviceRepository;Lcom/android/server/display/mode/SyntheticModeManager;)V&#45;&gt;__field__</title>
<path fill="none" stroke="#dc2626" d="M331.64,-900.36C411.71,-906.53 528.35,-901.02 595,-831 639.52,-784.23 660.61,-582.1 666.9,-508.73"/>
<polygon fill="#dc2626" stroke="#dc2626" points="669.72,-508.65 667.6,-500.44 664.14,-508.18 669.72,-508.65"/>
<text text-anchor="middle" x="553" y="-882.8" font-family="Helvetica,sans-Serif" font-size="9.00" fill="#dc2626"> writes unguarded</text>
</g>
<!-- m::com.android.server.display.DisplayManagerService.setBrightnessConfigurationForDisplayInternal:(Landroid/hardware/display/BrightnessConfiguration;Ljava/lang/String;ILjava/lang/String;)V -->
<g id="node4" class="node">
<title>m::com.android.server.display.DisplayManagerService.setBrightnessConfigurationForDisplayInternal:(Landroid/hardware/display/BrightnessConfiguration;Ljava/lang/String;ILjava/lang/String;)V</title>
<path fill="#fee2e2" stroke="#dc2626" d="M431.5,-848C431.5,-848 57.5,-848 57.5,-848 51.5,-848 45.5,-842 45.5,-836 45.5,-836 45.5,-824 45.5,-824 45.5,-818 51.5,-812 57.5,-812 57.5,-812 431.5,-812 431.5,-812 437.5,-812 443.5,-818 443.5,-824 443.5,-824 443.5,-836 443.5,-836 443.5,-842 437.5,-848 431.5,-848"/>
<text text-anchor="middle" x="244.5" y="-827.2" font-family="Helvetica,sans-Serif" font-size="11.00">DisplayManagerService.setBrightnessConfigurationForDisplayInternal</text>
</g>
<!-- m::com.android.server.display.DisplayManagerService.setBrightnessConfigurationForDisplayInternal:(Landroid/hardware/display/BrightnessConfiguration;Ljava/lang/String;ILjava/lang/String;)V&#45;&gt;__field__ -->
<g id="edge3" class="edge">
<title>m::com.android.server.display.DisplayManagerService.setBrightnessConfigurationForDisplayInternal:(Landroid/hardware/display/BrightnessConfiguration;Ljava/lang/String;ILjava/lang/String;)V&#45;&gt;__field__</title>
<path fill="none" stroke="#dc2626" d="M443.77,-835.89C499.81,-827.41 556.07,-807.51 595,-766 663.82,-692.63 670.5,-563.5 669.96,-508.27"/>
<polygon fill="#dc2626" stroke="#dc2626" points="672.75,-508.01 669.82,-500.06 667.16,-508.1 672.75,-508.01"/>
<text text-anchor="middle" x="553" y="-818.8" font-family="Helvetica,sans-Serif" font-size="9.00" fill="#dc2626"> reads unguarded</text>
</g>
<!-- m::com.android.server.display.DisplayTopologyCoordinator.getUniqueId:(Landroid/view/DisplayInfo;)Ljava/lang/String; -->
<g id="node5" class="node">
<title>m::com.android.server.display.DisplayTopologyCoordinator.getUniqueId:(Landroid/view/DisplayInfo;)Ljava/lang/String;</title>
<path fill="#fee2e2" stroke="#dc2626" d="M352,-790C352,-790 137,-790 137,-790 131,-790 125,-784 125,-778 125,-778 125,-766 125,-766 125,-760 131,-754 137,-754 137,-754 352,-754 352,-754 358,-754 364,-760 364,-766 364,-766 364,-778 364,-778 364,-784 358,-790 352,-790"/>
<text text-anchor="middle" x="244.5" y="-769.2" font-family="Helvetica,sans-Serif" font-size="11.00">DisplayTopologyCoordinator.getUniqueId</text>
</g>
<!-- m::com.android.server.display.DisplayTopologyCoordinator.getUniqueId:(Landroid/view/DisplayInfo;)Ljava/lang/String;&#45;&gt;__field__ -->
<g id="edge4" class="edge">
<title>m::com.android.server.display.DisplayTopologyCoordinator.getUniqueId:(Landroid/view/DisplayInfo;)Ljava/lang/String;&#45;&gt;__field__</title>
<path fill="none" stroke="#dc2626" d="M364.09,-779.81C440.76,-778.01 536.76,-761.73 595,-700 646.66,-645.24 662.36,-553.04 667.05,-508.15"/>
<polygon fill="#dc2626" stroke="#dc2626" points="669.85,-508.31 667.83,-500.08 664.28,-507.77 669.85,-508.31"/>
<text text-anchor="middle" x="553" y="-753.8" font-family="Helvetica,sans-Serif" font-size="9.00" fill="#dc2626"> reads unguarded</text>
</g>
<!-- m::com.android.server.display.DisplayTopologyCoordinator.isDisplayAllowedInTopology:(Landroid/view/DisplayInfo;Z)Z -->
<g id="node6" class="node">
<title>m::com.android.server.display.DisplayTopologyCoordinator.isDisplayAllowedInTopology:(Landroid/view/DisplayInfo;Z)Z</title>
<path fill="#fee2e2" stroke="#dc2626" d="M394,-732C394,-732 95,-732 95,-732 89,-732 83,-726 83,-720 83,-720 83,-708 83,-708 83,-702 89,-696 95,-696 95,-696 394,-696 394,-696 400,-696 406,-702 406,-708 406,-708 406,-720 406,-720 406,-726 400,-732 394,-732"/>
<text text-anchor="middle" x="244.5" y="-711.2" font-family="Helvetica,sans-Serif" font-size="11.00">DisplayTopologyCoordinator.isDisplayAllowedInTopology</text>
</g>
<!-- m::com.android.server.display.DisplayTopologyCoordinator.isDisplayAllowedInTopology:(Landroid/view/DisplayInfo;Z)Z&#45;&gt;__field__ -->
<g id="edge5" class="edge">
<title>m::com.android.server.display.DisplayTopologyCoordinator.isDisplayAllowedInTopology:(Landroid/view/DisplayInfo;Z)Z&#45;&gt;__field__</title>
<path fill="none" stroke="#dc2626" d="M406.39,-713.17C472.84,-704.55 545.7,-683.07 595,-634 631.05,-598.11 652.21,-541.15 662.11,-508.1"/>
<polygon fill="#dc2626" stroke="#dc2626" points="664.85,-508.7 664.39,-500.24 659.47,-507.14 664.85,-508.7"/>
<text text-anchor="middle" x="553" y="-687.8" font-family="Helvetica,sans-Serif" font-size="9.00" fill="#dc2626"> reads unguarded</text>
</g>
<!-- m::com.android.server.display.ExternalDisplayPolicy.isDisplayReadyForMirroring:(I)Z -->
<g id="node7" class="node">
<title>m::com.android.server.display.ExternalDisplayPolicy.isDisplayReadyForMirroring:(I)Z</title>
<path fill="#fee2e2" stroke="#dc2626" d="M376,-674C376,-674 113,-674 113,-674 107,-674 101,-668 101,-662 101,-662 101,-650 101,-650 101,-644 107,-638 113,-638 113,-638 376,-638 376,-638 382,-638 388,-644 388,-650 388,-650 388,-662 388,-662 388,-668 382,-674 376,-674"/>
<text text-anchor="middle" x="244.5" y="-653.2" font-family="Helvetica,sans-Serif" font-size="11.00">ExternalDisplayPolicy.isDisplayReadyForMirroring</text>
</g>
<!-- m::com.android.server.display.ExternalDisplayPolicy.isDisplayReadyForMirroring:(I)Z&#45;&gt;__field__ -->
<g id="edge6" class="edge">
<title>m::com.android.server.display.ExternalDisplayPolicy.isDisplayReadyForMirroring:(I)Z&#45;&gt;__field__</title>
<path fill="none" stroke="#dc2626" d="M388.13,-652.19C456.95,-643.75 536.96,-623.45 595,-577 619.53,-557.37 640.76,-528.05 654.11,-507.18"/>
<polygon fill="#dc2626" stroke="#dc2626" points="656.62,-508.45 658.5,-500.18 651.88,-505.47 656.62,-508.45"/>
<text text-anchor="middle" x="553" y="-621.8" font-family="Helvetica,sans-Serif" font-size="9.00" fill="#dc2626"> reads unguarded</text>
</g>
<!-- m::com.android.server.display.ExternalDisplayPolicy.isExternalDisplayLocked:(Lcom/android/server/display/LogicalDisplay;)Z -->
<g id="node8" class="node">
<title>m::com.android.server.display.ExternalDisplayPolicy.isExternalDisplayLocked:(Lcom/android/server/display/LogicalDisplay;)Z</title>
<path fill="#fee2e2" stroke="#dc2626" d="M367.5,-616C367.5,-616 121.5,-616 121.5,-616 115.5,-616 109.5,-610 109.5,-604 109.5,-604 109.5,-592 109.5,-592 109.5,-586 115.5,-580 121.5,-580 121.5,-580 367.5,-580 367.5,-580 373.5,-580 379.5,-586 379.5,-592 379.5,-592 379.5,-604 379.5,-604 379.5,-610 373.5,-616 367.5,-616"/>
<text text-anchor="middle" x="244.5" y="-595.2" font-family="Helvetica,sans-Serif" font-size="11.00">ExternalDisplayPolicy.isExternalDisplayLocked</text>
</g>
<!-- m::com.android.server.display.ExternalDisplayPolicy.isExternalDisplayLocked:(Lcom/android/server/display/LogicalDisplay;)Z&#45;&gt;__field__ -->
<g id="edge7" class="edge">
<title>m::com.android.server.display.ExternalDisplayPolicy.isExternalDisplayLocked:(Lcom/android/server/display/LogicalDisplay;)Z&#45;&gt;__field__</title>
<path fill="none" stroke="#dc2626" d="M379.53,-589.11C415.49,-584.81 454.07,-578.44 489,-569 538.58,-555.6 548.93,-545.69 595,-523 606.78,-517.2 619.36,-510.45 630.74,-504.12"/>
<polygon fill="#dc2626" stroke="#dc2626" points="632.42,-506.39 638.03,-500.03 629.68,-501.5 632.42,-506.39"/>
<text text-anchor="middle" x="553" y="-564.8" font-family="Helvetica,sans-Serif" font-size="9.00" fill="#dc2626"> reads unguarded</text>
</g>
<!-- m::com.android.server.display.ExternalDisplayStatsService.onDisplayConnected:(Lcom/android/server/display/LogicalDisplay;)V -->
<g id="node9" class="node">
<title>m::com.android.server.display.ExternalDisplayStatsService.onDisplayConnected:(Lcom/android/server/display/LogicalDisplay;)V</title>
<path fill="#fee2e2" stroke="#dc2626" d="M376.5,-558C376.5,-558 112.5,-558 112.5,-558 106.5,-558 100.5,-552 100.5,-546 100.5,-546 100.5,-534 100.5,-534 100.5,-528 106.5,-522 112.5,-522 112.5,-522 376.5,-522 376.5,-522 382.5,-522 388.5,-528 388.5,-534 388.5,-534 388.5,-546 388.5,-546 388.5,-552 382.5,-558 376.5,-558"/>
<text text-anchor="middle" x="244.5" y="-537.2" font-family="Helvetica,sans-Serif" font-size="11.00">ExternalDisplayStatsService.onDisplayConnected</text>
</g>
<!-- m::com.android.server.display.ExternalDisplayStatsService.onDisplayConnected:(Lcom/android/server/display/LogicalDisplay;)V&#45;&gt;__field__ -->
<g id="edge8" class="edge">
<title>m::com.android.server.display.ExternalDisplayStatsService.onDisplayConnected:(Lcom/android/server/display/LogicalDisplay;)V&#45;&gt;__field__</title>
<path fill="none" stroke="#dc2626" d="M388.74,-525.21C452.13,-517.93 527.47,-508.29 595,-497 599.56,-496.24 604.26,-495.4 608.98,-494.53"/>
<polygon fill="#dc2626" stroke="#dc2626" points="609.59,-497.26 616.93,-493.02 608.55,-491.76 609.59,-497.26"/>
<text text-anchor="middle" x="553" y="-510.8" font-family="Helvetica,sans-Serif" font-size="9.00" fill="#dc2626"> reads unguarded</text>
</g>
<!-- m::com.android.server.display.LogicalDisplay.setIsForceSdr:(Z)Z -->
<g id="node10" class="node">
<title>m::com.android.server.display.LogicalDisplay.setIsForceSdr:(Z)Z</title>
<path fill="#fee2e2" stroke="#dc2626" d="M318.5,-500C318.5,-500 170.5,-500 170.5,-500 164.5,-500 158.5,-494 158.5,-488 158.5,-488 158.5,-476 158.5,-476 158.5,-470 164.5,-464 170.5,-464 170.5,-464 318.5,-464 318.5,-464 324.5,-464 330.5,-470 330.5,-476 330.5,-476 330.5,-488 330.5,-488 330.5,-494 324.5,-500 318.5,-500"/>
<text text-anchor="middle" x="244.5" y="-479.2" font-family="Helvetica,sans-Serif" font-size="11.00">LogicalDisplay.setIsForceSdr</text>
</g>
<!-- m::com.android.server.display.LogicalDisplay.setIsForceSdr:(Z)Z&#45;&gt;__field__ -->
<g id="edge9" class="edge">
<title>m::com.android.server.display.LogicalDisplay.setIsForceSdr:(Z)Z&#45;&gt;__field__</title>
<path fill="none" stroke="#dc2626" d="M330.69,-482C413.14,-482 536.02,-482 608.78,-482"/>
<polygon fill="#dc2626" stroke="#dc2626" points="608.96,-484.8 616.96,-482 608.96,-479.2 608.96,-484.8"/>
<text text-anchor="middle" x="553" y="-484.8" font-family="Helvetica,sans-Serif" font-size="9.00" fill="#dc2626"> reads unguarded</text>
</g>
<!-- m::com.android.server.display.LogicalDisplayMapper.createNewLogicalDisplayLocked:(Lcom/android/server/display/DisplayDevice;I)Lcom/android/server/display/LogicalDisplay; -->
<g id="node11" class="node">
<title>m::com.android.server.display.LogicalDisplayMapper.createNewLogicalDisplayLocked:(Lcom/android/server/display/DisplayDevice;I)Lcom/android/server/display/LogicalDisplay;</title>
<path fill="#fee2e2" stroke="#dc2626" d="M390.5,-442C390.5,-442 98.5,-442 98.5,-442 92.5,-442 86.5,-436 86.5,-430 86.5,-430 86.5,-418 86.5,-418 86.5,-412 92.5,-406 98.5,-406 98.5,-406 390.5,-406 390.5,-406 396.5,-406 402.5,-412 402.5,-418 402.5,-418 402.5,-430 402.5,-430 402.5,-436 396.5,-442 390.5,-442"/>
<text text-anchor="middle" x="244.5" y="-421.2" font-family="Helvetica,sans-Serif" font-size="11.00">LogicalDisplayMapper.createNewLogicalDisplayLocked</text>
</g>
<!-- m::com.android.server.display.LogicalDisplayMapper.createNewLogicalDisplayLocked:(Lcom/android/server/display/DisplayDevice;I)Lcom/android/server/display/LogicalDisplay;&#45;&gt;__field__ -->
<g id="edge10" class="edge">
<title>m::com.android.server.display.LogicalDisplayMapper.createNewLogicalDisplayLocked:(Lcom/android/server/display/DisplayDevice;I)Lcom/android/server/display/LogicalDisplay;&#45;&gt;__field__</title>
<path fill="none" stroke="#dc2626" d="M402.94,-440.44C463.18,-447.5 532.44,-456.54 595,-467 599.56,-467.76 604.26,-468.6 608.98,-469.47"/>
<polygon fill="#dc2626" stroke="#dc2626" points="608.55,-472.24 616.93,-470.98 609.59,-466.74 608.55,-472.24"/>
<text text-anchor="middle" x="553" y="-469.8" font-family="Helvetica,sans-Serif" font-size="9.00" fill="#dc2626"> reads unguarded</text>
</g>
<!-- m::com.android.server.display.LogicalDisplayMapper.isDisplayAllowedToBeDefaultSecondaryLocked:(Lcom/android/server/display/LogicalDisplay;)Z -->
<g id="node12" class="node">
<title>m::com.android.server.display.LogicalDisplayMapper.isDisplayAllowedToBeDefaultSecondaryLocked:(Lcom/android/server/display/LogicalDisplay;)Z</title>
<path fill="#fee2e2" stroke="#dc2626" d="M429,-384C429,-384 60,-384 60,-384 54,-384 48,-378 48,-372 48,-372 48,-360 48,-360 48,-354 54,-348 60,-348 60,-348 429,-348 429,-348 435,-348 441,-354 441,-360 441,-360 441,-372 441,-372 441,-378 435,-384 429,-384"/>
<text text-anchor="middle" x="244.5" y="-363.2" font-family="Helvetica,sans-Serif" font-size="11.00">LogicalDisplayMapper.isDisplayAllowedToBeDefaultSecondaryLocked</text>
</g>
<!-- m::com.android.server.display.LogicalDisplayMapper.isDisplayAllowedToBeDefaultSecondaryLocked:(Lcom/android/server/display/LogicalDisplay;)Z&#45;&gt;__field__ -->
<g id="edge11" class="edge">
<title>m::com.android.server.display.LogicalDisplayMapper.isDisplayAllowedToBeDefaultSecondaryLocked:(Lcom/android/server/display/LogicalDisplay;)Z&#45;&gt;__field__</title>
<path fill="none" stroke="#dc2626" d="M439.51,-384.04C456.36,-387.14 473.06,-390.76 489,-395 538.46,-408.16 549.11,-417.33 595,-440 607.17,-446.01 620.15,-453.12 631.77,-459.77"/>
<polygon fill="#dc2626" stroke="#dc2626" points="630.49,-462.26 638.82,-463.83 633.29,-457.41 630.49,-462.26"/>
<text text-anchor="middle" x="553" y="-442.8" font-family="Helvetica,sans-Serif" font-size="9.00" fill="#dc2626"> reads unguarded</text>
</g>
<!-- m::com.android.server.display.LogicalDisplayMapper.setEnabledLocked:(Lcom/android/server/display/LogicalDisplay;Z)V -->
<g id="node13" class="node">
<title>m::com.android.server.display.LogicalDisplayMapper.setEnabledLocked:(Lcom/android/server/display/LogicalDisplay;Z)V</title>
<path fill="#fee2e2" stroke="#dc2626" d="M352,-326C352,-326 137,-326 137,-326 131,-326 125,-320 125,-314 125,-314 125,-302 125,-302 125,-296 131,-290 137,-290 137,-290 352,-290 352,-290 358,-290 364,-296 364,-302 364,-302 364,-314 364,-314 364,-320 358,-326 352,-326"/>
<text text-anchor="middle" x="244.5" y="-305.2" font-family="Helvetica,sans-Serif" font-size="11.00">LogicalDisplayMapper.setEnabledLocked</text>
</g>
<!-- m::com.android.server.display.LogicalDisplayMapper.setEnabledLocked:(Lcom/android/server/display/LogicalDisplay;Z)V&#45;&gt;__field__ -->
<g id="edge12" class="edge">
<title>m::com.android.server.display.LogicalDisplayMapper.setEnabledLocked:(Lcom/android/server/display/LogicalDisplay;Z)V&#45;&gt;__field__</title>
<path fill="none" stroke="#dc2626" d="M364.02,-308.89C437.53,-315.17 530.01,-334.13 595,-386 619.87,-405.84 641.17,-435.73 654.45,-456.88"/>
<polygon fill="#dc2626" stroke="#dc2626" points="652.23,-458.61 658.8,-463.96 657,-455.68 652.23,-458.61"/>
<text text-anchor="middle" x="553" y="-388.8" font-family="Helvetica,sans-Serif" font-size="9.00" fill="#dc2626"> reads unguarded</text>
</g>
<!-- m::com.android.server.display.mode.DisplayModeDirector$DisplayObserver.onDisplayAdded:(I)V -->
<g id="node14" class="node">
<title>m::com.android.server.display.mode.DisplayModeDirector$DisplayObserver.onDisplayAdded:(I)V</title>
<path fill="#fee2e2" stroke="#dc2626" d="M393,-268C393,-268 96,-268 96,-268 90,-268 84,-262 84,-256 84,-256 84,-244 84,-244 84,-238 90,-232 96,-232 96,-232 393,-232 393,-232 399,-232 405,-238 405,-244 405,-244 405,-256 405,-256 405,-262 399,-268 393,-268"/>
<text text-anchor="middle" x="244.5" y="-247.2" font-family="Helvetica,sans-Serif" font-size="11.00">DisplayModeDirector$DisplayObserver.onDisplayAdded</text>
</g>
<!-- m::com.android.server.display.mode.DisplayModeDirector$DisplayObserver.onDisplayAdded:(I)V&#45;&gt;__field__ -->
<g id="edge13" class="edge">
<title>m::com.android.server.display.mode.DisplayModeDirector$DisplayObserver.onDisplayAdded:(I)V&#45;&gt;__field__</title>
<path fill="none" stroke="#dc2626" d="M405.32,-249.83C471.97,-258 545.29,-279.02 595,-328 631.82,-364.27 652.8,-422.51 662.44,-456.01"/>
<polygon fill="#dc2626" stroke="#dc2626" points="659.81,-457 664.65,-463.96 665.21,-455.5 659.81,-457"/>
<text text-anchor="middle" x="553" y="-330.8" font-family="Helvetica,sans-Serif" font-size="9.00" fill="#dc2626"> reads unguarded</text>
</g>
<!-- m::com.android.server.display.mode.DisplayModeDirector$DisplayObserver.onDisplayChanged:(I)V -->
<g id="node15" class="node">
<title>m::com.android.server.display.mode.DisplayModeDirector$DisplayObserver.onDisplayChanged:(I)V</title>
<path fill="#fee2e2" stroke="#dc2626" d="M400,-210C400,-210 89,-210 89,-210 83,-210 77,-204 77,-198 77,-198 77,-186 77,-186 77,-180 83,-174 89,-174 89,-174 400,-174 400,-174 406,-174 412,-180 412,-186 412,-186 412,-198 412,-198 412,-204 406,-210 400,-210"/>
<text text-anchor="middle" x="244.5" y="-189.2" font-family="Helvetica,sans-Serif" font-size="11.00">DisplayModeDirector$DisplayObserver.onDisplayChanged</text>
</g>
<!-- m::com.android.server.display.mode.DisplayModeDirector$DisplayObserver.onDisplayChanged:(I)V&#45;&gt;__field__ -->
<g id="edge14" class="edge">
<title>m::com.android.server.display.mode.DisplayModeDirector$DisplayObserver.onDisplayChanged:(I)V&#45;&gt;__field__</title>
<path fill="none" stroke="#dc2626" d="M412.17,-186.05C477.61,-192.63 548.13,-212.33 595,-261 648,-316.04 663.07,-410.12 667.34,-455.71"/>
<polygon fill="#dc2626" stroke="#dc2626" points="664.56,-456.16 668.03,-463.89 670.14,-455.68 664.56,-456.16"/>
<text text-anchor="middle" x="553" y="-263.8" font-family="Helvetica,sans-Serif" font-size="9.00" fill="#dc2626"> reads unguarded</text>
</g>
<!-- m::com.android.server.display.mode.DisplayModeDirector$DisplayObserver.registerExternalDisplay:(Landroid/view/DisplayInfo;)V -->
<g id="node16" class="node">
<title>m::com.android.server.display.mode.DisplayModeDirector$DisplayObserver.registerExternalDisplay:(Landroid/view/DisplayInfo;)V</title>
<path fill="#fee2e2" stroke="#dc2626" d="M413.5,-152C413.5,-152 75.5,-152 75.5,-152 69.5,-152 63.5,-146 63.5,-140 63.5,-140 63.5,-128 63.5,-128 63.5,-122 69.5,-116 75.5,-116 75.5,-116 413.5,-116 413.5,-116 419.5,-116 425.5,-122 425.5,-128 425.5,-128 425.5,-140 425.5,-140 425.5,-146 419.5,-152 413.5,-152"/>
<text text-anchor="middle" x="244.5" y="-131.2" font-family="Helvetica,sans-Serif" font-size="11.00">DisplayModeDirector$DisplayObserver.registerExternalDisplay</text>
</g>
<!-- m::com.android.server.display.mode.DisplayModeDirector$DisplayObserver.registerExternalDisplay:(Landroid/view/DisplayInfo;)V&#45;&gt;__field__ -->
<g id="edge15" class="edge">
<title>m::com.android.server.display.mode.DisplayModeDirector$DisplayObserver.registerExternalDisplay:(Landroid/view/DisplayInfo;)V&#45;&gt;__field__</title>
<path fill="none" stroke="#dc2626" d="M425.53,-124.46C487.17,-130.79 551.49,-149.68 595,-195 631.32,-232.83 656.72,-392.39 665.56,-455.83"/>
<polygon fill="#dc2626" stroke="#dc2626" points="662.79,-456.23 666.65,-463.77 668.34,-455.47 662.79,-456.23"/>
<text text-anchor="middle" x="553" y="-197.8" font-family="Helvetica,sans-Serif" font-size="9.00" fill="#dc2626"> reads unguarded</text>
</g>
<!-- m::com.android.server.display.mode.DisplayModeDirector$DisplayObserver.updateDisplaysPeakRefreshRateAndResolution:(Landroid/view/DisplayInfo;)V -->
<g id="node17" class="node">
<title>m::com.android.server.display.mode.DisplayModeDirector$DisplayObserver.updateDisplaysPeakRefreshRateAndResolution:(Landroid/view/DisplayInfo;)V</title>
<path fill="#fee2e2" stroke="#dc2626" d="M477,-94C477,-94 12,-94 12,-94 6,-94 0,-88 0,-82 0,-82 0,-70 0,-70 0,-64 6,-58 12,-58 12,-58 477,-58 477,-58 483,-58 489,-64 489,-70 489,-70 489,-82 489,-82 489,-88 483,-94 477,-94"/>
<text text-anchor="middle" x="244.5" y="-73.2" font-family="Helvetica,sans-Serif" font-size="11.00">DisplayModeDirector$DisplayObserver.updateDisplaysPeakRefreshRateAndResolution</text>
</g>
<!-- m::com.android.server.display.mode.DisplayModeDirector$DisplayObserver.updateDisplaysPeakRefreshRateAndResolution:(Landroid/view/DisplayInfo;)V&#45;&gt;__field__ -->
<g id="edge16" class="edge">
<title>m::com.android.server.display.mode.DisplayModeDirector$DisplayObserver.updateDisplaysPeakRefreshRateAndResolution:(Landroid/view/DisplayInfo;)V&#45;&gt;__field__</title>
<path fill="none" stroke="#dc2626" d="M489.44,-72.31C529.04,-82.36 566.37,-99.91 595,-129 640.9,-175.64 661.18,-381.41 667.07,-455.39"/>
<polygon fill="#dc2626" stroke="#dc2626" points="664.31,-455.98 667.72,-463.74 669.89,-455.55 664.31,-455.98"/>
<text text-anchor="middle" x="553" y="-131.8" font-family="Helvetica,sans-Serif" font-size="9.00" fill="#dc2626"> reads unguarded</text>
</g>
<!-- m::com.android.server.display.mode.DisplayModeDirector$DisplayObserver.updateUserSettingDisplayPreferredSize:(Landroid/view/DisplayInfo;)V -->
<g id="node18" class="node">
<title>m::com.android.server.display.mode.DisplayModeDirector$DisplayObserver.updateUserSettingDisplayPreferredSize:(Landroid/view/DisplayInfo;)V</title>
<path fill="#fee2e2" stroke="#dc2626" d="M457,-36C457,-36 32,-36 32,-36 26,-36 20,-30 20,-24 20,-24 20,-12 20,-12 20,-6 26,0 32,0 32,0 457,0 457,0 463,0 469,-6 469,-12 469,-12 469,-24 469,-24 469,-30 463,-36 457,-36"/>
<text text-anchor="middle" x="244.5" y="-15.2" font-family="Helvetica,sans-Serif" font-size="11.00">DisplayModeDirector$DisplayObserver.updateUserSettingDisplayPreferredSize</text>
</g>
<!-- m::com.android.server.display.mode.DisplayModeDirector$DisplayObserver.updateUserSettingDisplayPreferredSize:(Landroid/view/DisplayInfo;)V&#45;&gt;__field__ -->
<g id="edge17" class="edge">
<title>m::com.android.server.display.mode.DisplayModeDirector$DisplayObserver.updateUserSettingDisplayPreferredSize:(Landroid/view/DisplayInfo;)V&#45;&gt;__field__</title>
<path fill="none" stroke="#dc2626" d="M469.18,-5.93C516.01,-14.08 561.32,-31.57 595,-65 650.69,-120.28 664.96,-373.27 668.16,-455.85"/>
<polygon fill="#dc2626" stroke="#dc2626" points="665.37,-456.07 668.46,-463.96 670.96,-455.86 665.37,-456.07"/>
<text text-anchor="middle" x="553" y="-67.8" font-family="Helvetica,sans-Serif" font-size="9.00" fill="#dc2626"> reads unguarded</text>
</g>
</g>
</svg>
