<?xml version="1.0" encoding="UTF-8" standalone="no"?>
<!DOCTYPE svg PUBLIC "-//W3C//DTD SVG 1.1//EN"
 "http://www.w3.org/Graphics/SVG/1.1/DTD/svg11.dtd">
<!-- Generated by graphviz version 2.43.0 (0)
 -->
<!-- Title: race Pages: 1 -->
<svg width="539pt" height="160pt"
 viewBox="0.00 0.00 539.00 160.00" xmlns="http://www.w3.org/2000/svg" xmlns:xlink="http://www.w3.org/1999/xlink">
<g id="graph0" class="graph" transform="scale(1 1) rotate(0) translate(4 156)">
<title>race</title>
<polygon fill="white" stroke="transparent" points="-4,4 -4,-156 535,-156 535,4 -4,4"/>
<!-- __field__ -->
<g id="node1" class="node">
<title>__field__</title>
<path fill="#fef9c3" stroke="#ca8a04" stroke-width="2" d="M519,-94C519,-94 421,-94 421,-94 415,-94 409,-88 409,-82 409,-82 409,-70 409,-70 409,-64 415,-58 421,-58 421,-58 519,-58 519,-58 525,-58 531,-64 531,-70 531,-70 531,-82 531,-82 531,-88 525,-94 519,-94"/>
<text text-anchor="middle" x="470" y="-73.2" font-family="Helvetica,sans-Serif" font-size="11.00">DisplayInfo.modeId</text>
</g>
<!-- __guard__ -->
<g id="node2" class="node">
<title>__guard__</title>
<path fill="#dcfce7" stroke="#16a34a" stroke-width="2" d="M234.5,-152C234.5,-152 46.5,-152 46.5,-152 40.5,-152 34.5,-146 34.5,-140 34.5,-140 34.5,-128 34.5,-128 34.5,-122 40.5,-116 46.5,-116 46.5,-116 234.5,-116 234.5,-116 240.5,-116 246.5,-122 246.5,-128 246.5,-128 246.5,-140 246.5,-140 246.5,-146 240.5,-152 234.5,-152"/>
<text text-anchor="middle" x="140.5" y="-131.2" font-family="Helvetica,sans-Serif" font-size="11.00">DisplayManagerService.mSyncRoot</text>
</g>
<!-- __guard__&#45;&gt;__field__ -->
<g id="edge1" class="edge">
<title>__guard__&#45;&gt;__field__</title>
<path fill="none" stroke="#16a34a" stroke-width="1.6" d="M245.46,-115.97C289.18,-108.34 340.57,-99.31 387,-91 391.56,-90.18 396.27,-89.34 401.01,-88.48"/>
<polygon fill="#16a34a" stroke="#16a34a" stroke-width="1.6" points="401.63,-91.21 409,-87.03 400.63,-85.7 401.63,-91.21"/>
<text text-anchor="middle" x="345" y="-107.8" font-family="Helvetica,sans-Serif" font-size="9.00" fill="#15803d"> guards 2/3</text>
</g>
<!-- m::com.android.server.display.LogicalDisplay.updateLocked:(Lcom/android/server/display/DisplayDeviceRepository;Lcom/android/server/display/mode/SyntheticModeManager;)V -->
<g id="node3" class="node">
<title>m::com.android.server.display.LogicalDisplay.updateLocked:(Lcom/android/server/display/DisplayDeviceRepository;Lcom/android/server/display/mode/SyntheticModeManager;)V</title>
<path fill="#fee2e2" stroke="#dc2626" d="M215.5,-94C215.5,-94 65.5,-94 65.5,-94 59.5,-94 53.5,-88 53.5,-82 53.5,-82 53.5,-70 53.5,-70 53.5,-64 59.5,-58 65.5,-58 65.5,-58 215.5,-58 215.5,-58 221.5,-58 227.5,-64 227.5,-70 227.5,-70 227.5,-82 227.5,-82 227.5,-88 221.5,-94 215.5,-94"/>
<text text-anchor="middle" x="140.5" y="-73.2" font-family="Helvetica,sans-Serif" font-size="11.00">LogicalDisplay.updateLocked</text>
</g>
<!-- m::com.android.server.display.LogicalDisplay.updateLocked:(Lcom/android/server/display/DisplayDeviceRepository;Lcom/android/server/display/mode/SyntheticModeManager;)V&#45;&gt;__field__ -->
<g id="edge2" class="edge">
<title>m::com.android.server.display.LogicalDisplay.updateLocked:(Lcom/android/server/display/DisplayDeviceRepository;Lcom/android/server/display/mode/SyntheticModeManager;)V&#45;&gt;__field__</title>
<path fill="none" stroke="#dc2626" d="M227.55,-76C281.58,-76 350.32,-76 400.62,-76"/>
<polygon fill="#dc2626" stroke="#dc2626" points="400.84,-78.8 408.84,-76 400.84,-73.2 400.84,-78.8"/>
<text text-anchor="middle" x="345" y="-78.8" font-family="Helvetica,sans-Serif" font-size="9.00" fill="#dc2626"> writes unguarded</text>
</g>
<!-- m::com.android.server.wm.DeferredDisplayUpdater.calculateDisplayInfoDiff:(Landroid/view/DisplayInfo;Landroid/view/DisplayInfo;)I -->
<g id="node4" class="node">
<title>m::com.android.server.wm.DeferredDisplayUpdater.calculateDisplayInfoDiff:(Landroid/view/DisplayInfo;Landroid/view/DisplayInfo;)I</title>
<path fill="#fee2e2" stroke="#dc2626" d="M269,-36C269,-36 12,-36 12,-36 6,-36 0,-30 0,-24 0,-24 0,-12 0,-12 0,-6 6,0 12,0 12,0 269,0 269,0 275,0 281,-6 281,-12 281,-12 281,-24 281,-24 281,-30 275,-36 269,-36"/>
<text text-anchor="middle" x="140.5" y="-15.2" font-family="Helvetica,sans-Serif" font-size="11.00">DeferredDisplayUpdater.calculateDisplayInfoDiff</text>
</g>
<!-- m::com.android.server.wm.DeferredDisplayUpdater.calculateDisplayInfoDiff:(Landroid/view/DisplayInfo;Landroid/view/DisplayInfo;)I&#45;&gt;__field__ -->
<g id="edge3" class="edge">
<title>m::com.android.server.wm.DeferredDisplayUpdater.calculateDisplayInfoDiff:(Landroid/view/DisplayInfo;Landroid/view/DisplayInfo;)I&#45;&gt;__field__</title>
<path fill="none" stroke="#dc2626" d="M245.46,-36.03C289.18,-43.66 340.57,-52.69 387,-61 391.56,-61.82 396.27,-62.66 401.01,-63.52"/>
<polygon fill="#dc2626" stroke="#dc2626" points="400.63,-66.3 409,-64.97 401.63,-60.79 400.63,-66.3"/>
<text text-anchor="middle" x="345" y="-63.8" font-family="Helvetica,sans-Serif" font-size="9.00" fill="#dc2626"> reads unguarded</text>
</g>
</g>
</svg>
