<?xml version="1.0" encoding="UTF-8" standalone="no"?>
<!DOCTYPE svg PUBLIC "-//W3C//DTD SVG 1.1//EN"
 "http://www.w3.org/Graphics/SVG/1.1/DTD/svg11.dtd">
<!-- Generated by graphviz version 2.43.0 (0)
 -->
<!-- Title: race Pages: 1 -->
<svg width="567pt" height="392pt"
 viewBox="0.00 0.00 567.00 392.00" xmlns="http://www.w3.org/2000/svg" xmlns:xlink="http://www.w3.org/1999/xlink">
<g id="graph0" class="graph" transform="scale(1 1) rotate(0) translate(4 388)">
<title>race</title>
<polygon fill="white" stroke="transparent" points="-4,4 -4,-388 563,-388 563,4 -4,4"/>
<!-- __field__ -->
<g id="node1" class="node">
<title>__field__</title>
<path fill="#fef9c3" stroke="#ca8a04" stroke-width="2" d="M547,-210C547,-210 436,-210 436,-210 430,-210 424,-204 424,-198 424,-198 424,-186 424,-186 424,-180 430,-174 436,-174 436,-174 547,-174 547,-174 553,-174 559,-180 559,-186 559,-186 559,-198 559,-198 559,-204 553,-210 547,-210"/>
<text text-anchor="middle" x="491.5" y="-189.2" font-family="Helvetica,sans-Serif" font-size="11.00">UserInfo.profileBadge</text>
</g>
<!-- __guard__ -->
<g id="node2" class="node">
<title>__guard__</title>
<path fill="#dcfce7" stroke="#16a34a" stroke-width="2" d="M236.5,-384C236.5,-384 59.5,-384 59.5,-384 53.5,-384 47.5,-378 47.5,-372 47.5,-372 47.5,-360 47.5,-360 47.5,-354 53.5,-348 59.5,-348 59.5,-348 236.5,-348 236.5,-348 242.5,-348 248.5,-354 248.5,-360 248.5,-360 248.5,-372 248.5,-372 248.5,-378 242.5,-384 236.5,-384"/>
<text text-anchor="middle" x="148" y="-363.2" font-family="Helvetica,sans-Serif" font-size="11.00">UserManagerService.mUsersLock</text>
</g>
<!-- __guard__&#45;&gt;__field__ -->
<g id="edge1" class="edge">
<title>__guard__&#45;&gt;__field__</title>
<path fill="none" stroke="#16a34a" stroke-width="1.6" d="M248.65,-350.12C298.29,-338.52 357.12,-318.86 402,-286 429.25,-266.05 455.09,-237.01 471.73,-216.5"/>
<polygon fill="#16a34a" stroke="#16a34a" stroke-width="1.6" points="473.99,-218.16 476.8,-210.17 469.61,-214.66 473.99,-218.16"/>
<text text-anchor="middle" x="360" y="-331.8" font-family="Helvetica,sans-Serif" font-size="9.00" fill="#15803d"> guards 2/3</text>
</g>
<!-- m::com.android.server.pm.UserManagerService.readUserLP:(ILjava/io/InputStream;I)Lcom/android/server/pm/UserManagerService$UserData; -->
<g id="node3" class="node">
<title>m::com.android.server.pm.UserManagerService.readUserLP:(ILjava/io/InputStream;I)Lcom/android/server/pm/UserManagerService$UserData;</title>
<path fill="#fee2e2" stroke="#dc2626" d="M234.5,-326C234.5,-326 61.5,-326 61.5,-326 55.5,-326 49.5,-320 49.5,-314 49.5,-314 49.5,-302 49.5,-302 49.5,-296 55.5,-290 61.5,-290 61.5,-290 234.5,-290 234.5,-290 240.5,-290 246.5,-296 246.5,-302 246.5,-302 246.5,-314 246.5,-314 246.5,-320 240.5,-326 234.5,-326"/>
<text text-anchor="middle" x="148" y="-305.2" font-family="Helvetica,sans-Serif" font-size="11.00">UserManagerService.readUserLP</text>
</g>
<!-- m::com.android.server.pm.UserManagerService.readUserLP:(ILjava/io/InputStream;I)Lcom/android/server/pm/UserManagerService$UserData;&#45;&gt;__field__ -->
<g id="edge2" class="edge">
<title>m::com.android.server.pm.UserManagerService.readUserLP:(ILjava/io/InputStream;I)Lcom/android/server/pm/UserManagerService$UserData;&#45;&gt;__field__</title>
<path fill="none" stroke="#dc2626" d="M246.5,-291.48C263.15,-287.89 280.17,-283.72 296,-279 344.72,-264.46 355.65,-256.89 402,-236 417.19,-229.16 433.58,-221.18 448.09,-213.9"/>
<polygon fill="#dc2626" stroke="#dc2626" points="449.6,-216.28 455.48,-210.18 447.08,-211.28 449.6,-216.28"/>
<text text-anchor="middle" x="360" y="-273.8" font-family="Helvetica,sans-Serif" font-size="9.00" fill="#dc2626"> writes unguarded</text>
</g>
<!-- m::com.android.server.pm.UserManagerService.getProfileLabelResId:(I)I -->
<g id="node4" class="node">
<title>m::com.android.server.pm.UserManagerService.getProfileLabelResId:(I)I</title>
<path fill="#fee2e2" stroke="#dc2626" d="M259,-268C259,-268 37,-268 37,-268 31,-268 25,-262 25,-256 25,-256 25,-244 25,-244 25,-238 31,-232 37,-232 37,-232 259,-232 259,-232 265,-232 271,-238 271,-244 271,-244 271,-256 271,-256 271,-262 265,-268 259,-268"/>
<text text-anchor="middle" x="148" y="-247.2" font-family="Helvetica,sans-Serif" font-size="11.00">UserManagerService.getProfileLabelResId</text>
</g>
<!-- m::com.android.server.pm.UserManagerService.getProfileLabelResId:(I)I&#45;&gt;__field__ -->
<g id="edge3" class="edge">
<title>m::com.android.server.pm.UserManagerService.getProfileLabelResId:(I)I&#45;&gt;__field__</title>
<path fill="none" stroke="#dc2626" d="M255.18,-231.97C307.28,-223.12 368.79,-212.67 415.86,-204.68"/>
<polygon fill="#dc2626" stroke="#dc2626" points="416.46,-207.42 423.87,-203.32 415.52,-201.89 416.46,-207.42"/>
<text text-anchor="middle" x="360" y="-223.8" font-family="Helvetica,sans-Serif" font-size="9.00" fill="#dc2626"> reads unguarded</text>
</g>
<!-- m::com.android.server.pm.UserManagerService.getUserBadgeColorResId:(I)I -->
<g id="node5" class="node">
<title>m::com.android.server.pm.UserManagerService.getUserBadgeColorResId:(I)I</title>
<path fill="#fee2e2" stroke="#dc2626" d="M271.5,-210C271.5,-210 24.5,-210 24.5,-210 18.5,-210 12.5,-204 12.5,-198 12.5,-198 12.5,-186 12.5,-186 12.5,-180 18.5,-174 24.5,-174 24.5,-174 271.5,-174 271.5,-174 277.5,-174 283.5,-180 283.5,-186 283.5,-186 283.5,-198 283.5,-198 283.5,-204 277.5,-210 271.5,-210"/>
<text text-anchor="middle" x="148" y="-189.2" font-family="Helvetica,sans-Serif" font-size="11.00">UserManagerService.getUserBadgeColorResId</text>
</g>
<!-- m::com.android.server.pm.UserManagerService.getUserBadgeColorResId:(I)I&#45;&gt;__field__ -->
<g id="edge4" class="edge">
<title>m::com.android.server.pm.UserManagerService.getUserBadgeColorResId:(I)I&#45;&gt;__field__</title>
<path fill="none" stroke="#dc2626" d="M283.97,-192C328.88,-192 377.24,-192 415.87,-192"/>
<polygon fill="#dc2626" stroke="#dc2626" points="415.96,-194.8 423.96,-192 415.96,-189.2 415.96,-194.8"/>
<text text-anchor="middle" x="360" y="-194.8" font-family="Helvetica,sans-Serif" font-size="9.00" fill="#dc2626"> reads unguarded</text>
</g>
<!-- m::com.android.server.pm.UserManagerService.getUserBadgeDarkColorResId:(I)I -->
<g id="node6" class="node">
<title>m::com.android.server.pm.UserManagerService.getUserBadgeDarkColorResId:(I)I</title>
<path fill="#fee2e2" stroke="#dc2626" d="M284,-152C284,-152 12,-152 12,-152 6,-152 0,-146 0,-140 0,-140 0,-128 0,-128 0,-122 6,-116 12,-116 12,-116 284,-116 284,-116 290,-116 296,-122 296,-128 296,-128 296,-140 296,-140 296,-146 290,-152 284,-152"/>
<text text-anchor="middle" x="148" y="-131.2" font-family="Helvetica,sans-Serif" font-size="11.00">UserManagerService.getUserBadgeDarkColorResId</text>
</g>
<!-- m::com.android.server.pm.UserManagerService.getUserBadgeDarkColorResId:(I)I&#45;&gt;__field__ -->
<g id="edge5" class="edge">
<title>m::com.android.server.pm.UserManagerService.getUserBadgeDarkColorResId:(I)I&#45;&gt;__field__</title>
<path fill="none" stroke="#dc2626" d="M255.18,-152.03C307.28,-160.88 368.79,-171.33 415.86,-179.32"/>
<polygon fill="#dc2626" stroke="#dc2626" points="415.52,-182.11 423.87,-180.68 416.46,-176.58 415.52,-182.11"/>
<text text-anchor="middle" x="360" y="-178.8" font-family="Helvetica,sans-Serif" font-size="9.00" fill="#dc2626"> reads unguarded</text>
</g>
<!-- m::com.android.server.pm.UserManagerService.getUserBadgeLabelResId:(I)I -->
<g id="node7" class="node">
<title>m::com.android.server.pm.UserManagerService.getUserBadgeLabelResId:(I)I</title>
<path fill="#fee2e2" stroke="#dc2626" d="M272,-94C272,-94 24,-94 24,-94 18,-94 12,-88 12,-82 12,-82 12,-70 12,-70 12,-64 18,-58 24,-58 24,-58 272,-58 272,-58 278,-58 284,-64 284,-70 284,-70 284,-82 284,-82 284,-88 278,-94 272,-94"/>
<text text-anchor="middle" x="148" y="-73.2" font-family="Helvetica,sans-Serif" font-size="11.00">UserManagerService.getUserBadgeLabelResId</text>
</g>
<!-- m::com.android.server.pm.UserManagerService.getUserBadgeLabelResId:(I)I&#45;&gt;__field__ -->
<g id="edge6" class="edge">
<title>m::com.android.server.pm.UserManagerService.getUserBadgeLabelResId:(I)I&#45;&gt;__field__</title>
<path fill="none" stroke="#dc2626" d="M253.6,-94.08C267.95,-97.3 282.42,-100.95 296,-105 344.72,-119.54 355.65,-127.11 402,-148 417.19,-154.84 433.58,-162.82 448.09,-170.1"/>
<polygon fill="#dc2626" stroke="#dc2626" points="447.08,-172.72 455.48,-173.82 449.6,-167.72 447.08,-172.72"/>
<text text-anchor="middle" x="360" y="-150.8" font-family="Helvetica,sans-Serif" font-size="9.00" fill="#dc2626"> reads unguarded</text>
</g>
<!-- m::com.android.server.pm.UserManagerService.writeUserLP:(Lcom/android/server/pm/UserManagerService$UserData;Ljava/io/OutputStream;)V -->
<g id="node8" class="node">
<title>m::com.android.server.pm.UserManagerService.writeUserLP:(Lcom/android/server/pm/UserManagerService$UserData;Ljava/io/OutputStream;)V</title>
<path fill="#fee2e2" stroke="#dc2626" d="M236,-36C236,-36 60,-36 60,-36 54,-36 48,-30 48,-24 48,-24 48,-12 48,-12 48,-6 54,0 60,0 60,0 236,0 236,0 242,0 248,-6 248,-12 248,-12 248,-24 248,-24 248,-30 242,-36 236,-36"/>
<text text-anchor="middle" x="148" y="-15.2" font-family="Helvetica,sans-Serif" font-size="11.00">UserManagerService.writeUserLP</text>
</g>
<!-- m::com.android.server.pm.UserManagerService.writeUserLP:(Lcom/android/server/pm/UserManagerService$UserData;Ljava/io/OutputStream;)V&#45;&gt;__field__ -->
<g id="edge7" class="edge">
<title>m::com.android.server.pm.UserManagerService.writeUserLP:(Lcom/android/server/pm/UserManagerService$UserData;Ljava/io/OutputStream;)V&#45;&gt;__field__</title>
<path fill="none" stroke="#dc2626" d="M248.05,-33.27C297.81,-44.64 356.94,-64.09 402,-97 429.6,-117.15 455.54,-146.75 472.12,-167.54"/>
<polygon fill="#dc2626" stroke="#dc2626" points="470.01,-169.4 477.16,-173.96 474.42,-165.94 470.01,-169.4"/>
<text text-anchor="middle" x="360" y="-99.8" font-family="Helvetica,sans-Serif" font-size="9.00" fill="#dc2626"> reads unguarded</text>
</g>
</g>
</svg>
