<?xml version="1.0" encoding="UTF-8" standalone="no"?>
<!DOCTYPE svg PUBLIC "-//W3C//DTD SVG 1.1//EN"
 "http://www.w3.org/Graphics/SVG/1.1/DTD/svg11.dtd">
<!-- Generated by graphviz version 2.43.0 (0)
 -->
<!-- Title: race Pages: 1 -->
<svg width="505pt" height="276pt"
 viewBox="0.00 0.00 505.00 276.00" xmlns="http://www.w3.org/2000/svg" xmlns:xlink="http://www.w3.org/1999/xlink">
<g id="graph0" class="graph" transform="scale(1 1) rotate(0) translate(4 272)">
<title>race</title>
<polygon fill="white" stroke="transparent" points="-4,4 -4,-272 501,-272 501,4 -4,4"/>
<!-- __field__ -->
<g id="node1" class="node">
<title>__field__</title>
<path fill="#fef9c3" stroke="#ca8a04" stroke-width="2" d="M485,-152C485,-152 348,-152 348,-152 342,-152 336,-146 336,-140 336,-140 336,-128 336,-128 336,-122 342,-116 348,-116 348,-116 485,-116 485,-116 491,-116 497,-122 497,-128 497,-128 497,-140 497,-140 497,-146 491,-152 485,-152"/>
<text text-anchor="middle" x="416.5" y="-131.2" font-family="Helvetica,sans-Serif" font-size="11.00">AppErrors.mBadProcesses</text>
</g>
<!-- __guard__ -->
<g id="node2" class="node">
<title>__guard__</title>
<path fill="#dcfce7" stroke="#16a34a" stroke-width="2" d="M178.5,-268C178.5,-268 29.5,-268 29.5,-268 23.5,-268 17.5,-262 17.5,-256 17.5,-256 17.5,-244 17.5,-244 17.5,-238 23.5,-232 29.5,-232 29.5,-232 178.5,-232 178.5,-232 184.5,-232 190.5,-238 190.5,-244 190.5,-244 190.5,-256 190.5,-256 190.5,-262 184.5,-268 178.5,-268"/>
<text text-anchor="middle" x="104" y="-247.2" font-family="Helvetica,sans-Serif" font-size="11.00">AppErrors.mBadProcessLock</text>
</g>
<!-- __guard__&#45;&gt;__field__ -->
<g id="edge1" class="edge">
<title>__guard__&#45;&gt;__field__</title>
<path fill="none" stroke="#16a34a" stroke-width="1.6" d="M171.69,-231.96C183.82,-228.47 196.32,-224.73 208,-221 255.67,-205.76 267.85,-202.35 314,-183 333.58,-174.79 354.79,-164.74 372.74,-155.88"/>
<polygon fill="#16a34a" stroke="#16a34a" stroke-width="1.6" points="374.3,-158.23 380.22,-152.17 371.81,-153.22 374.3,-158.23"/>
<text text-anchor="middle" x="272" y="-215.8" font-family="Helvetica,sans-Serif" font-size="9.00" fill="#15803d"> guards 3/4</text>
</g>
<!-- m::com.android.server.am.AppErrors.clearBadProcessForUser:(Ljava/lang/String;I)V -->
<g id="node3" class="node">
<title>m::com.android.server.am.AppErrors.clearBadProcessForUser:(Ljava/lang/String;I)V</title>
<path fill="#fee2e2" stroke="#dc2626" d="M196,-210C196,-210 12,-210 12,-210 6,-210 0,-204 0,-198 0,-198 0,-186 0,-186 0,-180 6,-174 12,-174 12,-174 196,-174 196,-174 202,-174 208,-180 208,-186 208,-186 208,-198 208,-198 208,-204 202,-210 196,-210"/>
<text text-anchor="middle" x="104" y="-189.2" font-family="Helvetica,sans-Serif" font-size="11.00">AppErrors.clearBadProcessForUser</text>
</g>
<!-- m::com.android.server.am.AppErrors.clearBadProcessForUser:(Ljava/lang/String;I)V&#45;&gt;__field__ -->
<g id="edge2" class="edge">
<title>m::com.android.server.am.AppErrors.clearBadProcessForUser:(Ljava/lang/String;I)V&#45;&gt;__field__</title>
<path fill="none" stroke="#dc2626" d="M201.54,-173.97C241.85,-166.44 288.34,-157.75 327.67,-150.41"/>
<polygon fill="#dc2626" stroke="#dc2626" points="328.6,-153.08 335.95,-148.86 327.57,-147.58 328.6,-153.08"/>
<text text-anchor="middle" x="272" y="-170.8" font-family="Helvetica,sans-Serif" font-size="9.00" fill="#dc2626"> writes unguarded</text>
</g>
<!-- m::com.android.server.am.AppErrors.dumpDebugLPr:(Landroid/util/proto/ProtoOutputStream;JLjava/lang/String;)V -->
<g id="node4" class="node">
<title>m::com.android.server.am.AppErrors.dumpDebugLPr:(Landroid/util/proto/ProtoOutputStream;JLjava/lang/String;)V</title>
<path fill="#fee2e2" stroke="#dc2626" d="M171,-152C171,-152 37,-152 37,-152 31,-152 25,-146 25,-140 25,-140 25,-128 25,-128 25,-122 31,-116 37,-116 37,-116 171,-116 171,-116 177,-116 183,-122 183,-128 183,-128 183,-140 183,-140 183,-146 177,-152 171,-152"/>
<text text-anchor="middle" x="104" y="-131.2" font-family="Helvetica,sans-Serif" font-size="11.00">AppErrors.dumpDebugLPr</text>
</g>
<!-- m::com.android.server.am.AppErrors.dumpDebugLPr:(Landroid/util/proto/ProtoOutputStream;JLjava/lang/String;)V&#45;&gt;__field__ -->
<g id="edge3" class="edge">
<title>m::com.android.server.am.AppErrors.dumpDebugLPr:(Landroid/util/proto/ProtoOutputStream;JLjava/lang/String;)V&#45;&gt;__field__</title>
<path fill="none" stroke="#dc2626" d="M183.35,-134C227.33,-134 282.33,-134 327.75,-134"/>
<polygon fill="#dc2626" stroke="#dc2626" points="327.82,-136.8 335.82,-134 327.82,-131.2 327.82,-136.8"/>
<text text-anchor="middle" x="272" y="-136.8" font-family="Helvetica,sans-Serif" font-size="9.00" fill="#dc2626"> reads unguarded</text>
</g>
<!-- m::com.android.server.am.AppErrors.dumpLPr:(Ljava/io/FileDescriptor;Ljava/io/PrintWriter;ZLjava/lang/String;)Z -->
<g id="node5" class="node">
<title>m::com.android.server.am.AppErrors.dumpLPr:(Ljava/io/FileDescriptor;Ljava/io/PrintWriter;ZLjava/lang/String;)Z</title>
<path fill="#fee2e2" stroke="#dc2626" d="M153,-94C153,-94 55,-94 55,-94 49,-94 43,-88 43,-82 43,-82 43,-70 43,-70 43,-64 49,-58 55,-58 55,-58 153,-58 153,-58 159,-58 165,-64 165,-70 165,-70 165,-82 165,-82 165,-88 159,-94 153,-94"/>
<text text-anchor="middle" x="104" y="-73.2" font-family="Helvetica,sans-Serif" font-size="11.00">AppErrors.dumpLPr</text>
</g>
<!-- m::com.android.server.am.AppErrors.dumpLPr:(Ljava/io/FileDescriptor;Ljava/io/PrintWriter;ZLjava/lang/String;)Z&#45;&gt;__field__ -->
<g id="edge4" class="edge">
<title>m::com.android.server.am.AppErrors.dumpLPr:(Ljava/io/FileDescriptor;Ljava/io/PrintWriter;ZLjava/lang/String;)Z&#45;&gt;__field__</title>
<path fill="none" stroke="#dc2626" d="M165.24,-87.25C211.45,-95.88 275.92,-107.93 327.84,-117.63"/>
<polygon fill="#dc2626" stroke="#dc2626" points="327.36,-120.38 335.74,-119.1 328.39,-114.88 327.36,-120.38"/>
<text text-anchor="middle" x="272" y="-115.8" font-family="Helvetica,sans-Serif" font-size="9.00" fill="#dc2626"> reads unguarded</text>
</g>
<!-- m::com.android.server.am.AppErrors.isBadProcess:(Ljava/lang/String;I)Z -->
<g id="node6" class="node">
<title>m::com.android.server.am.AppErrors.isBadProcess:(Ljava/lang/String;I)Z</title>
<path fill="#fee2e2" stroke="#dc2626" d="M165.5,-36C165.5,-36 42.5,-36 42.5,-36 36.5,-36 30.5,-30 30.5,-24 30.5,-24 30.5,-12 30.5,-12 30.5,-6 36.5,0 42.5,0 42.5,0 165.5,0 165.5,0 171.5,0 177.5,-6 177.5,-12 177.5,-12 177.5,-24 177.5,-24 177.5,-30 171.5,-36 165.5,-36"/>
<text text-anchor="middle" x="104" y="-15.2" font-family="Helvetica,sans-Serif" font-size="11.00">AppErrors.isBadProcess</text>
</g>
<!-- m::com.android.server.am.AppErrors.isBadProcess:(Ljava/lang/String;I)Z&#45;&gt;__field__ -->
<g id="edge5" class="edge">
<title>m::com.android.server.am.AppErrors.isBadProcess:(Ljava/lang/String;I)Z&#45;&gt;__field__</title>
<path fill="none" stroke="#dc2626" d="M171.39,-36.05C183.61,-39.55 196.22,-43.29 208,-47 255.59,-61.99 267.98,-64.72 314,-84 333.97,-92.37 355.57,-102.8 373.69,-111.97"/>
<polygon fill="#dc2626" stroke="#dc2626" points="372.82,-114.67 381.22,-115.81 375.37,-109.69 372.82,-114.67"/>
<text text-anchor="middle" x="272" y="-86.8" font-family="Helvetica,sans-Serif" font-size="9.00" fill="#dc2626"> reads unguarded</text>
</g>
</g>
</svg>
