<?xml version="1.0" encoding="UTF-8" standalone="no"?>
<!DOCTYPE svg PUBLIC "-//W3C//DTD SVG 1.1//EN"
 "http://www.w3.org/Graphics/SVG/1.1/DTD/svg11.dtd">
<!-- Generated by graphviz version 2.43.0 (0)
 -->
<!-- Title: race Pages: 1 -->
<svg width="787pt" height="300pt"
 viewBox="0.00 0.00 787.00 300.00" xmlns="http://www.w3.org/2000/svg" xmlns:xlink="http://www.w3.org/1999/xlink">
<g id="graph0" class="graph" transform="scale(1 1) rotate(0) translate(4 296)">
<title>race</title>
<polygon fill="white" stroke="transparent" points="-4,4 -4,-296 783,-296 783,4 -4,4"/>
<!-- __field__ -->
<g id="node1" class="node">
<title>__field__</title>
<path fill="#fef9c3" stroke="#ca8a04" stroke-width="2" d="M767,-181C767,-181 491,-181 491,-181 485,-181 479,-175 479,-169 479,-169 479,-157 479,-157 479,-151 485,-145 491,-145 491,-145 767,-145 767,-145 773,-145 779,-151 779,-157 779,-157 779,-169 779,-169 779,-175 773,-181 767,-181"/>
<text text-anchor="middle" x="629" y="-160.2" font-family="Helvetica,sans-Serif" font-size="11.00">BatteryStatsImpl.mDischargeScreenOffUnplugLevel</text>
</g>
<!-- __guard__ -->
<g id="node2" class="node">
<title>__guard__</title>
<path fill="#dcfce7" stroke="#16a34a" stroke-width="2" d="M248.5,-292C248.5,-292 102.5,-292 102.5,-292 96.5,-292 90.5,-286 90.5,-280 90.5,-280 90.5,-268 90.5,-268 90.5,-262 96.5,-256 102.5,-256 102.5,-256 248.5,-256 248.5,-256 254.5,-256 260.5,-262 260.5,-268 260.5,-268 260.5,-280 260.5,-280 260.5,-286 254.5,-292 248.5,-292"/>
<text text-anchor="middle" x="175.5" y="-271.2" font-family="Helvetica,sans-Serif" font-size="11.00">BatteryStatsService.mStats</text>
</g>
<!-- __guard__&#45;&gt;__field__ -->
<g id="edge1" class="edge">
<title>__guard__&#45;&gt;__field__</title>
<path fill="none" stroke="#16a34a" stroke-width="1.6" d="M260.69,-266.13C316.94,-259.65 392.22,-248.6 457,-231 500.71,-219.12 548.45,-199.55 582.36,-184.44"/>
<polygon fill="#16a34a" stroke="#16a34a" stroke-width="1.6" points="583.65,-186.93 589.8,-181.09 581.36,-181.82 583.65,-186.93"/>
<text text-anchor="middle" x="415" y="-251.8" font-family="Helvetica,sans-Serif" font-size="9.00" fill="#15803d"> guards 6/9</text>
</g>
<!-- m::com.android.server.power.stats.BatteryStatsImpl.updateNewDischargeScreenLevelLocked:(I)V -->
<g id="node3" class="node">
<title>m::com.android.server.power.stats.BatteryStatsImpl.updateNewDischargeScreenLevelLocked:(I)V</title>
<path fill="#fee2e2" stroke="#dc2626" d="M331,-218C331,-218 20,-218 20,-218 14,-218 8,-212 8,-206 8,-206 8,-194 8,-194 8,-188 14,-182 20,-182 20,-182 331,-182 331,-182 337,-182 343,-188 343,-194 343,-194 343,-206 343,-206 343,-212 337,-218 331,-218"/>
<text text-anchor="middle" x="175.5" y="-197.2" font-family="Helvetica,sans-Serif" font-size="11.00">BatteryStatsImpl.updateNewDischargeScreenLevelLocked</text>
</g>
<!-- m::com.android.server.power.stats.BatteryStatsImpl.updateNewDischargeScreenLevelLocked:(I)V&#45;&gt;__field__ -->
<g id="edge2" class="edge">
<title>m::com.android.server.power.stats.BatteryStatsImpl.updateNewDischargeScreenLevelLocked:(I)V&#45;&gt;__field__</title>
<path fill="none" stroke="#dc2626" d="M343.09,-216.16C380.68,-217.14 420.31,-216.05 457,-211 495.32,-205.72 537.14,-194.09 569.84,-183.6"/>
<polygon fill="#dc2626" stroke="#dc2626" points="570.78,-186.24 577.52,-181.1 569.04,-180.92 570.78,-186.24"/>
<text text-anchor="middle" x="415" y="-218.8" font-family="Helvetica,sans-Serif" font-size="9.00" fill="#dc2626"> writes unguarded</text>
</g>
<!-- m::com.android.server.power.stats.BatteryStatsImpl.updateNewDischargeScreenLevelLocked:(I)V&#45;&gt;__field__ -->
<g id="edge3" class="edge">
<title>m::com.android.server.power.stats.BatteryStatsImpl.updateNewDischargeScreenLevelLocked:(I)V&#45;&gt;__field__</title>
<path fill="none" stroke="#dc2626" d="M343.02,-186.35C384.72,-182.94 429.33,-179.28 470.57,-175.9"/>
<polygon fill="#dc2626" stroke="#dc2626" points="471.03,-178.67 478.78,-175.23 470.57,-173.09 471.03,-178.67"/>
<text text-anchor="middle" x="415" y="-185.8" font-family="Helvetica,sans-Serif" font-size="9.00" fill="#dc2626"> writes unguarded</text>
</g>
<!-- m::com.android.server.power.stats.BatteryStatsImpl.updateNewDischargeScreenLevelLocked:(I)V&#45;&gt;__field__ -->
<g id="edge4" class="edge">
<title>m::com.android.server.power.stats.BatteryStatsImpl.updateNewDischargeScreenLevelLocked:(I)V&#45;&gt;__field__</title>
<path fill="none" stroke="#dc2626" d="M253.96,-181.97C289.94,-174.48 333.42,-166.69 373,-163 404.49,-160.06 438.27,-158.76 470.6,-158.42"/>
<polygon fill="#dc2626" stroke="#dc2626" points="470.81,-161.22 478.79,-158.35 470.76,-155.62 470.81,-161.22"/>
<text text-anchor="middle" x="415" y="-165.8" font-family="Helvetica,sans-Serif" font-size="9.00" fill="#dc2626"> writes unguarded</text>
</g>
<!-- m::com.android.server.power.stats.BatteryStatsImpl.getDischargeAmountScreenOff:()I -->
<g id="node4" class="node">
<title>m::com.android.server.power.stats.BatteryStatsImpl.getDischargeAmountScreenOff:()I</title>
<path fill="#fee2e2" stroke="#dc2626" d="M305,-152C305,-152 46,-152 46,-152 40,-152 34,-146 34,-140 34,-140 34,-128 34,-128 34,-122 40,-116 46,-116 46,-116 305,-116 305,-116 311,-116 317,-122 317,-128 317,-128 317,-140 317,-140 317,-146 311,-152 305,-152"/>
<text text-anchor="middle" x="175.5" y="-131.2" font-family="Helvetica,sans-Serif" font-size="11.00">BatteryStatsImpl.getDischargeAmountScreenOff</text>
</g>
<!-- m::com.android.server.power.stats.BatteryStatsImpl.getDischargeAmountScreenOff:()I&#45;&gt;__field__ -->
<g id="edge5" class="edge">
<title>m::com.android.server.power.stats.BatteryStatsImpl.getDischargeAmountScreenOff:()I&#45;&gt;__field__</title>
<path fill="none" stroke="#dc2626" d="M317.33,-122.57C362.08,-120.92 411.71,-121.16 457,-126 488.74,-129.4 523.25,-136.24 552.89,-143.13"/>
<polygon fill="#dc2626" stroke="#dc2626" points="552.29,-145.86 560.72,-144.97 553.58,-140.41 552.29,-145.86"/>
<text text-anchor="middle" x="415" y="-128.8" font-family="Helvetica,sans-Serif" font-size="9.00" fill="#dc2626"> reads unguarded</text>
</g>
<!-- m::com.android.server.power.stats.BatteryStatsImpl.getDischargeAmountScreenOffSinceCharge:()I -->
<g id="node5" class="node">
<title>m::com.android.server.power.stats.BatteryStatsImpl.getDischargeAmountScreenOffSinceCharge:()I</title>
<path fill="#fee2e2" stroke="#dc2626" d="M339,-94C339,-94 12,-94 12,-94 6,-94 0,-88 0,-82 0,-82 0,-70 0,-70 0,-64 6,-58 12,-58 12,-58 339,-58 339,-58 345,-58 351,-64 351,-70 351,-70 351,-82 351,-82 351,-88 345,-94 339,-94"/>
<text text-anchor="middle" x="175.5" y="-73.2" font-family="Helvetica,sans-Serif" font-size="11.00">BatteryStatsImpl.getDischargeAmountScreenOffSinceCharge</text>
</g>
<!-- m::com.android.server.power.stats.BatteryStatsImpl.getDischargeAmountScreenOffSinceCharge:()I&#45;&gt;__field__ -->
<g id="edge6" class="edge">
<title>m::com.android.server.power.stats.BatteryStatsImpl.getDischargeAmountScreenOffSinceCharge:()I&#45;&gt;__field__</title>
<path fill="none" stroke="#dc2626" d="M351.01,-88.78C386.31,-93.01 423.02,-98.61 457,-106 497.34,-114.77 541.51,-129.64 574.86,-141.99"/>
<polygon fill="#dc2626" stroke="#dc2626" points="574.19,-144.73 582.66,-144.91 576.15,-139.49 574.19,-144.73"/>
<text text-anchor="middle" x="415" y="-108.8" font-family="Helvetica,sans-Serif" font-size="9.00" fill="#dc2626"> reads unguarded</text>
</g>
<!-- m::com.android.server.power.stats.BatteryStatsImpl.updateOldDischargeScreenLevelLocked:(I)V -->
<g id="node6" class="node">
<title>m::com.android.server.power.stats.BatteryStatsImpl.updateOldDischargeScreenLevelLocked:(I)V</title>
<path fill="#fee2e2" stroke="#dc2626" d="M328.5,-36C328.5,-36 22.5,-36 22.5,-36 16.5,-36 10.5,-30 10.5,-24 10.5,-24 10.5,-12 10.5,-12 10.5,-6 16.5,0 22.5,0 22.5,0 328.5,0 328.5,0 334.5,0 340.5,-6 340.5,-12 340.5,-12 340.5,-24 340.5,-24 340.5,-30 334.5,-36 328.5,-36"/>
<text text-anchor="middle" x="175.5" y="-15.2" font-family="Helvetica,sans-Serif" font-size="11.00">BatteryStatsImpl.updateOldDischargeScreenLevelLocked</text>
</g>
<!-- m::com.android.server.power.stats.BatteryStatsImpl.updateOldDischargeScreenLevelLocked:(I)V&#45;&gt;__field__ -->
<g id="edge7" class="edge">
<title>m::com.android.server.power.stats.BatteryStatsImpl.updateOldDischargeScreenLevelLocked:(I)V&#45;&gt;__field__</title>
<path fill="none" stroke="#dc2626" d="M295.08,-36.03C313.85,-39.36 333,-43.05 351,-47 398.71,-57.46 411.44,-58.39 457,-76 504.57,-94.39 556.4,-121.9 590.39,-141.05"/>
<polygon fill="#dc2626" stroke="#dc2626" points="589.02,-143.49 597.36,-145 591.78,-138.62 589.02,-143.49"/>
<text text-anchor="middle" x="415" y="-78.8" font-family="Helvetica,sans-Serif" font-size="9.00" fill="#dc2626"> reads unguarded</text>
</g>
</g>
</svg>
