<?xml version="1.0" encoding="UTF-8" standalone="no"?>
<!DOCTYPE svg PUBLIC "-//W3C//DTD SVG 1.1//EN"
 "http://www.w3.org/Graphics/SVG/1.1/DTD/svg11.dtd">
<!-- Generated by graphviz version 2.43.0 (0)
 -->
<!-- Title: race Pages: 1 -->
<svg width="729pt" height="278pt"
 viewBox="0.00 0.00 729.00 278.16" xmlns="http://www.w3.org/2000/svg" xmlns:xlink="http://www.w3.org/1999/xlink">
<g id="graph0" class="graph" transform="scale(1 1) rotate(0) translate(4 274.16)">
<title>race</title>
<polygon fill="white" stroke="transparent" points="-4,4 -4,-274.16 725,-274.16 725,4 -4,4"/>
<!-- __field__ -->
<g id="node1" class="node">
<title>__field__</title>
<path fill="#fef9c3" stroke="#ca8a04" stroke-width="2" d="M709,-140.16C709,-140.16 494,-140.16 494,-140.16 488,-140.16 482,-134.16 482,-128.16 482,-128.16 482,-116.16 482,-116.16 482,-110.16 488,-104.16 494,-104.16 494,-104.16 709,-104.16 709,-104.16 715,-104.16 721,-110.16 721,-116.16 721,-116.16 721,-128.16 721,-128.16 721,-134.16 715,-140.16 709,-140.16"/>
<text text-anchor="middle" x="601.5" y="-119.36" font-family="Helvetica,sans-Serif" font-size="11.00">AlarmManagerService.mPendingIdleUntil</text>
</g>
<!-- __guard__ -->
<g id="node2" class="node">
<title>__guard__</title>
<path fill="#dcfce7" stroke="#16a34a" stroke-width="2" d="M253,-270.16C253,-270.16 101,-270.16 101,-270.16 95,-270.16 89,-264.16 89,-258.16 89,-258.16 89,-246.16 89,-246.16 89,-240.16 95,-234.16 101,-234.16 101,-234.16 253,-234.16 253,-234.16 259,-234.16 265,-240.16 265,-246.16 265,-246.16 265,-258.16 265,-258.16 265,-264.16 259,-270.16 253,-270.16"/>
<text text-anchor="middle" x="177" y="-249.36" font-family="Helvetica,sans-Serif" font-size="11.00">AlarmManagerService.mLock</text>
</g>
<!-- __guard__&#45;&gt;__field__ -->
<g id="edge1" class="edge">
<title>__guard__&#45;&gt;__field__</title>
<path fill="none" stroke="#16a34a" stroke-width="1.6" d="M265.22,-249.87C322.18,-246.03 397.35,-236.46 460,-213.16 502.69,-197.28 545.77,-166.74 572.76,-145.44"/>
<polygon fill="#16a34a" stroke="#16a34a" stroke-width="1.6" points="574.76,-147.42 579.26,-140.24 571.27,-143.05 574.76,-147.42"/>
<text text-anchor="middle" x="418" y="-237.96" font-family="Helvetica,sans-Serif" font-size="9.00" fill="#15803d"> guards 2/3</text>
</g>
<!-- m::com.android.server.alarm.AlarmManagerService.removeAlarmsInternalLocked:(Ljava/util/function/Predicate;I)V -->
<g id="node3" class="node">
<title>m::com.android.server.alarm.AlarmManagerService.removeAlarmsInternalLocked:(Ljava/util/function/Predicate;I)V</title>
<path fill="#fee2e2" stroke="#dc2626" d="M316,-196.16C316,-196.16 38,-196.16 38,-196.16 32,-196.16 26,-190.16 26,-184.16 26,-184.16 26,-172.16 26,-172.16 26,-166.16 32,-160.16 38,-160.16 38,-160.16 316,-160.16 316,-160.16 322,-160.16 328,-166.16 328,-172.16 328,-172.16 328,-184.16 328,-184.16 328,-190.16 322,-196.16 316,-196.16"/>
<text text-anchor="middle" x="177" y="-175.36" font-family="Helvetica,sans-Serif" font-size="11.00">AlarmManagerService.removeAlarmsInternalLocked</text>
</g>
<!-- m::com.android.server.alarm.AlarmManagerService.removeAlarmsInternalLocked:(Ljava/util/function/Predicate;I)V&#45;&gt;__field__ -->
<g id="edge2" class="edge">
<title>m::com.android.server.alarm.AlarmManagerService.removeAlarmsInternalLocked:(Ljava/util/function/Predicate;I)V&#45;&gt;__field__</title>
<path fill="none" stroke="#dc2626" d="M294.5,-196.18C345.81,-200.68 406.48,-201.27 460,-189.16 497.99,-180.57 537.73,-160.41 565.22,-144.44"/>
<polygon fill="#dc2626" stroke="#dc2626" points="566.82,-146.75 572.28,-140.27 563.97,-141.93 566.82,-146.75"/>
<text text-anchor="middle" x="418" y="-200.96" font-family="Helvetica,sans-Serif" font-size="9.00" fill="#dc2626"> writes unguarded</text>
</g>
<!-- m::com.android.server.alarm.AlarmManagerService.removeAlarmsInternalLocked:(Ljava/util/function/Predicate;I)V&#45;&gt;__field__ -->
<g id="edge7" class="edge">
<title>m::com.android.server.alarm.AlarmManagerService.removeAlarmsInternalLocked:(Ljava/util/function/Predicate;I)V&#45;&gt;__field__</title>
<path fill="none" stroke="#dc2626" d="M328.05,-167.65C370.8,-163.75 417.35,-158.66 460,-152.16 478.34,-149.37 497.88,-145.67 516.38,-141.82"/>
<polygon fill="#dc2626" stroke="#dc2626" points="516.99,-144.55 524.24,-140.16 515.83,-139.07 516.99,-144.55"/>
<text text-anchor="middle" x="418" y="-163.96" font-family="Helvetica,sans-Serif" font-size="9.00" fill="#dc2626"> reads unguarded</text>
</g>
<!-- m::com.android.server.alarm.AlarmManagerService.removeAlarmsInternalLocked:(Ljava/util/function/Predicate;I)V&#45;&gt;__field__ -->
<g id="edge8" class="edge">
<title>m::com.android.server.alarm.AlarmManagerService.removeAlarmsInternalLocked:(Ljava/util/function/Predicate;I)V&#45;&gt;__field__</title>
<path fill="none" stroke="#dc2626" d="M263.95,-160.16C298.63,-153.4 339.09,-146.16 376,-141.16 407.62,-136.88 441.89,-133.4 473.91,-130.64"/>
<polygon fill="#dc2626" stroke="#dc2626" points="474.26,-133.42 482,-129.95 473.79,-127.84 474.26,-133.42"/>
<text text-anchor="middle" x="418" y="-143.96" font-family="Helvetica,sans-Serif" font-size="9.00" fill="#dc2626"> reads unguarded</text>
</g>
<!-- m::com.android.server.alarm.AlarmManagerService.adjustDeliveryTimeBasedOnDeviceIdle:(Lcom/android/server/alarm/Alarm;)Z -->
<g id="node4" class="node">
<title>m::com.android.server.alarm.AlarmManagerService.adjustDeliveryTimeBasedOnDeviceIdle:(Lcom/android/server/alarm/Alarm;)Z</title>
<path fill="#fee2e2" stroke="#dc2626" d="M342,-67.16C342,-67.16 12,-67.16 12,-67.16 6,-67.16 0,-61.16 0,-55.16 0,-55.16 0,-43.16 0,-43.16 0,-37.16 6,-31.16 12,-31.16 12,-31.16 342,-31.16 342,-31.16 348,-31.16 354,-37.16 354,-43.16 354,-43.16 354,-55.16 354,-55.16 354,-61.16 348,-67.16 342,-67.16"/>
<text text-anchor="middle" x="177" y="-46.36" font-family="Helvetica,sans-Serif" font-size="11.00">AlarmManagerService.adjustDeliveryTimeBasedOnDeviceIdle</text>
</g>
<!-- m::com.android.server.alarm.AlarmManagerService.adjustDeliveryTimeBasedOnDeviceIdle:(Lcom/android/server/alarm/Alarm;)Z&#45;&gt;__field__ -->
<g id="edge3" class="edge">
<title>m::com.android.server.alarm.AlarmManagerService.adjustDeliveryTimeBasedOnDeviceIdle:(Lcom/android/server/alarm/Alarm;)Z&#45;&gt;__field__</title>
<path fill="none" stroke="#dc2626" d="M282.44,-67.21C344.89,-78 424.24,-91.71 488.06,-102.73"/>
<polygon fill="#dc2626" stroke="#dc2626" points="487.81,-105.53 496.17,-104.13 488.76,-100.01 487.81,-105.53"/>
<text text-anchor="middle" x="418" y="-98.96" font-family="Helvetica,sans-Serif" font-size="9.00" fill="#dc2626"> reads unguarded</text>
</g>
<!-- m::com.android.server.alarm.AlarmManagerService.adjustDeliveryTimeBasedOnDeviceIdle:(Lcom/android/server/alarm/Alarm;)Z&#45;&gt;__field__ -->
<g id="edge4" class="edge">
<title>m::com.android.server.alarm.AlarmManagerService.adjustDeliveryTimeBasedOnDeviceIdle:(Lcom/android/server/alarm/Alarm;)Z&#45;&gt;__field__</title>
<path fill="none" stroke="#dc2626" d="M354.03,-52.86C389.4,-55.89 426.1,-60.68 460,-68.16 492.89,-75.42 528.27,-89.05 555.3,-100.81"/>
<polygon fill="#dc2626" stroke="#dc2626" points="554.25,-103.4 562.7,-104.06 556.51,-98.28 554.25,-103.4"/>
<text text-anchor="middle" x="418" y="-70.96" font-family="Helvetica,sans-Serif" font-size="9.00" fill="#dc2626"> reads unguarded</text>
</g>
<!-- m::com.android.server.alarm.AlarmManagerService.adjustDeliveryTimeBasedOnDeviceIdle:(Lcom/android/server/alarm/Alarm;)Z&#45;&gt;__field__ -->
<g id="edge5" class="edge">
<title>m::com.android.server.alarm.AlarmManagerService.adjustDeliveryTimeBasedOnDeviceIdle:(Lcom/android/server/alarm/Alarm;)Z&#45;&gt;__field__</title>
<path fill="none" stroke="#dc2626" d="M285.17,-31.14C338.57,-25.82 403.61,-24.91 460,-40.16 502.22,-51.58 544.78,-79.2 571.82,-99.23"/>
<polygon fill="#dc2626" stroke="#dc2626" points="570.27,-101.57 578.34,-104.15 573.64,-97.1 570.27,-101.57"/>
<text text-anchor="middle" x="418" y="-42.96" font-family="Helvetica,sans-Serif" font-size="9.00" fill="#dc2626"> reads unguarded</text>
</g>
<!-- m::com.android.server.alarm.AlarmManagerService.adjustDeliveryTimeBasedOnDeviceIdle:(Lcom/android/server/alarm/Alarm;)Z&#45;&gt;__field__ -->
<g id="edge6" class="edge">
<title>m::com.android.server.alarm.AlarmManagerService.adjustDeliveryTimeBasedOnDeviceIdle:(Lcom/android/server/alarm/Alarm;)Z&#45;&gt;__field__</title>
<path fill="none" stroke="#dc2626" d="M222.73,-31.06C279.43,-10.84 379.48,15.61 460,-12.16 509.07,-29.09 554.1,-70.98 579.35,-97.91"/>
<polygon fill="#dc2626" stroke="#dc2626" points="577.56,-100.09 585.04,-104.08 581.67,-96.3 577.56,-100.09"/>
<text text-anchor="middle" x="418" y="-14.96" font-family="Helvetica,sans-Serif" font-size="9.00" fill="#dc2626"> reads unguarded</text>
</g>
</g>
</svg>
