<?xml version="1.0" encoding="UTF-8" standalone="no"?>
<!DOCTYPE svg PUBLIC "-//W3C//DTD SVG 1.1//EN"
 "http://www.w3.org/Graphics/SVG/1.1/DTD/svg11.dtd">
<!-- Generated by graphviz version 2.43.0 (0)
 -->
<!-- Title: race Pages: 1 -->
<svg width="480pt" height="222pt"
 viewBox="0.00 0.00 480.00 222.00" xmlns="http://www.w3.org/2000/svg" xmlns:xlink="http://www.w3.org/1999/xlink">
<g id="graph0" class="graph" transform="scale(1 1) rotate(0) translate(4 218)">
<title>race</title>
<polygon fill="white" stroke="transparent" points="-4,4 -4,-218 476,-218 476,4 -4,4"/>
<!-- __field__ -->
<g id="node1" class="node">
<title>__field__</title>
<path fill="#fef9c3" stroke="#ca8a04" stroke-width="2" d="M460,-102C460,-102 320,-102 320,-102 314,-102 308,-96 308,-90 308,-90 308,-78 308,-78 308,-72 314,-66 320,-66 320,-66 460,-66 460,-66 466,-66 472,-72 472,-78 472,-78 472,-90 472,-90 472,-96 466,-102 460,-102"/>
<text text-anchor="middle" x="390" y="-81.2" font-family="Helvetica,sans-Serif" font-size="11.00">ReceiverList.linkedToDeath</text>
</g>
<!-- __guard__ -->
<g id="node2" class="node">
<title>__guard__</title>
<path fill="#dcfce7" stroke="#16a34a" stroke-width="2" d="M168,-214C168,-214 12,-214 12,-214 6,-214 0,-208 0,-202 0,-202 0,-190 0,-190 0,-184 6,-178 12,-178 12,-178 168,-178 168,-178 174,-178 180,-184 180,-190 180,-190 180,-202 180,-202 180,-208 174,-214 168,-214"/>
<text text-anchor="middle" x="90" y="-193.2" font-family="Helvetica,sans-Serif" font-size="11.00">BroadcastController.mService</text>
</g>
<!-- __guard__&#45;&gt;__field__ -->
<g id="edge1" class="edge">
<title>__guard__&#45;&gt;__field__</title>
<path fill="none" stroke="#16a34a" stroke-width="1.6" d="M146.56,-177.93C157.64,-174.32 169.19,-170.55 180,-167 227.14,-151.54 239.88,-150.29 286,-132 305.74,-124.17 327.08,-114.44 345.2,-105.79"/>
<polygon fill="#16a34a" stroke="#16a34a" stroke-width="1.6" points="346.75,-108.15 352.75,-102.16 344.33,-103.11 346.75,-108.15"/>
<text text-anchor="middle" x="244" y="-161.8" font-family="Helvetica,sans-Serif" font-size="9.00" fill="#15803d"> guards 2/3</text>
</g>
<!-- m::com.android.server.am.ReceiverList.binderDied:()V -->
<g id="node3" class="node">
<title>m::com.android.server.am.ReceiverList.binderDied:()V</title>
<path fill="#fee2e2" stroke="#dc2626" d="M151.5,-156C151.5,-156 28.5,-156 28.5,-156 22.5,-156 16.5,-150 16.5,-144 16.5,-144 16.5,-132 16.5,-132 16.5,-126 22.5,-120 28.5,-120 28.5,-120 151.5,-120 151.5,-120 157.5,-120 163.5,-126 163.5,-132 163.5,-132 163.5,-144 163.5,-144 163.5,-150 157.5,-156 151.5,-156"/>
<text text-anchor="middle" x="90" y="-135.2" font-family="Helvetica,sans-Serif" font-size="11.00">ReceiverList.binderDied</text>
</g>
<!-- m::com.android.server.am.ReceiverList.binderDied:()V&#45;&gt;__field__ -->
<g id="edge2" class="edge">
<title>m::com.android.server.am.ReceiverList.binderDied:()V&#45;&gt;__field__</title>
<path fill="none" stroke="#dc2626" d="M163.52,-124.86C204.55,-117.42 256.2,-108.06 299.71,-100.18"/>
<polygon fill="#dc2626" stroke="#dc2626" points="300.37,-102.91 307.74,-98.73 299.37,-97.4 300.37,-102.91"/>
<text text-anchor="middle" x="244" y="-119.8" font-family="Helvetica,sans-Serif" font-size="9.00" fill="#dc2626"> writes unguarded</text>
</g>
<!-- m::com.android.server.am.ReceiverList.dumpDebug:(Landroid/util/proto/ProtoOutputStream;J)V -->
<g id="node4" class="node">
<title>m::com.android.server.am.ReceiverList.dumpDebug:(Landroid/util/proto/ProtoOutputStream;J)V</title>
<path fill="#fee2e2" stroke="#dc2626" d="M155,-98C155,-98 25,-98 25,-98 19,-98 13,-92 13,-86 13,-86 13,-74 13,-74 13,-68 19,-62 25,-62 25,-62 155,-62 155,-62 161,-62 167,-68 167,-74 167,-74 167,-86 167,-86 167,-92 161,-98 155,-98"/>
<text text-anchor="middle" x="90" y="-77.2" font-family="Helvetica,sans-Serif" font-size="11.00">ReceiverList.dumpDebug</text>
</g>
<!-- m::com.android.server.am.ReceiverList.dumpDebug:(Landroid/util/proto/ProtoOutputStream;J)V&#45;&gt;__field__ -->
<g id="edge3" class="edge">
<title>m::com.android.server.am.ReceiverList.dumpDebug:(Landroid/util/proto/ProtoOutputStream;J)V&#45;&gt;__field__</title>
<path fill="none" stroke="#dc2626" d="M167.36,-81.02C207.78,-81.57 257.64,-82.24 299.83,-82.8"/>
<polygon fill="#dc2626" stroke="#dc2626" points="299.85,-85.6 307.89,-82.91 299.92,-80 299.85,-85.6"/>
<text text-anchor="middle" x="244" y="-84.8" font-family="Helvetica,sans-Serif" font-size="9.00" fill="#dc2626"> reads unguarded</text>
</g>
<!-- m::com.android.server.am.ReceiverList.dumpLocal:(Ljava/io/PrintWriter;Ljava/lang/String;)V -->
<g id="node5" class="node">
<title>m::com.android.server.am.ReceiverList.dumpLocal:(Ljava/io/PrintWriter;Ljava/lang/String;)V</title>
<path fill="#fee2e2" stroke="#dc2626" d="M151.5,-36C151.5,-36 28.5,-36 28.5,-36 22.5,-36 16.5,-30 16.5,-24 16.5,-24 16.5,-12 16.5,-12 16.5,-6 22.5,0 28.5,0 28.5,0 151.5,0 151.5,0 157.5,0 163.5,-6 163.5,-12 163.5,-12 163.5,-24 163.5,-24 163.5,-30 157.5,-36 151.5,-36"/>
<text text-anchor="middle" x="90" y="-15.2" font-family="Helvetica,sans-Serif" font-size="11.00">ReceiverList.dumpLocal</text>
</g>
<!-- m::com.android.server.am.ReceiverList.dumpLocal:(Ljava/io/PrintWriter;Ljava/lang/String;)V&#45;&gt;__field__ -->
<g id="edge4" class="edge">
<title>m::com.android.server.am.ReceiverList.dumpLocal:(Ljava/io/PrintWriter;Ljava/lang/String;)V&#45;&gt;__field__</title>
<path fill="none" stroke="#dc2626" d="M163.52,-34.06C204.55,-43.15 256.2,-54.59 299.71,-64.23"/>
<polygon fill="#dc2626" stroke="#dc2626" points="299.32,-67.01 307.74,-66 300.53,-61.54 299.32,-67.01"/>
<text text-anchor="middle" x="244" y="-62.8" font-family="Helvetica,sans-Serif" font-size="9.00" fill="#dc2626"> reads unguarded</text>
</g>
<!-- m::com.android.server.am.ReceiverList.dumpLocal:(Ljava/io/PrintWriter;Ljava/lang/String;)V&#45;&gt;__field__ -->
<g id="edge5" class="edge">
<title>m::com.android.server.am.ReceiverList.dumpLocal:(Ljava/io/PrintWriter;Ljava/lang/String;)V&#45;&gt;__field__</title>
<path fill="none" stroke="#dc2626" d="M163.55,-14.13C200.8,-14.03 246.52,-16.88 286,-28 311.13,-35.08 336.93,-49.12 356.42,-61.37"/>
<polygon fill="#dc2626" stroke="#dc2626" points="355.06,-63.82 363.31,-65.79 358.08,-59.11 355.06,-63.82"/>
<text text-anchor="middle" x="244" y="-30.8" font-family="Helvetica,sans-Serif" font-size="9.00" fill="#dc2626"> reads unguarded</text>
</g>
</g>
</svg>
