<?xml version="1.0" encoding="UTF-8" standalone="no"?>
<!DOCTYPE svg PUBLIC "-//W3C//DTD SVG 1.1//EN"
 "http://www.w3.org/Graphics/SVG/1.1/DTD/svg11.dtd">
<!-- Generated by graphviz version 2.43.0 (0)
 -->
<!-- Title: race Pages: 1 -->
<svg width="788pt" height="236pt"
 viewBox="0.00 0.00 788.00 236.26" xmlns="http://www.w3.org/2000/svg" xmlns:xlink="http://www.w3.org/1999/xlink">
<g id="graph0" class="graph" transform="scale(1 1) rotate(0) translate(4 232.26)">
<title>race</title>
<polygon fill="white" stroke="transparent" points="-4,4 -4,-232.26 784,-232.26 784,4 -4,4"/>
<!-- __field__ -->
<g id="node1" class="node">
<title>__field__</title>
<path fill="#fef9c3" stroke="#ca8a04" stroke-width="2" d="M768,-112.26C768,-112.26 478,-112.26 478,-112.26 472,-112.26 466,-106.26 466,-100.26 466,-100.26 466,-88.26 466,-88.26 466,-82.26 472,-76.26 478,-76.26 478,-76.26 768,-76.26 768,-76.26 774,-76.26 780,-82.26 780,-88.26 780,-88.26 780,-100.26 780,-100.26 780,-106.26 774,-112.26 768,-112.26"/>
<text text-anchor="middle" x="623" y="-91.46" font-family="Helvetica,sans-Serif" font-size="11.00">BackupAgentConnectionManager.mCurrentConnection</text>
</g>
<!-- __guard__ -->
<g id="node2" class="node">
<title>__guard__</title>
<path fill="#dcfce7" stroke="#16a34a" stroke-width="2" d="M314,-228.26C314,-228.26 24,-228.26 24,-228.26 18,-228.26 12,-222.26 12,-216.26 12,-216.26 12,-204.26 12,-204.26 12,-198.26 18,-192.26 24,-192.26 24,-192.26 314,-192.26 314,-192.26 320,-192.26 326,-198.26 326,-204.26 326,-204.26 326,-216.26 326,-216.26 326,-222.26 320,-228.26 314,-228.26"/>
<text text-anchor="middle" x="169" y="-207.46" font-family="Helvetica,sans-Serif" font-size="11.00">BackupAgentConnectionManager.mAgentConnectLock</text>
</g>
<!-- __guard__&#45;&gt;__field__ -->
<g id="edge1" class="edge">
<title>__guard__&#45;&gt;__field__</title>
<path fill="none" stroke="#16a34a" stroke-width="1.6" d="M316.32,-192.23C357.98,-185.49 403.13,-176.62 444,-165.26 490.24,-152.4 540.88,-131.49 576.28,-115.69"/>
<polygon fill="#16a34a" stroke="#16a34a" stroke-width="1.6" points="577.45,-118.23 583.6,-112.4 575.16,-113.13 577.45,-118.23"/>
<text text-anchor="middle" x="402" y="-186.06" font-family="Helvetica,sans-Serif" font-size="9.00" fill="#15803d"> guards 4/6</text>
</g>
<!-- m::com.android.server.backup.BackupAgentConnectionManager.agentDisconnected:(Ljava/lang/String;)V -->
<g id="node3" class="node">
<title>m::com.android.server.backup.BackupAgentConnectionManager.agentDisconnected:(Ljava/lang/String;)V</title>
<path fill="#fee2e2" stroke="#dc2626" d="M310.5,-170.26C310.5,-170.26 27.5,-170.26 27.5,-170.26 21.5,-170.26 15.5,-164.26 15.5,-158.26 15.5,-158.26 15.5,-146.26 15.5,-146.26 15.5,-140.26 21.5,-134.26 27.5,-134.26 27.5,-134.26 310.5,-134.26 310.5,-134.26 316.5,-134.26 322.5,-140.26 322.5,-146.26 322.5,-146.26 322.5,-158.26 322.5,-158.26 322.5,-164.26 316.5,-170.26 310.5,-170.26"/>
<text text-anchor="middle" x="169" y="-149.46" font-family="Helvetica,sans-Serif" font-size="11.00">BackupAgentConnectionManager.agentDisconnected</text>
</g>
<!-- m::com.android.server.backup.BackupAgentConnectionManager.agentDisconnected:(Ljava/lang/String;)V&#45;&gt;__field__ -->
<g id="edge2" class="edge">
<title>m::com.android.server.backup.BackupAgentConnectionManager.agentDisconnected:(Ljava/lang/String;)V&#45;&gt;__field__</title>
<path fill="none" stroke="#dc2626" d="M322.75,-152.81C362.4,-151.28 404.93,-148.16 444,-142.26 483.11,-136.35 525.95,-124.96 559.79,-114.75"/>
<polygon fill="#dc2626" stroke="#dc2626" points="560.92,-117.34 567.76,-112.33 559.29,-111.98 560.92,-117.34"/>
<text text-anchor="middle" x="402" y="-153.06" font-family="Helvetica,sans-Serif" font-size="9.00" fill="#dc2626"> writes unguarded</text>
</g>
<!-- m::com.android.server.backup.BackupAgentConnectionManager.agentDisconnected:(Ljava/lang/String;)V&#45;&gt;__field__ -->
<g id="edge7" class="edge">
<title>m::com.android.server.backup.BackupAgentConnectionManager.agentDisconnected:(Ljava/lang/String;)V&#45;&gt;__field__</title>
<path fill="none" stroke="#dc2626" d="M310.54,-134.22C362.3,-127.58 421.08,-120.04 473.52,-113.31"/>
<polygon fill="#dc2626" stroke="#dc2626" points="473.97,-116.08 481.55,-112.28 473.26,-110.52 473.97,-116.08"/>
<text text-anchor="middle" x="402" y="-129.06" font-family="Helvetica,sans-Serif" font-size="9.00" fill="#dc2626"> reads unguarded</text>
</g>
<!-- m::com.android.server.backup.BackupAgentConnectionManager.bindToAgentSynchronous:(Landroid/content/pm/ApplicationInfo;II)Landroid/app/IBackupAgent; -->
<g id="node4" class="node">
<title>m::com.android.server.backup.BackupAgentConnectionManager.bindToAgentSynchronous:(Landroid/content/pm/ApplicationInfo;II)Landroid/app/IBackupAgent;</title>
<path fill="#fee2e2" stroke="#dc2626" d="M326,-112.26C326,-112.26 12,-112.26 12,-112.26 6,-112.26 0,-106.26 0,-100.26 0,-100.26 0,-88.26 0,-88.26 0,-82.26 6,-76.26 12,-76.26 12,-76.26 326,-76.26 326,-76.26 332,-76.26 338,-82.26 338,-88.26 338,-88.26 338,-100.26 338,-100.26 338,-106.26 332,-112.26 326,-112.26"/>
<text text-anchor="middle" x="169" y="-91.46" font-family="Helvetica,sans-Serif" font-size="11.00">BackupAgentConnectionManager.bindToAgentSynchronous</text>
</g>
<!-- m::com.android.server.backup.BackupAgentConnectionManager.bindToAgentSynchronous:(Landroid/content/pm/ApplicationInfo;II)Landroid/app/IBackupAgent;&#45;&gt;__field__ -->
<g id="edge3" class="edge">
<title>m::com.android.server.backup.BackupAgentConnectionManager.bindToAgentSynchronous:(Landroid/content/pm/ApplicationInfo;II)Landroid/app/IBackupAgent;&#45;&gt;__field__</title>
<path fill="none" stroke="#dc2626" d="M338.31,-94.26C377.32,-94.26 418.8,-94.26 457.64,-94.26"/>
<polygon fill="#dc2626" stroke="#dc2626" points="457.89,-97.06 465.89,-94.26 457.89,-91.46 457.89,-97.06"/>
<text text-anchor="middle" x="402" y="-97.06" font-family="Helvetica,sans-Serif" font-size="9.00" fill="#dc2626"> writes unguarded</text>
</g>
<!-- m::com.android.server.backup.BackupAgentConnectionManager.agentConnected:(Ljava/lang/String;Landroid/os/IBinder;)V -->
<g id="node5" class="node">
<title>m::com.android.server.backup.BackupAgentConnectionManager.agentConnected:(Ljava/lang/String;Landroid/os/IBinder;)V</title>
<path fill="#fee2e2" stroke="#dc2626" d="M302.5,-38.26C302.5,-38.26 35.5,-38.26 35.5,-38.26 29.5,-38.26 23.5,-32.26 23.5,-26.26 23.5,-26.26 23.5,-14.26 23.5,-14.26 23.5,-8.26 29.5,-2.26 35.5,-2.26 35.5,-2.26 302.5,-2.26 302.5,-2.26 308.5,-2.26 314.5,-8.26 314.5,-14.26 314.5,-14.26 314.5,-26.26 314.5,-26.26 314.5,-32.26 308.5,-38.26 302.5,-38.26"/>
<text text-anchor="middle" x="169" y="-17.46" font-family="Helvetica,sans-Serif" font-size="11.00">BackupAgentConnectionManager.agentConnected</text>
</g>
<!-- m::com.android.server.backup.BackupAgentConnectionManager.agentConnected:(Ljava/lang/String;Landroid/os/IBinder;)V&#45;&gt;__field__ -->
<g id="edge4" class="edge">
<title>m::com.android.server.backup.BackupAgentConnectionManager.agentConnected:(Ljava/lang/String;Landroid/os/IBinder;)V&#45;&gt;__field__</title>
<path fill="none" stroke="#dc2626" d="M279.99,-38.27C347.8,-49.37 434.73,-63.6 503.98,-74.94"/>
<polygon fill="#dc2626" stroke="#dc2626" points="503.56,-77.7 511.91,-76.23 504.46,-72.18 503.56,-77.7"/>
<text text-anchor="middle" x="402" y="-66.06" font-family="Helvetica,sans-Serif" font-size="9.00" fill="#dc2626"> reads unguarded</text>
</g>
<!-- m::com.android.server.backup.BackupAgentConnectionManager.agentConnected:(Ljava/lang/String;Landroid/os/IBinder;)V&#45;&gt;__field__ -->
<g id="edge5" class="edge">
<title>m::com.android.server.backup.BackupAgentConnectionManager.agentConnected:(Ljava/lang/String;Landroid/os/IBinder;)V&#45;&gt;__field__</title>
<path fill="none" stroke="#dc2626" d="M314.81,-22.53C356.75,-25 402.43,-29.44 444,-37.26 486.84,-45.32 533.74,-60.61 568.63,-73.33"/>
<polygon fill="#dc2626" stroke="#dc2626" points="567.86,-76.03 576.34,-76.17 569.8,-70.78 567.86,-76.03"/>
<text text-anchor="middle" x="402" y="-40.06" font-family="Helvetica,sans-Serif" font-size="9.00" fill="#dc2626"> reads unguarded</text>
</g>
<!-- m::com.android.server.backup.BackupAgentConnectionManager.agentConnected:(Ljava/lang/String;Landroid/os/IBinder;)V&#45;&gt;__field__ -->
<g id="edge6" class="edge">
<title>m::com.android.server.backup.BackupAgentConnectionManager.agentConnected:(Ljava/lang/String;Landroid/os/IBinder;)V&#45;&gt;__field__</title>
<path fill="none" stroke="#dc2626" d="M296.39,-2.25C343.24,0.93 396.51,0.39 444,-10.26 496.61,-22.05 551.98,-51.21 586.73,-71.86"/>
<polygon fill="#dc2626" stroke="#dc2626" points="585.53,-74.4 593.82,-76.12 588.41,-69.6 585.53,-74.4"/>
<text text-anchor="middle" x="402" y="-13.06" font-family="Helvetica,sans-Serif" font-size="9.00" fill="#dc2626"> reads unguarded</text>
</g>
</g>
</svg>
