<?xml version="1.0" encoding="UTF-8" standalone="no"?>
<!DOCTYPE svg PUBLIC "-//W3C//DTD SVG 1.1//EN"
 "http://www.w3.org/Graphics/SVG/1.1/DTD/svg11.dtd">
<!-- Generated by graphviz version 2.43.0 (0)
 -->
<!-- Title: race Pages: 1 -->
<svg width="785pt" height="300pt"
 viewBox="0.00 0.00 785.00 300.00" xmlns="http://www.w3.org/2000/svg" xmlns:xlink="http://www.w3.org/1999/xlink">
<g id="graph0" class="graph" transform="scale(1 1) rotate(0) translate(4 296)">
<title>race</title>
<polygon fill="white" stroke="transparent" points="-4,4 -4,-296 781,-296 781,4 -4,4"/>
<!-- __field__ -->
<g id="node1" class="node">
<title>__field__</title>
<path fill="#fef9c3" stroke="#ca8a04" stroke-width="2" d="M765,-181C765,-181 490,-181 490,-181 484,-181 478,-175 478,-169 478,-169 478,-157 478,-157 478,-151 484,-145 490,-145 490,-145 765,-145 765,-145 771,-145 777,-151 777,-157 777,-157 777,-169 777,-169 777,-175 771,-181 765,-181"/>
<text text-anchor="middle" x="627.5" y="-160.2" font-family="Helvetica,sans-Serif" font-size="11.00">BatteryStatsImpl.mDischargeScreenOnUnplugLevel</text>
</g>
<!-- __guard__ -->
<g id="node2" class="node">
<title>__guard__</title>
<path fill="#dcfce7" stroke="#16a34a" stroke-width="2" d="M248,-292C248,-292 102,-292 102,-292 96,-292 90,-286 90,-280 90,-280 90,-268 90,-268 90,-262 96,-256 102,-256 102,-256 248,-256 248,-256 254,-256 260,-262 260,-268 260,-268 260,-280 260,-280 260,-286 254,-292 248,-292"/>
<text text-anchor="middle" x="175" y="-271.2" font-family="Helvetica,sans-Serif" font-size="11.00">BatteryStatsService.mStats</text>
</g>
<!-- __guard__&#45;&gt;__field__ -->
<g id="edge1" class="edge">
<title>__guard__&#45;&gt;__field__</title>
<path fill="none" stroke="#16a34a" stroke-width="1.6" d="M260.04,-266.14C316.2,-259.66 391.35,-248.61 456,-231 499.59,-219.13 547.2,-199.55 581,-184.44"/>
<polygon fill="#16a34a" stroke="#16a34a" stroke-width="1.6" points="582.28,-186.93 588.42,-181.09 579.98,-181.83 582.28,-186.93"/>
<text text-anchor="middle" x="414" y="-251.8" font-family="Helvetica,sans-Serif" font-size="9.00" fill="#15803d"> guards 6/9</text>
</g>
<!-- m::com.android.server.power.stats.BatteryStatsImpl.updateNewDischargeScreenLevelLocked:(I)V -->
<g id="node3" class="node">
<title>m::com.android.server.power.stats.BatteryStatsImpl.updateNewDischargeScreenLevelLocked:(I)V</title>
<path fill="#fee2e2" stroke="#dc2626" d="M330.5,-218C330.5,-218 19.5,-218 19.5,-218 13.5,-218 7.5,-212 7.5,-206 7.5,-206 7.5,-194 7.5,-194 7.5,-188 13.5,-182 19.5,-182 19.5,-182 330.5,-182 330.5,-182 336.5,-182 342.5,-188 342.5,-194 342.5,-194 342.5,-206 342.5,-206 342.5,-212 336.5,-218 330.5,-218"/>
<text text-anchor="middle" x="175" y="-197.2" font-family="Helvetica,sans-Serif" font-size="11.00">BatteryStatsImpl.updateNewDischargeScreenLevelLocked</text>
</g>
<!-- m::com.android.server.power.stats.BatteryStatsImpl.updateNewDischargeScreenLevelLocked:(I)V&#45;&gt;__field__ -->
<g id="edge2" class="edge">
<title>m::com.android.server.power.stats.BatteryStatsImpl.updateNewDischargeScreenLevelLocked:(I)V&#45;&gt;__field__</title>
<path fill="none" stroke="#dc2626" d="M342.67,-216.18C380.08,-217.14 419.5,-216.04 456,-211 494.21,-205.72 535.92,-194.09 568.51,-183.6"/>
<polygon fill="#dc2626" stroke="#dc2626" points="569.43,-186.25 576.17,-181.1 567.7,-180.92 569.43,-186.25"/>
<text text-anchor="middle" x="414" y="-218.8" font-family="Helvetica,sans-Serif" font-size="9.00" fill="#dc2626"> writes unguarded</text>
</g>
<!-- m::com.android.server.power.stats.BatteryStatsImpl.updateNewDischargeScreenLevelLocked:(I)V&#45;&gt;__field__ -->
<g id="edge3" class="edge">
<title>m::com.android.server.power.stats.BatteryStatsImpl.updateNewDischargeScreenLevelLocked:(I)V&#45;&gt;__field__</title>
<path fill="none" stroke="#dc2626" d="M342.79,-186.3C384.24,-182.9 428.54,-179.26 469.5,-175.89"/>
<polygon fill="#dc2626" stroke="#dc2626" points="469.91,-178.67 477.65,-175.23 469.45,-173.09 469.91,-178.67"/>
<text text-anchor="middle" x="414" y="-185.8" font-family="Helvetica,sans-Serif" font-size="9.00" fill="#dc2626"> writes unguarded</text>
</g>
<!-- m::com.android.server.power.stats.BatteryStatsImpl.updateNewDischargeScreenLevelLocked:(I)V&#45;&gt;__field__ -->
<g id="edge4" class="edge">
<title>m::com.android.server.power.stats.BatteryStatsImpl.updateNewDischargeScreenLevelLocked:(I)V&#45;&gt;__field__</title>
<path fill="none" stroke="#dc2626" d="M253.26,-181.97C289.15,-174.48 332.52,-166.69 372,-163 403.53,-160.05 437.36,-158.75 469.72,-158.41"/>
<polygon fill="#dc2626" stroke="#dc2626" points="469.94,-161.21 477.91,-158.35 469.89,-155.61 469.94,-161.21"/>
<text text-anchor="middle" x="414" y="-165.8" font-family="Helvetica,sans-Serif" font-size="9.00" fill="#dc2626"> writes unguarded</text>
</g>
<!-- m::com.android.server.power.stats.BatteryStatsImpl.getDischargeAmountScreenOn:()I -->
<g id="node4" class="node">
<title>m::com.android.server.power.stats.BatteryStatsImpl.getDischargeAmountScreenOn:()I</title>
<path fill="#fee2e2" stroke="#dc2626" d="M304,-152C304,-152 46,-152 46,-152 40,-152 34,-146 34,-140 34,-140 34,-128 34,-128 34,-122 40,-116 46,-116 46,-116 304,-116 304,-116 310,-116 316,-122 316,-128 316,-128 316,-140 316,-140 316,-146 310,-152 304,-152"/>
<text text-anchor="middle" x="175" y="-131.2" font-family="Helvetica,sans-Serif" font-size="11.00">BatteryStatsImpl.getDischargeAmountScreenOn</text>
</g>
<!-- m::com.android.server.power.stats.BatteryStatsImpl.getDischargeAmountScreenOn:()I&#45;&gt;__field__ -->
<g id="edge5" class="edge">
<title>m::com.android.server.power.stats.BatteryStatsImpl.getDischargeAmountScreenOn:()I&#45;&gt;__field__</title>
<path fill="none" stroke="#dc2626" d="M316.22,-122.57C360.99,-120.91 410.67,-121.14 456,-126 487.66,-129.4 522.06,-136.24 551.62,-143.13"/>
<polygon fill="#dc2626" stroke="#dc2626" points="550.99,-145.86 559.42,-144.97 552.28,-140.41 550.99,-145.86"/>
<text text-anchor="middle" x="414" y="-128.8" font-family="Helvetica,sans-Serif" font-size="9.00" fill="#dc2626"> reads unguarded</text>
</g>
<!-- m::com.android.server.power.stats.BatteryStatsImpl.getDischargeAmountScreenOnSinceCharge:()I -->
<g id="node5" class="node">
<title>m::com.android.server.power.stats.BatteryStatsImpl.getDischargeAmountScreenOnSinceCharge:()I</title>
<path fill="#fee2e2" stroke="#dc2626" d="M338,-94C338,-94 12,-94 12,-94 6,-94 0,-88 0,-82 0,-82 0,-70 0,-70 0,-64 6,-58 12,-58 12,-58 338,-58 338,-58 344,-58 350,-64 350,-70 350,-70 350,-82 350,-82 350,-88 344,-94 338,-94"/>
<text text-anchor="middle" x="175" y="-73.2" font-family="Helvetica,sans-Serif" font-size="11.00">BatteryStatsImpl.getDischargeAmountScreenOnSinceCharge</text>
</g>
<!-- m::com.android.server.power.stats.BatteryStatsImpl.getDischargeAmountScreenOnSinceCharge:()I&#45;&gt;__field__ -->
<g id="edge6" class="edge">
<title>m::com.android.server.power.stats.BatteryStatsImpl.getDischargeAmountScreenOnSinceCharge:()I&#45;&gt;__field__</title>
<path fill="none" stroke="#dc2626" d="M350.2,-88.77C385.45,-93 422.09,-98.61 456,-106 496.23,-114.77 540.27,-129.64 573.52,-141.99"/>
<polygon fill="#dc2626" stroke="#dc2626" points="572.83,-144.72 581.3,-144.91 574.79,-139.48 572.83,-144.72"/>
<text text-anchor="middle" x="414" y="-108.8" font-family="Helvetica,sans-Serif" font-size="9.00" fill="#dc2626"> reads unguarded</text>
</g>
<!-- m::com.android.server.power.stats.BatteryStatsImpl.updateOldDischargeScreenLevelLocked:(I)V -->
<g id="node6" class="node">
<title>m::com.android.server.power.stats.BatteryStatsImpl.updateOldDischargeScreenLevelLocked:(I)V</title>
<path fill="#fee2e2" stroke="#dc2626" d="M328,-36C328,-36 22,-36 22,-36 16,-36 10,-30 10,-24 10,-24 10,-12 10,-12 10,-6 16,0 22,0 22,0 328,0 328,0 334,0 340,-6 340,-12 340,-12 340,-24 340,-24 340,-30 334,-36 328,-36"/>
<text text-anchor="middle" x="175" y="-15.2" font-family="Helvetica,sans-Serif" font-size="11.00">BatteryStatsImpl.updateOldDischargeScreenLevelLocked</text>
</g>
<!-- m::com.android.server.power.stats.BatteryStatsImpl.updateOldDischargeScreenLevelLocked:(I)V&#45;&gt;__field__ -->
<g id="edge7" class="edge">
<title>m::com.android.server.power.stats.BatteryStatsImpl.updateOldDischargeScreenLevelLocked:(I)V&#45;&gt;__field__</title>
<path fill="none" stroke="#dc2626" d="M294.24,-36.04C312.96,-39.37 332.05,-43.06 350,-47 397.71,-57.47 410.45,-58.36 456,-76 503.25,-94.3 554.7,-121.66 588.58,-140.8"/>
<polygon fill="#dc2626" stroke="#dc2626" points="587.62,-143.47 595.96,-144.99 590.39,-138.6 587.62,-143.47"/>
<text text-anchor="middle" x="414" y="-78.8" font-family="Helvetica,sans-Serif" font-size="9.00" fill="#dc2626"> reads unguarded</text>
</g>
</g>
</svg>
