<?xml version="1.0" encoding="UTF-8" standalone="no"?>
<!DOCTYPE svg PUBLIC "-//W3C//DTD SVG 1.1//EN"
 "http://www.w3.org/Graphics/SVG/1.1/DTD/svg11.dtd">
<!-- Generated by graphviz version 2.43.0 (0)
 -->
<!-- Title: race Pages: 1 -->
<svg width="1087pt" height="102pt"
 viewBox="0.00 0.00 1087.00 102.00" xmlns="http://www.w3.org/2000/svg" xmlns:xlink="http://www.w3.org/1999/xlink">
<g id="graph0" class="graph" transform="scale(1 1) rotate(0) translate(4 98)">
<title>race</title>
<polygon fill="white" stroke="transparent" points="-4,4 -4,-98 1083,-98 1083,4 -4,4"/>
<!-- __field__ -->
<g id="node1" class="node">
<title>__field__</title>
<path fill="#fef9c3" stroke="#ca8a04" stroke-width="2" d="M1067,-65C1067,-65 640,-65 640,-65 634,-65 628,-59 628,-53 628,-53 628,-41 628,-41 628,-35 634,-29 640,-29 640,-29 1067,-29 1067,-29 1073,-29 1079,-35 1079,-41 1079,-41 1079,-53 1079,-53 1079,-59 1073,-65 1067,-65"/>
<text text-anchor="middle" x="853.5" y="-44.2" font-family="Helvetica,sans-Serif" font-size="11.00">MagnificationConnectionManager$WindowMagnifier.mIdOfLastServiceToControl</text>
</g>
<!-- __guard__ -->
<g id="node2" class="node">
<title>__guard__</title>
<path fill="#dcfce7" stroke="#16a34a" stroke-width="2" d="M329,-94C329,-94 171,-94 171,-94 165,-94 159,-88 159,-82 159,-82 159,-70 159,-70 159,-64 165,-58 171,-58 171,-58 329,-58 329,-58 335,-58 341,-64 341,-70 341,-70 341,-82 341,-82 341,-88 335,-94 329,-94"/>
<text text-anchor="middle" x="250" y="-73.2" font-family="Helvetica,sans-Serif" font-size="11.00">MagnificationController.mLock</text>
</g>
<!-- __guard__&#45;&gt;__field__ -->
<g id="edge1" class="edge">
<title>__guard__&#45;&gt;__field__</title>
<path fill="none" stroke="#16a34a" stroke-width="1.6" d="M341.05,-71.66C414.69,-68.11 522.19,-62.93 619.65,-58.23"/>
<polygon fill="#16a34a" stroke="#16a34a" stroke-width="1.6" points="619.99,-61.01 627.85,-57.83 619.72,-55.42 619.99,-61.01"/>
<text text-anchor="middle" x="564" y="-64.8" font-family="Helvetica,sans-Serif" font-size="9.00" fill="#15803d"> guards 2/3</text>
</g>
<!-- m::com.android.server.accessibility.magnification.MagnificationConnectionManager$WindowMagnifier.disableWindowMagnificationInternal:(Landroid/view/accessibility/MagnificationAnimationCallback;)Z -->
<g id="node3" class="node">
<title>m::com.android.server.accessibility.magnification.MagnificationConnectionManager$WindowMagnifier.disableWindowMagnificationInternal:(Landroid/view/accessibility/MagnificationAnimationCallback;)Z</title>
<path fill="#fee2e2" stroke="#dc2626" d="M488,-36C488,-36 12,-36 12,-36 6,-36 0,-30 0,-24 0,-24 0,-12 0,-12 0,-6 6,0 12,0 12,0 488,0 488,0 494,0 500,-6 500,-12 500,-12 500,-24 500,-24 500,-30 494,-36 488,-36"/>
<text text-anchor="middle" x="250" y="-15.2" font-family="Helvetica,sans-Serif" font-size="11.00">MagnificationConnectionManager$WindowMagnifier.disableWindowMagnificationInternal</text>
</g>
<!-- m::com.android.server.accessibility.magnification.MagnificationConnectionManager$WindowMagnifier.disableWindowMagnificationInternal:(Landroid/view/accessibility/MagnificationAnimationCallback;)Z&#45;&gt;__field__ -->
<g id="edge2" class="edge">
<title>m::com.android.server.accessibility.magnification.MagnificationConnectionManager$WindowMagnifier.disableWindowMagnificationInternal:(Landroid/view/accessibility/MagnificationAnimationCallback;)Z&#45;&gt;__field__</title>
<path fill="none" stroke="#dc2626" d="M500.43,-30.03C539.78,-31.92 580.34,-33.88 619.3,-35.76"/>
<polygon fill="#dc2626" stroke="#dc2626" points="619.47,-38.57 627.59,-36.16 619.74,-32.97 619.47,-38.57"/>
<text text-anchor="middle" x="564" y="-37.8" font-family="Helvetica,sans-Serif" font-size="9.00" fill="#dc2626"> writes unguarded</text>
</g>
</g>
</svg>
