<?xml version="1.0" encoding="UTF-8" standalone="no"?>
<!DOCTYPE svg PUBLIC "-//W3C//DTD SVG 1.1//EN"
 "http://www.w3.org/Graphics/SVG/1.1/DTD/svg11.dtd">
<!-- Generated by graphviz version 2.43.0 (0)
 -->
<!-- Title: race Pages: 1 -->
<svg width="959pt" height="110pt"
 viewBox="0.00 0.00 959.00 110.00" xmlns="http://www.w3.org/2000/svg" xmlns:xlink="http://www.w3.org/1999/xlink">
<g id="graph0" class="graph" transform="scale(1 1) rotate(0) translate(4 106)">
<title>race</title>
<polygon fill="white" stroke="transparent" points="-4,4 -4,-106 955,-106 955,4 -4,4"/>
<!-- __field__ -->
<g id="node1" class="node">
<title>__field__</title>
<path fill="#fef9c3" stroke="#ca8a04" stroke-width="2" d="M939,-65C939,-65 565,-65 565,-65 559,-65 553,-59 553,-53 553,-53 553,-41 553,-41 553,-35 559,-29 565,-29 565,-29 939,-29 939,-29 945,-29 951,-35 951,-41 951,-41 951,-53 951,-53 951,-59 945,-65 939,-65"/>
<text text-anchor="middle" x="752" y="-44.2" font-family="Helvetica,sans-Serif" font-size="11.00">GameManagerService$GamePackageConfiguration.mAllowDownscale</text>
</g>
<!-- __guard__ -->
<g id="node2" class="node">
<title>__guard__</title>
<path fill="#dcfce7" stroke="#16a34a" stroke-width="2" d="M324.5,-102C324.5,-102 100.5,-102 100.5,-102 94.5,-102 88.5,-96 88.5,-90 88.5,-90 88.5,-78 88.5,-78 88.5,-72 94.5,-66 100.5,-66 100.5,-66 324.5,-66 324.5,-66 330.5,-66 336.5,-72 336.5,-78 336.5,-78 336.5,-90 336.5,-90 336.5,-96 330.5,-102 324.5,-102"/>
<text text-anchor="middle" x="212.5" y="-81.2" font-family="Helvetica,sans-Serif" font-size="11.00">GameManagerService.mDeviceConfigLock</text>
</g>
<!-- __guard__&#45;&gt;__field__ -->
<g id="edge1" class="edge">
<title>__guard__&#45;&gt;__field__</title>
<path fill="none" stroke="#16a34a" stroke-width="1.6" d="M336.81,-75.51C398.44,-71.27 474.67,-66.02 544.86,-61.19"/>
<polygon fill="#16a34a" stroke="#16a34a" stroke-width="1.6" points="545.16,-63.98 552.95,-60.63 544.78,-58.39 545.16,-63.98"/>
<text text-anchor="middle" x="489" y="-69.8" font-family="Helvetica,sans-Serif" font-size="9.00" fill="#15803d"> guards 2/3</text>
</g>
<!-- m::com.android.server.app.GameManagerService$GamePackageConfiguration.copyAndApplyOverride:(Lcom/android/server/app/GameManagerService$GamePackageConfiguration;)Lcom/android/server/app/GameManagerService$GamePackageConfiguration; -->
<g id="node3" class="node">
<title>m::com.android.server.app.GameManagerService$GamePackageConfiguration.copyAndApplyOverride:(Lcom/android/server/app/GameManagerService$GamePackageConfiguration;)Lcom/android/server/app/GameManagerService$GamePackageConfiguration;</title>
<path fill="#fee2e2" stroke="#dc2626" d="M413,-36C413,-36 12,-36 12,-36 6,-36 0,-30 0,-24 0,-24 0,-12 0,-12 0,-6 6,0 12,0 12,0 413,0 413,0 419,0 425,-6 425,-12 425,-12 425,-24 425,-24 425,-30 419,-36 413,-36"/>
<text text-anchor="middle" x="212.5" y="-15.2" font-family="Helvetica,sans-Serif" font-size="11.00">GameManagerService$GamePackageConfiguration.copyAndApplyOverride</text>
</g>
<!-- m::com.android.server.app.GameManagerService$GamePackageConfiguration.copyAndApplyOverride:(Lcom/android/server/app/GameManagerService$GamePackageConfiguration;)Lcom/android/server/app/GameManagerService$GamePackageConfiguration;&#45;&gt;__field__ -->
<g id="edge2" class="edge">
<title>m::com.android.server.app.GameManagerService$GamePackageConfiguration.copyAndApplyOverride:(Lcom/android/server/app/GameManagerService$GamePackageConfiguration;)Lcom/android/server/app/GameManagerService$GamePackageConfiguration;&#45;&gt;__field__</title>
<path fill="none" stroke="#dc2626" d="M425.16,-29.42C464.38,-31.54 505.3,-33.74 544.37,-35.85"/>
<polygon fill="#dc2626" stroke="#dc2626" points="544.54,-38.66 552.68,-36.3 544.84,-33.07 544.54,-38.66"/>
<text text-anchor="middle" x="489" y="-37.8" font-family="Helvetica,sans-Serif" font-size="9.00" fill="#dc2626"> writes unguarded</text>
</g>
<!-- m::com.android.server.app.GameManagerService$GamePackageConfiguration.copyAndApplyOverride:(Lcom/android/server/app/GameManagerService$GamePackageConfiguration;)Lcom/android/server/app/GameManagerService$GamePackageConfiguration;&#45;&gt;__field__ -->
<g id="edge3" class="edge">
<title>m::com.android.server.app.GameManagerService$GamePackageConfiguration.copyAndApplyOverride:(Lcom/android/server/app/GameManagerService$GamePackageConfiguration;)Lcom/android/server/app/GameManagerService$GamePackageConfiguration;&#45;&gt;__field__</title>
<path fill="none" stroke="#dc2626" d="M425.42,-11.19C460.71,-11.44 496.91,-12.53 531,-15 566.73,-17.58 605.47,-22.5 640.34,-27.72"/>
<polygon fill="#dc2626" stroke="#dc2626" points="640.31,-30.55 648.64,-28.98 641.15,-25.01 640.31,-30.55"/>
<text text-anchor="middle" x="489" y="-17.8" font-family="Helvetica,sans-Serif" font-size="9.00" fill="#dc2626"> reads unguarded</text>
</g>
</g>
</svg>
