<?xml version="1.0" encoding="UTF-8" standalone="no"?>
<!DOCTYPE svg PUBLIC "-//W3C//DTD SVG 1.1//EN"
 "http://www.w3.org/Graphics/SVG/1.1/DTD/svg11.dtd">
<!-- Generated by graphviz version 2.43.0 (0)
 -->
<!-- Title: race Pages: 1 -->
<svg width="792pt" height="276pt"
 viewBox="0.00 0.00 792.00 276.00" xmlns="http://www.w3.org/2000/svg" xmlns:xlink="http://www.w3.org/1999/xlink">
<g id="graph0" class="graph" transform="scale(1 1) rotate(0) translate(4 272)">
<title>race</title>
<polygon fill="white" stroke="transparent" points="-4,4 -4,-272 788,-272 788,4 -4,4"/>
<!-- __field__ -->
<g id="node1" class="node">
<title>__field__</title>
<path fill="#fef9c3" stroke="#ca8a04" stroke-width="2" d="M772,-133C772,-133 532,-133 532,-133 526,-133 520,-127 520,-121 520,-121 520,-109 520,-109 520,-103 526,-97 532,-97 532,-97 772,-97 772,-97 778,-97 784,-103 784,-109 784,-109 784,-121 784,-121 784,-127 778,-133 772,-133"/>
<text text-anchor="middle" x="652" y="-112.2" font-family="Helvetica,sans-Serif" font-size="11.00">ActiveAdmin.mManagedProfileCallerIdAccess</text>
</g>
<!-- __guard__ -->
<g id="node2" class="node">
<title>__guard__</title>
<path fill="#dcfce7" stroke="#16a34a" stroke-width="2" d="M337.5,-268C337.5,-268 54.5,-268 54.5,-268 48.5,-268 42.5,-262 42.5,-256 42.5,-256 42.5,-244 42.5,-244 42.5,-238 48.5,-232 54.5,-232 54.5,-232 337.5,-232 337.5,-232 343.5,-232 349.5,-238 349.5,-244 349.5,-244 349.5,-256 349.5,-256 349.5,-262 343.5,-268 337.5,-268"/>
<text text-anchor="middle" x="196" y="-247.2" font-family="Helvetica,sans-Serif" font-size="11.00">DevicePolicyManagerService.mLockDoNoUseDirectly</text>
</g>
<!-- __guard__&#45;&gt;__field__ -->
<g id="edge1" class="edge">
<title>__guard__&#45;&gt;__field__</title>
<path fill="none" stroke="#16a34a" stroke-width="1.6" d="M344.2,-231.99C360.45,-228.86 376.65,-225.22 392,-221 470.21,-199.52 556.55,-160.98 607.16,-136.77"/>
<polygon fill="#16a34a" stroke="#16a34a" stroke-width="1.6" points="608.67,-139.15 614.67,-133.15 606.24,-134.1 608.67,-139.15"/>
<text text-anchor="middle" x="456" y="-214.8" font-family="Helvetica,sans-Serif" font-size="9.00" fill="#15803d"> guards 3/4</text>
</g>
<!-- m::com.android.server.devicepolicy.ActiveAdmin.readFromXml:(Lcom/android/modules/utils/TypedXmlPullParser;Z)V -->
<g id="node3" class="node">
<title>m::com.android.server.devicepolicy.ActiveAdmin.readFromXml:(Lcom/android/modules/utils/TypedXmlPullParser;Z)V</title>
<path fill="#fee2e2" stroke="#dc2626" d="M265,-210C265,-210 127,-210 127,-210 121,-210 115,-204 115,-198 115,-198 115,-186 115,-186 115,-180 121,-174 127,-174 127,-174 265,-174 265,-174 271,-174 277,-180 277,-186 277,-186 277,-198 277,-198 277,-204 271,-210 265,-210"/>
<text text-anchor="middle" x="196" y="-189.2" font-family="Helvetica,sans-Serif" font-size="11.00">ActiveAdmin.readFromXml</text>
</g>
<!-- m::com.android.server.devicepolicy.ActiveAdmin.readFromXml:(Lcom/android/modules/utils/TypedXmlPullParser;Z)V&#45;&gt;__field__ -->
<g id="edge2" class="edge">
<title>m::com.android.server.devicepolicy.ActiveAdmin.readFromXml:(Lcom/android/modules/utils/TypedXmlPullParser;Z)V&#45;&gt;__field__</title>
<path fill="none" stroke="#dc2626" d="M277.27,-180.72C312.51,-175.6 354.36,-169.28 392,-163 444.34,-154.26 502.45,-143.58 550.34,-134.52"/>
<polygon fill="#dc2626" stroke="#dc2626" points="550.9,-137.26 558.24,-133.02 549.86,-131.76 550.9,-137.26"/>
<text text-anchor="middle" x="456" y="-160.8" font-family="Helvetica,sans-Serif" font-size="9.00" fill="#dc2626"> writes unguarded</text>
</g>
<!-- m::com.android.server.devicepolicy.ActiveAdmin.writeToXml:(Lcom/android/modules/utils/TypedXmlSerializer;)V -->
<g id="node4" class="node">
<title>m::com.android.server.devicepolicy.ActiveAdmin.writeToXml:(Lcom/android/modules/utils/TypedXmlSerializer;)V</title>
<path fill="#fee2e2" stroke="#dc2626" d="M258.5,-152C258.5,-152 133.5,-152 133.5,-152 127.5,-152 121.5,-146 121.5,-140 121.5,-140 121.5,-128 121.5,-128 121.5,-122 127.5,-116 133.5,-116 133.5,-116 258.5,-116 258.5,-116 264.5,-116 270.5,-122 270.5,-128 270.5,-128 270.5,-140 270.5,-140 270.5,-146 264.5,-152 258.5,-152"/>
<text text-anchor="middle" x="196" y="-131.2" font-family="Helvetica,sans-Serif" font-size="11.00">ActiveAdmin.writeToXml</text>
</g>
<!-- m::com.android.server.devicepolicy.ActiveAdmin.writeToXml:(Lcom/android/modules/utils/TypedXmlSerializer;)V&#45;&gt;__field__ -->
<g id="edge3" class="edge">
<title>m::com.android.server.devicepolicy.ActiveAdmin.writeToXml:(Lcom/android/modules/utils/TypedXmlSerializer;)V&#45;&gt;__field__</title>
<path fill="none" stroke="#dc2626" d="M270.7,-130.92C335.64,-128.2 432.01,-124.16 511.48,-120.84"/>
<polygon fill="#dc2626" stroke="#dc2626" points="511.73,-123.63 519.61,-120.5 511.5,-118.04 511.73,-123.63"/>
<text text-anchor="middle" x="456" y="-126.8" font-family="Helvetica,sans-Serif" font-size="9.00" fill="#dc2626"> reads unguarded</text>
</g>
<!-- m::com.android.server.devicepolicy.DevicePolicyManagerService.getCrossProfileCallerIdDisabled:(Landroid/content/ComponentName;)Z -->
<g id="node5" class="node">
<title>m::com.android.server.devicepolicy.DevicePolicyManagerService.getCrossProfileCallerIdDisabled:(Landroid/content/ComponentName;)Z</title>
<path fill="#fee2e2" stroke="#dc2626" d="M359,-94C359,-94 33,-94 33,-94 27,-94 21,-88 21,-82 21,-82 21,-70 21,-70 21,-64 27,-58 33,-58 33,-58 359,-58 359,-58 365,-58 371,-64 371,-70 371,-70 371,-82 371,-82 371,-88 365,-94 359,-94"/>
<text text-anchor="middle" x="196" y="-73.2" font-family="Helvetica,sans-Serif" font-size="11.00">DevicePolicyManagerService.getCrossProfileCallerIdDisabled</text>
</g>
<!-- m::com.android.server.devicepolicy.DevicePolicyManagerService.getCrossProfileCallerIdDisabled:(Landroid/content/ComponentName;)Z&#45;&gt;__field__ -->
<g id="edge4" class="edge">
<title>m::com.android.server.devicepolicy.DevicePolicyManagerService.getCrossProfileCallerIdDisabled:(Landroid/content/ComponentName;)Z&#45;&gt;__field__</title>
<path fill="none" stroke="#dc2626" d="M371.23,-90.97C417.72,-94.96 467.34,-99.22 511.69,-103.03"/>
<polygon fill="#dc2626" stroke="#dc2626" points="511.69,-105.84 519.9,-103.74 512.17,-100.26 511.69,-105.84"/>
<text text-anchor="middle" x="456" y="-103.8" font-family="Helvetica,sans-Serif" font-size="9.00" fill="#dc2626"> reads unguarded</text>
</g>
<!-- m::com.android.server.devicepolicy.DevicePolicyManagerService.getCrossProfileCallerIdDisabled:(Landroid/content/ComponentName;)Z&#45;&gt;__field__ -->
<g id="edge5" class="edge">
<title>m::com.android.server.devicepolicy.DevicePolicyManagerService.getCrossProfileCallerIdDisabled:(Landroid/content/ComponentName;)Z&#45;&gt;__field__</title>
<path fill="none" stroke="#dc2626" d="M371.3,-72.07C412.93,-72.85 457.14,-75.11 498,-80 524.37,-83.15 552.83,-88.98 577.97,-94.98"/>
<polygon fill="#dc2626" stroke="#dc2626" points="577.58,-97.77 586.01,-96.94 578.9,-92.33 577.58,-97.77"/>
<text text-anchor="middle" x="456" y="-82.8" font-family="Helvetica,sans-Serif" font-size="9.00" fill="#dc2626"> reads unguarded</text>
</g>
<!-- m::com.android.server.devicepolicy.DevicePolicyManagerService.getCrossProfileCallerIdDisabledForUser:(I)Z -->
<g id="node6" class="node">
<title>m::com.android.server.devicepolicy.DevicePolicyManagerService.getCrossProfileCallerIdDisabledForUser:(I)Z</title>
<path fill="#fee2e2" stroke="#dc2626" d="M380,-36C380,-36 12,-36 12,-36 6,-36 0,-30 0,-24 0,-24 0,-12 0,-12 0,-6 6,0 12,0 12,0 380,0 380,0 386,0 392,-6 392,-12 392,-12 392,-24 392,-24 392,-30 386,-36 380,-36"/>
<text text-anchor="middle" x="196" y="-15.2" font-family="Helvetica,sans-Serif" font-size="11.00">DevicePolicyManagerService.getCrossProfileCallerIdDisabledForUser</text>
</g>
<!-- m::com.android.server.devicepolicy.DevicePolicyManagerService.getCrossProfileCallerIdDisabledForUser:(I)Z&#45;&gt;__field__ -->
<g id="edge6" class="edge">
<title>m::com.android.server.devicepolicy.DevicePolicyManagerService.getCrossProfileCallerIdDisabledForUser:(I)Z&#45;&gt;__field__</title>
<path fill="none" stroke="#dc2626" d="M382.89,-36.06C421.25,-41.64 461.17,-48.82 498,-58 533.85,-66.94 572.86,-81.55 602.52,-93.75"/>
<polygon fill="#dc2626" stroke="#dc2626" points="601.77,-96.47 610.24,-96.95 603.92,-91.3 601.77,-96.47"/>
<text text-anchor="middle" x="456" y="-60.8" font-family="Helvetica,sans-Serif" font-size="9.00" fill="#dc2626"> reads unguarded</text>
</g>
</g>
</svg>
