<?xml version="1.0" encoding="UTF-8" standalone="no"?>
<!DOCTYPE svg PUBLIC "-//W3C//DTD SVG 1.1//EN"
 "http://www.w3.org/Graphics/SVG/1.1/DTD/svg11.dtd">
<!-- Generated by graphviz version 2.43.0 (0)
 -->
<!-- Title: race Pages: 1 -->
<svg width="696pt" height="276pt"
 viewBox="0.00 0.00 696.00 276.00" xmlns="http://www.w3.org/2000/svg" xmlns:xlink="http://www.w3.org/1999/xlink">
<g id="graph0" class="graph" transform="scale(1 1) rotate(0) translate(4 272)">
<title>race</title>
<polygon fill="white" stroke="transparent" points="-4,4 -4,-272 692,-272 692,4 -4,4"/>
<!-- __field__ -->
<g id="node1" class="node">
<title>__field__</title>
<path fill="#fef9c3" stroke="#ca8a04" stroke-width="2" d="M676,-152C676,-152 574,-152 574,-152 568,-152 562,-146 562,-140 562,-140 562,-128 562,-128 562,-122 568,-116 574,-116 574,-116 676,-116 676,-116 682,-116 688,-122 688,-128 688,-128 688,-140 688,-140 688,-146 682,-152 676,-152"/>
<text text-anchor="middle" x="625" y="-131.2" font-family="Helvetica,sans-Serif" font-size="11.00">ActivityInfo.enabled</text>
</g>
<!-- __guard__ -->
<g id="node2" class="node">
<title>__guard__</title>
<path fill="#dcfce7" stroke="#16a34a" stroke-width="2" d="M320,-268C320,-268 114,-268 114,-268 108,-268 102,-262 102,-256 102,-256 102,-244 102,-244 102,-238 108,-232 114,-232 114,-232 320,-232 320,-232 326,-232 332,-238 332,-244 332,-244 332,-256 332,-256 332,-262 326,-268 320,-268"/>
<text text-anchor="middle" x="217" y="-247.2" font-family="Helvetica,sans-Serif" font-size="11.00">PackageManagerServiceInjector.mLock</text>
</g>
<!-- __guard__&#45;&gt;__field__ -->
<g id="edge1" class="edge">
<title>__guard__&#45;&gt;__field__</title>
<path fill="none" stroke="#16a34a" stroke-width="1.6" d="M332.14,-240.64C365.37,-236.32 401.47,-230.05 434,-221 483.48,-207.23 493.36,-196.49 540,-175 553.18,-168.93 567.41,-162.09 580.34,-155.77"/>
<polygon fill="#16a34a" stroke="#16a34a" stroke-width="1.6" points="581.84,-158.15 587.78,-152.12 579.37,-153.13 581.84,-158.15"/>
<text text-anchor="middle" x="498" y="-215.8" font-family="Helvetica,sans-Serif" font-size="9.00" fill="#15803d"> guards 3/4</text>
</g>
<!-- m::com.android.server.wm.ActivityTaskManagerService.startDreamActivityInternal:(Landroid/content/Intent;II)Landroid/app/IAppTask; -->
<g id="node3" class="node">
<title>m::com.android.server.wm.ActivityTaskManagerService.startDreamActivityInternal:(Landroid/content/Intent;II)Landroid/app/IAppTask;</title>
<path fill="#fee2e2" stroke="#dc2626" d="M366,-210C366,-210 68,-210 68,-210 62,-210 56,-204 56,-198 56,-198 56,-186 56,-186 56,-180 62,-174 68,-174 68,-174 366,-174 366,-174 372,-174 378,-180 378,-186 378,-186 378,-198 378,-198 378,-204 372,-210 366,-210"/>
<text text-anchor="middle" x="217" y="-189.2" font-family="Helvetica,sans-Serif" font-size="11.00">ActivityTaskManagerService.startDreamActivityInternal</text>
</g>
<!-- m::com.android.server.wm.ActivityTaskManagerService.startDreamActivityInternal:(Landroid/content/Intent;II)Landroid/app/IAppTask;&#45;&gt;__field__ -->
<g id="edge2" class="edge">
<title>m::com.android.server.wm.ActivityTaskManagerService.startDreamActivityInternal:(Landroid/content/Intent;II)Landroid/app/IAppTask;&#45;&gt;__field__</title>
<path fill="none" stroke="#dc2626" d="M363.26,-173.98C418.65,-166.75 482.32,-158 540,-149 544.39,-148.32 548.91,-147.58 553.46,-146.83"/>
<polygon fill="#dc2626" stroke="#dc2626" points="554.24,-149.54 561.67,-145.45 553.31,-144.01 554.24,-149.54"/>
<text text-anchor="middle" x="498" y="-162.8" font-family="Helvetica,sans-Serif" font-size="9.00" fill="#dc2626"> writes unguarded</text>
</g>
<!-- m::com.android.server.pm.LauncherAppsService$LauncherAppsImpl.hasDefaultEnableLauncherActivity:(Ljava/lang/String;)Z -->
<g id="node4" class="node">
<title>m::com.android.server.pm.LauncherAppsService$LauncherAppsImpl.hasDefaultEnableLauncherActivity:(Ljava/lang/String;)Z</title>
<path fill="#fee2e2" stroke="#dc2626" d="M422,-152C422,-152 12,-152 12,-152 6,-152 0,-146 0,-140 0,-140 0,-128 0,-128 0,-122 6,-116 12,-116 12,-116 422,-116 422,-116 428,-116 434,-122 434,-128 434,-128 434,-140 434,-140 434,-146 428,-152 422,-152"/>
<text text-anchor="middle" x="217" y="-131.2" font-family="Helvetica,sans-Serif" font-size="11.00">LauncherAppsService$LauncherAppsImpl.hasDefaultEnableLauncherActivity</text>
</g>
<!-- m::com.android.server.pm.LauncherAppsService$LauncherAppsImpl.hasDefaultEnableLauncherActivity:(Ljava/lang/String;)Z&#45;&gt;__field__ -->
<g id="edge3" class="edge">
<title>m::com.android.server.pm.LauncherAppsService$LauncherAppsImpl.hasDefaultEnableLauncherActivity:(Ljava/lang/String;)Z&#45;&gt;__field__</title>
<path fill="none" stroke="#dc2626" d="M434.08,-134C477.2,-134 519.53,-134 553.24,-134"/>
<polygon fill="#dc2626" stroke="#dc2626" points="553.62,-136.8 561.62,-134 553.62,-131.2 553.62,-136.8"/>
<text text-anchor="middle" x="498" y="-136.8" font-family="Helvetica,sans-Serif" font-size="9.00" fill="#dc2626"> reads unguarded</text>
</g>
<!-- m::com.android.server.pm.ShortcutService.isEnabled:(Landroid/content/pm/ActivityInfo;I)Z -->
<g id="node5" class="node">
<title>m::com.android.server.pm.ShortcutService.isEnabled:(Landroid/content/pm/ActivityInfo;I)Z</title>
<path fill="#fee2e2" stroke="#dc2626" d="M285,-94C285,-94 149,-94 149,-94 143,-94 137,-88 137,-82 137,-82 137,-70 137,-70 137,-64 143,-58 149,-58 149,-58 285,-58 285,-58 291,-58 297,-64 297,-70 297,-70 297,-82 297,-82 297,-88 291,-94 285,-94"/>
<text text-anchor="middle" x="217" y="-73.2" font-family="Helvetica,sans-Serif" font-size="11.00">ShortcutService.isEnabled</text>
</g>
<!-- m::com.android.server.pm.ShortcutService.isEnabled:(Landroid/content/pm/ActivityInfo;I)Z&#45;&gt;__field__ -->
<g id="edge4" class="edge">
<title>m::com.android.server.pm.ShortcutService.isEnabled:(Landroid/content/pm/ActivityInfo;I)Z&#45;&gt;__field__</title>
<path fill="none" stroke="#dc2626" d="M297.21,-85.59C362.47,-93.73 457.39,-106.11 540,-119 544.39,-119.68 548.91,-120.42 553.46,-121.17"/>
<polygon fill="#dc2626" stroke="#dc2626" points="553.31,-123.99 561.67,-122.55 554.24,-118.46 553.31,-123.99"/>
<text text-anchor="middle" x="498" y="-121.8" font-family="Helvetica,sans-Serif" font-size="9.00" fill="#dc2626"> reads unguarded</text>
</g>
<!-- m::com.android.server.wm.RecentTasks.cleanupLocked:(I)V -->
<g id="node6" class="node">
<title>m::com.android.server.wm.RecentTasks.cleanupLocked:(I)V</title>
<path fill="#fee2e2" stroke="#dc2626" d="M290,-36C290,-36 144,-36 144,-36 138,-36 132,-30 132,-24 132,-24 132,-12 132,-12 132,-6 138,0 144,0 144,0 290,0 290,0 296,0 302,-6 302,-12 302,-12 302,-24 302,-24 302,-30 296,-36 290,-36"/>
<text text-anchor="middle" x="217" y="-15.2" font-family="Helvetica,sans-Serif" font-size="11.00">RecentTasks.cleanupLocked</text>
</g>
<!-- m::com.android.server.wm.RecentTasks.cleanupLocked:(I)V&#45;&gt;__field__ -->
<g id="edge5" class="edge">
<title>m::com.android.server.wm.RecentTasks.cleanupLocked:(I)V&#45;&gt;__field__</title>
<path fill="none" stroke="#dc2626" d="M302.13,-24.02C342.52,-28.24 391.31,-35.3 434,-47 483.36,-60.53 493.53,-70.55 540,-92 553.74,-98.34 568.56,-105.61 581.87,-112.29"/>
<polygon fill="#dc2626" stroke="#dc2626" points="580.68,-114.83 589.09,-115.94 583.21,-109.83 580.68,-114.83"/>
<text text-anchor="middle" x="498" y="-94.8" font-family="Helvetica,sans-Serif" font-size="9.00" fill="#dc2626"> reads unguarded</text>
</g>
</g>
</svg>
