<?xml version="1.0" encoding="UTF-8" standalone="no"?>
<!DOCTYPE svg PUBLIC "-//W3C//DTD SVG 1.1//EN"
 "http://www.w3.org/Graphics/SVG/1.1/DTD/svg11.dtd">
<!-- Generated by graphviz version 2.43.0 (0)
 -->
<!-- Title: race Pages: 1 -->
<svg width="993pt" height="218pt"
 viewBox="0.00 0.00 993.00 218.00" xmlns="http://www.w3.org/2000/svg" xmlns:xlink="http://www.w3.org/1999/xlink">
<g id="graph0" class="graph" transform="scale(1 1) rotate(0) translate(4 214)">
<title>race</title>
<polygon fill="white" stroke="transparent" points="-4,4 -4,-214 989,-214 989,4 -4,4"/>
<!-- __field__ -->
<g id="node1" class="node">
<title>__field__</title>
<path fill="#fef9c3" stroke="#ca8a04" stroke-width="2" d="M973,-131C973,-131 640,-131 640,-131 634,-131 628,-125 628,-119 628,-119 628,-107 628,-107 628,-101 634,-95 640,-95 640,-95 973,-95 973,-95 979,-95 985,-101 985,-107 985,-107 985,-119 985,-119 985,-125 979,-131 973,-131"/>
<text text-anchor="middle" x="806.5" y="-110.2" font-family="Helvetica,sans-Serif" font-size="11.00">MagnificationConnectionManager$WindowMagnifier.mEnabled</text>
</g>
<!-- __guard__ -->
<g id="node2" class="node">
<title>__guard__</title>
<path fill="#dcfce7" stroke="#16a34a" stroke-width="2" d="M329,-210C329,-210 171,-210 171,-210 165,-210 159,-204 159,-198 159,-198 159,-186 159,-186 159,-180 165,-174 171,-174 171,-174 329,-174 329,-174 335,-174 341,-180 341,-186 341,-186 341,-198 341,-198 341,-204 335,-210 329,-210"/>
<text text-anchor="middle" x="250" y="-189.2" font-family="Helvetica,sans-Serif" font-size="11.00">MagnificationController.mLock</text>
</g>
<!-- __guard__&#45;&gt;__field__ -->
<g id="edge1" class="edge">
<title>__guard__&#45;&gt;__field__</title>
<path fill="none" stroke="#16a34a" stroke-width="1.6" d="M341.03,-182.53C388.4,-177.29 447.42,-170.36 500,-163 564.69,-153.94 636.81,-142.22 694.73,-132.4"/>
<polygon fill="#16a34a" stroke="#16a34a" stroke-width="1.6" points="695.38,-135.13 702.8,-131.03 694.44,-129.61 695.38,-135.13"/>
<text text-anchor="middle" x="564" y="-161.8" font-family="Helvetica,sans-Serif" font-size="9.00" fill="#15803d"> guards 2/3</text>
</g>
<!-- m::com.android.server.accessibility.magnification.MagnificationConnectionManager$WindowMagnifier.disableWindowMagnificationInternal:(Landroid/view/accessibility/MagnificationAnimationCallback;)Z -->
<g id="node3" class="node">
<title>m::com.android.server.accessibility.magnification.MagnificationConnectionManager$WindowMagnifier.disableWindowMagnificationInternal:(Landroid/view/accessibility/MagnificationAnimationCallback;)Z</title>
<path fill="#fee2e2" stroke="#dc2626" d="M488,-152C488,-152 12,-152 12,-152 6,-152 0,-146 0,-140 0,-140 0,-128 0,-128 0,-122 6,-116 12,-116 12,-116 488,-116 488,-116 494,-116 500,-122 500,-128 500,-128 500,-140 500,-140 500,-146 494,-152 488,-152"/>
<text text-anchor="middle" x="250" y="-131.2" font-family="Helvetica,sans-Serif" font-size="11.00">MagnificationConnectionManager$WindowMagnifier.disableWindowMagnificationInternal</text>
</g>
<!-- m::com.android.server.accessibility.magnification.MagnificationConnectionManager$WindowMagnifier.disableWindowMagnificationInternal:(Landroid/view/accessibility/MagnificationAnimationCallback;)Z&#45;&gt;__field__ -->
<g id="edge2" class="edge">
<title>m::com.android.server.accessibility.magnification.MagnificationConnectionManager$WindowMagnifier.disableWindowMagnificationInternal:(Landroid/view/accessibility/MagnificationAnimationCallback;)Z&#45;&gt;__field__</title>
<path fill="none" stroke="#dc2626" d="M500.26,-127.83C535.76,-126.7 571.81,-125.42 606,-124 610.49,-123.81 615.05,-123.62 619.64,-123.41"/>
<polygon fill="#dc2626" stroke="#dc2626" points="620.07,-126.2 627.94,-123.04 619.82,-120.6 620.07,-126.2"/>
<text text-anchor="middle" x="564" y="-128.8" font-family="Helvetica,sans-Serif" font-size="9.00" fill="#dc2626"> writes unguarded</text>
</g>
<!-- m::com.android.server.accessibility.magnification.MagnificationConnectionManager$WindowMagnifier.disableWindowMagnificationInternal:(Landroid/view/accessibility/MagnificationAnimationCallback;)Z&#45;&gt;__field__ -->
<g id="edge3" class="edge">
<title>m::com.android.server.accessibility.magnification.MagnificationConnectionManager$WindowMagnifier.disableWindowMagnificationInternal:(Landroid/view/accessibility/MagnificationAnimationCallback;)Z&#45;&gt;__field__</title>
<path fill="none" stroke="#dc2626" d="M463.2,-115.98C483.06,-114.77 502.9,-113.74 522,-113 553.51,-111.78 587.01,-111.17 619.52,-110.94"/>
<polygon fill="#dc2626" stroke="#dc2626" points="619.78,-113.74 627.76,-110.89 619.75,-108.14 619.78,-113.74"/>
<text text-anchor="middle" x="564" y="-115.8" font-family="Helvetica,sans-Serif" font-size="9.00" fill="#dc2626"> reads unguarded</text>
</g>
<!-- m::com.android.server.accessibility.magnification.MagnificationConnectionManager$WindowMagnifier.isEnabled:()Z -->
<g id="node4" class="node">
<title>m::com.android.server.accessibility.magnification.MagnificationConnectionManager$WindowMagnifier.isEnabled:()Z</title>
<path fill="#fee2e2" stroke="#dc2626" d="M416,-94C416,-94 84,-94 84,-94 78,-94 72,-88 72,-82 72,-82 72,-70 72,-70 72,-64 78,-58 84,-58 84,-58 416,-58 416,-58 422,-58 428,-64 428,-70 428,-70 428,-82 428,-82 428,-88 422,-94 416,-94"/>
<text text-anchor="middle" x="250" y="-73.2" font-family="Helvetica,sans-Serif" font-size="11.00">MagnificationConnectionManager$WindowMagnifier.isEnabled</text>
</g>
<!-- m::com.android.server.accessibility.magnification.MagnificationConnectionManager$WindowMagnifier.isEnabled:()Z&#45;&gt;__field__ -->
<g id="edge4" class="edge">
<title>m::com.android.server.accessibility.magnification.MagnificationConnectionManager$WindowMagnifier.isEnabled:()Z&#45;&gt;__field__</title>
<path fill="none" stroke="#dc2626" d="M428.02,-84.97C484.88,-88.12 548.12,-91.9 606,-96 610.5,-96.32 615.05,-96.65 619.64,-96.99"/>
<polygon fill="#dc2626" stroke="#dc2626" points="619.76,-99.8 627.95,-97.61 620.18,-94.22 619.76,-99.8"/>
<text text-anchor="middle" x="564" y="-98.8" font-family="Helvetica,sans-Serif" font-size="9.00" fill="#dc2626"> reads unguarded</text>
</g>
<!-- m::com.android.server.accessibility.magnification.MagnificationConnectionManager$WindowMagnifier.setScale:(F)V -->
<g id="node5" class="node">
<title>m::com.android.server.accessibility.magnification.MagnificationConnectionManager$WindowMagnifier.setScale:(F)V</title>
<path fill="#fee2e2" stroke="#dc2626" d="M413,-36C413,-36 87,-36 87,-36 81,-36 75,-30 75,-24 75,-24 75,-12 75,-12 75,-6 81,0 87,0 87,0 413,0 413,0 419,0 425,-6 425,-12 425,-12 425,-24 425,-24 425,-30 419,-36 413,-36"/>
<text text-anchor="middle" x="250" y="-15.2" font-family="Helvetica,sans-Serif" font-size="11.00">MagnificationConnectionManager$WindowMagnifier.setScale</text>
</g>
<!-- m::com.android.server.accessibility.magnification.MagnificationConnectionManager$WindowMagnifier.setScale:(F)V&#45;&gt;__field__ -->
<g id="edge5" class="edge">
<title>m::com.android.server.accessibility.magnification.MagnificationConnectionManager$WindowMagnifier.setScale:(F)V&#45;&gt;__field__</title>
<path fill="none" stroke="#dc2626" d="M424.44,-36.01C449.84,-39.28 475.63,-42.96 500,-47 576.33,-59.66 662.42,-78.69 723.7,-93.07"/>
<polygon fill="#dc2626" stroke="#dc2626" points="723.38,-95.87 731.81,-94.98 724.66,-90.42 723.38,-95.87"/>
<text text-anchor="middle" x="564" y="-68.8" font-family="Helvetica,sans-Serif" font-size="9.00" fill="#dc2626"> reads unguarded</text>
</g>
</g>
</svg>
