<?xml version="1.0" encoding="UTF-8" standalone="no"?>
<!DOCTYPE svg PUBLIC "-//W3C//DTD SVG 1.1//EN"
 "http://www.w3.org/Graphics/SVG/1.1/DTD/svg11.dtd">
<!-- Generated by graphviz version 2.43.0 (0)
 -->
<!-- Title: race Pages: 1 -->
<svg width="696pt" height="102pt"
 viewBox="0.00 0.00 696.00 102.00" xmlns="http://www.w3.org/2000/svg" xmlns:xlink="http://www.w3.org/1999/xlink">
<g id="graph0" class="graph" transform="scale(1 1) rotate(0) translate(4 98)">
<title>race</title>
<polygon fill="white" stroke="transparent" points="-4,4 -4,-98 692,-98 692,4 -4,4"/>
<!-- __field__ -->
<g id="node1" class="node">
<title>__field__</title>
<path fill="#fef9c3" stroke="#ca8a04" stroke-width="2" d="M676,-65C676,-65 469,-65 469,-65 463,-65 457,-59 457,-53 457,-53 457,-41 457,-41 457,-35 463,-29 469,-29 469,-29 676,-29 676,-29 682,-29 688,-35 688,-41 688,-41 688,-53 688,-53 688,-59 682,-65 676,-65"/>
<text text-anchor="middle" x="572.5" y="-44.2" font-family="Helvetica,sans-Serif" font-size="11.00">AppPredictionPerUserService.mZombie</text>
</g>
<!-- __guard__ -->
<g id="node2" class="node">
<title>__guard__</title>
<path fill="#dcfce7" stroke="#16a34a" stroke-width="2" d="M266,-94C266,-94 63,-94 63,-94 57,-94 51,-88 51,-82 51,-82 51,-70 51,-70 51,-64 57,-58 63,-58 63,-58 266,-58 266,-58 272,-58 278,-64 278,-70 278,-70 278,-82 278,-82 278,-88 272,-94 266,-94"/>
<text text-anchor="middle" x="164.5" y="-73.2" font-family="Helvetica,sans-Serif" font-size="11.00">AbstractPerUserSystemService.mLock</text>
</g>
<!-- __guard__&#45;&gt;__field__ -->
<g id="edge1" class="edge">
<title>__guard__&#45;&gt;__field__</title>
<path fill="none" stroke="#16a34a" stroke-width="1.6" d="M278.05,-67.96C331.07,-64.17 394.43,-59.65 448.68,-55.77"/>
<polygon fill="#16a34a" stroke="#16a34a" stroke-width="1.6" points="449.18,-58.54 456.96,-55.18 448.78,-52.96 449.18,-58.54"/>
<text text-anchor="middle" x="393" y="-64.8" font-family="Helvetica,sans-Serif" font-size="9.00" fill="#15803d"> guards 2/3</text>
</g>
<!-- m::com.android.server.appprediction.AppPredictionPerUserService.onConnectedStateChanged:(Z)V -->
<g id="node3" class="node">
<title>m::com.android.server.appprediction.AppPredictionPerUserService.onConnectedStateChanged:(Z)V</title>
<path fill="#fee2e2" stroke="#dc2626" d="M317,-36C317,-36 12,-36 12,-36 6,-36 0,-30 0,-24 0,-24 0,-12 0,-12 0,-6 6,0 12,0 12,0 317,0 317,0 323,0 329,-6 329,-12 329,-12 329,-24 329,-24 329,-30 323,-36 317,-36"/>
<text text-anchor="middle" x="164.5" y="-15.2" font-family="Helvetica,sans-Serif" font-size="11.00">AppPredictionPerUserService.onConnectedStateChanged</text>
</g>
<!-- m::com.android.server.appprediction.AppPredictionPerUserService.onConnectedStateChanged:(Z)V&#45;&gt;__field__ -->
<g id="edge2" class="edge">
<title>m::com.android.server.appprediction.AppPredictionPerUserService.onConnectedStateChanged:(Z)V&#45;&gt;__field__</title>
<path fill="none" stroke="#dc2626" d="M329.17,-29.69C368.99,-32.54 410.91,-35.53 448.48,-38.21"/>
<polygon fill="#dc2626" stroke="#dc2626" points="448.75,-41.04 456.93,-38.82 449.15,-35.45 448.75,-41.04"/>
<text text-anchor="middle" x="393" y="-38.8" font-family="Helvetica,sans-Serif" font-size="9.00" fill="#dc2626"> writes unguarded</text>
</g>
</g>
</svg>
