<?xml version="1.0" encoding="UTF-8" standalone="no"?>
<!DOCTYPE svg PUBLIC "-//W3C//DTD SVG 1.1//EN"
 "http://www.w3.org/Graphics/SVG/1.1/DTD/svg11.dtd">
<!-- Generated by graphviz version 2.43.0 (0)
 -->
<!-- Title: race Pages: 1 -->
<svg width="745pt" height="110pt"
 viewBox="0.00 0.00 745.00 110.00" xmlns="http://www.w3.org/2000/svg" xmlns:xlink="http://www.w3.org/1999/xlink">
<g id="graph0" class="graph" transform="scale(1 1) rotate(0) translate(4 106)">
<title>race</title>
<polygon fill="white" stroke="transparent" points="-4,4 -4,-106 741,-106 741,4 -4,4"/>
<!-- __field__ -->
<g id="node1" class="node">
<title>__field__</title>
<path fill="#fef9c3" stroke="#ca8a04" stroke-width="2" d="M725,-65C725,-65 445,-65 445,-65 439,-65 433,-59 433,-53 433,-53 433,-41 433,-41 433,-35 439,-29 445,-29 445,-29 725,-29 725,-29 731,-29 737,-35 737,-41 737,-41 737,-53 737,-53 737,-59 731,-65 725,-65"/>
<text text-anchor="middle" x="585" y="-44.2" font-family="Helvetica,sans-Serif" font-size="11.00">AlarmManagerService.mNextAlarmClockMayChange</text>
</g>
<!-- __guard__ -->
<g id="node2" class="node">
<title>__guard__</title>
<path fill="#dcfce7" stroke="#16a34a" stroke-width="2" d="M228.5,-102C228.5,-102 76.5,-102 76.5,-102 70.5,-102 64.5,-96 64.5,-90 64.5,-90 64.5,-78 64.5,-78 64.5,-72 70.5,-66 76.5,-66 76.5,-66 228.5,-66 228.5,-66 234.5,-66 240.5,-72 240.5,-78 240.5,-78 240.5,-90 240.5,-90 240.5,-96 234.5,-102 228.5,-102"/>
<text text-anchor="middle" x="152.5" y="-81.2" font-family="Helvetica,sans-Serif" font-size="11.00">AlarmManagerService.mLock</text>
</g>
<!-- __guard__&#45;&gt;__field__ -->
<g id="edge1" class="edge">
<title>__guard__&#45;&gt;__field__</title>
<path fill="none" stroke="#16a34a" stroke-width="1.6" d="M240.62,-76.51C293.41,-71.98 362.36,-66.05 424.61,-60.7"/>
<polygon fill="#16a34a" stroke="#16a34a" stroke-width="1.6" points="425.22,-63.46 432.95,-59.98 424.74,-57.88 425.22,-63.46"/>
<text text-anchor="middle" x="369" y="-70.8" font-family="Helvetica,sans-Serif" font-size="9.00" fill="#15803d"> guards 2/3</text>
</g>
<!-- m::com.android.server.alarm.AlarmManagerService.updateNextAlarmClockLocked:()V -->
<g id="node3" class="node">
<title>m::com.android.server.alarm.AlarmManagerService.updateNextAlarmClockLocked:()V</title>
<path fill="#fee2e2" stroke="#dc2626" d="M293,-36C293,-36 12,-36 12,-36 6,-36 0,-30 0,-24 0,-24 0,-12 0,-12 0,-6 6,0 12,0 12,0 293,0 293,0 299,0 305,-6 305,-12 305,-12 305,-24 305,-24 305,-30 299,-36 293,-36"/>
<text text-anchor="middle" x="152.5" y="-15.2" font-family="Helvetica,sans-Serif" font-size="11.00">AlarmManagerService.updateNextAlarmClockLocked</text>
</g>
<!-- m::com.android.server.alarm.AlarmManagerService.updateNextAlarmClockLocked:()V&#45;&gt;__field__ -->
<g id="edge2" class="edge">
<title>m::com.android.server.alarm.AlarmManagerService.updateNextAlarmClockLocked:()V&#45;&gt;__field__</title>
<path fill="none" stroke="#dc2626" d="M305.28,-28.22C343.92,-30.83 385.57,-33.63 424.58,-36.26"/>
<polygon fill="#dc2626" stroke="#dc2626" points="424.7,-39.08 432.87,-36.82 425.07,-33.49 424.7,-39.08"/>
<text text-anchor="middle" x="369" y="-37.8" font-family="Helvetica,sans-Serif" font-size="9.00" fill="#dc2626"> writes unguarded</text>
</g>
<!-- m::com.android.server.alarm.AlarmManagerService.updateNextAlarmClockLocked:()V&#45;&gt;__field__ -->
<g id="edge3" class="edge">
<title>m::com.android.server.alarm.AlarmManagerService.updateNextAlarmClockLocked:()V&#45;&gt;__field__</title>
<path fill="none" stroke="#dc2626" d="M305.2,-10.11C340.01,-9.84 376.84,-10.77 411,-14 439.68,-16.71 470.67,-21.89 498.4,-27.36"/>
<polygon fill="#dc2626" stroke="#dc2626" points="498.11,-30.16 506.51,-28.99 499.22,-24.67 498.11,-30.16"/>
<text text-anchor="middle" x="369" y="-16.8" font-family="Helvetica,sans-Serif" font-size="9.00" fill="#dc2626"> reads unguarded</text>
</g>
</g>
</svg>
