<?xml version="1.0" encoding="UTF-8" standalone="no"?>
<!DOCTYPE svg PUBLIC "-//W3C//DTD SVG 1.1//EN"
 "http://www.w3.org/Graphics/SVG/1.1/DTD/svg11.dtd">
<!-- Generated by graphviz version 2.43.0 (0)
 -->
<!-- Title: race Pages: 1 -->
<svg width="554pt" height="102pt"
 viewBox="0.00 0.00 554.00 102.00" xmlns="http://www.w3.org/2000/svg" xmlns:xlink="http://www.w3.org/1999/xlink">
<g id="graph0" class="graph" transform="scale(1 1) rotate(0) translate(4 98)">
<title>race</title>
<polygon fill="white" stroke="transparent" points="-4,4 -4,-98 550,-98 550,4 -4,4"/>
<!-- __field__ -->
<g id="node1" class="node">
<title>__field__</title>
<path fill="#fef9c3" stroke="#ca8a04" stroke-width="2" d="M534,-65C534,-65 341,-65 341,-65 335,-65 329,-59 329,-53 329,-53 329,-41 329,-41 329,-35 335,-29 341,-29 341,-29 534,-29 534,-29 540,-29 546,-35 546,-41 546,-41 546,-53 546,-53 546,-59 540,-65 534,-65"/>
<text text-anchor="middle" x="437.5" y="-44.2" font-family="Helvetica,sans-Serif" font-size="11.00">SecureChannel.mHandshakeContext</text>
</g>
<!-- __guard__ -->
<g id="node2" class="node">
<title>__guard__</title>
<path fill="#dcfce7" stroke="#16a34a" stroke-width="2" d="M187.5,-94C187.5,-94 13.5,-94 13.5,-94 7.5,-94 1.5,-88 1.5,-82 1.5,-82 1.5,-70 1.5,-70 1.5,-64 7.5,-58 13.5,-58 13.5,-58 187.5,-58 187.5,-58 193.5,-58 199.5,-64 199.5,-70 199.5,-70 199.5,-82 199.5,-82 199.5,-88 193.5,-94 187.5,-94"/>
<text text-anchor="middle" x="100.5" y="-73.2" font-family="Helvetica,sans-Serif" font-size="11.00">SecureChannel.mHandshakeLock</text>
</g>
<!-- __guard__&#45;&gt;__field__ -->
<g id="edge1" class="edge">
<title>__guard__&#45;&gt;__field__</title>
<path fill="none" stroke="#16a34a" stroke-width="1.6" d="M199.75,-67.49C237.6,-64.22 281.18,-60.45 320.54,-57.04"/>
<polygon fill="#16a34a" stroke="#16a34a" stroke-width="1.6" points="321.15,-59.8 328.88,-56.32 320.67,-54.22 321.15,-59.8"/>
<text text-anchor="middle" x="265" y="-66.8" font-family="Helvetica,sans-Serif" font-size="9.00" fill="#15803d"> guards 2/3</text>
</g>
<!-- m::com.android.server.companion.securechannel.SecureChannel.initiateHandshake:()V -->
<g id="node3" class="node">
<title>m::com.android.server.companion.securechannel.SecureChannel.initiateHandshake:()V</title>
<path fill="#fee2e2" stroke="#dc2626" d="M189,-36C189,-36 12,-36 12,-36 6,-36 0,-30 0,-24 0,-24 0,-12 0,-12 0,-6 6,0 12,0 12,0 189,0 189,0 195,0 201,-6 201,-12 201,-12 201,-24 201,-24 201,-30 195,-36 189,-36"/>
<text text-anchor="middle" x="100.5" y="-15.2" font-family="Helvetica,sans-Serif" font-size="11.00">SecureChannel.initiateHandshake</text>
</g>
<!-- m::com.android.server.companion.securechannel.SecureChannel.initiateHandshake:()V&#45;&gt;__field__ -->
<g id="edge2" class="edge">
<title>m::com.android.server.companion.securechannel.SecureChannel.initiateHandshake:()V&#45;&gt;__field__</title>
<path fill="none" stroke="#dc2626" d="M201.1,-26.62C238.65,-29.87 281.67,-33.6 320.57,-36.96"/>
<polygon fill="#dc2626" stroke="#dc2626" points="320.6,-39.78 328.81,-37.68 321.08,-34.2 320.6,-39.78"/>
<text text-anchor="middle" x="265" y="-37.8" font-family="Helvetica,sans-Serif" font-size="9.00" fill="#dc2626"> writes unguarded</text>
</g>
</g>
</svg>
