<?xml version="1.0" encoding="UTF-8" standalone="no"?>
<!DOCTYPE svg PUBLIC "-//W3C//DTD SVG 1.1//EN"
 "http://www.w3.org/Graphics/SVG/1.1/DTD/svg11.dtd">
<!-- Generated by graphviz version 2.43.0 (0)
 -->
<!-- Title: race Pages: 1 -->
<svg width="845pt" height="276pt"
 viewBox="0.00 0.00 845.00 276.00" xmlns="http://www.w3.org/2000/svg" xmlns:xlink="http://www.w3.org/1999/xlink">
<g id="graph0" class="graph" transform="scale(1 1) rotate(0) translate(4 272)">
<title>race</title>
<polygon fill="white" stroke="transparent" points="-4,4 -4,-272 841,-272 841,4 -4,4"/>
<!-- __field__ -->
<g id="node1" class="node">
<title>__field__</title>
<path fill="#fef9c3" stroke="#ca8a04" stroke-width="2" d="M825,-131C825,-131 577,-131 577,-131 571,-131 565,-125 565,-119 565,-119 565,-107 565,-107 565,-101 571,-95 577,-95 577,-95 825,-95 825,-95 831,-95 837,-101 837,-107 837,-107 837,-119 837,-119 837,-125 831,-131 825,-131"/>
<text text-anchor="middle" x="701" y="-110.2" font-family="Helvetica,sans-Serif" font-size="11.00">ActiveAdmin.mManagedProfileContactsAccess</text>
</g>
<!-- __guard__ -->
<g id="node2" class="node">
<title>__guard__</title>
<path fill="#dcfce7" stroke="#16a34a" stroke-width="2" d="M360,-268C360,-268 77,-268 77,-268 71,-268 65,-262 65,-256 65,-256 65,-244 65,-244 65,-238 71,-232 77,-232 77,-232 360,-232 360,-232 366,-232 372,-238 372,-244 372,-244 372,-256 372,-256 372,-262 366,-268 360,-268"/>
<text text-anchor="middle" x="218.5" y="-247.2" font-family="Helvetica,sans-Serif" font-size="11.00">DevicePolicyManagerService.mLockDoNoUseDirectly</text>
</g>
<!-- __guard__&#45;&gt;__field__ -->
<g id="edge1" class="edge">
<title>__guard__&#45;&gt;__field__</title>
<path fill="none" stroke="#16a34a" stroke-width="1.6" d="M372.01,-234.74C394,-231.07 416.21,-226.56 437,-221 517.45,-199.5 606.08,-159.44 657.17,-134.61"/>
<polygon fill="#16a34a" stroke="#16a34a" stroke-width="1.6" points="658.48,-137.09 664.44,-131.06 656.02,-132.06 658.48,-137.09"/>
<text text-anchor="middle" x="501" y="-216.8" font-family="Helvetica,sans-Serif" font-size="9.00" fill="#15803d"> guards 3/4</text>
</g>
<!-- m::com.android.server.devicepolicy.ActiveAdmin.readFromXml:(Lcom/android/modules/utils/TypedXmlPullParser;Z)V -->
<g id="node3" class="node">
<title>m::com.android.server.devicepolicy.ActiveAdmin.readFromXml:(Lcom/android/modules/utils/TypedXmlPullParser;Z)V</title>
<path fill="#fee2e2" stroke="#dc2626" d="M287.5,-210C287.5,-210 149.5,-210 149.5,-210 143.5,-210 137.5,-204 137.5,-198 137.5,-198 137.5,-186 137.5,-186 137.5,-180 143.5,-174 149.5,-174 149.5,-174 287.5,-174 287.5,-174 293.5,-174 299.5,-180 299.5,-186 299.5,-186 299.5,-198 299.5,-198 299.5,-204 293.5,-210 287.5,-210"/>
<text text-anchor="middle" x="218.5" y="-189.2" font-family="Helvetica,sans-Serif" font-size="11.00">ActiveAdmin.readFromXml</text>
</g>
<!-- m::com.android.server.devicepolicy.ActiveAdmin.readFromXml:(Lcom/android/modules/utils/TypedXmlPullParser;Z)V&#45;&gt;__field__ -->
<g id="edge2" class="edge">
<title>m::com.android.server.devicepolicy.ActiveAdmin.readFromXml:(Lcom/android/modules/utils/TypedXmlPullParser;Z)V&#45;&gt;__field__</title>
<path fill="none" stroke="#dc2626" d="M299.71,-182.38C340.84,-177.18 391.68,-170.32 437,-163 492.53,-154.03 554.33,-142.36 604.07,-132.56"/>
<polygon fill="#dc2626" stroke="#dc2626" points="604.64,-135.3 611.95,-131 603.56,-129.81 604.64,-135.3"/>
<text text-anchor="middle" x="501" y="-160.8" font-family="Helvetica,sans-Serif" font-size="9.00" fill="#dc2626"> writes unguarded</text>
</g>
<!-- m::com.android.server.devicepolicy.ActiveAdmin.writeToXml:(Lcom/android/modules/utils/TypedXmlSerializer;)V -->
<g id="node4" class="node">
<title>m::com.android.server.devicepolicy.ActiveAdmin.writeToXml:(Lcom/android/modules/utils/TypedXmlSerializer;)V</title>
<path fill="#fee2e2" stroke="#dc2626" d="M281,-152C281,-152 156,-152 156,-152 150,-152 144,-146 144,-140 144,-140 144,-128 144,-128 144,-122 150,-116 156,-116 156,-116 281,-116 281,-116 287,-116 293,-122 293,-128 293,-128 293,-140 293,-140 293,-146 287,-152 281,-152"/>
<text text-anchor="middle" x="218.5" y="-131.2" font-family="Helvetica,sans-Serif" font-size="11.00">ActiveAdmin.writeToXml</text>
</g>
<!-- m::com.android.server.devicepolicy.ActiveAdmin.writeToXml:(Lcom/android/modules/utils/TypedXmlSerializer;)V&#45;&gt;__field__ -->
<g id="edge3" class="edge">
<title>m::com.android.server.devicepolicy.ActiveAdmin.writeToXml:(Lcom/android/modules/utils/TypedXmlSerializer;)V&#45;&gt;__field__</title>
<path fill="none" stroke="#dc2626" d="M293,-130.79C362.85,-127.73 469.82,-123.06 556.56,-119.27"/>
<polygon fill="#dc2626" stroke="#dc2626" points="556.75,-122.06 564.62,-118.92 556.51,-116.47 556.75,-122.06"/>
<text text-anchor="middle" x="501" y="-125.8" font-family="Helvetica,sans-Serif" font-size="9.00" fill="#dc2626"> reads unguarded</text>
</g>
<!-- m::com.android.server.devicepolicy.DevicePolicyManagerService.getCrossProfileContactsSearchDisabled:(Landroid/content/ComponentName;)Z -->
<g id="node5" class="node">
<title>m::com.android.server.devicepolicy.DevicePolicyManagerService.getCrossProfileContactsSearchDisabled:(Landroid/content/ComponentName;)Z</title>
<path fill="#fee2e2" stroke="#dc2626" d="M404,-94C404,-94 33,-94 33,-94 27,-94 21,-88 21,-82 21,-82 21,-70 21,-70 21,-64 27,-58 33,-58 33,-58 404,-58 404,-58 410,-58 416,-64 416,-70 416,-70 416,-82 416,-82 416,-88 410,-94 404,-94"/>
<text text-anchor="middle" x="218.5" y="-73.2" font-family="Helvetica,sans-Serif" font-size="11.00">DevicePolicyManagerService.getCrossProfileContactsSearchDisabled</text>
</g>
<!-- m::com.android.server.devicepolicy.DevicePolicyManagerService.getCrossProfileContactsSearchDisabled:(Landroid/content/ComponentName;)Z&#45;&gt;__field__ -->
<g id="edge4" class="edge">
<title>m::com.android.server.devicepolicy.DevicePolicyManagerService.getCrossProfileContactsSearchDisabled:(Landroid/content/ComponentName;)Z&#45;&gt;__field__</title>
<path fill="none" stroke="#dc2626" d="M416.32,-91.16C463.29,-94.77 512.55,-98.57 556.59,-101.96"/>
<polygon fill="#dc2626" stroke="#dc2626" points="556.56,-104.76 564.75,-102.59 556.99,-99.18 556.56,-104.76"/>
<text text-anchor="middle" x="501" y="-101.8" font-family="Helvetica,sans-Serif" font-size="9.00" fill="#dc2626"> reads unguarded</text>
</g>
<!-- m::com.android.server.devicepolicy.DevicePolicyManagerService.getCrossProfileContactsSearchDisabledForUser:(I)Z -->
<g id="node6" class="node">
<title>m::com.android.server.devicepolicy.DevicePolicyManagerService.getCrossProfileContactsSearchDisabledForUser:(I)Z</title>
<path fill="#fee2e2" stroke="#dc2626" d="M425,-36C425,-36 12,-36 12,-36 6,-36 0,-30 0,-24 0,-24 0,-12 0,-12 0,-6 6,0 12,0 12,0 425,0 425,0 431,0 437,-6 437,-12 437,-12 437,-24 437,-24 437,-30 431,-36 425,-36"/>
<text text-anchor="middle" x="218.5" y="-15.2" font-family="Helvetica,sans-Serif" font-size="11.00">DevicePolicyManagerService.getCrossProfileContactsSearchDisabledForUser</text>
</g>
<!-- m::com.android.server.devicepolicy.DevicePolicyManagerService.getCrossProfileContactsSearchDisabledForUser:(I)Z&#45;&gt;__field__ -->
<g id="edge5" class="edge">
<title>m::com.android.server.devicepolicy.DevicePolicyManagerService.getCrossProfileContactsSearchDisabledForUser:(I)Z&#45;&gt;__field__</title>
<path fill="none" stroke="#dc2626" d="M371.38,-36.01C393.46,-39.28 415.86,-42.95 437,-47 502.53,-59.55 576.11,-78.43 628.74,-92.79"/>
<polygon fill="#dc2626" stroke="#dc2626" points="628.22,-95.55 636.68,-94.96 629.7,-90.15 628.22,-95.55"/>
<text text-anchor="middle" x="501" y="-71.8" font-family="Helvetica,sans-Serif" font-size="9.00" fill="#dc2626"> reads unguarded</text>
</g>
<!-- m::com.android.server.devicepolicy.DevicePolicyManagerService.getCrossProfileContactsSearchDisabledForUser:(I)Z&#45;&gt;__field__ -->
<g id="edge6" class="edge">
<title>m::com.android.server.devicepolicy.DevicePolicyManagerService.getCrossProfileContactsSearchDisabledForUser:(I)Z&#45;&gt;__field__</title>
<path fill="none" stroke="#dc2626" d="M437.11,-19.05C472.86,-22.56 509.24,-28.21 543,-37 587.09,-48.48 633.58,-72.71 664.42,-90.75"/>
<polygon fill="#dc2626" stroke="#dc2626" points="663.22,-93.29 671.53,-94.95 666.07,-88.47 663.22,-93.29"/>
<text text-anchor="middle" x="501" y="-39.8" font-family="Helvetica,sans-Serif" font-size="9.00" fill="#dc2626"> reads unguarded</text>
</g>
</g>
</svg>
