<?xml version="1.0" encoding="UTF-8" standalone="no"?>
<!DOCTYPE svg PUBLIC "-//W3C//DTD SVG 1.1//EN"
 "http://www.w3.org/Graphics/SVG/1.1/DTD/svg11.dtd">
<!-- Generated by graphviz version 2.43.0 (0)
 -->
<!-- Title: race Pages: 1 -->
<svg width="807pt" height="484pt"
 viewBox="0.00 0.00 807.00 484.30" xmlns="http://www.w3.org/2000/svg" xmlns:xlink="http://www.w3.org/1999/xlink">
<g id="graph0" class="graph" transform="scale(1 1) rotate(0) translate(4 480.3)">
<title>race</title>
<polygon fill="white" stroke="transparent" points="-4,4 -4,-480.3 803,-480.3 803,4 -4,4"/>
<!-- __field__ -->
<g id="node1" class="node">
<title>__field__</title>
<path fill="#fef9c3" stroke="#ca8a04" stroke-width="2" d="M787,-225.3C787,-225.3 585,-225.3 585,-225.3 579,-225.3 573,-219.3 573,-213.3 573,-213.3 573,-201.3 573,-201.3 573,-195.3 579,-189.3 585,-189.3 585,-189.3 787,-189.3 787,-189.3 793,-189.3 799,-195.3 799,-201.3 799,-201.3 799,-213.3 799,-213.3 799,-219.3 793,-225.3 787,-225.3"/>
<text text-anchor="middle" x="686" y="-204.5" font-family="Helvetica,sans-Serif" font-size="11.00">AppWidgetServiceImpl$Host.callbacks</text>
</g>
<!-- __guard__ -->
<g id="node2" class="node">
<title>__guard__</title>
<path fill="#dcfce7" stroke="#16a34a" stroke-width="2" d="M300,-476.3C300,-476.3 145,-476.3 145,-476.3 139,-476.3 133,-470.3 133,-464.3 133,-464.3 133,-452.3 133,-452.3 133,-446.3 139,-440.3 145,-440.3 145,-440.3 300,-440.3 300,-440.3 306,-440.3 312,-446.3 312,-452.3 312,-452.3 312,-464.3 312,-464.3 312,-470.3 306,-476.3 300,-476.3"/>
<text text-anchor="middle" x="222.5" y="-455.5" font-family="Helvetica,sans-Serif" font-size="11.00">AppWidgetServiceImpl.mLock</text>
</g>
<!-- __guard__&#45;&gt;__field__ -->
<g id="edge1" class="edge">
<title>__guard__&#45;&gt;__field__</title>
<path fill="none" stroke="#16a34a" stroke-width="1.6" d="M312.01,-456.94C383.51,-451.52 483.07,-433.66 551,-379.3 604.12,-336.8 648.7,-269.2 670.55,-232.69"/>
<polygon fill="#16a34a" stroke="#16a34a" stroke-width="1.6" points="673.2,-233.71 674.86,-225.4 668.38,-230.86 673.2,-233.71"/>
<text text-anchor="middle" x="509" y="-426.1" font-family="Helvetica,sans-Serif" font-size="9.00" fill="#15803d"> guards 7/9</text>
</g>
<!-- m::com.android.server.appwidget.AppWidgetServiceImpl.deleteHostLocked:(Lcom/android/server/appwidget/AppWidgetServiceImpl$Host;)V -->
<g id="node3" class="node">
<title>m::com.android.server.appwidget.AppWidgetServiceImpl.deleteHostLocked:(Lcom/android/server/appwidget/AppWidgetServiceImpl$Host;)V</title>
<path fill="#fee2e2" stroke="#dc2626" d="M331.5,-418.3C331.5,-418.3 113.5,-418.3 113.5,-418.3 107.5,-418.3 101.5,-412.3 101.5,-406.3 101.5,-406.3 101.5,-394.3 101.5,-394.3 101.5,-388.3 107.5,-382.3 113.5,-382.3 113.5,-382.3 331.5,-382.3 331.5,-382.3 337.5,-382.3 343.5,-388.3 343.5,-394.3 343.5,-394.3 343.5,-406.3 343.5,-406.3 343.5,-412.3 337.5,-418.3 331.5,-418.3"/>
<text text-anchor="middle" x="222.5" y="-397.5" font-family="Helvetica,sans-Serif" font-size="11.00">AppWidgetServiceImpl.deleteHostLocked</text>
</g>
<!-- m::com.android.server.appwidget.AppWidgetServiceImpl.deleteHostLocked:(Lcom/android/server/appwidget/AppWidgetServiceImpl$Host;)V&#45;&gt;__field__ -->
<g id="edge2" class="edge">
<title>m::com.android.server.appwidget.AppWidgetServiceImpl.deleteHostLocked:(Lcom/android/server/appwidget/AppWidgetServiceImpl$Host;)V&#45;&gt;__field__</title>
<path fill="none" stroke="#dc2626" d="M343.75,-390.92C376.94,-386.62 412.7,-380.37 445,-371.3 494.62,-357.37 507.55,-352 551,-324.3 593.67,-297.1 636.62,-256.78 662,-231.29"/>
<polygon fill="#dc2626" stroke="#dc2626" points="664.13,-233.11 667.76,-225.45 660.15,-229.18 664.13,-233.11"/>
<text text-anchor="middle" x="509" y="-367.1" font-family="Helvetica,sans-Serif" font-size="9.00" fill="#dc2626"> writes unguarded</text>
</g>
<!-- m::com.android.server.appwidget.AppWidgetServiceImpl.startListening:(Lcom/android/internal/appwidget/IAppWidgetHost;Ljava/lang/String;I[I)Landroid/content/pm/ParceledListSlice; -->
<g id="node4" class="node">
<title>m::com.android.server.appwidget.AppWidgetServiceImpl.startListening:(Lcom/android/internal/appwidget/IAppWidgetHost;Ljava/lang/String;I[I)Landroid/content/pm/ParceledListSlice;</title>
<path fill="#fee2e2" stroke="#dc2626" d="M320,-360.3C320,-360.3 125,-360.3 125,-360.3 119,-360.3 113,-354.3 113,-348.3 113,-348.3 113,-336.3 113,-336.3 113,-330.3 119,-324.3 125,-324.3 125,-324.3 320,-324.3 320,-324.3 326,-324.3 332,-330.3 332,-336.3 332,-336.3 332,-348.3 332,-348.3 332,-354.3 326,-360.3 320,-360.3"/>
<text text-anchor="middle" x="222.5" y="-339.5" font-family="Helvetica,sans-Serif" font-size="11.00">AppWidgetServiceImpl.startListening</text>
</g>
<!-- m::com.android.server.appwidget.AppWidgetServiceImpl.startListening:(Lcom/android/internal/appwidget/IAppWidgetHost;Ljava/lang/String;I[I)Landroid/content/pm/ParceledListSlice;&#45;&gt;__field__ -->
<g id="edge3" class="edge">
<title>m::com.android.server.appwidget.AppWidgetServiceImpl.startListening:(Lcom/android/internal/appwidget/IAppWidgetHost;Ljava/lang/String;I[I)Landroid/content/pm/ParceledListSlice;&#45;&gt;__field__</title>
<path fill="none" stroke="#dc2626" d="M332.29,-335.02C397.68,-327.76 481.43,-313.25 551,-284.3 586.93,-269.35 625.16,-246.62 651.55,-229.73"/>
<polygon fill="#dc2626" stroke="#dc2626" points="653.13,-232.05 658.33,-225.35 650.09,-227.34 653.13,-232.05"/>
<text text-anchor="middle" x="509" y="-312.1" font-family="Helvetica,sans-Serif" font-size="9.00" fill="#dc2626"> writes unguarded</text>
</g>
<!-- m::com.android.server.appwidget.AppWidgetServiceImpl.pruneHostLocked:(Lcom/android/server/appwidget/AppWidgetServiceImpl$Host;)V -->
<g id="node5" class="node">
<title>m::com.android.server.appwidget.AppWidgetServiceImpl.pruneHostLocked:(Lcom/android/server/appwidget/AppWidgetServiceImpl$Host;)V</title>
<path fill="#fee2e2" stroke="#dc2626" d="M330,-302.3C330,-302.3 115,-302.3 115,-302.3 109,-302.3 103,-296.3 103,-290.3 103,-290.3 103,-278.3 103,-278.3 103,-272.3 109,-266.3 115,-266.3 115,-266.3 330,-266.3 330,-266.3 336,-266.3 342,-272.3 342,-278.3 342,-278.3 342,-290.3 342,-290.3 342,-296.3 336,-302.3 330,-302.3"/>
<text text-anchor="middle" x="222.5" y="-281.5" font-family="Helvetica,sans-Serif" font-size="11.00">AppWidgetServiceImpl.pruneHostLocked</text>
</g>
<!-- m::com.android.server.appwidget.AppWidgetServiceImpl.pruneHostLocked:(Lcom/android/server/appwidget/AppWidgetServiceImpl$Host;)V&#45;&gt;__field__ -->
<g id="edge4" class="edge">
<title>m::com.android.server.appwidget.AppWidgetServiceImpl.pruneHostLocked:(Lcom/android/server/appwidget/AppWidgetServiceImpl$Host;)V&#45;&gt;__field__</title>
<path fill="none" stroke="#dc2626" d="M342.12,-281.73C404.83,-278.48 482.75,-271.41 551,-256.3 580.26,-249.82 611.79,-238.52 636.91,-228.41"/>
<polygon fill="#dc2626" stroke="#dc2626" points="638.15,-230.93 644.49,-225.31 636.03,-225.74 638.15,-230.93"/>
<text text-anchor="middle" x="509" y="-272.1" font-family="Helvetica,sans-Serif" font-size="9.00" fill="#dc2626"> reads unguarded</text>
</g>
<!-- m::com.android.server.appwidget.AppWidgetServiceImpl.scheduleNotifyAppWidgetRemovedLocked:(Lcom/android/server/appwidget/AppWidgetServiceImpl$Widget;)V -->
<g id="node6" class="node">
<title>m::com.android.server.appwidget.AppWidgetServiceImpl.scheduleNotifyAppWidgetRemovedLocked:(Lcom/android/server/appwidget/AppWidgetServiceImpl$Widget;)V</title>
<path fill="#fee2e2" stroke="#dc2626" d="M397.5,-244.3C397.5,-244.3 47.5,-244.3 47.5,-244.3 41.5,-244.3 35.5,-238.3 35.5,-232.3 35.5,-232.3 35.5,-220.3 35.5,-220.3 35.5,-214.3 41.5,-208.3 47.5,-208.3 47.5,-208.3 397.5,-208.3 397.5,-208.3 403.5,-208.3 409.5,-214.3 409.5,-220.3 409.5,-220.3 409.5,-232.3 409.5,-232.3 409.5,-238.3 403.5,-244.3 397.5,-244.3"/>
<text text-anchor="middle" x="222.5" y="-223.5" font-family="Helvetica,sans-Serif" font-size="11.00">AppWidgetServiceImpl.scheduleNotifyAppWidgetRemovedLocked</text>
</g>
<!-- m::com.android.server.appwidget.AppWidgetServiceImpl.scheduleNotifyAppWidgetRemovedLocked:(Lcom/android/server/appwidget/AppWidgetServiceImpl$Widget;)V&#45;&gt;__field__ -->
<g id="edge5" class="edge">
<title>m::com.android.server.appwidget.AppWidgetServiceImpl.scheduleNotifyAppWidgetRemovedLocked:(Lcom/android/server/appwidget/AppWidgetServiceImpl$Widget;)V&#45;&gt;__field__</title>
<path fill="none" stroke="#dc2626" d="M409.61,-241.81C455.9,-243.12 505.34,-242.35 551,-237.3 570.37,-235.16 591.03,-231.33 610.18,-227.1"/>
<polygon fill="#dc2626" stroke="#dc2626" points="610.82,-229.83 618.01,-225.34 609.59,-224.37 610.82,-229.83"/>
<text text-anchor="middle" x="509" y="-244.1" font-family="Helvetica,sans-Serif" font-size="9.00" fill="#dc2626"> reads unguarded</text>
</g>
<!-- m::com.android.server.appwidget.AppWidgetServiceImpl.scheduleNotifyAppWidgetRemovedLocked:(Lcom/android/server/appwidget/AppWidgetServiceImpl$Widget;)V&#45;&gt;__field__ -->
<g id="edge6" class="edge">
<title>m::com.android.server.appwidget.AppWidgetServiceImpl.scheduleNotifyAppWidgetRemovedLocked:(Lcom/android/server/appwidget/AppWidgetServiceImpl$Widget;)V&#45;&gt;__field__</title>
<path fill="none" stroke="#dc2626" d="M409.55,-218.64C461.84,-216.49 517.32,-214.2 564.68,-212.25"/>
<polygon fill="#dc2626" stroke="#dc2626" points="564.94,-215.05 572.81,-211.92 564.71,-209.45 564.94,-215.05"/>
<text text-anchor="middle" x="509" y="-218.1" font-family="Helvetica,sans-Serif" font-size="9.00" fill="#dc2626"> reads unguarded</text>
</g>
<!-- m::com.android.server.appwidget.AppWidgetServiceImpl.scheduleNotifyGroupHostsForProvidersChangedLocked:(I)V -->
<g id="node7" class="node">
<title>m::com.android.server.appwidget.AppWidgetServiceImpl.scheduleNotifyGroupHostsForProvidersChangedLocked:(I)V</title>
<path fill="#fee2e2" stroke="#dc2626" d="M433,-178.3C433,-178.3 12,-178.3 12,-178.3 6,-178.3 0,-172.3 0,-166.3 0,-166.3 0,-154.3 0,-154.3 0,-148.3 6,-142.3 12,-142.3 12,-142.3 433,-142.3 433,-142.3 439,-142.3 445,-148.3 445,-154.3 445,-154.3 445,-166.3 445,-166.3 445,-172.3 439,-178.3 433,-178.3"/>
<text text-anchor="middle" x="222.5" y="-157.5" font-family="Helvetica,sans-Serif" font-size="11.00">AppWidgetServiceImpl.scheduleNotifyGroupHostsForProvidersChangedLocked</text>
</g>
<!-- m::com.android.server.appwidget.AppWidgetServiceImpl.scheduleNotifyGroupHostsForProvidersChangedLocked:(I)V&#45;&gt;__field__ -->
<g id="edge7" class="edge">
<title>m::com.android.server.appwidget.AppWidgetServiceImpl.scheduleNotifyGroupHostsForProvidersChangedLocked:(I)V&#45;&gt;__field__</title>
<path fill="none" stroke="#dc2626" d="M400.28,-178.3C455.32,-183.91 514.7,-189.96 564.92,-195.07"/>
<polygon fill="#dc2626" stroke="#dc2626" points="564.66,-197.86 572.9,-195.88 565.22,-192.29 564.66,-197.86"/>
<text text-anchor="middle" x="509" y="-196.1" font-family="Helvetica,sans-Serif" font-size="9.00" fill="#dc2626"> reads unguarded</text>
</g>
<!-- m::com.android.server.appwidget.AppWidgetServiceImpl.scheduleNotifyGroupHostsForProvidersChangedLocked:(I)V&#45;&gt;__field__ -->
<g id="edge8" class="edge">
<title>m::com.android.server.appwidget.AppWidgetServiceImpl.scheduleNotifyGroupHostsForProvidersChangedLocked:(I)V&#45;&gt;__field__</title>
<path fill="none" stroke="#dc2626" d="M445.26,-158.92C480.76,-160.85 516.98,-164.09 551,-169.3 575.59,-173.06 602.05,-179.94 624.92,-186.82"/>
<polygon fill="#dc2626" stroke="#dc2626" points="624.38,-189.58 632.84,-189.25 626.02,-184.23 624.38,-189.58"/>
<text text-anchor="middle" x="509" y="-172.1" font-family="Helvetica,sans-Serif" font-size="9.00" fill="#dc2626"> reads unguarded</text>
</g>
<!-- m::com.android.server.appwidget.AppWidgetServiceImpl.scheduleNotifyProviderChangedLocked:(Lcom/android/server/appwidget/AppWidgetServiceImpl$Widget;)V -->
<g id="node8" class="node">
<title>m::com.android.server.appwidget.AppWidgetServiceImpl.scheduleNotifyProviderChangedLocked:(Lcom/android/server/appwidget/AppWidgetServiceImpl$Widget;)V</title>
<path fill="#fee2e2" stroke="#dc2626" d="M389,-115.3C389,-115.3 56,-115.3 56,-115.3 50,-115.3 44,-109.3 44,-103.3 44,-103.3 44,-91.3 44,-91.3 44,-85.3 50,-79.3 56,-79.3 56,-79.3 389,-79.3 389,-79.3 395,-79.3 401,-85.3 401,-91.3 401,-91.3 401,-103.3 401,-103.3 401,-109.3 395,-115.3 389,-115.3"/>
<text text-anchor="middle" x="222.5" y="-94.5" font-family="Helvetica,sans-Serif" font-size="11.00">AppWidgetServiceImpl.scheduleNotifyProviderChangedLocked</text>
</g>
<!-- m::com.android.server.appwidget.AppWidgetServiceImpl.scheduleNotifyProviderChangedLocked:(Lcom/android/server/appwidget/AppWidgetServiceImpl$Widget;)V&#45;&gt;__field__ -->
<g id="edge9" class="edge">
<title>m::com.android.server.appwidget.AppWidgetServiceImpl.scheduleNotifyProviderChangedLocked:(Lcom/android/server/appwidget/AppWidgetServiceImpl$Widget;)V&#45;&gt;__field__</title>
<path fill="none" stroke="#dc2626" d="M401.02,-113.84C450.22,-120.98 503.22,-131.07 551,-145.3 584.23,-155.2 619.76,-171.95 645.88,-185.55"/>
<polygon fill="#dc2626" stroke="#dc2626" points="644.61,-188.04 652.99,-189.29 647.22,-183.08 644.61,-188.04"/>
<text text-anchor="middle" x="509" y="-148.1" font-family="Helvetica,sans-Serif" font-size="9.00" fill="#dc2626"> reads unguarded</text>
</g>
<!-- m::com.android.server.appwidget.AppWidgetServiceImpl.scheduleNotifyProviderChangedLocked:(Lcom/android/server/appwidget/AppWidgetServiceImpl$Widget;)V&#45;&gt;__field__ -->
<g id="edge10" class="edge">
<title>m::com.android.server.appwidget.AppWidgetServiceImpl.scheduleNotifyProviderChangedLocked:(Lcom/android/server/appwidget/AppWidgetServiceImpl$Widget;)V&#45;&gt;__field__</title>
<path fill="none" stroke="#dc2626" d="M401.22,-85.62C450.8,-87.35 503.95,-94.02 551,-110.3 594.79,-125.45 636.6,-160.03 661.54,-183.53"/>
<polygon fill="#dc2626" stroke="#dc2626" points="659.8,-185.74 667.51,-189.25 663.67,-181.69 659.8,-185.74"/>
<text text-anchor="middle" x="509" y="-113.1" font-family="Helvetica,sans-Serif" font-size="9.00" fill="#dc2626"> reads unguarded</text>
</g>
<!-- m::com.android.server.appwidget.AppWidgetServiceImpl.scheduleNotifyUpdateAppWidgetLocked:(Lcom/android/server/appwidget/AppWidgetServiceImpl$Widget;Landroid/widget/RemoteViews;)V -->
<g id="node9" class="node">
<title>m::com.android.server.appwidget.AppWidgetServiceImpl.scheduleNotifyUpdateAppWidgetLocked:(Lcom/android/server/appwidget/AppWidgetServiceImpl$Widget;Landroid/widget/RemoteViews;)V</title>
<path fill="#fee2e2" stroke="#dc2626" d="M391.5,-41.3C391.5,-41.3 53.5,-41.3 53.5,-41.3 47.5,-41.3 41.5,-35.3 41.5,-29.3 41.5,-29.3 41.5,-17.3 41.5,-17.3 41.5,-11.3 47.5,-5.3 53.5,-5.3 53.5,-5.3 391.5,-5.3 391.5,-5.3 397.5,-5.3 403.5,-11.3 403.5,-17.3 403.5,-17.3 403.5,-29.3 403.5,-29.3 403.5,-35.3 397.5,-41.3 391.5,-41.3"/>
<text text-anchor="middle" x="222.5" y="-20.5" font-family="Helvetica,sans-Serif" font-size="11.00">AppWidgetServiceImpl.scheduleNotifyUpdateAppWidgetLocked</text>
</g>
<!-- m::com.android.server.appwidget.AppWidgetServiceImpl.scheduleNotifyUpdateAppWidgetLocked:(Lcom/android/server/appwidget/AppWidgetServiceImpl$Widget;Landroid/widget/RemoteViews;)V&#45;&gt;__field__ -->
<g id="edge11" class="edge">
<title>m::com.android.server.appwidget.AppWidgetServiceImpl.scheduleNotifyUpdateAppWidgetLocked:(Lcom/android/server/appwidget/AppWidgetServiceImpl$Widget;Landroid/widget/RemoteViews;)V&#45;&gt;__field__</title>
<path fill="none" stroke="#dc2626" d="M403.89,-32.45C453.51,-40.22 506,-53.6 551,-76.3 600.96,-101.51 644.27,-151.97 667.32,-182.38"/>
<polygon fill="#dc2626" stroke="#dc2626" points="665.17,-184.18 672.2,-188.92 669.66,-180.83 665.17,-184.18"/>
<text text-anchor="middle" x="509" y="-79.1" font-family="Helvetica,sans-Serif" font-size="9.00" fill="#dc2626"> reads unguarded</text>
</g>
<!-- m::com.android.server.appwidget.AppWidgetServiceImpl.scheduleNotifyUpdateAppWidgetLocked:(Lcom/android/server/appwidget/AppWidgetServiceImpl$Widget;Landroid/widget/RemoteViews;)V&#45;&gt;__field__ -->
<g id="edge12" class="edge">
<title>m::com.android.server.appwidget.AppWidgetServiceImpl.scheduleNotifyUpdateAppWidgetLocked:(Lcom/android/server/appwidget/AppWidgetServiceImpl$Widget;Landroid/widget/RemoteViews;)V&#45;&gt;__field__</title>
<path fill="none" stroke="#dc2626" d="M316.98,-5.29C385.52,3.19 478.82,4.58 551,-32.3 613.93,-64.46 655.8,-141.3 674.25,-181.61"/>
<polygon fill="#dc2626" stroke="#dc2626" points="671.8,-183 677.62,-189.17 676.92,-180.72 671.8,-183"/>
<text text-anchor="middle" x="509" y="-35.1" font-family="Helvetica,sans-Serif" font-size="9.00" fill="#dc2626"> reads unguarded</text>
</g>
</g>
</svg>
