<?xml version="1.0" encoding="UTF-8" standalone="no"?>
<!DOCTYPE svg PUBLIC "-//W3C//DTD SVG 1.1//EN"
 "http://www.w3.org/Graphics/SVG/1.1/DTD/svg11.dtd">
<!-- Generated by graphviz version 2.43.0 (0)
 -->
<!-- Title: race Pages: 1 -->
<svg width="617pt" height="160pt"
 viewBox="0.00 0.00 617.00 160.00" xmlns="http://www.w3.org/2000/svg" xmlns:xlink="http://www.w3.org/1999/xlink">
<g id="graph0" class="graph" transform="scale(1 1) rotate(0) translate(4 156)">
<title>race</title>
<polygon fill="white" stroke="transparent" points="-4,4 -4,-156 613,-156 613,4 -4,4"/>
<!-- __field__ -->
<g id="node1" class="node">
<title>__field__</title>
<path fill="#fef9c3" stroke="#ca8a04" stroke-width="2" d="M597,-94C597,-94 397,-94 397,-94 391,-94 385,-88 385,-82 385,-82 385,-70 385,-70 385,-64 391,-58 397,-58 397,-58 597,-58 597,-58 603,-58 609,-64 609,-70 609,-70 609,-82 609,-82 609,-88 603,-94 597,-94"/>
<text text-anchor="middle" x="497" y="-73.2" font-family="Helvetica,sans-Serif" font-size="11.00">SyncStorageEngine.mNextAuthorityId</text>
</g>
<!-- __guard__ -->
<g id="node2" class="node">
<title>__guard__</title>
<path fill="#dcfce7" stroke="#16a34a" stroke-width="2" d="M223.5,-152C223.5,-152 33.5,-152 33.5,-152 27.5,-152 21.5,-146 21.5,-140 21.5,-140 21.5,-128 21.5,-128 21.5,-122 27.5,-116 33.5,-116 33.5,-116 223.5,-116 223.5,-116 229.5,-116 235.5,-122 235.5,-128 235.5,-128 235.5,-140 235.5,-140 235.5,-146 229.5,-152 223.5,-152"/>
<text text-anchor="middle" x="128.5" y="-131.2" font-family="Helvetica,sans-Serif" font-size="11.00">ContentService.mSyncManagerLock</text>
</g>
<!-- __guard__&#45;&gt;__field__ -->
<g id="edge1" class="edge">
<title>__guard__&#45;&gt;__field__</title>
<path fill="none" stroke="#16a34a" stroke-width="1.6" d="M235.51,-117.22C279.68,-110.23 331.19,-102.08 376.68,-94.88"/>
<polygon fill="#16a34a" stroke="#16a34a" stroke-width="1.6" points="377.34,-97.61 384.81,-93.6 376.47,-92.08 377.34,-97.61"/>
<text text-anchor="middle" x="321" y="-112.8" font-family="Helvetica,sans-Serif" font-size="9.00" fill="#15803d"> guards 6/7</text>
</g>
<!-- m::com.android.server.content.SyncStorageEngine.createAuthorityLocked:(Lcom/android/server/content/SyncStorageEngine$EndPoint;IZ)Lcom/android/server/content/SyncStorageEngine$AuthorityInfo; -->
<g id="node3" class="node">
<title>m::com.android.server.content.SyncStorageEngine.createAuthorityLocked:(Lcom/android/server/content/SyncStorageEngine$EndPoint;IZ)Lcom/android/server/content/SyncStorageEngine$AuthorityInfo;</title>
<path fill="#fee2e2" stroke="#dc2626" d="M242,-94C242,-94 15,-94 15,-94 9,-94 3,-88 3,-82 3,-82 3,-70 3,-70 3,-64 9,-58 15,-58 15,-58 242,-58 242,-58 248,-58 254,-64 254,-70 254,-70 254,-82 254,-82 254,-88 248,-94 242,-94"/>
<text text-anchor="middle" x="128.5" y="-73.2" font-family="Helvetica,sans-Serif" font-size="11.00">SyncStorageEngine.createAuthorityLocked</text>
</g>
<!-- m::com.android.server.content.SyncStorageEngine.createAuthorityLocked:(Lcom/android/server/content/SyncStorageEngine$EndPoint;IZ)Lcom/android/server/content/SyncStorageEngine$AuthorityInfo;&#45;&gt;__field__ -->
<g id="edge2" class="edge">
<title>m::com.android.server.content.SyncStorageEngine.createAuthorityLocked:(Lcom/android/server/content/SyncStorageEngine$EndPoint;IZ)Lcom/android/server/content/SyncStorageEngine$AuthorityInfo;&#45;&gt;__field__</title>
<path fill="none" stroke="#dc2626" d="M254.09,-76C293.71,-76 337.42,-76 376.66,-76"/>
<polygon fill="#dc2626" stroke="#dc2626" points="376.96,-78.8 384.96,-76 376.96,-73.2 376.96,-78.8"/>
<text text-anchor="middle" x="321" y="-78.8" font-family="Helvetica,sans-Serif" font-size="9.00" fill="#dc2626"> writes unguarded</text>
</g>
<!-- m::com.android.server.content.SyncStorageEngine.createAuthorityLocked:(Lcom/android/server/content/SyncStorageEngine$EndPoint;IZ)Lcom/android/server/content/SyncStorageEngine$AuthorityInfo;&#45;&gt;__field__ -->
<g id="edge3" class="edge">
<title>m::com.android.server.content.SyncStorageEngine.createAuthorityLocked:(Lcom/android/server/content/SyncStorageEngine$EndPoint;IZ)Lcom/android/server/content/SyncStorageEngine$AuthorityInfo;&#45;&gt;__field__</title>
<path fill="none" stroke="#dc2626" d="M254.24,-62.54C262.61,-61.93 270.92,-61.4 279,-61 316.29,-59.13 325.73,-58.9 363,-61 367.42,-61.25 371.92,-61.54 376.47,-61.88"/>
<polygon fill="#dc2626" stroke="#dc2626" points="376.49,-64.69 384.68,-62.51 376.93,-59.1 376.49,-64.69"/>
<text text-anchor="middle" x="321" y="-63.8" font-family="Helvetica,sans-Serif" font-size="9.00" fill="#dc2626"> reads unguarded</text>
</g>
<!-- m::com.android.server.content.SyncStorageEngine.writeAccountInfoLocked:()V -->
<g id="node4" class="node">
<title>m::com.android.server.content.SyncStorageEngine.writeAccountInfoLocked:()V</title>
<path fill="#fee2e2" stroke="#dc2626" d="M245,-36C245,-36 12,-36 12,-36 6,-36 0,-30 0,-24 0,-24 0,-12 0,-12 0,-6 6,0 12,0 12,0 245,0 245,0 251,0 257,-6 257,-12 257,-12 257,-24 257,-24 257,-30 251,-36 245,-36"/>
<text text-anchor="middle" x="128.5" y="-15.2" font-family="Helvetica,sans-Serif" font-size="11.00">SyncStorageEngine.writeAccountInfoLocked</text>
</g>
<!-- m::com.android.server.content.SyncStorageEngine.writeAccountInfoLocked:()V&#45;&gt;__field__ -->
<g id="edge4" class="edge">
<title>m::com.android.server.content.SyncStorageEngine.writeAccountInfoLocked:()V&#45;&gt;__field__</title>
<path fill="none" stroke="#dc2626" d="M257.16,-29.29C291.64,-33.14 328.85,-38.01 363,-44 381.73,-47.28 401.75,-51.64 420.43,-56.08"/>
<polygon fill="#dc2626" stroke="#dc2626" points="419.91,-58.84 428.34,-57.99 421.22,-53.39 419.91,-58.84"/>
<text text-anchor="middle" x="321" y="-46.8" font-family="Helvetica,sans-Serif" font-size="9.00" fill="#dc2626"> reads unguarded</text>
</g>
</g>
</svg>
