<?xml version="1.0" encoding="UTF-8" standalone="no"?>
<!DOCTYPE svg PUBLIC "-//W3C//DTD SVG 1.1//EN"
 "http://www.w3.org/Graphics/SVG/1.1/DTD/svg11.dtd">
<!-- Generated by graphviz version 2.43.0 (0)
 -->
<!-- Title: race Pages: 1 -->
<svg width="1051pt" height="276pt"
 viewBox="0.00 0.00 1051.00 276.00" xmlns="http://www.w3.org/2000/svg" xmlns:xlink="http://www.w3.org/1999/xlink">
<g id="graph0" class="graph" transform="scale(1 1) rotate(0) translate(4 272)">
<title>race</title>
<polygon fill="white" stroke="transparent" points="-4,4 -4,-272 1047,-272 1047,4 -4,4"/>
<!-- __field__ -->
<g id="node1" class="node">
<title>__field__</title>
<path fill="#fef9c3" stroke="#ca8a04" stroke-width="2" d="M1031,-170C1031,-170 613,-170 613,-170 607,-170 601,-164 601,-158 601,-158 601,-146 601,-146 601,-140 607,-134 613,-134 613,-134 1031,-134 1031,-134 1037,-134 1043,-140 1043,-146 1043,-146 1043,-158 1043,-158 1043,-164 1037,-170 1031,-170"/>
<text text-anchor="middle" x="822" y="-149.2" font-family="Helvetica,sans-Serif" font-size="11.00">GameManagerService$GamePackageConfiguration.mBatteryModeOverridden</text>
</g>
<!-- __guard__ -->
<g id="node2" class="node">
<title>__guard__</title>
<path fill="#dcfce7" stroke="#16a34a" stroke-width="2" d="M348.5,-268C348.5,-268 124.5,-268 124.5,-268 118.5,-268 112.5,-262 112.5,-256 112.5,-256 112.5,-244 112.5,-244 112.5,-238 118.5,-232 124.5,-232 124.5,-232 348.5,-232 348.5,-232 354.5,-232 360.5,-238 360.5,-244 360.5,-244 360.5,-256 360.5,-256 360.5,-262 354.5,-268 348.5,-268"/>
<text text-anchor="middle" x="236.5" y="-247.2" font-family="Helvetica,sans-Serif" font-size="11.00">GameManagerService.mDeviceConfigLock</text>
</g>
<!-- __guard__&#45;&gt;__field__ -->
<g id="edge1" class="edge">
<title>__guard__&#45;&gt;__field__</title>
<path fill="none" stroke="#16a34a" stroke-width="1.6" d="M360.54,-236.36C396.83,-231.92 436.57,-226.67 473,-221 561.63,-207.2 662.05,-186.77 732.15,-171.72"/>
<polygon fill="#16a34a" stroke="#16a34a" stroke-width="1.6" points="732.89,-174.42 740.12,-170 731.71,-168.95 732.89,-174.42"/>
<text text-anchor="middle" x="537" y="-218.8" font-family="Helvetica,sans-Serif" font-size="9.00" fill="#15803d"> guards 2/3</text>
</g>
<!-- m::com.android.server.app.GameManagerService$GamePackageConfiguration.copyAndApplyOverride:(Lcom/android/server/app/GameManagerService$GamePackageConfiguration;)Lcom/android/server/app/GameManagerService$GamePackageConfiguration; -->
<g id="node3" class="node">
<title>m::com.android.server.app.GameManagerService$GamePackageConfiguration.copyAndApplyOverride:(Lcom/android/server/app/GameManagerService$GamePackageConfiguration;)Lcom/android/server/app/GameManagerService$GamePackageConfiguration;</title>
<path fill="#fee2e2" stroke="#dc2626" d="M437,-210C437,-210 36,-210 36,-210 30,-210 24,-204 24,-198 24,-198 24,-186 24,-186 24,-180 30,-174 36,-174 36,-174 437,-174 437,-174 443,-174 449,-180 449,-186 449,-186 449,-198 449,-198 449,-204 443,-210 437,-210"/>
<text text-anchor="middle" x="236.5" y="-189.2" font-family="Helvetica,sans-Serif" font-size="11.00">GameManagerService$GamePackageConfiguration.copyAndApplyOverride</text>
</g>
<!-- m::com.android.server.app.GameManagerService$GamePackageConfiguration.copyAndApplyOverride:(Lcom/android/server/app/GameManagerService$GamePackageConfiguration;)Lcom/android/server/app/GameManagerService$GamePackageConfiguration;&#45;&gt;__field__ -->
<g id="edge2" class="edge">
<title>m::com.android.server.app.GameManagerService$GamePackageConfiguration.copyAndApplyOverride:(Lcom/android/server/app/GameManagerService$GamePackageConfiguration;)Lcom/android/server/app/GameManagerService$GamePackageConfiguration;&#45;&gt;__field__</title>
<path fill="none" stroke="#dc2626" d="M449.44,-188.89C492.36,-187.39 537.16,-185.2 579,-182 613.68,-179.35 651.03,-175.31 685.76,-171.04"/>
<polygon fill="#dc2626" stroke="#dc2626" points="686.47,-173.78 694.06,-170.02 685.78,-168.22 686.47,-173.78"/>
<text text-anchor="middle" x="537" y="-188.8" font-family="Helvetica,sans-Serif" font-size="9.00" fill="#dc2626"> writes unguarded</text>
</g>
<!-- m::com.android.server.app.GameManagerService$GamePackageConfiguration.copyAndApplyOverride:(Lcom/android/server/app/GameManagerService$GamePackageConfiguration;)Lcom/android/server/app/GameManagerService$GamePackageConfiguration;&#45;&gt;__field__ -->
<g id="edge3" class="edge">
<title>m::com.android.server.app.GameManagerService$GamePackageConfiguration.copyAndApplyOverride:(Lcom/android/server/app/GameManagerService$GamePackageConfiguration;)Lcom/android/server/app/GameManagerService$GamePackageConfiguration;&#45;&gt;__field__</title>
<path fill="none" stroke="#dc2626" d="M449.31,-174.33C464.77,-173.16 480.12,-172.04 495,-171 526.54,-168.79 559.82,-166.65 592.57,-164.64"/>
<polygon fill="#dc2626" stroke="#dc2626" points="593.07,-167.42 600.88,-164.13 592.72,-161.83 593.07,-167.42"/>
<text text-anchor="middle" x="537" y="-173.8" font-family="Helvetica,sans-Serif" font-size="9.00" fill="#dc2626"> reads unguarded</text>
</g>
<!-- m::com.android.server.app.GameManagerService$GamePackageConfiguration.getAvailableGameModesBitfield:()I -->
<g id="node4" class="node">
<title>m::com.android.server.app.GameManagerService$GamePackageConfiguration.getAvailableGameModesBitfield:()I</title>
<path fill="#fee2e2" stroke="#dc2626" d="M461,-152C461,-152 12,-152 12,-152 6,-152 0,-146 0,-140 0,-140 0,-128 0,-128 0,-122 6,-116 12,-116 12,-116 461,-116 461,-116 467,-116 473,-122 473,-128 473,-128 473,-140 473,-140 473,-146 467,-152 461,-152"/>
<text text-anchor="middle" x="236.5" y="-131.2" font-family="Helvetica,sans-Serif" font-size="11.00">GameManagerService$GamePackageConfiguration.getAvailableGameModesBitfield</text>
</g>
<!-- m::com.android.server.app.GameManagerService$GamePackageConfiguration.getAvailableGameModesBitfield:()I&#45;&gt;__field__ -->
<g id="edge4" class="edge">
<title>m::com.android.server.app.GameManagerService$GamePackageConfiguration.getAvailableGameModesBitfield:()I&#45;&gt;__field__</title>
<path fill="none" stroke="#dc2626" d="M473.15,-131.71C508.63,-132.03 544.78,-132.73 579,-134 583.47,-134.17 587.99,-134.35 592.54,-134.55"/>
<polygon fill="#dc2626" stroke="#dc2626" points="592.66,-137.36 600.77,-134.92 592.91,-131.76 592.66,-137.36"/>
<text text-anchor="middle" x="537" y="-136.8" font-family="Helvetica,sans-Serif" font-size="9.00" fill="#dc2626"> reads unguarded</text>
</g>
<!-- m::com.android.server.app.GameManagerService$GamePackageConfiguration.getOverriddenGameModes:()[I -->
<g id="node5" class="node">
<title>m::com.android.server.app.GameManagerService$GamePackageConfiguration.getOverriddenGameModes:()[I</title>
<path fill="#fee2e2" stroke="#dc2626" d="M447.5,-94C447.5,-94 25.5,-94 25.5,-94 19.5,-94 13.5,-88 13.5,-82 13.5,-82 13.5,-70 13.5,-70 13.5,-64 19.5,-58 25.5,-58 25.5,-58 447.5,-58 447.5,-58 453.5,-58 459.5,-64 459.5,-70 459.5,-70 459.5,-82 459.5,-82 459.5,-88 453.5,-94 447.5,-94"/>
<text text-anchor="middle" x="236.5" y="-73.2" font-family="Helvetica,sans-Serif" font-size="11.00">GameManagerService$GamePackageConfiguration.getOverriddenGameModes</text>
</g>
<!-- m::com.android.server.app.GameManagerService$GamePackageConfiguration.getOverriddenGameModes:()[I&#45;&gt;__field__ -->
<g id="edge5" class="edge">
<title>m::com.android.server.app.GameManagerService$GamePackageConfiguration.getOverriddenGameModes:()[I&#45;&gt;__field__</title>
<path fill="none" stroke="#dc2626" d="M394.43,-94.04C452.46,-100.92 518.77,-109.03 579,-117 615.78,-121.87 655.65,-127.49 692.21,-132.78"/>
<polygon fill="#dc2626" stroke="#dc2626" points="692.13,-135.6 700.45,-133.98 692.93,-130.06 692.13,-135.6"/>
<text text-anchor="middle" x="537" y="-119.8" font-family="Helvetica,sans-Serif" font-size="9.00" fill="#dc2626"> reads unguarded</text>
</g>
<!-- m::com.android.server.app.GameManagerService$GamePackageConfiguration.willGamePerformOptimizations:(I)Z -->
<g id="node6" class="node">
<title>m::com.android.server.app.GameManagerService$GamePackageConfiguration.willGamePerformOptimizations:(I)Z</title>
<path fill="#fee2e2" stroke="#dc2626" d="M458.5,-36C458.5,-36 14.5,-36 14.5,-36 8.5,-36 2.5,-30 2.5,-24 2.5,-24 2.5,-12 2.5,-12 2.5,-6 8.5,0 14.5,0 14.5,0 458.5,0 458.5,0 464.5,0 470.5,-6 470.5,-12 470.5,-12 470.5,-24 470.5,-24 470.5,-30 464.5,-36 458.5,-36"/>
<text text-anchor="middle" x="236.5" y="-15.2" font-family="Helvetica,sans-Serif" font-size="11.00">GameManagerService$GamePackageConfiguration.willGamePerformOptimizations</text>
</g>
<!-- m::com.android.server.app.GameManagerService$GamePackageConfiguration.willGamePerformOptimizations:(I)Z&#45;&gt;__field__ -->
<g id="edge6" class="edge">
<title>m::com.android.server.app.GameManagerService$GamePackageConfiguration.willGamePerformOptimizations:(I)Z&#45;&gt;__field__</title>
<path fill="none" stroke="#dc2626" d="M411.36,-36C432.22,-39.17 453.15,-42.81 473,-47 577.05,-68.94 694.9,-107.49 763.3,-131.28"/>
<polygon fill="#dc2626" stroke="#dc2626" points="762.51,-133.97 770.98,-133.96 764.35,-128.68 762.51,-133.97"/>
<text text-anchor="middle" x="537" y="-72.8" font-family="Helvetica,sans-Serif" font-size="9.00" fill="#dc2626"> reads unguarded</text>
</g>
</g>
</svg>
