<?xml version="1.0" encoding="UTF-8" standalone="no"?>
<!DOCTYPE svg PUBLIC "-//W3C//DTD SVG 1.1//EN"
 "http://www.w3.org/Graphics/SVG/1.1/DTD/svg11.dtd">
<!-- Generated by graphviz version 2.43.0 (0)
 -->
<!-- Title: race Pages: 1 -->
<svg width="724pt" height="798pt"
 viewBox="0.00 0.00 724.00 798.00" xmlns="http://www.w3.org/2000/svg" xmlns:xlink="http://www.w3.org/1999/xlink">
<g id="graph0" class="graph" transform="scale(1 1) rotate(0) translate(4 794)">
<title>race</title>
<polygon fill="white" stroke="transparent" points="-4,4 -4,-794 720,-794 720,4 -4,4"/>
<!-- __field__ -->
<g id="node1" class="node">
<title>__field__</title>
<path fill="#fef9c3" stroke="#ca8a04" stroke-width="2" d="M704,-355C704,-355 550,-355 550,-355 544,-355 538,-349 538,-343 538,-343 538,-331 538,-331 538,-325 544,-319 550,-319 550,-319 704,-319 704,-319 710,-319 716,-325 716,-331 716,-331 716,-343 716,-343 716,-349 710,-355 704,-355"/>
<text text-anchor="middle" x="627" y="-334.2" font-family="Helvetica,sans-Serif" font-size="11.00">PermissionInfo.packageName</text>
</g>
<!-- __guard__ -->
<g id="node2" class="node">
<title>__guard__</title>
<path fill="#dcfce7" stroke="#16a34a" stroke-width="2" d="M294,-790C294,-790 116,-790 116,-790 110,-790 104,-784 104,-778 104,-778 104,-766 104,-766 104,-760 110,-754 116,-754 116,-754 294,-754 294,-754 300,-754 306,-760 306,-766 306,-766 306,-778 306,-778 306,-784 300,-790 294,-790"/>
<text text-anchor="middle" x="205" y="-769.2" font-family="Helvetica,sans-Serif" font-size="11.00">AccessCheckingService.stateLock</text>
</g>
<!-- __guard__&#45;&gt;__field__ -->
<g id="edge1" class="edge">
<title>__guard__&#45;&gt;__field__</title>
<path fill="none" stroke="#16a34a" stroke-width="1.6" d="M306.02,-778.23C374.6,-776.76 462.52,-762.57 516,-707 611.17,-608.1 624.47,-430.63 625.98,-363.61"/>
<polygon fill="#16a34a" stroke="#16a34a" stroke-width="1.6" points="628.79,-363.31 626.12,-355.27 623.19,-363.22 628.79,-363.31"/>
<text text-anchor="middle" x="474" y="-757.8" font-family="Helvetica,sans-Serif" font-size="9.00" fill="#15803d"> guards 3/4</text>
</g>
<!-- m::com.android.server.permission.access.permission.AppIdPermissionPersistence.parsePermission:(Lcom/android/modules/utils/BinaryXmlPullParser;Lcom/android/server/permission/access/immutable/MutableIndexedMap;)V -->
<g id="node3" class="node">
<title>m::com.android.server.permission.access.permission.AppIdPermissionPersistence.parsePermission:(Lcom/android/modules/utils/BinaryXmlPullParser;Lcom/android/server/permission/access/immutable/MutableIndexedMap;)V</title>
<path fill="#fee2e2" stroke="#dc2626" d="M324.5,-732C324.5,-732 85.5,-732 85.5,-732 79.5,-732 73.5,-726 73.5,-720 73.5,-720 73.5,-708 73.5,-708 73.5,-702 79.5,-696 85.5,-696 85.5,-696 324.5,-696 324.5,-696 330.5,-696 336.5,-702 336.5,-708 336.5,-708 336.5,-720 336.5,-720 336.5,-726 330.5,-732 324.5,-732"/>
<text text-anchor="middle" x="205" y="-711.2" font-family="Helvetica,sans-Serif" font-size="11.00">AppIdPermissionPersistence.parsePermission</text>
</g>
<!-- m::com.android.server.permission.access.permission.AppIdPermissionPersistence.parsePermission:(Lcom/android/modules/utils/BinaryXmlPullParser;Lcom/android/server/permission/access/immutable/MutableIndexedMap;)V&#45;&gt;__field__ -->
<g id="edge2" class="edge">
<title>m::com.android.server.permission.access.permission.AppIdPermissionPersistence.parsePermission:(Lcom/android/modules/utils/BinaryXmlPullParser;Lcom/android/server/permission/access/immutable/MutableIndexedMap;)V&#45;&gt;__field__</title>
<path fill="none" stroke="#dc2626" d="M336.88,-715.44C399.21,-709.09 470.01,-690.5 516,-643 594.26,-562.19 617.33,-421.78 623.72,-363.51"/>
<polygon fill="#dc2626" stroke="#dc2626" points="626.54,-363.46 624.57,-355.21 620.97,-362.88 626.54,-363.46"/>
<text text-anchor="middle" x="474" y="-694.8" font-family="Helvetica,sans-Serif" font-size="9.00" fill="#dc2626"> writes unguarded</text>
</g>
<!-- m::com.android.server.permission.access.permission.AppIdPermissionPersistence.parsePermissions:(Lcom/android/modules/utils/BinaryXmlPullParser;Lcom/android/server/permission/access/MutableAccessState;Z)V -->
<g id="node4" class="node">
<title>m::com.android.server.permission.access.permission.AppIdPermissionPersistence.parsePermissions:(Lcom/android/modules/utils/BinaryXmlPullParser;Lcom/android/server/permission/access/MutableAccessState;Z)V</title>
<path fill="#fee2e2" stroke="#dc2626" d="M327.5,-674C327.5,-674 82.5,-674 82.5,-674 76.5,-674 70.5,-668 70.5,-662 70.5,-662 70.5,-650 70.5,-650 70.5,-644 76.5,-638 82.5,-638 82.5,-638 327.5,-638 327.5,-638 333.5,-638 339.5,-644 339.5,-650 339.5,-650 339.5,-662 339.5,-662 339.5,-668 333.5,-674 327.5,-674"/>
<text text-anchor="middle" x="205" y="-653.2" font-family="Helvetica,sans-Serif" font-size="11.00">AppIdPermissionPersistence.parsePermissions</text>
</g>
<!-- m::com.android.server.permission.access.permission.AppIdPermissionPersistence.parsePermissions:(Lcom/android/modules/utils/BinaryXmlPullParser;Lcom/android/server/permission/access/MutableAccessState;Z)V&#45;&gt;__field__ -->
<g id="edge3" class="edge">
<title>m::com.android.server.permission.access.permission.AppIdPermissionPersistence.parsePermissions:(Lcom/android/modules/utils/BinaryXmlPullParser;Lcom/android/server/permission/access/MutableAccessState;Z)V&#45;&gt;__field__</title>
<path fill="none" stroke="#dc2626" d="M339.54,-653.2C400.8,-645.04 469.89,-625.04 516,-579 578.67,-516.42 609.19,-411.68 620.55,-363.15"/>
<polygon fill="#dc2626" stroke="#dc2626" points="623.29,-363.73 622.33,-355.31 617.83,-362.49 623.29,-363.73"/>
<text text-anchor="middle" x="474" y="-630.8" font-family="Helvetica,sans-Serif" font-size="9.00" fill="#dc2626"> reads unguarded</text>
</g>
<!-- m::com.android.server.permission.access.permission.AppIdPermissionPersistence.serializePermission:(Lcom/android/modules/utils/BinaryXmlSerializer;Lcom/android/server/permission/access/permission/Permission;)V -->
<g id="node5" class="node">
<title>m::com.android.server.permission.access.permission.AppIdPermissionPersistence.serializePermission:(Lcom/android/modules/utils/BinaryXmlSerializer;Lcom/android/server/permission/access/permission/Permission;)V</title>
<path fill="#fee2e2" stroke="#dc2626" d="M332,-616C332,-616 78,-616 78,-616 72,-616 66,-610 66,-604 66,-604 66,-592 66,-592 66,-586 72,-580 78,-580 78,-580 332,-580 332,-580 338,-580 344,-586 344,-592 344,-592 344,-604 344,-604 344,-610 338,-616 332,-616"/>
<text text-anchor="middle" x="205" y="-595.2" font-family="Helvetica,sans-Serif" font-size="11.00">AppIdPermissionPersistence.serializePermission</text>
</g>
<!-- m::com.android.server.permission.access.permission.AppIdPermissionPersistence.serializePermission:(Lcom/android/modules/utils/BinaryXmlSerializer;Lcom/android/server/permission/access/permission/Permission;)V&#45;&gt;__field__ -->
<g id="edge4" class="edge">
<title>m::com.android.server.permission.access.permission.AppIdPermissionPersistence.serializePermission:(Lcom/android/modules/utils/BinaryXmlSerializer;Lcom/android/server/permission/access/permission/Permission;)V&#45;&gt;__field__</title>
<path fill="none" stroke="#dc2626" d="M344.31,-589.67C403.49,-579.55 469.51,-558.59 516,-516 564.71,-471.37 599.56,-400.29 615.77,-362.53"/>
<polygon fill="#dc2626" stroke="#dc2626" points="618.42,-363.46 618.95,-355 613.26,-361.28 618.42,-363.46"/>
<text text-anchor="middle" x="474" y="-566.8" font-family="Helvetica,sans-Serif" font-size="9.00" fill="#dc2626"> reads unguarded</text>
</g>
<!-- m::com.android.server.permission.access.permission.PermissionService.dumpSystemState:(Landroid/util/IndentingPrintWriter;Lcom/android/server/permission/access/AccessState;)V -->
<g id="node6" class="node">
<title>m::com.android.server.permission.access.permission.PermissionService.dumpSystemState:(Landroid/util/IndentingPrintWriter;Lcom/android/server/permission/access/AccessState;)V</title>
<path fill="#fee2e2" stroke="#dc2626" d="M303.5,-558C303.5,-558 106.5,-558 106.5,-558 100.5,-558 94.5,-552 94.5,-546 94.5,-546 94.5,-534 94.5,-534 94.5,-528 100.5,-522 106.5,-522 106.5,-522 303.5,-522 303.5,-522 309.5,-522 315.5,-528 315.5,-534 315.5,-534 315.5,-546 315.5,-546 315.5,-552 309.5,-558 303.5,-558"/>
<text text-anchor="middle" x="205" y="-537.2" font-family="Helvetica,sans-Serif" font-size="11.00">PermissionService.dumpSystemState</text>
</g>
<!-- m::com.android.server.permission.access.permission.PermissionService.dumpSystemState:(Landroid/util/IndentingPrintWriter;Lcom/android/server/permission/access/AccessState;)V&#45;&gt;__field__ -->
<g id="edge5" class="edge">
<title>m::com.android.server.permission.access.permission.PermissionService.dumpSystemState:(Landroid/util/IndentingPrintWriter;Lcom/android/server/permission/access/AccessState;)V&#45;&gt;__field__</title>
<path fill="none" stroke="#dc2626" d="M315.77,-532.45C379.52,-523.3 458.36,-503.35 516,-460 553.78,-431.59 588.56,-388.7 608.51,-361.8"/>
<polygon fill="#dc2626" stroke="#dc2626" points="610.78,-363.43 613.26,-355.32 606.27,-360.12 610.78,-363.43"/>
<text text-anchor="middle" x="474" y="-503.8" font-family="Helvetica,sans-Serif" font-size="9.00" fill="#dc2626"> reads unguarded</text>
</g>
<!-- m::com.android.server.permission.access.permission.PermissionService.enforceRestrictedPermission:(Ljava/lang/String;)Z -->
<g id="node7" class="node">
<title>m::com.android.server.permission.access.permission.PermissionService.enforceRestrictedPermission:(Ljava/lang/String;)Z</title>
<path fill="#fee2e2" stroke="#dc2626" d="M331.5,-500C331.5,-500 78.5,-500 78.5,-500 72.5,-500 66.5,-494 66.5,-488 66.5,-488 66.5,-476 66.5,-476 66.5,-470 72.5,-464 78.5,-464 78.5,-464 331.5,-464 331.5,-464 337.5,-464 343.5,-470 343.5,-476 343.5,-476 343.5,-488 343.5,-488 343.5,-494 337.5,-500 331.5,-500"/>
<text text-anchor="middle" x="205" y="-479.2" font-family="Helvetica,sans-Serif" font-size="11.00">PermissionService.enforceRestrictedPermission</text>
</g>
<!-- m::com.android.server.permission.access.permission.PermissionService.enforceRestrictedPermission:(Ljava/lang/String;)Z&#45;&gt;__field__ -->
<g id="edge6" class="edge">
<title>m::com.android.server.permission.access.permission.PermissionService.enforceRestrictedPermission:(Ljava/lang/String;)Z&#45;&gt;__field__</title>
<path fill="none" stroke="#dc2626" d="M343.52,-468.05C365.98,-464.18 388.81,-459.26 410,-453 459.78,-438.3 470.21,-428.43 516,-404 541.7,-390.29 569.73,-373.18 591.06,-359.69"/>
<polygon fill="#dc2626" stroke="#dc2626" points="592.78,-361.91 598.03,-355.26 589.77,-357.19 592.78,-361.91"/>
<text text-anchor="middle" x="474" y="-447.8" font-family="Helvetica,sans-Serif" font-size="9.00" fill="#dc2626"> reads unguarded</text>
</g>
<!-- m::com.android.server.permission.access.permission.PermissionService.getInstalledPermissions:(Ljava/lang/String;)Ljava/util/Set; -->
<g id="node8" class="node">
<title>m::com.android.server.permission.access.permission.PermissionService.getInstalledPermissions:(Ljava/lang/String;)Ljava/util/Set;</title>
<path fill="#fee2e2" stroke="#dc2626" d="M318,-442C318,-442 92,-442 92,-442 86,-442 80,-436 80,-430 80,-430 80,-418 80,-418 80,-412 86,-406 92,-406 92,-406 318,-406 318,-406 324,-406 330,-412 330,-418 330,-418 330,-430 330,-430 330,-436 324,-442 318,-442"/>
<text text-anchor="middle" x="205" y="-421.2" font-family="Helvetica,sans-Serif" font-size="11.00">PermissionService.getInstalledPermissions</text>
</g>
<!-- m::com.android.server.permission.access.permission.PermissionService.getInstalledPermissions:(Ljava/lang/String;)Ljava/util/Set;&#45;&gt;__field__ -->
<g id="edge7" class="edge">
<title>m::com.android.server.permission.access.permission.PermissionService.getInstalledPermissions:(Ljava/lang/String;)Ljava/util/Set;&#45;&gt;__field__</title>
<path fill="none" stroke="#dc2626" d="M330.2,-408.79C356.65,-404.87 384.33,-400.25 410,-395 460.32,-384.71 516.3,-369.57 558.66,-357.34"/>
<polygon fill="#dc2626" stroke="#dc2626" points="559.51,-360.01 566.41,-355.09 557.95,-354.63 559.51,-360.01"/>
<text text-anchor="middle" x="474" y="-391.8" font-family="Helvetica,sans-Serif" font-size="9.00" fill="#dc2626"> reads unguarded</text>
</g>
<!-- m::com.android.server.permission.access.permission.PermissionService.getPermissionInfo:(Ljava/lang/String;ILjava/lang/String;)Landroid/content/pm/PermissionInfo; -->
<g id="node9" class="node">
<title>m::com.android.server.permission.access.permission.PermissionService.getPermissionInfo:(Ljava/lang/String;ILjava/lang/String;)Landroid/content/pm/PermissionInfo;</title>
<path fill="#fee2e2" stroke="#dc2626" d="M302,-384C302,-384 108,-384 108,-384 102,-384 96,-378 96,-372 96,-372 96,-360 96,-360 96,-354 102,-348 108,-348 108,-348 302,-348 302,-348 308,-348 314,-354 314,-360 314,-360 314,-372 314,-372 314,-378 308,-384 302,-384"/>
<text text-anchor="middle" x="205" y="-363.2" font-family="Helvetica,sans-Serif" font-size="11.00">PermissionService.getPermissionInfo</text>
</g>
<!-- m::com.android.server.permission.access.permission.PermissionService.getPermissionInfo:(Ljava/lang/String;ILjava/lang/String;)Landroid/content/pm/PermissionInfo;&#45;&gt;__field__ -->
<g id="edge8" class="edge">
<title>m::com.android.server.permission.access.permission.PermissionService.getPermissionInfo:(Ljava/lang/String;ILjava/lang/String;)Landroid/content/pm/PermissionInfo;&#45;&gt;__field__</title>
<path fill="none" stroke="#dc2626" d="M314.16,-358.53C380.82,-353.93 465.55,-348.08 529.86,-343.64"/>
<polygon fill="#dc2626" stroke="#dc2626" points="530.21,-346.42 537.99,-343.08 529.82,-340.83 530.21,-346.42"/>
<text text-anchor="middle" x="474" y="-351.8" font-family="Helvetica,sans-Serif" font-size="9.00" fill="#dc2626"> reads unguarded</text>
</g>
<!-- m::com.android.server.permission.access.permission.PermissionService.queryPermissionsByGroup:(Ljava/lang/String;I)Ljava/util/List; -->
<g id="node10" class="node">
<title>m::com.android.server.permission.access.permission.PermissionService.queryPermissionsByGroup:(Ljava/lang/String;I)Ljava/util/List;</title>
<path fill="#fee2e2" stroke="#dc2626" d="M325,-326C325,-326 85,-326 85,-326 79,-326 73,-320 73,-314 73,-314 73,-302 73,-302 73,-296 79,-290 85,-290 85,-290 325,-290 325,-290 331,-290 337,-296 337,-302 337,-302 337,-314 337,-314 337,-320 331,-326 325,-326"/>
<text text-anchor="middle" x="205" y="-305.2" font-family="Helvetica,sans-Serif" font-size="11.00">PermissionService.queryPermissionsByGroup</text>
</g>
<!-- m::com.android.server.permission.access.permission.PermissionService.queryPermissionsByGroup:(Ljava/lang/String;I)Ljava/util/List;&#45;&gt;__field__ -->
<g id="edge9" class="edge">
<title>m::com.android.server.permission.access.permission.PermissionService.queryPermissionsByGroup:(Ljava/lang/String;I)Ljava/util/List;&#45;&gt;__field__</title>
<path fill="none" stroke="#dc2626" d="M337.24,-316.75C392.44,-320.46 457.35,-324.88 516,-329 520.42,-329.31 524.93,-329.63 529.5,-329.95"/>
<polygon fill="#dc2626" stroke="#dc2626" points="529.57,-332.77 537.75,-330.54 529.96,-327.18 529.57,-332.77"/>
<text text-anchor="middle" x="474" y="-331.8" font-family="Helvetica,sans-Serif" font-size="9.00" fill="#dc2626"> reads unguarded</text>
</g>
<!-- m::com.android.server.pm.PackageManagerShellCommand.doListPermissions:(Ljava/util/ArrayList;ZZZII)V -->
<g id="node11" class="node">
<title>m::com.android.server.pm.PackageManagerShellCommand.doListPermissions:(Ljava/util/ArrayList;ZZZII)V</title>
<path fill="#fee2e2" stroke="#dc2626" d="M339.5,-268C339.5,-268 70.5,-268 70.5,-268 64.5,-268 58.5,-262 58.5,-256 58.5,-256 58.5,-244 58.5,-244 58.5,-238 64.5,-232 70.5,-232 70.5,-232 339.5,-232 339.5,-232 345.5,-232 351.5,-238 351.5,-244 351.5,-244 351.5,-256 351.5,-256 351.5,-262 345.5,-268 339.5,-268"/>
<text text-anchor="middle" x="205" y="-247.2" font-family="Helvetica,sans-Serif" font-size="11.00">PackageManagerShellCommand.doListPermissions</text>
</g>
<!-- m::com.android.server.pm.PackageManagerShellCommand.doListPermissions:(Ljava/util/ArrayList;ZZZII)V&#45;&gt;__field__ -->
<g id="edge10" class="edge">
<title>m::com.android.server.pm.PackageManagerShellCommand.doListPermissions:(Ljava/util/ArrayList;ZZZII)V&#45;&gt;__field__</title>
<path fill="none" stroke="#dc2626" d="M348.5,-268.01C369.2,-271.27 390.2,-274.95 410,-279 460.32,-289.29 516.3,-304.43 558.66,-316.66"/>
<polygon fill="#dc2626" stroke="#dc2626" points="557.95,-319.37 566.41,-318.91 559.51,-313.99 557.95,-319.37"/>
<text text-anchor="middle" x="474" y="-305.8" font-family="Helvetica,sans-Serif" font-size="9.00" fill="#dc2626"> reads unguarded</text>
</g>
<!-- m::com.android.server.pm.permission.LegacyPermission.dump:(Ljava/io/PrintWriter;Ljava/lang/String;Ljava/util/Set;ZZLcom/android/server/pm/DumpState;)Z -->
<g id="node12" class="node">
<title>m::com.android.server.pm.permission.LegacyPermission.dump:(Ljava/io/PrintWriter;Ljava/lang/String;Ljava/util/Set;ZZLcom/android/server/pm/DumpState;)Z</title>
<path fill="#fee2e2" stroke="#dc2626" d="M267.5,-210C267.5,-210 142.5,-210 142.5,-210 136.5,-210 130.5,-204 130.5,-198 130.5,-198 130.5,-186 130.5,-186 130.5,-180 136.5,-174 142.5,-174 142.5,-174 267.5,-174 267.5,-174 273.5,-174 279.5,-180 279.5,-186 279.5,-186 279.5,-198 279.5,-198 279.5,-204 273.5,-210 267.5,-210"/>
<text text-anchor="middle" x="205" y="-189.2" font-family="Helvetica,sans-Serif" font-size="11.00">LegacyPermission.dump</text>
</g>
<!-- m::com.android.server.pm.permission.LegacyPermission.dump:(Ljava/io/PrintWriter;Ljava/lang/String;Ljava/util/Set;ZZLcom/android/server/pm/DumpState;)Z&#45;&gt;__field__ -->
<g id="edge11" class="edge">
<title>m::com.android.server.pm.permission.LegacyPermission.dump:(Ljava/io/PrintWriter;Ljava/lang/String;Ljava/util/Set;ZZLcom/android/server/pm/DumpState;)Z&#45;&gt;__field__</title>
<path fill="none" stroke="#dc2626" d="M279.76,-197.39C319.01,-201.53 367.75,-208.7 410,-221 459.66,-235.45 470.36,-244.69 516,-269 542.17,-282.94 570.62,-300.6 592.02,-314.42"/>
<polygon fill="#dc2626" stroke="#dc2626" points="590.76,-316.94 599,-318.95 593.81,-312.25 590.76,-316.94"/>
<text text-anchor="middle" x="474" y="-271.8" font-family="Helvetica,sans-Serif" font-size="9.00" fill="#dc2626"> reads unguarded</text>
</g>
<!-- m::com.android.server.pm.permission.LegacyPermission.dump:(Ljava/io/PrintWriter;Ljava/lang/String;Ljava/util/Set;ZZLcom/android/server/pm/DumpState;)Z&#45;&gt;__field__ -->
<g id="edge12" class="edge">
<title>m::com.android.server.pm.permission.LegacyPermission.dump:(Ljava/io/PrintWriter;Ljava/lang/String;Ljava/util/Set;ZZLcom/android/server/pm/DumpState;)Z&#45;&gt;__field__</title>
<path fill="none" stroke="#dc2626" d="M279.55,-181.85C345.03,-176.23 441.67,-176.51 516,-213 559.82,-234.51 593.86,-281.96 611.85,-311.52"/>
<polygon fill="#dc2626" stroke="#dc2626" points="609.58,-313.18 616.07,-318.63 614.39,-310.32 609.58,-313.18"/>
<text text-anchor="middle" x="474" y="-215.8" font-family="Helvetica,sans-Serif" font-size="9.00" fill="#dc2626"> reads unguarded</text>
</g>
<!-- m::com.android.server.pm.permission.LegacyPermission.write:(Lcom/android/modules/utils/TypedXmlSerializer;)V -->
<g id="node13" class="node">
<title>m::com.android.server.pm.permission.LegacyPermission.write:(Lcom/android/modules/utils/TypedXmlSerializer;)V</title>
<path fill="#fee2e2" stroke="#dc2626" d="M266,-152C266,-152 144,-152 144,-152 138,-152 132,-146 132,-140 132,-140 132,-128 132,-128 132,-122 138,-116 144,-116 144,-116 266,-116 266,-116 272,-116 278,-122 278,-128 278,-128 278,-140 278,-140 278,-146 272,-152 266,-152"/>
<text text-anchor="middle" x="205" y="-131.2" font-family="Helvetica,sans-Serif" font-size="11.00">LegacyPermission.write</text>
</g>
<!-- m::com.android.server.pm.permission.LegacyPermission.write:(Lcom/android/modules/utils/TypedXmlSerializer;)V&#45;&gt;__field__ -->
<g id="edge13" class="edge">
<title>m::com.android.server.pm.permission.LegacyPermission.write:(Lcom/android/modules/utils/TypedXmlSerializer;)V&#45;&gt;__field__</title>
<path fill="none" stroke="#dc2626" d="M278.02,-135.96C356.92,-139.28 477.4,-148.21 516,-172 569.08,-204.72 602.11,-273.73 616.9,-311.3"/>
<polygon fill="#dc2626" stroke="#dc2626" points="614.3,-312.35 619.77,-318.82 619.53,-310.35 614.3,-312.35"/>
<text text-anchor="middle" x="474" y="-174.8" font-family="Helvetica,sans-Serif" font-size="9.00" fill="#dc2626"> reads unguarded</text>
</g>
<!-- m::com.android.server.pm.permission.LegacyPermission.write:(Lcom/android/modules/utils/TypedXmlSerializer;)V&#45;&gt;__field__ -->
<g id="edge14" class="edge">
<title>m::com.android.server.pm.permission.LegacyPermission.write:(Lcom/android/modules/utils/TypedXmlSerializer;)V&#45;&gt;__field__</title>
<path fill="none" stroke="#dc2626" d="M278,-125.97C356.88,-118.59 477.34,-111.95 516,-135 580.9,-173.7 609.96,-265.55 620.7,-310.84"/>
<polygon fill="#dc2626" stroke="#dc2626" points="617.99,-311.55 622.5,-318.73 623.45,-310.3 617.99,-311.55"/>
<text text-anchor="middle" x="474" y="-137.8" font-family="Helvetica,sans-Serif" font-size="9.00" fill="#dc2626"> reads unguarded</text>
</g>
<!-- m::com.android.server.pm.permission.Permission.getPackageName:()Ljava/lang/String; -->
<g id="node14" class="node">
<title>m::com.android.server.pm.permission.Permission.getPackageName:()Ljava/lang/String;</title>
<path fill="#fee2e2" stroke="#dc2626" d="M280.5,-94C280.5,-94 129.5,-94 129.5,-94 123.5,-94 117.5,-88 117.5,-82 117.5,-82 117.5,-70 117.5,-70 117.5,-64 123.5,-58 129.5,-58 129.5,-58 280.5,-58 280.5,-58 286.5,-58 292.5,-64 292.5,-70 292.5,-70 292.5,-82 292.5,-82 292.5,-88 286.5,-94 280.5,-94"/>
<text text-anchor="middle" x="205" y="-73.2" font-family="Helvetica,sans-Serif" font-size="11.00">Permission.getPackageName</text>
</g>
<!-- m::com.android.server.pm.permission.Permission.getPackageName:()Ljava/lang/String;&#45;&gt;__field__ -->
<g id="edge15" class="edge">
<title>m::com.android.server.pm.permission.Permission.getPackageName:()Ljava/lang/String;&#45;&gt;__field__</title>
<path fill="none" stroke="#dc2626" d="M292.7,-62.04C359.59,-56.06 451.33,-58.81 516,-104 586.88,-153.53 613.44,-261.12 622.19,-310.84"/>
<polygon fill="#dc2626" stroke="#dc2626" points="619.46,-311.44 623.54,-318.87 624.98,-310.51 619.46,-311.44"/>
<text text-anchor="middle" x="474" y="-106.8" font-family="Helvetica,sans-Serif" font-size="9.00" fill="#dc2626"> reads unguarded</text>
</g>
<!-- m::com.android.server.pm.permission.PermissionManagerService$PermissionCheckerService.checkPermission:(Landroid/content/Context;Lcom/android/server/pm/permission/PermissionManagerServiceInternal;Ljava/lang/String;Landroid/content/AttributionSource;Ljava/lang/String;ZZZI)I -->
<g id="node15" class="node">
<title>m::com.android.server.pm.permission.PermissionManagerService$PermissionCheckerService.checkPermission:(Landroid/content/Context;Lcom/android/server/pm/permission/PermissionManagerServiceInternal;Ljava/lang/String;Landroid/content/AttributionSource;Ljava/lang/String;ZZZI)I</title>
<path fill="#fee2e2" stroke="#dc2626" d="M398,-36C398,-36 12,-36 12,-36 6,-36 0,-30 0,-24 0,-24 0,-12 0,-12 0,-6 6,0 12,0 12,0 398,0 398,0 404,0 410,-6 410,-12 410,-12 410,-24 410,-24 410,-30 404,-36 398,-36"/>
<text text-anchor="middle" x="205" y="-15.2" font-family="Helvetica,sans-Serif" font-size="11.00">PermissionManagerService$PermissionCheckerService.checkPermission</text>
</g>
<!-- m::com.android.server.pm.permission.PermissionManagerService$PermissionCheckerService.checkPermission:(Landroid/content/Context;Lcom/android/server/pm/permission/PermissionManagerServiceInternal;Ljava/lang/String;Landroid/content/AttributionSource;Ljava/lang/String;ZZZI)I&#45;&gt;__field__ -->
<g id="edge16" class="edge">
<title>m::com.android.server.pm.permission.PermissionManagerService$PermissionCheckerService.checkPermission:(Landroid/content/Context;Lcom/android/server/pm/permission/PermissionManagerServiceInternal;Ljava/lang/String;Landroid/content/AttributionSource;Ljava/lang/String;ZZZI)I&#45;&gt;__field__</title>
<path fill="none" stroke="#dc2626" d="M410.38,-9.7C448.4,-16.46 485.65,-29.6 516,-53 599.44,-117.34 619.63,-253.59 624.48,-310.82"/>
<polygon fill="#dc2626" stroke="#dc2626" points="621.7,-311.23 625.11,-318.99 627.29,-310.8 621.7,-311.23"/>
<text text-anchor="middle" x="474" y="-55.8" font-family="Helvetica,sans-Serif" font-size="9.00" fill="#dc2626"> reads unguarded</text>
</g>
</g>
</svg>
