<?xml version="1.0" encoding="UTF-8" standalone="no"?>
<!DOCTYPE svg PUBLIC "-//W3C//DTD SVG 1.1//EN"
 "http://www.w3.org/Graphics/SVG/1.1/DTD/svg11.dtd">
<!-- Generated by graphviz version 2.43.0 (0)
 -->
<!-- Title: race Pages: 1 -->
<svg width="413pt" height="160pt"
 viewBox="0.00 0.00 413.00 160.00" xmlns="http://www.w3.org/2000/svg" xmlns:xlink="http://www.w3.org/1999/xlink">
<g id="graph0" class="graph" transform="scale(1 1) rotate(0) translate(4 156)">
<title>race</title>
<polygon fill="white" stroke="transparent" points="-4,4 -4,-156 409,-156 409,4 -4,4"/>
<!-- __field__ -->
<g id="node1" class="node">
<title>__field__</title>
<path fill="#fef9c3" stroke="#ca8a04" stroke-width="2" d="M393,-94C393,-94 322,-94 322,-94 316,-94 310,-88 310,-82 310,-82 310,-70 310,-70 310,-64 316,-58 322,-58 322,-58 393,-58 393,-58 399,-58 405,-64 405,-70 405,-70 405,-82 405,-82 405,-88 399,-94 393,-94"/>
<text text-anchor="middle" x="357.5" y="-73.2" font-family="Helvetica,sans-Serif" font-size="11.00">Mutable.value</text>
</g>
<!-- __guard__ -->
<g id="node2" class="node">
<title>__guard__</title>
<path fill="#dcfce7" stroke="#16a34a" stroke-width="2" d="M170,-152C170,-152 12,-152 12,-152 6,-152 0,-146 0,-140 0,-140 0,-128 0,-128 0,-122 6,-116 12,-116 12,-116 170,-116 170,-116 176,-116 182,-122 182,-128 182,-128 182,-140 182,-140 182,-146 176,-152 170,-152"/>
<text text-anchor="middle" x="91" y="-131.2" font-family="Helvetica,sans-Serif" font-size="11.00">BroadcastRadioService.mLock</text>
</g>
<!-- __guard__&#45;&gt;__field__ -->
<g id="edge1" class="edge">
<title>__guard__&#45;&gt;__field__</title>
<path fill="none" stroke="#16a34a" stroke-width="1.6" d="M174.24,-115.97C215.69,-106.88 264.83,-96.1 301.63,-88.03"/>
<polygon fill="#16a34a" stroke="#16a34a" stroke-width="1.6" points="302.55,-90.7 309.76,-86.25 301.35,-85.23 302.55,-90.7"/>
<text text-anchor="middle" x="246" y="-110.8" font-family="Helvetica,sans-Serif" font-size="9.00" fill="#15803d"> guards 3/4</text>
</g>
<!-- m::com.android.server.broadcastradio.hal2.RadioModule$3.close:()V -->
<g id="node3" class="node">
<title>m::com.android.server.broadcastradio.hal2.RadioModule$3.close:()V</title>
<path fill="#fee2e2" stroke="#dc2626" d="M145.5,-94C145.5,-94 36.5,-94 36.5,-94 30.5,-94 24.5,-88 24.5,-82 24.5,-82 24.5,-70 24.5,-70 24.5,-64 30.5,-58 36.5,-58 36.5,-58 145.5,-58 145.5,-58 151.5,-58 157.5,-64 157.5,-70 157.5,-70 157.5,-82 157.5,-82 157.5,-88 151.5,-94 145.5,-94"/>
<text text-anchor="middle" x="91" y="-73.2" font-family="Helvetica,sans-Serif" font-size="11.00">RadioModule$3.close</text>
</g>
<!-- m::com.android.server.broadcastradio.hal2.RadioModule$3.close:()V&#45;&gt;__field__ -->
<g id="edge2" class="edge">
<title>m::com.android.server.broadcastradio.hal2.RadioModule$3.close:()V&#45;&gt;__field__</title>
<path fill="none" stroke="#dc2626" d="M157.72,-76C202.04,-76 259.85,-76 301.68,-76"/>
<polygon fill="#dc2626" stroke="#dc2626" points="301.83,-78.8 309.83,-76 301.83,-73.2 301.83,-78.8"/>
<text text-anchor="middle" x="246" y="-78.8" font-family="Helvetica,sans-Serif" font-size="9.00" fill="#dc2626"> writes unguarded</text>
</g>
<!-- m::com.android.server.broadcastradio.hal2.RadioModule$3.close:()V&#45;&gt;__field__ -->
<g id="edge3" class="edge">
<title>m::com.android.server.broadcastradio.hal2.RadioModule$3.close:()V&#45;&gt;__field__</title>
<path fill="none" stroke="#dc2626" d="M157.88,-64.92C195.95,-60.02 244.74,-56.32 288,-61 292.57,-61.5 297.29,-62.17 302.01,-62.96"/>
<polygon fill="#dc2626" stroke="#dc2626" points="301.55,-65.73 309.92,-64.4 302.55,-60.22 301.55,-65.73"/>
<text text-anchor="middle" x="246" y="-63.8" font-family="Helvetica,sans-Serif" font-size="9.00" fill="#dc2626"> reads unguarded</text>
</g>
<!-- m::com.android.server.broadcastradio.hal2.RadioModule.openSession:(Landroid/hardware/radio/ITunerCallback;)Lcom/android/server/broadcastradio/hal2/TunerSession; -->
<g id="node4" class="node">
<title>m::com.android.server.broadcastradio.hal2.RadioModule.openSession:(Landroid/hardware/radio/ITunerCallback;)Lcom/android/server/broadcastradio/hal2/TunerSession;</title>
<path fill="#fee2e2" stroke="#dc2626" d="M159,-36C159,-36 23,-36 23,-36 17,-36 11,-30 11,-24 11,-24 11,-12 11,-12 11,-6 17,0 23,0 23,0 159,0 159,0 165,0 171,-6 171,-12 171,-12 171,-24 171,-24 171,-30 165,-36 159,-36"/>
<text text-anchor="middle" x="91" y="-15.2" font-family="Helvetica,sans-Serif" font-size="11.00">RadioModule.openSession</text>
</g>
<!-- m::com.android.server.broadcastradio.hal2.RadioModule.openSession:(Landroid/hardware/radio/ITunerCallback;)Lcom/android/server/broadcastradio/hal2/TunerSession;&#45;&gt;__field__ -->
<g id="edge4" class="edge">
<title>m::com.android.server.broadcastradio.hal2.RadioModule.openSession:(Landroid/hardware/radio/ITunerCallback;)Lcom/android/server/broadcastradio/hal2/TunerSession;&#45;&gt;__field__</title>
<path fill="none" stroke="#dc2626" d="M171.4,-22.29C207.54,-25.72 250.5,-31.9 288,-43 297.69,-45.87 307.71,-49.97 316.99,-54.32"/>
<polygon fill="#dc2626" stroke="#dc2626" points="315.84,-56.87 324.26,-57.83 318.28,-51.83 315.84,-56.87"/>
<text text-anchor="middle" x="246" y="-45.8" font-family="Helvetica,sans-Serif" font-size="9.00" fill="#dc2626"> reads unguarded</text>
</g>
</g>
</svg>
