<?xml version="1.0" encoding="UTF-8" standalone="no"?>
<!DOCTYPE svg PUBLIC "-//W3C//DTD SVG 1.1//EN"
 "http://www.w3.org/Graphics/SVG/1.1/DTD/svg11.dtd">
<!-- Generated by graphviz version 2.43.0 (0)
 -->
<!-- Title: race Pages: 1 -->
<svg width="474pt" height="102pt"
 viewBox="0.00 0.00 474.00 102.00" xmlns="http://www.w3.org/2000/svg" xmlns:xlink="http://www.w3.org/1999/xlink">
<g id="graph0" class="graph" transform="scale(1 1) rotate(0) translate(4 98)">
<title>race</title>
<polygon fill="white" stroke="transparent" points="-4,4 -4,-98 470,-98 470,4 -4,4"/>
<!-- __field__ -->
<g id="node1" class="node">
<title>__field__</title>
<path fill="#fef9c3" stroke="#ca8a04" stroke-width="2" d="M454,-65C454,-65 284,-65 284,-65 278,-65 272,-59 272,-53 272,-53 272,-41 272,-41 272,-35 278,-29 284,-29 284,-29 454,-29 454,-29 460,-29 466,-35 466,-41 466,-41 466,-53 466,-53 466,-59 460,-65 454,-65"/>
<text text-anchor="middle" x="369" y="-44.2" font-family="Helvetica,sans-Serif" font-size="11.00">SpatializerHelper.mSpatCallback</text>
</g>
<!-- __guard__ -->
<g id="node2" class="node">
<title>__guard__</title>
<path fill="#dcfce7" stroke="#16a34a" stroke-width="2" d="M132,-94C132,-94 12,-94 12,-94 6,-94 0,-88 0,-82 0,-82 0,-70 0,-70 0,-64 6,-58 12,-58 12,-58 132,-58 132,-58 138,-58 144,-64 144,-70 144,-70 144,-82 144,-82 144,-88 138,-94 132,-94"/>
<text text-anchor="middle" x="72" y="-73.2" font-family="Helvetica,sans-Serif" font-size="11.00">audio.SpatializerHelper</text>
</g>
<!-- __guard__&#45;&gt;__field__ -->
<g id="edge1" class="edge">
<title>__guard__&#45;&gt;__field__</title>
<path fill="none" stroke="#16a34a" stroke-width="1.6" d="M144.04,-69.02C179.85,-65.5 223.97,-61.16 263.56,-57.27"/>
<polygon fill="#16a34a" stroke="#16a34a" stroke-width="1.6" points="264.25,-60.01 271.94,-56.44 263.7,-54.44 264.25,-60.01"/>
<text text-anchor="middle" x="208" y="-68.8" font-family="Helvetica,sans-Serif" font-size="9.00" fill="#15803d"> guards 2/3</text>
</g>
<!-- m::com.android.server.audio.SpatializerHelper.init:(Z)V -->
<g id="node3" class="node">
<title>m::com.android.server.audio.SpatializerHelper.init:(Z)V</title>
<path fill="#fee2e2" stroke="#dc2626" d="M125.5,-36C125.5,-36 18.5,-36 18.5,-36 12.5,-36 6.5,-30 6.5,-24 6.5,-24 6.5,-12 6.5,-12 6.5,-6 12.5,0 18.5,0 18.5,0 125.5,0 125.5,0 131.5,0 137.5,-6 137.5,-12 137.5,-12 137.5,-24 137.5,-24 137.5,-30 131.5,-36 125.5,-36"/>
<text text-anchor="middle" x="72" y="-15.2" font-family="Helvetica,sans-Serif" font-size="11.00">SpatializerHelper.init</text>
</g>
<!-- m::com.android.server.audio.SpatializerHelper.init:(Z)V&#45;&gt;__field__ -->
<g id="edge2" class="edge">
<title>m::com.android.server.audio.SpatializerHelper.init:(Z)V&#45;&gt;__field__</title>
<path fill="none" stroke="#dc2626" d="M137.74,-24.36C174.63,-27.99 221.72,-32.62 263.7,-36.75"/>
<polygon fill="#dc2626" stroke="#dc2626" points="263.51,-39.54 271.75,-37.54 264.06,-33.97 263.51,-39.54"/>
<text text-anchor="middle" x="208" y="-37.8" font-family="Helvetica,sans-Serif" font-size="9.00" fill="#dc2626"> writes unguarded</text>
</g>
</g>
</svg>
