<?xml version="1.0" encoding="UTF-8" standalone="no"?>
<!DOCTYPE svg PUBLIC "-//W3C//DTD SVG 1.1//EN"
 "http://www.w3.org/Graphics/SVG/1.1/DTD/svg11.dtd">
<!-- Generated by graphviz version 2.43.0 (0)
 -->
<!-- Title: race Pages: 1 -->
<svg width="809pt" height="300pt"
 viewBox="0.00 0.00 809.00 300.00" xmlns="http://www.w3.org/2000/svg" xmlns:xlink="http://www.w3.org/1999/xlink">
<g id="graph0" class="graph" transform="scale(1 1) rotate(0) translate(4 296)">
<title>race</title>
<polygon fill="white" stroke="transparent" points="-4,4 -4,-296 805,-296 805,4 -4,4"/>
<!-- __field__ -->
<g id="node1" class="node">
<title>__field__</title>
<path fill="#fef9c3" stroke="#ca8a04" stroke-width="2" d="M789,-181C789,-181 502,-181 502,-181 496,-181 490,-175 490,-169 490,-169 490,-157 490,-157 490,-151 496,-145 502,-145 502,-145 789,-145 789,-145 795,-145 801,-151 801,-157 801,-157 801,-169 801,-169 801,-175 795,-181 789,-181"/>
<text text-anchor="middle" x="645.5" y="-160.2" font-family="Helvetica,sans-Serif" font-size="11.00">BatteryStatsImpl.mDischargeScreenDozeUnplugLevel</text>
</g>
<!-- __guard__ -->
<g id="node2" class="node">
<title>__guard__</title>
<path fill="#dcfce7" stroke="#16a34a" stroke-width="2" d="M254,-292C254,-292 108,-292 108,-292 102,-292 96,-286 96,-280 96,-280 96,-268 96,-268 96,-262 102,-256 108,-256 108,-256 254,-256 254,-256 260,-256 266,-262 266,-268 266,-268 266,-280 266,-280 266,-286 260,-292 254,-292"/>
<text text-anchor="middle" x="181" y="-271.2" font-family="Helvetica,sans-Serif" font-size="11.00">BatteryStatsService.mStats</text>
</g>
<!-- __guard__&#45;&gt;__field__ -->
<g id="edge1" class="edge">
<title>__guard__&#45;&gt;__field__</title>
<path fill="none" stroke="#16a34a" stroke-width="1.6" d="M266.2,-266.23C323.7,-259.74 401.25,-248.65 468,-231 513.01,-219.1 562.3,-199.52 597.32,-184.42"/>
<polygon fill="#16a34a" stroke="#16a34a" stroke-width="1.6" points="598.8,-186.84 605.02,-181.08 596.57,-181.7 598.8,-186.84"/>
<text text-anchor="middle" x="426" y="-250.8" font-family="Helvetica,sans-Serif" font-size="9.00" fill="#15803d"> guards 6/9</text>
</g>
<!-- m::com.android.server.power.stats.BatteryStatsImpl.updateNewDischargeScreenLevelLocked:(I)V -->
<g id="node3" class="node">
<title>m::com.android.server.power.stats.BatteryStatsImpl.updateNewDischargeScreenLevelLocked:(I)V</title>
<path fill="#fee2e2" stroke="#dc2626" d="M336.5,-218C336.5,-218 25.5,-218 25.5,-218 19.5,-218 13.5,-212 13.5,-206 13.5,-206 13.5,-194 13.5,-194 13.5,-188 19.5,-182 25.5,-182 25.5,-182 336.5,-182 336.5,-182 342.5,-182 348.5,-188 348.5,-194 348.5,-194 348.5,-206 348.5,-206 348.5,-212 342.5,-218 336.5,-218"/>
<text text-anchor="middle" x="181" y="-197.2" font-family="Helvetica,sans-Serif" font-size="11.00">BatteryStatsImpl.updateNewDischargeScreenLevelLocked</text>
</g>
<!-- m::com.android.server.power.stats.BatteryStatsImpl.updateNewDischargeScreenLevelLocked:(I)V&#45;&gt;__field__ -->
<g id="edge2" class="edge">
<title>m::com.android.server.power.stats.BatteryStatsImpl.updateNewDischargeScreenLevelLocked:(I)V&#45;&gt;__field__</title>
<path fill="none" stroke="#dc2626" d="M348.81,-216C388.03,-217.11 429.58,-216.13 468,-211 507.48,-205.73 550.65,-194.1 584.41,-183.6"/>
<polygon fill="#dc2626" stroke="#dc2626" points="585.56,-186.18 592.35,-181.11 583.87,-180.84 585.56,-186.18"/>
<text text-anchor="middle" x="426" y="-218.8" font-family="Helvetica,sans-Serif" font-size="9.00" fill="#dc2626"> writes unguarded</text>
</g>
<!-- m::com.android.server.power.stats.BatteryStatsImpl.updateNewDischargeScreenLevelLocked:(I)V&#45;&gt;__field__ -->
<g id="edge3" class="edge">
<title>m::com.android.server.power.stats.BatteryStatsImpl.updateNewDischargeScreenLevelLocked:(I)V&#45;&gt;__field__</title>
<path fill="none" stroke="#dc2626" d="M348.65,-186.67C392.02,-183.2 438.7,-179.46 481.86,-176.01"/>
<polygon fill="#dc2626" stroke="#dc2626" points="482.13,-178.8 489.88,-175.37 481.68,-173.22 482.13,-178.8"/>
<text text-anchor="middle" x="426" y="-185.8" font-family="Helvetica,sans-Serif" font-size="9.00" fill="#dc2626"> writes unguarded</text>
</g>
<!-- m::com.android.server.power.stats.BatteryStatsImpl.updateNewDischargeScreenLevelLocked:(I)V&#45;&gt;__field__ -->
<g id="edge4" class="edge">
<title>m::com.android.server.power.stats.BatteryStatsImpl.updateNewDischargeScreenLevelLocked:(I)V&#45;&gt;__field__</title>
<path fill="none" stroke="#dc2626" d="M261.66,-181.97C298.65,-174.48 343.34,-166.69 384,-163 415.45,-160.14 449.13,-158.84 481.48,-158.47"/>
<polygon fill="#dc2626" stroke="#dc2626" points="481.7,-161.27 489.67,-158.39 481.64,-155.67 481.7,-161.27"/>
<text text-anchor="middle" x="426" y="-165.8" font-family="Helvetica,sans-Serif" font-size="9.00" fill="#dc2626"> writes unguarded</text>
</g>
<!-- m::com.android.server.power.stats.BatteryStatsImpl.getDischargeAmountScreenDoze:()I -->
<g id="node4" class="node">
<title>m::com.android.server.power.stats.BatteryStatsImpl.getDischargeAmountScreenDoze:()I</title>
<path fill="#fee2e2" stroke="#dc2626" d="M316,-152C316,-152 46,-152 46,-152 40,-152 34,-146 34,-140 34,-140 34,-128 34,-128 34,-122 40,-116 46,-116 46,-116 316,-116 316,-116 322,-116 328,-122 328,-128 328,-128 328,-140 328,-140 328,-146 322,-152 316,-152"/>
<text text-anchor="middle" x="181" y="-131.2" font-family="Helvetica,sans-Serif" font-size="11.00">BatteryStatsImpl.getDischargeAmountScreenDoze</text>
</g>
<!-- m::com.android.server.power.stats.BatteryStatsImpl.getDischargeAmountScreenDoze:()I&#45;&gt;__field__ -->
<g id="edge5" class="edge">
<title>m::com.android.server.power.stats.BatteryStatsImpl.getDischargeAmountScreenDoze:()I&#45;&gt;__field__</title>
<path fill="none" stroke="#dc2626" d="M328.14,-122.54C373.09,-121 422.67,-121.3 468,-126 500.73,-129.39 536.34,-136.24 566.94,-143.13"/>
<polygon fill="#dc2626" stroke="#dc2626" points="566.6,-145.92 575.02,-144.97 567.85,-140.46 566.6,-145.92"/>
<text text-anchor="middle" x="426" y="-128.8" font-family="Helvetica,sans-Serif" font-size="9.00" fill="#dc2626"> reads unguarded</text>
</g>
<!-- m::com.android.server.power.stats.BatteryStatsImpl.getDischargeAmountScreenDozeSinceCharge:()I -->
<g id="node5" class="node">
<title>m::com.android.server.power.stats.BatteryStatsImpl.getDischargeAmountScreenDozeSinceCharge:()I</title>
<path fill="#fee2e2" stroke="#dc2626" d="M350,-94C350,-94 12,-94 12,-94 6,-94 0,-88 0,-82 0,-82 0,-70 0,-70 0,-64 6,-58 12,-58 12,-58 350,-58 350,-58 356,-58 362,-64 362,-70 362,-70 362,-82 362,-82 362,-88 356,-94 350,-94"/>
<text text-anchor="middle" x="181" y="-73.2" font-family="Helvetica,sans-Serif" font-size="11.00">BatteryStatsImpl.getDischargeAmountScreenDozeSinceCharge</text>
</g>
<!-- m::com.android.server.power.stats.BatteryStatsImpl.getDischargeAmountScreenDozeSinceCharge:()I&#45;&gt;__field__ -->
<g id="edge6" class="edge">
<title>m::com.android.server.power.stats.BatteryStatsImpl.getDischargeAmountScreenDozeSinceCharge:()I&#45;&gt;__field__</title>
<path fill="none" stroke="#dc2626" d="M362.16,-89.13C397.46,-93.33 434.05,-98.82 468,-106 509.74,-114.83 555.54,-129.78 590.03,-142.16"/>
<polygon fill="#dc2626" stroke="#dc2626" points="589.18,-144.83 597.65,-144.92 591.09,-139.57 589.18,-144.83"/>
<text text-anchor="middle" x="426" y="-108.8" font-family="Helvetica,sans-Serif" font-size="9.00" fill="#dc2626"> reads unguarded</text>
</g>
<!-- m::com.android.server.power.stats.BatteryStatsImpl.updateOldDischargeScreenLevelLocked:(I)V -->
<g id="node6" class="node">
<title>m::com.android.server.power.stats.BatteryStatsImpl.updateOldDischargeScreenLevelLocked:(I)V</title>
<path fill="#fee2e2" stroke="#dc2626" d="M334,-36C334,-36 28,-36 28,-36 22,-36 16,-30 16,-24 16,-24 16,-12 16,-12 16,-6 22,0 28,0 28,0 334,0 334,0 340,0 346,-6 346,-12 346,-12 346,-24 346,-24 346,-30 340,-36 334,-36"/>
<text text-anchor="middle" x="181" y="-15.2" font-family="Helvetica,sans-Serif" font-size="11.00">BatteryStatsImpl.updateOldDischargeScreenLevelLocked</text>
</g>
<!-- m::com.android.server.power.stats.BatteryStatsImpl.updateOldDischargeScreenLevelLocked:(I)V&#45;&gt;__field__ -->
<g id="edge7" class="edge">
<title>m::com.android.server.power.stats.BatteryStatsImpl.updateOldDischargeScreenLevelLocked:(I)V&#45;&gt;__field__</title>
<path fill="none" stroke="#dc2626" d="M305.82,-36.01C324.7,-39.31 343.92,-43 362,-47 409.81,-57.58 422.26,-59.54 468,-77 516.31,-95.44 569.35,-122.23 604.54,-140.99"/>
<polygon fill="#dc2626" stroke="#dc2626" points="603.4,-143.56 611.77,-144.87 606.05,-138.62 603.4,-143.56"/>
<text text-anchor="middle" x="426" y="-79.8" font-family="Helvetica,sans-Serif" font-size="9.00" fill="#dc2626"> reads unguarded</text>
</g>
</g>
</svg>
