<?xml version="1.0" encoding="UTF-8" standalone="no"?>
<!DOCTYPE svg PUBLIC "-//W3C//DTD SVG 1.1//EN"
 "http://www.w3.org/Graphics/SVG/1.1/DTD/svg11.dtd">
<!-- Generated by graphviz version 2.43.0 (0)
 -->
<!-- Title: race Pages: 1 -->
<svg width="656pt" height="110pt"
 viewBox="0.00 0.00 656.00 110.00" xmlns="http://www.w3.org/2000/svg" xmlns:xlink="http://www.w3.org/1999/xlink">
<g id="graph0" class="graph" transform="scale(1 1) rotate(0) translate(4 106)">
<title>race</title>
<polygon fill="white" stroke="transparent" points="-4,4 -4,-106 652,-106 652,4 -4,4"/>
<!-- __field__ -->
<g id="node1" class="node">
<title>__field__</title>
<path fill="#fef9c3" stroke="#ca8a04" stroke-width="2" d="M636,-65C636,-65 349,-65 349,-65 343,-65 337,-59 337,-53 337,-53 337,-41 337,-41 337,-35 343,-29 349,-29 349,-29 636,-29 636,-29 642,-29 648,-35 648,-41 648,-41 648,-53 648,-53 648,-59 642,-65 636,-65"/>
<text text-anchor="middle" x="492.5" y="-44.2" font-family="Helvetica,sans-Serif" font-size="11.00">PackageInstaller$SessionParams.appIconLastModified</text>
</g>
<!-- __guard__ -->
<g id="node2" class="node">
<title>__guard__</title>
<path fill="#dcfce7" stroke="#16a34a" stroke-width="2" d="M197,-102C197,-102 12,-102 12,-102 6,-102 0,-96 0,-90 0,-90 0,-78 0,-78 0,-72 6,-66 12,-66 12,-66 197,-66 197,-66 203,-66 209,-72 209,-78 209,-78 209,-90 209,-90 209,-96 203,-102 197,-102"/>
<text text-anchor="middle" x="104.5" y="-81.2" font-family="Helvetica,sans-Serif" font-size="11.00">PackageInstallerService.mSessions</text>
</g>
<!-- __guard__&#45;&gt;__field__ -->
<g id="edge1" class="edge">
<title>__guard__&#45;&gt;__field__</title>
<path fill="none" stroke="#16a34a" stroke-width="1.6" d="M209.19,-74.06C245.94,-70.54 288.22,-66.49 328.68,-62.61"/>
<polygon fill="#16a34a" stroke="#16a34a" stroke-width="1.6" points="329.05,-65.38 336.75,-61.83 328.52,-59.81 329.05,-65.38"/>
<text text-anchor="middle" x="273" y="-72.8" font-family="Helvetica,sans-Serif" font-size="9.00" fill="#15803d"> guards 2/3</text>
</g>
<!-- m::com.android.server.pm.PackageInstallerSession.write:(Lcom/android/modules/utils/TypedXmlSerializer;Ljava/io/File;)V -->
<g id="node3" class="node">
<title>m::com.android.server.pm.PackageInstallerSession.write:(Lcom/android/modules/utils/TypedXmlSerializer;Ljava/io/File;)V</title>
<path fill="#fee2e2" stroke="#dc2626" d="M182,-36C182,-36 27,-36 27,-36 21,-36 15,-30 15,-24 15,-24 15,-12 15,-12 15,-6 21,0 27,0 27,0 182,0 182,0 188,0 194,-6 194,-12 194,-12 194,-24 194,-24 194,-30 188,-36 182,-36"/>
<text text-anchor="middle" x="104.5" y="-15.2" font-family="Helvetica,sans-Serif" font-size="11.00">PackageInstallerSession.write</text>
</g>
<!-- m::com.android.server.pm.PackageInstallerSession.write:(Lcom/android/modules/utils/TypedXmlSerializer;Ljava/io/File;)V&#45;&gt;__field__ -->
<g id="edge2" class="edge">
<title>m::com.android.server.pm.PackageInstallerSession.write:(Lcom/android/modules/utils/TypedXmlSerializer;Ljava/io/File;)V&#45;&gt;__field__</title>
<path fill="none" stroke="#dc2626" d="M194.06,-24.65C234.03,-27.66 282.57,-31.3 328.73,-34.77"/>
<polygon fill="#dc2626" stroke="#dc2626" points="328.53,-37.56 336.72,-35.37 328.95,-31.98 328.53,-37.56"/>
<text text-anchor="middle" x="273" y="-35.8" font-family="Helvetica,sans-Serif" font-size="9.00" fill="#dc2626"> writes unguarded</text>
</g>
<!-- m::com.android.server.pm.PackageInstallerSession.write:(Lcom/android/modules/utils/TypedXmlSerializer;Ljava/io/File;)V&#45;&gt;__field__ -->
<g id="edge3" class="edge">
<title>m::com.android.server.pm.PackageInstallerSession.write:(Lcom/android/modules/utils/TypedXmlSerializer;Ljava/io/File;)V&#45;&gt;__field__</title>
<path fill="none" stroke="#dc2626" d="M194.27,-14.02C206.61,-13.6 219.12,-13.24 231,-13 268.33,-12.26 277.84,-9.45 315,-13 345.24,-15.89 378,-21.49 407,-27.34"/>
<polygon fill="#dc2626" stroke="#dc2626" points="406.67,-30.13 415.07,-28.99 407.8,-24.64 406.67,-30.13"/>
<text text-anchor="middle" x="273" y="-15.8" font-family="Helvetica,sans-Serif" font-size="9.00" fill="#dc2626"> reads unguarded</text>
</g>
</g>
</svg>
