<?xml version="1.0" encoding="UTF-8" standalone="no"?>
<!DOCTYPE svg PUBLIC "-//W3C//DTD SVG 1.1//EN"
 "http://www.w3.org/Graphics/SVG/1.1/DTD/svg11.dtd">
<!-- Generated by graphviz version 2.43.0 (0)
 -->
<!-- Title: race Pages: 1 -->
<svg width="673pt" height="276pt"
 viewBox="0.00 0.00 673.00 276.00" xmlns="http://www.w3.org/2000/svg" xmlns:xlink="http://www.w3.org/1999/xlink">
<g id="graph0" class="graph" transform="scale(1 1) rotate(0) translate(4 272)">
<title>race</title>
<polygon fill="white" stroke="transparent" points="-4,4 -4,-272 669,-272 669,4 -4,4"/>
<!-- __field__ -->
<g id="node1" class="node">
<title>__field__</title>
<path fill="#fef9c3" stroke="#ca8a04" stroke-width="2" d="M653,-152C653,-152 450,-152 450,-152 444,-152 438,-146 438,-140 438,-140 438,-128 438,-128 438,-122 444,-116 450,-116 450,-116 653,-116 653,-116 659,-116 665,-122 665,-128 665,-128 665,-140 665,-140 665,-146 659,-152 653,-152"/>
<text text-anchor="middle" x="551.5" y="-131.2" font-family="Helvetica,sans-Serif" font-size="11.00">ServiceRecord.mFgsNotificationShown</text>
</g>
<!-- __guard__ -->
<g id="node2" class="node">
<title>__guard__</title>
<path fill="#dcfce7" stroke="#16a34a" stroke-width="2" d="M273,-268C273,-268 37,-268 37,-268 31,-268 25,-262 25,-256 25,-256 25,-244 25,-244 25,-238 31,-232 37,-232 37,-232 273,-232 273,-232 279,-232 285,-238 285,-244 285,-244 285,-256 285,-256 285,-262 279,-268 273,-268"/>
<text text-anchor="middle" x="155" y="-247.2" font-family="Helvetica,sans-Serif" font-size="11.00">ActivityManagerService$LocalService.this$0</text>
</g>
<!-- __guard__&#45;&gt;__field__ -->
<g id="edge1" class="edge">
<title>__guard__&#45;&gt;__field__</title>
<path fill="none" stroke="#16a34a" stroke-width="1.6" d="M263.79,-231.99C279.39,-228.72 295.17,-225.05 310,-221 376.88,-202.73 451.65,-174.38 499.8,-155.05"/>
<polygon fill="#16a34a" stroke="#16a34a" stroke-width="1.6" points="500.92,-157.61 507.29,-152.02 498.83,-152.42 500.92,-157.61"/>
<text text-anchor="middle" x="374" y="-215.8" font-family="Helvetica,sans-Serif" font-size="9.00" fill="#15803d"> guards 2/3</text>
</g>
<!-- m::com.android.server.am.ActiveServices$5.run:()V -->
<g id="node3" class="node">
<title>m::com.android.server.am.ActiveServices$5.run:()V</title>
<path fill="#fee2e2" stroke="#dc2626" d="M209.5,-210C209.5,-210 100.5,-210 100.5,-210 94.5,-210 88.5,-204 88.5,-198 88.5,-198 88.5,-186 88.5,-186 88.5,-180 94.5,-174 100.5,-174 100.5,-174 209.5,-174 209.5,-174 215.5,-174 221.5,-180 221.5,-186 221.5,-186 221.5,-198 221.5,-198 221.5,-204 215.5,-210 209.5,-210"/>
<text text-anchor="middle" x="155" y="-189.2" font-family="Helvetica,sans-Serif" font-size="11.00">ActiveServices$5.run</text>
</g>
<!-- m::com.android.server.am.ActiveServices$5.run:()V&#45;&gt;__field__ -->
<g id="edge2" class="edge">
<title>m::com.android.server.am.ActiveServices$5.run:()V&#45;&gt;__field__</title>
<path fill="none" stroke="#dc2626" d="M221.59,-182.36C278.12,-174.05 361.2,-161.83 429.72,-151.76"/>
<polygon fill="#dc2626" stroke="#dc2626" points="430.49,-154.47 438,-150.54 429.67,-148.93 430.49,-154.47"/>
<text text-anchor="middle" x="374" y="-166.8" font-family="Helvetica,sans-Serif" font-size="9.00" fill="#dc2626"> writes unguarded</text>
</g>
<!-- m::com.android.server.am.ActiveServices.logFGSStateChangeLocked:(Lcom/android/server/am/ServiceRecord;IIIIIZ)V -->
<g id="node4" class="node">
<title>m::com.android.server.am.ActiveServices.logFGSStateChangeLocked:(Lcom/android/server/am/ServiceRecord;IIIIIZ)V</title>
<path fill="#fee2e2" stroke="#dc2626" d="M267,-152C267,-152 43,-152 43,-152 37,-152 31,-146 31,-140 31,-140 31,-128 31,-128 31,-122 37,-116 43,-116 43,-116 267,-116 267,-116 273,-116 279,-122 279,-128 279,-128 279,-140 279,-140 279,-146 273,-152 267,-152"/>
<text text-anchor="middle" x="155" y="-131.2" font-family="Helvetica,sans-Serif" font-size="11.00">ActiveServices.logFGSStateChangeLocked</text>
</g>
<!-- m::com.android.server.am.ActiveServices.logFGSStateChangeLocked:(Lcom/android/server/am/ServiceRecord;IIIIIZ)V&#45;&gt;__field__ -->
<g id="edge3" class="edge">
<title>m::com.android.server.am.ActiveServices.logFGSStateChangeLocked:(Lcom/android/server/am/ServiceRecord;IIIIIZ)V&#45;&gt;__field__</title>
<path fill="none" stroke="#dc2626" d="M279.2,-134C327.18,-134 381.99,-134 429.74,-134"/>
<polygon fill="#dc2626" stroke="#dc2626" points="429.95,-136.8 437.95,-134 429.95,-131.2 429.95,-136.8"/>
<text text-anchor="middle" x="374" y="-136.8" font-family="Helvetica,sans-Serif" font-size="9.00" fill="#dc2626"> reads unguarded</text>
</g>
<!-- m::com.android.server.am.ActiveServices.logFGSStateChangeLocked:(Lcom/android/server/am/ServiceRecord;IIIIIZ)V&#45;&gt;__field__ -->
<g id="edge4" class="edge">
<title>m::com.android.server.am.ActiveServices.logFGSStateChangeLocked:(Lcom/android/server/am/ServiceRecord;IIIIIZ)V&#45;&gt;__field__</title>
<path fill="none" stroke="#dc2626" d="M279.32,-121.17C322.55,-118.19 371.42,-116.52 416,-119 420.47,-119.25 425.02,-119.54 429.62,-119.88"/>
<polygon fill="#dc2626" stroke="#dc2626" points="429.74,-122.69 437.93,-120.51 430.17,-117.11 429.74,-122.69"/>
<text text-anchor="middle" x="374" y="-121.8" font-family="Helvetica,sans-Serif" font-size="9.00" fill="#dc2626"> reads unguarded</text>
</g>
<!-- m::com.android.server.am.ActiveServices.setServiceForegroundInnerLocked:(Lcom/android/server/am/ServiceRecord;ILandroid/app/Notification;IIIZ)V -->
<g id="node5" class="node">
<title>m::com.android.server.am.ActiveServices.setServiceForegroundInnerLocked:(Lcom/android/server/am/ServiceRecord;ILandroid/app/Notification;IIIZ)V</title>
<path fill="#fee2e2" stroke="#dc2626" d="M286.5,-94C286.5,-94 23.5,-94 23.5,-94 17.5,-94 11.5,-88 11.5,-82 11.5,-82 11.5,-70 11.5,-70 11.5,-64 17.5,-58 23.5,-58 23.5,-58 286.5,-58 286.5,-58 292.5,-58 298.5,-64 298.5,-70 298.5,-70 298.5,-82 298.5,-82 298.5,-88 292.5,-94 286.5,-94"/>
<text text-anchor="middle" x="155" y="-73.2" font-family="Helvetica,sans-Serif" font-size="11.00">ActiveServices.setServiceForegroundInnerLocked</text>
</g>
<!-- m::com.android.server.am.ActiveServices.setServiceForegroundInnerLocked:(Lcom/android/server/am/ServiceRecord;ILandroid/app/Notification;IIIZ)V&#45;&gt;__field__ -->
<g id="edge5" class="edge">
<title>m::com.android.server.am.ActiveServices.setServiceForegroundInnerLocked:(Lcom/android/server/am/ServiceRecord;ILandroid/app/Notification;IIIZ)V&#45;&gt;__field__</title>
<path fill="none" stroke="#dc2626" d="M298.82,-86.81C337.02,-90.65 378.2,-95.64 416,-102 435.14,-105.22 455.61,-109.6 474.65,-114.08"/>
<polygon fill="#dc2626" stroke="#dc2626" points="474.01,-116.8 482.44,-115.94 475.31,-111.36 474.01,-116.8"/>
<text text-anchor="middle" x="374" y="-104.8" font-family="Helvetica,sans-Serif" font-size="9.00" fill="#dc2626"> reads unguarded</text>
</g>
<!-- m::com.android.server.am.ForegroundServiceTypeLoggerModule.logFgsApiEvent:(Lcom/android/server/am/ServiceRecord;IIIJ)V -->
<g id="node6" class="node">
<title>m::com.android.server.am.ForegroundServiceTypeLoggerModule.logFgsApiEvent:(Lcom/android/server/am/ServiceRecord;IIIJ)V</title>
<path fill="#fee2e2" stroke="#dc2626" d="M298,-36C298,-36 12,-36 12,-36 6,-36 0,-30 0,-24 0,-24 0,-12 0,-12 0,-6 6,0 12,0 12,0 298,0 298,0 304,0 310,-6 310,-12 310,-12 310,-24 310,-24 310,-30 304,-36 298,-36"/>
<text text-anchor="middle" x="155" y="-15.2" font-family="Helvetica,sans-Serif" font-size="11.00">ForegroundServiceTypeLoggerModule.logFgsApiEvent</text>
</g>
<!-- m::com.android.server.am.ForegroundServiceTypeLoggerModule.logFgsApiEvent:(Lcom/android/server/am/ServiceRecord;IIIJ)V&#45;&gt;__field__ -->
<g id="edge6" class="edge">
<title>m::com.android.server.am.ForegroundServiceTypeLoggerModule.logFgsApiEvent:(Lcom/android/server/am/ServiceRecord;IIIJ)V&#45;&gt;__field__</title>
<path fill="none" stroke="#dc2626" d="M263.21,-36.02C310.74,-45.51 366.9,-58.79 416,-76 446.25,-86.6 479.32,-100.83 505.1,-112.53"/>
<polygon fill="#dc2626" stroke="#dc2626" points="504.07,-115.14 512.51,-115.92 506.4,-110.05 504.07,-115.14"/>
<text text-anchor="middle" x="374" y="-78.8" font-family="Helvetica,sans-Serif" font-size="9.00" fill="#dc2626"> reads unguarded</text>
</g>
</g>
</svg>
