<?xml version="1.0" encoding="UTF-8" standalone="no"?>
<!DOCTYPE svg PUBLIC "-//W3C//DTD SVG 1.1//EN"
 "http://www.w3.org/Graphics/SVG/1.1/DTD/svg11.dtd">
<!-- Generated by graphviz version 2.43.0 (0)
 -->
<!-- Title: race Pages: 1 -->
<svg width="606pt" height="102pt"
 viewBox="0.00 0.00 606.00 102.00" xmlns="http://www.w3.org/2000/svg" xmlns:xlink="http://www.w3.org/1999/xlink">
<g id="graph0" class="graph" transform="scale(1 1) rotate(0) translate(4 98)">
<title>race</title>
<polygon fill="white" stroke="transparent" points="-4,4 -4,-98 602,-98 602,4 -4,4"/>
<!-- __field__ -->
<g id="node1" class="node">
<title>__field__</title>
<path fill="#fef9c3" stroke="#ca8a04" stroke-width="2" d="M586,-65C586,-65 422,-65 422,-65 416,-65 410,-59 410,-53 410,-53 410,-41 410,-41 410,-35 416,-29 422,-29 422,-29 586,-29 586,-29 592,-29 598,-35 598,-41 598,-41 598,-53 598,-53 598,-59 592,-65 586,-65"/>
<text text-anchor="middle" x="504" y="-44.2" font-family="Helvetica,sans-Serif" font-size="11.00">PermissionGroupInfo.metaData</text>
</g>
<!-- __guard__ -->
<g id="node2" class="node">
<title>__guard__</title>
<path fill="#dcfce7" stroke="#16a34a" stroke-width="2" d="M230,-94C230,-94 52,-94 52,-94 46,-94 40,-88 40,-82 40,-82 40,-70 40,-70 40,-64 46,-58 52,-58 52,-58 230,-58 230,-58 236,-58 242,-64 242,-70 242,-70 242,-82 242,-82 242,-88 236,-94 230,-94"/>
<text text-anchor="middle" x="141" y="-73.2" font-family="Helvetica,sans-Serif" font-size="11.00">AccessCheckingService.stateLock</text>
</g>
<!-- __guard__&#45;&gt;__field__ -->
<g id="edge1" class="edge">
<title>__guard__&#45;&gt;__field__</title>
<path fill="none" stroke="#16a34a" stroke-width="1.6" d="M242.08,-67.96C291.79,-63.97 351.73,-59.15 401.62,-55.14"/>
<polygon fill="#16a34a" stroke="#16a34a" stroke-width="1.6" points="402.11,-57.91 409.86,-54.48 401.66,-52.33 402.11,-57.91"/>
<text text-anchor="middle" x="346" y="-64.8" font-family="Helvetica,sans-Serif" font-size="9.00" fill="#15803d"> guards 2/3</text>
</g>
<!-- m::com.android.server.permission.access.permission.PermissionService.generatePermissionGroupInfo:(Landroid/content/pm/PermissionGroupInfo;I)Landroid/content/pm/PermissionGroupInfo; -->
<g id="node3" class="node">
<title>m::com.android.server.permission.access.permission.PermissionService.generatePermissionGroupInfo:(Landroid/content/pm/PermissionGroupInfo;I)Landroid/content/pm/PermissionGroupInfo;</title>
<path fill="#fee2e2" stroke="#dc2626" d="M270,-36C270,-36 12,-36 12,-36 6,-36 0,-30 0,-24 0,-24 0,-12 0,-12 0,-6 6,0 12,0 12,0 270,0 270,0 276,0 282,-6 282,-12 282,-12 282,-24 282,-24 282,-30 276,-36 270,-36"/>
<text text-anchor="middle" x="141" y="-15.2" font-family="Helvetica,sans-Serif" font-size="11.00">PermissionService.generatePermissionGroupInfo</text>
</g>
<!-- m::com.android.server.permission.access.permission.PermissionService.generatePermissionGroupInfo:(Landroid/content/pm/PermissionGroupInfo;I)Landroid/content/pm/PermissionGroupInfo;&#45;&gt;__field__ -->
<g id="edge2" class="edge">
<title>m::com.android.server.permission.access.permission.PermissionService.generatePermissionGroupInfo:(Landroid/content/pm/PermissionGroupInfo;I)Landroid/content/pm/PermissionGroupInfo;&#45;&gt;__field__</title>
<path fill="none" stroke="#dc2626" d="M282.09,-29.25C321.89,-32.45 364.45,-35.87 401.49,-38.85"/>
<polygon fill="#dc2626" stroke="#dc2626" points="401.59,-41.66 409.79,-39.51 402.04,-36.08 401.59,-41.66"/>
<text text-anchor="middle" x="346" y="-39.8" font-family="Helvetica,sans-Serif" font-size="9.00" fill="#dc2626"> writes unguarded</text>
</g>
</g>
</svg>
