<?xml version="1.0" encoding="UTF-8" standalone="no"?>
<!DOCTYPE svg PUBLIC "-//W3C//DTD SVG 1.1//EN"
 "http://www.w3.org/Graphics/SVG/1.1/DTD/svg11.dtd">
<!-- Generated by graphviz version 2.43.0 (0)
 -->
<!-- Title: race Pages: 1 -->
<svg width="720pt" height="337pt"
 viewBox="0.00 0.00 720.00 337.00" xmlns="http://www.w3.org/2000/svg" xmlns:xlink="http://www.w3.org/1999/xlink">
<g id="graph0" class="graph" transform="scale(1 1) rotate(0) translate(4 333)">
<title>race</title>
<polygon fill="white" stroke="transparent" points="-4,4 -4,-333 716,-333 716,4 -4,4"/>
<!-- __field__ -->
<g id="node1" class="node">
<title>__field__</title>
<path fill="#fef9c3" stroke="#ca8a04" stroke-width="2" d="M700,-147C700,-147 475,-147 475,-147 469,-147 463,-141 463,-135 463,-135 463,-123 463,-123 463,-117 469,-111 475,-111 475,-111 700,-111 700,-111 706,-111 712,-117 712,-123 712,-123 712,-135 712,-135 712,-141 706,-147 700,-147"/>
<text text-anchor="middle" x="587.5" y="-126.2" font-family="Helvetica,sans-Serif" font-size="11.00">BatteryStatsImpl.mDischargeCurrentLevel</text>
</g>
<!-- __guard__ -->
<g id="node2" class="node">
<title>__guard__</title>
<path fill="#dcfce7" stroke="#16a34a" stroke-width="2" d="M226,-329C226,-329 109,-329 109,-329 103,-329 97,-323 97,-317 97,-317 97,-305 97,-305 97,-299 103,-293 109,-293 109,-293 226,-293 226,-293 232,-293 238,-299 238,-305 238,-305 238,-317 238,-317 238,-323 232,-329 226,-329"/>
<text text-anchor="middle" x="167.5" y="-308.2" font-family="Helvetica,sans-Serif" font-size="11.00">stats.BatteryStatsImpl</text>
</g>
<!-- __guard__&#45;&gt;__field__ -->
<g id="edge1" class="edge">
<title>__guard__&#45;&gt;__field__</title>
<path fill="none" stroke="#16a34a" stroke-width="1.6" d="M238.02,-303.38C268.29,-298.92 303.89,-292.11 335,-282 423.77,-253.15 513.87,-187.6 558.24,-152.39"/>
<polygon fill="#16a34a" stroke="#16a34a" stroke-width="1.6" points="560.2,-154.4 564.7,-147.22 556.71,-150.03 560.2,-154.4"/>
<text text-anchor="middle" x="399" y="-275.8" font-family="Helvetica,sans-Serif" font-size="9.00" fill="#15803d"> guards 4/6</text>
</g>
<!-- m::com.android.server.power.stats.BatteryStatsImpl.initTimersAndCounters:()V -->
<g id="node3" class="node">
<title>m::com.android.server.power.stats.BatteryStatsImpl.initTimersAndCounters:()V</title>
<path fill="#fee2e2" stroke="#dc2626" d="M275,-271C275,-271 60,-271 60,-271 54,-271 48,-265 48,-259 48,-259 48,-247 48,-247 48,-241 54,-235 60,-235 60,-235 275,-235 275,-235 281,-235 287,-241 287,-247 287,-247 287,-259 287,-259 287,-265 281,-271 275,-271"/>
<text text-anchor="middle" x="167.5" y="-250.2" font-family="Helvetica,sans-Serif" font-size="11.00">BatteryStatsImpl.initTimersAndCounters</text>
</g>
<!-- m::com.android.server.power.stats.BatteryStatsImpl.initTimersAndCounters:()V&#45;&gt;__field__ -->
<g id="edge2" class="edge">
<title>m::com.android.server.power.stats.BatteryStatsImpl.initTimersAndCounters:()V&#45;&gt;__field__</title>
<path fill="none" stroke="#dc2626" d="M287.35,-235.13C303.47,-231.88 319.72,-228.18 335,-224 407.59,-204.16 488.5,-171.63 538.46,-150.26"/>
<polygon fill="#dc2626" stroke="#dc2626" points="539.66,-152.8 545.9,-147.06 537.45,-147.65 539.66,-152.8"/>
<text text-anchor="middle" x="399" y="-217.8" font-family="Helvetica,sans-Serif" font-size="9.00" fill="#dc2626"> writes unguarded</text>
</g>
<!-- m::com.android.server.power.stats.BatteryStatsImpl.readSummaryFromParcel:(Landroid/os/Parcel;)V -->
<g id="node4" class="node">
<title>m::com.android.server.power.stats.BatteryStatsImpl.readSummaryFromParcel:(Landroid/os/Parcel;)V</title>
<path fill="#fee2e2" stroke="#dc2626" d="M281,-213C281,-213 54,-213 54,-213 48,-213 42,-207 42,-201 42,-201 42,-189 42,-189 42,-183 48,-177 54,-177 54,-177 281,-177 281,-177 287,-177 293,-183 293,-189 293,-189 293,-201 293,-201 293,-207 287,-213 281,-213"/>
<text text-anchor="middle" x="167.5" y="-192.2" font-family="Helvetica,sans-Serif" font-size="11.00">BatteryStatsImpl.readSummaryFromParcel</text>
</g>
<!-- m::com.android.server.power.stats.BatteryStatsImpl.readSummaryFromParcel:(Landroid/os/Parcel;)V&#45;&gt;__field__ -->
<g id="edge3" class="edge">
<title>m::com.android.server.power.stats.BatteryStatsImpl.readSummaryFromParcel:(Landroid/os/Parcel;)V&#45;&gt;__field__</title>
<path fill="none" stroke="#dc2626" d="M293.09,-177.54C339.56,-170.81 392.74,-162.85 441,-155 453.58,-152.95 466.77,-150.72 479.84,-148.45"/>
<polygon fill="#dc2626" stroke="#dc2626" points="480.55,-151.17 487.95,-147.04 479.59,-145.65 480.55,-151.17"/>
<text text-anchor="middle" x="399" y="-169.8" font-family="Helvetica,sans-Serif" font-size="9.00" fill="#dc2626"> writes unguarded</text>
</g>
<!-- m::com.android.server.power.stats.BatteryStatsImpl.updateNewDischargeScreenLevelLocked:(I)V -->
<g id="node5" class="node">
<title>m::com.android.server.power.stats.BatteryStatsImpl.updateNewDischargeScreenLevelLocked:(I)V</title>
<path fill="#fee2e2" stroke="#dc2626" d="M323,-147C323,-147 12,-147 12,-147 6,-147 0,-141 0,-135 0,-135 0,-123 0,-123 0,-117 6,-111 12,-111 12,-111 323,-111 323,-111 329,-111 335,-117 335,-123 335,-123 335,-135 335,-135 335,-141 329,-147 323,-147"/>
<text text-anchor="middle" x="167.5" y="-126.2" font-family="Helvetica,sans-Serif" font-size="11.00">BatteryStatsImpl.updateNewDischargeScreenLevelLocked</text>
</g>
<!-- m::com.android.server.power.stats.BatteryStatsImpl.updateNewDischargeScreenLevelLocked:(I)V&#45;&gt;__field__ -->
<g id="edge4" class="edge">
<title>m::com.android.server.power.stats.BatteryStatsImpl.updateNewDischargeScreenLevelLocked:(I)V&#45;&gt;__field__</title>
<path fill="none" stroke="#dc2626" d="M335.3,-139.86C370.22,-140.98 406.82,-141.29 441,-140 445.43,-139.83 449.93,-139.64 454.48,-139.42"/>
<polygon fill="#dc2626" stroke="#dc2626" points="454.86,-142.2 462.71,-139 454.58,-136.61 454.86,-142.2"/>
<text text-anchor="middle" x="399" y="-142.8" font-family="Helvetica,sans-Serif" font-size="9.00" fill="#dc2626"> reads unguarded</text>
</g>
<!-- m::com.android.server.power.stats.BatteryStatsImpl.updateNewDischargeScreenLevelLocked:(I)V&#45;&gt;__field__ -->
<g id="edge5" class="edge">
<title>m::com.android.server.power.stats.BatteryStatsImpl.updateNewDischargeScreenLevelLocked:(I)V&#45;&gt;__field__</title>
<path fill="none" stroke="#dc2626" d="M335.21,-129C374.93,-129 416.78,-129 454.69,-129"/>
<polygon fill="#dc2626" stroke="#dc2626" points="454.72,-131.8 462.72,-129 454.72,-126.2 454.72,-131.8"/>
<text text-anchor="middle" x="399" y="-131.8" font-family="Helvetica,sans-Serif" font-size="9.00" fill="#dc2626"> reads unguarded</text>
</g>
<!-- m::com.android.server.power.stats.BatteryStatsImpl.updateNewDischargeScreenLevelLocked:(I)V&#45;&gt;__field__ -->
<g id="edge6" class="edge">
<title>m::com.android.server.power.stats.BatteryStatsImpl.updateNewDischargeScreenLevelLocked:(I)V&#45;&gt;__field__</title>
<path fill="none" stroke="#dc2626" d="M335.3,-114.19C370.22,-112.67 406.81,-112.24 441,-114 445.44,-114.23 449.95,-114.5 454.5,-114.79"/>
<polygon fill="#dc2626" stroke="#dc2626" points="454.56,-117.61 462.74,-115.37 454.95,-112.02 454.56,-117.61"/>
<text text-anchor="middle" x="399" y="-116.8" font-family="Helvetica,sans-Serif" font-size="9.00" fill="#dc2626"> reads unguarded</text>
</g>
<!-- m::com.android.server.power.stats.BatteryStatsImpl.updateOldDischargeScreenLevelLocked:(I)V -->
<g id="node6" class="node">
<title>m::com.android.server.power.stats.BatteryStatsImpl.updateOldDischargeScreenLevelLocked:(I)V</title>
<path fill="#fee2e2" stroke="#dc2626" d="M320.5,-36C320.5,-36 14.5,-36 14.5,-36 8.5,-36 2.5,-30 2.5,-24 2.5,-24 2.5,-12 2.5,-12 2.5,-6 8.5,0 14.5,0 14.5,0 320.5,0 320.5,0 326.5,0 332.5,-6 332.5,-12 332.5,-12 332.5,-24 332.5,-24 332.5,-30 326.5,-36 320.5,-36"/>
<text text-anchor="middle" x="167.5" y="-15.2" font-family="Helvetica,sans-Serif" font-size="11.00">BatteryStatsImpl.updateOldDischargeScreenLevelLocked</text>
</g>
<!-- m::com.android.server.power.stats.BatteryStatsImpl.updateOldDischargeScreenLevelLocked:(I)V&#45;&gt;__field__ -->
<g id="edge7" class="edge">
<title>m::com.android.server.power.stats.BatteryStatsImpl.updateOldDischargeScreenLevelLocked:(I)V&#45;&gt;__field__</title>
<path fill="none" stroke="#dc2626" d="M236.59,-36.08C311.74,-56.04 432.38,-88.07 510.54,-108.83"/>
<polygon fill="#dc2626" stroke="#dc2626" points="509.99,-111.58 518.44,-110.93 511.43,-106.17 509.99,-111.58"/>
<text text-anchor="middle" x="399" y="-91.8" font-family="Helvetica,sans-Serif" font-size="9.00" fill="#dc2626"> reads unguarded</text>
</g>
<!-- m::com.android.server.power.stats.BatteryStatsImpl.updateOldDischargeScreenLevelLocked:(I)V&#45;&gt;__field__ -->
<g id="edge8" class="edge">
<title>m::com.android.server.power.stats.BatteryStatsImpl.updateOldDischargeScreenLevelLocked:(I)V&#45;&gt;__field__</title>
<path fill="none" stroke="#dc2626" d="M332.56,-31.22C368.78,-36.63 406.59,-44.25 441,-55 480.65,-67.38 522.6,-89.85 551.21,-106.79"/>
<polygon fill="#dc2626" stroke="#dc2626" points="549.89,-109.26 558.19,-110.96 552.76,-104.45 549.89,-109.26"/>
<text text-anchor="middle" x="399" y="-57.8" font-family="Helvetica,sans-Serif" font-size="9.00" fill="#dc2626"> reads unguarded</text>
</g>
<!-- m::com.android.server.power.stats.BatteryStatsImpl.updateOldDischargeScreenLevelLocked:(I)V&#45;&gt;__field__ -->
<g id="edge9" class="edge">
<title>m::com.android.server.power.stats.BatteryStatsImpl.updateOldDischargeScreenLevelLocked:(I)V&#45;&gt;__field__</title>
<path fill="none" stroke="#dc2626" d="M332.68,-2.54C369.07,-3.67 406.93,-8.51 441,-20 491.05,-36.87 537.84,-78.26 564.24,-104.91"/>
<polygon fill="#dc2626" stroke="#dc2626" points="562.29,-106.91 569.88,-110.68 566.3,-103 562.29,-106.91"/>
<text text-anchor="middle" x="399" y="-22.8" font-family="Helvetica,sans-Serif" font-size="9.00" fill="#dc2626"> reads unguarded</text>
</g>
</g>
</svg>
