<?xml version="1.0" encoding="UTF-8" standalone="no"?>
<!DOCTYPE svg PUBLIC "-//W3C//DTD SVG 1.1//EN"
 "http://www.w3.org/Graphics/SVG/1.1/DTD/svg11.dtd">
<!-- Generated by graphviz version 2.43.0 (0)
 -->
<!-- Title: race Pages: 1 -->
<svg width="542pt" height="160pt"
 viewBox="0.00 0.00 542.00 160.00" xmlns="http://www.w3.org/2000/svg" xmlns:xlink="http://www.w3.org/1999/xlink">
<g id="graph0" class="graph" transform="scale(1 1) rotate(0) translate(4 156)">
<title>race</title>
<polygon fill="white" stroke="transparent" points="-4,4 -4,-156 538,-156 538,4 -4,4"/>
<!-- __field__ -->
<g id="node1" class="node">
<title>__field__</title>
<path fill="#fef9c3" stroke="#ca8a04" stroke-width="2" d="M522,-94C522,-94 284,-94 284,-94 278,-94 272,-88 272,-82 272,-82 272,-70 272,-70 272,-64 278,-58 284,-58 284,-58 522,-58 522,-58 528,-58 534,-64 534,-70 534,-70 534,-82 534,-82 534,-88 528,-94 522,-94"/>
<text text-anchor="middle" x="403" y="-73.2" font-family="Helvetica,sans-Serif" font-size="11.00">SpatializerHelper.mActualHeadTrackingMode</text>
</g>
<!-- __guard__ -->
<g id="node2" class="node">
<title>__guard__</title>
<path fill="#dcfce7" stroke="#16a34a" stroke-width="2" d="M132,-152C132,-152 12,-152 12,-152 6,-152 0,-146 0,-140 0,-140 0,-128 0,-128 0,-122 6,-116 12,-116 12,-116 132,-116 132,-116 138,-116 144,-122 144,-128 144,-128 144,-140 144,-140 144,-146 138,-152 132,-152"/>
<text text-anchor="middle" x="72" y="-131.2" font-family="Helvetica,sans-Serif" font-size="11.00">audio.SpatializerHelper</text>
</g>
<!-- __guard__&#45;&gt;__field__ -->
<g id="edge1" class="edge">
<title>__guard__&#45;&gt;__field__</title>
<path fill="none" stroke="#16a34a" stroke-width="1.6" d="M144.39,-121.41C187.44,-113.82 243.19,-104 291.8,-95.43"/>
<polygon fill="#16a34a" stroke="#16a34a" stroke-width="1.6" points="292.46,-98.15 299.85,-94.01 291.49,-92.64 292.46,-98.15"/>
<text text-anchor="middle" x="208" y="-118.8" font-family="Helvetica,sans-Serif" font-size="9.00" fill="#15803d"> guards 3/4</text>
</g>
<!-- m::com.android.server.audio.SpatializerHelper.init:(Z)V -->
<g id="node3" class="node">
<title>m::com.android.server.audio.SpatializerHelper.init:(Z)V</title>
<path fill="#fee2e2" stroke="#dc2626" d="M125.5,-94C125.5,-94 18.5,-94 18.5,-94 12.5,-94 6.5,-88 6.5,-82 6.5,-82 6.5,-70 6.5,-70 6.5,-64 12.5,-58 18.5,-58 18.5,-58 125.5,-58 125.5,-58 131.5,-58 137.5,-64 137.5,-70 137.5,-70 137.5,-82 137.5,-82 137.5,-88 131.5,-94 125.5,-94"/>
<text text-anchor="middle" x="72" y="-73.2" font-family="Helvetica,sans-Serif" font-size="11.00">SpatializerHelper.init</text>
</g>
<!-- m::com.android.server.audio.SpatializerHelper.init:(Z)V&#45;&gt;__field__ -->
<g id="edge2" class="edge">
<title>m::com.android.server.audio.SpatializerHelper.init:(Z)V&#45;&gt;__field__</title>
<path fill="none" stroke="#dc2626" d="M137.61,-76C173.63,-76 219.95,-76 263.72,-76"/>
<polygon fill="#dc2626" stroke="#dc2626" points="263.86,-78.8 271.86,-76 263.86,-73.2 263.86,-78.8"/>
<text text-anchor="middle" x="208" y="-78.8" font-family="Helvetica,sans-Serif" font-size="9.00" fill="#dc2626"> writes unguarded</text>
</g>
<!-- m::com.android.server.audio.SpatializerHelper.dump:(Ljava/io/PrintWriter;)V -->
<g id="node4" class="node">
<title>m::com.android.server.audio.SpatializerHelper.dump:(Ljava/io/PrintWriter;)V</title>
<path fill="#fee2e2" stroke="#dc2626" d="M132,-36C132,-36 12,-36 12,-36 6,-36 0,-30 0,-24 0,-24 0,-12 0,-12 0,-6 6,0 12,0 12,0 132,0 132,0 138,0 144,-6 144,-12 144,-12 144,-24 144,-24 144,-30 138,-36 132,-36"/>
<text text-anchor="middle" x="72" y="-15.2" font-family="Helvetica,sans-Serif" font-size="11.00">SpatializerHelper.dump</text>
</g>
<!-- m::com.android.server.audio.SpatializerHelper.dump:(Ljava/io/PrintWriter;)V&#45;&gt;__field__ -->
<g id="edge3" class="edge">
<title>m::com.android.server.audio.SpatializerHelper.dump:(Ljava/io/PrintWriter;)V&#45;&gt;__field__</title>
<path fill="none" stroke="#dc2626" d="M144.39,-30.59C187.44,-38.18 243.19,-48 291.8,-56.57"/>
<polygon fill="#dc2626" stroke="#dc2626" points="291.49,-59.36 299.85,-57.99 292.46,-53.85 291.49,-59.36"/>
<text text-anchor="middle" x="208" y="-50.8" font-family="Helvetica,sans-Serif" font-size="9.00" fill="#dc2626"> reads unguarded</text>
</g>
</g>
</svg>
