<?xml version="1.0" encoding="UTF-8" standalone="no"?>
<!DOCTYPE svg PUBLIC "-//W3C//DTD SVG 1.1//EN"
 "http://www.w3.org/Graphics/SVG/1.1/DTD/svg11.dtd">
<!-- Generated by graphviz version 2.43.0 (0)
 -->
<!-- Title: race Pages: 1 -->
<svg width="742pt" height="860pt"
 viewBox="0.00 0.00 742.00 860.12" xmlns="http://www.w3.org/2000/svg" xmlns:xlink="http://www.w3.org/1999/xlink">
<g id="graph0" class="graph" transform="scale(1 1) rotate(0) translate(4 856.12)">
<title>race</title>
<polygon fill="white" stroke="transparent" points="-4,4 -4,-856.12 738,-856.12 738,4 -4,4"/>
<!-- __field__ -->
<g id="node1" class="node">
<title>__field__</title>
<path fill="#fef9c3" stroke="#ca8a04" stroke-width="2" d="M722,-450C722,-450 600,-450 600,-450 594,-450 588,-444 588,-438 588,-438 588,-426 588,-426 588,-420 594,-414 600,-414 600,-414 722,-414 722,-414 728,-414 734,-420 734,-426 734,-426 734,-438 734,-438 734,-444 728,-450 722,-450"/>
<text text-anchor="middle" x="661" y="-429.2" font-family="Helvetica,sans-Serif" font-size="11.00">WallpaperData.mWhich</text>
</g>
<!-- __guard__ -->
<g id="node2" class="node">
<title>__guard__</title>
<path fill="#dcfce7" stroke="#16a34a" stroke-width="2" d="M317.5,-848C317.5,-848 142.5,-848 142.5,-848 136.5,-848 130.5,-842 130.5,-836 130.5,-836 130.5,-824 130.5,-824 130.5,-818 136.5,-812 142.5,-812 142.5,-812 317.5,-812 317.5,-812 323.5,-812 329.5,-818 329.5,-824 329.5,-824 329.5,-836 329.5,-836 329.5,-842 323.5,-848 317.5,-848"/>
<text text-anchor="middle" x="230" y="-827.2" font-family="Helvetica,sans-Serif" font-size="11.00">WallpaperManagerService.mLock</text>
</g>
<!-- __guard__&#45;&gt;__field__ -->
<g id="edge1" class="edge">
<title>__guard__&#45;&gt;__field__</title>
<path fill="none" stroke="#16a34a" stroke-width="1.6" d="M324.07,-848.01C398.2,-856.7 500.12,-855.19 566,-799 618.64,-754.1 648.25,-535.12 657.13,-458.52"/>
<polygon fill="#16a34a" stroke="#16a34a" stroke-width="1.6" points="659.94,-458.58 658.06,-450.32 654.37,-457.95 659.94,-458.58"/>
<text text-anchor="middle" x="524" y="-841.8" font-family="Helvetica,sans-Serif" font-size="9.00" fill="#15803d"> guards 7/10</text>
</g>
<!-- m::com.android.server.wallpaper.WallpaperDataParser.loadSettingsLocked:(IZZI)Lcom/android/server/wallpaper/WallpaperDataParser$WallpaperLoadingResult; -->
<g id="node3" class="node">
<title>m::com.android.server.wallpaper.WallpaperDataParser.loadSettingsLocked:(IZZI)Lcom/android/server/wallpaper/WallpaperDataParser$WallpaperLoadingResult;</title>
<path fill="#fee2e2" stroke="#dc2626" d="M339,-790C339,-790 121,-790 121,-790 115,-790 109,-784 109,-778 109,-778 109,-766 109,-766 109,-760 115,-754 121,-754 121,-754 339,-754 339,-754 345,-754 351,-760 351,-766 351,-766 351,-778 351,-778 351,-784 345,-790 339,-790"/>
<text text-anchor="middle" x="230" y="-769.2" font-family="Helvetica,sans-Serif" font-size="11.00">WallpaperDataParser.loadSettingsLocked</text>
</g>
<!-- m::com.android.server.wallpaper.WallpaperDataParser.loadSettingsLocked:(IZZI)Lcom/android/server/wallpaper/WallpaperDataParser$WallpaperLoadingResult;&#45;&gt;__field__ -->
<g id="edge2" class="edge">
<title>m::com.android.server.wallpaper.WallpaperDataParser.loadSettingsLocked:(IZZI)Lcom/android/server/wallpaper/WallpaperDataParser$WallpaperLoadingResult;&#45;&gt;__field__</title>
<path fill="none" stroke="#dc2626" d="M316.68,-790.02C390.78,-800.38 496.64,-801.94 566,-746 611.77,-709.09 644.9,-527.14 655.97,-458.38"/>
<polygon fill="#dc2626" stroke="#dc2626" points="658.78,-458.54 657.27,-450.2 653.25,-457.66 658.78,-458.54"/>
<text text-anchor="middle" x="524" y="-786.8" font-family="Helvetica,sans-Serif" font-size="9.00" fill="#dc2626"> writes unguarded</text>
</g>
<!-- m::com.android.server.wallpaper.WallpaperDataParser.loadSettingsLocked:(IZZI)Lcom/android/server/wallpaper/WallpaperDataParser$WallpaperLoadingResult;&#45;&gt;__field__ -->
<g id="edge3" class="edge">
<title>m::com.android.server.wallpaper.WallpaperDataParser.loadSettingsLocked:(IZZI)Lcom/android/server/wallpaper/WallpaperDataParser$WallpaperLoadingResult;&#45;&gt;__field__</title>
<path fill="none" stroke="#dc2626" d="M351.18,-762.34C386.56,-758.01 425.13,-751.81 460,-743 463.06,-742.23 563.81,-704.27 566,-702 633.47,-632.19 652.72,-511.42 658.04,-458.33"/>
<polygon fill="#dc2626" stroke="#dc2626" points="660.85,-458.34 658.81,-450.11 655.28,-457.82 660.85,-458.34"/>
<text text-anchor="middle" x="524" y="-736.8" font-family="Helvetica,sans-Serif" font-size="9.00" fill="#dc2626"> writes unguarded</text>
</g>
<!-- m::com.android.server.wallpaper.WallpaperManagerService.initializeFallbackWallpaper:()V -->
<g id="node4" class="node">
<title>m::com.android.server.wallpaper.WallpaperManagerService.initializeFallbackWallpaper:()V</title>
<path fill="#fee2e2" stroke="#dc2626" d="M372,-732C372,-732 88,-732 88,-732 82,-732 76,-726 76,-720 76,-720 76,-708 76,-708 76,-702 82,-696 88,-696 88,-696 372,-696 372,-696 378,-696 384,-702 384,-708 384,-708 384,-720 384,-720 384,-726 378,-732 372,-732"/>
<text text-anchor="middle" x="230" y="-711.2" font-family="Helvetica,sans-Serif" font-size="11.00">WallpaperManagerService.initializeFallbackWallpaper</text>
</g>
<!-- m::com.android.server.wallpaper.WallpaperManagerService.initializeFallbackWallpaper:()V&#45;&gt;__field__ -->
<g id="edge4" class="edge">
<title>m::com.android.server.wallpaper.WallpaperManagerService.initializeFallbackWallpaper:()V&#45;&gt;__field__</title>
<path fill="none" stroke="#dc2626" d="M384.24,-713.56C448.15,-705.49 518.41,-685.08 566,-638 618.01,-586.55 644.07,-501.05 654.43,-458.18"/>
<polygon fill="#dc2626" stroke="#dc2626" points="657.2,-458.63 656.3,-450.2 651.75,-457.36 657.2,-458.63"/>
<text text-anchor="middle" x="524" y="-689.8" font-family="Helvetica,sans-Serif" font-size="9.00" fill="#dc2626"> writes unguarded</text>
</g>
<!-- m::com.android.server.wallpaper.WallpaperData.getCropFile:()Ljava/io/File; -->
<g id="node5" class="node">
<title>m::com.android.server.wallpaper.WallpaperData.getCropFile:()Ljava/io/File;</title>
<path fill="#fee2e2" stroke="#dc2626" d="M299.5,-674C299.5,-674 160.5,-674 160.5,-674 154.5,-674 148.5,-668 148.5,-662 148.5,-662 148.5,-650 148.5,-650 148.5,-644 154.5,-638 160.5,-638 160.5,-638 299.5,-638 299.5,-638 305.5,-638 311.5,-644 311.5,-650 311.5,-650 311.5,-662 311.5,-662 311.5,-668 305.5,-674 299.5,-674"/>
<text text-anchor="middle" x="230" y="-653.2" font-family="Helvetica,sans-Serif" font-size="11.00">WallpaperData.getCropFile</text>
</g>
<!-- m::com.android.server.wallpaper.WallpaperData.getCropFile:()Ljava/io/File;&#45;&gt;__field__ -->
<g id="edge5" class="edge">
<title>m::com.android.server.wallpaper.WallpaperData.getCropFile:()Ljava/io/File;&#45;&gt;__field__</title>
<path fill="none" stroke="#dc2626" d="M311.61,-657.12C386.14,-653.89 495.67,-637.74 566,-576 604.47,-542.23 633.58,-489.09 648.61,-457.69"/>
<polygon fill="#dc2626" stroke="#dc2626" points="651.26,-458.63 652.12,-450.19 646.19,-456.25 651.26,-458.63"/>
<text text-anchor="middle" x="524" y="-625.8" font-family="Helvetica,sans-Serif" font-size="9.00" fill="#dc2626"> reads unguarded</text>
</g>
<!-- m::com.android.server.wallpaper.WallpaperData.getFile:(Landroid/util/SparseArray;Ljava/lang/String;)Ljava/io/File; -->
<g id="node6" class="node">
<title>m::com.android.server.wallpaper.WallpaperData.getFile:(Landroid/util/SparseArray;Ljava/lang/String;)Ljava/io/File;</title>
<path fill="#fee2e2" stroke="#dc2626" d="M286.5,-616C286.5,-616 173.5,-616 173.5,-616 167.5,-616 161.5,-610 161.5,-604 161.5,-604 161.5,-592 161.5,-592 161.5,-586 167.5,-580 173.5,-580 173.5,-580 286.5,-580 286.5,-580 292.5,-580 298.5,-586 298.5,-592 298.5,-592 298.5,-604 298.5,-604 298.5,-610 292.5,-616 286.5,-616"/>
<text text-anchor="middle" x="230" y="-595.2" font-family="Helvetica,sans-Serif" font-size="11.00">WallpaperData.getFile</text>
</g>
<!-- m::com.android.server.wallpaper.WallpaperData.getFile:(Landroid/util/SparseArray;Ljava/lang/String;)Ljava/io/File;&#45;&gt;__field__ -->
<g id="edge6" class="edge">
<title>m::com.android.server.wallpaper.WallpaperData.getFile:(Landroid/util/SparseArray;Ljava/lang/String;)Ljava/io/File;&#45;&gt;__field__</title>
<path fill="none" stroke="#dc2626" d="M298.52,-595.03C344.73,-591.65 407,-584.43 460,-569 510.01,-554.44 522.83,-548.14 566,-519 592.99,-500.78 619.86,-474.94 637.92,-456.15"/>
<polygon fill="#dc2626" stroke="#dc2626" points="640.21,-457.8 643.69,-450.07 636.15,-453.95 640.21,-457.8"/>
<text text-anchor="middle" x="524" y="-563.8" font-family="Helvetica,sans-Serif" font-size="9.00" fill="#dc2626"> reads unguarded</text>
</g>
<!-- m::com.android.server.wallpaper.WallpaperData.getWallpaperFile:()Ljava/io/File; -->
<g id="node7" class="node">
<title>m::com.android.server.wallpaper.WallpaperData.getWallpaperFile:()Ljava/io/File;</title>
<path fill="#fee2e2" stroke="#dc2626" d="M314,-558C314,-558 146,-558 146,-558 140,-558 134,-552 134,-546 134,-546 134,-534 134,-534 134,-528 140,-522 146,-522 146,-522 314,-522 314,-522 320,-522 326,-528 326,-534 326,-534 326,-546 326,-546 326,-552 320,-558 314,-558"/>
<text text-anchor="middle" x="230" y="-537.2" font-family="Helvetica,sans-Serif" font-size="11.00">WallpaperData.getWallpaperFile</text>
</g>
<!-- m::com.android.server.wallpaper.WallpaperData.getWallpaperFile:()Ljava/io/File;&#45;&gt;__field__ -->
<g id="edge7" class="edge">
<title>m::com.android.server.wallpaper.WallpaperData.getWallpaperFile:()Ljava/io/File;&#45;&gt;__field__</title>
<path fill="none" stroke="#dc2626" d="M326.15,-533.32C367.7,-529.03 416.72,-522.1 460,-511 514.92,-496.91 575.07,-471.74 614.91,-453.59"/>
<polygon fill="#dc2626" stroke="#dc2626" points="616.5,-455.94 622.6,-450.05 614.16,-450.85 616.5,-455.94"/>
<text text-anchor="middle" x="524" y="-506.8" font-family="Helvetica,sans-Serif" font-size="9.00" fill="#dc2626"> reads unguarded</text>
</g>
<!-- m::com.android.server.wallpaper.WallpaperData.toString:()Ljava/lang/String; -->
<g id="node8" class="node">
<title>m::com.android.server.wallpaper.WallpaperData.toString:()Ljava/lang/String;</title>
<path fill="#fee2e2" stroke="#dc2626" d="M290.5,-500C290.5,-500 169.5,-500 169.5,-500 163.5,-500 157.5,-494 157.5,-488 157.5,-488 157.5,-476 157.5,-476 157.5,-470 163.5,-464 169.5,-464 169.5,-464 290.5,-464 290.5,-464 296.5,-464 302.5,-470 302.5,-476 302.5,-476 302.5,-488 302.5,-488 302.5,-494 296.5,-500 290.5,-500"/>
<text text-anchor="middle" x="230" y="-479.2" font-family="Helvetica,sans-Serif" font-size="11.00">WallpaperData.toString</text>
</g>
<!-- m::com.android.server.wallpaper.WallpaperData.toString:()Ljava/lang/String;&#45;&gt;__field__ -->
<g id="edge8" class="edge">
<title>m::com.android.server.wallpaper.WallpaperData.toString:()Ljava/lang/String;&#45;&gt;__field__</title>
<path fill="none" stroke="#dc2626" d="M302.62,-474.66C370.5,-467.58 475.27,-456.28 566,-445 570.56,-444.43 575.23,-443.84 579.95,-443.22"/>
<polygon fill="#dc2626" stroke="#dc2626" points="580.35,-445.99 587.92,-442.17 579.62,-440.44 580.35,-445.99"/>
<text text-anchor="middle" x="524" y="-456.8" font-family="Helvetica,sans-Serif" font-size="9.00" fill="#dc2626"> reads unguarded</text>
</g>
<!-- m::com.android.server.wallpaper.WallpaperManagerService$DisplayConnector.connectLocked:(Lcom/android/server/wallpaper/WallpaperManagerService$WallpaperConnection;Lcom/android/server/wallpaper/WallpaperData;)V -->
<g id="node9" class="node">
<title>m::com.android.server.wallpaper.WallpaperManagerService$DisplayConnector.connectLocked:(Lcom/android/server/wallpaper/WallpaperManagerService$WallpaperConnection;Lcom/android/server/wallpaper/WallpaperData;)V</title>
<path fill="#fee2e2" stroke="#dc2626" d="M392,-442C392,-442 68,-442 68,-442 62,-442 56,-436 56,-430 56,-430 56,-418 56,-418 56,-412 62,-406 68,-406 68,-406 392,-406 392,-406 398,-406 404,-412 404,-418 404,-418 404,-430 404,-430 404,-436 398,-442 392,-442"/>
<text text-anchor="middle" x="230" y="-421.2" font-family="Helvetica,sans-Serif" font-size="11.00">WallpaperManagerService$DisplayConnector.connectLocked</text>
</g>
<!-- m::com.android.server.wallpaper.WallpaperManagerService$DisplayConnector.connectLocked:(Lcom/android/server/wallpaper/WallpaperManagerService$WallpaperConnection;Lcom/android/server/wallpaper/WallpaperData;)V&#45;&gt;__field__ -->
<g id="edge9" class="edge">
<title>m::com.android.server.wallpaper.WallpaperManagerService$DisplayConnector.connectLocked:(Lcom/android/server/wallpaper/WallpaperManagerService$WallpaperConnection;Lcom/android/server/wallpaper/WallpaperData;)V&#45;&gt;__field__</title>
<path fill="none" stroke="#dc2626" d="M404.25,-427.23C465.05,-428.36 530.44,-429.58 579.89,-430.51"/>
<polygon fill="#dc2626" stroke="#dc2626" points="579.94,-433.31 587.99,-430.66 580.04,-427.71 579.94,-433.31"/>
<text text-anchor="middle" x="524" y="-432.8" font-family="Helvetica,sans-Serif" font-size="9.00" fill="#dc2626"> reads unguarded</text>
</g>
<!-- m::com.android.server.wallpaper.WallpaperManagerService$MyPackageMonitor.doPackagesChangedLocked:(ZLcom/android/server/wallpaper/WallpaperData;)Z -->
<g id="node10" class="node">
<title>m::com.android.server.wallpaper.WallpaperManagerService$MyPackageMonitor.doPackagesChangedLocked:(ZLcom/android/server/wallpaper/WallpaperData;)Z</title>
<path fill="#fee2e2" stroke="#dc2626" d="M430,-384C430,-384 30,-384 30,-384 24,-384 18,-378 18,-372 18,-372 18,-360 18,-360 18,-354 24,-348 30,-348 30,-348 430,-348 430,-348 436,-348 442,-354 442,-360 442,-360 442,-372 442,-372 442,-378 436,-384 430,-384"/>
<text text-anchor="middle" x="230" y="-363.2" font-family="Helvetica,sans-Serif" font-size="11.00">WallpaperManagerService$MyPackageMonitor.doPackagesChangedLocked</text>
</g>
<!-- m::com.android.server.wallpaper.WallpaperManagerService$MyPackageMonitor.doPackagesChangedLocked:(ZLcom/android/server/wallpaper/WallpaperData;)Z&#45;&gt;__field__ -->
<g id="edge10" class="edge">
<title>m::com.android.server.wallpaper.WallpaperManagerService$MyPackageMonitor.doPackagesChangedLocked:(ZLcom/android/server/wallpaper/WallpaperData;)Z&#45;&gt;__field__</title>
<path fill="none" stroke="#dc2626" d="M380.48,-384.01C407,-387.46 434.33,-391.2 460,-395 507.27,-402 519.02,-404.27 566,-413 570.56,-413.85 575.24,-414.74 579.97,-415.65"/>
<polygon fill="#dc2626" stroke="#dc2626" points="579.55,-418.42 587.94,-417.2 580.62,-412.92 579.55,-418.42"/>
<text text-anchor="middle" x="524" y="-415.8" font-family="Helvetica,sans-Serif" font-size="9.00" fill="#dc2626"> reads unguarded</text>
</g>
<!-- m::com.android.server.wallpaper.WallpaperManagerService$MyPackageMonitor.doPackagesChangedLocked:(ZLcom/android/server/wallpaper/WallpaperData;)Z&#45;&gt;__field__ -->
<g id="edge11" class="edge">
<title>m::com.android.server.wallpaper.WallpaperManagerService$MyPackageMonitor.doPackagesChangedLocked:(ZLcom/android/server/wallpaper/WallpaperData;)Z&#45;&gt;__field__</title>
<path fill="none" stroke="#dc2626" d="M442.26,-362.94C483.79,-366.18 526.67,-372.3 566,-383 586.98,-388.71 608.61,-399.58 625.83,-409.64"/>
<polygon fill="#dc2626" stroke="#dc2626" points="624.62,-412.18 632.92,-413.88 627.49,-407.37 624.62,-412.18"/>
<text text-anchor="middle" x="524" y="-385.8" font-family="Helvetica,sans-Serif" font-size="9.00" fill="#dc2626"> reads unguarded</text>
</g>
<!-- m::com.android.server.wallpaper.WallpaperManagerService$MyPackageMonitor.onPackageUpdateFinished:(Ljava/lang/String;I)V -->
<g id="node11" class="node">
<title>m::com.android.server.wallpaper.WallpaperManagerService$MyPackageMonitor.onPackageUpdateFinished:(Ljava/lang/String;I)V</title>
<path fill="#fee2e2" stroke="#dc2626" d="M426,-326C426,-326 34,-326 34,-326 28,-326 22,-320 22,-314 22,-314 22,-302 22,-302 22,-296 28,-290 34,-290 34,-290 426,-290 426,-290 432,-290 438,-296 438,-302 438,-302 438,-314 438,-314 438,-320 432,-326 426,-326"/>
<text text-anchor="middle" x="230" y="-305.2" font-family="Helvetica,sans-Serif" font-size="11.00">WallpaperManagerService$MyPackageMonitor.onPackageUpdateFinished</text>
</g>
<!-- m::com.android.server.wallpaper.WallpaperManagerService$MyPackageMonitor.onPackageUpdateFinished:(Ljava/lang/String;I)V&#45;&gt;__field__ -->
<g id="edge12" class="edge">
<title>m::com.android.server.wallpaper.WallpaperManagerService$MyPackageMonitor.onPackageUpdateFinished:(Ljava/lang/String;I)V&#45;&gt;__field__</title>
<path fill="none" stroke="#dc2626" d="M438.19,-316.09C481.72,-323 526.42,-334.19 566,-352 594.62,-364.88 621.26,-389.2 638.81,-407.66"/>
<polygon fill="#dc2626" stroke="#dc2626" points="636.91,-409.73 644.41,-413.67 641.01,-405.91 636.91,-409.73"/>
<text text-anchor="middle" x="524" y="-354.8" font-family="Helvetica,sans-Serif" font-size="9.00" fill="#dc2626"> reads unguarded</text>
</g>
<!-- m::com.android.server.wallpaper.WallpaperManagerService$WallpaperConnection.appendConnectorWithCondition:(Ljava/util/function/Predicate;)V -->
<g id="node12" class="node">
<title>m::com.android.server.wallpaper.WallpaperManagerService$WallpaperConnection.appendConnectorWithCondition:(Ljava/util/function/Predicate;)V</title>
<path fill="#fee2e2" stroke="#dc2626" d="M448,-268C448,-268 12,-268 12,-268 6,-268 0,-262 0,-256 0,-256 0,-244 0,-244 0,-238 6,-232 12,-232 12,-232 448,-232 448,-232 454,-232 460,-238 460,-244 460,-244 460,-256 460,-256 460,-262 454,-268 448,-268"/>
<text text-anchor="middle" x="230" y="-247.2" font-family="Helvetica,sans-Serif" font-size="11.00">WallpaperManagerService$WallpaperConnection.appendConnectorWithCondition</text>
</g>
<!-- m::com.android.server.wallpaper.WallpaperManagerService$WallpaperConnection.appendConnectorWithCondition:(Ljava/util/function/Predicate;)V&#45;&gt;__field__ -->
<g id="edge13" class="edge">
<title>m::com.android.server.wallpaper.WallpaperManagerService$WallpaperConnection.appendConnectorWithCondition:(Ljava/util/function/Predicate;)V&#45;&gt;__field__</title>
<path fill="none" stroke="#dc2626" d="M460.1,-264.4C497.66,-274.03 534.53,-288.5 566,-310 602.68,-335.06 631.34,-378.98 646.95,-406.73"/>
<polygon fill="#dc2626" stroke="#dc2626" points="644.5,-408.09 650.81,-413.75 649.41,-405.39 644.5,-408.09"/>
<text text-anchor="middle" x="524" y="-312.8" font-family="Helvetica,sans-Serif" font-size="9.00" fill="#dc2626"> reads unguarded</text>
</g>
<!-- m::com.android.server.wallpaper.WallpaperManagerService$WallpaperConnection.getDisplayConnectorOrCreate:(I)Lcom/android/server/wallpaper/WallpaperManagerService$DisplayConnector; -->
<g id="node13" class="node">
<title>m::com.android.server.wallpaper.WallpaperManagerService$WallpaperConnection.getDisplayConnectorOrCreate:(I)Lcom/android/server/wallpaper/WallpaperManagerService$DisplayConnector;</title>
<path fill="#fee2e2" stroke="#dc2626" d="M444,-210C444,-210 16,-210 16,-210 10,-210 4,-204 4,-198 4,-198 4,-186 4,-186 4,-180 10,-174 16,-174 16,-174 444,-174 444,-174 450,-174 456,-180 456,-186 456,-186 456,-198 456,-198 456,-204 450,-210 444,-210"/>
<text text-anchor="middle" x="230" y="-189.2" font-family="Helvetica,sans-Serif" font-size="11.00">WallpaperManagerService$WallpaperConnection.getDisplayConnectorOrCreate</text>
</g>
<!-- m::com.android.server.wallpaper.WallpaperManagerService$WallpaperConnection.getDisplayConnectorOrCreate:(I)Lcom/android/server/wallpaper/WallpaperManagerService$DisplayConnector;&#45;&gt;__field__ -->
<g id="edge14" class="edge">
<title>m::com.android.server.wallpaper.WallpaperManagerService$WallpaperConnection.getDisplayConnectorOrCreate:(I)Lcom/android/server/wallpaper/WallpaperManagerService$DisplayConnector;&#45;&gt;__field__</title>
<path fill="none" stroke="#dc2626" d="M456.4,-201.92C496.18,-212.27 534.79,-228.9 566,-255 614.26,-295.36 641.24,-367.01 652.93,-405.62"/>
<polygon fill="#dc2626" stroke="#dc2626" points="650.38,-406.89 655.32,-413.78 655.76,-405.31 650.38,-406.89"/>
<text text-anchor="middle" x="524" y="-257.8" font-family="Helvetica,sans-Serif" font-size="9.00" fill="#dc2626"> reads unguarded</text>
</g>
<!-- m::com.android.server.wallpaper.WallpaperManagerService$WallpaperConnection.tryToRebind:()V -->
<g id="node14" class="node">
<title>m::com.android.server.wallpaper.WallpaperManagerService$WallpaperConnection.tryToRebind:()V</title>
<path fill="#fee2e2" stroke="#dc2626" d="M393.5,-152C393.5,-152 66.5,-152 66.5,-152 60.5,-152 54.5,-146 54.5,-140 54.5,-140 54.5,-128 54.5,-128 54.5,-122 60.5,-116 66.5,-116 66.5,-116 393.5,-116 393.5,-116 399.5,-116 405.5,-122 405.5,-128 405.5,-128 405.5,-140 405.5,-140 405.5,-146 399.5,-152 393.5,-152"/>
<text text-anchor="middle" x="230" y="-131.2" font-family="Helvetica,sans-Serif" font-size="11.00">WallpaperManagerService$WallpaperConnection.tryToRebind</text>
</g>
<!-- m::com.android.server.wallpaper.WallpaperManagerService$WallpaperConnection.tryToRebind:()V&#45;&gt;__field__ -->
<g id="edge15" class="edge">
<title>m::com.android.server.wallpaper.WallpaperManagerService$WallpaperConnection.tryToRebind:()V&#45;&gt;__field__</title>
<path fill="none" stroke="#dc2626" d="M405.53,-130.42C462.89,-137.85 522.92,-156.12 566,-196 628.13,-253.51 649.94,-357.48 656.96,-405.89"/>
<polygon fill="#dc2626" stroke="#dc2626" points="654.21,-406.44 658.07,-413.99 659.76,-405.68 654.21,-406.44"/>
<text text-anchor="middle" x="524" y="-198.8" font-family="Helvetica,sans-Serif" font-size="9.00" fill="#dc2626"> reads unguarded</text>
</g>
<!-- m::com.android.server.wallpaper.WallpaperManagerService$WallpaperObserver.updateWallpapers:(ILjava/lang/String;)V -->
<g id="node15" class="node">
<title>m::com.android.server.wallpaper.WallpaperManagerService$WallpaperObserver.updateWallpapers:(ILjava/lang/String;)V</title>
<path fill="#fee2e2" stroke="#dc2626" d="M405,-94C405,-94 55,-94 55,-94 49,-94 43,-88 43,-82 43,-82 43,-70 43,-70 43,-64 49,-58 55,-58 55,-58 405,-58 405,-58 411,-58 417,-64 417,-70 417,-70 417,-82 417,-82 417,-88 411,-94 405,-94"/>
<text text-anchor="middle" x="230" y="-73.2" font-family="Helvetica,sans-Serif" font-size="11.00">WallpaperManagerService$WallpaperObserver.updateWallpapers</text>
</g>
<!-- m::com.android.server.wallpaper.WallpaperManagerService$WallpaperObserver.updateWallpapers:(ILjava/lang/String;)V&#45;&gt;__field__ -->
<g id="edge16" class="edge">
<title>m::com.android.server.wallpaper.WallpaperManagerService$WallpaperObserver.updateWallpapers:(ILjava/lang/String;)V&#45;&gt;__field__</title>
<path fill="none" stroke="#dc2626" d="M417.1,-70.73C471.29,-78.43 526.47,-96.66 566,-135 643.37,-210.03 657.24,-348.21 659.6,-405.76"/>
<polygon fill="#dc2626" stroke="#dc2626" points="656.8,-406.07 659.87,-413.97 662.4,-405.88 656.8,-406.07"/>
<text text-anchor="middle" x="524" y="-137.8" font-family="Helvetica,sans-Serif" font-size="9.00" fill="#dc2626"> reads unguarded</text>
</g>
<!-- m::com.android.server.wallpaper.WallpaperManagerService.$r8$lambda$AmUWA&#45;zo1T459jgxbE0_PDcVzx4:(Lcom/android/server/wallpaper/WallpaperManagerInternal$ColorsChangedCallbackInternal;Landroid/app/WallpaperColors;Lcom/android/server/wallpaper/WallpaperData;I)V -->
<g id="node16" class="node">
<title>m::com.android.server.wallpaper.WallpaperManagerService.$r8$lambda$AmUWA&#45;zo1T459jgxbE0_PDcVzx4:(Lcom/android/server/wallpaper/WallpaperManagerInternal$ColorsChangedCallbackInternal;Landroid/app/WallpaperColors;Lcom/android/server/wallpaper/WallpaperData;I)V</title>
<path fill="#fee2e2" stroke="#dc2626" d="M428,-36C428,-36 32,-36 32,-36 26,-36 20,-30 20,-24 20,-24 20,-12 20,-12 20,-6 26,0 32,0 32,0 428,0 428,0 434,0 440,-6 440,-12 440,-12 440,-24 440,-24 440,-30 434,-36 428,-36"/>
<text text-anchor="middle" x="230" y="-15.2" font-family="Helvetica,sans-Serif" font-size="11.00">WallpaperManagerService.$r8$lambda$AmUWA&#45;zo1T459jgxbE0_PDcVzx4</text>
</g>
<!-- m::com.android.server.wallpaper.WallpaperManagerService.$r8$lambda$AmUWA&#45;zo1T459jgxbE0_PDcVzx4:(Lcom/android/server/wallpaper/WallpaperManagerInternal$ColorsChangedCallbackInternal;Landroid/app/WallpaperColors;Lcom/android/server/wallpaper/WallpaperData;I)V&#45;&gt;__field__ -->
<g id="edge17" class="edge">
<title>m::com.android.server.wallpaper.WallpaperManagerService.$r8$lambda$AmUWA&#45;zo1T459jgxbE0_PDcVzx4:(Lcom/android/server/wallpaper/WallpaperManagerInternal$ColorsChangedCallbackInternal;Landroid/app/WallpaperColors;Lcom/android/server/wallpaper/WallpaperData;I)V&#45;&gt;__field__</title>
<path fill="none" stroke="#dc2626" d="M440.22,-13.25C486.8,-22.03 532.3,-39.82 566,-73 614.18,-120.44 646.55,-331.45 656.64,-405.89"/>
<polygon fill="#dc2626" stroke="#dc2626" points="653.87,-406.32 657.71,-413.87 659.42,-405.57 653.87,-406.32"/>
<text text-anchor="middle" x="524" y="-75.8" font-family="Helvetica,sans-Serif" font-size="9.00" fill="#dc2626"> reads unguarded</text>
</g>
</g>
</svg>
