<?xml version="1.0" encoding="UTF-8" standalone="no"?>
<!DOCTYPE svg PUBLIC "-//W3C//DTD SVG 1.1//EN"
 "http://www.w3.org/Graphics/SVG/1.1/DTD/svg11.dtd">
<!-- Generated by graphviz version 2.43.0 (0)
 -->
<!-- Title: race Pages: 1 -->
<svg width="623pt" height="168pt"
 viewBox="0.00 0.00 623.00 168.00" xmlns="http://www.w3.org/2000/svg" xmlns:xlink="http://www.w3.org/1999/xlink">
<g id="graph0" class="graph" transform="scale(1 1) rotate(0) translate(4 164)">
<title>race</title>
<polygon fill="white" stroke="transparent" points="-4,4 -4,-164 619,-164 619,4 -4,4"/>
<!-- __field__ -->
<g id="node1" class="node">
<title>__field__</title>
<path fill="#fef9c3" stroke="#ca8a04" stroke-width="2" d="M603,-83C603,-83 447,-83 447,-83 441,-83 435,-77 435,-71 435,-71 435,-59 435,-59 435,-53 441,-47 447,-47 447,-47 603,-47 603,-47 609,-47 615,-53 615,-59 615,-59 615,-71 615,-71 615,-77 609,-83 603,-83"/>
<text text-anchor="middle" x="525" y="-62.2" font-family="Helvetica,sans-Serif" font-size="11.00">ActiveAdmin.mOrganizationId</text>
</g>
<!-- __guard__ -->
<g id="node2" class="node">
<title>__guard__</title>
<path fill="#dcfce7" stroke="#16a34a" stroke-width="2" d="M295,-160C295,-160 12,-160 12,-160 6,-160 0,-154 0,-148 0,-148 0,-136 0,-136 0,-130 6,-124 12,-124 12,-124 295,-124 295,-124 301,-124 307,-130 307,-136 307,-136 307,-148 307,-148 307,-154 301,-160 295,-160"/>
<text text-anchor="middle" x="153.5" y="-139.2" font-family="Helvetica,sans-Serif" font-size="11.00">DevicePolicyManagerService.mLockDoNoUseDirectly</text>
</g>
<!-- __guard__&#45;&gt;__field__ -->
<g id="edge1" class="edge">
<title>__guard__&#45;&gt;__field__</title>
<path fill="none" stroke="#16a34a" stroke-width="1.6" d="M251.8,-123.95C270.16,-120.41 289.18,-116.66 307,-113 350.05,-104.15 397.75,-93.67 437.44,-84.77"/>
<polygon fill="#16a34a" stroke="#16a34a" stroke-width="1.6" points="438.08,-87.49 445.27,-83.01 436.85,-82.03 438.08,-87.49"/>
<text text-anchor="middle" x="371" y="-110.8" font-family="Helvetica,sans-Serif" font-size="9.00" fill="#15803d"> guards 2/3</text>
</g>
<!-- m::com.android.server.devicepolicy.ActiveAdmin.readFromXml:(Lcom/android/modules/utils/TypedXmlPullParser;Z)V -->
<g id="node3" class="node">
<title>m::com.android.server.devicepolicy.ActiveAdmin.readFromXml:(Lcom/android/modules/utils/TypedXmlPullParser;Z)V</title>
<path fill="#fee2e2" stroke="#dc2626" d="M222.5,-102C222.5,-102 84.5,-102 84.5,-102 78.5,-102 72.5,-96 72.5,-90 72.5,-90 72.5,-78 72.5,-78 72.5,-72 78.5,-66 84.5,-66 84.5,-66 222.5,-66 222.5,-66 228.5,-66 234.5,-72 234.5,-78 234.5,-78 234.5,-90 234.5,-90 234.5,-96 228.5,-102 222.5,-102"/>
<text text-anchor="middle" x="153.5" y="-81.2" font-family="Helvetica,sans-Serif" font-size="11.00">ActiveAdmin.readFromXml</text>
</g>
<!-- m::com.android.server.devicepolicy.ActiveAdmin.readFromXml:(Lcom/android/modules/utils/TypedXmlPullParser;Z)V&#45;&gt;__field__ -->
<g id="edge2" class="edge">
<title>m::com.android.server.devicepolicy.ActiveAdmin.readFromXml:(Lcom/android/modules/utils/TypedXmlPullParser;Z)V&#45;&gt;__field__</title>
<path fill="none" stroke="#dc2626" d="M234.68,-79.88C291.03,-76.98 366.74,-73.09 426.58,-70.01"/>
<polygon fill="#dc2626" stroke="#dc2626" points="427.07,-72.79 434.92,-69.58 426.78,-67.2 427.07,-72.79"/>
<text text-anchor="middle" x="371" y="-76.8" font-family="Helvetica,sans-Serif" font-size="9.00" fill="#dc2626"> writes unguarded</text>
</g>
<!-- m::com.android.server.devicepolicy.ActiveAdmin.writeToXml:(Lcom/android/modules/utils/TypedXmlSerializer;)V -->
<g id="node4" class="node">
<title>m::com.android.server.devicepolicy.ActiveAdmin.writeToXml:(Lcom/android/modules/utils/TypedXmlSerializer;)V</title>
<path fill="#fee2e2" stroke="#dc2626" d="M216,-36C216,-36 91,-36 91,-36 85,-36 79,-30 79,-24 79,-24 79,-12 79,-12 79,-6 85,0 91,0 91,0 216,0 216,0 222,0 228,-6 228,-12 228,-12 228,-24 228,-24 228,-30 222,-36 216,-36"/>
<text text-anchor="middle" x="153.5" y="-15.2" font-family="Helvetica,sans-Serif" font-size="11.00">ActiveAdmin.writeToXml</text>
</g>
<!-- m::com.android.server.devicepolicy.ActiveAdmin.writeToXml:(Lcom/android/modules/utils/TypedXmlSerializer;)V&#45;&gt;__field__ -->
<g id="edge3" class="edge">
<title>m::com.android.server.devicepolicy.ActiveAdmin.writeToXml:(Lcom/android/modules/utils/TypedXmlSerializer;)V&#45;&gt;__field__</title>
<path fill="none" stroke="#dc2626" d="M228.39,-27.4C285.33,-34.64 364.56,-44.72 426.67,-52.62"/>
<polygon fill="#dc2626" stroke="#dc2626" points="426.63,-55.44 434.92,-53.67 427.34,-49.88 426.63,-55.44"/>
<text text-anchor="middle" x="371" y="-51.8" font-family="Helvetica,sans-Serif" font-size="9.00" fill="#dc2626"> reads unguarded</text>
</g>
<!-- m::com.android.server.devicepolicy.ActiveAdmin.writeToXml:(Lcom/android/modules/utils/TypedXmlSerializer;)V&#45;&gt;__field__ -->
<g id="edge4" class="edge">
<title>m::com.android.server.devicepolicy.ActiveAdmin.writeToXml:(Lcom/android/modules/utils/TypedXmlSerializer;)V&#45;&gt;__field__</title>
<path fill="none" stroke="#dc2626" d="M228.12,-14.33C280.2,-13.17 351.43,-14.51 413,-26 433.74,-29.87 455.81,-36.96 474.76,-44.05"/>
<polygon fill="#dc2626" stroke="#dc2626" points="473.93,-46.73 482.4,-46.97 475.93,-41.5 473.93,-46.73"/>
<text text-anchor="middle" x="371" y="-28.8" font-family="Helvetica,sans-Serif" font-size="9.00" fill="#dc2626"> reads unguarded</text>
</g>
</g>
</svg>
