<?xml version="1.0" encoding="UTF-8" standalone="no"?>
<!DOCTYPE svg PUBLIC "-//W3C//DTD SVG 1.1//EN"
 "http://www.w3.org/Graphics/SVG/1.1/DTD/svg11.dtd">
<!-- Generated by graphviz version 2.43.0 (0)
 -->
<!-- Title: race Pages: 1 -->
<svg width="676pt" height="276pt"
 viewBox="0.00 0.00 676.00 276.00" xmlns="http://www.w3.org/2000/svg" xmlns:xlink="http://www.w3.org/1999/xlink">
<g id="graph0" class="graph" transform="scale(1 1) rotate(0) translate(4 272)">
<title>race</title>
<polygon fill="white" stroke="transparent" points="-4,4 -4,-272 672,-272 672,4 -4,4"/>
<!-- __field__ -->
<g id="node1" class="node">
<title>__field__</title>
<path fill="#fef9c3" stroke="#ca8a04" stroke-width="2" d="M656,-131C656,-131 513,-131 513,-131 507,-131 501,-125 501,-119 501,-119 501,-107 501,-107 501,-101 507,-95 513,-95 513,-95 656,-95 656,-95 662,-95 668,-101 668,-107 668,-107 668,-119 668,-119 668,-125 662,-131 656,-131"/>
<text text-anchor="middle" x="584.5" y="-110.2" font-family="Helvetica,sans-Serif" font-size="11.00">ResolveInfo.preferredOrder</text>
</g>
<!-- __guard__ -->
<g id="node2" class="node">
<title>__guard__</title>
<path fill="#dcfce7" stroke="#16a34a" stroke-width="2" d="M289.5,-268C289.5,-268 83.5,-268 83.5,-268 77.5,-268 71.5,-262 71.5,-256 71.5,-256 71.5,-244 71.5,-244 71.5,-238 77.5,-232 83.5,-232 83.5,-232 289.5,-232 289.5,-232 295.5,-232 301.5,-238 301.5,-244 301.5,-244 301.5,-256 301.5,-256 301.5,-262 295.5,-268 289.5,-268"/>
<text text-anchor="middle" x="186.5" y="-247.2" font-family="Helvetica,sans-Serif" font-size="11.00">PackageManagerServiceInjector.mLock</text>
</g>
<!-- __guard__&#45;&gt;__field__ -->
<g id="edge1" class="edge">
<title>__guard__&#45;&gt;__field__</title>
<path fill="none" stroke="#16a34a" stroke-width="1.6" d="M301.89,-237.08C325.66,-233.02 350.36,-227.76 373,-221 422.55,-206.2 432.97,-196.57 479,-173 501.89,-161.28 526.88,-146.99 546.69,-135.29"/>
<polygon fill="#16a34a" stroke="#16a34a" stroke-width="1.6" points="548.29,-137.6 553.74,-131.11 545.43,-132.78 548.29,-137.6"/>
<text text-anchor="middle" x="437" y="-215.8" font-family="Helvetica,sans-Serif" font-size="9.00" fill="#15803d"> guards 3/4</text>
</g>
<!-- m::com.android.server.pm.ComputerEngine.createForwardingResolveInfoUnchecked:(Lcom/android/server/pm/WatchedIntentFilter;II)Landroid/content/pm/ResolveInfo; -->
<g id="node3" class="node">
<title>m::com.android.server.pm.ComputerEngine.createForwardingResolveInfoUnchecked:(Lcom/android/server/pm/WatchedIntentFilter;II)Landroid/content/pm/ResolveInfo;</title>
<path fill="#fee2e2" stroke="#dc2626" d="M340,-210C340,-210 33,-210 33,-210 27,-210 21,-204 21,-198 21,-198 21,-186 21,-186 21,-180 27,-174 33,-174 33,-174 340,-174 340,-174 346,-174 352,-180 352,-186 352,-186 352,-198 352,-198 352,-204 346,-210 340,-210"/>
<text text-anchor="middle" x="186.5" y="-189.2" font-family="Helvetica,sans-Serif" font-size="11.00">ComputerEngine.createForwardingResolveInfoUnchecked</text>
</g>
<!-- m::com.android.server.pm.ComputerEngine.createForwardingResolveInfoUnchecked:(Lcom/android/server/pm/WatchedIntentFilter;II)Landroid/content/pm/ResolveInfo;&#45;&gt;__field__ -->
<g id="edge2" class="edge">
<title>m::com.android.server.pm.ComputerEngine.createForwardingResolveInfoUnchecked:(Lcom/android/server/pm/WatchedIntentFilter;II)Landroid/content/pm/ResolveInfo;&#45;&gt;__field__</title>
<path fill="none" stroke="#dc2626" d="M311.47,-174C332.06,-170.61 353.17,-166.9 373,-163 417.23,-154.3 466.24,-142.77 505.84,-132.98"/>
<polygon fill="#dc2626" stroke="#dc2626" points="506.54,-135.69 513.63,-131.04 505.19,-130.25 506.54,-135.69"/>
<text text-anchor="middle" x="437" y="-160.8" font-family="Helvetica,sans-Serif" font-size="9.00" fill="#dc2626"> writes unguarded</text>
</g>
<!-- m::com.android.server.pm.PackageManagerShellCommand.printResolveInfo:(Landroid/util/PrintWriterPrinter;Ljava/lang/String;Landroid/content/pm/ResolveInfo;ZZ)V -->
<g id="node4" class="node">
<title>m::com.android.server.pm.PackageManagerShellCommand.printResolveInfo:(Landroid/util/PrintWriterPrinter;Ljava/lang/String;Landroid/content/pm/ResolveInfo;ZZ)V</title>
<path fill="#fee2e2" stroke="#dc2626" d="M316.5,-152C316.5,-152 56.5,-152 56.5,-152 50.5,-152 44.5,-146 44.5,-140 44.5,-140 44.5,-128 44.5,-128 44.5,-122 50.5,-116 56.5,-116 56.5,-116 316.5,-116 316.5,-116 322.5,-116 328.5,-122 328.5,-128 328.5,-128 328.5,-140 328.5,-140 328.5,-146 322.5,-152 316.5,-152"/>
<text text-anchor="middle" x="186.5" y="-131.2" font-family="Helvetica,sans-Serif" font-size="11.00">PackageManagerShellCommand.printResolveInfo</text>
</g>
<!-- m::com.android.server.pm.PackageManagerShellCommand.printResolveInfo:(Landroid/util/PrintWriterPrinter;Ljava/lang/String;Landroid/content/pm/ResolveInfo;ZZ)V&#45;&gt;__field__ -->
<g id="edge3" class="edge">
<title>m::com.android.server.pm.PackageManagerShellCommand.printResolveInfo:(Landroid/util/PrintWriterPrinter;Ljava/lang/String;Landroid/content/pm/ResolveInfo;ZZ)V&#45;&gt;__field__</title>
<path fill="none" stroke="#dc2626" d="M328.51,-126.52C383.24,-123.62 444.32,-120.38 492.97,-117.8"/>
<polygon fill="#dc2626" stroke="#dc2626" points="493.14,-120.6 500.98,-117.38 492.84,-115 493.14,-120.6"/>
<text text-anchor="middle" x="437" y="-124.8" font-family="Helvetica,sans-Serif" font-size="9.00" fill="#dc2626"> reads unguarded</text>
</g>
<!-- m::com.android.server.pm.ResolveIntentHelper.chooseBestActivity:(Lcom/android/server/pm/Computer;Landroid/content/Intent;Ljava/lang/String;JJLjava/util/List;IZ)Landroid/content/pm/ResolveInfo; -->
<g id="node5" class="node">
<title>m::com.android.server.pm.ResolveIntentHelper.chooseBestActivity:(Lcom/android/server/pm/Computer;Landroid/content/Intent;Ljava/lang/String;JJLjava/util/List;IZ)Landroid/content/pm/ResolveInfo;</title>
<path fill="#fee2e2" stroke="#dc2626" d="M293,-94C293,-94 80,-94 80,-94 74,-94 68,-88 68,-82 68,-82 68,-70 68,-70 68,-64 74,-58 80,-58 80,-58 293,-58 293,-58 299,-58 305,-64 305,-70 305,-70 305,-82 305,-82 305,-88 299,-94 293,-94"/>
<text text-anchor="middle" x="186.5" y="-73.2" font-family="Helvetica,sans-Serif" font-size="11.00">ResolveIntentHelper.chooseBestActivity</text>
</g>
<!-- m::com.android.server.pm.ResolveIntentHelper.chooseBestActivity:(Lcom/android/server/pm/Computer;Landroid/content/Intent;Ljava/lang/String;JJLjava/util/List;IZ)Landroid/content/pm/ResolveInfo;&#45;&gt;__field__ -->
<g id="edge4" class="edge">
<title>m::com.android.server.pm.ResolveIntentHelper.chooseBestActivity:(Lcom/android/server/pm/Computer;Landroid/content/Intent;Ljava/lang/String;JJLjava/util/List;IZ)Landroid/content/pm/ResolveInfo;&#45;&gt;__field__</title>
<path fill="none" stroke="#dc2626" d="M305.23,-86.82C358.33,-91.72 421.82,-97.62 479,-103 483.42,-103.42 487.95,-103.84 492.52,-104.28"/>
<polygon fill="#dc2626" stroke="#dc2626" points="492.56,-107.09 500.79,-105.06 493.09,-101.52 492.56,-107.09"/>
<text text-anchor="middle" x="437" y="-105.8" font-family="Helvetica,sans-Serif" font-size="9.00" fill="#dc2626"> reads unguarded</text>
</g>
<!-- m::com.android.server.pm.resolution.ComponentResolver.$r8$lambda$UVMyfxjaimXrgxK&#45;y9k5NRVVfkI:(Landroid/content/pm/ResolveInfo;Landroid/content/pm/ResolveInfo;)I -->
<g id="node6" class="node">
<title>m::com.android.server.pm.resolution.ComponentResolver.$r8$lambda$UVMyfxjaimXrgxK&#45;y9k5NRVVfkI:(Landroid/content/pm/ResolveInfo;Landroid/content/pm/ResolveInfo;)I</title>
<path fill="#fee2e2" stroke="#dc2626" d="M361,-36C361,-36 12,-36 12,-36 6,-36 0,-30 0,-24 0,-24 0,-12 0,-12 0,-6 6,0 12,0 12,0 361,0 361,0 367,0 373,-6 373,-12 373,-12 373,-24 373,-24 373,-30 367,-36 361,-36"/>
<text text-anchor="middle" x="186.5" y="-15.2" font-family="Helvetica,sans-Serif" font-size="11.00">ComponentResolver.$r8$lambda$UVMyfxjaimXrgxK&#45;y9k5NRVVfkI</text>
</g>
<!-- m::com.android.server.pm.resolution.ComponentResolver.$r8$lambda$UVMyfxjaimXrgxK&#45;y9k5NRVVfkI:(Landroid/content/pm/ResolveInfo;Landroid/content/pm/ResolveInfo;)I&#45;&gt;__field__ -->
<g id="edge5" class="edge">
<title>m::com.android.server.pm.resolution.ComponentResolver.$r8$lambda$UVMyfxjaimXrgxK&#45;y9k5NRVVfkI:(Landroid/content/pm/ResolveInfo;Landroid/content/pm/ResolveInfo;)I&#45;&gt;__field__</title>
<path fill="none" stroke="#dc2626" d="M318.7,-36.05C337.02,-39.29 355.54,-42.94 373,-47 421.06,-58.17 431.92,-65.24 479,-80 491.9,-84.04 505.69,-88.39 518.88,-92.55"/>
<polygon fill="#dc2626" stroke="#dc2626" points="518.09,-95.24 526.57,-94.97 519.78,-89.9 518.09,-95.24"/>
<text text-anchor="middle" x="437" y="-82.8" font-family="Helvetica,sans-Serif" font-size="9.00" fill="#dc2626"> reads unguarded</text>
</g>
<!-- m::com.android.server.pm.resolution.ComponentResolver.$r8$lambda$UVMyfxjaimXrgxK&#45;y9k5NRVVfkI:(Landroid/content/pm/ResolveInfo;Landroid/content/pm/ResolveInfo;)I&#45;&gt;__field__ -->
<g id="edge6" class="edge">
<title>m::com.android.server.pm.resolution.ComponentResolver.$r8$lambda$UVMyfxjaimXrgxK&#45;y9k5NRVVfkI:(Landroid/content/pm/ResolveInfo;Landroid/content/pm/ResolveInfo;)I&#45;&gt;__field__</title>
<path fill="none" stroke="#dc2626" d="M373.05,-14.44C408.96,-18.09 445.73,-24.97 479,-37 509.84,-48.15 539.53,-71.35 559.33,-89.2"/>
<polygon fill="#dc2626" stroke="#dc2626" points="557.62,-91.43 565.4,-94.78 561.41,-87.31 557.62,-91.43"/>
<text text-anchor="middle" x="437" y="-39.8" font-family="Helvetica,sans-Serif" font-size="9.00" fill="#dc2626"> reads unguarded</text>
</g>
</g>
</svg>
