<?xml version="1.0" encoding="UTF-8" standalone="no"?>
<!DOCTYPE svg PUBLIC "-//W3C//DTD SVG 1.1//EN"
 "http://www.w3.org/Graphics/SVG/1.1/DTD/svg11.dtd">
<!-- Generated by graphviz version 2.43.0 (0)
 -->
<!-- Title: race Pages: 1 -->
<svg width="653pt" height="218pt"
 viewBox="0.00 0.00 653.00 218.00" xmlns="http://www.w3.org/2000/svg" xmlns:xlink="http://www.w3.org/1999/xlink">
<g id="graph0" class="graph" transform="scale(1 1) rotate(0) translate(4 214)">
<title>race</title>
<polygon fill="white" stroke="transparent" points="-4,4 -4,-214 649,-214 649,4 -4,4"/>
<!-- __field__ -->
<g id="node1" class="node">
<title>__field__</title>
<path fill="#fef9c3" stroke="#ca8a04" stroke-width="2" d="M633,-131C633,-131 409,-131 409,-131 403,-131 397,-125 397,-119 397,-119 397,-107 397,-107 397,-101 403,-95 409,-95 409,-95 633,-95 633,-95 639,-95 645,-101 645,-107 645,-107 645,-119 645,-119 645,-125 639,-131 633,-131"/>
<text text-anchor="middle" x="521" y="-110.2" font-family="Helvetica,sans-Serif" font-size="11.00">PackageInstaller$SessionParams.appLabel</text>
</g>
<!-- __guard__ -->
<g id="node2" class="node">
<title>__guard__</title>
<path fill="#dcfce7" stroke="#16a34a" stroke-width="2" d="M227,-210C227,-210 42,-210 42,-210 36,-210 30,-204 30,-198 30,-198 30,-186 30,-186 30,-180 36,-174 42,-174 42,-174 227,-174 227,-174 233,-174 239,-180 239,-186 239,-186 239,-198 239,-198 239,-204 233,-210 227,-210"/>
<text text-anchor="middle" x="134.5" y="-189.2" font-family="Helvetica,sans-Serif" font-size="11.00">PackageInstallerService.mSessions</text>
</g>
<!-- __guard__&#45;&gt;__field__ -->
<g id="edge1" class="edge">
<title>__guard__&#45;&gt;__field__</title>
<path fill="none" stroke="#16a34a" stroke-width="1.6" d="M223.94,-173.95C269.14,-164.72 325.01,-153.28 375,-143 391.12,-139.68 408.25,-136.15 424.87,-132.71"/>
<polygon fill="#16a34a" stroke="#16a34a" stroke-width="1.6" points="425.71,-135.4 432.98,-131.04 424.58,-129.91 425.71,-135.4"/>
<text text-anchor="middle" x="333" y="-161.8" font-family="Helvetica,sans-Serif" font-size="9.00" fill="#15803d"> guards 2/3</text>
</g>
<!-- m::com.android.server.pm.PackageInstallerService.createSessionInternal:(Landroid/content/pm/PackageInstaller$SessionParams;Ljava/lang/String;Ljava/lang/String;II)I -->
<g id="node3" class="node">
<title>m::com.android.server.pm.PackageInstallerService.createSessionInternal:(Landroid/content/pm/PackageInstaller$SessionParams;Ljava/lang/String;Ljava/lang/String;II)I</title>
<path fill="#fee2e2" stroke="#dc2626" d="M257,-152C257,-152 12,-152 12,-152 6,-152 0,-146 0,-140 0,-140 0,-128 0,-128 0,-122 6,-116 12,-116 12,-116 257,-116 257,-116 263,-116 269,-122 269,-128 269,-128 269,-140 269,-140 269,-146 263,-152 257,-152"/>
<text text-anchor="middle" x="134.5" y="-131.2" font-family="Helvetica,sans-Serif" font-size="11.00">PackageInstallerService.createSessionInternal</text>
</g>
<!-- m::com.android.server.pm.PackageInstallerService.createSessionInternal:(Landroid/content/pm/PackageInstaller$SessionParams;Ljava/lang/String;Ljava/lang/String;II)I&#45;&gt;__field__ -->
<g id="edge2" class="edge">
<title>m::com.android.server.pm.PackageInstallerService.createSessionInternal:(Landroid/content/pm/PackageInstaller$SessionParams;Ljava/lang/String;Ljava/lang/String;II)I&#45;&gt;__field__</title>
<path fill="none" stroke="#dc2626" d="M269.18,-129.22C303.67,-127.77 340.73,-126.02 375,-124 379.41,-123.74 383.9,-123.47 388.42,-123.18"/>
<polygon fill="#dc2626" stroke="#dc2626" points="388.81,-125.96 396.62,-122.65 388.45,-120.37 388.81,-125.96"/>
<text text-anchor="middle" x="333" y="-130.8" font-family="Helvetica,sans-Serif" font-size="9.00" fill="#dc2626"> writes unguarded</text>
</g>
<!-- m::com.android.server.pm.PackageInstallerService.createSessionInternal:(Landroid/content/pm/PackageInstaller$SessionParams;Ljava/lang/String;Ljava/lang/String;II)I&#45;&gt;__field__ -->
<g id="edge3" class="edge">
<title>m::com.android.server.pm.PackageInstallerService.createSessionInternal:(Landroid/content/pm/PackageInstaller$SessionParams;Ljava/lang/String;Ljava/lang/String;II)I&#45;&gt;__field__</title>
<path fill="none" stroke="#dc2626" d="M257.15,-115.98C268.58,-114.77 279.99,-113.74 291,-113 322.63,-110.87 356.78,-110.07 388.8,-109.98"/>
<polygon fill="#dc2626" stroke="#dc2626" points="388.9,-112.78 396.89,-109.97 388.89,-107.18 388.9,-112.78"/>
<text text-anchor="middle" x="333" y="-115.8" font-family="Helvetica,sans-Serif" font-size="9.00" fill="#dc2626"> reads unguarded</text>
</g>
<!-- m::com.android.server.pm.PackageInstallerSession.generateInfoInternal:(ZZ)Landroid/content/pm/PackageInstaller$SessionInfo; -->
<g id="node4" class="node">
<title>m::com.android.server.pm.PackageInstallerSession.generateInfoInternal:(ZZ)Landroid/content/pm/PackageInstaller$SessionInfo;</title>
<path fill="#fee2e2" stroke="#dc2626" d="M254,-94C254,-94 15,-94 15,-94 9,-94 3,-88 3,-82 3,-82 3,-70 3,-70 3,-64 9,-58 15,-58 15,-58 254,-58 254,-58 260,-58 266,-64 266,-70 266,-70 266,-82 266,-82 266,-88 260,-94 254,-94"/>
<text text-anchor="middle" x="134.5" y="-73.2" font-family="Helvetica,sans-Serif" font-size="11.00">PackageInstallerSession.generateInfoInternal</text>
</g>
<!-- m::com.android.server.pm.PackageInstallerSession.generateInfoInternal:(ZZ)Landroid/content/pm/PackageInstaller$SessionInfo;&#45;&gt;__field__ -->
<g id="edge4" class="edge">
<title>m::com.android.server.pm.PackageInstallerSession.generateInfoInternal:(ZZ)Landroid/content/pm/PackageInstaller$SessionInfo;&#45;&gt;__field__</title>
<path fill="none" stroke="#dc2626" d="M266.11,-85.31C301.48,-88.11 339.73,-91.41 375,-95 379.42,-95.45 383.91,-95.92 388.44,-96.41"/>
<polygon fill="#dc2626" stroke="#dc2626" points="388.38,-99.22 396.64,-97.31 388.99,-93.65 388.38,-99.22"/>
<text text-anchor="middle" x="333" y="-97.8" font-family="Helvetica,sans-Serif" font-size="9.00" fill="#dc2626"> reads unguarded</text>
</g>
<!-- m::com.android.server.pm.PackageInstallerSession.write:(Lcom/android/modules/utils/TypedXmlSerializer;Ljava/io/File;)V -->
<g id="node5" class="node">
<title>m::com.android.server.pm.PackageInstallerSession.write:(Lcom/android/modules/utils/TypedXmlSerializer;Ljava/io/File;)V</title>
<path fill="#fee2e2" stroke="#dc2626" d="M212,-36C212,-36 57,-36 57,-36 51,-36 45,-30 45,-24 45,-24 45,-12 45,-12 45,-6 51,0 57,0 57,0 212,0 212,0 218,0 224,-6 224,-12 224,-12 224,-24 224,-24 224,-30 218,-36 212,-36"/>
<text text-anchor="middle" x="134.5" y="-15.2" font-family="Helvetica,sans-Serif" font-size="11.00">PackageInstallerSession.write</text>
</g>
<!-- m::com.android.server.pm.PackageInstallerSession.write:(Lcom/android/modules/utils/TypedXmlSerializer;Ljava/io/File;)V&#45;&gt;__field__ -->
<g id="edge5" class="edge">
<title>m::com.android.server.pm.PackageInstallerSession.write:(Lcom/android/modules/utils/TypedXmlSerializer;Ljava/io/File;)V&#45;&gt;__field__</title>
<path fill="none" stroke="#dc2626" d="M219.58,-36.03C235.98,-39.61 253.04,-43.38 269,-47 316.21,-57.69 328.14,-59.86 375,-72 399.69,-78.4 426.6,-85.87 450.46,-92.67"/>
<polygon fill="#dc2626" stroke="#dc2626" points="449.96,-95.44 458.43,-94.94 451.5,-90.05 449.96,-95.44"/>
<text text-anchor="middle" x="333" y="-74.8" font-family="Helvetica,sans-Serif" font-size="9.00" fill="#dc2626"> reads unguarded</text>
</g>
</g>
</svg>
