<?xml version="1.0" encoding="UTF-8" standalone="no"?>
<!DOCTYPE svg PUBLIC "-//W3C//DTD SVG 1.1//EN"
 "http://www.w3.org/Graphics/SVG/1.1/DTD/svg11.dtd">
<!-- Generated by graphviz version 2.43.0 (0)
 -->
<!-- Title: race Pages: 1 -->
<svg width="607pt" height="276pt"
 viewBox="0.00 0.00 607.00 276.00" xmlns="http://www.w3.org/2000/svg" xmlns:xlink="http://www.w3.org/1999/xlink">
<g id="graph0" class="graph" transform="scale(1 1) rotate(0) translate(4 272)">
<title>race</title>
<polygon fill="white" stroke="transparent" points="-4,4 -4,-272 603,-272 603,4 -4,4"/>
<!-- __field__ -->
<g id="node1" class="node">
<title>__field__</title>
<path fill="#fef9c3" stroke="#ca8a04" stroke-width="2" d="M587,-152C587,-152 439,-152 439,-152 433,-152 427,-146 427,-140 427,-140 427,-128 427,-128 427,-122 433,-116 439,-116 439,-116 587,-116 587,-116 593,-116 599,-122 599,-128 599,-128 599,-140 599,-140 599,-146 593,-152 587,-152"/>
<text text-anchor="middle" x="513" y="-131.2" font-family="Helvetica,sans-Serif" font-size="11.00">GlobalLevelState.savedByte</text>
</g>
<!-- __guard__ -->
<g id="node2" class="node">
<title>__guard__</title>
<path fill="#dcfce7" stroke="#16a34a" stroke-width="2" d="M228,-268C228,-268 71,-268 71,-268 65,-268 59,-262 59,-256 59,-256 59,-244 59,-244 59,-238 65,-232 71,-232 71,-232 228,-232 228,-232 234,-232 240,-238 240,-244 240,-244 240,-256 240,-256 240,-262 234,-268 228,-268"/>
<text text-anchor="middle" x="149.5" y="-247.2" font-family="Helvetica,sans-Serif" font-size="11.00">AppHibernationService.mLock</text>
</g>
<!-- __guard__&#45;&gt;__field__ -->
<g id="edge1" class="edge">
<title>__guard__&#45;&gt;__field__</title>
<path fill="none" stroke="#16a34a" stroke-width="1.6" d="M240.3,-235.35C259.83,-231.37 280.24,-226.58 299,-221 347.73,-206.51 357.93,-197.22 405,-178 423.22,-170.56 443.17,-162.36 460.86,-155.09"/>
<polygon fill="#16a34a" stroke="#16a34a" stroke-width="1.6" points="461.96,-157.66 468.29,-152.03 459.83,-152.49 461.96,-157.66"/>
<text text-anchor="middle" x="363" y="-215.8" font-family="Helvetica,sans-Serif" font-size="9.00" fill="#15803d"> guards 2/3</text>
</g>
<!-- m::com.android.server.apphibernation.GlobalLevelHibernationProto.readFromProto:(Landroid/util/proto/ProtoInputStream;)Ljava/util/List; -->
<g id="node3" class="node">
<title>m::com.android.server.apphibernation.GlobalLevelHibernationProto.readFromProto:(Landroid/util/proto/ProtoInputStream;)Ljava/util/List;</title>
<path fill="#fee2e2" stroke="#dc2626" d="M266.5,-210C266.5,-210 32.5,-210 32.5,-210 26.5,-210 20.5,-204 20.5,-198 20.5,-198 20.5,-186 20.5,-186 20.5,-180 26.5,-174 32.5,-174 32.5,-174 266.5,-174 266.5,-174 272.5,-174 278.5,-180 278.5,-186 278.5,-186 278.5,-198 278.5,-198 278.5,-204 272.5,-210 266.5,-210"/>
<text text-anchor="middle" x="149.5" y="-189.2" font-family="Helvetica,sans-Serif" font-size="11.00">GlobalLevelHibernationProto.readFromProto</text>
</g>
<!-- m::com.android.server.apphibernation.GlobalLevelHibernationProto.readFromProto:(Landroid/util/proto/ProtoInputStream;)Ljava/util/List;&#45;&gt;__field__ -->
<g id="edge2" class="edge">
<title>m::com.android.server.apphibernation.GlobalLevelHibernationProto.readFromProto:(Landroid/util/proto/ProtoInputStream;)Ljava/util/List;&#45;&gt;__field__</title>
<path fill="none" stroke="#dc2626" d="M262.9,-173.97C312.96,-165.93 371.22,-156.59 418.81,-148.95"/>
<polygon fill="#dc2626" stroke="#dc2626" points="419.5,-151.68 426.96,-147.64 418.61,-146.15 419.5,-151.68"/>
<text text-anchor="middle" x="363" y="-165.8" font-family="Helvetica,sans-Serif" font-size="9.00" fill="#dc2626"> writes unguarded</text>
</g>
<!-- m::com.android.server.apphibernation.AppHibernationService.getHibernationStatsForUser:(Ljava/util/Set;I)Ljava/util/Map; -->
<g id="node4" class="node">
<title>m::com.android.server.apphibernation.AppHibernationService.getHibernationStatsForUser:(Ljava/util/Set;I)Ljava/util/Map;</title>
<path fill="#fee2e2" stroke="#dc2626" d="M287,-152C287,-152 12,-152 12,-152 6,-152 0,-146 0,-140 0,-140 0,-128 0,-128 0,-122 6,-116 12,-116 12,-116 287,-116 287,-116 293,-116 299,-122 299,-128 299,-128 299,-140 299,-140 299,-146 293,-152 287,-152"/>
<text text-anchor="middle" x="149.5" y="-131.2" font-family="Helvetica,sans-Serif" font-size="11.00">AppHibernationService.getHibernationStatsForUser</text>
</g>
<!-- m::com.android.server.apphibernation.AppHibernationService.getHibernationStatsForUser:(Ljava/util/Set;I)Ljava/util/Map;&#45;&gt;__field__ -->
<g id="edge3" class="edge">
<title>m::com.android.server.apphibernation.AppHibernationService.getHibernationStatsForUser:(Ljava/util/Set;I)Ljava/util/Map;&#45;&gt;__field__</title>
<path fill="none" stroke="#dc2626" d="M299.1,-134C339.56,-134 382.25,-134 418.69,-134"/>
<polygon fill="#dc2626" stroke="#dc2626" points="418.85,-136.8 426.85,-134 418.85,-131.2 418.85,-136.8"/>
<text text-anchor="middle" x="363" y="-136.8" font-family="Helvetica,sans-Serif" font-size="9.00" fill="#dc2626"> reads unguarded</text>
</g>
<!-- m::com.android.server.apphibernation.GlobalLevelHibernationProto.writeToProto:(Landroid/util/proto/ProtoOutputStream;Ljava/util/List;)V -->
<g id="node5" class="node">
<title>m::com.android.server.apphibernation.GlobalLevelHibernationProto.writeToProto:(Landroid/util/proto/ProtoOutputStream;Ljava/util/List;)V</title>
<path fill="#fee2e2" stroke="#dc2626" d="M260,-94C260,-94 39,-94 39,-94 33,-94 27,-88 27,-82 27,-82 27,-70 27,-70 27,-64 33,-58 39,-58 39,-58 260,-58 260,-58 266,-58 272,-64 272,-70 272,-70 272,-82 272,-82 272,-88 266,-94 260,-94"/>
<text text-anchor="middle" x="149.5" y="-73.2" font-family="Helvetica,sans-Serif" font-size="11.00">GlobalLevelHibernationProto.writeToProto</text>
</g>
<!-- m::com.android.server.apphibernation.GlobalLevelHibernationProto.writeToProto:(Landroid/util/proto/ProtoOutputStream;Ljava/util/List;)V&#45;&gt;__field__ -->
<g id="edge4" class="edge">
<title>m::com.android.server.apphibernation.GlobalLevelHibernationProto.writeToProto:(Landroid/util/proto/ProtoOutputStream;Ljava/util/List;)V&#45;&gt;__field__</title>
<path fill="none" stroke="#dc2626" d="M262.9,-94.03C312.96,-102.07 371.22,-111.41 418.81,-119.05"/>
<polygon fill="#dc2626" stroke="#dc2626" points="418.61,-121.85 426.96,-120.36 419.5,-116.32 418.61,-121.85"/>
<text text-anchor="middle" x="363" y="-117.8" font-family="Helvetica,sans-Serif" font-size="9.00" fill="#dc2626"> reads unguarded</text>
</g>
<!-- m::com.android.server.apphibernation.GlobalLevelState.toString:()Ljava/lang/String; -->
<g id="node6" class="node">
<title>m::com.android.server.apphibernation.GlobalLevelState.toString:()Ljava/lang/String;</title>
<path fill="#fee2e2" stroke="#dc2626" d="M216,-36C216,-36 83,-36 83,-36 77,-36 71,-30 71,-24 71,-24 71,-12 71,-12 71,-6 77,0 83,0 83,0 216,0 216,0 222,0 228,-6 228,-12 228,-12 228,-24 228,-24 228,-30 222,-36 216,-36"/>
<text text-anchor="middle" x="149.5" y="-15.2" font-family="Helvetica,sans-Serif" font-size="11.00">GlobalLevelState.toString</text>
</g>
<!-- m::com.android.server.apphibernation.GlobalLevelState.toString:()Ljava/lang/String;&#45;&gt;__field__ -->
<g id="edge5" class="edge">
<title>m::com.android.server.apphibernation.GlobalLevelState.toString:()Ljava/lang/String;&#45;&gt;__field__</title>
<path fill="none" stroke="#dc2626" d="M228.26,-30.26C251.26,-34.67 276.34,-40.26 299,-47 347.73,-61.49 357.93,-70.78 405,-90 423.22,-97.44 443.17,-105.64 460.86,-112.91"/>
<polygon fill="#dc2626" stroke="#dc2626" points="459.83,-115.51 468.29,-115.97 461.96,-110.34 459.83,-115.51"/>
<text text-anchor="middle" x="363" y="-92.8" font-family="Helvetica,sans-Serif" font-size="9.00" fill="#dc2626"> reads unguarded</text>
</g>
</g>
</svg>
