<?xml version="1.0" encoding="UTF-8" standalone="no"?>
<!DOCTYPE svg PUBLIC "-//W3C//DTD SVG 1.1//EN"
 "http://www.w3.org/Graphics/SVG/1.1/DTD/svg11.dtd">
<!-- Generated by graphviz version 2.43.0 (0)
 -->
<!-- Title: race Pages: 1 -->
<svg width="956pt" height="160pt"
 viewBox="0.00 0.00 956.00 160.00" xmlns="http://www.w3.org/2000/svg" xmlns:xlink="http://www.w3.org/1999/xlink">
<g id="graph0" class="graph" transform="scale(1 1) rotate(0) translate(4 156)">
<title>race</title>
<polygon fill="white" stroke="transparent" points="-4,4 -4,-156 952,-156 952,4 -4,4"/>
<!-- __field__ -->
<g id="node1" class="node">
<title>__field__</title>
<path fill="#fef9c3" stroke="#ca8a04" stroke-width="2" d="M936,-94C936,-94 515,-94 515,-94 509,-94 503,-88 503,-82 503,-82 503,-70 503,-70 503,-64 509,-58 515,-58 515,-58 936,-58 936,-58 942,-58 948,-64 948,-70 948,-70 948,-82 948,-82 948,-88 942,-94 936,-94"/>
<text text-anchor="middle" x="725.5" y="-73.2" font-family="Helvetica,sans-Serif" font-size="11.00">AppRestrictionController$RestrictionSettings$PkgSettings.mLevelChangeTime</text>
</g>
<!-- __guard__ -->
<g id="node2" class="node">
<title>__guard__</title>
<path fill="#dcfce7" stroke="#16a34a" stroke-width="2" d="M292.5,-152C292.5,-152 82.5,-152 82.5,-152 76.5,-152 70.5,-146 70.5,-140 70.5,-140 70.5,-128 70.5,-128 70.5,-122 76.5,-116 82.5,-116 82.5,-116 292.5,-116 292.5,-116 298.5,-116 304.5,-122 304.5,-128 304.5,-128 304.5,-140 304.5,-140 304.5,-146 298.5,-152 292.5,-152"/>
<text text-anchor="middle" x="187.5" y="-131.2" font-family="Helvetica,sans-Serif" font-size="11.00">AppRestrictionController.mSettingsLock</text>
</g>
<!-- __guard__&#45;&gt;__field__ -->
<g id="edge1" class="edge">
<title>__guard__&#45;&gt;__field__</title>
<path fill="none" stroke="#16a34a" stroke-width="1.6" d="M304.8,-121.41C376.39,-113.67 469.52,-103.59 549.85,-94.9"/>
<polygon fill="#16a34a" stroke="#16a34a" stroke-width="1.6" points="550.43,-97.65 558.08,-94.01 549.83,-92.08 550.43,-97.65"/>
<text text-anchor="middle" x="439" y="-112.8" font-family="Helvetica,sans-Serif" font-size="9.00" fill="#15803d"> guards 2/3</text>
</g>
<!-- m::com.android.server.am.AppRestrictionController$RestrictionSettings$PkgSettings.update:(III)I -->
<g id="node3" class="node">
<title>m::com.android.server.am.AppRestrictionController$RestrictionSettings$PkgSettings.update:(III)I</title>
<path fill="#fee2e2" stroke="#dc2626" d="M363,-94C363,-94 12,-94 12,-94 6,-94 0,-88 0,-82 0,-82 0,-70 0,-70 0,-64 6,-58 12,-58 12,-58 363,-58 363,-58 369,-58 375,-64 375,-70 375,-70 375,-82 375,-82 375,-88 369,-94 363,-94"/>
<text text-anchor="middle" x="187.5" y="-73.2" font-family="Helvetica,sans-Serif" font-size="11.00">AppRestrictionController$RestrictionSettings$PkgSettings.update</text>
</g>
<!-- m::com.android.server.am.AppRestrictionController$RestrictionSettings$PkgSettings.update:(III)I&#45;&gt;__field__ -->
<g id="edge2" class="edge">
<title>m::com.android.server.am.AppRestrictionController$RestrictionSettings$PkgSettings.update:(III)I&#45;&gt;__field__</title>
<path fill="none" stroke="#dc2626" d="M375.21,-76C413.58,-76 454.39,-76 494.08,-76"/>
<polygon fill="#dc2626" stroke="#dc2626" points="494.53,-78.8 502.53,-76 494.53,-73.2 494.53,-78.8"/>
<text text-anchor="middle" x="439" y="-78.8" font-family="Helvetica,sans-Serif" font-size="9.00" fill="#dc2626"> writes unguarded</text>
</g>
<!-- m::com.android.server.am.AppRestrictionController$RestrictionSettings$PkgSettings.equals:(Ljava/lang/Object;)Z -->
<g id="node4" class="node">
<title>m::com.android.server.am.AppRestrictionController$RestrictionSettings$PkgSettings.equals:(Ljava/lang/Object;)Z</title>
<path fill="#fee2e2" stroke="#dc2626" d="M362,-36C362,-36 13,-36 13,-36 7,-36 1,-30 1,-24 1,-24 1,-12 1,-12 1,-6 7,0 13,0 13,0 362,0 362,0 368,0 374,-6 374,-12 374,-12 374,-24 374,-24 374,-30 368,-36 362,-36"/>
<text text-anchor="middle" x="187.5" y="-15.2" font-family="Helvetica,sans-Serif" font-size="11.00">AppRestrictionController$RestrictionSettings$PkgSettings.equals</text>
</g>
<!-- m::com.android.server.am.AppRestrictionController$RestrictionSettings$PkgSettings.equals:(Ljava/lang/Object;)Z&#45;&gt;__field__ -->
<g id="edge3" class="edge">
<title>m::com.android.server.am.AppRestrictionController$RestrictionSettings$PkgSettings.equals:(Ljava/lang/Object;)Z&#45;&gt;__field__</title>
<path fill="none" stroke="#dc2626" d="M355.16,-36.03C417.04,-42.73 487.39,-50.34 549.96,-57.11"/>
<polygon fill="#dc2626" stroke="#dc2626" points="549.69,-59.9 557.95,-57.98 550.3,-54.33 549.69,-59.9"/>
<text text-anchor="middle" x="439" y="-50.8" font-family="Helvetica,sans-Serif" font-size="9.00" fill="#dc2626"> reads unguarded</text>
</g>
</g>
</svg>
