<?xml version="1.0" encoding="UTF-8" standalone="no"?>
<!DOCTYPE svg PUBLIC "-//W3C//DTD SVG 1.1//EN"
 "http://www.w3.org/Graphics/SVG/1.1/DTD/svg11.dtd">
<!-- Generated by graphviz version 2.43.0 (0)
 -->
<!-- Title: race Pages: 1 -->
<svg width="662pt" height="123pt"
 viewBox="0.00 0.00 662.00 123.09" xmlns="http://www.w3.org/2000/svg" xmlns:xlink="http://www.w3.org/1999/xlink">
<g id="graph0" class="graph" transform="scale(1 1) rotate(0) translate(4 119.09)">
<title>race</title>
<polygon fill="white" stroke="transparent" points="-4,4 -4,-119.09 658,-119.09 658,4 -4,4"/>
<!-- __field__ -->
<g id="node1" class="node">
<title>__field__</title>
<path fill="#fef9c3" stroke="#ca8a04" stroke-width="2" d="M642,-59.09C642,-59.09 435,-59.09 435,-59.09 429,-59.09 423,-53.09 423,-47.09 423,-47.09 423,-35.09 423,-35.09 423,-29.09 429,-23.09 435,-23.09 435,-23.09 642,-23.09 642,-23.09 648,-23.09 654,-29.09 654,-35.09 654,-35.09 654,-47.09 654,-47.09 654,-53.09 648,-59.09 642,-59.09"/>
<text text-anchor="middle" x="538.5" y="-38.29" font-family="Helvetica,sans-Serif" font-size="11.00">OomAdjuster.mOomAdjUpdateOngoing</text>
</g>
<!-- __guard__ -->
<g id="node2" class="node">
<title>__guard__</title>
<path fill="#dcfce7" stroke="#16a34a" stroke-width="2" d="M240.5,-115.09C240.5,-115.09 54.5,-115.09 54.5,-115.09 48.5,-115.09 42.5,-109.09 42.5,-103.09 42.5,-103.09 42.5,-91.09 42.5,-91.09 42.5,-85.09 48.5,-79.09 54.5,-79.09 54.5,-79.09 240.5,-79.09 240.5,-79.09 246.5,-79.09 252.5,-85.09 252.5,-91.09 252.5,-91.09 252.5,-103.09 252.5,-103.09 252.5,-109.09 246.5,-115.09 240.5,-115.09"/>
<text text-anchor="middle" x="147.5" y="-94.29" font-family="Helvetica,sans-Serif" font-size="11.00">ActivityManagerService.mProcLock</text>
</g>
<!-- __guard__&#45;&gt;__field__ -->
<g id="edge1" class="edge">
<title>__guard__&#45;&gt;__field__</title>
<path fill="none" stroke="#16a34a" stroke-width="1.6" d="M252.74,-82.09C302.62,-74.91 362.67,-66.26 414.74,-58.77"/>
<polygon fill="#16a34a" stroke="#16a34a" stroke-width="1.6" points="415.18,-61.53 422.7,-57.62 414.38,-55.99 415.18,-61.53"/>
<text text-anchor="middle" x="359" y="-74.89" font-family="Helvetica,sans-Serif" font-size="9.00" fill="#15803d"> guards 6/9</text>
</g>
<!-- m::com.android.server.am.OomAdjuster.updateOomAdjPendingTargetsLocked:(I)V -->
<g id="node3" class="node">
<title>m::com.android.server.am.OomAdjuster.updateOomAdjPendingTargetsLocked:(I)V</title>
<path fill="#fee2e2" stroke="#dc2626" d="M283,-41.09C283,-41.09 12,-41.09 12,-41.09 6,-41.09 0,-35.09 0,-29.09 0,-29.09 0,-17.09 0,-17.09 0,-11.09 6,-5.09 12,-5.09 12,-5.09 283,-5.09 283,-5.09 289,-5.09 295,-11.09 295,-17.09 295,-17.09 295,-29.09 295,-29.09 295,-35.09 289,-41.09 283,-41.09"/>
<text text-anchor="middle" x="147.5" y="-20.29" font-family="Helvetica,sans-Serif" font-size="11.00">OomAdjuster.updateOomAdjPendingTargetsLocked</text>
</g>
<!-- m::com.android.server.am.OomAdjuster.updateOomAdjPendingTargetsLocked:(I)V&#45;&gt;__field__ -->
<g id="edge2" class="edge">
<title>m::com.android.server.am.OomAdjuster.updateOomAdjPendingTargetsLocked:(I)V&#45;&gt;__field__</title>
<path fill="none" stroke="#dc2626" d="M295.07,-32.96C302.48,-33.36 309.83,-33.75 317,-34.09 348.65,-35.63 382.88,-36.9 414.71,-37.92"/>
<polygon fill="#dc2626" stroke="#dc2626" points="414.66,-40.72 422.74,-38.18 414.84,-35.13 414.66,-40.72"/>
<text text-anchor="middle" x="359" y="-39.89" font-family="Helvetica,sans-Serif" font-size="9.00" fill="#dc2626"> writes unguarded</text>
</g>
<!-- m::com.android.server.am.OomAdjuster.updateOomAdjPendingTargetsLocked:(I)V&#45;&gt;__field__ -->
<g id="edge3" class="edge">
<title>m::com.android.server.am.OomAdjuster.updateOomAdjPendingTargetsLocked:(I)V&#45;&gt;__field__</title>
<path fill="none" stroke="#dc2626" d="M295.14,-19.84C329.88,-19.97 366.77,-20.85 401,-23.09 405.47,-23.39 410.02,-23.73 414.61,-24.13"/>
<polygon fill="#dc2626" stroke="#dc2626" points="414.69,-26.94 422.91,-24.88 415.2,-21.37 414.69,-26.94"/>
<text text-anchor="middle" x="359" y="-25.89" font-family="Helvetica,sans-Serif" font-size="9.00" fill="#dc2626"> writes unguarded</text>
</g>
<!-- m::com.android.server.am.OomAdjuster.updateOomAdjPendingTargetsLocked:(I)V&#45;&gt;__field__ -->
<g id="edge4" class="edge">
<title>m::com.android.server.am.OomAdjuster.updateOomAdjPendingTargetsLocked:(I)V&#45;&gt;__field__</title>
<path fill="none" stroke="#dc2626" d="M257.22,-5.07C301.89,-0.22 354.05,2.16 401,-4.09 426.04,-7.43 452.99,-14.06 476.28,-20.79"/>
<polygon fill="#dc2626" stroke="#dc2626" points="475.57,-23.5 484.03,-23.08 477.15,-18.13 475.57,-23.5"/>
<text text-anchor="middle" x="359" y="-6.89" font-family="Helvetica,sans-Serif" font-size="9.00" fill="#dc2626"> reads unguarded</text>
</g>
</g>
</svg>
