<?xml version="1.0" encoding="UTF-8" standalone="no"?>
<!DOCTYPE svg PUBLIC "-//W3C//DTD SVG 1.1//EN"
 "http://www.w3.org/Graphics/SVG/1.1/DTD/svg11.dtd">
<!-- Generated by graphviz version 2.43.0 (0)
 -->
<!-- Title: race Pages: 1 -->
<svg width="721pt" height="160pt"
 viewBox="0.00 0.00 721.00 160.00" xmlns="http://www.w3.org/2000/svg" xmlns:xlink="http://www.w3.org/1999/xlink">
<g id="graph0" class="graph" transform="scale(1 1) rotate(0) translate(4 156)">
<title>race</title>
<polygon fill="white" stroke="transparent" points="-4,4 -4,-156 717,-156 717,4 -4,4"/>
<!-- __field__ -->
<g id="node1" class="node">
<title>__field__</title>
<path fill="#fef9c3" stroke="#ca8a04" stroke-width="2" d="M701,-94C701,-94 447,-94 447,-94 441,-94 435,-88 435,-82 435,-82 435,-70 435,-70 435,-64 441,-58 447,-58 447,-58 701,-58 701,-58 707,-58 713,-64 713,-70 713,-70 713,-82 713,-82 713,-88 707,-94 701,-94"/>
<text text-anchor="middle" x="574" y="-73.2" font-family="Helvetica,sans-Serif" font-size="11.00">ActiveAdmin.maximumFailedPasswordsForWipe</text>
</g>
<!-- __guard__ -->
<g id="node2" class="node">
<title>__guard__</title>
<path fill="#dcfce7" stroke="#16a34a" stroke-width="2" d="M295,-152C295,-152 12,-152 12,-152 6,-152 0,-146 0,-140 0,-140 0,-128 0,-128 0,-122 6,-116 12,-116 12,-116 295,-116 295,-116 301,-116 307,-122 307,-128 307,-128 307,-140 307,-140 307,-146 301,-152 295,-152"/>
<text text-anchor="middle" x="153.5" y="-131.2" font-family="Helvetica,sans-Serif" font-size="11.00">DevicePolicyManagerService.mLockDoNoUseDirectly</text>
</g>
<!-- __guard__&#45;&gt;__field__ -->
<g id="edge1" class="edge">
<title>__guard__&#45;&gt;__field__</title>
<path fill="none" stroke="#16a34a" stroke-width="1.6" d="M284.62,-115.97C332.35,-109.35 386.53,-101.84 434.93,-95.14"/>
<polygon fill="#16a34a" stroke="#16a34a" stroke-width="1.6" points="435.42,-97.89 442.96,-94.02 434.65,-92.35 435.42,-97.89"/>
<text text-anchor="middle" x="371" y="-110.8" font-family="Helvetica,sans-Serif" font-size="9.00" fill="#15803d"> guards 2/3</text>
</g>
<!-- m::com.android.server.devicepolicy.ActiveAdmin.readFromXml:(Lcom/android/modules/utils/TypedXmlPullParser;Z)V -->
<g id="node3" class="node">
<title>m::com.android.server.devicepolicy.ActiveAdmin.readFromXml:(Lcom/android/modules/utils/TypedXmlPullParser;Z)V</title>
<path fill="#fee2e2" stroke="#dc2626" d="M222.5,-94C222.5,-94 84.5,-94 84.5,-94 78.5,-94 72.5,-88 72.5,-82 72.5,-82 72.5,-70 72.5,-70 72.5,-64 78.5,-58 84.5,-58 84.5,-58 222.5,-58 222.5,-58 228.5,-58 234.5,-64 234.5,-70 234.5,-70 234.5,-82 234.5,-82 234.5,-88 228.5,-94 222.5,-94"/>
<text text-anchor="middle" x="153.5" y="-73.2" font-family="Helvetica,sans-Serif" font-size="11.00">ActiveAdmin.readFromXml</text>
</g>
<!-- m::com.android.server.devicepolicy.ActiveAdmin.readFromXml:(Lcom/android/modules/utils/TypedXmlPullParser;Z)V&#45;&gt;__field__ -->
<g id="edge2" class="edge">
<title>m::com.android.server.devicepolicy.ActiveAdmin.readFromXml:(Lcom/android/modules/utils/TypedXmlPullParser;Z)V&#45;&gt;__field__</title>
<path fill="none" stroke="#dc2626" d="M234.7,-76C288.98,-76 362.27,-76 426.76,-76"/>
<polygon fill="#dc2626" stroke="#dc2626" points="426.99,-78.8 434.99,-76 426.99,-73.2 426.99,-78.8"/>
<text text-anchor="middle" x="371" y="-78.8" font-family="Helvetica,sans-Serif" font-size="9.00" fill="#dc2626"> writes unguarded</text>
</g>
<!-- m::com.android.server.devicepolicy.ActiveAdmin.writeToXml:(Lcom/android/modules/utils/TypedXmlSerializer;)V -->
<g id="node4" class="node">
<title>m::com.android.server.devicepolicy.ActiveAdmin.writeToXml:(Lcom/android/modules/utils/TypedXmlSerializer;)V</title>
<path fill="#fee2e2" stroke="#dc2626" d="M216,-36C216,-36 91,-36 91,-36 85,-36 79,-30 79,-24 79,-24 79,-12 79,-12 79,-6 85,0 91,0 91,0 216,0 216,0 222,0 228,-6 228,-12 228,-12 228,-24 228,-24 228,-30 222,-36 216,-36"/>
<text text-anchor="middle" x="153.5" y="-15.2" font-family="Helvetica,sans-Serif" font-size="11.00">ActiveAdmin.writeToXml</text>
</g>
<!-- m::com.android.server.devicepolicy.ActiveAdmin.writeToXml:(Lcom/android/modules/utils/TypedXmlSerializer;)V&#45;&gt;__field__ -->
<g id="edge3" class="edge">
<title>m::com.android.server.devicepolicy.ActiveAdmin.writeToXml:(Lcom/android/modules/utils/TypedXmlSerializer;)V&#45;&gt;__field__</title>
<path fill="none" stroke="#dc2626" d="M228.36,-28.24C285.29,-36.13 365.66,-47.27 434.47,-56.8"/>
<polygon fill="#dc2626" stroke="#dc2626" points="434.5,-59.63 442.81,-57.96 435.27,-54.08 434.5,-59.63"/>
<text text-anchor="middle" x="371" y="-54.8" font-family="Helvetica,sans-Serif" font-size="9.00" fill="#dc2626"> reads unguarded</text>
</g>
</g>
</svg>
