<?xml version="1.0" encoding="UTF-8" standalone="no"?>
<!DOCTYPE svg PUBLIC "-//W3C//DTD SVG 1.1//EN"
 "http://www.w3.org/Graphics/SVG/1.1/DTD/svg11.dtd">
<!-- Generated by graphviz version 2.43.0 (0)
 -->
<!-- Title: race Pages: 1 -->
<svg width="735pt" height="218pt"
 viewBox="0.00 0.00 735.00 218.00" xmlns="http://www.w3.org/2000/svg" xmlns:xlink="http://www.w3.org/1999/xlink">
<g id="graph0" class="graph" transform="scale(1 1) rotate(0) translate(4 214)">
<title>race</title>
<polygon fill="white" stroke="transparent" points="-4,4 -4,-214 731,-214 731,4 -4,4"/>
<!-- __field__ -->
<g id="node1" class="node">
<title>__field__</title>
<path fill="#fef9c3" stroke="#ca8a04" stroke-width="2" d="M715,-123C715,-123 448,-123 448,-123 442,-123 436,-117 436,-111 436,-111 436,-99 436,-99 436,-93 442,-87 448,-87 448,-87 715,-87 715,-87 721,-87 727,-93 727,-99 727,-99 727,-111 727,-111 727,-117 721,-123 715,-123"/>
<text text-anchor="middle" x="581.5" y="-102.2" font-family="Helvetica,sans-Serif" font-size="11.00">ActiveServices$ActiveForegroundApp.mAppOnTop</text>
</g>
<!-- __guard__ -->
<g id="node2" class="node">
<title>__guard__</title>
<path fill="#dcfce7" stroke="#16a34a" stroke-width="2" d="M247,-210C247,-210 61,-210 61,-210 55,-210 49,-204 49,-198 49,-198 49,-186 49,-186 49,-180 55,-174 61,-174 61,-174 247,-174 247,-174 253,-174 259,-180 259,-186 259,-186 259,-198 259,-198 259,-204 253,-210 247,-210"/>
<text text-anchor="middle" x="154" y="-189.2" font-family="Helvetica,sans-Serif" font-size="11.00">ActivityManagerService.mProcLock</text>
</g>
<!-- __guard__&#45;&gt;__field__ -->
<g id="edge1" class="edge">
<title>__guard__&#45;&gt;__field__</title>
<path fill="none" stroke="#16a34a" stroke-width="1.6" d="M251.78,-174C270.45,-170.43 289.84,-166.65 308,-163 368.78,-150.77 437,-136.25 489.98,-124.8"/>
<polygon fill="#16a34a" stroke="#16a34a" stroke-width="1.6" points="490.79,-127.49 498.02,-123.06 489.61,-122.01 490.79,-127.49"/>
<text text-anchor="middle" x="372" y="-160.8" font-family="Helvetica,sans-Serif" font-size="9.00" fill="#15803d"> guards 2/3</text>
</g>
<!-- m::com.android.server.am.ActiveServices.setServiceForegroundInnerLocked:(Lcom/android/server/am/ServiceRecord;ILandroid/app/Notification;IIIZ)V -->
<g id="node3" class="node">
<title>m::com.android.server.am.ActiveServices.setServiceForegroundInnerLocked:(Lcom/android/server/am/ServiceRecord;ILandroid/app/Notification;IIIZ)V</title>
<path fill="#fee2e2" stroke="#dc2626" d="M285.5,-152C285.5,-152 22.5,-152 22.5,-152 16.5,-152 10.5,-146 10.5,-140 10.5,-140 10.5,-128 10.5,-128 10.5,-122 16.5,-116 22.5,-116 22.5,-116 285.5,-116 285.5,-116 291.5,-116 297.5,-122 297.5,-128 297.5,-128 297.5,-140 297.5,-140 297.5,-146 291.5,-152 285.5,-152"/>
<text text-anchor="middle" x="154" y="-131.2" font-family="Helvetica,sans-Serif" font-size="11.00">ActiveServices.setServiceForegroundInnerLocked</text>
</g>
<!-- m::com.android.server.am.ActiveServices.setServiceForegroundInnerLocked:(Lcom/android/server/am/ServiceRecord;ILandroid/app/Notification;IIIZ)V&#45;&gt;__field__ -->
<g id="edge2" class="edge">
<title>m::com.android.server.am.ActiveServices.setServiceForegroundInnerLocked:(Lcom/android/server/am/ServiceRecord;ILandroid/app/Notification;IIIZ)V&#45;&gt;__field__</title>
<path fill="none" stroke="#dc2626" d="M297.57,-124.28C339.32,-121.44 385.13,-118.32 427.5,-115.43"/>
<polygon fill="#dc2626" stroke="#dc2626" points="427.85,-118.21 435.64,-114.87 427.47,-112.62 427.85,-118.21"/>
<text text-anchor="middle" x="372" y="-123.8" font-family="Helvetica,sans-Serif" font-size="9.00" fill="#dc2626"> writes unguarded</text>
</g>
<!-- m::com.android.server.am.ActiveServices$ServiceDumper.dumpRemainsLocked:()V -->
<g id="node4" class="node">
<title>m::com.android.server.am.ActiveServices$ServiceDumper.dumpRemainsLocked:()V</title>
<path fill="#fee2e2" stroke="#dc2626" d="M296,-94C296,-94 12,-94 12,-94 6,-94 0,-88 0,-82 0,-82 0,-70 0,-70 0,-64 6,-58 12,-58 12,-58 296,-58 296,-58 302,-58 308,-64 308,-70 308,-70 308,-82 308,-82 308,-88 302,-94 296,-94"/>
<text text-anchor="middle" x="154" y="-73.2" font-family="Helvetica,sans-Serif" font-size="11.00">ActiveServices$ServiceDumper.dumpRemainsLocked</text>
</g>
<!-- m::com.android.server.am.ActiveServices$ServiceDumper.dumpRemainsLocked:()V&#45;&gt;__field__ -->
<g id="edge3" class="edge">
<title>m::com.android.server.am.ActiveServices$ServiceDumper.dumpRemainsLocked:()V&#45;&gt;__field__</title>
<path fill="none" stroke="#dc2626" d="M308.01,-86.43C346.94,-89.08 388.77,-91.93 427.69,-94.58"/>
<polygon fill="#dc2626" stroke="#dc2626" points="427.77,-97.4 435.94,-95.15 428.15,-91.81 427.77,-97.4"/>
<text text-anchor="middle" x="372" y="-95.8" font-family="Helvetica,sans-Serif" font-size="9.00" fill="#dc2626"> reads unguarded</text>
</g>
<!-- m::com.android.server.am.ActiveServices.updateForegroundApps:(Lcom/android/server/am/ActiveServices$ServiceMap;)V -->
<g id="node5" class="node">
<title>m::com.android.server.am.ActiveServices.updateForegroundApps:(Lcom/android/server/am/ActiveServices$ServiceMap;)V</title>
<path fill="#fee2e2" stroke="#dc2626" d="M256.5,-36C256.5,-36 51.5,-36 51.5,-36 45.5,-36 39.5,-30 39.5,-24 39.5,-24 39.5,-12 39.5,-12 39.5,-6 45.5,0 51.5,0 51.5,0 256.5,0 256.5,0 262.5,0 268.5,-6 268.5,-12 268.5,-12 268.5,-24 268.5,-24 268.5,-30 262.5,-36 256.5,-36"/>
<text text-anchor="middle" x="154" y="-15.2" font-family="Helvetica,sans-Serif" font-size="11.00">ActiveServices.updateForegroundApps</text>
</g>
<!-- m::com.android.server.am.ActiveServices.updateForegroundApps:(Lcom/android/server/am/ActiveServices$ServiceMap;)V&#45;&gt;__field__ -->
<g id="edge4" class="edge">
<title>m::com.android.server.am.ActiveServices.updateForegroundApps:(Lcom/android/server/am/ActiveServices$ServiceMap;)V&#45;&gt;__field__</title>
<path fill="none" stroke="#dc2626" d="M251.78,-36C270.45,-39.57 289.84,-43.35 308,-47 368.78,-59.23 437,-73.75 489.98,-85.2"/>
<polygon fill="#dc2626" stroke="#dc2626" points="489.61,-87.99 498.02,-86.94 490.79,-82.51 489.61,-87.99"/>
<text text-anchor="middle" x="372" y="-70.8" font-family="Helvetica,sans-Serif" font-size="9.00" fill="#dc2626"> reads unguarded</text>
</g>
</g>
</svg>
