<?xml version="1.0" encoding="UTF-8" standalone="no"?>
<!DOCTYPE svg PUBLIC "-//W3C//DTD SVG 1.1//EN"
 "http://www.w3.org/Graphics/SVG/1.1/DTD/svg11.dtd">
<!-- Generated by graphviz version 2.43.0 (0)
 -->
<!-- Title: race Pages: 1 -->
<svg width="624pt" height="160pt"
 viewBox="0.00 0.00 624.00 160.00" xmlns="http://www.w3.org/2000/svg" xmlns:xlink="http://www.w3.org/1999/xlink">
<g id="graph0" class="graph" transform="scale(1 1) rotate(0) translate(4 156)">
<title>race</title>
<polygon fill="white" stroke="transparent" points="-4,4 -4,-156 620,-156 620,4 -4,4"/>
<!-- __field__ -->
<g id="node1" class="node">
<title>__field__</title>
<path fill="#fef9c3" stroke="#ca8a04" stroke-width="2" d="M604,-94C604,-94 444,-94 444,-94 438,-94 432,-88 432,-82 432,-82 432,-70 432,-70 432,-64 438,-58 444,-58 444,-58 604,-58 604,-58 610,-58 616,-64 616,-70 616,-70 616,-82 616,-82 616,-88 610,-94 604,-94"/>
<text text-anchor="middle" x="524" y="-73.2" font-family="Helvetica,sans-Serif" font-size="11.00">ProgramInfoCache.mComplete</text>
</g>
<!-- __guard__ -->
<g id="node2" class="node">
<title>__guard__</title>
<path fill="#dcfce7" stroke="#16a34a" stroke-width="2" d="M203,-152C203,-152 101,-152 101,-152 95,-152 89,-146 89,-140 89,-140 89,-128 89,-128 89,-122 95,-116 101,-116 101,-116 203,-116 203,-116 209,-116 215,-122 215,-128 215,-128 215,-140 215,-140 215,-146 209,-152 203,-152"/>
<text text-anchor="middle" x="152" y="-131.2" font-family="Helvetica,sans-Serif" font-size="11.00">RadioModule.mLock</text>
</g>
<!-- __guard__&#45;&gt;__field__ -->
<g id="edge1" class="edge">
<title>__guard__&#45;&gt;__field__</title>
<path fill="none" stroke="#16a34a" stroke-width="1.6" d="M215.35,-124.23C272.34,-115.29 357.61,-101.93 423.93,-91.53"/>
<polygon fill="#16a34a" stroke="#16a34a" stroke-width="1.6" points="424.46,-94.28 431.92,-90.28 423.59,-88.75 424.46,-94.28"/>
<text text-anchor="middle" x="368" y="-108.8" font-family="Helvetica,sans-Serif" font-size="9.00" fill="#15803d"> guards 2/3</text>
</g>
<!-- m::com.android.server.broadcastradio.aidl.ProgramInfoCache.updateFromHalProgramListChunk:(Landroid/hardware/broadcastradio/ProgramListChunk;)V -->
<g id="node3" class="node">
<title>m::com.android.server.broadcastradio.aidl.ProgramInfoCache.updateFromHalProgramListChunk:(Landroid/hardware/broadcastradio/ProgramListChunk;)V</title>
<path fill="#fee2e2" stroke="#dc2626" d="M292,-94C292,-94 12,-94 12,-94 6,-94 0,-88 0,-82 0,-82 0,-70 0,-70 0,-64 6,-58 12,-58 12,-58 292,-58 292,-58 298,-58 304,-64 304,-70 304,-70 304,-82 304,-82 304,-88 298,-94 292,-94"/>
<text text-anchor="middle" x="152" y="-73.2" font-family="Helvetica,sans-Serif" font-size="11.00">ProgramInfoCache.updateFromHalProgramListChunk</text>
</g>
<!-- m::com.android.server.broadcastradio.aidl.ProgramInfoCache.updateFromHalProgramListChunk:(Landroid/hardware/broadcastradio/ProgramListChunk;)V&#45;&gt;__field__ -->
<g id="edge2" class="edge">
<title>m::com.android.server.broadcastradio.aidl.ProgramInfoCache.updateFromHalProgramListChunk:(Landroid/hardware/broadcastradio/ProgramListChunk;)V&#45;&gt;__field__</title>
<path fill="none" stroke="#dc2626" d="M304.03,-76C344.34,-76 386.88,-76 423.64,-76"/>
<polygon fill="#dc2626" stroke="#dc2626" points="423.87,-78.8 431.87,-76 423.87,-73.2 423.87,-78.8"/>
<text text-anchor="middle" x="368" y="-78.8" font-family="Helvetica,sans-Serif" font-size="9.00" fill="#dc2626"> writes unguarded</text>
</g>
<!-- m::com.android.server.broadcastradio.aidl.ProgramInfoCache.toString:()Ljava/lang/String; -->
<g id="node4" class="node">
<title>m::com.android.server.broadcastradio.aidl.ProgramInfoCache.toString:()Ljava/lang/String;</title>
<path fill="#fee2e2" stroke="#dc2626" d="M222,-36C222,-36 82,-36 82,-36 76,-36 70,-30 70,-24 70,-24 70,-12 70,-12 70,-6 76,0 82,0 82,0 222,0 222,0 228,0 234,-6 234,-12 234,-12 234,-24 234,-24 234,-30 228,-36 222,-36"/>
<text text-anchor="middle" x="152" y="-15.2" font-family="Helvetica,sans-Serif" font-size="11.00">ProgramInfoCache.toString</text>
</g>
<!-- m::com.android.server.broadcastradio.aidl.ProgramInfoCache.toString:()Ljava/lang/String;&#45;&gt;__field__ -->
<g id="edge3" class="edge">
<title>m::com.android.server.broadcastradio.aidl.ProgramInfoCache.toString:()Ljava/lang/String;&#45;&gt;__field__</title>
<path fill="none" stroke="#dc2626" d="M234.2,-30.73C289.97,-39.47 364.35,-51.13 423.65,-60.43"/>
<polygon fill="#dc2626" stroke="#dc2626" points="423.58,-63.25 431.92,-61.72 424.45,-57.72 423.58,-63.25"/>
<text text-anchor="middle" x="368" y="-59.8" font-family="Helvetica,sans-Serif" font-size="9.00" fill="#dc2626"> reads unguarded</text>
</g>
</g>
</svg>
