<?xml version="1.0" encoding="UTF-8" standalone="no"?>
<!DOCTYPE svg PUBLIC "-//W3C//DTD SVG 1.1//EN"
 "http://www.w3.org/Graphics/SVG/1.1/DTD/svg11.dtd">
<!-- Generated by graphviz version 2.43.0 (0)
 -->
<!-- Title: race Pages: 1 -->
<svg width="540pt" height="102pt"
 viewBox="0.00 0.00 540.00 102.00" xmlns="http://www.w3.org/2000/svg" xmlns:xlink="http://www.w3.org/1999/xlink">
<g id="graph0" class="graph" transform="scale(1 1) rotate(0) translate(4 98)">
<title>race</title>
<polygon fill="white" stroke="transparent" points="-4,4 -4,-98 536,-98 536,4 -4,4"/>
<!-- __field__ -->
<g id="node1" class="node">
<title>__field__</title>
<path fill="#fef9c3" stroke="#ca8a04" stroke-width="2" d="M520,-65C520,-65 341,-65 341,-65 335,-65 329,-59 329,-53 329,-53 329,-41 329,-41 329,-35 335,-29 341,-29 341,-29 520,-29 520,-29 526,-29 532,-35 532,-41 532,-41 532,-53 532,-53 532,-59 526,-65 520,-65"/>
<text text-anchor="middle" x="430.5" y="-44.2" font-family="Helvetica,sans-Serif" font-size="11.00">AppProfiler.mFullPssOrRssPending</text>
</g>
<!-- __guard__ -->
<g id="node2" class="node">
<title>__guard__</title>
<path fill="#dcfce7" stroke="#16a34a" stroke-width="2" d="M165.5,-94C165.5,-94 35.5,-94 35.5,-94 29.5,-94 23.5,-88 23.5,-82 23.5,-82 23.5,-70 23.5,-70 23.5,-64 29.5,-58 35.5,-58 35.5,-58 165.5,-58 165.5,-58 171.5,-58 177.5,-64 177.5,-70 177.5,-70 177.5,-82 177.5,-82 177.5,-88 171.5,-94 165.5,-94"/>
<text text-anchor="middle" x="100.5" y="-73.2" font-family="Helvetica,sans-Serif" font-size="11.00">AppProfiler.mProfilerLock</text>
</g>
<!-- __guard__&#45;&gt;__field__ -->
<g id="edge1" class="edge">
<title>__guard__&#45;&gt;__field__</title>
<path fill="none" stroke="#16a34a" stroke-width="1.6" d="M177.57,-69.27C220.15,-65.51 273.96,-60.75 320.9,-56.6"/>
<polygon fill="#16a34a" stroke="#16a34a" stroke-width="1.6" points="321.25,-59.38 328.97,-55.89 320.76,-53.8 321.25,-59.38"/>
<text text-anchor="middle" x="265" y="-66.8" font-family="Helvetica,sans-Serif" font-size="9.00" fill="#15803d"> guards 2/3</text>
</g>
<!-- m::com.android.server.am.AppProfiler.requestPssAllProcsLPr:(JZZ)V -->
<g id="node3" class="node">
<title>m::com.android.server.am.AppProfiler.requestPssAllProcsLPr:(JZZ)V</title>
<path fill="#fee2e2" stroke="#dc2626" d="M189,-36C189,-36 12,-36 12,-36 6,-36 0,-30 0,-24 0,-24 0,-12 0,-12 0,-6 6,0 12,0 12,0 189,0 189,0 195,0 201,-6 201,-12 201,-12 201,-24 201,-24 201,-30 195,-36 189,-36"/>
<text text-anchor="middle" x="100.5" y="-15.2" font-family="Helvetica,sans-Serif" font-size="11.00">AppProfiler.requestPssAllProcsLPr</text>
</g>
<!-- m::com.android.server.am.AppProfiler.requestPssAllProcsLPr:(JZZ)V&#45;&gt;__field__ -->
<g id="edge2" class="edge">
<title>m::com.android.server.am.AppProfiler.requestPssAllProcsLPr:(JZZ)V&#45;&gt;__field__</title>
<path fill="none" stroke="#dc2626" d="M201.25,-26.82C238.99,-30.16 282.13,-33.97 320.66,-37.38"/>
<polygon fill="#dc2626" stroke="#dc2626" points="320.6,-40.18 328.81,-38.1 321.09,-34.6 320.6,-40.18"/>
<text text-anchor="middle" x="265" y="-37.8" font-family="Helvetica,sans-Serif" font-size="9.00" fill="#dc2626"> writes unguarded</text>
</g>
</g>
</svg>
