<?xml version="1.0" encoding="UTF-8" standalone="no"?>
<!DOCTYPE svg PUBLIC "-//W3C//DTD SVG 1.1//EN"
 "http://www.w3.org/Graphics/SVG/1.1/DTD/svg11.dtd">
<!-- Generated by graphviz version 2.43.0 (0)
 -->
<!-- Title: race Pages: 1 -->
<svg width="739pt" height="102pt"
 viewBox="0.00 0.00 739.00 102.00" xmlns="http://www.w3.org/2000/svg" xmlns:xlink="http://www.w3.org/1999/xlink">
<g id="graph0" class="graph" transform="scale(1 1) rotate(0) translate(4 98)">
<title>race</title>
<polygon fill="white" stroke="transparent" points="-4,4 -4,-98 735,-98 735,4 -4,4"/>
<!-- __field__ -->
<g id="node1" class="node">
<title>__field__</title>
<path fill="#fef9c3" stroke="#ca8a04" stroke-width="2" d="M719,-65C719,-65 439,-65 439,-65 433,-65 427,-59 427,-53 427,-53 427,-41 427,-41 427,-35 433,-29 439,-29 439,-29 719,-29 719,-29 725,-29 731,-35 731,-41 731,-41 731,-53 731,-53 731,-59 725,-65 719,-65"/>
<text text-anchor="middle" x="579" y="-44.2" font-family="Helvetica,sans-Serif" font-size="11.00">AttentionManagerService.mCurrentProximityUpdate</text>
</g>
<!-- __guard__ -->
<g id="node2" class="node">
<title>__guard__</title>
<path fill="#dcfce7" stroke="#16a34a" stroke-width="2" d="M235,-94C235,-94 64,-94 64,-94 58,-94 52,-88 52,-82 52,-82 52,-70 52,-70 52,-64 58,-58 64,-58 64,-58 235,-58 235,-58 241,-58 247,-64 247,-70 247,-70 247,-82 247,-82 247,-88 241,-94 235,-94"/>
<text text-anchor="middle" x="149.5" y="-73.2" font-family="Helvetica,sans-Serif" font-size="11.00">AttentionManagerService.mLock</text>
</g>
<!-- __guard__&#45;&gt;__field__ -->
<g id="edge1" class="edge">
<title>__guard__&#45;&gt;__field__</title>
<path fill="none" stroke="#16a34a" stroke-width="1.6" d="M247.24,-69.44C297.82,-66.01 361.03,-61.72 418.6,-57.81"/>
<polygon fill="#16a34a" stroke="#16a34a" stroke-width="1.6" points="418.89,-60.6 426.69,-57.26 418.52,-55.01 418.89,-60.6"/>
<text text-anchor="middle" x="363" y="-66.8" font-family="Helvetica,sans-Serif" font-size="9.00" fill="#15803d"> guards 3/4</text>
</g>
<!-- m::com.android.server.attention.AttentionManagerService.onStartProximityUpdates:(Landroid/attention/AttentionManagerInternal$ProximityUpdateCallbackInternal;)Z -->
<g id="node3" class="node">
<title>m::com.android.server.attention.AttentionManagerService.onStartProximityUpdates:(Landroid/attention/AttentionManagerInternal$ProximityUpdateCallbackInternal;)Z</title>
<path fill="#fee2e2" stroke="#dc2626" d="M287,-36C287,-36 12,-36 12,-36 6,-36 0,-30 0,-24 0,-24 0,-12 0,-12 0,-6 6,0 12,0 12,0 287,0 287,0 293,0 299,-6 299,-12 299,-12 299,-24 299,-24 299,-30 293,-36 287,-36"/>
<text text-anchor="middle" x="149.5" y="-15.2" font-family="Helvetica,sans-Serif" font-size="11.00">AttentionManagerService.onStartProximityUpdates</text>
</g>
<!-- m::com.android.server.attention.AttentionManagerService.onStartProximityUpdates:(Landroid/attention/AttentionManagerInternal$ProximityUpdateCallbackInternal;)Z&#45;&gt;__field__ -->
<g id="edge2" class="edge">
<title>m::com.android.server.attention.AttentionManagerService.onStartProximityUpdates:(Landroid/attention/AttentionManagerInternal$ProximityUpdateCallbackInternal;)Z&#45;&gt;__field__</title>
<path fill="none" stroke="#dc2626" d="M299.12,-28.08C337.72,-30.7 379.45,-33.53 418.57,-36.19"/>
<polygon fill="#dc2626" stroke="#dc2626" points="418.71,-39 426.88,-36.75 419.09,-33.41 418.71,-39"/>
<text text-anchor="middle" x="363" y="-37.8" font-family="Helvetica,sans-Serif" font-size="9.00" fill="#dc2626"> writes unguarded</text>
</g>
</g>
</svg>
