<?xml version="1.0" encoding="UTF-8" standalone="no"?>
<!DOCTYPE svg PUBLIC "-//W3C//DTD SVG 1.1//EN"
 "http://www.w3.org/Graphics/SVG/1.1/DTD/svg11.dtd">
<!-- Generated by graphviz version 2.43.0 (0)
 -->
<!-- Title: race Pages: 1 -->
<svg width="770pt" height="218pt"
 viewBox="0.00 0.00 770.00 218.00" xmlns="http://www.w3.org/2000/svg" xmlns:xlink="http://www.w3.org/1999/xlink">
<g id="graph0" class="graph" transform="scale(1 1) rotate(0) translate(4 214)">
<title>race</title>
<polygon fill="white" stroke="transparent" points="-4,4 -4,-214 766,-214 766,4 -4,4"/>
<!-- __field__ -->
<g id="node1" class="node">
<title>__field__</title>
<path fill="#fef9c3" stroke="#ca8a04" stroke-width="2" d="M750,-123C750,-123 448,-123 448,-123 442,-123 436,-117 436,-111 436,-111 436,-99 436,-99 436,-93 442,-87 448,-87 448,-87 750,-87 750,-87 756,-87 762,-93 762,-99 762,-99 762,-111 762,-111 762,-117 756,-123 750,-123"/>
<text text-anchor="middle" x="599" y="-102.2" font-family="Helvetica,sans-Serif" font-size="11.00">ActiveServices$ActiveForegroundApp.mStartVisibleTime</text>
</g>
<!-- __guard__ -->
<g id="node2" class="node">
<title>__guard__</title>
<path fill="#dcfce7" stroke="#16a34a" stroke-width="2" d="M226,-210C226,-210 82,-210 82,-210 76,-210 70,-204 70,-198 70,-198 70,-186 70,-186 70,-180 76,-174 82,-174 82,-174 226,-174 226,-174 232,-174 238,-180 238,-186 238,-186 238,-198 238,-198 238,-204 232,-210 226,-210"/>
<text text-anchor="middle" x="154" y="-189.2" font-family="Helvetica,sans-Serif" font-size="11.00">am.ActivityManagerService</text>
</g>
<!-- __guard__&#45;&gt;__field__ -->
<g id="edge1" class="edge">
<title>__guard__&#45;&gt;__field__</title>
<path fill="none" stroke="#16a34a" stroke-width="1.6" d="M238.01,-176.42C260.71,-172.12 285.31,-167.42 308,-163 372.5,-150.44 444.99,-135.94 501.36,-124.58"/>
<polygon fill="#16a34a" stroke="#16a34a" stroke-width="1.6" points="501.91,-127.33 509.2,-123 500.8,-121.84 501.91,-127.33"/>
<text text-anchor="middle" x="372" y="-160.8" font-family="Helvetica,sans-Serif" font-size="9.00" fill="#15803d"> guards 2/3</text>
</g>
<!-- m::com.android.server.am.ActiveServices.setServiceForegroundInnerLocked:(Lcom/android/server/am/ServiceRecord;ILandroid/app/Notification;IIIZ)V -->
<g id="node3" class="node">
<title>m::com.android.server.am.ActiveServices.setServiceForegroundInnerLocked:(Lcom/android/server/am/ServiceRecord;ILandroid/app/Notification;IIIZ)V</title>
<path fill="#fee2e2" stroke="#dc2626" d="M285.5,-152C285.5,-152 22.5,-152 22.5,-152 16.5,-152 10.5,-146 10.5,-140 10.5,-140 10.5,-128 10.5,-128 10.5,-122 16.5,-116 22.5,-116 22.5,-116 285.5,-116 285.5,-116 291.5,-116 297.5,-122 297.5,-128 297.5,-128 297.5,-140 297.5,-140 297.5,-146 291.5,-152 285.5,-152"/>
<text text-anchor="middle" x="154" y="-131.2" font-family="Helvetica,sans-Serif" font-size="11.00">ActiveServices.setServiceForegroundInnerLocked</text>
</g>
<!-- m::com.android.server.am.ActiveServices.setServiceForegroundInnerLocked:(Lcom/android/server/am/ServiceRecord;ILandroid/app/Notification;IIIZ)V&#45;&gt;__field__ -->
<g id="edge2" class="edge">
<title>m::com.android.server.am.ActiveServices.setServiceForegroundInnerLocked:(Lcom/android/server/am/ServiceRecord;ILandroid/app/Notification;IIIZ)V&#45;&gt;__field__</title>
<path fill="none" stroke="#dc2626" d="M297.61,-124.66C339.04,-121.95 384.71,-118.96 427.66,-116.15"/>
<polygon fill="#dc2626" stroke="#dc2626" points="427.85,-118.94 435.65,-115.63 427.48,-113.36 427.85,-118.94"/>
<text text-anchor="middle" x="372" y="-124.8" font-family="Helvetica,sans-Serif" font-size="9.00" fill="#dc2626"> writes unguarded</text>
</g>
<!-- m::com.android.server.am.ActiveServices$ServiceDumper.dumpRemainsLocked:()V -->
<g id="node4" class="node">
<title>m::com.android.server.am.ActiveServices$ServiceDumper.dumpRemainsLocked:()V</title>
<path fill="#fee2e2" stroke="#dc2626" d="M296,-94C296,-94 12,-94 12,-94 6,-94 0,-88 0,-82 0,-82 0,-70 0,-70 0,-64 6,-58 12,-58 12,-58 296,-58 296,-58 302,-58 308,-64 308,-70 308,-70 308,-82 308,-82 308,-88 302,-94 296,-94"/>
<text text-anchor="middle" x="154" y="-73.2" font-family="Helvetica,sans-Serif" font-size="11.00">ActiveServices$ServiceDumper.dumpRemainsLocked</text>
</g>
<!-- m::com.android.server.am.ActiveServices$ServiceDumper.dumpRemainsLocked:()V&#45;&gt;__field__ -->
<g id="edge3" class="edge">
<title>m::com.android.server.am.ActiveServices$ServiceDumper.dumpRemainsLocked:()V&#45;&gt;__field__</title>
<path fill="none" stroke="#dc2626" d="M308.08,-86.02C346.6,-88.54 388.19,-91.27 427.51,-93.84"/>
<polygon fill="#dc2626" stroke="#dc2626" points="427.7,-96.66 435.86,-94.39 428.06,-91.07 427.7,-96.66"/>
<text text-anchor="middle" x="372" y="-94.8" font-family="Helvetica,sans-Serif" font-size="9.00" fill="#dc2626"> reads unguarded</text>
</g>
<!-- m::com.android.server.am.ActiveServices.foregroundAppShownEnoughLocked:(Lcom/android/server/am/ActiveServices$ActiveForegroundApp;J)Z -->
<g id="node5" class="node">
<title>m::com.android.server.am.ActiveServices.foregroundAppShownEnoughLocked:(Lcom/android/server/am/ActiveServices$ActiveForegroundApp;J)Z</title>
<path fill="#fee2e2" stroke="#dc2626" d="M290.5,-36C290.5,-36 17.5,-36 17.5,-36 11.5,-36 5.5,-30 5.5,-24 5.5,-24 5.5,-12 5.5,-12 5.5,-6 11.5,0 17.5,0 17.5,0 290.5,0 290.5,0 296.5,0 302.5,-6 302.5,-12 302.5,-12 302.5,-24 302.5,-24 302.5,-30 296.5,-36 290.5,-36"/>
<text text-anchor="middle" x="154" y="-15.2" font-family="Helvetica,sans-Serif" font-size="11.00">ActiveServices.foregroundAppShownEnoughLocked</text>
</g>
<!-- m::com.android.server.am.ActiveServices.foregroundAppShownEnoughLocked:(Lcom/android/server/am/ActiveServices$ActiveForegroundApp;J)Z&#45;&gt;__field__ -->
<g id="edge4" class="edge">
<title>m::com.android.server.am.ActiveServices.foregroundAppShownEnoughLocked:(Lcom/android/server/am/ActiveServices$ActiveForegroundApp;J)Z&#45;&gt;__field__</title>
<path fill="none" stroke="#dc2626" d="M250.93,-36.03C269.85,-39.63 289.56,-43.41 308,-47 372.5,-59.56 444.99,-74.06 501.36,-85.42"/>
<polygon fill="#dc2626" stroke="#dc2626" points="500.8,-88.16 509.2,-87 501.91,-82.67 500.8,-88.16"/>
<text text-anchor="middle" x="372" y="-69.8" font-family="Helvetica,sans-Serif" font-size="9.00" fill="#dc2626"> reads unguarded</text>
</g>
</g>
</svg>
