<?xml version="1.0" encoding="UTF-8" standalone="no"?>
<!DOCTYPE svg PUBLIC "-//W3C//DTD SVG 1.1//EN"
 "http://www.w3.org/Graphics/SVG/1.1/DTD/svg11.dtd">
<!-- Generated by graphviz version 2.43.0 (0)
 -->
<!-- Title: race Pages: 1 -->
<svg width="687pt" height="287pt"
 viewBox="0.00 0.00 687.00 287.00" xmlns="http://www.w3.org/2000/svg" xmlns:xlink="http://www.w3.org/1999/xlink">
<g id="graph0" class="graph" transform="scale(1 1) rotate(0) translate(4 283)">
<title>race</title>
<polygon fill="white" stroke="transparent" points="-4,4 -4,-283 683,-283 683,4 -4,4"/>
<!-- __field__ -->
<g id="node1" class="node">
<title>__field__</title>
<path fill="#fef9c3" stroke="#ca8a04" stroke-width="2" d="M667,-147C667,-147 419,-147 419,-147 413,-147 407,-141 407,-135 407,-135 407,-123 407,-123 407,-117 413,-111 419,-111 419,-111 667,-111 667,-111 673,-111 679,-117 679,-123 679,-123 679,-135 679,-135 679,-141 673,-147 667,-147"/>
<text text-anchor="middle" x="543" y="-126.2" font-family="Helvetica,sans-Serif" font-size="11.00">StorageManagerService.mPrimaryStorageUuid</text>
</g>
<!-- __guard__ -->
<g id="node2" class="node">
<title>__guard__</title>
<path fill="#dcfce7" stroke="#16a34a" stroke-width="2" d="M221,-279C221,-279 58,-279 58,-279 52,-279 46,-273 46,-267 46,-267 46,-255 46,-255 46,-249 52,-243 58,-243 58,-243 221,-243 221,-243 227,-243 233,-249 233,-255 233,-255 233,-267 233,-267 233,-273 227,-279 221,-279"/>
<text text-anchor="middle" x="139.5" y="-258.2" font-family="Helvetica,sans-Serif" font-size="11.00">StorageManagerService.mLock</text>
</g>
<!-- __guard__&#45;&gt;__field__ -->
<g id="edge1" class="edge">
<title>__guard__&#45;&gt;__field__</title>
<path fill="none" stroke="#16a34a" stroke-width="1.6" d="M233.05,-243.86C248.5,-240.36 264.29,-236.39 279,-232 356.26,-208.96 442.76,-173.03 494.77,-150.27"/>
<polygon fill="#16a34a" stroke="#16a34a" stroke-width="1.6" points="495.99,-152.79 502.18,-147.01 493.73,-147.66 495.99,-152.79"/>
<text text-anchor="middle" x="343" y="-224.8" font-family="Helvetica,sans-Serif" font-size="9.00" fill="#15803d"> guards 4/5</text>
</g>
<!-- m::com.android.server.StorageManagerService.onMoveStatusLocked:(I)V -->
<g id="node3" class="node">
<title>m::com.android.server.StorageManagerService.onMoveStatusLocked:(I)V</title>
<path fill="#fee2e2" stroke="#dc2626" d="M262,-221C262,-221 17,-221 17,-221 11,-221 5,-215 5,-209 5,-209 5,-197 5,-197 5,-191 11,-185 17,-185 17,-185 262,-185 262,-185 268,-185 274,-191 274,-197 274,-197 274,-209 274,-209 274,-215 268,-221 262,-221"/>
<text text-anchor="middle" x="139.5" y="-200.2" font-family="Helvetica,sans-Serif" font-size="11.00">StorageManagerService.onMoveStatusLocked</text>
</g>
<!-- m::com.android.server.StorageManagerService.onMoveStatusLocked:(I)V&#45;&gt;__field__ -->
<g id="edge2" class="edge">
<title>m::com.android.server.StorageManagerService.onMoveStatusLocked:(I)V&#45;&gt;__field__</title>
<path fill="none" stroke="#dc2626" d="M238.2,-184.99C298.07,-173.96 374.72,-159.83 436.04,-148.53"/>
<polygon fill="#dc2626" stroke="#dc2626" points="436.85,-151.23 444.21,-147.02 435.83,-145.72 436.85,-151.23"/>
<text text-anchor="middle" x="343" y="-174.8" font-family="Helvetica,sans-Serif" font-size="9.00" fill="#dc2626"> writes unguarded</text>
</g>
<!-- m::com.android.server.StorageManagerService.setPrimaryStorageUuid:(Ljava/lang/String;Landroid/content/pm/IPackageMoveObserver;)V -->
<g id="node4" class="node">
<title>m::com.android.server.StorageManagerService.setPrimaryStorageUuid:(Ljava/lang/String;Landroid/content/pm/IPackageMoveObserver;)V</title>
<path fill="#fee2e2" stroke="#dc2626" d="M267,-129C267,-129 12,-129 12,-129 6,-129 0,-123 0,-117 0,-117 0,-105 0,-105 0,-99 6,-93 12,-93 12,-93 267,-93 267,-93 273,-93 279,-99 279,-105 279,-105 279,-117 279,-117 279,-123 273,-129 267,-129"/>
<text text-anchor="middle" x="139.5" y="-108.2" font-family="Helvetica,sans-Serif" font-size="11.00">StorageManagerService.setPrimaryStorageUuid</text>
</g>
<!-- m::com.android.server.StorageManagerService.setPrimaryStorageUuid:(Ljava/lang/String;Landroid/content/pm/IPackageMoveObserver;)V&#45;&gt;__field__ -->
<g id="edge3" class="edge">
<title>m::com.android.server.StorageManagerService.setPrimaryStorageUuid:(Ljava/lang/String;Landroid/content/pm/IPackageMoveObserver;)V&#45;&gt;__field__</title>
<path fill="none" stroke="#dc2626" d="M224.25,-129.05C248.85,-133.56 275.9,-137.75 301,-140 332.54,-142.83 366.46,-143.02 398.61,-141.9"/>
<polygon fill="#dc2626" stroke="#dc2626" points="398.86,-144.69 406.75,-141.59 398.65,-139.1 398.86,-144.69"/>
<text text-anchor="middle" x="343" y="-144.8" font-family="Helvetica,sans-Serif" font-size="9.00" fill="#dc2626"> reads unguarded</text>
</g>
<!-- m::com.android.server.StorageManagerService.setPrimaryStorageUuid:(Ljava/lang/String;Landroid/content/pm/IPackageMoveObserver;)V&#45;&gt;__field__ -->
<g id="edge4" class="edge">
<title>m::com.android.server.StorageManagerService.setPrimaryStorageUuid:(Ljava/lang/String;Landroid/content/pm/IPackageMoveObserver;)V&#45;&gt;__field__</title>
<path fill="none" stroke="#dc2626" d="M279.24,-117.22C317.85,-118.95 359.87,-120.83 398.74,-122.58"/>
<polygon fill="#dc2626" stroke="#dc2626" points="398.87,-125.39 406.99,-122.95 399.12,-119.79 398.87,-125.39"/>
<text text-anchor="middle" x="343" y="-123.8" font-family="Helvetica,sans-Serif" font-size="9.00" fill="#dc2626"> reads unguarded</text>
</g>
<!-- m::com.android.server.StorageManagerService.setPrimaryStorageUuid:(Ljava/lang/String;Landroid/content/pm/IPackageMoveObserver;)V&#45;&gt;__field__ -->
<g id="edge5" class="edge">
<title>m::com.android.server.StorageManagerService.setPrimaryStorageUuid:(Ljava/lang/String;Landroid/content/pm/IPackageMoveObserver;)V&#45;&gt;__field__</title>
<path fill="none" stroke="#dc2626" d="M279.31,-100.93C313.88,-99.95 350.82,-100.19 385,-103 402.91,-104.47 421.85,-106.88 440.15,-109.64"/>
<polygon fill="#dc2626" stroke="#dc2626" points="440.17,-112.48 448.5,-110.93 441.02,-106.94 440.17,-112.48"/>
<text text-anchor="middle" x="343" y="-105.8" font-family="Helvetica,sans-Serif" font-size="9.00" fill="#dc2626"> reads unguarded</text>
</g>
<!-- m::com.android.server.StorageManagerService.setPrimaryStorageUuid:(Ljava/lang/String;Landroid/content/pm/IPackageMoveObserver;)V&#45;&gt;__field__ -->
<g id="edge6" class="edge">
<title>m::com.android.server.StorageManagerService.setPrimaryStorageUuid:(Ljava/lang/String;Landroid/content/pm/IPackageMoveObserver;)V&#45;&gt;__field__</title>
<path fill="none" stroke="#dc2626" d="M219.1,-92.96C267.11,-84.34 329.71,-77.4 385,-85 418.21,-89.57 454.29,-99.32 483.48,-108.49"/>
<polygon fill="#dc2626" stroke="#dc2626" points="482.66,-111.17 491.13,-110.93 484.36,-105.83 482.66,-111.17"/>
<text text-anchor="middle" x="343" y="-87.8" font-family="Helvetica,sans-Serif" font-size="9.00" fill="#dc2626"> reads unguarded</text>
</g>
<!-- m::com.android.server.StorageManagerService.writeSettingsLocked:()V -->
<g id="node5" class="node">
<title>m::com.android.server.StorageManagerService.writeSettingsLocked:()V</title>
<path fill="#fee2e2" stroke="#dc2626" d="M259,-36C259,-36 20,-36 20,-36 14,-36 8,-30 8,-24 8,-24 8,-12 8,-12 8,-6 14,0 20,0 20,0 259,0 259,0 265,0 271,-6 271,-12 271,-12 271,-24 271,-24 271,-30 265,-36 259,-36"/>
<text text-anchor="middle" x="139.5" y="-15.2" font-family="Helvetica,sans-Serif" font-size="11.00">StorageManagerService.writeSettingsLocked</text>
</g>
<!-- m::com.android.server.StorageManagerService.writeSettingsLocked:()V&#45;&gt;__field__ -->
<g id="edge7" class="edge">
<title>m::com.android.server.StorageManagerService.writeSettingsLocked:()V&#45;&gt;__field__</title>
<path fill="none" stroke="#dc2626" d="M255.71,-36.02C296.91,-43.66 343.42,-53.69 385,-66 423.03,-77.26 464.63,-94.17 495.45,-107.64"/>
<polygon fill="#dc2626" stroke="#dc2626" points="494.6,-110.32 503.05,-110.98 496.85,-105.2 494.6,-110.32"/>
<text text-anchor="middle" x="343" y="-68.8" font-family="Helvetica,sans-Serif" font-size="9.00" fill="#dc2626"> reads unguarded</text>
</g>
</g>
</svg>
