<?xml version="1.0" encoding="UTF-8" standalone="no"?>
<!DOCTYPE svg PUBLIC "-//W3C//DTD SVG 1.1//EN"
 "http://www.w3.org/Graphics/SVG/1.1/DTD/svg11.dtd">
<!-- Generated by graphviz version 2.43.0 (0)
 -->
<!-- Title: race Pages: 1 -->
<svg width="580pt" height="640pt"
 viewBox="0.00 0.00 580.00 640.35" xmlns="http://www.w3.org/2000/svg" xmlns:xlink="http://www.w3.org/1999/xlink">
<g id="graph0" class="graph" transform="scale(1 1) rotate(0) translate(4 636.35)">
<title>race</title>
<polygon fill="white" stroke="transparent" points="-4,4 -4,-636.35 576,-636.35 576,4 -4,4"/>
<!-- __field__ -->
<g id="node1" class="node">
<title>__field__</title>
<path fill="#fef9c3" stroke="#ca8a04" stroke-width="2" d="M560,-313.35C560,-313.35 429,-313.35 429,-313.35 423,-313.35 417,-307.35 417,-301.35 417,-301.35 417,-289.35 417,-289.35 417,-283.35 423,-277.35 429,-277.35 429,-277.35 560,-277.35 560,-277.35 566,-277.35 572,-283.35 572,-289.35 572,-289.35 572,-301.35 572,-301.35 572,-307.35 566,-313.35 560,-313.35"/>
<text text-anchor="middle" x="494.5" y="-292.55" font-family="Helvetica,sans-Serif" font-size="11.00">BlobStoreSession.mState</text>
</g>
<!-- __guard__ -->
<g id="node2" class="node">
<title>__guard__</title>
<path fill="#dcfce7" stroke="#16a34a" stroke-width="2" d="M229,-632.35C229,-632.35 60,-632.35 60,-632.35 54,-632.35 48,-626.35 48,-620.35 48,-620.35 48,-608.35 48,-608.35 48,-602.35 54,-596.35 60,-596.35 60,-596.35 229,-596.35 229,-596.35 235,-596.35 241,-602.35 241,-608.35 241,-608.35 241,-620.35 241,-620.35 241,-626.35 235,-632.35 229,-632.35"/>
<text text-anchor="middle" x="144.5" y="-611.55" font-family="Helvetica,sans-Serif" font-size="11.00">BlobStoreSession.mSessionLock</text>
</g>
<!-- __guard__&#45;&gt;__field__ -->
<g id="edge1" class="edge">
<title>__guard__&#45;&gt;__field__</title>
<path fill="none" stroke="#16a34a" stroke-width="1.6" d="M241.19,-622.61C292.1,-621.92 352.73,-612.31 395,-577.35 474.45,-511.65 489.9,-377.94 492.84,-321.46"/>
<polygon fill="#16a34a" stroke="#16a34a" stroke-width="1.6" points="495.64,-321.51 493.2,-313.39 490.05,-321.26 495.64,-321.51"/>
<text text-anchor="middle" x="353" y="-616.15" font-family="Helvetica,sans-Serif" font-size="9.00" fill="#15803d"> guards 3/4</text>
</g>
<!-- m::com.android.server.blob.BlobStoreSession.closeSession:(IZ)V -->
<g id="node3" class="node">
<title>m::com.android.server.blob.BlobStoreSession.closeSession:(IZ)V</title>
<path fill="#fee2e2" stroke="#dc2626" d="M225.5,-574.35C225.5,-574.35 63.5,-574.35 63.5,-574.35 57.5,-574.35 51.5,-568.35 51.5,-562.35 51.5,-562.35 51.5,-550.35 51.5,-550.35 51.5,-544.35 57.5,-538.35 63.5,-538.35 63.5,-538.35 225.5,-538.35 225.5,-538.35 231.5,-538.35 237.5,-544.35 237.5,-550.35 237.5,-550.35 237.5,-562.35 237.5,-562.35 237.5,-568.35 231.5,-574.35 225.5,-574.35"/>
<text text-anchor="middle" x="144.5" y="-553.55" font-family="Helvetica,sans-Serif" font-size="11.00">BlobStoreSession.closeSession</text>
</g>
<!-- m::com.android.server.blob.BlobStoreSession.closeSession:(IZ)V&#45;&gt;__field__ -->
<g id="edge2" class="edge">
<title>m::com.android.server.blob.BlobStoreSession.closeSession:(IZ)V&#45;&gt;__field__</title>
<path fill="none" stroke="#dc2626" d="M237.59,-568.31C288.6,-570.02 350.51,-563.4 395,-530.35 463.65,-479.36 484.79,-371.38 491.02,-321.55"/>
<polygon fill="#dc2626" stroke="#dc2626" points="493.82,-321.78 491.96,-313.51 488.25,-321.13 493.82,-321.78"/>
<text text-anchor="middle" x="353" y="-565.15" font-family="Helvetica,sans-Serif" font-size="9.00" fill="#dc2626"> writes unguarded</text>
</g>
<!-- m::com.android.server.blob.BlobStoreSession.closeSession:(IZ)V&#45;&gt;__field__ -->
<g id="edge6" class="edge">
<title>m::com.android.server.blob.BlobStoreSession.closeSession:(IZ)V&#45;&gt;__field__</title>
<path fill="none" stroke="#dc2626" d="M237.88,-541.22C255.07,-537.41 272.74,-532.81 289,-527.35 313.78,-519.03 376.06,-494.37 395,-476.35 442.07,-431.58 471.92,-359.26 485.3,-320.99"/>
<polygon fill="#dc2626" stroke="#dc2626" points="487.97,-321.84 487.91,-313.37 482.67,-320.03 487.97,-321.84"/>
<text text-anchor="middle" x="353" y="-521.15" font-family="Helvetica,sans-Serif" font-size="9.00" fill="#dc2626"> reads unguarded</text>
</g>
<!-- m::com.android.server.blob.BlobStoreSession.allowPackageAccess:(Ljava/lang/String;[B)V -->
<g id="node4" class="node">
<title>m::com.android.server.blob.BlobStoreSession.allowPackageAccess:(Ljava/lang/String;[B)V</title>
<path fill="#fee2e2" stroke="#dc2626" d="M246,-516.35C246,-516.35 43,-516.35 43,-516.35 37,-516.35 31,-510.35 31,-504.35 31,-504.35 31,-492.35 31,-492.35 31,-486.35 37,-480.35 43,-480.35 43,-480.35 246,-480.35 246,-480.35 252,-480.35 258,-486.35 258,-492.35 258,-492.35 258,-504.35 258,-504.35 258,-510.35 252,-516.35 246,-516.35"/>
<text text-anchor="middle" x="144.5" y="-495.55" font-family="Helvetica,sans-Serif" font-size="11.00">BlobStoreSession.allowPackageAccess</text>
</g>
<!-- m::com.android.server.blob.BlobStoreSession.allowPackageAccess:(Ljava/lang/String;[B)V&#45;&gt;__field__ -->
<g id="edge3" class="edge">
<title>m::com.android.server.blob.BlobStoreSession.allowPackageAccess:(Ljava/lang/String;[B)V&#45;&gt;__field__</title>
<path fill="none" stroke="#dc2626" d="M256.31,-480.35C302.87,-468.49 355.32,-449.04 395,-417.35 429.95,-389.44 460.62,-347.1 478.1,-320.35"/>
<polygon fill="#dc2626" stroke="#dc2626" points="480.48,-321.82 482.46,-313.57 475.78,-318.78 480.48,-321.82"/>
<text text-anchor="middle" x="353" y="-464.15" font-family="Helvetica,sans-Serif" font-size="9.00" fill="#dc2626"> reads unguarded</text>
</g>
<!-- m::com.android.server.blob.BlobStoreSession.allowPublicAccess:()V -->
<g id="node5" class="node">
<title>m::com.android.server.blob.BlobStoreSession.allowPublicAccess:()V</title>
<path fill="#fee2e2" stroke="#dc2626" d="M240,-458.35C240,-458.35 49,-458.35 49,-458.35 43,-458.35 37,-452.35 37,-446.35 37,-446.35 37,-434.35 37,-434.35 37,-428.35 43,-422.35 49,-422.35 49,-422.35 240,-422.35 240,-422.35 246,-422.35 252,-428.35 252,-434.35 252,-434.35 252,-446.35 252,-446.35 252,-452.35 246,-458.35 240,-458.35"/>
<text text-anchor="middle" x="144.5" y="-437.55" font-family="Helvetica,sans-Serif" font-size="11.00">BlobStoreSession.allowPublicAccess</text>
</g>
<!-- m::com.android.server.blob.BlobStoreSession.allowPublicAccess:()V&#45;&gt;__field__ -->
<g id="edge4" class="edge">
<title>m::com.android.server.blob.BlobStoreSession.allowPublicAccess:()V&#45;&gt;__field__</title>
<path fill="none" stroke="#dc2626" d="M249.71,-422.29C263.06,-419.1 276.44,-415.46 289,-411.35 338.33,-395.21 349.83,-387.92 395,-362.35 418.4,-349.1 443.44,-332.03 462.42,-318.43"/>
<polygon fill="#dc2626" stroke="#dc2626" points="464.28,-320.55 469.12,-313.59 461,-316.01 464.28,-320.55"/>
<text text-anchor="middle" x="353" y="-405.15" font-family="Helvetica,sans-Serif" font-size="9.00" fill="#dc2626"> reads unguarded</text>
</g>
<!-- m::com.android.server.blob.BlobStoreSession.allowSameSignatureAccess:()V -->
<g id="node6" class="node">
<title>m::com.android.server.blob.BlobStoreSession.allowSameSignatureAccess:()V</title>
<path fill="#fee2e2" stroke="#dc2626" d="M265.5,-400.35C265.5,-400.35 23.5,-400.35 23.5,-400.35 17.5,-400.35 11.5,-394.35 11.5,-388.35 11.5,-388.35 11.5,-376.35 11.5,-376.35 11.5,-370.35 17.5,-364.35 23.5,-364.35 23.5,-364.35 265.5,-364.35 265.5,-364.35 271.5,-364.35 277.5,-370.35 277.5,-376.35 277.5,-376.35 277.5,-388.35 277.5,-388.35 277.5,-394.35 271.5,-400.35 265.5,-400.35"/>
<text text-anchor="middle" x="144.5" y="-379.55" font-family="Helvetica,sans-Serif" font-size="11.00">BlobStoreSession.allowSameSignatureAccess</text>
</g>
<!-- m::com.android.server.blob.BlobStoreSession.allowSameSignatureAccess:()V&#45;&gt;__field__ -->
<g id="edge5" class="edge">
<title>m::com.android.server.blob.BlobStoreSession.allowSameSignatureAccess:()V&#45;&gt;__field__</title>
<path fill="none" stroke="#dc2626" d="M239.49,-364.31C256.03,-360.86 273.05,-357.14 289,-353.35 336.52,-342.07 348.02,-337.7 395,-324.35 404.77,-321.58 415.07,-318.6 425.18,-315.65"/>
<polygon fill="#dc2626" stroke="#dc2626" points="425.97,-318.34 432.86,-313.41 424.4,-312.96 425.97,-318.34"/>
<text text-anchor="middle" x="353" y="-350.15" font-family="Helvetica,sans-Serif" font-size="9.00" fill="#dc2626"> reads unguarded</text>
</g>
<!-- m::com.android.server.blob.BlobStoreSession.isPackageAccessAllowed:(Ljava/lang/String;[B)Z -->
<g id="node7" class="node">
<title>m::com.android.server.blob.BlobStoreSession.isPackageAccessAllowed:(Ljava/lang/String;[B)Z</title>
<path fill="#fee2e2" stroke="#dc2626" d="M258,-342.35C258,-342.35 31,-342.35 31,-342.35 25,-342.35 19,-336.35 19,-330.35 19,-330.35 19,-318.35 19,-318.35 19,-312.35 25,-306.35 31,-306.35 31,-306.35 258,-306.35 258,-306.35 264,-306.35 270,-312.35 270,-318.35 270,-318.35 270,-330.35 270,-330.35 270,-336.35 264,-342.35 258,-342.35"/>
<text text-anchor="middle" x="144.5" y="-321.55" font-family="Helvetica,sans-Serif" font-size="11.00">BlobStoreSession.isPackageAccessAllowed</text>
</g>
<!-- m::com.android.server.blob.BlobStoreSession.isPackageAccessAllowed:(Ljava/lang/String;[B)Z&#45;&gt;__field__ -->
<g id="edge7" class="edge">
<title>m::com.android.server.blob.BlobStoreSession.isPackageAccessAllowed:(Ljava/lang/String;[B)Z&#45;&gt;__field__</title>
<path fill="none" stroke="#dc2626" d="M270.15,-313.97C316.14,-310.13 367.13,-305.88 408.78,-302.41"/>
<polygon fill="#dc2626" stroke="#dc2626" points="409.23,-305.19 416.97,-301.73 408.77,-299.6 409.23,-305.19"/>
<text text-anchor="middle" x="353" y="-312.15" font-family="Helvetica,sans-Serif" font-size="9.00" fill="#dc2626"> reads unguarded</text>
</g>
<!-- m::com.android.server.blob.BlobStoreSession.isPublicAccessAllowed:()Z -->
<g id="node8" class="node">
<title>m::com.android.server.blob.BlobStoreSession.isPublicAccessAllowed:()Z</title>
<path fill="#fee2e2" stroke="#dc2626" d="M251.5,-284.35C251.5,-284.35 37.5,-284.35 37.5,-284.35 31.5,-284.35 25.5,-278.35 25.5,-272.35 25.5,-272.35 25.5,-260.35 25.5,-260.35 25.5,-254.35 31.5,-248.35 37.5,-248.35 37.5,-248.35 251.5,-248.35 251.5,-248.35 257.5,-248.35 263.5,-254.35 263.5,-260.35 263.5,-260.35 263.5,-272.35 263.5,-272.35 263.5,-278.35 257.5,-284.35 251.5,-284.35"/>
<text text-anchor="middle" x="144.5" y="-263.55" font-family="Helvetica,sans-Serif" font-size="11.00">BlobStoreSession.isPublicAccessAllowed</text>
</g>
<!-- m::com.android.server.blob.BlobStoreSession.isPublicAccessAllowed:()Z&#45;&gt;__field__ -->
<g id="edge8" class="edge">
<title>m::com.android.server.blob.BlobStoreSession.isPublicAccessAllowed:()Z&#45;&gt;__field__</title>
<path fill="none" stroke="#dc2626" d="M263.8,-276.21C311.38,-280.18 365.17,-284.66 408.73,-288.29"/>
<polygon fill="#dc2626" stroke="#dc2626" points="408.54,-291.08 416.75,-288.96 409.01,-285.5 408.54,-291.08"/>
<text text-anchor="middle" x="353" y="-289.15" font-family="Helvetica,sans-Serif" font-size="9.00" fill="#dc2626"> reads unguarded</text>
</g>
<!-- m::com.android.server.blob.BlobStoreSession.isSameSignatureAccessAllowed:()Z -->
<g id="node9" class="node">
<title>m::com.android.server.blob.BlobStoreSession.isSameSignatureAccessAllowed:()Z</title>
<path fill="#fee2e2" stroke="#dc2626" d="M277,-226.35C277,-226.35 12,-226.35 12,-226.35 6,-226.35 0,-220.35 0,-214.35 0,-214.35 0,-202.35 0,-202.35 0,-196.35 6,-190.35 12,-190.35 12,-190.35 277,-190.35 277,-190.35 283,-190.35 289,-196.35 289,-202.35 289,-202.35 289,-214.35 289,-214.35 289,-220.35 283,-226.35 277,-226.35"/>
<text text-anchor="middle" x="144.5" y="-205.55" font-family="Helvetica,sans-Serif" font-size="11.00">BlobStoreSession.isSameSignatureAccessAllowed</text>
</g>
<!-- m::com.android.server.blob.BlobStoreSession.isSameSignatureAccessAllowed:()Z&#45;&gt;__field__ -->
<g id="edge9" class="edge">
<title>m::com.android.server.blob.BlobStoreSession.isSameSignatureAccessAllowed:()Z&#45;&gt;__field__</title>
<path fill="none" stroke="#dc2626" d="M238.69,-226.36C255.47,-229.83 272.79,-233.58 289,-237.35 336.46,-248.41 348.13,-252.03 395,-265.35 405.59,-268.36 416.77,-271.66 427.67,-274.93"/>
<polygon fill="#dc2626" stroke="#dc2626" points="427.06,-277.67 435.53,-277.3 428.68,-272.31 427.06,-277.67"/>
<text text-anchor="middle" x="353" y="-268.15" font-family="Helvetica,sans-Serif" font-size="9.00" fill="#dc2626"> reads unguarded</text>
</g>
<!-- m::com.android.server.blob.BlobStoreSession.open:()V -->
<g id="node10" class="node">
<title>m::com.android.server.blob.BlobStoreSession.open:()V</title>
<path fill="#fee2e2" stroke="#dc2626" d="M204,-168.35C204,-168.35 85,-168.35 85,-168.35 79,-168.35 73,-162.35 73,-156.35 73,-156.35 73,-144.35 73,-144.35 73,-138.35 79,-132.35 85,-132.35 85,-132.35 204,-132.35 204,-132.35 210,-132.35 216,-138.35 216,-144.35 216,-144.35 216,-156.35 216,-156.35 216,-162.35 210,-168.35 204,-168.35"/>
<text text-anchor="middle" x="144.5" y="-147.55" font-family="Helvetica,sans-Serif" font-size="11.00">BlobStoreSession.open</text>
</g>
<!-- m::com.android.server.blob.BlobStoreSession.open:()V&#45;&gt;__field__ -->
<g id="edge10" class="edge">
<title>m::com.android.server.blob.BlobStoreSession.open:()V&#45;&gt;__field__</title>
<path fill="none" stroke="#dc2626" d="M216.02,-161.32C239.52,-165.84 265.66,-171.82 289,-179.35 338.21,-195.24 349.98,-201.89 395,-227.35 418.84,-240.84 444.25,-258.46 463.28,-272.39"/>
<polygon fill="#dc2626" stroke="#dc2626" points="461.89,-274.85 469.99,-277.34 465.22,-270.34 461.89,-274.85"/>
<text text-anchor="middle" x="353" y="-230.15" font-family="Helvetica,sans-Serif" font-size="9.00" fill="#dc2626"> reads unguarded</text>
</g>
<!-- m::com.android.server.blob.BlobStoreSession.openRead:()Landroid/os/ParcelFileDescriptor; -->
<g id="node11" class="node">
<title>m::com.android.server.blob.BlobStoreSession.openRead:()Landroid/os/ParcelFileDescriptor;</title>
<path fill="#fee2e2" stroke="#dc2626" d="M217.5,-110.35C217.5,-110.35 71.5,-110.35 71.5,-110.35 65.5,-110.35 59.5,-104.35 59.5,-98.35 59.5,-98.35 59.5,-86.35 59.5,-86.35 59.5,-80.35 65.5,-74.35 71.5,-74.35 71.5,-74.35 217.5,-74.35 217.5,-74.35 223.5,-74.35 229.5,-80.35 229.5,-86.35 229.5,-86.35 229.5,-98.35 229.5,-98.35 229.5,-104.35 223.5,-110.35 217.5,-110.35"/>
<text text-anchor="middle" x="144.5" y="-89.55" font-family="Helvetica,sans-Serif" font-size="11.00">BlobStoreSession.openRead</text>
</g>
<!-- m::com.android.server.blob.BlobStoreSession.openRead:()Landroid/os/ParcelFileDescriptor;&#45;&gt;__field__ -->
<g id="edge11" class="edge">
<title>m::com.android.server.blob.BlobStoreSession.openRead:()Landroid/os/ParcelFileDescriptor;&#45;&gt;__field__</title>
<path fill="none" stroke="#dc2626" d="M229.56,-103.43C281.65,-113.82 347.46,-133.68 395,-171.35 430.6,-199.57 461.28,-243.02 478.56,-270.28"/>
<polygon fill="#dc2626" stroke="#dc2626" points="476.26,-271.88 482.87,-277.18 481.01,-268.91 476.26,-271.88"/>
<text text-anchor="middle" x="353" y="-174.15" font-family="Helvetica,sans-Serif" font-size="9.00" fill="#dc2626"> reads unguarded</text>
</g>
<!-- m::com.android.server.blob.BlobStoreSession.openRead:()Landroid/os/ParcelFileDescriptor;&#45;&gt;__field__ -->
<g id="edge12" class="edge">
<title>m::com.android.server.blob.BlobStoreSession.openRead:()Landroid/os/ParcelFileDescriptor;&#45;&gt;__field__</title>
<path fill="none" stroke="#dc2626" d="M229.71,-79.43C281.39,-75.92 346.69,-79.86 395,-111.35 451.23,-148 477.66,-227.95 487.97,-269.35"/>
<polygon fill="#dc2626" stroke="#dc2626" points="485.3,-270.2 489.88,-277.33 490.74,-268.9 485.3,-270.2"/>
<text text-anchor="middle" x="353" y="-114.15" font-family="Helvetica,sans-Serif" font-size="9.00" fill="#dc2626"> reads unguarded</text>
</g>
<!-- m::com.android.server.blob.BlobStoreSession.openWrite:(JJ)Landroid/os/ParcelFileDescriptor; -->
<g id="node12" class="node">
<title>m::com.android.server.blob.BlobStoreSession.openWrite:(JJ)Landroid/os/ParcelFileDescriptor;</title>
<path fill="#fee2e2" stroke="#dc2626" d="M218.5,-49.35C218.5,-49.35 70.5,-49.35 70.5,-49.35 64.5,-49.35 58.5,-43.35 58.5,-37.35 58.5,-37.35 58.5,-25.35 58.5,-25.35 58.5,-19.35 64.5,-13.35 70.5,-13.35 70.5,-13.35 218.5,-13.35 218.5,-13.35 224.5,-13.35 230.5,-19.35 230.5,-25.35 230.5,-25.35 230.5,-37.35 230.5,-37.35 230.5,-43.35 224.5,-49.35 218.5,-49.35"/>
<text text-anchor="middle" x="144.5" y="-28.55" font-family="Helvetica,sans-Serif" font-size="11.00">BlobStoreSession.openWrite</text>
</g>
<!-- m::com.android.server.blob.BlobStoreSession.openWrite:(JJ)Landroid/os/ParcelFileDescriptor;&#45;&gt;__field__ -->
<g id="edge13" class="edge">
<title>m::com.android.server.blob.BlobStoreSession.openWrite:(JJ)Landroid/os/ParcelFileDescriptor;&#45;&gt;__field__</title>
<path fill="none" stroke="#dc2626" d="M230.69,-34.5C292.57,-38.38 369.71,-47.05 395,-66.35 461.04,-116.77 483.43,-220.35 490.49,-269.01"/>
<polygon fill="#dc2626" stroke="#dc2626" points="487.75,-269.61 491.6,-277.15 493.3,-268.85 487.75,-269.61"/>
<text text-anchor="middle" x="353" y="-69.15" font-family="Helvetica,sans-Serif" font-size="9.00" fill="#dc2626"> reads unguarded</text>
</g>
<!-- m::com.android.server.blob.BlobStoreSession.openWrite:(JJ)Landroid/os/ParcelFileDescriptor;&#45;&gt;__field__ -->
<g id="edge14" class="edge">
<title>m::com.android.server.blob.BlobStoreSession.openWrite:(JJ)Landroid/os/ParcelFileDescriptor;&#45;&gt;__field__</title>
<path fill="none" stroke="#dc2626" d="M200.46,-13.35C254.91,0.83 338.16,12.31 395,-27.35 475.45,-83.5 490.38,-213.01 493.01,-268.89"/>
<polygon fill="#dc2626" stroke="#dc2626" points="490.23,-269.32 493.34,-277.21 495.82,-269.1 490.23,-269.32"/>
<text text-anchor="middle" x="353" y="-30.15" font-family="Helvetica,sans-Serif" font-size="9.00" fill="#dc2626"> reads unguarded</text>
</g>
</g>
</svg>
