<?xml version="1.0" encoding="UTF-8" standalone="no"?>
<!DOCTYPE svg PUBLIC "-//W3C//DTD SVG 1.1//EN"
 "http://www.w3.org/Graphics/SVG/1.1/DTD/svg11.dtd">
<!-- Generated by graphviz version 2.43.0 (0)
 -->
<!-- Title: race Pages: 1 -->
<svg width="667pt" height="102pt"
 viewBox="0.00 0.00 667.00 102.00" xmlns="http://www.w3.org/2000/svg" xmlns:xlink="http://www.w3.org/1999/xlink">
<g id="graph0" class="graph" transform="scale(1 1) rotate(0) translate(4 98)">
<title>race</title>
<polygon fill="white" stroke="transparent" points="-4,4 -4,-98 663,-98 663,4 -4,4"/>
<!-- __field__ -->
<g id="node1" class="node">
<title>__field__</title>
<path fill="#fef9c3" stroke="#ca8a04" stroke-width="2" d="M647,-65C647,-65 394,-65 394,-65 388,-65 382,-59 382,-53 382,-53 382,-41 382,-41 382,-35 388,-29 394,-29 394,-29 647,-29 647,-29 653,-29 659,-35 659,-41 659,-41 659,-53 659,-53 659,-59 653,-65 647,-65"/>
<text text-anchor="middle" x="520.5" y="-44.2" font-family="Helvetica,sans-Serif" font-size="11.00">DefaultNetworkMetrics.mLastValidationTimeMs</text>
</g>
<!-- __guard__ -->
<g id="node2" class="node">
<title>__guard__</title>
<path fill="#dcfce7" stroke="#16a34a" stroke-width="2" d="M221,-94C221,-94 33,-94 33,-94 27,-94 21,-88 21,-82 21,-82 21,-70 21,-70 21,-64 27,-58 33,-58 33,-58 221,-58 221,-58 227,-58 233,-64 233,-70 233,-70 233,-82 233,-82 233,-88 227,-94 221,-94"/>
<text text-anchor="middle" x="127" y="-73.2" font-family="Helvetica,sans-Serif" font-size="11.00">connectivity.DefaultNetworkMetrics</text>
</g>
<!-- __guard__&#45;&gt;__field__ -->
<g id="edge1" class="edge">
<title>__guard__&#45;&gt;__field__</title>
<path fill="none" stroke="#16a34a" stroke-width="1.6" d="M233.17,-68.21C276.31,-65.01 326.99,-61.26 373.61,-57.81"/>
<polygon fill="#16a34a" stroke="#16a34a" stroke-width="1.6" points="373.89,-60.59 381.66,-57.21 373.48,-55.01 373.89,-60.59"/>
<text text-anchor="middle" x="318" y="-66.8" font-family="Helvetica,sans-Serif" font-size="9.00" fill="#15803d"> guards 2/3</text>
</g>
<!-- m::com.android.server.connectivity.DefaultNetworkMetrics.newDefaultNetwork:(JLandroid/net/Network;IZLandroid/net/LinkProperties;Landroid/net/NetworkCapabilities;)V -->
<g id="node3" class="node">
<title>m::com.android.server.connectivity.DefaultNetworkMetrics.newDefaultNetwork:(JLandroid/net/Network;IZLandroid/net/LinkProperties;Landroid/net/NetworkCapabilities;)V</title>
<path fill="#fee2e2" stroke="#dc2626" d="M242,-36C242,-36 12,-36 12,-36 6,-36 0,-30 0,-24 0,-24 0,-12 0,-12 0,-6 6,0 12,0 12,0 242,0 242,0 248,0 254,-6 254,-12 254,-12 254,-24 254,-24 254,-30 248,-36 242,-36"/>
<text text-anchor="middle" x="127" y="-15.2" font-family="Helvetica,sans-Serif" font-size="11.00">DefaultNetworkMetrics.newDefaultNetwork</text>
</g>
<!-- m::com.android.server.connectivity.DefaultNetworkMetrics.newDefaultNetwork:(JLandroid/net/Network;IZLandroid/net/LinkProperties;Landroid/net/NetworkCapabilities;)V&#45;&gt;__field__ -->
<g id="edge2" class="edge">
<title>m::com.android.server.connectivity.DefaultNetworkMetrics.newDefaultNetwork:(JLandroid/net/Network;IZLandroid/net/LinkProperties;Landroid/net/NetworkCapabilities;)V&#45;&gt;__field__</title>
<path fill="none" stroke="#dc2626" d="M254.03,-27.34C292.11,-30.16 334.25,-33.28 373.52,-36.19"/>
<polygon fill="#dc2626" stroke="#dc2626" points="373.67,-39.01 381.86,-36.8 374.09,-33.42 373.67,-39.01"/>
<text text-anchor="middle" x="318" y="-37.8" font-family="Helvetica,sans-Serif" font-size="9.00" fill="#dc2626"> writes unguarded</text>
</g>
</g>
</svg>
