<?xml version="1.0" encoding="UTF-8" standalone="no"?>
<!DOCTYPE svg PUBLIC "-//W3C//DTD SVG 1.1//EN"
 "http://www.w3.org/Graphics/SVG/1.1/DTD/svg11.dtd">
<!-- Generated by graphviz version 2.43.0 (0)
 -->
<!-- Title: race Pages: 1 -->
<svg width="932pt" height="300pt"
 viewBox="0.00 0.00 932.00 300.00" xmlns="http://www.w3.org/2000/svg" xmlns:xlink="http://www.w3.org/1999/xlink">
<g id="graph0" class="graph" transform="scale(1 1) rotate(0) translate(4 296)">
<title>race</title>
<polygon fill="white" stroke="transparent" points="-4,4 -4,-296 928,-296 928,4 -4,4"/>
<!-- __field__ -->
<g id="node1" class="node">
<title>__field__</title>
<path fill="#fef9c3" stroke="#ca8a04" stroke-width="2" d="M912,-147C912,-147 701,-147 701,-147 695,-147 689,-141 689,-135 689,-135 689,-123 689,-123 689,-117 695,-111 701,-111 701,-111 912,-111 912,-111 918,-111 924,-117 924,-123 924,-123 924,-135 924,-135 924,-141 918,-147 912,-147"/>
<text text-anchor="middle" x="806.5" y="-126.2" font-family="Helvetica,sans-Serif" font-size="11.00">ActiveAdmin.disabledKeyguardFeatures</text>
</g>
<!-- __guard__ -->
<g id="node2" class="node">
<title>__guard__</title>
<path fill="#dcfce7" stroke="#16a34a" stroke-width="2" d="M422,-292C422,-292 139,-292 139,-292 133,-292 127,-286 127,-280 127,-280 127,-268 127,-268 127,-262 133,-256 139,-256 139,-256 422,-256 422,-256 428,-256 434,-262 434,-268 434,-268 434,-280 434,-280 434,-286 428,-292 422,-292"/>
<text text-anchor="middle" x="280.5" y="-271.2" font-family="Helvetica,sans-Serif" font-size="11.00">DevicePolicyManagerService.mLockDoNoUseDirectly</text>
</g>
<!-- __guard__&#45;&gt;__field__ -->
<g id="edge1" class="edge">
<title>__guard__&#45;&gt;__field__</title>
<path fill="none" stroke="#16a34a" stroke-width="1.6" d="M434.35,-267.08C475.93,-262.79 520.62,-255.93 561,-245 610.92,-231.49 620.23,-219.07 667,-197 699,-181.9 734.85,-164.28 762.05,-150.76"/>
<polygon fill="#16a34a" stroke="#16a34a" stroke-width="1.6" points="763.57,-153.13 769.49,-147.06 761.08,-148.12 763.57,-153.13"/>
<text text-anchor="middle" x="625" y="-239.8" font-family="Helvetica,sans-Serif" font-size="9.00" fill="#15803d"> guards 2/3</text>
</g>
<!-- m::com.android.server.devicepolicy.ActiveAdmin.readFromXml:(Lcom/android/modules/utils/TypedXmlPullParser;Z)V -->
<g id="node3" class="node">
<title>m::com.android.server.devicepolicy.ActiveAdmin.readFromXml:(Lcom/android/modules/utils/TypedXmlPullParser;Z)V</title>
<path fill="#fee2e2" stroke="#dc2626" d="M349.5,-234C349.5,-234 211.5,-234 211.5,-234 205.5,-234 199.5,-228 199.5,-222 199.5,-222 199.5,-210 199.5,-210 199.5,-204 205.5,-198 211.5,-198 211.5,-198 349.5,-198 349.5,-198 355.5,-198 361.5,-204 361.5,-210 361.5,-210 361.5,-222 361.5,-222 361.5,-228 355.5,-234 349.5,-234"/>
<text text-anchor="middle" x="280.5" y="-213.2" font-family="Helvetica,sans-Serif" font-size="11.00">ActiveAdmin.readFromXml</text>
</g>
<!-- m::com.android.server.devicepolicy.ActiveAdmin.readFromXml:(Lcom/android/modules/utils/TypedXmlPullParser;Z)V&#45;&gt;__field__ -->
<g id="edge2" class="edge">
<title>m::com.android.server.devicepolicy.ActiveAdmin.readFromXml:(Lcom/android/modules/utils/TypedXmlPullParser;Z)V&#45;&gt;__field__</title>
<path fill="none" stroke="#dc2626" d="M361.69,-210.45C417.77,-205.9 494.27,-198.33 561,-187 618.96,-177.16 683.64,-161.61 731.91,-149.09"/>
<polygon fill="#dc2626" stroke="#dc2626" points="732.78,-151.75 739.82,-147.03 731.37,-146.34 732.78,-151.75"/>
<text text-anchor="middle" x="625" y="-184.8" font-family="Helvetica,sans-Serif" font-size="9.00" fill="#dc2626"> writes unguarded</text>
</g>
<!-- m::com.android.server.devicepolicy.ActiveAdmin.writeToXml:(Lcom/android/modules/utils/TypedXmlSerializer;)V -->
<g id="node4" class="node">
<title>m::com.android.server.devicepolicy.ActiveAdmin.writeToXml:(Lcom/android/modules/utils/TypedXmlSerializer;)V</title>
<path fill="#fee2e2" stroke="#dc2626" d="M343,-176C343,-176 218,-176 218,-176 212,-176 206,-170 206,-164 206,-164 206,-152 206,-152 206,-146 212,-140 218,-140 218,-140 343,-140 343,-140 349,-140 355,-146 355,-152 355,-152 355,-164 355,-164 355,-170 349,-176 343,-176"/>
<text text-anchor="middle" x="280.5" y="-155.2" font-family="Helvetica,sans-Serif" font-size="11.00">ActiveAdmin.writeToXml</text>
</g>
<!-- m::com.android.server.devicepolicy.ActiveAdmin.writeToXml:(Lcom/android/modules/utils/TypedXmlSerializer;)V&#45;&gt;__field__ -->
<g id="edge3" class="edge">
<title>m::com.android.server.devicepolicy.ActiveAdmin.writeToXml:(Lcom/android/modules/utils/TypedXmlSerializer;)V&#45;&gt;__field__</title>
<path fill="none" stroke="#dc2626" d="M355.08,-155.28C432.69,-152.24 558.51,-146.84 667,-140 671.44,-139.72 675.96,-139.42 680.52,-139.11"/>
<polygon fill="#dc2626" stroke="#dc2626" points="680.98,-141.89 688.77,-138.54 680.6,-136.3 680.98,-141.89"/>
<text text-anchor="middle" x="625" y="-146.8" font-family="Helvetica,sans-Serif" font-size="9.00" fill="#dc2626"> reads unguarded</text>
</g>
<!-- m::com.android.server.devicepolicy.DevicePolicyManagerService.getKeyguardDisabledFeatures:(Landroid/content/ComponentName;IZ)I -->
<g id="node5" class="node">
<title>m::com.android.server.devicepolicy.DevicePolicyManagerService.getKeyguardDisabledFeatures:(Landroid/content/ComponentName;IZ)I</title>
<path fill="#fee2e2" stroke="#dc2626" d="M440,-110C440,-110 121,-110 121,-110 115,-110 109,-104 109,-98 109,-98 109,-86 109,-86 109,-80 115,-74 121,-74 121,-74 440,-74 440,-74 446,-74 452,-80 452,-86 452,-86 452,-98 452,-98 452,-104 446,-110 440,-110"/>
<text text-anchor="middle" x="280.5" y="-89.2" font-family="Helvetica,sans-Serif" font-size="11.00">DevicePolicyManagerService.getKeyguardDisabledFeatures</text>
</g>
<!-- m::com.android.server.devicepolicy.DevicePolicyManagerService.getKeyguardDisabledFeatures:(Landroid/content/ComponentName;IZ)I&#45;&gt;__field__ -->
<g id="edge4" class="edge">
<title>m::com.android.server.devicepolicy.DevicePolicyManagerService.getKeyguardDisabledFeatures:(Landroid/content/ComponentName;IZ)I&#45;&gt;__field__</title>
<path fill="none" stroke="#dc2626" d="M452.35,-104.06C526.68,-109.31 612.2,-115.35 680.46,-120.17"/>
<polygon fill="#dc2626" stroke="#dc2626" points="680.52,-122.98 688.69,-120.75 680.91,-117.4 680.52,-122.98"/>
<text text-anchor="middle" x="625" y="-121.8" font-family="Helvetica,sans-Serif" font-size="9.00" fill="#dc2626"> reads unguarded</text>
</g>
<!-- m::com.android.server.devicepolicy.DevicePolicyManagerService.getKeyguardDisabledFeatures:(Landroid/content/ComponentName;IZ)I&#45;&gt;__field__ -->
<g id="edge5" class="edge">
<title>m::com.android.server.devicepolicy.DevicePolicyManagerService.getKeyguardDisabledFeatures:(Landroid/content/ComponentName;IZ)I&#45;&gt;__field__</title>
<path fill="none" stroke="#dc2626" d="M452.32,-87.17C519.44,-87.23 597.04,-89.71 667,-98 687.63,-100.44 709.69,-104.64 730.01,-109.17"/>
<polygon fill="#dc2626" stroke="#dc2626" points="729.58,-111.94 738,-110.99 730.82,-106.48 729.58,-111.94"/>
<text text-anchor="middle" x="625" y="-100.8" font-family="Helvetica,sans-Serif" font-size="9.00" fill="#dc2626"> reads unguarded</text>
</g>
<!-- m::com.android.server.devicepolicy.DevicePolicyManagerService.getKeyguardDisabledFeatures:(Landroid/content/ComponentName;IZ)I&#45;&gt;__field__ -->
<g id="edge6" class="edge">
<title>m::com.android.server.devicepolicy.DevicePolicyManagerService.getKeyguardDisabledFeatures:(Landroid/content/ComponentName;IZ)I&#45;&gt;__field__</title>
<path fill="none" stroke="#dc2626" d="M395.88,-73.98C473.08,-65.06 576.92,-59.35 667,-76 699.98,-82.09 735.25,-95.71 761.95,-107.61"/>
<polygon fill="#dc2626" stroke="#dc2626" points="760.8,-110.16 769.24,-110.92 763.11,-105.06 760.8,-110.16"/>
<text text-anchor="middle" x="625" y="-78.8" font-family="Helvetica,sans-Serif" font-size="9.00" fill="#dc2626"> reads unguarded</text>
</g>
<!-- m::com.android.server.devicepolicy.DevicePolicyManagerService.getTrustAgentConfigurationPreKeyguardDisabledFeaturesCoexistence:(Landroid/content/ComponentName;Landroid/content/ComponentName;IZ)Ljava/util/List; -->
<g id="node6" class="node">
<title>m::com.android.server.devicepolicy.DevicePolicyManagerService.getTrustAgentConfigurationPreKeyguardDisabledFeaturesCoexistence:(Landroid/content/ComponentName;Landroid/content/ComponentName;IZ)Ljava/util/List;</title>
<path fill="#fee2e2" stroke="#dc2626" d="M549,-36C549,-36 12,-36 12,-36 6,-36 0,-30 0,-24 0,-24 0,-12 0,-12 0,-6 6,0 12,0 12,0 549,0 549,0 555,0 561,-6 561,-12 561,-12 561,-24 561,-24 561,-30 555,-36 549,-36"/>
<text text-anchor="middle" x="280.5" y="-15.2" font-family="Helvetica,sans-Serif" font-size="11.00">DevicePolicyManagerService.getTrustAgentConfigurationPreKeyguardDisabledFeaturesCoexistence</text>
</g>
<!-- m::com.android.server.devicepolicy.DevicePolicyManagerService.getTrustAgentConfigurationPreKeyguardDisabledFeaturesCoexistence:(Landroid/content/ComponentName;Landroid/content/ComponentName;IZ)Ljava/util/List;&#45;&gt;__field__ -->
<g id="edge7" class="edge">
<title>m::com.android.server.devicepolicy.DevicePolicyManagerService.getTrustAgentConfigurationPreKeyguardDisabledFeaturesCoexistence:(Landroid/content/ComponentName;Landroid/content/ComponentName;IZ)Ljava/util/List;&#45;&gt;__field__</title>
<path fill="none" stroke="#dc2626" d="M561.13,-27.7C597.21,-33.09 633.3,-40.61 667,-51 706.46,-63.17 747.11,-87.76 774.07,-106.09"/>
<polygon fill="#dc2626" stroke="#dc2626" points="772.79,-108.61 780.96,-110.85 775.97,-104 772.79,-108.61"/>
<text text-anchor="middle" x="625" y="-53.8" font-family="Helvetica,sans-Serif" font-size="9.00" fill="#dc2626"> reads unguarded</text>
</g>
</g>
</svg>
