<?xml version="1.0" encoding="UTF-8" standalone="no"?>
<!DOCTYPE svg PUBLIC "-//W3C//DTD SVG 1.1//EN"
 "http://www.w3.org/Graphics/SVG/1.1/DTD/svg11.dtd">
<!-- Generated by graphviz version 2.43.0 (0)
 -->
<!-- Title: race Pages: 1 -->
<svg width="874pt" height="102pt"
 viewBox="0.00 0.00 874.00 102.00" xmlns="http://www.w3.org/2000/svg" xmlns:xlink="http://www.w3.org/1999/xlink">
<g id="graph0" class="graph" transform="scale(1 1) rotate(0) translate(4 98)">
<title>race</title>
<polygon fill="white" stroke="transparent" points="-4,4 -4,-98 870,-98 870,4 -4,4"/>
<!-- __field__ -->
<g id="node1" class="node">
<title>__field__</title>
<path fill="#fef9c3" stroke="#ca8a04" stroke-width="2" d="M854,-65C854,-65 484,-65 484,-65 478,-65 472,-59 472,-53 472,-53 472,-41 472,-41 472,-35 478,-29 484,-29 484,-29 854,-29 854,-29 860,-29 866,-35 866,-41 866,-41 866,-53 866,-53 866,-59 860,-65 854,-65"/>
<text text-anchor="middle" x="669" y="-44.2" font-family="Helvetica,sans-Serif" font-size="11.00">Session$AssistDataReceiverImpl.mPendingInlineSuggestionsRequest</text>
</g>
<!-- __guard__ -->
<g id="node2" class="node">
<title>__guard__</title>
<path fill="#dcfce7" stroke="#16a34a" stroke-width="2" d="M273.5,-94C273.5,-94 70.5,-94 70.5,-94 64.5,-94 58.5,-88 58.5,-82 58.5,-82 58.5,-70 58.5,-70 58.5,-64 64.5,-58 70.5,-58 70.5,-58 273.5,-58 273.5,-58 279.5,-58 285.5,-64 285.5,-70 285.5,-70 285.5,-82 285.5,-82 285.5,-88 279.5,-94 273.5,-94"/>
<text text-anchor="middle" x="172" y="-73.2" font-family="Helvetica,sans-Serif" font-size="11.00">AbstractPerUserSystemService.mLock</text>
</g>
<!-- __guard__&#45;&gt;__field__ -->
<g id="edge1" class="edge">
<title>__guard__&#45;&gt;__field__</title>
<path fill="none" stroke="#16a34a" stroke-width="1.6" d="M285.63,-69.4C338.33,-66.31 402.77,-62.54 463.62,-58.97"/>
<polygon fill="#16a34a" stroke="#16a34a" stroke-width="1.6" points="463.97,-61.76 471.79,-58.5 463.64,-56.17 463.97,-61.76"/>
<text text-anchor="middle" x="408" y="-66.8" font-family="Helvetica,sans-Serif" font-size="9.00" fill="#15803d"> guards 2/3</text>
</g>
<!-- m::com.android.server.autofill.Session$AssistDataReceiverImpl.newAutofillRequestLocked:(Lcom/android/server/autofill/ViewState;Z)Ljava/util/function/Consumer; -->
<g id="node3" class="node">
<title>m::com.android.server.autofill.Session$AssistDataReceiverImpl.newAutofillRequestLocked:(Lcom/android/server/autofill/ViewState;Z)Ljava/util/function/Consumer;</title>
<path fill="#fee2e2" stroke="#dc2626" d="M332,-36C332,-36 12,-36 12,-36 6,-36 0,-30 0,-24 0,-24 0,-12 0,-12 0,-6 6,0 12,0 12,0 332,0 332,0 338,0 344,-6 344,-12 344,-12 344,-24 344,-24 344,-30 338,-36 332,-36"/>
<text text-anchor="middle" x="172" y="-15.2" font-family="Helvetica,sans-Serif" font-size="11.00">Session$AssistDataReceiverImpl.newAutofillRequestLocked</text>
</g>
<!-- m::com.android.server.autofill.Session$AssistDataReceiverImpl.newAutofillRequestLocked:(Lcom/android/server/autofill/ViewState;Z)Ljava/util/function/Consumer;&#45;&gt;__field__ -->
<g id="edge2" class="edge">
<title>m::com.android.server.autofill.Session$AssistDataReceiverImpl.newAutofillRequestLocked:(Lcom/android/server/autofill/ViewState;Z)Ljava/util/function/Consumer;&#45;&gt;__field__</title>
<path fill="none" stroke="#dc2626" d="M344.04,-28.02C382.53,-30.28 423.74,-32.69 463.44,-35.02"/>
<polygon fill="#dc2626" stroke="#dc2626" points="463.73,-37.84 471.88,-35.51 464.06,-32.25 463.73,-37.84"/>
<text text-anchor="middle" x="408" y="-35.8" font-family="Helvetica,sans-Serif" font-size="9.00" fill="#dc2626"> writes unguarded</text>
</g>
</g>
</svg>
