<?xml version="1.0" encoding="UTF-8" standalone="no"?>
<!DOCTYPE svg PUBLIC "-//W3C//DTD SVG 1.1//EN"
 "http://www.w3.org/Graphics/SVG/1.1/DTD/svg11.dtd">
<!-- Generated by graphviz version 2.43.0 (0)
 -->
<!-- Title: race Pages: 1 -->
<svg width="662pt" height="184pt"
 viewBox="0.00 0.00 662.00 184.00" xmlns="http://www.w3.org/2000/svg" xmlns:xlink="http://www.w3.org/1999/xlink">
<g id="graph0" class="graph" transform="scale(1 1) rotate(0) translate(4 180)">
<title>race</title>
<polygon fill="white" stroke="transparent" points="-4,4 -4,-180 658,-180 658,4 -4,4"/>
<!-- __field__ -->
<g id="node1" class="node">
<title>__field__</title>
<path fill="#fef9c3" stroke="#ca8a04" stroke-width="2" d="M642,-102C642,-102 448,-102 448,-102 442,-102 436,-96 436,-90 436,-90 436,-78 436,-78 436,-72 442,-66 448,-66 448,-66 642,-66 642,-66 648,-66 654,-72 654,-78 654,-78 654,-90 654,-90 654,-96 648,-102 642,-102"/>
<text text-anchor="middle" x="545" y="-81.2" font-family="Helvetica,sans-Serif" font-size="11.00">ActivityManagerService.mDebugApp</text>
</g>
<!-- __guard__ -->
<g id="node2" class="node">
<title>__guard__</title>
<path fill="#dcfce7" stroke="#16a34a" stroke-width="2" d="M226,-176C226,-176 82,-176 82,-176 76,-176 70,-170 70,-164 70,-164 70,-152 70,-152 70,-146 76,-140 82,-140 82,-140 226,-140 226,-140 232,-140 238,-146 238,-152 238,-152 238,-164 238,-164 238,-170 232,-176 226,-176"/>
<text text-anchor="middle" x="154" y="-155.2" font-family="Helvetica,sans-Serif" font-size="11.00">am.ActivityManagerService</text>
</g>
<!-- __guard__&#45;&gt;__field__ -->
<g id="edge1" class="edge">
<title>__guard__&#45;&gt;__field__</title>
<path fill="none" stroke="#16a34a" stroke-width="1.6" d="M238.21,-143.45C289.05,-134.43 355.35,-122.41 414,-111 425.88,-108.69 438.35,-106.19 450.68,-103.68"/>
<polygon fill="#16a34a" stroke="#16a34a" stroke-width="1.6" points="451.47,-106.37 458.75,-102.03 450.35,-100.89 451.47,-106.37"/>
<text text-anchor="middle" x="372" y="-127.8" font-family="Helvetica,sans-Serif" font-size="9.00" fill="#15803d"> guards 2/3</text>
</g>
<!-- m::com.android.server.am.ActivityManagerService.setDebugApp:(Ljava/lang/String;ZZZ)V -->
<g id="node3" class="node">
<title>m::com.android.server.am.ActivityManagerService.setDebugApp:(Ljava/lang/String;ZZZ)V</title>
<path fill="#fee2e2" stroke="#dc2626" d="M254,-110C254,-110 54,-110 54,-110 48,-110 42,-104 42,-98 42,-98 42,-86 42,-86 42,-80 48,-74 54,-74 54,-74 254,-74 254,-74 260,-74 266,-80 266,-86 266,-86 266,-98 266,-98 266,-104 260,-110 254,-110"/>
<text text-anchor="middle" x="154" y="-89.2" font-family="Helvetica,sans-Serif" font-size="11.00">ActivityManagerService.setDebugApp</text>
</g>
<!-- m::com.android.server.am.ActivityManagerService.setDebugApp:(Ljava/lang/String;ZZZ)V&#45;&gt;__field__ -->
<g id="edge2" class="edge">
<title>m::com.android.server.am.ActivityManagerService.setDebugApp:(Ljava/lang/String;ZZZ)V&#45;&gt;__field__</title>
<path fill="none" stroke="#dc2626" d="M266.27,-95.91C312.05,-96.84 365.59,-97.04 414,-95 418.46,-94.81 422.99,-94.59 427.58,-94.33"/>
<polygon fill="#dc2626" stroke="#dc2626" points="428.04,-97.11 435.87,-93.85 427.72,-91.52 428.04,-97.11"/>
<text text-anchor="middle" x="372" y="-98.8" font-family="Helvetica,sans-Serif" font-size="9.00" fill="#dc2626"> writes unguarded</text>
</g>
<!-- m::com.android.server.am.ActivityManagerService.setDebugApp:(Ljava/lang/String;ZZZ)V&#45;&gt;__field__ -->
<g id="edge5" class="edge">
<title>m::com.android.server.am.ActivityManagerService.setDebugApp:(Ljava/lang/String;ZZZ)V&#45;&gt;__field__</title>
<path fill="none" stroke="#dc2626" d="M266.07,-86.16C287.28,-85.26 309.32,-84.47 330,-84 361.76,-83.27 396.18,-83.03 427.93,-83.03"/>
<polygon fill="#dc2626" stroke="#dc2626" points="427.94,-85.83 435.95,-83.04 427.95,-80.23 427.94,-85.83"/>
<text text-anchor="middle" x="372" y="-86.8" font-family="Helvetica,sans-Serif" font-size="9.00" fill="#dc2626"> reads unguarded</text>
</g>
<!-- m::com.android.server.am.ActivityManagerService.dumpOtherProcessesInfoLSP:(Ljava/io/FileDescriptor;Ljava/io/PrintWriter;ZLjava/lang/String;IIZ)V -->
<g id="node4" class="node">
<title>m::com.android.server.am.ActivityManagerService.dumpOtherProcessesInfoLSP:(Ljava/io/FileDescriptor;Ljava/io/PrintWriter;ZLjava/lang/String;IIZ)V</title>
<path fill="#fee2e2" stroke="#dc2626" d="M296,-36C296,-36 12,-36 12,-36 6,-36 0,-30 0,-24 0,-24 0,-12 0,-12 0,-6 6,0 12,0 12,0 296,0 296,0 302,0 308,-6 308,-12 308,-12 308,-24 308,-24 308,-30 302,-36 296,-36"/>
<text text-anchor="middle" x="154" y="-15.2" font-family="Helvetica,sans-Serif" font-size="11.00">ActivityManagerService.dumpOtherProcessesInfoLSP</text>
</g>
<!-- m::com.android.server.am.ActivityManagerService.dumpOtherProcessesInfoLSP:(Ljava/io/FileDescriptor;Ljava/io/PrintWriter;ZLjava/lang/String;IIZ)V&#45;&gt;__field__ -->
<g id="edge3" class="edge">
<title>m::com.android.server.am.ActivityManagerService.dumpOtherProcessesInfoLSP:(Ljava/io/FileDescriptor;Ljava/io/PrintWriter;ZLjava/lang/String;IIZ)V&#45;&gt;__field__</title>
<path fill="none" stroke="#dc2626" d="M261.3,-36.03C313.5,-44.89 376.47,-55.58 429.71,-64.61"/>
<polygon fill="#dc2626" stroke="#dc2626" points="429.48,-67.41 437.83,-65.99 430.41,-61.89 429.48,-67.41"/>
<text text-anchor="middle" x="372" y="-62.8" font-family="Helvetica,sans-Serif" font-size="9.00" fill="#dc2626"> reads unguarded</text>
</g>
<!-- m::com.android.server.am.ActivityManagerService.dumpOtherProcessesInfoLSP:(Ljava/io/FileDescriptor;Ljava/io/PrintWriter;ZLjava/lang/String;IIZ)V&#45;&gt;__field__ -->
<g id="edge4" class="edge">
<title>m::com.android.server.am.ActivityManagerService.dumpOtherProcessesInfoLSP:(Ljava/io/FileDescriptor;Ljava/io/PrintWriter;ZLjava/lang/String;IIZ)V&#45;&gt;__field__</title>
<path fill="none" stroke="#dc2626" d="M308.09,-19.7C343.17,-22.23 380.11,-26.62 414,-34 443.12,-40.34 474.33,-52.17 498.88,-62.73"/>
<polygon fill="#dc2626" stroke="#dc2626" points="497.82,-65.32 506.27,-65.95 500.06,-60.19 497.82,-65.32"/>
<text text-anchor="middle" x="372" y="-36.8" font-family="Helvetica,sans-Serif" font-size="9.00" fill="#dc2626"> reads unguarded</text>
</g>
</g>
</svg>
