<?xml version="1.0" encoding="UTF-8" standalone="no"?>
<!DOCTYPE svg PUBLIC "-//W3C//DTD SVG 1.1//EN"
 "http://www.w3.org/Graphics/SVG/1.1/DTD/svg11.dtd">
<!-- Generated by graphviz version 2.43.0 (0)
 -->
<!-- Title: race Pages: 1 -->
<svg width="720pt" height="508pt"
 viewBox="0.00 0.00 720.00 508.00" xmlns="http://www.w3.org/2000/svg" xmlns:xlink="http://www.w3.org/1999/xlink">
<g id="graph0" class="graph" transform="scale(1 1) rotate(0) translate(4 504)">
<title>race</title>
<polygon fill="white" stroke="transparent" points="-4,4 -4,-504 716,-504 716,4 -4,4"/>
<!-- __field__ -->
<g id="node1" class="node">
<title>__field__</title>
<path fill="#fef9c3" stroke="#ca8a04" stroke-width="2" d="M700,-268C700,-268 543,-268 543,-268 537,-268 531,-262 531,-256 531,-256 531,-244 531,-244 531,-238 537,-232 543,-232 543,-232 700,-232 700,-232 706,-232 712,-238 712,-244 712,-244 712,-256 712,-256 712,-262 706,-268 700,-268"/>
<text text-anchor="middle" x="621.5" y="-247.2" font-family="Helvetica,sans-Serif" font-size="11.00">NotificationRecord.isCanceled</text>
</g>
<!-- __guard__ -->
<g id="node2" class="node">
<title>__guard__</title>
<path fill="#dcfce7" stroke="#16a34a" stroke-width="2" d="M324.5,-500C324.5,-500 78.5,-500 78.5,-500 72.5,-500 66.5,-494 66.5,-488 66.5,-488 66.5,-476 66.5,-476 66.5,-470 72.5,-464 78.5,-464 78.5,-464 324.5,-464 324.5,-464 330.5,-464 336.5,-470 336.5,-476 336.5,-476 336.5,-488 336.5,-488 336.5,-494 330.5,-500 324.5,-500"/>
<text text-anchor="middle" x="201.5" y="-479.2" font-family="Helvetica,sans-Serif" font-size="11.00">NotificationManagerService.mNotificationLock</text>
</g>
<!-- __guard__&#45;&gt;__field__ -->
<g id="edge1" class="edge">
<title>__guard__&#45;&gt;__field__</title>
<path fill="none" stroke="#16a34a" stroke-width="1.6" d="M336.66,-472.37C395.01,-462.22 460.88,-441.97 509,-402 552.82,-365.6 588.59,-308.44 607.01,-275.57"/>
<polygon fill="#16a34a" stroke="#16a34a" stroke-width="1.6" points="609.68,-276.51 611.1,-268.15 604.78,-273.81 609.68,-276.51"/>
<text text-anchor="middle" x="467" y="-450.8" font-family="Helvetica,sans-Serif" font-size="9.00" fill="#15803d"> guards 4/6</text>
</g>
<!-- m::com.android.server.notification.NotificationManagerService.cancelNotificationLocked:(Lcom/android/server/notification/NotificationRecord;ZIIIZLjava/lang/String;J)V -->
<g id="node3" class="node">
<title>m::com.android.server.notification.NotificationManagerService.cancelNotificationLocked:(Lcom/android/server/notification/NotificationRecord;ZIIIZLjava/lang/String;J)V</title>
<path fill="#fee2e2" stroke="#dc2626" d="M343.5,-442C343.5,-442 59.5,-442 59.5,-442 53.5,-442 47.5,-436 47.5,-430 47.5,-430 47.5,-418 47.5,-418 47.5,-412 53.5,-406 59.5,-406 59.5,-406 343.5,-406 343.5,-406 349.5,-406 355.5,-412 355.5,-418 355.5,-418 355.5,-430 355.5,-430 355.5,-436 349.5,-442 343.5,-442"/>
<text text-anchor="middle" x="201.5" y="-421.2" font-family="Helvetica,sans-Serif" font-size="11.00">NotificationManagerService.cancelNotificationLocked</text>
</g>
<!-- m::com.android.server.notification.NotificationManagerService.cancelNotificationLocked:(Lcom/android/server/notification/NotificationRecord;ZIIIZLjava/lang/String;J)V&#45;&gt;__field__ -->
<g id="edge2" class="edge">
<title>m::com.android.server.notification.NotificationManagerService.cancelNotificationLocked:(Lcom/android/server/notification/NotificationRecord;ZIIIZLjava/lang/String;J)V&#45;&gt;__field__</title>
<path fill="none" stroke="#dc2626" d="M355.74,-406.78C371.85,-403.51 387.86,-399.62 403,-395 453.01,-379.75 465.11,-372.41 509,-344 541.11,-323.21 574.16,-294.22 595.85,-273.95"/>
<polygon fill="#dc2626" stroke="#dc2626" points="598.03,-275.74 601.93,-268.22 594.19,-271.67 598.03,-275.74"/>
<text text-anchor="middle" x="467" y="-389.8" font-family="Helvetica,sans-Serif" font-size="9.00" fill="#dc2626"> writes unguarded</text>
</g>
<!-- m::com.android.server.notification.SnoozeHelper.cancel:(ILjava/lang/String;Ljava/lang/String;I)Z -->
<g id="node4" class="node">
<title>m::com.android.server.notification.SnoozeHelper.cancel:(ILjava/lang/String;Ljava/lang/String;I)Z</title>
<path fill="#fee2e2" stroke="#dc2626" d="M255,-384C255,-384 148,-384 148,-384 142,-384 136,-378 136,-372 136,-372 136,-360 136,-360 136,-354 142,-348 148,-348 148,-348 255,-348 255,-348 261,-348 267,-354 267,-360 267,-360 267,-372 267,-372 267,-378 261,-384 255,-384"/>
<text text-anchor="middle" x="201.5" y="-363.2" font-family="Helvetica,sans-Serif" font-size="11.00">SnoozeHelper.cancel</text>
</g>
<!-- m::com.android.server.notification.SnoozeHelper.cancel:(ILjava/lang/String;Ljava/lang/String;I)Z&#45;&gt;__field__ -->
<g id="edge3" class="edge">
<title>m::com.android.server.notification.SnoozeHelper.cancel:(ILjava/lang/String;Ljava/lang/String;I)Z&#45;&gt;__field__</title>
<path fill="none" stroke="#dc2626" d="M267.4,-360.55C307.04,-356.25 358.5,-348.94 403,-337 464.7,-320.45 532.56,-291.46 575.8,-271.52"/>
<polygon fill="#dc2626" stroke="#dc2626" points="577.24,-273.94 583.32,-268.03 574.88,-268.86 577.24,-273.94"/>
<text text-anchor="middle" x="467" y="-331.8" font-family="Helvetica,sans-Serif" font-size="9.00" fill="#dc2626"> writes unguarded</text>
</g>
<!-- m::com.android.server.notification.GroupHelper.isChildOfValidAppGroup:(Lcom/android/server/notification/NotificationRecord;)Z -->
<g id="node5" class="node">
<title>m::com.android.server.notification.GroupHelper.isChildOfValidAppGroup:(Lcom/android/server/notification/NotificationRecord;)Z</title>
<path fill="#fee2e2" stroke="#dc2626" d="M298.5,-326C298.5,-326 104.5,-326 104.5,-326 98.5,-326 92.5,-320 92.5,-314 92.5,-314 92.5,-302 92.5,-302 92.5,-296 98.5,-290 104.5,-290 104.5,-290 298.5,-290 298.5,-290 304.5,-290 310.5,-296 310.5,-302 310.5,-302 310.5,-314 310.5,-314 310.5,-320 304.5,-326 298.5,-326"/>
<text text-anchor="middle" x="201.5" y="-305.2" font-family="Helvetica,sans-Serif" font-size="11.00">GroupHelper.isChildOfValidAppGroup</text>
</g>
<!-- m::com.android.server.notification.GroupHelper.isChildOfValidAppGroup:(Lcom/android/server/notification/NotificationRecord;)Z&#45;&gt;__field__ -->
<g id="edge4" class="edge">
<title>m::com.android.server.notification.GroupHelper.isChildOfValidAppGroup:(Lcom/android/server/notification/NotificationRecord;)Z&#45;&gt;__field__</title>
<path fill="none" stroke="#dc2626" d="M310.69,-292.99C376.22,-283.89 459.14,-272.39 522.71,-263.57"/>
<polygon fill="#dc2626" stroke="#dc2626" points="523.21,-266.33 530.75,-262.45 522.44,-260.78 523.21,-266.33"/>
<text text-anchor="middle" x="467" y="-277.8" font-family="Helvetica,sans-Serif" font-size="9.00" fill="#dc2626"> reads unguarded</text>
</g>
<!-- m::com.android.server.notification.GroupHelper.isNotAppGroupPrevInvalidSection:(Lcom/android/server/notification/NotificationRecord;)Z -->
<g id="node6" class="node">
<title>m::com.android.server.notification.GroupHelper.isNotAppGroupPrevInvalidSection:(Lcom/android/server/notification/NotificationRecord;)Z</title>
<path fill="#fee2e2" stroke="#dc2626" d="M325.5,-268C325.5,-268 77.5,-268 77.5,-268 71.5,-268 65.5,-262 65.5,-256 65.5,-256 65.5,-244 65.5,-244 65.5,-238 71.5,-232 77.5,-232 77.5,-232 325.5,-232 325.5,-232 331.5,-232 337.5,-238 337.5,-244 337.5,-244 337.5,-256 337.5,-256 337.5,-262 331.5,-268 325.5,-268"/>
<text text-anchor="middle" x="201.5" y="-247.2" font-family="Helvetica,sans-Serif" font-size="11.00">GroupHelper.isNotAppGroupPrevInvalidSection</text>
</g>
<!-- m::com.android.server.notification.GroupHelper.isNotAppGroupPrevInvalidSection:(Lcom/android/server/notification/NotificationRecord;)Z&#45;&gt;__field__ -->
<g id="edge5" class="edge">
<title>m::com.android.server.notification.GroupHelper.isNotAppGroupPrevInvalidSection:(Lcom/android/server/notification/NotificationRecord;)Z&#45;&gt;__field__</title>
<path fill="none" stroke="#dc2626" d="M337.64,-250C398,-250 467.79,-250 522.94,-250"/>
<polygon fill="#dc2626" stroke="#dc2626" points="522.97,-252.8 530.97,-250 522.97,-247.2 522.97,-252.8"/>
<text text-anchor="middle" x="467" y="-252.8" font-family="Helvetica,sans-Serif" font-size="9.00" fill="#dc2626"> reads unguarded</text>
</g>
<!-- m::com.android.server.notification.GroupHelper.onNotificationRemoved:(Lcom/android/server/notification/NotificationRecord;Ljava/util/List;Z)V -->
<g id="node7" class="node">
<title>m::com.android.server.notification.GroupHelper.onNotificationRemoved:(Lcom/android/server/notification/NotificationRecord;Ljava/util/List;Z)V</title>
<path fill="#fee2e2" stroke="#dc2626" d="M298,-210C298,-210 105,-210 105,-210 99,-210 93,-204 93,-198 93,-198 93,-186 93,-186 93,-180 99,-174 105,-174 105,-174 298,-174 298,-174 304,-174 310,-180 310,-186 310,-186 310,-198 310,-198 310,-204 304,-210 298,-210"/>
<text text-anchor="middle" x="201.5" y="-189.2" font-family="Helvetica,sans-Serif" font-size="11.00">GroupHelper.onNotificationRemoved</text>
</g>
<!-- m::com.android.server.notification.GroupHelper.onNotificationRemoved:(Lcom/android/server/notification/NotificationRecord;Ljava/util/List;Z)V&#45;&gt;__field__ -->
<g id="edge6" class="edge">
<title>m::com.android.server.notification.GroupHelper.onNotificationRemoved:(Lcom/android/server/notification/NotificationRecord;Ljava/util/List;Z)V&#45;&gt;__field__</title>
<path fill="none" stroke="#dc2626" d="M310.15,-206.94C375.79,-216.05 459.05,-227.6 522.79,-236.44"/>
<polygon fill="#dc2626" stroke="#dc2626" points="522.56,-239.24 530.86,-237.56 523.33,-233.69 522.56,-239.24"/>
<text text-anchor="middle" x="467" y="-236.8" font-family="Helvetica,sans-Serif" font-size="9.00" fill="#dc2626"> reads unguarded</text>
</g>
<!-- m::com.android.server.notification.NotificationManagerService$PostNotificationRunnable.postNotification:()Z -->
<g id="node8" class="node">
<title>m::com.android.server.notification.NotificationManagerService$PostNotificationRunnable.postNotification:()Z</title>
<path fill="#fee2e2" stroke="#dc2626" d="M391,-152C391,-152 12,-152 12,-152 6,-152 0,-146 0,-140 0,-140 0,-128 0,-128 0,-122 6,-116 12,-116 12,-116 391,-116 391,-116 397,-116 403,-122 403,-128 403,-128 403,-140 403,-140 403,-146 397,-152 391,-152"/>
<text text-anchor="middle" x="201.5" y="-131.2" font-family="Helvetica,sans-Serif" font-size="11.00">NotificationManagerService$PostNotificationRunnable.postNotification</text>
</g>
<!-- m::com.android.server.notification.NotificationManagerService$PostNotificationRunnable.postNotification:()Z&#45;&gt;__field__ -->
<g id="edge7" class="edge">
<title>m::com.android.server.notification.NotificationManagerService$PostNotificationRunnable.postNotification:()Z&#45;&gt;__field__</title>
<path fill="none" stroke="#dc2626" d="M354.09,-152.01C370.71,-155.15 387.29,-158.79 403,-163 464.7,-179.55 532.56,-208.54 575.8,-228.48"/>
<polygon fill="#dc2626" stroke="#dc2626" points="574.88,-231.14 583.32,-231.97 577.24,-226.06 574.88,-231.14"/>
<text text-anchor="middle" x="467" y="-200.8" font-family="Helvetica,sans-Serif" font-size="9.00" fill="#dc2626"> reads unguarded</text>
</g>
<!-- m::com.android.server.notification.SnoozeHelper.repost:(Ljava/lang/String;IZ)V -->
<g id="node9" class="node">
<title>m::com.android.server.notification.SnoozeHelper.repost:(Ljava/lang/String;IZ)V</title>
<path fill="#fee2e2" stroke="#dc2626" d="M255,-94C255,-94 148,-94 148,-94 142,-94 136,-88 136,-82 136,-82 136,-70 136,-70 136,-64 142,-58 148,-58 148,-58 255,-58 255,-58 261,-58 267,-64 267,-70 267,-70 267,-82 267,-82 267,-88 261,-94 255,-94"/>
<text text-anchor="middle" x="201.5" y="-73.2" font-family="Helvetica,sans-Serif" font-size="11.00">SnoozeHelper.repost</text>
</g>
<!-- m::com.android.server.notification.SnoozeHelper.repost:(Ljava/lang/String;IZ)V&#45;&gt;__field__ -->
<g id="edge8" class="edge">
<title>m::com.android.server.notification.SnoozeHelper.repost:(Ljava/lang/String;IZ)V&#45;&gt;__field__</title>
<path fill="none" stroke="#dc2626" d="M267.21,-80.45C307.02,-84.39 358.71,-91.68 403,-105 452.88,-120 465.24,-126.75 509,-155 541.62,-176.05 574.98,-205.78 596.6,-226.35"/>
<polygon fill="#dc2626" stroke="#dc2626" points="594.67,-228.37 602.38,-231.89 598.55,-224.33 594.67,-228.37"/>
<text text-anchor="middle" x="467" y="-157.8" font-family="Helvetica,sans-Serif" font-size="9.00" fill="#dc2626"> reads unguarded</text>
</g>
<!-- m::com.android.server.notification.SnoozeHelper.repostGroupSummary:(Ljava/lang/String;ILjava/lang/String;)V -->
<g id="node10" class="node">
<title>m::com.android.server.notification.SnoozeHelper.repostGroupSummary:(Ljava/lang/String;ILjava/lang/String;)V</title>
<path fill="#fee2e2" stroke="#dc2626" d="M297.5,-36C297.5,-36 105.5,-36 105.5,-36 99.5,-36 93.5,-30 93.5,-24 93.5,-24 93.5,-12 93.5,-12 93.5,-6 99.5,0 105.5,0 105.5,0 297.5,0 297.5,0 303.5,0 309.5,-6 309.5,-12 309.5,-12 309.5,-24 309.5,-24 309.5,-30 303.5,-36 297.5,-36"/>
<text text-anchor="middle" x="201.5" y="-15.2" font-family="Helvetica,sans-Serif" font-size="11.00">SnoozeHelper.repostGroupSummary</text>
</g>
<!-- m::com.android.server.notification.SnoozeHelper.repostGroupSummary:(Ljava/lang/String;ILjava/lang/String;)V&#45;&gt;__field__ -->
<g id="edge9" class="edge">
<title>m::com.android.server.notification.SnoozeHelper.repostGroupSummary:(Ljava/lang/String;ILjava/lang/String;)V&#45;&gt;__field__</title>
<path fill="none" stroke="#dc2626" d="M309.59,-23.16C373.66,-31.29 453.2,-50.87 509,-97 553.27,-133.61 589.07,-191.55 607.32,-224.63"/>
<polygon fill="#dc2626" stroke="#dc2626" points="604.88,-225.99 611.16,-231.68 609.8,-223.32 604.88,-225.99"/>
<text text-anchor="middle" x="467" y="-99.8" font-family="Helvetica,sans-Serif" font-size="9.00" fill="#dc2626"> reads unguarded</text>
</g>
</g>
</svg>
