<?xml version="1.0" encoding="UTF-8" standalone="no"?>
<!DOCTYPE svg PUBLIC "-//W3C//DTD SVG 1.1//EN"
 "http://www.w3.org/Graphics/SVG/1.1/DTD/svg11.dtd">
<!-- Generated by graphviz version 2.43.0 (0)
 -->
<!-- Title: race Pages: 1 -->
<svg width="635pt" height="160pt"
 viewBox="0.00 0.00 635.00 160.00" xmlns="http://www.w3.org/2000/svg" xmlns:xlink="http://www.w3.org/1999/xlink">
<g id="graph0" class="graph" transform="scale(1 1) rotate(0) translate(4 156)">
<title>race</title>
<polygon fill="white" stroke="transparent" points="-4,4 -4,-156 631,-156 631,4 -4,4"/>
<!-- __field__ -->
<g id="node1" class="node">
<title>__field__</title>
<path fill="#fef9c3" stroke="#ca8a04" stroke-width="2" d="M615,-94C615,-94 487,-94 487,-94 481,-94 475,-88 475,-82 475,-82 475,-70 475,-70 475,-64 481,-58 487,-58 487,-58 615,-58 615,-58 621,-58 627,-64 627,-70 627,-70 627,-82 627,-82 627,-88 621,-94 615,-94"/>
<text text-anchor="middle" x="551" y="-73.2" font-family="Helvetica,sans-Serif" font-size="11.00">NetworkPolicy.limitBytes</text>
</g>
<!-- __guard__ -->
<g id="node2" class="node">
<title>__guard__</title>
<path fill="#dcfce7" stroke="#16a34a" stroke-width="2" d="M335,-152C335,-152 12,-152 12,-152 6,-152 0,-146 0,-140 0,-140 0,-128 0,-128 0,-122 6,-116 12,-116 12,-116 335,-116 335,-116 341,-116 347,-122 347,-128 347,-128 347,-140 347,-140 347,-146 341,-152 335,-152"/>
<text text-anchor="middle" x="173.5" y="-131.2" font-family="Helvetica,sans-Serif" font-size="11.00">NetworkPolicyManagerService.mNetworkPoliciesSecondLock</text>
</g>
<!-- __guard__&#45;&gt;__field__ -->
<g id="edge1" class="edge">
<title>__guard__&#45;&gt;__field__</title>
<path fill="none" stroke="#16a34a" stroke-width="1.6" d="M291.37,-115.96C341.18,-108.27 399.94,-99.2 453,-91 457.53,-90.3 462.18,-89.58 466.88,-88.86"/>
<polygon fill="#16a34a" stroke="#16a34a" stroke-width="1.6" points="467.33,-91.62 474.8,-87.63 466.47,-86.09 467.33,-91.62"/>
<text text-anchor="middle" x="411" y="-104.8" font-family="Helvetica,sans-Serif" font-size="9.00" fill="#15803d"> guards 5/6</text>
</g>
<!-- m::com.android.server.net.NetworkPolicyManagerService.factoryReset:(Ljava/lang/String;)V -->
<g id="node3" class="node">
<title>m::com.android.server.net.NetworkPolicyManagerService.factoryReset:(Ljava/lang/String;)V</title>
<path fill="#fee2e2" stroke="#dc2626" d="M290,-94C290,-94 57,-94 57,-94 51,-94 45,-88 45,-82 45,-82 45,-70 45,-70 45,-64 51,-58 57,-58 57,-58 290,-58 290,-58 296,-58 302,-64 302,-70 302,-70 302,-82 302,-82 302,-88 296,-94 290,-94"/>
<text text-anchor="middle" x="173.5" y="-73.2" font-family="Helvetica,sans-Serif" font-size="11.00">NetworkPolicyManagerService.factoryReset</text>
</g>
<!-- m::com.android.server.net.NetworkPolicyManagerService.factoryReset:(Ljava/lang/String;)V&#45;&gt;__field__ -->
<g id="edge2" class="edge">
<title>m::com.android.server.net.NetworkPolicyManagerService.factoryReset:(Ljava/lang/String;)V&#45;&gt;__field__</title>
<path fill="none" stroke="#dc2626" d="M302.15,-76C356.52,-76 418.4,-76 466.73,-76"/>
<polygon fill="#dc2626" stroke="#dc2626" points="466.98,-78.8 474.98,-76 466.98,-73.2 466.98,-78.8"/>
<text text-anchor="middle" x="411" y="-78.8" font-family="Helvetica,sans-Serif" font-size="9.00" fill="#dc2626"> writes unguarded</text>
</g>
<!-- m::com.android.server.connectivity.MultipathPolicyTracker.getActiveLimit:(Landroid/net/NetworkPolicy;J)J -->
<g id="node4" class="node">
<title>m::com.android.server.connectivity.MultipathPolicyTracker.getActiveLimit:(Landroid/net/NetworkPolicy;J)J</title>
<path fill="#fee2e2" stroke="#dc2626" d="M272.5,-36C272.5,-36 74.5,-36 74.5,-36 68.5,-36 62.5,-30 62.5,-24 62.5,-24 62.5,-12 62.5,-12 62.5,-6 68.5,0 74.5,0 74.5,0 272.5,0 272.5,0 278.5,0 284.5,-6 284.5,-12 284.5,-12 284.5,-24 284.5,-24 284.5,-30 278.5,-36 272.5,-36"/>
<text text-anchor="middle" x="173.5" y="-15.2" font-family="Helvetica,sans-Serif" font-size="11.00">MultipathPolicyTracker.getActiveLimit</text>
</g>
<!-- m::com.android.server.connectivity.MultipathPolicyTracker.getActiveLimit:(Landroid/net/NetworkPolicy;J)J&#45;&gt;__field__ -->
<g id="edge3" class="edge">
<title>m::com.android.server.connectivity.MultipathPolicyTracker.getActiveLimit:(Landroid/net/NetworkPolicy;J)J&#45;&gt;__field__</title>
<path fill="none" stroke="#dc2626" d="M284.62,-35C335.82,-42.9 397.52,-52.43 453,-61 457.53,-61.7 462.18,-62.42 466.88,-63.14"/>
<polygon fill="#dc2626" stroke="#dc2626" points="466.47,-65.91 474.8,-64.37 467.33,-60.38 466.47,-65.91"/>
<text text-anchor="middle" x="411" y="-63.8" font-family="Helvetica,sans-Serif" font-size="9.00" fill="#dc2626"> reads unguarded</text>
</g>
</g>
</svg>
