<?xml version="1.0" encoding="UTF-8" standalone="no"?>
<!DOCTYPE svg PUBLIC "-//W3C//DTD SVG 1.1//EN"
 "http://www.w3.org/Graphics/SVG/1.1/DTD/svg11.dtd">
<!-- Generated by graphviz version 2.43.0 (0)
 -->
<!-- Title: race Pages: 1 -->
<svg width="422pt" height="168pt"
 viewBox="0.00 0.00 422.00 168.00" xmlns="http://www.w3.org/2000/svg" xmlns:xlink="http://www.w3.org/1999/xlink">
<g id="graph0" class="graph" transform="scale(1 1) rotate(0) translate(4 164)">
<title>race</title>
<polygon fill="white" stroke="transparent" points="-4,4 -4,-164 418,-164 418,4 -4,4"/>
<!-- __field__ -->
<g id="node1" class="node">
<title>__field__</title>
<path fill="#fef9c3" stroke="#ca8a04" stroke-width="2" d="M402,-83C402,-83 313,-83 313,-83 307,-83 301,-77 301,-71 301,-71 301,-59 301,-59 301,-53 307,-47 313,-47 313,-47 402,-47 402,-47 408,-47 414,-53 414,-59 414,-59 414,-71 414,-71 414,-77 408,-83 402,-83"/>
<text text-anchor="middle" x="357.5" y="-62.2" font-family="Helvetica,sans-Serif" font-size="11.00">Vpn.mConnection</text>
</g>
<!-- __guard__ -->
<g id="node2" class="node">
<title>__guard__</title>
<path fill="#dcfce7" stroke="#16a34a" stroke-width="2" d="M158,-160C158,-160 15,-160 15,-160 9,-160 3,-154 3,-148 3,-148 3,-136 3,-136 3,-130 9,-124 15,-124 15,-124 158,-124 158,-124 164,-124 170,-130 170,-136 170,-136 170,-148 170,-148 170,-154 164,-160 158,-160"/>
<text text-anchor="middle" x="86.5" y="-139.2" font-family="Helvetica,sans-Serif" font-size="11.00">VpnManagerService.mVpns</text>
</g>
<!-- __guard__&#45;&gt;__field__ -->
<g id="edge1" class="edge">
<title>__guard__&#45;&gt;__field__</title>
<path fill="none" stroke="#16a34a" stroke-width="1.6" d="M159.64,-123.94C195.65,-114.63 239.79,-102.79 279,-91 284.61,-89.31 290.42,-87.5 296.22,-85.63"/>
<polygon fill="#16a34a" stroke="#16a34a" stroke-width="1.6" points="297.37,-88.21 304.12,-83.07 295.64,-82.88 297.37,-88.21"/>
<text text-anchor="middle" x="237" y="-116.8" font-family="Helvetica,sans-Serif" font-size="9.00" fill="#15803d"> guards 2/3</text>
</g>
<!-- m::com.android.server.connectivity.Vpn.cleanupVpnStateLocked:()V -->
<g id="node3" class="node">
<title>m::com.android.server.connectivity.Vpn.cleanupVpnStateLocked:()V</title>
<path fill="#fee2e2" stroke="#dc2626" d="M161,-102C161,-102 12,-102 12,-102 6,-102 0,-96 0,-90 0,-90 0,-78 0,-78 0,-72 6,-66 12,-66 12,-66 161,-66 161,-66 167,-66 173,-72 173,-78 173,-78 173,-90 173,-90 173,-96 167,-102 161,-102"/>
<text text-anchor="middle" x="86.5" y="-81.2" font-family="Helvetica,sans-Serif" font-size="11.00">Vpn.cleanupVpnStateLocked</text>
</g>
<!-- m::com.android.server.connectivity.Vpn.cleanupVpnStateLocked:()V&#45;&gt;__field__ -->
<g id="edge2" class="edge">
<title>m::com.android.server.connectivity.Vpn.cleanupVpnStateLocked:()V&#45;&gt;__field__</title>
<path fill="none" stroke="#dc2626" d="M173.35,-77.94C211.93,-75.21 256.68,-72.05 292.28,-69.54"/>
<polygon fill="#dc2626" stroke="#dc2626" points="292.88,-72.3 300.66,-68.94 292.48,-66.71 292.88,-72.3"/>
<text text-anchor="middle" x="237" y="-78.8" font-family="Helvetica,sans-Serif" font-size="9.00" fill="#dc2626"> writes unguarded</text>
</g>
<!-- m::com.android.server.connectivity.Vpn.prepareInternal:(Ljava/lang/String;)V -->
<g id="node4" class="node">
<title>m::com.android.server.connectivity.Vpn.prepareInternal:(Ljava/lang/String;)V</title>
<path fill="#fee2e2" stroke="#dc2626" d="M137.5,-36C137.5,-36 35.5,-36 35.5,-36 29.5,-36 23.5,-30 23.5,-24 23.5,-24 23.5,-12 23.5,-12 23.5,-6 29.5,0 35.5,0 35.5,0 137.5,0 137.5,0 143.5,0 149.5,-6 149.5,-12 149.5,-12 149.5,-24 149.5,-24 149.5,-30 143.5,-36 137.5,-36"/>
<text text-anchor="middle" x="86.5" y="-15.2" font-family="Helvetica,sans-Serif" font-size="11.00">Vpn.prepareInternal</text>
</g>
<!-- m::com.android.server.connectivity.Vpn.prepareInternal:(Ljava/lang/String;)V&#45;&gt;__field__ -->
<g id="edge3" class="edge">
<title>m::com.android.server.connectivity.Vpn.prepareInternal:(Ljava/lang/String;)V&#45;&gt;__field__</title>
<path fill="none" stroke="#dc2626" d="M149.55,-28.84C192.5,-36.35 249.49,-46.3 292.79,-53.87"/>
<polygon fill="#dc2626" stroke="#dc2626" points="292.34,-56.63 300.71,-55.25 293.31,-51.12 292.34,-56.63"/>
<text text-anchor="middle" x="237" y="-53.8" font-family="Helvetica,sans-Serif" font-size="9.00" fill="#dc2626"> reads unguarded</text>
</g>
<!-- m::com.android.server.connectivity.Vpn.prepareInternal:(Ljava/lang/String;)V&#45;&gt;__field__ -->
<g id="edge4" class="edge">
<title>m::com.android.server.connectivity.Vpn.prepareInternal:(Ljava/lang/String;)V&#45;&gt;__field__</title>
<path fill="none" stroke="#dc2626" d="M149.8,-11.81C187.78,-9.86 236.94,-10.64 279,-22 294.79,-26.26 310.83,-34.4 324.19,-42.46"/>
<polygon fill="#dc2626" stroke="#dc2626" points="323.05,-45.05 331.32,-46.91 326.01,-40.3 323.05,-45.05"/>
<text text-anchor="middle" x="237" y="-24.8" font-family="Helvetica,sans-Serif" font-size="9.00" fill="#dc2626"> reads unguarded</text>
</g>
</g>
</svg>
