<?xml version="1.0" encoding="UTF-8" standalone="no"?>
<!DOCTYPE svg PUBLIC "-//W3C//DTD SVG 1.1//EN"
 "http://www.w3.org/Graphics/SVG/1.1/DTD/svg11.dtd">
<!-- Generated by graphviz version 2.43.0 (0)
 -->
<!-- Title: race Pages: 1 -->
<svg width="540pt" height="369pt"
 viewBox="0.00 0.00 540.00 369.00" xmlns="http://www.w3.org/2000/svg" xmlns:xlink="http://www.w3.org/1999/xlink">
<g id="graph0" class="graph" transform="scale(1 1) rotate(0) translate(4 365)">
<title>race</title>
<polygon fill="white" stroke="transparent" points="-4,4 -4,-365 536,-365 536,4 -4,4"/>
<!-- __field__ -->
<g id="node1" class="node">
<title>__field__</title>
<path fill="#fef9c3" stroke="#ca8a04" stroke-width="2" d="M520,-194C520,-194 370,-194 370,-194 364,-194 358,-188 358,-182 358,-182 358,-170 358,-170 358,-164 364,-158 370,-158 370,-158 520,-158 520,-158 526,-158 532,-164 532,-170 532,-170 532,-182 532,-182 532,-188 526,-194 520,-194"/>
<text text-anchor="middle" x="445" y="-173.2" font-family="Helvetica,sans-Serif" font-size="11.00">PackageSetting.mimeGroups</text>
</g>
<!-- __guard__ -->
<g id="node2" class="node">
<title>__guard__</title>
<path fill="#dcfce7" stroke="#16a34a" stroke-width="2" d="M218,-361C218,-361 12,-361 12,-361 6,-361 0,-355 0,-349 0,-349 0,-337 0,-337 0,-331 6,-325 12,-325 12,-325 218,-325 218,-325 224,-325 230,-331 230,-337 230,-337 230,-349 230,-349 230,-355 224,-361 218,-361"/>
<text text-anchor="middle" x="115" y="-340.2" font-family="Helvetica,sans-Serif" font-size="11.00">PackageManagerServiceInjector.mLock</text>
</g>
<!-- __guard__&#45;&gt;__field__ -->
<g id="edge1" class="edge">
<title>__guard__&#45;&gt;__field__</title>
<path fill="none" stroke="#16a34a" stroke-width="1.6" d="M230.04,-339.24C265.79,-334.12 304.19,-324.3 336,-306 379.37,-281.04 412.89,-231.64 430.43,-201.44"/>
<polygon fill="#16a34a" stroke="#16a34a" stroke-width="1.6" points="433.03,-202.54 434.54,-194.21 428.16,-199.78 433.03,-202.54"/>
<text text-anchor="middle" x="294" y="-336.8" font-family="Helvetica,sans-Serif" font-size="9.00" fill="#15803d"> guards 4/6</text>
</g>
<!-- m::com.android.server.pm.PackageSetting.copyMimeGroups:(Ljava/util/Map;)V -->
<g id="node3" class="node">
<title>m::com.android.server.pm.PackageSetting.copyMimeGroups:(Ljava/util/Map;)V</title>
<path fill="#fee2e2" stroke="#dc2626" d="M203,-269C203,-269 27,-269 27,-269 21,-269 15,-263 15,-257 15,-257 15,-245 15,-245 15,-239 21,-233 27,-233 27,-233 203,-233 203,-233 209,-233 215,-239 215,-245 215,-245 215,-257 215,-257 215,-263 209,-269 203,-269"/>
<text text-anchor="middle" x="115" y="-248.2" font-family="Helvetica,sans-Serif" font-size="11.00">PackageSetting.copyMimeGroups</text>
</g>
<!-- m::com.android.server.pm.PackageSetting.copyMimeGroups:(Ljava/util/Map;)V&#45;&gt;__field__ -->
<g id="edge2" class="edge">
<title>m::com.android.server.pm.PackageSetting.copyMimeGroups:(Ljava/util/Map;)V&#45;&gt;__field__</title>
<path fill="none" stroke="#dc2626" d="M159.37,-269.15C204.94,-285.42 277.94,-303.41 336,-280 375.28,-264.16 408.25,-226.45 427.07,-201.06"/>
<polygon fill="#dc2626" stroke="#dc2626" points="429.58,-202.38 432,-194.26 425.04,-199.09 429.58,-202.38"/>
<text text-anchor="middle" x="294" y="-293.8" font-family="Helvetica,sans-Serif" font-size="9.00" fill="#dc2626"> writes unguarded</text>
</g>
<!-- m::com.android.server.pm.PackageSetting.copyMimeGroups:(Ljava/util/Map;)V&#45;&gt;__field__ -->
<g id="edge3" class="edge">
<title>m::com.android.server.pm.PackageSetting.copyMimeGroups:(Ljava/util/Map;)V&#45;&gt;__field__</title>
<path fill="none" stroke="#dc2626" d="M215.26,-258.14C253.7,-258.15 297.61,-254.7 336,-243 365.71,-233.95 395.4,-214.59 416.11,-199"/>
<polygon fill="#dc2626" stroke="#dc2626" points="417.87,-201.18 422.51,-194.09 414.46,-196.74 417.87,-201.18"/>
<text text-anchor="middle" x="294" y="-258.8" font-family="Helvetica,sans-Serif" font-size="9.00" fill="#dc2626"> writes unguarded</text>
</g>
<!-- m::com.android.server.pm.PackageSetting.copyMimeGroups:(Ljava/util/Map;)V&#45;&gt;__field__ -->
<g id="edge4" class="edge">
<title>m::com.android.server.pm.PackageSetting.copyMimeGroups:(Ljava/util/Map;)V&#45;&gt;__field__</title>
<path fill="none" stroke="#dc2626" d="M211.34,-232.99C250.15,-225.28 295.35,-215.79 336,-206 348.38,-203.02 361.48,-199.6 374.13,-196.17"/>
<polygon fill="#dc2626" stroke="#dc2626" points="374.96,-198.84 381.94,-194.03 373.49,-193.44 374.96,-198.84"/>
<text text-anchor="middle" x="294" y="-225.8" font-family="Helvetica,sans-Serif" font-size="9.00" fill="#dc2626"> reads unguarded</text>
</g>
<!-- m::com.android.server.pm.PackageSetting.copyMimeGroups:(Ljava/util/Map;)V&#45;&gt;__field__ -->
<g id="edge5" class="edge">
<title>m::com.android.server.pm.PackageSetting.copyMimeGroups:(Ljava/util/Map;)V&#45;&gt;__field__</title>
<path fill="none" stroke="#dc2626" d="M151.68,-232.93C178.56,-220.17 216.7,-203.81 252,-195 283.18,-187.22 317.95,-182.6 349.24,-179.87"/>
<polygon fill="#dc2626" stroke="#dc2626" points="349.8,-182.63 357.54,-179.18 349.34,-177.05 349.8,-182.63"/>
<text text-anchor="middle" x="294" y="-197.8" font-family="Helvetica,sans-Serif" font-size="9.00" fill="#dc2626"> reads unguarded</text>
</g>
<!-- m::com.android.server.pm.PackageSetting.copyPackageSetting:(Lcom/android/server/pm/PackageSetting;Z)V -->
<g id="node4" class="node">
<title>m::com.android.server.pm.PackageSetting.copyPackageSetting:(Lcom/android/server/pm/PackageSetting;Z)V</title>
<path fill="#fee2e2" stroke="#dc2626" d="M210.5,-176C210.5,-176 19.5,-176 19.5,-176 13.5,-176 7.5,-170 7.5,-164 7.5,-164 7.5,-152 7.5,-152 7.5,-146 13.5,-140 19.5,-140 19.5,-140 210.5,-140 210.5,-140 216.5,-140 222.5,-146 222.5,-152 222.5,-152 222.5,-164 222.5,-164 222.5,-170 216.5,-176 210.5,-176"/>
<text text-anchor="middle" x="115" y="-155.2" font-family="Helvetica,sans-Serif" font-size="11.00">PackageSetting.copyPackageSetting</text>
</g>
<!-- m::com.android.server.pm.PackageSetting.copyPackageSetting:(Lcom/android/server/pm/PackageSetting;Z)V&#45;&gt;__field__ -->
<g id="edge6" class="edge">
<title>m::com.android.server.pm.PackageSetting.copyPackageSetting:(Lcom/android/server/pm/PackageSetting;Z)V&#45;&gt;__field__</title>
<path fill="none" stroke="#dc2626" d="M222.73,-154.46C258.76,-154.21 299.17,-154.95 336,-158 340.44,-158.37 344.97,-158.82 349.54,-159.33"/>
<polygon fill="#dc2626" stroke="#dc2626" points="349.52,-162.15 357.8,-160.33 350.19,-156.59 349.52,-162.15"/>
<text text-anchor="middle" x="294" y="-160.8" font-family="Helvetica,sans-Serif" font-size="9.00" fill="#dc2626"> reads unguarded</text>
</g>
<!-- m::com.android.server.pm.PackageSetting.getMimeGroups:()Ljava/util/Map; -->
<g id="node5" class="node">
<title>m::com.android.server.pm.PackageSetting.getMimeGroups:()Ljava/util/Map;</title>
<path fill="#fee2e2" stroke="#dc2626" d="M198.5,-110C198.5,-110 31.5,-110 31.5,-110 25.5,-110 19.5,-104 19.5,-98 19.5,-98 19.5,-86 19.5,-86 19.5,-80 25.5,-74 31.5,-74 31.5,-74 198.5,-74 198.5,-74 204.5,-74 210.5,-80 210.5,-86 210.5,-86 210.5,-98 210.5,-98 210.5,-104 204.5,-110 198.5,-110"/>
<text text-anchor="middle" x="115" y="-89.2" font-family="Helvetica,sans-Serif" font-size="11.00">PackageSetting.getMimeGroups</text>
</g>
<!-- m::com.android.server.pm.PackageSetting.getMimeGroups:()Ljava/util/Map;&#45;&gt;__field__ -->
<g id="edge7" class="edge">
<title>m::com.android.server.pm.PackageSetting.getMimeGroups:()Ljava/util/Map;&#45;&gt;__field__</title>
<path fill="none" stroke="#dc2626" d="M210.54,-109.62C249.63,-117.57 295.26,-127.71 336,-139 352.91,-143.68 371.03,-149.55 387.52,-155.23"/>
<polygon fill="#dc2626" stroke="#dc2626" points="386.99,-158.01 395.46,-157.99 388.83,-152.72 386.99,-158.01"/>
<text text-anchor="middle" x="294" y="-141.8" font-family="Helvetica,sans-Serif" font-size="9.00" fill="#dc2626"> reads unguarded</text>
</g>
<!-- m::com.android.server.pm.PackageSetting.getMimeGroups:()Ljava/util/Map;&#45;&gt;__field__ -->
<g id="edge8" class="edge">
<title>m::com.android.server.pm.PackageSetting.getMimeGroups:()Ljava/util/Map;&#45;&gt;__field__</title>
<path fill="none" stroke="#dc2626" d="M210.64,-86.3C250.26,-86.67 296.26,-90.77 336,-104 366.68,-114.21 396.89,-135.59 417.53,-152.41"/>
<polygon fill="#dc2626" stroke="#dc2626" points="415.94,-154.73 423.88,-157.7 419.52,-150.43 415.94,-154.73"/>
<text text-anchor="middle" x="294" y="-106.8" font-family="Helvetica,sans-Serif" font-size="9.00" fill="#dc2626"> reads unguarded</text>
</g>
<!-- m::com.android.server.pm.PackageSetting.setMimeGroup:(Ljava/lang/String;Landroid/util/ArraySet;)Z -->
<g id="node6" class="node">
<title>m::com.android.server.pm.PackageSetting.setMimeGroup:(Ljava/lang/String;Landroid/util/ArraySet;)Z</title>
<path fill="#fee2e2" stroke="#dc2626" d="M195.5,-36C195.5,-36 34.5,-36 34.5,-36 28.5,-36 22.5,-30 22.5,-24 22.5,-24 22.5,-12 22.5,-12 22.5,-6 28.5,0 34.5,0 34.5,0 195.5,0 195.5,0 201.5,0 207.5,-6 207.5,-12 207.5,-12 207.5,-24 207.5,-24 207.5,-30 201.5,-36 195.5,-36"/>
<text text-anchor="middle" x="115" y="-15.2" font-family="Helvetica,sans-Serif" font-size="11.00">PackageSetting.setMimeGroup</text>
</g>
<!-- m::com.android.server.pm.PackageSetting.setMimeGroup:(Ljava/lang/String;Landroid/util/ArraySet;)Z&#45;&gt;__field__ -->
<g id="edge9" class="edge">
<title>m::com.android.server.pm.PackageSetting.setMimeGroup:(Ljava/lang/String;Landroid/util/ArraySet;)Z&#45;&gt;__field__</title>
<path fill="none" stroke="#dc2626" d="M207.69,-30.01C248.76,-38.08 296.68,-51.35 336,-73 372.1,-92.88 405.03,-127.81 424.79,-151.42"/>
<polygon fill="#dc2626" stroke="#dc2626" points="422.77,-153.36 430.01,-157.76 427.09,-149.8 422.77,-153.36"/>
<text text-anchor="middle" x="294" y="-75.8" font-family="Helvetica,sans-Serif" font-size="9.00" fill="#dc2626"> reads unguarded</text>
</g>
<!-- m::com.android.server.pm.PackageSetting.setMimeGroup:(Ljava/lang/String;Landroid/util/ArraySet;)Z&#45;&gt;__field__ -->
<g id="edge10" class="edge">
<title>m::com.android.server.pm.PackageSetting.setMimeGroup:(Ljava/lang/String;Landroid/util/ArraySet;)Z&#45;&gt;__field__</title>
<path fill="none" stroke="#dc2626" d="M207.71,-3.71C249.13,-1.55 297.34,-5.3 336,-26 386.37,-52.97 418.91,-114.97 434.06,-150.24"/>
<polygon fill="#dc2626" stroke="#dc2626" points="431.54,-151.45 437.2,-157.76 436.7,-149.29 431.54,-151.45"/>
<text text-anchor="middle" x="294" y="-28.8" font-family="Helvetica,sans-Serif" font-size="9.00" fill="#dc2626"> reads unguarded</text>
</g>
</g>
</svg>
