<?xml version="1.0" encoding="UTF-8" standalone="no"?>
<!DOCTYPE svg PUBLIC "-//W3C//DTD SVG 1.1//EN"
 "http://www.w3.org/Graphics/SVG/1.1/DTD/svg11.dtd">
<!-- Generated by graphviz version 2.43.0 (0)
 -->
<!-- Title: race Pages: 1 -->
<svg width="716pt" height="218pt"
 viewBox="0.00 0.00 716.00 218.00" xmlns="http://www.w3.org/2000/svg" xmlns:xlink="http://www.w3.org/1999/xlink">
<g id="graph0" class="graph" transform="scale(1 1) rotate(0) translate(4 214)">
<title>race</title>
<polygon fill="white" stroke="transparent" points="-4,4 -4,-214 712,-214 712,4 -4,4"/>
<!-- __field__ -->
<g id="node1" class="node">
<title>__field__</title>
<path fill="#fef9c3" stroke="#ca8a04" stroke-width="2" d="M696,-115C696,-115 449,-115 449,-115 443,-115 437,-109 437,-103 437,-103 437,-91 437,-91 437,-85 443,-79 449,-79 449,-79 696,-79 696,-79 702,-79 708,-85 708,-91 708,-91 708,-103 708,-103 708,-109 702,-115 696,-115"/>
<text text-anchor="middle" x="572.5" y="-94.2" font-family="Helvetica,sans-Serif" font-size="11.00">SyncStorageEngine$AuthorityInfo.backoffTime</text>
</g>
<!-- __guard__ -->
<g id="node2" class="node">
<title>__guard__</title>
<path fill="#dcfce7" stroke="#16a34a" stroke-width="2" d="M241,-210C241,-210 68,-210 68,-210 62,-210 56,-204 56,-198 56,-198 56,-186 56,-186 56,-180 62,-174 68,-174 68,-174 241,-174 241,-174 247,-174 253,-180 253,-186 253,-186 253,-198 253,-198 253,-204 247,-210 241,-210"/>
<text text-anchor="middle" x="154.5" y="-189.2" font-family="Helvetica,sans-Serif" font-size="11.00">SyncStorageEngine.mAuthorities</text>
</g>
<!-- __guard__&#45;&gt;__field__ -->
<g id="edge1" class="edge">
<title>__guard__&#45;&gt;__field__</title>
<path fill="none" stroke="#16a34a" stroke-width="1.6" d="M253.12,-174.46C271.72,-170.87 290.99,-166.96 309,-163 372.52,-149.03 444.07,-130.87 496.42,-117.14"/>
<polygon fill="#16a34a" stroke="#16a34a" stroke-width="1.6" points="497.3,-119.81 504.32,-115.06 495.87,-114.39 497.3,-119.81"/>
<text text-anchor="middle" x="373" y="-158.8" font-family="Helvetica,sans-Serif" font-size="9.00" fill="#15803d"> guards 3/4</text>
</g>
<!-- m::com.android.server.content.SyncStorageEngine$AuthorityInfo.defaultInitialisation:()V -->
<g id="node3" class="node">
<title>m::com.android.server.content.SyncStorageEngine$AuthorityInfo.defaultInitialisation:()V</title>
<path fill="#fee2e2" stroke="#dc2626" d="M297,-152C297,-152 12,-152 12,-152 6,-152 0,-146 0,-140 0,-140 0,-128 0,-128 0,-122 6,-116 12,-116 12,-116 297,-116 297,-116 303,-116 309,-122 309,-128 309,-128 309,-140 309,-140 309,-146 303,-152 297,-152"/>
<text text-anchor="middle" x="154.5" y="-131.2" font-family="Helvetica,sans-Serif" font-size="11.00">SyncStorageEngine$AuthorityInfo.defaultInitialisation</text>
</g>
<!-- m::com.android.server.content.SyncStorageEngine$AuthorityInfo.defaultInitialisation:()V&#45;&gt;__field__ -->
<g id="edge2" class="edge">
<title>m::com.android.server.content.SyncStorageEngine$AuthorityInfo.defaultInitialisation:()V&#45;&gt;__field__</title>
<path fill="none" stroke="#dc2626" d="M309.22,-120.33C348.33,-116.85 390.2,-113.13 428.73,-109.7"/>
<polygon fill="#dc2626" stroke="#dc2626" points="429.19,-112.47 436.91,-108.97 428.69,-106.89 429.19,-112.47"/>
<text text-anchor="middle" x="373" y="-119.8" font-family="Helvetica,sans-Serif" font-size="9.00" fill="#dc2626"> writes unguarded</text>
</g>
<!-- m::com.android.server.content.SyncManager.dumpSyncState:(Ljava/io/PrintWriter;Lcom/android/server/content/SyncAdapterStateFetcher;)V -->
<g id="node4" class="node">
<title>m::com.android.server.content.SyncManager.dumpSyncState:(Ljava/io/PrintWriter;Lcom/android/server/content/SyncAdapterStateFetcher;)V</title>
<path fill="#fee2e2" stroke="#dc2626" d="M232.5,-94C232.5,-94 76.5,-94 76.5,-94 70.5,-94 64.5,-88 64.5,-82 64.5,-82 64.5,-70 64.5,-70 64.5,-64 70.5,-58 76.5,-58 76.5,-58 232.5,-58 232.5,-58 238.5,-58 244.5,-64 244.5,-70 244.5,-70 244.5,-82 244.5,-82 244.5,-88 238.5,-94 232.5,-94"/>
<text text-anchor="middle" x="154.5" y="-73.2" font-family="Helvetica,sans-Serif" font-size="11.00">SyncManager.dumpSyncState</text>
</g>
<!-- m::com.android.server.content.SyncManager.dumpSyncState:(Ljava/io/PrintWriter;Lcom/android/server/content/SyncAdapterStateFetcher;)V&#45;&gt;__field__ -->
<g id="edge3" class="edge">
<title>m::com.android.server.content.SyncManager.dumpSyncState:(Ljava/io/PrintWriter;Lcom/android/server/content/SyncAdapterStateFetcher;)V&#45;&gt;__field__</title>
<path fill="none" stroke="#dc2626" d="M244.74,-80.51C298.32,-83.21 367.71,-86.71 428.76,-89.79"/>
<polygon fill="#dc2626" stroke="#dc2626" points="428.79,-92.6 436.92,-90.21 429.08,-87.01 428.79,-92.6"/>
<text text-anchor="middle" x="373" y="-90.8" font-family="Helvetica,sans-Serif" font-size="9.00" fill="#dc2626"> reads unguarded</text>
</g>
<!-- m::com.android.server.content.SyncManager.dumpSyncState:(Ljava/io/PrintWriter;Lcom/android/server/content/SyncAdapterStateFetcher;)V&#45;&gt;__field__ -->
<g id="edge4" class="edge">
<title>m::com.android.server.content.SyncManager.dumpSyncState:(Ljava/io/PrintWriter;Lcom/android/server/content/SyncAdapterStateFetcher;)V&#45;&gt;__field__</title>
<path fill="none" stroke="#dc2626" d="M244.52,-69.18C294.68,-66.53 358.43,-65.16 415,-70 434.32,-71.65 454.83,-74.44 474.42,-77.6"/>
<polygon fill="#dc2626" stroke="#dc2626" points="474.11,-80.39 482.46,-78.93 475.02,-74.86 474.11,-80.39"/>
<text text-anchor="middle" x="373" y="-72.8" font-family="Helvetica,sans-Serif" font-size="9.00" fill="#dc2626"> reads unguarded</text>
</g>
<!-- m::com.android.server.content.SyncStorageEngine$AuthorityInfo.toSafeString:()Ljava/lang/String; -->
<g id="node5" class="node">
<title>m::com.android.server.content.SyncStorageEngine$AuthorityInfo.toSafeString:()Ljava/lang/String;</title>
<path fill="#fee2e2" stroke="#dc2626" d="M278.5,-36C278.5,-36 30.5,-36 30.5,-36 24.5,-36 18.5,-30 18.5,-24 18.5,-24 18.5,-12 18.5,-12 18.5,-6 24.5,0 30.5,0 30.5,0 278.5,0 278.5,0 284.5,0 290.5,-6 290.5,-12 290.5,-12 290.5,-24 290.5,-24 290.5,-30 284.5,-36 278.5,-36"/>
<text text-anchor="middle" x="154.5" y="-15.2" font-family="Helvetica,sans-Serif" font-size="11.00">SyncStorageEngine$AuthorityInfo.toSafeString</text>
</g>
<!-- m::com.android.server.content.SyncStorageEngine$AuthorityInfo.toSafeString:()Ljava/lang/String;&#45;&gt;__field__ -->
<g id="edge5" class="edge">
<title>m::com.android.server.content.SyncStorageEngine$AuthorityInfo.toSafeString:()Ljava/lang/String;&#45;&gt;__field__</title>
<path fill="none" stroke="#dc2626" d="M290.53,-31.03C330.8,-36.03 374.88,-42.61 415,-51 446.8,-57.65 481.52,-67.58 510.17,-76.51"/>
<polygon fill="#dc2626" stroke="#dc2626" points="509.61,-79.27 518.08,-79 511.29,-73.93 509.61,-79.27"/>
<text text-anchor="middle" x="373" y="-53.8" font-family="Helvetica,sans-Serif" font-size="9.00" fill="#dc2626"> reads unguarded</text>
</g>
</g>
</svg>
