<?xml version="1.0" encoding="UTF-8" standalone="no"?>
<!DOCTYPE svg PUBLIC "-//W3C//DTD SVG 1.1//EN"
 "http://www.w3.org/Graphics/SVG/1.1/DTD/svg11.dtd">
<!-- Generated by graphviz version 2.43.0 (0)
 -->
<!-- Title: race Pages: 1 -->
<svg width="653pt" height="392pt"
 viewBox="0.00 0.00 653.00 392.00" xmlns="http://www.w3.org/2000/svg" xmlns:xlink="http://www.w3.org/1999/xlink">
<g id="graph0" class="graph" transform="scale(1 1) rotate(0) translate(4 388)">
<title>race</title>
<polygon fill="white" stroke="transparent" points="-4,4 -4,-388 649,-388 649,4 -4,4"/>
<!-- __field__ -->
<g id="node1" class="node">
<title>__field__</title>
<path fill="#fef9c3" stroke="#ca8a04" stroke-width="2" d="M633,-228C633,-228 467,-228 467,-228 461,-228 455,-222 455,-216 455,-216 455,-204 455,-204 455,-198 461,-192 467,-192 467,-192 633,-192 633,-192 639,-192 645,-198 645,-204 645,-204 645,-216 645,-216 645,-222 639,-228 633,-228"/>
<text text-anchor="middle" x="550" y="-207.2" font-family="Helvetica,sans-Serif" font-size="11.00">DeviceIdleController.mCharging</text>
</g>
<!-- __guard__ -->
<g id="node2" class="node">
<title>__guard__</title>
<path fill="#dcfce7" stroke="#16a34a" stroke-width="2" d="M241,-384C241,-384 86,-384 86,-384 80,-384 74,-378 74,-372 74,-372 74,-360 74,-360 74,-354 80,-348 86,-348 86,-348 241,-348 241,-348 247,-348 253,-354 253,-360 253,-360 253,-372 253,-372 253,-378 247,-384 241,-384"/>
<text text-anchor="middle" x="163.5" y="-363.2" font-family="Helvetica,sans-Serif" font-size="11.00">DeviceIdleController$1.this$0</text>
</g>
<!-- __guard__&#45;&gt;__field__ -->
<g id="edge1" class="edge">
<title>__guard__&#45;&gt;__field__</title>
<path fill="none" stroke="#16a34a" stroke-width="1.6" d="M253.26,-354.64C307.67,-344.97 377.31,-327.58 433,-297 465.74,-279.02 499.49,-252.67 522.08,-233.68"/>
<polygon fill="#16a34a" stroke="#16a34a" stroke-width="1.6" points="524.15,-235.59 528.44,-228.28 520.53,-231.33 524.15,-235.59"/>
<text text-anchor="middle" x="391" y="-333.8" font-family="Helvetica,sans-Serif" font-size="9.00" fill="#15803d"> guards 2/3</text>
</g>
<!-- m::com.android.server.DeviceIdleController.onStart:()V -->
<g id="node3" class="node">
<title>m::com.android.server.DeviceIdleController.onStart:()V</title>
<path fill="#fee2e2" stroke="#dc2626" d="M237,-326C237,-326 90,-326 90,-326 84,-326 78,-320 78,-314 78,-314 78,-302 78,-302 78,-296 84,-290 90,-290 90,-290 237,-290 237,-290 243,-290 249,-296 249,-302 249,-302 249,-314 249,-314 249,-320 243,-326 237,-326"/>
<text text-anchor="middle" x="163.5" y="-305.2" font-family="Helvetica,sans-Serif" font-size="11.00">DeviceIdleController.onStart</text>
</g>
<!-- m::com.android.server.DeviceIdleController.onStart:()V&#45;&gt;__field__ -->
<g id="edge2" class="edge">
<title>m::com.android.server.DeviceIdleController.onStart:()V&#45;&gt;__field__</title>
<path fill="none" stroke="#dc2626" d="M249.26,-299.57C302.77,-292.84 372.9,-281.42 433,-263 458.87,-255.07 486.47,-242.64 508.25,-231.81"/>
<polygon fill="#dc2626" stroke="#dc2626" points="509.52,-234.3 515.41,-228.2 507,-229.3 509.52,-234.3"/>
<text text-anchor="middle" x="391" y="-284.8" font-family="Helvetica,sans-Serif" font-size="9.00" fill="#dc2626"> writes unguarded</text>
</g>
<!-- m::com.android.server.DeviceIdleController.becomeInactiveIfAppropriateLocked:()V -->
<g id="node4" class="node">
<title>m::com.android.server.DeviceIdleController.becomeInactiveIfAppropriateLocked:()V</title>
<path fill="#fee2e2" stroke="#dc2626" d="M315,-268C315,-268 12,-268 12,-268 6,-268 0,-262 0,-256 0,-256 0,-244 0,-244 0,-238 6,-232 12,-232 12,-232 315,-232 315,-232 321,-232 327,-238 327,-244 327,-244 327,-256 327,-256 327,-262 321,-268 315,-268"/>
<text text-anchor="middle" x="163.5" y="-247.2" font-family="Helvetica,sans-Serif" font-size="11.00">DeviceIdleController.becomeInactiveIfAppropriateLocked</text>
</g>
<!-- m::com.android.server.DeviceIdleController.becomeInactiveIfAppropriateLocked:()V&#45;&gt;__field__ -->
<g id="edge3" class="edge">
<title>m::com.android.server.DeviceIdleController.becomeInactiveIfAppropriateLocked:()V&#45;&gt;__field__</title>
<path fill="none" stroke="#dc2626" d="M327.23,-249.58C362.25,-247.91 398.96,-244.98 433,-240 448.77,-237.69 465.5,-234.08 481.2,-230.15"/>
<polygon fill="#dc2626" stroke="#dc2626" points="482.25,-232.77 489.3,-228.07 480.85,-227.34 482.25,-232.77"/>
<text text-anchor="middle" x="391" y="-250.8" font-family="Helvetica,sans-Serif" font-size="9.00" fill="#dc2626"> reads unguarded</text>
</g>
<!-- m::com.android.server.DeviceIdleController.becomeInactiveIfAppropriateLocked:()V&#45;&gt;__field__ -->
<g id="edge4" class="edge">
<title>m::com.android.server.DeviceIdleController.becomeInactiveIfAppropriateLocked:()V&#45;&gt;__field__</title>
<path fill="none" stroke="#dc2626" d="M321,-231.98C330.47,-230.96 339.86,-229.95 349,-229 380.69,-225.69 415.22,-222.33 446.54,-219.36"/>
<polygon fill="#dc2626" stroke="#dc2626" points="447.15,-222.12 454.85,-218.58 446.62,-216.54 447.15,-222.12"/>
<text text-anchor="middle" x="391" y="-231.8" font-family="Helvetica,sans-Serif" font-size="9.00" fill="#dc2626"> reads unguarded</text>
</g>
<!-- m::com.android.server.DeviceIdleController.dump:(Ljava/io/FileDescriptor;Ljava/io/PrintWriter;[Ljava/lang/String;)V -->
<g id="node5" class="node">
<title>m::com.android.server.DeviceIdleController.dump:(Ljava/io/FileDescriptor;Ljava/io/PrintWriter;[Ljava/lang/String;)V</title>
<path fill="#fee2e2" stroke="#dc2626" d="M232,-210C232,-210 95,-210 95,-210 89,-210 83,-204 83,-198 83,-198 83,-186 83,-186 83,-180 89,-174 95,-174 95,-174 232,-174 232,-174 238,-174 244,-180 244,-186 244,-186 244,-198 244,-198 244,-204 238,-210 232,-210"/>
<text text-anchor="middle" x="163.5" y="-189.2" font-family="Helvetica,sans-Serif" font-size="11.00">DeviceIdleController.dump</text>
</g>
<!-- m::com.android.server.DeviceIdleController.dump:(Ljava/io/FileDescriptor;Ljava/io/PrintWriter;[Ljava/lang/String;)V&#45;&gt;__field__ -->
<g id="edge5" class="edge">
<title>m::com.android.server.DeviceIdleController.dump:(Ljava/io/FileDescriptor;Ljava/io/PrintWriter;[Ljava/lang/String;)V&#45;&gt;__field__</title>
<path fill="none" stroke="#dc2626" d="M244.22,-188.79C297.7,-187.43 369.68,-187.12 433,-192 437.44,-192.34 441.98,-192.76 446.55,-193.23"/>
<polygon fill="#dc2626" stroke="#dc2626" points="446.55,-196.05 454.81,-194.14 447.17,-190.48 446.55,-196.05"/>
<text text-anchor="middle" x="391" y="-194.8" font-family="Helvetica,sans-Serif" font-size="9.00" fill="#dc2626"> reads unguarded</text>
</g>
<!-- m::com.android.server.DeviceIdleController.exitForceIdleLocked:()V -->
<g id="node6" class="node">
<title>m::com.android.server.DeviceIdleController.exitForceIdleLocked:()V</title>
<path fill="#fee2e2" stroke="#dc2626" d="M271,-152C271,-152 56,-152 56,-152 50,-152 44,-146 44,-140 44,-140 44,-128 44,-128 44,-122 50,-116 56,-116 56,-116 271,-116 271,-116 277,-116 283,-122 283,-128 283,-128 283,-140 283,-140 283,-146 277,-152 271,-152"/>
<text text-anchor="middle" x="163.5" y="-131.2" font-family="Helvetica,sans-Serif" font-size="11.00">DeviceIdleController.exitForceIdleLocked</text>
</g>
<!-- m::com.android.server.DeviceIdleController.exitForceIdleLocked:()V&#45;&gt;__field__ -->
<g id="edge6" class="edge">
<title>m::com.android.server.DeviceIdleController.exitForceIdleLocked:()V&#45;&gt;__field__</title>
<path fill="none" stroke="#dc2626" d="M283.24,-146.97C330.21,-153.21 384.46,-161.81 433,-173 452.11,-177.4 472.59,-183.47 490.95,-189.42"/>
<polygon fill="#dc2626" stroke="#dc2626" points="490.21,-192.12 498.68,-191.96 491.96,-186.8 490.21,-192.12"/>
<text text-anchor="middle" x="391" y="-175.8" font-family="Helvetica,sans-Serif" font-size="9.00" fill="#dc2626"> reads unguarded</text>
</g>
<!-- m::com.android.server.DeviceIdleController.isCharging:()Z -->
<g id="node7" class="node">
<title>m::com.android.server.DeviceIdleController.isCharging:()Z</title>
<path fill="#fee2e2" stroke="#dc2626" d="M245.5,-94C245.5,-94 81.5,-94 81.5,-94 75.5,-94 69.5,-88 69.5,-82 69.5,-82 69.5,-70 69.5,-70 69.5,-64 75.5,-58 81.5,-58 81.5,-58 245.5,-58 245.5,-58 251.5,-58 257.5,-64 257.5,-70 257.5,-70 257.5,-82 257.5,-82 257.5,-88 251.5,-94 245.5,-94"/>
<text text-anchor="middle" x="163.5" y="-73.2" font-family="Helvetica,sans-Serif" font-size="11.00">DeviceIdleController.isCharging</text>
</g>
<!-- m::com.android.server.DeviceIdleController.isCharging:()Z&#45;&gt;__field__ -->
<g id="edge7" class="edge">
<title>m::com.android.server.DeviceIdleController.isCharging:()Z&#45;&gt;__field__</title>
<path fill="none" stroke="#dc2626" d="M257.86,-90.04C280.64,-94.18 304.82,-99.19 327,-105 375.27,-117.65 387.71,-121.06 433,-142 461.49,-155.17 492.05,-173.26 514.65,-187.47"/>
<polygon fill="#dc2626" stroke="#dc2626" points="513.44,-190.02 521.69,-191.94 516.44,-185.29 513.44,-190.02"/>
<text text-anchor="middle" x="391" y="-144.8" font-family="Helvetica,sans-Serif" font-size="9.00" fill="#dc2626"> reads unguarded</text>
</g>
<!-- m::com.android.server.DeviceIdleController.onShellCommand:(Lcom/android/server/DeviceIdleController$Shell;Ljava/lang/String;)I -->
<g id="node8" class="node">
<title>m::com.android.server.DeviceIdleController.onShellCommand:(Lcom/android/server/DeviceIdleController$Shell;Ljava/lang/String;)I</title>
<path fill="#fee2e2" stroke="#dc2626" d="M264.5,-36C264.5,-36 62.5,-36 62.5,-36 56.5,-36 50.5,-30 50.5,-24 50.5,-24 50.5,-12 50.5,-12 50.5,-6 56.5,0 62.5,0 62.5,0 264.5,0 264.5,0 270.5,0 276.5,-6 276.5,-12 276.5,-12 276.5,-24 276.5,-24 276.5,-30 270.5,-36 264.5,-36"/>
<text text-anchor="middle" x="163.5" y="-15.2" font-family="Helvetica,sans-Serif" font-size="11.00">DeviceIdleController.onShellCommand</text>
</g>
<!-- m::com.android.server.DeviceIdleController.onShellCommand:(Lcom/android/server/DeviceIdleController$Shell;Ljava/lang/String;)I&#45;&gt;__field__ -->
<g id="edge8" class="edge">
<title>m::com.android.server.DeviceIdleController.onShellCommand:(Lcom/android/server/DeviceIdleController$Shell;Ljava/lang/String;)I&#45;&gt;__field__</title>
<path fill="none" stroke="#dc2626" d="M276.87,-34.17C293.84,-37.72 311.01,-41.97 327,-47 376.51,-62.58 390.31,-66.49 433,-96 470.53,-121.94 506.89,-160.54 528.61,-185.5"/>
<polygon fill="#dc2626" stroke="#dc2626" points="526.73,-187.6 534.07,-191.84 530.97,-183.95 526.73,-187.6"/>
<text text-anchor="middle" x="391" y="-98.8" font-family="Helvetica,sans-Serif" font-size="9.00" fill="#dc2626"> reads unguarded</text>
</g>
</g>
</svg>
