<?xml version="1.0" encoding="UTF-8" standalone="no"?>
<!DOCTYPE svg PUBLIC "-//W3C//DTD SVG 1.1//EN"
 "http://www.w3.org/Graphics/SVG/1.1/DTD/svg11.dtd">
<!-- Generated by graphviz version 2.43.0 (0)
 -->
<!-- Title: race Pages: 1 -->
<svg width="647pt" height="316pt"
 viewBox="0.00 0.00 647.00 315.84" xmlns="http://www.w3.org/2000/svg" xmlns:xlink="http://www.w3.org/1999/xlink">
<g id="graph0" class="graph" transform="scale(1 1) rotate(0) translate(4 311.84)">
<title>race</title>
<polygon fill="white" stroke="transparent" points="-4,4 -4,-311.84 643,-311.84 643,4 -4,4"/>
<!-- __field__ -->
<g id="node1" class="node">
<title>__field__</title>
<path fill="#fef9c3" stroke="#ca8a04" stroke-width="2" d="M627,-159.84C627,-159.84 409,-159.84 409,-159.84 403,-159.84 397,-153.84 397,-147.84 397,-147.84 397,-135.84 397,-135.84 397,-129.84 403,-123.84 409,-123.84 409,-123.84 627,-123.84 627,-123.84 633,-123.84 639,-129.84 639,-135.84 639,-135.84 639,-147.84 639,-147.84 639,-153.84 633,-159.84 627,-159.84"/>
<text text-anchor="middle" x="518" y="-139.04" font-family="Helvetica,sans-Serif" font-size="11.00">PackageInstaller$SessionParams.appIcon</text>
</g>
<!-- __guard__ -->
<g id="node2" class="node">
<title>__guard__</title>
<path fill="#dcfce7" stroke="#16a34a" stroke-width="2" d="M227,-307.84C227,-307.84 42,-307.84 42,-307.84 36,-307.84 30,-301.84 30,-295.84 30,-295.84 30,-283.84 30,-283.84 30,-277.84 36,-271.84 42,-271.84 42,-271.84 227,-271.84 227,-271.84 233,-271.84 239,-277.84 239,-283.84 239,-283.84 239,-295.84 239,-295.84 239,-301.84 233,-307.84 227,-307.84"/>
<text text-anchor="middle" x="134.5" y="-287.04" font-family="Helvetica,sans-Serif" font-size="11.00">PackageInstallerService.mSessions</text>
</g>
<!-- __guard__&#45;&gt;__field__ -->
<g id="edge1" class="edge">
<title>__guard__&#45;&gt;__field__</title>
<path fill="none" stroke="#16a34a" stroke-width="1.6" d="M239.07,-282.95C282.42,-277.34 332.5,-267.19 375,-248.84 421.44,-228.78 466.61,-190.56 493.1,-165.65"/>
<polygon fill="#16a34a" stroke="#16a34a" stroke-width="1.6" points="495.25,-167.47 499.11,-159.93 491.38,-163.42 495.25,-167.47"/>
<text text-anchor="middle" x="333" y="-276.64" font-family="Helvetica,sans-Serif" font-size="9.00" fill="#15803d"> guards 3/4</text>
</g>
<!-- m::com.android.server.pm.PackageInstallerService.createSessionInternal:(Landroid/content/pm/PackageInstaller$SessionParams;Ljava/lang/String;Ljava/lang/String;II)I -->
<g id="node3" class="node">
<title>m::com.android.server.pm.PackageInstallerService.createSessionInternal:(Landroid/content/pm/PackageInstaller$SessionParams;Ljava/lang/String;Ljava/lang/String;II)I</title>
<path fill="#fee2e2" stroke="#dc2626" d="M257,-215.84C257,-215.84 12,-215.84 12,-215.84 6,-215.84 0,-209.84 0,-203.84 0,-203.84 0,-191.84 0,-191.84 0,-185.84 6,-179.84 12,-179.84 12,-179.84 257,-179.84 257,-179.84 263,-179.84 269,-185.84 269,-191.84 269,-191.84 269,-203.84 269,-203.84 269,-209.84 263,-215.84 257,-215.84"/>
<text text-anchor="middle" x="134.5" y="-195.04" font-family="Helvetica,sans-Serif" font-size="11.00">PackageInstallerService.createSessionInternal</text>
</g>
<!-- m::com.android.server.pm.PackageInstallerService.createSessionInternal:(Landroid/content/pm/PackageInstaller$SessionParams;Ljava/lang/String;Ljava/lang/String;II)I&#45;&gt;__field__ -->
<g id="edge2" class="edge">
<title>m::com.android.server.pm.PackageInstallerService.createSessionInternal:(Landroid/content/pm/PackageInstaller$SessionParams;Ljava/lang/String;Ljava/lang/String;II)I&#45;&gt;__field__</title>
<path fill="none" stroke="#dc2626" d="M188.7,-215.89C237.83,-229.85 312.43,-244.13 375,-226.84 418.15,-214.91 461.37,-186.02 488.6,-165.23"/>
<polygon fill="#dc2626" stroke="#dc2626" points="490.56,-167.25 495.16,-160.13 487.13,-162.82 490.56,-167.25"/>
<text text-anchor="middle" x="333" y="-236.64" font-family="Helvetica,sans-Serif" font-size="9.00" fill="#dc2626"> writes unguarded</text>
</g>
<!-- m::com.android.server.pm.PackageInstallerService.createSessionInternal:(Landroid/content/pm/PackageInstaller$SessionParams;Ljava/lang/String;Ljava/lang/String;II)I&#45;&gt;__field__ -->
<g id="edge3" class="edge">
<title>m::com.android.server.pm.PackageInstallerService.createSessionInternal:(Landroid/content/pm/PackageInstaller$SessionParams;Ljava/lang/String;Ljava/lang/String;II)I&#45;&gt;__field__</title>
<path fill="none" stroke="#dc2626" d="M269.25,-200.27C303.91,-199.02 341.03,-196.01 375,-189.84 406.23,-184.16 439.93,-173 466.66,-162.87"/>
<polygon fill="#dc2626" stroke="#dc2626" points="467.9,-165.39 474.36,-159.9 465.89,-160.16 467.9,-165.39"/>
<text text-anchor="middle" x="333" y="-201.64" font-family="Helvetica,sans-Serif" font-size="9.00" fill="#dc2626"> reads unguarded</text>
</g>
<!-- m::com.android.server.pm.PackageInstallerService.createSessionInternal:(Landroid/content/pm/PackageInstaller$SessionParams;Ljava/lang/String;Ljava/lang/String;II)I&#45;&gt;__field__ -->
<g id="edge4" class="edge">
<title>m::com.android.server.pm.PackageInstallerService.createSessionInternal:(Landroid/content/pm/PackageInstaller$SessionParams;Ljava/lang/String;Ljava/lang/String;II)I&#45;&gt;__field__</title>
<path fill="none" stroke="#dc2626" d="M258.31,-179.81C299.95,-173.7 346.56,-166.85 388.63,-160.68"/>
<polygon fill="#dc2626" stroke="#dc2626" points="389.19,-163.43 396.7,-159.49 388.38,-157.89 389.19,-163.43"/>
<text text-anchor="middle" x="333" y="-177.64" font-family="Helvetica,sans-Serif" font-size="9.00" fill="#dc2626"> reads unguarded</text>
</g>
<!-- m::com.android.server.pm.PackageInstallerService.createSessionInternal:(Landroid/content/pm/PackageInstaller$SessionParams;Ljava/lang/String;Ljava/lang/String;II)I&#45;&gt;__field__ -->
<g id="edge5" class="edge">
<title>m::com.android.server.pm.PackageInstallerService.createSessionInternal:(Landroid/content/pm/PackageInstaller$SessionParams;Ljava/lang/String;Ljava/lang/String;II)I&#45;&gt;__field__</title>
<path fill="none" stroke="#dc2626" d="M179.9,-179.83C210.56,-168.33 252.56,-154.39 291,-147.84 322.39,-142.49 356.58,-139.92 388.64,-138.92"/>
<polygon fill="#dc2626" stroke="#dc2626" points="388.83,-141.72 396.75,-138.7 388.67,-136.12 388.83,-141.72"/>
<text text-anchor="middle" x="333" y="-150.64" font-family="Helvetica,sans-Serif" font-size="9.00" fill="#dc2626"> reads unguarded</text>
</g>
<!-- m::com.android.server.pm.PackageInstallerSession.generateInfoInternal:(ZZ)Landroid/content/pm/PackageInstaller$SessionInfo; -->
<g id="node4" class="node">
<title>m::com.android.server.pm.PackageInstallerSession.generateInfoInternal:(ZZ)Landroid/content/pm/PackageInstaller$SessionInfo;</title>
<path fill="#fee2e2" stroke="#dc2626" d="M254,-122.84C254,-122.84 15,-122.84 15,-122.84 9,-122.84 3,-116.84 3,-110.84 3,-110.84 3,-98.84 3,-98.84 3,-92.84 9,-86.84 15,-86.84 15,-86.84 254,-86.84 254,-86.84 260,-86.84 266,-92.84 266,-98.84 266,-98.84 266,-110.84 266,-110.84 266,-116.84 260,-122.84 254,-122.84"/>
<text text-anchor="middle" x="134.5" y="-102.04" font-family="Helvetica,sans-Serif" font-size="11.00">PackageInstallerSession.generateInfoInternal</text>
</g>
<!-- m::com.android.server.pm.PackageInstallerSession.generateInfoInternal:(ZZ)Landroid/content/pm/PackageInstaller$SessionInfo;&#45;&gt;__field__ -->
<g id="edge6" class="edge">
<title>m::com.android.server.pm.PackageInstallerSession.generateInfoInternal:(ZZ)Landroid/content/pm/PackageInstaller$SessionInfo;&#45;&gt;__field__</title>
<path fill="none" stroke="#dc2626" d="M266.09,-98.82C301.54,-98.83 339.84,-100.33 375,-104.84 401.11,-108.18 429.27,-114.85 453.58,-121.62"/>
<polygon fill="#dc2626" stroke="#dc2626" points="452.87,-124.33 461.33,-123.82 454.39,-118.94 452.87,-124.33"/>
<text text-anchor="middle" x="333" y="-107.64" font-family="Helvetica,sans-Serif" font-size="9.00" fill="#dc2626"> reads unguarded</text>
</g>
<!-- m::com.android.server.pm.PackageInstallerSession.write:(Lcom/android/modules/utils/TypedXmlSerializer;Ljava/io/File;)V -->
<g id="node5" class="node">
<title>m::com.android.server.pm.PackageInstallerSession.write:(Lcom/android/modules/utils/TypedXmlSerializer;Ljava/io/File;)V</title>
<path fill="#fee2e2" stroke="#dc2626" d="M212,-48.84C212,-48.84 57,-48.84 57,-48.84 51,-48.84 45,-42.84 45,-36.84 45,-36.84 45,-24.84 45,-24.84 45,-18.84 51,-12.84 57,-12.84 57,-12.84 212,-12.84 212,-12.84 218,-12.84 224,-18.84 224,-24.84 224,-24.84 224,-36.84 224,-36.84 224,-42.84 218,-48.84 212,-48.84"/>
<text text-anchor="middle" x="134.5" y="-28.04" font-family="Helvetica,sans-Serif" font-size="11.00">PackageInstallerSession.write</text>
</g>
<!-- m::com.android.server.pm.PackageInstallerSession.write:(Lcom/android/modules/utils/TypedXmlSerializer;Ljava/io/File;)V&#45;&gt;__field__ -->
<g id="edge7" class="edge">
<title>m::com.android.server.pm.PackageInstallerSession.write:(Lcom/android/modules/utils/TypedXmlSerializer;Ljava/io/File;)V&#45;&gt;__field__</title>
<path fill="none" stroke="#dc2626" d="M224.03,-46.69C269.62,-55.79 325.82,-68.47 375,-83.84 407.53,-94 443.02,-108.49 470.38,-120.45"/>
<polygon fill="#dc2626" stroke="#dc2626" points="469.42,-123.09 477.87,-123.75 471.68,-117.96 469.42,-123.09"/>
<text text-anchor="middle" x="333" y="-86.64" font-family="Helvetica,sans-Serif" font-size="9.00" fill="#dc2626"> reads unguarded</text>
</g>
<!-- m::com.android.server.pm.PackageInstallerSession.write:(Lcom/android/modules/utils/TypedXmlSerializer;Ljava/io/File;)V&#45;&gt;__field__ -->
<g id="edge8" class="edge">
<title>m::com.android.server.pm.PackageInstallerSession.write:(Lcom/android/modules/utils/TypedXmlSerializer;Ljava/io/File;)V&#45;&gt;__field__</title>
<path fill="none" stroke="#dc2626" d="M224.1,-25.93C270.22,-26.05 326.87,-30.45 375,-46.84 419.97,-62.15 464.25,-95.48 491.1,-118.3"/>
<polygon fill="#dc2626" stroke="#dc2626" points="489.33,-120.47 497.22,-123.57 492.99,-116.22 489.33,-120.47"/>
<text text-anchor="middle" x="333" y="-49.64" font-family="Helvetica,sans-Serif" font-size="9.00" fill="#dc2626"> reads unguarded</text>
</g>
<!-- m::com.android.server.pm.PackageInstallerSession.write:(Lcom/android/modules/utils/TypedXmlSerializer;Ljava/io/File;)V&#45;&gt;__field__ -->
<g id="edge9" class="edge">
<title>m::com.android.server.pm.PackageInstallerSession.write:(Lcom/android/modules/utils/TypedXmlSerializer;Ljava/io/File;)V&#45;&gt;__field__</title>
<path fill="none" stroke="#dc2626" d="M195.41,-12.79C245.16,-1.01 316.92,8.48 375,-13.84 428.86,-34.53 475.06,-86.15 499.16,-117.15"/>
<polygon fill="#dc2626" stroke="#dc2626" points="497.16,-119.14 504.24,-123.8 501.61,-115.75 497.16,-119.14"/>
<text text-anchor="middle" x="333" y="-16.64" font-family="Helvetica,sans-Serif" font-size="9.00" fill="#dc2626"> reads unguarded</text>
</g>
</g>
</svg>
