<?xml version="1.0" encoding="UTF-8" standalone="no"?>
<!DOCTYPE svg PUBLIC "-//W3C//DTD SVG 1.1//EN"
 "http://www.w3.org/Graphics/SVG/1.1/DTD/svg11.dtd">
<!-- Generated by graphviz version 2.43.0 (0)
 -->
<!-- Title: race Pages: 1 -->
<svg width="658pt" height="102pt"
 viewBox="0.00 0.00 658.00 102.00" xmlns="http://www.w3.org/2000/svg" xmlns:xlink="http://www.w3.org/1999/xlink">
<g id="graph0" class="graph" transform="scale(1 1) rotate(0) translate(4 98)">
<title>race</title>
<polygon fill="white" stroke="transparent" points="-4,4 -4,-98 654,-98 654,4 -4,4"/>
<!-- __field__ -->
<g id="node1" class="node">
<title>__field__</title>
<path fill="#fef9c3" stroke="#ca8a04" stroke-width="2" d="M638,-65C638,-65 391,-65 391,-65 385,-65 379,-59 379,-53 379,-53 379,-41 379,-41 379,-35 385,-29 391,-29 391,-29 638,-29 638,-29 644,-29 650,-35 650,-41 650,-41 650,-53 650,-53 650,-59 644,-65 638,-65"/>
<text text-anchor="middle" x="514.5" y="-44.2" font-family="Helvetica,sans-Serif" font-size="11.00">BatteryStats$PackageChange.mPackageName</text>
</g>
<!-- __guard__ -->
<g id="node2" class="node">
<title>__guard__</title>
<path fill="#dcfce7" stroke="#16a34a" stroke-width="2" d="M184,-94C184,-94 67,-94 67,-94 61,-94 55,-88 55,-82 55,-82 55,-70 55,-70 55,-64 61,-58 67,-58 67,-58 184,-58 184,-58 190,-58 196,-64 196,-70 196,-70 196,-82 196,-82 196,-88 190,-94 184,-94"/>
<text text-anchor="middle" x="125.5" y="-73.2" font-family="Helvetica,sans-Serif" font-size="11.00">stats.BatteryStatsImpl</text>
</g>
<!-- __guard__&#45;&gt;__field__ -->
<g id="edge1" class="edge">
<title>__guard__&#45;&gt;__field__</title>
<path fill="none" stroke="#16a34a" stroke-width="1.6" d="M196.13,-70.78C244.66,-67.15 311.12,-62.17 370.68,-57.7"/>
<polygon fill="#16a34a" stroke="#16a34a" stroke-width="1.6" points="370.89,-60.49 378.66,-57.1 370.47,-54.91 370.89,-60.49"/>
<text text-anchor="middle" x="315" y="-66.8" font-family="Helvetica,sans-Serif" font-size="9.00" fill="#15803d"> guards 4/5</text>
</g>
<!-- m::com.android.server.power.stats.BatteryStatsImpl.readSummaryFromParcel:(Landroid/os/Parcel;)V -->
<g id="node3" class="node">
<title>m::com.android.server.power.stats.BatteryStatsImpl.readSummaryFromParcel:(Landroid/os/Parcel;)V</title>
<path fill="#fee2e2" stroke="#dc2626" d="M239,-36C239,-36 12,-36 12,-36 6,-36 0,-30 0,-24 0,-24 0,-12 0,-12 0,-6 6,0 12,0 12,0 239,0 239,0 245,0 251,-6 251,-12 251,-12 251,-24 251,-24 251,-30 245,-36 239,-36"/>
<text text-anchor="middle" x="125.5" y="-15.2" font-family="Helvetica,sans-Serif" font-size="11.00">BatteryStatsImpl.readSummaryFromParcel</text>
</g>
<!-- m::com.android.server.power.stats.BatteryStatsImpl.readSummaryFromParcel:(Landroid/os/Parcel;)V&#45;&gt;__field__ -->
<g id="edge2" class="edge">
<title>m::com.android.server.power.stats.BatteryStatsImpl.readSummaryFromParcel:(Landroid/os/Parcel;)V&#45;&gt;__field__</title>
<path fill="none" stroke="#dc2626" d="M251.08,-27.34C289.14,-30.19 331.29,-33.35 370.48,-36.28"/>
<polygon fill="#dc2626" stroke="#dc2626" points="370.6,-39.1 378.79,-36.91 371.02,-33.52 370.6,-39.1"/>
<text text-anchor="middle" x="315" y="-37.8" font-family="Helvetica,sans-Serif" font-size="9.00" fill="#dc2626"> writes unguarded</text>
</g>
</g>
</svg>
