<?xml version="1.0" encoding="UTF-8" standalone="no"?>
<!DOCTYPE svg PUBLIC "-//W3C//DTD SVG 1.1//EN"
 "http://www.w3.org/Graphics/SVG/1.1/DTD/svg11.dtd">
<!-- Generated by graphviz version 2.43.0 (0)
 -->
<!-- Title: race Pages: 1 -->
<svg width="649pt" height="102pt"
 viewBox="0.00 0.00 649.00 102.00" xmlns="http://www.w3.org/2000/svg" xmlns:xlink="http://www.w3.org/1999/xlink">
<g id="graph0" class="graph" transform="scale(1 1) rotate(0) translate(4 98)">
<title>race</title>
<polygon fill="white" stroke="transparent" points="-4,4 -4,-98 645,-98 645,4 -4,4"/>
<!-- __field__ -->
<g id="node1" class="node">
<title>__field__</title>
<path fill="#fef9c3" stroke="#ca8a04" stroke-width="2" d="M629,-65C629,-65 391,-65 391,-65 385,-65 379,-59 379,-53 379,-53 379,-41 379,-41 379,-35 385,-29 391,-29 391,-29 629,-29 629,-29 635,-29 641,-35 641,-41 641,-41 641,-53 641,-53 641,-59 635,-65 629,-65"/>
<text text-anchor="middle" x="510" y="-44.2" font-family="Helvetica,sans-Serif" font-size="11.00">BatteryStats$PackageChange.mVersionCode</text>
</g>
<!-- __guard__ -->
<g id="node2" class="node">
<title>__guard__</title>
<path fill="#dcfce7" stroke="#16a34a" stroke-width="2" d="M184,-94C184,-94 67,-94 67,-94 61,-94 55,-88 55,-82 55,-82 55,-70 55,-70 55,-64 61,-58 67,-58 67,-58 184,-58 184,-58 190,-58 196,-64 196,-70 196,-70 196,-82 196,-82 196,-88 190,-94 184,-94"/>
<text text-anchor="middle" x="125.5" y="-73.2" font-family="Helvetica,sans-Serif" font-size="11.00">stats.BatteryStatsImpl</text>
</g>
<!-- __guard__&#45;&gt;__field__ -->
<g id="edge1" class="edge">
<title>__guard__&#45;&gt;__field__</title>
<path fill="none" stroke="#16a34a" stroke-width="1.6" d="M196.21,-70.71C244.78,-67.03 311.21,-62 370.35,-57.51"/>
<polygon fill="#16a34a" stroke="#16a34a" stroke-width="1.6" points="370.88,-60.28 378.65,-56.88 370.46,-54.7 370.88,-60.28"/>
<text text-anchor="middle" x="315" y="-66.8" font-family="Helvetica,sans-Serif" font-size="9.00" fill="#15803d"> guards 2/3</text>
</g>
<!-- m::com.android.server.power.stats.BatteryStatsImpl.readSummaryFromParcel:(Landroid/os/Parcel;)V -->
<g id="node3" class="node">
<title>m::com.android.server.power.stats.BatteryStatsImpl.readSummaryFromParcel:(Landroid/os/Parcel;)V</title>
<path fill="#fee2e2" stroke="#dc2626" d="M239,-36C239,-36 12,-36 12,-36 6,-36 0,-30 0,-24 0,-24 0,-12 0,-12 0,-6 6,0 12,0 12,0 239,0 239,0 245,0 251,-6 251,-12 251,-12 251,-24 251,-24 251,-30 245,-36 239,-36"/>
<text text-anchor="middle" x="125.5" y="-15.2" font-family="Helvetica,sans-Serif" font-size="11.00">BatteryStatsImpl.readSummaryFromParcel</text>
</g>
<!-- m::com.android.server.power.stats.BatteryStatsImpl.readSummaryFromParcel:(Landroid/os/Parcel;)V&#45;&gt;__field__ -->
<g id="edge2" class="edge">
<title>m::com.android.server.power.stats.BatteryStatsImpl.readSummaryFromParcel:(Landroid/os/Parcel;)V&#45;&gt;__field__</title>
<path fill="none" stroke="#dc2626" d="M251.22,-27.46C289.38,-30.35 331.58,-33.55 370.59,-36.51"/>
<polygon fill="#dc2626" stroke="#dc2626" points="370.68,-39.32 378.87,-37.13 371.1,-33.74 370.68,-39.32"/>
<text text-anchor="middle" x="315" y="-37.8" font-family="Helvetica,sans-Serif" font-size="9.00" fill="#dc2626"> writes unguarded</text>
</g>
</g>
</svg>
