<?xml version="1.0" encoding="UTF-8" standalone="no"?>
<!DOCTYPE svg PUBLIC "-//W3C//DTD SVG 1.1//EN"
 "http://www.w3.org/Graphics/SVG/1.1/DTD/svg11.dtd">
<!-- Generated by graphviz version 2.43.0 (0)
 -->
<!-- Title: race Pages: 1 -->
<svg width="737pt" height="160pt"
 viewBox="0.00 0.00 737.00 160.00" xmlns="http://www.w3.org/2000/svg" xmlns:xlink="http://www.w3.org/1999/xlink">
<g id="graph0" class="graph" transform="scale(1 1) rotate(0) translate(4 156)">
<title>race</title>
<polygon fill="white" stroke="transparent" points="-4,4 -4,-156 733,-156 733,4 -4,4"/>
<!-- __field__ -->
<g id="node1" class="node">
<title>__field__</title>
<path fill="#fef9c3" stroke="#ca8a04" stroke-width="2" d="M717,-94C717,-94 504,-94 504,-94 498,-94 492,-88 492,-82 492,-82 492,-70 492,-70 492,-64 498,-58 504,-58 504,-58 717,-58 717,-58 723,-58 729,-64 729,-70 729,-70 729,-82 729,-82 729,-88 723,-94 717,-94"/>
<text text-anchor="middle" x="610.5" y="-73.2" font-family="Helvetica,sans-Serif" font-size="11.00">SecurityLogMonitor.mAllowedToRetrieve</text>
</g>
<!-- __guard__ -->
<g id="node2" class="node">
<title>__guard__</title>
<path fill="#dcfce7" stroke="#16a34a" stroke-width="2" d="M250.5,-152C250.5,-152 113.5,-152 113.5,-152 107.5,-152 101.5,-146 101.5,-140 101.5,-140 101.5,-128 101.5,-128 101.5,-122 107.5,-116 113.5,-116 113.5,-116 250.5,-116 250.5,-116 256.5,-116 262.5,-122 262.5,-128 262.5,-128 262.5,-140 262.5,-140 262.5,-146 256.5,-152 250.5,-152"/>
<text text-anchor="middle" x="182" y="-131.2" font-family="Helvetica,sans-Serif" font-size="11.00">SecurityLogMonitor.mLock</text>
</g>
<!-- __guard__&#45;&gt;__field__ -->
<g id="edge1" class="edge">
<title>__guard__&#45;&gt;__field__</title>
<path fill="none" stroke="#16a34a" stroke-width="1.6" d="M262.72,-123.16C324.82,-114.71 412.2,-102.83 483.71,-93.11"/>
<polygon fill="#16a34a" stroke="#16a34a" stroke-width="1.6" points="484.36,-95.84 491.91,-91.99 483.6,-90.29 484.36,-95.84"/>
<text text-anchor="middle" x="428" y="-107.8" font-family="Helvetica,sans-Serif" font-size="9.00" fill="#15803d"> guards 4/6</text>
</g>
<!-- m::com.android.server.devicepolicy.SecurityLogMonitor.notifyDeviceOwnerOrProfileOwnerIfNeeded:(Z)V -->
<g id="node3" class="node">
<title>m::com.android.server.devicepolicy.SecurityLogMonitor.notifyDeviceOwnerOrProfileOwnerIfNeeded:(Z)V</title>
<path fill="#fee2e2" stroke="#dc2626" d="M352,-94C352,-94 12,-94 12,-94 6,-94 0,-88 0,-82 0,-82 0,-70 0,-70 0,-64 6,-58 12,-58 12,-58 352,-58 352,-58 358,-58 364,-64 364,-70 364,-70 364,-82 364,-82 364,-88 358,-94 352,-94"/>
<text text-anchor="middle" x="182" y="-73.2" font-family="Helvetica,sans-Serif" font-size="11.00">SecurityLogMonitor.notifyDeviceOwnerOrProfileOwnerIfNeeded</text>
</g>
<!-- m::com.android.server.devicepolicy.SecurityLogMonitor.notifyDeviceOwnerOrProfileOwnerIfNeeded:(Z)V&#45;&gt;__field__ -->
<g id="edge2" class="edge">
<title>m::com.android.server.devicepolicy.SecurityLogMonitor.notifyDeviceOwnerOrProfileOwnerIfNeeded:(Z)V&#45;&gt;__field__</title>
<path fill="none" stroke="#dc2626" d="M364.18,-76C404.37,-76 446.1,-76 483.51,-76"/>
<polygon fill="#dc2626" stroke="#dc2626" points="483.92,-78.8 491.92,-76 483.92,-73.2 483.92,-78.8"/>
<text text-anchor="middle" x="428" y="-78.8" font-family="Helvetica,sans-Serif" font-size="9.00" fill="#dc2626"> writes unguarded</text>
</g>
<!-- m::com.android.server.devicepolicy.SecurityLogMonitor.notifyDeviceOwnerOrProfileOwnerIfNeeded:(Z)V&#45;&gt;__field__ -->
<g id="edge4" class="edge">
<title>m::com.android.server.devicepolicy.SecurityLogMonitor.notifyDeviceOwnerOrProfileOwnerIfNeeded:(Z)V&#45;&gt;__field__</title>
<path fill="none" stroke="#dc2626" d="M364.04,-60.72C399.19,-59.4 435.75,-59.16 470,-61 474.6,-61.25 479.28,-61.54 484,-61.87"/>
<polygon fill="#dc2626" stroke="#dc2626" points="483.8,-64.66 491.98,-62.46 484.21,-59.08 483.8,-64.66"/>
<text text-anchor="middle" x="428" y="-63.8" font-family="Helvetica,sans-Serif" font-size="9.00" fill="#dc2626"> reads unguarded</text>
</g>
<!-- m::com.android.server.devicepolicy.SecurityLogMonitor.resume:()V -->
<g id="node4" class="node">
<title>m::com.android.server.devicepolicy.SecurityLogMonitor.resume:()V</title>
<path fill="#fee2e2" stroke="#dc2626" d="M253.5,-36C253.5,-36 110.5,-36 110.5,-36 104.5,-36 98.5,-30 98.5,-24 98.5,-24 98.5,-12 98.5,-12 98.5,-6 104.5,0 110.5,0 110.5,0 253.5,0 253.5,0 259.5,0 265.5,-6 265.5,-12 265.5,-12 265.5,-24 265.5,-24 265.5,-30 259.5,-36 253.5,-36"/>
<text text-anchor="middle" x="182" y="-15.2" font-family="Helvetica,sans-Serif" font-size="11.00">SecurityLogMonitor.resume</text>
</g>
<!-- m::com.android.server.devicepolicy.SecurityLogMonitor.resume:()V&#45;&gt;__field__ -->
<g id="edge3" class="edge">
<title>m::com.android.server.devicepolicy.SecurityLogMonitor.resume:()V&#45;&gt;__field__</title>
<path fill="none" stroke="#dc2626" d="M265.63,-22.52C323.18,-26.39 401.57,-33.1 470,-44 490.04,-47.19 511.49,-51.6 531.41,-56.13"/>
<polygon fill="#dc2626" stroke="#dc2626" points="530.83,-58.87 539.25,-57.94 532.09,-53.41 530.83,-58.87"/>
<text text-anchor="middle" x="428" y="-46.8" font-family="Helvetica,sans-Serif" font-size="9.00" fill="#dc2626"> writes unguarded</text>
</g>
</g>
</svg>
