<?xml version="1.0" encoding="UTF-8" standalone="no"?>
<!DOCTYPE svg PUBLIC "-//W3C//DTD SVG 1.1//EN"
 "http://www.w3.org/Graphics/SVG/1.1/DTD/svg11.dtd">
<!-- Generated by graphviz version 2.43.0 (0)
 -->
<!-- Title: race Pages: 1 -->
<svg width="701pt" height="807pt"
 viewBox="0.00 0.00 701.00 807.02" xmlns="http://www.w3.org/2000/svg" xmlns:xlink="http://www.w3.org/1999/xlink">
<g id="graph0" class="graph" transform="scale(1 1) rotate(0) translate(4 803.02)">
<title>race</title>
<polygon fill="white" stroke="transparent" points="-4,4 -4,-803.02 697,-803.02 697,4 -4,4"/>
<!-- __field__ -->
<g id="node1" class="node">
<title>__field__</title>
<path fill="#fef9c3" stroke="#ca8a04" stroke-width="2" d="M681,-500C681,-500 589,-500 589,-500 583,-500 577,-494 577,-488 577,-488 577,-476 577,-476 577,-470 583,-464 589,-464 589,-464 681,-464 681,-464 687,-464 693,-470 693,-476 693,-476 693,-488 693,-488 693,-494 687,-500 681,-500"/>
<text text-anchor="middle" x="635" y="-479.2" font-family="Helvetica,sans-Serif" font-size="11.00">UserInfo.userType</text>
</g>
<!-- __guard__ -->
<g id="node2" class="node">
<title>__guard__</title>
<path fill="#dcfce7" stroke="#16a34a" stroke-width="2" d="M313,-796C313,-796 136,-796 136,-796 130,-796 124,-790 124,-784 124,-784 124,-772 124,-772 124,-766 130,-760 136,-760 136,-760 313,-760 313,-760 319,-760 325,-766 325,-772 325,-772 325,-784 325,-784 325,-790 319,-796 313,-796"/>
<text text-anchor="middle" x="224.5" y="-775.2" font-family="Helvetica,sans-Serif" font-size="11.00">UserManagerService.mUsersLock</text>
</g>
<!-- __guard__&#45;&gt;__field__ -->
<g id="edge1" class="edge">
<title>__guard__&#45;&gt;__field__</title>
<path fill="none" stroke="#16a34a" stroke-width="1.6" d="M323.91,-796.02C395.76,-803.33 491.35,-800.15 555,-748 592.72,-717.09 620.19,-568.68 630.03,-507.97"/>
<polygon fill="#16a34a" stroke="#16a34a" stroke-width="1.6" points="632.81,-508.35 631.3,-500 627.28,-507.46 632.81,-508.35"/>
<text text-anchor="middle" x="513" y="-788.8" font-family="Helvetica,sans-Serif" font-size="9.00" fill="#15803d"> guards 4/5</text>
</g>
<!-- m::com.android.server.pm.UserManagerService.emulateSystemUserModeIfNeeded:()V -->
<g id="node3" class="node">
<title>m::com.android.server.pm.UserManagerService.emulateSystemUserModeIfNeeded:()V</title>
<path fill="#fee2e2" stroke="#dc2626" d="M375,-732C375,-732 74,-732 74,-732 68,-732 62,-726 62,-720 62,-720 62,-708 62,-708 62,-702 68,-696 74,-696 74,-696 375,-696 375,-696 381,-696 387,-702 387,-708 387,-708 387,-720 387,-720 387,-726 381,-732 375,-732"/>
<text text-anchor="middle" x="224.5" y="-711.2" font-family="Helvetica,sans-Serif" font-size="11.00">UserManagerService.emulateSystemUserModeIfNeeded</text>
</g>
<!-- m::com.android.server.pm.UserManagerService.emulateSystemUserModeIfNeeded:()V&#45;&gt;__field__ -->
<g id="edge2" class="edge">
<title>m::com.android.server.pm.UserManagerService.emulateSystemUserModeIfNeeded:()V&#45;&gt;__field__</title>
<path fill="none" stroke="#dc2626" d="M387.38,-731.81C456.64,-735.96 527.8,-734.5 555,-715 622.11,-666.89 632.91,-558.57 634.18,-508.41"/>
<polygon fill="#dc2626" stroke="#dc2626" points="636.98,-508.36 634.31,-500.32 631.38,-508.27 636.98,-508.36"/>
<text text-anchor="middle" x="513" y="-735.8" font-family="Helvetica,sans-Serif" font-size="9.00" fill="#dc2626"> writes unguarded</text>
</g>
<!-- m::com.android.server.pm.UserManagerService.emulateSystemUserModeIfNeeded:()V&#45;&gt;__field__ -->
<g id="edge12" class="edge">
<title>m::com.android.server.pm.UserManagerService.emulateSystemUserModeIfNeeded:()V&#45;&gt;__field__</title>
<path fill="none" stroke="#dc2626" d="M387.26,-711.69C456.73,-707.63 528.11,-698.37 555,-678 609.56,-636.67 626.55,-551.49 631.76,-508.32"/>
<polygon fill="#dc2626" stroke="#dc2626" points="634.55,-508.53 632.65,-500.27 628.99,-507.91 634.55,-508.53"/>
<text text-anchor="middle" x="513" y="-705.8" font-family="Helvetica,sans-Serif" font-size="9.00" fill="#dc2626"> reads unguarded</text>
</g>
<!-- m::com.android.server.pm.UserManagerService.emulateSystemUserModeIfNeeded:()V&#45;&gt;__field__ -->
<g id="edge13" class="edge">
<title>m::com.android.server.pm.UserManagerService.emulateSystemUserModeIfNeeded:()V&#45;&gt;__field__</title>
<path fill="none" stroke="#dc2626" d="M387.13,-703.96C408.44,-699.5 429.6,-693.37 449,-685 460.6,-679.99 459.97,-673.16 471,-667 505.49,-647.75 525.23,-663.96 555,-638 595.24,-602.9 617.48,-542.39 627.46,-507.95"/>
<polygon fill="#dc2626" stroke="#dc2626" points="630.17,-508.66 629.62,-500.2 624.77,-507.15 630.17,-508.66"/>
<text text-anchor="middle" x="513" y="-669.8" font-family="Helvetica,sans-Serif" font-size="9.00" fill="#dc2626"> reads unguarded</text>
</g>
<!-- m::com.android.server.am.BroadcastQueueImpl.logBootCompletedBroadcastCompletionLatencyIfPossible:(Lcom/android/server/am/BroadcastRecord;)V -->
<g id="node4" class="node">
<title>m::com.android.server.am.BroadcastQueueImpl.logBootCompletedBroadcastCompletionLatencyIfPossible:(Lcom/android/server/am/BroadcastRecord;)V</title>
<path fill="#fee2e2" stroke="#dc2626" d="M437,-674C437,-674 12,-674 12,-674 6,-674 0,-668 0,-662 0,-662 0,-650 0,-650 0,-644 6,-638 12,-638 12,-638 437,-638 437,-638 443,-638 449,-644 449,-650 449,-650 449,-662 449,-662 449,-668 443,-674 437,-674"/>
<text text-anchor="middle" x="224.5" y="-653.2" font-family="Helvetica,sans-Serif" font-size="11.00">BroadcastQueueImpl.logBootCompletedBroadcastCompletionLatencyIfPossible</text>
</g>
<!-- m::com.android.server.am.BroadcastQueueImpl.logBootCompletedBroadcastCompletionLatencyIfPossible:(Lcom/android/server/am/BroadcastRecord;)V&#45;&gt;__field__ -->
<g id="edge3" class="edge">
<title>m::com.android.server.am.BroadcastQueueImpl.logBootCompletedBroadcastCompletionLatencyIfPossible:(Lcom/android/server/am/BroadcastRecord;)V&#45;&gt;__field__</title>
<path fill="none" stroke="#dc2626" d="M378.36,-637.96C457.06,-627.59 539.73,-614.56 555,-604 589.53,-580.13 612.54,-535.76 624.43,-507.62"/>
<polygon fill="#dc2626" stroke="#dc2626" points="627.05,-508.61 627.48,-500.14 621.86,-506.49 627.05,-508.61"/>
<text text-anchor="middle" x="513" y="-625.8" font-family="Helvetica,sans-Serif" font-size="9.00" fill="#dc2626"> reads unguarded</text>
</g>
<!-- m::com.android.server.am.BroadcastQueueImpl.logBootCompletedBroadcastCompletionLatencyIfPossible:(Lcom/android/server/am/BroadcastRecord;)V&#45;&gt;__field__ -->
<g id="edge4" class="edge">
<title>m::com.android.server.am.BroadcastQueueImpl.logBootCompletedBroadcastCompletionLatencyIfPossible:(Lcom/android/server/am/BroadcastRecord;)V&#45;&gt;__field__</title>
<path fill="none" stroke="#dc2626" d="M428.78,-637.9C435.78,-634.69 442.55,-631.07 449,-627 464.22,-617.4 456.65,-603.87 471,-593 502.15,-569.4 521.91,-587.79 555,-567 579.91,-551.34 602.12,-525.88 616.59,-506.9"/>
<polygon fill="#dc2626" stroke="#dc2626" points="619.03,-508.32 621.56,-500.23 614.54,-504.97 619.03,-508.32"/>
<text text-anchor="middle" x="513" y="-595.8" font-family="Helvetica,sans-Serif" font-size="9.00" fill="#dc2626"> reads unguarded</text>
</g>
<!-- m::com.android.server.inputmethod.InputMethodManagerService.handleShellCommandResetInputMethod:(Landroid/os/ShellCommand;)I -->
<g id="node5" class="node">
<title>m::com.android.server.inputmethod.InputMethodManagerService.handleShellCommandResetInputMethod:(Landroid/os/ShellCommand;)I</title>
<path fill="#fee2e2" stroke="#dc2626" d="M411,-616C411,-616 38,-616 38,-616 32,-616 26,-610 26,-604 26,-604 26,-592 26,-592 26,-586 32,-580 38,-580 38,-580 411,-580 411,-580 417,-580 423,-586 423,-592 423,-592 423,-604 423,-604 423,-610 417,-616 411,-616"/>
<text text-anchor="middle" x="224.5" y="-595.2" font-family="Helvetica,sans-Serif" font-size="11.00">InputMethodManagerService.handleShellCommandResetInputMethod</text>
</g>
<!-- m::com.android.server.inputmethod.InputMethodManagerService.handleShellCommandResetInputMethod:(Landroid/os/ShellCommand;)I&#45;&gt;__field__ -->
<g id="edge5" class="edge">
<title>m::com.android.server.inputmethod.InputMethodManagerService.handleShellCommandResetInputMethod:(Landroid/os/ShellCommand;)I&#45;&gt;__field__</title>
<path fill="none" stroke="#dc2626" d="M410.73,-579.95C423.82,-576.85 436.7,-573.23 449,-569 459.74,-565.31 460.82,-561.03 471,-556 507.1,-538.15 518.33,-538.67 555,-522 567.29,-516.42 580.43,-509.96 592.41,-503.88"/>
<polygon fill="#dc2626" stroke="#dc2626" points="593.85,-506.29 599.7,-500.16 591.3,-501.31 593.85,-506.29"/>
<text text-anchor="middle" x="513" y="-558.8" font-family="Helvetica,sans-Serif" font-size="9.00" fill="#dc2626"> reads unguarded</text>
</g>
<!-- m::com.android.server.pm.LauncherAppsService$LauncherAppsImpl.getPreInstalledSystemPackages:(Landroid/os/UserHandle;)Ljava/util/List; -->
<g id="node6" class="node">
<title>m::com.android.server.pm.LauncherAppsService$LauncherAppsImpl.getPreInstalledSystemPackages:(Landroid/os/UserHandle;)Ljava/util/List;</title>
<path fill="#fee2e2" stroke="#dc2626" d="M422.5,-558C422.5,-558 26.5,-558 26.5,-558 20.5,-558 14.5,-552 14.5,-546 14.5,-546 14.5,-534 14.5,-534 14.5,-528 20.5,-522 26.5,-522 26.5,-522 422.5,-522 422.5,-522 428.5,-522 434.5,-528 434.5,-534 434.5,-534 434.5,-546 434.5,-546 434.5,-552 428.5,-558 422.5,-558"/>
<text text-anchor="middle" x="224.5" y="-537.2" font-family="Helvetica,sans-Serif" font-size="11.00">LauncherAppsService$LauncherAppsImpl.getPreInstalledSystemPackages</text>
</g>
<!-- m::com.android.server.pm.LauncherAppsService$LauncherAppsImpl.getPreInstalledSystemPackages:(Landroid/os/UserHandle;)Ljava/util/List;&#45;&gt;__field__ -->
<g id="edge6" class="edge">
<title>m::com.android.server.pm.LauncherAppsService$LauncherAppsImpl.getPreInstalledSystemPackages:(Landroid/os/UserHandle;)Ljava/util/List;&#45;&gt;__field__</title>
<path fill="none" stroke="#dc2626" d="M368.65,-522C395.37,-518.47 423.05,-514.72 449,-511 488.77,-505.3 533.26,-498.35 568.64,-492.68"/>
<polygon fill="#dc2626" stroke="#dc2626" points="569.52,-495.37 576.97,-491.34 568.63,-489.84 569.52,-495.37"/>
<text text-anchor="middle" x="513" y="-509.8" font-family="Helvetica,sans-Serif" font-size="9.00" fill="#dc2626"> reads unguarded</text>
</g>
<!-- m::com.android.server.pm.UserJourneyLogger.logDelayedUserJourneyFinishWithError:(ILandroid/content/pm/UserInfo;II)Lcom/android/server/pm/UserJourneyLogger$UserJourneySession; -->
<g id="node7" class="node">
<title>m::com.android.server.pm.UserJourneyLogger.logDelayedUserJourneyFinishWithError:(ILandroid/content/pm/UserInfo;II)Lcom/android/server/pm/UserJourneyLogger$UserJourneySession;</title>
<path fill="#fee2e2" stroke="#dc2626" d="M380,-500C380,-500 69,-500 69,-500 63,-500 57,-494 57,-488 57,-488 57,-476 57,-476 57,-470 63,-464 69,-464 69,-464 380,-464 380,-464 386,-464 392,-470 392,-476 392,-476 392,-488 392,-488 392,-494 386,-500 380,-500"/>
<text text-anchor="middle" x="224.5" y="-479.2" font-family="Helvetica,sans-Serif" font-size="11.00">UserJourneyLogger.logDelayedUserJourneyFinishWithError</text>
</g>
<!-- m::com.android.server.pm.UserJourneyLogger.logDelayedUserJourneyFinishWithError:(ILandroid/content/pm/UserInfo;II)Lcom/android/server/pm/UserJourneyLogger$UserJourneySession;&#45;&gt;__field__ -->
<g id="edge7" class="edge">
<title>m::com.android.server.pm.UserJourneyLogger.logDelayedUserJourneyFinishWithError:(ILandroid/content/pm/UserInfo;II)Lcom/android/server/pm/UserJourneyLogger$UserJourneySession;&#45;&gt;__field__</title>
<path fill="none" stroke="#dc2626" d="M392.24,-482C454.18,-482 520.89,-482 568.51,-482"/>
<polygon fill="#dc2626" stroke="#dc2626" points="568.57,-484.8 576.57,-482 568.57,-479.2 568.57,-484.8"/>
<text text-anchor="middle" x="513" y="-484.8" font-family="Helvetica,sans-Serif" font-size="9.00" fill="#dc2626"> reads unguarded</text>
</g>
<!-- m::com.android.server.pm.UserJourneyLogger.logUserCreateJourneyFinish:(ILandroid/content/pm/UserInfo;)Lcom/android/server/pm/UserJourneyLogger$UserJourneySession; -->
<g id="node8" class="node">
<title>m::com.android.server.pm.UserJourneyLogger.logUserCreateJourneyFinish:(ILandroid/content/pm/UserInfo;)Lcom/android/server/pm/UserJourneyLogger$UserJourneySession;</title>
<path fill="#fee2e2" stroke="#dc2626" d="M350,-442C350,-442 99,-442 99,-442 93,-442 87,-436 87,-430 87,-430 87,-418 87,-418 87,-412 93,-406 99,-406 99,-406 350,-406 350,-406 356,-406 362,-412 362,-418 362,-418 362,-430 362,-430 362,-436 356,-442 350,-442"/>
<text text-anchor="middle" x="224.5" y="-421.2" font-family="Helvetica,sans-Serif" font-size="11.00">UserJourneyLogger.logUserCreateJourneyFinish</text>
</g>
<!-- m::com.android.server.pm.UserJourneyLogger.logUserCreateJourneyFinish:(ILandroid/content/pm/UserInfo;)Lcom/android/server/pm/UserJourneyLogger$UserJourneySession;&#45;&gt;__field__ -->
<g id="edge8" class="edge">
<title>m::com.android.server.pm.UserJourneyLogger.logUserCreateJourneyFinish:(ILandroid/content/pm/UserInfo;)Lcom/android/server/pm/UserJourneyLogger$UserJourneySession;&#45;&gt;__field__</title>
<path fill="none" stroke="#dc2626" d="M362.03,-439.97C421.43,-447.4 491.78,-456.83 555,-467 559.39,-467.71 563.92,-468.47 568.47,-469.26"/>
<polygon fill="#dc2626" stroke="#dc2626" points="568.31,-472.08 576.68,-470.72 569.29,-466.57 568.31,-472.08"/>
<text text-anchor="middle" x="513" y="-469.8" font-family="Helvetica,sans-Serif" font-size="9.00" fill="#dc2626"> reads unguarded</text>
</g>
<!-- m::com.android.server.pm.UserJourneyLogger.logUserJourneyFinishWithError:(ILandroid/content/pm/UserInfo;II)Lcom/android/server/pm/UserJourneyLogger$UserJourneySession; -->
<g id="node9" class="node">
<title>m::com.android.server.pm.UserJourneyLogger.logUserJourneyFinishWithError:(ILandroid/content/pm/UserInfo;II)Lcom/android/server/pm/UserJourneyLogger$UserJourneySession;</title>
<path fill="#fee2e2" stroke="#dc2626" d="M357.5,-384C357.5,-384 91.5,-384 91.5,-384 85.5,-384 79.5,-378 79.5,-372 79.5,-372 79.5,-360 79.5,-360 79.5,-354 85.5,-348 91.5,-348 91.5,-348 357.5,-348 357.5,-348 363.5,-348 369.5,-354 369.5,-360 369.5,-360 369.5,-372 369.5,-372 369.5,-378 363.5,-384 357.5,-384"/>
<text text-anchor="middle" x="224.5" y="-363.2" font-family="Helvetica,sans-Serif" font-size="11.00">UserJourneyLogger.logUserJourneyFinishWithError</text>
</g>
<!-- m::com.android.server.pm.UserJourneyLogger.logUserJourneyFinishWithError:(ILandroid/content/pm/UserInfo;II)Lcom/android/server/pm/UserJourneyLogger$UserJourneySession;&#45;&gt;__field__ -->
<g id="edge9" class="edge">
<title>m::com.android.server.pm.UserJourneyLogger.logUserJourneyFinishWithError:(ILandroid/content/pm/UserInfo;II)Lcom/android/server/pm/UserJourneyLogger$UserJourneySession;&#45;&gt;__field__</title>
<path fill="none" stroke="#dc2626" d="M369.67,-379.01C396.3,-383.02 423.67,-388.23 449,-395 498.28,-408.17 508.98,-417 555,-439 568.31,-445.36 582.55,-452.88 595.23,-459.84"/>
<polygon fill="#dc2626" stroke="#dc2626" points="594.13,-462.44 602.49,-463.86 596.85,-457.54 594.13,-462.44"/>
<text text-anchor="middle" x="513" y="-441.8" font-family="Helvetica,sans-Serif" font-size="9.00" fill="#dc2626"> reads unguarded</text>
</g>
<!-- m::com.android.server.pm.UserManagerService$LocalService.getUserTypesForStatsd:([I)[I -->
<g id="node10" class="node">
<title>m::com.android.server.pm.UserManagerService$LocalService.getUserTypesForStatsd:([I)[I</title>
<path fill="#fee2e2" stroke="#dc2626" d="M381.5,-326C381.5,-326 67.5,-326 67.5,-326 61.5,-326 55.5,-320 55.5,-314 55.5,-314 55.5,-302 55.5,-302 55.5,-296 61.5,-290 67.5,-290 67.5,-290 381.5,-290 381.5,-290 387.5,-290 393.5,-296 393.5,-302 393.5,-302 393.5,-314 393.5,-314 393.5,-320 387.5,-326 381.5,-326"/>
<text text-anchor="middle" x="224.5" y="-305.2" font-family="Helvetica,sans-Serif" font-size="11.00">UserManagerService$LocalService.getUserTypesForStatsd</text>
</g>
<!-- m::com.android.server.pm.UserManagerService$LocalService.getUserTypesForStatsd:([I)[I&#45;&gt;__field__ -->
<g id="edge10" class="edge">
<title>m::com.android.server.pm.UserManagerService$LocalService.getUserTypesForStatsd:([I)[I&#45;&gt;__field__</title>
<path fill="none" stroke="#dc2626" d="M393.73,-319.97C449.53,-330.8 509.06,-350.52 555,-386 580.94,-406.03 603.9,-436.07 618.29,-457.2"/>
<polygon fill="#dc2626" stroke="#dc2626" points="616.06,-458.9 622.83,-464 620.71,-455.79 616.06,-458.9"/>
<text text-anchor="middle" x="513" y="-388.8" font-family="Helvetica,sans-Serif" font-size="9.00" fill="#dc2626"> reads unguarded</text>
</g>
<!-- m::com.android.server.pm.UserManagerService.dumpUserLocked:(Ljava/io/PrintWriter;Lcom/android/server/pm/UserManagerService$UserData;Ljava/lang/StringBuilder;JJ)V -->
<g id="node11" class="node">
<title>m::com.android.server.pm.UserManagerService.dumpUserLocked:(Ljava/io/PrintWriter;Lcom/android/server/pm/UserManagerService$UserData;Ljava/lang/StringBuilder;JJ)V</title>
<path fill="#fee2e2" stroke="#dc2626" d="M327,-268C327,-268 122,-268 122,-268 116,-268 110,-262 110,-256 110,-256 110,-244 110,-244 110,-238 116,-232 122,-232 122,-232 327,-232 327,-232 333,-232 339,-238 339,-244 339,-244 339,-256 339,-256 339,-262 333,-268 327,-268"/>
<text text-anchor="middle" x="224.5" y="-247.2" font-family="Helvetica,sans-Serif" font-size="11.00">UserManagerService.dumpUserLocked</text>
</g>
<!-- m::com.android.server.pm.UserManagerService.dumpUserLocked:(Ljava/io/PrintWriter;Lcom/android/server/pm/UserManagerService$UserData;Ljava/lang/StringBuilder;JJ)V&#45;&gt;__field__ -->
<g id="edge11" class="edge">
<title>m::com.android.server.pm.UserManagerService.dumpUserLocked:(Ljava/io/PrintWriter;Lcom/android/server/pm/UserManagerService$UserData;Ljava/lang/StringBuilder;JJ)V&#45;&gt;__field__</title>
<path fill="none" stroke="#dc2626" d="M339.09,-248.7C409.8,-253.95 497.85,-272.43 555,-327 593.06,-363.34 615.91,-422.01 626.62,-455.79"/>
<polygon fill="#dc2626" stroke="#dc2626" points="624.06,-456.98 629.08,-463.81 629.41,-455.34 624.06,-456.98"/>
<text text-anchor="middle" x="513" y="-329.8" font-family="Helvetica,sans-Serif" font-size="9.00" fill="#dc2626"> reads unguarded</text>
</g>
<!-- m::com.android.server.pm.UserManagerService.getProfileIdsLU:(ILjava/lang/String;ZZZ)Landroid/util/IntArray; -->
<g id="node12" class="node">
<title>m::com.android.server.pm.UserManagerService.getProfileIdsLU:(ILjava/lang/String;ZZZ)Landroid/util/IntArray;</title>
<path fill="#fee2e2" stroke="#dc2626" d="M320.5,-210C320.5,-210 128.5,-210 128.5,-210 122.5,-210 116.5,-204 116.5,-198 116.5,-198 116.5,-186 116.5,-186 116.5,-180 122.5,-174 128.5,-174 128.5,-174 320.5,-174 320.5,-174 326.5,-174 332.5,-180 332.5,-186 332.5,-186 332.5,-198 332.5,-198 332.5,-204 326.5,-210 320.5,-210"/>
<text text-anchor="middle" x="224.5" y="-189.2" font-family="Helvetica,sans-Serif" font-size="11.00">UserManagerService.getProfileIdsLU</text>
</g>
<!-- m::com.android.server.pm.UserManagerService.getProfileIdsLU:(ILjava/lang/String;ZZZ)Landroid/util/IntArray;&#45;&gt;__field__ -->
<g id="edge14" class="edge">
<title>m::com.android.server.pm.UserManagerService.getProfileIdsLU:(ILjava/lang/String;ZZZ)Landroid/util/IntArray;&#45;&gt;__field__</title>
<path fill="none" stroke="#dc2626" d="M332.51,-186.59C405.26,-189.01 498.24,-205.06 555,-264 607.6,-318.62 625.56,-410.88 631.38,-455.82"/>
<polygon fill="#dc2626" stroke="#dc2626" points="628.62,-456.3 632.36,-463.9 634.18,-455.62 628.62,-456.3"/>
<text text-anchor="middle" x="513" y="-266.8" font-family="Helvetica,sans-Serif" font-size="9.00" fill="#dc2626"> reads unguarded</text>
</g>
<!-- m::com.android.server.pm.UserManagerService.getUserTypeDetails:(Landroid/content/pm/UserInfo;)Lcom/android/server/pm/UserTypeDetails; -->
<g id="node13" class="node">
<title>m::com.android.server.pm.UserManagerService.getUserTypeDetails:(Landroid/content/pm/UserInfo;)Lcom/android/server/pm/UserTypeDetails;</title>
<path fill="#fee2e2" stroke="#dc2626" d="M333.5,-152C333.5,-152 115.5,-152 115.5,-152 109.5,-152 103.5,-146 103.5,-140 103.5,-140 103.5,-128 103.5,-128 103.5,-122 109.5,-116 115.5,-116 115.5,-116 333.5,-116 333.5,-116 339.5,-116 345.5,-122 345.5,-128 345.5,-128 345.5,-140 345.5,-140 345.5,-146 339.5,-152 333.5,-152"/>
<text text-anchor="middle" x="224.5" y="-131.2" font-family="Helvetica,sans-Serif" font-size="11.00">UserManagerService.getUserTypeDetails</text>
</g>
<!-- m::com.android.server.pm.UserManagerService.getUserTypeDetails:(Landroid/content/pm/UserInfo;)Lcom/android/server/pm/UserTypeDetails;&#45;&gt;__field__ -->
<g id="edge15" class="edge">
<title>m::com.android.server.pm.UserManagerService.getUserTypeDetails:(Landroid/content/pm/UserInfo;)Lcom/android/server/pm/UserTypeDetails;&#45;&gt;__field__</title>
<path fill="none" stroke="#dc2626" d="M345.72,-124.71C416.27,-126.15 501.76,-141.01 555,-196 625.74,-269.07 634.36,-399.55 634.6,-455.42"/>
<polygon fill="#dc2626" stroke="#dc2626" points="631.79,-455.72 634.57,-463.73 637.39,-455.73 631.79,-455.72"/>
<text text-anchor="middle" x="513" y="-198.8" font-family="Helvetica,sans-Serif" font-size="9.00" fill="#dc2626"> reads unguarded</text>
</g>
<!-- m::com.android.server.pm.UserManagerService.logQuietModeEnabled:(IZLjava/lang/String;)V -->
<g id="node14" class="node">
<title>m::com.android.server.pm.UserManagerService.logQuietModeEnabled:(IZLjava/lang/String;)V</title>
<path fill="#fee2e2" stroke="#dc2626" d="M339.5,-94C339.5,-94 109.5,-94 109.5,-94 103.5,-94 97.5,-88 97.5,-82 97.5,-82 97.5,-70 97.5,-70 97.5,-64 103.5,-58 109.5,-58 109.5,-58 339.5,-58 339.5,-58 345.5,-58 351.5,-64 351.5,-70 351.5,-70 351.5,-82 351.5,-82 351.5,-88 345.5,-94 339.5,-94"/>
<text text-anchor="middle" x="224.5" y="-73.2" font-family="Helvetica,sans-Serif" font-size="11.00">UserManagerService.logQuietModeEnabled</text>
</g>
<!-- m::com.android.server.pm.UserManagerService.logQuietModeEnabled:(IZLjava/lang/String;)V&#45;&gt;__field__ -->
<g id="edge16" class="edge">
<title>m::com.android.server.pm.UserManagerService.logQuietModeEnabled:(IZLjava/lang/String;)V&#45;&gt;__field__</title>
<path fill="none" stroke="#dc2626" d="M351.52,-63.44C420.77,-63.8 502.92,-77.35 555,-130 601.03,-176.53 624.56,-381.71 631.64,-455.47"/>
<polygon fill="#dc2626" stroke="#dc2626" points="628.89,-456.09 632.43,-463.8 634.47,-455.57 628.89,-456.09"/>
<text text-anchor="middle" x="513" y="-132.8" font-family="Helvetica,sans-Serif" font-size="9.00" fill="#dc2626"> reads unguarded</text>
</g>
<!-- m::com.android.server.pm.UserManagerService.onPullAtom:(ILjava/util/List;)I -->
<g id="node15" class="node">
<title>m::com.android.server.pm.UserManagerService.onPullAtom:(ILjava/util/List;)I</title>
<path fill="#fee2e2" stroke="#dc2626" d="M311,-36C311,-36 138,-36 138,-36 132,-36 126,-30 126,-24 126,-24 126,-12 126,-12 126,-6 132,0 138,0 138,0 311,0 311,0 317,0 323,-6 323,-12 323,-12 323,-24 323,-24 323,-30 317,-36 311,-36"/>
<text text-anchor="middle" x="224.5" y="-15.2" font-family="Helvetica,sans-Serif" font-size="11.00">UserManagerService.onPullAtom</text>
</g>
<!-- m::com.android.server.pm.UserManagerService.onPullAtom:(ILjava/util/List;)I&#45;&gt;__field__ -->
<g id="edge17" class="edge">
<title>m::com.android.server.pm.UserManagerService.onPullAtom:(ILjava/util/List;)I&#45;&gt;__field__</title>
<path fill="none" stroke="#dc2626" d="M323.13,-3.8C396.75,1.01 494.99,-6.12 555,-65 611.13,-120.07 628.58,-373.2 632.83,-455.83"/>
<polygon fill="#dc2626" stroke="#dc2626" points="630.04,-456.09 633.23,-463.95 635.63,-455.82 630.04,-456.09"/>
<text text-anchor="middle" x="513" y="-67.8" font-family="Helvetica,sans-Serif" font-size="9.00" fill="#dc2626"> reads unguarded</text>
</g>
</g>
</svg>
