<?xml version="1.0" encoding="UTF-8" standalone="no"?>
<!DOCTYPE svg PUBLIC "-//W3C//DTD SVG 1.1//EN"
 "http://www.w3.org/Graphics/SVG/1.1/DTD/svg11.dtd">
<!-- Generated by graphviz version 2.43.0 (0)
 -->
<!-- Title: race Pages: 1 -->
<svg width="674pt" height="398pt"
 viewBox="0.00 0.00 674.00 398.00" xmlns="http://www.w3.org/2000/svg" xmlns:xlink="http://www.w3.org/1999/xlink">
<g id="graph0" class="graph" transform="scale(1 1) rotate(0) translate(4 394)">
<title>race</title>
<polygon fill="white" stroke="transparent" points="-4,4 -4,-394 670,-394 670,4 -4,4"/>
<!-- __field__ -->
<g id="node1" class="node">
<title>__field__</title>
<path fill="#fef9c3" stroke="#ca8a04" stroke-width="2" d="M654,-223C654,-223 437,-223 437,-223 431,-223 425,-217 425,-211 425,-211 425,-199 425,-199 425,-193 431,-187 437,-187 437,-187 654,-187 654,-187 660,-187 666,-193 666,-199 666,-199 666,-211 666,-211 666,-217 660,-223 654,-223"/>
<text text-anchor="middle" x="545.5" y="-202.2" font-family="Helvetica,sans-Serif" font-size="11.00">BroadcastQueueImpl.mRunningColdStart</text>
</g>
<!-- __guard__ -->
<g id="node2" class="node">
<title>__guard__</title>
<path fill="#dcfce7" stroke="#16a34a" stroke-width="2" d="M218,-390C218,-390 79,-390 79,-390 73,-390 67,-384 67,-378 67,-378 67,-366 67,-366 67,-360 73,-354 79,-354 79,-354 218,-354 218,-354 224,-354 230,-360 230,-366 230,-366 230,-378 230,-378 230,-384 224,-390 218,-390"/>
<text text-anchor="middle" x="148.5" y="-369.2" font-family="Helvetica,sans-Serif" font-size="11.00">BroadcastQueue.mService</text>
</g>
<!-- __guard__&#45;&gt;__field__ -->
<g id="edge1" class="edge">
<title>__guard__&#45;&gt;__field__</title>
<path fill="none" stroke="#16a34a" stroke-width="1.6" d="M230.14,-373.18C281.8,-371.02 349.04,-362.66 403,-337 455.46,-312.05 501.61,-260.58 526.04,-229.8"/>
<polygon fill="#16a34a" stroke="#16a34a" stroke-width="1.6" points="528.49,-231.22 531.2,-223.19 524.07,-227.77 528.49,-231.22"/>
<text text-anchor="middle" x="361" y="-364.8" font-family="Helvetica,sans-Serif" font-size="9.00" fill="#15803d"> guards 5/7</text>
</g>
<!-- m::com.android.server.am.BroadcastQueueImpl.clearRunningColdStart:()V -->
<g id="node3" class="node">
<title>m::com.android.server.am.BroadcastQueueImpl.clearRunningColdStart:()V</title>
<path fill="#fee2e2" stroke="#dc2626" d="M265,-316C265,-316 32,-316 32,-316 26,-316 20,-310 20,-304 20,-304 20,-292 20,-292 20,-286 26,-280 32,-280 32,-280 265,-280 265,-280 271,-280 277,-286 277,-292 277,-292 277,-304 277,-304 277,-310 271,-316 265,-316"/>
<text text-anchor="middle" x="148.5" y="-295.2" font-family="Helvetica,sans-Serif" font-size="11.00">BroadcastQueueImpl.clearRunningColdStart</text>
</g>
<!-- m::com.android.server.am.BroadcastQueueImpl.clearRunningColdStart:()V&#45;&gt;__field__ -->
<g id="edge2" class="edge">
<title>m::com.android.server.am.BroadcastQueueImpl.clearRunningColdStart:()V&#45;&gt;__field__</title>
<path fill="none" stroke="#dc2626" d="M231.71,-316.04C282.32,-323.64 347.85,-327.09 403,-309 450.74,-293.34 495.65,-254.75 521.59,-229.24"/>
<polygon fill="#dc2626" stroke="#dc2626" points="523.78,-231.01 527.46,-223.37 519.82,-227.05 523.78,-231.01"/>
<text text-anchor="middle" x="361" y="-324.8" font-family="Helvetica,sans-Serif" font-size="9.00" fill="#dc2626"> writes unguarded</text>
</g>
<!-- m::com.android.server.am.BroadcastQueueImpl.clearRunningColdStart:()V&#45;&gt;__field__ -->
<g id="edge4" class="edge">
<title>m::com.android.server.am.BroadcastQueueImpl.clearRunningColdStart:()V&#45;&gt;__field__</title>
<path fill="none" stroke="#dc2626" d="M277.12,-293.4C317.89,-289.69 362.84,-283.21 403,-272 440.01,-261.67 479.29,-242.32 507.05,-227.06"/>
<polygon fill="#dc2626" stroke="#dc2626" points="508.58,-229.41 514.21,-223.07 505.86,-224.52 508.58,-229.41"/>
<text text-anchor="middle" x="361" y="-290.8" font-family="Helvetica,sans-Serif" font-size="9.00" fill="#dc2626"> reads unguarded</text>
</g>
<!-- m::com.android.server.am.BroadcastQueueImpl.clearRunningColdStart:()V&#45;&gt;__field__ -->
<g id="edge5" class="edge">
<title>m::com.android.server.am.BroadcastQueueImpl.clearRunningColdStart:()V&#45;&gt;__field__</title>
<path fill="none" stroke="#dc2626" d="M226.13,-279.96C293.2,-264.17 390.5,-241.26 459.86,-224.93"/>
<polygon fill="#dc2626" stroke="#dc2626" points="460.6,-227.63 467.75,-223.07 459.32,-222.18 460.6,-227.63"/>
<text text-anchor="middle" x="361" y="-259.8" font-family="Helvetica,sans-Serif" font-size="9.00" fill="#dc2626"> reads unguarded</text>
</g>
<!-- m::com.android.server.am.BroadcastQueueImpl.onApplicationAttachedLocked:(Lcom/android/server/am/ProcessRecord;)Z -->
<g id="node4" class="node">
<title>m::com.android.server.am.BroadcastQueueImpl.onApplicationAttachedLocked:(Lcom/android/server/am/ProcessRecord;)Z</title>
<path fill="#fee2e2" stroke="#dc2626" d="M285,-234C285,-234 12,-234 12,-234 6,-234 0,-228 0,-222 0,-222 0,-210 0,-210 0,-204 6,-198 12,-198 12,-198 285,-198 285,-198 291,-198 297,-204 297,-210 297,-210 297,-222 297,-222 297,-228 291,-234 285,-234"/>
<text text-anchor="middle" x="148.5" y="-213.2" font-family="Helvetica,sans-Serif" font-size="11.00">BroadcastQueueImpl.onApplicationAttachedLocked</text>
</g>
<!-- m::com.android.server.am.BroadcastQueueImpl.onApplicationAttachedLocked:(Lcom/android/server/am/ProcessRecord;)Z&#45;&gt;__field__ -->
<g id="edge3" class="edge">
<title>m::com.android.server.am.BroadcastQueueImpl.onApplicationAttachedLocked:(Lcom/android/server/am/ProcessRecord;)Z&#45;&gt;__field__</title>
<path fill="none" stroke="#dc2626" d="M297.15,-211.89C336.42,-210.79 378.52,-209.62 416.64,-208.56"/>
<polygon fill="#dc2626" stroke="#dc2626" points="416.79,-211.36 424.71,-208.34 416.64,-205.76 416.79,-211.36"/>
<text text-anchor="middle" x="361" y="-213.8" font-family="Helvetica,sans-Serif" font-size="9.00" fill="#dc2626"> writes unguarded</text>
</g>
<!-- m::com.android.server.am.BroadcastQueueImpl.onApplicationAttachedLocked:(Lcom/android/server/am/ProcessRecord;)Z&#45;&gt;__field__ -->
<g id="edge9" class="edge">
<title>m::com.android.server.am.BroadcastQueueImpl.onApplicationAttachedLocked:(Lcom/android/server/am/ProcessRecord;)Z&#45;&gt;__field__</title>
<path fill="none" stroke="#dc2626" d="M273.83,-198C289.02,-196.35 304.34,-194.95 319,-194 356.26,-191.59 365.69,-192.55 403,-194 407.46,-194.17 412,-194.38 416.59,-194.61"/>
<polygon fill="#dc2626" stroke="#dc2626" points="416.74,-197.42 424.88,-195.05 417.04,-191.83 416.74,-197.42"/>
<text text-anchor="middle" x="361" y="-196.8" font-family="Helvetica,sans-Serif" font-size="9.00" fill="#dc2626"> reads unguarded</text>
</g>
<!-- m::com.android.server.am.BroadcastQueueImpl.demoteFromRunningLocked:(Lcom/android/server/am/BroadcastProcessQueue;)V -->
<g id="node5" class="node">
<title>m::com.android.server.am.BroadcastQueueImpl.demoteFromRunningLocked:(Lcom/android/server/am/BroadcastProcessQueue;)V</title>
<path fill="#fee2e2" stroke="#dc2626" d="M280,-160C280,-160 17,-160 17,-160 11,-160 5,-154 5,-148 5,-148 5,-136 5,-136 5,-130 11,-124 17,-124 17,-124 280,-124 280,-124 286,-124 292,-130 292,-136 292,-136 292,-148 292,-148 292,-154 286,-160 280,-160"/>
<text text-anchor="middle" x="148.5" y="-139.2" font-family="Helvetica,sans-Serif" font-size="11.00">BroadcastQueueImpl.demoteFromRunningLocked</text>
</g>
<!-- m::com.android.server.am.BroadcastQueueImpl.demoteFromRunningLocked:(Lcom/android/server/am/BroadcastProcessQueue;)V&#45;&gt;__field__ -->
<g id="edge6" class="edge">
<title>m::com.android.server.am.BroadcastQueueImpl.demoteFromRunningLocked:(Lcom/android/server/am/BroadcastProcessQueue;)V&#45;&gt;__field__</title>
<path fill="none" stroke="#dc2626" d="M290.84,-160.03C327.44,-165.11 366.74,-170.92 403,-177 418.04,-179.52 433.93,-182.43 449.41,-185.4"/>
<polygon fill="#dc2626" stroke="#dc2626" points="449.08,-188.18 457.46,-186.95 450.14,-182.69 449.08,-188.18"/>
<text text-anchor="middle" x="361" y="-179.8" font-family="Helvetica,sans-Serif" font-size="9.00" fill="#dc2626"> reads unguarded</text>
</g>
<!-- m::com.android.server.am.BroadcastQueueImpl.demoteFromRunningLocked:(Lcom/android/server/am/BroadcastProcessQueue;)V&#45;&gt;__field__ -->
<g id="edge7" class="edge">
<title>m::com.android.server.am.BroadcastQueueImpl.demoteFromRunningLocked:(Lcom/android/server/am/BroadcastProcessQueue;)V&#45;&gt;__field__</title>
<path fill="none" stroke="#dc2626" d="M292.29,-137.25C328.68,-138.4 367.53,-141.73 403,-149 437.3,-156.03 474.01,-170.79 501.45,-183.4"/>
<polygon fill="#dc2626" stroke="#dc2626" points="500.49,-186.04 508.93,-186.89 502.86,-180.97 500.49,-186.04"/>
<text text-anchor="middle" x="361" y="-151.8" font-family="Helvetica,sans-Serif" font-size="9.00" fill="#dc2626"> reads unguarded</text>
</g>
<!-- m::com.android.server.am.BroadcastQueueImpl.dumpProcessQueues:(Landroid/util/IndentingPrintWriter;J)V -->
<g id="node6" class="node">
<title>m::com.android.server.am.BroadcastQueueImpl.dumpProcessQueues:(Landroid/util/IndentingPrintWriter;J)V</title>
<path fill="#fee2e2" stroke="#dc2626" d="M262,-94C262,-94 35,-94 35,-94 29,-94 23,-88 23,-82 23,-82 23,-70 23,-70 23,-64 29,-58 35,-58 35,-58 262,-58 262,-58 268,-58 274,-64 274,-70 274,-70 274,-82 274,-82 274,-88 268,-94 262,-94"/>
<text text-anchor="middle" x="148.5" y="-73.2" font-family="Helvetica,sans-Serif" font-size="11.00">BroadcastQueueImpl.dumpProcessQueues</text>
</g>
<!-- m::com.android.server.am.BroadcastQueueImpl.dumpProcessQueues:(Landroid/util/IndentingPrintWriter;J)V&#45;&gt;__field__ -->
<g id="edge8" class="edge">
<title>m::com.android.server.am.BroadcastQueueImpl.dumpProcessQueues:(Landroid/util/IndentingPrintWriter;J)V&#45;&gt;__field__</title>
<path fill="none" stroke="#dc2626" d="M274.27,-90.44C316.02,-97.54 362.28,-107.94 403,-123 443.14,-137.85 485.06,-163.64 512.76,-182.34"/>
<polygon fill="#dc2626" stroke="#dc2626" points="511.3,-184.73 519.48,-186.93 514.45,-180.1 511.3,-184.73"/>
<text text-anchor="middle" x="361" y="-125.8" font-family="Helvetica,sans-Serif" font-size="9.00" fill="#dc2626"> reads unguarded</text>
</g>
<!-- m::com.android.server.am.BroadcastQueueImpl.onApplicationCleanupLocked:(Lcom/android/server/am/ProcessRecord;)V -->
<g id="node7" class="node">
<title>m::com.android.server.am.BroadcastQueueImpl.onApplicationCleanupLocked:(Lcom/android/server/am/ProcessRecord;)V</title>
<path fill="#fee2e2" stroke="#dc2626" d="M282.5,-36C282.5,-36 14.5,-36 14.5,-36 8.5,-36 2.5,-30 2.5,-24 2.5,-24 2.5,-12 2.5,-12 2.5,-6 8.5,0 14.5,0 14.5,0 282.5,0 282.5,0 288.5,0 294.5,-6 294.5,-12 294.5,-12 294.5,-24 294.5,-24 294.5,-30 288.5,-36 282.5,-36"/>
<text text-anchor="middle" x="148.5" y="-15.2" font-family="Helvetica,sans-Serif" font-size="11.00">BroadcastQueueImpl.onApplicationCleanupLocked</text>
</g>
<!-- m::com.android.server.am.BroadcastQueueImpl.onApplicationCleanupLocked:(Lcom/android/server/am/ProcessRecord;)V&#45;&gt;__field__ -->
<g id="edge10" class="edge">
<title>m::com.android.server.am.BroadcastQueueImpl.onApplicationCleanupLocked:(Lcom/android/server/am/ProcessRecord;)V&#45;&gt;__field__</title>
<path fill="none" stroke="#dc2626" d="M271.64,-36.04C315.08,-45.94 363.08,-61.05 403,-84 449.64,-110.8 495.43,-153.89 521.78,-180.76"/>
<polygon fill="#dc2626" stroke="#dc2626" points="519.83,-182.78 527.41,-186.57 523.85,-178.88 519.83,-182.78"/>
<text text-anchor="middle" x="361" y="-86.8" font-family="Helvetica,sans-Serif" font-size="9.00" fill="#dc2626"> reads unguarded</text>
</g>
</g>
</svg>
