<?xml version="1.0" encoding="UTF-8" standalone="no"?>
<!DOCTYPE svg PUBLIC "-//W3C//DTD SVG 1.1//EN"
 "http://www.w3.org/Graphics/SVG/1.1/DTD/svg11.dtd">
<!-- Generated by graphviz version 2.43.0 (0)
 -->
<!-- Title: race Pages: 1 -->
<svg width="868pt" height="102pt"
 viewBox="0.00 0.00 868.00 102.00" xmlns="http://www.w3.org/2000/svg" xmlns:xlink="http://www.w3.org/1999/xlink">
<g id="graph0" class="graph" transform="scale(1 1) rotate(0) translate(4 98)">
<title>race</title>
<polygon fill="white" stroke="transparent" points="-4,4 -4,-98 864,-98 864,4 -4,4"/>
<!-- __field__ -->
<g id="node1" class="node">
<title>__field__</title>
<path fill="#fef9c3" stroke="#ca8a04" stroke-width="2" d="M848,-65C848,-65 417,-65 417,-65 411,-65 405,-59 405,-53 405,-53 405,-41 405,-41 405,-35 411,-29 417,-29 417,-29 848,-29 848,-29 854,-29 860,-35 860,-41 860,-41 860,-53 860,-53 860,-59 854,-65 848,-65"/>
<text text-anchor="middle" x="632.5" y="-44.2" font-family="Helvetica,sans-Serif" font-size="11.00">AppWidgetServiceImpl$BackupRestoreController$RestoreUpdateRecord.notified</text>
</g>
<!-- __guard__ -->
<g id="node2" class="node">
<title>__guard__</title>
<path fill="#dcfce7" stroke="#16a34a" stroke-width="2" d="M216,-94C216,-94 61,-94 61,-94 55,-94 49,-88 49,-82 49,-82 49,-70 49,-70 49,-64 55,-58 61,-58 61,-58 216,-58 216,-58 222,-58 228,-64 228,-70 228,-70 228,-82 228,-82 228,-88 222,-94 216,-94"/>
<text text-anchor="middle" x="138.5" y="-73.2" font-family="Helvetica,sans-Serif" font-size="11.00">AppWidgetServiceImpl.mLock</text>
</g>
<!-- __guard__&#45;&gt;__field__ -->
<g id="edge1" class="edge">
<title>__guard__&#45;&gt;__field__</title>
<path fill="none" stroke="#16a34a" stroke-width="1.6" d="M228.03,-70.78C275.55,-67.98 336.61,-64.38 396.76,-60.84"/>
<polygon fill="#16a34a" stroke="#16a34a" stroke-width="1.6" points="397.04,-63.62 404.86,-60.36 396.71,-58.03 397.04,-63.62"/>
<text text-anchor="middle" x="341" y="-67.8" font-family="Helvetica,sans-Serif" font-size="9.00" fill="#15803d"> guards 2/3</text>
</g>
<!-- m::com.android.server.appwidget.AppWidgetXmlUtil.parseRestoreUpdateRecords:(Lcom/android/modules/utils/TypedXmlPullParser;)Ljava/util/List; -->
<g id="node3" class="node">
<title>m::com.android.server.appwidget.AppWidgetXmlUtil.parseRestoreUpdateRecords:(Lcom/android/modules/utils/TypedXmlPullParser;)Ljava/util/List;</title>
<path fill="#fee2e2" stroke="#dc2626" d="M265,-36C265,-36 12,-36 12,-36 6,-36 0,-30 0,-24 0,-24 0,-12 0,-12 0,-6 6,0 12,0 12,0 265,0 265,0 271,0 277,-6 277,-12 277,-12 277,-24 277,-24 277,-30 271,-36 265,-36"/>
<text text-anchor="middle" x="138.5" y="-15.2" font-family="Helvetica,sans-Serif" font-size="11.00">AppWidgetXmlUtil.parseRestoreUpdateRecords</text>
</g>
<!-- m::com.android.server.appwidget.AppWidgetXmlUtil.parseRestoreUpdateRecords:(Lcom/android/modules/utils/TypedXmlPullParser;)Ljava/util/List;&#45;&gt;__field__ -->
<g id="edge2" class="edge">
<title>m::com.android.server.appwidget.AppWidgetXmlUtil.parseRestoreUpdateRecords:(Lcom/android/modules/utils/TypedXmlPullParser;)Ljava/util/List;&#45;&gt;__field__</title>
<path fill="none" stroke="#dc2626" d="M277.2,-26.12C314.38,-28.31 355.68,-30.74 396.58,-33.15"/>
<polygon fill="#dc2626" stroke="#dc2626" points="396.6,-35.96 404.75,-33.63 396.93,-30.37 396.6,-35.96"/>
<text text-anchor="middle" x="341" y="-33.8" font-family="Helvetica,sans-Serif" font-size="9.00" fill="#dc2626"> writes unguarded</text>
</g>
</g>
</svg>
