<?xml version="1.0" encoding="UTF-8" standalone="no"?>
<!DOCTYPE svg PUBLIC "-//W3C//DTD SVG 1.1//EN"
 "http://www.w3.org/Graphics/SVG/1.1/DTD/svg11.dtd">
<!-- Generated by graphviz version 2.43.0 (0)
 -->
<!-- Title: race Pages: 1 -->
<svg width="966pt" height="110pt"
 viewBox="0.00 0.00 966.00 110.00" xmlns="http://www.w3.org/2000/svg" xmlns:xlink="http://www.w3.org/1999/xlink">
<g id="graph0" class="graph" transform="scale(1 1) rotate(0) translate(4 106)">
<title>race</title>
<polygon fill="white" stroke="transparent" points="-4,4 -4,-106 962,-106 962,4 -4,4"/>
<!-- __field__ -->
<g id="node1" class="node">
<title>__field__</title>
<path fill="#fef9c3" stroke="#ca8a04" stroke-width="2" d="M946,-65C946,-65 565,-65 565,-65 559,-65 553,-59 553,-53 553,-53 553,-41 553,-41 553,-35 559,-29 565,-29 565,-29 946,-29 946,-29 952,-29 958,-35 958,-41 958,-41 958,-53 958,-53 958,-59 952,-65 946,-65"/>
<text text-anchor="middle" x="755.5" y="-44.2" font-family="Helvetica,sans-Serif" font-size="11.00">GameManagerService$GamePackageConfiguration.mAllowFpsOverride</text>
</g>
<!-- __guard__ -->
<g id="node2" class="node">
<title>__guard__</title>
<path fill="#dcfce7" stroke="#16a34a" stroke-width="2" d="M324.5,-102C324.5,-102 100.5,-102 100.5,-102 94.5,-102 88.5,-96 88.5,-90 88.5,-90 88.5,-78 88.5,-78 88.5,-72 94.5,-66 100.5,-66 100.5,-66 324.5,-66 324.5,-66 330.5,-66 336.5,-72 336.5,-78 336.5,-78 336.5,-90 336.5,-90 336.5,-96 330.5,-102 324.5,-102"/>
<text text-anchor="middle" x="212.5" y="-81.2" font-family="Helvetica,sans-Serif" font-size="11.00">GameManagerService.mDeviceConfigLock</text>
</g>
<!-- __guard__&#45;&gt;__field__ -->
<g id="edge1" class="edge">
<title>__guard__&#45;&gt;__field__</title>
<path fill="none" stroke="#16a34a" stroke-width="1.6" d="M336.6,-75.58C398.15,-71.37 474.35,-66.16 544.77,-61.34"/>
<polygon fill="#16a34a" stroke="#16a34a" stroke-width="1.6" points="545.09,-64.13 552.88,-60.79 544.71,-58.54 545.09,-64.13"/>
<text text-anchor="middle" x="489" y="-69.8" font-family="Helvetica,sans-Serif" font-size="9.00" fill="#15803d"> guards 2/3</text>
</g>
<!-- m::com.android.server.app.GameManagerService$GamePackageConfiguration.copyAndApplyOverride:(Lcom/android/server/app/GameManagerService$GamePackageConfiguration;)Lcom/android/server/app/GameManagerService$GamePackageConfiguration; -->
<g id="node3" class="node">
<title>m::com.android.server.app.GameManagerService$GamePackageConfiguration.copyAndApplyOverride:(Lcom/android/server/app/GameManagerService$GamePackageConfiguration;)Lcom/android/server/app/GameManagerService$GamePackageConfiguration;</title>
<path fill="#fee2e2" stroke="#dc2626" d="M413,-36C413,-36 12,-36 12,-36 6,-36 0,-30 0,-24 0,-24 0,-12 0,-12 0,-6 6,0 12,0 12,0 413,0 413,0 419,0 425,-6 425,-12 425,-12 425,-24 425,-24 425,-30 419,-36 413,-36"/>
<text text-anchor="middle" x="212.5" y="-15.2" font-family="Helvetica,sans-Serif" font-size="11.00">GameManagerService$GamePackageConfiguration.copyAndApplyOverride</text>
</g>
<!-- m::com.android.server.app.GameManagerService$GamePackageConfiguration.copyAndApplyOverride:(Lcom/android/server/app/GameManagerService$GamePackageConfiguration;)Lcom/android/server/app/GameManagerService$GamePackageConfiguration;&#45;&gt;__field__ -->
<g id="edge2" class="edge">
<title>m::com.android.server.app.GameManagerService$GamePackageConfiguration.copyAndApplyOverride:(Lcom/android/server/app/GameManagerService$GamePackageConfiguration;)Lcom/android/server/app/GameManagerService$GamePackageConfiguration;&#45;&gt;__field__</title>
<path fill="none" stroke="#dc2626" d="M425.38,-29.36C464.5,-31.45 505.35,-33.64 544.43,-35.74"/>
<polygon fill="#dc2626" stroke="#dc2626" points="544.6,-38.55 552.74,-36.18 544.9,-32.96 544.6,-38.55"/>
<text text-anchor="middle" x="489" y="-36.8" font-family="Helvetica,sans-Serif" font-size="9.00" fill="#dc2626"> writes unguarded</text>
</g>
<!-- m::com.android.server.app.GameManagerService$GamePackageConfiguration.copyAndApplyOverride:(Lcom/android/server/app/GameManagerService$GamePackageConfiguration;)Lcom/android/server/app/GameManagerService$GamePackageConfiguration;&#45;&gt;__field__ -->
<g id="edge3" class="edge">
<title>m::com.android.server.app.GameManagerService$GamePackageConfiguration.copyAndApplyOverride:(Lcom/android/server/app/GameManagerService$GamePackageConfiguration;)Lcom/android/server/app/GameManagerService$GamePackageConfiguration;&#45;&gt;__field__</title>
<path fill="none" stroke="#dc2626" d="M425.42,-11.26C460.71,-11.5 496.91,-12.57 531,-15 567.44,-17.6 606.97,-22.54 642.51,-27.78"/>
<polygon fill="#dc2626" stroke="#dc2626" points="642.18,-30.57 650.5,-28.98 643.01,-25.03 642.18,-30.57"/>
<text text-anchor="middle" x="489" y="-17.8" font-family="Helvetica,sans-Serif" font-size="9.00" fill="#dc2626"> reads unguarded</text>
</g>
</g>
</svg>
